<?xml version="1.0" encoding="UTF-8" standalone="no"?>
<!DOCTYPE svg PUBLIC "-//W3C//DTD SVG 1.1//EN"
 "http://www.w3.org/Graphics/SVG/1.1/DTD/svg11.dtd">
<!-- Generated by graphviz version 2.40.1 (0)
 -->
<!-- Title: snakemake_dag Pages: 1 -->
<svg width="1175pt" height="420pt"
 viewBox="0.00 0.00 1175.27 420.00" xmlns="http://www.w3.org/2000/svg" xmlns:xlink="http://www.w3.org/1999/xlink">
<g id="graph0" class="graph" transform="scale(1 1) rotate(0) translate(4 416)">
<title>snakemake_dag</title>
<polygon fill="#ffffff" stroke="transparent" points="-4,4 -4,-416 1171.2682,-416 1171.2682,4 -4,4"/>
<!-- 0 -->
<g id="node1" class="node">
<title>0</title>
<path fill="none" stroke="#d85656" stroke-width="2" d="M662.5,-36C662.5,-36 632.5,-36 632.5,-36 626.5,-36 620.5,-30 620.5,-24 620.5,-24 620.5,-12 620.5,-12 620.5,-6 626.5,0 632.5,0 632.5,0 662.5,0 662.5,0 668.5,0 674.5,-6 674.5,-12 674.5,-12 674.5,-24 674.5,-24 674.5,-30 668.5,-36 662.5,-36"/>
<text text-anchor="middle" x="647.5" y="-15.5" font-family="sans" font-size="10.00" fill="#000000">all</text>
</g>
<!-- 1 -->
<g id="node2" class="node">
<title>1</title>
<path fill="none" stroke="#80d856" stroke-width="2" d="M610.5,-108C610.5,-108 580.5,-108 580.5,-108 574.5,-108 568.5,-102 568.5,-96 568.5,-96 568.5,-84 568.5,-84 568.5,-78 574.5,-72 580.5,-72 580.5,-72 610.5,-72 610.5,-72 616.5,-72 622.5,-78 622.5,-84 622.5,-84 622.5,-96 622.5,-96 622.5,-102 616.5,-108 610.5,-108"/>
<text text-anchor="middle" x="595.5" y="-87.5" font-family="sans" font-size="10.00" fill="#000000">multiqc</text>
</g>
<!-- 1&#45;&gt;0 -->
<g id="edge1" class="edge">
<title>1&#45;&gt;0</title>
<path fill="none" stroke="#c0c0c0" stroke-width="2" d="M608.6218,-71.8314C614.5499,-63.6232 621.6729,-53.7606 628.1933,-44.7323"/>
<polygon fill="#c0c0c0" stroke="#c0c0c0" stroke-width="2" points="631.184,-46.5693 634.2015,-36.4133 625.5092,-42.4708 631.184,-46.5693"/>
</g>
<!-- 2 -->
<g id="node3" class="node">
<title>2</title>
<path fill="none" stroke="#5682d8" stroke-width="2" d="M810.5,-180C810.5,-180 740.5,-180 740.5,-180 734.5,-180 728.5,-174 728.5,-168 728.5,-168 728.5,-156 728.5,-156 728.5,-150 734.5,-144 740.5,-144 740.5,-144 810.5,-144 810.5,-144 816.5,-144 822.5,-150 822.5,-156 822.5,-156 822.5,-168 822.5,-168 822.5,-174 816.5,-180 810.5,-180"/>
<text text-anchor="middle" x="775.5" y="-165" font-family="sans" font-size="10.00" fill="#000000">seqkit_stats</text>
<text text-anchor="middle" x="775.5" y="-154" font-family="sans" font-size="10.00" fill="#000000">tool: merge_lanes</text>
</g>
<!-- 2&#45;&gt;1 -->
<g id="edge5" class="edge">
<title>2&#45;&gt;1</title>
<path fill="none" stroke="#c0c0c0" stroke-width="2" d="M730.0784,-143.8314C699.8004,-131.7201 660.5168,-116.0067 632.2168,-104.6867"/>
<polygon fill="#c0c0c0" stroke="#c0c0c0" stroke-width="2" points="633.2823,-101.3433 622.6976,-100.879 630.6825,-107.8427 633.2823,-101.3433"/>
</g>
<!-- 3 -->
<g id="node4" class="node">
<title>3</title>
<path fill="none" stroke="#afd856" stroke-width="2" d="M976.5,-412C976.5,-412 872.5,-412 872.5,-412 866.5,-412 860.5,-406 860.5,-400 860.5,-400 860.5,-372 860.5,-372 860.5,-366 866.5,-360 872.5,-360 872.5,-360 976.5,-360 976.5,-360 982.5,-360 988.5,-366 988.5,-372 988.5,-372 988.5,-400 988.5,-400 988.5,-406 982.5,-412 976.5,-412"/>
<text text-anchor="middle" x="924.5" y="-400" font-family="sans" font-size="10.00" fill="#000000">merge_lanes</text>
<text text-anchor="middle" x="924.5" y="-389" font-family="sans" font-size="10.00" fill="#000000">library: lib1</text>
<text text-anchor="middle" x="924.5" y="-378" font-family="sans" font-size="10.00" fill="#000000">read_type_trim: collapsed</text>
<text text-anchor="middle" x="924.5" y="-367" font-family="sans" font-size="10.00" fill="#000000">sample: HD827sonic_2</text>
</g>
<!-- 3&#45;&gt;2 -->
<g id="edge17" class="edge">
<title>3&#45;&gt;2</title>
<path fill="none" stroke="#c0c0c0" stroke-width="2" d="M897.1478,-359.9279C887.2081,-349.4403 876.4713,-336.8066 868.5,-324 841.1988,-280.138 853.0718,-259.6925 825.5,-216 819.0661,-205.8043 810.5822,-195.7883 802.4336,-187.2047"/>
<polygon fill="#c0c0c0" stroke="#c0c0c0" stroke-width="2" points="804.9229,-184.7443 795.419,-180.0618 799.9285,-189.649 804.9229,-184.7443"/>
</g>
<!-- 9 -->
<g id="node10" class="node">
<title>9</title>
<path fill="none" stroke="#59d856" stroke-width="2" d="M959.5,-324C959.5,-324 889.5,-324 889.5,-324 883.5,-324 877.5,-318 877.5,-312 877.5,-312 877.5,-300 877.5,-300 877.5,-294 883.5,-288 889.5,-288 889.5,-288 959.5,-288 959.5,-288 965.5,-288 971.5,-294 971.5,-300 971.5,-300 971.5,-312 971.5,-312 971.5,-318 965.5,-324 959.5,-324"/>
<text text-anchor="middle" x="924.5" y="-309" font-family="sans" font-size="10.00" fill="#000000">nonpareil_infer</text>
<text text-anchor="middle" x="924.5" y="-298" font-family="sans" font-size="10.00" fill="#000000">tool: merge_lanes</text>
</g>
<!-- 3&#45;&gt;9 -->
<g id="edge21" class="edge">
<title>3&#45;&gt;9</title>
<path fill="none" stroke="#c0c0c0" stroke-width="2" d="M924.5,-359.805C924.5,-351.6026 924.5,-342.5174 924.5,-334.1839"/>
<polygon fill="#c0c0c0" stroke="#c0c0c0" stroke-width="2" points="928.0001,-334.1532 924.5,-324.1532 921.0001,-334.1533 928.0001,-334.1532"/>
</g>
<!-- 15 -->
<g id="node16" class="node">
<title>15</title>
<path fill="none" stroke="#d6d856" stroke-width="2" d="M1073.5,-324C1073.5,-324 1013.5,-324 1013.5,-324 1007.5,-324 1001.5,-318 1001.5,-312 1001.5,-312 1001.5,-300 1001.5,-300 1001.5,-294 1007.5,-288 1013.5,-288 1013.5,-288 1073.5,-288 1073.5,-288 1079.5,-288 1085.5,-294 1085.5,-300 1085.5,-300 1085.5,-312 1085.5,-312 1085.5,-318 1079.5,-324 1073.5,-324"/>
<text text-anchor="middle" x="1043.5" y="-303.5" font-family="sans" font-size="10.00" fill="#000000">low_complexity</text>
</g>
<!-- 3&#45;&gt;15 -->
<g id="edge27" class="edge">
<title>3&#45;&gt;15</title>
<path fill="none" stroke="#c0c0c0" stroke-width="2" d="M963.4651,-359.805C977.8353,-350.1444 994.027,-339.2592 1008.068,-329.8198"/>
<polygon fill="#c0c0c0" stroke="#c0c0c0" stroke-width="2" points="1010.1508,-332.6371 1016.4971,-324.1532 1006.2453,-326.8278 1010.1508,-332.6371"/>
</g>
<!-- 4 -->
<g id="node5" class="node">
<title>4</title>
<path fill="none" stroke="#5682d8" stroke-width="2" d="M420.5,-180C420.5,-180 350.5,-180 350.5,-180 344.5,-180 338.5,-174 338.5,-168 338.5,-168 338.5,-156 338.5,-156 338.5,-150 344.5,-144 350.5,-144 350.5,-144 420.5,-144 420.5,-144 426.5,-144 432.5,-150 432.5,-156 432.5,-156 432.5,-168 432.5,-168 432.5,-174 426.5,-180 420.5,-180"/>
<text text-anchor="middle" x="385.5" y="-165" font-family="sans" font-size="10.00" fill="#000000">seqkit_stats</text>
<text text-anchor="middle" x="385.5" y="-154" font-family="sans" font-size="10.00" fill="#000000">tool: merge_lanes</text>
</g>
<!-- 4&#45;&gt;1 -->
<g id="edge6" class="edge">
<title>4&#45;&gt;1</title>
<path fill="none" stroke="#c0c0c0" stroke-width="2" d="M432.6281,-145.8418C470.7099,-132.7852 523.5616,-114.6646 558.6076,-102.6488"/>
<polygon fill="#c0c0c0" stroke="#c0c0c0" stroke-width="2" points="560.1099,-105.8338 568.4342,-99.2797 557.8396,-99.2122 560.1099,-105.8338"/>
</g>
<!-- 5 -->
<g id="node6" class="node">
<title>5</title>
<path fill="none" stroke="#afd856" stroke-width="2" d="M238.5,-412C238.5,-412 134.5,-412 134.5,-412 128.5,-412 122.5,-406 122.5,-400 122.5,-400 122.5,-372 122.5,-372 122.5,-366 128.5,-360 134.5,-360 134.5,-360 238.5,-360 238.5,-360 244.5,-360 250.5,-366 250.5,-372 250.5,-372 250.5,-400 250.5,-400 250.5,-406 244.5,-412 238.5,-412"/>
<text text-anchor="middle" x="186.5" y="-400" font-family="sans" font-size="10.00" fill="#000000">merge_lanes</text>
<text text-anchor="middle" x="186.5" y="-389" font-family="sans" font-size="10.00" fill="#000000">library: lib2</text>
<text text-anchor="middle" x="186.5" y="-378" font-family="sans" font-size="10.00" fill="#000000">read_type_trim: collapsed</text>
<text text-anchor="middle" x="186.5" y="-367" font-family="sans" font-size="10.00" fill="#000000">sample: HD827sonic_2</text>
</g>
<!-- 5&#45;&gt;4 -->
<g id="edge18" class="edge">
<title>5&#45;&gt;4</title>
<path fill="none" stroke="#c0c0c0" stroke-width="2" d="M244.6507,-359.8712C287.2695,-337.5328 342.6874,-301.1788 372.5,-252 383.7034,-233.5189 386.6423,-209.0675 386.9518,-190.3156"/>
<polygon fill="#c0c0c0" stroke="#c0c0c0" stroke-width="2" points="390.4516,-190.2656 386.8811,-180.2906 383.4518,-190.315 390.4516,-190.2656"/>
</g>
<!-- 13 -->
<g id="node14" class="node">
<title>13</title>
<path fill="none" stroke="#59d856" stroke-width="2" d="M94.5,-324C94.5,-324 24.5,-324 24.5,-324 18.5,-324 12.5,-318 12.5,-312 12.5,-312 12.5,-300 12.5,-300 12.5,-294 18.5,-288 24.5,-288 24.5,-288 94.5,-288 94.5,-288 100.5,-288 106.5,-294 106.5,-300 106.5,-300 106.5,-312 106.5,-312 106.5,-318 100.5,-324 94.5,-324"/>
<text text-anchor="middle" x="59.5" y="-309" font-family="sans" font-size="10.00" fill="#000000">nonpareil_infer</text>
<text text-anchor="middle" x="59.5" y="-298" font-family="sans" font-size="10.00" fill="#000000">tool: merge_lanes</text>
</g>
<!-- 5&#45;&gt;13 -->
<g id="edge25" class="edge">
<title>5&#45;&gt;13</title>
<path fill="none" stroke="#c0c0c0" stroke-width="2" d="M144.9155,-359.805C129.4345,-350.0532 111.9727,-339.0537 96.8905,-329.5531"/>
<polygon fill="#c0c0c0" stroke="#c0c0c0" stroke-width="2" points="98.645,-326.5218 88.3183,-324.1532 94.914,-332.4446 98.645,-326.5218"/>
</g>
<!-- 17 -->
<g id="node18" class="node">
<title>17</title>
<path fill="none" stroke="#d6d856" stroke-width="2" d="M216.5,-324C216.5,-324 156.5,-324 156.5,-324 150.5,-324 144.5,-318 144.5,-312 144.5,-312 144.5,-300 144.5,-300 144.5,-294 150.5,-288 156.5,-288 156.5,-288 216.5,-288 216.5,-288 222.5,-288 228.5,-294 228.5,-300 228.5,-300 228.5,-312 228.5,-312 228.5,-318 222.5,-324 216.5,-324"/>
<text text-anchor="middle" x="186.5" y="-303.5" font-family="sans" font-size="10.00" fill="#000000">low_complexity</text>
</g>
<!-- 5&#45;&gt;17 -->
<g id="edge29" class="edge">
<title>5&#45;&gt;17</title>
<path fill="none" stroke="#c0c0c0" stroke-width="2" d="M186.5,-359.805C186.5,-351.6026 186.5,-342.5174 186.5,-334.1839"/>
<polygon fill="#c0c0c0" stroke="#c0c0c0" stroke-width="2" points="190.0001,-334.1532 186.5,-324.1532 183.0001,-334.1533 190.0001,-334.1532"/>
</g>
<!-- 6 -->
<g id="node7" class="node">
<title>6</title>
<path fill="none" stroke="#5682d8" stroke-width="2" d="M501.5,-324C501.5,-324 431.5,-324 431.5,-324 425.5,-324 419.5,-318 419.5,-312 419.5,-312 419.5,-300 419.5,-300 419.5,-294 425.5,-288 431.5,-288 431.5,-288 501.5,-288 501.5,-288 507.5,-288 513.5,-294 513.5,-300 513.5,-300 513.5,-312 513.5,-312 513.5,-318 507.5,-324 501.5,-324"/>
<text text-anchor="middle" x="466.5" y="-309" font-family="sans" font-size="10.00" fill="#000000">seqkit_stats</text>
<text text-anchor="middle" x="466.5" y="-298" font-family="sans" font-size="10.00" fill="#000000">tool: merge_lanes</text>
</g>
<!-- 6&#45;&gt;1 -->
<g id="edge7" class="edge">
<title>6&#45;&gt;1</title>
<path fill="none" stroke="#c0c0c0" stroke-width="2" d="M456.8137,-287.7946C448.2724,-269.1629 438.6008,-239.6676 448.5,-216 469.6038,-165.5437 523.2651,-128.3257 559.5721,-107.9007"/>
<polygon fill="#c0c0c0" stroke="#c0c0c0" stroke-width="2" points="561.3053,-110.9421 568.3984,-103.0719 557.9456,-104.801 561.3053,-110.9421"/>
</g>
<!-- 7 -->
<g id="node8" class="node">
<title>7</title>
<path fill="none" stroke="#afd856" stroke-width="2" d="M630.5,-412C630.5,-412 526.5,-412 526.5,-412 520.5,-412 514.5,-406 514.5,-400 514.5,-400 514.5,-372 514.5,-372 514.5,-366 520.5,-360 526.5,-360 526.5,-360 630.5,-360 630.5,-360 636.5,-360 642.5,-366 642.5,-372 642.5,-372 642.5,-400 642.5,-400 642.5,-406 636.5,-412 630.5,-412"/>
<text text-anchor="middle" x="578.5" y="-400" font-family="sans" font-size="10.00" fill="#000000">merge_lanes</text>
<text text-anchor="middle" x="578.5" y="-389" font-family="sans" font-size="10.00" fill="#000000">library: lib1</text>
<text text-anchor="middle" x="578.5" y="-378" font-family="sans" font-size="10.00" fill="#000000">read_type_trim: collapsed</text>
<text text-anchor="middle" x="578.5" y="-367" font-family="sans" font-size="10.00" fill="#000000">sample: HD827sonic_1</text>
</g>
<!-- 7&#45;&gt;6 -->
<g id="edge19" class="edge">
<title>7&#45;&gt;6</title>
<path fill="none" stroke="#c0c0c0" stroke-width="2" d="M541.827,-359.805C528.4297,-350.2355 513.3502,-339.4645 500.2223,-330.0874"/>
<polygon fill="#c0c0c0" stroke="#c0c0c0" stroke-width="2" points="502.0862,-327.1176 491.9145,-324.1532 498.0175,-332.8137 502.0862,-327.1176"/>
</g>
<!-- 11 -->
<g id="node12" class="node">
<title>11</title>
<path fill="none" stroke="#59d856" stroke-width="2" d="M613.5,-324C613.5,-324 543.5,-324 543.5,-324 537.5,-324 531.5,-318 531.5,-312 531.5,-312 531.5,-300 531.5,-300 531.5,-294 537.5,-288 543.5,-288 543.5,-288 613.5,-288 613.5,-288 619.5,-288 625.5,-294 625.5,-300 625.5,-300 625.5,-312 625.5,-312 625.5,-318 619.5,-324 613.5,-324"/>
<text text-anchor="middle" x="578.5" y="-309" font-family="sans" font-size="10.00" fill="#000000">nonpareil_infer</text>
<text text-anchor="middle" x="578.5" y="-298" font-family="sans" font-size="10.00" fill="#000000">tool: merge_lanes</text>
</g>
<!-- 7&#45;&gt;11 -->
<g id="edge23" class="edge">
<title>7&#45;&gt;11</title>
<path fill="none" stroke="#c0c0c0" stroke-width="2" d="M578.5,-359.805C578.5,-351.6026 578.5,-342.5174 578.5,-334.1839"/>
<polygon fill="#c0c0c0" stroke="#c0c0c0" stroke-width="2" points="582.0001,-334.1532 578.5,-324.1532 575.0001,-334.1533 582.0001,-334.1532"/>
</g>
<!-- 19 -->
<g id="node20" class="node">
<title>19</title>
<path fill="none" stroke="#d6d856" stroke-width="2" d="M738.5,-324C738.5,-324 678.5,-324 678.5,-324 672.5,-324 666.5,-318 666.5,-312 666.5,-312 666.5,-300 666.5,-300 666.5,-294 672.5,-288 678.5,-288 678.5,-288 738.5,-288 738.5,-288 744.5,-288 750.5,-294 750.5,-300 750.5,-300 750.5,-312 750.5,-312 750.5,-318 744.5,-324 738.5,-324"/>
<text text-anchor="middle" x="708.5" y="-303.5" font-family="sans" font-size="10.00" fill="#000000">low_complexity</text>
</g>
<!-- 7&#45;&gt;19 -->
<g id="edge31" class="edge">
<title>7&#45;&gt;19</title>
<path fill="none" stroke="#c0c0c0" stroke-width="2" d="M621.0669,-359.805C636.9135,-350.0532 654.7877,-339.0537 670.2262,-329.5531"/>
<polygon fill="#c0c0c0" stroke="#c0c0c0" stroke-width="2" points="672.3187,-332.3751 679.001,-324.1532 668.65,-326.4134 672.3187,-332.3751"/>
</g>
<!-- 8 -->
<g id="node9" class="node">
<title>8</title>
<path fill="none" stroke="#56d882" stroke-width="2" d="M906,-180C906,-180 853,-180 853,-180 847,-180 841,-174 841,-168 841,-168 841,-156 841,-156 841,-150 847,-144 853,-144 853,-144 906,-144 906,-144 912,-144 918,-150 918,-156 918,-156 918,-168 918,-168 918,-174 912,-180 906,-180"/>
<text text-anchor="middle" x="879.5" y="-159.5" font-family="sans" font-size="10.00" fill="#000000">nonpareil_plot</text>
</g>
<!-- 8&#45;&gt;1 -->
<g id="edge8" class="edge">
<title>8&#45;&gt;1</title>
<path fill="none" stroke="#c0c0c0" stroke-width="2" d="M840.8792,-147.0103C837.7232,-145.9405 834.5685,-144.9219 831.5,-144 762.2668,-123.1999 679.537,-105.9744 632.696,-96.909"/>
<polygon fill="#c0c0c0" stroke="#c0c0c0" stroke-width="2" points="633.1855,-93.4392 622.7054,-94.9942 631.8677,-100.3141 633.1855,-93.4392"/>
</g>
<!-- 9&#45;&gt;8 -->
<g id="edge20" class="edge">
<title>9&#45;&gt;8</title>
<path fill="none" stroke="#c0c0c0" stroke-width="2" d="M918.8007,-287.7623C911.0915,-263.0928 897.2687,-218.8598 888.2416,-189.9731"/>
<polygon fill="#c0c0c0" stroke="#c0c0c0" stroke-width="2" points="891.4765,-188.5904 885.153,-180.0896 884.7951,-190.6784 891.4765,-188.5904"/>
</g>
<!-- 10 -->
<g id="node11" class="node">
<title>10</title>
<path fill="none" stroke="#56d882" stroke-width="2" d="M523,-252C523,-252 470,-252 470,-252 464,-252 458,-246 458,-240 458,-240 458,-228 458,-228 458,-222 464,-216 470,-216 470,-216 523,-216 523,-216 529,-216 535,-222 535,-228 535,-228 535,-240 535,-240 535,-246 529,-252 523,-252"/>
<text text-anchor="middle" x="496.5" y="-231.5" font-family="sans" font-size="10.00" fill="#000000">nonpareil_plot</text>
</g>
<!-- 10&#45;&gt;1 -->
<g id="edge9" class="edge">
<title>10&#45;&gt;1</title>
<path fill="none" stroke="#c0c0c0" stroke-width="2" d="M505.4058,-215.7314C514.8402,-197.0492 530.6739,-167.5145 547.5,-144 554.4298,-134.3157 562.8211,-124.3876 570.637,-115.7285"/>
<polygon fill="#c0c0c0" stroke="#c0c0c0" stroke-width="2" points="573.3931,-117.9025 577.5946,-108.1763 568.2448,-113.1595 573.3931,-117.9025"/>
</g>
<!-- 11&#45;&gt;10 -->
<g id="edge22" class="edge">
<title>11&#45;&gt;10</title>
<path fill="none" stroke="#c0c0c0" stroke-width="2" d="M557.8079,-287.8314C547.8052,-279.0485 535.645,-268.3712 524.8001,-258.8489"/>
<polygon fill="#c0c0c0" stroke="#c0c0c0" stroke-width="2" points="527.0092,-256.1308 517.1854,-252.1628 522.3906,-261.3909 527.0092,-256.1308"/>
</g>
<!-- 12 -->
<g id="node13" class="node">
<title>12</title>
<path fill="none" stroke="#56d882" stroke-width="2" d="M65,-252C65,-252 12,-252 12,-252 6,-252 0,-246 0,-240 0,-240 0,-228 0,-228 0,-222 6,-216 12,-216 12,-216 65,-216 65,-216 71,-216 77,-222 77,-228 77,-228 77,-240 77,-240 77,-246 71,-252 65,-252"/>
<text text-anchor="middle" x="38.5" y="-231.5" font-family="sans" font-size="10.00" fill="#000000">nonpareil_plot</text>
</g>
<!-- 12&#45;&gt;1 -->
<g id="edge10" class="edge">
<title>12&#45;&gt;1</title>
<path fill="none" stroke="#c0c0c0" stroke-width="2" d="M57.7246,-215.998C81.5039,-194.8895 124.1738,-160.6719 167.5,-144 238.7703,-116.5752 468.0813,-98.5772 558.4229,-92.3898"/>
<polygon fill="#c0c0c0" stroke="#c0c0c0" stroke-width="2" points="558.7404,-95.8765 568.4818,-91.7106 558.2687,-88.8924 558.7404,-95.8765"/>
</g>
<!-- 13&#45;&gt;12 -->
<g id="edge24" class="edge">
<title>13&#45;&gt;12</title>
<path fill="none" stroke="#c0c0c0" stroke-width="2" d="M54.2008,-287.8314C51.9302,-280.0463 49.2254,-270.7729 46.706,-262.1347"/>
<polygon fill="#c0c0c0" stroke="#c0c0c0" stroke-width="2" points="50.0306,-261.0332 43.8705,-252.4133 43.3106,-262.9933 50.0306,-261.0332"/>
</g>
<!-- 14 -->
<g id="node15" class="node">
<title>14</title>
<path fill="none" stroke="#5682d8" stroke-width="2" d="M1030.5,-180C1030.5,-180 948.5,-180 948.5,-180 942.5,-180 936.5,-174 936.5,-168 936.5,-168 936.5,-156 936.5,-156 936.5,-150 942.5,-144 948.5,-144 948.5,-144 1030.5,-144 1030.5,-144 1036.5,-144 1042.5,-150 1042.5,-156 1042.5,-156 1042.5,-168 1042.5,-168 1042.5,-174 1036.5,-180 1030.5,-180"/>
<text text-anchor="middle" x="989.5" y="-165" font-family="sans" font-size="10.00" fill="#000000">seqkit_stats</text>
<text text-anchor="middle" x="989.5" y="-154" font-family="sans" font-size="10.00" fill="#000000">tool: low_complexity</text>
</g>
<!-- 14&#45;&gt;1 -->
<g id="edge11" class="edge">
<title>14&#45;&gt;1</title>
<path fill="none" stroke="#c0c0c0" stroke-width="2" d="M936.3359,-146.3388C933.0177,-145.5077 929.7193,-144.7199 926.5,-144 820.9518,-120.3964 694.3049,-102.6156 632.7486,-94.6347"/>
<polygon fill="#c0c0c0" stroke="#c0c0c0" stroke-width="2" points="633.0998,-91.1512 622.7354,-93.3488 632.2081,-98.0941 633.0998,-91.1512"/>
</g>
<!-- 15&#45;&gt;0 -->
<g id="edge2" class="edge">
<title>15&#45;&gt;0</title>
<path fill="none" stroke="#c0c0c0" stroke-width="2" d="M1085.6498,-294.4877C1107.0872,-286.3093 1131.3352,-272.9643 1144.5,-252 1170.0364,-211.3346 1177.0156,-181.8762 1147.5,-144 1089.7803,-69.9304 790.865,-32.6411 684.8437,-21.5934"/>
<polygon fill="#c0c0c0" stroke="#c0c0c0" stroke-width="2" points="684.9247,-18.0835 674.6204,-20.5476 684.2123,-25.0472 684.9247,-18.0835"/>
</g>
<!-- 15&#45;&gt;14 -->
<g id="edge26" class="edge">
<title>15&#45;&gt;14</title>
<path fill="none" stroke="#c0c0c0" stroke-width="2" d="M1035.2963,-287.6379C1030.7529,-277.2521 1025.1092,-263.9835 1020.5,-252 1012.528,-231.2736 1004.3839,-207.5088 998.4447,-189.606"/>
<polygon fill="#c0c0c0" stroke="#c0c0c0" stroke-width="2" points="1001.7554,-188.4694 995.3041,-180.0651 995.1064,-190.6581 1001.7554,-188.4694"/>
</g>
<!-- 21 -->
<g id="node22" class="node">
<title>21</title>
<path fill="none" stroke="#59d856" stroke-width="2" d="M1123.5,-252C1123.5,-252 1041.5,-252 1041.5,-252 1035.5,-252 1029.5,-246 1029.5,-240 1029.5,-240 1029.5,-228 1029.5,-228 1029.5,-222 1035.5,-216 1041.5,-216 1041.5,-216 1123.5,-216 1123.5,-216 1129.5,-216 1135.5,-222 1135.5,-228 1135.5,-228 1135.5,-240 1135.5,-240 1135.5,-246 1129.5,-252 1123.5,-252"/>
<text text-anchor="middle" x="1082.5" y="-237" font-family="sans" font-size="10.00" fill="#000000">nonpareil_infer</text>
<text text-anchor="middle" x="1082.5" y="-226" font-family="sans" font-size="10.00" fill="#000000">tool: low_complexity</text>
</g>
<!-- 15&#45;&gt;21 -->
<g id="edge33" class="edge">
<title>15&#45;&gt;21</title>
<path fill="none" stroke="#c0c0c0" stroke-width="2" d="M1053.3413,-287.8314C1057.6957,-279.7925 1062.9098,-270.1666 1067.7169,-261.2918"/>
<polygon fill="#c0c0c0" stroke="#c0c0c0" stroke-width="2" points="1070.8408,-262.8732 1072.5261,-252.4133 1064.6857,-259.5392 1070.8408,-262.8732"/>
</g>
<!-- 16 -->
<g id="node17" class="node">
<title>16</title>
<path fill="none" stroke="#5682d8" stroke-width="2" d="M351.5,-252C351.5,-252 269.5,-252 269.5,-252 263.5,-252 257.5,-246 257.5,-240 257.5,-240 257.5,-228 257.5,-228 257.5,-222 263.5,-216 269.5,-216 269.5,-216 351.5,-216 351.5,-216 357.5,-216 363.5,-222 363.5,-228 363.5,-228 363.5,-240 363.5,-240 363.5,-246 357.5,-252 351.5,-252"/>
<text text-anchor="middle" x="310.5" y="-237" font-family="sans" font-size="10.00" fill="#000000">seqkit_stats</text>
<text text-anchor="middle" x="310.5" y="-226" font-family="sans" font-size="10.00" fill="#000000">tool: low_complexity</text>
</g>
<!-- 16&#45;&gt;1 -->
<g id="edge12" class="edge">
<title>16&#45;&gt;1</title>
<path fill="none" stroke="#c0c0c0" stroke-width="2" d="M308.9283,-215.7411C308.2516,-195.3607 310.5691,-162.7843 329.5,-144 361.2651,-112.4807 492.3082,-98.0073 557.8362,-92.6358"/>
<polygon fill="#c0c0c0" stroke="#c0c0c0" stroke-width="2" points="558.4491,-96.0984 568.1425,-91.8219 557.898,-89.1201 558.4491,-96.0984"/>
</g>
<!-- 17&#45;&gt;0 -->
<g id="edge4" class="edge">
<title>17&#45;&gt;0</title>
<path fill="none" stroke="#c0c0c0" stroke-width="2" d="M156.0042,-287.7757C143.8178,-278.7056 131.1228,-266.5508 124.5,-252 103.0975,-204.9769 126.2013,-175.0427 167.5,-144 239.005,-90.2523 510.3228,-40.7971 610.2554,-24.0339"/>
<polygon fill="#c0c0c0" stroke="#c0c0c0" stroke-width="2" points="610.9149,-27.4723 620.2047,-22.3782 609.7658,-20.5673 610.9149,-27.4723"/>
</g>
<!-- 17&#45;&gt;16 -->
<g id="edge28" class="edge">
<title>17&#45;&gt;16</title>
<path fill="none" stroke="#c0c0c0" stroke-width="2" d="M217.7904,-287.8314C233.7977,-278.5368 253.4586,-267.1208 270.5494,-257.1971"/>
<polygon fill="#c0c0c0" stroke="#c0c0c0" stroke-width="2" points="272.3292,-260.211 279.2196,-252.1628 268.8142,-254.1575 272.3292,-260.211"/>
</g>
<!-- 25 -->
<g id="node26" class="node">
<title>25</title>
<path fill="none" stroke="#59d856" stroke-width="2" d="M227.5,-252C227.5,-252 145.5,-252 145.5,-252 139.5,-252 133.5,-246 133.5,-240 133.5,-240 133.5,-228 133.5,-228 133.5,-222 139.5,-216 145.5,-216 145.5,-216 227.5,-216 227.5,-216 233.5,-216 239.5,-222 239.5,-228 239.5,-228 239.5,-240 239.5,-240 239.5,-246 233.5,-252 227.5,-252"/>
<text text-anchor="middle" x="186.5" y="-237" font-family="sans" font-size="10.00" fill="#000000">nonpareil_infer</text>
<text text-anchor="middle" x="186.5" y="-226" font-family="sans" font-size="10.00" fill="#000000">tool: low_complexity</text>
</g>
<!-- 17&#45;&gt;25 -->
<g id="edge37" class="edge">
<title>17&#45;&gt;25</title>
<path fill="none" stroke="#c0c0c0" stroke-width="2" d="M186.5,-287.8314C186.5,-280.131 186.5,-270.9743 186.5,-262.4166"/>
<polygon fill="#c0c0c0" stroke="#c0c0c0" stroke-width="2" points="190.0001,-262.4132 186.5,-252.4133 183.0001,-262.4133 190.0001,-262.4132"/>
</g>
<!-- 18 -->
<g id="node19" class="node">
<title>18</title>
<path fill="none" stroke="#5682d8" stroke-width="2" d="M771.5,-252C771.5,-252 689.5,-252 689.5,-252 683.5,-252 677.5,-246 677.5,-240 677.5,-240 677.5,-228 677.5,-228 677.5,-222 683.5,-216 689.5,-216 689.5,-216 771.5,-216 771.5,-216 777.5,-216 783.5,-222 783.5,-228 783.5,-228 783.5,-240 783.5,-240 783.5,-246 777.5,-252 771.5,-252"/>
<text text-anchor="middle" x="730.5" y="-237" font-family="sans" font-size="10.00" fill="#000000">seqkit_stats</text>
<text text-anchor="middle" x="730.5" y="-226" font-family="sans" font-size="10.00" fill="#000000">tool: low_complexity</text>
</g>
<!-- 18&#45;&gt;1 -->
<g id="edge13" class="edge">
<title>18&#45;&gt;1</title>
<path fill="none" stroke="#c0c0c0" stroke-width="2" d="M713.4022,-215.7623C689.6659,-190.4436 646.6108,-144.5182 619.6173,-115.7251"/>
<polygon fill="#c0c0c0" stroke="#c0c0c0" stroke-width="2" points="621.8518,-112.9912 612.459,-108.0896 616.7451,-117.7788 621.8518,-112.9912"/>
</g>
<!-- 19&#45;&gt;0 -->
<g id="edge3" class="edge">
<title>19&#45;&gt;0</title>
<path fill="none" stroke="#c0c0c0" stroke-width="2" d="M750.8256,-289.4392C766.8723,-280.8379 783.4447,-268.5862 792.5,-252 800.167,-237.9566 800.9491,-229.5873 792.5,-216 773.3971,-185.2799 744.564,-206.0853 719.5,-180 682.6856,-141.6855 662.7803,-81.3727 653.7205,-46.1568"/>
<polygon fill="#c0c0c0" stroke="#c0c0c0" stroke-width="2" points="657.0317,-44.9639 651.2503,-36.0856 650.2332,-46.6315 657.0317,-44.9639"/>
</g>
<!-- 19&#45;&gt;18 -->
<g id="edge30" class="edge">
<title>19&#45;&gt;18</title>
<path fill="none" stroke="#c0c0c0" stroke-width="2" d="M714.0515,-287.8314C716.4303,-280.0463 719.2638,-270.7729 721.9033,-262.1347"/>
<polygon fill="#c0c0c0" stroke="#c0c0c0" stroke-width="2" points="725.2987,-262.9996 724.8737,-252.4133 718.6042,-260.954 725.2987,-262.9996"/>
</g>
<!-- 23 -->
<g id="node24" class="node">
<title>23</title>
<path fill="none" stroke="#59d856" stroke-width="2" d="M647.5,-252C647.5,-252 565.5,-252 565.5,-252 559.5,-252 553.5,-246 553.5,-240 553.5,-240 553.5,-228 553.5,-228 553.5,-222 559.5,-216 565.5,-216 565.5,-216 647.5,-216 647.5,-216 653.5,-216 659.5,-222 659.5,-228 659.5,-228 659.5,-240 659.5,-240 659.5,-246 653.5,-252 647.5,-252"/>
<text text-anchor="middle" x="606.5" y="-237" font-family="sans" font-size="10.00" fill="#000000">nonpareil_infer</text>
<text text-anchor="middle" x="606.5" y="-226" font-family="sans" font-size="10.00" fill="#000000">tool: low_complexity</text>
</g>
<!-- 19&#45;&gt;23 -->
<g id="edge35" class="edge">
<title>19&#45;&gt;23</title>
<path fill="none" stroke="#c0c0c0" stroke-width="2" d="M682.7611,-287.8314C669.9563,-278.7927 654.3091,-267.7476 640.5281,-258.0198"/>
<polygon fill="#c0c0c0" stroke="#c0c0c0" stroke-width="2" points="642.4188,-255.0703 632.2307,-252.1628 638.382,-260.7891 642.4188,-255.0703"/>
</g>
<!-- 20 -->
<g id="node21" class="node">
<title>20</title>
<path fill="none" stroke="#56d882" stroke-width="2" d="M1126,-180C1126,-180 1073,-180 1073,-180 1067,-180 1061,-174 1061,-168 1061,-168 1061,-156 1061,-156 1061,-150 1067,-144 1073,-144 1073,-144 1126,-144 1126,-144 1132,-144 1138,-150 1138,-156 1138,-156 1138,-168 1138,-168 1138,-174 1132,-180 1126,-180"/>
<text text-anchor="middle" x="1099.5" y="-159.5" font-family="sans" font-size="10.00" fill="#000000">nonpareil_plot</text>
</g>
<!-- 20&#45;&gt;1 -->
<g id="edge14" class="edge">
<title>20&#45;&gt;1</title>
<path fill="none" stroke="#c0c0c0" stroke-width="2" d="M1060.9788,-146.6436C1057.8004,-145.656 1054.6134,-144.7564 1051.5,-144 899.0875,-106.9732 711.6073,-94.9642 632.9841,-91.3887"/>
<polygon fill="#c0c0c0" stroke="#c0c0c0" stroke-width="2" points="632.7701,-87.8762 622.6275,-90.9385 632.466,-94.8696 632.7701,-87.8762"/>
</g>
<!-- 21&#45;&gt;20 -->
<g id="edge32" class="edge">
<title>21&#45;&gt;20</title>
<path fill="none" stroke="#c0c0c0" stroke-width="2" d="M1086.7898,-215.8314C1088.608,-208.131 1090.7699,-198.9743 1092.7905,-190.4166"/>
<polygon fill="#c0c0c0" stroke="#c0c0c0" stroke-width="2" points="1096.2608,-190.95 1095.1524,-180.4133 1089.4481,-189.3414 1096.2608,-190.95"/>
</g>
<!-- 22 -->
<g id="node23" class="node">
<title>22</title>
<path fill="none" stroke="#56d882" stroke-width="2" d="M622,-180C622,-180 569,-180 569,-180 563,-180 557,-174 557,-168 557,-168 557,-156 557,-156 557,-150 563,-144 569,-144 569,-144 622,-144 622,-144 628,-144 634,-150 634,-156 634,-156 634,-168 634,-168 634,-174 628,-180 622,-180"/>
<text text-anchor="middle" x="595.5" y="-159.5" font-family="sans" font-size="10.00" fill="#000000">nonpareil_plot</text>
</g>
<!-- 22&#45;&gt;1 -->
<g id="edge15" class="edge">
<title>22&#45;&gt;1</title>
<path fill="none" stroke="#c0c0c0" stroke-width="2" d="M595.5,-143.8314C595.5,-136.131 595.5,-126.9743 595.5,-118.4166"/>
<polygon fill="#c0c0c0" stroke="#c0c0c0" stroke-width="2" points="599.0001,-118.4132 595.5,-108.4133 592.0001,-118.4133 599.0001,-118.4132"/>
</g>
<!-- 23&#45;&gt;22 -->
<g id="edge34" class="edge">
<title>23&#45;&gt;22</title>
<path fill="none" stroke="#c0c0c0" stroke-width="2" d="M603.7242,-215.8314C602.5478,-208.131 601.1489,-198.9743 599.8414,-190.4166"/>
<polygon fill="#c0c0c0" stroke="#c0c0c0" stroke-width="2" points="603.2833,-189.7699 598.3131,-180.4133 596.3636,-190.8272 603.2833,-189.7699"/>
</g>
<!-- 24 -->
<g id="node25" class="node">
<title>24</title>
<path fill="none" stroke="#56d882" stroke-width="2" d="M242,-180C242,-180 189,-180 189,-180 183,-180 177,-174 177,-168 177,-168 177,-156 177,-156 177,-150 183,-144 189,-144 189,-144 242,-144 242,-144 248,-144 254,-150 254,-156 254,-156 254,-168 254,-168 254,-174 248,-180 242,-180"/>
<text text-anchor="middle" x="215.5" y="-159.5" font-family="sans" font-size="10.00" fill="#000000">nonpareil_plot</text>
</g>
<!-- 24&#45;&gt;1 -->
<g id="edge16" class="edge">
<title>24&#45;&gt;1</title>
<path fill="none" stroke="#c0c0c0" stroke-width="2" d="M254.1621,-153.078C267.5464,-150.0772 282.6603,-146.7863 296.5,-144 390.4561,-125.084 501.657,-105.8177 558.2969,-96.2267"/>
<polygon fill="#c0c0c0" stroke="#c0c0c0" stroke-width="2" points="558.9438,-99.6671 568.2214,-94.5507 557.7781,-92.7649 558.9438,-99.6671"/>
</g>
<!-- 25&#45;&gt;24 -->
<g id="edge36" class="edge">
<title>25&#45;&gt;24</title>
<path fill="none" stroke="#c0c0c0" stroke-width="2" d="M193.8179,-215.8314C196.9876,-207.9617 200.77,-198.5712 204.2813,-189.8533"/>
<polygon fill="#c0c0c0" stroke="#c0c0c0" stroke-width="2" points="207.5939,-190.9968 208.0835,-180.4133 201.1008,-188.3815 207.5939,-190.9968"/>
</g>
</g>
</svg>
