<?xml version="1.0" encoding="UTF-8" standalone="no"?>
<!DOCTYPE svg PUBLIC "-//W3C//DTD SVG 1.1//EN"
 "http://www.w3.org/Graphics/SVG/1.1/DTD/svg11.dtd">
<!-- Generated by graphviz version 2.40.1 (0)
 -->
<!-- Title: snakemake_dag Pages: 1 -->
<svg width="1263pt" height="420pt"
 viewBox="0.00 0.00 1263.45 420.00" xmlns="http://www.w3.org/2000/svg" xmlns:xlink="http://www.w3.org/1999/xlink">
<g id="graph0" class="graph" transform="scale(1 1) rotate(0) translate(4 416)">
<title>snakemake_dag</title>
<polygon fill="#ffffff" stroke="transparent" points="-4,4 -4,-416 1259.4455,-416 1259.4455,4 -4,4"/>
<!-- 0 -->
<g id="node1" class="node">
<title>0</title>
<path fill="none" stroke="#8fd856" stroke-width="2" d="M702,-36C702,-36 672,-36 672,-36 666,-36 660,-30 660,-24 660,-24 660,-12 660,-12 660,-6 666,0 672,0 672,0 702,0 702,0 708,0 714,-6 714,-12 714,-12 714,-24 714,-24 714,-30 708,-36 702,-36"/>
<text text-anchor="middle" x="687" y="-15.5" font-family="sans" font-size="10.00" fill="#000000">all</text>
</g>
<!-- 1 -->
<g id="node2" class="node">
<title>1</title>
<path fill="none" stroke="#b6d856" stroke-width="2" d="M669,-108C669,-108 639,-108 639,-108 633,-108 627,-102 627,-96 627,-96 627,-84 627,-84 627,-78 633,-72 639,-72 639,-72 669,-72 669,-72 675,-72 681,-78 681,-84 681,-84 681,-96 681,-96 681,-102 675,-108 669,-108"/>
<text text-anchor="middle" x="654" y="-87.5" font-family="sans" font-size="10.00" fill="#000000">multiqc</text>
</g>
<!-- 1&#45;&gt;0 -->
<g id="edge1" class="edge">
<title>1&#45;&gt;0</title>
<path fill="none" stroke="#c0c0c0" stroke-width="2" d="M662.3273,-71.8314C665.973,-63.8771 670.3309,-54.369 674.3627,-45.5723"/>
<polygon fill="#c0c0c0" stroke="#c0c0c0" stroke-width="2" points="677.5757,-46.9622 678.5606,-36.4133 671.2123,-44.0456 677.5757,-46.9622"/>
</g>
<!-- 2 -->
<g id="node3" class="node">
<title>2</title>
<path fill="none" stroke="#567bd8" stroke-width="2" d="M82,-180C82,-180 12,-180 12,-180 6,-180 0,-174 0,-168 0,-168 0,-156 0,-156 0,-150 6,-144 12,-144 12,-144 82,-144 82,-144 88,-144 94,-150 94,-156 94,-156 94,-168 94,-168 94,-174 88,-180 82,-180"/>
<text text-anchor="middle" x="47" y="-165" font-family="sans" font-size="10.00" fill="#000000">seqkit_stats</text>
<text text-anchor="middle" x="47" y="-154" font-family="sans" font-size="10.00" fill="#000000">tool: merge_lanes</text>
</g>
<!-- 2&#45;&gt;1 -->
<g id="edge5" class="edge">
<title>2&#45;&gt;1</title>
<path fill="none" stroke="#c0c0c0" stroke-width="2" d="M94.2055,-152.1541C109.1286,-149.2585 125.7139,-146.264 141,-144 318.343,-117.7343 532.0263,-99.5264 616.7697,-92.8356"/>
<polygon fill="#c0c0c0" stroke="#c0c0c0" stroke-width="2" points="617.2264,-96.3106 626.9226,-92.0405 616.6798,-89.332 617.2264,-96.3106"/>
</g>
<!-- 3 -->
<g id="node4" class="node">
<title>3</title>
<path fill="none" stroke="#56d8b9" stroke-width="2" d="M255,-412C255,-412 151,-412 151,-412 145,-412 139,-406 139,-400 139,-400 139,-372 139,-372 139,-366 145,-360 151,-360 151,-360 255,-360 255,-360 261,-360 267,-366 267,-372 267,-372 267,-400 267,-400 267,-406 261,-412 255,-412"/>
<text text-anchor="middle" x="203" y="-400" font-family="sans" font-size="10.00" fill="#000000">merge_lanes</text>
<text text-anchor="middle" x="203" y="-389" font-family="sans" font-size="10.00" fill="#000000">library: lib2</text>
<text text-anchor="middle" x="203" y="-378" font-family="sans" font-size="10.00" fill="#000000">read_type_trim: collapsed</text>
<text text-anchor="middle" x="203" y="-367" font-family="sans" font-size="10.00" fill="#000000">sample: HD827sonic_2</text>
</g>
<!-- 3&#45;&gt;2 -->
<g id="edge17" class="edge">
<title>3&#45;&gt;2</title>
<path fill="none" stroke="#c0c0c0" stroke-width="2" d="M180.485,-359.9738C171.3549,-349.0805 160.889,-336.1477 152,-324 118.3502,-278.0144 83.0844,-221.6573 63.1905,-188.987"/>
<polygon fill="#c0c0c0" stroke="#c0c0c0" stroke-width="2" points="66.1789,-187.1649 58.0012,-180.4288 60.1933,-190.7944 66.1789,-187.1649"/>
</g>
<!-- 13 -->
<g id="node14" class="node">
<title>13</title>
<path fill="none" stroke="#d85656" stroke-width="2" d="M384,-324C384,-324 314,-324 314,-324 308,-324 302,-318 302,-312 302,-312 302,-300 302,-300 302,-294 308,-288 314,-288 314,-288 384,-288 384,-288 390,-288 396,-294 396,-300 396,-300 396,-312 396,-312 396,-318 390,-324 384,-324"/>
<text text-anchor="middle" x="349" y="-309" font-family="sans" font-size="10.00" fill="#000000">nonpareil_infer</text>
<text text-anchor="middle" x="349" y="-298" font-family="sans" font-size="10.00" fill="#000000">tool: merge_lanes</text>
</g>
<!-- 3&#45;&gt;13 -->
<g id="edge25" class="edge">
<title>3&#45;&gt;13</title>
<path fill="none" stroke="#c0c0c0" stroke-width="2" d="M250.8059,-359.805C268.9355,-349.8709 289.4282,-338.6421 306.985,-329.0219"/>
<polygon fill="#c0c0c0" stroke="#c0c0c0" stroke-width="2" points="308.7825,-332.0281 315.8703,-324.1532 305.4187,-325.8892 308.7825,-332.0281"/>
</g>
<!-- 17 -->
<g id="node18" class="node">
<title>17</title>
<path fill="none" stroke="#56a9d8" stroke-width="2" d="M233,-324C233,-324 173,-324 173,-324 167,-324 161,-318 161,-312 161,-312 161,-300 161,-300 161,-294 167,-288 173,-288 173,-288 233,-288 233,-288 239,-288 245,-294 245,-300 245,-300 245,-312 245,-312 245,-318 239,-324 233,-324"/>
<text text-anchor="middle" x="203" y="-303.5" font-family="sans" font-size="10.00" fill="#000000">low_complexity</text>
</g>
<!-- 3&#45;&gt;17 -->
<g id="edge29" class="edge">
<title>3&#45;&gt;17</title>
<path fill="none" stroke="#c0c0c0" stroke-width="2" d="M203,-359.805C203,-351.6026 203,-342.5174 203,-334.1839"/>
<polygon fill="#c0c0c0" stroke="#c0c0c0" stroke-width="2" points="206.5001,-334.1532 203,-324.1532 199.5001,-334.1533 206.5001,-334.1532"/>
</g>
<!-- 4 -->
<g id="node5" class="node">
<title>4</title>
<path fill="none" stroke="#567bd8" stroke-width="2" d="M547,-180C547,-180 477,-180 477,-180 471,-180 465,-174 465,-168 465,-168 465,-156 465,-156 465,-150 471,-144 477,-144 477,-144 547,-144 547,-144 553,-144 559,-150 559,-156 559,-156 559,-168 559,-168 559,-174 553,-180 547,-180"/>
<text text-anchor="middle" x="512" y="-165" font-family="sans" font-size="10.00" fill="#000000">seqkit_stats</text>
<text text-anchor="middle" x="512" y="-154" font-family="sans" font-size="10.00" fill="#000000">tool: merge_lanes</text>
</g>
<!-- 4&#45;&gt;1 -->
<g id="edge6" class="edge">
<title>4&#45;&gt;1</title>
<path fill="none" stroke="#c0c0c0" stroke-width="2" d="M547.8326,-143.8314C569.1604,-133.0173 596.1523,-119.3312 617.5824,-108.4652"/>
<polygon fill="#c0c0c0" stroke="#c0c0c0" stroke-width="2" points="619.3583,-111.4891 626.6945,-103.845 616.1927,-105.2457 619.3583,-111.4891"/>
</g>
<!-- 5 -->
<g id="node6" class="node">
<title>5</title>
<path fill="none" stroke="#56d8b9" stroke-width="2" d="M590,-412C590,-412 486,-412 486,-412 480,-412 474,-406 474,-400 474,-400 474,-372 474,-372 474,-366 480,-360 486,-360 486,-360 590,-360 590,-360 596,-360 602,-366 602,-372 602,-372 602,-400 602,-400 602,-406 596,-412 590,-412"/>
<text text-anchor="middle" x="538" y="-400" font-family="sans" font-size="10.00" fill="#000000">merge_lanes</text>
<text text-anchor="middle" x="538" y="-389" font-family="sans" font-size="10.00" fill="#000000">library: lib1</text>
<text text-anchor="middle" x="538" y="-378" font-family="sans" font-size="10.00" fill="#000000">read_type_trim: collapsed</text>
<text text-anchor="middle" x="538" y="-367" font-family="sans" font-size="10.00" fill="#000000">sample: HD827sonic_2</text>
</g>
<!-- 5&#45;&gt;4 -->
<g id="edge18" class="edge">
<title>5&#45;&gt;4</title>
<path fill="none" stroke="#c0c0c0" stroke-width="2" d="M506.4654,-359.7669C496.6996,-349.7103 487.1564,-337.4018 482,-324 464.7635,-279.2015 469.9596,-262.4654 482,-216 484.3846,-206.7976 488.7146,-197.4938 493.3568,-189.2621"/>
<polygon fill="#c0c0c0" stroke="#c0c0c0" stroke-width="2" points="496.4813,-190.8582 498.6438,-180.4863 490.4854,-187.2459 496.4813,-190.8582"/>
</g>
<!-- 9 -->
<g id="node10" class="node">
<title>9</title>
<path fill="none" stroke="#d85656" stroke-width="2" d="M573,-324C573,-324 503,-324 503,-324 497,-324 491,-318 491,-312 491,-312 491,-300 491,-300 491,-294 497,-288 503,-288 503,-288 573,-288 573,-288 579,-288 585,-294 585,-300 585,-300 585,-312 585,-312 585,-318 579,-324 573,-324"/>
<text text-anchor="middle" x="538" y="-309" font-family="sans" font-size="10.00" fill="#000000">nonpareil_infer</text>
<text text-anchor="middle" x="538" y="-298" font-family="sans" font-size="10.00" fill="#000000">tool: merge_lanes</text>
</g>
<!-- 5&#45;&gt;9 -->
<g id="edge21" class="edge">
<title>5&#45;&gt;9</title>
<path fill="none" stroke="#c0c0c0" stroke-width="2" d="M538,-359.805C538,-351.6026 538,-342.5174 538,-334.1839"/>
<polygon fill="#c0c0c0" stroke="#c0c0c0" stroke-width="2" points="541.5001,-334.1532 538,-324.1532 534.5001,-334.1533 541.5001,-334.1532"/>
</g>
<!-- 19 -->
<g id="node20" class="node">
<title>19</title>
<path fill="none" stroke="#56a9d8" stroke-width="2" d="M713,-324C713,-324 653,-324 653,-324 647,-324 641,-318 641,-312 641,-312 641,-300 641,-300 641,-294 647,-288 653,-288 653,-288 713,-288 713,-288 719,-288 725,-294 725,-300 725,-300 725,-312 725,-312 725,-318 719,-324 713,-324"/>
<text text-anchor="middle" x="683" y="-303.5" font-family="sans" font-size="10.00" fill="#000000">low_complexity</text>
</g>
<!-- 5&#45;&gt;19 -->
<g id="edge31" class="edge">
<title>5&#45;&gt;19</title>
<path fill="none" stroke="#c0c0c0" stroke-width="2" d="M585.4784,-359.805C603.4839,-349.8709 623.8363,-338.6421 641.2728,-329.0219"/>
<polygon fill="#c0c0c0" stroke="#c0c0c0" stroke-width="2" points="643.0323,-332.0486 650.0973,-324.1532 639.6507,-325.9195 643.0323,-332.0486"/>
</g>
<!-- 6 -->
<g id="node7" class="node">
<title>6</title>
<path fill="none" stroke="#567bd8" stroke-width="2" d="M918,-324C918,-324 848,-324 848,-324 842,-324 836,-318 836,-312 836,-312 836,-300 836,-300 836,-294 842,-288 848,-288 848,-288 918,-288 918,-288 924,-288 930,-294 930,-300 930,-300 930,-312 930,-312 930,-318 924,-324 918,-324"/>
<text text-anchor="middle" x="883" y="-309" font-family="sans" font-size="10.00" fill="#000000">seqkit_stats</text>
<text text-anchor="middle" x="883" y="-298" font-family="sans" font-size="10.00" fill="#000000">tool: merge_lanes</text>
</g>
<!-- 6&#45;&gt;1 -->
<g id="edge7" class="edge">
<title>6&#45;&gt;1</title>
<path fill="none" stroke="#c0c0c0" stroke-width="2" d="M883.2916,-287.7471C882.723,-268.265 879.2005,-237.3272 864,-216 820.8033,-155.3923 738.4932,-118.7571 690.7571,-101.6482"/>
<polygon fill="#c0c0c0" stroke="#c0c0c0" stroke-width="2" points="691.7168,-98.2763 681.122,-98.2921 689.4142,-104.8867 691.7168,-98.2763"/>
</g>
<!-- 7 -->
<g id="node8" class="node">
<title>7</title>
<path fill="none" stroke="#56d8b9" stroke-width="2" d="M1047,-412C1047,-412 943,-412 943,-412 937,-412 931,-406 931,-400 931,-400 931,-372 931,-372 931,-366 937,-360 943,-360 943,-360 1047,-360 1047,-360 1053,-360 1059,-366 1059,-372 1059,-372 1059,-400 1059,-400 1059,-406 1053,-412 1047,-412"/>
<text text-anchor="middle" x="995" y="-400" font-family="sans" font-size="10.00" fill="#000000">merge_lanes</text>
<text text-anchor="middle" x="995" y="-389" font-family="sans" font-size="10.00" fill="#000000">library: lib1</text>
<text text-anchor="middle" x="995" y="-378" font-family="sans" font-size="10.00" fill="#000000">read_type_trim: collapsed</text>
<text text-anchor="middle" x="995" y="-367" font-family="sans" font-size="10.00" fill="#000000">sample: HD827sonic_1</text>
</g>
<!-- 7&#45;&gt;6 -->
<g id="edge19" class="edge">
<title>7&#45;&gt;6</title>
<path fill="none" stroke="#c0c0c0" stroke-width="2" d="M958.327,-359.805C944.9297,-350.2355 929.8502,-339.4645 916.7223,-330.0874"/>
<polygon fill="#c0c0c0" stroke="#c0c0c0" stroke-width="2" points="918.5862,-327.1176 908.4145,-324.1532 914.5175,-332.8137 918.5862,-327.1176"/>
</g>
<!-- 11 -->
<g id="node12" class="node">
<title>11</title>
<path fill="none" stroke="#d85656" stroke-width="2" d="M1030,-324C1030,-324 960,-324 960,-324 954,-324 948,-318 948,-312 948,-312 948,-300 948,-300 948,-294 954,-288 960,-288 960,-288 1030,-288 1030,-288 1036,-288 1042,-294 1042,-300 1042,-300 1042,-312 1042,-312 1042,-318 1036,-324 1030,-324"/>
<text text-anchor="middle" x="995" y="-309" font-family="sans" font-size="10.00" fill="#000000">nonpareil_infer</text>
<text text-anchor="middle" x="995" y="-298" font-family="sans" font-size="10.00" fill="#000000">tool: merge_lanes</text>
</g>
<!-- 7&#45;&gt;11 -->
<g id="edge23" class="edge">
<title>7&#45;&gt;11</title>
<path fill="none" stroke="#c0c0c0" stroke-width="2" d="M995,-359.805C995,-351.6026 995,-342.5174 995,-334.1839"/>
<polygon fill="#c0c0c0" stroke="#c0c0c0" stroke-width="2" points="998.5001,-334.1532 995,-324.1532 991.5001,-334.1533 998.5001,-334.1532"/>
</g>
<!-- 15 -->
<g id="node16" class="node">
<title>15</title>
<path fill="none" stroke="#56a9d8" stroke-width="2" d="M1173,-324C1173,-324 1113,-324 1113,-324 1107,-324 1101,-318 1101,-312 1101,-312 1101,-300 1101,-300 1101,-294 1107,-288 1113,-288 1113,-288 1173,-288 1173,-288 1179,-288 1185,-294 1185,-300 1185,-300 1185,-312 1185,-312 1185,-318 1179,-324 1173,-324"/>
<text text-anchor="middle" x="1143" y="-303.5" font-family="sans" font-size="10.00" fill="#000000">low_complexity</text>
</g>
<!-- 7&#45;&gt;15 -->
<g id="edge27" class="edge">
<title>7&#45;&gt;15</title>
<path fill="none" stroke="#c0c0c0" stroke-width="2" d="M1043.4607,-359.805C1061.8388,-349.8709 1082.6122,-338.6421 1100.4094,-329.0219"/>
<polygon fill="#c0c0c0" stroke="#c0c0c0" stroke-width="2" points="1102.2838,-331.9874 1109.4165,-324.1532 1098.9551,-325.8295 1102.2838,-331.9874"/>
</g>
<!-- 8 -->
<g id="node9" class="node">
<title>8</title>
<path fill="none" stroke="#d8a456" stroke-width="2" d="M556.5,-252C556.5,-252 503.5,-252 503.5,-252 497.5,-252 491.5,-246 491.5,-240 491.5,-240 491.5,-228 491.5,-228 491.5,-222 497.5,-216 503.5,-216 503.5,-216 556.5,-216 556.5,-216 562.5,-216 568.5,-222 568.5,-228 568.5,-228 568.5,-240 568.5,-240 568.5,-246 562.5,-252 556.5,-252"/>
<text text-anchor="middle" x="530" y="-231.5" font-family="sans" font-size="10.00" fill="#000000">nonpareil_plot</text>
</g>
<!-- 8&#45;&gt;1 -->
<g id="edge8" class="edge">
<title>8&#45;&gt;1</title>
<path fill="none" stroke="#c0c0c0" stroke-width="2" d="M545.0075,-215.9564C560.2425,-197.7038 584.5733,-168.7301 606,-144 614.0045,-134.7614 622.8706,-124.7313 630.7824,-115.8511"/>
<polygon fill="#c0c0c0" stroke="#c0c0c0" stroke-width="2" points="633.3933,-118.182 637.4439,-108.392 628.1723,-113.5192 633.3933,-118.182"/>
</g>
<!-- 9&#45;&gt;8 -->
<g id="edge20" class="edge">
<title>9&#45;&gt;8</title>
<path fill="none" stroke="#c0c0c0" stroke-width="2" d="M535.9813,-287.8314C535.1257,-280.131 534.1083,-270.9743 533.1574,-262.4166"/>
<polygon fill="#c0c0c0" stroke="#c0c0c0" stroke-width="2" points="536.6289,-261.9656 532.0459,-252.4133 529.6717,-262.7386 536.6289,-261.9656"/>
</g>
<!-- 10 -->
<g id="node11" class="node">
<title>10</title>
<path fill="none" stroke="#d8a456" stroke-width="2" d="M976.5,-252C976.5,-252 923.5,-252 923.5,-252 917.5,-252 911.5,-246 911.5,-240 911.5,-240 911.5,-228 911.5,-228 911.5,-222 917.5,-216 923.5,-216 923.5,-216 976.5,-216 976.5,-216 982.5,-216 988.5,-222 988.5,-228 988.5,-228 988.5,-240 988.5,-240 988.5,-246 982.5,-252 976.5,-252"/>
<text text-anchor="middle" x="950" y="-231.5" font-family="sans" font-size="10.00" fill="#000000">nonpareil_plot</text>
</g>
<!-- 10&#45;&gt;1 -->
<g id="edge9" class="edge">
<title>10&#45;&gt;1</title>
<path fill="none" stroke="#c0c0c0" stroke-width="2" d="M944.2522,-215.7573C936.7651,-195.0754 921.6399,-161.9136 897,-144 864.5194,-120.3861 751.1371,-102.5992 691.4306,-94.6236"/>
<polygon fill="#c0c0c0" stroke="#c0c0c0" stroke-width="2" points="691.6557,-91.1232 681.2856,-93.2939 690.7459,-98.0639 691.6557,-91.1232"/>
</g>
<!-- 11&#45;&gt;10 -->
<g id="edge22" class="edge">
<title>11&#45;&gt;10</title>
<path fill="none" stroke="#c0c0c0" stroke-width="2" d="M983.6446,-287.8314C978.5674,-279.7079 972.4773,-269.9637 966.8824,-261.0118"/>
<polygon fill="#c0c0c0" stroke="#c0c0c0" stroke-width="2" points="969.7763,-259.0383 961.5083,-252.4133 963.8403,-262.7483 969.7763,-259.0383"/>
</g>
<!-- 12 -->
<g id="node13" class="node">
<title>12</title>
<path fill="none" stroke="#d8a456" stroke-width="2" d="M434.5,-180C434.5,-180 381.5,-180 381.5,-180 375.5,-180 369.5,-174 369.5,-168 369.5,-168 369.5,-156 369.5,-156 369.5,-150 375.5,-144 381.5,-144 381.5,-144 434.5,-144 434.5,-144 440.5,-144 446.5,-150 446.5,-156 446.5,-156 446.5,-168 446.5,-168 446.5,-174 440.5,-180 434.5,-180"/>
<text text-anchor="middle" x="408" y="-159.5" font-family="sans" font-size="10.00" fill="#000000">nonpareil_plot</text>
</g>
<!-- 12&#45;&gt;1 -->
<g id="edge10" class="edge">
<title>12&#45;&gt;1</title>
<path fill="none" stroke="#c0c0c0" stroke-width="2" d="M446.6644,-147.1503C449.8106,-146.049 452.9512,-144.9851 456,-144 511.5176,-126.0623 577.0213,-108.9787 617.0222,-98.9954"/>
<polygon fill="#c0c0c0" stroke="#c0c0c0" stroke-width="2" points="618.002,-102.3585 626.8652,-96.5538 616.3166,-95.5644 618.002,-102.3585"/>
</g>
<!-- 13&#45;&gt;12 -->
<g id="edge24" class="edge">
<title>13&#45;&gt;12</title>
<path fill="none" stroke="#c0c0c0" stroke-width="2" d="M356.4724,-287.7623C366.6243,-262.9846 384.8624,-218.4714 396.6942,-189.5939"/>
<polygon fill="#c0c0c0" stroke="#c0c0c0" stroke-width="2" points="400.0356,-190.67 400.5883,-180.0896 393.5582,-188.0161 400.0356,-190.67"/>
</g>
<!-- 14 -->
<g id="node15" class="node">
<title>14</title>
<path fill="none" stroke="#567bd8" stroke-width="2" d="M1101,-252C1101,-252 1019,-252 1019,-252 1013,-252 1007,-246 1007,-240 1007,-240 1007,-228 1007,-228 1007,-222 1013,-216 1019,-216 1019,-216 1101,-216 1101,-216 1107,-216 1113,-222 1113,-228 1113,-228 1113,-240 1113,-240 1113,-246 1107,-252 1101,-252"/>
<text text-anchor="middle" x="1060" y="-237" font-family="sans" font-size="10.00" fill="#000000">seqkit_stats</text>
<text text-anchor="middle" x="1060" y="-226" font-family="sans" font-size="10.00" fill="#000000">tool: low_complexity</text>
</g>
<!-- 14&#45;&gt;1 -->
<g id="edge11" class="edge">
<title>14&#45;&gt;1</title>
<path fill="none" stroke="#c0c0c0" stroke-width="2" d="M1038.7967,-215.8095C1013.6004,-195.1766 969.4784,-162.0609 926,-144 846.388,-110.9293 745.0717,-97.7026 691.3639,-92.7395"/>
<polygon fill="#c0c0c0" stroke="#c0c0c0" stroke-width="2" points="691.5456,-89.242 681.2776,-91.8536 690.933,-96.2152 691.5456,-89.242"/>
</g>
<!-- 15&#45;&gt;0 -->
<g id="edge4" class="edge">
<title>15&#45;&gt;0</title>
<path fill="none" stroke="#c0c0c0" stroke-width="2" d="M1185.2579,-295.3027C1207.4769,-287.2961 1232.7818,-273.8545 1246,-252 1274.5299,-204.8295 1231.7693,-173.183 1185,-144 1032.4726,-48.8262 811.3534,-25.4117 724.2532,-19.758"/>
<polygon fill="#c0c0c0" stroke="#c0c0c0" stroke-width="2" points="724.2626,-16.2522 714.0687,-19.1394 723.8381,-23.2394 724.2626,-16.2522"/>
</g>
<!-- 15&#45;&gt;14 -->
<g id="edge26" class="edge">
<title>15&#45;&gt;14</title>
<path fill="none" stroke="#c0c0c0" stroke-width="2" d="M1122.0556,-287.8314C1111.9309,-279.0485 1099.6223,-268.3712 1088.6452,-258.8489"/>
<polygon fill="#c0c0c0" stroke="#c0c0c0" stroke-width="2" points="1090.7851,-256.0718 1080.9377,-252.1628 1086.1981,-261.3595 1090.7851,-256.0718"/>
</g>
<!-- 25 -->
<g id="node26" class="node">
<title>25</title>
<path fill="none" stroke="#d85656" stroke-width="2" d="M1225,-252C1225,-252 1143,-252 1143,-252 1137,-252 1131,-246 1131,-240 1131,-240 1131,-228 1131,-228 1131,-222 1137,-216 1143,-216 1143,-216 1225,-216 1225,-216 1231,-216 1237,-222 1237,-228 1237,-228 1237,-240 1237,-240 1237,-246 1231,-252 1225,-252"/>
<text text-anchor="middle" x="1184" y="-237" font-family="sans" font-size="10.00" fill="#000000">nonpareil_infer</text>
<text text-anchor="middle" x="1184" y="-226" font-family="sans" font-size="10.00" fill="#000000">tool: low_complexity</text>
</g>
<!-- 15&#45;&gt;25 -->
<g id="edge37" class="edge">
<title>15&#45;&gt;25</title>
<path fill="none" stroke="#c0c0c0" stroke-width="2" d="M1153.346,-287.8314C1157.9237,-279.7925 1163.4052,-270.1666 1168.4588,-261.2918"/>
<polygon fill="#c0c0c0" stroke="#c0c0c0" stroke-width="2" points="1171.6077,-262.8351 1173.5147,-252.4133 1165.5248,-259.3712 1171.6077,-262.8351"/>
</g>
<!-- 16 -->
<g id="node17" class="node">
<title>16</title>
<path fill="none" stroke="#567bd8" stroke-width="2" d="M244,-180C244,-180 162,-180 162,-180 156,-180 150,-174 150,-168 150,-168 150,-156 150,-156 150,-150 156,-144 162,-144 162,-144 244,-144 244,-144 250,-144 256,-150 256,-156 256,-156 256,-168 256,-168 256,-174 250,-180 244,-180"/>
<text text-anchor="middle" x="203" y="-165" font-family="sans" font-size="10.00" fill="#000000">seqkit_stats</text>
<text text-anchor="middle" x="203" y="-154" font-family="sans" font-size="10.00" fill="#000000">tool: low_complexity</text>
</g>
<!-- 16&#45;&gt;1 -->
<g id="edge12" class="edge">
<title>16&#45;&gt;1</title>
<path fill="none" stroke="#c0c0c0" stroke-width="2" d="M256.3099,-145.9921C259.2394,-145.2785 262.15,-144.6082 265,-144 392.8014,-116.7273 547.2799,-100.0236 616.8556,-93.3501"/>
<polygon fill="#c0c0c0" stroke="#c0c0c0" stroke-width="2" points="617.2583,-96.8278 626.8843,-92.4016 616.5991,-89.8589 617.2583,-96.8278"/>
</g>
<!-- 17&#45;&gt;0 -->
<g id="edge3" class="edge">
<title>17&#45;&gt;0</title>
<path fill="none" stroke="#c0c0c0" stroke-width="2" d="M185.4307,-287.9254C156.5153,-255.9693 105.473,-188.6593 141,-144 205.1714,-63.3332 537.2404,-29.877 649.709,-20.7463"/>
<polygon fill="#c0c0c0" stroke="#c0c0c0" stroke-width="2" points="650.1995,-24.2184 659.8911,-19.9378 649.6454,-17.2404 650.1995,-24.2184"/>
</g>
<!-- 17&#45;&gt;16 -->
<g id="edge28" class="edge">
<title>17&#45;&gt;16</title>
<path fill="none" stroke="#c0c0c0" stroke-width="2" d="M203,-287.7623C203,-263.201 203,-219.2474 203,-190.3541"/>
<polygon fill="#c0c0c0" stroke="#c0c0c0" stroke-width="2" points="206.5001,-190.0896 203,-180.0896 199.5001,-190.0897 206.5001,-190.0896"/>
</g>
<!-- 23 -->
<g id="node24" class="node">
<title>23</title>
<path fill="none" stroke="#d85656" stroke-width="2" d="M340,-252C340,-252 258,-252 258,-252 252,-252 246,-246 246,-240 246,-240 246,-228 246,-228 246,-222 252,-216 258,-216 258,-216 340,-216 340,-216 346,-216 352,-222 352,-228 352,-228 352,-240 352,-240 352,-246 346,-252 340,-252"/>
<text text-anchor="middle" x="299" y="-237" font-family="sans" font-size="10.00" fill="#000000">nonpareil_infer</text>
<text text-anchor="middle" x="299" y="-226" font-family="sans" font-size="10.00" fill="#000000">tool: low_complexity</text>
</g>
<!-- 17&#45;&gt;23 -->
<g id="edge35" class="edge">
<title>17&#45;&gt;23</title>
<path fill="none" stroke="#c0c0c0" stroke-width="2" d="M227.2249,-287.8314C239.1628,-278.8779 253.7256,-267.9558 266.606,-258.2955"/>
<polygon fill="#c0c0c0" stroke="#c0c0c0" stroke-width="2" points="268.8829,-260.9629 274.7829,-252.1628 264.6829,-255.3629 268.8829,-260.9629"/>
</g>
<!-- 18 -->
<g id="node19" class="node">
<title>18</title>
<path fill="none" stroke="#567bd8" stroke-width="2" d="M843,-252C843,-252 761,-252 761,-252 755,-252 749,-246 749,-240 749,-240 749,-228 749,-228 749,-222 755,-216 761,-216 761,-216 843,-216 843,-216 849,-216 855,-222 855,-228 855,-228 855,-240 855,-240 855,-246 849,-252 843,-252"/>
<text text-anchor="middle" x="802" y="-237" font-family="sans" font-size="10.00" fill="#000000">seqkit_stats</text>
<text text-anchor="middle" x="802" y="-226" font-family="sans" font-size="10.00" fill="#000000">tool: low_complexity</text>
</g>
<!-- 18&#45;&gt;1 -->
<g id="edge13" class="edge">
<title>18&#45;&gt;1</title>
<path fill="none" stroke="#c0c0c0" stroke-width="2" d="M783.2557,-215.7623C757.1225,-190.3354 709.6287,-144.1253 680.0612,-115.3569"/>
<polygon fill="#c0c0c0" stroke="#c0c0c0" stroke-width="2" points="682.2001,-112.5546 672.5921,-108.0896 677.3186,-117.5717 682.2001,-112.5546"/>
</g>
<!-- 19&#45;&gt;0 -->
<g id="edge2" class="edge">
<title>19&#45;&gt;0</title>
<path fill="none" stroke="#c0c0c0" stroke-width="2" d="M691.0917,-287.9165C695.2561,-277.6179 699.8918,-264.3436 702,-252 714.568,-178.4146 701.4335,-90.1804 692.9704,-46.0426"/>
<polygon fill="#c0c0c0" stroke="#c0c0c0" stroke-width="2" points="696.3685,-45.1847 690.9893,-36.0571 689.5023,-46.547 696.3685,-45.1847"/>
</g>
<!-- 19&#45;&gt;18 -->
<g id="edge30" class="edge">
<title>19&#45;&gt;18</title>
<path fill="none" stroke="#c0c0c0" stroke-width="2" d="M713.0287,-287.8314C728.2496,-278.6221 746.9128,-267.3301 763.2083,-257.4706"/>
<polygon fill="#c0c0c0" stroke="#c0c0c0" stroke-width="2" points="765.2369,-260.3341 771.9809,-252.1628 761.6132,-254.345 765.2369,-260.3341"/>
</g>
<!-- 21 -->
<g id="node22" class="node">
<title>21</title>
<path fill="none" stroke="#d85656" stroke-width="2" d="M681,-252C681,-252 599,-252 599,-252 593,-252 587,-246 587,-240 587,-240 587,-228 587,-228 587,-222 593,-216 599,-216 599,-216 681,-216 681,-216 687,-216 693,-222 693,-228 693,-228 693,-240 693,-240 693,-246 687,-252 681,-252"/>
<text text-anchor="middle" x="640" y="-237" font-family="sans" font-size="10.00" fill="#000000">nonpareil_infer</text>
<text text-anchor="middle" x="640" y="-226" font-family="sans" font-size="10.00" fill="#000000">tool: low_complexity</text>
</g>
<!-- 19&#45;&gt;21 -->
<g id="edge33" class="edge">
<title>19&#45;&gt;21</title>
<path fill="none" stroke="#c0c0c0" stroke-width="2" d="M672.1493,-287.8314C667.2977,-279.7079 661.4783,-269.9637 656.132,-261.0118"/>
<polygon fill="#c0c0c0" stroke="#c0c0c0" stroke-width="2" points="659.1292,-259.2041 650.9968,-252.4133 653.1194,-262.7933 659.1292,-259.2041"/>
</g>
<!-- 20 -->
<g id="node21" class="node">
<title>20</title>
<path fill="none" stroke="#d8a456" stroke-width="2" d="M680.5,-180C680.5,-180 627.5,-180 627.5,-180 621.5,-180 615.5,-174 615.5,-168 615.5,-168 615.5,-156 615.5,-156 615.5,-150 621.5,-144 627.5,-144 627.5,-144 680.5,-144 680.5,-144 686.5,-144 692.5,-150 692.5,-156 692.5,-156 692.5,-168 692.5,-168 692.5,-174 686.5,-180 680.5,-180"/>
<text text-anchor="middle" x="654" y="-159.5" font-family="sans" font-size="10.00" fill="#000000">nonpareil_plot</text>
</g>
<!-- 20&#45;&gt;1 -->
<g id="edge14" class="edge">
<title>20&#45;&gt;1</title>
<path fill="none" stroke="#c0c0c0" stroke-width="2" d="M654,-143.8314C654,-136.131 654,-126.9743 654,-118.4166"/>
<polygon fill="#c0c0c0" stroke="#c0c0c0" stroke-width="2" points="657.5001,-118.4132 654,-108.4133 650.5001,-118.4133 657.5001,-118.4132"/>
</g>
<!-- 21&#45;&gt;20 -->
<g id="edge32" class="edge">
<title>21&#45;&gt;20</title>
<path fill="none" stroke="#c0c0c0" stroke-width="2" d="M643.5328,-215.8314C645.0301,-208.131 646.8105,-198.9743 648.4745,-190.4166"/>
<polygon fill="#c0c0c0" stroke="#c0c0c0" stroke-width="2" points="651.9465,-190.8975 650.4196,-180.4133 645.0752,-189.5614 651.9465,-190.8975"/>
</g>
<!-- 22 -->
<g id="node23" class="node">
<title>22</title>
<path fill="none" stroke="#d8a456" stroke-width="2" d="M339.5,-180C339.5,-180 286.5,-180 286.5,-180 280.5,-180 274.5,-174 274.5,-168 274.5,-168 274.5,-156 274.5,-156 274.5,-150 280.5,-144 286.5,-144 286.5,-144 339.5,-144 339.5,-144 345.5,-144 351.5,-150 351.5,-156 351.5,-156 351.5,-168 351.5,-168 351.5,-174 345.5,-180 339.5,-180"/>
<text text-anchor="middle" x="313" y="-159.5" font-family="sans" font-size="10.00" fill="#000000">nonpareil_plot</text>
</g>
<!-- 22&#45;&gt;1 -->
<g id="edge15" class="edge">
<title>22&#45;&gt;1</title>
<path fill="none" stroke="#c0c0c0" stroke-width="2" d="M351.5388,-146.5944C354.3825,-145.6569 357.2239,-144.7794 360,-144 450.5917,-118.567 560.3382,-102.0722 616.6627,-94.6125"/>
<polygon fill="#c0c0c0" stroke="#c0c0c0" stroke-width="2" points="617.4039,-98.0456 626.8678,-93.2828 616.4994,-91.1043 617.4039,-98.0456"/>
</g>
<!-- 23&#45;&gt;22 -->
<g id="edge34" class="edge">
<title>23&#45;&gt;22</title>
<path fill="none" stroke="#c0c0c0" stroke-width="2" d="M302.5328,-215.8314C304.0301,-208.131 305.8105,-198.9743 307.4745,-190.4166"/>
<polygon fill="#c0c0c0" stroke="#c0c0c0" stroke-width="2" points="310.9465,-190.8975 309.4196,-180.4133 304.0752,-189.5614 310.9465,-190.8975"/>
</g>
<!-- 24 -->
<g id="node25" class="node">
<title>24</title>
<path fill="none" stroke="#d8a456" stroke-width="2" d="M1164.5,-180C1164.5,-180 1111.5,-180 1111.5,-180 1105.5,-180 1099.5,-174 1099.5,-168 1099.5,-168 1099.5,-156 1099.5,-156 1099.5,-150 1105.5,-144 1111.5,-144 1111.5,-144 1164.5,-144 1164.5,-144 1170.5,-144 1176.5,-150 1176.5,-156 1176.5,-156 1176.5,-168 1176.5,-168 1176.5,-174 1170.5,-180 1164.5,-180"/>
<text text-anchor="middle" x="1138" y="-159.5" font-family="sans" font-size="10.00" fill="#000000">nonpareil_plot</text>
</g>
<!-- 24&#45;&gt;1 -->
<g id="edge16" class="edge">
<title>24&#45;&gt;1</title>
<path fill="none" stroke="#c0c0c0" stroke-width="2" d="M1099.1174,-154.6431C1080.6312,-151.2372 1058.2047,-147.2378 1038,-144 911.1714,-123.6755 760.097,-103.6518 691.3638,-94.7698"/>
<polygon fill="#c0c0c0" stroke="#c0c0c0" stroke-width="2" points="691.4211,-91.2483 681.0558,-93.4416 690.5265,-98.1909 691.4211,-91.2483"/>
</g>
<!-- 25&#45;&gt;24 -->
<g id="edge36" class="edge">
<title>25&#45;&gt;24</title>
<path fill="none" stroke="#c0c0c0" stroke-width="2" d="M1172.3923,-215.8314C1167.2022,-207.7079 1160.9768,-197.9637 1155.2575,-189.0118"/>
<polygon fill="#c0c0c0" stroke="#c0c0c0" stroke-width="2" points="1158.0974,-186.9559 1149.764,-180.4133 1152.1985,-190.7246 1158.0974,-186.9559"/>
</g>
</g>
</svg>
