<?xml version="1.0" encoding="UTF-8" standalone="no"?>
<!DOCTYPE svg PUBLIC "-//W3C//DTD SVG 1.1//EN"
 "http://www.w3.org/Graphics/SVG/1.1/DTD/svg11.dtd">
<!-- Generated by graphviz version 2.40.1 (0)
 -->
<!-- Title: snakemake_dag Pages: 1 -->
<svg width="1250pt" height="420pt"
 viewBox="0.00 0.00 1250.16 420.00" xmlns="http://www.w3.org/2000/svg" xmlns:xlink="http://www.w3.org/1999/xlink">
<g id="graph0" class="graph" transform="scale(1 1) rotate(0) translate(4 416)">
<title>snakemake_dag</title>
<polygon fill="#ffffff" stroke="transparent" points="-4,4 -4,-416 1246.1605,-416 1246.1605,4 -4,4"/>
<!-- 0 -->
<g id="node1" class="node">
<title>0</title>
<path fill="none" stroke="#d85656" stroke-width="2" d="M746,-36C746,-36 716,-36 716,-36 710,-36 704,-30 704,-24 704,-24 704,-12 704,-12 704,-6 710,0 716,0 716,0 746,0 746,0 752,0 758,-6 758,-12 758,-12 758,-24 758,-24 758,-30 752,-36 746,-36"/>
<text text-anchor="middle" x="731" y="-15.5" font-family="sans" font-size="10.00" fill="#000000">all</text>
</g>
<!-- 1 -->
<g id="node2" class="node">
<title>1</title>
<path fill="none" stroke="#59d856" stroke-width="2" d="M694,-108C694,-108 664,-108 664,-108 658,-108 652,-102 652,-96 652,-96 652,-84 652,-84 652,-78 658,-72 664,-72 664,-72 694,-72 694,-72 700,-72 706,-78 706,-84 706,-84 706,-96 706,-96 706,-102 700,-108 694,-108"/>
<text text-anchor="middle" x="679" y="-87.5" font-family="sans" font-size="10.00" fill="#000000">multiqc</text>
</g>
<!-- 1&#45;&gt;0 -->
<g id="edge1" class="edge">
<title>1&#45;&gt;0</title>
<path fill="none" stroke="#c0c0c0" stroke-width="2" d="M692.1218,-71.8314C698.0499,-63.6232 705.1729,-53.7606 711.6933,-44.7323"/>
<polygon fill="#c0c0c0" stroke="#c0c0c0" stroke-width="2" points="714.684,-46.5693 717.7015,-36.4133 709.0092,-42.4708 714.684,-46.5693"/>
</g>
<!-- 2 -->
<g id="node3" class="node">
<title>2</title>
<path fill="none" stroke="#d8ac56" stroke-width="2" d="M990,-180C990,-180 920,-180 920,-180 914,-180 908,-174 908,-168 908,-168 908,-156 908,-156 908,-150 914,-144 920,-144 920,-144 990,-144 990,-144 996,-144 1002,-150 1002,-156 1002,-156 1002,-168 1002,-168 1002,-174 996,-180 990,-180"/>
<text text-anchor="middle" x="955" y="-165" font-family="sans" font-size="10.00" fill="#000000">fastqc</text>
<text text-anchor="middle" x="955" y="-154" font-family="sans" font-size="10.00" fill="#000000">tool: merge_lanes</text>
</g>
<!-- 2&#45;&gt;1 -->
<g id="edge5" class="edge">
<title>2&#45;&gt;1</title>
<path fill="none" stroke="#c0c0c0" stroke-width="2" d="M907.7925,-146.836C904.4855,-145.8527 901.1971,-144.898 898,-144 834.4772,-126.1583 759.7034,-108.4101 716.0064,-98.3612"/>
<polygon fill="#c0c0c0" stroke="#c0c0c0" stroke-width="2" points="716.647,-94.9174 706.118,-96.0968 715.0844,-101.7407 716.647,-94.9174"/>
</g>
<!-- 3 -->
<g id="node4" class="node">
<title>3</title>
<path fill="none" stroke="#80d856" stroke-width="2" d="M1051,-412C1051,-412 947,-412 947,-412 941,-412 935,-406 935,-400 935,-400 935,-372 935,-372 935,-366 941,-360 947,-360 947,-360 1051,-360 1051,-360 1057,-360 1063,-366 1063,-372 1063,-372 1063,-400 1063,-400 1063,-406 1057,-412 1051,-412"/>
<text text-anchor="middle" x="999" y="-400" font-family="sans" font-size="10.00" fill="#000000">merge_lanes</text>
<text text-anchor="middle" x="999" y="-389" font-family="sans" font-size="10.00" fill="#000000">library: lib1</text>
<text text-anchor="middle" x="999" y="-378" font-family="sans" font-size="10.00" fill="#000000">read_type_trim: collapsed</text>
<text text-anchor="middle" x="999" y="-367" font-family="sans" font-size="10.00" fill="#000000">sample: HD827sonic_1</text>
</g>
<!-- 3&#45;&gt;2 -->
<g id="edge17" class="edge">
<title>3&#45;&gt;2</title>
<path fill="none" stroke="#c0c0c0" stroke-width="2" d="M993.9505,-359.7891C990.1396,-340.0482 984.7701,-312.3195 980,-288 973.4271,-254.4895 965.7729,-215.9873 960.6825,-190.4543"/>
<polygon fill="#c0c0c0" stroke="#c0c0c0" stroke-width="2" points="964.0572,-189.48 958.6685,-180.3579 957.1925,-190.8494 964.0572,-189.48"/>
</g>
<!-- 9 -->
<g id="node10" class="node">
<title>9</title>
<path fill="none" stroke="#56d882" stroke-width="2" d="M959,-324C959,-324 889,-324 889,-324 883,-324 877,-318 877,-312 877,-312 877,-300 877,-300 877,-294 883,-288 889,-288 889,-288 959,-288 959,-288 965,-288 971,-294 971,-300 971,-300 971,-312 971,-312 971,-318 965,-324 959,-324"/>
<text text-anchor="middle" x="924" y="-309" font-family="sans" font-size="10.00" fill="#000000">nonpareil_infer</text>
<text text-anchor="middle" x="924" y="-298" font-family="sans" font-size="10.00" fill="#000000">tool: merge_lanes</text>
</g>
<!-- 3&#45;&gt;9 -->
<g id="edge21" class="edge">
<title>3&#45;&gt;9</title>
<path fill="none" stroke="#c0c0c0" stroke-width="2" d="M974.4422,-359.805C965.9834,-350.7823 956.5233,-340.6915 948.1013,-331.7081"/>
<polygon fill="#c0c0c0" stroke="#c0c0c0" stroke-width="2" points="950.4115,-329.0548 941.0187,-324.1532 945.3047,-333.8424 950.4115,-329.0548"/>
</g>
<!-- 17 -->
<g id="node18" class="node">
<title>17</title>
<path fill="none" stroke="#afd856" stroke-width="2" d="M1156,-324C1156,-324 1096,-324 1096,-324 1090,-324 1084,-318 1084,-312 1084,-312 1084,-300 1084,-300 1084,-294 1090,-288 1096,-288 1096,-288 1156,-288 1156,-288 1162,-288 1168,-294 1168,-300 1168,-300 1168,-312 1168,-312 1168,-318 1162,-324 1156,-324"/>
<text text-anchor="middle" x="1126" y="-303.5" font-family="sans" font-size="10.00" fill="#000000">low_complexity</text>
</g>
<!-- 3&#45;&gt;17 -->
<g id="edge29" class="edge">
<title>3&#45;&gt;17</title>
<path fill="none" stroke="#c0c0c0" stroke-width="2" d="M1040.5845,-359.805C1056.0655,-350.0532 1073.5273,-339.0537 1088.6095,-329.5531"/>
<polygon fill="#c0c0c0" stroke="#c0c0c0" stroke-width="2" points="1090.586,-332.4446 1097.1817,-324.1532 1086.855,-326.5218 1090.586,-332.4446"/>
</g>
<!-- 4 -->
<g id="node5" class="node">
<title>4</title>
<path fill="none" stroke="#d8ac56" stroke-width="2" d="M82,-180C82,-180 12,-180 12,-180 6,-180 0,-174 0,-168 0,-168 0,-156 0,-156 0,-150 6,-144 12,-144 12,-144 82,-144 82,-144 88,-144 94,-150 94,-156 94,-156 94,-168 94,-168 94,-174 88,-180 82,-180"/>
<text text-anchor="middle" x="47" y="-165" font-family="sans" font-size="10.00" fill="#000000">fastqc</text>
<text text-anchor="middle" x="47" y="-154" font-family="sans" font-size="10.00" fill="#000000">tool: merge_lanes</text>
</g>
<!-- 4&#45;&gt;1 -->
<g id="edge6" class="edge">
<title>4&#45;&gt;1</title>
<path fill="none" stroke="#c0c0c0" stroke-width="2" d="M94.2443,-156.6177C214.8847,-142.8739 532.4676,-106.6936 641.5688,-94.2643"/>
<polygon fill="#c0c0c0" stroke="#c0c0c0" stroke-width="2" points="642.2199,-97.7129 651.7594,-93.1034 641.4275,-90.7579 642.2199,-97.7129"/>
</g>
<!-- 5 -->
<g id="node6" class="node">
<title>5</title>
<path fill="none" stroke="#80d856" stroke-width="2" d="M255,-412C255,-412 151,-412 151,-412 145,-412 139,-406 139,-400 139,-400 139,-372 139,-372 139,-366 145,-360 151,-360 151,-360 255,-360 255,-360 261,-360 267,-366 267,-372 267,-372 267,-400 267,-400 267,-406 261,-412 255,-412"/>
<text text-anchor="middle" x="203" y="-400" font-family="sans" font-size="10.00" fill="#000000">merge_lanes</text>
<text text-anchor="middle" x="203" y="-389" font-family="sans" font-size="10.00" fill="#000000">library: lib1</text>
<text text-anchor="middle" x="203" y="-378" font-family="sans" font-size="10.00" fill="#000000">read_type_trim: collapsed</text>
<text text-anchor="middle" x="203" y="-367" font-family="sans" font-size="10.00" fill="#000000">sample: HD827sonic_2</text>
</g>
<!-- 5&#45;&gt;4 -->
<g id="edge18" class="edge">
<title>5&#45;&gt;4</title>
<path fill="none" stroke="#c0c0c0" stroke-width="2" d="M180.485,-359.9738C171.3549,-349.0805 160.889,-336.1477 152,-324 118.3502,-278.0144 83.0844,-221.6573 63.1905,-188.987"/>
<polygon fill="#c0c0c0" stroke="#c0c0c0" stroke-width="2" points="66.1789,-187.1649 58.0012,-180.4288 60.1933,-190.7944 66.1789,-187.1649"/>
</g>
<!-- 11 -->
<g id="node12" class="node">
<title>11</title>
<path fill="none" stroke="#56d882" stroke-width="2" d="M386,-324C386,-324 316,-324 316,-324 310,-324 304,-318 304,-312 304,-312 304,-300 304,-300 304,-294 310,-288 316,-288 316,-288 386,-288 386,-288 392,-288 398,-294 398,-300 398,-300 398,-312 398,-312 398,-318 392,-324 386,-324"/>
<text text-anchor="middle" x="351" y="-309" font-family="sans" font-size="10.00" fill="#000000">nonpareil_infer</text>
<text text-anchor="middle" x="351" y="-298" font-family="sans" font-size="10.00" fill="#000000">tool: merge_lanes</text>
</g>
<!-- 5&#45;&gt;11 -->
<g id="edge23" class="edge">
<title>5&#45;&gt;11</title>
<path fill="none" stroke="#c0c0c0" stroke-width="2" d="M251.4607,-359.805C269.8388,-349.8709 290.6122,-338.6421 308.4094,-329.0219"/>
<polygon fill="#c0c0c0" stroke="#c0c0c0" stroke-width="2" points="310.2838,-331.9874 317.4165,-324.1532 306.9551,-325.8295 310.2838,-331.9874"/>
</g>
<!-- 15 -->
<g id="node16" class="node">
<title>15</title>
<path fill="none" stroke="#afd856" stroke-width="2" d="M233,-324C233,-324 173,-324 173,-324 167,-324 161,-318 161,-312 161,-312 161,-300 161,-300 161,-294 167,-288 173,-288 173,-288 233,-288 233,-288 239,-288 245,-294 245,-300 245,-300 245,-312 245,-312 245,-318 239,-324 233,-324"/>
<text text-anchor="middle" x="203" y="-303.5" font-family="sans" font-size="10.00" fill="#000000">low_complexity</text>
</g>
<!-- 5&#45;&gt;15 -->
<g id="edge27" class="edge">
<title>5&#45;&gt;15</title>
<path fill="none" stroke="#c0c0c0" stroke-width="2" d="M203,-359.805C203,-351.6026 203,-342.5174 203,-334.1839"/>
<polygon fill="#c0c0c0" stroke="#c0c0c0" stroke-width="2" points="206.5001,-334.1532 203,-324.1532 199.5001,-334.1533 206.5001,-334.1532"/>
</g>
<!-- 6 -->
<g id="node7" class="node">
<title>6</title>
<path fill="none" stroke="#d8ac56" stroke-width="2" d="M539,-324C539,-324 469,-324 469,-324 463,-324 457,-318 457,-312 457,-312 457,-300 457,-300 457,-294 463,-288 469,-288 469,-288 539,-288 539,-288 545,-288 551,-294 551,-300 551,-300 551,-312 551,-312 551,-318 545,-324 539,-324"/>
<text text-anchor="middle" x="504" y="-309" font-family="sans" font-size="10.00" fill="#000000">fastqc</text>
<text text-anchor="middle" x="504" y="-298" font-family="sans" font-size="10.00" fill="#000000">tool: merge_lanes</text>
</g>
<!-- 6&#45;&gt;1 -->
<g id="edge7" class="edge">
<title>6&#45;&gt;1</title>
<path fill="none" stroke="#c0c0c0" stroke-width="2" d="M504.5529,-287.9251C505.8504,-268.8712 509.998,-238.5503 523,-216 551.2146,-167.0654 606.3284,-129.5465 642.9111,-108.6294"/>
<polygon fill="#c0c0c0" stroke="#c0c0c0" stroke-width="2" points="644.7615,-111.6048 651.7849,-103.6724 641.3477,-105.4937 644.7615,-111.6048"/>
</g>
<!-- 7 -->
<g id="node8" class="node">
<title>7</title>
<path fill="none" stroke="#80d856" stroke-width="2" d="M668,-412C668,-412 564,-412 564,-412 558,-412 552,-406 552,-400 552,-400 552,-372 552,-372 552,-366 558,-360 564,-360 564,-360 668,-360 668,-360 674,-360 680,-366 680,-372 680,-372 680,-400 680,-400 680,-406 674,-412 668,-412"/>
<text text-anchor="middle" x="616" y="-400" font-family="sans" font-size="10.00" fill="#000000">merge_lanes</text>
<text text-anchor="middle" x="616" y="-389" font-family="sans" font-size="10.00" fill="#000000">library: lib2</text>
<text text-anchor="middle" x="616" y="-378" font-family="sans" font-size="10.00" fill="#000000">read_type_trim: collapsed</text>
<text text-anchor="middle" x="616" y="-367" font-family="sans" font-size="10.00" fill="#000000">sample: HD827sonic_2</text>
</g>
<!-- 7&#45;&gt;6 -->
<g id="edge19" class="edge">
<title>7&#45;&gt;6</title>
<path fill="none" stroke="#c0c0c0" stroke-width="2" d="M579.327,-359.805C565.9297,-350.2355 550.8502,-339.4645 537.7223,-330.0874"/>
<polygon fill="#c0c0c0" stroke="#c0c0c0" stroke-width="2" points="539.5862,-327.1176 529.4145,-324.1532 535.5175,-332.8137 539.5862,-327.1176"/>
</g>
<!-- 13 -->
<g id="node14" class="node">
<title>13</title>
<path fill="none" stroke="#56d882" stroke-width="2" d="M651,-324C651,-324 581,-324 581,-324 575,-324 569,-318 569,-312 569,-312 569,-300 569,-300 569,-294 575,-288 581,-288 581,-288 651,-288 651,-288 657,-288 663,-294 663,-300 663,-300 663,-312 663,-312 663,-318 657,-324 651,-324"/>
<text text-anchor="middle" x="616" y="-309" font-family="sans" font-size="10.00" fill="#000000">nonpareil_infer</text>
<text text-anchor="middle" x="616" y="-298" font-family="sans" font-size="10.00" fill="#000000">tool: merge_lanes</text>
</g>
<!-- 7&#45;&gt;13 -->
<g id="edge25" class="edge">
<title>7&#45;&gt;13</title>
<path fill="none" stroke="#c0c0c0" stroke-width="2" d="M616,-359.805C616,-351.6026 616,-342.5174 616,-334.1839"/>
<polygon fill="#c0c0c0" stroke="#c0c0c0" stroke-width="2" points="619.5001,-334.1532 616,-324.1532 612.5001,-334.1533 619.5001,-334.1532"/>
</g>
<!-- 19 -->
<g id="node20" class="node">
<title>19</title>
<path fill="none" stroke="#afd856" stroke-width="2" d="M794,-324C794,-324 734,-324 734,-324 728,-324 722,-318 722,-312 722,-312 722,-300 722,-300 722,-294 728,-288 734,-288 734,-288 794,-288 794,-288 800,-288 806,-294 806,-300 806,-300 806,-312 806,-312 806,-318 800,-324 794,-324"/>
<text text-anchor="middle" x="764" y="-303.5" font-family="sans" font-size="10.00" fill="#000000">low_complexity</text>
</g>
<!-- 7&#45;&gt;19 -->
<g id="edge31" class="edge">
<title>7&#45;&gt;19</title>
<path fill="none" stroke="#c0c0c0" stroke-width="2" d="M664.4607,-359.805C682.8388,-349.8709 703.6122,-338.6421 721.4094,-329.0219"/>
<polygon fill="#c0c0c0" stroke="#c0c0c0" stroke-width="2" points="723.2838,-331.9874 730.4165,-324.1532 719.9551,-325.8295 723.2838,-331.9874"/>
</g>
<!-- 8 -->
<g id="node9" class="node">
<title>8</title>
<path fill="none" stroke="#56d8a9" stroke-width="2" d="M877.5,-180C877.5,-180 824.5,-180 824.5,-180 818.5,-180 812.5,-174 812.5,-168 812.5,-168 812.5,-156 812.5,-156 812.5,-150 818.5,-144 824.5,-144 824.5,-144 877.5,-144 877.5,-144 883.5,-144 889.5,-150 889.5,-156 889.5,-156 889.5,-168 889.5,-168 889.5,-174 883.5,-180 877.5,-180"/>
<text text-anchor="middle" x="851" y="-159.5" font-family="sans" font-size="10.00" fill="#000000">nonpareil_plot</text>
</g>
<!-- 8&#45;&gt;1 -->
<g id="edge8" class="edge">
<title>8&#45;&gt;1</title>
<path fill="none" stroke="#c0c0c0" stroke-width="2" d="M812.3998,-145.8418C783.5165,-133.7511 744.2595,-117.3179 715.8158,-105.4113"/>
<polygon fill="#c0c0c0" stroke="#c0c0c0" stroke-width="2" points="716.8165,-102.0359 706.2406,-101.403 714.1135,-108.493 716.8165,-102.0359"/>
</g>
<!-- 9&#45;&gt;8 -->
<g id="edge20" class="edge">
<title>9&#45;&gt;8</title>
<path fill="none" stroke="#c0c0c0" stroke-width="2" d="M921.7372,-287.8134C918.8131,-268.9355 912.5307,-239.0058 900,-216 894.4367,-205.7861 886.5554,-195.9482 878.7365,-187.5321"/>
<polygon fill="#c0c0c0" stroke="#c0c0c0" stroke-width="2" points="881.1213,-184.9641 871.6416,-180.2327 876.1017,-189.843 881.1213,-184.9641"/>
</g>
<!-- 10 -->
<g id="node11" class="node">
<title>10</title>
<path fill="none" stroke="#56d8a9" stroke-width="2" d="M463.5,-252C463.5,-252 410.5,-252 410.5,-252 404.5,-252 398.5,-246 398.5,-240 398.5,-240 398.5,-228 398.5,-228 398.5,-222 404.5,-216 410.5,-216 410.5,-216 463.5,-216 463.5,-216 469.5,-216 475.5,-222 475.5,-228 475.5,-228 475.5,-240 475.5,-240 475.5,-246 469.5,-252 463.5,-252"/>
<text text-anchor="middle" x="437" y="-231.5" font-family="sans" font-size="10.00" fill="#000000">nonpareil_plot</text>
</g>
<!-- 10&#45;&gt;1 -->
<g id="edge9" class="edge">
<title>10&#45;&gt;1</title>
<path fill="none" stroke="#c0c0c0" stroke-width="2" d="M443.0788,-215.6486C450.7919,-195.1833 466.0485,-162.5292 490,-144 534.694,-109.4241 600.6432,-96.9847 641.652,-92.5108"/>
<polygon fill="#c0c0c0" stroke="#c0c0c0" stroke-width="2" points="642.1555,-95.9782 651.7639,-91.5142 641.4688,-89.012 642.1555,-95.9782"/>
</g>
<!-- 11&#45;&gt;10 -->
<g id="edge22" class="edge">
<title>11&#45;&gt;10</title>
<path fill="none" stroke="#c0c0c0" stroke-width="2" d="M372.7014,-287.8314C383.1921,-279.0485 395.9455,-268.3712 407.3194,-258.8489"/>
<polygon fill="#c0c0c0" stroke="#c0c0c0" stroke-width="2" points="409.8847,-261.2659 415.3055,-252.1628 405.3911,-255.8986 409.8847,-261.2659"/>
</g>
<!-- 12 -->
<g id="node13" class="node">
<title>12</title>
<path fill="none" stroke="#56d8a9" stroke-width="2" d="M597.5,-252C597.5,-252 544.5,-252 544.5,-252 538.5,-252 532.5,-246 532.5,-240 532.5,-240 532.5,-228 532.5,-228 532.5,-222 538.5,-216 544.5,-216 544.5,-216 597.5,-216 597.5,-216 603.5,-216 609.5,-222 609.5,-228 609.5,-228 609.5,-240 609.5,-240 609.5,-246 603.5,-252 597.5,-252"/>
<text text-anchor="middle" x="571" y="-231.5" font-family="sans" font-size="10.00" fill="#000000">nonpareil_plot</text>
</g>
<!-- 12&#45;&gt;1 -->
<g id="edge10" class="edge">
<title>12&#45;&gt;1</title>
<path fill="none" stroke="#c0c0c0" stroke-width="2" d="M582.0237,-215.9048C593.5582,-197.3607 612.527,-167.9342 631,-144 638.276,-134.573 646.7568,-124.7114 654.5481,-116.0341"/>
<polygon fill="#c0c0c0" stroke="#c0c0c0" stroke-width="2" points="657.3131,-118.196 661.4553,-108.4444 652.136,-113.4845 657.3131,-118.196"/>
</g>
<!-- 13&#45;&gt;12 -->
<g id="edge24" class="edge">
<title>13&#45;&gt;12</title>
<path fill="none" stroke="#c0c0c0" stroke-width="2" d="M604.6446,-287.8314C599.5674,-279.7079 593.4773,-269.9637 587.8824,-261.0118"/>
<polygon fill="#c0c0c0" stroke="#c0c0c0" stroke-width="2" points="590.7763,-259.0383 582.5083,-252.4133 584.8403,-262.7483 590.7763,-259.0383"/>
</g>
<!-- 14 -->
<g id="node15" class="node">
<title>14</title>
<path fill="none" stroke="#d8ac56" stroke-width="2" d="M244,-252C244,-252 162,-252 162,-252 156,-252 150,-246 150,-240 150,-240 150,-228 150,-228 150,-222 156,-216 162,-216 162,-216 244,-216 244,-216 250,-216 256,-222 256,-228 256,-228 256,-240 256,-240 256,-246 250,-252 244,-252"/>
<text text-anchor="middle" x="203" y="-237" font-family="sans" font-size="10.00" fill="#000000">fastqc</text>
<text text-anchor="middle" x="203" y="-226" font-family="sans" font-size="10.00" fill="#000000">tool: low_complexity</text>
</g>
<!-- 14&#45;&gt;1 -->
<g id="edge11" class="edge">
<title>14&#45;&gt;1</title>
<path fill="none" stroke="#c0c0c0" stroke-width="2" d="M217.7829,-215.6864C235.9262,-194.6097 268.7751,-160.7534 305,-144 364.5395,-116.464 559.2912,-98.9958 641.6685,-92.6697"/>
<polygon fill="#c0c0c0" stroke="#c0c0c0" stroke-width="2" points="642.1244,-96.1454 651.8324,-91.9022 641.5972,-89.1652 642.1244,-96.1454"/>
</g>
<!-- 15&#45;&gt;0 -->
<g id="edge2" class="edge">
<title>15&#45;&gt;0</title>
<path fill="none" stroke="#c0c0c0" stroke-width="2" d="M172.5042,-287.7757C160.3178,-278.7056 147.6228,-266.5508 141,-252 134.3719,-237.4374 133.4203,-230.0907 141,-216 168.5043,-164.869 196.9863,-167.673 250,-144 407.2268,-73.7911 611.4608,-36.4959 693.9939,-23.4482"/>
<polygon fill="#c0c0c0" stroke="#c0c0c0" stroke-width="2" points="694.5596,-26.9023 703.9026,-21.9064 693.4833,-19.9856 694.5596,-26.9023"/>
</g>
<!-- 15&#45;&gt;14 -->
<g id="edge26" class="edge">
<title>15&#45;&gt;14</title>
<path fill="none" stroke="#c0c0c0" stroke-width="2" d="M203,-287.8314C203,-280.131 203,-270.9743 203,-262.4166"/>
<polygon fill="#c0c0c0" stroke="#c0c0c0" stroke-width="2" points="206.5001,-262.4132 203,-252.4133 199.5001,-262.4133 206.5001,-262.4132"/>
</g>
<!-- 21 -->
<g id="node22" class="node">
<title>21</title>
<path fill="none" stroke="#56d882" stroke-width="2" d="M368,-252C368,-252 286,-252 286,-252 280,-252 274,-246 274,-240 274,-240 274,-228 274,-228 274,-222 280,-216 286,-216 286,-216 368,-216 368,-216 374,-216 380,-222 380,-228 380,-228 380,-240 380,-240 380,-246 374,-252 368,-252"/>
<text text-anchor="middle" x="327" y="-237" font-family="sans" font-size="10.00" fill="#000000">nonpareil_infer</text>
<text text-anchor="middle" x="327" y="-226" font-family="sans" font-size="10.00" fill="#000000">tool: low_complexity</text>
</g>
<!-- 15&#45;&gt;21 -->
<g id="edge33" class="edge">
<title>15&#45;&gt;21</title>
<path fill="none" stroke="#c0c0c0" stroke-width="2" d="M234.2904,-287.8314C250.2977,-278.5368 269.9586,-267.1208 287.0494,-257.1971"/>
<polygon fill="#c0c0c0" stroke="#c0c0c0" stroke-width="2" points="288.8292,-260.211 295.7196,-252.1628 285.3142,-254.1575 288.8292,-260.211"/>
</g>
<!-- 16 -->
<g id="node17" class="node">
<title>16</title>
<path fill="none" stroke="#d8ac56" stroke-width="2" d="M1210,-180C1210,-180 1128,-180 1128,-180 1122,-180 1116,-174 1116,-168 1116,-168 1116,-156 1116,-156 1116,-150 1122,-144 1128,-144 1128,-144 1210,-144 1210,-144 1216,-144 1222,-150 1222,-156 1222,-156 1222,-168 1222,-168 1222,-174 1216,-180 1210,-180"/>
<text text-anchor="middle" x="1169" y="-165" font-family="sans" font-size="10.00" fill="#000000">fastqc</text>
<text text-anchor="middle" x="1169" y="-154" font-family="sans" font-size="10.00" fill="#000000">tool: low_complexity</text>
</g>
<!-- 16&#45;&gt;1 -->
<g id="edge12" class="edge">
<title>16&#45;&gt;1</title>
<path fill="none" stroke="#c0c0c0" stroke-width="2" d="M1115.6992,-145.9491C1112.7673,-145.2467 1109.8537,-144.5905 1107,-144 964.3973,-114.4942 791.5126,-98.6578 716.6092,-92.7476"/>
<polygon fill="#c0c0c0" stroke="#c0c0c0" stroke-width="2" points="716.5248,-89.2306 706.2841,-91.9471 715.9837,-96.2096 716.5248,-89.2306"/>
</g>
<!-- 17&#45;&gt;0 -->
<g id="edge4" class="edge">
<title>17&#45;&gt;0</title>
<path fill="none" stroke="#c0c0c0" stroke-width="2" d="M1153.1679,-287.812C1195.7407,-257.0903 1269.5244,-193.4369 1231,-144 1173.2803,-69.9304 874.365,-32.6411 768.3437,-21.5934"/>
<polygon fill="#c0c0c0" stroke="#c0c0c0" stroke-width="2" points="768.4247,-18.0835 758.1204,-20.5476 767.7123,-25.0472 768.4247,-18.0835"/>
</g>
<!-- 17&#45;&gt;16 -->
<g id="edge28" class="edge">
<title>17&#45;&gt;16</title>
<path fill="none" stroke="#c0c0c0" stroke-width="2" d="M1133.7987,-287.7189C1138.0434,-277.3584 1143.1902,-264.0881 1147,-252 1153.4669,-231.4812 1159.1817,-207.8361 1163.1649,-189.9323"/>
<polygon fill="#c0c0c0" stroke="#c0c0c0" stroke-width="2" points="1166.5934,-190.6372 1165.3028,-180.1213 1159.7539,-189.1468 1166.5934,-190.6372"/>
</g>
<!-- 25 -->
<g id="node26" class="node">
<title>25</title>
<path fill="none" stroke="#56d882" stroke-width="2" d="M1126,-252C1126,-252 1044,-252 1044,-252 1038,-252 1032,-246 1032,-240 1032,-240 1032,-228 1032,-228 1032,-222 1038,-216 1044,-216 1044,-216 1126,-216 1126,-216 1132,-216 1138,-222 1138,-228 1138,-228 1138,-240 1138,-240 1138,-246 1132,-252 1126,-252"/>
<text text-anchor="middle" x="1085" y="-237" font-family="sans" font-size="10.00" fill="#000000">nonpareil_infer</text>
<text text-anchor="middle" x="1085" y="-226" font-family="sans" font-size="10.00" fill="#000000">tool: low_complexity</text>
</g>
<!-- 17&#45;&gt;25 -->
<g id="edge37" class="edge">
<title>17&#45;&gt;25</title>
<path fill="none" stroke="#c0c0c0" stroke-width="2" d="M1115.654,-287.8314C1111.0763,-279.7925 1105.5948,-270.1666 1100.5412,-261.2918"/>
<polygon fill="#c0c0c0" stroke="#c0c0c0" stroke-width="2" points="1103.4752,-259.3712 1095.4853,-252.4133 1097.3923,-262.8351 1103.4752,-259.3712"/>
</g>
<!-- 18 -->
<g id="node19" class="node">
<title>18</title>
<path fill="none" stroke="#d8ac56" stroke-width="2" d="M846,-252C846,-252 764,-252 764,-252 758,-252 752,-246 752,-240 752,-240 752,-228 752,-228 752,-222 758,-216 764,-216 764,-216 846,-216 846,-216 852,-216 858,-222 858,-228 858,-228 858,-240 858,-240 858,-246 852,-252 846,-252"/>
<text text-anchor="middle" x="805" y="-237" font-family="sans" font-size="10.00" fill="#000000">fastqc</text>
<text text-anchor="middle" x="805" y="-226" font-family="sans" font-size="10.00" fill="#000000">tool: low_complexity</text>
</g>
<!-- 18&#45;&gt;1 -->
<g id="edge13" class="edge">
<title>18&#45;&gt;1</title>
<path fill="none" stroke="#c0c0c0" stroke-width="2" d="M789.042,-215.7623C766.8882,-190.4436 726.7034,-144.5182 701.5094,-115.7251"/>
<polygon fill="#c0c0c0" stroke="#c0c0c0" stroke-width="2" points="704.0475,-113.3106 694.8284,-108.0896 698.7795,-117.9202 704.0475,-113.3106"/>
</g>
<!-- 19&#45;&gt;0 -->
<g id="edge3" class="edge">
<title>19&#45;&gt;0</title>
<path fill="none" stroke="#c0c0c0" stroke-width="2" d="M806.2579,-295.3027C828.4769,-287.2961 853.7818,-273.8545 867,-252 875.2805,-238.3093 875.0775,-229.8114 867,-216 850.524,-187.8286 824.9652,-204.1374 803,-180 767.3319,-140.8045 747.0722,-81.0464 737.6296,-46.119"/>
<polygon fill="#c0c0c0" stroke="#c0c0c0" stroke-width="2" points="740.9371,-44.9297 735.0413,-36.1268 734.1607,-46.685 740.9371,-44.9297"/>
</g>
<!-- 19&#45;&gt;18 -->
<g id="edge30" class="edge">
<title>19&#45;&gt;18</title>
<path fill="none" stroke="#c0c0c0" stroke-width="2" d="M774.346,-287.8314C778.9237,-279.7925 784.4052,-270.1666 789.4588,-261.2918"/>
<polygon fill="#c0c0c0" stroke="#c0c0c0" stroke-width="2" points="792.6077,-262.8351 794.5147,-252.4133 786.5248,-259.3712 792.6077,-262.8351"/>
</g>
<!-- 23 -->
<g id="node24" class="node">
<title>23</title>
<path fill="none" stroke="#56d882" stroke-width="2" d="M722,-252C722,-252 640,-252 640,-252 634,-252 628,-246 628,-240 628,-240 628,-228 628,-228 628,-222 634,-216 640,-216 640,-216 722,-216 722,-216 728,-216 734,-222 734,-228 734,-228 734,-240 734,-240 734,-246 728,-252 722,-252"/>
<text text-anchor="middle" x="681" y="-237" font-family="sans" font-size="10.00" fill="#000000">nonpareil_infer</text>
<text text-anchor="middle" x="681" y="-226" font-family="sans" font-size="10.00" fill="#000000">tool: low_complexity</text>
</g>
<!-- 19&#45;&gt;23 -->
<g id="edge35" class="edge">
<title>19&#45;&gt;23</title>
<path fill="none" stroke="#c0c0c0" stroke-width="2" d="M743.0556,-287.8314C732.9309,-279.0485 720.6223,-268.3712 709.6452,-258.8489"/>
<polygon fill="#c0c0c0" stroke="#c0c0c0" stroke-width="2" points="711.7851,-256.0718 701.9377,-252.1628 707.1981,-261.3595 711.7851,-256.0718"/>
</g>
<!-- 20 -->
<g id="node21" class="node">
<title>20</title>
<path fill="none" stroke="#56d8a9" stroke-width="2" d="M379.5,-180C379.5,-180 326.5,-180 326.5,-180 320.5,-180 314.5,-174 314.5,-168 314.5,-168 314.5,-156 314.5,-156 314.5,-150 320.5,-144 326.5,-144 326.5,-144 379.5,-144 379.5,-144 385.5,-144 391.5,-150 391.5,-156 391.5,-156 391.5,-168 391.5,-168 391.5,-174 385.5,-180 379.5,-180"/>
<text text-anchor="middle" x="353" y="-159.5" font-family="sans" font-size="10.00" fill="#000000">nonpareil_plot</text>
</g>
<!-- 20&#45;&gt;1 -->
<g id="edge14" class="edge">
<title>20&#45;&gt;1</title>
<path fill="none" stroke="#c0c0c0" stroke-width="2" d="M391.6767,-153.4579C454.944,-139.4848 579.7342,-111.9237 641.9373,-98.1856"/>
<polygon fill="#c0c0c0" stroke="#c0c0c0" stroke-width="2" points="642.7127,-101.5988 651.7225,-96.0245 641.203,-94.7635 642.7127,-101.5988"/>
</g>
<!-- 21&#45;&gt;20 -->
<g id="edge32" class="edge">
<title>21&#45;&gt;20</title>
<path fill="none" stroke="#c0c0c0" stroke-width="2" d="M333.5609,-215.8314C336.4027,-207.9617 339.7937,-198.5712 342.9419,-189.8533"/>
<polygon fill="#c0c0c0" stroke="#c0c0c0" stroke-width="2" points="346.2462,-191.0076 346.3508,-180.4133 339.6623,-188.63 346.2462,-191.0076"/>
</g>
<!-- 22 -->
<g id="node23" class="node">
<title>22</title>
<path fill="none" stroke="#56d8a9" stroke-width="2" d="M705.5,-180C705.5,-180 652.5,-180 652.5,-180 646.5,-180 640.5,-174 640.5,-168 640.5,-168 640.5,-156 640.5,-156 640.5,-150 646.5,-144 652.5,-144 652.5,-144 705.5,-144 705.5,-144 711.5,-144 717.5,-150 717.5,-156 717.5,-156 717.5,-168 717.5,-168 717.5,-174 711.5,-180 705.5,-180"/>
<text text-anchor="middle" x="679" y="-159.5" font-family="sans" font-size="10.00" fill="#000000">nonpareil_plot</text>
</g>
<!-- 22&#45;&gt;1 -->
<g id="edge15" class="edge">
<title>22&#45;&gt;1</title>
<path fill="none" stroke="#c0c0c0" stroke-width="2" d="M679,-143.8314C679,-136.131 679,-126.9743 679,-118.4166"/>
<polygon fill="#c0c0c0" stroke="#c0c0c0" stroke-width="2" points="682.5001,-118.4132 679,-108.4133 675.5001,-118.4133 682.5001,-118.4132"/>
</g>
<!-- 23&#45;&gt;22 -->
<g id="edge34" class="edge">
<title>23&#45;&gt;22</title>
<path fill="none" stroke="#c0c0c0" stroke-width="2" d="M680.4953,-215.8314C680.2814,-208.131 680.0271,-198.9743 679.7894,-190.4166"/>
<polygon fill="#c0c0c0" stroke="#c0c0c0" stroke-width="2" points="683.2879,-190.3122 679.5115,-180.4133 676.2906,-190.5066 683.2879,-190.3122"/>
</g>
<!-- 24 -->
<g id="node25" class="node">
<title>24</title>
<path fill="none" stroke="#56d8a9" stroke-width="2" d="M1085.5,-180C1085.5,-180 1032.5,-180 1032.5,-180 1026.5,-180 1020.5,-174 1020.5,-168 1020.5,-168 1020.5,-156 1020.5,-156 1020.5,-150 1026.5,-144 1032.5,-144 1032.5,-144 1085.5,-144 1085.5,-144 1091.5,-144 1097.5,-150 1097.5,-156 1097.5,-156 1097.5,-168 1097.5,-168 1097.5,-174 1091.5,-180 1085.5,-180"/>
<text text-anchor="middle" x="1059" y="-159.5" font-family="sans" font-size="10.00" fill="#000000">nonpareil_plot</text>
</g>
<!-- 24&#45;&gt;1 -->
<g id="edge16" class="edge">
<title>24&#45;&gt;1</title>
<path fill="none" stroke="#c0c0c0" stroke-width="2" d="M1020.4408,-146.7927C1017.271,-145.7717 1014.0963,-144.8237 1011,-144 905.9057,-116.0421 778.0249,-100.1843 716.1233,-93.617"/>
<polygon fill="#c0c0c0" stroke="#c0c0c0" stroke-width="2" points="716.3682,-90.1237 706.0597,-92.5699 715.6438,-97.0861 716.3682,-90.1237"/>
</g>
<!-- 25&#45;&gt;24 -->
<g id="edge36" class="edge">
<title>25&#45;&gt;24</title>
<path fill="none" stroke="#c0c0c0" stroke-width="2" d="M1078.4391,-215.8314C1075.5973,-207.9617 1072.2063,-198.5712 1069.0581,-189.8533"/>
<polygon fill="#c0c0c0" stroke="#c0c0c0" stroke-width="2" points="1072.3377,-188.63 1065.6492,-180.4133 1065.7538,-191.0076 1072.3377,-188.63"/>
</g>
</g>
</svg>
