<?xml version="1.0" encoding="UTF-8" standalone="no"?>
<!DOCTYPE svg PUBLIC "-//W3C//DTD SVG 1.1//EN"
 "http://www.w3.org/Graphics/SVG/1.1/DTD/svg11.dtd">
<!-- Generated by graphviz version 2.40.1 (0)
 -->
<!-- Title: snakemake_dag Pages: 1 -->
<svg width="1178pt" height="420pt"
 viewBox="0.00 0.00 1178.35 420.00" xmlns="http://www.w3.org/2000/svg" xmlns:xlink="http://www.w3.org/1999/xlink">
<g id="graph0" class="graph" transform="scale(1 1) rotate(0) translate(4 416)">
<title>snakemake_dag</title>
<polygon fill="#ffffff" stroke="transparent" points="-4,4 -4,-416 1174.3507,-416 1174.3507,4 -4,4"/>
<!-- 0 -->
<g id="node1" class="node">
<title>0</title>
<path fill="none" stroke="#d85656" stroke-width="2" d="M722,-36C722,-36 692,-36 692,-36 686,-36 680,-30 680,-24 680,-24 680,-12 680,-12 680,-6 686,0 692,0 692,0 722,0 722,0 728,0 734,-6 734,-12 734,-12 734,-24 734,-24 734,-30 728,-36 722,-36"/>
<text text-anchor="middle" x="707" y="-15.5" font-family="sans" font-size="10.00" fill="#000000">all</text>
</g>
<!-- 1 -->
<g id="node2" class="node">
<title>1</title>
<path fill="none" stroke="#80d856" stroke-width="2" d="M670,-108C670,-108 640,-108 640,-108 634,-108 628,-102 628,-96 628,-96 628,-84 628,-84 628,-78 634,-72 640,-72 640,-72 670,-72 670,-72 676,-72 682,-78 682,-84 682,-84 682,-96 682,-96 682,-102 676,-108 670,-108"/>
<text text-anchor="middle" x="655" y="-87.5" font-family="sans" font-size="10.00" fill="#000000">multiqc</text>
</g>
<!-- 1&#45;&gt;0 -->
<g id="edge1" class="edge">
<title>1&#45;&gt;0</title>
<path fill="none" stroke="#c0c0c0" stroke-width="2" d="M668.1218,-71.8314C674.0499,-63.6232 681.1729,-53.7606 687.6933,-44.7323"/>
<polygon fill="#c0c0c0" stroke="#c0c0c0" stroke-width="2" points="690.684,-46.5693 693.7015,-36.4133 685.0092,-42.4708 690.684,-46.5693"/>
</g>
<!-- 2 -->
<g id="node3" class="node">
<title>2</title>
<path fill="none" stroke="#5682d8" stroke-width="2" d="M82,-180C82,-180 12,-180 12,-180 6,-180 0,-174 0,-168 0,-168 0,-156 0,-156 0,-150 6,-144 12,-144 12,-144 82,-144 82,-144 88,-144 94,-150 94,-156 94,-156 94,-168 94,-168 94,-174 88,-180 82,-180"/>
<text text-anchor="middle" x="47" y="-165" font-family="sans" font-size="10.00" fill="#000000">seqkit_stats</text>
<text text-anchor="middle" x="47" y="-154" font-family="sans" font-size="10.00" fill="#000000">tool: merge_lanes</text>
</g>
<!-- 2&#45;&gt;1 -->
<g id="edge5" class="edge">
<title>2&#45;&gt;1</title>
<path fill="none" stroke="#c0c0c0" stroke-width="2" d="M94.2052,-152.1522C109.1283,-149.2566 125.7137,-146.2624 141,-144 318.6875,-117.7016 532.7881,-99.5121 617.697,-92.8309"/>
<polygon fill="#c0c0c0" stroke="#c0c0c0" stroke-width="2" points="618.1723,-96.3045 627.8697,-92.0371 617.6277,-89.3258 618.1723,-96.3045"/>
</g>
<!-- 3 -->
<g id="node4" class="node">
<title>3</title>
<path fill="none" stroke="#afd856" stroke-width="2" d="M248,-412C248,-412 144,-412 144,-412 138,-412 132,-406 132,-400 132,-400 132,-372 132,-372 132,-366 138,-360 144,-360 144,-360 248,-360 248,-360 254,-360 260,-366 260,-372 260,-372 260,-400 260,-400 260,-406 254,-412 248,-412"/>
<text text-anchor="middle" x="196" y="-400" font-family="sans" font-size="10.00" fill="#000000">merge_lanes</text>
<text text-anchor="middle" x="196" y="-389" font-family="sans" font-size="10.00" fill="#000000">library: lib2</text>
<text text-anchor="middle" x="196" y="-378" font-family="sans" font-size="10.00" fill="#000000">read_type_trim: collapsed</text>
<text text-anchor="middle" x="196" y="-367" font-family="sans" font-size="10.00" fill="#000000">sample: HD827sonic_2</text>
</g>
<!-- 3&#45;&gt;2 -->
<g id="edge17" class="edge">
<title>3&#45;&gt;2</title>
<path fill="none" stroke="#c0c0c0" stroke-width="2" d="M173.0402,-359.8081C163.9426,-348.9984 153.619,-336.1704 145,-324 112.6667,-278.3437 80.0091,-221.7896 61.7502,-189.009"/>
<polygon fill="#c0c0c0" stroke="#c0c0c0" stroke-width="2" points="64.6843,-187.0826 56.7781,-180.0297 58.5604,-190.4736 64.6843,-187.0826"/>
</g>
<!-- 11 -->
<g id="node12" class="node">
<title>11</title>
<path fill="none" stroke="#59d856" stroke-width="2" d="M338,-324C338,-324 268,-324 268,-324 262,-324 256,-318 256,-312 256,-312 256,-300 256,-300 256,-294 262,-288 268,-288 268,-288 338,-288 338,-288 344,-288 350,-294 350,-300 350,-300 350,-312 350,-312 350,-318 344,-324 338,-324"/>
<text text-anchor="middle" x="303" y="-309" font-family="sans" font-size="10.00" fill="#000000">nonpareil_infer</text>
<text text-anchor="middle" x="303" y="-298" font-family="sans" font-size="10.00" fill="#000000">tool: merge_lanes</text>
</g>
<!-- 3&#45;&gt;11 -->
<g id="edge23" class="edge">
<title>3&#45;&gt;11</title>
<path fill="none" stroke="#c0c0c0" stroke-width="2" d="M231.0358,-359.805C243.7131,-350.3266 257.967,-339.6695 270.4243,-330.3557"/>
<polygon fill="#c0c0c0" stroke="#c0c0c0" stroke-width="2" points="272.8069,-332.9444 278.72,-324.1532 268.6152,-327.3381 272.8069,-332.9444"/>
</g>
<!-- 17 -->
<g id="node18" class="node">
<title>17</title>
<path fill="none" stroke="#d6d856" stroke-width="2" d="M226,-324C226,-324 166,-324 166,-324 160,-324 154,-318 154,-312 154,-312 154,-300 154,-300 154,-294 160,-288 166,-288 166,-288 226,-288 226,-288 232,-288 238,-294 238,-300 238,-300 238,-312 238,-312 238,-318 232,-324 226,-324"/>
<text text-anchor="middle" x="196" y="-303.5" font-family="sans" font-size="10.00" fill="#000000">low_complexity</text>
</g>
<!-- 3&#45;&gt;17 -->
<g id="edge29" class="edge">
<title>3&#45;&gt;17</title>
<path fill="none" stroke="#c0c0c0" stroke-width="2" d="M196,-359.805C196,-351.6026 196,-342.5174 196,-334.1839"/>
<polygon fill="#c0c0c0" stroke="#c0c0c0" stroke-width="2" points="199.5001,-334.1532 196,-324.1532 192.5001,-334.1533 199.5001,-334.1532"/>
</g>
<!-- 4 -->
<g id="node5" class="node">
<title>4</title>
<path fill="none" stroke="#5682d8" stroke-width="2" d="M548,-180C548,-180 478,-180 478,-180 472,-180 466,-174 466,-168 466,-168 466,-156 466,-156 466,-150 472,-144 478,-144 478,-144 548,-144 548,-144 554,-144 560,-150 560,-156 560,-156 560,-168 560,-168 560,-174 554,-180 548,-180"/>
<text text-anchor="middle" x="513" y="-165" font-family="sans" font-size="10.00" fill="#000000">seqkit_stats</text>
<text text-anchor="middle" x="513" y="-154" font-family="sans" font-size="10.00" fill="#000000">tool: merge_lanes</text>
</g>
<!-- 4&#45;&gt;1 -->
<g id="edge6" class="edge">
<title>4&#45;&gt;1</title>
<path fill="none" stroke="#c0c0c0" stroke-width="2" d="M548.8326,-143.8314C570.1604,-133.0173 597.1523,-119.3312 618.5824,-108.4652"/>
<polygon fill="#c0c0c0" stroke="#c0c0c0" stroke-width="2" points="620.3583,-111.4891 627.6945,-103.845 617.1927,-105.2457 620.3583,-111.4891"/>
</g>
<!-- 5 -->
<g id="node6" class="node">
<title>5</title>
<path fill="none" stroke="#afd856" stroke-width="2" d="M505,-412C505,-412 401,-412 401,-412 395,-412 389,-406 389,-400 389,-400 389,-372 389,-372 389,-366 395,-360 401,-360 401,-360 505,-360 505,-360 511,-360 517,-366 517,-372 517,-372 517,-400 517,-400 517,-406 511,-412 505,-412"/>
<text text-anchor="middle" x="453" y="-400" font-family="sans" font-size="10.00" fill="#000000">merge_lanes</text>
<text text-anchor="middle" x="453" y="-389" font-family="sans" font-size="10.00" fill="#000000">library: lib1</text>
<text text-anchor="middle" x="453" y="-378" font-family="sans" font-size="10.00" fill="#000000">read_type_trim: collapsed</text>
<text text-anchor="middle" x="453" y="-367" font-family="sans" font-size="10.00" fill="#000000">sample: HD827sonic_2</text>
</g>
<!-- 5&#45;&gt;4 -->
<g id="edge18" class="edge">
<title>5&#45;&gt;4</title>
<path fill="none" stroke="#c0c0c0" stroke-width="2" d="M421.4654,-359.7669C411.6996,-349.7103 402.1564,-337.4018 397,-324 379.7635,-279.2015 371.1965,-256.4744 397,-216 404.2322,-204.6559 430.5891,-191.9578 456.3541,-181.7266"/>
<polygon fill="#c0c0c0" stroke="#c0c0c0" stroke-width="2" points="457.7215,-184.9504 465.7832,-178.0759 455.194,-178.4226 457.7215,-184.9504"/>
</g>
<!-- 13 -->
<g id="node14" class="node">
<title>13</title>
<path fill="none" stroke="#59d856" stroke-width="2" d="M488,-324C488,-324 418,-324 418,-324 412,-324 406,-318 406,-312 406,-312 406,-300 406,-300 406,-294 412,-288 418,-288 418,-288 488,-288 488,-288 494,-288 500,-294 500,-300 500,-300 500,-312 500,-312 500,-318 494,-324 488,-324"/>
<text text-anchor="middle" x="453" y="-309" font-family="sans" font-size="10.00" fill="#000000">nonpareil_infer</text>
<text text-anchor="middle" x="453" y="-298" font-family="sans" font-size="10.00" fill="#000000">tool: merge_lanes</text>
</g>
<!-- 5&#45;&gt;13 -->
<g id="edge25" class="edge">
<title>5&#45;&gt;13</title>
<path fill="none" stroke="#c0c0c0" stroke-width="2" d="M453,-359.805C453,-351.6026 453,-342.5174 453,-334.1839"/>
<polygon fill="#c0c0c0" stroke="#c0c0c0" stroke-width="2" points="456.5001,-334.1532 453,-324.1532 449.5001,-334.1533 456.5001,-334.1532"/>
</g>
<!-- 19 -->
<g id="node20" class="node">
<title>19</title>
<path fill="none" stroke="#d6d856" stroke-width="2" d="M650,-324C650,-324 590,-324 590,-324 584,-324 578,-318 578,-312 578,-312 578,-300 578,-300 578,-294 584,-288 590,-288 590,-288 650,-288 650,-288 656,-288 662,-294 662,-300 662,-300 662,-312 662,-312 662,-318 656,-324 650,-324"/>
<text text-anchor="middle" x="620" y="-303.5" font-family="sans" font-size="10.00" fill="#000000">low_complexity</text>
</g>
<!-- 5&#45;&gt;19 -->
<g id="edge31" class="edge">
<title>5&#45;&gt;19</title>
<path fill="none" stroke="#c0c0c0" stroke-width="2" d="M507.682,-359.805C528.8824,-349.6492 552.9077,-338.14 573.2817,-328.38"/>
<polygon fill="#c0c0c0" stroke="#c0c0c0" stroke-width="2" points="574.8561,-331.5068 582.3625,-324.0299 571.8318,-325.1937 574.8561,-331.5068"/>
</g>
<!-- 6 -->
<g id="node7" class="node">
<title>6</title>
<path fill="none" stroke="#5682d8" stroke-width="2" d="M833,-324C833,-324 763,-324 763,-324 757,-324 751,-318 751,-312 751,-312 751,-300 751,-300 751,-294 757,-288 763,-288 763,-288 833,-288 833,-288 839,-288 845,-294 845,-300 845,-300 845,-312 845,-312 845,-318 839,-324 833,-324"/>
<text text-anchor="middle" x="798" y="-309" font-family="sans" font-size="10.00" fill="#000000">seqkit_stats</text>
<text text-anchor="middle" x="798" y="-298" font-family="sans" font-size="10.00" fill="#000000">tool: merge_lanes</text>
</g>
<!-- 6&#45;&gt;1 -->
<g id="edge7" class="edge">
<title>6&#45;&gt;1</title>
<path fill="none" stroke="#c0c0c0" stroke-width="2" d="M791.7225,-287.6394C780.3631,-256.1084 754.1762,-190.5708 718,-144 709.702,-133.3177 699.0155,-123.2068 688.8091,-114.6853"/>
<polygon fill="#c0c0c0" stroke="#c0c0c0" stroke-width="2" points="690.7628,-111.7646 680.7814,-108.2115 686.3685,-117.2135 690.7628,-111.7646"/>
</g>
<!-- 7 -->
<g id="node8" class="node">
<title>7</title>
<path fill="none" stroke="#afd856" stroke-width="2" d="M962,-412C962,-412 858,-412 858,-412 852,-412 846,-406 846,-400 846,-400 846,-372 846,-372 846,-366 852,-360 858,-360 858,-360 962,-360 962,-360 968,-360 974,-366 974,-372 974,-372 974,-400 974,-400 974,-406 968,-412 962,-412"/>
<text text-anchor="middle" x="910" y="-400" font-family="sans" font-size="10.00" fill="#000000">merge_lanes</text>
<text text-anchor="middle" x="910" y="-389" font-family="sans" font-size="10.00" fill="#000000">library: lib1</text>
<text text-anchor="middle" x="910" y="-378" font-family="sans" font-size="10.00" fill="#000000">read_type_trim: collapsed</text>
<text text-anchor="middle" x="910" y="-367" font-family="sans" font-size="10.00" fill="#000000">sample: HD827sonic_1</text>
</g>
<!-- 7&#45;&gt;6 -->
<g id="edge19" class="edge">
<title>7&#45;&gt;6</title>
<path fill="none" stroke="#c0c0c0" stroke-width="2" d="M873.327,-359.805C859.9297,-350.2355 844.8502,-339.4645 831.7223,-330.0874"/>
<polygon fill="#c0c0c0" stroke="#c0c0c0" stroke-width="2" points="833.5862,-327.1176 823.4145,-324.1532 829.5175,-332.8137 833.5862,-327.1176"/>
</g>
<!-- 9 -->
<g id="node10" class="node">
<title>9</title>
<path fill="none" stroke="#59d856" stroke-width="2" d="M945,-324C945,-324 875,-324 875,-324 869,-324 863,-318 863,-312 863,-312 863,-300 863,-300 863,-294 869,-288 875,-288 875,-288 945,-288 945,-288 951,-288 957,-294 957,-300 957,-300 957,-312 957,-312 957,-318 951,-324 945,-324"/>
<text text-anchor="middle" x="910" y="-309" font-family="sans" font-size="10.00" fill="#000000">nonpareil_infer</text>
<text text-anchor="middle" x="910" y="-298" font-family="sans" font-size="10.00" fill="#000000">tool: merge_lanes</text>
</g>
<!-- 7&#45;&gt;9 -->
<g id="edge21" class="edge">
<title>7&#45;&gt;9</title>
<path fill="none" stroke="#c0c0c0" stroke-width="2" d="M910,-359.805C910,-351.6026 910,-342.5174 910,-334.1839"/>
<polygon fill="#c0c0c0" stroke="#c0c0c0" stroke-width="2" points="913.5001,-334.1532 910,-324.1532 906.5001,-334.1533 913.5001,-334.1532"/>
</g>
<!-- 15 -->
<g id="node16" class="node">
<title>15</title>
<path fill="none" stroke="#d6d856" stroke-width="2" d="M1088,-324C1088,-324 1028,-324 1028,-324 1022,-324 1016,-318 1016,-312 1016,-312 1016,-300 1016,-300 1016,-294 1022,-288 1028,-288 1028,-288 1088,-288 1088,-288 1094,-288 1100,-294 1100,-300 1100,-300 1100,-312 1100,-312 1100,-318 1094,-324 1088,-324"/>
<text text-anchor="middle" x="1058" y="-303.5" font-family="sans" font-size="10.00" fill="#000000">low_complexity</text>
</g>
<!-- 7&#45;&gt;15 -->
<g id="edge27" class="edge">
<title>7&#45;&gt;15</title>
<path fill="none" stroke="#c0c0c0" stroke-width="2" d="M958.4607,-359.805C976.8388,-349.8709 997.6122,-338.6421 1015.4094,-329.0219"/>
<polygon fill="#c0c0c0" stroke="#c0c0c0" stroke-width="2" points="1017.2838,-331.9874 1024.4165,-324.1532 1013.9551,-325.8295 1017.2838,-331.9874"/>
</g>
<!-- 8 -->
<g id="node9" class="node">
<title>8</title>
<path fill="none" stroke="#56d882" stroke-width="2" d="M891.5,-252C891.5,-252 838.5,-252 838.5,-252 832.5,-252 826.5,-246 826.5,-240 826.5,-240 826.5,-228 826.5,-228 826.5,-222 832.5,-216 838.5,-216 838.5,-216 891.5,-216 891.5,-216 897.5,-216 903.5,-222 903.5,-228 903.5,-228 903.5,-240 903.5,-240 903.5,-246 897.5,-252 891.5,-252"/>
<text text-anchor="middle" x="865" y="-231.5" font-family="sans" font-size="10.00" fill="#000000">nonpareil_plot</text>
</g>
<!-- 8&#45;&gt;1 -->
<g id="edge8" class="edge">
<title>8&#45;&gt;1</title>
<path fill="none" stroke="#c0c0c0" stroke-width="2" d="M858.7403,-215.8762C850.861,-195.6199 835.4524,-163.1571 812,-144 777.2037,-115.5766 726.5747,-101.7464 692.2942,-95.2759"/>
<polygon fill="#c0c0c0" stroke="#c0c0c0" stroke-width="2" points="692.6722,-91.7886 682.2159,-93.4961 691.4548,-98.6819 692.6722,-91.7886"/>
</g>
<!-- 9&#45;&gt;8 -->
<g id="edge20" class="edge">
<title>9&#45;&gt;8</title>
<path fill="none" stroke="#c0c0c0" stroke-width="2" d="M898.6446,-287.8314C893.5674,-279.7079 887.4773,-269.9637 881.8824,-261.0118"/>
<polygon fill="#c0c0c0" stroke="#c0c0c0" stroke-width="2" points="884.7763,-259.0383 876.5083,-252.4133 878.8403,-262.7483 884.7763,-259.0383"/>
</g>
<!-- 10 -->
<g id="node11" class="node">
<title>10</title>
<path fill="none" stroke="#56d882" stroke-width="2" d="M435.5,-180C435.5,-180 382.5,-180 382.5,-180 376.5,-180 370.5,-174 370.5,-168 370.5,-168 370.5,-156 370.5,-156 370.5,-150 376.5,-144 382.5,-144 382.5,-144 435.5,-144 435.5,-144 441.5,-144 447.5,-150 447.5,-156 447.5,-156 447.5,-168 447.5,-168 447.5,-174 441.5,-180 435.5,-180"/>
<text text-anchor="middle" x="409" y="-159.5" font-family="sans" font-size="10.00" fill="#000000">nonpareil_plot</text>
</g>
<!-- 10&#45;&gt;1 -->
<g id="edge9" class="edge">
<title>10&#45;&gt;1</title>
<path fill="none" stroke="#c0c0c0" stroke-width="2" d="M447.6644,-147.1503C450.8106,-146.049 453.9512,-144.9851 457,-144 512.5176,-126.0623 578.0213,-108.9787 618.0222,-98.9954"/>
<polygon fill="#c0c0c0" stroke="#c0c0c0" stroke-width="2" points="619.002,-102.3585 627.8652,-96.5538 617.3166,-95.5644 619.002,-102.3585"/>
</g>
<!-- 11&#45;&gt;10 -->
<g id="edge22" class="edge">
<title>11&#45;&gt;10</title>
<path fill="none" stroke="#c0c0c0" stroke-width="2" d="M314.6388,-287.7034C326.5506,-269.2539 345.8383,-240.1302 364,-216 371.0795,-206.5939 379.2135,-196.6088 386.602,-187.8166"/>
<polygon fill="#c0c0c0" stroke="#c0c0c0" stroke-width="2" points="389.3245,-190.0178 393.1261,-180.1285 383.9872,-185.4886 389.3245,-190.0178"/>
</g>
<!-- 12 -->
<g id="node13" class="node">
<title>12</title>
<path fill="none" stroke="#56d882" stroke-width="2" d="M471.5,-252C471.5,-252 418.5,-252 418.5,-252 412.5,-252 406.5,-246 406.5,-240 406.5,-240 406.5,-228 406.5,-228 406.5,-222 412.5,-216 418.5,-216 418.5,-216 471.5,-216 471.5,-216 477.5,-216 483.5,-222 483.5,-228 483.5,-228 483.5,-240 483.5,-240 483.5,-246 477.5,-252 471.5,-252"/>
<text text-anchor="middle" x="445" y="-231.5" font-family="sans" font-size="10.00" fill="#000000">nonpareil_plot</text>
</g>
<!-- 12&#45;&gt;1 -->
<g id="edge10" class="edge">
<title>12&#45;&gt;1</title>
<path fill="none" stroke="#c0c0c0" stroke-width="2" d="M483.7458,-219.077C514.4697,-206.887 554.5598,-190.08 569,-180 582.8706,-170.3176 611.9353,-138.8232 632.4253,-115.8133"/>
<polygon fill="#c0c0c0" stroke="#c0c0c0" stroke-width="2" points="635.2662,-117.8845 639.2762,-108.0779 630.0259,-113.2434 635.2662,-117.8845"/>
</g>
<!-- 13&#45;&gt;12 -->
<g id="edge24" class="edge">
<title>13&#45;&gt;12</title>
<path fill="none" stroke="#c0c0c0" stroke-width="2" d="M450.9813,-287.8314C450.1257,-280.131 449.1083,-270.9743 448.1574,-262.4166"/>
<polygon fill="#c0c0c0" stroke="#c0c0c0" stroke-width="2" points="451.6289,-261.9656 447.0459,-252.4133 444.6717,-262.7386 451.6289,-261.9656"/>
</g>
<!-- 14 -->
<g id="node15" class="node">
<title>14</title>
<path fill="none" stroke="#5682d8" stroke-width="2" d="M1016,-252C1016,-252 934,-252 934,-252 928,-252 922,-246 922,-240 922,-240 922,-228 922,-228 922,-222 928,-216 934,-216 934,-216 1016,-216 1016,-216 1022,-216 1028,-222 1028,-228 1028,-228 1028,-240 1028,-240 1028,-246 1022,-252 1016,-252"/>
<text text-anchor="middle" x="975" y="-237" font-family="sans" font-size="10.00" fill="#000000">seqkit_stats</text>
<text text-anchor="middle" x="975" y="-226" font-family="sans" font-size="10.00" fill="#000000">tool: low_complexity</text>
</g>
<!-- 14&#45;&gt;1 -->
<g id="edge11" class="edge">
<title>14&#45;&gt;1</title>
<path fill="none" stroke="#c0c0c0" stroke-width="2" d="M952.5875,-215.7505C926.9787,-195.6857 883.1483,-163.6882 841,-144 791.8499,-121.0412 730.7779,-105.5734 692.3307,-97.2731"/>
<polygon fill="#c0c0c0" stroke="#c0c0c0" stroke-width="2" points="692.6219,-93.7577 682.1152,-95.1218 691.1793,-100.6075 692.6219,-93.7577"/>
</g>
<!-- 15&#45;&gt;0 -->
<g id="edge3" class="edge">
<title>15&#45;&gt;0</title>
<path fill="none" stroke="#c0c0c0" stroke-width="2" d="M1100.2579,-295.3027C1122.4769,-287.2961 1147.7818,-273.8545 1161,-252 1189.5299,-204.8295 1145.8354,-174.6288 1100,-144 984.1671,-66.5965 817.5783,-34.0863 744.1549,-22.9265"/>
<polygon fill="#c0c0c0" stroke="#c0c0c0" stroke-width="2" points="744.4185,-19.4276 734.015,-21.4321 743.3978,-26.3528 744.4185,-19.4276"/>
</g>
<!-- 15&#45;&gt;14 -->
<g id="edge26" class="edge">
<title>15&#45;&gt;14</title>
<path fill="none" stroke="#c0c0c0" stroke-width="2" d="M1037.0556,-287.8314C1026.9309,-279.0485 1014.6223,-268.3712 1003.6452,-258.8489"/>
<polygon fill="#c0c0c0" stroke="#c0c0c0" stroke-width="2" points="1005.7851,-256.0718 995.9377,-252.1628 1001.1981,-261.3595 1005.7851,-256.0718"/>
</g>
<!-- 21 -->
<g id="node22" class="node">
<title>21</title>
<path fill="none" stroke="#59d856" stroke-width="2" d="M1140,-252C1140,-252 1058,-252 1058,-252 1052,-252 1046,-246 1046,-240 1046,-240 1046,-228 1046,-228 1046,-222 1052,-216 1058,-216 1058,-216 1140,-216 1140,-216 1146,-216 1152,-222 1152,-228 1152,-228 1152,-240 1152,-240 1152,-246 1146,-252 1140,-252"/>
<text text-anchor="middle" x="1099" y="-237" font-family="sans" font-size="10.00" fill="#000000">nonpareil_infer</text>
<text text-anchor="middle" x="1099" y="-226" font-family="sans" font-size="10.00" fill="#000000">tool: low_complexity</text>
</g>
<!-- 15&#45;&gt;21 -->
<g id="edge33" class="edge">
<title>15&#45;&gt;21</title>
<path fill="none" stroke="#c0c0c0" stroke-width="2" d="M1068.346,-287.8314C1072.9237,-279.7925 1078.4052,-270.1666 1083.4588,-261.2918"/>
<polygon fill="#c0c0c0" stroke="#c0c0c0" stroke-width="2" points="1086.6077,-262.8351 1088.5147,-252.4133 1080.5248,-259.3712 1086.6077,-262.8351"/>
</g>
<!-- 16 -->
<g id="node17" class="node">
<title>16</title>
<path fill="none" stroke="#5682d8" stroke-width="2" d="M340,-180C340,-180 258,-180 258,-180 252,-180 246,-174 246,-168 246,-168 246,-156 246,-156 246,-150 252,-144 258,-144 258,-144 340,-144 340,-144 346,-144 352,-150 352,-156 352,-156 352,-168 352,-168 352,-174 346,-180 340,-180"/>
<text text-anchor="middle" x="299" y="-165" font-family="sans" font-size="10.00" fill="#000000">seqkit_stats</text>
<text text-anchor="middle" x="299" y="-154" font-family="sans" font-size="10.00" fill="#000000">tool: low_complexity</text>
</g>
<!-- 16&#45;&gt;1 -->
<g id="edge12" class="edge">
<title>16&#45;&gt;1</title>
<path fill="none" stroke="#c0c0c0" stroke-width="2" d="M352.0066,-146.2295C355.0414,-145.4456 358.0549,-144.6961 361,-144 452.3337,-122.4122 561.3432,-104.3768 617.4764,-95.6478"/>
<polygon fill="#c0c0c0" stroke="#c0c0c0" stroke-width="2" points="618.3026,-99.0619 627.6519,-94.0776 617.235,-92.1437 618.3026,-99.0619"/>
</g>
<!-- 17&#45;&gt;0 -->
<g id="edge2" class="edge">
<title>17&#45;&gt;0</title>
<path fill="none" stroke="#c0c0c0" stroke-width="2" d="M169.7437,-287.8151C158.6578,-278.5285 146.9542,-266.1902 141,-252 122.428,-207.7385 110.9721,-181.4476 141,-144 208.0247,-60.4139 554.8869,-28.7176 669.9001,-20.4078"/>
<polygon fill="#c0c0c0" stroke="#c0c0c0" stroke-width="2" points="670.2493,-23.892 679.9783,-19.6971 669.7568,-16.9093 670.2493,-23.892"/>
</g>
<!-- 17&#45;&gt;16 -->
<g id="edge28" class="edge">
<title>17&#45;&gt;16</title>
<path fill="none" stroke="#c0c0c0" stroke-width="2" d="M225.9594,-287.9695C239.4005,-278.6367 254.5477,-266.2165 265,-252 278.6073,-233.4923 287.407,-208.8949 292.6375,-190.0925"/>
<polygon fill="#c0c0c0" stroke="#c0c0c0" stroke-width="2" points="296.0497,-190.8779 295.1839,-180.3185 289.2758,-189.113 296.0497,-190.8779"/>
</g>
<!-- 25 -->
<g id="node26" class="node">
<title>25</title>
<path fill="none" stroke="#59d856" stroke-width="2" d="M244,-252C244,-252 162,-252 162,-252 156,-252 150,-246 150,-240 150,-240 150,-228 150,-228 150,-222 156,-216 162,-216 162,-216 244,-216 244,-216 250,-216 256,-222 256,-228 256,-228 256,-240 256,-240 256,-246 250,-252 244,-252"/>
<text text-anchor="middle" x="203" y="-237" font-family="sans" font-size="10.00" fill="#000000">nonpareil_infer</text>
<text text-anchor="middle" x="203" y="-226" font-family="sans" font-size="10.00" fill="#000000">tool: low_complexity</text>
</g>
<!-- 17&#45;&gt;25 -->
<g id="edge37" class="edge">
<title>17&#45;&gt;25</title>
<path fill="none" stroke="#c0c0c0" stroke-width="2" d="M197.7664,-287.8314C198.515,-280.131 199.4053,-270.9743 200.2373,-262.4166"/>
<polygon fill="#c0c0c0" stroke="#c0c0c0" stroke-width="2" points="203.7256,-262.7051 201.2098,-252.4133 196.7585,-262.0276 203.7256,-262.7051"/>
</g>
<!-- 18 -->
<g id="node19" class="node">
<title>18</title>
<path fill="none" stroke="#5682d8" stroke-width="2" d="M720,-252C720,-252 638,-252 638,-252 632,-252 626,-246 626,-240 626,-240 626,-228 626,-228 626,-222 632,-216 638,-216 638,-216 720,-216 720,-216 726,-216 732,-222 732,-228 732,-228 732,-240 732,-240 732,-246 726,-252 720,-252"/>
<text text-anchor="middle" x="679" y="-237" font-family="sans" font-size="10.00" fill="#000000">seqkit_stats</text>
<text text-anchor="middle" x="679" y="-226" font-family="sans" font-size="10.00" fill="#000000">tool: low_complexity</text>
</g>
<!-- 18&#45;&gt;1 -->
<g id="edge13" class="edge">
<title>18&#45;&gt;1</title>
<path fill="none" stroke="#c0c0c0" stroke-width="2" d="M690.0928,-215.7187C699.7986,-197.2812 711.044,-168.1666 702,-144 698.1046,-133.5911 691.1959,-123.8652 683.8544,-115.6152"/>
<polygon fill="#c0c0c0" stroke="#c0c0c0" stroke-width="2" points="686.2014,-113.0048 676.7672,-108.1835 681.1357,-117.8358 686.2014,-113.0048"/>
</g>
<!-- 19&#45;&gt;0 -->
<g id="edge4" class="edge">
<title>19&#45;&gt;0</title>
<path fill="none" stroke="#c0c0c0" stroke-width="2" d="M662.113,-299.207C689.6653,-292.3412 723.6593,-278.7281 741,-252 782.9275,-187.3752 745.1192,-91.7611 721.9422,-45.3129"/>
<polygon fill="#c0c0c0" stroke="#c0c0c0" stroke-width="2" points="724.9329,-43.4746 717.2526,-36.1764 718.7054,-46.6712 724.9329,-43.4746"/>
</g>
<!-- 19&#45;&gt;18 -->
<g id="edge30" class="edge">
<title>19&#45;&gt;18</title>
<path fill="none" stroke="#c0c0c0" stroke-width="2" d="M634.8882,-287.8314C641.753,-279.454 650.0301,-269.3531 657.5511,-260.1749"/>
<polygon fill="#c0c0c0" stroke="#c0c0c0" stroke-width="2" points="660.2803,-262.3665 663.9114,-252.4133 654.8659,-257.9297 660.2803,-262.3665"/>
</g>
<!-- 23 -->
<g id="node24" class="node">
<title>23</title>
<path fill="none" stroke="#59d856" stroke-width="2" d="M596,-252C596,-252 514,-252 514,-252 508,-252 502,-246 502,-240 502,-240 502,-228 502,-228 502,-222 508,-216 514,-216 514,-216 596,-216 596,-216 602,-216 608,-222 608,-228 608,-228 608,-240 608,-240 608,-246 602,-252 596,-252"/>
<text text-anchor="middle" x="555" y="-237" font-family="sans" font-size="10.00" fill="#000000">nonpareil_infer</text>
<text text-anchor="middle" x="555" y="-226" font-family="sans" font-size="10.00" fill="#000000">tool: low_complexity</text>
</g>
<!-- 19&#45;&gt;23 -->
<g id="edge35" class="edge">
<title>19&#45;&gt;23</title>
<path fill="none" stroke="#c0c0c0" stroke-width="2" d="M603.5978,-287.8314C595.9585,-279.3694 586.7317,-269.1489 578.3793,-259.8971"/>
<polygon fill="#c0c0c0" stroke="#c0c0c0" stroke-width="2" points="580.9221,-257.4906 571.6231,-252.4133 575.7262,-262.1813 580.9221,-257.4906"/>
</g>
<!-- 20 -->
<g id="node21" class="node">
<title>20</title>
<path fill="none" stroke="#56d882" stroke-width="2" d="M1079.5,-180C1079.5,-180 1026.5,-180 1026.5,-180 1020.5,-180 1014.5,-174 1014.5,-168 1014.5,-168 1014.5,-156 1014.5,-156 1014.5,-150 1020.5,-144 1026.5,-144 1026.5,-144 1079.5,-144 1079.5,-144 1085.5,-144 1091.5,-150 1091.5,-156 1091.5,-156 1091.5,-168 1091.5,-168 1091.5,-174 1085.5,-180 1079.5,-180"/>
<text text-anchor="middle" x="1053" y="-159.5" font-family="sans" font-size="10.00" fill="#000000">nonpareil_plot</text>
</g>
<!-- 20&#45;&gt;1 -->
<g id="edge14" class="edge">
<title>20&#45;&gt;1</title>
<path fill="none" stroke="#c0c0c0" stroke-width="2" d="M1014.4765,-155.0309C937.899,-141.1777 767.4451,-110.3418 692.0714,-96.7064"/>
<polygon fill="#c0c0c0" stroke="#c0c0c0" stroke-width="2" points="692.5499,-93.2362 682.0866,-94.9001 691.3037,-100.1244 692.5499,-93.2362"/>
</g>
<!-- 21&#45;&gt;20 -->
<g id="edge32" class="edge">
<title>21&#45;&gt;20</title>
<path fill="none" stroke="#c0c0c0" stroke-width="2" d="M1087.3923,-215.8314C1082.2022,-207.7079 1075.9768,-197.9637 1070.2575,-189.0118"/>
<polygon fill="#c0c0c0" stroke="#c0c0c0" stroke-width="2" points="1073.0974,-186.9559 1064.764,-180.4133 1067.1985,-190.7246 1073.0974,-186.9559"/>
</g>
<!-- 22 -->
<g id="node23" class="node">
<title>22</title>
<path fill="none" stroke="#56d882" stroke-width="2" d="M681.5,-180C681.5,-180 628.5,-180 628.5,-180 622.5,-180 616.5,-174 616.5,-168 616.5,-168 616.5,-156 616.5,-156 616.5,-150 622.5,-144 628.5,-144 628.5,-144 681.5,-144 681.5,-144 687.5,-144 693.5,-150 693.5,-156 693.5,-156 693.5,-168 693.5,-168 693.5,-174 687.5,-180 681.5,-180"/>
<text text-anchor="middle" x="655" y="-159.5" font-family="sans" font-size="10.00" fill="#000000">nonpareil_plot</text>
</g>
<!-- 22&#45;&gt;1 -->
<g id="edge15" class="edge">
<title>22&#45;&gt;1</title>
<path fill="none" stroke="#c0c0c0" stroke-width="2" d="M655,-143.8314C655,-136.131 655,-126.9743 655,-118.4166"/>
<polygon fill="#c0c0c0" stroke="#c0c0c0" stroke-width="2" points="658.5001,-118.4132 655,-108.4133 651.5001,-118.4133 658.5001,-118.4132"/>
</g>
<!-- 23&#45;&gt;22 -->
<g id="edge34" class="edge">
<title>23&#45;&gt;22</title>
<path fill="none" stroke="#c0c0c0" stroke-width="2" d="M580.2342,-215.8314C592.788,-206.7927 608.1283,-195.7476 621.6391,-186.0198"/>
<polygon fill="#c0c0c0" stroke="#c0c0c0" stroke-width="2" points="623.7036,-188.8463 629.7739,-180.1628 619.6134,-183.1655 623.7036,-188.8463"/>
</g>
<!-- 24 -->
<g id="node25" class="node">
<title>24</title>
<path fill="none" stroke="#56d882" stroke-width="2" d="M215.5,-180C215.5,-180 162.5,-180 162.5,-180 156.5,-180 150.5,-174 150.5,-168 150.5,-168 150.5,-156 150.5,-156 150.5,-150 156.5,-144 162.5,-144 162.5,-144 215.5,-144 215.5,-144 221.5,-144 227.5,-150 227.5,-156 227.5,-156 227.5,-168 227.5,-168 227.5,-174 221.5,-180 215.5,-180"/>
<text text-anchor="middle" x="189" y="-159.5" font-family="sans" font-size="10.00" fill="#000000">nonpareil_plot</text>
</g>
<!-- 24&#45;&gt;1 -->
<g id="edge16" class="edge">
<title>24&#45;&gt;1</title>
<path fill="none" stroke="#c0c0c0" stroke-width="2" d="M227.5302,-146.6801C230.7065,-145.6843 233.8906,-144.7729 237,-144 374.7351,-109.7646 543.7097,-96.4082 617.5194,-91.9452"/>
<polygon fill="#c0c0c0" stroke="#c0c0c0" stroke-width="2" points="617.9251,-95.4275 627.7038,-91.3498 617.5166,-88.4394 617.9251,-95.4275"/>
</g>
<!-- 25&#45;&gt;24 -->
<g id="edge36" class="edge">
<title>25&#45;&gt;24</title>
<path fill="none" stroke="#c0c0c0" stroke-width="2" d="M199.4672,-215.8314C197.9699,-208.131 196.1895,-198.9743 194.5255,-190.4166"/>
<polygon fill="#c0c0c0" stroke="#c0c0c0" stroke-width="2" points="197.9248,-189.5614 192.5804,-180.4133 191.0535,-190.8975 197.9248,-189.5614"/>
</g>
</g>
</svg>
