<?xml version="1.0" encoding="UTF-8" standalone="no"?>
<!DOCTYPE svg PUBLIC "-//W3C//DTD SVG 1.1//EN"
 "http://www.w3.org/Graphics/SVG/1.1/DTD/svg11.dtd">
<!-- Generated by graphviz version 2.40.1 (0)
 -->
<!-- Title: snakemake_dag Pages: 1 -->
<svg width="920pt" height="1246pt"
 viewBox="0.00 0.00 920.00 1246.00" xmlns="http://www.w3.org/2000/svg" xmlns:xlink="http://www.w3.org/1999/xlink">
<g id="graph0" class="graph" transform="scale(1 1) rotate(0) translate(4 1242)">
<title>snakemake_dag</title>
<polygon fill="#ffffff" stroke="transparent" points="-4,4 -4,-1242 916,-1242 916,4 -4,4"/>
<!-- 0 -->
<g id="node1" class="node">
<title>0</title>
<text text-anchor="start" x="699.5" y="-125.6" font-family="sans" font-weight="bold" font-size="18.00" fill="#000000">all</text>
<text text-anchor="start" x="514.5" y="-101.8" font-family="sans" font-size="10.00" fill="#000000"> </text>
<text text-anchor="start" x="518.5" y="-101.8" font-family="sans" font-weight="bold" font-size="14.00" fill="#000000">↪ input</text>
<text text-anchor="start" x="571.5" y="-101.8" font-family="sans" font-size="10.00" fill="#000000"> </text>
<text text-anchor="start" x="514.5" y="-82" font-family="monospace" font-size="10.00" fill="#000000">reports/multiqc.html</text>
<text text-anchor="start" x="514.5" y="-64" font-family="monospace" font-size="10.00" fill="#000000">results/reads/low_complexity/HD827sonic_1_lib1_collapsed.fastq.gz</text>
<text text-anchor="start" x="514.5" y="-46" font-family="monospace" font-size="10.00" fill="#000000">results/reads/low_complexity/HD827sonic_2_lib1_collapsed.fastq.gz</text>
<text text-anchor="start" x="514.5" y="-28" font-family="monospace" font-size="10.00" fill="#000000">results/reads/low_complexity/HD827sonic_2_lib2_collapsed.fastq.gz</text>
<text text-anchor="start" x="898.5" y="-10" font-family="sans" font-size="10.00" fill="#000000"> &#160;</text>
<polygon fill="#d95757" stroke="#d95757" points="508.5,-116 508.5,-116 912.5,-116 912.5,-116 508.5,-116"/>
<polygon fill="#d95757" stroke="#d95757" points="508.5,-22 508.5,-22 912.5,-22 912.5,-22 508.5,-22"/>
<polygon fill="none" stroke="#d95757" stroke-width="2" points="508,-1 508,-145 911,-145 911,-1 508,-1"/>
</g>
<!-- 1 -->
<g id="node2" class="node">
<title>1</title>
<text text-anchor="start" x="554.5" y="-491.6" font-family="sans" font-weight="bold" font-size="18.00" fill="#000000">multiqc</text>
<text text-anchor="start" x="379.5" y="-467.8" font-family="sans" font-size="10.00" fill="#000000"> </text>
<text text-anchor="start" x="383.5" y="-467.8" font-family="sans" font-weight="bold" font-size="14.00" fill="#000000">↪ input</text>
<text text-anchor="start" x="436.5" y="-467.8" font-family="sans" font-size="10.00" fill="#000000"> </text>
<text text-anchor="start" x="379.5" y="-448" font-family="monospace" font-size="10.00" fill="#000000">stats/reads/low_complexity/HD827sonic_1_lib1_collapsed.tsv</text>
<text text-anchor="start" x="379.5" y="-430" font-family="monospace" font-size="10.00" fill="#000000">stats/reads/low_complexity/HD827sonic_2_lib1_collapsed.tsv</text>
<text text-anchor="start" x="379.5" y="-412" font-family="monospace" font-size="10.00" fill="#000000">stats/reads/low_complexity/HD827sonic_2_lib2_collapsed.tsv</text>
<text text-anchor="start" x="379.5" y="-394" font-family="monospace" font-size="10.00" fill="#000000">stats/reads/merge_lanes/HD827sonic_1_lib1_collapsed.tsv</text>
<text text-anchor="start" x="379.5" y="-376" font-family="monospace" font-size="10.00" fill="#000000">stats/reads/merge_lanes/HD827sonic_2_lib1_collapsed.tsv</text>
<text text-anchor="start" x="379.5" y="-358" font-family="monospace" font-size="10.00" fill="#000000">stats/reads/merge_lanes/HD827sonic_2_lib2_collapsed.tsv</text>
<text text-anchor="start" x="379.5" y="-340" font-family="monospace" font-size="10.00" fill="#000000">stats/reads/nonpareil/low_complexity/HD827sonic_1_lib1_collapsed.json</text>
<text text-anchor="start" x="379.5" y="-322" font-family="monospace" font-size="10.00" fill="#000000">stats/reads/nonpareil/low_complexity/HD827sonic_2_lib1_collapsed.json</text>
<text text-anchor="start" x="379.5" y="-304" font-family="monospace" font-size="10.00" fill="#000000">stats/reads/nonpareil/low_complexity/HD827sonic_2_lib2_collapsed.json</text>
<text text-anchor="start" x="379.5" y="-286" font-family="monospace" font-size="10.00" fill="#000000">stats/reads/nonpareil/merge_lanes/HD827sonic_1_lib1_collapsed.json</text>
<text text-anchor="start" x="379.5" y="-268" font-family="monospace" font-size="10.00" fill="#000000">stats/reads/nonpareil/merge_lanes/HD827sonic_2_lib1_collapsed.json</text>
<text text-anchor="start" x="379.5" y="-250" font-family="monospace" font-size="10.00" fill="#000000">stats/reads/nonpareil/merge_lanes/HD827sonic_2_lib2_collapsed.json</text>
<text text-anchor="start" x="725.5" y="-229.8" font-family="sans" font-size="10.00" fill="#000000"> </text>
<text text-anchor="start" x="729.5" y="-229.8" font-family="sans" font-weight="bold" font-size="14.00" fill="#000000">output →</text>
<text text-anchor="start" x="790.5" y="-229.8" font-family="sans" font-size="10.00" fill="#000000"> </text>
<text text-anchor="start" x="379.5" y="-210" font-family="monospace" font-size="10.00" fill="#000000">reports/multiqc.html</text>
<text text-anchor="start" x="379.5" y="-192" font-family="monospace" font-size="10.00" fill="#000000">reports/multiqc_data.zip</text>
<polygon fill="#82d957" stroke="#82d957" points="373.5,-482 373.5,-482 801.5,-482 801.5,-482 373.5,-482"/>
<polygon fill="#82d957" stroke="#82d957" points="373.5,-244 373.5,-244 801.5,-244 801.5,-244 373.5,-244"/>
<polygon fill="none" stroke="#82d957" stroke-width="2" points="373,-183 373,-511 800,-511 800,-183 373,-183"/>
</g>
<!-- 1&#45;&gt;0 -->
<g id="edge2" class="edge">
<title>1&#45;&gt;0</title>
<path fill="none" stroke="#c0c0c0" stroke-width="2" d="M660.7105,-181.6856C664.7285,-172.7349 668.6708,-163.9528 672.4647,-155.5014"/>
<polygon fill="#c0c0c0" stroke="#c0c0c0" stroke-width="2" points="675.7789,-156.6648 676.6812,-146.1085 669.3928,-153.7981 675.7789,-156.6648"/>
</g>
<!-- 2 -->
<g id="node3" class="node">
<title>2</title>
<text text-anchor="start" x="130.5" y="-854.6" font-family="sans" font-weight="bold" font-size="18.00" fill="#000000">seqkit_stats</text>
<text text-anchor="start" x="7.5" y="-830.8" font-family="sans" font-size="10.00" fill="#000000"> </text>
<text text-anchor="start" x="11.5" y="-830.8" font-family="sans" font-weight="bold" font-size="14.00" fill="#000000">↪ input</text>
<text text-anchor="start" x="64.5" y="-830.8" font-family="sans" font-size="10.00" fill="#000000"> </text>
<text text-anchor="start" x="7.5" y="-811" font-family="monospace" font-size="10.00" fill="#000000">&lt;input function&gt;</text>
<text text-anchor="start" x="287.5" y="-790.8" font-family="sans" font-size="10.00" fill="#000000"> </text>
<text text-anchor="start" x="291.5" y="-790.8" font-family="sans" font-weight="bold" font-size="14.00" fill="#000000">output →</text>
<text text-anchor="start" x="352.5" y="-790.8" font-family="sans" font-size="10.00" fill="#000000"> </text>
<text text-anchor="start" x="7.5" y="-771" font-family="monospace" font-size="10.00" fill="#000000">stats/reads/{tool}/{sample}_{library}_{read_type_trim}.tsv</text>
<polygon fill="#5782d9" stroke="#5782d9" points="1.5,-845 1.5,-845 363.5,-845 363.5,-845 1.5,-845"/>
<polygon fill="#5782d9" stroke="#5782d9" points="1.5,-805 1.5,-805 363.5,-805 363.5,-805 1.5,-805"/>
<polygon fill="none" stroke="#5782d9" stroke-width="2" points="1,-762 1,-874 362,-874 362,-762 1,-762"/>
</g>
<!-- 2&#45;&gt;1 -->
<g id="edge3" class="edge">
<title>2&#45;&gt;1</title>
<path fill="none" stroke="#c0c0c0" stroke-width="2" d="M213.1433,-760.9334C245.9959,-704.0894 300.733,-615.7569 359.5,-548 367.8139,-538.4143 376.5748,-528.8516 385.6247,-519.3927"/>
<polygon fill="#c0c0c0" stroke="#c0c0c0" stroke-width="2" points="388.1632,-521.8025 392.599,-512.1809 383.1313,-516.9363 388.1632,-521.8025"/>
</g>
<!-- 3 -->
<g id="node4" class="node">
<title>3</title>
<text text-anchor="start" x="262.5" y="-1217.6" font-family="sans" font-weight="bold" font-size="18.00" fill="#000000">merge_lanes</text>
<text text-anchor="start" x="115.5" y="-1193.8" font-family="sans" font-size="10.00" fill="#000000"> </text>
<text text-anchor="start" x="119.5" y="-1193.8" font-family="sans" font-weight="bold" font-size="14.00" fill="#000000">↪ input</text>
<text text-anchor="start" x="172.5" y="-1193.8" font-family="sans" font-size="10.00" fill="#000000"> </text>
<text text-anchor="start" x="115.5" y="-1174" font-family="monospace" font-size="10.00" fill="#000000">&lt;input function&gt;</text>
<text text-anchor="start" x="449.5" y="-1153.8" font-family="sans" font-size="10.00" fill="#000000"> </text>
<text text-anchor="start" x="453.5" y="-1153.8" font-family="sans" font-weight="bold" font-size="14.00" fill="#000000">output →</text>
<text text-anchor="start" x="514.5" y="-1153.8" font-family="sans" font-size="10.00" fill="#000000"> </text>
<text text-anchor="start" x="115.5" y="-1134" font-family="monospace" font-size="10.00" fill="#000000">temp/reads/merge_lanes/{sample}_{library}_{read_type_trim}.fastq.gz</text>
<polygon fill="#add957" stroke="#add957" points="109.5,-1208 109.5,-1208 525.5,-1208 525.5,-1208 109.5,-1208"/>
<polygon fill="#add957" stroke="#add957" points="109.5,-1168 109.5,-1168 525.5,-1168 525.5,-1168 109.5,-1168"/>
<polygon fill="none" stroke="#add957" stroke-width="2" points="109,-1125 109,-1237 524,-1237 524,-1125 109,-1125"/>
</g>
<!-- 3&#45;&gt;2 -->
<g id="edge6" class="edge">
<title>3&#45;&gt;2</title>
<path fill="none" stroke="#c0c0c0" stroke-width="2" d="M295.2577,-1123.8819C271.1102,-1058.9517 231.7442,-953.1012 206.2342,-884.5076"/>
<polygon fill="#c0c0c0" stroke="#c0c0c0" stroke-width="2" points="209.4959,-883.2369 202.7296,-875.0841 202.935,-885.677 209.4959,-883.2369"/>
</g>
<!-- 5 -->
<g id="node6" class="node">
<title>5</title>
<text text-anchor="start" x="527.5" y="-881.6" font-family="sans" font-weight="bold" font-size="18.00" fill="#000000">nonpareil_infer</text>
<text text-anchor="start" x="388.5" y="-857.8" font-family="sans" font-size="10.00" fill="#000000"> </text>
<text text-anchor="start" x="392.5" y="-857.8" font-family="sans" font-weight="bold" font-size="14.00" fill="#000000">↪ input</text>
<text text-anchor="start" x="445.5" y="-857.8" font-family="sans" font-size="10.00" fill="#000000"> </text>
<text text-anchor="start" x="388.5" y="-838" font-family="monospace" font-size="10.00" fill="#000000">&lt;input function&gt;</text>
<text text-anchor="start" x="728.5" y="-817.8" font-family="sans" font-size="10.00" fill="#000000"> </text>
<text text-anchor="start" x="732.5" y="-817.8" font-family="sans" font-weight="bold" font-size="14.00" fill="#000000">output →</text>
<text text-anchor="start" x="793.5" y="-817.8" font-family="sans" font-size="10.00" fill="#000000"> </text>
<text text-anchor="start" x="388.5" y="-798" font-family="monospace" font-size="10.00" fill="#000000">stats/reads/nonpareil/{tool}/{sample}_{library}_{read_type_trim}.log</text>
<text text-anchor="start" x="388.5" y="-780" font-family="monospace" font-size="10.00" fill="#000000">stats/reads/nonpareil/{tool}/{sample}_{library}_{read_type_trim}.npa</text>
<text text-anchor="start" x="388.5" y="-762" font-family="monospace" font-size="10.00" fill="#000000">stats/reads/nonpareil/{tool}/{sample}_{library}_{read_type_trim}.npc</text>
<text text-anchor="start" x="388.5" y="-744" font-family="monospace" font-size="10.00" fill="#000000">stats/reads/nonpareil/{tool}/{sample}_{library}_{read_type_trim}.npo</text>
<polygon fill="#57d957" stroke="#57d957" points="382.5,-872 382.5,-872 804.5,-872 804.5,-872 382.5,-872"/>
<polygon fill="#57d957" stroke="#57d957" points="382.5,-832 382.5,-832 804.5,-832 804.5,-832 382.5,-832"/>
<polygon fill="none" stroke="#57d957" stroke-width="2" points="382,-735 382,-901 803,-901 803,-735 382,-735"/>
</g>
<!-- 3&#45;&gt;5 -->
<g id="edge9" class="edge">
<title>3&#45;&gt;5</title>
<path fill="none" stroke="#c0c0c0" stroke-width="2" d="M305.7527,-1123.8233C299.0736,-1070.876 297.8399,-992.3458 335.5,-938 342.3393,-928.1305 355.8999,-917.6663 373.3727,-907.1922"/>
<polygon fill="#c0c0c0" stroke="#c0c0c0" stroke-width="2" points="375.3511,-910.0911 382.2522,-902.0521 371.8442,-904.0329 375.3511,-910.0911"/>
</g>
<!-- 6 -->
<g id="node7" class="node">
<title>6</title>
<text text-anchor="start" x="526" y="-1067.6" font-family="sans" font-weight="bold" font-size="18.00" fill="#000000">low_complexity</text>
<text text-anchor="start" x="352.5" y="-1043.8" font-family="sans" font-size="10.00" fill="#000000"> </text>
<text text-anchor="start" x="356.5" y="-1043.8" font-family="sans" font-weight="bold" font-size="14.00" fill="#000000">↪ input</text>
<text text-anchor="start" x="409.5" y="-1043.8" font-family="sans" font-size="10.00" fill="#000000"> </text>
<text text-anchor="start" x="352.5" y="-1024" font-family="monospace" font-size="10.00" fill="#000000">temp/reads/merge_lanes/{sample}_{library}_{read_type_trim}.fastq.gz</text>
<text text-anchor="start" x="764.5" y="-1003.8" font-family="sans" font-size="10.00" fill="#000000"> </text>
<text text-anchor="start" x="768.5" y="-1003.8" font-family="sans" font-weight="bold" font-size="14.00" fill="#000000">output →</text>
<text text-anchor="start" x="829.5" y="-1003.8" font-family="sans" font-size="10.00" fill="#000000"> </text>
<text text-anchor="start" x="352.5" y="-984" font-family="monospace" font-size="10.00" fill="#000000">results/reads/low_complexity/{sample}_{library}_{read_type_trim}.fastq.gz</text>
<text text-anchor="start" x="352.5" y="-966" font-family="monospace" font-size="10.00" fill="#000000">stats/reads/low_complexity/{sample}_{library}_{read_type_trim}.txt</text>
<text text-anchor="start" x="352.5" y="-948" font-family="monospace" font-size="10.00" fill="#000000">temp/reads/low_complexity/{sample}_{library}_{read_type_trim}.discarded.fastq.gz</text>
<polygon fill="#d9d957" stroke="#d9d957" points="346.5,-1058 346.5,-1058 840.5,-1058 840.5,-1058 346.5,-1058"/>
<polygon fill="#d9d957" stroke="#d9d957" points="346.5,-1018 346.5,-1018 840.5,-1018 840.5,-1018 346.5,-1018"/>
<polygon fill="none" stroke="#d9d957" stroke-width="2" points="346,-939 346,-1087 839,-1087 839,-939 346,-939"/>
</g>
<!-- 3&#45;&gt;6 -->
<g id="edge10" class="edge">
<title>3&#45;&gt;6</title>
<path fill="none" stroke="#c0c0c0" stroke-width="2" d="M410.3261,-1123.8884C426.4286,-1114.087 443.428,-1103.7395 460.3113,-1093.4627"/>
<polygon fill="#c0c0c0" stroke="#c0c0c0" stroke-width="2" points="462.402,-1096.2875 469.1242,-1088.0983 458.7624,-1090.3081 462.402,-1096.2875"/>
</g>
<!-- 4 -->
<g id="node5" class="node">
<title>4</title>
<text text-anchor="start" x="524" y="-677.6" font-family="sans" font-weight="bold" font-size="18.00" fill="#000000">nonpareil_plot</text>
<text text-anchor="start" x="376.5" y="-653.8" font-family="sans" font-size="10.00" fill="#000000"> </text>
<text text-anchor="start" x="380.5" y="-653.8" font-family="sans" font-weight="bold" font-size="14.00" fill="#000000">↪ input</text>
<text text-anchor="start" x="433.5" y="-653.8" font-family="sans" font-size="10.00" fill="#000000"> </text>
<text text-anchor="start" x="376.5" y="-634" font-family="monospace" font-size="10.00" fill="#000000">stats/reads/nonpareil/{tool}/{sample}_{library}_{read_type_trim}.npo</text>
<text text-anchor="start" x="728.5" y="-613.8" font-family="sans" font-size="10.00" fill="#000000"> </text>
<text text-anchor="start" x="732.5" y="-613.8" font-family="sans" font-weight="bold" font-size="14.00" fill="#000000">output →</text>
<text text-anchor="start" x="793.5" y="-613.8" font-family="sans" font-size="10.00" fill="#000000"> </text>
<text text-anchor="start" x="376.5" y="-594" font-family="monospace" font-size="10.00" fill="#000000">reports/reads/nonpareil/{tool}/{sample}_{library}_{read_type_trim}.pdf</text>
<text text-anchor="start" x="376.5" y="-576" font-family="monospace" font-size="10.00" fill="#000000">stats/reads/nonpareil/{tool}/{sample}_{library}_{read_type_trim}.json</text>
<text text-anchor="start" x="376.5" y="-558" font-family="monospace" font-size="10.00" fill="#000000">stats/reads/nonpareil/{tool}/{sample}_{library}_{read_type_trim}.tsv</text>
<polygon fill="#57d982" stroke="#57d982" points="370.5,-668 370.5,-668 804.5,-668 804.5,-668 370.5,-668"/>
<polygon fill="#57d982" stroke="#57d982" points="370.5,-628 370.5,-628 804.5,-628 804.5,-628 370.5,-628"/>
<polygon fill="none" stroke="#57d982" stroke-width="2" points="370,-549 370,-697 803,-697 803,-549 370,-549"/>
</g>
<!-- 4&#45;&gt;1 -->
<g id="edge4" class="edge">
<title>4&#45;&gt;1</title>
<path fill="none" stroke="#c0c0c0" stroke-width="2" d="M586.5,-547.9464C586.5,-539.7118 586.5,-531.0968 586.5,-522.2614"/>
<polygon fill="#c0c0c0" stroke="#c0c0c0" stroke-width="2" points="590.0001,-522.201 586.5,-512.201 583.0001,-522.201 590.0001,-522.201"/>
</g>
<!-- 5&#45;&gt;4 -->
<g id="edge7" class="edge">
<title>5&#45;&gt;4</title>
<path fill="none" stroke="#c0c0c0" stroke-width="2" d="M589.9119,-733.8876C589.6526,-725.46 589.3891,-716.8965 589.1294,-708.4552"/>
<polygon fill="#c0c0c0" stroke="#c0c0c0" stroke-width="2" points="592.621,-708.1244 588.815,-698.2368 585.6243,-708.3398 592.621,-708.1244"/>
</g>
<!-- 6&#45;&gt;0 -->
<g id="edge1" class="edge">
<title>6&#45;&gt;0</title>
<path fill="none" stroke="#c0c0c0" stroke-width="2" d="M781.825,-937.8807C793.7083,-927.3819 804.2027,-915.4799 812.5,-902 818.1473,-892.8253 810.0493,-183.3944 809.5,-182 805.7194,-172.4033 800.6636,-163.1349 794.8258,-154.328"/>
<polygon fill="#c0c0c0" stroke="#c0c0c0" stroke-width="2" points="797.6132,-152.2068 789.0052,-146.0299 791.8824,-156.2266 797.6132,-152.2068"/>
</g>
<!-- 6&#45;&gt;2 -->
<g id="edge5" class="edge">
<title>6&#45;&gt;2</title>
<path fill="none" stroke="#c0c0c0" stroke-width="2" d="M434.1846,-937.8868C393.466,-918.5678 350.1347,-898.0091 311.0646,-879.4723"/>
<polygon fill="#c0c0c0" stroke="#c0c0c0" stroke-width="2" points="312.2888,-876.1791 301.7538,-875.0547 309.2882,-882.5034 312.2888,-876.1791"/>
</g>
<!-- 6&#45;&gt;5 -->
<g id="edge8" class="edge">
<title>6&#45;&gt;5</title>
<path fill="none" stroke="#c0c0c0" stroke-width="2" d="M592.5,-937.8868C592.5,-929.4814 592.5,-920.8412 592.5,-912.2351"/>
<polygon fill="#c0c0c0" stroke="#c0c0c0" stroke-width="2" points="596.0001,-912.1638 592.5,-902.1639 589.0001,-912.1639 596.0001,-912.1638"/>
</g>
</g>
</svg>
