<?xml version="1.0" encoding="UTF-8" standalone="no"?>
<!DOCTYPE svg PUBLIC "-//W3C//DTD SVG 1.1//EN"
 "http://www.w3.org/Graphics/SVG/1.1/DTD/svg11.dtd">
<!-- Generated by graphviz version 2.40.1 (0)
 -->
<!-- Title: snakemake_dag Pages: 1 -->
<svg width="1321pt" height="1246pt"
 viewBox="0.00 0.00 1321.10 1246.00" xmlns="http://www.w3.org/2000/svg" xmlns:xlink="http://www.w3.org/1999/xlink">
<g id="graph0" class="graph" transform="scale(1 1) rotate(0) translate(4 1242)">
<title>snakemake_dag</title>
<polygon fill="#ffffff" stroke="transparent" points="-4,4 -4,-1242 1317.0971,-1242 1317.0971,4 -4,4"/>
<!-- 0 -->
<g id="node1" class="node">
<title>0</title>
<text text-anchor="start" x="1077.5" y="-125.6" font-family="sans" font-weight="bold" font-size="18.00" fill="#000000">all</text>
<text text-anchor="start" x="892.5" y="-101.8" font-family="sans" font-size="10.00" fill="#000000"> </text>
<text text-anchor="start" x="896.5" y="-101.8" font-family="sans" font-weight="bold" font-size="14.00" fill="#000000">↪ input</text>
<text text-anchor="start" x="949.5" y="-101.8" font-family="sans" font-size="10.00" fill="#000000"> </text>
<text text-anchor="start" x="892.5" y="-82" font-family="monospace" font-size="10.00" fill="#000000">reports/multiqc.html</text>
<text text-anchor="start" x="892.5" y="-64" font-family="monospace" font-size="10.00" fill="#000000">results/reads/low_complexity/HD827sonic_1_lib1_collapsed.fastq.gz</text>
<text text-anchor="start" x="892.5" y="-46" font-family="monospace" font-size="10.00" fill="#000000">results/reads/low_complexity/HD827sonic_2_lib1_collapsed.fastq.gz</text>
<text text-anchor="start" x="892.5" y="-28" font-family="monospace" font-size="10.00" fill="#000000">results/reads/low_complexity/HD827sonic_2_lib2_collapsed.fastq.gz</text>
<text text-anchor="start" x="1276.5" y="-10" font-family="sans" font-size="10.00" fill="#000000"> &#160;</text>
<polygon fill="#d97f57" stroke="#d97f57" points="886.5,-116 886.5,-116 1290.5,-116 1290.5,-116 886.5,-116"/>
<polygon fill="#d97f57" stroke="#d97f57" points="886.5,-22 886.5,-22 1290.5,-22 1290.5,-22 886.5,-22"/>
<polygon fill="none" stroke="#d97f57" stroke-width="2" points="886,-1 886,-145 1289,-145 1289,-1 886,-1"/>
</g>
<!-- 1 -->
<g id="node2" class="node">
<title>1</title>
<text text-anchor="start" x="878.5" y="-491.6" font-family="sans" font-weight="bold" font-size="18.00" fill="#000000">multiqc</text>
<text text-anchor="start" x="703.5" y="-467.8" font-family="sans" font-size="10.00" fill="#000000"> </text>
<text text-anchor="start" x="707.5" y="-467.8" font-family="sans" font-weight="bold" font-size="14.00" fill="#000000">↪ input</text>
<text text-anchor="start" x="760.5" y="-467.8" font-family="sans" font-size="10.00" fill="#000000"> </text>
<text text-anchor="start" x="703.5" y="-448" font-family="monospace" font-size="10.00" fill="#000000">stats/reads/low_complexity/HD827sonic_1_lib1_collapsed.tsv</text>
<text text-anchor="start" x="703.5" y="-430" font-family="monospace" font-size="10.00" fill="#000000">stats/reads/low_complexity/HD827sonic_2_lib1_collapsed.tsv</text>
<text text-anchor="start" x="703.5" y="-412" font-family="monospace" font-size="10.00" fill="#000000">stats/reads/low_complexity/HD827sonic_2_lib2_collapsed.tsv</text>
<text text-anchor="start" x="703.5" y="-394" font-family="monospace" font-size="10.00" fill="#000000">stats/reads/merge_lanes/HD827sonic_1_lib1_collapsed.tsv</text>
<text text-anchor="start" x="703.5" y="-376" font-family="monospace" font-size="10.00" fill="#000000">stats/reads/merge_lanes/HD827sonic_2_lib1_collapsed.tsv</text>
<text text-anchor="start" x="703.5" y="-358" font-family="monospace" font-size="10.00" fill="#000000">stats/reads/merge_lanes/HD827sonic_2_lib2_collapsed.tsv</text>
<text text-anchor="start" x="703.5" y="-340" font-family="monospace" font-size="10.00" fill="#000000">stats/reads/nonpareil/low_complexity/HD827sonic_1_lib1_collapsed.json</text>
<text text-anchor="start" x="703.5" y="-322" font-family="monospace" font-size="10.00" fill="#000000">stats/reads/nonpareil/low_complexity/HD827sonic_2_lib1_collapsed.json</text>
<text text-anchor="start" x="703.5" y="-304" font-family="monospace" font-size="10.00" fill="#000000">stats/reads/nonpareil/low_complexity/HD827sonic_2_lib2_collapsed.json</text>
<text text-anchor="start" x="703.5" y="-286" font-family="monospace" font-size="10.00" fill="#000000">stats/reads/nonpareil/merge_lanes/HD827sonic_1_lib1_collapsed.json</text>
<text text-anchor="start" x="703.5" y="-268" font-family="monospace" font-size="10.00" fill="#000000">stats/reads/nonpareil/merge_lanes/HD827sonic_2_lib1_collapsed.json</text>
<text text-anchor="start" x="703.5" y="-250" font-family="monospace" font-size="10.00" fill="#000000">stats/reads/nonpareil/merge_lanes/HD827sonic_2_lib2_collapsed.json</text>
<text text-anchor="start" x="1049.5" y="-229.8" font-family="sans" font-size="10.00" fill="#000000"> </text>
<text text-anchor="start" x="1053.5" y="-229.8" font-family="sans" font-weight="bold" font-size="14.00" fill="#000000">output →</text>
<text text-anchor="start" x="1114.5" y="-229.8" font-family="sans" font-size="10.00" fill="#000000"> </text>
<text text-anchor="start" x="703.5" y="-210" font-family="monospace" font-size="10.00" fill="#000000">reports/multiqc.html</text>
<text text-anchor="start" x="703.5" y="-192" font-family="monospace" font-size="10.00" fill="#000000">reports/multiqc_data.zip</text>
<polygon fill="#6bd957" stroke="#6bd957" points="697.5,-482 697.5,-482 1125.5,-482 1125.5,-482 697.5,-482"/>
<polygon fill="#6bd957" stroke="#6bd957" points="697.5,-244 697.5,-244 1125.5,-244 1125.5,-244 697.5,-244"/>
<polygon fill="none" stroke="#6bd957" stroke-width="2" points="697,-183 697,-511 1124,-511 1124,-183 697,-183"/>
</g>
<!-- 1&#45;&gt;0 -->
<g id="edge2" class="edge">
<title>1&#45;&gt;0</title>
<path fill="none" stroke="#c0c0c0" stroke-width="2" d="M1017.2907,-181.6856C1023.2592,-172.4462 1029.1117,-163.3864 1034.733,-154.6845"/>
<polygon fill="#c0c0c0" stroke="#c0c0c0" stroke-width="2" points="1037.7867,-156.4075 1040.273,-146.1085 1031.9068,-152.6091 1037.7867,-156.4075"/>
</g>
<!-- 2 -->
<g id="node3" class="node">
<title>2</title>
<text text-anchor="start" x="238.5" y="-854.6" font-family="sans" font-weight="bold" font-size="18.00" fill="#000000">seqkit_stats</text>
<text text-anchor="start" x="7.5" y="-830.8" font-family="sans" font-size="10.00" fill="#000000"> </text>
<text text-anchor="start" x="11.5" y="-830.8" font-family="sans" font-weight="bold" font-size="14.00" fill="#000000">↪ input</text>
<text text-anchor="start" x="64.5" y="-830.8" font-family="sans" font-size="10.00" fill="#000000"> </text>
<text text-anchor="start" x="7.5" y="-811" font-family="monospace" font-size="10.00" fill="#000000">&lt;input function&gt;</text>
<text text-anchor="start" x="503.5" y="-790.8" font-family="sans" font-size="10.00" fill="#000000"> </text>
<text text-anchor="start" x="507.5" y="-790.8" font-family="sans" font-weight="bold" font-size="14.00" fill="#000000">output →</text>
<text text-anchor="start" x="568.5" y="-790.8" font-family="sans" font-size="10.00" fill="#000000"> </text>
<text text-anchor="start" x="7.5" y="-771" font-family="monospace" font-size="10.00" fill="#000000">stats/reads/{tool}/{sample,HD827sonic_1|HD827sonic_2}_{library,lib1|lib2}_{read_type_trim}.tsv</text>
<polygon fill="#577fd9" stroke="#577fd9" points="1.5,-845 1.5,-845 579.5,-845 579.5,-845 1.5,-845"/>
<polygon fill="#577fd9" stroke="#577fd9" points="1.5,-805 1.5,-805 579.5,-805 579.5,-805 1.5,-805"/>
<polygon fill="none" stroke="#577fd9" stroke-width="2" points="1,-762 1,-874 578,-874 578,-762 1,-762"/>
</g>
<!-- 2&#45;&gt;1 -->
<g id="edge3" class="edge">
<title>2&#45;&gt;1</title>
<path fill="none" stroke="#c0c0c0" stroke-width="2" d="M342.7417,-760.9477C397.9145,-703.518 488.1551,-614.1968 575.5,-548 610.4268,-521.5297 649.0635,-495.617 687.3125,-471.6666"/>
<polygon fill="#c0c0c0" stroke="#c0c0c0" stroke-width="2" points="689.3445,-474.5244 695.9824,-466.2668 685.6438,-468.5826 689.3445,-474.5244"/>
</g>
<!-- 3 -->
<g id="node4" class="node">
<title>3</title>
<text text-anchor="start" x="478.5" y="-1217.6" font-family="sans" font-weight="bold" font-size="18.00" fill="#000000">merge_lanes</text>
<text text-anchor="start" x="223.5" y="-1193.8" font-family="sans" font-size="10.00" fill="#000000"> </text>
<text text-anchor="start" x="227.5" y="-1193.8" font-family="sans" font-weight="bold" font-size="14.00" fill="#000000">↪ input</text>
<text text-anchor="start" x="280.5" y="-1193.8" font-family="sans" font-size="10.00" fill="#000000"> </text>
<text text-anchor="start" x="223.5" y="-1174" font-family="monospace" font-size="10.00" fill="#000000">&lt;input function&gt;</text>
<text text-anchor="start" x="773.5" y="-1153.8" font-family="sans" font-size="10.00" fill="#000000"> </text>
<text text-anchor="start" x="777.5" y="-1153.8" font-family="sans" font-weight="bold" font-size="14.00" fill="#000000">output →</text>
<text text-anchor="start" x="838.5" y="-1153.8" font-family="sans" font-size="10.00" fill="#000000"> </text>
<text text-anchor="start" x="223.5" y="-1134" font-family="monospace" font-size="10.00" fill="#000000">temp/reads/merge_lanes/{sample,HD827sonic_1|HD827sonic_2}_{library,lib1|lib2}_{read_type_trim}.fastq.gz</text>
<polygon fill="#d95757" stroke="#d95757" points="217.5,-1208 217.5,-1208 849.5,-1208 849.5,-1208 217.5,-1208"/>
<polygon fill="#d95757" stroke="#d95757" points="217.5,-1168 217.5,-1168 849.5,-1168 849.5,-1168 217.5,-1168"/>
<polygon fill="none" stroke="#d95757" stroke-width="2" points="217,-1125 217,-1237 848,-1237 848,-1125 217,-1125"/>
</g>
<!-- 3&#45;&gt;2 -->
<g id="edge6" class="edge">
<title>3&#45;&gt;2</title>
<path fill="none" stroke="#c0c0c0" stroke-width="2" d="M494.2639,-1123.8819C450.6205,-1058.6862 379.3595,-952.2346 333.4594,-883.6678"/>
<polygon fill="#c0c0c0" stroke="#c0c0c0" stroke-width="2" points="336.1847,-881.447 327.7133,-875.0841 330.3677,-885.3411 336.1847,-881.447"/>
</g>
<!-- 5 -->
<g id="node6" class="node">
<title>5</title>
<text text-anchor="start" x="851.5" y="-881.6" font-family="sans" font-weight="bold" font-size="18.00" fill="#000000">nonpareil_infer</text>
<text text-anchor="start" x="604.5" y="-857.8" font-family="sans" font-size="10.00" fill="#000000"> </text>
<text text-anchor="start" x="608.5" y="-857.8" font-family="sans" font-weight="bold" font-size="14.00" fill="#000000">↪ input</text>
<text text-anchor="start" x="661.5" y="-857.8" font-family="sans" font-size="10.00" fill="#000000"> </text>
<text text-anchor="start" x="604.5" y="-838" font-family="monospace" font-size="10.00" fill="#000000">&lt;input function&gt;</text>
<text text-anchor="start" x="1160.5" y="-817.8" font-family="sans" font-size="10.00" fill="#000000"> </text>
<text text-anchor="start" x="1164.5" y="-817.8" font-family="sans" font-weight="bold" font-size="14.00" fill="#000000">output →</text>
<text text-anchor="start" x="1225.5" y="-817.8" font-family="sans" font-size="10.00" fill="#000000"> </text>
<text text-anchor="start" x="604.5" y="-798" font-family="monospace" font-size="10.00" fill="#000000">stats/reads/nonpareil/{tool}/{sample,HD827sonic_1|HD827sonic_2}_{library,lib1|lib2}_{read_type_trim}.log</text>
<text text-anchor="start" x="604.5" y="-780" font-family="monospace" font-size="10.00" fill="#000000">stats/reads/nonpareil/{tool}/{sample,HD827sonic_1|HD827sonic_2}_{library,lib1|lib2}_{read_type_trim}.npa</text>
<text text-anchor="start" x="604.5" y="-762" font-family="monospace" font-size="10.00" fill="#000000">stats/reads/nonpareil/{tool}/{sample,HD827sonic_1|HD827sonic_2}_{library,lib1|lib2}_{read_type_trim}.npc</text>
<text text-anchor="start" x="604.5" y="-744" font-family="monospace" font-size="10.00" fill="#000000">stats/reads/nonpareil/{tool}/{sample,HD827sonic_1|HD827sonic_2}_{library,lib1|lib2}_{read_type_trim}.npo</text>
<polygon fill="#bbd957" stroke="#bbd957" points="598.5,-872 598.5,-872 1236.5,-872 1236.5,-872 598.5,-872"/>
<polygon fill="#bbd957" stroke="#bbd957" points="598.5,-832 598.5,-832 1236.5,-832 1236.5,-832 598.5,-832"/>
<polygon fill="none" stroke="#bbd957" stroke-width="2" points="598,-735 598,-901 1235,-901 1235,-735 598,-735"/>
</g>
<!-- 3&#45;&gt;5 -->
<g id="edge9" class="edge">
<title>3&#45;&gt;5</title>
<path fill="none" stroke="#c0c0c0" stroke-width="2" d="M520.4573,-1123.7856C512.6294,-1070.0655 510.4083,-990.3388 551.5,-938 560.0669,-927.0883 575.4857,-916.5545 595.3037,-906.5639"/>
<polygon fill="#c0c0c0" stroke="#c0c0c0" stroke-width="2" points="596.9098,-909.675 604.3829,-902.1648 593.8575,-903.3755 596.9098,-909.675"/>
</g>
<!-- 6 -->
<g id="node7" class="node">
<title>6</title>
<text text-anchor="start" x="850" y="-1067.6" font-family="sans" font-weight="bold" font-size="18.00" fill="#000000">low_complexity</text>
<text text-anchor="start" x="568.5" y="-1043.8" font-family="sans" font-size="10.00" fill="#000000"> </text>
<text text-anchor="start" x="572.5" y="-1043.8" font-family="sans" font-weight="bold" font-size="14.00" fill="#000000">↪ input</text>
<text text-anchor="start" x="625.5" y="-1043.8" font-family="sans" font-size="10.00" fill="#000000"> </text>
<text text-anchor="start" x="568.5" y="-1024" font-family="monospace" font-size="10.00" fill="#000000">temp/reads/merge_lanes/{sample}_{library}_{read_type_trim}.fastq.gz</text>
<text text-anchor="start" x="1196.5" y="-1003.8" font-family="sans" font-size="10.00" fill="#000000"> </text>
<text text-anchor="start" x="1200.5" y="-1003.8" font-family="sans" font-weight="bold" font-size="14.00" fill="#000000">output →</text>
<text text-anchor="start" x="1261.5" y="-1003.8" font-family="sans" font-size="10.00" fill="#000000"> </text>
<text text-anchor="start" x="568.5" y="-984" font-family="monospace" font-size="10.00" fill="#000000">results/reads/low_complexity/{sample,HD827sonic_1|HD827sonic_2}_{library,lib1|lib2}_{read_type_trim}.fastq.gz</text>
<text text-anchor="start" x="568.5" y="-966" font-family="monospace" font-size="10.00" fill="#000000">stats/reads/low_complexity/{sample,HD827sonic_1|HD827sonic_2}_{library,lib1|lib2}_{read_type_trim}.txt</text>
<text text-anchor="start" x="568.5" y="-948" font-family="monospace" font-size="10.00" fill="#000000">temp/reads/low_complexity/{sample,HD827sonic_1|HD827sonic_2}_{library,lib1|lib2}_{read_type_trim}.discarded.fastq.gz</text>
<polygon fill="#93d957" stroke="#93d957" points="562.5,-1058 562.5,-1058 1272.5,-1058 1272.5,-1058 562.5,-1058"/>
<polygon fill="#93d957" stroke="#93d957" points="562.5,-1018 562.5,-1018 1272.5,-1018 1272.5,-1018 562.5,-1018"/>
<polygon fill="none" stroke="#93d957" stroke-width="2" points="562,-939 562,-1087 1271,-1087 1271,-939 562,-939"/>
</g>
<!-- 3&#45;&gt;6 -->
<g id="edge10" class="edge">
<title>3&#45;&gt;6</title>
<path fill="none" stroke="#c0c0c0" stroke-width="2" d="M663.0407,-1123.8884C686.369,-1113.6823 711.0505,-1102.8842 735.4936,-1092.1903"/>
<polygon fill="#c0c0c0" stroke="#c0c0c0" stroke-width="2" points="737.088,-1095.3131 744.8467,-1088.0983 734.2822,-1088.9 737.088,-1095.3131"/>
</g>
<!-- 4 -->
<g id="node5" class="node">
<title>4</title>
<text text-anchor="start" x="848" y="-677.6" font-family="sans" font-weight="bold" font-size="18.00" fill="#000000">nonpareil_plot</text>
<text text-anchor="start" x="592.5" y="-653.8" font-family="sans" font-size="10.00" fill="#000000"> </text>
<text text-anchor="start" x="596.5" y="-653.8" font-family="sans" font-weight="bold" font-size="14.00" fill="#000000">↪ input</text>
<text text-anchor="start" x="649.5" y="-653.8" font-family="sans" font-size="10.00" fill="#000000"> </text>
<text text-anchor="start" x="592.5" y="-634" font-family="monospace" font-size="10.00" fill="#000000">stats/reads/nonpareil/{tool}/{sample}_{library}_{read_type_trim}.npo</text>
<text text-anchor="start" x="1160.5" y="-613.8" font-family="sans" font-size="10.00" fill="#000000"> </text>
<text text-anchor="start" x="1164.5" y="-613.8" font-family="sans" font-weight="bold" font-size="14.00" fill="#000000">output →</text>
<text text-anchor="start" x="1225.5" y="-613.8" font-family="sans" font-size="10.00" fill="#000000"> </text>
<text text-anchor="start" x="592.5" y="-594" font-family="monospace" font-size="10.00" fill="#000000">reports/reads/nonpareil/{tool}/{sample,HD827sonic_1|HD827sonic_2}_{library,lib1|lib2}_{read_type_trim}.pdf</text>
<text text-anchor="start" x="592.5" y="-576" font-family="monospace" font-size="10.00" fill="#000000">stats/reads/nonpareil/{tool}/{sample,HD827sonic_1|HD827sonic_2}_{library,lib1|lib2}_{read_type_trim}.json</text>
<text text-anchor="start" x="592.5" y="-558" font-family="monospace" font-size="10.00" fill="#000000">stats/reads/nonpareil/{tool}/{sample,HD827sonic_1|HD827sonic_2}_{library,lib1|lib2}_{read_type_trim}.tsv</text>
<polygon fill="#57d9bb" stroke="#57d9bb" points="586.5,-668 586.5,-668 1236.5,-668 1236.5,-668 586.5,-668"/>
<polygon fill="#57d9bb" stroke="#57d9bb" points="586.5,-628 586.5,-628 1236.5,-628 1236.5,-628 586.5,-628"/>
<polygon fill="none" stroke="#57d9bb" stroke-width="2" points="586,-549 586,-697 1235,-697 1235,-549 586,-549"/>
</g>
<!-- 4&#45;&gt;1 -->
<g id="edge4" class="edge">
<title>4&#45;&gt;1</title>
<path fill="none" stroke="#c0c0c0" stroke-width="2" d="M910.5,-547.9464C910.5,-539.7118 910.5,-531.0968 910.5,-522.2614"/>
<polygon fill="#c0c0c0" stroke="#c0c0c0" stroke-width="2" points="914.0001,-522.201 910.5,-512.201 907.0001,-522.201 914.0001,-522.201"/>
</g>
<!-- 5&#45;&gt;4 -->
<g id="edge7" class="edge">
<title>5&#45;&gt;4</title>
<path fill="none" stroke="#c0c0c0" stroke-width="2" d="M913.9119,-733.8876C913.6526,-725.46 913.3891,-716.8965 913.1294,-708.4552"/>
<polygon fill="#c0c0c0" stroke="#c0c0c0" stroke-width="2" points="916.621,-708.1244 912.815,-698.2368 909.6243,-708.3398 916.621,-708.1244"/>
</g>
<!-- 6&#45;&gt;0 -->
<g id="edge1" class="edge">
<title>6&#45;&gt;0</title>
<path fill="none" stroke="#c0c0c0" stroke-width="2" d="M1192.3945,-937.9121C1216.6292,-926.7053 1235.4335,-914.6398 1244.5,-902 1409.9927,-671.2824 1234.8642,-314.6789 1140.0527,-155.0953"/>
<polygon fill="#c0c0c0" stroke="#c0c0c0" stroke-width="2" points="1142.9026,-153.0415 1134.7643,-146.2577 1136.8959,-156.6359 1142.9026,-153.0415"/>
</g>
<!-- 6&#45;&gt;2 -->
<g id="edge5" class="edge">
<title>6&#45;&gt;2</title>
<path fill="none" stroke="#c0c0c0" stroke-width="2" d="M674.9823,-937.8868C611.2915,-918.0787 543.4106,-896.9674 482.6429,-878.0684"/>
<polygon fill="#c0c0c0" stroke="#c0c0c0" stroke-width="2" points="483.5411,-874.6824 472.9528,-875.0547 481.4622,-881.3666 483.5411,-874.6824"/>
</g>
<!-- 6&#45;&gt;5 -->
<g id="edge8" class="edge">
<title>6&#45;&gt;5</title>
<path fill="none" stroke="#c0c0c0" stroke-width="2" d="M916.5,-937.8868C916.5,-929.4814 916.5,-920.8412 916.5,-912.2351"/>
<polygon fill="#c0c0c0" stroke="#c0c0c0" stroke-width="2" points="920.0001,-912.1638 916.5,-902.1639 913.0001,-912.1639 920.0001,-912.1638"/>
</g>
</g>
</svg>
