<?xml version="1.0" encoding="UTF-8" standalone="no"?>
<!DOCTYPE svg PUBLIC "-//W3C//DTD SVG 1.1//EN"
 "http://www.w3.org/Graphics/SVG/1.1/DTD/svg11.dtd">
<!-- Generated by graphviz version 2.40.1 (0)
 -->
<!-- Title: snakemake_dag Pages: 1 -->
<svg width="1013pt" height="1246pt"
 viewBox="0.00 0.00 1013.47 1246.00" xmlns="http://www.w3.org/2000/svg" xmlns:xlink="http://www.w3.org/1999/xlink">
<g id="graph0" class="graph" transform="scale(1 1) rotate(0) translate(4 1242)">
<title>snakemake_dag</title>
<polygon fill="#ffffff" stroke="transparent" points="-4,4 -4,-1242 1009.4667,-1242 1009.4667,4 -4,4"/>
<!-- 0 -->
<g id="node1" class="node">
<title>0</title>
<text text-anchor="start" x="780.5" y="-125.6" font-family="sans" font-weight="bold" font-size="18.00" fill="#000000">all</text>
<text text-anchor="start" x="595.5" y="-101.8" font-family="sans" font-size="10.00" fill="#000000"> </text>
<text text-anchor="start" x="599.5" y="-101.8" font-family="sans" font-weight="bold" font-size="14.00" fill="#000000">↪ input</text>
<text text-anchor="start" x="652.5" y="-101.8" font-family="sans" font-size="10.00" fill="#000000"> </text>
<text text-anchor="start" x="595.5" y="-82" font-family="monospace" font-size="10.00" fill="#000000">reports/multiqc.html</text>
<text text-anchor="start" x="595.5" y="-64" font-family="monospace" font-size="10.00" fill="#000000">results/reads/low_complexity/HD827sonic_1_lib1_collapsed.fastq.gz</text>
<text text-anchor="start" x="595.5" y="-46" font-family="monospace" font-size="10.00" fill="#000000">results/reads/low_complexity/HD827sonic_2_lib1_collapsed.fastq.gz</text>
<text text-anchor="start" x="595.5" y="-28" font-family="monospace" font-size="10.00" fill="#000000">results/reads/low_complexity/HD827sonic_2_lib2_collapsed.fastq.gz</text>
<text text-anchor="start" x="979.5" y="-10" font-family="sans" font-size="10.00" fill="#000000"> &#160;</text>
<polygon fill="#d95757" stroke="#d95757" points="589.5,-116 589.5,-116 993.5,-116 993.5,-116 589.5,-116"/>
<polygon fill="#d95757" stroke="#d95757" points="589.5,-22 589.5,-22 993.5,-22 993.5,-22 589.5,-22"/>
<polygon fill="none" stroke="#d95757" stroke-width="2" points="589,-1 589,-145 992,-145 992,-1 589,-1"/>
</g>
<!-- 1 -->
<g id="node2" class="node">
<title>1</title>
<text text-anchor="start" x="632.5" y="-491.6" font-family="sans" font-weight="bold" font-size="18.00" fill="#000000">multiqc</text>
<text text-anchor="start" x="448.5" y="-467.8" font-family="sans" font-size="10.00" fill="#000000"> </text>
<text text-anchor="start" x="452.5" y="-467.8" font-family="sans" font-weight="bold" font-size="14.00" fill="#000000">↪ input</text>
<text text-anchor="start" x="505.5" y="-467.8" font-family="sans" font-size="10.00" fill="#000000"> </text>
<text text-anchor="start" x="448.5" y="-448" font-family="monospace" font-size="10.00" fill="#000000">stats/reads/fastqc/low_complexity/HD827sonic_1_lib1_collapsed_fastqc.zip</text>
<text text-anchor="start" x="448.5" y="-430" font-family="monospace" font-size="10.00" fill="#000000">stats/reads/fastqc/low_complexity/HD827sonic_2_lib1_collapsed_fastqc.zip</text>
<text text-anchor="start" x="448.5" y="-412" font-family="monospace" font-size="10.00" fill="#000000">stats/reads/fastqc/low_complexity/HD827sonic_2_lib2_collapsed_fastqc.zip</text>
<text text-anchor="start" x="448.5" y="-394" font-family="monospace" font-size="10.00" fill="#000000">stats/reads/fastqc/merge_lanes/HD827sonic_1_lib1_collapsed_fastqc.zip</text>
<text text-anchor="start" x="448.5" y="-376" font-family="monospace" font-size="10.00" fill="#000000">stats/reads/fastqc/merge_lanes/HD827sonic_2_lib1_collapsed_fastqc.zip</text>
<text text-anchor="start" x="448.5" y="-358" font-family="monospace" font-size="10.00" fill="#000000">stats/reads/fastqc/merge_lanes/HD827sonic_2_lib2_collapsed_fastqc.zip</text>
<text text-anchor="start" x="448.5" y="-340" font-family="monospace" font-size="10.00" fill="#000000">stats/reads/nonpareil/low_complexity/HD827sonic_1_lib1_collapsed.json</text>
<text text-anchor="start" x="448.5" y="-322" font-family="monospace" font-size="10.00" fill="#000000">stats/reads/nonpareil/low_complexity/HD827sonic_2_lib1_collapsed.json</text>
<text text-anchor="start" x="448.5" y="-304" font-family="monospace" font-size="10.00" fill="#000000">stats/reads/nonpareil/low_complexity/HD827sonic_2_lib2_collapsed.json</text>
<text text-anchor="start" x="448.5" y="-286" font-family="monospace" font-size="10.00" fill="#000000">stats/reads/nonpareil/merge_lanes/HD827sonic_1_lib1_collapsed.json</text>
<text text-anchor="start" x="448.5" y="-268" font-family="monospace" font-size="10.00" fill="#000000">stats/reads/nonpareil/merge_lanes/HD827sonic_2_lib1_collapsed.json</text>
<text text-anchor="start" x="448.5" y="-250" font-family="monospace" font-size="10.00" fill="#000000">stats/reads/nonpareil/merge_lanes/HD827sonic_2_lib2_collapsed.json</text>
<text text-anchor="start" x="812.5" y="-229.8" font-family="sans" font-size="10.00" fill="#000000"> </text>
<text text-anchor="start" x="816.5" y="-229.8" font-family="sans" font-weight="bold" font-size="14.00" fill="#000000">output →</text>
<text text-anchor="start" x="877.5" y="-229.8" font-family="sans" font-size="10.00" fill="#000000"> </text>
<text text-anchor="start" x="448.5" y="-210" font-family="monospace" font-size="10.00" fill="#000000">reports/multiqc.html</text>
<text text-anchor="start" x="448.5" y="-192" font-family="monospace" font-size="10.00" fill="#000000">reports/multiqc_data.zip</text>
<polygon fill="#57d957" stroke="#57d957" points="442.5,-482 442.5,-482 888.5,-482 888.5,-482 442.5,-482"/>
<polygon fill="#57d957" stroke="#57d957" points="442.5,-244 442.5,-244 888.5,-244 888.5,-244 442.5,-244"/>
<polygon fill="none" stroke="#57d957" stroke-width="2" points="442,-183 442,-511 887,-511 887,-183 442,-183"/>
</g>
<!-- 1&#45;&gt;0 -->
<g id="edge2" class="edge">
<title>1&#45;&gt;0</title>
<path fill="none" stroke="#c0c0c0" stroke-width="2" d="M740.5205,-181.6856C744.6808,-172.6387 748.7618,-163.764 752.6867,-155.2289"/>
<polygon fill="#c0c0c0" stroke="#c0c0c0" stroke-width="2" points="755.8826,-156.6562 756.8808,-146.1085 749.5229,-153.7316 755.8826,-156.6562"/>
</g>
<!-- 2 -->
<g id="node3" class="node">
<title>2</title>
<text text-anchor="start" x="197.5" y="-863.6" font-family="sans" font-weight="bold" font-size="18.00" fill="#000000">fastqc</text>
<text text-anchor="start" x="7.5" y="-839.8" font-family="sans" font-size="10.00" fill="#000000"> </text>
<text text-anchor="start" x="11.5" y="-839.8" font-family="sans" font-weight="bold" font-size="14.00" fill="#000000">↪ input</text>
<text text-anchor="start" x="64.5" y="-839.8" font-family="sans" font-size="10.00" fill="#000000"> </text>
<text text-anchor="start" x="7.5" y="-820" font-family="monospace" font-size="10.00" fill="#000000">&lt;input function&gt;</text>
<text text-anchor="start" x="371.5" y="-799.8" font-family="sans" font-size="10.00" fill="#000000"> </text>
<text text-anchor="start" x="375.5" y="-799.8" font-family="sans" font-weight="bold" font-size="14.00" fill="#000000">output →</text>
<text text-anchor="start" x="436.5" y="-799.8" font-family="sans" font-size="10.00" fill="#000000"> </text>
<text text-anchor="start" x="7.5" y="-780" font-family="monospace" font-size="10.00" fill="#000000">stats/reads/fastqc/{tool}/{sample}_{library}_{read_type_trim}.html</text>
<text text-anchor="start" x="7.5" y="-762" font-family="monospace" font-size="10.00" fill="#000000">stats/reads/fastqc/{tool}/{sample}_{library}_{read_type_trim}_fastqc.zip</text>
<polygon fill="#d9ad57" stroke="#d9ad57" points="1.5,-854 1.5,-854 447.5,-854 447.5,-854 1.5,-854"/>
<polygon fill="#d9ad57" stroke="#d9ad57" points="1.5,-814 1.5,-814 447.5,-814 447.5,-814 1.5,-814"/>
<polygon fill="none" stroke="#d9ad57" stroke-width="2" points="1,-753 1,-883 446,-883 446,-753 1,-753"/>
</g>
<!-- 2&#45;&gt;1 -->
<g id="edge4" class="edge">
<title>2&#45;&gt;1</title>
<path fill="none" stroke="#c0c0c0" stroke-width="2" d="M271.7664,-751.9902C313.9923,-695.7501 378.1603,-613.8226 440.5,-548 449.5187,-538.4774 458.9225,-528.8897 468.549,-519.3413"/>
<polygon fill="#c0c0c0" stroke="#c0c0c0" stroke-width="2" points="471.2838,-521.5603 475.9512,-512.0489 466.3711,-516.5737 471.2838,-521.5603"/>
</g>
<!-- 3 -->
<g id="node4" class="node">
<title>3</title>
<text text-anchor="start" x="346.5" y="-1217.6" font-family="sans" font-weight="bold" font-size="18.00" fill="#000000">merge_lanes</text>
<text text-anchor="start" x="199.5" y="-1193.8" font-family="sans" font-size="10.00" fill="#000000"> </text>
<text text-anchor="start" x="203.5" y="-1193.8" font-family="sans" font-weight="bold" font-size="14.00" fill="#000000">↪ input</text>
<text text-anchor="start" x="256.5" y="-1193.8" font-family="sans" font-size="10.00" fill="#000000"> </text>
<text text-anchor="start" x="199.5" y="-1174" font-family="monospace" font-size="10.00" fill="#000000">&lt;input function&gt;</text>
<text text-anchor="start" x="533.5" y="-1153.8" font-family="sans" font-size="10.00" fill="#000000"> </text>
<text text-anchor="start" x="537.5" y="-1153.8" font-family="sans" font-weight="bold" font-size="14.00" fill="#000000">output →</text>
<text text-anchor="start" x="598.5" y="-1153.8" font-family="sans" font-size="10.00" fill="#000000"> </text>
<text text-anchor="start" x="199.5" y="-1134" font-family="monospace" font-size="10.00" fill="#000000">temp/reads/merge_lanes/{sample}_{library}_{read_type_trim}.fastq.gz</text>
<polygon fill="#82d957" stroke="#82d957" points="193.5,-1208 193.5,-1208 609.5,-1208 609.5,-1208 193.5,-1208"/>
<polygon fill="#82d957" stroke="#82d957" points="193.5,-1168 193.5,-1168 609.5,-1168 609.5,-1168 193.5,-1168"/>
<polygon fill="none" stroke="#82d957" stroke-width="2" points="193,-1125 193,-1237 608,-1237 608,-1125 193,-1125"/>
</g>
<!-- 3&#45;&gt;2 -->
<g id="edge5" class="edge">
<title>3&#45;&gt;2</title>
<path fill="none" stroke="#c0c0c0" stroke-width="2" d="M372.649,-1123.8819C342.2751,-1061.5896 293.5366,-961.6343 260.0931,-893.047"/>
<polygon fill="#c0c0c0" stroke="#c0c0c0" stroke-width="2" points="263.2128,-891.459 255.6841,-884.0046 256.9209,-894.527 263.2128,-891.459"/>
</g>
<!-- 5 -->
<g id="node6" class="node">
<title>5</title>
<text text-anchor="start" x="611.5" y="-881.6" font-family="sans" font-weight="bold" font-size="18.00" fill="#000000">nonpareil_infer</text>
<text text-anchor="start" x="472.5" y="-857.8" font-family="sans" font-size="10.00" fill="#000000"> </text>
<text text-anchor="start" x="476.5" y="-857.8" font-family="sans" font-weight="bold" font-size="14.00" fill="#000000">↪ input</text>
<text text-anchor="start" x="529.5" y="-857.8" font-family="sans" font-size="10.00" fill="#000000"> </text>
<text text-anchor="start" x="472.5" y="-838" font-family="monospace" font-size="10.00" fill="#000000">&lt;input function&gt;</text>
<text text-anchor="start" x="812.5" y="-817.8" font-family="sans" font-size="10.00" fill="#000000"> </text>
<text text-anchor="start" x="816.5" y="-817.8" font-family="sans" font-weight="bold" font-size="14.00" fill="#000000">output →</text>
<text text-anchor="start" x="877.5" y="-817.8" font-family="sans" font-size="10.00" fill="#000000"> </text>
<text text-anchor="start" x="472.5" y="-798" font-family="monospace" font-size="10.00" fill="#000000">stats/reads/nonpareil/{tool}/{sample}_{library}_{read_type_trim}.log</text>
<text text-anchor="start" x="472.5" y="-780" font-family="monospace" font-size="10.00" fill="#000000">stats/reads/nonpareil/{tool}/{sample}_{library}_{read_type_trim}.npa</text>
<text text-anchor="start" x="472.5" y="-762" font-family="monospace" font-size="10.00" fill="#000000">stats/reads/nonpareil/{tool}/{sample}_{library}_{read_type_trim}.npc</text>
<text text-anchor="start" x="472.5" y="-744" font-family="monospace" font-size="10.00" fill="#000000">stats/reads/nonpareil/{tool}/{sample}_{library}_{read_type_trim}.npo</text>
<polygon fill="#57d982" stroke="#57d982" points="466.5,-872 466.5,-872 888.5,-872 888.5,-872 466.5,-872"/>
<polygon fill="#57d982" stroke="#57d982" points="466.5,-832 466.5,-832 888.5,-832 888.5,-832 466.5,-832"/>
<polygon fill="none" stroke="#57d982" stroke-width="2" points="466,-735 466,-901 887,-901 887,-735 466,-735"/>
</g>
<!-- 3&#45;&gt;5 -->
<g id="edge8" class="edge">
<title>3&#45;&gt;5</title>
<path fill="none" stroke="#c0c0c0" stroke-width="2" d="M389.7527,-1123.8233C383.0736,-1070.876 381.8399,-992.3458 419.5,-938 426.3393,-928.1305 439.8999,-917.6663 457.3727,-907.1922"/>
<polygon fill="#c0c0c0" stroke="#c0c0c0" stroke-width="2" points="459.3511,-910.0911 466.2522,-902.0521 455.8442,-904.0329 459.3511,-910.0911"/>
</g>
<!-- 6 -->
<g id="node7" class="node">
<title>6</title>
<text text-anchor="start" x="610" y="-1067.6" font-family="sans" font-weight="bold" font-size="18.00" fill="#000000">low_complexity</text>
<text text-anchor="start" x="436.5" y="-1043.8" font-family="sans" font-size="10.00" fill="#000000"> </text>
<text text-anchor="start" x="440.5" y="-1043.8" font-family="sans" font-weight="bold" font-size="14.00" fill="#000000">↪ input</text>
<text text-anchor="start" x="493.5" y="-1043.8" font-family="sans" font-size="10.00" fill="#000000"> </text>
<text text-anchor="start" x="436.5" y="-1024" font-family="monospace" font-size="10.00" fill="#000000">temp/reads/merge_lanes/{sample}_{library}_{read_type_trim}.fastq.gz</text>
<text text-anchor="start" x="848.5" y="-1003.8" font-family="sans" font-size="10.00" fill="#000000"> </text>
<text text-anchor="start" x="852.5" y="-1003.8" font-family="sans" font-weight="bold" font-size="14.00" fill="#000000">output →</text>
<text text-anchor="start" x="913.5" y="-1003.8" font-family="sans" font-size="10.00" fill="#000000"> </text>
<text text-anchor="start" x="436.5" y="-984" font-family="monospace" font-size="10.00" fill="#000000">results/reads/low_complexity/{sample}_{library}_{read_type_trim}.fastq.gz</text>
<text text-anchor="start" x="436.5" y="-966" font-family="monospace" font-size="10.00" fill="#000000">stats/reads/low_complexity/{sample}_{library}_{read_type_trim}.txt</text>
<text text-anchor="start" x="436.5" y="-948" font-family="monospace" font-size="10.00" fill="#000000">temp/reads/low_complexity/{sample}_{library}_{read_type_trim}.discarded.fastq.gz</text>
<polygon fill="#add957" stroke="#add957" points="430.5,-1058 430.5,-1058 924.5,-1058 924.5,-1058 430.5,-1058"/>
<polygon fill="#add957" stroke="#add957" points="430.5,-1018 430.5,-1018 924.5,-1018 924.5,-1018 430.5,-1018"/>
<polygon fill="none" stroke="#add957" stroke-width="2" points="430,-939 430,-1087 923,-1087 923,-939 430,-939"/>
</g>
<!-- 3&#45;&gt;6 -->
<g id="edge10" class="edge">
<title>3&#45;&gt;6</title>
<path fill="none" stroke="#c0c0c0" stroke-width="2" d="M494.3261,-1123.8884C510.4286,-1114.087 527.428,-1103.7395 544.3113,-1093.4627"/>
<polygon fill="#c0c0c0" stroke="#c0c0c0" stroke-width="2" points="546.402,-1096.2875 553.1242,-1088.0983 542.7624,-1090.3081 546.402,-1096.2875"/>
</g>
<!-- 4 -->
<g id="node5" class="node">
<title>4</title>
<text text-anchor="start" x="605" y="-677.6" font-family="sans" font-weight="bold" font-size="18.00" fill="#000000">nonpareil_plot</text>
<text text-anchor="start" x="457.5" y="-653.8" font-family="sans" font-size="10.00" fill="#000000"> </text>
<text text-anchor="start" x="461.5" y="-653.8" font-family="sans" font-weight="bold" font-size="14.00" fill="#000000">↪ input</text>
<text text-anchor="start" x="514.5" y="-653.8" font-family="sans" font-size="10.00" fill="#000000"> </text>
<text text-anchor="start" x="457.5" y="-634" font-family="monospace" font-size="10.00" fill="#000000">stats/reads/nonpareil/{tool}/{sample}_{library}_{read_type_trim}.npo</text>
<text text-anchor="start" x="809.5" y="-613.8" font-family="sans" font-size="10.00" fill="#000000"> </text>
<text text-anchor="start" x="813.5" y="-613.8" font-family="sans" font-weight="bold" font-size="14.00" fill="#000000">output →</text>
<text text-anchor="start" x="874.5" y="-613.8" font-family="sans" font-size="10.00" fill="#000000"> </text>
<text text-anchor="start" x="457.5" y="-594" font-family="monospace" font-size="10.00" fill="#000000">reports/reads/nonpareil/{tool}/{sample}_{library}_{read_type_trim}.pdf</text>
<text text-anchor="start" x="457.5" y="-576" font-family="monospace" font-size="10.00" fill="#000000">stats/reads/nonpareil/{tool}/{sample}_{library}_{read_type_trim}.json</text>
<text text-anchor="start" x="457.5" y="-558" font-family="monospace" font-size="10.00" fill="#000000">stats/reads/nonpareil/{tool}/{sample}_{library}_{read_type_trim}.tsv</text>
<polygon fill="#57d9ad" stroke="#57d9ad" points="451.5,-668 451.5,-668 885.5,-668 885.5,-668 451.5,-668"/>
<polygon fill="#57d9ad" stroke="#57d9ad" points="451.5,-628 451.5,-628 885.5,-628 885.5,-628 451.5,-628"/>
<polygon fill="none" stroke="#57d9ad" stroke-width="2" points="451,-549 451,-697 884,-697 884,-549 451,-549"/>
</g>
<!-- 4&#45;&gt;1 -->
<g id="edge3" class="edge">
<title>4&#45;&gt;1</title>
<path fill="none" stroke="#c0c0c0" stroke-width="2" d="M666.6842,-547.9464C666.5947,-539.7118 666.5011,-531.0968 666.405,-522.2614"/>
<polygon fill="#c0c0c0" stroke="#c0c0c0" stroke-width="2" points="669.9042,-522.1623 666.2957,-512.201 662.9047,-522.2385 669.9042,-522.1623"/>
</g>
<!-- 5&#45;&gt;4 -->
<g id="edge7" class="edge">
<title>5&#45;&gt;4</title>
<path fill="none" stroke="#c0c0c0" stroke-width="2" d="M672.6179,-733.8876C672.2289,-725.46 671.8337,-716.8965 671.4441,-708.4552"/>
<polygon fill="#c0c0c0" stroke="#c0c0c0" stroke-width="2" points="674.9299,-708.0648 670.9725,-698.2368 667.9373,-708.3876 674.9299,-708.0648"/>
</g>
<!-- 6&#45;&gt;0 -->
<g id="edge1" class="edge">
<title>6&#45;&gt;0</title>
<path fill="none" stroke="#c0c0c0" stroke-width="2" d="M865.825,-937.8807C877.7083,-927.3819 888.2027,-915.4799 896.5,-902 1064.2397,-629.4869 1016.8933,-478.4886 896.5,-182 892.5865,-172.3625 887.3663,-163.1092 881.3342,-154.3503"/>
<polygon fill="#c0c0c0" stroke="#c0c0c0" stroke-width="2" points="884.0408,-152.1218 875.3183,-146.1077 878.3866,-156.2486 884.0408,-152.1218"/>
</g>
<!-- 6&#45;&gt;2 -->
<g id="edge6" class="edge">
<title>6&#45;&gt;2</title>
<path fill="none" stroke="#c0c0c0" stroke-width="2" d="M502.0063,-937.8868C463.9794,-921.5176 423.8851,-904.2585 386.3321,-888.0933"/>
<polygon fill="#c0c0c0" stroke="#c0c0c0" stroke-width="2" points="387.4113,-884.7474 376.8423,-884.0083 384.6436,-891.177 387.4113,-884.7474"/>
</g>
<!-- 6&#45;&gt;5 -->
<g id="edge9" class="edge">
<title>6&#45;&gt;5</title>
<path fill="none" stroke="#c0c0c0" stroke-width="2" d="M676.5,-937.8868C676.5,-929.4814 676.5,-920.8412 676.5,-912.2351"/>
<polygon fill="#c0c0c0" stroke="#c0c0c0" stroke-width="2" points="680.0001,-912.1638 676.5,-902.1639 673.0001,-912.1639 680.0001,-912.1638"/>
</g>
</g>
</svg>
