<?xml version="1.0" encoding="UTF-8" standalone="no"?>
<!DOCTYPE svg PUBLIC "-//W3C//DTD SVG 1.1//EN"
 "http://www.w3.org/Graphics/SVG/1.1/DTD/svg11.dtd">
<!-- Generated by graphviz version 2.40.1 (0)
 -->
<!-- Title: snakemake_dag Pages: 1 -->
<svg width="185pt" height="404pt"
 viewBox="0.00 0.00 185.00 404.00" xmlns="http://www.w3.org/2000/svg" xmlns:xlink="http://www.w3.org/1999/xlink">
<g id="graph0" class="graph" transform="scale(1 1) rotate(0) translate(4 400)">
<title>snakemake_dag</title>
<polygon fill="#ffffff" stroke="transparent" points="-4,4 -4,-400 181,-400 181,4 -4,4"/>
<!-- 0 -->
<g id="node1" class="node">
<title>0</title>
<path fill="none" stroke="#d85656" stroke-width="2" d="M161,-36C161,-36 131,-36 131,-36 125,-36 119,-30 119,-24 119,-24 119,-12 119,-12 119,-6 125,0 131,0 131,0 161,0 161,0 167,0 173,-6 173,-12 173,-12 173,-24 173,-24 173,-30 167,-36 161,-36"/>
<text text-anchor="middle" x="146" y="-15.5" font-family="sans" font-size="10.00" fill="#000000">all</text>
</g>
<!-- 1 -->
<g id="node2" class="node">
<title>1</title>
<path fill="none" stroke="#59d856" stroke-width="2" d="M127,-108C127,-108 97,-108 97,-108 91,-108 85,-102 85,-96 85,-96 85,-84 85,-84 85,-78 91,-72 97,-72 97,-72 127,-72 127,-72 133,-72 139,-78 139,-84 139,-84 139,-96 139,-96 139,-102 133,-108 127,-108"/>
<text text-anchor="middle" x="112" y="-87.5" font-family="sans" font-size="10.00" fill="#000000">multiqc</text>
</g>
<!-- 1&#45;&gt;0 -->
<g id="edge2" class="edge">
<title>1&#45;&gt;0</title>
<path fill="none" stroke="#c0c0c0" stroke-width="2" d="M120.5796,-71.8314C124.3358,-63.8771 128.8257,-54.369 132.9798,-45.5723"/>
<polygon fill="#c0c0c0" stroke="#c0c0c0" stroke-width="2" points="136.1996,-46.9503 137.3048,-36.4133 129.8699,-43.9612 136.1996,-46.9503"/>
</g>
<!-- 2 -->
<g id="node3" class="node">
<title>2</title>
<path fill="none" stroke="#d8ac56" stroke-width="2" d="M42,-252C42,-252 12,-252 12,-252 6,-252 0,-246 0,-240 0,-240 0,-228 0,-228 0,-222 6,-216 12,-216 12,-216 42,-216 42,-216 48,-216 54,-222 54,-228 54,-228 54,-240 54,-240 54,-246 48,-252 42,-252"/>
<text text-anchor="middle" x="27" y="-231.5" font-family="sans" font-size="10.00" fill="#000000">fastqc</text>
</g>
<!-- 2&#45;&gt;1 -->
<g id="edge3" class="edge">
<title>2&#45;&gt;1</title>
<path fill="none" stroke="#c0c0c0" stroke-width="2" d="M32.4376,-215.8967C38.5355,-197.0868 49.5008,-167.2118 64,-144 70.2071,-134.0631 78.2748,-124.1885 86.0191,-115.6537"/>
<polygon fill="#c0c0c0" stroke="#c0c0c0" stroke-width="2" points="88.6931,-117.9188 92.9775,-108.2289 83.5855,-113.1321 88.6931,-117.9188"/>
</g>
<!-- 3 -->
<g id="node4" class="node">
<title>3</title>
<path fill="none" stroke="#80d856" stroke-width="2" d="M89,-396C89,-396 41,-396 41,-396 35,-396 29,-390 29,-384 29,-384 29,-372 29,-372 29,-366 35,-360 41,-360 41,-360 89,-360 89,-360 95,-360 101,-366 101,-372 101,-372 101,-384 101,-384 101,-390 95,-396 89,-396"/>
<text text-anchor="middle" x="65" y="-375.5" font-family="sans" font-size="10.00" fill="#000000">merge_lanes</text>
</g>
<!-- 3&#45;&gt;2 -->
<g id="edge6" class="edge">
<title>3&#45;&gt;2</title>
<path fill="none" stroke="#c0c0c0" stroke-width="2" d="M60.1873,-359.7623C53.6773,-335.0928 42.0047,-290.8598 34.3818,-261.9731"/>
<polygon fill="#c0c0c0" stroke="#c0c0c0" stroke-width="2" points="37.7094,-260.8656 31.7736,-252.0896 30.9411,-262.6517 37.7094,-260.8656"/>
</g>
<!-- 5 -->
<g id="node6" class="node">
<title>5</title>
<path fill="none" stroke="#56d882" stroke-width="2" d="M140,-252C140,-252 84,-252 84,-252 78,-252 72,-246 72,-240 72,-240 72,-228 72,-228 72,-222 78,-216 84,-216 84,-216 140,-216 140,-216 146,-216 152,-222 152,-228 152,-228 152,-240 152,-240 152,-246 146,-252 140,-252"/>
<text text-anchor="middle" x="112" y="-231.5" font-family="sans" font-size="10.00" fill="#000000">nonpareil_infer</text>
</g>
<!-- 3&#45;&gt;5 -->
<g id="edge9" class="edge">
<title>3&#45;&gt;5</title>
<path fill="none" stroke="#c0c0c0" stroke-width="2" d="M67.3844,-359.6741C70.1296,-341.2019 75.4019,-312.0609 84,-288 87.2016,-279.0406 91.6176,-269.6993 95.9968,-261.3545"/>
<polygon fill="#c0c0c0" stroke="#c0c0c0" stroke-width="2" points="99.1483,-262.8857 100.8586,-252.4298 93.0012,-259.5369 99.1483,-262.8857"/>
</g>
<!-- 6 -->
<g id="node7" class="node">
<title>6</title>
<path fill="none" stroke="#afd856" stroke-width="2" d="M165,-324C165,-324 105,-324 105,-324 99,-324 93,-318 93,-312 93,-312 93,-300 93,-300 93,-294 99,-288 105,-288 105,-288 165,-288 165,-288 171,-288 177,-294 177,-300 177,-300 177,-312 177,-312 177,-318 171,-324 165,-324"/>
<text text-anchor="middle" x="135" y="-303.5" font-family="sans" font-size="10.00" fill="#000000">low_complexity</text>
</g>
<!-- 3&#45;&gt;6 -->
<g id="edge10" class="edge">
<title>3&#45;&gt;6</title>
<path fill="none" stroke="#c0c0c0" stroke-width="2" d="M82.664,-359.8314C90.9732,-351.2848 101.0264,-340.9443 110.0918,-331.6198"/>
<polygon fill="#c0c0c0" stroke="#c0c0c0" stroke-width="2" points="112.6369,-334.023 117.0982,-324.4133 107.6179,-329.1435 112.6369,-334.023"/>
</g>
<!-- 4 -->
<g id="node5" class="node">
<title>4</title>
<path fill="none" stroke="#56d8a9" stroke-width="2" d="M138.5,-180C138.5,-180 85.5,-180 85.5,-180 79.5,-180 73.5,-174 73.5,-168 73.5,-168 73.5,-156 73.5,-156 73.5,-150 79.5,-144 85.5,-144 85.5,-144 138.5,-144 138.5,-144 144.5,-144 150.5,-150 150.5,-156 150.5,-156 150.5,-168 150.5,-168 150.5,-174 144.5,-180 138.5,-180"/>
<text text-anchor="middle" x="112" y="-159.5" font-family="sans" font-size="10.00" fill="#000000">nonpareil_plot</text>
</g>
<!-- 4&#45;&gt;1 -->
<g id="edge4" class="edge">
<title>4&#45;&gt;1</title>
<path fill="none" stroke="#c0c0c0" stroke-width="2" d="M112,-143.8314C112,-136.131 112,-126.9743 112,-118.4166"/>
<polygon fill="#c0c0c0" stroke="#c0c0c0" stroke-width="2" points="115.5001,-118.4132 112,-108.4133 108.5001,-118.4133 115.5001,-118.4132"/>
</g>
<!-- 5&#45;&gt;4 -->
<g id="edge7" class="edge">
<title>5&#45;&gt;4</title>
<path fill="none" stroke="#c0c0c0" stroke-width="2" d="M112,-215.8314C112,-208.131 112,-198.9743 112,-190.4166"/>
<polygon fill="#c0c0c0" stroke="#c0c0c0" stroke-width="2" points="115.5001,-190.4132 112,-180.4133 108.5001,-190.4133 115.5001,-190.4132"/>
</g>
<!-- 6&#45;&gt;0 -->
<g id="edge1" class="edge">
<title>6&#45;&gt;0</title>
<path fill="none" stroke="#c0c0c0" stroke-width="2" d="M146.3196,-287.7678C151.9396,-277.6415 158.1294,-264.5789 161,-252 177.6438,-179.0662 162.6629,-90.2627 152.8839,-45.956"/>
<polygon fill="#c0c0c0" stroke="#c0c0c0" stroke-width="2" points="156.2917,-45.1576 150.6512,-36.189 149.4677,-46.7176 156.2917,-45.1576"/>
</g>
<!-- 6&#45;&gt;2 -->
<g id="edge5" class="edge">
<title>6&#45;&gt;2</title>
<path fill="none" stroke="#c0c0c0" stroke-width="2" d="M107.747,-287.8314C94.0611,-278.7074 77.3085,-267.539 62.6173,-257.7449"/>
<polygon fill="#c0c0c0" stroke="#c0c0c0" stroke-width="2" points="64.5062,-254.7977 54.2442,-252.1628 60.6233,-260.6221 64.5062,-254.7977"/>
</g>
<!-- 6&#45;&gt;5 -->
<g id="edge8" class="edge">
<title>6&#45;&gt;5</title>
<path fill="none" stroke="#c0c0c0" stroke-width="2" d="M129.1961,-287.8314C126.7092,-280.0463 123.7469,-270.7729 120.9875,-262.1347"/>
<polygon fill="#c0c0c0" stroke="#c0c0c0" stroke-width="2" points="124.2591,-260.874 117.882,-252.4133 117.591,-263.0041 124.2591,-260.874"/>
</g>
</g>
</svg>
