<?xml version="1.0" encoding="UTF-8" standalone="no"?>
<!DOCTYPE svg PUBLIC "-//W3C//DTD SVG 1.1//EN"
 "http://www.w3.org/Graphics/SVG/1.1/DTD/svg11.dtd">
<!-- Generated by graphviz version 2.40.1 (0)
 -->
<!-- Title: snakemake_dag Pages: 1 -->
<svg width="1150pt" height="1876pt"
 viewBox="0.00 0.00 1150.00 1876.00" xmlns="http://www.w3.org/2000/svg" xmlns:xlink="http://www.w3.org/1999/xlink">
<g id="graph0" class="graph" transform="scale(1 1) rotate(0) translate(4 1872)">
<title>snakemake_dag</title>
<polygon fill="#ffffff" stroke="transparent" points="-4,4 -4,-1872 1146,-1872 1146,4 -4,4"/>
<!-- 0 -->
<g id="node1" class="node">
<title>0</title>
<text text-anchor="start" x="828.5" y="-143.6" font-family="sans" font-weight="bold" font-size="18.00" fill="#000000">all</text>
<text text-anchor="start" x="643.5" y="-119.8" font-family="sans" font-size="10.00" fill="#000000"> </text>
<text text-anchor="start" x="647.5" y="-119.8" font-family="sans" font-weight="bold" font-size="14.00" fill="#000000">↪ input</text>
<text text-anchor="start" x="700.5" y="-119.8" font-family="sans" font-size="10.00" fill="#000000"> </text>
<text text-anchor="start" x="643.5" y="-100" font-family="monospace" font-size="10.00" fill="#000000">reports/multiqc.html</text>
<text text-anchor="start" x="643.5" y="-82" font-family="monospace" font-size="10.00" fill="#000000">results/reads/low_complexity/HD827sonic_1_lib1_collapsed.fastq.gz</text>
<text text-anchor="start" x="643.5" y="-64" font-family="monospace" font-size="10.00" fill="#000000">results/reads/low_complexity/HD827sonic_2_lib1_collapsed.fastq.gz</text>
<text text-anchor="start" x="643.5" y="-46" font-family="monospace" font-size="10.00" fill="#000000">results/reads/low_complexity/HD827sonic_2_lib2_collapsed.fastq.gz</text>
<text text-anchor="start" x="643.5" y="-28" font-family="monospace" font-size="10.00" fill="#000000">results/reads/low_complexity/HD827sonic_2_lib3_collapsed.fastq.gz</text>
<text text-anchor="start" x="1027.5" y="-10" font-family="sans" font-size="10.00" fill="#000000"> &#160;</text>
<polygon fill="#d95757" stroke="#d95757" points="637.5,-134 637.5,-134 1041.5,-134 1041.5,-134 637.5,-134"/>
<polygon fill="#d95757" stroke="#d95757" points="637.5,-22 637.5,-22 1041.5,-22 1041.5,-22 637.5,-22"/>
<polygon fill="none" stroke="#d95757" stroke-width="2" points="637,-1 637,-163 1040,-163 1040,-1 637,-1"/>
</g>
<!-- 1 -->
<g id="node2" class="node">
<title>1</title>
<text text-anchor="start" x="586.5" y="-581.6" font-family="sans" font-weight="bold" font-size="18.00" fill="#000000">multiqc</text>
<text text-anchor="start" x="402.5" y="-557.8" font-family="sans" font-size="10.00" fill="#000000"> </text>
<text text-anchor="start" x="406.5" y="-557.8" font-family="sans" font-weight="bold" font-size="14.00" fill="#000000">↪ input</text>
<text text-anchor="start" x="459.5" y="-557.8" font-family="sans" font-size="10.00" fill="#000000"> </text>
<text text-anchor="start" x="402.5" y="-538" font-family="monospace" font-size="10.00" fill="#000000">stats/reads/fastqc/derep/HD827sonic_1_lib1_collapsed_fastqc.zip</text>
<text text-anchor="start" x="402.5" y="-520" font-family="monospace" font-size="10.00" fill="#000000">stats/reads/fastqc/derep/HD827sonic_2_lib1_collapsed_fastqc.zip</text>
<text text-anchor="start" x="402.5" y="-502" font-family="monospace" font-size="10.00" fill="#000000">stats/reads/fastqc/derep/HD827sonic_2_lib2_collapsed_fastqc.zip</text>
<text text-anchor="start" x="402.5" y="-484" font-family="monospace" font-size="10.00" fill="#000000">stats/reads/fastqc/derep/HD827sonic_2_lib3_collapsed_fastqc.zip</text>
<text text-anchor="start" x="402.5" y="-466" font-family="monospace" font-size="10.00" fill="#000000">stats/reads/fastqc/low_complexity/HD827sonic_1_lib1_collapsed_fastqc.zip</text>
<text text-anchor="start" x="402.5" y="-448" font-family="monospace" font-size="10.00" fill="#000000">stats/reads/fastqc/low_complexity/HD827sonic_2_lib1_collapsed_fastqc.zip</text>
<text text-anchor="start" x="402.5" y="-430" font-family="monospace" font-size="10.00" fill="#000000">stats/reads/fastqc/low_complexity/HD827sonic_2_lib2_collapsed_fastqc.zip</text>
<text text-anchor="start" x="402.5" y="-412" font-family="monospace" font-size="10.00" fill="#000000">stats/reads/fastqc/low_complexity/HD827sonic_2_lib3_collapsed_fastqc.zip</text>
<text text-anchor="start" x="402.5" y="-394" font-family="monospace" font-size="10.00" fill="#000000">stats/reads/fastqc/merge_lanes/HD827sonic_1_lib1_collapsed_fastqc.zip</text>
<text text-anchor="start" x="402.5" y="-376" font-family="monospace" font-size="10.00" fill="#000000">stats/reads/fastqc/merge_lanes/HD827sonic_2_lib1_collapsed_fastqc.zip</text>
<text text-anchor="start" x="402.5" y="-358" font-family="monospace" font-size="10.00" fill="#000000">stats/reads/fastqc/merge_lanes/HD827sonic_2_lib2_collapsed_fastqc.zip</text>
<text text-anchor="start" x="402.5" y="-340" font-family="monospace" font-size="10.00" fill="#000000">stats/reads/fastqc/merge_lanes/HD827sonic_2_lib3_collapsed_fastqc.zip</text>
<text text-anchor="start" x="402.5" y="-322" font-family="monospace" font-size="10.00" fill="#000000">stats/reads/nonpareil/merge_lanes/HD827sonic_1_lib1_collapsed.json</text>
<text text-anchor="start" x="402.5" y="-304" font-family="monospace" font-size="10.00" fill="#000000">stats/reads/nonpareil/merge_lanes/HD827sonic_2_lib1_collapsed.json</text>
<text text-anchor="start" x="402.5" y="-286" font-family="monospace" font-size="10.00" fill="#000000">stats/reads/nonpareil/merge_lanes/HD827sonic_2_lib2_collapsed.json</text>
<text text-anchor="start" x="402.5" y="-268" font-family="monospace" font-size="10.00" fill="#000000">stats/reads/nonpareil/merge_lanes/HD827sonic_2_lib3_collapsed.json</text>
<text text-anchor="start" x="766.5" y="-247.8" font-family="sans" font-size="10.00" fill="#000000"> </text>
<text text-anchor="start" x="770.5" y="-247.8" font-family="sans" font-weight="bold" font-size="14.00" fill="#000000">output →</text>
<text text-anchor="start" x="831.5" y="-247.8" font-family="sans" font-size="10.00" fill="#000000"> </text>
<text text-anchor="start" x="402.5" y="-228" font-family="monospace" font-size="10.00" fill="#000000">reports/multiqc.html</text>
<text text-anchor="start" x="402.5" y="-210" font-family="monospace" font-size="10.00" fill="#000000">reports/multiqc_data.zip</text>
<polygon fill="#8bd957" stroke="#8bd957" points="396.5,-572 396.5,-572 842.5,-572 842.5,-572 396.5,-572"/>
<polygon fill="#8bd957" stroke="#8bd957" points="396.5,-262 396.5,-262 842.5,-262 842.5,-262 396.5,-262"/>
<polygon fill="none" stroke="#8bd957" stroke-width="2" points="396,-201 396,-601 841,-601 841,-201 396,-201"/>
</g>
<!-- 1&#45;&gt;0 -->
<g id="edge1" class="edge">
<title>1&#45;&gt;0</title>
<path fill="none" stroke="#c0c0c0" stroke-width="2" d="M757.2052,-199.8775C763.6424,-190.5435 769.9387,-181.4139 775.997,-172.6293"/>
<polygon fill="#c0c0c0" stroke="#c0c0c0" stroke-width="2" points="778.9333,-174.5365 781.7295,-164.3173 773.1708,-170.5623 778.9333,-174.5365"/>
</g>
<!-- 2 -->
<g id="node3" class="node">
<title>2</title>
<text text-anchor="start" x="592.5" y="-749.6" font-family="sans" font-weight="bold" font-size="18.00" fill="#000000">fastqc</text>
<text text-anchor="start" x="213.5" y="-725.8" font-family="sans" font-size="10.00" fill="#000000"> </text>
<text text-anchor="start" x="217.5" y="-725.8" font-family="sans" font-weight="bold" font-size="14.00" fill="#000000">↪ input</text>
<text text-anchor="start" x="270.5" y="-725.8" font-family="sans" font-size="10.00" fill="#000000"> </text>
<text text-anchor="start" x="213.5" y="-706" font-family="monospace" font-size="10.00" fill="#000000">&lt;input function&gt;</text>
<text text-anchor="start" x="955.5" y="-685.8" font-family="sans" font-size="10.00" fill="#000000"> </text>
<text text-anchor="start" x="959.5" y="-685.8" font-family="sans" font-weight="bold" font-size="14.00" fill="#000000">output →</text>
<text text-anchor="start" x="1020.5" y="-685.8" font-family="sans" font-size="10.00" fill="#000000"> </text>
<text text-anchor="start" x="213.5" y="-666" font-family="monospace" font-size="10.00" fill="#000000">stats/reads/fastqc/{tool,merge_lanes|extend/tadpole|derep|represent/grep|low_complexity}/{sample}_{library}_{read_type_trim}.html</text>
<text text-anchor="start" x="213.5" y="-648" font-family="monospace" font-size="10.00" fill="#000000">stats/reads/fastqc/{tool,merge_lanes|extend/tadpole|derep|represent/grep|low_complexity}/{sample}_{library}_{read_type_trim}_fastqc.zip</text>
<polygon fill="#d99c57" stroke="#d99c57" points="207.5,-740 207.5,-740 1031.5,-740 1031.5,-740 207.5,-740"/>
<polygon fill="#d99c57" stroke="#d99c57" points="207.5,-700 207.5,-700 1031.5,-700 1031.5,-700 207.5,-700"/>
<polygon fill="none" stroke="#d99c57" stroke-width="2" points="207,-639 207,-769 1030,-769 1030,-639 207,-639"/>
</g>
<!-- 2&#45;&gt;1 -->
<g id="edge3" class="edge">
<title>2&#45;&gt;1</title>
<path fill="none" stroke="#c0c0c0" stroke-width="2" d="M618.5,-637.8798C618.5,-629.7827 618.5,-621.2026 618.5,-612.2939"/>
<polygon fill="#c0c0c0" stroke="#c0c0c0" stroke-width="2" points="622.0001,-612.1042 618.5,-602.1043 615.0001,-612.1043 622.0001,-612.1042"/>
</g>
<!-- 3 -->
<g id="node4" class="node">
<title>3</title>
<text text-anchor="start" x="620.5" y="-1847.6" font-family="sans" font-weight="bold" font-size="18.00" fill="#000000">merge_lanes</text>
<text text-anchor="start" x="473.5" y="-1823.8" font-family="sans" font-size="10.00" fill="#000000"> </text>
<text text-anchor="start" x="477.5" y="-1823.8" font-family="sans" font-weight="bold" font-size="14.00" fill="#000000">↪ input</text>
<text text-anchor="start" x="530.5" y="-1823.8" font-family="sans" font-size="10.00" fill="#000000"> </text>
<text text-anchor="start" x="473.5" y="-1804" font-family="monospace" font-size="10.00" fill="#000000">&lt;input function&gt;</text>
<text text-anchor="start" x="807.5" y="-1783.8" font-family="sans" font-size="10.00" fill="#000000"> </text>
<text text-anchor="start" x="811.5" y="-1783.8" font-family="sans" font-weight="bold" font-size="14.00" fill="#000000">output →</text>
<text text-anchor="start" x="872.5" y="-1783.8" font-family="sans" font-size="10.00" fill="#000000"> </text>
<text text-anchor="start" x="473.5" y="-1764" font-family="monospace" font-size="10.00" fill="#000000">temp/reads/merge_lanes/{sample}_{library}_{read_type_trim}.fastq.gz</text>
<polygon fill="#add957" stroke="#add957" points="467.5,-1838 467.5,-1838 883.5,-1838 883.5,-1838 467.5,-1838"/>
<polygon fill="#add957" stroke="#add957" points="467.5,-1798 467.5,-1798 883.5,-1798 883.5,-1798 467.5,-1798"/>
<polygon fill="none" stroke="#add957" stroke-width="2" points="467,-1755 467,-1867 882,-1867 882,-1755 467,-1755"/>
</g>
<!-- 3&#45;&gt;2 -->
<g id="edge5" class="edge">
<title>3&#45;&gt;2</title>
<path fill="none" stroke="#c0c0c0" stroke-width="2" d="M590.6092,-1753.9311C579.9124,-1743.2021 570.3331,-1731.1653 563.5,-1718 509.8729,-1614.6765 541.5,-1573.4114 541.5,-1457 541.5,-1457 541.5,-1457 541.5,-1058 541.5,-960.3862 569.8006,-851.0201 592.0872,-780.0284"/>
<polygon fill="#c0c0c0" stroke="#c0c0c0" stroke-width="2" points="595.4949,-780.8615 595.1885,-770.2711 588.8238,-778.7411 595.4949,-780.8615"/>
</g>
<!-- 5 -->
<g id="node6" class="node">
<title>5</title>
<text text-anchor="start" x="235.5" y="-1697.6" font-family="sans" font-weight="bold" font-size="18.00" fill="#000000">nonpareil_infer</text>
<text text-anchor="start" x="96.5" y="-1673.8" font-family="sans" font-size="10.00" fill="#000000"> </text>
<text text-anchor="start" x="100.5" y="-1673.8" font-family="sans" font-weight="bold" font-size="14.00" fill="#000000">↪ input</text>
<text text-anchor="start" x="153.5" y="-1673.8" font-family="sans" font-size="10.00" fill="#000000"> </text>
<text text-anchor="start" x="96.5" y="-1654" font-family="monospace" font-size="10.00" fill="#000000">&lt;input function&gt;</text>
<text text-anchor="start" x="436.5" y="-1633.8" font-family="sans" font-size="10.00" fill="#000000"> </text>
<text text-anchor="start" x="440.5" y="-1633.8" font-family="sans" font-weight="bold" font-size="14.00" fill="#000000">output →</text>
<text text-anchor="start" x="501.5" y="-1633.8" font-family="sans" font-size="10.00" fill="#000000"> </text>
<text text-anchor="start" x="96.5" y="-1614" font-family="monospace" font-size="10.00" fill="#000000">stats/reads/nonpareil/{tool}/{sample}_{library}_{read_type_trim}.log</text>
<text text-anchor="start" x="96.5" y="-1596" font-family="monospace" font-size="10.00" fill="#000000">stats/reads/nonpareil/{tool}/{sample}_{library}_{read_type_trim}.npa</text>
<text text-anchor="start" x="96.5" y="-1578" font-family="monospace" font-size="10.00" fill="#000000">stats/reads/nonpareil/{tool}/{sample}_{library}_{read_type_trim}.npc</text>
<text text-anchor="start" x="96.5" y="-1560" font-family="monospace" font-size="10.00" fill="#000000">stats/reads/nonpareil/{tool}/{sample}_{library}_{read_type_trim}.npo</text>
<polygon fill="#68d957" stroke="#68d957" points="90.5,-1688 90.5,-1688 512.5,-1688 512.5,-1688 90.5,-1688"/>
<polygon fill="#68d957" stroke="#68d957" points="90.5,-1648 90.5,-1648 512.5,-1648 512.5,-1648 90.5,-1648"/>
<polygon fill="none" stroke="#68d957" stroke-width="2" points="90,-1551 90,-1717 511,-1717 511,-1551 90,-1551"/>
</g>
<!-- 3&#45;&gt;5 -->
<g id="edge9" class="edge">
<title>3&#45;&gt;5</title>
<path fill="none" stroke="#c0c0c0" stroke-width="2" d="M553.8475,-1753.8997C532.6456,-1743.8657 510.1363,-1733.2129 487.6246,-1722.559"/>
<polygon fill="#c0c0c0" stroke="#c0c0c0" stroke-width="2" points="488.8591,-1719.2711 478.323,-1718.1569 485.8647,-1725.5983 488.8591,-1719.2711"/>
</g>
<!-- 6 -->
<g id="node7" class="node">
<title>6</title>
<text text-anchor="start" x="799" y="-1103.6" font-family="sans" font-weight="bold" font-size="18.00" fill="#000000">swarm_grep</text>
<text text-anchor="start" x="650.5" y="-1079.8" font-family="sans" font-size="10.00" fill="#000000"> </text>
<text text-anchor="start" x="654.5" y="-1079.8" font-family="sans" font-weight="bold" font-size="14.00" fill="#000000">↪ input</text>
<text text-anchor="start" x="707.5" y="-1079.8" font-family="sans" font-size="10.00" fill="#000000"> </text>
<text text-anchor="start" x="650.5" y="-1060" font-family="monospace" font-size="10.00" fill="#000000">temp/reads/derep/swarm/{sample}_{library}_{read_type_trim}.clusters</text>
<text text-anchor="start" x="650.5" y="-1042" font-family="monospace" font-size="10.00" fill="#000000">temp/reads/merge_lanes/{sample}_{library}_{read_type_trim}.fastq.gz</text>
<text text-anchor="start" x="984.5" y="-1021.8" font-family="sans" font-size="10.00" fill="#000000"> </text>
<text text-anchor="start" x="988.5" y="-1021.8" font-family="sans" font-weight="bold" font-size="14.00" fill="#000000">output →</text>
<text text-anchor="start" x="1049.5" y="-1021.8" font-family="sans" font-size="10.00" fill="#000000"> </text>
<text text-anchor="start" x="650.5" y="-1002" font-family="monospace" font-size="10.00" fill="#000000">temp/reads/derep/{sample}_{library}_{read_type_trim}.fastq.gz</text>
<polygon fill="#57bfd9" stroke="#57bfd9" points="644.5,-1094 644.5,-1094 1060.5,-1094 1060.5,-1094 644.5,-1094"/>
<polygon fill="#57bfd9" stroke="#57bfd9" points="644.5,-1036 644.5,-1036 1060.5,-1036 1060.5,-1036 644.5,-1036"/>
<polygon fill="none" stroke="#57bfd9" stroke-width="2" points="644,-993 644,-1123 1059,-1123 1059,-993 644,-993"/>
</g>
<!-- 3&#45;&gt;6 -->
<g id="edge10" class="edge">
<title>3&#45;&gt;6</title>
<path fill="none" stroke="#c0c0c0" stroke-width="2" d="M883.0111,-1781.3582C955.7108,-1766.5245 1024.8498,-1745.7096 1047.5,-1718 1095.1184,-1659.7449 1106.2268,-1240.2843 1056.5,-1160 1049.8107,-1149.2001 1041.597,-1139.5071 1032.3437,-1130.8129"/>
<polygon fill="#c0c0c0" stroke="#c0c0c0" stroke-width="2" points="1034.516,-1128.0616 1024.709,-1124.0525 1029.8754,-1133.3023 1034.516,-1128.0616"/>
</g>
<!-- 9 -->
<g id="node10" class="node">
<title>9</title>
<text text-anchor="start" x="739.5" y="-1670.6" font-family="sans" font-weight="bold" font-size="18.00" fill="#000000">swarm_vsearch</text>
<text text-anchor="start" x="580.5" y="-1646.8" font-family="sans" font-size="10.00" fill="#000000"> </text>
<text text-anchor="start" x="584.5" y="-1646.8" font-family="sans" font-weight="bold" font-size="14.00" fill="#000000">↪ input</text>
<text text-anchor="start" x="637.5" y="-1646.8" font-family="sans" font-size="10.00" fill="#000000"> </text>
<text text-anchor="start" x="580.5" y="-1627" font-family="monospace" font-size="10.00" fill="#000000">temp/reads/merge_lanes/{sample}_{library}_{read_type_trim}.fastq.gz</text>
<text text-anchor="start" x="962.5" y="-1606.8" font-family="sans" font-size="10.00" fill="#000000"> </text>
<text text-anchor="start" x="966.5" y="-1606.8" font-family="sans" font-weight="bold" font-size="14.00" fill="#000000">output →</text>
<text text-anchor="start" x="1027.5" y="-1606.8" font-family="sans" font-size="10.00" fill="#000000"> </text>
<text text-anchor="start" x="580.5" y="-1587" font-family="monospace" font-size="10.00" fill="#000000">temp/reads/derep/swarm_vsearch/{sample}_{library}_{read_type_trim}.fasta.gz</text>
<polygon fill="#579cd9" stroke="#579cd9" points="574.5,-1661 574.5,-1661 1038.5,-1661 1038.5,-1661 574.5,-1661"/>
<polygon fill="#579cd9" stroke="#579cd9" points="574.5,-1621 574.5,-1621 1038.5,-1621 1038.5,-1621 574.5,-1621"/>
<polygon fill="none" stroke="#579cd9" stroke-width="2" points="574,-1578 574,-1690 1037,-1690 1037,-1578 574,-1578"/>
</g>
<!-- 3&#45;&gt;9 -->
<g id="edge14" class="edge">
<title>3&#45;&gt;9</title>
<path fill="none" stroke="#c0c0c0" stroke-width="2" d="M717.0319,-1753.5332C729.8598,-1736.2009 744.0333,-1717.0504 757.2073,-1699.2504"/>
<polygon fill="#c0c0c0" stroke="#c0c0c0" stroke-width="2" points="760.0457,-1701.2987 763.1815,-1691.1785 754.4191,-1697.1343 760.0457,-1701.2987"/>
</g>
<!-- 4 -->
<g id="node5" class="node">
<title>4</title>
<text text-anchor="start" x="155" y="-1316.6" font-family="sans" font-weight="bold" font-size="18.00" fill="#000000">nonpareil_plot</text>
<text text-anchor="start" x="7.5" y="-1292.8" font-family="sans" font-size="10.00" fill="#000000"> </text>
<text text-anchor="start" x="11.5" y="-1292.8" font-family="sans" font-weight="bold" font-size="14.00" fill="#000000">↪ input</text>
<text text-anchor="start" x="64.5" y="-1292.8" font-family="sans" font-size="10.00" fill="#000000"> </text>
<text text-anchor="start" x="7.5" y="-1273" font-family="monospace" font-size="10.00" fill="#000000">stats/reads/nonpareil/{tool}/{sample}_{library}_{read_type_trim}.npo</text>
<text text-anchor="start" x="359.5" y="-1252.8" font-family="sans" font-size="10.00" fill="#000000"> </text>
<text text-anchor="start" x="363.5" y="-1252.8" font-family="sans" font-weight="bold" font-size="14.00" fill="#000000">output →</text>
<text text-anchor="start" x="424.5" y="-1252.8" font-family="sans" font-size="10.00" fill="#000000"> </text>
<text text-anchor="start" x="7.5" y="-1233" font-family="monospace" font-size="10.00" fill="#000000">reports/reads/nonpareil/{tool}/{sample}_{library}_{read_type_trim}.pdf</text>
<text text-anchor="start" x="7.5" y="-1215" font-family="monospace" font-size="10.00" fill="#000000">stats/reads/nonpareil/{tool}/{sample}_{library}_{read_type_trim}.json</text>
<text text-anchor="start" x="7.5" y="-1197" font-family="monospace" font-size="10.00" fill="#000000">stats/reads/nonpareil/{tool}/{sample}_{library}_{read_type_trim}.tsv</text>
<polygon fill="#57d968" stroke="#57d968" points="1.5,-1307 1.5,-1307 435.5,-1307 435.5,-1307 1.5,-1307"/>
<polygon fill="#57d968" stroke="#57d968" points="1.5,-1267 1.5,-1267 435.5,-1267 435.5,-1267 1.5,-1267"/>
<polygon fill="none" stroke="#57d968" stroke-width="2" points="1,-1188 1,-1336 434,-1336 434,-1188 1,-1188"/>
</g>
<!-- 4&#45;&gt;1 -->
<g id="edge4" class="edge">
<title>4&#45;&gt;1</title>
<path fill="none" stroke="#c0c0c0" stroke-width="2" d="M190.8045,-1186.5779C151.8905,-1062.562 94.6572,-812.0008 196.5,-638 238.8168,-565.7008 312.1765,-513.7696 385.9822,-477.3074"/>
<polygon fill="#c0c0c0" stroke="#c0c0c0" stroke-width="2" points="387.5161,-480.4535 394.9831,-472.9372 384.4586,-474.1565 387.5161,-480.4535"/>
</g>
<!-- 5&#45;&gt;4 -->
<g id="edge8" class="edge">
<title>5&#45;&gt;4</title>
<path fill="none" stroke="#c0c0c0" stroke-width="2" d="M281.666,-1549.5874C268.1646,-1489.075 250.0461,-1407.8691 236.5057,-1347.1822"/>
<polygon fill="#c0c0c0" stroke="#c0c0c0" stroke-width="2" points="239.8822,-1346.2426 234.2885,-1337.2448 233.0502,-1347.767 239.8822,-1346.2426"/>
</g>
<!-- 6&#45;&gt;2 -->
<g id="edge6" class="edge">
<title>6&#45;&gt;2</title>
<path fill="none" stroke="#c0c0c0" stroke-width="2" d="M671.4126,-991.6991C658.4255,-981.409 646.8043,-969.5815 637.5,-956 602.6159,-905.0795 600.3345,-834.0215 605.3575,-780.3369"/>
<polygon fill="#c0c0c0" stroke="#c0c0c0" stroke-width="2" points="608.8602,-780.4919 606.413,-770.1836 601.8977,-779.7681 608.8602,-780.4919"/>
</g>
<!-- 10 -->
<g id="node11" class="node">
<title>10</title>
<text text-anchor="start" x="828" y="-935.6" font-family="sans" font-weight="bold" font-size="18.00" fill="#000000">low_complexity</text>
<text text-anchor="start" x="654.5" y="-911.8" font-family="sans" font-size="10.00" fill="#000000"> </text>
<text text-anchor="start" x="658.5" y="-911.8" font-family="sans" font-weight="bold" font-size="14.00" fill="#000000">↪ input</text>
<text text-anchor="start" x="711.5" y="-911.8" font-family="sans" font-size="10.00" fill="#000000"> </text>
<text text-anchor="start" x="654.5" y="-892" font-family="monospace" font-size="10.00" fill="#000000">temp/reads/derep/{sample}_{library}_{read_type_trim}.fastq.gz</text>
<text text-anchor="start" x="1066.5" y="-871.8" font-family="sans" font-size="10.00" fill="#000000"> </text>
<text text-anchor="start" x="1070.5" y="-871.8" font-family="sans" font-weight="bold" font-size="14.00" fill="#000000">output →</text>
<text text-anchor="start" x="1131.5" y="-871.8" font-family="sans" font-size="10.00" fill="#000000"> </text>
<text text-anchor="start" x="654.5" y="-852" font-family="monospace" font-size="10.00" fill="#000000">results/reads/low_complexity/{sample}_{library}_{read_type_trim}.fastq.gz</text>
<text text-anchor="start" x="654.5" y="-834" font-family="monospace" font-size="10.00" fill="#000000">stats/reads/low_complexity/{sample}_{library}_{read_type_trim}.txt</text>
<text text-anchor="start" x="654.5" y="-816" font-family="monospace" font-size="10.00" fill="#000000">temp/reads/low_complexity/{sample}_{library}_{read_type_trim}.discarded.fastq.gz</text>
<polygon fill="#d0d957" stroke="#d0d957" points="648.5,-926 648.5,-926 1142.5,-926 1142.5,-926 648.5,-926"/>
<polygon fill="#d0d957" stroke="#d0d957" points="648.5,-886 648.5,-886 1142.5,-886 1142.5,-886 648.5,-886"/>
<polygon fill="none" stroke="#d0d957" stroke-width="2" points="648,-807 648,-955 1141,-955 1141,-807 648,-807"/>
</g>
<!-- 6&#45;&gt;10 -->
<g id="edge15" class="edge">
<title>6&#45;&gt;10</title>
<path fill="none" stroke="#c0c0c0" stroke-width="2" d="M867.5728,-991.84C869.6352,-983.3503 871.769,-974.567 873.8912,-965.8315"/>
<polygon fill="#c0c0c0" stroke="#c0c0c0" stroke-width="2" points="877.3182,-966.5509 876.2779,-956.0073 870.516,-964.8984 877.3182,-966.5509"/>
</g>
<!-- 7 -->
<g id="node8" class="node">
<title>7</title>
<text text-anchor="start" x="780.5" y="-1343.6" font-family="sans" font-weight="bold" font-size="18.00" fill="#000000">swarm</text>
<text text-anchor="start" x="577.5" y="-1319.8" font-family="sans" font-size="10.00" fill="#000000"> </text>
<text text-anchor="start" x="581.5" y="-1319.8" font-family="sans" font-weight="bold" font-size="14.00" fill="#000000">↪ input</text>
<text text-anchor="start" x="634.5" y="-1319.8" font-family="sans" font-size="10.00" fill="#000000"> </text>
<text text-anchor="start" x="577.5" y="-1300" font-family="monospace" font-size="10.00" fill="#000000">temp/reads/derep/swarm_vsearch_N/{sample}_{library}_{read_type_trim}.fasta.gz</text>
<text text-anchor="start" x="971.5" y="-1279.8" font-family="sans" font-size="10.00" fill="#000000"> </text>
<text text-anchor="start" x="975.5" y="-1279.8" font-family="sans" font-weight="bold" font-size="14.00" fill="#000000">output →</text>
<text text-anchor="start" x="1036.5" y="-1279.8" font-family="sans" font-size="10.00" fill="#000000"> </text>
<text text-anchor="start" x="577.5" y="-1260" font-family="monospace" font-size="10.00" fill="#000000">stats/reads/derep/swarm/{sample}_{library}_{read_type_trim}.stats.tsv</text>
<text text-anchor="start" x="577.5" y="-1242" font-family="monospace" font-size="10.00" fill="#000000">temp/reads/derep/swarm/{sample}_{library}_{read_type_trim}.clusters</text>
<text text-anchor="start" x="577.5" y="-1224" font-family="monospace" font-size="10.00" fill="#000000">temp/reads/derep/swarm/{sample}_{library}_{read_type_trim}.network.tsv</text>
<text text-anchor="start" x="577.5" y="-1206" font-family="monospace" font-size="10.00" fill="#000000">temp/reads/derep/swarm/{sample}_{library}_{read_type_trim}.seeds.fas</text>
<text text-anchor="start" x="577.5" y="-1188" font-family="monospace" font-size="10.00" fill="#000000">temp/reads/derep/swarm/{sample}_{library}_{read_type_trim}.struct.tsv</text>
<text text-anchor="start" x="577.5" y="-1170" font-family="monospace" font-size="10.00" fill="#000000">temp/reads/derep/swarm/{sample}_{library}_{read_type_trim}.uclust.tsv</text>
<polygon fill="#57d9d0" stroke="#57d9d0" points="571.5,-1334 571.5,-1334 1047.5,-1334 1047.5,-1334 571.5,-1334"/>
<polygon fill="#57d9d0" stroke="#57d9d0" points="571.5,-1294 571.5,-1294 1047.5,-1294 1047.5,-1294 571.5,-1294"/>
<polygon fill="none" stroke="#57d9d0" stroke-width="2" points="571,-1161 571,-1363 1046,-1363 1046,-1161 571,-1161"/>
</g>
<!-- 7&#45;&gt;6 -->
<g id="edge11" class="edge">
<title>7&#45;&gt;6</title>
<path fill="none" stroke="#c0c0c0" stroke-width="2" d="M830.063,-1159.7012C831.9005,-1150.9838 833.7374,-1142.2693 835.5199,-1133.8124"/>
<polygon fill="#c0c0c0" stroke="#c0c0c0" stroke-width="2" points="838.9465,-1134.5252 837.5844,-1124.0183 832.097,-1133.0814 838.9465,-1134.5252"/>
</g>
<!-- 8 -->
<g id="node9" class="node">
<title>8</title>
<text text-anchor="start" x="731" y="-1493.6" font-family="sans" font-weight="bold" font-size="18.00" fill="#000000">swarm_vsearch_N</text>
<text text-anchor="start" x="577.5" y="-1469.8" font-family="sans" font-size="10.00" fill="#000000"> </text>
<text text-anchor="start" x="581.5" y="-1469.8" font-family="sans" font-weight="bold" font-size="14.00" fill="#000000">↪ input</text>
<text text-anchor="start" x="634.5" y="-1469.8" font-family="sans" font-size="10.00" fill="#000000"> </text>
<text text-anchor="start" x="577.5" y="-1450" font-family="monospace" font-size="10.00" fill="#000000">temp/reads/derep/swarm_vsearch/{sample}_{library}_{read_type_trim}.fasta.gz</text>
<text text-anchor="start" x="971.5" y="-1429.8" font-family="sans" font-size="10.00" fill="#000000"> </text>
<text text-anchor="start" x="975.5" y="-1429.8" font-family="sans" font-weight="bold" font-size="14.00" fill="#000000">output →</text>
<text text-anchor="start" x="1036.5" y="-1429.8" font-family="sans" font-size="10.00" fill="#000000"> </text>
<text text-anchor="start" x="577.5" y="-1410" font-family="monospace" font-size="10.00" fill="#000000">temp/reads/derep/swarm_vsearch_N/{sample}_{library}_{read_type_trim}.fasta.gz</text>
<polygon fill="#5779d9" stroke="#5779d9" points="571.5,-1484 571.5,-1484 1047.5,-1484 1047.5,-1484 571.5,-1484"/>
<polygon fill="#5779d9" stroke="#5779d9" points="571.5,-1444 571.5,-1444 1047.5,-1444 1047.5,-1444 571.5,-1444"/>
<polygon fill="none" stroke="#5779d9" stroke-width="2" points="571,-1401 571,-1513 1046,-1513 1046,-1401 571,-1401"/>
</g>
<!-- 8&#45;&gt;7 -->
<g id="edge12" class="edge">
<title>8&#45;&gt;7</title>
<path fill="none" stroke="#c0c0c0" stroke-width="2" d="M808.5,-1399.8111C808.5,-1391.7338 808.5,-1383.2084 808.5,-1374.52"/>
<polygon fill="#c0c0c0" stroke="#c0c0c0" stroke-width="2" points="812.0001,-1374.2627 808.5,-1364.2628 805.0001,-1374.2628 812.0001,-1374.2627"/>
</g>
<!-- 9&#45;&gt;8 -->
<g id="edge13" class="edge">
<title>9&#45;&gt;8</title>
<path fill="none" stroke="#c0c0c0" stroke-width="2" d="M806.474,-1576.5332C806.7572,-1559.8255 807.069,-1541.4283 807.3614,-1524.1799"/>
<polygon fill="#c0c0c0" stroke="#c0c0c0" stroke-width="2" points="810.8608,-1524.2364 807.5309,-1514.1785 803.8618,-1524.1177 810.8608,-1524.2364"/>
</g>
<!-- 10&#45;&gt;0 -->
<g id="edge2" class="edge">
<title>10&#45;&gt;0</title>
<path fill="none" stroke="#c0c0c0" stroke-width="2" d="M1014.9154,-805.9535C1025.1099,-795.112 1033.9926,-783.1219 1040.5,-770 1066.5647,-717.4414 1050.6705,-695.7784 1040.5,-638 1010.5709,-467.9732 932.8489,-281.5042 883.0046,-173.4984"/>
<polygon fill="#c0c0c0" stroke="#c0c0c0" stroke-width="2" points="886.1014,-171.8567 878.7193,-164.257 879.7509,-174.8015 886.1014,-171.8567"/>
</g>
<!-- 10&#45;&gt;2 -->
<g id="edge7" class="edge">
<title>10&#45;&gt;2</title>
<path fill="none" stroke="#c0c0c0" stroke-width="2" d="M777.4512,-805.9361C761.8316,-795.9192 745.8453,-785.6671 730.3182,-775.7095"/>
<polygon fill="#c0c0c0" stroke="#c0c0c0" stroke-width="2" points="732.0516,-772.6633 721.7445,-770.2111 728.2728,-778.5557 732.0516,-772.6633"/>
</g>
</g>
</svg>
