<?xml version="1.0" encoding="UTF-8" standalone="no"?>
<!DOCTYPE svg PUBLIC "-//W3C//DTD SVG 1.1//EN"
 "http://www.w3.org/Graphics/SVG/1.1/DTD/svg11.dtd">
<!-- Generated by graphviz version 2.40.1 (0)
 -->
<!-- Title: snakemake_dag Pages: 1 -->
<svg width="2388pt" height="780pt"
 viewBox="0.00 0.00 2388.38 780.00" xmlns="http://www.w3.org/2000/svg" xmlns:xlink="http://www.w3.org/1999/xlink">
<g id="graph0" class="graph" transform="scale(1 1) rotate(0) translate(4 776)">
<title>snakemake_dag</title>
<polygon fill="#ffffff" stroke="transparent" points="-4,4 -4,-776 2384.3842,-776 2384.3842,4 -4,4"/>
<!-- 0 -->
<g id="node1" class="node">
<title>0</title>
<path fill="none" stroke="#b6d856" stroke-width="2" d="M1772,-36C1772,-36 1742,-36 1742,-36 1736,-36 1730,-30 1730,-24 1730,-24 1730,-12 1730,-12 1730,-6 1736,0 1742,0 1742,0 1772,0 1772,0 1778,0 1784,-6 1784,-12 1784,-12 1784,-24 1784,-24 1784,-30 1778,-36 1772,-36"/>
<text text-anchor="middle" x="1757" y="-15.5" font-family="sans" font-size="10.00" fill="#000000">all</text>
</g>
<!-- 1 -->
<g id="node2" class="node">
<title>1</title>
<path fill="none" stroke="#567bd8" stroke-width="2" d="M1303,-108C1303,-108 1273,-108 1273,-108 1267,-108 1261,-102 1261,-96 1261,-96 1261,-84 1261,-84 1261,-78 1267,-72 1273,-72 1273,-72 1303,-72 1303,-72 1309,-72 1315,-78 1315,-84 1315,-84 1315,-96 1315,-96 1315,-102 1309,-108 1303,-108"/>
<text text-anchor="middle" x="1288" y="-87.5" font-family="sans" font-size="10.00" fill="#000000">multiqc</text>
</g>
<!-- 1&#45;&gt;0 -->
<g id="edge1" class="edge">
<title>1&#45;&gt;0</title>
<path fill="none" stroke="#c0c0c0" stroke-width="2" d="M1315.2426,-85.8178C1395.0717,-73.5626 1628.5472,-37.7198 1719.8206,-23.7077"/>
<polygon fill="#c0c0c0" stroke="#c0c0c0" stroke-width="2" points="1720.622,-27.1258 1729.9751,-22.1488 1719.5598,-20.2068 1720.622,-27.1258"/>
</g>
<!-- 2 -->
<g id="node3" class="node">
<title>2</title>
<path fill="none" stroke="#8fd856" stroke-width="2" d="M882,-180C882,-180 812,-180 812,-180 806,-180 800,-174 800,-168 800,-168 800,-156 800,-156 800,-150 806,-144 812,-144 812,-144 882,-144 882,-144 888,-144 894,-150 894,-156 894,-156 894,-168 894,-168 894,-174 888,-180 882,-180"/>
<text text-anchor="middle" x="847" y="-165" font-family="sans" font-size="10.00" fill="#000000">seqkit_stats</text>
<text text-anchor="middle" x="847" y="-154" font-family="sans" font-size="10.00" fill="#000000">tool: merge_lanes</text>
</g>
<!-- 2&#45;&gt;1 -->
<g id="edge5" class="edge">
<title>2&#45;&gt;1</title>
<path fill="none" stroke="#c0c0c0" stroke-width="2" d="M894.1976,-146.2004C897.1619,-145.4036 900.1133,-144.6612 903,-144 1028.7822,-115.1885 1181.4206,-99.2931 1250.6482,-93.0911"/>
<polygon fill="#c0c0c0" stroke="#c0c0c0" stroke-width="2" points="1250.9806,-96.5754 1260.6352,-92.2121 1250.3668,-89.6024 1250.9806,-96.5754"/>
</g>
<!-- 3 -->
<g id="node4" class="node">
<title>3</title>
<path fill="none" stroke="#56a9d8" stroke-width="2" d="M805,-772C805,-772 701,-772 701,-772 695,-772 689,-766 689,-760 689,-760 689,-732 689,-732 689,-726 695,-720 701,-720 701,-720 805,-720 805,-720 811,-720 817,-726 817,-732 817,-732 817,-760 817,-760 817,-766 811,-772 805,-772"/>
<text text-anchor="middle" x="753" y="-760" font-family="sans" font-size="10.00" fill="#000000">merge_lanes</text>
<text text-anchor="middle" x="753" y="-749" font-family="sans" font-size="10.00" fill="#000000">library: lib1</text>
<text text-anchor="middle" x="753" y="-738" font-family="sans" font-size="10.00" fill="#000000">read_type_trim: collapsed</text>
<text text-anchor="middle" x="753" y="-727" font-family="sans" font-size="10.00" fill="#000000">sample: HD827sonic_1</text>
</g>
<!-- 3&#45;&gt;2 -->
<g id="edge35" class="edge">
<title>3&#45;&gt;2</title>
<path fill="none" stroke="#c0c0c0" stroke-width="2" d="M766.9104,-719.9152C781.3969,-690.2733 802,-640.0255 802,-594 802,-594 802,-594 802,-306 802,-263.8263 819.802,-217.738 833.0122,-189.3433"/>
<polygon fill="#c0c0c0" stroke="#c0c0c0" stroke-width="2" points="836.2895,-190.6034 837.4567,-180.0731 829.9774,-187.5772 836.2895,-190.6034"/>
</g>
<!-- 13 -->
<g id="node14" class="node">
<title>13</title>
<path fill="none" stroke="#d8cb56" stroke-width="2" d="M929,-684C929,-684 859,-684 859,-684 853,-684 847,-678 847,-672 847,-672 847,-660 847,-660 847,-654 853,-648 859,-648 859,-648 929,-648 929,-648 935,-648 941,-654 941,-660 941,-660 941,-672 941,-672 941,-678 935,-684 929,-684"/>
<text text-anchor="middle" x="894" y="-669" font-family="sans" font-size="10.00" fill="#000000">nonpareil_infer</text>
<text text-anchor="middle" x="894" y="-658" font-family="sans" font-size="10.00" fill="#000000">tool: merge_lanes</text>
</g>
<!-- 3&#45;&gt;13 -->
<g id="edge43" class="edge">
<title>3&#45;&gt;13</title>
<path fill="none" stroke="#c0c0c0" stroke-width="2" d="M799.1687,-719.805C816.5168,-709.9621 836.1054,-698.848 852.9565,-689.2871"/>
<polygon fill="#c0c0c0" stroke="#c0c0c0" stroke-width="2" points="855.0345,-692.1322 862.0049,-684.1532 851.5801,-686.0439 855.0345,-692.1322"/>
</g>
<!-- 18 -->
<g id="node19" class="node">
<title>18</title>
<path fill="none" stroke="#68d856" stroke-width="2" d="M727.5,-612C727.5,-612 668.5,-612 668.5,-612 662.5,-612 656.5,-606 656.5,-600 656.5,-600 656.5,-588 656.5,-588 656.5,-582 662.5,-576 668.5,-576 668.5,-576 727.5,-576 727.5,-576 733.5,-576 739.5,-582 739.5,-588 739.5,-588 739.5,-600 739.5,-600 739.5,-606 733.5,-612 727.5,-612"/>
<text text-anchor="middle" x="698" y="-591.5" font-family="sans" font-size="10.00" fill="#000000">read_extension</text>
</g>
<!-- 3&#45;&gt;18 -->
<g id="edge49" class="edge">
<title>3&#45;&gt;18</title>
<path fill="none" stroke="#c0c0c0" stroke-width="2" d="M750.7667,-719.8147C748.3756,-699.5976 743.5482,-671.2449 734,-648 730.1236,-638.5629 724.4856,-629.046 718.8172,-620.6864"/>
<polygon fill="#c0c0c0" stroke="#c0c0c0" stroke-width="2" points="721.612,-618.577 712.9716,-612.4456 715.9026,-622.627 721.612,-618.577"/>
</g>
<!-- 19 -->
<g id="node20" class="node">
<title>19</title>
<path fill="none" stroke="#d85656" stroke-width="2" d="M713,-684C713,-684 683,-684 683,-684 677,-684 671,-678 671,-672 671,-672 671,-660 671,-660 671,-654 677,-648 683,-648 683,-648 713,-648 713,-648 719,-648 725,-654 725,-660 725,-660 725,-672 725,-672 725,-678 719,-684 713,-684"/>
<text text-anchor="middle" x="698" y="-663.5" font-family="sans" font-size="10.00" fill="#000000">loglog</text>
</g>
<!-- 3&#45;&gt;19 -->
<g id="edge51" class="edge">
<title>3&#45;&gt;19</title>
<path fill="none" stroke="#c0c0c0" stroke-width="2" d="M734.9909,-719.805C728.9758,-711.0557 722.2702,-701.3021 716.2378,-692.5277"/>
<polygon fill="#c0c0c0" stroke="#c0c0c0" stroke-width="2" points="719.0298,-690.4108 710.4804,-684.1532 713.2615,-694.3765 719.0298,-690.4108"/>
</g>
<!-- 42 -->
<g id="node43" class="node">
<title>42</title>
<path fill="none" stroke="#56d892" stroke-width="2" d="M345.5,-396C345.5,-396 302.5,-396 302.5,-396 296.5,-396 290.5,-390 290.5,-384 290.5,-384 290.5,-372 290.5,-372 290.5,-366 296.5,-360 302.5,-360 302.5,-360 345.5,-360 345.5,-360 351.5,-360 357.5,-366 357.5,-372 357.5,-372 357.5,-384 357.5,-384 357.5,-390 351.5,-396 345.5,-396"/>
<text text-anchor="middle" x="324" y="-375.5" font-family="sans" font-size="10.00" fill="#000000">seqkit_grep</text>
</g>
<!-- 3&#45;&gt;42 -->
<g id="edge75" class="edge">
<title>3&#45;&gt;42</title>
<path fill="none" stroke="#c0c0c0" stroke-width="2" d="M688.6309,-734.1626C579.7638,-712.2895 371,-661.5403 371,-594 371,-594 371,-594 371,-522 371,-479.6562 352.4068,-433.6118 338.6094,-405.273"/>
<polygon fill="#c0c0c0" stroke="#c0c0c0" stroke-width="2" points="341.5809,-403.3907 333.9675,-396.0228 335.3245,-406.5304 341.5809,-403.3907"/>
</g>
<!-- 4 -->
<g id="node5" class="node">
<title>4</title>
<path fill="none" stroke="#8fd856" stroke-width="2" d="M1053,-612C1053,-612 983,-612 983,-612 977,-612 971,-606 971,-600 971,-600 971,-588 971,-588 971,-582 977,-576 983,-576 983,-576 1053,-576 1053,-576 1059,-576 1065,-582 1065,-588 1065,-588 1065,-600 1065,-600 1065,-606 1059,-612 1053,-612"/>
<text text-anchor="middle" x="1018" y="-597" font-family="sans" font-size="10.00" fill="#000000">seqkit_stats</text>
<text text-anchor="middle" x="1018" y="-586" font-family="sans" font-size="10.00" fill="#000000">tool: merge_lanes</text>
</g>
<!-- 4&#45;&gt;1 -->
<g id="edge6" class="edge">
<title>4&#45;&gt;1</title>
<path fill="none" stroke="#c0c0c0" stroke-width="2" d="M1018,-575.8146C1018,-548.4983 1018,-495.25 1018,-450 1018,-450 1018,-450 1018,-234 1018,-187.3524 1034.5196,-171.7708 1072,-144 1100.1562,-123.138 1196.781,-104.7393 1250.7633,-95.7796"/>
<polygon fill="#c0c0c0" stroke="#c0c0c0" stroke-width="2" points="1251.3344,-99.2328 1260.6395,-94.1668 1250.2061,-92.3243 1251.3344,-99.2328"/>
</g>
<!-- 5 -->
<g id="node6" class="node">
<title>5</title>
<path fill="none" stroke="#56a9d8" stroke-width="2" d="M1266,-772C1266,-772 1162,-772 1162,-772 1156,-772 1150,-766 1150,-760 1150,-760 1150,-732 1150,-732 1150,-726 1156,-720 1162,-720 1162,-720 1266,-720 1266,-720 1272,-720 1278,-726 1278,-732 1278,-732 1278,-760 1278,-760 1278,-766 1272,-772 1266,-772"/>
<text text-anchor="middle" x="1214" y="-760" font-family="sans" font-size="10.00" fill="#000000">merge_lanes</text>
<text text-anchor="middle" x="1214" y="-749" font-family="sans" font-size="10.00" fill="#000000">library: lib1</text>
<text text-anchor="middle" x="1214" y="-738" font-family="sans" font-size="10.00" fill="#000000">read_type_trim: collapsed</text>
<text text-anchor="middle" x="1214" y="-727" font-family="sans" font-size="10.00" fill="#000000">sample: HD827sonic_2</text>
</g>
<!-- 5&#45;&gt;4 -->
<g id="edge36" class="edge">
<title>5&#45;&gt;4</title>
<path fill="none" stroke="#c0c0c0" stroke-width="2" d="M1149.95,-729.8005C1121.6756,-720.1474 1089.5816,-705.4791 1066,-684 1047.4937,-667.1436 1034.7896,-641.4612 1027.1226,-621.8396"/>
<polygon fill="#c0c0c0" stroke="#c0c0c0" stroke-width="2" points="1030.3146,-620.3795 1023.5684,-612.21 1023.7476,-622.8034 1030.3146,-620.3795"/>
</g>
<!-- 11 -->
<g id="node12" class="node">
<title>11</title>
<path fill="none" stroke="#d8cb56" stroke-width="2" d="M1157,-684C1157,-684 1087,-684 1087,-684 1081,-684 1075,-678 1075,-672 1075,-672 1075,-660 1075,-660 1075,-654 1081,-648 1087,-648 1087,-648 1157,-648 1157,-648 1163,-648 1169,-654 1169,-660 1169,-660 1169,-672 1169,-672 1169,-678 1163,-684 1157,-684"/>
<text text-anchor="middle" x="1122" y="-669" font-family="sans" font-size="10.00" fill="#000000">nonpareil_infer</text>
<text text-anchor="middle" x="1122" y="-658" font-family="sans" font-size="10.00" fill="#000000">tool: merge_lanes</text>
</g>
<!-- 5&#45;&gt;11 -->
<g id="edge41" class="edge">
<title>5&#45;&gt;11</title>
<path fill="none" stroke="#c0c0c0" stroke-width="2" d="M1183.8758,-719.805C1173.1853,-710.5089 1161.1908,-700.079 1150.6287,-690.8945"/>
<polygon fill="#c0c0c0" stroke="#c0c0c0" stroke-width="2" points="1152.7189,-688.0739 1142.8762,-684.1532 1148.1257,-693.3562 1152.7189,-688.0739"/>
</g>
<!-- 15 -->
<g id="node16" class="node">
<title>15</title>
<path fill="none" stroke="#68d856" stroke-width="2" d="M1272.5,-612C1272.5,-612 1213.5,-612 1213.5,-612 1207.5,-612 1201.5,-606 1201.5,-600 1201.5,-600 1201.5,-588 1201.5,-588 1201.5,-582 1207.5,-576 1213.5,-576 1213.5,-576 1272.5,-576 1272.5,-576 1278.5,-576 1284.5,-582 1284.5,-588 1284.5,-588 1284.5,-600 1284.5,-600 1284.5,-606 1278.5,-612 1272.5,-612"/>
<text text-anchor="middle" x="1243" y="-591.5" font-family="sans" font-size="10.00" fill="#000000">read_extension</text>
</g>
<!-- 5&#45;&gt;15 -->
<g id="edge45" class="edge">
<title>5&#45;&gt;15</title>
<path fill="none" stroke="#c0c0c0" stroke-width="2" d="M1233.2526,-719.9062C1239.9351,-709.3174 1246.6019,-696.6197 1250,-684 1255.4502,-663.7594 1253.2946,-640.1018 1249.993,-622.1226"/>
<polygon fill="#c0c0c0" stroke="#c0c0c0" stroke-width="2" points="1253.4078,-621.3518 1247.9654,-612.2617 1246.5512,-622.7617 1253.4078,-621.3518"/>
</g>
<!-- 16 -->
<g id="node17" class="node">
<title>16</title>
<path fill="none" stroke="#d85656" stroke-width="2" d="M1229,-684C1229,-684 1199,-684 1199,-684 1193,-684 1187,-678 1187,-672 1187,-672 1187,-660 1187,-660 1187,-654 1193,-648 1199,-648 1199,-648 1229,-648 1229,-648 1235,-648 1241,-654 1241,-660 1241,-660 1241,-672 1241,-672 1241,-678 1235,-684 1229,-684"/>
<text text-anchor="middle" x="1214" y="-663.5" font-family="sans" font-size="10.00" fill="#000000">loglog</text>
</g>
<!-- 5&#45;&gt;16 -->
<g id="edge47" class="edge">
<title>5&#45;&gt;16</title>
<path fill="none" stroke="#c0c0c0" stroke-width="2" d="M1214,-719.805C1214,-711.6026 1214,-702.5174 1214,-694.1839"/>
<polygon fill="#c0c0c0" stroke="#c0c0c0" stroke-width="2" points="1217.5001,-694.1532 1214,-684.1532 1210.5001,-694.1533 1217.5001,-694.1532"/>
</g>
<!-- 48 -->
<g id="node49" class="node">
<title>48</title>
<path fill="none" stroke="#56d892" stroke-width="2" d="M1562.5,-396C1562.5,-396 1519.5,-396 1519.5,-396 1513.5,-396 1507.5,-390 1507.5,-384 1507.5,-384 1507.5,-372 1507.5,-372 1507.5,-366 1513.5,-360 1519.5,-360 1519.5,-360 1562.5,-360 1562.5,-360 1568.5,-360 1574.5,-366 1574.5,-372 1574.5,-372 1574.5,-384 1574.5,-384 1574.5,-390 1568.5,-396 1562.5,-396"/>
<text text-anchor="middle" x="1541" y="-375.5" font-family="sans" font-size="10.00" fill="#000000">seqkit_grep</text>
</g>
<!-- 5&#45;&gt;48 -->
<g id="edge83" class="edge">
<title>5&#45;&gt;48</title>
<path fill="none" stroke="#c0c0c0" stroke-width="2" d="M1278.2691,-731.6116C1378.3297,-707.3259 1560,-654.8536 1560,-594 1560,-594 1560,-594 1560,-522 1560,-481.5282 1552.532,-435.2037 1546.96,-406.2725"/>
<polygon fill="#c0c0c0" stroke="#c0c0c0" stroke-width="2" points="1550.3177,-405.2111 1544.9368,-396.0844 1543.4517,-406.5746 1550.3177,-405.2111"/>
</g>
<!-- 6 -->
<g id="node7" class="node">
<title>6</title>
<path fill="none" stroke="#8fd856" stroke-width="2" d="M1775,-612C1775,-612 1705,-612 1705,-612 1699,-612 1693,-606 1693,-600 1693,-600 1693,-588 1693,-588 1693,-582 1699,-576 1705,-576 1705,-576 1775,-576 1775,-576 1781,-576 1787,-582 1787,-588 1787,-588 1787,-600 1787,-600 1787,-606 1781,-612 1775,-612"/>
<text text-anchor="middle" x="1740" y="-597" font-family="sans" font-size="10.00" fill="#000000">seqkit_stats</text>
<text text-anchor="middle" x="1740" y="-586" font-family="sans" font-size="10.00" fill="#000000">tool: merge_lanes</text>
</g>
<!-- 6&#45;&gt;1 -->
<g id="edge7" class="edge">
<title>6&#45;&gt;1</title>
<path fill="none" stroke="#c0c0c0" stroke-width="2" d="M1740,-575.8146C1740,-548.4983 1740,-495.25 1740,-450 1740,-450 1740,-450 1740,-234 1740,-178.9804 1703.8015,-169.4082 1655,-144 1598.0082,-114.3276 1406.8897,-98.104 1325.362,-92.3913"/>
<polygon fill="#c0c0c0" stroke="#c0c0c0" stroke-width="2" points="1325.2816,-88.8777 1315.0655,-91.6851 1324.8026,-95.8612 1325.2816,-88.8777"/>
</g>
<!-- 7 -->
<g id="node8" class="node">
<title>7</title>
<path fill="none" stroke="#56a9d8" stroke-width="2" d="M1988,-772C1988,-772 1884,-772 1884,-772 1878,-772 1872,-766 1872,-760 1872,-760 1872,-732 1872,-732 1872,-726 1878,-720 1884,-720 1884,-720 1988,-720 1988,-720 1994,-720 2000,-726 2000,-732 2000,-732 2000,-760 2000,-760 2000,-766 1994,-772 1988,-772"/>
<text text-anchor="middle" x="1936" y="-760" font-family="sans" font-size="10.00" fill="#000000">merge_lanes</text>
<text text-anchor="middle" x="1936" y="-749" font-family="sans" font-size="10.00" fill="#000000">library: lib2</text>
<text text-anchor="middle" x="1936" y="-738" font-family="sans" font-size="10.00" fill="#000000">read_type_trim: collapsed</text>
<text text-anchor="middle" x="1936" y="-727" font-family="sans" font-size="10.00" fill="#000000">sample: HD827sonic_2</text>
</g>
<!-- 7&#45;&gt;6 -->
<g id="edge37" class="edge">
<title>7&#45;&gt;6</title>
<path fill="none" stroke="#c0c0c0" stroke-width="2" d="M1871.95,-729.8005C1843.6756,-720.1474 1811.5816,-705.4791 1788,-684 1769.4937,-667.1436 1756.7896,-641.4612 1749.1226,-621.8396"/>
<polygon fill="#c0c0c0" stroke="#c0c0c0" stroke-width="2" points="1752.3146,-620.3795 1745.5684,-612.21 1745.7476,-622.8034 1752.3146,-620.3795"/>
</g>
<!-- 9 -->
<g id="node10" class="node">
<title>9</title>
<path fill="none" stroke="#d8cb56" stroke-width="2" d="M1879,-684C1879,-684 1809,-684 1809,-684 1803,-684 1797,-678 1797,-672 1797,-672 1797,-660 1797,-660 1797,-654 1803,-648 1809,-648 1809,-648 1879,-648 1879,-648 1885,-648 1891,-654 1891,-660 1891,-660 1891,-672 1891,-672 1891,-678 1885,-684 1879,-684"/>
<text text-anchor="middle" x="1844" y="-669" font-family="sans" font-size="10.00" fill="#000000">nonpareil_infer</text>
<text text-anchor="middle" x="1844" y="-658" font-family="sans" font-size="10.00" fill="#000000">tool: merge_lanes</text>
</g>
<!-- 7&#45;&gt;9 -->
<g id="edge39" class="edge">
<title>7&#45;&gt;9</title>
<path fill="none" stroke="#c0c0c0" stroke-width="2" d="M1905.8758,-719.805C1895.1853,-710.5089 1883.1908,-700.079 1872.6287,-690.8945"/>
<polygon fill="#c0c0c0" stroke="#c0c0c0" stroke-width="2" points="1874.7189,-688.0739 1864.8762,-684.1532 1870.1257,-693.3562 1874.7189,-688.0739"/>
</g>
<!-- 21 -->
<g id="node22" class="node">
<title>21</title>
<path fill="none" stroke="#68d856" stroke-width="2" d="M2006.5,-612C2006.5,-612 1947.5,-612 1947.5,-612 1941.5,-612 1935.5,-606 1935.5,-600 1935.5,-600 1935.5,-588 1935.5,-588 1935.5,-582 1941.5,-576 1947.5,-576 1947.5,-576 2006.5,-576 2006.5,-576 2012.5,-576 2018.5,-582 2018.5,-588 2018.5,-588 2018.5,-600 2018.5,-600 2018.5,-606 2012.5,-612 2006.5,-612"/>
<text text-anchor="middle" x="1977" y="-591.5" font-family="sans" font-size="10.00" fill="#000000">read_extension</text>
</g>
<!-- 7&#45;&gt;21 -->
<g id="edge53" class="edge">
<title>7&#45;&gt;21</title>
<path fill="none" stroke="#c0c0c0" stroke-width="2" d="M1954.8885,-719.8027C1961.5235,-709.2005 1968.253,-696.5205 1972,-684 1978.0102,-663.917 1979.0995,-640.2086 1978.7722,-622.1679"/>
<polygon fill="#c0c0c0" stroke="#c0c0c0" stroke-width="2" points="1982.2648,-621.8876 1978.4296,-612.0113 1975.2688,-622.1237 1982.2648,-621.8876"/>
</g>
<!-- 22 -->
<g id="node23" class="node">
<title>22</title>
<path fill="none" stroke="#d85656" stroke-width="2" d="M1951,-684C1951,-684 1921,-684 1921,-684 1915,-684 1909,-678 1909,-672 1909,-672 1909,-660 1909,-660 1909,-654 1915,-648 1921,-648 1921,-648 1951,-648 1951,-648 1957,-648 1963,-654 1963,-660 1963,-660 1963,-672 1963,-672 1963,-678 1957,-684 1951,-684"/>
<text text-anchor="middle" x="1936" y="-663.5" font-family="sans" font-size="10.00" fill="#000000">loglog</text>
</g>
<!-- 7&#45;&gt;22 -->
<g id="edge55" class="edge">
<title>7&#45;&gt;22</title>
<path fill="none" stroke="#c0c0c0" stroke-width="2" d="M1936,-719.805C1936,-711.6026 1936,-702.5174 1936,-694.1839"/>
<polygon fill="#c0c0c0" stroke="#c0c0c0" stroke-width="2" points="1939.5001,-694.1532 1936,-684.1532 1932.5001,-694.1533 1939.5001,-694.1532"/>
</g>
<!-- 45 -->
<g id="node46" class="node">
<title>45</title>
<path fill="none" stroke="#56d892" stroke-width="2" d="M2235.5,-396C2235.5,-396 2192.5,-396 2192.5,-396 2186.5,-396 2180.5,-390 2180.5,-384 2180.5,-384 2180.5,-372 2180.5,-372 2180.5,-366 2186.5,-360 2192.5,-360 2192.5,-360 2235.5,-360 2235.5,-360 2241.5,-360 2247.5,-366 2247.5,-372 2247.5,-372 2247.5,-384 2247.5,-384 2247.5,-390 2241.5,-396 2235.5,-396"/>
<text text-anchor="middle" x="2214" y="-375.5" font-family="sans" font-size="10.00" fill="#000000">seqkit_grep</text>
</g>
<!-- 7&#45;&gt;45 -->
<g id="edge79" class="edge">
<title>7&#45;&gt;45</title>
<path fill="none" stroke="#c0c0c0" stroke-width="2" d="M2000.3002,-731.4458C2099.8663,-707.0218 2280,-654.4772 2280,-594 2280,-594 2280,-594 2280,-522 2280,-481.1184 2279.2273,-468.5934 2261,-432 2255.9089,-421.7789 2248.4184,-411.9391 2240.9066,-403.5233"/>
<polygon fill="#c0c0c0" stroke="#c0c0c0" stroke-width="2" points="2243.4608,-401.1305 2234.0701,-396.2248 2238.352,-405.9159 2243.4608,-401.1305"/>
</g>
<!-- 8 -->
<g id="node9" class="node">
<title>8</title>
<path fill="none" stroke="#d8a456" stroke-width="2" d="M1870.5,-612C1870.5,-612 1817.5,-612 1817.5,-612 1811.5,-612 1805.5,-606 1805.5,-600 1805.5,-600 1805.5,-588 1805.5,-588 1805.5,-582 1811.5,-576 1817.5,-576 1817.5,-576 1870.5,-576 1870.5,-576 1876.5,-576 1882.5,-582 1882.5,-588 1882.5,-588 1882.5,-600 1882.5,-600 1882.5,-606 1876.5,-612 1870.5,-612"/>
<text text-anchor="middle" x="1844" y="-591.5" font-family="sans" font-size="10.00" fill="#000000">nonpareil_plot</text>
</g>
<!-- 8&#45;&gt;1 -->
<g id="edge8" class="edge">
<title>8&#45;&gt;1</title>
<path fill="none" stroke="#c0c0c0" stroke-width="2" d="M1823.9299,-575.7752C1814.3924,-566.0496 1803.6497,-553.35 1797,-540 1778.7727,-503.4066 1778,-490.8816 1778,-450 1778,-450 1778,-450 1778,-234 1778,-181.3582 1747.2843,-169.0783 1701,-144 1636.3919,-108.9933 1414.0643,-95.5353 1325.165,-91.4749"/>
<polygon fill="#c0c0c0" stroke="#c0c0c0" stroke-width="2" points="1325.1496,-87.9709 1315.0047,-91.0255 1324.8402,-94.964 1325.1496,-87.9709"/>
</g>
<!-- 9&#45;&gt;8 -->
<g id="edge38" class="edge">
<title>9&#45;&gt;8</title>
<path fill="none" stroke="#c0c0c0" stroke-width="2" d="M1844,-647.8314C1844,-640.131 1844,-630.9743 1844,-622.4166"/>
<polygon fill="#c0c0c0" stroke="#c0c0c0" stroke-width="2" points="1847.5001,-622.4132 1844,-612.4133 1840.5001,-622.4133 1847.5001,-622.4132"/>
</g>
<!-- 10 -->
<g id="node11" class="node">
<title>10</title>
<path fill="none" stroke="#d8a456" stroke-width="2" d="M1148.5,-612C1148.5,-612 1095.5,-612 1095.5,-612 1089.5,-612 1083.5,-606 1083.5,-600 1083.5,-600 1083.5,-588 1083.5,-588 1083.5,-582 1089.5,-576 1095.5,-576 1095.5,-576 1148.5,-576 1148.5,-576 1154.5,-576 1160.5,-582 1160.5,-588 1160.5,-588 1160.5,-600 1160.5,-600 1160.5,-606 1154.5,-612 1148.5,-612"/>
<text text-anchor="middle" x="1122" y="-591.5" font-family="sans" font-size="10.00" fill="#000000">nonpareil_plot</text>
</g>
<!-- 10&#45;&gt;1 -->
<g id="edge9" class="edge">
<title>10&#45;&gt;1</title>
<path fill="none" stroke="#c0c0c0" stroke-width="2" d="M1107.3525,-575.6749C1087.9083,-549.4479 1056,-498.9514 1056,-450 1056,-450 1056,-450 1056,-234 1056,-143.3283 1185.5063,-107.7621 1251.0004,-95.573"/>
<polygon fill="#c0c0c0" stroke="#c0c0c0" stroke-width="2" points="1251.6969,-99.0041 1260.9326,-93.8125 1250.4752,-92.1116 1251.6969,-99.0041"/>
</g>
<!-- 11&#45;&gt;10 -->
<g id="edge40" class="edge">
<title>11&#45;&gt;10</title>
<path fill="none" stroke="#c0c0c0" stroke-width="2" d="M1122,-647.8314C1122,-640.131 1122,-630.9743 1122,-622.4166"/>
<polygon fill="#c0c0c0" stroke="#c0c0c0" stroke-width="2" points="1125.5001,-622.4132 1122,-612.4133 1118.5001,-622.4133 1125.5001,-622.4132"/>
</g>
<!-- 12 -->
<g id="node13" class="node">
<title>12</title>
<path fill="none" stroke="#d8a456" stroke-width="2" d="M977.5,-180C977.5,-180 924.5,-180 924.5,-180 918.5,-180 912.5,-174 912.5,-168 912.5,-168 912.5,-156 912.5,-156 912.5,-150 918.5,-144 924.5,-144 924.5,-144 977.5,-144 977.5,-144 983.5,-144 989.5,-150 989.5,-156 989.5,-156 989.5,-168 989.5,-168 989.5,-174 983.5,-180 977.5,-180"/>
<text text-anchor="middle" x="951" y="-159.5" font-family="sans" font-size="10.00" fill="#000000">nonpareil_plot</text>
</g>
<!-- 12&#45;&gt;1 -->
<g id="edge10" class="edge">
<title>12&#45;&gt;1</title>
<path fill="none" stroke="#c0c0c0" stroke-width="2" d="M989.5974,-148.1967C994.4167,-146.6791 999.3016,-145.2381 1004,-144 1091.3121,-120.9928 1196.1637,-103.6537 1250.7825,-95.3787"/>
<polygon fill="#c0c0c0" stroke="#c0c0c0" stroke-width="2" points="1251.328,-98.8361 1260.6988,-93.8925 1250.2905,-91.9134 1251.328,-98.8361"/>
</g>
<!-- 13&#45;&gt;12 -->
<g id="edge42" class="edge">
<title>13&#45;&gt;12</title>
<path fill="none" stroke="#c0c0c0" stroke-width="2" d="M900.9985,-647.6679C910.6853,-620.6028 927,-568.1665 927,-522 927,-522 927,-522 927,-306 927,-265.1433 936.5165,-218.6424 943.5645,-189.8061"/>
<polygon fill="#c0c0c0" stroke="#c0c0c0" stroke-width="2" points="946.9796,-190.5766 946.0272,-180.0247 940.1915,-188.8675 946.9796,-190.5766"/>
</g>
<!-- 14 -->
<g id="node15" class="node">
<title>14</title>
<path fill="none" stroke="#8fd856" stroke-width="2" d="M1174,-396C1174,-396 1096,-396 1096,-396 1090,-396 1084,-390 1084,-384 1084,-384 1084,-372 1084,-372 1084,-366 1090,-360 1096,-360 1096,-360 1174,-360 1174,-360 1180,-360 1186,-366 1186,-372 1186,-372 1186,-384 1186,-384 1186,-390 1180,-396 1174,-396"/>
<text text-anchor="middle" x="1135" y="-381" font-family="sans" font-size="10.00" fill="#000000">seqkit_stats</text>
<text text-anchor="middle" x="1135" y="-370" font-family="sans" font-size="10.00" fill="#000000">tool: extend/tadpole</text>
</g>
<!-- 14&#45;&gt;1 -->
<g id="edge11" class="edge">
<title>14&#45;&gt;1</title>
<path fill="none" stroke="#c0c0c0" stroke-width="2" d="M1135.0927,-359.7189C1136.3148,-316.276 1145.46,-205.8728 1205,-144 1218.452,-130.0209 1236.1733,-117.8728 1251.7856,-108.6579"/>
<polygon fill="#c0c0c0" stroke="#c0c0c0" stroke-width="2" points="1253.7349,-111.5754 1260.6861,-103.5796 1250.2659,-105.4955 1253.7349,-111.5754"/>
</g>
<!-- 15&#45;&gt;14 -->
<g id="edge44" class="edge">
<title>15&#45;&gt;14</title>
<path fill="none" stroke="#c0c0c0" stroke-width="2" d="M1216.8826,-575.7916C1205.0363,-566.3367 1191.7515,-553.8658 1183,-540 1156.4401,-497.9191 1144.0029,-440.4719 1138.6342,-406.502"/>
<polygon fill="#c0c0c0" stroke="#c0c0c0" stroke-width="2" points="1142.0577,-405.7265 1137.1306,-396.347 1135.1332,-406.7518 1142.0577,-405.7265"/>
</g>
<!-- 24 -->
<g id="node25" class="node">
<title>24</title>
<path fill="none" stroke="#d8cb56" stroke-width="2" d="M1282,-540C1282,-540 1204,-540 1204,-540 1198,-540 1192,-534 1192,-528 1192,-528 1192,-516 1192,-516 1192,-510 1198,-504 1204,-504 1204,-504 1282,-504 1282,-504 1288,-504 1294,-510 1294,-516 1294,-516 1294,-528 1294,-528 1294,-534 1288,-540 1282,-540"/>
<text text-anchor="middle" x="1243" y="-525" font-family="sans" font-size="10.00" fill="#000000">nonpareil_infer</text>
<text text-anchor="middle" x="1243" y="-514" font-family="sans" font-size="10.00" fill="#000000">tool: extend/tadpole</text>
</g>
<!-- 15&#45;&gt;24 -->
<g id="edge57" class="edge">
<title>15&#45;&gt;24</title>
<path fill="none" stroke="#c0c0c0" stroke-width="2" d="M1243,-575.8314C1243,-568.131 1243,-558.9743 1243,-550.4166"/>
<polygon fill="#c0c0c0" stroke="#c0c0c0" stroke-width="2" points="1246.5001,-550.4132 1243,-540.4133 1239.5001,-550.4133 1246.5001,-550.4132"/>
</g>
<!-- 32 -->
<g id="node33" class="node">
<title>32</title>
<path fill="none" stroke="#d87d56" stroke-width="2" d="M1379,-540C1379,-540 1349,-540 1349,-540 1343,-540 1337,-534 1337,-528 1337,-528 1337,-516 1337,-516 1337,-510 1343,-504 1349,-504 1349,-504 1379,-504 1379,-504 1385,-504 1391,-510 1391,-516 1391,-516 1391,-528 1391,-528 1391,-534 1385,-540 1379,-540"/>
<text text-anchor="middle" x="1364" y="-519.5" font-family="sans" font-size="10.00" fill="#000000">vsearch</text>
</g>
<!-- 15&#45;&gt;32 -->
<g id="edge65" class="edge">
<title>15&#45;&gt;32</title>
<path fill="none" stroke="#c0c0c0" stroke-width="2" d="M1273.5334,-575.8314C1290.1072,-565.9692 1310.6952,-553.7186 1328.0419,-543.3965"/>
<polygon fill="#c0c0c0" stroke="#c0c0c0" stroke-width="2" points="1329.9754,-546.3189 1336.7793,-538.1975 1326.3958,-540.3033 1329.9754,-546.3189"/>
</g>
<!-- 16&#45;&gt;15 -->
<g id="edge46" class="edge">
<title>16&#45;&gt;15</title>
<path fill="none" stroke="#c0c0c0" stroke-width="2" d="M1221.3179,-647.8314C1224.4876,-639.9617 1228.27,-630.5712 1231.7813,-621.8533"/>
<polygon fill="#c0c0c0" stroke="#c0c0c0" stroke-width="2" points="1235.0939,-622.9968 1235.5835,-612.4133 1228.6008,-620.3815 1235.0939,-622.9968"/>
</g>
<!-- 17 -->
<g id="node18" class="node">
<title>17</title>
<path fill="none" stroke="#8fd856" stroke-width="2" d="M770,-180C770,-180 692,-180 692,-180 686,-180 680,-174 680,-168 680,-168 680,-156 680,-156 680,-150 686,-144 692,-144 692,-144 770,-144 770,-144 776,-144 782,-150 782,-156 782,-156 782,-168 782,-168 782,-174 776,-180 770,-180"/>
<text text-anchor="middle" x="731" y="-165" font-family="sans" font-size="10.00" fill="#000000">seqkit_stats</text>
<text text-anchor="middle" x="731" y="-154" font-family="sans" font-size="10.00" fill="#000000">tool: extend/tadpole</text>
</g>
<!-- 17&#45;&gt;1 -->
<g id="edge12" class="edge">
<title>17&#45;&gt;1</title>
<path fill="none" stroke="#c0c0c0" stroke-width="2" d="M782.23,-145.9577C785.1838,-145.2431 788.1221,-144.5829 791,-144 960.5057,-109.6674 1167.2524,-96.0651 1250.565,-91.7223"/>
<polygon fill="#c0c0c0" stroke="#c0c0c0" stroke-width="2" points="1250.9855,-95.2056 1260.7955,-91.2037 1250.631,-88.2146 1250.9855,-95.2056"/>
</g>
<!-- 18&#45;&gt;17 -->
<g id="edge48" class="edge">
<title>18&#45;&gt;17</title>
<path fill="none" stroke="#c0c0c0" stroke-width="2" d="M704.9985,-575.6679C714.6853,-548.6028 731,-496.1665 731,-450 731,-450 731,-450 731,-306 731,-265.876 731,-219.4631 731,-190.4177"/>
<polygon fill="#c0c0c0" stroke="#c0c0c0" stroke-width="2" points="734.5001,-190.1853 731,-180.1854 727.5001,-190.1854 734.5001,-190.1853"/>
</g>
<!-- 28 -->
<g id="node29" class="node">
<title>28</title>
<path fill="none" stroke="#d8cb56" stroke-width="2" d="M525,-540C525,-540 447,-540 447,-540 441,-540 435,-534 435,-528 435,-528 435,-516 435,-516 435,-510 441,-504 447,-504 447,-504 525,-504 525,-504 531,-504 537,-510 537,-516 537,-516 537,-528 537,-528 537,-534 531,-540 525,-540"/>
<text text-anchor="middle" x="486" y="-525" font-family="sans" font-size="10.00" fill="#000000">nonpareil_infer</text>
<text text-anchor="middle" x="486" y="-514" font-family="sans" font-size="10.00" fill="#000000">tool: extend/tadpole</text>
</g>
<!-- 18&#45;&gt;28 -->
<g id="edge61" class="edge">
<title>18&#45;&gt;28</title>
<path fill="none" stroke="#c0c0c0" stroke-width="2" d="M656.3686,-579.861C625.1754,-569.2671 582.0135,-554.6083 546.9392,-542.6963"/>
<polygon fill="#c0c0c0" stroke="#c0c0c0" stroke-width="2" points="547.8719,-539.3168 537.2776,-539.415 545.6208,-545.945 547.8719,-539.3168"/>
</g>
<!-- 30 -->
<g id="node31" class="node">
<title>30</title>
<path fill="none" stroke="#d87d56" stroke-width="2" d="M632,-540C632,-540 602,-540 602,-540 596,-540 590,-534 590,-528 590,-528 590,-516 590,-516 590,-510 596,-504 602,-504 602,-504 632,-504 632,-504 638,-504 644,-510 644,-516 644,-516 644,-528 644,-528 644,-534 638,-540 632,-540"/>
<text text-anchor="middle" x="617" y="-519.5" font-family="sans" font-size="10.00" fill="#000000">vsearch</text>
</g>
<!-- 18&#45;&gt;30 -->
<g id="edge63" class="edge">
<title>18&#45;&gt;30</title>
<path fill="none" stroke="#c0c0c0" stroke-width="2" d="M677.5603,-575.8314C667.6795,-567.0485 655.6676,-556.3712 644.955,-546.8489"/>
<polygon fill="#c0c0c0" stroke="#c0c0c0" stroke-width="2" points="647.2326,-544.1906 637.4332,-540.1628 642.582,-549.4224 647.2326,-544.1906"/>
</g>
<!-- 19&#45;&gt;18 -->
<g id="edge50" class="edge">
<title>19&#45;&gt;18</title>
<path fill="none" stroke="#c0c0c0" stroke-width="2" d="M698,-647.8314C698,-640.131 698,-630.9743 698,-622.4166"/>
<polygon fill="#c0c0c0" stroke="#c0c0c0" stroke-width="2" points="701.5001,-622.4132 698,-612.4133 694.5001,-622.4133 701.5001,-622.4132"/>
</g>
<!-- 20 -->
<g id="node21" class="node">
<title>20</title>
<path fill="none" stroke="#8fd856" stroke-width="2" d="M1896,-540C1896,-540 1818,-540 1818,-540 1812,-540 1806,-534 1806,-528 1806,-528 1806,-516 1806,-516 1806,-510 1812,-504 1818,-504 1818,-504 1896,-504 1896,-504 1902,-504 1908,-510 1908,-516 1908,-516 1908,-528 1908,-528 1908,-534 1902,-540 1896,-540"/>
<text text-anchor="middle" x="1857" y="-525" font-family="sans" font-size="10.00" fill="#000000">seqkit_stats</text>
<text text-anchor="middle" x="1857" y="-514" font-family="sans" font-size="10.00" fill="#000000">tool: extend/tadpole</text>
</g>
<!-- 20&#45;&gt;1 -->
<g id="edge13" class="edge">
<title>20&#45;&gt;1</title>
<path fill="none" stroke="#c0c0c0" stroke-width="2" d="M1848.305,-503.8324C1836.2698,-476.9721 1816,-424.7885 1816,-378 1816,-378 1816,-378 1816,-234 1816,-192.6022 1823.4359,-170.9363 1792,-144 1756.6783,-113.7342 1435.9193,-96.6275 1325.2998,-91.5883"/>
<polygon fill="#c0c0c0" stroke="#c0c0c0" stroke-width="2" points="1325.4142,-88.09 1315.2674,-91.1383 1325.1004,-95.083 1325.4142,-88.09"/>
</g>
<!-- 21&#45;&gt;20 -->
<g id="edge52" class="edge">
<title>21&#45;&gt;20</title>
<path fill="none" stroke="#c0c0c0" stroke-width="2" d="M1946.7189,-575.8314C1931.3702,-566.6221 1912.5502,-555.3301 1896.1177,-545.4706"/>
<polygon fill="#c0c0c0" stroke="#c0c0c0" stroke-width="2" points="1897.6471,-542.3066 1887.2714,-540.1628 1894.0456,-548.3091 1897.6471,-542.3066"/>
</g>
<!-- 26 -->
<g id="node27" class="node">
<title>26</title>
<path fill="none" stroke="#d8cb56" stroke-width="2" d="M2016,-540C2016,-540 1938,-540 1938,-540 1932,-540 1926,-534 1926,-528 1926,-528 1926,-516 1926,-516 1926,-510 1932,-504 1938,-504 1938,-504 2016,-504 2016,-504 2022,-504 2028,-510 2028,-516 2028,-516 2028,-528 2028,-528 2028,-534 2022,-540 2016,-540"/>
<text text-anchor="middle" x="1977" y="-525" font-family="sans" font-size="10.00" fill="#000000">nonpareil_infer</text>
<text text-anchor="middle" x="1977" y="-514" font-family="sans" font-size="10.00" fill="#000000">tool: extend/tadpole</text>
</g>
<!-- 21&#45;&gt;26 -->
<g id="edge59" class="edge">
<title>21&#45;&gt;26</title>
<path fill="none" stroke="#c0c0c0" stroke-width="2" d="M1977,-575.8314C1977,-568.131 1977,-558.9743 1977,-550.4166"/>
<polygon fill="#c0c0c0" stroke="#c0c0c0" stroke-width="2" points="1980.5001,-550.4132 1977,-540.4133 1973.5001,-550.4133 1980.5001,-550.4132"/>
</g>
<!-- 34 -->
<g id="node35" class="node">
<title>34</title>
<path fill="none" stroke="#d87d56" stroke-width="2" d="M2106,-540C2106,-540 2076,-540 2076,-540 2070,-540 2064,-534 2064,-528 2064,-528 2064,-516 2064,-516 2064,-510 2070,-504 2076,-504 2076,-504 2106,-504 2106,-504 2112,-504 2118,-510 2118,-516 2118,-516 2118,-528 2118,-528 2118,-534 2112,-540 2106,-540"/>
<text text-anchor="middle" x="2091" y="-519.5" font-family="sans" font-size="10.00" fill="#000000">vsearch</text>
</g>
<!-- 21&#45;&gt;34 -->
<g id="edge67" class="edge">
<title>21&#45;&gt;34</title>
<path fill="none" stroke="#c0c0c0" stroke-width="2" d="M2005.767,-575.8314C2020.7935,-566.3409 2039.3223,-554.6386 2055.2617,-544.5716"/>
<polygon fill="#c0c0c0" stroke="#c0c0c0" stroke-width="2" points="2057.2259,-547.4707 2063.8119,-539.1715 2053.488,-541.5522 2057.2259,-547.4707"/>
</g>
<!-- 22&#45;&gt;21 -->
<g id="edge54" class="edge">
<title>22&#45;&gt;21</title>
<path fill="none" stroke="#c0c0c0" stroke-width="2" d="M1946.346,-647.8314C1950.9237,-639.7925 1956.4052,-630.1666 1961.4588,-621.2918"/>
<polygon fill="#c0c0c0" stroke="#c0c0c0" stroke-width="2" points="1964.6077,-622.8351 1966.5147,-612.4133 1958.5248,-619.3712 1964.6077,-622.8351"/>
</g>
<!-- 23 -->
<g id="node24" class="node">
<title>23</title>
<path fill="none" stroke="#d8a456" stroke-width="2" d="M1269.5,-396C1269.5,-396 1216.5,-396 1216.5,-396 1210.5,-396 1204.5,-390 1204.5,-384 1204.5,-384 1204.5,-372 1204.5,-372 1204.5,-366 1210.5,-360 1216.5,-360 1216.5,-360 1269.5,-360 1269.5,-360 1275.5,-360 1281.5,-366 1281.5,-372 1281.5,-372 1281.5,-384 1281.5,-384 1281.5,-390 1275.5,-396 1269.5,-396"/>
<text text-anchor="middle" x="1243" y="-375.5" font-family="sans" font-size="10.00" fill="#000000">nonpareil_plot</text>
</g>
<!-- 23&#45;&gt;1 -->
<g id="edge14" class="edge">
<title>23&#45;&gt;1</title>
<path fill="none" stroke="#c0c0c0" stroke-width="2" d="M1204.4329,-360.2339C1182.0835,-349.0589 1157.1657,-334.7684 1151,-324 1143.0498,-310.115 1146.2542,-303.28 1151,-288 1172.7861,-217.8558 1229.2069,-150.7227 1262.4543,-115.5125"/>
<polygon fill="#c0c0c0" stroke="#c0c0c0" stroke-width="2" points="1265.1819,-117.725 1269.5752,-108.0839 1260.1286,-112.8809 1265.1819,-117.725"/>
</g>
<!-- 24&#45;&gt;23 -->
<g id="edge56" class="edge">
<title>24&#45;&gt;23</title>
<path fill="none" stroke="#c0c0c0" stroke-width="2" d="M1243,-503.7623C1243,-479.201 1243,-435.2474 1243,-406.3541"/>
<polygon fill="#c0c0c0" stroke="#c0c0c0" stroke-width="2" points="1246.5001,-406.0896 1243,-396.0896 1239.5001,-406.0897 1246.5001,-406.0896"/>
</g>
<!-- 25 -->
<g id="node26" class="node">
<title>25</title>
<path fill="none" stroke="#d8a456" stroke-width="2" d="M1909.5,-468C1909.5,-468 1856.5,-468 1856.5,-468 1850.5,-468 1844.5,-462 1844.5,-456 1844.5,-456 1844.5,-444 1844.5,-444 1844.5,-438 1850.5,-432 1856.5,-432 1856.5,-432 1909.5,-432 1909.5,-432 1915.5,-432 1921.5,-438 1921.5,-444 1921.5,-444 1921.5,-456 1921.5,-456 1921.5,-462 1915.5,-468 1909.5,-468"/>
<text text-anchor="middle" x="1883" y="-447.5" font-family="sans" font-size="10.00" fill="#000000">nonpareil_plot</text>
</g>
<!-- 25&#45;&gt;1 -->
<g id="edge15" class="edge">
<title>25&#45;&gt;1</title>
<path fill="none" stroke="#c0c0c0" stroke-width="2" d="M1876.8498,-431.5984C1868.3372,-404.4466 1854,-351.9035 1854,-306 1854,-306 1854,-306 1854,-234 1854,-192.6022 1861.5358,-170.8192 1830,-144 1791.6234,-111.3631 1441.5802,-95.6438 1325.3318,-91.2917"/>
<polygon fill="#c0c0c0" stroke="#c0c0c0" stroke-width="2" points="1325.2665,-87.787 1315.1446,-90.9171 1325.0093,-94.7823 1325.2665,-87.787"/>
</g>
<!-- 26&#45;&gt;25 -->
<g id="edge58" class="edge">
<title>26&#45;&gt;25</title>
<path fill="none" stroke="#c0c0c0" stroke-width="2" d="M1953.2798,-503.8314C1941.5906,-494.8779 1927.3312,-483.9558 1914.7191,-474.2955"/>
<polygon fill="#c0c0c0" stroke="#c0c0c0" stroke-width="2" points="1916.7797,-471.4651 1906.7126,-468.1628 1912.5231,-477.0222 1916.7797,-471.4651"/>
</g>
<!-- 27 -->
<g id="node28" class="node">
<title>27</title>
<path fill="none" stroke="#d8a456" stroke-width="2" d="M502.5,-396C502.5,-396 449.5,-396 449.5,-396 443.5,-396 437.5,-390 437.5,-384 437.5,-384 437.5,-372 437.5,-372 437.5,-366 443.5,-360 449.5,-360 449.5,-360 502.5,-360 502.5,-360 508.5,-360 514.5,-366 514.5,-372 514.5,-372 514.5,-384 514.5,-384 514.5,-390 508.5,-396 502.5,-396"/>
<text text-anchor="middle" x="476" y="-375.5" font-family="sans" font-size="10.00" fill="#000000">nonpareil_plot</text>
</g>
<!-- 27&#45;&gt;1 -->
<g id="edge16" class="edge">
<title>27&#45;&gt;1</title>
<path fill="none" stroke="#c0c0c0" stroke-width="2" d="M481.0014,-359.7884C487.5057,-335.4234 498.7698,-290.7849 505,-252 508.8227,-228.2024 497.7655,-160.8496 515,-144 541.5966,-117.9974 1099.3128,-96.6153 1250.4876,-91.2814"/>
<polygon fill="#c0c0c0" stroke="#c0c0c0" stroke-width="2" points="1250.7854,-94.7732 1260.6567,-90.9252 1250.5403,-87.7775 1250.7854,-94.7732"/>
</g>
<!-- 28&#45;&gt;27 -->
<g id="edge60" class="edge">
<title>28&#45;&gt;27</title>
<path fill="none" stroke="#c0c0c0" stroke-width="2" d="M475.5441,-503.6605C470.3542,-493.5026 464.6409,-480.4443 462,-468 457.6095,-447.311 461.6282,-423.6735 466.4677,-405.8158"/>
<polygon fill="#c0c0c0" stroke="#c0c0c0" stroke-width="2" points="469.8804,-406.6171 469.3545,-396.0354 463.1667,-404.6354 469.8804,-406.6171"/>
</g>
<!-- 29 -->
<g id="node30" class="node">
<title>29</title>
<path fill="none" stroke="#8fd856" stroke-width="2" d="M612,-180C612,-180 536,-180 536,-180 530,-180 524,-174 524,-168 524,-168 524,-156 524,-156 524,-150 530,-144 536,-144 536,-144 612,-144 612,-144 618,-144 624,-150 624,-156 624,-156 624,-168 624,-168 624,-174 618,-180 612,-180"/>
<text text-anchor="middle" x="574" y="-165" font-family="sans" font-size="10.00" fill="#000000">seqkit_stats</text>
<text text-anchor="middle" x="574" y="-154" font-family="sans" font-size="10.00" fill="#000000">tool: derep/vsearch</text>
</g>
<!-- 29&#45;&gt;1 -->
<g id="edge17" class="edge">
<title>29&#45;&gt;1</title>
<path fill="none" stroke="#c0c0c0" stroke-width="2" d="M624.097,-146.9321C628.7703,-145.823 633.4565,-144.8199 638,-144 868.3585,-102.4322 1150.5195,-92.7854 1250.6193,-90.6117"/>
<polygon fill="#c0c0c0" stroke="#c0c0c0" stroke-width="2" points="1250.8988,-94.1068 1260.825,-90.4027 1250.7554,-87.1083 1250.8988,-94.1068"/>
</g>
<!-- 30&#45;&gt;29 -->
<g id="edge62" class="edge">
<title>30&#45;&gt;29</title>
<path fill="none" stroke="#c0c0c0" stroke-width="2" d="M608.0929,-503.8553C595.7642,-477.0234 575,-424.875 575,-378 575,-378 575,-378 575,-306 575,-265.875 574.6069,-219.4624 574.3137,-190.4173"/>
<polygon fill="#c0c0c0" stroke="#c0c0c0" stroke-width="2" points="577.8112,-190.1481 574.2072,-180.1851 570.8115,-190.221 577.8112,-190.1481"/>
</g>
<!-- 40 -->
<g id="node41" class="node">
<title>40</title>
<path fill="none" stroke="#d8cb56" stroke-width="2" d="M691,-468C691,-468 615,-468 615,-468 609,-468 603,-462 603,-456 603,-456 603,-444 603,-444 603,-438 609,-432 615,-432 615,-432 691,-432 691,-432 697,-432 703,-438 703,-444 703,-444 703,-456 703,-456 703,-462 697,-468 691,-468"/>
<text text-anchor="middle" x="653" y="-453" font-family="sans" font-size="10.00" fill="#000000">nonpareil_infer</text>
<text text-anchor="middle" x="653" y="-442" font-family="sans" font-size="10.00" fill="#000000">tool: derep/vsearch</text>
</g>
<!-- 30&#45;&gt;40 -->
<g id="edge73" class="edge">
<title>30&#45;&gt;40</title>
<path fill="none" stroke="#c0c0c0" stroke-width="2" d="M626.0843,-503.8314C630.0615,-495.8771 634.8155,-486.369 639.2139,-477.5723"/>
<polygon fill="#c0c0c0" stroke="#c0c0c0" stroke-width="2" points="642.4517,-478.9228 643.7934,-468.4133 636.1907,-475.7923 642.4517,-478.9228"/>
</g>
<!-- 43 -->
<g id="node44" class="node">
<title>43</title>
<path fill="none" stroke="#56d86b" stroke-width="2" d="M534.5,-468C534.5,-468 483.5,-468 483.5,-468 477.5,-468 471.5,-462 471.5,-456 471.5,-456 471.5,-444 471.5,-444 471.5,-438 477.5,-432 483.5,-432 483.5,-432 534.5,-432 534.5,-432 540.5,-432 546.5,-438 546.5,-444 546.5,-444 546.5,-456 546.5,-456 546.5,-462 540.5,-468 534.5,-468"/>
<text text-anchor="middle" x="509" y="-453" font-family="sans" font-size="10.00" fill="#000000">seqkit_fx2tab</text>
<text text-anchor="middle" x="509" y="-442" font-family="sans" font-size="10.00" fill="#000000">tool: vsearch</text>
</g>
<!-- 30&#45;&gt;43 -->
<g id="edge77" class="edge">
<title>30&#45;&gt;43</title>
<path fill="none" stroke="#c0c0c0" stroke-width="2" d="M589.747,-503.8314C576.0611,-494.7074 559.3085,-483.539 544.6173,-473.7449"/>
<polygon fill="#c0c0c0" stroke="#c0c0c0" stroke-width="2" points="546.5062,-470.7977 536.2442,-468.1628 542.6233,-476.6221 546.5062,-470.7977"/>
</g>
<!-- 31 -->
<g id="node32" class="node">
<title>31</title>
<path fill="none" stroke="#8fd856" stroke-width="2" d="M1248,-324C1248,-324 1172,-324 1172,-324 1166,-324 1160,-318 1160,-312 1160,-312 1160,-300 1160,-300 1160,-294 1166,-288 1172,-288 1172,-288 1248,-288 1248,-288 1254,-288 1260,-294 1260,-300 1260,-300 1260,-312 1260,-312 1260,-318 1254,-324 1248,-324"/>
<text text-anchor="middle" x="1210" y="-309" font-family="sans" font-size="10.00" fill="#000000">seqkit_stats</text>
<text text-anchor="middle" x="1210" y="-298" font-family="sans" font-size="10.00" fill="#000000">tool: derep/vsearch</text>
</g>
<!-- 31&#45;&gt;1 -->
<g id="edge18" class="edge">
<title>31&#45;&gt;1</title>
<path fill="none" stroke="#c0c0c0" stroke-width="2" d="M1215.7547,-287.9937C1221.6368,-269.7701 1231.1407,-240.8185 1240,-216 1252.158,-181.9406 1267.123,-143.1014 1277.0791,-117.6557"/>
<polygon fill="#c0c0c0" stroke="#c0c0c0" stroke-width="2" points="1280.3661,-118.8605 1280.7609,-108.273 1273.8499,-116.3034 1280.3661,-118.8605"/>
</g>
<!-- 32&#45;&gt;31 -->
<g id="edge64" class="edge">
<title>32&#45;&gt;31</title>
<path fill="none" stroke="#c0c0c0" stroke-width="2" d="M1350.5933,-503.6317C1343.5643,-493.4655 1335.1601,-480.4083 1329,-468 1306.3068,-422.2893 1321.3619,-400.2601 1290,-360 1280.7128,-348.0778 1268.0404,-337.8538 1255.5205,-329.6112"/>
<polygon fill="#c0c0c0" stroke="#c0c0c0" stroke-width="2" points="1257.2535,-326.5669 1246.9208,-324.2248 1253.5378,-332.4993 1257.2535,-326.5669"/>
</g>
<!-- 38 -->
<g id="node39" class="node">
<title>38</title>
<path fill="none" stroke="#d8cb56" stroke-width="2" d="M1426,-468C1426,-468 1350,-468 1350,-468 1344,-468 1338,-462 1338,-456 1338,-456 1338,-444 1338,-444 1338,-438 1344,-432 1350,-432 1350,-432 1426,-432 1426,-432 1432,-432 1438,-438 1438,-444 1438,-444 1438,-456 1438,-456 1438,-462 1432,-468 1426,-468"/>
<text text-anchor="middle" x="1388" y="-453" font-family="sans" font-size="10.00" fill="#000000">nonpareil_infer</text>
<text text-anchor="middle" x="1388" y="-442" font-family="sans" font-size="10.00" fill="#000000">tool: derep/vsearch</text>
</g>
<!-- 32&#45;&gt;38 -->
<g id="edge71" class="edge">
<title>32&#45;&gt;38</title>
<path fill="none" stroke="#c0c0c0" stroke-width="2" d="M1370.0562,-503.8314C1372.6512,-496.0463 1375.7424,-486.7729 1378.6218,-478.1347"/>
<polygon fill="#c0c0c0" stroke="#c0c0c0" stroke-width="2" points="1382.0203,-479.0069 1381.8622,-468.4133 1375.3795,-476.7933 1382.0203,-479.0069"/>
</g>
<!-- 49 -->
<g id="node50" class="node">
<title>49</title>
<path fill="none" stroke="#56d86b" stroke-width="2" d="M1519.5,-468C1519.5,-468 1468.5,-468 1468.5,-468 1462.5,-468 1456.5,-462 1456.5,-456 1456.5,-456 1456.5,-444 1456.5,-444 1456.5,-438 1462.5,-432 1468.5,-432 1468.5,-432 1519.5,-432 1519.5,-432 1525.5,-432 1531.5,-438 1531.5,-444 1531.5,-444 1531.5,-456 1531.5,-456 1531.5,-462 1525.5,-468 1519.5,-468"/>
<text text-anchor="middle" x="1494" y="-453" font-family="sans" font-size="10.00" fill="#000000">seqkit_fx2tab</text>
<text text-anchor="middle" x="1494" y="-442" font-family="sans" font-size="10.00" fill="#000000">tool: vsearch</text>
</g>
<!-- 32&#45;&gt;49 -->
<g id="edge85" class="edge">
<title>32&#45;&gt;49</title>
<path fill="none" stroke="#c0c0c0" stroke-width="2" d="M1391.2523,-506.9064C1408.9431,-497.1084 1432.3429,-484.1486 1452.3427,-473.0718"/>
<polygon fill="#c0c0c0" stroke="#c0c0c0" stroke-width="2" points="1454.2076,-476.0399 1461.2598,-468.133 1450.8161,-469.9163 1454.2076,-476.0399"/>
</g>
<!-- 33 -->
<g id="node34" class="node">
<title>33</title>
<path fill="none" stroke="#8fd856" stroke-width="2" d="M2028,-468C2028,-468 1952,-468 1952,-468 1946,-468 1940,-462 1940,-456 1940,-456 1940,-444 1940,-444 1940,-438 1946,-432 1952,-432 1952,-432 2028,-432 2028,-432 2034,-432 2040,-438 2040,-444 2040,-444 2040,-456 2040,-456 2040,-462 2034,-468 2028,-468"/>
<text text-anchor="middle" x="1990" y="-453" font-family="sans" font-size="10.00" fill="#000000">seqkit_stats</text>
<text text-anchor="middle" x="1990" y="-442" font-family="sans" font-size="10.00" fill="#000000">tool: derep/vsearch</text>
</g>
<!-- 33&#45;&gt;1 -->
<g id="edge19" class="edge">
<title>33&#45;&gt;1</title>
<path fill="none" stroke="#c0c0c0" stroke-width="2" d="M1966.7754,-431.7681C1937.7954,-406.78 1892,-358.9204 1892,-306 1892,-306 1892,-306 1892,-234 1892,-190.9187 1890.4899,-169.8156 1856,-144 1813.5656,-112.238 1445.0274,-95.8392 1325.3561,-91.3167"/>
<polygon fill="#c0c0c0" stroke="#c0c0c0" stroke-width="2" points="1325.3397,-87.8138 1315.2165,-90.9396 1325.0795,-94.809 1325.3397,-87.8138"/>
</g>
<!-- 34&#45;&gt;33 -->
<g id="edge66" class="edge">
<title>34&#45;&gt;33</title>
<path fill="none" stroke="#c0c0c0" stroke-width="2" d="M2065.5134,-503.8314C2052.8341,-494.7927 2037.3404,-483.7476 2023.6945,-474.0198"/>
<polygon fill="#c0c0c0" stroke="#c0c0c0" stroke-width="2" points="2025.6529,-471.1176 2015.4784,-468.1628 2021.5895,-476.8176 2025.6529,-471.1176"/>
</g>
<!-- 36 -->
<g id="node37" class="node">
<title>36</title>
<path fill="none" stroke="#d8cb56" stroke-width="2" d="M2146,-468C2146,-468 2070,-468 2070,-468 2064,-468 2058,-462 2058,-456 2058,-456 2058,-444 2058,-444 2058,-438 2064,-432 2070,-432 2070,-432 2146,-432 2146,-432 2152,-432 2158,-438 2158,-444 2158,-444 2158,-456 2158,-456 2158,-462 2152,-468 2146,-468"/>
<text text-anchor="middle" x="2108" y="-453" font-family="sans" font-size="10.00" fill="#000000">nonpareil_infer</text>
<text text-anchor="middle" x="2108" y="-442" font-family="sans" font-size="10.00" fill="#000000">tool: derep/vsearch</text>
</g>
<!-- 34&#45;&gt;36 -->
<g id="edge69" class="edge">
<title>34&#45;&gt;36</title>
<path fill="none" stroke="#c0c0c0" stroke-width="2" d="M2095.2898,-503.8314C2097.108,-496.131 2099.2699,-486.9743 2101.2905,-478.4166"/>
<polygon fill="#c0c0c0" stroke="#c0c0c0" stroke-width="2" points="2104.7608,-478.95 2103.6524,-468.4133 2097.9481,-477.3414 2104.7608,-478.95"/>
</g>
<!-- 46 -->
<g id="node47" class="node">
<title>46</title>
<path fill="none" stroke="#56d86b" stroke-width="2" d="M2239.5,-468C2239.5,-468 2188.5,-468 2188.5,-468 2182.5,-468 2176.5,-462 2176.5,-456 2176.5,-456 2176.5,-444 2176.5,-444 2176.5,-438 2182.5,-432 2188.5,-432 2188.5,-432 2239.5,-432 2239.5,-432 2245.5,-432 2251.5,-438 2251.5,-444 2251.5,-444 2251.5,-456 2251.5,-456 2251.5,-462 2245.5,-468 2239.5,-468"/>
<text text-anchor="middle" x="2214" y="-453" font-family="sans" font-size="10.00" fill="#000000">seqkit_fx2tab</text>
<text text-anchor="middle" x="2214" y="-442" font-family="sans" font-size="10.00" fill="#000000">tool: vsearch</text>
</g>
<!-- 34&#45;&gt;46 -->
<g id="edge81" class="edge">
<title>34&#45;&gt;46</title>
<path fill="none" stroke="#c0c0c0" stroke-width="2" d="M2118.2977,-506.0209C2134.7197,-496.408 2155.9124,-484.0025 2174.179,-473.3099"/>
<polygon fill="#c0c0c0" stroke="#c0c0c0" stroke-width="2" points="2176.0155,-476.2905 2182.8775,-468.2181 2172.4792,-470.2494 2176.0155,-476.2905"/>
</g>
<!-- 35 -->
<g id="node36" class="node">
<title>35</title>
<path fill="none" stroke="#d8a456" stroke-width="2" d="M2060.5,-396C2060.5,-396 2007.5,-396 2007.5,-396 2001.5,-396 1995.5,-390 1995.5,-384 1995.5,-384 1995.5,-372 1995.5,-372 1995.5,-366 2001.5,-360 2007.5,-360 2007.5,-360 2060.5,-360 2060.5,-360 2066.5,-360 2072.5,-366 2072.5,-372 2072.5,-372 2072.5,-384 2072.5,-384 2072.5,-390 2066.5,-396 2060.5,-396"/>
<text text-anchor="middle" x="2034" y="-375.5" font-family="sans" font-size="10.00" fill="#000000">nonpareil_plot</text>
</g>
<!-- 35&#45;&gt;1 -->
<g id="edge20" class="edge">
<title>35&#45;&gt;1</title>
<path fill="none" stroke="#c0c0c0" stroke-width="2" d="M1995.2392,-361.5643C1978.6967,-352.7081 1960.575,-340.2251 1949,-324 1901.2319,-257.0415 1968.2832,-197.7218 1906,-144 1861.9696,-106.022 1452.4424,-93.6911 1325.4011,-90.7627"/>
<polygon fill="#c0c0c0" stroke="#c0c0c0" stroke-width="2" points="1325.1049,-87.2553 1315.0289,-90.5302 1324.9479,-94.2535 1325.1049,-87.2553"/>
</g>
<!-- 36&#45;&gt;35 -->
<g id="edge68" class="edge">
<title>36&#45;&gt;35</title>
<path fill="none" stroke="#c0c0c0" stroke-width="2" d="M2089.3267,-431.8314C2080.4751,-423.219 2069.7514,-412.7851 2060.1105,-403.4048"/>
<polygon fill="#c0c0c0" stroke="#c0c0c0" stroke-width="2" points="2062.2754,-400.6279 2052.6674,-396.1628 2057.3939,-405.645 2062.2754,-400.6279"/>
</g>
<!-- 37 -->
<g id="node38" class="node">
<title>37</title>
<path fill="none" stroke="#d8a456" stroke-width="2" d="M1314.5,-252C1314.5,-252 1261.5,-252 1261.5,-252 1255.5,-252 1249.5,-246 1249.5,-240 1249.5,-240 1249.5,-228 1249.5,-228 1249.5,-222 1255.5,-216 1261.5,-216 1261.5,-216 1314.5,-216 1314.5,-216 1320.5,-216 1326.5,-222 1326.5,-228 1326.5,-228 1326.5,-240 1326.5,-240 1326.5,-246 1320.5,-252 1314.5,-252"/>
<text text-anchor="middle" x="1288" y="-231.5" font-family="sans" font-size="10.00" fill="#000000">nonpareil_plot</text>
</g>
<!-- 37&#45;&gt;1 -->
<g id="edge21" class="edge">
<title>37&#45;&gt;1</title>
<path fill="none" stroke="#c0c0c0" stroke-width="2" d="M1288,-215.7623C1288,-191.201 1288,-147.2474 1288,-118.3541"/>
<polygon fill="#c0c0c0" stroke="#c0c0c0" stroke-width="2" points="1291.5001,-118.0896 1288,-108.0896 1284.5001,-118.0897 1291.5001,-118.0896"/>
</g>
<!-- 38&#45;&gt;37 -->
<g id="edge70" class="edge">
<title>38&#45;&gt;37</title>
<path fill="none" stroke="#c0c0c0" stroke-width="2" d="M1373.3674,-431.9776C1355.074,-408.527 1324.0917,-365.6159 1307,-324 1298.8348,-304.1189 1294.0036,-280.2669 1291.2575,-262.1141"/>
<polygon fill="#c0c0c0" stroke="#c0c0c0" stroke-width="2" points="1294.717,-261.5799 1289.8722,-252.1577 1287.7838,-262.5446 1294.717,-261.5799"/>
</g>
<!-- 39 -->
<g id="node40" class="node">
<title>39</title>
<path fill="none" stroke="#d8a456" stroke-width="2" d="M678.5,-396C678.5,-396 625.5,-396 625.5,-396 619.5,-396 613.5,-390 613.5,-384 613.5,-384 613.5,-372 613.5,-372 613.5,-366 619.5,-360 625.5,-360 625.5,-360 678.5,-360 678.5,-360 684.5,-360 690.5,-366 690.5,-372 690.5,-372 690.5,-384 690.5,-384 690.5,-390 684.5,-396 678.5,-396"/>
<text text-anchor="middle" x="652" y="-375.5" font-family="sans" font-size="10.00" fill="#000000">nonpareil_plot</text>
</g>
<!-- 39&#45;&gt;1 -->
<g id="edge22" class="edge">
<title>39&#45;&gt;1</title>
<path fill="none" stroke="#c0c0c0" stroke-width="2" d="M646.6928,-359.9356C635.0138,-315.9959 612.5342,-202.8341 671,-144 711.9617,-102.7803 1123.6995,-92.6696 1250.8201,-90.5213"/>
<polygon fill="#c0c0c0" stroke="#c0c0c0" stroke-width="2" points="1250.9099,-94.0204 1260.8518,-90.3585 1250.7962,-87.0213 1250.9099,-94.0204"/>
</g>
<!-- 40&#45;&gt;39 -->
<g id="edge72" class="edge">
<title>40&#45;&gt;39</title>
<path fill="none" stroke="#c0c0c0" stroke-width="2" d="M652.7477,-431.8314C652.6407,-424.131 652.5135,-414.9743 652.3947,-406.4166"/>
<polygon fill="#c0c0c0" stroke="#c0c0c0" stroke-width="2" points="655.8944,-406.3637 652.2557,-396.4133 648.8951,-406.4609 655.8944,-406.3637"/>
</g>
<!-- 41 -->
<g id="node42" class="node">
<title>41</title>
<path fill="none" stroke="#8fd856" stroke-width="2" d="M126,-180C126,-180 12,-180 12,-180 6,-180 0,-174 0,-168 0,-168 0,-156 0,-156 0,-150 6,-144 12,-144 12,-144 126,-144 126,-144 132,-144 138,-150 138,-156 138,-156 138,-168 138,-168 138,-174 132,-180 126,-180"/>
<text text-anchor="middle" x="69" y="-165" font-family="sans" font-size="10.00" fill="#000000">seqkit_stats</text>
<text text-anchor="middle" x="69" y="-154" font-family="sans" font-size="10.00" fill="#000000">tool: represent/grep/vsearch</text>
</g>
<!-- 41&#45;&gt;1 -->
<g id="edge23" class="edge">
<title>41&#45;&gt;1</title>
<path fill="none" stroke="#c0c0c0" stroke-width="2" d="M138.2027,-145.3515C141.1672,-144.8531 144.1089,-144.3987 147,-144 367.5658,-113.5818 1079.0584,-94.9793 1250.553,-90.8675"/>
<polygon fill="#c0c0c0" stroke="#c0c0c0" stroke-width="2" points="1250.6913,-94.3653 1260.6052,-90.6284 1250.5248,-87.3673 1250.6913,-94.3653"/>
</g>
<!-- 42&#45;&gt;41 -->
<g id="edge74" class="edge">
<title>42&#45;&gt;41</title>
<path fill="none" stroke="#c0c0c0" stroke-width="2" d="M290.3396,-373.2915C238.272,-365.357 141.6217,-347.8253 117,-324 80.4162,-288.5994 71.3745,-226.7455 69.3453,-190.5737"/>
<polygon fill="#c0c0c0" stroke="#c0c0c0" stroke-width="2" points="72.8279,-190.0772 68.9179,-180.2302 65.8338,-190.3662 72.8279,-190.0772"/>
</g>
<!-- 51 -->
<g id="node52" class="node">
<title>51</title>
<path fill="none" stroke="#d8cb56" stroke-width="2" d="M252,-324C252,-324 138,-324 138,-324 132,-324 126,-318 126,-312 126,-312 126,-300 126,-300 126,-294 132,-288 138,-288 138,-288 252,-288 252,-288 258,-288 264,-294 264,-300 264,-300 264,-312 264,-312 264,-318 258,-324 252,-324"/>
<text text-anchor="middle" x="195" y="-309" font-family="sans" font-size="10.00" fill="#000000">nonpareil_infer</text>
<text text-anchor="middle" x="195" y="-298" font-family="sans" font-size="10.00" fill="#000000">tool: represent/grep/vsearch</text>
</g>
<!-- 42&#45;&gt;51 -->
<g id="edge87" class="edge">
<title>42&#45;&gt;51</title>
<path fill="none" stroke="#c0c0c0" stroke-width="2" d="M291.4479,-359.8314C274.7952,-350.5368 254.3415,-339.1208 236.5615,-329.1971"/>
<polygon fill="#c0c0c0" stroke="#c0c0c0" stroke-width="2" points="237.9795,-325.9803 227.5417,-324.1628 234.5679,-332.0927 237.9795,-325.9803"/>
</g>
<!-- 59 -->
<g id="node60" class="node">
<title>59</title>
<path fill="none" stroke="#56d0d8" stroke-width="2" d="M354,-324C354,-324 294,-324 294,-324 288,-324 282,-318 282,-312 282,-312 282,-300 282,-300 282,-294 288,-288 294,-288 294,-288 354,-288 354,-288 360,-288 366,-294 366,-300 366,-300 366,-312 366,-312 366,-318 360,-324 354,-324"/>
<text text-anchor="middle" x="324" y="-303.5" font-family="sans" font-size="10.00" fill="#000000">low_complexity</text>
</g>
<!-- 42&#45;&gt;59 -->
<g id="edge95" class="edge">
<title>42&#45;&gt;59</title>
<path fill="none" stroke="#c0c0c0" stroke-width="2" d="M324,-359.8314C324,-352.131 324,-342.9743 324,-334.4166"/>
<polygon fill="#c0c0c0" stroke="#c0c0c0" stroke-width="2" points="327.5001,-334.4132 324,-324.4133 320.5001,-334.4133 327.5001,-334.4132"/>
</g>
<!-- 43&#45;&gt;42 -->
<g id="edge76" class="edge">
<title>43&#45;&gt;42</title>
<path fill="none" stroke="#c0c0c0" stroke-width="2" d="M471.1161,-435.256C440.9388,-423.5113 398.6788,-407.0642 367.1908,-394.8094"/>
<polygon fill="#c0c0c0" stroke="#c0c0c0" stroke-width="2" points="368.3783,-391.5159 357.7898,-391.1506 365.8395,-398.0393 368.3783,-391.5159"/>
</g>
<!-- 44 -->
<g id="node45" class="node">
<title>44</title>
<path fill="none" stroke="#8fd856" stroke-width="2" d="M2084,-324C2084,-324 1970,-324 1970,-324 1964,-324 1958,-318 1958,-312 1958,-312 1958,-300 1958,-300 1958,-294 1964,-288 1970,-288 1970,-288 2084,-288 2084,-288 2090,-288 2096,-294 2096,-300 2096,-300 2096,-312 2096,-312 2096,-318 2090,-324 2084,-324"/>
<text text-anchor="middle" x="2027" y="-309" font-family="sans" font-size="10.00" fill="#000000">seqkit_stats</text>
<text text-anchor="middle" x="2027" y="-298" font-family="sans" font-size="10.00" fill="#000000">tool: represent/grep/vsearch</text>
</g>
<!-- 44&#45;&gt;1 -->
<g id="edge24" class="edge">
<title>44&#45;&gt;1</title>
<path fill="none" stroke="#c0c0c0" stroke-width="2" d="M2011.678,-287.8153C2003.6448,-277.7028 1994.04,-264.6384 1987,-252 1961.8584,-206.8654 1985.5321,-174.7298 1944,-144 1894.137,-107.1061 1456.9824,-93.9504 1325.3472,-90.8054"/>
<polygon fill="#c0c0c0" stroke="#c0c0c0" stroke-width="2" points="1325.4176,-87.3062 1315.3386,-90.5716 1325.2541,-94.3042 1325.4176,-87.3062"/>
</g>
<!-- 45&#45;&gt;44 -->
<g id="edge78" class="edge">
<title>45&#45;&gt;44</title>
<path fill="none" stroke="#c0c0c0" stroke-width="2" d="M2180.1357,-364.9613C2153.2376,-354.6049 2115.0385,-339.8972 2083.5216,-327.7623"/>
<polygon fill="#c0c0c0" stroke="#c0c0c0" stroke-width="2" points="2084.5647,-324.4135 2073.9749,-324.0866 2082.0494,-330.946 2084.5647,-324.4135"/>
</g>
<!-- 55 -->
<g id="node56" class="node">
<title>55</title>
<path fill="none" stroke="#d8cb56" stroke-width="2" d="M2240,-324C2240,-324 2126,-324 2126,-324 2120,-324 2114,-318 2114,-312 2114,-312 2114,-300 2114,-300 2114,-294 2120,-288 2126,-288 2126,-288 2240,-288 2240,-288 2246,-288 2252,-294 2252,-300 2252,-300 2252,-312 2252,-312 2252,-318 2246,-324 2240,-324"/>
<text text-anchor="middle" x="2183" y="-309" font-family="sans" font-size="10.00" fill="#000000">nonpareil_infer</text>
<text text-anchor="middle" x="2183" y="-298" font-family="sans" font-size="10.00" fill="#000000">tool: represent/grep/vsearch</text>
</g>
<!-- 45&#45;&gt;55 -->
<g id="edge91" class="edge">
<title>45&#45;&gt;55</title>
<path fill="none" stroke="#c0c0c0" stroke-width="2" d="M2206.1774,-359.8314C2202.7891,-351.9617 2198.7459,-342.5712 2194.9924,-333.8533"/>
<polygon fill="#c0c0c0" stroke="#c0c0c0" stroke-width="2" points="2198.0973,-332.214 2190.9279,-324.4133 2191.6679,-334.9822 2198.0973,-332.214"/>
</g>
<!-- 57 -->
<g id="node58" class="node">
<title>57</title>
<path fill="none" stroke="#56d0d8" stroke-width="2" d="M2342,-324C2342,-324 2282,-324 2282,-324 2276,-324 2270,-318 2270,-312 2270,-312 2270,-300 2270,-300 2270,-294 2276,-288 2282,-288 2282,-288 2342,-288 2342,-288 2348,-288 2354,-294 2354,-300 2354,-300 2354,-312 2354,-312 2354,-318 2348,-324 2342,-324"/>
<text text-anchor="middle" x="2312" y="-303.5" font-family="sans" font-size="10.00" fill="#000000">low_complexity</text>
</g>
<!-- 45&#45;&gt;57 -->
<g id="edge93" class="edge">
<title>45&#45;&gt;57</title>
<path fill="none" stroke="#c0c0c0" stroke-width="2" d="M2238.7295,-359.8314C2250.9162,-350.8779 2265.7823,-339.9558 2278.9312,-330.2955"/>
<polygon fill="#c0c0c0" stroke="#c0c0c0" stroke-width="2" points="2281.2918,-332.9042 2287.2784,-324.1628 2277.1473,-327.263 2281.2918,-332.9042"/>
</g>
<!-- 46&#45;&gt;45 -->
<g id="edge80" class="edge">
<title>46&#45;&gt;45</title>
<path fill="none" stroke="#c0c0c0" stroke-width="2" d="M2214,-431.8314C2214,-424.131 2214,-414.9743 2214,-406.4166"/>
<polygon fill="#c0c0c0" stroke="#c0c0c0" stroke-width="2" points="2217.5001,-406.4132 2214,-396.4133 2210.5001,-406.4133 2217.5001,-406.4132"/>
</g>
<!-- 47 -->
<g id="node48" class="node">
<title>47</title>
<path fill="none" stroke="#8fd856" stroke-width="2" d="M1442,-324C1442,-324 1328,-324 1328,-324 1322,-324 1316,-318 1316,-312 1316,-312 1316,-300 1316,-300 1316,-294 1322,-288 1328,-288 1328,-288 1442,-288 1442,-288 1448,-288 1454,-294 1454,-300 1454,-300 1454,-312 1454,-312 1454,-318 1448,-324 1442,-324"/>
<text text-anchor="middle" x="1385" y="-309" font-family="sans" font-size="10.00" fill="#000000">seqkit_stats</text>
<text text-anchor="middle" x="1385" y="-298" font-family="sans" font-size="10.00" fill="#000000">tool: represent/grep/vsearch</text>
</g>
<!-- 47&#45;&gt;1 -->
<g id="edge25" class="edge">
<title>47&#45;&gt;1</title>
<path fill="none" stroke="#c0c0c0" stroke-width="2" d="M1376.8967,-287.9555C1359.886,-250.0762 1320.3701,-162.0818 1300.2481,-117.274"/>
<polygon fill="#c0c0c0" stroke="#c0c0c0" stroke-width="2" points="1303.438,-115.8336 1296.1485,-108.1451 1297.0523,-118.7013 1303.438,-115.8336"/>
</g>
<!-- 48&#45;&gt;47 -->
<g id="edge82" class="edge">
<title>48&#45;&gt;47</title>
<path fill="none" stroke="#c0c0c0" stroke-width="2" d="M1507.1503,-362.3771C1485.5534,-352.4092 1457.223,-339.3337 1433.2837,-328.2848"/>
<polygon fill="#c0c0c0" stroke="#c0c0c0" stroke-width="2" points="1434.5548,-325.0167 1424.0085,-324.0039 1431.6214,-331.3724 1434.5548,-325.0167"/>
</g>
<!-- 53 -->
<g id="node54" class="node">
<title>53</title>
<path fill="none" stroke="#d8cb56" stroke-width="2" d="M1598,-324C1598,-324 1484,-324 1484,-324 1478,-324 1472,-318 1472,-312 1472,-312 1472,-300 1472,-300 1472,-294 1478,-288 1484,-288 1484,-288 1598,-288 1598,-288 1604,-288 1610,-294 1610,-300 1610,-300 1610,-312 1610,-312 1610,-318 1604,-324 1598,-324"/>
<text text-anchor="middle" x="1541" y="-309" font-family="sans" font-size="10.00" fill="#000000">nonpareil_infer</text>
<text text-anchor="middle" x="1541" y="-298" font-family="sans" font-size="10.00" fill="#000000">tool: represent/grep/vsearch</text>
</g>
<!-- 48&#45;&gt;53 -->
<g id="edge89" class="edge">
<title>48&#45;&gt;53</title>
<path fill="none" stroke="#c0c0c0" stroke-width="2" d="M1541,-359.8314C1541,-352.131 1541,-342.9743 1541,-334.4166"/>
<polygon fill="#c0c0c0" stroke="#c0c0c0" stroke-width="2" points="1544.5001,-334.4132 1541,-324.4133 1537.5001,-334.4133 1544.5001,-334.4132"/>
</g>
<!-- 61 -->
<g id="node62" class="node">
<title>61</title>
<path fill="none" stroke="#56d0d8" stroke-width="2" d="M1700,-324C1700,-324 1640,-324 1640,-324 1634,-324 1628,-318 1628,-312 1628,-312 1628,-300 1628,-300 1628,-294 1634,-288 1640,-288 1640,-288 1700,-288 1700,-288 1706,-288 1712,-294 1712,-300 1712,-300 1712,-312 1712,-312 1712,-318 1706,-324 1700,-324"/>
<text text-anchor="middle" x="1670" y="-303.5" font-family="sans" font-size="10.00" fill="#000000">low_complexity</text>
</g>
<!-- 48&#45;&gt;61 -->
<g id="edge97" class="edge">
<title>48&#45;&gt;61</title>
<path fill="none" stroke="#c0c0c0" stroke-width="2" d="M1573.5521,-359.8314C1590.2048,-350.5368 1610.6585,-339.1208 1628.4385,-329.1971"/>
<polygon fill="#c0c0c0" stroke="#c0c0c0" stroke-width="2" points="1630.4321,-332.0927 1637.4583,-324.1628 1627.0205,-325.9803 1630.4321,-332.0927"/>
</g>
<!-- 49&#45;&gt;48 -->
<g id="edge84" class="edge">
<title>49&#45;&gt;48</title>
<path fill="none" stroke="#c0c0c0" stroke-width="2" d="M1505.8601,-431.8314C1511.1629,-423.7079 1517.5237,-413.9637 1523.3673,-405.0118"/>
<polygon fill="#c0c0c0" stroke="#c0c0c0" stroke-width="2" points="1526.4448,-406.7003 1528.9802,-396.4133 1520.5831,-402.8739 1526.4448,-406.7003"/>
</g>
<!-- 50 -->
<g id="node51" class="node">
<title>50</title>
<path fill="none" stroke="#d8a456" stroke-width="2" d="M221.5,-180C221.5,-180 168.5,-180 168.5,-180 162.5,-180 156.5,-174 156.5,-168 156.5,-168 156.5,-156 156.5,-156 156.5,-150 162.5,-144 168.5,-144 168.5,-144 221.5,-144 221.5,-144 227.5,-144 233.5,-150 233.5,-156 233.5,-156 233.5,-168 233.5,-168 233.5,-174 227.5,-180 221.5,-180"/>
<text text-anchor="middle" x="195" y="-159.5" font-family="sans" font-size="10.00" fill="#000000">nonpareil_plot</text>
</g>
<!-- 50&#45;&gt;1 -->
<g id="edge26" class="edge">
<title>50&#45;&gt;1</title>
<path fill="none" stroke="#c0c0c0" stroke-width="2" d="M233.58,-156.1988C261.2061,-152.2329 299.3207,-147.1444 333,-144 689.6256,-110.7043 1123.2249,-95.1817 1250.9428,-91.1185"/>
<polygon fill="#c0c0c0" stroke="#c0c0c0" stroke-width="2" points="1251.0955,-94.6156 1260.9805,-90.8029 1250.8754,-87.619 1251.0955,-94.6156"/>
</g>
<!-- 51&#45;&gt;50 -->
<g id="edge86" class="edge">
<title>51&#45;&gt;50</title>
<path fill="none" stroke="#c0c0c0" stroke-width="2" d="M195,-287.7623C195,-263.201 195,-219.2474 195,-190.3541"/>
<polygon fill="#c0c0c0" stroke="#c0c0c0" stroke-width="2" points="198.5001,-190.0896 195,-180.0896 191.5001,-190.0897 198.5001,-190.0896"/>
</g>
<!-- 52 -->
<g id="node53" class="node">
<title>52</title>
<path fill="none" stroke="#d8a456" stroke-width="2" d="M1450.5,-252C1450.5,-252 1397.5,-252 1397.5,-252 1391.5,-252 1385.5,-246 1385.5,-240 1385.5,-240 1385.5,-228 1385.5,-228 1385.5,-222 1391.5,-216 1397.5,-216 1397.5,-216 1450.5,-216 1450.5,-216 1456.5,-216 1462.5,-222 1462.5,-228 1462.5,-228 1462.5,-240 1462.5,-240 1462.5,-246 1456.5,-252 1450.5,-252"/>
<text text-anchor="middle" x="1424" y="-231.5" font-family="sans" font-size="10.00" fill="#000000">nonpareil_plot</text>
</g>
<!-- 52&#45;&gt;1 -->
<g id="edge27" class="edge">
<title>52&#45;&gt;1</title>
<path fill="none" stroke="#c0c0c0" stroke-width="2" d="M1416.104,-215.8409C1407.0277,-196.439 1390.6833,-165.5693 1370,-144 1356.7846,-130.2185 1339.4346,-118.1587 1324.0985,-108.9524"/>
<polygon fill="#c0c0c0" stroke="#c0c0c0" stroke-width="2" points="1325.7532,-105.866 1315.348,-103.8703 1322.2376,-111.9192 1325.7532,-105.866"/>
</g>
<!-- 53&#45;&gt;52 -->
<g id="edge88" class="edge">
<title>53&#45;&gt;52</title>
<path fill="none" stroke="#c0c0c0" stroke-width="2" d="M1511.476,-287.8314C1496.5109,-278.6221 1478.1614,-267.3301 1462.1397,-257.4706"/>
<polygon fill="#c0c0c0" stroke="#c0c0c0" stroke-width="2" points="1463.8655,-254.423 1453.5146,-252.1628 1460.1968,-260.3847 1463.8655,-254.423"/>
</g>
<!-- 54 -->
<g id="node55" class="node">
<title>54</title>
<path fill="none" stroke="#d8a456" stroke-width="2" d="M2061.5,-252C2061.5,-252 2008.5,-252 2008.5,-252 2002.5,-252 1996.5,-246 1996.5,-240 1996.5,-240 1996.5,-228 1996.5,-228 1996.5,-222 2002.5,-216 2008.5,-216 2008.5,-216 2061.5,-216 2061.5,-216 2067.5,-216 2073.5,-222 2073.5,-228 2073.5,-228 2073.5,-240 2073.5,-240 2073.5,-246 2067.5,-252 2061.5,-252"/>
<text text-anchor="middle" x="2035" y="-231.5" font-family="sans" font-size="10.00" fill="#000000">nonpareil_plot</text>
</g>
<!-- 54&#45;&gt;1 -->
<g id="edge28" class="edge">
<title>54&#45;&gt;1</title>
<path fill="none" stroke="#c0c0c0" stroke-width="2" d="M2029.9277,-215.8807C2022.9403,-194.6567 2008.1483,-160.3253 1982,-144 1926.1072,-109.1042 1461.7547,-94.4736 1325.4656,-90.906"/>
<polygon fill="#c0c0c0" stroke="#c0c0c0" stroke-width="2" points="1325.2161,-87.3985 1315.1294,-90.6403 1325.0361,-94.3962 1325.2161,-87.3985"/>
</g>
<!-- 55&#45;&gt;54 -->
<g id="edge90" class="edge">
<title>55&#45;&gt;54</title>
<path fill="none" stroke="#c0c0c0" stroke-width="2" d="M2145.6534,-287.8314C2126.1231,-278.3302 2102.0359,-266.6121 2081.3269,-256.5374"/>
<polygon fill="#c0c0c0" stroke="#c0c0c0" stroke-width="2" points="2082.6016,-253.2654 2072.0781,-252.038 2079.5393,-259.56 2082.6016,-253.2654"/>
</g>
<!-- 56 -->
<g id="node57" class="node">
<title>56</title>
<path fill="none" stroke="#8fd856" stroke-width="2" d="M2186,-252C2186,-252 2104,-252 2104,-252 2098,-252 2092,-246 2092,-240 2092,-240 2092,-228 2092,-228 2092,-222 2098,-216 2104,-216 2104,-216 2186,-216 2186,-216 2192,-216 2198,-222 2198,-228 2198,-228 2198,-240 2198,-240 2198,-246 2192,-252 2186,-252"/>
<text text-anchor="middle" x="2145" y="-237" font-family="sans" font-size="10.00" fill="#000000">seqkit_stats</text>
<text text-anchor="middle" x="2145" y="-226" font-family="sans" font-size="10.00" fill="#000000">tool: low_complexity</text>
</g>
<!-- 56&#45;&gt;1 -->
<g id="edge29" class="edge">
<title>56&#45;&gt;1</title>
<path fill="none" stroke="#c0c0c0" stroke-width="2" d="M2125.212,-215.6243C2100.7277,-194.1479 2056.7665,-159.5681 2012,-144 1883.1782,-99.2007 1454.7488,-91.5542 1325.337,-90.2607"/>
<polygon fill="#c0c0c0" stroke="#c0c0c0" stroke-width="2" points="1325.1771,-86.7591 1315.145,-90.166 1325.112,-93.7588 1325.1771,-86.7591"/>
</g>
<!-- 57&#45;&gt;0 -->
<g id="edge3" class="edge">
<title>57&#45;&gt;0</title>
<path fill="none" stroke="#c0c0c0" stroke-width="2" d="M2339.4894,-287.7646C2350.8848,-278.5451 2362.8597,-266.2754 2369,-252 2388.3215,-207.0802 2382.5795,-178.5741 2348,-144 2268.9532,-64.9655 1911.9959,-30.2029 1794.5724,-20.7711"/>
<polygon fill="#c0c0c0" stroke="#c0c0c0" stroke-width="2" points="1794.5351,-17.2574 1784.2911,-19.9612 1793.9853,-24.2358 1794.5351,-17.2574"/>
</g>
<!-- 57&#45;&gt;56 -->
<g id="edge92" class="edge">
<title>57&#45;&gt;56</title>
<path fill="none" stroke="#c0c0c0" stroke-width="2" d="M2269.8588,-287.8314C2247.5236,-278.2018 2219.9064,-266.295 2196.329,-256.1299"/>
<polygon fill="#c0c0c0" stroke="#c0c0c0" stroke-width="2" points="2197.4067,-252.7831 2186.8381,-252.038 2194.6353,-259.2112 2197.4067,-252.7831"/>
</g>
<!-- 63 -->
<g id="node64" class="node">
<title>63</title>
<path fill="none" stroke="#d8cb56" stroke-width="2" d="M2348,-252C2348,-252 2266,-252 2266,-252 2260,-252 2254,-246 2254,-240 2254,-240 2254,-228 2254,-228 2254,-222 2260,-216 2266,-216 2266,-216 2348,-216 2348,-216 2354,-216 2360,-222 2360,-228 2360,-228 2360,-240 2360,-240 2360,-246 2354,-252 2348,-252"/>
<text text-anchor="middle" x="2307" y="-237" font-family="sans" font-size="10.00" fill="#000000">nonpareil_infer</text>
<text text-anchor="middle" x="2307" y="-226" font-family="sans" font-size="10.00" fill="#000000">tool: low_complexity</text>
</g>
<!-- 57&#45;&gt;63 -->
<g id="edge99" class="edge">
<title>57&#45;&gt;63</title>
<path fill="none" stroke="#c0c0c0" stroke-width="2" d="M2310.7383,-287.8314C2310.2035,-280.131 2309.5677,-270.9743 2308.9734,-262.4166"/>
<polygon fill="#c0c0c0" stroke="#c0c0c0" stroke-width="2" points="2312.4632,-262.1467 2308.2787,-252.4133 2305.48,-262.6317 2312.4632,-262.1467"/>
</g>
<!-- 58 -->
<g id="node59" class="node">
<title>58</title>
<path fill="none" stroke="#8fd856" stroke-width="2" d="M360,-252C360,-252 278,-252 278,-252 272,-252 266,-246 266,-240 266,-240 266,-228 266,-228 266,-222 272,-216 278,-216 278,-216 360,-216 360,-216 366,-216 372,-222 372,-228 372,-228 372,-240 372,-240 372,-246 366,-252 360,-252"/>
<text text-anchor="middle" x="319" y="-237" font-family="sans" font-size="10.00" fill="#000000">seqkit_stats</text>
<text text-anchor="middle" x="319" y="-226" font-family="sans" font-size="10.00" fill="#000000">tool: low_complexity</text>
</g>
<!-- 58&#45;&gt;1 -->
<g id="edge30" class="edge">
<title>58&#45;&gt;1</title>
<path fill="none" stroke="#c0c0c0" stroke-width="2" d="M325.7778,-215.7181C334.7829,-194.3341 352.9049,-159.8452 381,-144 457.5582,-100.8224 1088.2983,-91.8965 1250.2263,-90.3096"/>
<polygon fill="#c0c0c0" stroke="#c0c0c0" stroke-width="2" points="1250.6667,-93.8057 1260.6332,-90.2115 1250.6006,-86.806 1250.6667,-93.8057"/>
</g>
<!-- 59&#45;&gt;0 -->
<g id="edge2" class="edge">
<title>59&#45;&gt;0</title>
<path fill="none" stroke="#c0c0c0" stroke-width="2" d="M290.4003,-287.8076C277.4596,-278.8793 264.092,-266.8246 257,-252 250.0952,-237.5666 250.2719,-230.5166 257,-216 277.8191,-171.0809 296.3184,-163.088 342,-144 601.6247,-35.5162 1522.572,-20.3191 1719.6903,-18.2972"/>
<polygon fill="#c0c0c0" stroke="#c0c0c0" stroke-width="2" points="1719.8614,-21.7958 1729.8269,-18.1985 1719.7932,-14.7961 1719.8614,-21.7958"/>
</g>
<!-- 59&#45;&gt;58 -->
<g id="edge94" class="edge">
<title>59&#45;&gt;58</title>
<path fill="none" stroke="#c0c0c0" stroke-width="2" d="M322.7383,-287.8314C322.2035,-280.131 321.5677,-270.9743 320.9734,-262.4166"/>
<polygon fill="#c0c0c0" stroke="#c0c0c0" stroke-width="2" points="324.4632,-262.1467 320.2787,-252.4133 317.48,-262.6317 324.4632,-262.1467"/>
</g>
<!-- 67 -->
<g id="node68" class="node">
<title>67</title>
<path fill="none" stroke="#d8cb56" stroke-width="2" d="M484,-252C484,-252 402,-252 402,-252 396,-252 390,-246 390,-240 390,-240 390,-228 390,-228 390,-222 396,-216 402,-216 402,-216 484,-216 484,-216 490,-216 496,-222 496,-228 496,-228 496,-240 496,-240 496,-246 490,-252 484,-252"/>
<text text-anchor="middle" x="443" y="-237" font-family="sans" font-size="10.00" fill="#000000">nonpareil_infer</text>
<text text-anchor="middle" x="443" y="-226" font-family="sans" font-size="10.00" fill="#000000">tool: low_complexity</text>
</g>
<!-- 59&#45;&gt;67 -->
<g id="edge103" class="edge">
<title>59&#45;&gt;67</title>
<path fill="none" stroke="#c0c0c0" stroke-width="2" d="M354.0287,-287.8314C369.2496,-278.6221 387.9128,-267.3301 404.2083,-257.4706"/>
<polygon fill="#c0c0c0" stroke="#c0c0c0" stroke-width="2" points="406.2369,-260.3341 412.9809,-252.1628 402.6132,-254.345 406.2369,-260.3341"/>
</g>
<!-- 60 -->
<g id="node61" class="node">
<title>60</title>
<path fill="none" stroke="#8fd856" stroke-width="2" d="M1576,-252C1576,-252 1494,-252 1494,-252 1488,-252 1482,-246 1482,-240 1482,-240 1482,-228 1482,-228 1482,-222 1488,-216 1494,-216 1494,-216 1576,-216 1576,-216 1582,-216 1588,-222 1588,-228 1588,-228 1588,-240 1588,-240 1588,-246 1582,-252 1576,-252"/>
<text text-anchor="middle" x="1535" y="-237" font-family="sans" font-size="10.00" fill="#000000">seqkit_stats</text>
<text text-anchor="middle" x="1535" y="-226" font-family="sans" font-size="10.00" fill="#000000">tool: low_complexity</text>
</g>
<!-- 60&#45;&gt;1 -->
<g id="edge31" class="edge">
<title>60&#45;&gt;1</title>
<path fill="none" stroke="#c0c0c0" stroke-width="2" d="M1509.3729,-215.978C1482.0864,-197.1024 1437.3609,-167.0522 1397,-144 1373.358,-130.4969 1345.8843,-116.8989 1324.4342,-106.7263"/>
<polygon fill="#c0c0c0" stroke="#c0c0c0" stroke-width="2" points="1325.8777,-103.5375 1315.3392,-102.4466 1322.8973,-109.8713 1325.8777,-103.5375"/>
</g>
<!-- 61&#45;&gt;0 -->
<g id="edge4" class="edge">
<title>61&#45;&gt;0</title>
<path fill="none" stroke="#c0c0c0" stroke-width="2" d="M1712.4083,-303.2799C1836.3682,-295.1277 2190.4224,-270.3283 2207,-252 2335.1202,-110.35 1923.0908,-40.7503 1794.2479,-22.795"/>
<polygon fill="#c0c0c0" stroke="#c0c0c0" stroke-width="2" points="1794.4535,-19.2906 1784.0713,-21.4027 1793.5045,-26.226 1794.4535,-19.2906"/>
</g>
<!-- 61&#45;&gt;60 -->
<g id="edge96" class="edge">
<title>61&#45;&gt;60</title>
<path fill="none" stroke="#c0c0c0" stroke-width="2" d="M1635.9338,-287.8314C1618.3467,-278.4516 1596.7084,-266.9112 1577.9832,-256.9244"/>
<polygon fill="#c0c0c0" stroke="#c0c0c0" stroke-width="2" points="1579.5259,-253.7805 1569.0553,-252.1628 1576.2318,-259.957 1579.5259,-253.7805"/>
</g>
<!-- 65 -->
<g id="node66" class="node">
<title>65</title>
<path fill="none" stroke="#d8cb56" stroke-width="2" d="M1700,-252C1700,-252 1618,-252 1618,-252 1612,-252 1606,-246 1606,-240 1606,-240 1606,-228 1606,-228 1606,-222 1612,-216 1618,-216 1618,-216 1700,-216 1700,-216 1706,-216 1712,-222 1712,-228 1712,-228 1712,-240 1712,-240 1712,-246 1706,-252 1700,-252"/>
<text text-anchor="middle" x="1659" y="-237" font-family="sans" font-size="10.00" fill="#000000">nonpareil_infer</text>
<text text-anchor="middle" x="1659" y="-226" font-family="sans" font-size="10.00" fill="#000000">tool: low_complexity</text>
</g>
<!-- 61&#45;&gt;65 -->
<g id="edge101" class="edge">
<title>61&#45;&gt;65</title>
<path fill="none" stroke="#c0c0c0" stroke-width="2" d="M1667.2242,-287.8314C1666.0478,-280.131 1664.6489,-270.9743 1663.3414,-262.4166"/>
<polygon fill="#c0c0c0" stroke="#c0c0c0" stroke-width="2" points="1666.7833,-261.7699 1661.8131,-252.4133 1659.8636,-262.8272 1666.7833,-261.7699"/>
</g>
<!-- 62 -->
<g id="node63" class="node">
<title>62</title>
<path fill="none" stroke="#d8a456" stroke-width="2" d="M2326.5,-180C2326.5,-180 2273.5,-180 2273.5,-180 2267.5,-180 2261.5,-174 2261.5,-168 2261.5,-168 2261.5,-156 2261.5,-156 2261.5,-150 2267.5,-144 2273.5,-144 2273.5,-144 2326.5,-144 2326.5,-144 2332.5,-144 2338.5,-150 2338.5,-156 2338.5,-156 2338.5,-168 2338.5,-168 2338.5,-174 2332.5,-180 2326.5,-180"/>
<text text-anchor="middle" x="2300" y="-159.5" font-family="sans" font-size="10.00" fill="#000000">nonpareil_plot</text>
</g>
<!-- 62&#45;&gt;1 -->
<g id="edge32" class="edge">
<title>62&#45;&gt;1</title>
<path fill="none" stroke="#c0c0c0" stroke-width="2" d="M2261.2646,-157.8428C2224.0514,-153.936 2166.2257,-148.0934 2116,-144 1811.0804,-119.149 1442.2462,-98.3672 1325.3827,-92.0054"/>
<polygon fill="#c0c0c0" stroke="#c0c0c0" stroke-width="2" points="1325.359,-88.499 1315.1841,-91.452 1324.9797,-95.4887 1325.359,-88.499"/>
</g>
<!-- 63&#45;&gt;62 -->
<g id="edge98" class="edge">
<title>63&#45;&gt;62</title>
<path fill="none" stroke="#c0c0c0" stroke-width="2" d="M2305.2336,-215.8314C2304.485,-208.131 2303.5947,-198.9743 2302.7627,-190.4166"/>
<polygon fill="#c0c0c0" stroke="#c0c0c0" stroke-width="2" points="2306.2415,-190.0276 2301.7902,-180.4133 2299.2744,-190.7051 2306.2415,-190.0276"/>
</g>
<!-- 64 -->
<g id="node65" class="node">
<title>64</title>
<path fill="none" stroke="#d8a456" stroke-width="2" d="M1634.5,-180C1634.5,-180 1581.5,-180 1581.5,-180 1575.5,-180 1569.5,-174 1569.5,-168 1569.5,-168 1569.5,-156 1569.5,-156 1569.5,-150 1575.5,-144 1581.5,-144 1581.5,-144 1634.5,-144 1634.5,-144 1640.5,-144 1646.5,-150 1646.5,-156 1646.5,-156 1646.5,-168 1646.5,-168 1646.5,-174 1640.5,-180 1634.5,-180"/>
<text text-anchor="middle" x="1608" y="-159.5" font-family="sans" font-size="10.00" fill="#000000">nonpareil_plot</text>
</g>
<!-- 64&#45;&gt;1 -->
<g id="edge33" class="edge">
<title>64&#45;&gt;1</title>
<path fill="none" stroke="#c0c0c0" stroke-width="2" d="M1569.4005,-153.3151C1507.3302,-139.3493 1386.1265,-112.0785 1325.054,-98.3371"/>
<polygon fill="#c0c0c0" stroke="#c0c0c0" stroke-width="2" points="1325.6059,-94.8739 1315.0815,-96.0933 1324.0692,-101.7032 1325.6059,-94.8739"/>
</g>
<!-- 65&#45;&gt;64 -->
<g id="edge100" class="edge">
<title>65&#45;&gt;64</title>
<path fill="none" stroke="#c0c0c0" stroke-width="2" d="M1646.1305,-215.8314C1640.3165,-207.6232 1633.3304,-197.7606 1626.9354,-188.7323"/>
<polygon fill="#c0c0c0" stroke="#c0c0c0" stroke-width="2" points="1629.679,-186.5505 1621.0427,-180.4133 1623.9669,-190.5966 1629.679,-186.5505"/>
</g>
<!-- 66 -->
<g id="node67" class="node">
<title>66</title>
<path fill="none" stroke="#d8a456" stroke-width="2" d="M455.5,-180C455.5,-180 402.5,-180 402.5,-180 396.5,-180 390.5,-174 390.5,-168 390.5,-168 390.5,-156 390.5,-156 390.5,-150 396.5,-144 402.5,-144 402.5,-144 455.5,-144 455.5,-144 461.5,-144 467.5,-150 467.5,-156 467.5,-156 467.5,-168 467.5,-168 467.5,-174 461.5,-180 455.5,-180"/>
<text text-anchor="middle" x="429" y="-159.5" font-family="sans" font-size="10.00" fill="#000000">nonpareil_plot</text>
</g>
<!-- 66&#45;&gt;1 -->
<g id="edge34" class="edge">
<title>66&#45;&gt;1</title>
<path fill="none" stroke="#c0c0c0" stroke-width="2" d="M467.7593,-147.5553C472.507,-146.1678 477.3306,-144.9327 482,-144 632.2875,-113.9811 1113.4275,-95.8599 1250.9603,-91.2012"/>
<polygon fill="#c0c0c0" stroke="#c0c0c0" stroke-width="2" points="1251.1207,-94.6979 1260.9978,-90.8645 1250.886,-87.7018 1251.1207,-94.6979"/>
</g>
<!-- 67&#45;&gt;66 -->
<g id="edge102" class="edge">
<title>67&#45;&gt;66</title>
<path fill="none" stroke="#c0c0c0" stroke-width="2" d="M439.4672,-215.8314C437.9699,-208.131 436.1895,-198.9743 434.5255,-190.4166"/>
<polygon fill="#c0c0c0" stroke="#c0c0c0" stroke-width="2" points="437.9248,-189.5614 432.5804,-180.4133 431.0535,-190.8975 437.9248,-189.5614"/>
</g>
</g>
</svg>
