<?xml version="1.0" encoding="UTF-8" standalone="no"?>
<!DOCTYPE svg PUBLIC "-//W3C//DTD SVG 1.1//EN"
 "http://www.w3.org/Graphics/SVG/1.1/DTD/svg11.dtd">
<!-- Generated by graphviz version 2.40.1 (0)
 -->
<!-- Title: snakemake_dag Pages: 1 -->
<svg width="2266pt" height="780pt"
 viewBox="0.00 0.00 2265.90 780.00" xmlns="http://www.w3.org/2000/svg" xmlns:xlink="http://www.w3.org/1999/xlink">
<g id="graph0" class="graph" transform="scale(1 1) rotate(0) translate(4 776)">
<title>snakemake_dag</title>
<polygon fill="#ffffff" stroke="transparent" points="-4,4 -4,-776 2261.9049,-776 2261.9049,4 -4,4"/>
<!-- 0 -->
<g id="node1" class="node">
<title>0</title>
<path fill="none" stroke="#d85656" stroke-width="2" d="M1648.5,-36C1648.5,-36 1618.5,-36 1618.5,-36 1612.5,-36 1606.5,-30 1606.5,-24 1606.5,-24 1606.5,-12 1606.5,-12 1606.5,-6 1612.5,0 1618.5,0 1618.5,0 1648.5,0 1648.5,0 1654.5,0 1660.5,-6 1660.5,-12 1660.5,-12 1660.5,-24 1660.5,-24 1660.5,-30 1654.5,-36 1648.5,-36"/>
<text text-anchor="middle" x="1633.5" y="-15.5" font-family="sans" font-size="10.00" fill="#000000">all</text>
</g>
<!-- 1 -->
<g id="node2" class="node">
<title>1</title>
<path fill="none" stroke="#59d856" stroke-width="2" d="M1181.5,-108C1181.5,-108 1151.5,-108 1151.5,-108 1145.5,-108 1139.5,-102 1139.5,-96 1139.5,-96 1139.5,-84 1139.5,-84 1139.5,-78 1145.5,-72 1151.5,-72 1151.5,-72 1181.5,-72 1181.5,-72 1187.5,-72 1193.5,-78 1193.5,-84 1193.5,-84 1193.5,-96 1193.5,-96 1193.5,-102 1187.5,-108 1181.5,-108"/>
<text text-anchor="middle" x="1166.5" y="-87.5" font-family="sans" font-size="10.00" fill="#000000">multiqc</text>
</g>
<!-- 1&#45;&gt;0 -->
<g id="edge1" class="edge">
<title>1&#45;&gt;0</title>
<path fill="none" stroke="#c0c0c0" stroke-width="2" d="M1193.6264,-85.8178C1273.0215,-73.577 1505.0475,-37.8042 1596.1574,-23.7573"/>
<polygon fill="#c0c0c0" stroke="#c0c0c0" stroke-width="2" points="1596.9488,-27.1767 1606.2987,-22.1938 1595.8821,-20.2585 1596.9488,-27.1767"/>
</g>
<!-- 2 -->
<g id="node3" class="node">
<title>2</title>
<path fill="none" stroke="#d8ac56" stroke-width="2" d="M811.5,-180C811.5,-180 741.5,-180 741.5,-180 735.5,-180 729.5,-174 729.5,-168 729.5,-168 729.5,-156 729.5,-156 729.5,-150 735.5,-144 741.5,-144 741.5,-144 811.5,-144 811.5,-144 817.5,-144 823.5,-150 823.5,-156 823.5,-156 823.5,-168 823.5,-168 823.5,-174 817.5,-180 811.5,-180"/>
<text text-anchor="middle" x="776.5" y="-165" font-family="sans" font-size="10.00" fill="#000000">fastqc</text>
<text text-anchor="middle" x="776.5" y="-154" font-family="sans" font-size="10.00" fill="#000000">tool: merge_lanes</text>
</g>
<!-- 2&#45;&gt;1 -->
<g id="edge5" class="edge">
<title>2&#45;&gt;1</title>
<path fill="none" stroke="#c0c0c0" stroke-width="2" d="M823.7143,-146.2716C826.6745,-145.4572 829.6203,-144.6914 832.5,-144 938.8648,-118.4613 1067.226,-101.503 1129.2951,-94.1561"/>
<polygon fill="#c0c0c0" stroke="#c0c0c0" stroke-width="2" points="1129.8583,-97.6142 1139.3848,-92.9777 1129.0462,-90.6615 1129.8583,-97.6142"/>
</g>
<!-- 3 -->
<g id="node4" class="node">
<title>3</title>
<path fill="none" stroke="#80d856" stroke-width="2" d="M736.5,-772C736.5,-772 632.5,-772 632.5,-772 626.5,-772 620.5,-766 620.5,-760 620.5,-760 620.5,-732 620.5,-732 620.5,-726 626.5,-720 632.5,-720 632.5,-720 736.5,-720 736.5,-720 742.5,-720 748.5,-726 748.5,-732 748.5,-732 748.5,-760 748.5,-760 748.5,-766 742.5,-772 736.5,-772"/>
<text text-anchor="middle" x="684.5" y="-760" font-family="sans" font-size="10.00" fill="#000000">merge_lanes</text>
<text text-anchor="middle" x="684.5" y="-749" font-family="sans" font-size="10.00" fill="#000000">library: lib1</text>
<text text-anchor="middle" x="684.5" y="-738" font-family="sans" font-size="10.00" fill="#000000">read_type_trim: collapsed</text>
<text text-anchor="middle" x="684.5" y="-727" font-family="sans" font-size="10.00" fill="#000000">sample: HD827sonic_2</text>
</g>
<!-- 3&#45;&gt;2 -->
<g id="edge35" class="edge">
<title>3&#45;&gt;2</title>
<path fill="none" stroke="#c0c0c0" stroke-width="2" d="M696.9909,-719.7589C709.9993,-689.9769 728.5,-639.604 728.5,-594 728.5,-594 728.5,-594 728.5,-306 728.5,-263.8044 747.2784,-218.058 761.3444,-189.7103"/>
<polygon fill="#c0c0c0" stroke="#c0c0c0" stroke-width="2" points="764.6466,-190.9402 766.0847,-180.4434 758.4146,-187.7523 764.6466,-190.9402"/>
</g>
<!-- 11 -->
<g id="node12" class="node">
<title>11</title>
<path fill="none" stroke="#56d882" stroke-width="2" d="M856.5,-684C856.5,-684 786.5,-684 786.5,-684 780.5,-684 774.5,-678 774.5,-672 774.5,-672 774.5,-660 774.5,-660 774.5,-654 780.5,-648 786.5,-648 786.5,-648 856.5,-648 856.5,-648 862.5,-648 868.5,-654 868.5,-660 868.5,-660 868.5,-672 868.5,-672 868.5,-678 862.5,-684 856.5,-684"/>
<text text-anchor="middle" x="821.5" y="-669" font-family="sans" font-size="10.00" fill="#000000">nonpareil_infer</text>
<text text-anchor="middle" x="821.5" y="-658" font-family="sans" font-size="10.00" fill="#000000">tool: merge_lanes</text>
</g>
<!-- 3&#45;&gt;11 -->
<g id="edge41" class="edge">
<title>3&#45;&gt;11</title>
<path fill="none" stroke="#c0c0c0" stroke-width="2" d="M729.3589,-719.805C746.2149,-709.9621 765.2478,-698.848 781.6208,-689.2871"/>
<polygon fill="#c0c0c0" stroke="#c0c0c0" stroke-width="2" points="783.542,-692.2183 790.4126,-684.1532 780.0121,-686.1735 783.542,-692.2183"/>
</g>
<!-- 18 -->
<g id="node19" class="node">
<title>18</title>
<path fill="none" stroke="#d88556" stroke-width="2" d="M659,-612C659,-612 600,-612 600,-612 594,-612 588,-606 588,-600 588,-600 588,-588 588,-588 588,-582 594,-576 600,-576 600,-576 659,-576 659,-576 665,-576 671,-582 671,-588 671,-588 671,-600 671,-600 671,-606 665,-612 659,-612"/>
<text text-anchor="middle" x="629.5" y="-591.5" font-family="sans" font-size="10.00" fill="#000000">extend_tadpole</text>
</g>
<!-- 3&#45;&gt;18 -->
<g id="edge49" class="edge">
<title>3&#45;&gt;18</title>
<path fill="none" stroke="#c0c0c0" stroke-width="2" d="M682.2667,-719.8147C679.8756,-699.5976 675.0482,-671.2449 665.5,-648 661.6236,-638.5629 655.9856,-629.046 650.3172,-620.6864"/>
<polygon fill="#c0c0c0" stroke="#c0c0c0" stroke-width="2" points="653.112,-618.577 644.4716,-612.4456 647.4026,-622.627 653.112,-618.577"/>
</g>
<!-- 19 -->
<g id="node20" class="node">
<title>19</title>
<path fill="none" stroke="#d6d856" stroke-width="2" d="M644.5,-684C644.5,-684 614.5,-684 614.5,-684 608.5,-684 602.5,-678 602.5,-672 602.5,-672 602.5,-660 602.5,-660 602.5,-654 608.5,-648 614.5,-648 614.5,-648 644.5,-648 644.5,-648 650.5,-648 656.5,-654 656.5,-660 656.5,-660 656.5,-672 656.5,-672 656.5,-678 650.5,-684 644.5,-684"/>
<text text-anchor="middle" x="629.5" y="-663.5" font-family="sans" font-size="10.00" fill="#000000">loglog</text>
</g>
<!-- 3&#45;&gt;19 -->
<g id="edge51" class="edge">
<title>3&#45;&gt;19</title>
<path fill="none" stroke="#c0c0c0" stroke-width="2" d="M666.4909,-719.805C660.4758,-711.0557 653.7702,-701.3021 647.7378,-692.5277"/>
<polygon fill="#c0c0c0" stroke="#c0c0c0" stroke-width="2" points="650.5298,-690.4108 641.9804,-684.1532 644.7615,-694.3765 650.5298,-690.4108"/>
</g>
<!-- 45 -->
<g id="node46" class="node">
<title>45</title>
<path fill="none" stroke="#56a9d8" stroke-width="2" d="M298,-396C298,-396 255,-396 255,-396 249,-396 243,-390 243,-384 243,-384 243,-372 243,-372 243,-366 249,-360 255,-360 255,-360 298,-360 298,-360 304,-360 310,-366 310,-372 310,-372 310,-384 310,-384 310,-390 304,-396 298,-396"/>
<text text-anchor="middle" x="276.5" y="-375.5" font-family="sans" font-size="10.00" fill="#000000">seqkit_grep</text>
</g>
<!-- 3&#45;&gt;45 -->
<g id="edge79" class="edge">
<title>3&#45;&gt;45</title>
<path fill="none" stroke="#c0c0c0" stroke-width="2" d="M620.2251,-733.3092C514.5042,-710.5737 315.5,-659.1277 315.5,-594 315.5,-594 315.5,-594 315.5,-522 315.5,-480.2959 300.0716,-434.0864 288.6227,-405.5372"/>
<polygon fill="#c0c0c0" stroke="#c0c0c0" stroke-width="2" points="291.8235,-404.1183 284.7709,-396.2119 285.3537,-406.7907 291.8235,-404.1183"/>
</g>
<!-- 4 -->
<g id="node5" class="node">
<title>4</title>
<path fill="none" stroke="#d8ac56" stroke-width="2" d="M982.5,-612C982.5,-612 912.5,-612 912.5,-612 906.5,-612 900.5,-606 900.5,-600 900.5,-600 900.5,-588 900.5,-588 900.5,-582 906.5,-576 912.5,-576 912.5,-576 982.5,-576 982.5,-576 988.5,-576 994.5,-582 994.5,-588 994.5,-588 994.5,-600 994.5,-600 994.5,-606 988.5,-612 982.5,-612"/>
<text text-anchor="middle" x="947.5" y="-597" font-family="sans" font-size="10.00" fill="#000000">fastqc</text>
<text text-anchor="middle" x="947.5" y="-586" font-family="sans" font-size="10.00" fill="#000000">tool: merge_lanes</text>
</g>
<!-- 4&#45;&gt;1 -->
<g id="edge6" class="edge">
<title>4&#45;&gt;1</title>
<path fill="none" stroke="#c0c0c0" stroke-width="2" d="M947.5,-575.8146C947.5,-548.4983 947.5,-495.25 947.5,-450 947.5,-450 947.5,-450 947.5,-234 947.5,-187.5795 964.3041,-173.064 1000.5,-144 1038.0309,-113.864 1092.8862,-100.3364 1129.1243,-94.4087"/>
<polygon fill="#c0c0c0" stroke="#c0c0c0" stroke-width="2" points="1129.9158,-97.8287 1139.2769,-92.8667 1128.8647,-90.908 1129.9158,-97.8287"/>
</g>
<!-- 5 -->
<g id="node6" class="node">
<title>5</title>
<path fill="none" stroke="#80d856" stroke-width="2" d="M1195.5,-772C1195.5,-772 1091.5,-772 1091.5,-772 1085.5,-772 1079.5,-766 1079.5,-760 1079.5,-760 1079.5,-732 1079.5,-732 1079.5,-726 1085.5,-720 1091.5,-720 1091.5,-720 1195.5,-720 1195.5,-720 1201.5,-720 1207.5,-726 1207.5,-732 1207.5,-732 1207.5,-760 1207.5,-760 1207.5,-766 1201.5,-772 1195.5,-772"/>
<text text-anchor="middle" x="1143.5" y="-760" font-family="sans" font-size="10.00" fill="#000000">merge_lanes</text>
<text text-anchor="middle" x="1143.5" y="-749" font-family="sans" font-size="10.00" fill="#000000">library: lib1</text>
<text text-anchor="middle" x="1143.5" y="-738" font-family="sans" font-size="10.00" fill="#000000">read_type_trim: collapsed</text>
<text text-anchor="middle" x="1143.5" y="-727" font-family="sans" font-size="10.00" fill="#000000">sample: HD827sonic_1</text>
</g>
<!-- 5&#45;&gt;4 -->
<g id="edge36" class="edge">
<title>5&#45;&gt;4</title>
<path fill="none" stroke="#c0c0c0" stroke-width="2" d="M1079.45,-729.8005C1051.1756,-720.1474 1019.0816,-705.4791 995.5,-684 976.9937,-667.1436 964.2896,-641.4612 956.6226,-621.8396"/>
<polygon fill="#c0c0c0" stroke="#c0c0c0" stroke-width="2" points="959.8146,-620.3795 953.0684,-612.21 953.2476,-622.8034 959.8146,-620.3795"/>
</g>
<!-- 9 -->
<g id="node10" class="node">
<title>9</title>
<path fill="none" stroke="#56d882" stroke-width="2" d="M1086.5,-684C1086.5,-684 1016.5,-684 1016.5,-684 1010.5,-684 1004.5,-678 1004.5,-672 1004.5,-672 1004.5,-660 1004.5,-660 1004.5,-654 1010.5,-648 1016.5,-648 1016.5,-648 1086.5,-648 1086.5,-648 1092.5,-648 1098.5,-654 1098.5,-660 1098.5,-660 1098.5,-672 1098.5,-672 1098.5,-678 1092.5,-684 1086.5,-684"/>
<text text-anchor="middle" x="1051.5" y="-669" font-family="sans" font-size="10.00" fill="#000000">nonpareil_infer</text>
<text text-anchor="middle" x="1051.5" y="-658" font-family="sans" font-size="10.00" fill="#000000">tool: merge_lanes</text>
</g>
<!-- 5&#45;&gt;9 -->
<g id="edge39" class="edge">
<title>5&#45;&gt;9</title>
<path fill="none" stroke="#c0c0c0" stroke-width="2" d="M1113.3758,-719.805C1102.6853,-710.5089 1090.6908,-700.079 1080.1287,-690.8945"/>
<polygon fill="#c0c0c0" stroke="#c0c0c0" stroke-width="2" points="1082.2189,-688.0739 1072.3762,-684.1532 1077.6257,-693.3562 1082.2189,-688.0739"/>
</g>
<!-- 15 -->
<g id="node16" class="node">
<title>15</title>
<path fill="none" stroke="#d88556" stroke-width="2" d="M1202,-612C1202,-612 1143,-612 1143,-612 1137,-612 1131,-606 1131,-600 1131,-600 1131,-588 1131,-588 1131,-582 1137,-576 1143,-576 1143,-576 1202,-576 1202,-576 1208,-576 1214,-582 1214,-588 1214,-588 1214,-600 1214,-600 1214,-606 1208,-612 1202,-612"/>
<text text-anchor="middle" x="1172.5" y="-591.5" font-family="sans" font-size="10.00" fill="#000000">extend_tadpole</text>
</g>
<!-- 5&#45;&gt;15 -->
<g id="edge45" class="edge">
<title>5&#45;&gt;15</title>
<path fill="none" stroke="#c0c0c0" stroke-width="2" d="M1162.7526,-719.9062C1169.4351,-709.3174 1176.1019,-696.6197 1179.5,-684 1184.9502,-663.7594 1182.7946,-640.1018 1179.493,-622.1226"/>
<polygon fill="#c0c0c0" stroke="#c0c0c0" stroke-width="2" points="1182.9078,-621.3518 1177.4654,-612.2617 1176.0512,-622.7617 1182.9078,-621.3518"/>
</g>
<!-- 16 -->
<g id="node17" class="node">
<title>16</title>
<path fill="none" stroke="#d6d856" stroke-width="2" d="M1158.5,-684C1158.5,-684 1128.5,-684 1128.5,-684 1122.5,-684 1116.5,-678 1116.5,-672 1116.5,-672 1116.5,-660 1116.5,-660 1116.5,-654 1122.5,-648 1128.5,-648 1128.5,-648 1158.5,-648 1158.5,-648 1164.5,-648 1170.5,-654 1170.5,-660 1170.5,-660 1170.5,-672 1170.5,-672 1170.5,-678 1164.5,-684 1158.5,-684"/>
<text text-anchor="middle" x="1143.5" y="-663.5" font-family="sans" font-size="10.00" fill="#000000">loglog</text>
</g>
<!-- 5&#45;&gt;16 -->
<g id="edge47" class="edge">
<title>5&#45;&gt;16</title>
<path fill="none" stroke="#c0c0c0" stroke-width="2" d="M1143.5,-719.805C1143.5,-711.6026 1143.5,-702.5174 1143.5,-694.1839"/>
<polygon fill="#c0c0c0" stroke="#c0c0c0" stroke-width="2" points="1147.0001,-694.1532 1143.5,-684.1532 1140.0001,-694.1533 1147.0001,-694.1532"/>
</g>
<!-- 42 -->
<g id="node43" class="node">
<title>42</title>
<path fill="none" stroke="#56a9d8" stroke-width="2" d="M1450,-396C1450,-396 1407,-396 1407,-396 1401,-396 1395,-390 1395,-384 1395,-384 1395,-372 1395,-372 1395,-366 1401,-360 1407,-360 1407,-360 1450,-360 1450,-360 1456,-360 1462,-366 1462,-372 1462,-372 1462,-384 1462,-384 1462,-390 1456,-396 1450,-396"/>
<text text-anchor="middle" x="1428.5" y="-375.5" font-family="sans" font-size="10.00" fill="#000000">seqkit_grep</text>
</g>
<!-- 5&#45;&gt;42 -->
<g id="edge75" class="edge">
<title>5&#45;&gt;42</title>
<path fill="none" stroke="#c0c0c0" stroke-width="2" d="M1207.5181,-730.0133C1302.458,-704.4044 1469.5,-651.217 1469.5,-594 1469.5,-594 1469.5,-594 1469.5,-522 1469.5,-480.1463 1453.2804,-433.9754 1441.2444,-405.4754"/>
<polygon fill="#c0c0c0" stroke="#c0c0c0" stroke-width="2" points="1444.3939,-403.9412 1437.195,-396.1676 1437.975,-406.7337 1444.3939,-403.9412"/>
</g>
<!-- 6 -->
<g id="node7" class="node">
<title>6</title>
<path fill="none" stroke="#d8ac56" stroke-width="2" d="M1650.5,-612C1650.5,-612 1580.5,-612 1580.5,-612 1574.5,-612 1568.5,-606 1568.5,-600 1568.5,-600 1568.5,-588 1568.5,-588 1568.5,-582 1574.5,-576 1580.5,-576 1580.5,-576 1650.5,-576 1650.5,-576 1656.5,-576 1662.5,-582 1662.5,-588 1662.5,-588 1662.5,-600 1662.5,-600 1662.5,-606 1656.5,-612 1650.5,-612"/>
<text text-anchor="middle" x="1615.5" y="-597" font-family="sans" font-size="10.00" fill="#000000">fastqc</text>
<text text-anchor="middle" x="1615.5" y="-586" font-family="sans" font-size="10.00" fill="#000000">tool: merge_lanes</text>
</g>
<!-- 6&#45;&gt;1 -->
<g id="edge7" class="edge">
<title>6&#45;&gt;1</title>
<path fill="none" stroke="#c0c0c0" stroke-width="2" d="M1615.5,-575.8146C1615.5,-548.4983 1615.5,-495.25 1615.5,-450 1615.5,-450 1615.5,-450 1615.5,-234 1615.5,-178.9804 1579.2864,-169.4372 1530.5,-144 1474.0495,-114.5668 1284.8755,-98.2331 1203.849,-92.4419"/>
<polygon fill="#c0c0c0" stroke="#c0c0c0" stroke-width="2" points="1203.8311,-88.9321 1193.6111,-91.7253 1203.3423,-95.915 1203.8311,-88.9321"/>
</g>
<!-- 7 -->
<g id="node8" class="node">
<title>7</title>
<path fill="none" stroke="#80d856" stroke-width="2" d="M1863.5,-772C1863.5,-772 1759.5,-772 1759.5,-772 1753.5,-772 1747.5,-766 1747.5,-760 1747.5,-760 1747.5,-732 1747.5,-732 1747.5,-726 1753.5,-720 1759.5,-720 1759.5,-720 1863.5,-720 1863.5,-720 1869.5,-720 1875.5,-726 1875.5,-732 1875.5,-732 1875.5,-760 1875.5,-760 1875.5,-766 1869.5,-772 1863.5,-772"/>
<text text-anchor="middle" x="1811.5" y="-760" font-family="sans" font-size="10.00" fill="#000000">merge_lanes</text>
<text text-anchor="middle" x="1811.5" y="-749" font-family="sans" font-size="10.00" fill="#000000">library: lib2</text>
<text text-anchor="middle" x="1811.5" y="-738" font-family="sans" font-size="10.00" fill="#000000">read_type_trim: collapsed</text>
<text text-anchor="middle" x="1811.5" y="-727" font-family="sans" font-size="10.00" fill="#000000">sample: HD827sonic_2</text>
</g>
<!-- 7&#45;&gt;6 -->
<g id="edge37" class="edge">
<title>7&#45;&gt;6</title>
<path fill="none" stroke="#c0c0c0" stroke-width="2" d="M1747.45,-729.8005C1719.1756,-720.1474 1687.0816,-705.4791 1663.5,-684 1644.9937,-667.1436 1632.2896,-641.4612 1624.6226,-621.8396"/>
<polygon fill="#c0c0c0" stroke="#c0c0c0" stroke-width="2" points="1627.8146,-620.3795 1621.0684,-612.21 1621.2476,-622.8034 1627.8146,-620.3795"/>
</g>
<!-- 13 -->
<g id="node14" class="node">
<title>13</title>
<path fill="none" stroke="#56d882" stroke-width="2" d="M1754.5,-684C1754.5,-684 1684.5,-684 1684.5,-684 1678.5,-684 1672.5,-678 1672.5,-672 1672.5,-672 1672.5,-660 1672.5,-660 1672.5,-654 1678.5,-648 1684.5,-648 1684.5,-648 1754.5,-648 1754.5,-648 1760.5,-648 1766.5,-654 1766.5,-660 1766.5,-660 1766.5,-672 1766.5,-672 1766.5,-678 1760.5,-684 1754.5,-684"/>
<text text-anchor="middle" x="1719.5" y="-669" font-family="sans" font-size="10.00" fill="#000000">nonpareil_infer</text>
<text text-anchor="middle" x="1719.5" y="-658" font-family="sans" font-size="10.00" fill="#000000">tool: merge_lanes</text>
</g>
<!-- 7&#45;&gt;13 -->
<g id="edge43" class="edge">
<title>7&#45;&gt;13</title>
<path fill="none" stroke="#c0c0c0" stroke-width="2" d="M1781.3758,-719.805C1770.6853,-710.5089 1758.6908,-700.079 1748.1287,-690.8945"/>
<polygon fill="#c0c0c0" stroke="#c0c0c0" stroke-width="2" points="1750.2189,-688.0739 1740.3762,-684.1532 1745.6257,-693.3562 1750.2189,-688.0739"/>
</g>
<!-- 21 -->
<g id="node22" class="node">
<title>21</title>
<path fill="none" stroke="#d88556" stroke-width="2" d="M1882,-612C1882,-612 1823,-612 1823,-612 1817,-612 1811,-606 1811,-600 1811,-600 1811,-588 1811,-588 1811,-582 1817,-576 1823,-576 1823,-576 1882,-576 1882,-576 1888,-576 1894,-582 1894,-588 1894,-588 1894,-600 1894,-600 1894,-606 1888,-612 1882,-612"/>
<text text-anchor="middle" x="1852.5" y="-591.5" font-family="sans" font-size="10.00" fill="#000000">extend_tadpole</text>
</g>
<!-- 7&#45;&gt;21 -->
<g id="edge53" class="edge">
<title>7&#45;&gt;21</title>
<path fill="none" stroke="#c0c0c0" stroke-width="2" d="M1830.3885,-719.8027C1837.0235,-709.2005 1843.753,-696.5205 1847.5,-684 1853.5102,-663.917 1854.5995,-640.2086 1854.2722,-622.1679"/>
<polygon fill="#c0c0c0" stroke="#c0c0c0" stroke-width="2" points="1857.7648,-621.8876 1853.9296,-612.0113 1850.7688,-622.1237 1857.7648,-621.8876"/>
</g>
<!-- 22 -->
<g id="node23" class="node">
<title>22</title>
<path fill="none" stroke="#d6d856" stroke-width="2" d="M1826.5,-684C1826.5,-684 1796.5,-684 1796.5,-684 1790.5,-684 1784.5,-678 1784.5,-672 1784.5,-672 1784.5,-660 1784.5,-660 1784.5,-654 1790.5,-648 1796.5,-648 1796.5,-648 1826.5,-648 1826.5,-648 1832.5,-648 1838.5,-654 1838.5,-660 1838.5,-660 1838.5,-672 1838.5,-672 1838.5,-678 1832.5,-684 1826.5,-684"/>
<text text-anchor="middle" x="1811.5" y="-663.5" font-family="sans" font-size="10.00" fill="#000000">loglog</text>
</g>
<!-- 7&#45;&gt;22 -->
<g id="edge55" class="edge">
<title>7&#45;&gt;22</title>
<path fill="none" stroke="#c0c0c0" stroke-width="2" d="M1811.5,-719.805C1811.5,-711.6026 1811.5,-702.5174 1811.5,-694.1839"/>
<polygon fill="#c0c0c0" stroke="#c0c0c0" stroke-width="2" points="1815.0001,-694.1532 1811.5,-684.1532 1808.0001,-694.1533 1815.0001,-694.1532"/>
</g>
<!-- 48 -->
<g id="node49" class="node">
<title>48</title>
<path fill="none" stroke="#56a9d8" stroke-width="2" d="M2053,-396C2053,-396 2010,-396 2010,-396 2004,-396 1998,-390 1998,-384 1998,-384 1998,-372 1998,-372 1998,-366 2004,-360 2010,-360 2010,-360 2053,-360 2053,-360 2059,-360 2065,-366 2065,-372 2065,-372 2065,-384 2065,-384 2065,-390 2059,-396 2053,-396"/>
<text text-anchor="middle" x="2031.5" y="-375.5" font-family="sans" font-size="10.00" fill="#000000">seqkit_grep</text>
</g>
<!-- 7&#45;&gt;48 -->
<g id="edge83" class="edge">
<title>7&#45;&gt;48</title>
<path fill="none" stroke="#c0c0c0" stroke-width="2" d="M1875.684,-740.0425C1960.0063,-728.2837 2097.5,-693.8076 2097.5,-594 2097.5,-594 2097.5,-594 2097.5,-522 2097.5,-481.1184 2096.7273,-468.5934 2078.5,-432 2073.4089,-421.7789 2065.9184,-411.9391 2058.4066,-403.5233"/>
<polygon fill="#c0c0c0" stroke="#c0c0c0" stroke-width="2" points="2060.9608,-401.1305 2051.5701,-396.2248 2055.852,-405.9159 2060.9608,-401.1305"/>
</g>
<!-- 8 -->
<g id="node9" class="node">
<title>8</title>
<path fill="none" stroke="#56d8a9" stroke-width="2" d="M1078,-612C1078,-612 1025,-612 1025,-612 1019,-612 1013,-606 1013,-600 1013,-600 1013,-588 1013,-588 1013,-582 1019,-576 1025,-576 1025,-576 1078,-576 1078,-576 1084,-576 1090,-582 1090,-588 1090,-588 1090,-600 1090,-600 1090,-606 1084,-612 1078,-612"/>
<text text-anchor="middle" x="1051.5" y="-591.5" font-family="sans" font-size="10.00" fill="#000000">nonpareil_plot</text>
</g>
<!-- 8&#45;&gt;1 -->
<g id="edge8" class="edge">
<title>8&#45;&gt;1</title>
<path fill="none" stroke="#c0c0c0" stroke-width="2" d="M1036.8525,-575.6749C1017.4083,-549.4479 985.5,-498.9514 985.5,-450 985.5,-450 985.5,-450 985.5,-234 985.5,-161.0041 1076.7664,-119.0665 1129.6836,-100.8855"/>
<polygon fill="#c0c0c0" stroke="#c0c0c0" stroke-width="2" points="1131.0114,-104.1327 1139.4025,-97.6643 1128.8091,-97.4882 1131.0114,-104.1327"/>
</g>
<!-- 9&#45;&gt;8 -->
<g id="edge38" class="edge">
<title>9&#45;&gt;8</title>
<path fill="none" stroke="#c0c0c0" stroke-width="2" d="M1051.5,-647.8314C1051.5,-640.131 1051.5,-630.9743 1051.5,-622.4166"/>
<polygon fill="#c0c0c0" stroke="#c0c0c0" stroke-width="2" points="1055.0001,-622.4132 1051.5,-612.4133 1048.0001,-622.4133 1055.0001,-622.4132"/>
</g>
<!-- 10 -->
<g id="node11" class="node">
<title>10</title>
<path fill="none" stroke="#56d8a9" stroke-width="2" d="M907,-180C907,-180 854,-180 854,-180 848,-180 842,-174 842,-168 842,-168 842,-156 842,-156 842,-150 848,-144 854,-144 854,-144 907,-144 907,-144 913,-144 919,-150 919,-156 919,-156 919,-168 919,-168 919,-174 913,-180 907,-180"/>
<text text-anchor="middle" x="880.5" y="-159.5" font-family="sans" font-size="10.00" fill="#000000">nonpareil_plot</text>
</g>
<!-- 10&#45;&gt;1 -->
<g id="edge9" class="edge">
<title>10&#45;&gt;1</title>
<path fill="none" stroke="#c0c0c0" stroke-width="2" d="M919.1471,-148.378C923.9579,-146.8294 928.8272,-145.3314 933.5,-144 1001.9981,-124.4832 1083.3075,-106.8774 1129.5088,-97.3835"/>
<polygon fill="#c0c0c0" stroke="#c0c0c0" stroke-width="2" points="1130.2702,-100.8004 1139.3683,-95.3713 1128.8704,-93.9417 1130.2702,-100.8004"/>
</g>
<!-- 11&#45;&gt;10 -->
<g id="edge40" class="edge">
<title>11&#45;&gt;10</title>
<path fill="none" stroke="#c0c0c0" stroke-width="2" d="M825.0224,-647.8955C830.0018,-620.6824 838.5,-567.5642 838.5,-522 838.5,-522 838.5,-522 838.5,-306 838.5,-264.0688 855.1152,-217.918 867.4448,-189.4435"/>
<polygon fill="#c0c0c0" stroke="#c0c0c0" stroke-width="2" points="870.7152,-190.7032 871.5929,-180.1447 864.3225,-187.8513 870.7152,-190.7032"/>
</g>
<!-- 12 -->
<g id="node13" class="node">
<title>12</title>
<path fill="none" stroke="#56d8a9" stroke-width="2" d="M1746,-612C1746,-612 1693,-612 1693,-612 1687,-612 1681,-606 1681,-600 1681,-600 1681,-588 1681,-588 1681,-582 1687,-576 1693,-576 1693,-576 1746,-576 1746,-576 1752,-576 1758,-582 1758,-588 1758,-588 1758,-600 1758,-600 1758,-606 1752,-612 1746,-612"/>
<text text-anchor="middle" x="1719.5" y="-591.5" font-family="sans" font-size="10.00" fill="#000000">nonpareil_plot</text>
</g>
<!-- 12&#45;&gt;1 -->
<g id="edge10" class="edge">
<title>12&#45;&gt;1</title>
<path fill="none" stroke="#c0c0c0" stroke-width="2" d="M1699.4299,-575.7752C1689.8924,-566.0496 1679.1497,-553.35 1672.5,-540 1654.2727,-503.4066 1653.5,-490.8816 1653.5,-450 1653.5,-450 1653.5,-450 1653.5,-234 1653.5,-181.3582 1622.7725,-169.1 1576.5,-144 1512.4454,-109.2543 1292.1736,-95.6581 1203.7097,-91.5175"/>
<polygon fill="#c0c0c0" stroke="#c0c0c0" stroke-width="2" points="1203.7425,-88.0155 1193.5941,-91.0587 1203.4252,-95.0083 1203.7425,-88.0155"/>
</g>
<!-- 13&#45;&gt;12 -->
<g id="edge42" class="edge">
<title>13&#45;&gt;12</title>
<path fill="none" stroke="#c0c0c0" stroke-width="2" d="M1719.5,-647.8314C1719.5,-640.131 1719.5,-630.9743 1719.5,-622.4166"/>
<polygon fill="#c0c0c0" stroke="#c0c0c0" stroke-width="2" points="1723.0001,-622.4132 1719.5,-612.4133 1716.0001,-622.4133 1723.0001,-622.4132"/>
</g>
<!-- 14 -->
<g id="node15" class="node">
<title>14</title>
<path fill="none" stroke="#d8ac56" stroke-width="2" d="M1103.5,-396C1103.5,-396 1025.5,-396 1025.5,-396 1019.5,-396 1013.5,-390 1013.5,-384 1013.5,-384 1013.5,-372 1013.5,-372 1013.5,-366 1019.5,-360 1025.5,-360 1025.5,-360 1103.5,-360 1103.5,-360 1109.5,-360 1115.5,-366 1115.5,-372 1115.5,-372 1115.5,-384 1115.5,-384 1115.5,-390 1109.5,-396 1103.5,-396"/>
<text text-anchor="middle" x="1064.5" y="-381" font-family="sans" font-size="10.00" fill="#000000">fastqc</text>
<text text-anchor="middle" x="1064.5" y="-370" font-family="sans" font-size="10.00" fill="#000000">tool: extend/tadpole</text>
</g>
<!-- 14&#45;&gt;1 -->
<g id="edge11" class="edge">
<title>14&#45;&gt;1</title>
<path fill="none" stroke="#c0c0c0" stroke-width="2" d="M1063.3301,-359.7018C1061.5449,-318.0656 1062.129,-214.4077 1105.5,-144 1112.3484,-132.8825 1122.1905,-122.7608 1131.9764,-114.3624"/>
<polygon fill="#c0c0c0" stroke="#c0c0c0" stroke-width="2" points="1134.2228,-117.0468 1139.7542,-108.0105 1129.795,-111.625 1134.2228,-117.0468"/>
</g>
<!-- 15&#45;&gt;14 -->
<g id="edge44" class="edge">
<title>15&#45;&gt;14</title>
<path fill="none" stroke="#c0c0c0" stroke-width="2" d="M1146.3826,-575.7916C1134.5363,-566.3367 1121.2515,-553.8658 1112.5,-540 1085.9401,-497.9191 1073.5029,-440.4719 1068.1342,-406.502"/>
<polygon fill="#c0c0c0" stroke="#c0c0c0" stroke-width="2" points="1071.5577,-405.7265 1066.6306,-396.347 1064.6332,-406.7518 1071.5577,-405.7265"/>
</g>
<!-- 24 -->
<g id="node25" class="node">
<title>24</title>
<path fill="none" stroke="#56d882" stroke-width="2" d="M1211.5,-540C1211.5,-540 1133.5,-540 1133.5,-540 1127.5,-540 1121.5,-534 1121.5,-528 1121.5,-528 1121.5,-516 1121.5,-516 1121.5,-510 1127.5,-504 1133.5,-504 1133.5,-504 1211.5,-504 1211.5,-504 1217.5,-504 1223.5,-510 1223.5,-516 1223.5,-516 1223.5,-528 1223.5,-528 1223.5,-534 1217.5,-540 1211.5,-540"/>
<text text-anchor="middle" x="1172.5" y="-525" font-family="sans" font-size="10.00" fill="#000000">nonpareil_infer</text>
<text text-anchor="middle" x="1172.5" y="-514" font-family="sans" font-size="10.00" fill="#000000">tool: extend/tadpole</text>
</g>
<!-- 15&#45;&gt;24 -->
<g id="edge57" class="edge">
<title>15&#45;&gt;24</title>
<path fill="none" stroke="#c0c0c0" stroke-width="2" d="M1172.5,-575.8314C1172.5,-568.131 1172.5,-558.9743 1172.5,-550.4166"/>
<polygon fill="#c0c0c0" stroke="#c0c0c0" stroke-width="2" points="1176.0001,-550.4132 1172.5,-540.4133 1169.0001,-550.4133 1176.0001,-550.4132"/>
</g>
<!-- 30 -->
<g id="node31" class="node">
<title>30</title>
<path fill="none" stroke="#5682d8" stroke-width="2" d="M1303.5,-540C1303.5,-540 1273.5,-540 1273.5,-540 1267.5,-540 1261.5,-534 1261.5,-528 1261.5,-528 1261.5,-516 1261.5,-516 1261.5,-510 1267.5,-504 1273.5,-504 1273.5,-504 1303.5,-504 1303.5,-504 1309.5,-504 1315.5,-510 1315.5,-516 1315.5,-516 1315.5,-528 1315.5,-528 1315.5,-534 1309.5,-540 1303.5,-540"/>
<text text-anchor="middle" x="1288.5" y="-519.5" font-family="sans" font-size="10.00" fill="#000000">vsearch</text>
</g>
<!-- 15&#45;&gt;30 -->
<g id="edge63" class="edge">
<title>15&#45;&gt;30</title>
<path fill="none" stroke="#c0c0c0" stroke-width="2" d="M1201.7717,-575.8314C1217.1751,-566.2706 1236.1951,-554.4651 1252.4947,-544.3481"/>
<polygon fill="#c0c0c0" stroke="#c0c0c0" stroke-width="2" points="1254.5792,-547.1737 1261.2299,-538.9263 1250.8877,-541.2262 1254.5792,-547.1737"/>
</g>
<!-- 16&#45;&gt;15 -->
<g id="edge46" class="edge">
<title>16&#45;&gt;15</title>
<path fill="none" stroke="#c0c0c0" stroke-width="2" d="M1150.8179,-647.8314C1153.9876,-639.9617 1157.77,-630.5712 1161.2813,-621.8533"/>
<polygon fill="#c0c0c0" stroke="#c0c0c0" stroke-width="2" points="1164.5939,-622.9968 1165.0835,-612.4133 1158.1008,-620.3815 1164.5939,-622.9968"/>
</g>
<!-- 17 -->
<g id="node18" class="node">
<title>17</title>
<path fill="none" stroke="#d8ac56" stroke-width="2" d="M699.5,-180C699.5,-180 621.5,-180 621.5,-180 615.5,-180 609.5,-174 609.5,-168 609.5,-168 609.5,-156 609.5,-156 609.5,-150 615.5,-144 621.5,-144 621.5,-144 699.5,-144 699.5,-144 705.5,-144 711.5,-150 711.5,-156 711.5,-156 711.5,-168 711.5,-168 711.5,-174 705.5,-180 699.5,-180"/>
<text text-anchor="middle" x="660.5" y="-165" font-family="sans" font-size="10.00" fill="#000000">fastqc</text>
<text text-anchor="middle" x="660.5" y="-154" font-family="sans" font-size="10.00" fill="#000000">tool: extend/tadpole</text>
</g>
<!-- 17&#45;&gt;1 -->
<g id="edge12" class="edge">
<title>17&#45;&gt;1</title>
<path fill="none" stroke="#c0c0c0" stroke-width="2" d="M711.7387,-146.0001C714.6903,-145.2746 717.6257,-144.6005 720.5,-144 870.1636,-112.7298 1052.1365,-97.686 1129.1808,-92.3537"/>
<polygon fill="#c0c0c0" stroke="#c0c0c0" stroke-width="2" points="1129.601,-95.8333 1139.3414,-91.665 1129.1276,-88.8493 1129.601,-95.8333"/>
</g>
<!-- 18&#45;&gt;17 -->
<g id="edge48" class="edge">
<title>18&#45;&gt;17</title>
<path fill="none" stroke="#c0c0c0" stroke-width="2" d="M636.0743,-575.6321C645.1741,-548.5223 660.5,-496.0309 660.5,-450 660.5,-450 660.5,-450 660.5,-306 660.5,-265.876 660.5,-219.4631 660.5,-190.4177"/>
<polygon fill="#c0c0c0" stroke="#c0c0c0" stroke-width="2" points="664.0001,-190.1853 660.5,-180.1854 657.0001,-190.1854 664.0001,-190.1853"/>
</g>
<!-- 28 -->
<g id="node29" class="node">
<title>28</title>
<path fill="none" stroke="#56d882" stroke-width="2" d="M468.5,-540C468.5,-540 390.5,-540 390.5,-540 384.5,-540 378.5,-534 378.5,-528 378.5,-528 378.5,-516 378.5,-516 378.5,-510 384.5,-504 390.5,-504 390.5,-504 468.5,-504 468.5,-504 474.5,-504 480.5,-510 480.5,-516 480.5,-516 480.5,-528 480.5,-528 480.5,-534 474.5,-540 468.5,-540"/>
<text text-anchor="middle" x="429.5" y="-525" font-family="sans" font-size="10.00" fill="#000000">nonpareil_infer</text>
<text text-anchor="middle" x="429.5" y="-514" font-family="sans" font-size="10.00" fill="#000000">tool: extend/tadpole</text>
</g>
<!-- 18&#45;&gt;28 -->
<g id="edge61" class="edge">
<title>18&#45;&gt;28</title>
<path fill="none" stroke="#c0c0c0" stroke-width="2" d="M587.5734,-578.9064C559.027,-568.6297 520.8183,-554.8746 489.1173,-543.4622"/>
<polygon fill="#c0c0c0" stroke="#c0c0c0" stroke-width="2" points="490.1003,-540.0963 479.5059,-540.0021 487.7292,-546.6825 490.1003,-540.0963"/>
</g>
<!-- 32 -->
<g id="node33" class="node">
<title>32</title>
<path fill="none" stroke="#5682d8" stroke-width="2" d="M575.5,-540C575.5,-540 545.5,-540 545.5,-540 539.5,-540 533.5,-534 533.5,-528 533.5,-528 533.5,-516 533.5,-516 533.5,-510 539.5,-504 545.5,-504 545.5,-504 575.5,-504 575.5,-504 581.5,-504 587.5,-510 587.5,-516 587.5,-516 587.5,-528 587.5,-528 587.5,-534 581.5,-540 575.5,-540"/>
<text text-anchor="middle" x="560.5" y="-519.5" font-family="sans" font-size="10.00" fill="#000000">vsearch</text>
</g>
<!-- 18&#45;&gt;32 -->
<g id="edge65" class="edge">
<title>18&#45;&gt;32</title>
<path fill="none" stroke="#c0c0c0" stroke-width="2" d="M612.0884,-575.8314C603.979,-567.3694 594.1844,-557.1489 585.318,-547.8971"/>
<polygon fill="#c0c0c0" stroke="#c0c0c0" stroke-width="2" points="587.5921,-545.2115 578.146,-540.4133 582.5382,-550.0549 587.5921,-545.2115"/>
</g>
<!-- 19&#45;&gt;18 -->
<g id="edge50" class="edge">
<title>19&#45;&gt;18</title>
<path fill="none" stroke="#c0c0c0" stroke-width="2" d="M629.5,-647.8314C629.5,-640.131 629.5,-630.9743 629.5,-622.4166"/>
<polygon fill="#c0c0c0" stroke="#c0c0c0" stroke-width="2" points="633.0001,-622.4132 629.5,-612.4133 626.0001,-622.4133 633.0001,-622.4132"/>
</g>
<!-- 20 -->
<g id="node21" class="node">
<title>20</title>
<path fill="none" stroke="#d8ac56" stroke-width="2" d="M1771.5,-540C1771.5,-540 1693.5,-540 1693.5,-540 1687.5,-540 1681.5,-534 1681.5,-528 1681.5,-528 1681.5,-516 1681.5,-516 1681.5,-510 1687.5,-504 1693.5,-504 1693.5,-504 1771.5,-504 1771.5,-504 1777.5,-504 1783.5,-510 1783.5,-516 1783.5,-516 1783.5,-528 1783.5,-528 1783.5,-534 1777.5,-540 1771.5,-540"/>
<text text-anchor="middle" x="1732.5" y="-525" font-family="sans" font-size="10.00" fill="#000000">fastqc</text>
<text text-anchor="middle" x="1732.5" y="-514" font-family="sans" font-size="10.00" fill="#000000">tool: extend/tadpole</text>
</g>
<!-- 20&#45;&gt;1 -->
<g id="edge13" class="edge">
<title>20&#45;&gt;1</title>
<path fill="none" stroke="#c0c0c0" stroke-width="2" d="M1723.805,-503.8324C1711.7698,-476.9721 1691.5,-424.7885 1691.5,-378 1691.5,-378 1691.5,-378 1691.5,-234 1691.5,-192.6022 1698.9274,-170.9462 1667.5,-144 1632.4311,-113.9315 1314.1838,-96.7204 1203.9117,-91.6189"/>
<polygon fill="#c0c0c0" stroke="#c0c0c0" stroke-width="2" points="1203.7545,-88.1082 1193.6055,-91.1495 1203.4359,-95.101 1203.7545,-88.1082"/>
</g>
<!-- 21&#45;&gt;20 -->
<g id="edge52" class="edge">
<title>21&#45;&gt;20</title>
<path fill="none" stroke="#c0c0c0" stroke-width="2" d="M1822.2189,-575.8314C1806.8702,-566.6221 1788.0502,-555.3301 1771.6177,-545.4706"/>
<polygon fill="#c0c0c0" stroke="#c0c0c0" stroke-width="2" points="1773.1471,-542.3066 1762.7714,-540.1628 1769.5456,-548.3091 1773.1471,-542.3066"/>
</g>
<!-- 26 -->
<g id="node27" class="node">
<title>26</title>
<path fill="none" stroke="#56d882" stroke-width="2" d="M1891.5,-540C1891.5,-540 1813.5,-540 1813.5,-540 1807.5,-540 1801.5,-534 1801.5,-528 1801.5,-528 1801.5,-516 1801.5,-516 1801.5,-510 1807.5,-504 1813.5,-504 1813.5,-504 1891.5,-504 1891.5,-504 1897.5,-504 1903.5,-510 1903.5,-516 1903.5,-516 1903.5,-528 1903.5,-528 1903.5,-534 1897.5,-540 1891.5,-540"/>
<text text-anchor="middle" x="1852.5" y="-525" font-family="sans" font-size="10.00" fill="#000000">nonpareil_infer</text>
<text text-anchor="middle" x="1852.5" y="-514" font-family="sans" font-size="10.00" fill="#000000">tool: extend/tadpole</text>
</g>
<!-- 21&#45;&gt;26 -->
<g id="edge59" class="edge">
<title>21&#45;&gt;26</title>
<path fill="none" stroke="#c0c0c0" stroke-width="2" d="M1852.5,-575.8314C1852.5,-568.131 1852.5,-558.9743 1852.5,-550.4166"/>
<polygon fill="#c0c0c0" stroke="#c0c0c0" stroke-width="2" points="1856.0001,-550.4132 1852.5,-540.4133 1849.0001,-550.4133 1856.0001,-550.4132"/>
</g>
<!-- 34 -->
<g id="node35" class="node">
<title>34</title>
<path fill="none" stroke="#5682d8" stroke-width="2" d="M1963.5,-540C1963.5,-540 1933.5,-540 1933.5,-540 1927.5,-540 1921.5,-534 1921.5,-528 1921.5,-528 1921.5,-516 1921.5,-516 1921.5,-510 1927.5,-504 1933.5,-504 1933.5,-504 1963.5,-504 1963.5,-504 1969.5,-504 1975.5,-510 1975.5,-516 1975.5,-516 1975.5,-528 1975.5,-528 1975.5,-534 1969.5,-540 1963.5,-540"/>
<text text-anchor="middle" x="1948.5" y="-519.5" font-family="sans" font-size="10.00" fill="#000000">vsearch</text>
</g>
<!-- 21&#45;&gt;34 -->
<g id="edge67" class="edge">
<title>21&#45;&gt;34</title>
<path fill="none" stroke="#c0c0c0" stroke-width="2" d="M1876.7249,-575.8314C1888.6628,-566.8779 1903.2256,-555.9558 1916.106,-546.2955"/>
<polygon fill="#c0c0c0" stroke="#c0c0c0" stroke-width="2" points="1918.3829,-548.9629 1924.2829,-540.1628 1914.1829,-543.3629 1918.3829,-548.9629"/>
</g>
<!-- 22&#45;&gt;21 -->
<g id="edge54" class="edge">
<title>22&#45;&gt;21</title>
<path fill="none" stroke="#c0c0c0" stroke-width="2" d="M1821.846,-647.8314C1826.4237,-639.7925 1831.9052,-630.1666 1836.9588,-621.2918"/>
<polygon fill="#c0c0c0" stroke="#c0c0c0" stroke-width="2" points="1840.1077,-622.8351 1842.0147,-612.4133 1834.0248,-619.3712 1840.1077,-622.8351"/>
</g>
<!-- 23 -->
<g id="node24" class="node">
<title>23</title>
<path fill="none" stroke="#56d8a9" stroke-width="2" d="M1199,-396C1199,-396 1146,-396 1146,-396 1140,-396 1134,-390 1134,-384 1134,-384 1134,-372 1134,-372 1134,-366 1140,-360 1146,-360 1146,-360 1199,-360 1199,-360 1205,-360 1211,-366 1211,-372 1211,-372 1211,-384 1211,-384 1211,-390 1205,-396 1199,-396"/>
<text text-anchor="middle" x="1172.5" y="-375.5" font-family="sans" font-size="10.00" fill="#000000">nonpareil_plot</text>
</g>
<!-- 23&#45;&gt;1 -->
<g id="edge14" class="edge">
<title>23&#45;&gt;1</title>
<path fill="none" stroke="#c0c0c0" stroke-width="2" d="M1141.0439,-359.9802C1128.4688,-350.9479 1115.3611,-338.7662 1108.5,-324 1074.6564,-251.1634 1092.2576,-217.5595 1124.5,-144 1128.7911,-134.21 1135.2561,-124.6294 1141.8361,-116.321"/>
<polygon fill="#c0c0c0" stroke="#c0c0c0" stroke-width="2" points="1144.6616,-118.3976 1148.3781,-108.476 1139.2856,-113.9144 1144.6616,-118.3976"/>
</g>
<!-- 24&#45;&gt;23 -->
<g id="edge56" class="edge">
<title>24&#45;&gt;23</title>
<path fill="none" stroke="#c0c0c0" stroke-width="2" d="M1172.5,-503.7623C1172.5,-479.201 1172.5,-435.2474 1172.5,-406.3541"/>
<polygon fill="#c0c0c0" stroke="#c0c0c0" stroke-width="2" points="1176.0001,-406.0896 1172.5,-396.0896 1169.0001,-406.0897 1176.0001,-406.0896"/>
</g>
<!-- 25 -->
<g id="node26" class="node">
<title>25</title>
<path fill="none" stroke="#56d8a9" stroke-width="2" d="M1785,-468C1785,-468 1732,-468 1732,-468 1726,-468 1720,-462 1720,-456 1720,-456 1720,-444 1720,-444 1720,-438 1726,-432 1732,-432 1732,-432 1785,-432 1785,-432 1791,-432 1797,-438 1797,-444 1797,-444 1797,-456 1797,-456 1797,-462 1791,-468 1785,-468"/>
<text text-anchor="middle" x="1758.5" y="-447.5" font-family="sans" font-size="10.00" fill="#000000">nonpareil_plot</text>
</g>
<!-- 25&#45;&gt;1 -->
<g id="edge15" class="edge">
<title>25&#45;&gt;1</title>
<path fill="none" stroke="#c0c0c0" stroke-width="2" d="M1752.3498,-431.5984C1743.8372,-404.4466 1729.5,-351.9035 1729.5,-306 1729.5,-306 1729.5,-306 1729.5,-234 1729.5,-192.6022 1737.0284,-170.8279 1705.5,-144 1667.3861,-111.5684 1320.0241,-95.7363 1204.0212,-91.3209"/>
<polygon fill="#c0c0c0" stroke="#c0c0c0" stroke-width="2" points="1203.9736,-87.8168 1193.8498,-90.9406 1203.712,-94.8119 1203.9736,-87.8168"/>
</g>
<!-- 26&#45;&gt;25 -->
<g id="edge58" class="edge">
<title>26&#45;&gt;25</title>
<path fill="none" stroke="#c0c0c0" stroke-width="2" d="M1828.7798,-503.8314C1817.0906,-494.8779 1802.8312,-483.9558 1790.2191,-474.2955"/>
<polygon fill="#c0c0c0" stroke="#c0c0c0" stroke-width="2" points="1792.2797,-471.4651 1782.2126,-468.1628 1788.0231,-477.0222 1792.2797,-471.4651"/>
</g>
<!-- 27 -->
<g id="node28" class="node">
<title>27</title>
<path fill="none" stroke="#56d8a9" stroke-width="2" d="M451,-396C451,-396 398,-396 398,-396 392,-396 386,-390 386,-384 386,-384 386,-372 386,-372 386,-366 392,-360 398,-360 398,-360 451,-360 451,-360 457,-360 463,-366 463,-372 463,-372 463,-384 463,-384 463,-390 457,-396 451,-396"/>
<text text-anchor="middle" x="424.5" y="-375.5" font-family="sans" font-size="10.00" fill="#000000">nonpareil_plot</text>
</g>
<!-- 27&#45;&gt;1 -->
<g id="edge16" class="edge">
<title>27&#45;&gt;1</title>
<path fill="none" stroke="#c0c0c0" stroke-width="2" d="M430.6741,-359.81C438.777,-335.4691 453.0729,-290.8571 462.5,-252 474.0094,-204.5601 446.229,-176.6715 482.5,-144 530.7573,-100.5318 993.2263,-91.935 1129.125,-90.3421"/>
<polygon fill="#c0c0c0" stroke="#c0c0c0" stroke-width="2" points="1129.4722,-93.8386 1139.4327,-90.2276 1129.3944,-86.839 1129.4722,-93.8386"/>
</g>
<!-- 28&#45;&gt;27 -->
<g id="edge60" class="edge">
<title>28&#45;&gt;27</title>
<path fill="none" stroke="#c0c0c0" stroke-width="2" d="M421.4083,-503.9165C417.2439,-493.6179 412.6082,-480.3436 410.5,-468 406.9616,-447.2824 410.8713,-423.817 415.4489,-406.0418"/>
<polygon fill="#c0c0c0" stroke="#c0c0c0" stroke-width="2" points="418.8514,-406.8703 418.1701,-396.2974 412.1094,-404.9875 418.8514,-406.8703"/>
</g>
<!-- 29 -->
<g id="node30" class="node">
<title>29</title>
<path fill="none" stroke="#d8ac56" stroke-width="2" d="M1167.5,-324C1167.5,-324 1129.5,-324 1129.5,-324 1123.5,-324 1117.5,-318 1117.5,-312 1117.5,-312 1117.5,-300 1117.5,-300 1117.5,-294 1123.5,-288 1129.5,-288 1129.5,-288 1167.5,-288 1167.5,-288 1173.5,-288 1179.5,-294 1179.5,-300 1179.5,-300 1179.5,-312 1179.5,-312 1179.5,-318 1173.5,-324 1167.5,-324"/>
<text text-anchor="middle" x="1148.5" y="-309" font-family="sans" font-size="10.00" fill="#000000">fastqc</text>
<text text-anchor="middle" x="1148.5" y="-298" font-family="sans" font-size="10.00" fill="#000000">tool: derep</text>
</g>
<!-- 29&#45;&gt;1 -->
<g id="edge17" class="edge">
<title>29&#45;&gt;1</title>
<path fill="none" stroke="#c0c0c0" stroke-width="2" d="M1135.1438,-287.5137C1128.7492,-277.5235 1121.782,-264.6657 1118.5,-252 1114.4865,-236.5115 1115.6042,-231.7358 1118.5,-216 1125.0079,-180.6361 1140.9879,-142.3459 1152.7297,-117.3738"/>
<polygon fill="#c0c0c0" stroke="#c0c0c0" stroke-width="2" points="1155.9751,-118.7007 1157.1496,-108.1712 1149.6652,-115.6701 1155.9751,-118.7007"/>
</g>
<!-- 30&#45;&gt;29 -->
<g id="edge62" class="edge">
<title>30&#45;&gt;29</title>
<path fill="none" stroke="#c0c0c0" stroke-width="2" d="M1277.4762,-503.8833C1271.4489,-493.5743 1264.0941,-480.3007 1258.5,-468 1237.3732,-421.5446 1249.7126,-401.1296 1219.5,-360 1211.0159,-348.4502 1199.388,-338.1944 1187.9978,-329.8062"/>
<polygon fill="#c0c0c0" stroke="#c0c0c0" stroke-width="2" points="1189.9873,-326.9266 1179.7943,-324.0366 1185.9604,-332.6523 1189.9873,-326.9266"/>
</g>
<!-- 38 -->
<g id="node39" class="node">
<title>38</title>
<path fill="none" stroke="#56d882" stroke-width="2" d="M1335.5,-468C1335.5,-468 1279.5,-468 1279.5,-468 1273.5,-468 1267.5,-462 1267.5,-456 1267.5,-456 1267.5,-444 1267.5,-444 1267.5,-438 1273.5,-432 1279.5,-432 1279.5,-432 1335.5,-432 1335.5,-432 1341.5,-432 1347.5,-438 1347.5,-444 1347.5,-444 1347.5,-456 1347.5,-456 1347.5,-462 1341.5,-468 1335.5,-468"/>
<text text-anchor="middle" x="1307.5" y="-453" font-family="sans" font-size="10.00" fill="#000000">nonpareil_infer</text>
<text text-anchor="middle" x="1307.5" y="-442" font-family="sans" font-size="10.00" fill="#000000">tool: derep</text>
</g>
<!-- 30&#45;&gt;38 -->
<g id="edge71" class="edge">
<title>30&#45;&gt;38</title>
<path fill="none" stroke="#c0c0c0" stroke-width="2" d="M1293.2945,-503.8314C1295.3489,-496.0463 1297.796,-486.7729 1300.0756,-478.1347"/>
<polygon fill="#c0c0c0" stroke="#c0c0c0" stroke-width="2" points="1303.4735,-478.9753 1302.6409,-468.4133 1296.7052,-477.1892 1303.4735,-478.9753"/>
</g>
<!-- 43 -->
<g id="node44" class="node">
<title>43</title>
<path fill="none" stroke="#56d8d8" stroke-width="2" d="M1429,-468C1429,-468 1378,-468 1378,-468 1372,-468 1366,-462 1366,-456 1366,-456 1366,-444 1366,-444 1366,-438 1372,-432 1378,-432 1378,-432 1429,-432 1429,-432 1435,-432 1441,-438 1441,-444 1441,-444 1441,-456 1441,-456 1441,-462 1435,-468 1429,-468"/>
<text text-anchor="middle" x="1403.5" y="-447.5" font-family="sans" font-size="10.00" fill="#000000">seqkit_fx2tab</text>
</g>
<!-- 30&#45;&gt;43 -->
<g id="edge77" class="edge">
<title>30&#45;&gt;43</title>
<path fill="none" stroke="#c0c0c0" stroke-width="2" d="M1315.7534,-504.937C1330.6605,-495.6038 1349.3594,-483.8967 1365.6612,-473.6904"/>
<polygon fill="#c0c0c0" stroke="#c0c0c0" stroke-width="2" points="1367.8134,-476.4724 1374.4319,-468.1992 1364.0987,-470.5393 1367.8134,-476.4724"/>
</g>
<!-- 31 -->
<g id="node32" class="node">
<title>31</title>
<path fill="none" stroke="#d8ac56" stroke-width="2" d="M541.5,-180C541.5,-180 503.5,-180 503.5,-180 497.5,-180 491.5,-174 491.5,-168 491.5,-168 491.5,-156 491.5,-156 491.5,-150 497.5,-144 503.5,-144 503.5,-144 541.5,-144 541.5,-144 547.5,-144 553.5,-150 553.5,-156 553.5,-156 553.5,-168 553.5,-168 553.5,-174 547.5,-180 541.5,-180"/>
<text text-anchor="middle" x="522.5" y="-165" font-family="sans" font-size="10.00" fill="#000000">fastqc</text>
<text text-anchor="middle" x="522.5" y="-154" font-family="sans" font-size="10.00" fill="#000000">tool: derep</text>
</g>
<!-- 31&#45;&gt;1 -->
<g id="edge18" class="edge">
<title>31&#45;&gt;1</title>
<path fill="none" stroke="#c0c0c0" stroke-width="2" d="M553.5917,-148.2178C558.1869,-146.5771 562.9177,-145.0981 567.5,-144 675.0886,-118.2172 1015.0117,-98.1172 1128.8977,-91.9589"/>
<polygon fill="#c0c0c0" stroke="#c0c0c0" stroke-width="2" points="1129.3997,-95.4371 1139.1979,-91.4067 1129.0249,-88.4471 1129.3997,-95.4371"/>
</g>
<!-- 32&#45;&gt;31 -->
<g id="edge64" class="edge">
<title>32&#45;&gt;31</title>
<path fill="none" stroke="#c0c0c0" stroke-width="2" d="M552.6533,-503.746C541.7922,-476.7781 523.5,-424.4617 523.5,-378 523.5,-378 523.5,-378 523.5,-306 523.5,-265.875 523.1069,-219.4624 522.8137,-190.4173"/>
<polygon fill="#c0c0c0" stroke="#c0c0c0" stroke-width="2" points="526.3112,-190.1481 522.7072,-180.1851 519.3115,-190.221 526.3112,-190.1481"/>
</g>
<!-- 40 -->
<g id="node41" class="node">
<title>40</title>
<path fill="none" stroke="#56d882" stroke-width="2" d="M619.5,-468C619.5,-468 563.5,-468 563.5,-468 557.5,-468 551.5,-462 551.5,-456 551.5,-456 551.5,-444 551.5,-444 551.5,-438 557.5,-432 563.5,-432 563.5,-432 619.5,-432 619.5,-432 625.5,-432 631.5,-438 631.5,-444 631.5,-444 631.5,-456 631.5,-456 631.5,-462 625.5,-468 619.5,-468"/>
<text text-anchor="middle" x="591.5" y="-453" font-family="sans" font-size="10.00" fill="#000000">nonpareil_infer</text>
<text text-anchor="middle" x="591.5" y="-442" font-family="sans" font-size="10.00" fill="#000000">tool: derep</text>
</g>
<!-- 32&#45;&gt;40 -->
<g id="edge73" class="edge">
<title>32&#45;&gt;40</title>
<path fill="none" stroke="#c0c0c0" stroke-width="2" d="M568.3226,-503.8314C571.7109,-495.9617 575.7541,-486.5712 579.5076,-477.8533"/>
<polygon fill="#c0c0c0" stroke="#c0c0c0" stroke-width="2" points="582.8321,-478.9822 583.5721,-468.4133 576.4027,-476.214 582.8321,-478.9822"/>
</g>
<!-- 46 -->
<g id="node47" class="node">
<title>46</title>
<path fill="none" stroke="#56d8d8" stroke-width="2" d="M483,-468C483,-468 432,-468 432,-468 426,-468 420,-462 420,-456 420,-456 420,-444 420,-444 420,-438 426,-432 432,-432 432,-432 483,-432 483,-432 489,-432 495,-438 495,-444 495,-444 495,-456 495,-456 495,-462 489,-468 483,-468"/>
<text text-anchor="middle" x="457.5" y="-447.5" font-family="sans" font-size="10.00" fill="#000000">seqkit_fx2tab</text>
</g>
<!-- 32&#45;&gt;46 -->
<g id="edge81" class="edge">
<title>32&#45;&gt;46</title>
<path fill="none" stroke="#c0c0c0" stroke-width="2" d="M534.5088,-503.8314C521.5784,-494.7927 505.7778,-483.7476 491.8617,-474.0198"/>
<polygon fill="#c0c0c0" stroke="#c0c0c0" stroke-width="2" points="493.6843,-471.0235 483.4829,-468.1628 489.6737,-476.7608 493.6843,-471.0235"/>
</g>
<!-- 33 -->
<g id="node34" class="node">
<title>33</title>
<path fill="none" stroke="#d8ac56" stroke-width="2" d="M1865.5,-468C1865.5,-468 1827.5,-468 1827.5,-468 1821.5,-468 1815.5,-462 1815.5,-456 1815.5,-456 1815.5,-444 1815.5,-444 1815.5,-438 1821.5,-432 1827.5,-432 1827.5,-432 1865.5,-432 1865.5,-432 1871.5,-432 1877.5,-438 1877.5,-444 1877.5,-444 1877.5,-456 1877.5,-456 1877.5,-462 1871.5,-468 1865.5,-468"/>
<text text-anchor="middle" x="1846.5" y="-453" font-family="sans" font-size="10.00" fill="#000000">fastqc</text>
<text text-anchor="middle" x="1846.5" y="-442" font-family="sans" font-size="10.00" fill="#000000">tool: derep</text>
</g>
<!-- 33&#45;&gt;1 -->
<g id="edge19" class="edge">
<title>33&#45;&gt;1</title>
<path fill="none" stroke="#c0c0c0" stroke-width="2" d="M1828.5737,-431.7434C1805.2654,-405.9886 1767.5,-356.4717 1767.5,-306 1767.5,-306 1767.5,-306 1767.5,-234 1767.5,-190.9187 1765.9835,-169.8242 1731.5,-144 1689.2956,-112.3937 1322.6999,-95.8902 1203.6592,-91.3293"/>
<polygon fill="#c0c0c0" stroke="#c0c0c0" stroke-width="2" points="1203.698,-87.8283 1193.5731,-90.9489 1203.4341,-94.8234 1203.698,-87.8283"/>
</g>
<!-- 34&#45;&gt;33 -->
<g id="edge66" class="edge">
<title>34&#45;&gt;33</title>
<path fill="none" stroke="#c0c0c0" stroke-width="2" d="M1922.7611,-503.8314C1909.9563,-494.7927 1894.3091,-483.7476 1880.5281,-474.0198"/>
<polygon fill="#c0c0c0" stroke="#c0c0c0" stroke-width="2" points="1882.4188,-471.0703 1872.2307,-468.1628 1878.382,-476.7891 1882.4188,-471.0703"/>
</g>
<!-- 36 -->
<g id="node37" class="node">
<title>36</title>
<path fill="none" stroke="#56d882" stroke-width="2" d="M1963.5,-468C1963.5,-468 1907.5,-468 1907.5,-468 1901.5,-468 1895.5,-462 1895.5,-456 1895.5,-456 1895.5,-444 1895.5,-444 1895.5,-438 1901.5,-432 1907.5,-432 1907.5,-432 1963.5,-432 1963.5,-432 1969.5,-432 1975.5,-438 1975.5,-444 1975.5,-444 1975.5,-456 1975.5,-456 1975.5,-462 1969.5,-468 1963.5,-468"/>
<text text-anchor="middle" x="1935.5" y="-453" font-family="sans" font-size="10.00" fill="#000000">nonpareil_infer</text>
<text text-anchor="middle" x="1935.5" y="-442" font-family="sans" font-size="10.00" fill="#000000">tool: derep</text>
</g>
<!-- 34&#45;&gt;36 -->
<g id="edge69" class="edge">
<title>34&#45;&gt;36</title>
<path fill="none" stroke="#c0c0c0" stroke-width="2" d="M1945.2196,-503.8314C1943.8292,-496.131 1942.1759,-486.9743 1940.6308,-478.4166"/>
<polygon fill="#c0c0c0" stroke="#c0c0c0" stroke-width="2" points="1944.0458,-477.6322 1938.8246,-468.4133 1937.1572,-478.8761 1944.0458,-477.6322"/>
</g>
<!-- 49 -->
<g id="node50" class="node">
<title>49</title>
<path fill="none" stroke="#56d8d8" stroke-width="2" d="M2057,-468C2057,-468 2006,-468 2006,-468 2000,-468 1994,-462 1994,-456 1994,-456 1994,-444 1994,-444 1994,-438 2000,-432 2006,-432 2006,-432 2057,-432 2057,-432 2063,-432 2069,-438 2069,-444 2069,-444 2069,-456 2069,-456 2069,-462 2063,-468 2057,-468"/>
<text text-anchor="middle" x="2031.5" y="-447.5" font-family="sans" font-size="10.00" fill="#000000">seqkit_fx2tab</text>
</g>
<!-- 34&#45;&gt;49 -->
<g id="edge85" class="edge">
<title>34&#45;&gt;49</title>
<path fill="none" stroke="#c0c0c0" stroke-width="2" d="M1969.4444,-503.8314C1979.5691,-495.0485 1991.8777,-484.3712 2002.8548,-474.8489"/>
<polygon fill="#c0c0c0" stroke="#c0c0c0" stroke-width="2" points="2005.3019,-477.3595 2010.5623,-468.1628 2000.7149,-472.0718 2005.3019,-477.3595"/>
</g>
<!-- 35 -->
<g id="node36" class="node">
<title>35</title>
<path fill="none" stroke="#56d8a9" stroke-width="2" d="M1912,-396C1912,-396 1859,-396 1859,-396 1853,-396 1847,-390 1847,-384 1847,-384 1847,-372 1847,-372 1847,-366 1853,-360 1859,-360 1859,-360 1912,-360 1912,-360 1918,-360 1924,-366 1924,-372 1924,-372 1924,-384 1924,-384 1924,-390 1918,-396 1912,-396"/>
<text text-anchor="middle" x="1885.5" y="-375.5" font-family="sans" font-size="10.00" fill="#000000">nonpareil_plot</text>
</g>
<!-- 35&#45;&gt;1 -->
<g id="edge20" class="edge">
<title>35&#45;&gt;1</title>
<path fill="none" stroke="#c0c0c0" stroke-width="2" d="M1866.4488,-359.9715C1856.9434,-350.1066 1845.9213,-337.2227 1838.5,-324 1797.4291,-250.8224 1846.9687,-196.4941 1781.5,-144 1736.405,-107.8419 1330.6427,-94.2783 1204.0486,-90.9047"/>
<polygon fill="#c0c0c0" stroke="#c0c0c0" stroke-width="2" points="1203.7946,-87.397 1193.7069,-90.6354 1203.6123,-94.3946 1203.7946,-87.397"/>
</g>
<!-- 36&#45;&gt;35 -->
<g id="edge68" class="edge">
<title>36&#45;&gt;35</title>
<path fill="none" stroke="#c0c0c0" stroke-width="2" d="M1922.8829,-431.8314C1917.1828,-423.6232 1910.3337,-413.7606 1904.0641,-404.7323"/>
<polygon fill="#c0c0c0" stroke="#c0c0c0" stroke-width="2" points="1906.8658,-402.6306 1898.287,-396.4133 1901.1162,-406.6234 1906.8658,-402.6306"/>
</g>
<!-- 37 -->
<g id="node38" class="node">
<title>37</title>
<path fill="none" stroke="#56d8a9" stroke-width="2" d="M1193,-252C1193,-252 1140,-252 1140,-252 1134,-252 1128,-246 1128,-240 1128,-240 1128,-228 1128,-228 1128,-222 1134,-216 1140,-216 1140,-216 1193,-216 1193,-216 1199,-216 1205,-222 1205,-228 1205,-228 1205,-240 1205,-240 1205,-246 1199,-252 1193,-252"/>
<text text-anchor="middle" x="1166.5" y="-231.5" font-family="sans" font-size="10.00" fill="#000000">nonpareil_plot</text>
</g>
<!-- 37&#45;&gt;1 -->
<g id="edge21" class="edge">
<title>37&#45;&gt;1</title>
<path fill="none" stroke="#c0c0c0" stroke-width="2" d="M1166.5,-215.7623C1166.5,-191.201 1166.5,-147.2474 1166.5,-118.3541"/>
<polygon fill="#c0c0c0" stroke="#c0c0c0" stroke-width="2" points="1170.0001,-118.0896 1166.5,-108.0896 1163.0001,-118.0897 1170.0001,-118.0896"/>
</g>
<!-- 38&#45;&gt;37 -->
<g id="edge70" class="edge">
<title>38&#45;&gt;37</title>
<path fill="none" stroke="#c0c0c0" stroke-width="2" d="M1295.7209,-431.9555C1270.8905,-393.9173 1213.0712,-305.3431 1183.9374,-260.7127"/>
<polygon fill="#c0c0c0" stroke="#c0c0c0" stroke-width="2" points="1186.7418,-258.6057 1178.3447,-252.1451 1180.8801,-262.4321 1186.7418,-258.6057"/>
</g>
<!-- 39 -->
<g id="node40" class="node">
<title>39</title>
<path fill="none" stroke="#56d8a9" stroke-width="2" d="M618,-396C618,-396 565,-396 565,-396 559,-396 553,-390 553,-384 553,-384 553,-372 553,-372 553,-366 559,-360 565,-360 565,-360 618,-360 618,-360 624,-360 630,-366 630,-372 630,-372 630,-384 630,-384 630,-390 624,-396 618,-396"/>
<text text-anchor="middle" x="591.5" y="-375.5" font-family="sans" font-size="10.00" fill="#000000">nonpareil_plot</text>
</g>
<!-- 39&#45;&gt;1 -->
<g id="edge22" class="edge">
<title>39&#45;&gt;1</title>
<path fill="none" stroke="#c0c0c0" stroke-width="2" d="M585.2093,-359.7774C571.3716,-315.9776 543.8196,-203.9874 600.5,-144 636.8171,-105.564 1008.898,-93.6386 1129.2009,-90.7726"/>
<polygon fill="#c0c0c0" stroke="#c0c0c0" stroke-width="2" points="1129.4728,-94.2673 1139.3893,-90.5373 1129.3111,-87.2692 1129.4728,-94.2673"/>
</g>
<!-- 40&#45;&gt;39 -->
<g id="edge72" class="edge">
<title>40&#45;&gt;39</title>
<path fill="none" stroke="#c0c0c0" stroke-width="2" d="M591.5,-431.8314C591.5,-424.131 591.5,-414.9743 591.5,-406.4166"/>
<polygon fill="#c0c0c0" stroke="#c0c0c0" stroke-width="2" points="595.0001,-406.4132 591.5,-396.4133 588.0001,-406.4133 595.0001,-406.4132"/>
</g>
<!-- 41 -->
<g id="node42" class="node">
<title>41</title>
<path fill="none" stroke="#d8ac56" stroke-width="2" d="M1348,-324C1348,-324 1271,-324 1271,-324 1265,-324 1259,-318 1259,-312 1259,-312 1259,-300 1259,-300 1259,-294 1265,-288 1271,-288 1271,-288 1348,-288 1348,-288 1354,-288 1360,-294 1360,-300 1360,-300 1360,-312 1360,-312 1360,-318 1354,-324 1348,-324"/>
<text text-anchor="middle" x="1309.5" y="-309" font-family="sans" font-size="10.00" fill="#000000">fastqc</text>
<text text-anchor="middle" x="1309.5" y="-298" font-family="sans" font-size="10.00" fill="#000000">tool: represent/grep</text>
</g>
<!-- 41&#45;&gt;1 -->
<g id="edge23" class="edge">
<title>41&#45;&gt;1</title>
<path fill="none" stroke="#c0c0c0" stroke-width="2" d="M1287.2727,-287.9832C1275.9848,-278.1215 1262.5675,-265.237 1252.5,-252 1219.658,-208.8187 1192.4388,-151.36 1177.9048,-117.754"/>
<polygon fill="#c0c0c0" stroke="#c0c0c0" stroke-width="2" points="1180.9463,-115.9628 1173.8093,-108.1325 1174.5055,-118.7045 1180.9463,-115.9628"/>
</g>
<!-- 42&#45;&gt;41 -->
<g id="edge74" class="edge">
<title>42&#45;&gt;41</title>
<path fill="none" stroke="#c0c0c0" stroke-width="2" d="M1398.4713,-359.8314C1383.2504,-350.6221 1364.5872,-339.3301 1348.2917,-329.4706"/>
<polygon fill="#c0c0c0" stroke="#c0c0c0" stroke-width="2" points="1349.8868,-326.345 1339.5191,-324.1628 1346.2631,-332.3341 1349.8868,-326.345"/>
</g>
<!-- 55 -->
<g id="node56" class="node">
<title>55</title>
<path fill="none" stroke="#56d882" stroke-width="2" d="M1467,-324C1467,-324 1390,-324 1390,-324 1384,-324 1378,-318 1378,-312 1378,-312 1378,-300 1378,-300 1378,-294 1384,-288 1390,-288 1390,-288 1467,-288 1467,-288 1473,-288 1479,-294 1479,-300 1479,-300 1479,-312 1479,-312 1479,-318 1473,-324 1467,-324"/>
<text text-anchor="middle" x="1428.5" y="-309" font-family="sans" font-size="10.00" fill="#000000">nonpareil_infer</text>
<text text-anchor="middle" x="1428.5" y="-298" font-family="sans" font-size="10.00" fill="#000000">tool: represent/grep</text>
</g>
<!-- 42&#45;&gt;55 -->
<g id="edge91" class="edge">
<title>42&#45;&gt;55</title>
<path fill="none" stroke="#c0c0c0" stroke-width="2" d="M1428.5,-359.8314C1428.5,-352.131 1428.5,-342.9743 1428.5,-334.4166"/>
<polygon fill="#c0c0c0" stroke="#c0c0c0" stroke-width="2" points="1432.0001,-334.4132 1428.5,-324.4133 1425.0001,-334.4133 1432.0001,-334.4132"/>
</g>
<!-- 61 -->
<g id="node62" class="node">
<title>61</title>
<path fill="none" stroke="#afd856" stroke-width="2" d="M1569.5,-324C1569.5,-324 1509.5,-324 1509.5,-324 1503.5,-324 1497.5,-318 1497.5,-312 1497.5,-312 1497.5,-300 1497.5,-300 1497.5,-294 1503.5,-288 1509.5,-288 1509.5,-288 1569.5,-288 1569.5,-288 1575.5,-288 1581.5,-294 1581.5,-300 1581.5,-300 1581.5,-312 1581.5,-312 1581.5,-318 1575.5,-324 1569.5,-324"/>
<text text-anchor="middle" x="1539.5" y="-303.5" font-family="sans" font-size="10.00" fill="#000000">low_complexity</text>
</g>
<!-- 42&#45;&gt;61 -->
<g id="edge97" class="edge">
<title>42&#45;&gt;61</title>
<path fill="none" stroke="#c0c0c0" stroke-width="2" d="M1456.51,-359.8314C1470.5761,-350.7074 1487.794,-339.539 1502.8933,-329.7449"/>
<polygon fill="#c0c0c0" stroke="#c0c0c0" stroke-width="2" points="1505.014,-332.5412 1511.499,-324.1628 1501.2047,-326.6684 1505.014,-332.5412"/>
</g>
<!-- 43&#45;&gt;42 -->
<g id="edge76" class="edge">
<title>43&#45;&gt;42</title>
<path fill="none" stroke="#c0c0c0" stroke-width="2" d="M1409.8086,-431.8314C1412.5117,-424.0463 1415.7316,-414.7729 1418.731,-406.1347"/>
<polygon fill="#c0c0c0" stroke="#c0c0c0" stroke-width="2" points="1422.1327,-407.0081 1422.1065,-396.4133 1415.52,-404.7119 1422.1327,-407.0081"/>
</g>
<!-- 44 -->
<g id="node45" class="node">
<title>44</title>
<path fill="none" stroke="#d8ac56" stroke-width="2" d="M89,-180C89,-180 12,-180 12,-180 6,-180 0,-174 0,-168 0,-168 0,-156 0,-156 0,-150 6,-144 12,-144 12,-144 89,-144 89,-144 95,-144 101,-150 101,-156 101,-156 101,-168 101,-168 101,-174 95,-180 89,-180"/>
<text text-anchor="middle" x="50.5" y="-165" font-family="sans" font-size="10.00" fill="#000000">fastqc</text>
<text text-anchor="middle" x="50.5" y="-154" font-family="sans" font-size="10.00" fill="#000000">tool: represent/grep</text>
</g>
<!-- 44&#45;&gt;1 -->
<g id="edge24" class="edge">
<title>44&#45;&gt;1</title>
<path fill="none" stroke="#c0c0c0" stroke-width="2" d="M101.1566,-145.6838C103.9634,-145.0498 106.7575,-144.4809 109.5,-144 311.6116,-108.5609 965.6086,-93.8565 1129.1601,-90.6818"/>
<polygon fill="#c0c0c0" stroke="#c0c0c0" stroke-width="2" points="1129.2825,-94.1802 1139.2137,-90.4893 1129.1484,-87.1815 1129.2825,-94.1802"/>
</g>
<!-- 45&#45;&gt;44 -->
<g id="edge78" class="edge">
<title>45&#45;&gt;44</title>
<path fill="none" stroke="#c0c0c0" stroke-width="2" d="M242.8712,-371.4939C197.9026,-362.1626 121.5102,-343.8966 101.5,-324 65.2134,-287.9193 54.6872,-226.3074 51.6709,-190.3621"/>
<polygon fill="#c0c0c0" stroke="#c0c0c0" stroke-width="2" points="55.1418,-189.8201 50.9558,-180.0873 48.1587,-190.3062 55.1418,-189.8201"/>
</g>
<!-- 53 -->
<g id="node54" class="node">
<title>53</title>
<path fill="none" stroke="#56d882" stroke-width="2" d="M200,-324C200,-324 123,-324 123,-324 117,-324 111,-318 111,-312 111,-312 111,-300 111,-300 111,-294 117,-288 123,-288 123,-288 200,-288 200,-288 206,-288 212,-294 212,-300 212,-300 212,-312 212,-312 212,-318 206,-324 200,-324"/>
<text text-anchor="middle" x="161.5" y="-309" font-family="sans" font-size="10.00" fill="#000000">nonpareil_infer</text>
<text text-anchor="middle" x="161.5" y="-298" font-family="sans" font-size="10.00" fill="#000000">tool: represent/grep</text>
</g>
<!-- 45&#45;&gt;53 -->
<g id="edge89" class="edge">
<title>45&#45;&gt;53</title>
<path fill="none" stroke="#c0c0c0" stroke-width="2" d="M247.4806,-359.8314C232.7714,-350.6221 214.7356,-339.3301 198.9878,-329.4706"/>
<polygon fill="#c0c0c0" stroke="#c0c0c0" stroke-width="2" points="200.8433,-326.5029 190.5101,-324.1628 197.1286,-332.436 200.8433,-326.5029"/>
</g>
<!-- 59 -->
<g id="node60" class="node">
<title>59</title>
<path fill="none" stroke="#afd856" stroke-width="2" d="M306.5,-324C306.5,-324 246.5,-324 246.5,-324 240.5,-324 234.5,-318 234.5,-312 234.5,-312 234.5,-300 234.5,-300 234.5,-294 240.5,-288 246.5,-288 246.5,-288 306.5,-288 306.5,-288 312.5,-288 318.5,-294 318.5,-300 318.5,-300 318.5,-312 318.5,-312 318.5,-318 312.5,-324 306.5,-324"/>
<text text-anchor="middle" x="276.5" y="-303.5" font-family="sans" font-size="10.00" fill="#000000">low_complexity</text>
</g>
<!-- 45&#45;&gt;59 -->
<g id="edge95" class="edge">
<title>45&#45;&gt;59</title>
<path fill="none" stroke="#c0c0c0" stroke-width="2" d="M276.5,-359.8314C276.5,-352.131 276.5,-342.9743 276.5,-334.4166"/>
<polygon fill="#c0c0c0" stroke="#c0c0c0" stroke-width="2" points="280.0001,-334.4132 276.5,-324.4133 273.0001,-334.4133 280.0001,-334.4132"/>
</g>
<!-- 46&#45;&gt;45 -->
<g id="edge80" class="edge">
<title>46&#45;&gt;45</title>
<path fill="none" stroke="#c0c0c0" stroke-width="2" d="M419.9967,-435.0816C390.845,-423.4853 350.3658,-407.3831 319.8304,-395.2364"/>
<polygon fill="#c0c0c0" stroke="#c0c0c0" stroke-width="2" points="320.8782,-391.8865 310.2926,-391.4424 318.2908,-398.3908 320.8782,-391.8865"/>
</g>
<!-- 47 -->
<g id="node48" class="node">
<title>47</title>
<path fill="none" stroke="#d8ac56" stroke-width="2" d="M1937,-324C1937,-324 1860,-324 1860,-324 1854,-324 1848,-318 1848,-312 1848,-312 1848,-300 1848,-300 1848,-294 1854,-288 1860,-288 1860,-288 1937,-288 1937,-288 1943,-288 1949,-294 1949,-300 1949,-300 1949,-312 1949,-312 1949,-318 1943,-324 1937,-324"/>
<text text-anchor="middle" x="1898.5" y="-309" font-family="sans" font-size="10.00" fill="#000000">fastqc</text>
<text text-anchor="middle" x="1898.5" y="-298" font-family="sans" font-size="10.00" fill="#000000">tool: represent/grep</text>
</g>
<!-- 47&#45;&gt;1 -->
<g id="edge25" class="edge">
<title>47&#45;&gt;1</title>
<path fill="none" stroke="#c0c0c0" stroke-width="2" d="M1884.8366,-287.6014C1877.6438,-277.4263 1868.9945,-264.3703 1862.5,-252 1838.4841,-206.2565 1861.0263,-174.7376 1819.5,-144 1769.9202,-107.3012 1335.5837,-94.0251 1204.0719,-90.8259"/>
<polygon fill="#c0c0c0" stroke="#c0c0c0" stroke-width="2" points="1203.7942,-87.3184 1193.7138,-90.5797 1203.6278,-94.3164 1203.7942,-87.3184"/>
</g>
<!-- 48&#45;&gt;47 -->
<g id="edge82" class="edge">
<title>48&#45;&gt;47</title>
<path fill="none" stroke="#c0c0c0" stroke-width="2" d="M1997.9385,-359.8314C1980.6119,-350.4516 1959.2942,-338.9112 1940.8464,-328.9244"/>
<polygon fill="#c0c0c0" stroke="#c0c0c0" stroke-width="2" points="1942.5111,-325.8457 1932.0508,-324.1628 1939.1786,-332.0015 1942.5111,-325.8457"/>
</g>
<!-- 51 -->
<g id="node52" class="node">
<title>51</title>
<path fill="none" stroke="#56d882" stroke-width="2" d="M2063,-324C2063,-324 1986,-324 1986,-324 1980,-324 1974,-318 1974,-312 1974,-312 1974,-300 1974,-300 1974,-294 1980,-288 1986,-288 1986,-288 2063,-288 2063,-288 2069,-288 2075,-294 2075,-300 2075,-300 2075,-312 2075,-312 2075,-318 2069,-324 2063,-324"/>
<text text-anchor="middle" x="2024.5" y="-309" font-family="sans" font-size="10.00" fill="#000000">nonpareil_infer</text>
<text text-anchor="middle" x="2024.5" y="-298" font-family="sans" font-size="10.00" fill="#000000">tool: represent/grep</text>
</g>
<!-- 48&#45;&gt;51 -->
<g id="edge87" class="edge">
<title>48&#45;&gt;51</title>
<path fill="none" stroke="#c0c0c0" stroke-width="2" d="M2029.7336,-359.8314C2028.985,-352.131 2028.0947,-342.9743 2027.2627,-334.4166"/>
<polygon fill="#c0c0c0" stroke="#c0c0c0" stroke-width="2" points="2030.7415,-334.0276 2026.2902,-324.4133 2023.7744,-334.7051 2030.7415,-334.0276"/>
</g>
<!-- 57 -->
<g id="node58" class="node">
<title>57</title>
<path fill="none" stroke="#afd856" stroke-width="2" d="M2188.5,-324C2188.5,-324 2128.5,-324 2128.5,-324 2122.5,-324 2116.5,-318 2116.5,-312 2116.5,-312 2116.5,-300 2116.5,-300 2116.5,-294 2122.5,-288 2128.5,-288 2128.5,-288 2188.5,-288 2188.5,-288 2194.5,-288 2200.5,-294 2200.5,-300 2200.5,-300 2200.5,-312 2200.5,-312 2200.5,-318 2194.5,-324 2188.5,-324"/>
<text text-anchor="middle" x="2158.5" y="-303.5" font-family="sans" font-size="10.00" fill="#000000">low_complexity</text>
</g>
<!-- 48&#45;&gt;57 -->
<g id="edge93" class="edge">
<title>48&#45;&gt;57</title>
<path fill="none" stroke="#c0c0c0" stroke-width="2" d="M2063.5475,-359.8314C2079.942,-350.5368 2100.0786,-339.1208 2117.5829,-329.1971"/>
<polygon fill="#c0c0c0" stroke="#c0c0c0" stroke-width="2" points="2119.4897,-332.1395 2126.4628,-324.1628 2116.0374,-326.05 2119.4897,-332.1395"/>
</g>
<!-- 49&#45;&gt;48 -->
<g id="edge84" class="edge">
<title>49&#45;&gt;48</title>
<path fill="none" stroke="#c0c0c0" stroke-width="2" d="M2031.5,-431.8314C2031.5,-424.131 2031.5,-414.9743 2031.5,-406.4166"/>
<polygon fill="#c0c0c0" stroke="#c0c0c0" stroke-width="2" points="2035.0001,-406.4132 2031.5,-396.4133 2028.0001,-406.4133 2035.0001,-406.4132"/>
</g>
<!-- 50 -->
<g id="node51" class="node">
<title>50</title>
<path fill="none" stroke="#56d8a9" stroke-width="2" d="M1937,-252C1937,-252 1884,-252 1884,-252 1878,-252 1872,-246 1872,-240 1872,-240 1872,-228 1872,-228 1872,-222 1878,-216 1884,-216 1884,-216 1937,-216 1937,-216 1943,-216 1949,-222 1949,-228 1949,-228 1949,-240 1949,-240 1949,-246 1943,-252 1937,-252"/>
<text text-anchor="middle" x="1910.5" y="-231.5" font-family="sans" font-size="10.00" fill="#000000">nonpareil_plot</text>
</g>
<!-- 50&#45;&gt;1 -->
<g id="edge26" class="edge">
<title>50&#45;&gt;1</title>
<path fill="none" stroke="#c0c0c0" stroke-width="2" d="M1905.4268,-215.8822C1898.4385,-194.6596 1883.6456,-160.3297 1857.5,-144 1801.8532,-109.2448 1339.5049,-94.5153 1203.8039,-90.9152"/>
<polygon fill="#c0c0c0" stroke="#c0c0c0" stroke-width="2" points="1203.6001,-87.4088 1193.5123,-90.647 1203.4177,-94.4064 1203.6001,-87.4088"/>
</g>
<!-- 51&#45;&gt;50 -->
<g id="edge86" class="edge">
<title>51&#45;&gt;50</title>
<path fill="none" stroke="#c0c0c0" stroke-width="2" d="M1995.733,-287.8314C1981.2867,-278.7074 1963.6035,-267.539 1948.096,-257.7449"/>
<polygon fill="#c0c0c0" stroke="#c0c0c0" stroke-width="2" points="1949.5817,-254.5436 1939.2578,-252.1628 1945.8437,-260.462 1949.5817,-254.5436"/>
</g>
<!-- 52 -->
<g id="node53" class="node">
<title>52</title>
<path fill="none" stroke="#56d8a9" stroke-width="2" d="M184,-180C184,-180 131,-180 131,-180 125,-180 119,-174 119,-168 119,-168 119,-156 119,-156 119,-150 125,-144 131,-144 131,-144 184,-144 184,-144 190,-144 196,-150 196,-156 196,-156 196,-168 196,-168 196,-174 190,-180 184,-180"/>
<text text-anchor="middle" x="157.5" y="-159.5" font-family="sans" font-size="10.00" fill="#000000">nonpareil_plot</text>
</g>
<!-- 52&#45;&gt;1 -->
<g id="edge27" class="edge">
<title>52&#45;&gt;1</title>
<path fill="none" stroke="#c0c0c0" stroke-width="2" d="M196.116,-156.0641C222.8414,-152.14 259.2616,-147.1559 291.5,-144 614.9812,-112.3333 1007.6682,-95.9213 1128.9922,-91.3496"/>
<polygon fill="#c0c0c0" stroke="#c0c0c0" stroke-width="2" points="1129.3637,-94.8383 1139.2263,-90.9679 1129.1028,-87.8431 1129.3637,-94.8383"/>
</g>
<!-- 53&#45;&gt;52 -->
<g id="edge88" class="edge">
<title>53&#45;&gt;52</title>
<path fill="none" stroke="#c0c0c0" stroke-width="2" d="M160.9934,-287.7623C160.3111,-263.201 159.0902,-219.2474 158.2876,-190.3541"/>
<polygon fill="#c0c0c0" stroke="#c0c0c0" stroke-width="2" points="161.7789,-189.9885 158.0025,-180.0896 154.7816,-190.183 161.7789,-189.9885"/>
</g>
<!-- 54 -->
<g id="node55" class="node">
<title>54</title>
<path fill="none" stroke="#56d8a9" stroke-width="2" d="M1327,-252C1327,-252 1274,-252 1274,-252 1268,-252 1262,-246 1262,-240 1262,-240 1262,-228 1262,-228 1262,-222 1268,-216 1274,-216 1274,-216 1327,-216 1327,-216 1333,-216 1339,-222 1339,-228 1339,-228 1339,-240 1339,-240 1339,-246 1333,-252 1327,-252"/>
<text text-anchor="middle" x="1300.5" y="-231.5" font-family="sans" font-size="10.00" fill="#000000">nonpareil_plot</text>
</g>
<!-- 54&#45;&gt;1 -->
<g id="edge28" class="edge">
<title>54&#45;&gt;1</title>
<path fill="none" stroke="#c0c0c0" stroke-width="2" d="M1292.8018,-215.8552C1283.9377,-196.4656 1267.9333,-165.6064 1247.5,-144 1234.4918,-130.245 1217.3591,-118.1885 1202.202,-108.9776"/>
<polygon fill="#c0c0c0" stroke="#c0c0c0" stroke-width="2" points="1203.9464,-105.9432 1193.552,-103.8919 1200.3985,-111.9775 1203.9464,-105.9432"/>
</g>
<!-- 55&#45;&gt;54 -->
<g id="edge90" class="edge">
<title>55&#45;&gt;54</title>
<path fill="none" stroke="#c0c0c0" stroke-width="2" d="M1396.2002,-287.8314C1379.6766,-278.5368 1359.3814,-267.1208 1341.7393,-257.1971"/>
<polygon fill="#c0c0c0" stroke="#c0c0c0" stroke-width="2" points="1343.2212,-254.015 1332.7895,-252.1628 1339.7893,-260.116 1343.2212,-254.015"/>
</g>
<!-- 56 -->
<g id="node57" class="node">
<title>56</title>
<path fill="none" stroke="#d8ac56" stroke-width="2" d="M2061.5,-252C2061.5,-252 1979.5,-252 1979.5,-252 1973.5,-252 1967.5,-246 1967.5,-240 1967.5,-240 1967.5,-228 1967.5,-228 1967.5,-222 1973.5,-216 1979.5,-216 1979.5,-216 2061.5,-216 2061.5,-216 2067.5,-216 2073.5,-222 2073.5,-228 2073.5,-228 2073.5,-240 2073.5,-240 2073.5,-246 2067.5,-252 2061.5,-252"/>
<text text-anchor="middle" x="2020.5" y="-237" font-family="sans" font-size="10.00" fill="#000000">fastqc</text>
<text text-anchor="middle" x="2020.5" y="-226" font-family="sans" font-size="10.00" fill="#000000">tool: low_complexity</text>
</g>
<!-- 56&#45;&gt;1 -->
<g id="edge29" class="edge">
<title>56&#45;&gt;1</title>
<path fill="none" stroke="#c0c0c0" stroke-width="2" d="M2000.7112,-215.6267C1976.2261,-194.1525 1932.2641,-159.575 1887.5,-144 1759.2159,-99.3655 1332.559,-91.6052 1203.6826,-90.2725"/>
<polygon fill="#c0c0c0" stroke="#c0c0c0" stroke-width="2" points="1203.566,-86.7713 1193.5327,-90.1747 1203.4985,-93.771 1203.566,-86.7713"/>
</g>
<!-- 57&#45;&gt;0 -->
<g id="edge4" class="edge">
<title>57&#45;&gt;0</title>
<path fill="none" stroke="#c0c0c0" stroke-width="2" d="M2200.903,-290.1355C2217.6055,-281.5526 2235.0314,-269.1259 2244.5,-252 2268.16,-209.2061 2258.0795,-178.5741 2223.5,-144 2144.5811,-65.0934 1788.2317,-30.2458 1671.0083,-20.7818"/>
<polygon fill="#c0c0c0" stroke="#c0c0c0" stroke-width="2" points="1670.9896,-17.2695 1660.7445,-19.9691 1670.437,-24.2477 1670.9896,-17.2695"/>
</g>
<!-- 57&#45;&gt;56 -->
<g id="edge92" class="edge">
<title>57&#45;&gt;56</title>
<path fill="none" stroke="#c0c0c0" stroke-width="2" d="M2123.6768,-287.8314C2105.6989,-278.4516 2083.5797,-266.9112 2064.4384,-256.9244"/>
<polygon fill="#c0c0c0" stroke="#c0c0c0" stroke-width="2" points="2065.7969,-253.6855 2055.3121,-252.1628 2062.5589,-259.8916 2065.7969,-253.6855"/>
</g>
<!-- 65 -->
<g id="node66" class="node">
<title>65</title>
<path fill="none" stroke="#56d882" stroke-width="2" d="M2223.5,-252C2223.5,-252 2141.5,-252 2141.5,-252 2135.5,-252 2129.5,-246 2129.5,-240 2129.5,-240 2129.5,-228 2129.5,-228 2129.5,-222 2135.5,-216 2141.5,-216 2141.5,-216 2223.5,-216 2223.5,-216 2229.5,-216 2235.5,-222 2235.5,-228 2235.5,-228 2235.5,-240 2235.5,-240 2235.5,-246 2229.5,-252 2223.5,-252"/>
<text text-anchor="middle" x="2182.5" y="-237" font-family="sans" font-size="10.00" fill="#000000">nonpareil_infer</text>
<text text-anchor="middle" x="2182.5" y="-226" font-family="sans" font-size="10.00" fill="#000000">tool: low_complexity</text>
</g>
<!-- 57&#45;&gt;65 -->
<g id="edge101" class="edge">
<title>57&#45;&gt;65</title>
<path fill="none" stroke="#c0c0c0" stroke-width="2" d="M2164.5562,-287.8314C2167.1512,-280.0463 2170.2424,-270.7729 2173.1218,-262.1347"/>
<polygon fill="#c0c0c0" stroke="#c0c0c0" stroke-width="2" points="2176.5203,-263.0069 2176.3622,-252.4133 2169.8795,-260.7933 2176.5203,-263.0069"/>
</g>
<!-- 58 -->
<g id="node59" class="node">
<title>58</title>
<path fill="none" stroke="#d8ac56" stroke-width="2" d="M317.5,-252C317.5,-252 235.5,-252 235.5,-252 229.5,-252 223.5,-246 223.5,-240 223.5,-240 223.5,-228 223.5,-228 223.5,-222 229.5,-216 235.5,-216 235.5,-216 317.5,-216 317.5,-216 323.5,-216 329.5,-222 329.5,-228 329.5,-228 329.5,-240 329.5,-240 329.5,-246 323.5,-252 317.5,-252"/>
<text text-anchor="middle" x="276.5" y="-237" font-family="sans" font-size="10.00" fill="#000000">fastqc</text>
<text text-anchor="middle" x="276.5" y="-226" font-family="sans" font-size="10.00" fill="#000000">tool: low_complexity</text>
</g>
<!-- 58&#45;&gt;1 -->
<g id="edge30" class="edge">
<title>58&#45;&gt;1</title>
<path fill="none" stroke="#c0c0c0" stroke-width="2" d="M285.2071,-215.6818C296.4878,-194.262 318.343,-159.7379 348.5,-144 418.272,-107.5884 978.1486,-93.7847 1129.1126,-90.704"/>
<polygon fill="#c0c0c0" stroke="#c0c0c0" stroke-width="2" points="1129.3352,-94.2004 1139.263,-90.5006 1129.1949,-87.2018 1129.3352,-94.2004"/>
</g>
<!-- 59&#45;&gt;0 -->
<g id="edge3" class="edge">
<title>59&#45;&gt;0</title>
<path fill="none" stroke="#c0c0c0" stroke-width="2" d="M246.0042,-287.7757C233.8178,-278.7056 221.1228,-266.5508 214.5,-252 207.8719,-237.4374 207.5302,-230.4021 214.5,-216 236.9658,-169.5776 257.6441,-163.224 305.5,-144 549.6418,-45.9266 1406.5429,-22.6873 1596.1639,-18.701"/>
<polygon fill="#c0c0c0" stroke="#c0c0c0" stroke-width="2" points="1596.5171,-22.1946 1606.4432,-18.4902 1596.3735,-15.1961 1596.5171,-22.1946"/>
</g>
<!-- 59&#45;&gt;58 -->
<g id="edge94" class="edge">
<title>59&#45;&gt;58</title>
<path fill="none" stroke="#c0c0c0" stroke-width="2" d="M276.5,-287.8314C276.5,-280.131 276.5,-270.9743 276.5,-262.4166"/>
<polygon fill="#c0c0c0" stroke="#c0c0c0" stroke-width="2" points="280.0001,-262.4132 276.5,-252.4133 273.0001,-262.4133 280.0001,-262.4132"/>
</g>
<!-- 63 -->
<g id="node64" class="node">
<title>63</title>
<path fill="none" stroke="#56d882" stroke-width="2" d="M441.5,-252C441.5,-252 359.5,-252 359.5,-252 353.5,-252 347.5,-246 347.5,-240 347.5,-240 347.5,-228 347.5,-228 347.5,-222 353.5,-216 359.5,-216 359.5,-216 441.5,-216 441.5,-216 447.5,-216 453.5,-222 453.5,-228 453.5,-228 453.5,-240 453.5,-240 453.5,-246 447.5,-252 441.5,-252"/>
<text text-anchor="middle" x="400.5" y="-237" font-family="sans" font-size="10.00" fill="#000000">nonpareil_infer</text>
<text text-anchor="middle" x="400.5" y="-226" font-family="sans" font-size="10.00" fill="#000000">tool: low_complexity</text>
</g>
<!-- 59&#45;&gt;63 -->
<g id="edge99" class="edge">
<title>59&#45;&gt;63</title>
<path fill="none" stroke="#c0c0c0" stroke-width="2" d="M307.7904,-287.8314C323.7977,-278.5368 343.4586,-267.1208 360.5494,-257.1971"/>
<polygon fill="#c0c0c0" stroke="#c0c0c0" stroke-width="2" points="362.3292,-260.211 369.2196,-252.1628 358.8142,-254.1575 362.3292,-260.211"/>
</g>
<!-- 60 -->
<g id="node61" class="node">
<title>60</title>
<path fill="none" stroke="#d8ac56" stroke-width="2" d="M1451.5,-252C1451.5,-252 1369.5,-252 1369.5,-252 1363.5,-252 1357.5,-246 1357.5,-240 1357.5,-240 1357.5,-228 1357.5,-228 1357.5,-222 1363.5,-216 1369.5,-216 1369.5,-216 1451.5,-216 1451.5,-216 1457.5,-216 1463.5,-222 1463.5,-228 1463.5,-228 1463.5,-240 1463.5,-240 1463.5,-246 1457.5,-252 1451.5,-252"/>
<text text-anchor="middle" x="1410.5" y="-237" font-family="sans" font-size="10.00" fill="#000000">fastqc</text>
<text text-anchor="middle" x="1410.5" y="-226" font-family="sans" font-size="10.00" fill="#000000">tool: low_complexity</text>
</g>
<!-- 60&#45;&gt;1 -->
<g id="edge31" class="edge">
<title>60&#45;&gt;1</title>
<path fill="none" stroke="#c0c0c0" stroke-width="2" d="M1385.0184,-215.7926C1358.1234,-196.8978 1314.21,-166.9544 1274.5,-144 1251.2068,-130.5353 1224.1241,-116.9989 1202.9063,-106.8469"/>
<polygon fill="#c0c0c0" stroke="#c0c0c0" stroke-width="2" points="1204.1398,-103.5582 1193.6049,-102.433 1201.1388,-109.8823 1204.1398,-103.5582"/>
</g>
<!-- 61&#45;&gt;0 -->
<g id="edge2" class="edge">
<title>61&#45;&gt;0</title>
<path fill="none" stroke="#c0c0c0" stroke-width="2" d="M1581.9368,-303.3266C1706.8753,-295.2542 2065.7089,-270.5437 2082.5,-252 2210.4739,-110.6681 1799.264,-40.8475 1670.6748,-22.8173"/>
<polygon fill="#c0c0c0" stroke="#c0c0c0" stroke-width="2" points="1670.9022,-19.3157 1660.5182,-21.419 1669.9474,-26.2503 1670.9022,-19.3157"/>
</g>
<!-- 61&#45;&gt;60 -->
<g id="edge96" class="edge">
<title>61&#45;&gt;60</title>
<path fill="none" stroke="#c0c0c0" stroke-width="2" d="M1506.9479,-287.8314C1490.2952,-278.5368 1469.8415,-267.1208 1452.0615,-257.1971"/>
<polygon fill="#c0c0c0" stroke="#c0c0c0" stroke-width="2" points="1453.4795,-253.9803 1443.0417,-252.1628 1450.0679,-260.0927 1453.4795,-253.9803"/>
</g>
<!-- 67 -->
<g id="node68" class="node">
<title>67</title>
<path fill="none" stroke="#56d882" stroke-width="2" d="M1575.5,-252C1575.5,-252 1493.5,-252 1493.5,-252 1487.5,-252 1481.5,-246 1481.5,-240 1481.5,-240 1481.5,-228 1481.5,-228 1481.5,-222 1487.5,-216 1493.5,-216 1493.5,-216 1575.5,-216 1575.5,-216 1581.5,-216 1587.5,-222 1587.5,-228 1587.5,-228 1587.5,-240 1587.5,-240 1587.5,-246 1581.5,-252 1575.5,-252"/>
<text text-anchor="middle" x="1534.5" y="-237" font-family="sans" font-size="10.00" fill="#000000">nonpareil_infer</text>
<text text-anchor="middle" x="1534.5" y="-226" font-family="sans" font-size="10.00" fill="#000000">tool: low_complexity</text>
</g>
<!-- 61&#45;&gt;67 -->
<g id="edge103" class="edge">
<title>61&#45;&gt;67</title>
<path fill="none" stroke="#c0c0c0" stroke-width="2" d="M1538.2383,-287.8314C1537.7035,-280.131 1537.0677,-270.9743 1536.4734,-262.4166"/>
<polygon fill="#c0c0c0" stroke="#c0c0c0" stroke-width="2" points="1539.9632,-262.1467 1535.7787,-252.4133 1532.98,-262.6317 1539.9632,-262.1467"/>
</g>
<!-- 62 -->
<g id="node63" class="node">
<title>62</title>
<path fill="none" stroke="#56d8a9" stroke-width="2" d="M423,-180C423,-180 370,-180 370,-180 364,-180 358,-174 358,-168 358,-168 358,-156 358,-156 358,-150 364,-144 370,-144 370,-144 423,-144 423,-144 429,-144 435,-150 435,-156 435,-156 435,-168 435,-168 435,-174 429,-180 423,-180"/>
<text text-anchor="middle" x="396.5" y="-159.5" font-family="sans" font-size="10.00" fill="#000000">nonpareil_plot</text>
</g>
<!-- 62&#45;&gt;1 -->
<g id="edge32" class="edge">
<title>62&#45;&gt;1</title>
<path fill="none" stroke="#c0c0c0" stroke-width="2" d="M435.2669,-147.5932C440.0133,-146.199 444.8345,-144.952 449.5,-144 581.702,-117.0243 1001.8943,-97.1016 1129.4372,-91.5556"/>
<polygon fill="#c0c0c0" stroke="#c0c0c0" stroke-width="2" points="1129.6472,-95.0499 1139.487,-91.1221 1129.3455,-88.0564 1129.6472,-95.0499"/>
</g>
<!-- 63&#45;&gt;62 -->
<g id="edge98" class="edge">
<title>63&#45;&gt;62</title>
<path fill="none" stroke="#c0c0c0" stroke-width="2" d="M399.4906,-215.8314C399.0628,-208.131 398.5541,-198.9743 398.0787,-190.4166"/>
<polygon fill="#c0c0c0" stroke="#c0c0c0" stroke-width="2" points="401.5724,-190.2037 397.523,-180.4133 394.5831,-190.592 401.5724,-190.2037"/>
</g>
<!-- 64 -->
<g id="node65" class="node">
<title>64</title>
<path fill="none" stroke="#56d8a9" stroke-width="2" d="M2202,-180C2202,-180 2149,-180 2149,-180 2143,-180 2137,-174 2137,-168 2137,-168 2137,-156 2137,-156 2137,-150 2143,-144 2149,-144 2149,-144 2202,-144 2202,-144 2208,-144 2214,-150 2214,-156 2214,-156 2214,-168 2214,-168 2214,-174 2208,-180 2202,-180"/>
<text text-anchor="middle" x="2175.5" y="-159.5" font-family="sans" font-size="10.00" fill="#000000">nonpareil_plot</text>
</g>
<!-- 64&#45;&gt;1 -->
<g id="edge33" class="edge">
<title>64&#45;&gt;1</title>
<path fill="none" stroke="#c0c0c0" stroke-width="2" d="M2136.7644,-157.8454C2099.551,-153.9406 2041.7252,-148.0993 1991.5,-144 1687.6834,-119.2028 1320.1867,-98.3855 1203.7471,-92.01"/>
<polygon fill="#c0c0c0" stroke="#c0c0c0" stroke-width="2" points="1203.7614,-88.5057 1193.5855,-91.4555 1203.3798,-95.4953 1203.7614,-88.5057"/>
</g>
<!-- 65&#45;&gt;64 -->
<g id="edge100" class="edge">
<title>65&#45;&gt;64</title>
<path fill="none" stroke="#c0c0c0" stroke-width="2" d="M2180.7336,-215.8314C2179.985,-208.131 2179.0947,-198.9743 2178.2627,-190.4166"/>
<polygon fill="#c0c0c0" stroke="#c0c0c0" stroke-width="2" points="2181.7415,-190.0276 2177.2902,-180.4133 2174.7744,-190.7051 2181.7415,-190.0276"/>
</g>
<!-- 66 -->
<g id="node67" class="node">
<title>66</title>
<path fill="none" stroke="#56d8a9" stroke-width="2" d="M1510,-180C1510,-180 1457,-180 1457,-180 1451,-180 1445,-174 1445,-168 1445,-168 1445,-156 1445,-156 1445,-150 1451,-144 1457,-144 1457,-144 1510,-144 1510,-144 1516,-144 1522,-150 1522,-156 1522,-156 1522,-168 1522,-168 1522,-174 1516,-180 1510,-180"/>
<text text-anchor="middle" x="1483.5" y="-159.5" font-family="sans" font-size="10.00" fill="#000000">nonpareil_plot</text>
</g>
<!-- 66&#45;&gt;1 -->
<g id="edge34" class="edge">
<title>66&#45;&gt;1</title>
<path fill="none" stroke="#c0c0c0" stroke-width="2" d="M1444.9465,-153.2434C1383.491,-139.285 1264.0985,-112.1675 1203.5823,-98.4225"/>
<polygon fill="#c0c0c0" stroke="#c0c0c0" stroke-width="2" points="1204.2201,-94.9783 1193.6932,-96.1764 1202.6696,-101.8044 1204.2201,-94.9783"/>
</g>
<!-- 67&#45;&gt;66 -->
<g id="edge102" class="edge">
<title>67&#45;&gt;66</title>
<path fill="none" stroke="#c0c0c0" stroke-width="2" d="M1521.6305,-215.8314C1515.8165,-207.6232 1508.8304,-197.7606 1502.4354,-188.7323"/>
<polygon fill="#c0c0c0" stroke="#c0c0c0" stroke-width="2" points="1505.179,-186.5505 1496.5427,-180.4133 1499.4669,-190.5966 1505.179,-186.5505"/>
</g>
</g>
</svg>
