<?xml version="1.0" encoding="UTF-8" standalone="no"?>
<!DOCTYPE svg PUBLIC "-//W3C//DTD SVG 1.1//EN"
 "http://www.w3.org/Graphics/SVG/1.1/DTD/svg11.dtd">
<!-- Generated by graphviz version 2.40.1 (0)
 -->
<!-- Title: snakemake_dag Pages: 1 -->
<svg width="2230pt" height="780pt"
 viewBox="0.00 0.00 2229.57 780.00" xmlns="http://www.w3.org/2000/svg" xmlns:xlink="http://www.w3.org/1999/xlink">
<g id="graph0" class="graph" transform="scale(1 1) rotate(0) translate(4 776)">
<title>snakemake_dag</title>
<polygon fill="#ffffff" stroke="transparent" points="-4,4 -4,-776 2225.5737,-776 2225.5737,4 -4,4"/>
<!-- 0 -->
<g id="node1" class="node">
<title>0</title>
<path fill="none" stroke="#d85656" stroke-width="2" d="M1270.5,-36C1270.5,-36 1240.5,-36 1240.5,-36 1234.5,-36 1228.5,-30 1228.5,-24 1228.5,-24 1228.5,-12 1228.5,-12 1228.5,-6 1234.5,0 1240.5,0 1240.5,0 1270.5,0 1270.5,0 1276.5,0 1282.5,-6 1282.5,-12 1282.5,-12 1282.5,-24 1282.5,-24 1282.5,-30 1276.5,-36 1270.5,-36"/>
<text text-anchor="middle" x="1255.5" y="-15.5" font-family="sans" font-size="10.00" fill="#000000">all</text>
</g>
<!-- 1 -->
<g id="node2" class="node">
<title>1</title>
<path fill="none" stroke="#80d856" stroke-width="2" d="M1168.5,-108C1168.5,-108 1138.5,-108 1138.5,-108 1132.5,-108 1126.5,-102 1126.5,-96 1126.5,-96 1126.5,-84 1126.5,-84 1126.5,-78 1132.5,-72 1138.5,-72 1138.5,-72 1168.5,-72 1168.5,-72 1174.5,-72 1180.5,-78 1180.5,-84 1180.5,-84 1180.5,-96 1180.5,-96 1180.5,-102 1174.5,-108 1168.5,-108"/>
<text text-anchor="middle" x="1153.5" y="-87.5" font-family="sans" font-size="10.00" fill="#000000">multiqc</text>
</g>
<!-- 1&#45;&gt;0 -->
<g id="edge1" class="edge">
<title>1&#45;&gt;0</title>
<path fill="none" stroke="#c0c0c0" stroke-width="2" d="M1179.2389,-71.8314C1192.0437,-62.7927 1207.6909,-51.7476 1221.4719,-42.0198"/>
<polygon fill="#c0c0c0" stroke="#c0c0c0" stroke-width="2" points="1223.618,-44.7891 1229.7693,-36.1628 1219.5812,-39.0703 1223.618,-44.7891"/>
</g>
<!-- 2 -->
<g id="node3" class="node">
<title>2</title>
<path fill="none" stroke="#56a9d8" stroke-width="2" d="M784.5,-180C784.5,-180 714.5,-180 714.5,-180 708.5,-180 702.5,-174 702.5,-168 702.5,-168 702.5,-156 702.5,-156 702.5,-150 708.5,-144 714.5,-144 714.5,-144 784.5,-144 784.5,-144 790.5,-144 796.5,-150 796.5,-156 796.5,-156 796.5,-168 796.5,-168 796.5,-174 790.5,-180 784.5,-180"/>
<text text-anchor="middle" x="749.5" y="-165" font-family="sans" font-size="10.00" fill="#000000">seqkit_stats</text>
<text text-anchor="middle" x="749.5" y="-154" font-family="sans" font-size="10.00" fill="#000000">tool: merge_lanes</text>
</g>
<!-- 2&#45;&gt;1 -->
<g id="edge5" class="edge">
<title>2&#45;&gt;1</title>
<path fill="none" stroke="#c0c0c0" stroke-width="2" d="M796.7092,-146.25C799.6706,-145.441 802.6182,-144.6823 805.5,-144 917.0881,-117.5813 1051.9644,-100.888 1116.1068,-93.8504"/>
<polygon fill="#c0c0c0" stroke="#c0c0c0" stroke-width="2" points="1116.5796,-97.3198 1126.1453,-92.7648 1115.827,-90.3603 1116.5796,-97.3198"/>
</g>
<!-- 3 -->
<g id="node4" class="node">
<title>3</title>
<path fill="none" stroke="#afd856" stroke-width="2" d="M734.5,-772C734.5,-772 630.5,-772 630.5,-772 624.5,-772 618.5,-766 618.5,-760 618.5,-760 618.5,-732 618.5,-732 618.5,-726 624.5,-720 630.5,-720 630.5,-720 734.5,-720 734.5,-720 740.5,-720 746.5,-726 746.5,-732 746.5,-732 746.5,-760 746.5,-760 746.5,-766 740.5,-772 734.5,-772"/>
<text text-anchor="middle" x="682.5" y="-760" font-family="sans" font-size="10.00" fill="#000000">merge_lanes</text>
<text text-anchor="middle" x="682.5" y="-749" font-family="sans" font-size="10.00" fill="#000000">library: lib1</text>
<text text-anchor="middle" x="682.5" y="-738" font-family="sans" font-size="10.00" fill="#000000">read_type_trim: collapsed</text>
<text text-anchor="middle" x="682.5" y="-727" font-family="sans" font-size="10.00" fill="#000000">sample: HD827sonic_2</text>
</g>
<!-- 3&#45;&gt;2 -->
<g id="edge35" class="edge">
<title>3&#45;&gt;2</title>
<path fill="none" stroke="#c0c0c0" stroke-width="2" d="M699.8331,-719.9943C706.4187,-709.2117 713.5241,-696.3537 718.5,-684 733.8847,-645.8042 740.5,-635.1777 740.5,-594 740.5,-594 740.5,-594 740.5,-306 740.5,-265.7977 744.0375,-219.4047 746.6768,-190.385"/>
<polygon fill="#c0c0c0" stroke="#c0c0c0" stroke-width="2" points="750.1864,-190.4457 747.6352,-180.1626 743.217,-189.7923 750.1864,-190.4457"/>
</g>
<!-- 13 -->
<g id="node14" class="node">
<title>13</title>
<path fill="none" stroke="#59d856" stroke-width="2" d="M855.5,-684C855.5,-684 785.5,-684 785.5,-684 779.5,-684 773.5,-678 773.5,-672 773.5,-672 773.5,-660 773.5,-660 773.5,-654 779.5,-648 785.5,-648 785.5,-648 855.5,-648 855.5,-648 861.5,-648 867.5,-654 867.5,-660 867.5,-660 867.5,-672 867.5,-672 867.5,-678 861.5,-684 855.5,-684"/>
<text text-anchor="middle" x="820.5" y="-669" font-family="sans" font-size="10.00" fill="#000000">nonpareil_infer</text>
<text text-anchor="middle" x="820.5" y="-658" font-family="sans" font-size="10.00" fill="#000000">tool: merge_lanes</text>
</g>
<!-- 3&#45;&gt;13 -->
<g id="edge43" class="edge">
<title>3&#45;&gt;13</title>
<path fill="none" stroke="#c0c0c0" stroke-width="2" d="M727.6864,-719.805C744.6654,-709.9621 763.8372,-698.848 780.3297,-689.2871"/>
<polygon fill="#c0c0c0" stroke="#c0c0c0" stroke-width="2" points="782.2896,-692.1966 789.1857,-684.1532 778.7789,-686.1406 782.2896,-692.1966"/>
</g>
<!-- 15 -->
<g id="node16" class="node">
<title>15</title>
<path fill="none" stroke="#d88556" stroke-width="2" d="M657,-612C657,-612 598,-612 598,-612 592,-612 586,-606 586,-600 586,-600 586,-588 586,-588 586,-582 592,-576 598,-576 598,-576 657,-576 657,-576 663,-576 669,-582 669,-588 669,-588 669,-600 669,-600 669,-606 663,-612 657,-612"/>
<text text-anchor="middle" x="627.5" y="-591.5" font-family="sans" font-size="10.00" fill="#000000">extend_tadpole</text>
</g>
<!-- 3&#45;&gt;15 -->
<g id="edge45" class="edge">
<title>3&#45;&gt;15</title>
<path fill="none" stroke="#c0c0c0" stroke-width="2" d="M664.7818,-719.7703C658.2208,-709.0611 651.2349,-696.3148 646.5,-684 638.7869,-663.9391 633.9324,-640.0964 631.0626,-621.9928"/>
<polygon fill="#c0c0c0" stroke="#c0c0c0" stroke-width="2" points="634.5204,-621.4495 629.5956,-612.0689 627.5956,-622.4732 634.5204,-621.4495"/>
</g>
<!-- 16 -->
<g id="node17" class="node">
<title>16</title>
<path fill="none" stroke="#d8ac56" stroke-width="2" d="M697.5,-684C697.5,-684 667.5,-684 667.5,-684 661.5,-684 655.5,-678 655.5,-672 655.5,-672 655.5,-660 655.5,-660 655.5,-654 661.5,-648 667.5,-648 667.5,-648 697.5,-648 697.5,-648 703.5,-648 709.5,-654 709.5,-660 709.5,-660 709.5,-672 709.5,-672 709.5,-678 703.5,-684 697.5,-684"/>
<text text-anchor="middle" x="682.5" y="-663.5" font-family="sans" font-size="10.00" fill="#000000">loglog</text>
</g>
<!-- 3&#45;&gt;16 -->
<g id="edge47" class="edge">
<title>3&#45;&gt;16</title>
<path fill="none" stroke="#c0c0c0" stroke-width="2" d="M682.5,-719.805C682.5,-711.6026 682.5,-702.5174 682.5,-694.1839"/>
<polygon fill="#c0c0c0" stroke="#c0c0c0" stroke-width="2" points="686.0001,-694.1532 682.5,-684.1532 679.0001,-694.1533 686.0001,-694.1532"/>
</g>
<!-- 48 -->
<g id="node49" class="node">
<title>48</title>
<path fill="none" stroke="#56d8d8" stroke-width="2" d="M343,-396C343,-396 300,-396 300,-396 294,-396 288,-390 288,-384 288,-384 288,-372 288,-372 288,-366 294,-360 300,-360 300,-360 343,-360 343,-360 349,-360 355,-366 355,-372 355,-372 355,-384 355,-384 355,-390 349,-396 343,-396"/>
<text text-anchor="middle" x="321.5" y="-375.5" font-family="sans" font-size="10.00" fill="#000000">seqkit_grep</text>
</g>
<!-- 3&#45;&gt;48 -->
<g id="edge83" class="edge">
<title>3&#45;&gt;48</title>
<path fill="none" stroke="#c0c0c0" stroke-width="2" d="M618.3764,-732.776C514.6394,-709.5182 321.5,-657.6674 321.5,-594 321.5,-594 321.5,-594 321.5,-522 321.5,-481.876 321.5,-435.4631 321.5,-406.4177"/>
<polygon fill="#c0c0c0" stroke="#c0c0c0" stroke-width="2" points="325.0001,-406.1853 321.5,-396.1854 318.0001,-406.1854 325.0001,-406.1853"/>
</g>
<!-- 4 -->
<g id="node5" class="node">
<title>4</title>
<path fill="none" stroke="#56a9d8" stroke-width="2" d="M1603.5,-612C1603.5,-612 1533.5,-612 1533.5,-612 1527.5,-612 1521.5,-606 1521.5,-600 1521.5,-600 1521.5,-588 1521.5,-588 1521.5,-582 1527.5,-576 1533.5,-576 1533.5,-576 1603.5,-576 1603.5,-576 1609.5,-576 1615.5,-582 1615.5,-588 1615.5,-588 1615.5,-600 1615.5,-600 1615.5,-606 1609.5,-612 1603.5,-612"/>
<text text-anchor="middle" x="1568.5" y="-597" font-family="sans" font-size="10.00" fill="#000000">seqkit_stats</text>
<text text-anchor="middle" x="1568.5" y="-586" font-family="sans" font-size="10.00" fill="#000000">tool: merge_lanes</text>
</g>
<!-- 4&#45;&gt;1 -->
<g id="edge6" class="edge">
<title>4&#45;&gt;1</title>
<path fill="none" stroke="#c0c0c0" stroke-width="2" d="M1568.5,-575.8146C1568.5,-548.4983 1568.5,-495.25 1568.5,-450 1568.5,-450 1568.5,-450 1568.5,-234 1568.5,-172.1982 1518.4552,-170.2387 1462.5,-144 1414.7799,-121.6229 1262.568,-102.2131 1191.1599,-94.0763"/>
<polygon fill="#c0c0c0" stroke="#c0c0c0" stroke-width="2" points="1191.1554,-90.5538 1180.8267,-92.9135 1190.3725,-97.5099 1191.1554,-90.5538"/>
</g>
<!-- 5 -->
<g id="node6" class="node">
<title>5</title>
<path fill="none" stroke="#afd856" stroke-width="2" d="M1816.5,-772C1816.5,-772 1712.5,-772 1712.5,-772 1706.5,-772 1700.5,-766 1700.5,-760 1700.5,-760 1700.5,-732 1700.5,-732 1700.5,-726 1706.5,-720 1712.5,-720 1712.5,-720 1816.5,-720 1816.5,-720 1822.5,-720 1828.5,-726 1828.5,-732 1828.5,-732 1828.5,-760 1828.5,-760 1828.5,-766 1822.5,-772 1816.5,-772"/>
<text text-anchor="middle" x="1764.5" y="-760" font-family="sans" font-size="10.00" fill="#000000">merge_lanes</text>
<text text-anchor="middle" x="1764.5" y="-749" font-family="sans" font-size="10.00" fill="#000000">library: lib2</text>
<text text-anchor="middle" x="1764.5" y="-738" font-family="sans" font-size="10.00" fill="#000000">read_type_trim: collapsed</text>
<text text-anchor="middle" x="1764.5" y="-727" font-family="sans" font-size="10.00" fill="#000000">sample: HD827sonic_2</text>
</g>
<!-- 5&#45;&gt;4 -->
<g id="edge36" class="edge">
<title>5&#45;&gt;4</title>
<path fill="none" stroke="#c0c0c0" stroke-width="2" d="M1700.45,-729.8005C1672.1756,-720.1474 1640.0816,-705.4791 1616.5,-684 1597.9937,-667.1436 1585.2896,-641.4612 1577.6226,-621.8396"/>
<polygon fill="#c0c0c0" stroke="#c0c0c0" stroke-width="2" points="1580.8146,-620.3795 1574.0684,-612.21 1574.2476,-622.8034 1580.8146,-620.3795"/>
</g>
<!-- 9 -->
<g id="node10" class="node">
<title>9</title>
<path fill="none" stroke="#59d856" stroke-width="2" d="M1707.5,-684C1707.5,-684 1637.5,-684 1637.5,-684 1631.5,-684 1625.5,-678 1625.5,-672 1625.5,-672 1625.5,-660 1625.5,-660 1625.5,-654 1631.5,-648 1637.5,-648 1637.5,-648 1707.5,-648 1707.5,-648 1713.5,-648 1719.5,-654 1719.5,-660 1719.5,-660 1719.5,-672 1719.5,-672 1719.5,-678 1713.5,-684 1707.5,-684"/>
<text text-anchor="middle" x="1672.5" y="-669" font-family="sans" font-size="10.00" fill="#000000">nonpareil_infer</text>
<text text-anchor="middle" x="1672.5" y="-658" font-family="sans" font-size="10.00" fill="#000000">tool: merge_lanes</text>
</g>
<!-- 5&#45;&gt;9 -->
<g id="edge39" class="edge">
<title>5&#45;&gt;9</title>
<path fill="none" stroke="#c0c0c0" stroke-width="2" d="M1734.3758,-719.805C1723.6853,-710.5089 1711.6908,-700.079 1701.1287,-690.8945"/>
<polygon fill="#c0c0c0" stroke="#c0c0c0" stroke-width="2" points="1703.2189,-688.0739 1693.3762,-684.1532 1698.6257,-693.3562 1703.2189,-688.0739"/>
</g>
<!-- 21 -->
<g id="node22" class="node">
<title>21</title>
<path fill="none" stroke="#d88556" stroke-width="2" d="M1823,-612C1823,-612 1764,-612 1764,-612 1758,-612 1752,-606 1752,-600 1752,-600 1752,-588 1752,-588 1752,-582 1758,-576 1764,-576 1764,-576 1823,-576 1823,-576 1829,-576 1835,-582 1835,-588 1835,-588 1835,-600 1835,-600 1835,-606 1829,-612 1823,-612"/>
<text text-anchor="middle" x="1793.5" y="-591.5" font-family="sans" font-size="10.00" fill="#000000">extend_tadpole</text>
</g>
<!-- 5&#45;&gt;21 -->
<g id="edge53" class="edge">
<title>5&#45;&gt;21</title>
<path fill="none" stroke="#c0c0c0" stroke-width="2" d="M1783.7526,-719.9062C1790.4351,-709.3174 1797.1019,-696.6197 1800.5,-684 1805.9502,-663.7594 1803.7946,-640.1018 1800.493,-622.1226"/>
<polygon fill="#c0c0c0" stroke="#c0c0c0" stroke-width="2" points="1803.9078,-621.3518 1798.4654,-612.2617 1797.0512,-622.7617 1803.9078,-621.3518"/>
</g>
<!-- 22 -->
<g id="node23" class="node">
<title>22</title>
<path fill="none" stroke="#d8ac56" stroke-width="2" d="M1779.5,-684C1779.5,-684 1749.5,-684 1749.5,-684 1743.5,-684 1737.5,-678 1737.5,-672 1737.5,-672 1737.5,-660 1737.5,-660 1737.5,-654 1743.5,-648 1749.5,-648 1749.5,-648 1779.5,-648 1779.5,-648 1785.5,-648 1791.5,-654 1791.5,-660 1791.5,-660 1791.5,-672 1791.5,-672 1791.5,-678 1785.5,-684 1779.5,-684"/>
<text text-anchor="middle" x="1764.5" y="-663.5" font-family="sans" font-size="10.00" fill="#000000">loglog</text>
</g>
<!-- 5&#45;&gt;22 -->
<g id="edge55" class="edge">
<title>5&#45;&gt;22</title>
<path fill="none" stroke="#c0c0c0" stroke-width="2" d="M1764.5,-719.805C1764.5,-711.6026 1764.5,-702.5174 1764.5,-694.1839"/>
<polygon fill="#c0c0c0" stroke="#c0c0c0" stroke-width="2" points="1768.0001,-694.1532 1764.5,-684.1532 1761.0001,-694.1533 1768.0001,-694.1532"/>
</g>
<!-- 42 -->
<g id="node43" class="node">
<title>42</title>
<path fill="none" stroke="#56d8d8" stroke-width="2" d="M2089,-396C2089,-396 2046,-396 2046,-396 2040,-396 2034,-390 2034,-384 2034,-384 2034,-372 2034,-372 2034,-366 2040,-360 2046,-360 2046,-360 2089,-360 2089,-360 2095,-360 2101,-366 2101,-372 2101,-372 2101,-384 2101,-384 2101,-390 2095,-396 2089,-396"/>
<text text-anchor="middle" x="2067.5" y="-375.5" font-family="sans" font-size="10.00" fill="#000000">seqkit_grep</text>
</g>
<!-- 5&#45;&gt;42 -->
<g id="edge75" class="edge">
<title>5&#45;&gt;42</title>
<path fill="none" stroke="#c0c0c0" stroke-width="2" d="M1828.5181,-730.0133C1923.458,-704.4044 2090.5,-651.217 2090.5,-594 2090.5,-594 2090.5,-594 2090.5,-522 2090.5,-481.1884 2081.38,-434.6758 2074.6257,-405.8247"/>
<polygon fill="#c0c0c0" stroke="#c0c0c0" stroke-width="2" points="2078.0124,-404.9385 2072.2656,-396.0377 2071.2075,-406.5796 2078.0124,-404.9385"/>
</g>
<!-- 6 -->
<g id="node7" class="node">
<title>6</title>
<path fill="none" stroke="#56a9d8" stroke-width="2" d="M1025.5,-612C1025.5,-612 955.5,-612 955.5,-612 949.5,-612 943.5,-606 943.5,-600 943.5,-600 943.5,-588 943.5,-588 943.5,-582 949.5,-576 955.5,-576 955.5,-576 1025.5,-576 1025.5,-576 1031.5,-576 1037.5,-582 1037.5,-588 1037.5,-588 1037.5,-600 1037.5,-600 1037.5,-606 1031.5,-612 1025.5,-612"/>
<text text-anchor="middle" x="990.5" y="-597" font-family="sans" font-size="10.00" fill="#000000">seqkit_stats</text>
<text text-anchor="middle" x="990.5" y="-586" font-family="sans" font-size="10.00" fill="#000000">tool: merge_lanes</text>
</g>
<!-- 6&#45;&gt;1 -->
<g id="edge7" class="edge">
<title>6&#45;&gt;1</title>
<path fill="none" stroke="#c0c0c0" stroke-width="2" d="M968.4318,-575.8366C958.1401,-566.218 946.6194,-553.5939 939.5,-540 920.5331,-503.7845 920.5,-490.8816 920.5,-450 920.5,-450 920.5,-450 920.5,-234 920.5,-188.6667 933.3191,-172.5905 968.5,-144 991.2389,-125.5207 1069.4604,-107.0505 1116.6011,-97.2269"/>
<polygon fill="#c0c0c0" stroke="#c0c0c0" stroke-width="2" points="1117.3495,-100.6464 1126.4418,-95.2076 1115.9423,-93.7892 1117.3495,-100.6464"/>
</g>
<!-- 7 -->
<g id="node8" class="node">
<title>7</title>
<path fill="none" stroke="#afd856" stroke-width="2" d="M1274.5,-772C1274.5,-772 1170.5,-772 1170.5,-772 1164.5,-772 1158.5,-766 1158.5,-760 1158.5,-760 1158.5,-732 1158.5,-732 1158.5,-726 1164.5,-720 1170.5,-720 1170.5,-720 1274.5,-720 1274.5,-720 1280.5,-720 1286.5,-726 1286.5,-732 1286.5,-732 1286.5,-760 1286.5,-760 1286.5,-766 1280.5,-772 1274.5,-772"/>
<text text-anchor="middle" x="1222.5" y="-760" font-family="sans" font-size="10.00" fill="#000000">merge_lanes</text>
<text text-anchor="middle" x="1222.5" y="-749" font-family="sans" font-size="10.00" fill="#000000">library: lib1</text>
<text text-anchor="middle" x="1222.5" y="-738" font-family="sans" font-size="10.00" fill="#000000">read_type_trim: collapsed</text>
<text text-anchor="middle" x="1222.5" y="-727" font-family="sans" font-size="10.00" fill="#000000">sample: HD827sonic_1</text>
</g>
<!-- 7&#45;&gt;6 -->
<g id="edge37" class="edge">
<title>7&#45;&gt;6</title>
<path fill="none" stroke="#c0c0c0" stroke-width="2" d="M1182.6178,-719.8703C1138.8332,-691.1838 1069.1445,-645.5257 1026.8264,-617.8001"/>
<polygon fill="#c0c0c0" stroke="#c0c0c0" stroke-width="2" points="1028.5136,-614.7212 1018.2308,-612.1685 1024.6773,-620.5764 1028.5136,-614.7212"/>
</g>
<!-- 11 -->
<g id="node12" class="node">
<title>11</title>
<path fill="none" stroke="#59d856" stroke-width="2" d="M1490.5,-684C1490.5,-684 1420.5,-684 1420.5,-684 1414.5,-684 1408.5,-678 1408.5,-672 1408.5,-672 1408.5,-660 1408.5,-660 1408.5,-654 1414.5,-648 1420.5,-648 1420.5,-648 1490.5,-648 1490.5,-648 1496.5,-648 1502.5,-654 1502.5,-660 1502.5,-660 1502.5,-672 1502.5,-672 1502.5,-678 1496.5,-684 1490.5,-684"/>
<text text-anchor="middle" x="1455.5" y="-669" font-family="sans" font-size="10.00" fill="#000000">nonpareil_infer</text>
<text text-anchor="middle" x="1455.5" y="-658" font-family="sans" font-size="10.00" fill="#000000">tool: merge_lanes</text>
</g>
<!-- 7&#45;&gt;11 -->
<g id="edge41" class="edge">
<title>7&#45;&gt;11</title>
<path fill="none" stroke="#c0c0c0" stroke-width="2" d="M1286.7851,-723.9279C1321.8482,-711.889 1364.8678,-697.1184 1398.6905,-685.5054"/>
<polygon fill="#c0c0c0" stroke="#c0c0c0" stroke-width="2" points="1400.0999,-688.7221 1408.4213,-682.1644 1397.8266,-682.1015 1400.0999,-688.7221"/>
</g>
<!-- 18 -->
<g id="node19" class="node">
<title>18</title>
<path fill="none" stroke="#d88556" stroke-width="2" d="M1197,-612C1197,-612 1138,-612 1138,-612 1132,-612 1126,-606 1126,-600 1126,-600 1126,-588 1126,-588 1126,-582 1132,-576 1138,-576 1138,-576 1197,-576 1197,-576 1203,-576 1209,-582 1209,-588 1209,-588 1209,-600 1209,-600 1209,-606 1203,-612 1197,-612"/>
<text text-anchor="middle" x="1167.5" y="-591.5" font-family="sans" font-size="10.00" fill="#000000">extend_tadpole</text>
</g>
<!-- 7&#45;&gt;18 -->
<g id="edge49" class="edge">
<title>7&#45;&gt;18</title>
<path fill="none" stroke="#c0c0c0" stroke-width="2" d="M1220.2667,-719.8147C1217.8756,-699.5976 1213.0482,-671.2449 1203.5,-648 1199.6236,-638.5629 1193.9856,-629.046 1188.3172,-620.6864"/>
<polygon fill="#c0c0c0" stroke="#c0c0c0" stroke-width="2" points="1191.112,-618.577 1182.4716,-612.4456 1185.4026,-622.627 1191.112,-618.577"/>
</g>
<!-- 19 -->
<g id="node20" class="node">
<title>19</title>
<path fill="none" stroke="#d8ac56" stroke-width="2" d="M1182.5,-684C1182.5,-684 1152.5,-684 1152.5,-684 1146.5,-684 1140.5,-678 1140.5,-672 1140.5,-672 1140.5,-660 1140.5,-660 1140.5,-654 1146.5,-648 1152.5,-648 1152.5,-648 1182.5,-648 1182.5,-648 1188.5,-648 1194.5,-654 1194.5,-660 1194.5,-660 1194.5,-672 1194.5,-672 1194.5,-678 1188.5,-684 1182.5,-684"/>
<text text-anchor="middle" x="1167.5" y="-663.5" font-family="sans" font-size="10.00" fill="#000000">loglog</text>
</g>
<!-- 7&#45;&gt;19 -->
<g id="edge51" class="edge">
<title>7&#45;&gt;19</title>
<path fill="none" stroke="#c0c0c0" stroke-width="2" d="M1204.4909,-719.805C1198.4758,-711.0557 1191.7702,-701.3021 1185.7378,-692.5277"/>
<polygon fill="#c0c0c0" stroke="#c0c0c0" stroke-width="2" points="1188.5298,-690.4108 1179.9804,-684.1532 1182.7615,-694.3765 1188.5298,-690.4108"/>
</g>
<!-- 45 -->
<g id="node46" class="node">
<title>45</title>
<path fill="none" stroke="#56d8d8" stroke-width="2" d="M1354,-396C1354,-396 1311,-396 1311,-396 1305,-396 1299,-390 1299,-384 1299,-384 1299,-372 1299,-372 1299,-366 1305,-360 1311,-360 1311,-360 1354,-360 1354,-360 1360,-360 1366,-366 1366,-372 1366,-372 1366,-384 1366,-384 1366,-390 1360,-396 1354,-396"/>
<text text-anchor="middle" x="1332.5" y="-375.5" font-family="sans" font-size="10.00" fill="#000000">seqkit_grep</text>
</g>
<!-- 7&#45;&gt;45 -->
<g id="edge79" class="edge">
<title>7&#45;&gt;45</title>
<path fill="none" stroke="#c0c0c0" stroke-width="2" d="M1275.3844,-719.7806C1318.5703,-694.2211 1372.5,-650.9098 1372.5,-594 1372.5,-594 1372.5,-594 1372.5,-522 1372.5,-480.2219 1356.676,-434.0316 1344.9336,-405.5067"/>
<polygon fill="#c0c0c0" stroke="#c0c0c0" stroke-width="2" points="1348.1092,-404.0301 1340.983,-396.19 1341.6646,-406.7629 1348.1092,-404.0301"/>
</g>
<!-- 8 -->
<g id="node9" class="node">
<title>8</title>
<path fill="none" stroke="#56d882" stroke-width="2" d="M1699,-612C1699,-612 1646,-612 1646,-612 1640,-612 1634,-606 1634,-600 1634,-600 1634,-588 1634,-588 1634,-582 1640,-576 1646,-576 1646,-576 1699,-576 1699,-576 1705,-576 1711,-582 1711,-588 1711,-588 1711,-600 1711,-600 1711,-606 1705,-612 1699,-612"/>
<text text-anchor="middle" x="1672.5" y="-591.5" font-family="sans" font-size="10.00" fill="#000000">nonpareil_plot</text>
</g>
<!-- 8&#45;&gt;1 -->
<g id="edge8" class="edge">
<title>8&#45;&gt;1</title>
<path fill="none" stroke="#c0c0c0" stroke-width="2" d="M1657.8525,-575.6749C1638.4083,-549.4479 1606.5,-498.9514 1606.5,-450 1606.5,-450 1606.5,-450 1606.5,-234 1606.5,-177.1163 1566.3699,-169.4559 1515.5,-144 1458.9415,-115.6975 1271.4607,-98.7596 1190.8624,-92.6253"/>
<polygon fill="#c0c0c0" stroke="#c0c0c0" stroke-width="2" points="1190.9072,-89.119 1180.6742,-91.8643 1190.3857,-96.0996 1190.9072,-89.119"/>
</g>
<!-- 9&#45;&gt;8 -->
<g id="edge38" class="edge">
<title>9&#45;&gt;8</title>
<path fill="none" stroke="#c0c0c0" stroke-width="2" d="M1672.5,-647.8314C1672.5,-640.131 1672.5,-630.9743 1672.5,-622.4166"/>
<polygon fill="#c0c0c0" stroke="#c0c0c0" stroke-width="2" points="1676.0001,-622.4132 1672.5,-612.4133 1669.0001,-622.4133 1676.0001,-622.4132"/>
</g>
<!-- 10 -->
<g id="node11" class="node">
<title>10</title>
<path fill="none" stroke="#56d882" stroke-width="2" d="M1487,-612C1487,-612 1434,-612 1434,-612 1428,-612 1422,-606 1422,-600 1422,-600 1422,-588 1422,-588 1422,-582 1428,-576 1434,-576 1434,-576 1487,-576 1487,-576 1493,-576 1499,-582 1499,-588 1499,-588 1499,-600 1499,-600 1499,-606 1493,-612 1487,-612"/>
<text text-anchor="middle" x="1460.5" y="-591.5" font-family="sans" font-size="10.00" fill="#000000">nonpareil_plot</text>
</g>
<!-- 10&#45;&gt;1 -->
<g id="edge9" class="edge">
<title>10&#45;&gt;1</title>
<path fill="none" stroke="#c0c0c0" stroke-width="2" d="M1476.0353,-575.8219C1496.6578,-549.7696 1530.5,-499.4792 1530.5,-450 1530.5,-450 1530.5,-450 1530.5,-234 1530.5,-162.2584 1462.4364,-172.2711 1396.5,-144 1327.3018,-114.3304 1239.7473,-100.0343 1190.8682,-93.9281"/>
<polygon fill="#c0c0c0" stroke="#c0c0c0" stroke-width="2" points="1191.1019,-90.4311 1180.7558,-92.7134 1190.267,-97.3811 1191.1019,-90.4311"/>
</g>
<!-- 11&#45;&gt;10 -->
<g id="edge40" class="edge">
<title>11&#45;&gt;10</title>
<path fill="none" stroke="#c0c0c0" stroke-width="2" d="M1456.7617,-647.8314C1457.2965,-640.131 1457.9323,-630.9743 1458.5266,-622.4166"/>
<polygon fill="#c0c0c0" stroke="#c0c0c0" stroke-width="2" points="1462.02,-622.6317 1459.2213,-612.4133 1455.0368,-622.1467 1462.02,-622.6317"/>
</g>
<!-- 12 -->
<g id="node13" class="node">
<title>12</title>
<path fill="none" stroke="#56d882" stroke-width="2" d="M880,-180C880,-180 827,-180 827,-180 821,-180 815,-174 815,-168 815,-168 815,-156 815,-156 815,-150 821,-144 827,-144 827,-144 880,-144 880,-144 886,-144 892,-150 892,-156 892,-156 892,-168 892,-168 892,-174 886,-180 880,-180"/>
<text text-anchor="middle" x="853.5" y="-159.5" font-family="sans" font-size="10.00" fill="#000000">nonpareil_plot</text>
</g>
<!-- 12&#45;&gt;1 -->
<g id="edge10" class="edge">
<title>12&#45;&gt;1</title>
<path fill="none" stroke="#c0c0c0" stroke-width="2" d="M892.1312,-148.3213C896.9447,-146.7823 901.819,-145.3022 906.5,-144 979.9776,-123.5601 1067.496,-105.9906 1116.1481,-96.8109"/>
<polygon fill="#c0c0c0" stroke="#c0c0c0" stroke-width="2" points="1117.0236,-100.2079 1126.209,-94.9279 1115.7358,-93.3274 1117.0236,-100.2079"/>
</g>
<!-- 13&#45;&gt;12 -->
<g id="edge42" class="edge">
<title>13&#45;&gt;12</title>
<path fill="none" stroke="#c0c0c0" stroke-width="2" d="M821.3288,-647.8191C822.5004,-620.5085 824.5,-567.2675 824.5,-522 824.5,-522 824.5,-522 824.5,-306 824.5,-265.1172 835.8724,-218.9678 844.374,-190.1802"/>
<polygon fill="#c0c0c0" stroke="#c0c0c0" stroke-width="2" points="847.7867,-190.9874 847.3498,-180.4016 841.09,-188.9494 847.7867,-190.9874"/>
</g>
<!-- 14 -->
<g id="node15" class="node">
<title>14</title>
<path fill="none" stroke="#56a9d8" stroke-width="2" d="M672.5,-180C672.5,-180 594.5,-180 594.5,-180 588.5,-180 582.5,-174 582.5,-168 582.5,-168 582.5,-156 582.5,-156 582.5,-150 588.5,-144 594.5,-144 594.5,-144 672.5,-144 672.5,-144 678.5,-144 684.5,-150 684.5,-156 684.5,-156 684.5,-168 684.5,-168 684.5,-174 678.5,-180 672.5,-180"/>
<text text-anchor="middle" x="633.5" y="-165" font-family="sans" font-size="10.00" fill="#000000">seqkit_stats</text>
<text text-anchor="middle" x="633.5" y="-154" font-family="sans" font-size="10.00" fill="#000000">tool: extend/tadpole</text>
</g>
<!-- 14&#45;&gt;1 -->
<g id="edge11" class="edge">
<title>14&#45;&gt;1</title>
<path fill="none" stroke="#c0c0c0" stroke-width="2" d="M684.7361,-145.9875C687.6884,-145.2653 690.6246,-144.5953 693.5,-144 848.4171,-111.9258 1036.9147,-97.2569 1115.8747,-92.1847"/>
<polygon fill="#c0c0c0" stroke="#c0c0c0" stroke-width="2" points="1116.5134,-95.6516 1126.2744,-91.5319 1116.0748,-88.6654 1116.5134,-95.6516"/>
</g>
<!-- 15&#45;&gt;14 -->
<g id="edge44" class="edge">
<title>15&#45;&gt;14</title>
<path fill="none" stroke="#c0c0c0" stroke-width="2" d="M644.9614,-575.906C653.5752,-566.0232 663.3998,-553.1431 669.5,-540 686.7113,-502.9179 688.5,-490.8816 688.5,-450 688.5,-450 688.5,-450 688.5,-306 688.5,-262.9621 666.7948,-217.1692 650.6549,-189.0671"/>
<polygon fill="#c0c0c0" stroke="#c0c0c0" stroke-width="2" points="653.539,-187.0682 645.4342,-180.2446 647.5148,-190.6331 653.539,-187.0682"/>
</g>
<!-- 26 -->
<g id="node27" class="node">
<title>26</title>
<path fill="none" stroke="#59d856" stroke-width="2" d="M648.5,-540C648.5,-540 570.5,-540 570.5,-540 564.5,-540 558.5,-534 558.5,-528 558.5,-528 558.5,-516 558.5,-516 558.5,-510 564.5,-504 570.5,-504 570.5,-504 648.5,-504 648.5,-504 654.5,-504 660.5,-510 660.5,-516 660.5,-516 660.5,-528 660.5,-528 660.5,-534 654.5,-540 648.5,-540"/>
<text text-anchor="middle" x="609.5" y="-525" font-family="sans" font-size="10.00" fill="#000000">nonpareil_infer</text>
<text text-anchor="middle" x="609.5" y="-514" font-family="sans" font-size="10.00" fill="#000000">tool: extend/tadpole</text>
</g>
<!-- 15&#45;&gt;26 -->
<g id="edge59" class="edge">
<title>15&#45;&gt;26</title>
<path fill="none" stroke="#c0c0c0" stroke-width="2" d="M622.9578,-575.8314C621.0116,-568.0463 618.6932,-558.7729 616.5337,-550.1347"/>
<polygon fill="#c0c0c0" stroke="#c0c0c0" stroke-width="2" points="619.9242,-549.2658 614.1033,-540.4133 613.1332,-550.9636 619.9242,-549.2658"/>
</g>
<!-- 34 -->
<g id="node35" class="node">
<title>34</title>
<path fill="none" stroke="#5682d8" stroke-width="2" d="M498.5,-540C498.5,-540 468.5,-540 468.5,-540 462.5,-540 456.5,-534 456.5,-528 456.5,-528 456.5,-516 456.5,-516 456.5,-510 462.5,-504 468.5,-504 468.5,-504 498.5,-504 498.5,-504 504.5,-504 510.5,-510 510.5,-516 510.5,-516 510.5,-528 510.5,-528 510.5,-534 504.5,-540 498.5,-540"/>
<text text-anchor="middle" x="483.5" y="-519.5" font-family="sans" font-size="10.00" fill="#000000">vsearch</text>
</g>
<!-- 15&#45;&gt;34 -->
<g id="edge67" class="edge">
<title>15&#45;&gt;34</title>
<path fill="none" stroke="#c0c0c0" stroke-width="2" d="M591.1627,-575.8314C569.2917,-564.8959 541.5472,-551.0236 519.7008,-540.1004"/>
<polygon fill="#c0c0c0" stroke="#c0c0c0" stroke-width="2" points="521.243,-536.9584 510.7334,-535.6167 518.1124,-543.2194 521.243,-536.9584"/>
</g>
<!-- 16&#45;&gt;15 -->
<g id="edge46" class="edge">
<title>16&#45;&gt;15</title>
<path fill="none" stroke="#c0c0c0" stroke-width="2" d="M668.6212,-647.8314C662.2864,-639.5386 654.6616,-629.557 647.7074,-620.4533"/>
<polygon fill="#c0c0c0" stroke="#c0c0c0" stroke-width="2" points="650.4175,-618.2353 641.5657,-612.4133 644.8548,-622.4847 650.4175,-618.2353"/>
</g>
<!-- 17 -->
<g id="node18" class="node">
<title>17</title>
<path fill="none" stroke="#56a9d8" stroke-width="2" d="M1038.5,-540C1038.5,-540 960.5,-540 960.5,-540 954.5,-540 948.5,-534 948.5,-528 948.5,-528 948.5,-516 948.5,-516 948.5,-510 954.5,-504 960.5,-504 960.5,-504 1038.5,-504 1038.5,-504 1044.5,-504 1050.5,-510 1050.5,-516 1050.5,-516 1050.5,-528 1050.5,-528 1050.5,-534 1044.5,-540 1038.5,-540"/>
<text text-anchor="middle" x="999.5" y="-525" font-family="sans" font-size="10.00" fill="#000000">seqkit_stats</text>
<text text-anchor="middle" x="999.5" y="-514" font-family="sans" font-size="10.00" fill="#000000">tool: extend/tadpole</text>
</g>
<!-- 17&#45;&gt;1 -->
<g id="edge12" class="edge">
<title>17&#45;&gt;1</title>
<path fill="none" stroke="#c0c0c0" stroke-width="2" d="M990.805,-503.8324C978.7698,-476.9721 958.5,-424.7885 958.5,-378 958.5,-378 958.5,-378 958.5,-234 958.5,-188.8741 971.565,-173.7449 1005.5,-144 1037.0516,-116.3442 1083.9313,-102.4428 1116.4406,-95.7422"/>
<polygon fill="#c0c0c0" stroke="#c0c0c0" stroke-width="2" points="1117.2967,-99.1416 1126.453,-93.8113 1115.9712,-92.2683 1117.2967,-99.1416"/>
</g>
<!-- 18&#45;&gt;17 -->
<g id="edge48" class="edge">
<title>18&#45;&gt;17</title>
<path fill="none" stroke="#c0c0c0" stroke-width="2" d="M1125.9719,-576.2022C1103.3259,-566.4968 1075.0909,-554.3961 1051.0476,-544.0918"/>
<polygon fill="#c0c0c0" stroke="#c0c0c0" stroke-width="2" points="1052.2875,-540.8154 1041.7173,-540.0931 1049.53,-547.2494 1052.2875,-540.8154"/>
</g>
<!-- 24 -->
<g id="node25" class="node">
<title>24</title>
<path fill="none" stroke="#59d856" stroke-width="2" d="M1158.5,-540C1158.5,-540 1080.5,-540 1080.5,-540 1074.5,-540 1068.5,-534 1068.5,-528 1068.5,-528 1068.5,-516 1068.5,-516 1068.5,-510 1074.5,-504 1080.5,-504 1080.5,-504 1158.5,-504 1158.5,-504 1164.5,-504 1170.5,-510 1170.5,-516 1170.5,-516 1170.5,-528 1170.5,-528 1170.5,-534 1164.5,-540 1158.5,-540"/>
<text text-anchor="middle" x="1119.5" y="-525" font-family="sans" font-size="10.00" fill="#000000">nonpareil_infer</text>
<text text-anchor="middle" x="1119.5" y="-514" font-family="sans" font-size="10.00" fill="#000000">tool: extend/tadpole</text>
</g>
<!-- 18&#45;&gt;24 -->
<g id="edge57" class="edge">
<title>18&#45;&gt;24</title>
<path fill="none" stroke="#c0c0c0" stroke-width="2" d="M1155.3876,-575.8314C1149.9719,-567.7079 1143.4758,-557.9637 1137.5079,-549.0118"/>
<polygon fill="#c0c0c0" stroke="#c0c0c0" stroke-width="2" points="1140.2347,-546.7923 1131.7755,-540.4133 1134.4104,-550.6753 1140.2347,-546.7923"/>
</g>
<!-- 32 -->
<g id="node33" class="node">
<title>32</title>
<path fill="none" stroke="#5682d8" stroke-width="2" d="M1230.5,-540C1230.5,-540 1200.5,-540 1200.5,-540 1194.5,-540 1188.5,-534 1188.5,-528 1188.5,-528 1188.5,-516 1188.5,-516 1188.5,-510 1194.5,-504 1200.5,-504 1200.5,-504 1230.5,-504 1230.5,-504 1236.5,-504 1242.5,-510 1242.5,-516 1242.5,-516 1242.5,-528 1242.5,-528 1242.5,-534 1236.5,-540 1230.5,-540"/>
<text text-anchor="middle" x="1215.5" y="-519.5" font-family="sans" font-size="10.00" fill="#000000">vsearch</text>
</g>
<!-- 18&#45;&gt;32 -->
<g id="edge65" class="edge">
<title>18&#45;&gt;32</title>
<path fill="none" stroke="#c0c0c0" stroke-width="2" d="M1179.6124,-575.8314C1185.0281,-567.7079 1191.5242,-557.9637 1197.4921,-549.0118"/>
<polygon fill="#c0c0c0" stroke="#c0c0c0" stroke-width="2" points="1200.5896,-550.6753 1203.2245,-540.4133 1194.7653,-546.7923 1200.5896,-550.6753"/>
</g>
<!-- 19&#45;&gt;18 -->
<g id="edge50" class="edge">
<title>19&#45;&gt;18</title>
<path fill="none" stroke="#c0c0c0" stroke-width="2" d="M1167.5,-647.8314C1167.5,-640.131 1167.5,-630.9743 1167.5,-622.4166"/>
<polygon fill="#c0c0c0" stroke="#c0c0c0" stroke-width="2" points="1171.0001,-622.4132 1167.5,-612.4133 1164.0001,-622.4133 1171.0001,-622.4132"/>
</g>
<!-- 20 -->
<g id="node21" class="node">
<title>20</title>
<path fill="none" stroke="#56a9d8" stroke-width="2" d="M1724.5,-396C1724.5,-396 1646.5,-396 1646.5,-396 1640.5,-396 1634.5,-390 1634.5,-384 1634.5,-384 1634.5,-372 1634.5,-372 1634.5,-366 1640.5,-360 1646.5,-360 1646.5,-360 1724.5,-360 1724.5,-360 1730.5,-360 1736.5,-366 1736.5,-372 1736.5,-372 1736.5,-384 1736.5,-384 1736.5,-390 1730.5,-396 1724.5,-396"/>
<text text-anchor="middle" x="1685.5" y="-381" font-family="sans" font-size="10.00" fill="#000000">seqkit_stats</text>
<text text-anchor="middle" x="1685.5" y="-370" font-family="sans" font-size="10.00" fill="#000000">tool: extend/tadpole</text>
</g>
<!-- 20&#45;&gt;1 -->
<g id="edge13" class="edge">
<title>20&#45;&gt;1</title>
<path fill="none" stroke="#c0c0c0" stroke-width="2" d="M1679.4742,-359.5672C1676.1279,-349.1594 1671.9557,-335.8921 1668.5,-324 1645.3965,-244.4932 1683.1454,-198.1356 1620.5,-144 1588.1485,-116.0431 1295.8463,-97.6726 1190.8449,-91.9268"/>
<polygon fill="#c0c0c0" stroke="#c0c0c0" stroke-width="2" points="1190.8815,-88.4238 1180.7074,-91.3796 1190.5042,-95.4136 1190.8815,-88.4238"/>
</g>
<!-- 21&#45;&gt;20 -->
<g id="edge52" class="edge">
<title>21&#45;&gt;20</title>
<path fill="none" stroke="#c0c0c0" stroke-width="2" d="M1767.3826,-575.7916C1755.5363,-566.3367 1742.2515,-553.8658 1733.5,-540 1706.9401,-497.9191 1694.5029,-440.4719 1689.1342,-406.502"/>
<polygon fill="#c0c0c0" stroke="#c0c0c0" stroke-width="2" points="1692.5577,-405.7265 1687.6306,-396.347 1685.6332,-406.7518 1692.5577,-405.7265"/>
</g>
<!-- 28 -->
<g id="node29" class="node">
<title>28</title>
<path fill="none" stroke="#59d856" stroke-width="2" d="M1832.5,-540C1832.5,-540 1754.5,-540 1754.5,-540 1748.5,-540 1742.5,-534 1742.5,-528 1742.5,-528 1742.5,-516 1742.5,-516 1742.5,-510 1748.5,-504 1754.5,-504 1754.5,-504 1832.5,-504 1832.5,-504 1838.5,-504 1844.5,-510 1844.5,-516 1844.5,-516 1844.5,-528 1844.5,-528 1844.5,-534 1838.5,-540 1832.5,-540"/>
<text text-anchor="middle" x="1793.5" y="-525" font-family="sans" font-size="10.00" fill="#000000">nonpareil_infer</text>
<text text-anchor="middle" x="1793.5" y="-514" font-family="sans" font-size="10.00" fill="#000000">tool: extend/tadpole</text>
</g>
<!-- 21&#45;&gt;28 -->
<g id="edge61" class="edge">
<title>21&#45;&gt;28</title>
<path fill="none" stroke="#c0c0c0" stroke-width="2" d="M1793.5,-575.8314C1793.5,-568.131 1793.5,-558.9743 1793.5,-550.4166"/>
<polygon fill="#c0c0c0" stroke="#c0c0c0" stroke-width="2" points="1797.0001,-550.4132 1793.5,-540.4133 1790.0001,-550.4133 1797.0001,-550.4132"/>
</g>
<!-- 30 -->
<g id="node31" class="node">
<title>30</title>
<path fill="none" stroke="#5682d8" stroke-width="2" d="M1924.5,-540C1924.5,-540 1894.5,-540 1894.5,-540 1888.5,-540 1882.5,-534 1882.5,-528 1882.5,-528 1882.5,-516 1882.5,-516 1882.5,-510 1888.5,-504 1894.5,-504 1894.5,-504 1924.5,-504 1924.5,-504 1930.5,-504 1936.5,-510 1936.5,-516 1936.5,-516 1936.5,-528 1936.5,-528 1936.5,-534 1930.5,-540 1924.5,-540"/>
<text text-anchor="middle" x="1909.5" y="-519.5" font-family="sans" font-size="10.00" fill="#000000">vsearch</text>
</g>
<!-- 21&#45;&gt;30 -->
<g id="edge63" class="edge">
<title>21&#45;&gt;30</title>
<path fill="none" stroke="#c0c0c0" stroke-width="2" d="M1822.7717,-575.8314C1838.1751,-566.2706 1857.1951,-554.4651 1873.4947,-544.3481"/>
<polygon fill="#c0c0c0" stroke="#c0c0c0" stroke-width="2" points="1875.5792,-547.1737 1882.2299,-538.9263 1871.8877,-541.2262 1875.5792,-547.1737"/>
</g>
<!-- 22&#45;&gt;21 -->
<g id="edge54" class="edge">
<title>22&#45;&gt;21</title>
<path fill="none" stroke="#c0c0c0" stroke-width="2" d="M1771.8179,-647.8314C1774.9876,-639.9617 1778.77,-630.5712 1782.2813,-621.8533"/>
<polygon fill="#c0c0c0" stroke="#c0c0c0" stroke-width="2" points="1785.5939,-622.9968 1786.0835,-612.4133 1779.1008,-620.3815 1785.5939,-622.9968"/>
</g>
<!-- 23 -->
<g id="node24" class="node">
<title>23</title>
<path fill="none" stroke="#56d882" stroke-width="2" d="M1052,-468C1052,-468 999,-468 999,-468 993,-468 987,-462 987,-456 987,-456 987,-444 987,-444 987,-438 993,-432 999,-432 999,-432 1052,-432 1052,-432 1058,-432 1064,-438 1064,-444 1064,-444 1064,-456 1064,-456 1064,-462 1058,-468 1052,-468"/>
<text text-anchor="middle" x="1025.5" y="-447.5" font-family="sans" font-size="10.00" fill="#000000">nonpareil_plot</text>
</g>
<!-- 23&#45;&gt;1 -->
<g id="edge14" class="edge">
<title>23&#45;&gt;1</title>
<path fill="none" stroke="#c0c0c0" stroke-width="2" d="M1019.3498,-431.5984C1010.8372,-404.4466 996.5,-351.9035 996.5,-306 996.5,-306 996.5,-306 996.5,-234 996.5,-189.4756 1008.8763,-175.3426 1040.5,-144 1061.6739,-123.0142 1092.5811,-109.0178 1116.7218,-100.5438"/>
<polygon fill="#c0c0c0" stroke="#c0c0c0" stroke-width="2" points="1117.8968,-103.8415 1126.2715,-97.3519 1115.6777,-97.2025 1117.8968,-103.8415"/>
</g>
<!-- 24&#45;&gt;23 -->
<g id="edge56" class="edge">
<title>24&#45;&gt;23</title>
<path fill="none" stroke="#c0c0c0" stroke-width="2" d="M1095.7798,-503.8314C1084.0906,-494.8779 1069.8312,-483.9558 1057.2191,-474.2955"/>
<polygon fill="#c0c0c0" stroke="#c0c0c0" stroke-width="2" points="1059.2797,-471.4651 1049.2126,-468.1628 1055.0231,-477.0222 1059.2797,-471.4651"/>
</g>
<!-- 25 -->
<g id="node26" class="node">
<title>25</title>
<path fill="none" stroke="#56d882" stroke-width="2" d="M642,-396C642,-396 589,-396 589,-396 583,-396 577,-390 577,-384 577,-384 577,-372 577,-372 577,-366 583,-360 589,-360 589,-360 642,-360 642,-360 648,-360 654,-366 654,-372 654,-372 654,-384 654,-384 654,-390 648,-396 642,-396"/>
<text text-anchor="middle" x="615.5" y="-375.5" font-family="sans" font-size="10.00" fill="#000000">nonpareil_plot</text>
</g>
<!-- 25&#45;&gt;1 -->
<g id="edge15" class="edge">
<title>25&#45;&gt;1</title>
<path fill="none" stroke="#c0c0c0" stroke-width="2" d="M603.3879,-359.7066C576.2504,-316.2368 517.2058,-205.7788 573.5,-144 610.1088,-103.8244 994.2662,-93.0437 1116.4245,-90.6204"/>
<polygon fill="#c0c0c0" stroke="#c0c0c0" stroke-width="2" points="1116.4916,-94.1199 1126.4229,-90.4293 1116.3578,-87.1212 1116.4916,-94.1199"/>
</g>
<!-- 26&#45;&gt;25 -->
<g id="edge58" class="edge">
<title>26&#45;&gt;25</title>
<path fill="none" stroke="#c0c0c0" stroke-width="2" d="M610.2599,-503.7623C611.2833,-479.201 613.1147,-435.2474 614.3186,-406.3541"/>
<polygon fill="#c0c0c0" stroke="#c0c0c0" stroke-width="2" points="617.8268,-406.2267 614.7463,-396.0896 610.8329,-405.9352 617.8268,-406.2267"/>
</g>
<!-- 27 -->
<g id="node28" class="node">
<title>27</title>
<path fill="none" stroke="#56d882" stroke-width="2" d="M1820,-396C1820,-396 1767,-396 1767,-396 1761,-396 1755,-390 1755,-384 1755,-384 1755,-372 1755,-372 1755,-366 1761,-360 1767,-360 1767,-360 1820,-360 1820,-360 1826,-360 1832,-366 1832,-372 1832,-372 1832,-384 1832,-384 1832,-390 1826,-396 1820,-396"/>
<text text-anchor="middle" x="1793.5" y="-375.5" font-family="sans" font-size="10.00" fill="#000000">nonpareil_plot</text>
</g>
<!-- 27&#45;&gt;1 -->
<g id="edge16" class="edge">
<title>27&#45;&gt;1</title>
<path fill="none" stroke="#c0c0c0" stroke-width="2" d="M1774.1491,-359.5582C1764.2877,-349.5801 1752.5097,-336.7199 1743.5,-324 1691.2141,-250.1833 1723.3156,-194.8463 1648.5,-144 1610.8325,-118.4004 1299.7588,-98.3554 1190.925,-92.0669"/>
<polygon fill="#c0c0c0" stroke="#c0c0c0" stroke-width="2" points="1190.9265,-88.5613 1180.743,-91.4847 1190.5269,-95.5499 1190.9265,-88.5613"/>
</g>
<!-- 28&#45;&gt;27 -->
<g id="edge60" class="edge">
<title>28&#45;&gt;27</title>
<path fill="none" stroke="#c0c0c0" stroke-width="2" d="M1793.5,-503.7623C1793.5,-479.201 1793.5,-435.2474 1793.5,-406.3541"/>
<polygon fill="#c0c0c0" stroke="#c0c0c0" stroke-width="2" points="1797.0001,-406.0896 1793.5,-396.0896 1790.0001,-406.0897 1797.0001,-406.0896"/>
</g>
<!-- 29 -->
<g id="node30" class="node">
<title>29</title>
<path fill="none" stroke="#56a9d8" stroke-width="2" d="M1810.5,-324C1810.5,-324 1764.5,-324 1764.5,-324 1758.5,-324 1752.5,-318 1752.5,-312 1752.5,-312 1752.5,-300 1752.5,-300 1752.5,-294 1758.5,-288 1764.5,-288 1764.5,-288 1810.5,-288 1810.5,-288 1816.5,-288 1822.5,-294 1822.5,-300 1822.5,-300 1822.5,-312 1822.5,-312 1822.5,-318 1816.5,-324 1810.5,-324"/>
<text text-anchor="middle" x="1787.5" y="-309" font-family="sans" font-size="10.00" fill="#000000">seqkit_stats</text>
<text text-anchor="middle" x="1787.5" y="-298" font-family="sans" font-size="10.00" fill="#000000">tool: derep</text>
</g>
<!-- 29&#45;&gt;1 -->
<g id="edge17" class="edge">
<title>29&#45;&gt;1</title>
<path fill="none" stroke="#c0c0c0" stroke-width="2" d="M1768.8796,-287.7182C1759.4921,-277.784 1748.4454,-264.9146 1740.5,-252 1713.3408,-207.8548 1738.026,-175.0162 1696.5,-144 1656.0642,-113.7981 1306.6971,-96.4599 1190.7331,-91.4968"/>
<polygon fill="#c0c0c0" stroke="#c0c0c0" stroke-width="2" points="1190.71,-87.9928 1180.5714,-91.0682 1190.415,-94.9866 1190.71,-87.9928"/>
</g>
<!-- 30&#45;&gt;29 -->
<g id="edge62" class="edge">
<title>30&#45;&gt;29</title>
<path fill="none" stroke="#c0c0c0" stroke-width="2" d="M1898.437,-503.901C1892.3976,-493.5976 1885.0435,-480.3236 1879.5,-468 1858.6254,-421.5943 1868.6093,-403.0618 1841.5,-360 1834.9442,-349.5864 1826.0441,-339.6259 1817.3614,-331.1586"/>
<polygon fill="#c0c0c0" stroke="#c0c0c0" stroke-width="2" points="1819.5437,-328.4073 1809.8513,-324.1283 1814.7598,-333.5175 1819.5437,-328.4073"/>
</g>
<!-- 40 -->
<g id="node41" class="node">
<title>40</title>
<path fill="none" stroke="#59d856" stroke-width="2" d="M1956.5,-468C1956.5,-468 1900.5,-468 1900.5,-468 1894.5,-468 1888.5,-462 1888.5,-456 1888.5,-456 1888.5,-444 1888.5,-444 1888.5,-438 1894.5,-432 1900.5,-432 1900.5,-432 1956.5,-432 1956.5,-432 1962.5,-432 1968.5,-438 1968.5,-444 1968.5,-444 1968.5,-456 1968.5,-456 1968.5,-462 1962.5,-468 1956.5,-468"/>
<text text-anchor="middle" x="1928.5" y="-453" font-family="sans" font-size="10.00" fill="#000000">nonpareil_infer</text>
<text text-anchor="middle" x="1928.5" y="-442" font-family="sans" font-size="10.00" fill="#000000">tool: derep</text>
</g>
<!-- 30&#45;&gt;40 -->
<g id="edge73" class="edge">
<title>30&#45;&gt;40</title>
<path fill="none" stroke="#c0c0c0" stroke-width="2" d="M1914.2945,-503.8314C1916.3489,-496.0463 1918.796,-486.7729 1921.0756,-478.1347"/>
<polygon fill="#c0c0c0" stroke="#c0c0c0" stroke-width="2" points="1924.4735,-478.9753 1923.6409,-468.4133 1917.7052,-477.1892 1924.4735,-478.9753"/>
</g>
<!-- 43 -->
<g id="node44" class="node">
<title>43</title>
<path fill="none" stroke="#56d8a9" stroke-width="2" d="M2050,-468C2050,-468 1999,-468 1999,-468 1993,-468 1987,-462 1987,-456 1987,-456 1987,-444 1987,-444 1987,-438 1993,-432 1999,-432 1999,-432 2050,-432 2050,-432 2056,-432 2062,-438 2062,-444 2062,-444 2062,-456 2062,-456 2062,-462 2056,-468 2050,-468"/>
<text text-anchor="middle" x="2024.5" y="-447.5" font-family="sans" font-size="10.00" fill="#000000">seqkit_fx2tab</text>
</g>
<!-- 30&#45;&gt;43 -->
<g id="edge77" class="edge">
<title>30&#45;&gt;43</title>
<path fill="none" stroke="#c0c0c0" stroke-width="2" d="M1936.7534,-504.937C1951.6605,-495.6038 1970.3594,-483.8967 1986.6612,-473.6904"/>
<polygon fill="#c0c0c0" stroke="#c0c0c0" stroke-width="2" points="1988.8134,-476.4724 1995.4319,-468.1992 1985.0987,-470.5393 1988.8134,-476.4724"/>
</g>
<!-- 31 -->
<g id="node32" class="node">
<title>31</title>
<path fill="none" stroke="#56a9d8" stroke-width="2" d="M1238.5,-468C1238.5,-468 1192.5,-468 1192.5,-468 1186.5,-468 1180.5,-462 1180.5,-456 1180.5,-456 1180.5,-444 1180.5,-444 1180.5,-438 1186.5,-432 1192.5,-432 1192.5,-432 1238.5,-432 1238.5,-432 1244.5,-432 1250.5,-438 1250.5,-444 1250.5,-444 1250.5,-456 1250.5,-456 1250.5,-462 1244.5,-468 1238.5,-468"/>
<text text-anchor="middle" x="1215.5" y="-453" font-family="sans" font-size="10.00" fill="#000000">seqkit_stats</text>
<text text-anchor="middle" x="1215.5" y="-442" font-family="sans" font-size="10.00" fill="#000000">tool: derep</text>
</g>
<!-- 31&#45;&gt;1 -->
<g id="edge18" class="edge">
<title>31&#45;&gt;1</title>
<path fill="none" stroke="#c0c0c0" stroke-width="2" d="M1199.0414,-431.8136C1170.4712,-398.8726 1112.7226,-325.8725 1091.5,-252 1078.1354,-205.4801 1084.0406,-187.3844 1105.5,-144 1110.6094,-133.6704 1118.2338,-123.7999 1125.9099,-115.3895"/>
<polygon fill="#c0c0c0" stroke="#c0c0c0" stroke-width="2" points="1128.5027,-117.7425 1132.9032,-108.1048 1123.453,-112.8948 1128.5027,-117.7425"/>
</g>
<!-- 32&#45;&gt;31 -->
<g id="edge64" class="edge">
<title>32&#45;&gt;31</title>
<path fill="none" stroke="#c0c0c0" stroke-width="2" d="M1215.5,-503.8314C1215.5,-496.131 1215.5,-486.9743 1215.5,-478.4166"/>
<polygon fill="#c0c0c0" stroke="#c0c0c0" stroke-width="2" points="1219.0001,-478.4132 1215.5,-468.4133 1212.0001,-478.4133 1219.0001,-478.4132"/>
</g>
<!-- 36 -->
<g id="node37" class="node">
<title>36</title>
<path fill="none" stroke="#59d856" stroke-width="2" d="M1150.5,-468C1150.5,-468 1094.5,-468 1094.5,-468 1088.5,-468 1082.5,-462 1082.5,-456 1082.5,-456 1082.5,-444 1082.5,-444 1082.5,-438 1088.5,-432 1094.5,-432 1094.5,-432 1150.5,-432 1150.5,-432 1156.5,-432 1162.5,-438 1162.5,-444 1162.5,-444 1162.5,-456 1162.5,-456 1162.5,-462 1156.5,-468 1150.5,-468"/>
<text text-anchor="middle" x="1122.5" y="-453" font-family="sans" font-size="10.00" fill="#000000">nonpareil_infer</text>
<text text-anchor="middle" x="1122.5" y="-442" font-family="sans" font-size="10.00" fill="#000000">tool: derep</text>
</g>
<!-- 32&#45;&gt;36 -->
<g id="edge69" class="edge">
<title>32&#45;&gt;36</title>
<path fill="none" stroke="#c0c0c0" stroke-width="2" d="M1192.0322,-503.8314C1180.4673,-494.8779 1166.3596,-483.9558 1153.8817,-474.2955"/>
<polygon fill="#c0c0c0" stroke="#c0c0c0" stroke-width="2" points="1156.0102,-471.5171 1145.9603,-468.1628 1151.725,-477.0521 1156.0102,-471.5171"/>
</g>
<!-- 46 -->
<g id="node47" class="node">
<title>46</title>
<path fill="none" stroke="#56d8a9" stroke-width="2" d="M1332,-468C1332,-468 1281,-468 1281,-468 1275,-468 1269,-462 1269,-456 1269,-456 1269,-444 1269,-444 1269,-438 1275,-432 1281,-432 1281,-432 1332,-432 1332,-432 1338,-432 1344,-438 1344,-444 1344,-444 1344,-456 1344,-456 1344,-462 1338,-468 1332,-468"/>
<text text-anchor="middle" x="1306.5" y="-447.5" font-family="sans" font-size="10.00" fill="#000000">seqkit_fx2tab</text>
</g>
<!-- 32&#45;&gt;46 -->
<g id="edge81" class="edge">
<title>32&#45;&gt;46</title>
<path fill="none" stroke="#c0c0c0" stroke-width="2" d="M1238.4631,-503.8314C1249.6715,-494.9632 1263.3209,-484.1637 1275.4439,-474.5718"/>
<polygon fill="#c0c0c0" stroke="#c0c0c0" stroke-width="2" points="1277.8737,-477.1125 1283.5442,-468.1628 1273.5303,-471.6229 1277.8737,-477.1125"/>
</g>
<!-- 33 -->
<g id="node34" class="node">
<title>33</title>
<path fill="none" stroke="#56a9d8" stroke-width="2" d="M476.5,-180C476.5,-180 430.5,-180 430.5,-180 424.5,-180 418.5,-174 418.5,-168 418.5,-168 418.5,-156 418.5,-156 418.5,-150 424.5,-144 430.5,-144 430.5,-144 476.5,-144 476.5,-144 482.5,-144 488.5,-150 488.5,-156 488.5,-156 488.5,-168 488.5,-168 488.5,-174 482.5,-180 476.5,-180"/>
<text text-anchor="middle" x="453.5" y="-165" font-family="sans" font-size="10.00" fill="#000000">seqkit_stats</text>
<text text-anchor="middle" x="453.5" y="-154" font-family="sans" font-size="10.00" fill="#000000">tool: derep</text>
</g>
<!-- 33&#45;&gt;1 -->
<g id="edge19" class="edge">
<title>33&#45;&gt;1</title>
<path fill="none" stroke="#c0c0c0" stroke-width="2" d="M488.7584,-147.7764C493.3271,-146.311 497.9868,-144.9969 502.5,-144 621.0134,-117.8212 996.4337,-97.6694 1116.3171,-91.7667"/>
<polygon fill="#c0c0c0" stroke="#c0c0c0" stroke-width="2" points="1116.642,-95.2551 1126.4593,-91.2714 1116.3005,-88.2634 1116.642,-95.2551"/>
</g>
<!-- 34&#45;&gt;33 -->
<g id="edge66" class="edge">
<title>34&#45;&gt;33</title>
<path fill="none" stroke="#c0c0c0" stroke-width="2" d="M477.1378,-503.615C468.3315,-476.4838 453.5,-423.9662 453.5,-378 453.5,-378 453.5,-378 453.5,-306 453.5,-265.876 453.5,-219.4631 453.5,-190.4177"/>
<polygon fill="#c0c0c0" stroke="#c0c0c0" stroke-width="2" points="457.0001,-190.1853 453.5,-180.1854 450.0001,-190.1854 457.0001,-190.1853"/>
</g>
<!-- 38 -->
<g id="node39" class="node">
<title>38</title>
<path fill="none" stroke="#59d856" stroke-width="2" d="M549.5,-468C549.5,-468 493.5,-468 493.5,-468 487.5,-468 481.5,-462 481.5,-456 481.5,-456 481.5,-444 481.5,-444 481.5,-438 487.5,-432 493.5,-432 493.5,-432 549.5,-432 549.5,-432 555.5,-432 561.5,-438 561.5,-444 561.5,-444 561.5,-456 561.5,-456 561.5,-462 555.5,-468 549.5,-468"/>
<text text-anchor="middle" x="521.5" y="-453" font-family="sans" font-size="10.00" fill="#000000">nonpareil_infer</text>
<text text-anchor="middle" x="521.5" y="-442" font-family="sans" font-size="10.00" fill="#000000">tool: derep</text>
</g>
<!-- 34&#45;&gt;38 -->
<g id="edge71" class="edge">
<title>34&#45;&gt;38</title>
<path fill="none" stroke="#c0c0c0" stroke-width="2" d="M493.089,-503.8314C497.3317,-495.7925 502.4121,-486.1666 507.096,-477.2918"/>
<polygon fill="#c0c0c0" stroke="#c0c0c0" stroke-width="2" points="510.2096,-478.8908 511.7819,-468.4133 504.0189,-475.6235 510.2096,-478.8908"/>
</g>
<!-- 49 -->
<g id="node50" class="node">
<title>49</title>
<path fill="none" stroke="#56d8a9" stroke-width="2" d="M413,-468C413,-468 362,-468 362,-468 356,-468 350,-462 350,-456 350,-456 350,-444 350,-444 350,-438 356,-432 362,-432 362,-432 413,-432 413,-432 419,-432 425,-438 425,-444 425,-444 425,-456 425,-456 425,-462 419,-468 413,-468"/>
<text text-anchor="middle" x="387.5" y="-447.5" font-family="sans" font-size="10.00" fill="#000000">seqkit_fx2tab</text>
</g>
<!-- 34&#45;&gt;49 -->
<g id="edge85" class="edge">
<title>34&#45;&gt;49</title>
<path fill="none" stroke="#c0c0c0" stroke-width="2" d="M459.2751,-503.8314C447.3372,-494.8779 432.7744,-483.9558 419.894,-474.2955"/>
<polygon fill="#c0c0c0" stroke="#c0c0c0" stroke-width="2" points="421.8171,-471.3629 411.7171,-468.1628 417.6171,-476.9629 421.8171,-471.3629"/>
</g>
<!-- 35 -->
<g id="node36" class="node">
<title>35</title>
<path fill="none" stroke="#56d882" stroke-width="2" d="M1090,-396C1090,-396 1037,-396 1037,-396 1031,-396 1025,-390 1025,-384 1025,-384 1025,-372 1025,-372 1025,-366 1031,-360 1037,-360 1037,-360 1090,-360 1090,-360 1096,-360 1102,-366 1102,-372 1102,-372 1102,-384 1102,-384 1102,-390 1096,-396 1090,-396"/>
<text text-anchor="middle" x="1063.5" y="-375.5" font-family="sans" font-size="10.00" fill="#000000">nonpareil_plot</text>
</g>
<!-- 35&#45;&gt;1 -->
<g id="edge20" class="edge">
<title>35&#45;&gt;1</title>
<path fill="none" stroke="#c0c0c0" stroke-width="2" d="M1057.1196,-359.7034C1043.8015,-318.0706 1017.5272,-214.4192 1058.5,-144 1071.0194,-122.4832 1095.664,-108.8368 1116.7145,-100.6456"/>
<polygon fill="#c0c0c0" stroke="#c0c0c0" stroke-width="2" points="1118.1659,-103.8427 1126.383,-97.1547 1115.7887,-97.2587 1118.1659,-103.8427"/>
</g>
<!-- 36&#45;&gt;35 -->
<g id="edge68" class="edge">
<title>36&#45;&gt;35</title>
<path fill="none" stroke="#c0c0c0" stroke-width="2" d="M1107.6118,-431.8314C1100.747,-423.454 1092.4699,-413.3531 1084.9489,-404.1749"/>
<polygon fill="#c0c0c0" stroke="#c0c0c0" stroke-width="2" points="1087.6341,-401.9297 1078.5886,-396.4133 1082.2197,-406.3665 1087.6341,-401.9297"/>
</g>
<!-- 37 -->
<g id="node38" class="node">
<title>37</title>
<path fill="none" stroke="#56d882" stroke-width="2" d="M547,-396C547,-396 494,-396 494,-396 488,-396 482,-390 482,-384 482,-384 482,-372 482,-372 482,-366 488,-360 494,-360 494,-360 547,-360 547,-360 553,-360 559,-366 559,-372 559,-372 559,-384 559,-384 559,-390 553,-396 547,-396"/>
<text text-anchor="middle" x="520.5" y="-375.5" font-family="sans" font-size="10.00" fill="#000000">nonpareil_plot</text>
</g>
<!-- 37&#45;&gt;1 -->
<g id="edge21" class="edge">
<title>37&#45;&gt;1</title>
<path fill="none" stroke="#c0c0c0" stroke-width="2" d="M516.1909,-359.8051C506.9127,-315.5718 490.449,-201.8001 550.5,-144 591.2923,-104.7367 990.5965,-93.3127 1116.01,-90.6796"/>
<polygon fill="#c0c0c0" stroke="#c0c0c0" stroke-width="2" points="1116.3354,-94.1738 1126.2622,-90.4713 1116.1931,-87.1752 1116.3354,-94.1738"/>
</g>
<!-- 38&#45;&gt;37 -->
<g id="edge70" class="edge">
<title>38&#45;&gt;37</title>
<path fill="none" stroke="#c0c0c0" stroke-width="2" d="M521.2477,-431.8314C521.1407,-424.131 521.0135,-414.9743 520.8947,-406.4166"/>
<polygon fill="#c0c0c0" stroke="#c0c0c0" stroke-width="2" points="524.3944,-406.3637 520.7557,-396.4133 517.3951,-406.4609 524.3944,-406.3637"/>
</g>
<!-- 39 -->
<g id="node40" class="node">
<title>39</title>
<path fill="none" stroke="#56d882" stroke-width="2" d="M1814,-252C1814,-252 1761,-252 1761,-252 1755,-252 1749,-246 1749,-240 1749,-240 1749,-228 1749,-228 1749,-222 1755,-216 1761,-216 1761,-216 1814,-216 1814,-216 1820,-216 1826,-222 1826,-228 1826,-228 1826,-240 1826,-240 1826,-246 1820,-252 1814,-252"/>
<text text-anchor="middle" x="1787.5" y="-231.5" font-family="sans" font-size="10.00" fill="#000000">nonpareil_plot</text>
</g>
<!-- 39&#45;&gt;1 -->
<g id="edge22" class="edge">
<title>39&#45;&gt;1</title>
<path fill="none" stroke="#c0c0c0" stroke-width="2" d="M1782.3859,-215.947C1775.3574,-194.7883 1760.525,-160.5212 1734.5,-144 1688.6837,-114.9148 1312.4964,-96.6861 1191.1075,-91.5175"/>
<polygon fill="#c0c0c0" stroke="#c0c0c0" stroke-width="2" points="1190.9672,-88.0086 1180.829,-91.0853 1190.673,-95.0024 1190.9672,-88.0086"/>
</g>
<!-- 40&#45;&gt;39 -->
<g id="edge72" class="edge">
<title>40&#45;&gt;39</title>
<path fill="none" stroke="#c0c0c0" stroke-width="2" d="M1918.8295,-431.9758C1902.2317,-401.4955 1866.6982,-338.1886 1831.5,-288 1824.9751,-278.6962 1817.3119,-268.9468 1810.2252,-260.3325"/>
<polygon fill="#c0c0c0" stroke="#c0c0c0" stroke-width="2" points="1812.759,-257.9062 1803.6634,-252.4729 1807.3855,-262.3924 1812.759,-257.9062"/>
</g>
<!-- 41 -->
<g id="node42" class="node">
<title>41</title>
<path fill="none" stroke="#56a9d8" stroke-width="2" d="M1987,-324C1987,-324 1910,-324 1910,-324 1904,-324 1898,-318 1898,-312 1898,-312 1898,-300 1898,-300 1898,-294 1904,-288 1910,-288 1910,-288 1987,-288 1987,-288 1993,-288 1999,-294 1999,-300 1999,-300 1999,-312 1999,-312 1999,-318 1993,-324 1987,-324"/>
<text text-anchor="middle" x="1948.5" y="-309" font-family="sans" font-size="10.00" fill="#000000">seqkit_stats</text>
<text text-anchor="middle" x="1948.5" y="-298" font-family="sans" font-size="10.00" fill="#000000">tool: represent/grep</text>
</g>
<!-- 41&#45;&gt;1 -->
<g id="edge23" class="edge">
<title>41&#45;&gt;1</title>
<path fill="none" stroke="#c0c0c0" stroke-width="2" d="M1921.7863,-287.8808C1907.403,-277.7875 1889.5702,-264.7205 1874.5,-252 1821.9014,-207.6022 1826.0656,-172.6937 1763.5,-144 1711.5019,-120.1528 1315.7715,-98.235 1191.0351,-91.8583"/>
<polygon fill="#c0c0c0" stroke="#c0c0c0" stroke-width="2" points="1190.9988,-88.352 1180.8343,-91.3407 1190.644,-95.343 1190.9988,-88.352"/>
</g>
<!-- 42&#45;&gt;41 -->
<g id="edge74" class="edge">
<title>42&#45;&gt;41</title>
<path fill="none" stroke="#c0c0c0" stroke-width="2" d="M2037.4713,-359.8314C2022.2504,-350.6221 2003.5872,-339.3301 1987.2917,-329.4706"/>
<polygon fill="#c0c0c0" stroke="#c0c0c0" stroke-width="2" points="1988.8868,-326.345 1978.5191,-324.1628 1985.2631,-332.3341 1988.8868,-326.345"/>
</g>
<!-- 53 -->
<g id="node54" class="node">
<title>53</title>
<path fill="none" stroke="#59d856" stroke-width="2" d="M2106,-324C2106,-324 2029,-324 2029,-324 2023,-324 2017,-318 2017,-312 2017,-312 2017,-300 2017,-300 2017,-294 2023,-288 2029,-288 2029,-288 2106,-288 2106,-288 2112,-288 2118,-294 2118,-300 2118,-300 2118,-312 2118,-312 2118,-318 2112,-324 2106,-324"/>
<text text-anchor="middle" x="2067.5" y="-309" font-family="sans" font-size="10.00" fill="#000000">nonpareil_infer</text>
<text text-anchor="middle" x="2067.5" y="-298" font-family="sans" font-size="10.00" fill="#000000">tool: represent/grep</text>
</g>
<!-- 42&#45;&gt;53 -->
<g id="edge89" class="edge">
<title>42&#45;&gt;53</title>
<path fill="none" stroke="#c0c0c0" stroke-width="2" d="M2067.5,-359.8314C2067.5,-352.131 2067.5,-342.9743 2067.5,-334.4166"/>
<polygon fill="#c0c0c0" stroke="#c0c0c0" stroke-width="2" points="2071.0001,-334.4132 2067.5,-324.4133 2064.0001,-334.4133 2071.0001,-334.4132"/>
</g>
<!-- 57 -->
<g id="node58" class="node">
<title>57</title>
<path fill="none" stroke="#d6d856" stroke-width="2" d="M2208.5,-324C2208.5,-324 2148.5,-324 2148.5,-324 2142.5,-324 2136.5,-318 2136.5,-312 2136.5,-312 2136.5,-300 2136.5,-300 2136.5,-294 2142.5,-288 2148.5,-288 2148.5,-288 2208.5,-288 2208.5,-288 2214.5,-288 2220.5,-294 2220.5,-300 2220.5,-300 2220.5,-312 2220.5,-312 2220.5,-318 2214.5,-324 2208.5,-324"/>
<text text-anchor="middle" x="2178.5" y="-303.5" font-family="sans" font-size="10.00" fill="#000000">low_complexity</text>
</g>
<!-- 42&#45;&gt;57 -->
<g id="edge93" class="edge">
<title>42&#45;&gt;57</title>
<path fill="none" stroke="#c0c0c0" stroke-width="2" d="M2095.51,-359.8314C2109.5761,-350.7074 2126.794,-339.539 2141.8933,-329.7449"/>
<polygon fill="#c0c0c0" stroke="#c0c0c0" stroke-width="2" points="2144.014,-332.5412 2150.499,-324.1628 2140.2047,-326.6684 2144.014,-332.5412"/>
</g>
<!-- 43&#45;&gt;42 -->
<g id="edge76" class="edge">
<title>43&#45;&gt;42</title>
<path fill="none" stroke="#c0c0c0" stroke-width="2" d="M2035.3507,-431.8314C2040.2023,-423.7079 2046.0217,-413.9637 2051.368,-405.0118"/>
<polygon fill="#c0c0c0" stroke="#c0c0c0" stroke-width="2" points="2054.3806,-406.7933 2056.5032,-396.4133 2048.3708,-403.2041 2054.3806,-406.7933"/>
</g>
<!-- 44 -->
<g id="node45" class="node">
<title>44</title>
<path fill="none" stroke="#56a9d8" stroke-width="2" d="M1490,-324C1490,-324 1413,-324 1413,-324 1407,-324 1401,-318 1401,-312 1401,-312 1401,-300 1401,-300 1401,-294 1407,-288 1413,-288 1413,-288 1490,-288 1490,-288 1496,-288 1502,-294 1502,-300 1502,-300 1502,-312 1502,-312 1502,-318 1496,-324 1490,-324"/>
<text text-anchor="middle" x="1451.5" y="-309" font-family="sans" font-size="10.00" fill="#000000">seqkit_stats</text>
<text text-anchor="middle" x="1451.5" y="-298" font-family="sans" font-size="10.00" fill="#000000">tool: represent/grep</text>
</g>
<!-- 44&#45;&gt;1 -->
<g id="edge24" class="edge">
<title>44&#45;&gt;1</title>
<path fill="none" stroke="#c0c0c0" stroke-width="2" d="M1463.8336,-287.6509C1475.1014,-268.3678 1487.9798,-237.8575 1473.5,-216 1440.8773,-166.7554 1267.5166,-118.3625 1190.4636,-98.9233"/>
<polygon fill="#c0c0c0" stroke="#c0c0c0" stroke-width="2" points="1191.2389,-95.5095 1180.6889,-96.4826 1189.5431,-102.301 1191.2389,-95.5095"/>
</g>
<!-- 45&#45;&gt;44 -->
<g id="edge78" class="edge">
<title>45&#45;&gt;44</title>
<path fill="none" stroke="#c0c0c0" stroke-width="2" d="M1362.5287,-359.8314C1377.7496,-350.6221 1396.4128,-339.3301 1412.7083,-329.4706"/>
<polygon fill="#c0c0c0" stroke="#c0c0c0" stroke-width="2" points="1414.7369,-332.3341 1421.4809,-324.1628 1411.1132,-326.345 1414.7369,-332.3341"/>
</g>
<!-- 55 -->
<g id="node56" class="node">
<title>55</title>
<path fill="none" stroke="#59d856" stroke-width="2" d="M1371,-324C1371,-324 1294,-324 1294,-324 1288,-324 1282,-318 1282,-312 1282,-312 1282,-300 1282,-300 1282,-294 1288,-288 1294,-288 1294,-288 1371,-288 1371,-288 1377,-288 1383,-294 1383,-300 1383,-300 1383,-312 1383,-312 1383,-318 1377,-324 1371,-324"/>
<text text-anchor="middle" x="1332.5" y="-309" font-family="sans" font-size="10.00" fill="#000000">nonpareil_infer</text>
<text text-anchor="middle" x="1332.5" y="-298" font-family="sans" font-size="10.00" fill="#000000">tool: represent/grep</text>
</g>
<!-- 45&#45;&gt;55 -->
<g id="edge91" class="edge">
<title>45&#45;&gt;55</title>
<path fill="none" stroke="#c0c0c0" stroke-width="2" d="M1332.5,-359.8314C1332.5,-352.131 1332.5,-342.9743 1332.5,-334.4166"/>
<polygon fill="#c0c0c0" stroke="#c0c0c0" stroke-width="2" points="1336.0001,-334.4132 1332.5,-324.4133 1329.0001,-334.4133 1336.0001,-334.4132"/>
</g>
<!-- 61 -->
<g id="node62" class="node">
<title>61</title>
<path fill="none" stroke="#d6d856" stroke-width="2" d="M1251.5,-324C1251.5,-324 1191.5,-324 1191.5,-324 1185.5,-324 1179.5,-318 1179.5,-312 1179.5,-312 1179.5,-300 1179.5,-300 1179.5,-294 1185.5,-288 1191.5,-288 1191.5,-288 1251.5,-288 1251.5,-288 1257.5,-288 1263.5,-294 1263.5,-300 1263.5,-300 1263.5,-312 1263.5,-312 1263.5,-318 1257.5,-324 1251.5,-324"/>
<text text-anchor="middle" x="1221.5" y="-303.5" font-family="sans" font-size="10.00" fill="#000000">low_complexity</text>
</g>
<!-- 45&#45;&gt;61 -->
<g id="edge97" class="edge">
<title>45&#45;&gt;61</title>
<path fill="none" stroke="#c0c0c0" stroke-width="2" d="M1304.49,-359.8314C1290.4239,-350.7074 1273.206,-339.539 1258.1067,-329.7449"/>
<polygon fill="#c0c0c0" stroke="#c0c0c0" stroke-width="2" points="1259.7953,-326.6684 1249.501,-324.1628 1255.986,-332.5412 1259.7953,-326.6684"/>
</g>
<!-- 46&#45;&gt;45 -->
<g id="edge80" class="edge">
<title>46&#45;&gt;45</title>
<path fill="none" stroke="#c0c0c0" stroke-width="2" d="M1313.0609,-431.8314C1315.9027,-423.9617 1319.2937,-414.5712 1322.4419,-405.8533"/>
<polygon fill="#c0c0c0" stroke="#c0c0c0" stroke-width="2" points="1325.7462,-407.0076 1325.8508,-396.4133 1319.1623,-404.63 1325.7462,-407.0076"/>
</g>
<!-- 47 -->
<g id="node48" class="node">
<title>47</title>
<path fill="none" stroke="#56a9d8" stroke-width="2" d="M89,-180C89,-180 12,-180 12,-180 6,-180 0,-174 0,-168 0,-168 0,-156 0,-156 0,-150 6,-144 12,-144 12,-144 89,-144 89,-144 95,-144 101,-150 101,-156 101,-156 101,-168 101,-168 101,-174 95,-180 89,-180"/>
<text text-anchor="middle" x="50.5" y="-165" font-family="sans" font-size="10.00" fill="#000000">seqkit_stats</text>
<text text-anchor="middle" x="50.5" y="-154" font-family="sans" font-size="10.00" fill="#000000">tool: represent/grep</text>
</g>
<!-- 47&#45;&gt;1 -->
<g id="edge25" class="edge">
<title>47&#45;&gt;1</title>
<path fill="none" stroke="#c0c0c0" stroke-width="2" d="M101.2941,-153.3731C122.8818,-149.9851 148.3635,-146.3519 171.5,-144 538.7091,-106.6718 985.9759,-93.8804 1116.255,-90.8039"/>
<polygon fill="#c0c0c0" stroke="#c0c0c0" stroke-width="2" points="1116.5658,-94.2977 1126.4821,-90.5671 1116.4037,-87.2996 1116.5658,-94.2977"/>
</g>
<!-- 48&#45;&gt;47 -->
<g id="edge82" class="edge">
<title>48&#45;&gt;47</title>
<path fill="none" stroke="#c0c0c0" stroke-width="2" d="M287.8841,-371.2328C256.1714,-363.6421 208.4176,-348.9948 173.5,-324 123.0224,-287.867 83.8703,-224.9693 64.2916,-189.1026"/>
<polygon fill="#c0c0c0" stroke="#c0c0c0" stroke-width="2" points="67.3191,-187.3418 59.5177,-180.1732 61.146,-190.6422 67.3191,-187.3418"/>
</g>
<!-- 51 -->
<g id="node52" class="node">
<title>51</title>
<path fill="none" stroke="#59d856" stroke-width="2" d="M400,-324C400,-324 323,-324 323,-324 317,-324 311,-318 311,-312 311,-312 311,-300 311,-300 311,-294 317,-288 323,-288 323,-288 400,-288 400,-288 406,-288 412,-294 412,-300 412,-300 412,-312 412,-312 412,-318 406,-324 400,-324"/>
<text text-anchor="middle" x="361.5" y="-309" font-family="sans" font-size="10.00" fill="#000000">nonpareil_infer</text>
<text text-anchor="middle" x="361.5" y="-298" font-family="sans" font-size="10.00" fill="#000000">tool: represent/grep</text>
</g>
<!-- 48&#45;&gt;51 -->
<g id="edge87" class="edge">
<title>48&#45;&gt;51</title>
<path fill="none" stroke="#c0c0c0" stroke-width="2" d="M331.5937,-359.8314C336.0597,-351.7925 341.4075,-342.1666 346.3379,-333.2918"/>
<polygon fill="#c0c0c0" stroke="#c0c0c0" stroke-width="2" points="349.4735,-334.8546 351.2704,-324.4133 343.3544,-331.4551 349.4735,-334.8546"/>
</g>
<!-- 59 -->
<g id="node60" class="node">
<title>59</title>
<path fill="none" stroke="#d6d856" stroke-width="2" d="M254.5,-324C254.5,-324 194.5,-324 194.5,-324 188.5,-324 182.5,-318 182.5,-312 182.5,-312 182.5,-300 182.5,-300 182.5,-294 188.5,-288 194.5,-288 194.5,-288 254.5,-288 254.5,-288 260.5,-288 266.5,-294 266.5,-300 266.5,-300 266.5,-312 266.5,-312 266.5,-318 260.5,-324 254.5,-324"/>
<text text-anchor="middle" x="224.5" y="-303.5" font-family="sans" font-size="10.00" fill="#000000">low_complexity</text>
</g>
<!-- 48&#45;&gt;59 -->
<g id="edge95" class="edge">
<title>48&#45;&gt;59</title>
<path fill="none" stroke="#c0c0c0" stroke-width="2" d="M297.0228,-359.8314C284.9605,-350.8779 270.246,-339.9558 257.2314,-330.2955"/>
<polygon fill="#c0c0c0" stroke="#c0c0c0" stroke-width="2" points="259.0852,-327.3127 248.9694,-324.1628 254.913,-332.9335 259.0852,-327.3127"/>
</g>
<!-- 49&#45;&gt;48 -->
<g id="edge84" class="edge">
<title>49&#45;&gt;48</title>
<path fill="none" stroke="#c0c0c0" stroke-width="2" d="M370.8454,-431.8314C363.0886,-423.3694 353.7198,-413.1489 345.239,-403.8971"/>
<polygon fill="#c0c0c0" stroke="#c0c0c0" stroke-width="2" points="347.7162,-401.4198 338.3788,-396.4133 342.5561,-406.1499 347.7162,-401.4198"/>
</g>
<!-- 50 -->
<g id="node51" class="node">
<title>50</title>
<path fill="none" stroke="#56d882" stroke-width="2" d="M388,-180C388,-180 335,-180 335,-180 329,-180 323,-174 323,-168 323,-168 323,-156 323,-156 323,-150 329,-144 335,-144 335,-144 388,-144 388,-144 394,-144 400,-150 400,-156 400,-156 400,-168 400,-168 400,-174 394,-180 388,-180"/>
<text text-anchor="middle" x="361.5" y="-159.5" font-family="sans" font-size="10.00" fill="#000000">nonpareil_plot</text>
</g>
<!-- 50&#45;&gt;1 -->
<g id="edge26" class="edge">
<title>50&#45;&gt;1</title>
<path fill="none" stroke="#c0c0c0" stroke-width="2" d="M400.2505,-146.4074C403.3491,-145.4871 406.4571,-144.6664 409.5,-144 546.5454,-113.9848 984.5227,-96.0965 1115.8987,-91.3073"/>
<polygon fill="#c0c0c0" stroke="#c0c0c0" stroke-width="2" points="1116.3708,-94.7927 1126.2381,-90.9345 1116.1185,-87.7972 1116.3708,-94.7927"/>
</g>
<!-- 51&#45;&gt;50 -->
<g id="edge86" class="edge">
<title>51&#45;&gt;50</title>
<path fill="none" stroke="#c0c0c0" stroke-width="2" d="M377.0525,-287.8462C384.5046,-277.947 392.6347,-265.0702 396.5,-252 401.0374,-236.6569 401.0374,-231.3431 396.5,-216 393.6312,-206.2994 388.4132,-196.7055 382.8667,-188.3563"/>
<polygon fill="#c0c0c0" stroke="#c0c0c0" stroke-width="2" points="385.6909,-186.2881 377.0525,-180.1538 379.9801,-190.3362 385.6909,-186.2881"/>
</g>
<!-- 52 -->
<g id="node53" class="node">
<title>52</title>
<path fill="none" stroke="#56d882" stroke-width="2" d="M1948,-252C1948,-252 1895,-252 1895,-252 1889,-252 1883,-246 1883,-240 1883,-240 1883,-228 1883,-228 1883,-222 1889,-216 1895,-216 1895,-216 1948,-216 1948,-216 1954,-216 1960,-222 1960,-228 1960,-228 1960,-240 1960,-240 1960,-246 1954,-252 1948,-252"/>
<text text-anchor="middle" x="1921.5" y="-231.5" font-family="sans" font-size="10.00" fill="#000000">nonpareil_plot</text>
</g>
<!-- 52&#45;&gt;1 -->
<g id="edge27" class="edge">
<title>52&#45;&gt;1</title>
<path fill="none" stroke="#c0c0c0" stroke-width="2" d="M1916.434,-215.8706C1909.4527,-194.6367 1894.6669,-160.2956 1868.5,-144 1810.6986,-108.0038 1329.4015,-94.0921 1190.7443,-90.8091"/>
<polygon fill="#c0c0c0" stroke="#c0c0c0" stroke-width="2" points="1190.6971,-87.3072 1180.6185,-90.574 1190.5345,-94.3053 1190.6971,-87.3072"/>
</g>
<!-- 53&#45;&gt;52 -->
<g id="edge88" class="edge">
<title>53&#45;&gt;52</title>
<path fill="none" stroke="#c0c0c0" stroke-width="2" d="M2030.658,-287.8314C2011.3918,-278.3302 1987.6301,-266.6121 1967.2008,-256.5374"/>
<polygon fill="#c0c0c0" stroke="#c0c0c0" stroke-width="2" points="1968.5938,-253.3219 1958.077,-252.038 1965.4977,-259.6 1968.5938,-253.3219"/>
</g>
<!-- 54 -->
<g id="node55" class="node">
<title>54</title>
<path fill="none" stroke="#56d882" stroke-width="2" d="M1452,-252C1452,-252 1399,-252 1399,-252 1393,-252 1387,-246 1387,-240 1387,-240 1387,-228 1387,-228 1387,-222 1393,-216 1399,-216 1399,-216 1452,-216 1452,-216 1458,-216 1464,-222 1464,-228 1464,-228 1464,-240 1464,-240 1464,-246 1458,-252 1452,-252"/>
<text text-anchor="middle" x="1425.5" y="-231.5" font-family="sans" font-size="10.00" fill="#000000">nonpareil_plot</text>
</g>
<!-- 54&#45;&gt;1 -->
<g id="edge28" class="edge">
<title>54&#45;&gt;1</title>
<path fill="none" stroke="#c0c0c0" stroke-width="2" d="M1391.3264,-215.9081C1339.7742,-188.6157 1242.5476,-137.1428 1189.7813,-109.2078"/>
<polygon fill="#c0c0c0" stroke="#c0c0c0" stroke-width="2" points="1191.2527,-106.0265 1180.7772,-104.4409 1187.9774,-112.213 1191.2527,-106.0265"/>
</g>
<!-- 55&#45;&gt;54 -->
<g id="edge90" class="edge">
<title>55&#45;&gt;54</title>
<path fill="none" stroke="#c0c0c0" stroke-width="2" d="M1355.9678,-287.8314C1367.5327,-278.8779 1381.6404,-267.9558 1394.1183,-258.2955"/>
<polygon fill="#c0c0c0" stroke="#c0c0c0" stroke-width="2" points="1396.275,-261.0521 1402.0397,-252.1628 1391.9898,-255.5171 1396.275,-261.0521"/>
</g>
<!-- 56 -->
<g id="node57" class="node">
<title>56</title>
<path fill="none" stroke="#56a9d8" stroke-width="2" d="M2072.5,-252C2072.5,-252 1990.5,-252 1990.5,-252 1984.5,-252 1978.5,-246 1978.5,-240 1978.5,-240 1978.5,-228 1978.5,-228 1978.5,-222 1984.5,-216 1990.5,-216 1990.5,-216 2072.5,-216 2072.5,-216 2078.5,-216 2084.5,-222 2084.5,-228 2084.5,-228 2084.5,-240 2084.5,-240 2084.5,-246 2078.5,-252 2072.5,-252"/>
<text text-anchor="middle" x="2031.5" y="-237" font-family="sans" font-size="10.00" fill="#000000">seqkit_stats</text>
<text text-anchor="middle" x="2031.5" y="-226" font-family="sans" font-size="10.00" fill="#000000">tool: low_complexity</text>
</g>
<!-- 56&#45;&gt;1 -->
<g id="edge29" class="edge">
<title>56&#45;&gt;1</title>
<path fill="none" stroke="#c0c0c0" stroke-width="2" d="M2011.9756,-215.9878C1987.3739,-194.5269 1942.8052,-159.6167 1897.5,-144 1830.378,-120.863 1332.3404,-97.7415 1190.874,-91.5857"/>
<polygon fill="#c0c0c0" stroke="#c0c0c0" stroke-width="2" points="1190.6994,-88.0749 1180.5575,-91.1394 1190.3968,-95.0684 1190.6994,-88.0749"/>
</g>
<!-- 57&#45;&gt;0 -->
<g id="edge4" class="edge">
<title>57&#45;&gt;0</title>
<path fill="none" stroke="#c0c0c0" stroke-width="2" d="M2196.2108,-287.6517C2204.3942,-277.8946 2213.2304,-265.2041 2217.5,-252 2222.4227,-236.7761 2223.1861,-230.9555 2217.5,-216 2202.2845,-175.9803 2191.2408,-164.2168 2153.5,-144 2000.1917,-61.8767 1442.5974,-27.6533 1292.7748,-19.8209"/>
<polygon fill="#c0c0c0" stroke="#c0c0c0" stroke-width="2" points="1292.8702,-16.3213 1282.7034,-19.3023 1292.5101,-23.312 1292.8702,-16.3213"/>
</g>
<!-- 57&#45;&gt;56 -->
<g id="edge92" class="edge">
<title>57&#45;&gt;56</title>
<path fill="none" stroke="#c0c0c0" stroke-width="2" d="M2141.4057,-287.8314C2122.0074,-278.3302 2098.083,-266.6121 2077.5138,-256.5374"/>
<polygon fill="#c0c0c0" stroke="#c0c0c0" stroke-width="2" points="2078.8478,-253.2935 2068.3276,-252.038 2075.7686,-259.5799 2078.8478,-253.2935"/>
</g>
<!-- 63 -->
<g id="node64" class="node">
<title>63</title>
<path fill="none" stroke="#59d856" stroke-width="2" d="M2196.5,-252C2196.5,-252 2114.5,-252 2114.5,-252 2108.5,-252 2102.5,-246 2102.5,-240 2102.5,-240 2102.5,-228 2102.5,-228 2102.5,-222 2108.5,-216 2114.5,-216 2114.5,-216 2196.5,-216 2196.5,-216 2202.5,-216 2208.5,-222 2208.5,-228 2208.5,-228 2208.5,-240 2208.5,-240 2208.5,-246 2202.5,-252 2196.5,-252"/>
<text text-anchor="middle" x="2155.5" y="-237" font-family="sans" font-size="10.00" fill="#000000">nonpareil_infer</text>
<text text-anchor="middle" x="2155.5" y="-226" font-family="sans" font-size="10.00" fill="#000000">tool: low_complexity</text>
</g>
<!-- 57&#45;&gt;63 -->
<g id="edge99" class="edge">
<title>57&#45;&gt;63</title>
<path fill="none" stroke="#c0c0c0" stroke-width="2" d="M2172.6961,-287.8314C2170.2092,-280.0463 2167.2469,-270.7729 2164.4875,-262.1347"/>
<polygon fill="#c0c0c0" stroke="#c0c0c0" stroke-width="2" points="2167.7591,-260.874 2161.382,-252.4133 2161.091,-263.0041 2167.7591,-260.874"/>
</g>
<!-- 58 -->
<g id="node59" class="node">
<title>58</title>
<path fill="none" stroke="#56a9d8" stroke-width="2" d="M375.5,-252C375.5,-252 293.5,-252 293.5,-252 287.5,-252 281.5,-246 281.5,-240 281.5,-240 281.5,-228 281.5,-228 281.5,-222 287.5,-216 293.5,-216 293.5,-216 375.5,-216 375.5,-216 381.5,-216 387.5,-222 387.5,-228 387.5,-228 387.5,-240 387.5,-240 387.5,-246 381.5,-252 375.5,-252"/>
<text text-anchor="middle" x="334.5" y="-237" font-family="sans" font-size="10.00" fill="#000000">seqkit_stats</text>
<text text-anchor="middle" x="334.5" y="-226" font-family="sans" font-size="10.00" fill="#000000">tool: low_complexity</text>
</g>
<!-- 58&#45;&gt;1 -->
<g id="edge30" class="edge">
<title>58&#45;&gt;1</title>
<path fill="none" stroke="#c0c0c0" stroke-width="2" d="M321.783,-215.654C309.5196,-195.5027 295.2809,-163.428 313.5,-144 341.319,-114.3352 956.0596,-95.4261 1115.8301,-91.001"/>
<polygon fill="#c0c0c0" stroke="#c0c0c0" stroke-width="2" points="1116.2098,-94.492 1126.11,-90.719 1116.0178,-87.4947 1116.2098,-94.492"/>
</g>
<!-- 59&#45;&gt;0 -->
<g id="edge3" class="edge">
<title>59&#45;&gt;0</title>
<path fill="none" stroke="#c0c0c0" stroke-width="2" d="M184.9052,-287.8102C170.7524,-279.1243 156.3698,-267.2457 148.5,-252 125.9891,-208.3909 133.6081,-175.1881 171.5,-144 254.239,-75.8991 1037.3777,-29.7577 1218.3202,-19.9511"/>
<polygon fill="#c0c0c0" stroke="#c0c0c0" stroke-width="2" points="1218.6088,-23.4407 1228.4063,-19.4084 1218.2327,-16.4508 1218.6088,-23.4407"/>
</g>
<!-- 59&#45;&gt;58 -->
<g id="edge94" class="edge">
<title>59&#45;&gt;58</title>
<path fill="none" stroke="#c0c0c0" stroke-width="2" d="M252.2576,-287.8314C266.197,-278.7074 283.2598,-267.539 298.2231,-257.7449"/>
<polygon fill="#c0c0c0" stroke="#c0c0c0" stroke-width="2" points="300.301,-260.5679 306.7512,-252.1628 296.4674,-254.711 300.301,-260.5679"/>
</g>
<!-- 67 -->
<g id="node68" class="node">
<title>67</title>
<path fill="none" stroke="#59d856" stroke-width="2" d="M251.5,-252C251.5,-252 169.5,-252 169.5,-252 163.5,-252 157.5,-246 157.5,-240 157.5,-240 157.5,-228 157.5,-228 157.5,-222 163.5,-216 169.5,-216 169.5,-216 251.5,-216 251.5,-216 257.5,-216 263.5,-222 263.5,-228 263.5,-228 263.5,-240 263.5,-240 263.5,-246 257.5,-252 251.5,-252"/>
<text text-anchor="middle" x="210.5" y="-237" font-family="sans" font-size="10.00" fill="#000000">nonpareil_infer</text>
<text text-anchor="middle" x="210.5" y="-226" font-family="sans" font-size="10.00" fill="#000000">tool: low_complexity</text>
</g>
<!-- 59&#45;&gt;67 -->
<g id="edge103" class="edge">
<title>59&#45;&gt;67</title>
<path fill="none" stroke="#c0c0c0" stroke-width="2" d="M220.9672,-287.8314C219.4699,-280.131 217.6895,-270.9743 216.0255,-262.4166"/>
<polygon fill="#c0c0c0" stroke="#c0c0c0" stroke-width="2" points="219.4248,-261.5614 214.0804,-252.4133 212.5535,-262.8975 219.4248,-261.5614"/>
</g>
<!-- 60 -->
<g id="node61" class="node">
<title>60</title>
<path fill="none" stroke="#56a9d8" stroke-width="2" d="M1318.5,-252C1318.5,-252 1236.5,-252 1236.5,-252 1230.5,-252 1224.5,-246 1224.5,-240 1224.5,-240 1224.5,-228 1224.5,-228 1224.5,-222 1230.5,-216 1236.5,-216 1236.5,-216 1318.5,-216 1318.5,-216 1324.5,-216 1330.5,-222 1330.5,-228 1330.5,-228 1330.5,-240 1330.5,-240 1330.5,-246 1324.5,-252 1318.5,-252"/>
<text text-anchor="middle" x="1277.5" y="-237" font-family="sans" font-size="10.00" fill="#000000">seqkit_stats</text>
<text text-anchor="middle" x="1277.5" y="-226" font-family="sans" font-size="10.00" fill="#000000">tool: low_complexity</text>
</g>
<!-- 60&#45;&gt;1 -->
<g id="edge31" class="edge">
<title>60&#45;&gt;1</title>
<path fill="none" stroke="#c0c0c0" stroke-width="2" d="M1261.913,-215.6895C1246.3906,-197.4765 1221.8605,-168.7533 1200.5,-144 1192.6669,-134.9227 1184.0632,-125.0185 1176.382,-116.1997"/>
<polygon fill="#c0c0c0" stroke="#c0c0c0" stroke-width="2" points="1178.8452,-113.6988 1169.6358,-108.4607 1173.5686,-118.2986 1178.8452,-113.6988"/>
</g>
<!-- 61&#45;&gt;0 -->
<g id="edge2" class="edge">
<title>61&#45;&gt;0</title>
<path fill="none" stroke="#c0c0c0" stroke-width="2" d="M1263.7343,-289.2859C1295.7358,-276.1962 1334.9656,-259.0617 1339.5,-252 1383.4103,-183.6157 1317.2935,-89.2455 1279.2416,-44.1038"/>
<polygon fill="#c0c0c0" stroke="#c0c0c0" stroke-width="2" points="1281.6717,-41.5619 1272.4959,-36.2651 1276.3659,-46.1279 1281.6717,-41.5619"/>
</g>
<!-- 61&#45;&gt;60 -->
<g id="edge96" class="edge">
<title>61&#45;&gt;60</title>
<path fill="none" stroke="#c0c0c0" stroke-width="2" d="M1235.6312,-287.8314C1242.0811,-279.5386 1249.8445,-269.557 1256.9252,-260.4533"/>
<polygon fill="#c0c0c0" stroke="#c0c0c0" stroke-width="2" points="1259.8019,-262.4556 1263.1786,-252.4133 1254.2764,-258.158 1259.8019,-262.4556"/>
</g>
<!-- 65 -->
<g id="node66" class="node">
<title>65</title>
<path fill="none" stroke="#59d856" stroke-width="2" d="M1194.5,-252C1194.5,-252 1112.5,-252 1112.5,-252 1106.5,-252 1100.5,-246 1100.5,-240 1100.5,-240 1100.5,-228 1100.5,-228 1100.5,-222 1106.5,-216 1112.5,-216 1112.5,-216 1194.5,-216 1194.5,-216 1200.5,-216 1206.5,-222 1206.5,-228 1206.5,-228 1206.5,-240 1206.5,-240 1206.5,-246 1200.5,-252 1194.5,-252"/>
<text text-anchor="middle" x="1153.5" y="-237" font-family="sans" font-size="10.00" fill="#000000">nonpareil_infer</text>
<text text-anchor="middle" x="1153.5" y="-226" font-family="sans" font-size="10.00" fill="#000000">tool: low_complexity</text>
</g>
<!-- 61&#45;&gt;65 -->
<g id="edge101" class="edge">
<title>61&#45;&gt;65</title>
<path fill="none" stroke="#c0c0c0" stroke-width="2" d="M1204.3407,-287.8314C1196.3489,-279.3694 1186.6962,-269.1489 1177.9584,-259.8971"/>
<polygon fill="#c0c0c0" stroke="#c0c0c0" stroke-width="2" points="1180.3011,-257.2802 1170.8903,-252.4133 1175.212,-262.0866 1180.3011,-257.2802"/>
</g>
<!-- 62 -->
<g id="node63" class="node">
<title>62</title>
<path fill="none" stroke="#56d882" stroke-width="2" d="M2132,-180C2132,-180 2079,-180 2079,-180 2073,-180 2067,-174 2067,-168 2067,-168 2067,-156 2067,-156 2067,-150 2073,-144 2079,-144 2079,-144 2132,-144 2132,-144 2138,-144 2144,-150 2144,-156 2144,-156 2144,-168 2144,-168 2144,-174 2138,-180 2132,-180"/>
<text text-anchor="middle" x="2105.5" y="-159.5" font-family="sans" font-size="10.00" fill="#000000">nonpareil_plot</text>
</g>
<!-- 62&#45;&gt;1 -->
<g id="edge32" class="edge">
<title>62&#45;&gt;1</title>
<path fill="none" stroke="#c0c0c0" stroke-width="2" d="M2066.5203,-154.1507C2047.3164,-150.5492 2023.7709,-146.5274 2002.5,-144 1690.0082,-106.8701 1309.5665,-94.1395 1190.7561,-90.914"/>
<polygon fill="#c0c0c0" stroke="#c0c0c0" stroke-width="2" points="1190.812,-87.4143 1180.7226,-90.6475 1190.6261,-94.4118 1190.812,-87.4143"/>
</g>
<!-- 63&#45;&gt;62 -->
<g id="edge98" class="edge">
<title>63&#45;&gt;62</title>
<path fill="none" stroke="#c0c0c0" stroke-width="2" d="M2142.8829,-215.8314C2137.1828,-207.6232 2130.3337,-197.7606 2124.0641,-188.7323"/>
<polygon fill="#c0c0c0" stroke="#c0c0c0" stroke-width="2" points="2126.8658,-186.6306 2118.287,-180.4133 2121.1162,-190.6234 2126.8658,-186.6306"/>
</g>
<!-- 64 -->
<g id="node65" class="node">
<title>64</title>
<path fill="none" stroke="#56d882" stroke-width="2" d="M1180,-180C1180,-180 1127,-180 1127,-180 1121,-180 1115,-174 1115,-168 1115,-168 1115,-156 1115,-156 1115,-150 1121,-144 1127,-144 1127,-144 1180,-144 1180,-144 1186,-144 1192,-150 1192,-156 1192,-156 1192,-168 1192,-168 1192,-174 1186,-180 1180,-180"/>
<text text-anchor="middle" x="1153.5" y="-159.5" font-family="sans" font-size="10.00" fill="#000000">nonpareil_plot</text>
</g>
<!-- 64&#45;&gt;1 -->
<g id="edge33" class="edge">
<title>64&#45;&gt;1</title>
<path fill="none" stroke="#c0c0c0" stroke-width="2" d="M1153.5,-143.8314C1153.5,-136.131 1153.5,-126.9743 1153.5,-118.4166"/>
<polygon fill="#c0c0c0" stroke="#c0c0c0" stroke-width="2" points="1157.0001,-118.4132 1153.5,-108.4133 1150.0001,-118.4133 1157.0001,-118.4132"/>
</g>
<!-- 65&#45;&gt;64 -->
<g id="edge100" class="edge">
<title>65&#45;&gt;64</title>
<path fill="none" stroke="#c0c0c0" stroke-width="2" d="M1153.5,-215.8314C1153.5,-208.131 1153.5,-198.9743 1153.5,-190.4166"/>
<polygon fill="#c0c0c0" stroke="#c0c0c0" stroke-width="2" points="1157.0001,-190.4132 1153.5,-180.4133 1150.0001,-190.4133 1157.0001,-190.4132"/>
</g>
<!-- 66 -->
<g id="node67" class="node">
<title>66</title>
<path fill="none" stroke="#56d882" stroke-width="2" d="M246,-180C246,-180 193,-180 193,-180 187,-180 181,-174 181,-168 181,-168 181,-156 181,-156 181,-150 187,-144 193,-144 193,-144 246,-144 246,-144 252,-144 258,-150 258,-156 258,-156 258,-168 258,-168 258,-174 252,-180 246,-180"/>
<text text-anchor="middle" x="219.5" y="-159.5" font-family="sans" font-size="10.00" fill="#000000">nonpareil_plot</text>
</g>
<!-- 66&#45;&gt;1 -->
<g id="edge34" class="edge">
<title>66&#45;&gt;1</title>
<path fill="none" stroke="#c0c0c0" stroke-width="2" d="M258.2386,-149.152C265.5638,-147.1279 273.2142,-145.2834 280.5,-144 445.0008,-115.0238 971.4739,-95.9708 1116.3126,-91.1845"/>
<polygon fill="#c0c0c0" stroke="#c0c0c0" stroke-width="2" points="1116.5777,-94.6778 1126.4577,-90.8521 1116.3484,-87.6816 1116.5777,-94.6778"/>
</g>
<!-- 67&#45;&gt;66 -->
<g id="edge102" class="edge">
<title>67&#45;&gt;66</title>
<path fill="none" stroke="#c0c0c0" stroke-width="2" d="M212.7711,-215.8314C213.7336,-208.131 214.8782,-198.9743 215.9479,-190.4166"/>
<polygon fill="#c0c0c0" stroke="#c0c0c0" stroke-width="2" points="219.4309,-190.7702 217.1983,-180.4133 212.4849,-189.9019 219.4309,-190.7702"/>
</g>
</g>
</svg>
