<?xml version="1.0" encoding="UTF-8" standalone="no"?>
<!DOCTYPE svg PUBLIC "-//W3C//DTD SVG 1.1//EN"
 "http://www.w3.org/Graphics/SVG/1.1/DTD/svg11.dtd">
<!-- Generated by graphviz version 2.40.1 (0)
 -->
<!-- Title: snakemake_dag Pages: 1 -->
<svg width="2263pt" height="636pt"
 viewBox="0.00 0.00 2262.98 636.00" xmlns="http://www.w3.org/2000/svg" xmlns:xlink="http://www.w3.org/1999/xlink">
<g id="graph0" class="graph" transform="scale(1 1) rotate(0) translate(4 632)">
<title>snakemake_dag</title>
<polygon fill="#ffffff" stroke="transparent" points="-4,4 -4,-632 2258.9774,-632 2258.9774,4 -4,4"/>
<!-- 0 -->
<g id="node1" class="node">
<title>0</title>
<path fill="none" stroke="#d85656" stroke-width="2" d="M1560,-36C1560,-36 1530,-36 1530,-36 1524,-36 1518,-30 1518,-24 1518,-24 1518,-12 1518,-12 1518,-6 1524,0 1530,0 1530,0 1560,0 1560,0 1566,0 1572,-6 1572,-12 1572,-12 1572,-24 1572,-24 1572,-30 1566,-36 1560,-36"/>
<text text-anchor="middle" x="1545" y="-15.5" font-family="sans" font-size="10.00" fill="#000000">all</text>
</g>
<!-- 1 -->
<g id="node2" class="node">
<title>1</title>
<path fill="none" stroke="#80d856" stroke-width="2" d="M998,-108C998,-108 968,-108 968,-108 962,-108 956,-102 956,-96 956,-96 956,-84 956,-84 956,-78 962,-72 968,-72 968,-72 998,-72 998,-72 1004,-72 1010,-78 1010,-84 1010,-84 1010,-96 1010,-96 1010,-102 1004,-108 998,-108"/>
<text text-anchor="middle" x="983" y="-87.5" font-family="sans" font-size="10.00" fill="#000000">multiqc</text>
</g>
<!-- 1&#45;&gt;0 -->
<g id="edge1" class="edge">
<title>1&#45;&gt;0</title>
<path fill="none" stroke="#c0c0c0" stroke-width="2" d="M1010.1064,-86.5273C1102.0001,-74.7544 1401.8582,-36.3385 1507.6414,-22.7862"/>
<polygon fill="#c0c0c0" stroke="#c0c0c0" stroke-width="2" points="1508.3631,-26.2224 1517.8372,-21.4799 1507.4735,-19.2791 1508.3631,-26.2224"/>
</g>
<!-- 2 -->
<g id="node3" class="node">
<title>2</title>
<path fill="none" stroke="#56a9d8" stroke-width="2" d="M1384,-180C1384,-180 1314,-180 1314,-180 1308,-180 1302,-174 1302,-168 1302,-168 1302,-156 1302,-156 1302,-150 1308,-144 1314,-144 1314,-144 1384,-144 1384,-144 1390,-144 1396,-150 1396,-156 1396,-156 1396,-168 1396,-168 1396,-174 1390,-180 1384,-180"/>
<text text-anchor="middle" x="1349" y="-165" font-family="sans" font-size="10.00" fill="#000000">seqkit_stats</text>
<text text-anchor="middle" x="1349" y="-154" font-family="sans" font-size="10.00" fill="#000000">tool: merge_lanes</text>
</g>
<!-- 2&#45;&gt;1 -->
<g id="edge5" class="edge">
<title>2&#45;&gt;1</title>
<path fill="none" stroke="#c0c0c0" stroke-width="2" d="M1301.8505,-147.5212C1297.1892,-146.2603 1292.5142,-145.0622 1288,-144 1192.4,-121.5064 1077.9732,-103.6236 1020.238,-95.221"/>
<polygon fill="#c0c0c0" stroke="#c0c0c0" stroke-width="2" points="1020.5319,-91.7273 1010.1346,-93.7635 1019.5323,-98.6556 1020.5319,-91.7273"/>
</g>
<!-- 3 -->
<g id="node4" class="node">
<title>3</title>
<path fill="none" stroke="#afd856" stroke-width="2" d="M1718,-628C1718,-628 1614,-628 1614,-628 1608,-628 1602,-622 1602,-616 1602,-616 1602,-588 1602,-588 1602,-582 1608,-576 1614,-576 1614,-576 1718,-576 1718,-576 1724,-576 1730,-582 1730,-588 1730,-588 1730,-616 1730,-616 1730,-622 1724,-628 1718,-628"/>
<text text-anchor="middle" x="1666" y="-616" font-family="sans" font-size="10.00" fill="#000000">merge_lanes</text>
<text text-anchor="middle" x="1666" y="-605" font-family="sans" font-size="10.00" fill="#000000">library: lib2</text>
<text text-anchor="middle" x="1666" y="-594" font-family="sans" font-size="10.00" fill="#000000">read_type_trim: collapsed</text>
<text text-anchor="middle" x="1666" y="-583" font-family="sans" font-size="10.00" fill="#000000">sample: HD827sonic_2</text>
</g>
<!-- 3&#45;&gt;2 -->
<g id="edge35" class="edge">
<title>3&#45;&gt;2</title>
<path fill="none" stroke="#c0c0c0" stroke-width="2" d="M1601.9194,-586.4299C1558.1119,-574.5253 1505.3132,-557.2711 1490,-540 1462.8158,-509.3401 1470,-490.9758 1470,-450 1470,-450 1470,-450 1470,-306 1470,-265.1184 1475.6099,-248.6445 1451,-216 1439.4999,-200.7453 1422.4176,-189.3631 1405.5063,-181.0849"/>
<polygon fill="#c0c0c0" stroke="#c0c0c0" stroke-width="2" points="1406.7139,-177.7883 1396.1652,-176.8004 1403.7955,-184.1509 1406.7139,-177.7883"/>
</g>
<!-- 9 -->
<g id="node10" class="node">
<title>9</title>
<path fill="none" stroke="#59d856" stroke-width="2" d="M1581,-540C1581,-540 1511,-540 1511,-540 1505,-540 1499,-534 1499,-528 1499,-528 1499,-516 1499,-516 1499,-510 1505,-504 1511,-504 1511,-504 1581,-504 1581,-504 1587,-504 1593,-510 1593,-516 1593,-516 1593,-528 1593,-528 1593,-534 1587,-540 1581,-540"/>
<text text-anchor="middle" x="1546" y="-525" font-family="sans" font-size="10.00" fill="#000000">nonpareil_infer</text>
<text text-anchor="middle" x="1546" y="-514" font-family="sans" font-size="10.00" fill="#000000">tool: merge_lanes</text>
</g>
<!-- 3&#45;&gt;9 -->
<g id="edge39" class="edge">
<title>3&#45;&gt;9</title>
<path fill="none" stroke="#c0c0c0" stroke-width="2" d="M1626.7075,-575.805C1612.2165,-566.1444 1595.8888,-555.2592 1581.7298,-545.8198"/>
<polygon fill="#c0c0c0" stroke="#c0c0c0" stroke-width="2" points="1583.4918,-542.7881 1573.2299,-540.1532 1579.6089,-548.6125 1583.4918,-542.7881"/>
</g>
<!-- 21 -->
<g id="node22" class="node">
<title>21</title>
<path fill="none" stroke="#d88556" stroke-width="2" d="M1669.5,-468C1669.5,-468 1610.5,-468 1610.5,-468 1604.5,-468 1598.5,-462 1598.5,-456 1598.5,-456 1598.5,-444 1598.5,-444 1598.5,-438 1604.5,-432 1610.5,-432 1610.5,-432 1669.5,-432 1669.5,-432 1675.5,-432 1681.5,-438 1681.5,-444 1681.5,-444 1681.5,-456 1681.5,-456 1681.5,-462 1675.5,-468 1669.5,-468"/>
<text text-anchor="middle" x="1640" y="-447.5" font-family="sans" font-size="10.00" fill="#000000">extend_tadpole</text>
</g>
<!-- 3&#45;&gt;21 -->
<g id="edge53" class="edge">
<title>3&#45;&gt;21</title>
<path fill="none" stroke="#c0c0c0" stroke-width="2" d="M1673.6671,-575.6872C1678.2574,-555.6517 1681.9772,-527.593 1675,-504 1672.1312,-494.2994 1666.9132,-484.7055 1661.3667,-476.3563"/>
<polygon fill="#c0c0c0" stroke="#c0c0c0" stroke-width="2" points="1664.1909,-474.2881 1655.5525,-468.1538 1658.4801,-478.3362 1664.1909,-474.2881"/>
</g>
<!-- 22 -->
<g id="node23" class="node">
<title>22</title>
<path fill="none" stroke="#d8ac56" stroke-width="2" d="M1654,-540C1654,-540 1624,-540 1624,-540 1618,-540 1612,-534 1612,-528 1612,-528 1612,-516 1612,-516 1612,-510 1618,-504 1624,-504 1624,-504 1654,-504 1654,-504 1660,-504 1666,-510 1666,-516 1666,-516 1666,-528 1666,-528 1666,-534 1660,-540 1654,-540"/>
<text text-anchor="middle" x="1639" y="-519.5" font-family="sans" font-size="10.00" fill="#000000">loglog</text>
</g>
<!-- 3&#45;&gt;22 -->
<g id="edge55" class="edge">
<title>3&#45;&gt;22</title>
<path fill="none" stroke="#c0c0c0" stroke-width="2" d="M1657.1592,-575.805C1654.3293,-567.4203 1651.1882,-558.1132 1648.3249,-549.6295"/>
<polygon fill="#c0c0c0" stroke="#c0c0c0" stroke-width="2" points="1651.6408,-548.5089 1645.1267,-540.1532 1645.0083,-550.7474 1651.6408,-548.5089"/>
</g>
<!-- 32 -->
<g id="node33" class="node">
<title>32</title>
<path fill="none" stroke="#5682d8" stroke-width="2" d="M1783,-540C1783,-540 1753,-540 1753,-540 1747,-540 1741,-534 1741,-528 1741,-528 1741,-516 1741,-516 1741,-510 1747,-504 1753,-504 1753,-504 1783,-504 1783,-504 1789,-504 1795,-510 1795,-516 1795,-516 1795,-528 1795,-528 1795,-534 1789,-540 1783,-540"/>
<text text-anchor="middle" x="1768" y="-519.5" font-family="sans" font-size="10.00" fill="#000000">vsearch</text>
</g>
<!-- 3&#45;&gt;32 -->
<g id="edge65" class="edge">
<title>3&#45;&gt;32</title>
<path fill="none" stroke="#c0c0c0" stroke-width="2" d="M1699.3986,-575.805C1711.4835,-566.3266 1725.0714,-555.6695 1736.9465,-546.3557"/>
<polygon fill="#c0c0c0" stroke="#c0c0c0" stroke-width="2" points="1739.1461,-549.0787 1744.8546,-540.1532 1734.8261,-543.5707 1739.1461,-549.0787"/>
</g>
<!-- 48 -->
<g id="node49" class="node">
<title>48</title>
<path fill="none" stroke="#56d8d8" stroke-width="2" d="M1966.5,-396C1966.5,-396 1923.5,-396 1923.5,-396 1917.5,-396 1911.5,-390 1911.5,-384 1911.5,-384 1911.5,-372 1911.5,-372 1911.5,-366 1917.5,-360 1923.5,-360 1923.5,-360 1966.5,-360 1966.5,-360 1972.5,-360 1978.5,-366 1978.5,-372 1978.5,-372 1978.5,-384 1978.5,-384 1978.5,-390 1972.5,-396 1966.5,-396"/>
<text text-anchor="middle" x="1945" y="-375.5" font-family="sans" font-size="10.00" fill="#000000">seqkit_grep</text>
</g>
<!-- 3&#45;&gt;48 -->
<g id="edge83" class="edge">
<title>3&#45;&gt;48</title>
<path fill="none" stroke="#c0c0c0" stroke-width="2" d="M1730.2827,-587.9097C1792.1925,-570.7336 1883.1427,-535.2716 1930,-468 1942.4701,-450.0971 1945.8638,-425.4062 1946.3381,-406.4139"/>
<polygon fill="#c0c0c0" stroke="#c0c0c0" stroke-width="2" points="1949.8381,-406.2553 1946.3336,-396.2569 1942.8381,-406.2585 1949.8381,-406.2553"/>
</g>
<!-- 4 -->
<g id="node5" class="node">
<title>4</title>
<path fill="none" stroke="#56a9d8" stroke-width="2" d="M791,-252C791,-252 721,-252 721,-252 715,-252 709,-246 709,-240 709,-240 709,-228 709,-228 709,-222 715,-216 721,-216 721,-216 791,-216 791,-216 797,-216 803,-222 803,-228 803,-228 803,-240 803,-240 803,-246 797,-252 791,-252"/>
<text text-anchor="middle" x="756" y="-237" font-family="sans" font-size="10.00" fill="#000000">seqkit_stats</text>
<text text-anchor="middle" x="756" y="-226" font-family="sans" font-size="10.00" fill="#000000">tool: merge_lanes</text>
</g>
<!-- 4&#45;&gt;1 -->
<g id="edge6" class="edge">
<title>4&#45;&gt;1</title>
<path fill="none" stroke="#c0c0c0" stroke-width="2" d="M763.8571,-215.8C773.5243,-195.4737 791.807,-162.9468 817,-144 855.3577,-115.1525 909.7846,-101.3309 945.72,-94.9843"/>
<polygon fill="#c0c0c0" stroke="#c0c0c0" stroke-width="2" points="946.4946,-98.4038 955.788,-93.3161 945.3503,-91.4979 946.4946,-98.4038"/>
</g>
<!-- 5 -->
<g id="node6" class="node">
<title>5</title>
<path fill="none" stroke="#afd856" stroke-width="2" d="M1069,-628C1069,-628 965,-628 965,-628 959,-628 953,-622 953,-616 953,-616 953,-588 953,-588 953,-582 959,-576 965,-576 965,-576 1069,-576 1069,-576 1075,-576 1081,-582 1081,-588 1081,-588 1081,-616 1081,-616 1081,-622 1075,-628 1069,-628"/>
<text text-anchor="middle" x="1017" y="-616" font-family="sans" font-size="10.00" fill="#000000">merge_lanes</text>
<text text-anchor="middle" x="1017" y="-605" font-family="sans" font-size="10.00" fill="#000000">library: lib1</text>
<text text-anchor="middle" x="1017" y="-594" font-family="sans" font-size="10.00" fill="#000000">read_type_trim: collapsed</text>
<text text-anchor="middle" x="1017" y="-583" font-family="sans" font-size="10.00" fill="#000000">sample: HD827sonic_2</text>
</g>
<!-- 5&#45;&gt;4 -->
<g id="edge36" class="edge">
<title>5&#45;&gt;4</title>
<path fill="none" stroke="#c0c0c0" stroke-width="2" d="M952.5948,-595.8675C909.6848,-588.7395 854.4965,-573.3266 817,-540 784.2823,-510.9208 777,-493.7727 777,-450 777,-450 777,-450 777,-378 777,-337.2729 768.673,-290.7384 762.5061,-261.8595"/>
<polygon fill="#c0c0c0" stroke="#c0c0c0" stroke-width="2" points="765.9177,-261.0768 760.3512,-252.0621 759.0811,-262.5806 765.9177,-261.0768"/>
</g>
<!-- 11 -->
<g id="node12" class="node">
<title>11</title>
<path fill="none" stroke="#59d856" stroke-width="2" d="M908,-540C908,-540 838,-540 838,-540 832,-540 826,-534 826,-528 826,-528 826,-516 826,-516 826,-510 832,-504 838,-504 838,-504 908,-504 908,-504 914,-504 920,-510 920,-516 920,-516 920,-528 920,-528 920,-534 914,-540 908,-540"/>
<text text-anchor="middle" x="873" y="-525" font-family="sans" font-size="10.00" fill="#000000">nonpareil_infer</text>
<text text-anchor="middle" x="873" y="-514" font-family="sans" font-size="10.00" fill="#000000">tool: merge_lanes</text>
</g>
<!-- 5&#45;&gt;11 -->
<g id="edge41" class="edge">
<title>5&#45;&gt;11</title>
<path fill="none" stroke="#c0c0c0" stroke-width="2" d="M969.849,-575.805C951.9677,-565.8709 931.7557,-554.6421 914.4395,-545.0219"/>
<polygon fill="#c0c0c0" stroke="#c0c0c0" stroke-width="2" points="916.1172,-541.9502 905.6758,-540.1532 912.7176,-548.0693 916.1172,-541.9502"/>
</g>
<!-- 18 -->
<g id="node19" class="node">
<title>18</title>
<path fill="none" stroke="#d88556" stroke-width="2" d="M1168.5,-468C1168.5,-468 1109.5,-468 1109.5,-468 1103.5,-468 1097.5,-462 1097.5,-456 1097.5,-456 1097.5,-444 1097.5,-444 1097.5,-438 1103.5,-432 1109.5,-432 1109.5,-432 1168.5,-432 1168.5,-432 1174.5,-432 1180.5,-438 1180.5,-444 1180.5,-444 1180.5,-456 1180.5,-456 1180.5,-462 1174.5,-468 1168.5,-468"/>
<text text-anchor="middle" x="1139" y="-447.5" font-family="sans" font-size="10.00" fill="#000000">extend_tadpole</text>
</g>
<!-- 5&#45;&gt;18 -->
<g id="edge49" class="edge">
<title>5&#45;&gt;18</title>
<path fill="none" stroke="#c0c0c0" stroke-width="2" d="M1055.3494,-575.7465C1068.3621,-565.6039 1082.2995,-553.2459 1093,-540 1108.2358,-521.14 1120.4251,-496.4215 1128.4183,-477.6623"/>
<polygon fill="#c0c0c0" stroke="#c0c0c0" stroke-width="2" points="1131.7458,-478.7735 1132.3147,-468.1939 1125.2725,-476.1095 1131.7458,-478.7735"/>
</g>
<!-- 19 -->
<g id="node20" class="node">
<title>19</title>
<path fill="none" stroke="#d8ac56" stroke-width="2" d="M1072,-540C1072,-540 1042,-540 1042,-540 1036,-540 1030,-534 1030,-528 1030,-528 1030,-516 1030,-516 1030,-510 1036,-504 1042,-504 1042,-504 1072,-504 1072,-504 1078,-504 1084,-510 1084,-516 1084,-516 1084,-528 1084,-528 1084,-534 1078,-540 1072,-540"/>
<text text-anchor="middle" x="1057" y="-519.5" font-family="sans" font-size="10.00" fill="#000000">loglog</text>
</g>
<!-- 5&#45;&gt;19 -->
<g id="edge51" class="edge">
<title>5&#45;&gt;19</title>
<path fill="none" stroke="#c0c0c0" stroke-width="2" d="M1030.0975,-575.805C1034.3354,-567.3292 1039.0446,-557.9107 1043.3234,-549.3531"/>
<polygon fill="#c0c0c0" stroke="#c0c0c0" stroke-width="2" points="1046.5817,-550.6628 1047.9234,-540.1532 1040.3207,-547.5323 1046.5817,-550.6628"/>
</g>
<!-- 34 -->
<g id="node35" class="node">
<title>34</title>
<path fill="none" stroke="#5682d8" stroke-width="2" d="M995,-540C995,-540 965,-540 965,-540 959,-540 953,-534 953,-528 953,-528 953,-516 953,-516 953,-510 959,-504 965,-504 965,-504 995,-504 995,-504 1001,-504 1007,-510 1007,-516 1007,-516 1007,-528 1007,-528 1007,-534 1001,-540 995,-540"/>
<text text-anchor="middle" x="980" y="-519.5" font-family="sans" font-size="10.00" fill="#000000">vsearch</text>
</g>
<!-- 5&#45;&gt;34 -->
<g id="edge67" class="edge">
<title>5&#45;&gt;34</title>
<path fill="none" stroke="#c0c0c0" stroke-width="2" d="M1004.8848,-575.805C1000.9647,-567.3292 996.6087,-557.9107 992.6508,-549.3531"/>
<polygon fill="#c0c0c0" stroke="#c0c0c0" stroke-width="2" points="995.7704,-547.7603 988.3959,-540.1532 989.417,-550.6988 995.7704,-547.7603"/>
</g>
<!-- 45 -->
<g id="node46" class="node">
<title>45</title>
<path fill="none" stroke="#56d8d8" stroke-width="2" d="M1240.5,-396C1240.5,-396 1197.5,-396 1197.5,-396 1191.5,-396 1185.5,-390 1185.5,-384 1185.5,-384 1185.5,-372 1185.5,-372 1185.5,-366 1191.5,-360 1197.5,-360 1197.5,-360 1240.5,-360 1240.5,-360 1246.5,-360 1252.5,-366 1252.5,-372 1252.5,-372 1252.5,-384 1252.5,-384 1252.5,-390 1246.5,-396 1240.5,-396"/>
<text text-anchor="middle" x="1219" y="-375.5" font-family="sans" font-size="10.00" fill="#000000">seqkit_grep</text>
</g>
<!-- 5&#45;&gt;45 -->
<g id="edge79" class="edge">
<title>5&#45;&gt;45</title>
<path fill="none" stroke="#c0c0c0" stroke-width="2" d="M1068.1396,-575.9589C1107.7995,-553.0148 1160.7795,-515.8145 1190,-468 1201.6467,-448.9421 1209.105,-424.7206 1213.5371,-406.2069"/>
<polygon fill="#c0c0c0" stroke="#c0c0c0" stroke-width="2" points="1216.9827,-406.8364 1215.7507,-396.3135 1210.1516,-405.308 1216.9827,-406.8364"/>
</g>
<!-- 6 -->
<g id="node7" class="node">
<title>6</title>
<path fill="none" stroke="#56a9d8" stroke-width="2" d="M612,-540C612,-540 542,-540 542,-540 536,-540 530,-534 530,-528 530,-528 530,-516 530,-516 530,-510 536,-504 542,-504 542,-504 612,-504 612,-504 618,-504 624,-510 624,-516 624,-516 624,-528 624,-528 624,-534 618,-540 612,-540"/>
<text text-anchor="middle" x="577" y="-525" font-family="sans" font-size="10.00" fill="#000000">seqkit_stats</text>
<text text-anchor="middle" x="577" y="-514" font-family="sans" font-size="10.00" fill="#000000">tool: merge_lanes</text>
</g>
<!-- 6&#45;&gt;1 -->
<g id="edge7" class="edge">
<title>6&#45;&gt;1</title>
<path fill="none" stroke="#c0c0c0" stroke-width="2" d="M605.6545,-503.9456C617.5927,-494.7626 630.2313,-482.4714 637,-468 667.5256,-402.7367 643,-378.0494 643,-306 643,-306 643,-306 643,-234 643,-181.3582 674.6549,-170.7391 720,-144 757.8438,-121.6843 882.5569,-102.9535 945.6874,-94.6279"/>
<polygon fill="#c0c0c0" stroke="#c0c0c0" stroke-width="2" points="946.1671,-98.0951 955.6326,-93.3354 945.2649,-91.1535 946.1671,-98.0951"/>
</g>
<!-- 7 -->
<g id="node8" class="node">
<title>7</title>
<path fill="none" stroke="#afd856" stroke-width="2" d="M493,-628C493,-628 389,-628 389,-628 383,-628 377,-622 377,-616 377,-616 377,-588 377,-588 377,-582 383,-576 389,-576 389,-576 493,-576 493,-576 499,-576 505,-582 505,-588 505,-588 505,-616 505,-616 505,-622 499,-628 493,-628"/>
<text text-anchor="middle" x="441" y="-616" font-family="sans" font-size="10.00" fill="#000000">merge_lanes</text>
<text text-anchor="middle" x="441" y="-605" font-family="sans" font-size="10.00" fill="#000000">library: lib1</text>
<text text-anchor="middle" x="441" y="-594" font-family="sans" font-size="10.00" fill="#000000">read_type_trim: collapsed</text>
<text text-anchor="middle" x="441" y="-583" font-family="sans" font-size="10.00" fill="#000000">sample: HD827sonic_1</text>
</g>
<!-- 7&#45;&gt;6 -->
<g id="edge37" class="edge">
<title>7&#45;&gt;6</title>
<path fill="none" stroke="#c0c0c0" stroke-width="2" d="M485.5315,-575.805C502.2645,-565.9621 521.1584,-554.848 537.4119,-545.2871"/>
<polygon fill="#c0c0c0" stroke="#c0c0c0" stroke-width="2" points="539.2947,-548.2403 546.1395,-540.1532 535.7456,-542.2067 539.2947,-548.2403"/>
</g>
<!-- 13 -->
<g id="node14" class="node">
<title>13</title>
<path fill="none" stroke="#59d856" stroke-width="2" d="M733,-540C733,-540 663,-540 663,-540 657,-540 651,-534 651,-528 651,-528 651,-516 651,-516 651,-510 657,-504 663,-504 663,-504 733,-504 733,-504 739,-504 745,-510 745,-516 745,-516 745,-528 745,-528 745,-534 739,-540 733,-540"/>
<text text-anchor="middle" x="698" y="-525" font-family="sans" font-size="10.00" fill="#000000">nonpareil_infer</text>
<text text-anchor="middle" x="698" y="-514" font-family="sans" font-size="10.00" fill="#000000">tool: merge_lanes</text>
</g>
<!-- 7&#45;&gt;13 -->
<g id="edge43" class="edge">
<title>7&#45;&gt;13</title>
<path fill="none" stroke="#c0c0c0" stroke-width="2" d="M505.189,-582.019C546.9434,-569.0215 600.9038,-552.2245 641.1167,-539.7069"/>
<polygon fill="#c0c0c0" stroke="#c0c0c0" stroke-width="2" points="642.2609,-543.0164 650.7687,-536.7023 640.1803,-536.3327 642.2609,-543.0164"/>
</g>
<!-- 15 -->
<g id="node16" class="node">
<title>15</title>
<path fill="none" stroke="#d88556" stroke-width="2" d="M336.5,-468C336.5,-468 277.5,-468 277.5,-468 271.5,-468 265.5,-462 265.5,-456 265.5,-456 265.5,-444 265.5,-444 265.5,-438 271.5,-432 277.5,-432 277.5,-432 336.5,-432 336.5,-432 342.5,-432 348.5,-438 348.5,-444 348.5,-444 348.5,-456 348.5,-456 348.5,-462 342.5,-468 336.5,-468"/>
<text text-anchor="middle" x="307" y="-447.5" font-family="sans" font-size="10.00" fill="#000000">extend_tadpole</text>
</g>
<!-- 7&#45;&gt;15 -->
<g id="edge45" class="edge">
<title>7&#45;&gt;15</title>
<path fill="none" stroke="#c0c0c0" stroke-width="2" d="M417.9646,-575.8703C393.3101,-547.904 354.4355,-503.8075 329.8519,-475.9215"/>
<polygon fill="#c0c0c0" stroke="#c0c0c0" stroke-width="2" points="332.2554,-473.3552 323.0169,-468.1685 327.0045,-477.9843 332.2554,-473.3552"/>
</g>
<!-- 16 -->
<g id="node17" class="node">
<title>16</title>
<path fill="none" stroke="#d8ac56" stroke-width="2" d="M324,-540C324,-540 294,-540 294,-540 288,-540 282,-534 282,-528 282,-528 282,-516 282,-516 282,-510 288,-504 294,-504 294,-504 324,-504 324,-504 330,-504 336,-510 336,-516 336,-516 336,-528 336,-528 336,-534 330,-540 324,-540"/>
<text text-anchor="middle" x="309" y="-519.5" font-family="sans" font-size="10.00" fill="#000000">loglog</text>
</g>
<!-- 7&#45;&gt;16 -->
<g id="edge47" class="edge">
<title>7&#45;&gt;16</title>
<path fill="none" stroke="#c0c0c0" stroke-width="2" d="M397.7783,-575.805C380.6493,-565.4238 361.1872,-553.6286 344.8593,-543.7329"/>
<polygon fill="#c0c0c0" stroke="#c0c0c0" stroke-width="2" points="346.5115,-540.6417 336.1455,-538.4518 342.8834,-546.6281 346.5115,-540.6417"/>
</g>
<!-- 30 -->
<g id="node31" class="node">
<title>30</title>
<path fill="none" stroke="#5682d8" stroke-width="2" d="M483,-540C483,-540 453,-540 453,-540 447,-540 441,-534 441,-528 441,-528 441,-516 441,-516 441,-510 447,-504 453,-504 453,-504 483,-504 483,-504 489,-504 495,-510 495,-516 495,-516 495,-528 495,-528 495,-534 489,-540 483,-540"/>
<text text-anchor="middle" x="468" y="-519.5" font-family="sans" font-size="10.00" fill="#000000">vsearch</text>
</g>
<!-- 7&#45;&gt;30 -->
<g id="edge63" class="edge">
<title>7&#45;&gt;30</title>
<path fill="none" stroke="#c0c0c0" stroke-width="2" d="M449.8408,-575.805C452.6707,-567.4203 455.8118,-558.1132 458.6751,-549.6295"/>
<polygon fill="#c0c0c0" stroke="#c0c0c0" stroke-width="2" points="461.9917,-550.7474 461.8733,-540.1532 455.3592,-548.5089 461.9917,-550.7474"/>
</g>
<!-- 42 -->
<g id="node43" class="node">
<title>42</title>
<path fill="none" stroke="#56d8d8" stroke-width="2" d="M258.5,-396C258.5,-396 215.5,-396 215.5,-396 209.5,-396 203.5,-390 203.5,-384 203.5,-384 203.5,-372 203.5,-372 203.5,-366 209.5,-360 215.5,-360 215.5,-360 258.5,-360 258.5,-360 264.5,-360 270.5,-366 270.5,-372 270.5,-372 270.5,-384 270.5,-384 270.5,-390 264.5,-396 258.5,-396"/>
<text text-anchor="middle" x="237" y="-375.5" font-family="sans" font-size="10.00" fill="#000000">seqkit_grep</text>
</g>
<!-- 7&#45;&gt;42 -->
<g id="edge75" class="edge">
<title>7&#45;&gt;42</title>
<path fill="none" stroke="#c0c0c0" stroke-width="2" d="M376.782,-593.3484C341.376,-585.2978 299.376,-569.7978 273,-540 239.9458,-502.6576 235.1323,-441.7508 235.4813,-406.2175"/>
<polygon fill="#c0c0c0" stroke="#c0c0c0" stroke-width="2" points="238.9841,-406.1414 235.7298,-396.0588 231.9862,-405.9702 238.9841,-406.1414"/>
</g>
<!-- 8 -->
<g id="node9" class="node">
<title>8</title>
<path fill="none" stroke="#56d882" stroke-width="2" d="M1479.5,-180C1479.5,-180 1426.5,-180 1426.5,-180 1420.5,-180 1414.5,-174 1414.5,-168 1414.5,-168 1414.5,-156 1414.5,-156 1414.5,-150 1420.5,-144 1426.5,-144 1426.5,-144 1479.5,-144 1479.5,-144 1485.5,-144 1491.5,-150 1491.5,-156 1491.5,-156 1491.5,-168 1491.5,-168 1491.5,-174 1485.5,-180 1479.5,-180"/>
<text text-anchor="middle" x="1453" y="-159.5" font-family="sans" font-size="10.00" fill="#000000">nonpareil_plot</text>
</g>
<!-- 8&#45;&gt;1 -->
<g id="edge8" class="edge">
<title>8&#45;&gt;1</title>
<path fill="none" stroke="#c0c0c0" stroke-width="2" d="M1414.4708,-146.676C1411.2943,-145.6811 1408.1099,-144.771 1405,-144 1265.606,-109.4414 1094.5171,-96.2276 1020.2919,-91.8709"/>
<polygon fill="#c0c0c0" stroke="#c0c0c0" stroke-width="2" points="1020.2408,-88.3625 1010.0587,-91.2909 1019.8446,-95.3513 1020.2408,-88.3625"/>
</g>
<!-- 9&#45;&gt;8 -->
<g id="edge38" class="edge">
<title>9&#45;&gt;8</title>
<path fill="none" stroke="#c0c0c0" stroke-width="2" d="M1539.6378,-503.615C1530.8315,-476.4838 1516,-423.9662 1516,-378 1516,-378 1516,-378 1516,-306 1516,-262.171 1491.2004,-216.6548 1472.7203,-188.8215"/>
<polygon fill="#c0c0c0" stroke="#c0c0c0" stroke-width="2" points="1475.5159,-186.7091 1466.9817,-180.4307 1469.7379,-190.6608 1475.5159,-186.7091"/>
</g>
<!-- 10 -->
<g id="node11" class="node">
<title>10</title>
<path fill="none" stroke="#56d882" stroke-width="2" d="M870.5,-396C870.5,-396 817.5,-396 817.5,-396 811.5,-396 805.5,-390 805.5,-384 805.5,-384 805.5,-372 805.5,-372 805.5,-366 811.5,-360 817.5,-360 817.5,-360 870.5,-360 870.5,-360 876.5,-360 882.5,-366 882.5,-372 882.5,-372 882.5,-384 882.5,-384 882.5,-390 876.5,-396 870.5,-396"/>
<text text-anchor="middle" x="844" y="-375.5" font-family="sans" font-size="10.00" fill="#000000">nonpareil_plot</text>
</g>
<!-- 10&#45;&gt;1 -->
<g id="edge9" class="edge">
<title>10&#45;&gt;1</title>
<path fill="none" stroke="#c0c0c0" stroke-width="2" d="M840.1587,-359.6001C838.1834,-349.2025 835.9877,-335.9346 835,-324 828.2485,-242.4227 822.0435,-207.2532 874,-144 892.2972,-121.7245 922.0715,-107.8512 945.8816,-99.753"/>
<polygon fill="#c0c0c0" stroke="#c0c0c0" stroke-width="2" points="947.2079,-103.0037 955.6699,-96.6283 945.0791,-96.3352 947.2079,-103.0037"/>
</g>
<!-- 11&#45;&gt;10 -->
<g id="edge40" class="edge">
<title>11&#45;&gt;10</title>
<path fill="none" stroke="#c0c0c0" stroke-width="2" d="M867.7985,-503.6015C864.9679,-493.2044 861.5368,-479.9364 859,-468 854.6162,-447.373 850.7354,-423.861 848.02,-406.0426"/>
<polygon fill="#c0c0c0" stroke="#c0c0c0" stroke-width="2" points="851.4616,-405.3914 846.5233,-396.0178 844.5383,-406.425 851.4616,-405.3914"/>
</g>
<!-- 12 -->
<g id="node13" class="node">
<title>12</title>
<path fill="none" stroke="#56d882" stroke-width="2" d="M736.5,-396C736.5,-396 683.5,-396 683.5,-396 677.5,-396 671.5,-390 671.5,-384 671.5,-384 671.5,-372 671.5,-372 671.5,-366 677.5,-360 683.5,-360 683.5,-360 736.5,-360 736.5,-360 742.5,-360 748.5,-366 748.5,-372 748.5,-372 748.5,-384 748.5,-384 748.5,-390 742.5,-396 736.5,-396"/>
<text text-anchor="middle" x="710" y="-375.5" font-family="sans" font-size="10.00" fill="#000000">nonpareil_plot</text>
</g>
<!-- 12&#45;&gt;1 -->
<g id="edge10" class="edge">
<title>12&#45;&gt;1</title>
<path fill="none" stroke="#c0c0c0" stroke-width="2" d="M703.5862,-359.7632C693.7815,-328.697 678.3559,-264.198 700,-216 742.0354,-122.3936 878.6064,-98.3274 945.4525,-92.1406"/>
<polygon fill="#c0c0c0" stroke="#c0c0c0" stroke-width="2" points="945.8845,-95.6167 955.5571,-91.2932 945.2995,-88.6412 945.8845,-95.6167"/>
</g>
<!-- 13&#45;&gt;12 -->
<g id="edge42" class="edge">
<title>13&#45;&gt;12</title>
<path fill="none" stroke="#c0c0c0" stroke-width="2" d="M699.5198,-503.7623C701.5666,-479.201 705.2294,-435.2474 707.6372,-406.3541"/>
<polygon fill="#c0c0c0" stroke="#c0c0c0" stroke-width="2" points="711.1499,-406.3458 708.4925,-396.0896 704.1741,-405.7644 711.1499,-406.3458"/>
</g>
<!-- 14 -->
<g id="node15" class="node">
<title>14</title>
<path fill="none" stroke="#56a9d8" stroke-width="2" d="M431,-324C431,-324 353,-324 353,-324 347,-324 341,-318 341,-312 341,-312 341,-300 341,-300 341,-294 347,-288 353,-288 353,-288 431,-288 431,-288 437,-288 443,-294 443,-300 443,-300 443,-312 443,-312 443,-318 437,-324 431,-324"/>
<text text-anchor="middle" x="392" y="-309" font-family="sans" font-size="10.00" fill="#000000">seqkit_stats</text>
<text text-anchor="middle" x="392" y="-298" font-family="sans" font-size="10.00" fill="#000000">tool: extend/tadpole</text>
</g>
<!-- 14&#45;&gt;1 -->
<g id="edge11" class="edge">
<title>14&#45;&gt;1</title>
<path fill="none" stroke="#c0c0c0" stroke-width="2" d="M419.5695,-287.8769C432.836,-278.2682 448.3487,-265.6408 460,-252 495.804,-210.0824 475.0856,-174.5103 521,-144 556.1951,-120.6128 842.6881,-99.37 946.0168,-92.3995"/>
<polygon fill="#c0c0c0" stroke="#c0c0c0" stroke-width="2" points="946.2528,-95.8917 955.9971,-91.7323 945.7859,-88.9072 946.2528,-95.8917"/>
</g>
<!-- 15&#45;&gt;14 -->
<g id="edge44" class="edge">
<title>15&#45;&gt;14</title>
<path fill="none" stroke="#c0c0c0" stroke-width="2" d="M313.0122,-431.9783C319.6685,-413.2349 331.4108,-383.4135 346,-360 352.0214,-350.3365 359.6932,-340.6099 367.0379,-332.1261"/>
<polygon fill="#c0c0c0" stroke="#c0c0c0" stroke-width="2" points="369.8708,-334.2082 373.9151,-324.4156 364.6468,-329.5488 369.8708,-334.2082"/>
</g>
<!-- 24 -->
<g id="node25" class="node">
<title>24</title>
<path fill="none" stroke="#59d856" stroke-width="2" d="M445,-396C445,-396 367,-396 367,-396 361,-396 355,-390 355,-384 355,-384 355,-372 355,-372 355,-366 361,-360 367,-360 367,-360 445,-360 445,-360 451,-360 457,-366 457,-372 457,-372 457,-384 457,-384 457,-390 451,-396 445,-396"/>
<text text-anchor="middle" x="406" y="-381" font-family="sans" font-size="10.00" fill="#000000">nonpareil_infer</text>
<text text-anchor="middle" x="406" y="-370" font-family="sans" font-size="10.00" fill="#000000">tool: extend/tadpole</text>
</g>
<!-- 15&#45;&gt;24 -->
<g id="edge57" class="edge">
<title>15&#45;&gt;24</title>
<path fill="none" stroke="#c0c0c0" stroke-width="2" d="M331.9819,-431.8314C344.2928,-422.8779 359.3107,-411.9558 372.5937,-402.2955"/>
<polygon fill="#c0c0c0" stroke="#c0c0c0" stroke-width="2" points="374.9973,-404.8752 381.0261,-396.1628 370.8801,-399.214 374.9973,-404.8752"/>
</g>
<!-- 16&#45;&gt;15 -->
<g id="edge46" class="edge">
<title>16&#45;&gt;15</title>
<path fill="none" stroke="#c0c0c0" stroke-width="2" d="M308.4953,-503.8314C308.2814,-496.131 308.0271,-486.9743 307.7894,-478.4166"/>
<polygon fill="#c0c0c0" stroke="#c0c0c0" stroke-width="2" points="311.2879,-478.3122 307.5115,-468.4133 304.2906,-478.5066 311.2879,-478.3122"/>
</g>
<!-- 17 -->
<g id="node18" class="node">
<title>17</title>
<path fill="none" stroke="#56a9d8" stroke-width="2" d="M1067,-324C1067,-324 989,-324 989,-324 983,-324 977,-318 977,-312 977,-312 977,-300 977,-300 977,-294 983,-288 989,-288 989,-288 1067,-288 1067,-288 1073,-288 1079,-294 1079,-300 1079,-300 1079,-312 1079,-312 1079,-318 1073,-324 1067,-324"/>
<text text-anchor="middle" x="1028" y="-309" font-family="sans" font-size="10.00" fill="#000000">seqkit_stats</text>
<text text-anchor="middle" x="1028" y="-298" font-family="sans" font-size="10.00" fill="#000000">tool: extend/tadpole</text>
</g>
<!-- 17&#45;&gt;1 -->
<g id="edge12" class="edge">
<title>17&#45;&gt;1</title>
<path fill="none" stroke="#c0c0c0" stroke-width="2" d="M1000.0391,-287.862C988.446,-278.6621 976.2598,-266.3809 970,-252 950.8649,-208.0399 962.8594,-151.0645 973.0889,-117.7195"/>
<polygon fill="#c0c0c0" stroke="#c0c0c0" stroke-width="2" points="976.4302,-118.7619 976.1705,-108.1703 969.7685,-116.6121 976.4302,-118.7619"/>
</g>
<!-- 18&#45;&gt;17 -->
<g id="edge48" class="edge">
<title>18&#45;&gt;17</title>
<path fill="none" stroke="#c0c0c0" stroke-width="2" d="M1099.5127,-431.8128C1084.0329,-422.9496 1067.3074,-410.942 1056,-396 1042.3361,-377.9441 1035.2629,-353.1123 1031.6476,-334.1051"/>
<polygon fill="#c0c0c0" stroke="#c0c0c0" stroke-width="2" points="1035.0951,-333.5004 1029.975,-324.2249 1028.1933,-334.6688 1035.0951,-333.5004"/>
</g>
<!-- 28 -->
<g id="node29" class="node">
<title>28</title>
<path fill="none" stroke="#59d856" stroke-width="2" d="M1155,-396C1155,-396 1077,-396 1077,-396 1071,-396 1065,-390 1065,-384 1065,-384 1065,-372 1065,-372 1065,-366 1071,-360 1077,-360 1077,-360 1155,-360 1155,-360 1161,-360 1167,-366 1167,-372 1167,-372 1167,-384 1167,-384 1167,-390 1161,-396 1155,-396"/>
<text text-anchor="middle" x="1116" y="-381" font-family="sans" font-size="10.00" fill="#000000">nonpareil_infer</text>
<text text-anchor="middle" x="1116" y="-370" font-family="sans" font-size="10.00" fill="#000000">tool: extend/tadpole</text>
</g>
<!-- 18&#45;&gt;28 -->
<g id="edge61" class="edge">
<title>18&#45;&gt;28</title>
<path fill="none" stroke="#c0c0c0" stroke-width="2" d="M1133.1961,-431.8314C1130.7092,-424.0463 1127.7469,-414.7729 1124.9875,-406.1347"/>
<polygon fill="#c0c0c0" stroke="#c0c0c0" stroke-width="2" points="1128.2591,-404.874 1121.882,-396.4133 1121.591,-407.0041 1128.2591,-404.874"/>
</g>
<!-- 19&#45;&gt;18 -->
<g id="edge50" class="edge">
<title>19&#45;&gt;18</title>
<path fill="none" stroke="#c0c0c0" stroke-width="2" d="M1077.6921,-503.8314C1087.6948,-495.0485 1099.855,-484.3712 1110.6999,-474.8489"/>
<polygon fill="#c0c0c0" stroke="#c0c0c0" stroke-width="2" points="1113.1094,-477.3909 1118.3146,-468.1628 1108.4908,-472.1308 1113.1094,-477.3909"/>
</g>
<!-- 20 -->
<g id="node21" class="node">
<title>20</title>
<path fill="none" stroke="#56a9d8" stroke-width="2" d="M1600,-180C1600,-180 1522,-180 1522,-180 1516,-180 1510,-174 1510,-168 1510,-168 1510,-156 1510,-156 1510,-150 1516,-144 1522,-144 1522,-144 1600,-144 1600,-144 1606,-144 1612,-150 1612,-156 1612,-156 1612,-168 1612,-168 1612,-174 1606,-180 1600,-180"/>
<text text-anchor="middle" x="1561" y="-165" font-family="sans" font-size="10.00" fill="#000000">seqkit_stats</text>
<text text-anchor="middle" x="1561" y="-154" font-family="sans" font-size="10.00" fill="#000000">tool: extend/tadpole</text>
</g>
<!-- 20&#45;&gt;1 -->
<g id="edge13" class="edge">
<title>20&#45;&gt;1</title>
<path fill="none" stroke="#c0c0c0" stroke-width="2" d="M1509.7731,-145.9427C1506.8184,-145.2319 1503.8792,-144.5766 1501,-144 1323.1253,-108.3753 1105.895,-95.4225 1020.2496,-91.486"/>
<polygon fill="#c0c0c0" stroke="#c0c0c0" stroke-width="2" points="1020.3781,-87.9884 1010.2321,-91.0395 1020.0663,-94.9814 1020.3781,-87.9884"/>
</g>
<!-- 21&#45;&gt;20 -->
<g id="edge52" class="edge">
<title>21&#45;&gt;20</title>
<path fill="none" stroke="#c0c0c0" stroke-width="2" d="M1611.6379,-431.8049C1599.7586,-422.5936 1587.0854,-410.319 1580,-396 1546.5303,-328.3606 1551.5364,-236.155 1556.8703,-190.3022"/>
<polygon fill="#c0c0c0" stroke="#c0c0c0" stroke-width="2" points="1560.365,-190.5631 1558.1398,-180.2046 1553.4197,-189.6899 1560.365,-190.5631"/>
</g>
<!-- 26 -->
<g id="node27" class="node">
<title>26</title>
<path fill="none" stroke="#59d856" stroke-width="2" d="M1679,-396C1679,-396 1601,-396 1601,-396 1595,-396 1589,-390 1589,-384 1589,-384 1589,-372 1589,-372 1589,-366 1595,-360 1601,-360 1601,-360 1679,-360 1679,-360 1685,-360 1691,-366 1691,-372 1691,-372 1691,-384 1691,-384 1691,-390 1685,-396 1679,-396"/>
<text text-anchor="middle" x="1640" y="-381" font-family="sans" font-size="10.00" fill="#000000">nonpareil_infer</text>
<text text-anchor="middle" x="1640" y="-370" font-family="sans" font-size="10.00" fill="#000000">tool: extend/tadpole</text>
</g>
<!-- 21&#45;&gt;26 -->
<g id="edge59" class="edge">
<title>21&#45;&gt;26</title>
<path fill="none" stroke="#c0c0c0" stroke-width="2" d="M1640,-431.8314C1640,-424.131 1640,-414.9743 1640,-406.4166"/>
<polygon fill="#c0c0c0" stroke="#c0c0c0" stroke-width="2" points="1643.5001,-406.4132 1640,-396.4133 1636.5001,-406.4133 1643.5001,-406.4132"/>
</g>
<!-- 22&#45;&gt;21 -->
<g id="edge54" class="edge">
<title>22&#45;&gt;21</title>
<path fill="none" stroke="#c0c0c0" stroke-width="2" d="M1639.2523,-503.8314C1639.3593,-496.131 1639.4865,-486.9743 1639.6053,-478.4166"/>
<polygon fill="#c0c0c0" stroke="#c0c0c0" stroke-width="2" points="1643.1049,-478.4609 1639.7443,-468.4133 1636.1056,-478.3637 1643.1049,-478.4609"/>
</g>
<!-- 23 -->
<g id="node24" class="node">
<title>23</title>
<path fill="none" stroke="#56d882" stroke-width="2" d="M526.5,-324C526.5,-324 473.5,-324 473.5,-324 467.5,-324 461.5,-318 461.5,-312 461.5,-312 461.5,-300 461.5,-300 461.5,-294 467.5,-288 473.5,-288 473.5,-288 526.5,-288 526.5,-288 532.5,-288 538.5,-294 538.5,-300 538.5,-300 538.5,-312 538.5,-312 538.5,-318 532.5,-324 526.5,-324"/>
<text text-anchor="middle" x="500" y="-303.5" font-family="sans" font-size="10.00" fill="#000000">nonpareil_plot</text>
</g>
<!-- 23&#45;&gt;1 -->
<g id="edge14" class="edge">
<title>23&#45;&gt;1</title>
<path fill="none" stroke="#c0c0c0" stroke-width="2" d="M500.0452,-287.9989C501.1923,-253.9648 508.9439,-180.344 553,-144 583.0992,-119.1697 846.7631,-99.1231 945.7048,-92.4115"/>
<polygon fill="#c0c0c0" stroke="#c0c0c0" stroke-width="2" points="946.1016,-95.8928 955.8449,-91.7313 945.633,-88.9085 946.1016,-95.8928"/>
</g>
<!-- 24&#45;&gt;23 -->
<g id="edge56" class="edge">
<title>24&#45;&gt;23</title>
<path fill="none" stroke="#c0c0c0" stroke-width="2" d="M429.7202,-359.8314C441.4094,-350.8779 455.6688,-339.9558 468.2809,-330.2955"/>
<polygon fill="#c0c0c0" stroke="#c0c0c0" stroke-width="2" points="470.4769,-333.0222 476.2874,-324.1628 466.2203,-327.4651 470.4769,-333.0222"/>
</g>
<!-- 25 -->
<g id="node26" class="node">
<title>25</title>
<path fill="none" stroke="#56d882" stroke-width="2" d="M1695.5,-180C1695.5,-180 1642.5,-180 1642.5,-180 1636.5,-180 1630.5,-174 1630.5,-168 1630.5,-168 1630.5,-156 1630.5,-156 1630.5,-150 1636.5,-144 1642.5,-144 1642.5,-144 1695.5,-144 1695.5,-144 1701.5,-144 1707.5,-150 1707.5,-156 1707.5,-156 1707.5,-168 1707.5,-168 1707.5,-174 1701.5,-180 1695.5,-180"/>
<text text-anchor="middle" x="1669" y="-159.5" font-family="sans" font-size="10.00" fill="#000000">nonpareil_plot</text>
</g>
<!-- 25&#45;&gt;1 -->
<g id="edge15" class="edge">
<title>25&#45;&gt;1</title>
<path fill="none" stroke="#c0c0c0" stroke-width="2" d="M1630.2404,-146.4481C1627.1439,-145.5186 1624.0388,-144.6847 1621,-144 1505.2089,-117.9117 1138.6278,-97.7712 1020.2511,-91.8096"/>
<polygon fill="#c0c0c0" stroke="#c0c0c0" stroke-width="2" points="1020.3871,-88.3122 1010.2249,-91.3088 1020.0378,-95.3035 1020.3871,-88.3122"/>
</g>
<!-- 26&#45;&gt;25 -->
<g id="edge58" class="edge">
<title>26&#45;&gt;25</title>
<path fill="none" stroke="#c0c0c0" stroke-width="2" d="M1642.4226,-359.9555C1647.4763,-322.3144 1659.174,-235.1867 1665.224,-190.1246"/>
<polygon fill="#c0c0c0" stroke="#c0c0c0" stroke-width="2" points="1668.702,-190.5219 1666.5639,-180.1451 1661.7642,-189.5904 1668.702,-190.5219"/>
</g>
<!-- 27 -->
<g id="node28" class="node">
<title>27</title>
<path fill="none" stroke="#56d882" stroke-width="2" d="M1043.5,-252C1043.5,-252 990.5,-252 990.5,-252 984.5,-252 978.5,-246 978.5,-240 978.5,-240 978.5,-228 978.5,-228 978.5,-222 984.5,-216 990.5,-216 990.5,-216 1043.5,-216 1043.5,-216 1049.5,-216 1055.5,-222 1055.5,-228 1055.5,-228 1055.5,-240 1055.5,-240 1055.5,-246 1049.5,-252 1043.5,-252"/>
<text text-anchor="middle" x="1017" y="-231.5" font-family="sans" font-size="10.00" fill="#000000">nonpareil_plot</text>
</g>
<!-- 27&#45;&gt;1 -->
<g id="edge16" class="edge">
<title>27&#45;&gt;1</title>
<path fill="none" stroke="#c0c0c0" stroke-width="2" d="M1012.0449,-215.5457C1009.2914,-205.1311 1005.8553,-191.8643 1003,-180 998.0454,-159.4128 992.8706,-136.0687 989.0263,-118.3149"/>
<polygon fill="#c0c0c0" stroke="#c0c0c0" stroke-width="2" points="992.3997,-117.3542 986.8734,-108.3148 985.5565,-118.8274 992.3997,-117.3542"/>
</g>
<!-- 28&#45;&gt;27 -->
<g id="edge60" class="edge">
<title>28&#45;&gt;27</title>
<path fill="none" stroke="#c0c0c0" stroke-width="2" d="M1113.7164,-359.9998C1110.5584,-340.7339 1103.3978,-309.9796 1088,-288 1079.928,-276.4776 1068.6442,-266.3329 1057.4445,-258.0391"/>
<polygon fill="#c0c0c0" stroke="#c0c0c0" stroke-width="2" points="1059.1441,-254.9555 1048.9511,-252.0654 1055.1171,-260.6812 1059.1441,-254.9555"/>
</g>
<!-- 29 -->
<g id="node30" class="node">
<title>29</title>
<path fill="none" stroke="#56a9d8" stroke-width="2" d="M616,-468C616,-468 570,-468 570,-468 564,-468 558,-462 558,-456 558,-456 558,-444 558,-444 558,-438 564,-432 570,-432 570,-432 616,-432 616,-432 622,-432 628,-438 628,-444 628,-444 628,-456 628,-456 628,-462 622,-468 616,-468"/>
<text text-anchor="middle" x="593" y="-453" font-family="sans" font-size="10.00" fill="#000000">seqkit_stats</text>
<text text-anchor="middle" x="593" y="-442" font-family="sans" font-size="10.00" fill="#000000">tool: derep</text>
</g>
<!-- 29&#45;&gt;1 -->
<g id="edge17" class="edge">
<title>29&#45;&gt;1</title>
<path fill="none" stroke="#c0c0c0" stroke-width="2" d="M595.4864,-431.855C599.0013,-404.5902 605,-351.4068 605,-306 605,-306 605,-306 605,-234 605,-192.6022 598.1731,-171.6311 629,-144 675.1882,-102.6001 864.4468,-92.9312 945.6796,-90.6801"/>
<polygon fill="#c0c0c0" stroke="#c0c0c0" stroke-width="2" points="946.0372,-94.1722 955.9451,-90.4195 945.8595,-87.1745 946.0372,-94.1722"/>
</g>
<!-- 30&#45;&gt;29 -->
<g id="edge62" class="edge">
<title>30&#45;&gt;29</title>
<path fill="none" stroke="#c0c0c0" stroke-width="2" d="M495.1231,-506.3771C511.9835,-496.6655 533.9655,-484.0039 552.825,-473.1408"/>
<polygon fill="#c0c0c0" stroke="#c0c0c0" stroke-width="2" points="554.5994,-476.1579 561.5178,-468.1338 551.1055,-470.0922 554.5994,-476.1579"/>
</g>
<!-- 38 -->
<g id="node39" class="node">
<title>38</title>
<path fill="none" stroke="#59d856" stroke-width="2" d="M528,-468C528,-468 472,-468 472,-468 466,-468 460,-462 460,-456 460,-456 460,-444 460,-444 460,-438 466,-432 472,-432 472,-432 528,-432 528,-432 534,-432 540,-438 540,-444 540,-444 540,-456 540,-456 540,-462 534,-468 528,-468"/>
<text text-anchor="middle" x="500" y="-453" font-family="sans" font-size="10.00" fill="#000000">nonpareil_infer</text>
<text text-anchor="middle" x="500" y="-442" font-family="sans" font-size="10.00" fill="#000000">tool: derep</text>
</g>
<!-- 30&#45;&gt;38 -->
<g id="edge71" class="edge">
<title>30&#45;&gt;38</title>
<path fill="none" stroke="#c0c0c0" stroke-width="2" d="M476.075,-503.8314C479.6102,-495.8771 483.836,-486.369 487.7456,-477.5723"/>
<polygon fill="#c0c0c0" stroke="#c0c0c0" stroke-width="2" points="490.9532,-478.9729 491.8163,-468.4133 484.5565,-476.1299 490.9532,-478.9729"/>
</g>
<!-- 43 -->
<g id="node44" class="node">
<title>43</title>
<path fill="none" stroke="#56d8a9" stroke-width="2" d="M429.5,-468C429.5,-468 378.5,-468 378.5,-468 372.5,-468 366.5,-462 366.5,-456 366.5,-456 366.5,-444 366.5,-444 366.5,-438 372.5,-432 378.5,-432 378.5,-432 429.5,-432 429.5,-432 435.5,-432 441.5,-438 441.5,-444 441.5,-444 441.5,-456 441.5,-456 441.5,-462 435.5,-468 429.5,-468"/>
<text text-anchor="middle" x="404" y="-447.5" font-family="sans" font-size="10.00" fill="#000000">seqkit_fx2tab</text>
</g>
<!-- 30&#45;&gt;43 -->
<g id="edge77" class="edge">
<title>30&#45;&gt;43</title>
<path fill="none" stroke="#c0c0c0" stroke-width="2" d="M451.8501,-503.8314C444.3283,-495.3694 435.2435,-485.1489 427.0196,-475.8971"/>
<polygon fill="#c0c0c0" stroke="#c0c0c0" stroke-width="2" points="429.627,-473.5621 420.3673,-468.4133 424.3951,-478.2127 429.627,-473.5621"/>
</g>
<!-- 31 -->
<g id="node32" class="node">
<title>31</title>
<path fill="none" stroke="#56a9d8" stroke-width="2" d="M1784,-180C1784,-180 1738,-180 1738,-180 1732,-180 1726,-174 1726,-168 1726,-168 1726,-156 1726,-156 1726,-150 1732,-144 1738,-144 1738,-144 1784,-144 1784,-144 1790,-144 1796,-150 1796,-156 1796,-156 1796,-168 1796,-168 1796,-174 1790,-180 1784,-180"/>
<text text-anchor="middle" x="1761" y="-165" font-family="sans" font-size="10.00" fill="#000000">seqkit_stats</text>
<text text-anchor="middle" x="1761" y="-154" font-family="sans" font-size="10.00" fill="#000000">tool: derep</text>
</g>
<!-- 31&#45;&gt;1 -->
<g id="edge18" class="edge">
<title>31&#45;&gt;1</title>
<path fill="none" stroke="#c0c0c0" stroke-width="2" d="M1725.7739,-146.4742C1722.8414,-145.5246 1719.8924,-144.6799 1717,-144 1582.406,-112.361 1150.8171,-95.6241 1020.5663,-91.2046"/>
<polygon fill="#c0c0c0" stroke="#c0c0c0" stroke-width="2" points="1020.4206,-87.6979 1010.309,-90.861 1020.1862,-94.6939 1020.4206,-87.6979"/>
</g>
<!-- 32&#45;&gt;31 -->
<g id="edge64" class="edge">
<title>32&#45;&gt;31</title>
<path fill="none" stroke="#c0c0c0" stroke-width="2" d="M1756.0096,-503.6709C1749.8386,-493.5161 1742.6546,-480.4574 1738,-468 1723.6912,-429.7042 1719,-418.8816 1719,-378 1719,-378 1719,-378 1719,-306 1719,-264.0688 1735.6152,-217.918 1747.9448,-189.4435"/>
<polygon fill="#c0c0c0" stroke="#c0c0c0" stroke-width="2" points="1751.2152,-190.7032 1752.0929,-180.1447 1744.8225,-187.8513 1751.2152,-190.7032"/>
</g>
<!-- 40 -->
<g id="node41" class="node">
<title>40</title>
<path fill="none" stroke="#59d856" stroke-width="2" d="M1815,-468C1815,-468 1759,-468 1759,-468 1753,-468 1747,-462 1747,-456 1747,-456 1747,-444 1747,-444 1747,-438 1753,-432 1759,-432 1759,-432 1815,-432 1815,-432 1821,-432 1827,-438 1827,-444 1827,-444 1827,-456 1827,-456 1827,-462 1821,-468 1815,-468"/>
<text text-anchor="middle" x="1787" y="-453" font-family="sans" font-size="10.00" fill="#000000">nonpareil_infer</text>
<text text-anchor="middle" x="1787" y="-442" font-family="sans" font-size="10.00" fill="#000000">tool: derep</text>
</g>
<!-- 32&#45;&gt;40 -->
<g id="edge73" class="edge">
<title>32&#45;&gt;40</title>
<path fill="none" stroke="#c0c0c0" stroke-width="2" d="M1772.7945,-503.8314C1774.8489,-496.0463 1777.296,-486.7729 1779.5756,-478.1347"/>
<polygon fill="#c0c0c0" stroke="#c0c0c0" stroke-width="2" points="1782.9735,-478.9753 1782.1409,-468.4133 1776.2052,-477.1892 1782.9735,-478.9753"/>
</g>
<!-- 49 -->
<g id="node50" class="node">
<title>49</title>
<path fill="none" stroke="#56d8a9" stroke-width="2" d="M1908.5,-468C1908.5,-468 1857.5,-468 1857.5,-468 1851.5,-468 1845.5,-462 1845.5,-456 1845.5,-456 1845.5,-444 1845.5,-444 1845.5,-438 1851.5,-432 1857.5,-432 1857.5,-432 1908.5,-432 1908.5,-432 1914.5,-432 1920.5,-438 1920.5,-444 1920.5,-444 1920.5,-456 1920.5,-456 1920.5,-462 1914.5,-468 1908.5,-468"/>
<text text-anchor="middle" x="1883" y="-447.5" font-family="sans" font-size="10.00" fill="#000000">seqkit_fx2tab</text>
</g>
<!-- 32&#45;&gt;49 -->
<g id="edge85" class="edge">
<title>32&#45;&gt;49</title>
<path fill="none" stroke="#c0c0c0" stroke-width="2" d="M1795.2534,-504.937C1810.1605,-495.6038 1828.8594,-483.8967 1845.1612,-473.6904"/>
<polygon fill="#c0c0c0" stroke="#c0c0c0" stroke-width="2" points="1847.3134,-476.4724 1853.9319,-468.1992 1843.5987,-470.5393 1847.3134,-476.4724"/>
</g>
<!-- 33 -->
<g id="node34" class="node">
<title>33</title>
<path fill="none" stroke="#56a9d8" stroke-width="2" d="M997,-396C997,-396 951,-396 951,-396 945,-396 939,-390 939,-384 939,-384 939,-372 939,-372 939,-366 945,-360 951,-360 951,-360 997,-360 997,-360 1003,-360 1009,-366 1009,-372 1009,-372 1009,-384 1009,-384 1009,-390 1003,-396 997,-396"/>
<text text-anchor="middle" x="974" y="-381" font-family="sans" font-size="10.00" fill="#000000">seqkit_stats</text>
<text text-anchor="middle" x="974" y="-370" font-family="sans" font-size="10.00" fill="#000000">tool: derep</text>
</g>
<!-- 33&#45;&gt;1 -->
<g id="edge19" class="edge">
<title>33&#45;&gt;1</title>
<path fill="none" stroke="#c0c0c0" stroke-width="2" d="M968.8713,-359.801C958.4747,-320.0483 937.4178,-222.7153 956,-144 958.1696,-134.8094 962.1562,-125.3995 966.4121,-117.0631"/>
<polygon fill="#c0c0c0" stroke="#c0c0c0" stroke-width="2" points="969.5427,-118.6324 971.2492,-108.1759 963.3944,-115.286 969.5427,-118.6324"/>
</g>
<!-- 34&#45;&gt;33 -->
<g id="edge66" class="edge">
<title>34&#45;&gt;33</title>
<path fill="none" stroke="#c0c0c0" stroke-width="2" d="M979.2401,-503.7623C978.2167,-479.201 976.3853,-435.2474 975.1814,-406.3541"/>
<polygon fill="#c0c0c0" stroke="#c0c0c0" stroke-width="2" points="978.6671,-405.9352 974.7537,-396.0896 971.6732,-406.2267 978.6671,-405.9352"/>
</g>
<!-- 36 -->
<g id="node37" class="node">
<title>36</title>
<path fill="none" stroke="#59d856" stroke-width="2" d="M936,-468C936,-468 880,-468 880,-468 874,-468 868,-462 868,-456 868,-456 868,-444 868,-444 868,-438 874,-432 880,-432 880,-432 936,-432 936,-432 942,-432 948,-438 948,-444 948,-444 948,-456 948,-456 948,-462 942,-468 936,-468"/>
<text text-anchor="middle" x="908" y="-453" font-family="sans" font-size="10.00" fill="#000000">nonpareil_infer</text>
<text text-anchor="middle" x="908" y="-442" font-family="sans" font-size="10.00" fill="#000000">tool: derep</text>
</g>
<!-- 34&#45;&gt;36 -->
<g id="edge69" class="edge">
<title>34&#45;&gt;36</title>
<path fill="none" stroke="#c0c0c0" stroke-width="2" d="M961.8314,-503.8314C953.2848,-495.2848 942.9443,-484.9443 933.6198,-475.6198"/>
<polygon fill="#c0c0c0" stroke="#c0c0c0" stroke-width="2" points="935.9592,-473.0095 926.4133,-468.4133 931.0095,-477.9592 935.9592,-473.0095"/>
</g>
<!-- 46 -->
<g id="node47" class="node">
<title>46</title>
<path fill="none" stroke="#56d8a9" stroke-width="2" d="M1067.5,-468C1067.5,-468 1016.5,-468 1016.5,-468 1010.5,-468 1004.5,-462 1004.5,-456 1004.5,-456 1004.5,-444 1004.5,-444 1004.5,-438 1010.5,-432 1016.5,-432 1016.5,-432 1067.5,-432 1067.5,-432 1073.5,-432 1079.5,-438 1079.5,-444 1079.5,-444 1079.5,-456 1079.5,-456 1079.5,-462 1073.5,-468 1067.5,-468"/>
<text text-anchor="middle" x="1042" y="-447.5" font-family="sans" font-size="10.00" fill="#000000">seqkit_fx2tab</text>
</g>
<!-- 34&#45;&gt;46 -->
<g id="edge81" class="edge">
<title>34&#45;&gt;46</title>
<path fill="none" stroke="#c0c0c0" stroke-width="2" d="M995.6452,-503.8314C1002.8591,-495.454 1011.557,-485.3531 1019.4605,-476.1749"/>
<polygon fill="#c0c0c0" stroke="#c0c0c0" stroke-width="2" points="1022.2711,-478.2748 1026.1441,-468.4133 1016.9667,-473.7071 1022.2711,-478.2748"/>
</g>
<!-- 35 -->
<g id="node36" class="node">
<title>35</title>
<path fill="none" stroke="#56d882" stroke-width="2" d="M908.5,-324C908.5,-324 855.5,-324 855.5,-324 849.5,-324 843.5,-318 843.5,-312 843.5,-312 843.5,-300 843.5,-300 843.5,-294 849.5,-288 855.5,-288 855.5,-288 908.5,-288 908.5,-288 914.5,-288 920.5,-294 920.5,-300 920.5,-300 920.5,-312 920.5,-312 920.5,-318 914.5,-324 908.5,-324"/>
<text text-anchor="middle" x="882" y="-303.5" font-family="sans" font-size="10.00" fill="#000000">nonpareil_plot</text>
</g>
<!-- 35&#45;&gt;1 -->
<g id="edge20" class="edge">
<title>35&#45;&gt;1</title>
<path fill="none" stroke="#c0c0c0" stroke-width="2" d="M878.152,-287.8578C872.4493,-256.0881 865.1934,-189.4468 893,-144 905.0406,-124.3209 927.1852,-110.8988 946.4945,-102.3582"/>
<polygon fill="#c0c0c0" stroke="#c0c0c0" stroke-width="2" points="948.0704,-105.4941 955.9761,-98.4408 945.3974,-99.0246 948.0704,-105.4941"/>
</g>
<!-- 36&#45;&gt;35 -->
<g id="edge68" class="edge">
<title>36&#45;&gt;35</title>
<path fill="none" stroke="#c0c0c0" stroke-width="2" d="M904.7901,-431.7216C901.5866,-413.533 896.5057,-384.8278 892,-360 890.4917,-351.6889 888.8297,-342.6629 887.3011,-334.4123"/>
<polygon fill="#c0c0c0" stroke="#c0c0c0" stroke-width="2" points="890.7252,-333.681 885.4577,-324.4884 883.8429,-334.9594 890.7252,-333.681"/>
</g>
<!-- 37 -->
<g id="node38" class="node">
<title>37</title>
<path fill="none" stroke="#56d882" stroke-width="2" d="M556.5,-396C556.5,-396 503.5,-396 503.5,-396 497.5,-396 491.5,-390 491.5,-384 491.5,-384 491.5,-372 491.5,-372 491.5,-366 497.5,-360 503.5,-360 503.5,-360 556.5,-360 556.5,-360 562.5,-360 568.5,-366 568.5,-372 568.5,-372 568.5,-384 568.5,-384 568.5,-390 562.5,-396 556.5,-396"/>
<text text-anchor="middle" x="530" y="-375.5" font-family="sans" font-size="10.00" fill="#000000">nonpareil_plot</text>
</g>
<!-- 37&#45;&gt;1 -->
<g id="edge21" class="edge">
<title>37&#45;&gt;1</title>
<path fill="none" stroke="#c0c0c0" stroke-width="2" d="M536.5663,-359.6298C540.1676,-349.2415 544.5814,-335.973 548,-324 570.5821,-244.9096 530.0719,-199.2539 591,-144 617.0927,-120.3373 852.9818,-99.9297 945.7608,-92.7494"/>
<polygon fill="#c0c0c0" stroke="#c0c0c0" stroke-width="2" points="946.1262,-96.2318 955.8299,-91.9788 945.5919,-89.2522 946.1262,-96.2318"/>
</g>
<!-- 38&#45;&gt;37 -->
<g id="edge70" class="edge">
<title>38&#45;&gt;37</title>
<path fill="none" stroke="#c0c0c0" stroke-width="2" d="M507.5703,-431.8314C510.8493,-423.9617 514.762,-414.5712 518.3945,-405.8533"/>
<polygon fill="#c0c0c0" stroke="#c0c0c0" stroke-width="2" points="521.7124,-406.9902 522.3278,-396.4133 515.2508,-404.2979 521.7124,-406.9902"/>
</g>
<!-- 39 -->
<g id="node40" class="node">
<title>39</title>
<path fill="none" stroke="#56d882" stroke-width="2" d="M1879.5,-180C1879.5,-180 1826.5,-180 1826.5,-180 1820.5,-180 1814.5,-174 1814.5,-168 1814.5,-168 1814.5,-156 1814.5,-156 1814.5,-150 1820.5,-144 1826.5,-144 1826.5,-144 1879.5,-144 1879.5,-144 1885.5,-144 1891.5,-150 1891.5,-156 1891.5,-156 1891.5,-168 1891.5,-168 1891.5,-174 1885.5,-180 1879.5,-180"/>
<text text-anchor="middle" x="1853" y="-159.5" font-family="sans" font-size="10.00" fill="#000000">nonpareil_plot</text>
</g>
<!-- 39&#45;&gt;1 -->
<g id="edge22" class="edge">
<title>39&#45;&gt;1</title>
<path fill="none" stroke="#c0c0c0" stroke-width="2" d="M1814.2545,-146.384C1811.1548,-145.4691 1808.0451,-144.656 1805,-144 1652.0496,-111.0502 1160.0863,-94.9775 1020.3383,-91.0021"/>
<polygon fill="#c0c0c0" stroke="#c0c0c0" stroke-width="2" points="1020.2399,-87.498 1010.1455,-90.7159 1020.0434,-94.4953 1020.2399,-87.498"/>
</g>
<!-- 40&#45;&gt;39 -->
<g id="edge72" class="edge">
<title>40&#45;&gt;39</title>
<path fill="none" stroke="#c0c0c0" stroke-width="2" d="M1784.914,-431.8062C1781.0236,-391.2435 1775.6676,-291.0657 1807,-216 1811.242,-205.8371 1818.1331,-196.1854 1825.3051,-187.9277"/>
<polygon fill="#c0c0c0" stroke="#c0c0c0" stroke-width="2" points="1827.9806,-190.1893 1832.19,-180.4666 1822.8362,-185.4422 1827.9806,-190.1893"/>
</g>
<!-- 41 -->
<g id="node42" class="node">
<title>41</title>
<path fill="none" stroke="#56a9d8" stroke-width="2" d="M310.5,-324C310.5,-324 233.5,-324 233.5,-324 227.5,-324 221.5,-318 221.5,-312 221.5,-312 221.5,-300 221.5,-300 221.5,-294 227.5,-288 233.5,-288 233.5,-288 310.5,-288 310.5,-288 316.5,-288 322.5,-294 322.5,-300 322.5,-300 322.5,-312 322.5,-312 322.5,-318 316.5,-324 310.5,-324"/>
<text text-anchor="middle" x="272" y="-309" font-family="sans" font-size="10.00" fill="#000000">seqkit_stats</text>
<text text-anchor="middle" x="272" y="-298" font-family="sans" font-size="10.00" fill="#000000">tool: represent/grep</text>
</g>
<!-- 41&#45;&gt;1 -->
<g id="edge23" class="edge">
<title>41&#45;&gt;1</title>
<path fill="none" stroke="#c0c0c0" stroke-width="2" d="M322.6926,-290.1878C364.3054,-276.8859 417.6901,-258.9561 426,-252 468.2717,-216.6148 440.9652,-174.3284 487,-144 525.1074,-118.8943 836.5744,-98.5301 945.5335,-92.1132"/>
<polygon fill="#c0c0c0" stroke="#c0c0c0" stroke-width="2" points="945.9478,-95.5951 955.7272,-91.5189 945.5404,-88.607 945.9478,-95.5951"/>
</g>
<!-- 42&#45;&gt;41 -->
<g id="edge74" class="edge">
<title>42&#45;&gt;41</title>
<path fill="none" stroke="#c0c0c0" stroke-width="2" d="M245.832,-359.8314C249.6986,-351.8771 254.3206,-342.369 258.5968,-333.5723"/>
<polygon fill="#c0c0c0" stroke="#c0c0c0" stroke-width="2" points="261.8249,-334.9371 263.0491,-324.4133 255.5293,-331.8768 261.8249,-334.9371"/>
</g>
<!-- 51 -->
<g id="node52" class="node">
<title>51</title>
<path fill="none" stroke="#59d856" stroke-width="2" d="M191.5,-324C191.5,-324 114.5,-324 114.5,-324 108.5,-324 102.5,-318 102.5,-312 102.5,-312 102.5,-300 102.5,-300 102.5,-294 108.5,-288 114.5,-288 114.5,-288 191.5,-288 191.5,-288 197.5,-288 203.5,-294 203.5,-300 203.5,-300 203.5,-312 203.5,-312 203.5,-318 197.5,-324 191.5,-324"/>
<text text-anchor="middle" x="153" y="-309" font-family="sans" font-size="10.00" fill="#000000">nonpareil_infer</text>
<text text-anchor="middle" x="153" y="-298" font-family="sans" font-size="10.00" fill="#000000">tool: represent/grep</text>
</g>
<!-- 42&#45;&gt;51 -->
<g id="edge87" class="edge">
<title>42&#45;&gt;51</title>
<path fill="none" stroke="#c0c0c0" stroke-width="2" d="M215.8033,-359.8314C205.5566,-351.0485 193.0997,-340.3712 181.9903,-330.8489"/>
<polygon fill="#c0c0c0" stroke="#c0c0c0" stroke-width="2" points="184.0603,-328.0134 174.19,-324.1628 179.5048,-333.3282 184.0603,-328.0134"/>
</g>
<!-- 59 -->
<g id="node60" class="node">
<title>59</title>
<path fill="none" stroke="#d6d856" stroke-width="2" d="M72,-324C72,-324 12,-324 12,-324 6,-324 0,-318 0,-312 0,-312 0,-300 0,-300 0,-294 6,-288 12,-288 12,-288 72,-288 72,-288 78,-288 84,-294 84,-300 84,-300 84,-312 84,-312 84,-318 78,-324 72,-324"/>
<text text-anchor="middle" x="42" y="-303.5" font-family="sans" font-size="10.00" fill="#000000">low_complexity</text>
</g>
<!-- 42&#45;&gt;59 -->
<g id="edge95" class="edge">
<title>42&#45;&gt;59</title>
<path fill="none" stroke="#c0c0c0" stroke-width="2" d="M203.4783,-365.6228C173.3191,-354.4871 128.5375,-337.9523 93.7781,-325.1181"/>
<polygon fill="#c0c0c0" stroke="#c0c0c0" stroke-width="2" points="94.8538,-321.7843 84.2605,-321.6039 92.4291,-328.351 94.8538,-321.7843"/>
</g>
<!-- 43&#45;&gt;42 -->
<g id="edge76" class="edge">
<title>43&#45;&gt;42</title>
<path fill="none" stroke="#c0c0c0" stroke-width="2" d="M366.1051,-433.6621C340.4782,-422.6134 306.584,-408.0003 279.9549,-396.5195"/>
<polygon fill="#c0c0c0" stroke="#c0c0c0" stroke-width="2" points="281.0702,-393.1889 270.5016,-392.4438 278.2988,-399.617 281.0702,-393.1889"/>
</g>
<!-- 44 -->
<g id="node45" class="node">
<title>44</title>
<path fill="none" stroke="#56a9d8" stroke-width="2" d="M1100.5,-180C1100.5,-180 1023.5,-180 1023.5,-180 1017.5,-180 1011.5,-174 1011.5,-168 1011.5,-168 1011.5,-156 1011.5,-156 1011.5,-150 1017.5,-144 1023.5,-144 1023.5,-144 1100.5,-144 1100.5,-144 1106.5,-144 1112.5,-150 1112.5,-156 1112.5,-156 1112.5,-168 1112.5,-168 1112.5,-174 1106.5,-180 1100.5,-180"/>
<text text-anchor="middle" x="1062" y="-165" font-family="sans" font-size="10.00" fill="#000000">seqkit_stats</text>
<text text-anchor="middle" x="1062" y="-154" font-family="sans" font-size="10.00" fill="#000000">tool: represent/grep</text>
</g>
<!-- 44&#45;&gt;1 -->
<g id="edge24" class="edge">
<title>44&#45;&gt;1</title>
<path fill="none" stroke="#c0c0c0" stroke-width="2" d="M1042.065,-143.8314C1032.5217,-135.1337 1020.9401,-124.5783 1010.5694,-115.1265"/>
<polygon fill="#c0c0c0" stroke="#c0c0c0" stroke-width="2" points="1012.6772,-112.3121 1002.9287,-108.1628 1007.962,-117.4857 1012.6772,-112.3121"/>
</g>
<!-- 45&#45;&gt;44 -->
<g id="edge78" class="edge">
<title>45&#45;&gt;44</title>
<path fill="none" stroke="#c0c0c0" stroke-width="2" d="M1199.8534,-359.6692C1176.0795,-336.2344 1135.2224,-293.6854 1107,-252 1093.5511,-232.1356 1081.5824,-207.6861 1073.3756,-189.286"/>
<polygon fill="#c0c0c0" stroke="#c0c0c0" stroke-width="2" points="1076.5365,-187.7783 1069.3285,-180.0132 1070.1209,-190.5784 1076.5365,-187.7783"/>
</g>
<!-- 53 -->
<g id="node54" class="node">
<title>53</title>
<path fill="none" stroke="#59d856" stroke-width="2" d="M1414.5,-324C1414.5,-324 1337.5,-324 1337.5,-324 1331.5,-324 1325.5,-318 1325.5,-312 1325.5,-312 1325.5,-300 1325.5,-300 1325.5,-294 1331.5,-288 1337.5,-288 1337.5,-288 1414.5,-288 1414.5,-288 1420.5,-288 1426.5,-294 1426.5,-300 1426.5,-300 1426.5,-312 1426.5,-312 1426.5,-318 1420.5,-324 1414.5,-324"/>
<text text-anchor="middle" x="1376" y="-309" font-family="sans" font-size="10.00" fill="#000000">nonpareil_infer</text>
<text text-anchor="middle" x="1376" y="-298" font-family="sans" font-size="10.00" fill="#000000">tool: represent/grep</text>
</g>
<!-- 45&#45;&gt;53 -->
<g id="edge89" class="edge">
<title>45&#45;&gt;53</title>
<path fill="none" stroke="#c0c0c0" stroke-width="2" d="M1252.6804,-362.5542C1274.3955,-352.5957 1302.9918,-339.4814 1327.1796,-328.389"/>
<polygon fill="#c0c0c0" stroke="#c0c0c0" stroke-width="2" points="1328.9218,-331.4406 1336.5525,-324.0906 1326.0037,-325.0778 1328.9218,-331.4406"/>
</g>
<!-- 57 -->
<g id="node58" class="node">
<title>57</title>
<path fill="none" stroke="#d6d856" stroke-width="2" d="M1265,-324C1265,-324 1205,-324 1205,-324 1199,-324 1193,-318 1193,-312 1193,-312 1193,-300 1193,-300 1193,-294 1199,-288 1205,-288 1205,-288 1265,-288 1265,-288 1271,-288 1277,-294 1277,-300 1277,-300 1277,-312 1277,-312 1277,-318 1271,-324 1265,-324"/>
<text text-anchor="middle" x="1235" y="-303.5" font-family="sans" font-size="10.00" fill="#000000">low_complexity</text>
</g>
<!-- 45&#45;&gt;57 -->
<g id="edge93" class="edge">
<title>45&#45;&gt;57</title>
<path fill="none" stroke="#c0c0c0" stroke-width="2" d="M1223.0375,-359.8314C1224.7487,-352.131 1226.7835,-342.9743 1228.6852,-334.4166"/>
<polygon fill="#c0c0c0" stroke="#c0c0c0" stroke-width="2" points="1232.1554,-334.9344 1230.9082,-324.4133 1225.3221,-333.4159 1232.1554,-334.9344"/>
</g>
<!-- 46&#45;&gt;45 -->
<g id="edge80" class="edge">
<title>46&#45;&gt;45</title>
<path fill="none" stroke="#c0c0c0" stroke-width="2" d="M1079.5985,-435.0042C1104.3876,-425.0822 1137.7948,-411.6451 1175.5318,-396.1695"/>
<polygon fill="#c0c0c0" stroke="#c0c0c0" stroke-width="2" points="1177.296,-399.2286 1185.2166,-392.192 1174.6367,-392.7535 1177.296,-399.2286"/>
</g>
<!-- 47 -->
<g id="node48" class="node">
<title>47</title>
<path fill="none" stroke="#56a9d8" stroke-width="2" d="M1904.5,-252C1904.5,-252 1827.5,-252 1827.5,-252 1821.5,-252 1815.5,-246 1815.5,-240 1815.5,-240 1815.5,-228 1815.5,-228 1815.5,-222 1821.5,-216 1827.5,-216 1827.5,-216 1904.5,-216 1904.5,-216 1910.5,-216 1916.5,-222 1916.5,-228 1916.5,-228 1916.5,-240 1916.5,-240 1916.5,-246 1910.5,-252 1904.5,-252"/>
<text text-anchor="middle" x="1866" y="-237" font-family="sans" font-size="10.00" fill="#000000">seqkit_stats</text>
<text text-anchor="middle" x="1866" y="-226" font-family="sans" font-size="10.00" fill="#000000">tool: represent/grep</text>
</g>
<!-- 47&#45;&gt;1 -->
<g id="edge25" class="edge">
<title>47&#45;&gt;1</title>
<path fill="none" stroke="#c0c0c0" stroke-width="2" d="M1883.0151,-215.9581C1899.7076,-196.0794 1920.0921,-164.2482 1901,-144 1870.3067,-111.4481 1189.3242,-94.4962 1020.5733,-90.7862"/>
<polygon fill="#c0c0c0" stroke="#c0c0c0" stroke-width="2" points="1020.5081,-87.284 1010.4343,-90.5657 1020.3558,-94.2824 1020.5081,-87.284"/>
</g>
<!-- 48&#45;&gt;47 -->
<g id="edge82" class="edge">
<title>48&#45;&gt;47</title>
<path fill="none" stroke="#c0c0c0" stroke-width="2" d="M1918.8978,-359.968C1907.1533,-350.5533 1894.1308,-338.0652 1886,-324 1875.0849,-305.1182 1870.1231,-280.8396 1867.8695,-262.2583"/>
<polygon fill="#c0c0c0" stroke="#c0c0c0" stroke-width="2" points="1871.3262,-261.6541 1866.831,-252.0601 1864.3622,-262.3633 1871.3262,-261.6541"/>
</g>
<!-- 55 -->
<g id="node56" class="node">
<title>55</title>
<path fill="none" stroke="#59d856" stroke-width="2" d="M1983.5,-324C1983.5,-324 1906.5,-324 1906.5,-324 1900.5,-324 1894.5,-318 1894.5,-312 1894.5,-312 1894.5,-300 1894.5,-300 1894.5,-294 1900.5,-288 1906.5,-288 1906.5,-288 1983.5,-288 1983.5,-288 1989.5,-288 1995.5,-294 1995.5,-300 1995.5,-300 1995.5,-312 1995.5,-312 1995.5,-318 1989.5,-324 1983.5,-324"/>
<text text-anchor="middle" x="1945" y="-309" font-family="sans" font-size="10.00" fill="#000000">nonpareil_infer</text>
<text text-anchor="middle" x="1945" y="-298" font-family="sans" font-size="10.00" fill="#000000">tool: represent/grep</text>
</g>
<!-- 48&#45;&gt;55 -->
<g id="edge91" class="edge">
<title>48&#45;&gt;55</title>
<path fill="none" stroke="#c0c0c0" stroke-width="2" d="M1945,-359.8314C1945,-352.131 1945,-342.9743 1945,-334.4166"/>
<polygon fill="#c0c0c0" stroke="#c0c0c0" stroke-width="2" points="1948.5001,-334.4132 1945,-324.4133 1941.5001,-334.4133 1948.5001,-334.4132"/>
</g>
<!-- 61 -->
<g id="node62" class="node">
<title>61</title>
<path fill="none" stroke="#d6d856" stroke-width="2" d="M2152,-324C2152,-324 2092,-324 2092,-324 2086,-324 2080,-318 2080,-312 2080,-312 2080,-300 2080,-300 2080,-294 2086,-288 2092,-288 2092,-288 2152,-288 2152,-288 2158,-288 2164,-294 2164,-300 2164,-300 2164,-312 2164,-312 2164,-318 2158,-324 2152,-324"/>
<text text-anchor="middle" x="2122" y="-303.5" font-family="sans" font-size="10.00" fill="#000000">low_complexity</text>
</g>
<!-- 48&#45;&gt;61 -->
<g id="edge97" class="edge">
<title>48&#45;&gt;61</title>
<path fill="none" stroke="#c0c0c0" stroke-width="2" d="M1978.709,-364.2879C2004.6846,-353.7215 2041.0425,-338.9319 2070.6343,-326.8945"/>
<polygon fill="#c0c0c0" stroke="#c0c0c0" stroke-width="2" points="2072.0383,-330.102 2079.9825,-323.0919 2069.4007,-323.6179 2072.0383,-330.102"/>
</g>
<!-- 49&#45;&gt;48 -->
<g id="edge84" class="edge">
<title>49&#45;&gt;48</title>
<path fill="none" stroke="#c0c0c0" stroke-width="2" d="M1898.6452,-431.8314C1905.8591,-423.454 1914.557,-413.3531 1922.4605,-404.1749"/>
<polygon fill="#c0c0c0" stroke="#c0c0c0" stroke-width="2" points="1925.2711,-406.2748 1929.1441,-396.4133 1919.9667,-401.7071 1925.2711,-406.2748"/>
</g>
<!-- 50 -->
<g id="node51" class="node">
<title>50</title>
<path fill="none" stroke="#56d882" stroke-width="2" d="M404.5,-252C404.5,-252 351.5,-252 351.5,-252 345.5,-252 339.5,-246 339.5,-240 339.5,-240 339.5,-228 339.5,-228 339.5,-222 345.5,-216 351.5,-216 351.5,-216 404.5,-216 404.5,-216 410.5,-216 416.5,-222 416.5,-228 416.5,-228 416.5,-240 416.5,-240 416.5,-246 410.5,-252 404.5,-252"/>
<text text-anchor="middle" x="378" y="-231.5" font-family="sans" font-size="10.00" fill="#000000">nonpareil_plot</text>
</g>
<!-- 50&#45;&gt;1 -->
<g id="edge26" class="edge">
<title>50&#45;&gt;1</title>
<path fill="none" stroke="#c0c0c0" stroke-width="2" d="M383.3247,-215.9602C390.5983,-194.8145 405.8212,-160.5603 432,-144 475.2747,-116.6251 828.2977,-97.4075 945.4073,-91.735"/>
<polygon fill="#c0c0c0" stroke="#c0c0c0" stroke-width="2" points="945.8478,-95.218 955.6689,-91.2435 945.5129,-88.226 945.8478,-95.218"/>
</g>
<!-- 51&#45;&gt;50 -->
<g id="edge86" class="edge">
<title>51&#45;&gt;50</title>
<path fill="none" stroke="#c0c0c0" stroke-width="2" d="M203.7262,-290.4781C251.0014,-275.9909 315.9749,-256.0174 328,-252 328.5743,-251.8082 329.1519,-251.6143 329.7324,-251.4187"/>
<polygon fill="#c0c0c0" stroke="#c0c0c0" stroke-width="2" points="330.9803,-254.6909 339.3005,-248.1315 328.7058,-248.0707 330.9803,-254.6909"/>
</g>
<!-- 52 -->
<g id="node53" class="node">
<title>52</title>
<path fill="none" stroke="#56d882" stroke-width="2" d="M1429.5,-252C1429.5,-252 1376.5,-252 1376.5,-252 1370.5,-252 1364.5,-246 1364.5,-240 1364.5,-240 1364.5,-228 1364.5,-228 1364.5,-222 1370.5,-216 1376.5,-216 1376.5,-216 1429.5,-216 1429.5,-216 1435.5,-216 1441.5,-222 1441.5,-228 1441.5,-228 1441.5,-240 1441.5,-240 1441.5,-246 1435.5,-252 1429.5,-252"/>
<text text-anchor="middle" x="1403" y="-231.5" font-family="sans" font-size="10.00" fill="#000000">nonpareil_plot</text>
</g>
<!-- 52&#45;&gt;1 -->
<g id="edge27" class="edge">
<title>52&#45;&gt;1</title>
<path fill="none" stroke="#c0c0c0" stroke-width="2" d="M1364.3518,-217.7901C1342.6832,-208.0311 1315.5596,-194.6737 1293,-180 1272.1064,-166.4099 1272.4618,-154.8029 1250,-144 1173.6841,-107.2962 1073.4992,-95.5189 1020.1736,-91.755"/>
<polygon fill="#c0c0c0" stroke="#c0c0c0" stroke-width="2" points="1020.3602,-88.2598 1010.1543,-91.1041 1019.9063,-95.2451 1020.3602,-88.2598"/>
</g>
<!-- 53&#45;&gt;52 -->
<g id="edge88" class="edge">
<title>53&#45;&gt;52</title>
<path fill="none" stroke="#c0c0c0" stroke-width="2" d="M1382.8132,-287.8314C1385.7644,-279.9617 1389.2858,-270.5712 1392.555,-261.8533"/>
<polygon fill="#c0c0c0" stroke="#c0c0c0" stroke-width="2" points="1395.8609,-263.0055 1396.095,-252.4133 1389.3066,-260.5476 1395.8609,-263.0055"/>
</g>
<!-- 54 -->
<g id="node55" class="node">
<title>54</title>
<path fill="none" stroke="#56d882" stroke-width="2" d="M2013.5,-180C2013.5,-180 1960.5,-180 1960.5,-180 1954.5,-180 1948.5,-174 1948.5,-168 1948.5,-168 1948.5,-156 1948.5,-156 1948.5,-150 1954.5,-144 1960.5,-144 1960.5,-144 2013.5,-144 2013.5,-144 2019.5,-144 2025.5,-150 2025.5,-156 2025.5,-156 2025.5,-168 2025.5,-168 2025.5,-174 2019.5,-180 2013.5,-180"/>
<text text-anchor="middle" x="1987" y="-159.5" font-family="sans" font-size="10.00" fill="#000000">nonpareil_plot</text>
</g>
<!-- 54&#45;&gt;1 -->
<g id="edge28" class="edge">
<title>54&#45;&gt;1</title>
<path fill="none" stroke="#c0c0c0" stroke-width="2" d="M1948.2499,-147.5087C1943.5006,-146.1293 1938.6741,-144.9089 1934,-144 1754.2724,-109.0506 1173.934,-94.1599 1020.4987,-90.776"/>
<polygon fill="#c0c0c0" stroke="#c0c0c0" stroke-width="2" points="1020.2743,-87.2704 1010.2005,-90.5522 1020.1221,-94.2688 1020.2743,-87.2704"/>
</g>
<!-- 55&#45;&gt;54 -->
<g id="edge90" class="edge">
<title>55&#45;&gt;54</title>
<path fill="none" stroke="#c0c0c0" stroke-width="2" d="M1947.7711,-287.8041C1950.817,-269.433 1956.3185,-240.369 1964,-216 1966.7743,-207.1986 1970.4641,-197.8665 1974.0745,-189.4806"/>
<polygon fill="#c0c0c0" stroke="#c0c0c0" stroke-width="2" points="1977.3541,-190.7191 1978.2166,-180.1595 1970.9572,-187.8765 1977.3541,-190.7191"/>
</g>
<!-- 56 -->
<g id="node57" class="node">
<title>56</title>
<path fill="none" stroke="#56a9d8" stroke-width="2" d="M1334,-252C1334,-252 1252,-252 1252,-252 1246,-252 1240,-246 1240,-240 1240,-240 1240,-228 1240,-228 1240,-222 1246,-216 1252,-216 1252,-216 1334,-216 1334,-216 1340,-216 1346,-222 1346,-228 1346,-228 1346,-240 1346,-240 1346,-246 1340,-252 1334,-252"/>
<text text-anchor="middle" x="1293" y="-237" font-family="sans" font-size="10.00" fill="#000000">seqkit_stats</text>
<text text-anchor="middle" x="1293" y="-226" font-family="sans" font-size="10.00" fill="#000000">tool: low_complexity</text>
</g>
<!-- 56&#45;&gt;1 -->
<g id="edge29" class="edge">
<title>56&#45;&gt;1</title>
<path fill="none" stroke="#c0c0c0" stroke-width="2" d="M1282.6275,-215.7541C1269.8902,-195.0691 1246.3233,-161.9044 1217,-144 1184.2548,-124.0062 1077.6485,-104.8504 1020.3069,-95.6616"/>
<polygon fill="#c0c0c0" stroke="#c0c0c0" stroke-width="2" points="1020.6261,-92.1686 1010.2021,-94.0638 1019.5328,-99.0827 1020.6261,-92.1686"/>
</g>
<!-- 57&#45;&gt;0 -->
<g id="edge3" class="edge">
<title>57&#45;&gt;0</title>
<path fill="none" stroke="#c0c0c0" stroke-width="2" d="M1277.3173,-295.2774C1289.9999,-292.4532 1303.9955,-289.7183 1317,-288 1359.5105,-282.383 2058.3948,-283.0198 2088,-252 2244.262,-88.2715 1728.5798,-32.9948 1582.4799,-20.8081"/>
<polygon fill="#c0c0c0" stroke="#c0c0c0" stroke-width="2" points="1582.4731,-17.2961 1572.2221,-19.9731 1581.9051,-24.273 1582.4731,-17.2961"/>
</g>
<!-- 57&#45;&gt;56 -->
<g id="edge92" class="edge">
<title>57&#45;&gt;56</title>
<path fill="none" stroke="#c0c0c0" stroke-width="2" d="M1249.6358,-287.8314C1256.3161,-279.5386 1264.3568,-269.557 1271.6904,-260.4533"/>
<polygon fill="#c0c0c0" stroke="#c0c0c0" stroke-width="2" points="1274.6194,-262.3965 1278.1671,-252.4133 1269.1681,-258.0052 1274.6194,-262.3965"/>
</g>
<!-- 67 -->
<g id="node68" class="node">
<title>67</title>
<path fill="none" stroke="#59d856" stroke-width="2" d="M1210,-252C1210,-252 1128,-252 1128,-252 1122,-252 1116,-246 1116,-240 1116,-240 1116,-228 1116,-228 1116,-222 1122,-216 1128,-216 1128,-216 1210,-216 1210,-216 1216,-216 1222,-222 1222,-228 1222,-228 1222,-240 1222,-240 1222,-246 1216,-252 1210,-252"/>
<text text-anchor="middle" x="1169" y="-237" font-family="sans" font-size="10.00" fill="#000000">nonpareil_infer</text>
<text text-anchor="middle" x="1169" y="-226" font-family="sans" font-size="10.00" fill="#000000">tool: low_complexity</text>
</g>
<!-- 57&#45;&gt;67 -->
<g id="edge103" class="edge">
<title>57&#45;&gt;67</title>
<path fill="none" stroke="#c0c0c0" stroke-width="2" d="M1218.3454,-287.8314C1210.5886,-279.3694 1201.2198,-269.1489 1192.739,-259.8971"/>
<polygon fill="#c0c0c0" stroke="#c0c0c0" stroke-width="2" points="1195.2162,-257.4198 1185.8788,-252.4133 1190.0561,-262.1499 1195.2162,-257.4198"/>
</g>
<!-- 58 -->
<g id="node59" class="node">
<title>58</title>
<path fill="none" stroke="#56a9d8" stroke-width="2" d="M307,-252C307,-252 225,-252 225,-252 219,-252 213,-246 213,-240 213,-240 213,-228 213,-228 213,-222 219,-216 225,-216 225,-216 307,-216 307,-216 313,-216 319,-222 319,-228 319,-228 319,-240 319,-240 319,-246 313,-252 307,-252"/>
<text text-anchor="middle" x="266" y="-237" font-family="sans" font-size="10.00" fill="#000000">seqkit_stats</text>
<text text-anchor="middle" x="266" y="-226" font-family="sans" font-size="10.00" fill="#000000">tool: low_complexity</text>
</g>
<!-- 58&#45;&gt;1 -->
<g id="edge30" class="edge">
<title>58&#45;&gt;1</title>
<path fill="none" stroke="#c0c0c0" stroke-width="2" d="M285.3073,-215.7509C309.2056,-194.3991 352.1419,-159.9419 396,-144 497.7963,-106.9983 832.5676,-94.2676 945.4512,-90.9683"/>
<polygon fill="#c0c0c0" stroke="#c0c0c0" stroke-width="2" points="945.771,-94.4607 955.6675,-90.6779 945.5721,-87.4635 945.771,-94.4607"/>
</g>
<!-- 59&#45;&gt;0 -->
<g id="edge4" class="edge">
<title>59&#45;&gt;0</title>
<path fill="none" stroke="#c0c0c0" stroke-width="2" d="M44.698,-287.8919C51.0455,-252.6323 70.5559,-175.4668 123,-144 245.1963,-70.6815 1295.5758,-27.4036 1507.7361,-19.367"/>
<polygon fill="#c0c0c0" stroke="#c0c0c0" stroke-width="2" points="1507.8945,-22.8636 1517.7558,-18.9901 1507.6313,-15.8685 1507.8945,-22.8636"/>
</g>
<!-- 59&#45;&gt;58 -->
<g id="edge94" class="edge">
<title>59&#45;&gt;58</title>
<path fill="none" stroke="#c0c0c0" stroke-width="2" d="M84.2597,-290.9504C87.2135,-289.9399 90.1488,-288.9478 93,-288 129.2582,-275.9472 170.046,-263.1781 202.9071,-253.0844"/>
<polygon fill="#c0c0c0" stroke="#c0c0c0" stroke-width="2" points="204.3014,-256.3178 212.8371,-250.0415 202.2505,-249.625 204.3014,-256.3178"/>
</g>
<!-- 63 -->
<g id="node64" class="node">
<title>63</title>
<path fill="none" stroke="#59d856" stroke-width="2" d="M179,-252C179,-252 97,-252 97,-252 91,-252 85,-246 85,-240 85,-240 85,-228 85,-228 85,-222 91,-216 97,-216 97,-216 179,-216 179,-216 185,-216 191,-222 191,-228 191,-228 191,-240 191,-240 191,-246 185,-252 179,-252"/>
<text text-anchor="middle" x="138" y="-237" font-family="sans" font-size="10.00" fill="#000000">nonpareil_infer</text>
<text text-anchor="middle" x="138" y="-226" font-family="sans" font-size="10.00" fill="#000000">tool: low_complexity</text>
</g>
<!-- 59&#45;&gt;63 -->
<g id="edge99" class="edge">
<title>59&#45;&gt;63</title>
<path fill="none" stroke="#c0c0c0" stroke-width="2" d="M66.2249,-287.8314C78.1628,-278.8779 92.7256,-267.9558 105.606,-258.2955"/>
<polygon fill="#c0c0c0" stroke="#c0c0c0" stroke-width="2" points="107.8829,-260.9629 113.7829,-252.1628 103.6829,-255.3629 107.8829,-260.9629"/>
</g>
<!-- 60 -->
<g id="node61" class="node">
<title>60</title>
<path fill="none" stroke="#56a9d8" stroke-width="2" d="M2067,-252C2067,-252 1985,-252 1985,-252 1979,-252 1973,-246 1973,-240 1973,-240 1973,-228 1973,-228 1973,-222 1979,-216 1985,-216 1985,-216 2067,-216 2067,-216 2073,-216 2079,-222 2079,-228 2079,-228 2079,-240 2079,-240 2079,-246 2073,-252 2067,-252"/>
<text text-anchor="middle" x="2026" y="-237" font-family="sans" font-size="10.00" fill="#000000">seqkit_stats</text>
<text text-anchor="middle" x="2026" y="-226" font-family="sans" font-size="10.00" fill="#000000">tool: low_complexity</text>
</g>
<!-- 60&#45;&gt;1 -->
<g id="edge31" class="edge">
<title>60&#45;&gt;1</title>
<path fill="none" stroke="#c0c0c0" stroke-width="2" d="M2035.056,-215.8238C2043.7285,-195.5193 2053.0616,-163.0124 2035,-144 1999.3403,-106.4629 1203.3471,-93.078 1020.2966,-90.4909"/>
<polygon fill="#c0c0c0" stroke="#c0c0c0" stroke-width="2" points="1020.1456,-86.9885 1010.0979,-90.349 1020.0482,-93.9879 1020.1456,-86.9885"/>
</g>
<!-- 61&#45;&gt;0 -->
<g id="edge2" class="edge">
<title>61&#45;&gt;0</title>
<path fill="none" stroke="#c0c0c0" stroke-width="2" d="M2164.2775,-300.39C2193.7535,-294.0319 2231.0654,-280.5387 2250,-252 2267.3321,-225.8766 2232.6286,-147.6607 2229,-144 2137.0182,-51.2039 1711.7279,-25.2558 1582.4061,-19.45"/>
<polygon fill="#c0c0c0" stroke="#c0c0c0" stroke-width="2" points="1582.3577,-15.9447 1572.2151,-19.0071 1582.0537,-22.9381 1582.3577,-15.9447"/>
</g>
<!-- 61&#45;&gt;60 -->
<g id="edge96" class="edge">
<title>61&#45;&gt;60</title>
<path fill="none" stroke="#c0c0c0" stroke-width="2" d="M2097.7751,-287.8314C2085.8372,-278.8779 2071.2744,-267.9558 2058.394,-258.2955"/>
<polygon fill="#c0c0c0" stroke="#c0c0c0" stroke-width="2" points="2060.3171,-255.3629 2050.2171,-252.1628 2056.1171,-260.9629 2060.3171,-255.3629"/>
</g>
<!-- 65 -->
<g id="node66" class="node">
<title>65</title>
<path fill="none" stroke="#59d856" stroke-width="2" d="M2229,-252C2229,-252 2147,-252 2147,-252 2141,-252 2135,-246 2135,-240 2135,-240 2135,-228 2135,-228 2135,-222 2141,-216 2147,-216 2147,-216 2229,-216 2229,-216 2235,-216 2241,-222 2241,-228 2241,-228 2241,-240 2241,-240 2241,-246 2235,-252 2229,-252"/>
<text text-anchor="middle" x="2188" y="-237" font-family="sans" font-size="10.00" fill="#000000">nonpareil_infer</text>
<text text-anchor="middle" x="2188" y="-226" font-family="sans" font-size="10.00" fill="#000000">tool: low_complexity</text>
</g>
<!-- 61&#45;&gt;65 -->
<g id="edge101" class="edge">
<title>61&#45;&gt;65</title>
<path fill="none" stroke="#c0c0c0" stroke-width="2" d="M2138.6546,-287.8314C2146.4114,-279.3694 2155.7802,-269.1489 2164.261,-259.8971"/>
<polygon fill="#c0c0c0" stroke="#c0c0c0" stroke-width="2" points="2166.9439,-262.1499 2171.1212,-252.4133 2161.7838,-257.4198 2166.9439,-262.1499"/>
</g>
<!-- 62 -->
<g id="node63" class="node">
<title>62</title>
<path fill="none" stroke="#56d882" stroke-width="2" d="M197.5,-180C197.5,-180 144.5,-180 144.5,-180 138.5,-180 132.5,-174 132.5,-168 132.5,-168 132.5,-156 132.5,-156 132.5,-150 138.5,-144 144.5,-144 144.5,-144 197.5,-144 197.5,-144 203.5,-144 209.5,-150 209.5,-156 209.5,-156 209.5,-168 209.5,-168 209.5,-174 203.5,-180 197.5,-180"/>
<text text-anchor="middle" x="171" y="-159.5" font-family="sans" font-size="10.00" fill="#000000">nonpareil_plot</text>
</g>
<!-- 62&#45;&gt;1 -->
<g id="edge32" class="edge">
<title>62&#45;&gt;1</title>
<path fill="none" stroke="#c0c0c0" stroke-width="2" d="M209.6285,-156.1492C235.9075,-152.3124 271.4961,-147.3962 303,-144 547.4992,-117.6427 842.7558,-98.5152 945.5602,-92.2304"/>
<polygon fill="#c0c0c0" stroke="#c0c0c0" stroke-width="2" points="945.9717,-95.712 955.7409,-91.6117 945.547,-88.7248 945.9717,-95.712"/>
</g>
<!-- 63&#45;&gt;62 -->
<g id="edge98" class="edge">
<title>63&#45;&gt;62</title>
<path fill="none" stroke="#c0c0c0" stroke-width="2" d="M146.3273,-215.8314C149.973,-207.8771 154.3309,-198.369 158.3627,-189.5723"/>
<polygon fill="#c0c0c0" stroke="#c0c0c0" stroke-width="2" points="161.5757,-190.9622 162.5606,-180.4133 155.2123,-188.0456 161.5757,-190.9622"/>
</g>
<!-- 64 -->
<g id="node65" class="node">
<title>64</title>
<path fill="none" stroke="#56d882" stroke-width="2" d="M2207.5,-180C2207.5,-180 2154.5,-180 2154.5,-180 2148.5,-180 2142.5,-174 2142.5,-168 2142.5,-168 2142.5,-156 2142.5,-156 2142.5,-150 2148.5,-144 2154.5,-144 2154.5,-144 2207.5,-144 2207.5,-144 2213.5,-144 2219.5,-150 2219.5,-156 2219.5,-156 2219.5,-168 2219.5,-168 2219.5,-174 2213.5,-180 2207.5,-180"/>
<text text-anchor="middle" x="2181" y="-159.5" font-family="sans" font-size="10.00" fill="#000000">nonpareil_plot</text>
</g>
<!-- 64&#45;&gt;1 -->
<g id="edge33" class="edge">
<title>64&#45;&gt;1</title>
<path fill="none" stroke="#c0c0c0" stroke-width="2" d="M2142.4356,-154.7964C2120.6586,-150.9957 2092.8955,-146.5947 2068,-144 1658.9352,-101.3666 1159.4847,-92.1828 1020.4595,-90.3973"/>
<polygon fill="#c0c0c0" stroke="#c0c0c0" stroke-width="2" points="1020.3782,-86.8961 1010.3357,-90.2724 1020.2917,-93.8956 1020.3782,-86.8961"/>
</g>
<!-- 65&#45;&gt;64 -->
<g id="edge100" class="edge">
<title>65&#45;&gt;64</title>
<path fill="none" stroke="#c0c0c0" stroke-width="2" d="M2186.2336,-215.8314C2185.485,-208.131 2184.5947,-198.9743 2183.7627,-190.4166"/>
<polygon fill="#c0c0c0" stroke="#c0c0c0" stroke-width="2" points="2187.2415,-190.0276 2182.7902,-180.4133 2180.2744,-190.7051 2187.2415,-190.0276"/>
</g>
<!-- 66 -->
<g id="node67" class="node">
<title>66</title>
<path fill="none" stroke="#56d882" stroke-width="2" d="M1195.5,-180C1195.5,-180 1142.5,-180 1142.5,-180 1136.5,-180 1130.5,-174 1130.5,-168 1130.5,-168 1130.5,-156 1130.5,-156 1130.5,-150 1136.5,-144 1142.5,-144 1142.5,-144 1195.5,-144 1195.5,-144 1201.5,-144 1207.5,-150 1207.5,-156 1207.5,-156 1207.5,-168 1207.5,-168 1207.5,-174 1201.5,-180 1195.5,-180"/>
<text text-anchor="middle" x="1169" y="-159.5" font-family="sans" font-size="10.00" fill="#000000">nonpareil_plot</text>
</g>
<!-- 66&#45;&gt;1 -->
<g id="edge34" class="edge">
<title>66&#45;&gt;1</title>
<path fill="none" stroke="#c0c0c0" stroke-width="2" d="M1130.4607,-147.0816C1097.8668,-134.4646 1051.493,-116.5134 1019.4935,-104.1265"/>
<polygon fill="#c0c0c0" stroke="#c0c0c0" stroke-width="2" points="1020.6445,-100.819 1010.0553,-100.473 1018.1175,-107.347 1020.6445,-100.819"/>
</g>
<!-- 67&#45;&gt;66 -->
<g id="edge102" class="edge">
<title>67&#45;&gt;66</title>
<path fill="none" stroke="#c0c0c0" stroke-width="2" d="M1169,-215.8314C1169,-208.131 1169,-198.9743 1169,-190.4166"/>
<polygon fill="#c0c0c0" stroke="#c0c0c0" stroke-width="2" points="1172.5001,-190.4132 1169,-180.4133 1165.5001,-190.4133 1172.5001,-190.4132"/>
</g>
</g>
</svg>
