<?xml version="1.0" encoding="UTF-8" standalone="no"?>
<!DOCTYPE svg PUBLIC "-//W3C//DTD SVG 1.1//EN"
 "http://www.w3.org/Graphics/SVG/1.1/DTD/svg11.dtd">
<!-- Generated by graphviz version 2.40.1 (0)
 -->
<!-- Title: snakemake_dag Pages: 1 -->
<svg width="1035pt" height="2392pt"
 viewBox="0.00 0.00 1035.00 2392.00" xmlns="http://www.w3.org/2000/svg" xmlns:xlink="http://www.w3.org/1999/xlink">
<g id="graph0" class="graph" transform="scale(1 1) rotate(0) translate(4 2388)">
<title>snakemake_dag</title>
<polygon fill="#ffffff" stroke="transparent" points="-4,4 -4,-2388 1031,-2388 1031,4 -4,4"/>
<!-- 0 -->
<g id="node1" class="node">
<title>0</title>
<text text-anchor="start" x="624.5" y="-125.6" font-family="sans" font-weight="bold" font-size="18.00" fill="#000000">all</text>
<text text-anchor="start" x="439.5" y="-101.8" font-family="sans" font-size="10.00" fill="#000000"> </text>
<text text-anchor="start" x="443.5" y="-101.8" font-family="sans" font-weight="bold" font-size="14.00" fill="#000000">↪ input</text>
<text text-anchor="start" x="496.5" y="-101.8" font-family="sans" font-size="10.00" fill="#000000"> </text>
<text text-anchor="start" x="439.5" y="-82" font-family="monospace" font-size="10.00" fill="#000000">reports/multiqc.html</text>
<text text-anchor="start" x="439.5" y="-64" font-family="monospace" font-size="10.00" fill="#000000">results/reads/low_complexity/HD827sonic_1_lib1_collapsed.fastq.gz</text>
<text text-anchor="start" x="439.5" y="-46" font-family="monospace" font-size="10.00" fill="#000000">results/reads/low_complexity/HD827sonic_2_lib1_collapsed.fastq.gz</text>
<text text-anchor="start" x="439.5" y="-28" font-family="monospace" font-size="10.00" fill="#000000">results/reads/low_complexity/HD827sonic_2_lib2_collapsed.fastq.gz</text>
<text text-anchor="start" x="823.5" y="-10" font-family="sans" font-size="10.00" fill="#000000"> &#160;</text>
<polygon fill="#d95757" stroke="#d95757" points="433.5,-116 433.5,-116 837.5,-116 837.5,-116 433.5,-116"/>
<polygon fill="#d95757" stroke="#d95757" points="433.5,-22 433.5,-22 837.5,-22 837.5,-22 433.5,-22"/>
<polygon fill="none" stroke="#d95757" stroke-width="2" points="433,-1 433,-145 836,-145 836,-1 433,-1"/>
</g>
<!-- 1 -->
<g id="node2" class="node">
<title>1</title>
<text text-anchor="start" x="728.5" y="-815.6" font-family="sans" font-weight="bold" font-size="18.00" fill="#000000">multiqc</text>
<text text-anchor="start" x="544.5" y="-791.8" font-family="sans" font-size="10.00" fill="#000000"> </text>
<text text-anchor="start" x="548.5" y="-791.8" font-family="sans" font-weight="bold" font-size="14.00" fill="#000000">↪ input</text>
<text text-anchor="start" x="601.5" y="-791.8" font-family="sans" font-size="10.00" fill="#000000"> </text>
<text text-anchor="start" x="544.5" y="-772" font-family="monospace" font-size="10.00" fill="#000000">stats/reads/fastqc/derep/HD827sonic_1_lib1_collapsed_fastqc.zip</text>
<text text-anchor="start" x="544.5" y="-754" font-family="monospace" font-size="10.00" fill="#000000">stats/reads/fastqc/derep/HD827sonic_2_lib1_collapsed_fastqc.zip</text>
<text text-anchor="start" x="544.5" y="-736" font-family="monospace" font-size="10.00" fill="#000000">stats/reads/fastqc/derep/HD827sonic_2_lib2_collapsed_fastqc.zip</text>
<text text-anchor="start" x="544.5" y="-718" font-family="monospace" font-size="10.00" fill="#000000">stats/reads/fastqc/extend/tadpole/HD827sonic_1_lib1_collapsed_fastqc.zip</text>
<text text-anchor="start" x="544.5" y="-700" font-family="monospace" font-size="10.00" fill="#000000">stats/reads/fastqc/extend/tadpole/HD827sonic_2_lib1_collapsed_fastqc.zip</text>
<text text-anchor="start" x="544.5" y="-682" font-family="monospace" font-size="10.00" fill="#000000">stats/reads/fastqc/extend/tadpole/HD827sonic_2_lib2_collapsed_fastqc.zip</text>
<text text-anchor="start" x="544.5" y="-664" font-family="monospace" font-size="10.00" fill="#000000">stats/reads/fastqc/low_complexity/HD827sonic_1_lib1_collapsed_fastqc.zip</text>
<text text-anchor="start" x="544.5" y="-646" font-family="monospace" font-size="10.00" fill="#000000">stats/reads/fastqc/low_complexity/HD827sonic_2_lib1_collapsed_fastqc.zip</text>
<text text-anchor="start" x="544.5" y="-628" font-family="monospace" font-size="10.00" fill="#000000">stats/reads/fastqc/low_complexity/HD827sonic_2_lib2_collapsed_fastqc.zip</text>
<text text-anchor="start" x="544.5" y="-610" font-family="monospace" font-size="10.00" fill="#000000">stats/reads/fastqc/merge_lanes/HD827sonic_1_lib1_collapsed_fastqc.zip</text>
<text text-anchor="start" x="544.5" y="-592" font-family="monospace" font-size="10.00" fill="#000000">stats/reads/fastqc/merge_lanes/HD827sonic_2_lib1_collapsed_fastqc.zip</text>
<text text-anchor="start" x="544.5" y="-574" font-family="monospace" font-size="10.00" fill="#000000">stats/reads/fastqc/merge_lanes/HD827sonic_2_lib2_collapsed_fastqc.zip</text>
<text text-anchor="start" x="544.5" y="-556" font-family="monospace" font-size="10.00" fill="#000000">stats/reads/fastqc/represent/grep/HD827sonic_1_lib1_collapsed_fastqc.zip</text>
<text text-anchor="start" x="544.5" y="-538" font-family="monospace" font-size="10.00" fill="#000000">stats/reads/fastqc/represent/grep/HD827sonic_2_lib1_collapsed_fastqc.zip</text>
<text text-anchor="start" x="544.5" y="-520" font-family="monospace" font-size="10.00" fill="#000000">stats/reads/fastqc/represent/grep/HD827sonic_2_lib2_collapsed_fastqc.zip</text>
<text text-anchor="start" x="544.5" y="-502" font-family="monospace" font-size="10.00" fill="#000000">stats/reads/nonpareil/derep/HD827sonic_1_lib1_collapsed.json</text>
<text text-anchor="start" x="544.5" y="-484" font-family="monospace" font-size="10.00" fill="#000000">stats/reads/nonpareil/derep/HD827sonic_2_lib1_collapsed.json</text>
<text text-anchor="start" x="544.5" y="-466" font-family="monospace" font-size="10.00" fill="#000000">stats/reads/nonpareil/derep/HD827sonic_2_lib2_collapsed.json</text>
<text text-anchor="start" x="544.5" y="-448" font-family="monospace" font-size="10.00" fill="#000000">stats/reads/nonpareil/extend/tadpole/HD827sonic_1_lib1_collapsed.json</text>
<text text-anchor="start" x="544.5" y="-430" font-family="monospace" font-size="10.00" fill="#000000">stats/reads/nonpareil/extend/tadpole/HD827sonic_2_lib1_collapsed.json</text>
<text text-anchor="start" x="544.5" y="-412" font-family="monospace" font-size="10.00" fill="#000000">stats/reads/nonpareil/extend/tadpole/HD827sonic_2_lib2_collapsed.json</text>
<text text-anchor="start" x="544.5" y="-394" font-family="monospace" font-size="10.00" fill="#000000">stats/reads/nonpareil/low_complexity/HD827sonic_1_lib1_collapsed.json</text>
<text text-anchor="start" x="544.5" y="-376" font-family="monospace" font-size="10.00" fill="#000000">stats/reads/nonpareil/low_complexity/HD827sonic_2_lib1_collapsed.json</text>
<text text-anchor="start" x="544.5" y="-358" font-family="monospace" font-size="10.00" fill="#000000">stats/reads/nonpareil/low_complexity/HD827sonic_2_lib2_collapsed.json</text>
<text text-anchor="start" x="544.5" y="-340" font-family="monospace" font-size="10.00" fill="#000000">stats/reads/nonpareil/merge_lanes/HD827sonic_1_lib1_collapsed.json</text>
<text text-anchor="start" x="544.5" y="-322" font-family="monospace" font-size="10.00" fill="#000000">stats/reads/nonpareil/merge_lanes/HD827sonic_2_lib1_collapsed.json</text>
<text text-anchor="start" x="544.5" y="-304" font-family="monospace" font-size="10.00" fill="#000000">stats/reads/nonpareil/merge_lanes/HD827sonic_2_lib2_collapsed.json</text>
<text text-anchor="start" x="544.5" y="-286" font-family="monospace" font-size="10.00" fill="#000000">stats/reads/nonpareil/represent/grep/HD827sonic_1_lib1_collapsed.json</text>
<text text-anchor="start" x="544.5" y="-268" font-family="monospace" font-size="10.00" fill="#000000">stats/reads/nonpareil/represent/grep/HD827sonic_2_lib1_collapsed.json</text>
<text text-anchor="start" x="544.5" y="-250" font-family="monospace" font-size="10.00" fill="#000000">stats/reads/nonpareil/represent/grep/HD827sonic_2_lib2_collapsed.json</text>
<text text-anchor="start" x="908.5" y="-229.8" font-family="sans" font-size="10.00" fill="#000000"> </text>
<text text-anchor="start" x="912.5" y="-229.8" font-family="sans" font-weight="bold" font-size="14.00" fill="#000000">output →</text>
<text text-anchor="start" x="973.5" y="-229.8" font-family="sans" font-size="10.00" fill="#000000"> </text>
<text text-anchor="start" x="544.5" y="-210" font-family="monospace" font-size="10.00" fill="#000000">reports/multiqc.html</text>
<text text-anchor="start" x="544.5" y="-192" font-family="monospace" font-size="10.00" fill="#000000">reports/multiqc_data.zip</text>
<polygon fill="#57d957" stroke="#57d957" points="538.5,-806 538.5,-806 984.5,-806 984.5,-806 538.5,-806"/>
<polygon fill="#57d957" stroke="#57d957" points="538.5,-244 538.5,-244 984.5,-244 984.5,-244 538.5,-244"/>
<polygon fill="none" stroke="#57d957" stroke-width="2" points="538,-183 538,-835 983,-835 983,-183 538,-183"/>
</g>
<!-- 1&#45;&gt;0 -->
<g id="edge1" class="edge">
<title>1&#45;&gt;0</title>
<path fill="none" stroke="#c0c0c0" stroke-width="2" d="M665.9701,-181.8965C663.3613,-172.8693 660.8497,-164.1784 658.4616,-155.9149"/>
<polygon fill="#c0c0c0" stroke="#c0c0c0" stroke-width="2" points="661.7505,-154.6885 655.6118,-146.0534 655.0257,-156.632 661.7505,-154.6885"/>
</g>
<!-- 2 -->
<g id="node3" class="node">
<title>2</title>
<text text-anchor="start" x="777.5" y="-1187.6" font-family="sans" font-weight="bold" font-size="18.00" fill="#000000">fastqc</text>
<text text-anchor="start" x="587.5" y="-1163.8" font-family="sans" font-size="10.00" fill="#000000"> </text>
<text text-anchor="start" x="591.5" y="-1163.8" font-family="sans" font-weight="bold" font-size="14.00" fill="#000000">↪ input</text>
<text text-anchor="start" x="644.5" y="-1163.8" font-family="sans" font-size="10.00" fill="#000000"> </text>
<text text-anchor="start" x="587.5" y="-1144" font-family="monospace" font-size="10.00" fill="#000000">&lt;input function&gt;</text>
<text text-anchor="start" x="951.5" y="-1123.8" font-family="sans" font-size="10.00" fill="#000000"> </text>
<text text-anchor="start" x="955.5" y="-1123.8" font-family="sans" font-weight="bold" font-size="14.00" fill="#000000">output →</text>
<text text-anchor="start" x="1016.5" y="-1123.8" font-family="sans" font-size="10.00" fill="#000000"> </text>
<text text-anchor="start" x="587.5" y="-1104" font-family="monospace" font-size="10.00" fill="#000000">stats/reads/fastqc/{tool}/{sample}_{library}_{read_type_trim}.html</text>
<text text-anchor="start" x="587.5" y="-1086" font-family="monospace" font-size="10.00" fill="#000000">stats/reads/fastqc/{tool}/{sample}_{library}_{read_type_trim}_fastqc.zip</text>
<polygon fill="#d9ad57" stroke="#d9ad57" points="581.5,-1178 581.5,-1178 1027.5,-1178 1027.5,-1178 581.5,-1178"/>
<polygon fill="#d9ad57" stroke="#d9ad57" points="581.5,-1138 581.5,-1138 1027.5,-1138 1027.5,-1138 581.5,-1138"/>
<polygon fill="none" stroke="#d9ad57" stroke-width="2" points="581,-1077 581,-1207 1026,-1207 1026,-1077 581,-1077"/>
</g>
<!-- 2&#45;&gt;1 -->
<g id="edge4" class="edge">
<title>2&#45;&gt;1</title>
<path fill="none" stroke="#c0c0c0" stroke-width="2" d="M798.9997,-1075.7521C795.1737,-1019.429 789.3676,-933.9579 783.4162,-846.3474"/>
<polygon fill="#c0c0c0" stroke="#c0c0c0" stroke-width="2" points="786.8973,-845.9497 782.7275,-836.21 779.9134,-846.4242 786.8973,-845.9497"/>
</g>
<!-- 3 -->
<g id="node4" class="node">
<title>3</title>
<text text-anchor="start" x="182.5" y="-2363.6" font-family="sans" font-weight="bold" font-size="18.00" fill="#000000">merge_lanes</text>
<text text-anchor="start" x="35.5" y="-2339.8" font-family="sans" font-size="10.00" fill="#000000"> </text>
<text text-anchor="start" x="39.5" y="-2339.8" font-family="sans" font-weight="bold" font-size="14.00" fill="#000000">↪ input</text>
<text text-anchor="start" x="92.5" y="-2339.8" font-family="sans" font-size="10.00" fill="#000000"> </text>
<text text-anchor="start" x="35.5" y="-2320" font-family="monospace" font-size="10.00" fill="#000000">&lt;input function&gt;</text>
<text text-anchor="start" x="369.5" y="-2299.8" font-family="sans" font-size="10.00" fill="#000000"> </text>
<text text-anchor="start" x="373.5" y="-2299.8" font-family="sans" font-weight="bold" font-size="14.00" fill="#000000">output →</text>
<text text-anchor="start" x="434.5" y="-2299.8" font-family="sans" font-size="10.00" fill="#000000"> </text>
<text text-anchor="start" x="35.5" y="-2280" font-family="monospace" font-size="10.00" fill="#000000">temp/reads/merge_lanes/{sample}_{library}_{read_type_trim}.fastq.gz</text>
<polygon fill="#82d957" stroke="#82d957" points="29.5,-2354 29.5,-2354 445.5,-2354 445.5,-2354 29.5,-2354"/>
<polygon fill="#82d957" stroke="#82d957" points="29.5,-2314 29.5,-2314 445.5,-2314 445.5,-2314 29.5,-2314"/>
<polygon fill="none" stroke="#82d957" stroke-width="2" points="29,-2271 29,-2383 444,-2383 444,-2271 29,-2271"/>
</g>
<!-- 3&#45;&gt;2 -->
<g id="edge8" class="edge">
<title>3&#45;&gt;2</title>
<path fill="none" stroke="#c0c0c0" stroke-width="2" d="M445.0918,-2297.0691C543.5538,-2280.4051 648.7249,-2258.1704 691.5,-2234 809.8022,-2167.1525 898.5,-2144.8823 898.5,-2009 898.5,-2009 898.5,-2009 898.5,-1514 898.5,-1400.4551 889.0256,-1370.7866 856.5,-1262 852.1116,-1247.3224 846.3702,-1232.0731 840.2898,-1217.566"/>
<polygon fill="#c0c0c0" stroke="#c0c0c0" stroke-width="2" points="843.4121,-1215.9661 836.2559,-1208.1533 836.978,-1218.7235 843.4121,-1215.9661"/>
</g>
<!-- 5 -->
<g id="node6" class="node">
<title>5</title>
<text text-anchor="start" x="146.5" y="-1205.6" font-family="sans" font-weight="bold" font-size="18.00" fill="#000000">nonpareil_infer</text>
<text text-anchor="start" x="7.5" y="-1181.8" font-family="sans" font-size="10.00" fill="#000000"> </text>
<text text-anchor="start" x="11.5" y="-1181.8" font-family="sans" font-weight="bold" font-size="14.00" fill="#000000">↪ input</text>
<text text-anchor="start" x="64.5" y="-1181.8" font-family="sans" font-size="10.00" fill="#000000"> </text>
<text text-anchor="start" x="7.5" y="-1162" font-family="monospace" font-size="10.00" fill="#000000">&lt;input function&gt;</text>
<text text-anchor="start" x="347.5" y="-1141.8" font-family="sans" font-size="10.00" fill="#000000"> </text>
<text text-anchor="start" x="351.5" y="-1141.8" font-family="sans" font-weight="bold" font-size="14.00" fill="#000000">output →</text>
<text text-anchor="start" x="412.5" y="-1141.8" font-family="sans" font-size="10.00" fill="#000000"> </text>
<text text-anchor="start" x="7.5" y="-1122" font-family="monospace" font-size="10.00" fill="#000000">stats/reads/nonpareil/{tool}/{sample}_{library}_{read_type_trim}.log</text>
<text text-anchor="start" x="7.5" y="-1104" font-family="monospace" font-size="10.00" fill="#000000">stats/reads/nonpareil/{tool}/{sample}_{library}_{read_type_trim}.npa</text>
<text text-anchor="start" x="7.5" y="-1086" font-family="monospace" font-size="10.00" fill="#000000">stats/reads/nonpareil/{tool}/{sample}_{library}_{read_type_trim}.npc</text>
<text text-anchor="start" x="7.5" y="-1068" font-family="monospace" font-size="10.00" fill="#000000">stats/reads/nonpareil/{tool}/{sample}_{library}_{read_type_trim}.npo</text>
<polygon fill="#57d982" stroke="#57d982" points="1.5,-1196 1.5,-1196 423.5,-1196 423.5,-1196 1.5,-1196"/>
<polygon fill="#57d982" stroke="#57d982" points="1.5,-1156 1.5,-1156 423.5,-1156 423.5,-1156 1.5,-1156"/>
<polygon fill="none" stroke="#57d982" stroke-width="2" points="1,-1059 1,-1225 422,-1225 422,-1059 1,-1059"/>
</g>
<!-- 3&#45;&gt;5 -->
<g id="edge14" class="edge">
<title>3&#45;&gt;5</title>
<path fill="none" stroke="#c0c0c0" stroke-width="2" d="M201.2559,-2269.8767C166.4853,-2207.9749 118.5,-2105.1325 118.5,-2009 118.5,-2009 118.5,-2009 118.5,-1514 118.5,-1400.5273 127.5858,-1370.8923 159.5,-1262 162.0324,-1253.3594 165.028,-1244.5162 168.2826,-1235.7406"/>
<polygon fill="#c0c0c0" stroke="#c0c0c0" stroke-width="2" points="171.6062,-1236.848 171.9061,-1226.2574 165.0673,-1234.3494 171.6062,-1236.848"/>
</g>
<!-- 6 -->
<g id="node7" class="node">
<title>6</title>
<text text-anchor="start" x="408" y="-2063.6" font-family="sans" font-weight="bold" font-size="18.00" fill="#000000">extend_tadpole</text>
<text text-anchor="start" x="263.5" y="-2039.8" font-family="sans" font-size="10.00" fill="#000000"> </text>
<text text-anchor="start" x="267.5" y="-2039.8" font-family="sans" font-weight="bold" font-size="14.00" fill="#000000">↪ input</text>
<text text-anchor="start" x="320.5" y="-2039.8" font-family="sans" font-size="10.00" fill="#000000"> </text>
<text text-anchor="start" x="263.5" y="-2020" font-family="monospace" font-size="10.00" fill="#000000">logs/reads/extend/loglog/{sample}_{library}_{read_type_trim}.log</text>
<text text-anchor="start" x="263.5" y="-2002" font-family="monospace" font-size="10.00" fill="#000000">temp/reads/extend/loglog/{sample}_{library}_{read_type_trim}.flag</text>
<text text-anchor="start" x="263.5" y="-1984" font-family="monospace" font-size="10.00" fill="#000000">temp/reads/merge_lanes/{sample}_{library}_{read_type_trim}.fastq.gz</text>
<text text-anchor="start" x="615.5" y="-1963.8" font-family="sans" font-size="10.00" fill="#000000"> </text>
<text text-anchor="start" x="619.5" y="-1963.8" font-family="sans" font-weight="bold" font-size="14.00" fill="#000000">output →</text>
<text text-anchor="start" x="680.5" y="-1963.8" font-family="sans" font-size="10.00" fill="#000000"> </text>
<text text-anchor="start" x="263.5" y="-1944" font-family="monospace" font-size="10.00" fill="#000000">temp/reads/extend/tadpole/{sample}_{library}_{read_type_trim}.fastq.gz</text>
<polygon fill="#d98257" stroke="#d98257" points="257.5,-2054 257.5,-2054 691.5,-2054 691.5,-2054 257.5,-2054"/>
<polygon fill="#d98257" stroke="#d98257" points="257.5,-1978 257.5,-1978 691.5,-1978 691.5,-1978 257.5,-1978"/>
<polygon fill="none" stroke="#d98257" stroke-width="2" points="257,-1935 257,-2083 690,-2083 690,-1935 257,-1935"/>
</g>
<!-- 3&#45;&gt;6 -->
<g id="edge17" class="edge">
<title>3&#45;&gt;6</title>
<path fill="none" stroke="#c0c0c0" stroke-width="2" d="M227.6732,-2269.8028C223.9012,-2225.2285 225.8361,-2163.7637 255.5,-2120 262.6451,-2109.4587 271.1071,-2099.864 280.4794,-2091.1387"/>
<polygon fill="#c0c0c0" stroke="#c0c0c0" stroke-width="2" points="283.0107,-2093.5725 288.1833,-2084.3261 278.3736,-2088.3287 283.0107,-2093.5725"/>
</g>
<!-- 7 -->
<g id="node8" class="node">
<title>7</title>
<text text-anchor="start" x="446" y="-2213.6" font-family="sans" font-weight="bold" font-size="18.00" fill="#000000">loglog</text>
<text text-anchor="start" x="272.5" y="-2189.8" font-family="sans" font-size="10.00" fill="#000000"> </text>
<text text-anchor="start" x="276.5" y="-2189.8" font-family="sans" font-weight="bold" font-size="14.00" fill="#000000">↪ input</text>
<text text-anchor="start" x="329.5" y="-2189.8" font-family="sans" font-size="10.00" fill="#000000"> </text>
<text text-anchor="start" x="272.5" y="-2170" font-family="monospace" font-size="10.00" fill="#000000">temp/reads/merge_lanes/{sample}_{library}_{read_type_trim}.fastq.gz</text>
<text text-anchor="start" x="606.5" y="-2149.8" font-family="sans" font-size="10.00" fill="#000000"> </text>
<text text-anchor="start" x="610.5" y="-2149.8" font-family="sans" font-weight="bold" font-size="14.00" fill="#000000">output →</text>
<text text-anchor="start" x="671.5" y="-2149.8" font-family="sans" font-size="10.00" fill="#000000"> </text>
<text text-anchor="start" x="272.5" y="-2130" font-family="monospace" font-size="10.00" fill="#000000">temp/reads/extend/loglog/{sample}_{library}_{read_type_trim}.flag</text>
<polygon fill="#d9d957" stroke="#d9d957" points="266.5,-2204 266.5,-2204 682.5,-2204 682.5,-2204 266.5,-2204"/>
<polygon fill="#d9d957" stroke="#d9d957" points="266.5,-2164 266.5,-2164 682.5,-2164 682.5,-2164 266.5,-2164"/>
<polygon fill="none" stroke="#d9d957" stroke-width="2" points="266,-2121 266,-2233 681,-2233 681,-2121 266,-2121"/>
</g>
<!-- 3&#45;&gt;7 -->
<g id="edge18" class="edge">
<title>3&#45;&gt;7</title>
<path fill="none" stroke="#c0c0c0" stroke-width="2" d="M326.7756,-2269.8635C342.3382,-2260.0138 358.5905,-2249.7276 374.3715,-2239.7395"/>
<polygon fill="#c0c0c0" stroke="#c0c0c0" stroke-width="2" points="376.505,-2242.5314 383.083,-2234.226 372.7613,-2236.6166 376.505,-2242.5314"/>
</g>
<!-- 9 -->
<g id="node10" class="node">
<title>9</title>
<text text-anchor="start" x="428.5" y="-1559.6" font-family="sans" font-weight="bold" font-size="18.00" fill="#000000">seqkit_grep</text>
<text text-anchor="start" x="268.5" y="-1535.8" font-family="sans" font-size="10.00" fill="#000000"> </text>
<text text-anchor="start" x="272.5" y="-1535.8" font-family="sans" font-weight="bold" font-size="14.00" fill="#000000">↪ input</text>
<text text-anchor="start" x="325.5" y="-1535.8" font-family="sans" font-size="10.00" fill="#000000"> </text>
<text text-anchor="start" x="268.5" y="-1516" font-family="monospace" font-size="10.00" fill="#000000">temp/reads/merge_lanes/{sample}_{library}_{read_type_trim}.fastq.gz</text>
<text text-anchor="start" x="268.5" y="-1498" font-family="monospace" font-size="10.00" fill="#000000">temp/reads/represent/fx2tab/{sample}_{library}_{read_type_trim}.tsv</text>
<text text-anchor="start" x="620.5" y="-1477.8" font-family="sans" font-size="10.00" fill="#000000"> </text>
<text text-anchor="start" x="624.5" y="-1477.8" font-family="sans" font-weight="bold" font-size="14.00" fill="#000000">output →</text>
<text text-anchor="start" x="685.5" y="-1477.8" font-family="sans" font-size="10.00" fill="#000000"> </text>
<text text-anchor="start" x="268.5" y="-1458" font-family="monospace" font-size="10.00" fill="#000000">temp/reads/represent/grep/{sample}_{library}_{read_type_trim}.fastq.gz</text>
<polygon fill="#57add9" stroke="#57add9" points="262.5,-1550 262.5,-1550 696.5,-1550 696.5,-1550 262.5,-1550"/>
<polygon fill="#57add9" stroke="#57add9" points="262.5,-1492 262.5,-1492 696.5,-1492 696.5,-1492 262.5,-1492"/>
<polygon fill="none" stroke="#57add9" stroke-width="2" points="262,-1449 262,-1579 695,-1579 695,-1449 262,-1449"/>
</g>
<!-- 3&#45;&gt;9 -->
<g id="edge21" class="edge">
<title>3&#45;&gt;9</title>
<path fill="none" stroke="#c0c0c0" stroke-width="2" d="M224.3519,-2269.8524C211.9477,-2206.4281 194.5,-2100.8848 194.5,-2009 194.5,-2009 194.5,-2009 194.5,-1832 194.5,-1731.6185 194.6991,-1691.8069 260.5,-1616 270.0696,-1604.9753 281.0874,-1595.0599 292.9801,-1586.1565"/>
<polygon fill="#c0c0c0" stroke="#c0c0c0" stroke-width="2" points="295.2621,-1588.8269 301.3461,-1580.1531 291.1809,-1583.1397 295.2621,-1588.8269"/>
</g>
<!-- 4 -->
<g id="node5" class="node">
<title>4</title>
<text text-anchor="start" x="166" y="-1001.6" font-family="sans" font-weight="bold" font-size="18.00" fill="#000000">nonpareil_plot</text>
<text text-anchor="start" x="18.5" y="-977.8" font-family="sans" font-size="10.00" fill="#000000"> </text>
<text text-anchor="start" x="22.5" y="-977.8" font-family="sans" font-weight="bold" font-size="14.00" fill="#000000">↪ input</text>
<text text-anchor="start" x="75.5" y="-977.8" font-family="sans" font-size="10.00" fill="#000000"> </text>
<text text-anchor="start" x="18.5" y="-958" font-family="monospace" font-size="10.00" fill="#000000">stats/reads/nonpareil/{tool}/{sample}_{library}_{read_type_trim}.npo</text>
<text text-anchor="start" x="370.5" y="-937.8" font-family="sans" font-size="10.00" fill="#000000"> </text>
<text text-anchor="start" x="374.5" y="-937.8" font-family="sans" font-weight="bold" font-size="14.00" fill="#000000">output →</text>
<text text-anchor="start" x="435.5" y="-937.8" font-family="sans" font-size="10.00" fill="#000000"> </text>
<text text-anchor="start" x="18.5" y="-918" font-family="monospace" font-size="10.00" fill="#000000">reports/reads/nonpareil/{tool}/{sample}_{library}_{read_type_trim}.pdf</text>
<text text-anchor="start" x="18.5" y="-900" font-family="monospace" font-size="10.00" fill="#000000">stats/reads/nonpareil/{tool}/{sample}_{library}_{read_type_trim}.json</text>
<text text-anchor="start" x="18.5" y="-882" font-family="monospace" font-size="10.00" fill="#000000">stats/reads/nonpareil/{tool}/{sample}_{library}_{read_type_trim}.tsv</text>
<polygon fill="#57d9ad" stroke="#57d9ad" points="12.5,-992 12.5,-992 446.5,-992 446.5,-992 12.5,-992"/>
<polygon fill="#57d9ad" stroke="#57d9ad" points="12.5,-952 12.5,-952 446.5,-952 446.5,-952 12.5,-952"/>
<polygon fill="none" stroke="#57d9ad" stroke-width="2" points="12,-873 12,-1021 445,-1021 445,-873 12,-873"/>
</g>
<!-- 4&#45;&gt;1 -->
<g id="edge3" class="edge">
<title>4&#45;&gt;1</title>
<path fill="none" stroke="#c0c0c0" stroke-width="2" d="M319.6516,-871.9541C377.3789,-824.4268 454.8303,-760.6604 528.703,-699.8404"/>
<polygon fill="#c0c0c0" stroke="#c0c0c0" stroke-width="2" points="531.2672,-702.2629 536.7627,-693.2047 526.8179,-696.8588 531.2672,-702.2629"/>
</g>
<!-- 5&#45;&gt;4 -->
<g id="edge10" class="edge">
<title>5&#45;&gt;4</title>
<path fill="none" stroke="#c0c0c0" stroke-width="2" d="M218.8329,-1057.8876C219.5676,-1049.46 220.3142,-1040.8965 221.0501,-1032.4552"/>
<polygon fill="#c0c0c0" stroke="#c0c0c0" stroke-width="2" points="224.5591,-1032.503 221.9409,-1022.2368 217.5855,-1031.895 224.5591,-1032.503"/>
</g>
<!-- 6&#45;&gt;2 -->
<g id="edge9" class="edge">
<title>6&#45;&gt;2</title>
<path fill="none" stroke="#c0c0c0" stroke-width="2" d="M653.6873,-1933.8841C754.6648,-1878.5388 860.5,-1792.1182 860.5,-1673 860.5,-1673 860.5,-1673 860.5,-1514 860.5,-1410.5135 838.6806,-1292.6819 822.0413,-1217.8704"/>
<polygon fill="#c0c0c0" stroke="#c0c0c0" stroke-width="2" points="825.4437,-1217.0469 819.8339,-1208.0591 818.6144,-1218.5835 825.4437,-1217.0469"/>
</g>
<!-- 6&#45;&gt;5 -->
<g id="edge15" class="edge">
<title>6&#45;&gt;5</title>
<path fill="none" stroke="#c0c0c0" stroke-width="2" d="M290.2605,-1933.8739C275.9443,-1923.2844 262.7189,-1911.368 251.5,-1898 159.946,-1788.9075 150.2156,-1402.6653 172.5,-1262 173.8573,-1253.4326 175.7277,-1244.6445 177.9202,-1235.909"/>
<polygon fill="#c0c0c0" stroke="#c0c0c0" stroke-width="2" points="181.3456,-1236.6461 180.5221,-1226.0833 174.5788,-1234.8541 181.3456,-1236.6461"/>
</g>
<!-- 8 -->
<g id="node9" class="node">
<title>8</title>
<text text-anchor="start" x="445.5" y="-1877.6" font-family="sans" font-weight="bold" font-size="18.00" fill="#000000">vsearch</text>
<text text-anchor="start" x="268.5" y="-1853.8" font-family="sans" font-size="10.00" fill="#000000"> </text>
<text text-anchor="start" x="272.5" y="-1853.8" font-family="sans" font-weight="bold" font-size="14.00" fill="#000000">↪ input</text>
<text text-anchor="start" x="325.5" y="-1853.8" font-family="sans" font-size="10.00" fill="#000000"> </text>
<text text-anchor="start" x="268.5" y="-1834" font-family="monospace" font-size="10.00" fill="#000000">temp/reads/extend/tadpole/{sample}_{library}_{read_type_trim}.fastq.gz</text>
<text text-anchor="start" x="620.5" y="-1813.8" font-family="sans" font-size="10.00" fill="#000000"> </text>
<text text-anchor="start" x="624.5" y="-1813.8" font-family="sans" font-weight="bold" font-size="14.00" fill="#000000">output →</text>
<text text-anchor="start" x="685.5" y="-1813.8" font-family="sans" font-size="10.00" fill="#000000"> </text>
<text text-anchor="start" x="268.5" y="-1794" font-family="monospace" font-size="10.00" fill="#000000">stats/reads/derep/{sample}_{library}_{read_type_trim}.log</text>
<text text-anchor="start" x="268.5" y="-1776" font-family="monospace" font-size="10.00" fill="#000000">temp/reads/derep/{sample}_{library}_{read_type_trim}.fastq.gz</text>
<polygon fill="#5782d9" stroke="#5782d9" points="262.5,-1868 262.5,-1868 696.5,-1868 696.5,-1868 262.5,-1868"/>
<polygon fill="#5782d9" stroke="#5782d9" points="262.5,-1828 262.5,-1828 696.5,-1828 696.5,-1828 262.5,-1828"/>
<polygon fill="none" stroke="#5782d9" stroke-width="2" points="262,-1767 262,-1897 695,-1897 695,-1767 262,-1767"/>
</g>
<!-- 6&#45;&gt;8 -->
<g id="edge19" class="edge">
<title>6&#45;&gt;8</title>
<path fill="none" stroke="#c0c0c0" stroke-width="2" d="M475.6205,-1933.9361C475.8589,-1925.4959 476.102,-1916.8888 476.3409,-1908.4315"/>
<polygon fill="#c0c0c0" stroke="#c0c0c0" stroke-width="2" points="479.8458,-1908.306 476.6296,-1898.2111 472.8486,-1908.1083 479.8458,-1908.306"/>
</g>
<!-- 7&#45;&gt;6 -->
<g id="edge16" class="edge">
<title>7&#45;&gt;6</title>
<path fill="none" stroke="#c0c0c0" stroke-width="2" d="M473.5,-2119.6538C473.5,-2111.4553 473.5,-2102.8789 473.5,-2094.2845"/>
<polygon fill="#c0c0c0" stroke="#c0c0c0" stroke-width="2" points="477.0001,-2094.2088 473.5,-2084.2088 470.0001,-2094.2088 477.0001,-2094.2088"/>
</g>
<!-- 8&#45;&gt;2 -->
<g id="edge6" class="edge">
<title>8&#45;&gt;2</title>
<path fill="none" stroke="#c0c0c0" stroke-width="2" d="M655.3161,-1765.9632C670.5281,-1755.5436 684.6177,-1743.6166 696.5,-1730 823.074,-1584.9516 822.3828,-1341.3004 812.4122,-1218.1568"/>
<polygon fill="#c0c0c0" stroke="#c0c0c0" stroke-width="2" points="815.8885,-1217.7285 811.5519,-1208.0618 808.9137,-1218.3229 815.8885,-1217.7285"/>
</g>
<!-- 8&#45;&gt;5 -->
<g id="edge12" class="edge">
<title>8&#45;&gt;5</title>
<path fill="none" stroke="#c0c0c0" stroke-width="2" d="M296.8338,-1765.9319C283.0873,-1755.5789 270.647,-1743.6738 260.5,-1730 153.0715,-1585.2328 170.1879,-1361.6308 191.383,-1235.9948"/>
<polygon fill="#c0c0c0" stroke="#c0c0c0" stroke-width="2" points="194.8549,-1236.4572 193.1115,-1226.0068 187.9575,-1235.2634 194.8549,-1236.4572"/>
</g>
<!-- 10 -->
<g id="node11" class="node">
<title>10</title>
<text text-anchor="start" x="421.5" y="-1709.6" font-family="sans" font-weight="bold" font-size="18.00" fill="#000000">seqkit_fx2tab</text>
<text text-anchor="start" x="277.5" y="-1685.8" font-family="sans" font-size="10.00" fill="#000000"> </text>
<text text-anchor="start" x="281.5" y="-1685.8" font-family="sans" font-weight="bold" font-size="14.00" fill="#000000">↪ input</text>
<text text-anchor="start" x="334.5" y="-1685.8" font-family="sans" font-size="10.00" fill="#000000"> </text>
<text text-anchor="start" x="277.5" y="-1666" font-family="monospace" font-size="10.00" fill="#000000">temp/reads/derep/{sample}_{library}_{read_type_trim}.fastq.gz</text>
<text text-anchor="start" x="611.5" y="-1645.8" font-family="sans" font-size="10.00" fill="#000000"> </text>
<text text-anchor="start" x="615.5" y="-1645.8" font-family="sans" font-weight="bold" font-size="14.00" fill="#000000">output →</text>
<text text-anchor="start" x="676.5" y="-1645.8" font-family="sans" font-size="10.00" fill="#000000"> </text>
<text text-anchor="start" x="277.5" y="-1626" font-family="monospace" font-size="10.00" fill="#000000">temp/reads/represent/fx2tab/{sample}_{library}_{read_type_trim}.tsv</text>
<polygon fill="#57d9d9" stroke="#57d9d9" points="271.5,-1700 271.5,-1700 687.5,-1700 687.5,-1700 271.5,-1700"/>
<polygon fill="#57d9d9" stroke="#57d9d9" points="271.5,-1660 271.5,-1660 687.5,-1660 687.5,-1660 271.5,-1660"/>
<polygon fill="none" stroke="#57d9d9" stroke-width="2" points="271,-1617 271,-1729 686,-1729 686,-1617 271,-1617"/>
</g>
<!-- 8&#45;&gt;10 -->
<g id="edge22" class="edge">
<title>8&#45;&gt;10</title>
<path fill="none" stroke="#c0c0c0" stroke-width="2" d="M478.5,-1765.951C478.5,-1757.5194 478.5,-1748.8799 478.5,-1740.4269"/>
<polygon fill="#c0c0c0" stroke="#c0c0c0" stroke-width="2" points="482.0001,-1740.235 478.5,-1730.235 475.0001,-1740.2351 482.0001,-1740.235"/>
</g>
<!-- 9&#45;&gt;2 -->
<g id="edge5" class="edge">
<title>9&#45;&gt;2</title>
<path fill="none" stroke="#c0c0c0" stroke-width="2" d="M696.0721,-1452.7199C727.9862,-1439.9566 754.0057,-1426.0818 765.5,-1412 789.0729,-1383.1205 798.0236,-1287.5735 801.4216,-1218.3252"/>
<polygon fill="#c0c0c0" stroke="#c0c0c0" stroke-width="2" points="804.9189,-1218.4608 801.8837,-1208.3101 797.9264,-1218.1381 804.9189,-1218.4608"/>
</g>
<!-- 9&#45;&gt;5 -->
<g id="edge11" class="edge">
<title>9&#45;&gt;5</title>
<path fill="none" stroke="#c0c0c0" stroke-width="2" d="M288.4037,-1447.9308C274.4812,-1437.5964 261.8633,-1425.6951 251.5,-1412 230.9316,-1384.8188 220.8484,-1302.9185 215.9614,-1236.3843"/>
<polygon fill="#c0c0c0" stroke="#c0c0c0" stroke-width="2" points="219.443,-1235.9982 215.2492,-1226.2688 212.4603,-1236.4899 219.443,-1235.9982"/>
</g>
<!-- 11 -->
<g id="node12" class="node">
<title>11</title>
<text text-anchor="start" x="442" y="-1391.6" font-family="sans" font-weight="bold" font-size="18.00" fill="#000000">low_complexity</text>
<text text-anchor="start" x="268.5" y="-1367.8" font-family="sans" font-size="10.00" fill="#000000"> </text>
<text text-anchor="start" x="272.5" y="-1367.8" font-family="sans" font-weight="bold" font-size="14.00" fill="#000000">↪ input</text>
<text text-anchor="start" x="325.5" y="-1367.8" font-family="sans" font-size="10.00" fill="#000000"> </text>
<text text-anchor="start" x="268.5" y="-1348" font-family="monospace" font-size="10.00" fill="#000000">temp/reads/represent/grep/{sample}_{library}_{read_type_trim}.fastq.gz</text>
<text text-anchor="start" x="680.5" y="-1327.8" font-family="sans" font-size="10.00" fill="#000000"> </text>
<text text-anchor="start" x="684.5" y="-1327.8" font-family="sans" font-weight="bold" font-size="14.00" fill="#000000">output →</text>
<text text-anchor="start" x="745.5" y="-1327.8" font-family="sans" font-size="10.00" fill="#000000"> </text>
<text text-anchor="start" x="268.5" y="-1308" font-family="monospace" font-size="10.00" fill="#000000">results/reads/low_complexity/{sample}_{library}_{read_type_trim}.fastq.gz</text>
<text text-anchor="start" x="268.5" y="-1290" font-family="monospace" font-size="10.00" fill="#000000">stats/reads/low_complexity/{sample}_{library}_{read_type_trim}.txt</text>
<text text-anchor="start" x="268.5" y="-1272" font-family="monospace" font-size="10.00" fill="#000000">temp/reads/low_complexity/{sample}_{library}_{read_type_trim}.discarded.fastq.gz</text>
<polygon fill="#add957" stroke="#add957" points="262.5,-1382 262.5,-1382 756.5,-1382 756.5,-1382 262.5,-1382"/>
<polygon fill="#add957" stroke="#add957" points="262.5,-1342 262.5,-1342 756.5,-1342 756.5,-1342 262.5,-1342"/>
<polygon fill="none" stroke="#add957" stroke-width="2" points="262,-1263 262,-1411 755,-1411 755,-1263 262,-1263"/>
</g>
<!-- 9&#45;&gt;11 -->
<g id="edge23" class="edge">
<title>9&#45;&gt;11</title>
<path fill="none" stroke="#c0c0c0" stroke-width="2" d="M489.7136,-1447.84C491.137,-1439.4415 492.6092,-1430.7559 494.074,-1422.1133"/>
<polygon fill="#c0c0c0" stroke="#c0c0c0" stroke-width="2" points="497.5665,-1422.4516 495.7869,-1412.0073 490.6649,-1421.2818 497.5665,-1422.4516"/>
</g>
<!-- 10&#45;&gt;9 -->
<g id="edge20" class="edge">
<title>10&#45;&gt;9</title>
<path fill="none" stroke="#c0c0c0" stroke-width="2" d="M478.5,-1615.5974C478.5,-1607.4394 478.5,-1598.9443 478.5,-1590.4945"/>
<polygon fill="#c0c0c0" stroke="#c0c0c0" stroke-width="2" points="482.0001,-1590.2358 478.5,-1580.2358 475.0001,-1590.2359 482.0001,-1590.2358"/>
</g>
<!-- 11&#45;&gt;0 -->
<g id="edge2" class="edge">
<title>11&#45;&gt;0</title>
<path fill="none" stroke="#c0c0c0" stroke-width="2" d="M502.6872,-1261.7859C486.4717,-1037.6478 447.0584,-377.6863 528.5,-182 532.4967,-172.3967 537.7747,-163.1672 543.8447,-154.4239"/>
<polygon fill="#c0c0c0" stroke="#c0c0c0" stroke-width="2" points="546.791,-156.325 549.8911,-146.1938 541.1498,-152.1805 546.791,-156.325"/>
</g>
<!-- 11&#45;&gt;2 -->
<g id="edge7" class="edge">
<title>11&#45;&gt;2</title>
<path fill="none" stroke="#c0c0c0" stroke-width="2" d="M622.1327,-1261.8868C645.9847,-1246.1203 671.0857,-1229.5281 694.7538,-1213.8831"/>
<polygon fill="#c0c0c0" stroke="#c0c0c0" stroke-width="2" points="696.9916,-1216.5994 703.4038,-1208.1653 693.1316,-1210.7599 696.9916,-1216.5994"/>
</g>
<!-- 11&#45;&gt;5 -->
<g id="edge13" class="edge">
<title>11&#45;&gt;5</title>
<path fill="none" stroke="#c0c0c0" stroke-width="2" d="M394.0969,-1261.8868C379.0682,-1252.0195 363.5471,-1241.8289 348.1952,-1231.7494"/>
<polygon fill="#c0c0c0" stroke="#c0c0c0" stroke-width="2" points="349.9683,-1228.7266 339.688,-1226.1639 346.1264,-1234.5781 349.9683,-1228.7266"/>
</g>
</g>
</svg>
