<?xml version="1.0" encoding="UTF-8" standalone="no"?>
<!DOCTYPE svg PUBLIC "-//W3C//DTD SVG 1.1//EN"
 "http://www.w3.org/Graphics/SVG/1.1/DTD/svg11.dtd">
<!-- Generated by graphviz version 2.40.1 (0)
 -->
<!-- Title: snakemake_dag Pages: 1 -->
<svg width="1425pt" height="2392pt"
 viewBox="0.00 0.00 1425.00 2392.00" xmlns="http://www.w3.org/2000/svg" xmlns:xlink="http://www.w3.org/1999/xlink">
<g id="graph0" class="graph" transform="scale(1 1) rotate(0) translate(4 2388)">
<title>snakemake_dag</title>
<polygon fill="#ffffff" stroke="transparent" points="-4,4 -4,-2388 1421,-2388 1421,4 -4,4"/>
<!-- 0 -->
<g id="node1" class="node">
<title>0</title>
<text text-anchor="start" x="835.5" y="-125.6" font-family="sans" font-weight="bold" font-size="18.00" fill="#000000">all</text>
<text text-anchor="start" x="650.5" y="-101.8" font-family="sans" font-size="10.00" fill="#000000"> </text>
<text text-anchor="start" x="654.5" y="-101.8" font-family="sans" font-weight="bold" font-size="14.00" fill="#000000">↪ input</text>
<text text-anchor="start" x="707.5" y="-101.8" font-family="sans" font-size="10.00" fill="#000000"> </text>
<text text-anchor="start" x="650.5" y="-82" font-family="monospace" font-size="10.00" fill="#000000">reports/multiqc.html</text>
<text text-anchor="start" x="650.5" y="-64" font-family="monospace" font-size="10.00" fill="#000000">results/reads/low_complexity/HD827sonic_1_lib1_collapsed.fastq.gz</text>
<text text-anchor="start" x="650.5" y="-46" font-family="monospace" font-size="10.00" fill="#000000">results/reads/low_complexity/HD827sonic_2_lib1_collapsed.fastq.gz</text>
<text text-anchor="start" x="650.5" y="-28" font-family="monospace" font-size="10.00" fill="#000000">results/reads/low_complexity/HD827sonic_2_lib2_collapsed.fastq.gz</text>
<text text-anchor="start" x="1034.5" y="-10" font-family="sans" font-size="10.00" fill="#000000"> &#160;</text>
<polygon fill="#d95757" stroke="#d95757" points="644.5,-116 644.5,-116 1048.5,-116 1048.5,-116 644.5,-116"/>
<polygon fill="#d95757" stroke="#d95757" points="644.5,-22 644.5,-22 1048.5,-22 1048.5,-22 644.5,-22"/>
<polygon fill="none" stroke="#d95757" stroke-width="2" points="644,-1 644,-145 1047,-145 1047,-1 644,-1"/>
</g>
<!-- 1 -->
<g id="node2" class="node">
<title>1</title>
<text text-anchor="start" x="935.5" y="-815.6" font-family="sans" font-weight="bold" font-size="18.00" fill="#000000">multiqc</text>
<text text-anchor="start" x="760.5" y="-791.8" font-family="sans" font-size="10.00" fill="#000000"> </text>
<text text-anchor="start" x="764.5" y="-791.8" font-family="sans" font-weight="bold" font-size="14.00" fill="#000000">↪ input</text>
<text text-anchor="start" x="817.5" y="-791.8" font-family="sans" font-size="10.00" fill="#000000"> </text>
<text text-anchor="start" x="760.5" y="-772" font-family="monospace" font-size="10.00" fill="#000000">stats/reads/derep/HD827sonic_1_lib1_collapsed.tsv</text>
<text text-anchor="start" x="760.5" y="-754" font-family="monospace" font-size="10.00" fill="#000000">stats/reads/derep/HD827sonic_2_lib1_collapsed.tsv</text>
<text text-anchor="start" x="760.5" y="-736" font-family="monospace" font-size="10.00" fill="#000000">stats/reads/derep/HD827sonic_2_lib2_collapsed.tsv</text>
<text text-anchor="start" x="760.5" y="-718" font-family="monospace" font-size="10.00" fill="#000000">stats/reads/extend/tadpole/HD827sonic_1_lib1_collapsed.tsv</text>
<text text-anchor="start" x="760.5" y="-700" font-family="monospace" font-size="10.00" fill="#000000">stats/reads/extend/tadpole/HD827sonic_2_lib1_collapsed.tsv</text>
<text text-anchor="start" x="760.5" y="-682" font-family="monospace" font-size="10.00" fill="#000000">stats/reads/extend/tadpole/HD827sonic_2_lib2_collapsed.tsv</text>
<text text-anchor="start" x="760.5" y="-664" font-family="monospace" font-size="10.00" fill="#000000">stats/reads/low_complexity/HD827sonic_1_lib1_collapsed.tsv</text>
<text text-anchor="start" x="760.5" y="-646" font-family="monospace" font-size="10.00" fill="#000000">stats/reads/low_complexity/HD827sonic_2_lib1_collapsed.tsv</text>
<text text-anchor="start" x="760.5" y="-628" font-family="monospace" font-size="10.00" fill="#000000">stats/reads/low_complexity/HD827sonic_2_lib2_collapsed.tsv</text>
<text text-anchor="start" x="760.5" y="-610" font-family="monospace" font-size="10.00" fill="#000000">stats/reads/merge_lanes/HD827sonic_1_lib1_collapsed.tsv</text>
<text text-anchor="start" x="760.5" y="-592" font-family="monospace" font-size="10.00" fill="#000000">stats/reads/merge_lanes/HD827sonic_2_lib1_collapsed.tsv</text>
<text text-anchor="start" x="760.5" y="-574" font-family="monospace" font-size="10.00" fill="#000000">stats/reads/merge_lanes/HD827sonic_2_lib2_collapsed.tsv</text>
<text text-anchor="start" x="760.5" y="-556" font-family="monospace" font-size="10.00" fill="#000000">stats/reads/nonpareil/derep/HD827sonic_1_lib1_collapsed.json</text>
<text text-anchor="start" x="760.5" y="-538" font-family="monospace" font-size="10.00" fill="#000000">stats/reads/nonpareil/derep/HD827sonic_2_lib1_collapsed.json</text>
<text text-anchor="start" x="760.5" y="-520" font-family="monospace" font-size="10.00" fill="#000000">stats/reads/nonpareil/derep/HD827sonic_2_lib2_collapsed.json</text>
<text text-anchor="start" x="760.5" y="-502" font-family="monospace" font-size="10.00" fill="#000000">stats/reads/nonpareil/extend/tadpole/HD827sonic_1_lib1_collapsed.json</text>
<text text-anchor="start" x="760.5" y="-484" font-family="monospace" font-size="10.00" fill="#000000">stats/reads/nonpareil/extend/tadpole/HD827sonic_2_lib1_collapsed.json</text>
<text text-anchor="start" x="760.5" y="-466" font-family="monospace" font-size="10.00" fill="#000000">stats/reads/nonpareil/extend/tadpole/HD827sonic_2_lib2_collapsed.json</text>
<text text-anchor="start" x="760.5" y="-448" font-family="monospace" font-size="10.00" fill="#000000">stats/reads/nonpareil/low_complexity/HD827sonic_1_lib1_collapsed.json</text>
<text text-anchor="start" x="760.5" y="-430" font-family="monospace" font-size="10.00" fill="#000000">stats/reads/nonpareil/low_complexity/HD827sonic_2_lib1_collapsed.json</text>
<text text-anchor="start" x="760.5" y="-412" font-family="monospace" font-size="10.00" fill="#000000">stats/reads/nonpareil/low_complexity/HD827sonic_2_lib2_collapsed.json</text>
<text text-anchor="start" x="760.5" y="-394" font-family="monospace" font-size="10.00" fill="#000000">stats/reads/nonpareil/merge_lanes/HD827sonic_1_lib1_collapsed.json</text>
<text text-anchor="start" x="760.5" y="-376" font-family="monospace" font-size="10.00" fill="#000000">stats/reads/nonpareil/merge_lanes/HD827sonic_2_lib1_collapsed.json</text>
<text text-anchor="start" x="760.5" y="-358" font-family="monospace" font-size="10.00" fill="#000000">stats/reads/nonpareil/merge_lanes/HD827sonic_2_lib2_collapsed.json</text>
<text text-anchor="start" x="760.5" y="-340" font-family="monospace" font-size="10.00" fill="#000000">stats/reads/nonpareil/represent/grep/HD827sonic_1_lib1_collapsed.json</text>
<text text-anchor="start" x="760.5" y="-322" font-family="monospace" font-size="10.00" fill="#000000">stats/reads/nonpareil/represent/grep/HD827sonic_2_lib1_collapsed.json</text>
<text text-anchor="start" x="760.5" y="-304" font-family="monospace" font-size="10.00" fill="#000000">stats/reads/nonpareil/represent/grep/HD827sonic_2_lib2_collapsed.json</text>
<text text-anchor="start" x="760.5" y="-286" font-family="monospace" font-size="10.00" fill="#000000">stats/reads/represent/grep/HD827sonic_1_lib1_collapsed.tsv</text>
<text text-anchor="start" x="760.5" y="-268" font-family="monospace" font-size="10.00" fill="#000000">stats/reads/represent/grep/HD827sonic_2_lib1_collapsed.tsv</text>
<text text-anchor="start" x="760.5" y="-250" font-family="monospace" font-size="10.00" fill="#000000">stats/reads/represent/grep/HD827sonic_2_lib2_collapsed.tsv</text>
<text text-anchor="start" x="1106.5" y="-229.8" font-family="sans" font-size="10.00" fill="#000000"> </text>
<text text-anchor="start" x="1110.5" y="-229.8" font-family="sans" font-weight="bold" font-size="14.00" fill="#000000">output →</text>
<text text-anchor="start" x="1171.5" y="-229.8" font-family="sans" font-size="10.00" fill="#000000"> </text>
<text text-anchor="start" x="760.5" y="-210" font-family="monospace" font-size="10.00" fill="#000000">reports/multiqc.html</text>
<text text-anchor="start" x="760.5" y="-192" font-family="monospace" font-size="10.00" fill="#000000">reports/multiqc_data.zip</text>
<polygon fill="#82d957" stroke="#82d957" points="754.5,-806 754.5,-806 1182.5,-806 1182.5,-806 754.5,-806"/>
<polygon fill="#82d957" stroke="#82d957" points="754.5,-244 754.5,-244 1182.5,-244 1182.5,-244 754.5,-244"/>
<polygon fill="none" stroke="#82d957" stroke-width="2" points="754,-183 754,-835 1181,-835 1181,-183 754,-183"/>
</g>
<!-- 1&#45;&gt;0 -->
<g id="edge1" class="edge">
<title>1&#45;&gt;0</title>
<path fill="none" stroke="#c0c0c0" stroke-width="2" d="M875.971,-181.8965C873.4451,-172.8693 871.0132,-164.1784 868.701,-155.9149"/>
<polygon fill="#c0c0c0" stroke="#c0c0c0" stroke-width="2" points="872.0068,-154.7403 865.9415,-146.0534 865.2657,-156.6266 872.0068,-154.7403"/>
</g>
<!-- 2 -->
<g id="node3" class="node">
<title>2</title>
<text text-anchor="start" x="1076.5" y="-1178.6" font-family="sans" font-weight="bold" font-size="18.00" fill="#000000">seqkit_stats</text>
<text text-anchor="start" x="845.5" y="-1154.8" font-family="sans" font-size="10.00" fill="#000000"> </text>
<text text-anchor="start" x="849.5" y="-1154.8" font-family="sans" font-weight="bold" font-size="14.00" fill="#000000">↪ input</text>
<text text-anchor="start" x="902.5" y="-1154.8" font-family="sans" font-size="10.00" fill="#000000"> </text>
<text text-anchor="start" x="845.5" y="-1135" font-family="monospace" font-size="10.00" fill="#000000">&lt;input function&gt;</text>
<text text-anchor="start" x="1341.5" y="-1114.8" font-family="sans" font-size="10.00" fill="#000000"> </text>
<text text-anchor="start" x="1345.5" y="-1114.8" font-family="sans" font-weight="bold" font-size="14.00" fill="#000000">output →</text>
<text text-anchor="start" x="1406.5" y="-1114.8" font-family="sans" font-size="10.00" fill="#000000"> </text>
<text text-anchor="start" x="845.5" y="-1095" font-family="monospace" font-size="10.00" fill="#000000">stats/reads/{tool}/{sample,HD827sonic_1|HD827sonic_2}_{library,lib1|lib2}_{read_type_trim}.tsv</text>
<polygon fill="#57add9" stroke="#57add9" points="839.5,-1169 839.5,-1169 1417.5,-1169 1417.5,-1169 839.5,-1169"/>
<polygon fill="#57add9" stroke="#57add9" points="839.5,-1129 839.5,-1129 1417.5,-1129 1417.5,-1129 839.5,-1129"/>
<polygon fill="none" stroke="#57add9" stroke-width="2" points="839,-1086 839,-1198 1416,-1198 1416,-1086 839,-1086"/>
</g>
<!-- 2&#45;&gt;1 -->
<g id="edge4" class="edge">
<title>2&#45;&gt;1</title>
<path fill="none" stroke="#c0c0c0" stroke-width="2" d="M1113.0896,-1084.989C1098.9381,-1029.0021 1076.1207,-938.7306 1052.706,-846.0963"/>
<polygon fill="#c0c0c0" stroke="#c0c0c0" stroke-width="2" points="1056.0622,-845.0914 1050.2183,-836.2541 1049.2756,-846.8069 1056.0622,-845.0914"/>
</g>
<!-- 3 -->
<g id="node4" class="node">
<title>3</title>
<text text-anchor="start" x="288.5" y="-2363.6" font-family="sans" font-weight="bold" font-size="18.00" fill="#000000">merge_lanes</text>
<text text-anchor="start" x="33.5" y="-2339.8" font-family="sans" font-size="10.00" fill="#000000"> </text>
<text text-anchor="start" x="37.5" y="-2339.8" font-family="sans" font-weight="bold" font-size="14.00" fill="#000000">↪ input</text>
<text text-anchor="start" x="90.5" y="-2339.8" font-family="sans" font-size="10.00" fill="#000000"> </text>
<text text-anchor="start" x="33.5" y="-2320" font-family="monospace" font-size="10.00" fill="#000000">&lt;input function&gt;</text>
<text text-anchor="start" x="583.5" y="-2299.8" font-family="sans" font-size="10.00" fill="#000000"> </text>
<text text-anchor="start" x="587.5" y="-2299.8" font-family="sans" font-weight="bold" font-size="14.00" fill="#000000">output →</text>
<text text-anchor="start" x="648.5" y="-2299.8" font-family="sans" font-size="10.00" fill="#000000"> </text>
<text text-anchor="start" x="33.5" y="-2280" font-family="monospace" font-size="10.00" fill="#000000">temp/reads/merge_lanes/{sample,HD827sonic_1|HD827sonic_2}_{library,lib1|lib2}_{read_type_trim}.fastq.gz</text>
<polygon fill="#add957" stroke="#add957" points="27.5,-2354 27.5,-2354 659.5,-2354 659.5,-2354 27.5,-2354"/>
<polygon fill="#add957" stroke="#add957" points="27.5,-2314 27.5,-2314 659.5,-2314 659.5,-2314 27.5,-2314"/>
<polygon fill="none" stroke="#add957" stroke-width="2" points="27,-2271 27,-2383 658,-2383 658,-2271 27,-2271"/>
</g>
<!-- 3&#45;&gt;2 -->
<g id="edge5" class="edge">
<title>3&#45;&gt;2</title>
<path fill="none" stroke="#c0c0c0" stroke-width="2" d="M659.2365,-2301.6416C797.0947,-2286.6784 940.8955,-2264.5781 1001.5,-2234 1126.6431,-2170.8589 1222.5,-2149.1699 1222.5,-2009 1222.5,-2009 1222.5,-2009 1222.5,-1514 1222.5,-1400.4551 1213.0256,-1370.7866 1180.5,-1262 1175.188,-1244.2334 1167.8937,-1225.6293 1160.4153,-1208.5176"/>
<polygon fill="#c0c0c0" stroke="#c0c0c0" stroke-width="2" points="1163.5211,-1206.8884 1156.2531,-1199.1795 1157.1274,-1209.7382 1163.5211,-1206.8884"/>
</g>
<!-- 5 -->
<g id="node6" class="node">
<title>5</title>
<text text-anchor="start" x="254.5" y="-1205.6" font-family="sans" font-weight="bold" font-size="18.00" fill="#000000">nonpareil_infer</text>
<text text-anchor="start" x="7.5" y="-1181.8" font-family="sans" font-size="10.00" fill="#000000"> </text>
<text text-anchor="start" x="11.5" y="-1181.8" font-family="sans" font-weight="bold" font-size="14.00" fill="#000000">↪ input</text>
<text text-anchor="start" x="64.5" y="-1181.8" font-family="sans" font-size="10.00" fill="#000000"> </text>
<text text-anchor="start" x="7.5" y="-1162" font-family="monospace" font-size="10.00" fill="#000000">&lt;input function&gt;</text>
<text text-anchor="start" x="563.5" y="-1141.8" font-family="sans" font-size="10.00" fill="#000000"> </text>
<text text-anchor="start" x="567.5" y="-1141.8" font-family="sans" font-weight="bold" font-size="14.00" fill="#000000">output →</text>
<text text-anchor="start" x="628.5" y="-1141.8" font-family="sans" font-size="10.00" fill="#000000"> </text>
<text text-anchor="start" x="7.5" y="-1122" font-family="monospace" font-size="10.00" fill="#000000">stats/reads/nonpareil/{tool}/{sample,HD827sonic_1|HD827sonic_2}_{library,lib1|lib2}_{read_type_trim}.log</text>
<text text-anchor="start" x="7.5" y="-1104" font-family="monospace" font-size="10.00" fill="#000000">stats/reads/nonpareil/{tool}/{sample,HD827sonic_1|HD827sonic_2}_{library,lib1|lib2}_{read_type_trim}.npa</text>
<text text-anchor="start" x="7.5" y="-1086" font-family="monospace" font-size="10.00" fill="#000000">stats/reads/nonpareil/{tool}/{sample,HD827sonic_1|HD827sonic_2}_{library,lib1|lib2}_{read_type_trim}.npc</text>
<text text-anchor="start" x="7.5" y="-1068" font-family="monospace" font-size="10.00" fill="#000000">stats/reads/nonpareil/{tool}/{sample,HD827sonic_1|HD827sonic_2}_{library,lib1|lib2}_{read_type_trim}.npo</text>
<polygon fill="#57d957" stroke="#57d957" points="1.5,-1196 1.5,-1196 639.5,-1196 639.5,-1196 1.5,-1196"/>
<polygon fill="#57d957" stroke="#57d957" points="1.5,-1156 1.5,-1156 639.5,-1156 639.5,-1156 1.5,-1156"/>
<polygon fill="none" stroke="#57d957" stroke-width="2" points="1,-1059 1,-1225 638,-1225 638,-1059 1,-1059"/>
</g>
<!-- 3&#45;&gt;5 -->
<g id="edge11" class="edge">
<title>3&#45;&gt;5</title>
<path fill="none" stroke="#c0c0c0" stroke-width="2" d="M307.8533,-2269.7996C273.672,-2207.8331 226.5,-2104.9368 226.5,-2009 226.5,-2009 226.5,-2009 226.5,-1514 226.5,-1401.1006 225.3193,-1369.9135 258.5,-1262 261.2273,-1253.1301 264.576,-1244.1248 268.2879,-1235.2395"/>
<polygon fill="#c0c0c0" stroke="#c0c0c0" stroke-width="2" points="271.5122,-1236.6014 272.2766,-1226.0342 265.0892,-1233.8183 271.5122,-1236.6014"/>
</g>
<!-- 6 -->
<g id="node7" class="node">
<title>6</title>
<text text-anchor="start" x="616" y="-2063.6" font-family="sans" font-weight="bold" font-size="18.00" fill="#000000">extend_tadpole</text>
<text text-anchor="start" x="363.5" y="-2039.8" font-family="sans" font-size="10.00" fill="#000000"> </text>
<text text-anchor="start" x="367.5" y="-2039.8" font-family="sans" font-weight="bold" font-size="14.00" fill="#000000">↪ input</text>
<text text-anchor="start" x="420.5" y="-2039.8" font-family="sans" font-size="10.00" fill="#000000"> </text>
<text text-anchor="start" x="363.5" y="-2020" font-family="monospace" font-size="10.00" fill="#000000">logs/reads/extend/loglog/{sample}_{library}_{read_type_trim}.log</text>
<text text-anchor="start" x="363.5" y="-2002" font-family="monospace" font-size="10.00" fill="#000000">temp/reads/extend/loglog/{sample}_{library}_{read_type_trim}.flag</text>
<text text-anchor="start" x="363.5" y="-1984" font-family="monospace" font-size="10.00" fill="#000000">temp/reads/merge_lanes/{sample}_{library}_{read_type_trim}.fastq.gz</text>
<text text-anchor="start" x="931.5" y="-1963.8" font-family="sans" font-size="10.00" fill="#000000"> </text>
<text text-anchor="start" x="935.5" y="-1963.8" font-family="sans" font-weight="bold" font-size="14.00" fill="#000000">output →</text>
<text text-anchor="start" x="996.5" y="-1963.8" font-family="sans" font-size="10.00" fill="#000000"> </text>
<text text-anchor="start" x="363.5" y="-1944" font-family="monospace" font-size="10.00" fill="#000000">temp/reads/extend/tadpole/{sample,HD827sonic_1|HD827sonic_2}_{library,lib1|lib2}_{read_type_trim}.fastq.gz</text>
<polygon fill="#d98257" stroke="#d98257" points="357.5,-2054 357.5,-2054 1007.5,-2054 1007.5,-2054 357.5,-2054"/>
<polygon fill="#d98257" stroke="#d98257" points="357.5,-1978 357.5,-1978 1007.5,-1978 1007.5,-1978 357.5,-1978"/>
<polygon fill="none" stroke="#d98257" stroke-width="2" points="357,-1935 357,-2083 1006,-2083 1006,-1935 357,-1935"/>
</g>
<!-- 3&#45;&gt;6 -->
<g id="edge16" class="edge">
<title>3&#45;&gt;6</title>
<path fill="none" stroke="#c0c0c0" stroke-width="2" d="M332.1629,-2269.5553C327.3777,-2224.247 328.6862,-2161.9137 361.5,-2120 370.0241,-2109.112 386.2167,-2098.4781 406.9724,-2088.3725"/>
<polygon fill="#c0c0c0" stroke="#c0c0c0" stroke-width="2" points="408.5699,-2091.4892 416.138,-2084.0747 405.598,-2085.1514 408.5699,-2091.4892"/>
</g>
<!-- 7 -->
<g id="node8" class="node">
<title>7</title>
<text text-anchor="start" x="654" y="-2213.6" font-family="sans" font-weight="bold" font-size="18.00" fill="#000000">loglog</text>
<text text-anchor="start" x="378.5" y="-2189.8" font-family="sans" font-size="10.00" fill="#000000"> </text>
<text text-anchor="start" x="382.5" y="-2189.8" font-family="sans" font-weight="bold" font-size="14.00" fill="#000000">↪ input</text>
<text text-anchor="start" x="435.5" y="-2189.8" font-family="sans" font-size="10.00" fill="#000000"> </text>
<text text-anchor="start" x="378.5" y="-2170" font-family="monospace" font-size="10.00" fill="#000000">temp/reads/merge_lanes/{sample}_{library}_{read_type_trim}.fastq.gz</text>
<text text-anchor="start" x="916.5" y="-2149.8" font-family="sans" font-size="10.00" fill="#000000"> </text>
<text text-anchor="start" x="920.5" y="-2149.8" font-family="sans" font-weight="bold" font-size="14.00" fill="#000000">output →</text>
<text text-anchor="start" x="981.5" y="-2149.8" font-family="sans" font-size="10.00" fill="#000000"> </text>
<text text-anchor="start" x="378.5" y="-2130" font-family="monospace" font-size="10.00" fill="#000000">temp/reads/extend/loglog/{sample,HD827sonic_1|HD827sonic_2}_{library,lib1|lib2}_{read_type_trim}.flag</text>
<polygon fill="#d9ad57" stroke="#d9ad57" points="372.5,-2204 372.5,-2204 992.5,-2204 992.5,-2204 372.5,-2204"/>
<polygon fill="#d9ad57" stroke="#d9ad57" points="372.5,-2164 372.5,-2164 992.5,-2164 992.5,-2164 372.5,-2164"/>
<polygon fill="none" stroke="#d9ad57" stroke-width="2" points="372,-2121 372,-2233 991,-2233 991,-2121 372,-2121"/>
</g>
<!-- 3&#45;&gt;7 -->
<g id="edge18" class="edge">
<title>3&#45;&gt;7</title>
<path fill="none" stroke="#c0c0c0" stroke-width="2" d="M471.6284,-2269.8635C495.0021,-2259.5212 519.4632,-2248.6977 543.0898,-2238.2435"/>
<polygon fill="#c0c0c0" stroke="#c0c0c0" stroke-width="2" points="544.7215,-2241.3489 552.45,-2234.1018 541.889,-2234.9475 544.7215,-2241.3489"/>
</g>
<!-- 9 -->
<g id="node10" class="node">
<title>9</title>
<text text-anchor="start" x="635.5" y="-1559.6" font-family="sans" font-weight="bold" font-size="18.00" fill="#000000">seqkit_grep</text>
<text text-anchor="start" x="367.5" y="-1535.8" font-family="sans" font-size="10.00" fill="#000000"> </text>
<text text-anchor="start" x="371.5" y="-1535.8" font-family="sans" font-weight="bold" font-size="14.00" fill="#000000">↪ input</text>
<text text-anchor="start" x="424.5" y="-1535.8" font-family="sans" font-size="10.00" fill="#000000"> </text>
<text text-anchor="start" x="367.5" y="-1516" font-family="monospace" font-size="10.00" fill="#000000">temp/reads/merge_lanes/{sample}_{library}_{read_type_trim}.fastq.gz</text>
<text text-anchor="start" x="367.5" y="-1498" font-family="monospace" font-size="10.00" fill="#000000">temp/reads/represent/fx2tab/{sample}_{library}_{read_type_trim}.tsv</text>
<text text-anchor="start" x="935.5" y="-1477.8" font-family="sans" font-size="10.00" fill="#000000"> </text>
<text text-anchor="start" x="939.5" y="-1477.8" font-family="sans" font-weight="bold" font-size="14.00" fill="#000000">output →</text>
<text text-anchor="start" x="1000.5" y="-1477.8" font-family="sans" font-size="10.00" fill="#000000"> </text>
<text text-anchor="start" x="367.5" y="-1458" font-family="monospace" font-size="10.00" fill="#000000">temp/reads/represent/grep/{sample,HD827sonic_1|HD827sonic_2}_{library,lib1|lib2}_{read_type_trim}.fastq.gz</text>
<polygon fill="#57d9d9" stroke="#57d9d9" points="361.5,-1550 361.5,-1550 1011.5,-1550 1011.5,-1550 361.5,-1550"/>
<polygon fill="#57d9d9" stroke="#57d9d9" points="361.5,-1492 361.5,-1492 1011.5,-1492 1011.5,-1492 361.5,-1492"/>
<polygon fill="none" stroke="#57d9d9" stroke-width="2" points="361,-1449 361,-1579 1010,-1579 1010,-1449 361,-1449"/>
</g>
<!-- 3&#45;&gt;9 -->
<g id="edge21" class="edge">
<title>3&#45;&gt;9</title>
<path fill="none" stroke="#c0c0c0" stroke-width="2" d="M330.9303,-2269.8246C319.1168,-2206.376 302.5,-2100.8116 302.5,-2009 302.5,-2009 302.5,-2009 302.5,-1832 302.5,-1732.7137 290.8994,-1687.7756 359.5,-1616 370.1742,-1604.8318 390.0068,-1593.9846 414.8278,-1583.7903"/>
<polygon fill="#c0c0c0" stroke="#c0c0c0" stroke-width="2" points="416.1931,-1587.014 424.1904,-1580.0647 413.6049,-1580.51 416.1931,-1587.014"/>
</g>
<!-- 4 -->
<g id="node5" class="node">
<title>4</title>
<text text-anchor="start" x="274" y="-1001.6" font-family="sans" font-weight="bold" font-size="18.00" fill="#000000">nonpareil_plot</text>
<text text-anchor="start" x="18.5" y="-977.8" font-family="sans" font-size="10.00" fill="#000000"> </text>
<text text-anchor="start" x="22.5" y="-977.8" font-family="sans" font-weight="bold" font-size="14.00" fill="#000000">↪ input</text>
<text text-anchor="start" x="75.5" y="-977.8" font-family="sans" font-size="10.00" fill="#000000"> </text>
<text text-anchor="start" x="18.5" y="-958" font-family="monospace" font-size="10.00" fill="#000000">stats/reads/nonpareil/{tool}/{sample}_{library}_{read_type_trim}.npo</text>
<text text-anchor="start" x="586.5" y="-937.8" font-family="sans" font-size="10.00" fill="#000000"> </text>
<text text-anchor="start" x="590.5" y="-937.8" font-family="sans" font-weight="bold" font-size="14.00" fill="#000000">output →</text>
<text text-anchor="start" x="651.5" y="-937.8" font-family="sans" font-size="10.00" fill="#000000"> </text>
<text text-anchor="start" x="18.5" y="-918" font-family="monospace" font-size="10.00" fill="#000000">reports/reads/nonpareil/{tool}/{sample,HD827sonic_1|HD827sonic_2}_{library,lib1|lib2}_{read_type_trim}.pdf</text>
<text text-anchor="start" x="18.5" y="-900" font-family="monospace" font-size="10.00" fill="#000000">stats/reads/nonpareil/{tool}/{sample,HD827sonic_1|HD827sonic_2}_{library,lib1|lib2}_{read_type_trim}.json</text>
<text text-anchor="start" x="18.5" y="-882" font-family="monospace" font-size="10.00" fill="#000000">stats/reads/nonpareil/{tool}/{sample,HD827sonic_1|HD827sonic_2}_{library,lib1|lib2}_{read_type_trim}.tsv</text>
<polygon fill="#57d982" stroke="#57d982" points="12.5,-992 12.5,-992 662.5,-992 662.5,-992 12.5,-992"/>
<polygon fill="#57d982" stroke="#57d982" points="12.5,-952 12.5,-952 662.5,-952 662.5,-952 12.5,-952"/>
<polygon fill="none" stroke="#57d982" stroke-width="2" points="12,-873 12,-1021 661,-1021 661,-873 12,-873"/>
</g>
<!-- 4&#45;&gt;1 -->
<g id="edge3" class="edge">
<title>4&#45;&gt;1</title>
<path fill="none" stroke="#c0c0c0" stroke-width="2" d="M444.6141,-871.9541C526.8233,-814.8897 642.758,-734.4152 744.5783,-663.738"/>
<polygon fill="#c0c0c0" stroke="#c0c0c0" stroke-width="2" points="746.5995,-666.5957 752.8186,-658.0182 742.6079,-660.8452 746.5995,-666.5957"/>
</g>
<!-- 5&#45;&gt;4 -->
<g id="edge10" class="edge">
<title>5&#45;&gt;4</title>
<path fill="none" stroke="#c0c0c0" stroke-width="2" d="M326.8329,-1057.8876C327.5676,-1049.46 328.3142,-1040.8965 329.0501,-1032.4552"/>
<polygon fill="#c0c0c0" stroke="#c0c0c0" stroke-width="2" points="332.5591,-1032.503 329.9409,-1022.2368 325.5855,-1031.895 332.5591,-1032.503"/>
</g>
<!-- 6&#45;&gt;2 -->
<g id="edge6" class="edge">
<title>6&#45;&gt;2</title>
<path fill="none" stroke="#c0c0c0" stroke-width="2" d="M952.1408,-1933.8773C1071.1972,-1882.7611 1184.5,-1800.5963 1184.5,-1673 1184.5,-1673 1184.5,-1673 1184.5,-1514 1184.5,-1406.5125 1160.9608,-1283.5494 1144.1362,-1209.3897"/>
<polygon fill="#c0c0c0" stroke="#c0c0c0" stroke-width="2" points="1147.4587,-1208.2193 1141.8099,-1199.256 1140.6362,-1209.7856 1147.4587,-1208.2193"/>
</g>
<!-- 6&#45;&gt;5 -->
<g id="edge12" class="edge">
<title>6&#45;&gt;5</title>
<path fill="none" stroke="#c0c0c0" stroke-width="2" d="M419.8672,-1933.8571C403.7655,-1923.4123 388.7461,-1911.5257 375.5,-1898 202.3224,-1721.1672 253.3627,-1396.1569 292.6493,-1236.1078"/>
<polygon fill="#c0c0c0" stroke="#c0c0c0" stroke-width="2" points="296.0777,-1236.8242 295.0993,-1226.2746 289.2854,-1235.1318 296.0777,-1236.8242"/>
</g>
<!-- 8 -->
<g id="node9" class="node">
<title>8</title>
<text text-anchor="start" x="649.5" y="-1877.6" font-family="sans" font-weight="bold" font-size="18.00" fill="#000000">vsearch</text>
<text text-anchor="start" x="391.5" y="-1853.8" font-family="sans" font-size="10.00" fill="#000000"> </text>
<text text-anchor="start" x="395.5" y="-1853.8" font-family="sans" font-weight="bold" font-size="14.00" fill="#000000">↪ input</text>
<text text-anchor="start" x="448.5" y="-1853.8" font-family="sans" font-size="10.00" fill="#000000"> </text>
<text text-anchor="start" x="391.5" y="-1834" font-family="monospace" font-size="10.00" fill="#000000">temp/reads/extend/tadpole/{sample}_{library}_{read_type_trim}.fastq.gz</text>
<text text-anchor="start" x="905.5" y="-1813.8" font-family="sans" font-size="10.00" fill="#000000"> </text>
<text text-anchor="start" x="909.5" y="-1813.8" font-family="sans" font-weight="bold" font-size="14.00" fill="#000000">output →</text>
<text text-anchor="start" x="970.5" y="-1813.8" font-family="sans" font-size="10.00" fill="#000000"> </text>
<text text-anchor="start" x="391.5" y="-1794" font-family="monospace" font-size="10.00" fill="#000000">stats/reads/derep/{sample,HD827sonic_1|HD827sonic_2}_{library,lib1|lib2}_{read_type_trim}.log</text>
<text text-anchor="start" x="391.5" y="-1776" font-family="monospace" font-size="10.00" fill="#000000">temp/reads/derep/{sample,HD827sonic_1|HD827sonic_2}_{library,lib1|lib2}_{read_type_trim}.fastq.gz</text>
<polygon fill="#5782d9" stroke="#5782d9" points="385.5,-1868 385.5,-1868 981.5,-1868 981.5,-1868 385.5,-1868"/>
<polygon fill="#5782d9" stroke="#5782d9" points="385.5,-1828 385.5,-1828 981.5,-1828 981.5,-1828 385.5,-1828"/>
<polygon fill="none" stroke="#5782d9" stroke-width="2" points="385,-1767 385,-1897 980,-1897 980,-1767 385,-1767"/>
</g>
<!-- 6&#45;&gt;8 -->
<g id="edge19" class="edge">
<title>6&#45;&gt;8</title>
<path fill="none" stroke="#c0c0c0" stroke-width="2" d="M681.9241,-1933.9361C681.9718,-1925.4959 682.0204,-1916.8888 682.0682,-1908.4315"/>
<polygon fill="#c0c0c0" stroke="#c0c0c0" stroke-width="2" points="685.5693,-1908.2308 682.1259,-1898.2111 678.5694,-1908.1912 685.5693,-1908.2308"/>
</g>
<!-- 7&#45;&gt;6 -->
<g id="edge17" class="edge">
<title>7&#45;&gt;6</title>
<path fill="none" stroke="#c0c0c0" stroke-width="2" d="M681.5,-2119.6538C681.5,-2111.4553 681.5,-2102.8789 681.5,-2094.2845"/>
<polygon fill="#c0c0c0" stroke="#c0c0c0" stroke-width="2" points="685.0001,-2094.2088 681.5,-2084.2088 678.0001,-2094.2088 685.0001,-2094.2088"/>
</g>
<!-- 8&#45;&gt;2 -->
<g id="edge7" class="edge">
<title>8&#45;&gt;2</title>
<path fill="none" stroke="#c0c0c0" stroke-width="2" d="M943.913,-1765.9044C974.1587,-1754.5618 998.753,-1742.4103 1011.5,-1730 1153.9911,-1591.2727 1148.3754,-1331.9412 1136.3789,-1209.4153"/>
<polygon fill="#c0c0c0" stroke="#c0c0c0" stroke-width="2" points="1139.8551,-1209.0035 1135.3552,-1199.4119 1132.8915,-1209.7162 1139.8551,-1209.0035"/>
</g>
<!-- 8&#45;&gt;5 -->
<g id="edge13" class="edge">
<title>8&#45;&gt;5</title>
<path fill="none" stroke="#c0c0c0" stroke-width="2" d="M418.7037,-1765.8706C391.5618,-1754.7989 370.0523,-1742.7355 359.5,-1730 299.2147,-1657.2425 305.0958,-1383.4154 313.0494,-1236.5139"/>
<polygon fill="#c0c0c0" stroke="#c0c0c0" stroke-width="2" points="316.5644,-1236.3397 313.6248,-1226.1608 309.5752,-1235.9512 316.5644,-1236.3397"/>
</g>
<!-- 10 -->
<g id="node11" class="node">
<title>10</title>
<text text-anchor="start" x="628.5" y="-1709.6" font-family="sans" font-weight="bold" font-size="18.00" fill="#000000">seqkit_fx2tab</text>
<text text-anchor="start" x="376.5" y="-1685.8" font-family="sans" font-size="10.00" fill="#000000"> </text>
<text text-anchor="start" x="380.5" y="-1685.8" font-family="sans" font-weight="bold" font-size="14.00" fill="#000000">↪ input</text>
<text text-anchor="start" x="433.5" y="-1685.8" font-family="sans" font-size="10.00" fill="#000000"> </text>
<text text-anchor="start" x="376.5" y="-1666" font-family="monospace" font-size="10.00" fill="#000000">temp/reads/derep/{sample}_{library}_{read_type_trim}.fastq.gz</text>
<text text-anchor="start" x="926.5" y="-1645.8" font-family="sans" font-size="10.00" fill="#000000"> </text>
<text text-anchor="start" x="930.5" y="-1645.8" font-family="sans" font-weight="bold" font-size="14.00" fill="#000000">output →</text>
<text text-anchor="start" x="991.5" y="-1645.8" font-family="sans" font-size="10.00" fill="#000000"> </text>
<text text-anchor="start" x="376.5" y="-1626" font-family="monospace" font-size="10.00" fill="#000000">temp/reads/represent/fx2tab/{sample,HD827sonic_1|HD827sonic_2}_{library,lib1|lib2}_{read_type_trim}.tsv</text>
<polygon fill="#57d9ad" stroke="#57d9ad" points="370.5,-1700 370.5,-1700 1002.5,-1700 1002.5,-1700 370.5,-1700"/>
<polygon fill="#57d9ad" stroke="#57d9ad" points="370.5,-1660 370.5,-1660 1002.5,-1660 1002.5,-1660 370.5,-1660"/>
<polygon fill="none" stroke="#57d9ad" stroke-width="2" points="370,-1617 370,-1729 1001,-1729 1001,-1617 370,-1617"/>
</g>
<!-- 8&#45;&gt;10 -->
<g id="edge22" class="edge">
<title>8&#45;&gt;10</title>
<path fill="none" stroke="#c0c0c0" stroke-width="2" d="M683.7462,-1765.951C683.9053,-1757.5194 684.0683,-1748.8799 684.2278,-1740.4269"/>
<polygon fill="#c0c0c0" stroke="#c0c0c0" stroke-width="2" points="687.7307,-1740.2993 684.4201,-1730.235 680.732,-1740.1672 687.7307,-1740.2993"/>
</g>
<!-- 9&#45;&gt;2 -->
<g id="edge8" class="edge">
<title>9&#45;&gt;2</title>
<path fill="none" stroke="#c0c0c0" stroke-width="2" d="M1011.0709,-1453.5024C1046.8366,-1441.5003 1075.4238,-1427.6768 1089.5,-1412 1115.5741,-1382.9611 1123.8244,-1279.3155 1126.3943,-1209.2194"/>
<polygon fill="#c0c0c0" stroke="#c0c0c0" stroke-width="2" points="1129.8953,-1209.2458 1126.7337,-1199.1337 1122.8993,-1209.0103 1129.8953,-1209.2458"/>
</g>
<!-- 9&#45;&gt;5 -->
<g id="edge14" class="edge">
<title>9&#45;&gt;5</title>
<path fill="none" stroke="#c0c0c0" stroke-width="2" d="M419.9625,-1447.9125C392.3465,-1436.8157 370.3861,-1424.7341 359.5,-1412 337.2775,-1386.0051 327.3983,-1303.4896 323.0079,-1236.4534"/>
<polygon fill="#c0c0c0" stroke="#c0c0c0" stroke-width="2" points="326.4881,-1236.0251 322.3742,-1226.2616 319.5016,-1236.4596 326.4881,-1236.0251"/>
</g>
<!-- 11 -->
<g id="node12" class="node">
<title>11</title>
<text text-anchor="start" x="658" y="-1391.6" font-family="sans" font-weight="bold" font-size="18.00" fill="#000000">low_complexity</text>
<text text-anchor="start" x="376.5" y="-1367.8" font-family="sans" font-size="10.00" fill="#000000"> </text>
<text text-anchor="start" x="380.5" y="-1367.8" font-family="sans" font-weight="bold" font-size="14.00" fill="#000000">↪ input</text>
<text text-anchor="start" x="433.5" y="-1367.8" font-family="sans" font-size="10.00" fill="#000000"> </text>
<text text-anchor="start" x="376.5" y="-1348" font-family="monospace" font-size="10.00" fill="#000000">temp/reads/represent/grep/{sample}_{library}_{read_type_trim}.fastq.gz</text>
<text text-anchor="start" x="1004.5" y="-1327.8" font-family="sans" font-size="10.00" fill="#000000"> </text>
<text text-anchor="start" x="1008.5" y="-1327.8" font-family="sans" font-weight="bold" font-size="14.00" fill="#000000">output →</text>
<text text-anchor="start" x="1069.5" y="-1327.8" font-family="sans" font-size="10.00" fill="#000000"> </text>
<text text-anchor="start" x="376.5" y="-1308" font-family="monospace" font-size="10.00" fill="#000000">results/reads/low_complexity/{sample,HD827sonic_1|HD827sonic_2}_{library,lib1|lib2}_{read_type_trim}.fastq.gz</text>
<text text-anchor="start" x="376.5" y="-1290" font-family="monospace" font-size="10.00" fill="#000000">stats/reads/low_complexity/{sample,HD827sonic_1|HD827sonic_2}_{library,lib1|lib2}_{read_type_trim}.txt</text>
<text text-anchor="start" x="376.5" y="-1272" font-family="monospace" font-size="10.00" fill="#000000">temp/reads/low_complexity/{sample,HD827sonic_1|HD827sonic_2}_{library,lib1|lib2}_{read_type_trim}.discarded.fastq.gz</text>
<polygon fill="#d9d957" stroke="#d9d957" points="370.5,-1382 370.5,-1382 1080.5,-1382 1080.5,-1382 370.5,-1382"/>
<polygon fill="#d9d957" stroke="#d9d957" points="370.5,-1342 370.5,-1342 1080.5,-1342 1080.5,-1342 370.5,-1342"/>
<polygon fill="none" stroke="#d9d957" stroke-width="2" points="370,-1263 370,-1411 1079,-1411 1079,-1263 370,-1263"/>
</g>
<!-- 9&#45;&gt;11 -->
<g id="edge23" class="edge">
<title>9&#45;&gt;11</title>
<path fill="none" stroke="#c0c0c0" stroke-width="2" d="M700.0776,-1447.84C701.9482,-1439.3503 703.8835,-1430.567 705.8083,-1421.8315"/>
<polygon fill="#c0c0c0" stroke="#c0c0c0" stroke-width="2" points="709.2391,-1422.5262 707.973,-1412.0073 702.4031,-1421.0199 709.2391,-1422.5262"/>
</g>
<!-- 10&#45;&gt;9 -->
<g id="edge20" class="edge">
<title>10&#45;&gt;9</title>
<path fill="none" stroke="#c0c0c0" stroke-width="2" d="M685.5,-1615.5974C685.5,-1607.4394 685.5,-1598.9443 685.5,-1590.4945"/>
<polygon fill="#c0c0c0" stroke="#c0c0c0" stroke-width="2" points="689.0001,-1590.2358 685.5,-1580.2358 682.0001,-1590.2359 689.0001,-1590.2358"/>
</g>
<!-- 11&#45;&gt;0 -->
<g id="edge2" class="edge">
<title>11&#45;&gt;0</title>
<path fill="none" stroke="#c0c0c0" stroke-width="2" d="M718.9029,-1261.8742C703.2967,-1037.9854 665.4247,-378.6544 744.5,-182 748.3292,-172.477 753.4076,-163.2813 759.2545,-154.5413"/>
<polygon fill="#c0c0c0" stroke="#c0c0c0" stroke-width="2" points="762.1627,-156.4907 765.08,-146.3054 756.4478,-152.4483 762.1627,-156.4907"/>
</g>
<!-- 11&#45;&gt;2 -->
<g id="edge9" class="edge">
<title>11&#45;&gt;2</title>
<path fill="none" stroke="#c0c0c0" stroke-width="2" d="M879.7339,-1261.8868C919.6599,-1242.5678 962.1478,-1222.0091 1000.4573,-1203.4723"/>
<polygon fill="#c0c0c0" stroke="#c0c0c0" stroke-width="2" points="1002.1098,-1206.5609 1009.5869,-1199.0547 999.0609,-1200.2598 1002.1098,-1206.5609"/>
</g>
<!-- 11&#45;&gt;5 -->
<g id="edge15" class="edge">
<title>11&#45;&gt;5</title>
<path fill="none" stroke="#c0c0c0" stroke-width="2" d="M568.4957,-1261.8868C547.0503,-1251.5613 524.8694,-1240.8816 502.9873,-1230.3457"/>
<polygon fill="#c0c0c0" stroke="#c0c0c0" stroke-width="2" points="504.4908,-1227.1851 493.9624,-1226.0004 501.454,-1233.4921 504.4908,-1227.1851"/>
</g>
</g>
</svg>
