<?xml version="1.0" encoding="UTF-8" standalone="no"?>
<!DOCTYPE svg PUBLIC "-//W3C//DTD SVG 1.1//EN"
 "http://www.w3.org/Graphics/SVG/1.1/DTD/svg11.dtd">
<!-- Generated by graphviz version 2.40.1 (0)
 -->
<!-- Title: snakemake_dag Pages: 1 -->
<svg width="1236pt" height="2074pt"
 viewBox="0.00 0.00 1235.50 2074.00" xmlns="http://www.w3.org/2000/svg" xmlns:xlink="http://www.w3.org/1999/xlink">
<g id="graph0" class="graph" transform="scale(1 1) rotate(0) translate(4 2070)">
<title>snakemake_dag</title>
<polygon fill="#ffffff" stroke="transparent" points="-4,4 -4,-2070 1231.5,-2070 1231.5,4 -4,4"/>
<!-- 0 -->
<g id="node1" class="node">
<title>0</title>
<text text-anchor="start" x="380.5" y="-125.6" font-family="sans" font-weight="bold" font-size="18.00" fill="#000000">all</text>
<text text-anchor="start" x="195.5" y="-101.8" font-family="sans" font-size="10.00" fill="#000000"> </text>
<text text-anchor="start" x="199.5" y="-101.8" font-family="sans" font-weight="bold" font-size="14.00" fill="#000000">↪ input</text>
<text text-anchor="start" x="252.5" y="-101.8" font-family="sans" font-size="10.00" fill="#000000"> </text>
<text text-anchor="start" x="195.5" y="-82" font-family="monospace" font-size="10.00" fill="#000000">reports/multiqc.html</text>
<text text-anchor="start" x="195.5" y="-64" font-family="monospace" font-size="10.00" fill="#000000">results/reads/low_complexity/HD827sonic_1_lib1_collapsed.fastq.gz</text>
<text text-anchor="start" x="195.5" y="-46" font-family="monospace" font-size="10.00" fill="#000000">results/reads/low_complexity/HD827sonic_2_lib1_collapsed.fastq.gz</text>
<text text-anchor="start" x="195.5" y="-28" font-family="monospace" font-size="10.00" fill="#000000">results/reads/low_complexity/HD827sonic_2_lib2_collapsed.fastq.gz</text>
<text text-anchor="start" x="579.5" y="-10" font-family="sans" font-size="10.00" fill="#000000"> &#160;</text>
<polygon fill="#d95757" stroke="#d95757" points="189.5,-116 189.5,-116 593.5,-116 593.5,-116 189.5,-116"/>
<polygon fill="#d95757" stroke="#d95757" points="189.5,-22 189.5,-22 593.5,-22 593.5,-22 189.5,-22"/>
<polygon fill="none" stroke="#d95757" stroke-width="2" points="189,-1 189,-145 592,-145 592,-1 189,-1"/>
</g>
<!-- 1 -->
<g id="node2" class="node">
<title>1</title>
<text text-anchor="start" x="237.5" y="-815.6" font-family="sans" font-weight="bold" font-size="18.00" fill="#000000">multiqc</text>
<text text-anchor="start" x="62.5" y="-791.8" font-family="sans" font-size="10.00" fill="#000000"> </text>
<text text-anchor="start" x="66.5" y="-791.8" font-family="sans" font-weight="bold" font-size="14.00" fill="#000000">↪ input</text>
<text text-anchor="start" x="119.5" y="-791.8" font-family="sans" font-size="10.00" fill="#000000"> </text>
<text text-anchor="start" x="62.5" y="-772" font-family="monospace" font-size="10.00" fill="#000000">stats/reads/derep/HD827sonic_1_lib1_collapsed.tsv</text>
<text text-anchor="start" x="62.5" y="-754" font-family="monospace" font-size="10.00" fill="#000000">stats/reads/derep/HD827sonic_2_lib1_collapsed.tsv</text>
<text text-anchor="start" x="62.5" y="-736" font-family="monospace" font-size="10.00" fill="#000000">stats/reads/derep/HD827sonic_2_lib2_collapsed.tsv</text>
<text text-anchor="start" x="62.5" y="-718" font-family="monospace" font-size="10.00" fill="#000000">stats/reads/extend/tadpole/HD827sonic_1_lib1_collapsed.tsv</text>
<text text-anchor="start" x="62.5" y="-700" font-family="monospace" font-size="10.00" fill="#000000">stats/reads/extend/tadpole/HD827sonic_2_lib1_collapsed.tsv</text>
<text text-anchor="start" x="62.5" y="-682" font-family="monospace" font-size="10.00" fill="#000000">stats/reads/extend/tadpole/HD827sonic_2_lib2_collapsed.tsv</text>
<text text-anchor="start" x="62.5" y="-664" font-family="monospace" font-size="10.00" fill="#000000">stats/reads/low_complexity/HD827sonic_1_lib1_collapsed.tsv</text>
<text text-anchor="start" x="62.5" y="-646" font-family="monospace" font-size="10.00" fill="#000000">stats/reads/low_complexity/HD827sonic_2_lib1_collapsed.tsv</text>
<text text-anchor="start" x="62.5" y="-628" font-family="monospace" font-size="10.00" fill="#000000">stats/reads/low_complexity/HD827sonic_2_lib2_collapsed.tsv</text>
<text text-anchor="start" x="62.5" y="-610" font-family="monospace" font-size="10.00" fill="#000000">stats/reads/merge_lanes/HD827sonic_1_lib1_collapsed.tsv</text>
<text text-anchor="start" x="62.5" y="-592" font-family="monospace" font-size="10.00" fill="#000000">stats/reads/merge_lanes/HD827sonic_2_lib1_collapsed.tsv</text>
<text text-anchor="start" x="62.5" y="-574" font-family="monospace" font-size="10.00" fill="#000000">stats/reads/merge_lanes/HD827sonic_2_lib2_collapsed.tsv</text>
<text text-anchor="start" x="62.5" y="-556" font-family="monospace" font-size="10.00" fill="#000000">stats/reads/nonpareil/derep/HD827sonic_1_lib1_collapsed.json</text>
<text text-anchor="start" x="62.5" y="-538" font-family="monospace" font-size="10.00" fill="#000000">stats/reads/nonpareil/derep/HD827sonic_2_lib1_collapsed.json</text>
<text text-anchor="start" x="62.5" y="-520" font-family="monospace" font-size="10.00" fill="#000000">stats/reads/nonpareil/derep/HD827sonic_2_lib2_collapsed.json</text>
<text text-anchor="start" x="62.5" y="-502" font-family="monospace" font-size="10.00" fill="#000000">stats/reads/nonpareil/extend/tadpole/HD827sonic_1_lib1_collapsed.json</text>
<text text-anchor="start" x="62.5" y="-484" font-family="monospace" font-size="10.00" fill="#000000">stats/reads/nonpareil/extend/tadpole/HD827sonic_2_lib1_collapsed.json</text>
<text text-anchor="start" x="62.5" y="-466" font-family="monospace" font-size="10.00" fill="#000000">stats/reads/nonpareil/extend/tadpole/HD827sonic_2_lib2_collapsed.json</text>
<text text-anchor="start" x="62.5" y="-448" font-family="monospace" font-size="10.00" fill="#000000">stats/reads/nonpareil/low_complexity/HD827sonic_1_lib1_collapsed.json</text>
<text text-anchor="start" x="62.5" y="-430" font-family="monospace" font-size="10.00" fill="#000000">stats/reads/nonpareil/low_complexity/HD827sonic_2_lib1_collapsed.json</text>
<text text-anchor="start" x="62.5" y="-412" font-family="monospace" font-size="10.00" fill="#000000">stats/reads/nonpareil/low_complexity/HD827sonic_2_lib2_collapsed.json</text>
<text text-anchor="start" x="62.5" y="-394" font-family="monospace" font-size="10.00" fill="#000000">stats/reads/nonpareil/merge_lanes/HD827sonic_1_lib1_collapsed.json</text>
<text text-anchor="start" x="62.5" y="-376" font-family="monospace" font-size="10.00" fill="#000000">stats/reads/nonpareil/merge_lanes/HD827sonic_2_lib1_collapsed.json</text>
<text text-anchor="start" x="62.5" y="-358" font-family="monospace" font-size="10.00" fill="#000000">stats/reads/nonpareil/merge_lanes/HD827sonic_2_lib2_collapsed.json</text>
<text text-anchor="start" x="62.5" y="-340" font-family="monospace" font-size="10.00" fill="#000000">stats/reads/nonpareil/represent/grep/HD827sonic_1_lib1_collapsed.json</text>
<text text-anchor="start" x="62.5" y="-322" font-family="monospace" font-size="10.00" fill="#000000">stats/reads/nonpareil/represent/grep/HD827sonic_2_lib1_collapsed.json</text>
<text text-anchor="start" x="62.5" y="-304" font-family="monospace" font-size="10.00" fill="#000000">stats/reads/nonpareil/represent/grep/HD827sonic_2_lib2_collapsed.json</text>
<text text-anchor="start" x="62.5" y="-286" font-family="monospace" font-size="10.00" fill="#000000">stats/reads/represent/grep/HD827sonic_1_lib1_collapsed.tsv</text>
<text text-anchor="start" x="62.5" y="-268" font-family="monospace" font-size="10.00" fill="#000000">stats/reads/represent/grep/HD827sonic_2_lib1_collapsed.tsv</text>
<text text-anchor="start" x="62.5" y="-250" font-family="monospace" font-size="10.00" fill="#000000">stats/reads/represent/grep/HD827sonic_2_lib2_collapsed.tsv</text>
<text text-anchor="start" x="408.5" y="-229.8" font-family="sans" font-size="10.00" fill="#000000"> </text>
<text text-anchor="start" x="412.5" y="-229.8" font-family="sans" font-weight="bold" font-size="14.00" fill="#000000">output →</text>
<text text-anchor="start" x="473.5" y="-229.8" font-family="sans" font-size="10.00" fill="#000000"> </text>
<text text-anchor="start" x="62.5" y="-210" font-family="monospace" font-size="10.00" fill="#000000">reports/multiqc.html</text>
<text text-anchor="start" x="62.5" y="-192" font-family="monospace" font-size="10.00" fill="#000000">reports/multiqc_data.zip</text>
<polygon fill="#82d957" stroke="#82d957" points="56.5,-806 56.5,-806 484.5,-806 484.5,-806 56.5,-806"/>
<polygon fill="#82d957" stroke="#82d957" points="56.5,-244 56.5,-244 484.5,-244 484.5,-244 56.5,-244"/>
<polygon fill="none" stroke="#82d957" stroke-width="2" points="56,-183 56,-835 483,-835 483,-183 56,-183"/>
</g>
<!-- 1&#45;&gt;0 -->
<g id="edge2" class="edge">
<title>1&#45;&gt;0</title>
<path fill="none" stroke="#c0c0c0" stroke-width="2" d="M360.2787,-181.8965C362.784,-172.8693 365.1959,-164.1784 367.4892,-155.9149"/>
<polygon fill="#c0c0c0" stroke="#c0c0c0" stroke-width="2" points="370.9243,-156.6252 370.226,-146.0534 364.1792,-154.7532 370.9243,-156.6252"/>
</g>
<!-- 2 -->
<g id="node3" class="node">
<title>2</title>
<text text-anchor="start" x="756.5" y="-1178.6" font-family="sans" font-weight="bold" font-size="18.00" fill="#000000">seqkit_stats</text>
<text text-anchor="start" x="633.5" y="-1154.8" font-family="sans" font-size="10.00" fill="#000000"> </text>
<text text-anchor="start" x="637.5" y="-1154.8" font-family="sans" font-weight="bold" font-size="14.00" fill="#000000">↪ input</text>
<text text-anchor="start" x="690.5" y="-1154.8" font-family="sans" font-size="10.00" fill="#000000"> </text>
<text text-anchor="start" x="633.5" y="-1135" font-family="monospace" font-size="10.00" fill="#000000">&lt;input function&gt;</text>
<text text-anchor="start" x="913.5" y="-1114.8" font-family="sans" font-size="10.00" fill="#000000"> </text>
<text text-anchor="start" x="917.5" y="-1114.8" font-family="sans" font-weight="bold" font-size="14.00" fill="#000000">output →</text>
<text text-anchor="start" x="978.5" y="-1114.8" font-family="sans" font-size="10.00" fill="#000000"> </text>
<text text-anchor="start" x="633.5" y="-1095" font-family="monospace" font-size="10.00" fill="#000000">stats/reads/{tool}/{sample}_{library}_{read_type_trim}.tsv</text>
<polygon fill="#57add9" stroke="#57add9" points="627.5,-1169 627.5,-1169 989.5,-1169 989.5,-1169 627.5,-1169"/>
<polygon fill="#57add9" stroke="#57add9" points="627.5,-1129 627.5,-1129 989.5,-1129 989.5,-1129 627.5,-1129"/>
<polygon fill="none" stroke="#57add9" stroke-width="2" points="627,-1086 627,-1198 988,-1198 988,-1086 627,-1086"/>
</g>
<!-- 2&#45;&gt;1 -->
<g id="edge3" class="edge">
<title>2&#45;&gt;1</title>
<path fill="none" stroke="#c0c0c0" stroke-width="2" d="M759.0452,-1084.989C698.2615,-1013.4721 589.931,-886.0127 490.6035,-769.146"/>
<polygon fill="#c0c0c0" stroke="#c0c0c0" stroke-width="2" points="493.2177,-766.8173 484.0746,-761.4642 487.8839,-771.3506 493.2177,-766.8173"/>
</g>
<!-- 3 -->
<g id="node4" class="node">
<title>3</title>
<text text-anchor="start" x="760.5" y="-2045.6" font-family="sans" font-weight="bold" font-size="18.00" fill="#000000">merge_lanes</text>
<text text-anchor="start" x="613.5" y="-2021.8" font-family="sans" font-size="10.00" fill="#000000"> </text>
<text text-anchor="start" x="617.5" y="-2021.8" font-family="sans" font-weight="bold" font-size="14.00" fill="#000000">↪ input</text>
<text text-anchor="start" x="670.5" y="-2021.8" font-family="sans" font-size="10.00" fill="#000000"> </text>
<text text-anchor="start" x="613.5" y="-2002" font-family="monospace" font-size="10.00" fill="#000000">&lt;input function&gt;</text>
<text text-anchor="start" x="947.5" y="-1981.8" font-family="sans" font-size="10.00" fill="#000000"> </text>
<text text-anchor="start" x="951.5" y="-1981.8" font-family="sans" font-weight="bold" font-size="14.00" fill="#000000">output →</text>
<text text-anchor="start" x="1012.5" y="-1981.8" font-family="sans" font-size="10.00" fill="#000000"> </text>
<text text-anchor="start" x="613.5" y="-1962" font-family="monospace" font-size="10.00" fill="#000000">temp/reads/merge_lanes/{sample}_{library}_{read_type_trim}.fastq.gz</text>
<polygon fill="#add957" stroke="#add957" points="607.5,-2036 607.5,-2036 1023.5,-2036 1023.5,-2036 607.5,-2036"/>
<polygon fill="#add957" stroke="#add957" points="607.5,-1996 607.5,-1996 1023.5,-1996 1023.5,-1996 607.5,-1996"/>
<polygon fill="none" stroke="#add957" stroke-width="2" points="607,-1953 607,-2065 1022,-2065 1022,-1953 607,-1953"/>
</g>
<!-- 3&#45;&gt;2 -->
<g id="edge6" class="edge">
<title>3&#45;&gt;2</title>
<path fill="none" stroke="#c0c0c0" stroke-width="2" d="M1023.3192,-1957.0116C1047.6916,-1945.8309 1071.0963,-1932.3159 1091.5,-1916 1182.7587,-1843.0248 1227.5,-1807.8483 1227.5,-1691 1227.5,-1691 1227.5,-1691 1227.5,-1523 1227.5,-1371.8492 1076.4322,-1264.96 955.4987,-1203.6084"/>
<polygon fill="#c0c0c0" stroke="#c0c0c0" stroke-width="2" points="956.9873,-1200.4395 946.4791,-1199.088 953.8509,-1206.6976 956.9873,-1200.4395"/>
</g>
<!-- 5 -->
<g id="node6" class="node">
<title>5</title>
<text text-anchor="start" x="148.5" y="-1205.6" font-family="sans" font-weight="bold" font-size="18.00" fill="#000000">nonpareil_infer</text>
<text text-anchor="start" x="9.5" y="-1181.8" font-family="sans" font-size="10.00" fill="#000000"> </text>
<text text-anchor="start" x="13.5" y="-1181.8" font-family="sans" font-weight="bold" font-size="14.00" fill="#000000">↪ input</text>
<text text-anchor="start" x="66.5" y="-1181.8" font-family="sans" font-size="10.00" fill="#000000"> </text>
<text text-anchor="start" x="9.5" y="-1162" font-family="monospace" font-size="10.00" fill="#000000">&lt;input function&gt;</text>
<text text-anchor="start" x="349.5" y="-1141.8" font-family="sans" font-size="10.00" fill="#000000"> </text>
<text text-anchor="start" x="353.5" y="-1141.8" font-family="sans" font-weight="bold" font-size="14.00" fill="#000000">output →</text>
<text text-anchor="start" x="414.5" y="-1141.8" font-family="sans" font-size="10.00" fill="#000000"> </text>
<text text-anchor="start" x="9.5" y="-1122" font-family="monospace" font-size="10.00" fill="#000000">stats/reads/nonpareil/{tool}/{sample}_{library}_{read_type_trim}.log</text>
<text text-anchor="start" x="9.5" y="-1104" font-family="monospace" font-size="10.00" fill="#000000">stats/reads/nonpareil/{tool}/{sample}_{library}_{read_type_trim}.npa</text>
<text text-anchor="start" x="9.5" y="-1086" font-family="monospace" font-size="10.00" fill="#000000">stats/reads/nonpareil/{tool}/{sample}_{library}_{read_type_trim}.npc</text>
<text text-anchor="start" x="9.5" y="-1068" font-family="monospace" font-size="10.00" fill="#000000">stats/reads/nonpareil/{tool}/{sample}_{library}_{read_type_trim}.npo</text>
<polygon fill="#57d957" stroke="#57d957" points="3.5,-1196 3.5,-1196 425.5,-1196 425.5,-1196 3.5,-1196"/>
<polygon fill="#57d957" stroke="#57d957" points="3.5,-1156 3.5,-1156 425.5,-1156 425.5,-1156 3.5,-1156"/>
<polygon fill="none" stroke="#57d957" stroke-width="2" points="3,-1059 3,-1225 424,-1225 424,-1059 3,-1059"/>
</g>
<!-- 3&#45;&gt;5 -->
<g id="edge12" class="edge">
<title>3&#45;&gt;5</title>
<path fill="none" stroke="#c0c0c0" stroke-width="2" d="M605.9404,-1997.1905C460.265,-1985.1044 281.6839,-1961.385 222.5,-1916 135.6618,-1849.4084 122.5,-1800.4318 122.5,-1691 122.5,-1691 122.5,-1691 122.5,-1523 122.5,-1406.3344 116.5629,-1373.6205 150.5,-1262 153.1924,-1253.1445 156.5449,-1244.1773 160.2909,-1235.3416"/>
<polygon fill="#c0c0c0" stroke="#c0c0c0" stroke-width="2" points="163.4933,-1236.7538 164.326,-1226.1917 157.0885,-1233.9292 163.4933,-1236.7538"/>
</g>
<!-- 6 -->
<g id="node7" class="node">
<title>6</title>
<text text-anchor="start" x="896" y="-1577.6" font-family="sans" font-weight="bold" font-size="18.00" fill="#000000">extend_tadpole</text>
<text text-anchor="start" x="751.5" y="-1553.8" font-family="sans" font-size="10.00" fill="#000000"> </text>
<text text-anchor="start" x="755.5" y="-1553.8" font-family="sans" font-weight="bold" font-size="14.00" fill="#000000">↪ input</text>
<text text-anchor="start" x="808.5" y="-1553.8" font-family="sans" font-size="10.00" fill="#000000"> </text>
<text text-anchor="start" x="751.5" y="-1534" font-family="monospace" font-size="10.00" fill="#000000">logs/reads/extend/loglog/{sample}_{library}_{read_type_trim}.log</text>
<text text-anchor="start" x="751.5" y="-1516" font-family="monospace" font-size="10.00" fill="#000000">temp/reads/extend/loglog/{sample}_{library}_{read_type_trim}.flag</text>
<text text-anchor="start" x="751.5" y="-1498" font-family="monospace" font-size="10.00" fill="#000000">temp/reads/merge_lanes/{sample}_{library}_{read_type_trim}.fastq.gz</text>
<text text-anchor="start" x="1103.5" y="-1477.8" font-family="sans" font-size="10.00" fill="#000000"> </text>
<text text-anchor="start" x="1107.5" y="-1477.8" font-family="sans" font-weight="bold" font-size="14.00" fill="#000000">output →</text>
<text text-anchor="start" x="1168.5" y="-1477.8" font-family="sans" font-size="10.00" fill="#000000"> </text>
<text text-anchor="start" x="751.5" y="-1458" font-family="monospace" font-size="10.00" fill="#000000">temp/reads/extend/tadpole/{sample}_{library}_{read_type_trim}.fastq.gz</text>
<polygon fill="#d98257" stroke="#d98257" points="745.5,-1568 745.5,-1568 1179.5,-1568 1179.5,-1568 745.5,-1568"/>
<polygon fill="#d98257" stroke="#d98257" points="745.5,-1492 745.5,-1492 1179.5,-1492 1179.5,-1492 745.5,-1492"/>
<polygon fill="none" stroke="#d98257" stroke-width="2" points="745,-1449 745,-1597 1178,-1597 1178,-1449 745,-1449"/>
</g>
<!-- 3&#45;&gt;6 -->
<g id="edge16" class="edge">
<title>3&#45;&gt;6</title>
<path fill="none" stroke="#c0c0c0" stroke-width="2" d="M945.2228,-1951.7623C1026.2133,-1908.5685 1123.4693,-1840.7965 1170.5,-1748 1193.4049,-1702.8062 1196.6056,-1677.4236 1170.5,-1634 1164.2156,-1623.5466 1156.5781,-1614.025 1147.9858,-1605.3595"/>
<polygon fill="#c0c0c0" stroke="#c0c0c0" stroke-width="2" points="1150.2077,-1602.6423 1140.5524,-1598.2803 1145.3801,-1607.7113 1150.2077,-1602.6423"/>
</g>
<!-- 7 -->
<g id="node8" class="node">
<title>7</title>
<text text-anchor="start" x="925" y="-1727.6" font-family="sans" font-weight="bold" font-size="18.00" fill="#000000">loglog</text>
<text text-anchor="start" x="751.5" y="-1703.8" font-family="sans" font-size="10.00" fill="#000000"> </text>
<text text-anchor="start" x="755.5" y="-1703.8" font-family="sans" font-weight="bold" font-size="14.00" fill="#000000">↪ input</text>
<text text-anchor="start" x="808.5" y="-1703.8" font-family="sans" font-size="10.00" fill="#000000"> </text>
<text text-anchor="start" x="751.5" y="-1684" font-family="monospace" font-size="10.00" fill="#000000">temp/reads/merge_lanes/{sample}_{library}_{read_type_trim}.fastq.gz</text>
<text text-anchor="start" x="1085.5" y="-1663.8" font-family="sans" font-size="10.00" fill="#000000"> </text>
<text text-anchor="start" x="1089.5" y="-1663.8" font-family="sans" font-weight="bold" font-size="14.00" fill="#000000">output →</text>
<text text-anchor="start" x="1150.5" y="-1663.8" font-family="sans" font-size="10.00" fill="#000000"> </text>
<text text-anchor="start" x="751.5" y="-1644" font-family="monospace" font-size="10.00" fill="#000000">temp/reads/extend/loglog/{sample}_{library}_{read_type_trim}.flag</text>
<polygon fill="#d9ad57" stroke="#d9ad57" points="745.5,-1718 745.5,-1718 1161.5,-1718 1161.5,-1718 745.5,-1718"/>
<polygon fill="#d9ad57" stroke="#d9ad57" points="745.5,-1678 745.5,-1678 1161.5,-1678 1161.5,-1678 745.5,-1678"/>
<polygon fill="none" stroke="#d9ad57" stroke-width="2" points="745,-1635 745,-1747 1160,-1747 1160,-1635 745,-1635"/>
</g>
<!-- 3&#45;&gt;7 -->
<g id="edge18" class="edge">
<title>3&#45;&gt;7</title>
<path fill="none" stroke="#c0c0c0" stroke-width="2" d="M839.331,-1951.7807C863.0372,-1897.1534 898.7434,-1814.8739 923.6899,-1757.3884"/>
<polygon fill="#c0c0c0" stroke="#c0c0c0" stroke-width="2" points="926.982,-1758.5941 927.7523,-1748.0273 920.5606,-1755.8074 926.982,-1758.5941"/>
</g>
<!-- 8 -->
<g id="node9" class="node">
<title>8</title>
<text text-anchor="start" x="407.5" y="-1895.6" font-family="sans" font-weight="bold" font-size="18.00" fill="#000000">vsearch</text>
<text text-anchor="start" x="239.5" y="-1871.8" font-family="sans" font-size="10.00" fill="#000000"> </text>
<text text-anchor="start" x="243.5" y="-1871.8" font-family="sans" font-weight="bold" font-size="14.00" fill="#000000">↪ input</text>
<text text-anchor="start" x="296.5" y="-1871.8" font-family="sans" font-size="10.00" fill="#000000"> </text>
<text text-anchor="start" x="239.5" y="-1852" font-family="monospace" font-size="10.00" fill="#000000">temp/reads/merge_lanes/{sample}_{library}_{read_type_trim}.fastq.gz</text>
<text text-anchor="start" x="573.5" y="-1831.8" font-family="sans" font-size="10.00" fill="#000000"> </text>
<text text-anchor="start" x="577.5" y="-1831.8" font-family="sans" font-weight="bold" font-size="14.00" fill="#000000">output →</text>
<text text-anchor="start" x="638.5" y="-1831.8" font-family="sans" font-size="10.00" fill="#000000"> </text>
<text text-anchor="start" x="239.5" y="-1812" font-family="monospace" font-size="10.00" fill="#000000">stats/reads/derep/{sample}_{library}_{read_type_trim}.log</text>
<text text-anchor="start" x="239.5" y="-1794" font-family="monospace" font-size="10.00" fill="#000000">temp/reads/derep/{sample}_{library}_{read_type_trim}.fastq.gz</text>
<polygon fill="#5782d9" stroke="#5782d9" points="233.5,-1886 233.5,-1886 649.5,-1886 649.5,-1886 233.5,-1886"/>
<polygon fill="#5782d9" stroke="#5782d9" points="233.5,-1846 233.5,-1846 649.5,-1846 649.5,-1846 233.5,-1846"/>
<polygon fill="none" stroke="#5782d9" stroke-width="2" points="233,-1785 233,-1915 648,-1915 648,-1785 233,-1785"/>
</g>
<!-- 3&#45;&gt;8 -->
<g id="edge19" class="edge">
<title>3&#45;&gt;8</title>
<path fill="none" stroke="#c0c0c0" stroke-width="2" d="M680.2698,-1951.9342C655.9193,-1941.582 630.2685,-1930.677 605.1626,-1920.0036"/>
<polygon fill="#c0c0c0" stroke="#c0c0c0" stroke-width="2" points="606.5133,-1916.7747 595.9411,-1916.0832 603.7746,-1923.2168 606.5133,-1916.7747"/>
</g>
<!-- 9 -->
<g id="node10" class="node">
<title>9</title>
<text text-anchor="start" x="419.5" y="-1568.6" font-family="sans" font-weight="bold" font-size="18.00" fill="#000000">seqkit_grep</text>
<text text-anchor="start" x="259.5" y="-1544.8" font-family="sans" font-size="10.00" fill="#000000"> </text>
<text text-anchor="start" x="263.5" y="-1544.8" font-family="sans" font-weight="bold" font-size="14.00" fill="#000000">↪ input</text>
<text text-anchor="start" x="316.5" y="-1544.8" font-family="sans" font-size="10.00" fill="#000000"> </text>
<text text-anchor="start" x="259.5" y="-1525" font-family="monospace" font-size="10.00" fill="#000000">temp/reads/merge_lanes/{sample}_{library}_{read_type_trim}.fastq.gz</text>
<text text-anchor="start" x="259.5" y="-1507" font-family="monospace" font-size="10.00" fill="#000000">temp/reads/represent/fx2tab/{sample}_{library}_{read_type_trim}.tsv</text>
<text text-anchor="start" x="611.5" y="-1486.8" font-family="sans" font-size="10.00" fill="#000000"> </text>
<text text-anchor="start" x="615.5" y="-1486.8" font-family="sans" font-weight="bold" font-size="14.00" fill="#000000">output →</text>
<text text-anchor="start" x="676.5" y="-1486.8" font-family="sans" font-size="10.00" fill="#000000"> </text>
<text text-anchor="start" x="259.5" y="-1467" font-family="monospace" font-size="10.00" fill="#000000">temp/reads/represent/grep/{sample}_{library}_{read_type_trim}.fastq.gz</text>
<polygon fill="#57d9d9" stroke="#57d9d9" points="253.5,-1559 253.5,-1559 687.5,-1559 687.5,-1559 253.5,-1559"/>
<polygon fill="#57d9d9" stroke="#57d9d9" points="253.5,-1501 253.5,-1501 687.5,-1501 687.5,-1501 253.5,-1501"/>
<polygon fill="none" stroke="#57d9d9" stroke-width="2" points="253,-1458 253,-1588 686,-1588 686,-1458 253,-1458"/>
</g>
<!-- 3&#45;&gt;9 -->
<g id="edge21" class="edge">
<title>3&#45;&gt;9</title>
<path fill="none" stroke="#c0c0c0" stroke-width="2" d="M802.7699,-1951.7905C784.0578,-1872.5447 740.8614,-1728.4767 658.5,-1634 646.0432,-1619.7108 631.2775,-1606.7796 615.5733,-1595.2189"/>
<polygon fill="#c0c0c0" stroke="#c0c0c0" stroke-width="2" points="617.4547,-1592.2616 607.2827,-1589.2984 613.3867,-1597.9582 617.4547,-1592.2616"/>
</g>
<!-- 4 -->
<g id="node5" class="node">
<title>4</title>
<text text-anchor="start" x="155" y="-1001.6" font-family="sans" font-weight="bold" font-size="18.00" fill="#000000">nonpareil_plot</text>
<text text-anchor="start" x="7.5" y="-977.8" font-family="sans" font-size="10.00" fill="#000000"> </text>
<text text-anchor="start" x="11.5" y="-977.8" font-family="sans" font-weight="bold" font-size="14.00" fill="#000000">↪ input</text>
<text text-anchor="start" x="64.5" y="-977.8" font-family="sans" font-size="10.00" fill="#000000"> </text>
<text text-anchor="start" x="7.5" y="-958" font-family="monospace" font-size="10.00" fill="#000000">stats/reads/nonpareil/{tool}/{sample}_{library}_{read_type_trim}.npo</text>
<text text-anchor="start" x="359.5" y="-937.8" font-family="sans" font-size="10.00" fill="#000000"> </text>
<text text-anchor="start" x="363.5" y="-937.8" font-family="sans" font-weight="bold" font-size="14.00" fill="#000000">output →</text>
<text text-anchor="start" x="424.5" y="-937.8" font-family="sans" font-size="10.00" fill="#000000"> </text>
<text text-anchor="start" x="7.5" y="-918" font-family="monospace" font-size="10.00" fill="#000000">reports/reads/nonpareil/{tool}/{sample}_{library}_{read_type_trim}.pdf</text>
<text text-anchor="start" x="7.5" y="-900" font-family="monospace" font-size="10.00" fill="#000000">stats/reads/nonpareil/{tool}/{sample}_{library}_{read_type_trim}.json</text>
<text text-anchor="start" x="7.5" y="-882" font-family="monospace" font-size="10.00" fill="#000000">stats/reads/nonpareil/{tool}/{sample}_{library}_{read_type_trim}.tsv</text>
<polygon fill="#57d982" stroke="#57d982" points="1.5,-992 1.5,-992 435.5,-992 435.5,-992 1.5,-992"/>
<polygon fill="#57d982" stroke="#57d982" points="1.5,-952 1.5,-952 435.5,-952 435.5,-952 1.5,-952"/>
<polygon fill="none" stroke="#57d982" stroke-width="2" points="1,-873 1,-1021 434,-1021 434,-873 1,-873"/>
</g>
<!-- 4&#45;&gt;1 -->
<g id="edge4" class="edge">
<title>4&#45;&gt;1</title>
<path fill="none" stroke="#c0c0c0" stroke-width="2" d="M226.4391,-871.7051C227.3885,-863.7081 228.3923,-855.2534 229.4396,-846.4321"/>
<polygon fill="#c0c0c0" stroke="#c0c0c0" stroke-width="2" points="232.9365,-846.6645 230.6399,-836.3216 225.9853,-845.8392 232.9365,-846.6645"/>
</g>
<!-- 5&#45;&gt;4 -->
<g id="edge10" class="edge">
<title>5&#45;&gt;4</title>
<path fill="none" stroke="#c0c0c0" stroke-width="2" d="M215.2254,-1057.8876C215.3983,-1049.46 215.5739,-1040.8965 215.7471,-1032.4552"/>
<polygon fill="#c0c0c0" stroke="#c0c0c0" stroke-width="2" points="219.2508,-1032.3065 215.9567,-1022.2368 212.2522,-1032.1629 219.2508,-1032.3065"/>
</g>
<!-- 6&#45;&gt;2 -->
<g id="edge9" class="edge">
<title>6&#45;&gt;2</title>
<path fill="none" stroke="#c0c0c0" stroke-width="2" d="M931.0746,-1447.7267C902.9189,-1378.0688 861.4552,-1275.4865 834.4622,-1208.7051"/>
<polygon fill="#c0c0c0" stroke="#c0c0c0" stroke-width="2" points="837.5803,-1207.0797 830.5879,-1199.12 831.0904,-1209.7029 837.5803,-1207.0797"/>
</g>
<!-- 6&#45;&gt;5 -->
<g id="edge15" class="edge">
<title>6&#45;&gt;5</title>
<path fill="none" stroke="#c0c0c0" stroke-width="2" d="M743.9223,-1457.7995C727.9554,-1454.1306 712.0276,-1450.8036 696.5,-1448 648.1193,-1439.2647 291.5067,-1445.4741 255.5,-1412 242.4756,-1399.8917 230.2994,-1309.3359 222.4462,-1236.385"/>
<polygon fill="#c0c0c0" stroke="#c0c0c0" stroke-width="2" points="225.9031,-1235.7929 221.3671,-1226.2181 218.9422,-1236.5317 225.9031,-1235.7929"/>
</g>
<!-- 7&#45;&gt;6 -->
<g id="edge17" class="edge">
<title>7&#45;&gt;6</title>
<path fill="none" stroke="#c0c0c0" stroke-width="2" d="M955.5721,-1633.6538C956.0113,-1625.4553 956.4708,-1616.8789 956.9312,-1608.2845"/>
<polygon fill="#c0c0c0" stroke="#c0c0c0" stroke-width="2" points="960.4309,-1608.3817 957.471,-1598.2088 953.4409,-1608.0072 960.4309,-1608.3817"/>
</g>
<!-- 8&#45;&gt;2 -->
<g id="edge7" class="edge">
<title>8&#45;&gt;2</title>
<path fill="none" stroke="#c0c0c0" stroke-width="2" d="M619.0805,-1783.8429C633.7462,-1773.4741 647.2324,-1761.5909 658.5,-1748 746.3564,-1642.0274 651.6652,-1557.1818 735.5,-1448 755.3758,-1422.1149 782.6086,-1439.9243 799.5,-1412 836.3645,-1351.0568 832.3026,-1267.3906 822.9005,-1209.4149"/>
<polygon fill="#c0c0c0" stroke="#c0c0c0" stroke-width="2" points="826.2988,-1208.5238 821.1569,-1199.2604 819.3998,-1209.7085 826.2988,-1208.5238"/>
</g>
<!-- 8&#45;&gt;5 -->
<g id="edge13" class="edge">
<title>8&#45;&gt;5</title>
<path fill="none" stroke="#c0c0c0" stroke-width="2" d="M257.7935,-1783.9394C244.3593,-1773.5944 232.2715,-1761.6887 222.5,-1748 114.2133,-1596.3027 151.4722,-1364.3979 184.7055,-1235.9109"/>
<polygon fill="#c0c0c0" stroke="#c0c0c0" stroke-width="2" points="188.1317,-1236.6442 187.2921,-1226.0827 181.3622,-1234.8626 188.1317,-1236.6442"/>
</g>
<!-- 10 -->
<g id="node11" class="node">
<title>10</title>
<text text-anchor="start" x="383.5" y="-1727.6" font-family="sans" font-weight="bold" font-size="18.00" fill="#000000">seqkit_fx2tab</text>
<text text-anchor="start" x="239.5" y="-1703.8" font-family="sans" font-size="10.00" fill="#000000"> </text>
<text text-anchor="start" x="243.5" y="-1703.8" font-family="sans" font-weight="bold" font-size="14.00" fill="#000000">↪ input</text>
<text text-anchor="start" x="296.5" y="-1703.8" font-family="sans" font-size="10.00" fill="#000000"> </text>
<text text-anchor="start" x="239.5" y="-1684" font-family="monospace" font-size="10.00" fill="#000000">temp/reads/derep/{sample}_{library}_{read_type_trim}.fastq.gz</text>
<text text-anchor="start" x="573.5" y="-1663.8" font-family="sans" font-size="10.00" fill="#000000"> </text>
<text text-anchor="start" x="577.5" y="-1663.8" font-family="sans" font-weight="bold" font-size="14.00" fill="#000000">output →</text>
<text text-anchor="start" x="638.5" y="-1663.8" font-family="sans" font-size="10.00" fill="#000000"> </text>
<text text-anchor="start" x="239.5" y="-1644" font-family="monospace" font-size="10.00" fill="#000000">temp/reads/represent/fx2tab/{sample}_{library}_{read_type_trim}.tsv</text>
<polygon fill="#57d9ad" stroke="#57d9ad" points="233.5,-1718 233.5,-1718 649.5,-1718 649.5,-1718 233.5,-1718"/>
<polygon fill="#57d9ad" stroke="#57d9ad" points="233.5,-1678 233.5,-1678 649.5,-1678 649.5,-1678 233.5,-1678"/>
<polygon fill="none" stroke="#57d9ad" stroke-width="2" points="233,-1635 233,-1747 648,-1747 648,-1635 233,-1635"/>
</g>
<!-- 8&#45;&gt;10 -->
<g id="edge22" class="edge">
<title>8&#45;&gt;10</title>
<path fill="none" stroke="#c0c0c0" stroke-width="2" d="M440.5,-1783.951C440.5,-1775.5194 440.5,-1766.8799 440.5,-1758.4269"/>
<polygon fill="#c0c0c0" stroke="#c0c0c0" stroke-width="2" points="444.0001,-1758.235 440.5,-1748.235 437.0001,-1758.2351 444.0001,-1758.235"/>
</g>
<!-- 9&#45;&gt;2 -->
<g id="edge8" class="edge">
<title>9&#45;&gt;2</title>
<path fill="none" stroke="#c0c0c0" stroke-width="2" d="M671.2474,-1456.9499C720.4885,-1439.0802 761.4872,-1421.9469 769.5,-1412 793.9121,-1381.6953 802.6413,-1278.9482 805.7626,-1209.3098"/>
<polygon fill="#c0c0c0" stroke="#c0c0c0" stroke-width="2" points="809.2607,-1209.4262 806.1837,-1199.2881 802.2669,-1209.1323 809.2607,-1209.4262"/>
</g>
<!-- 9&#45;&gt;5 -->
<g id="edge14" class="edge">
<title>9&#45;&gt;5</title>
<path fill="none" stroke="#c0c0c0" stroke-width="2" d="M266.7327,-1456.8891C249.5603,-1444.391 234.2858,-1429.5689 222.5,-1412 188.3711,-1361.1249 186.7267,-1291.8746 193.3024,-1236.2453"/>
<polygon fill="#c0c0c0" stroke="#c0c0c0" stroke-width="2" points="196.8127,-1236.3895 194.6199,-1226.0241 189.8701,-1235.4945 196.8127,-1236.3895"/>
</g>
<!-- 11 -->
<g id="node12" class="node">
<title>11</title>
<text text-anchor="start" x="446" y="-1391.6" font-family="sans" font-weight="bold" font-size="18.00" fill="#000000">low_complexity</text>
<text text-anchor="start" x="272.5" y="-1367.8" font-family="sans" font-size="10.00" fill="#000000"> </text>
<text text-anchor="start" x="276.5" y="-1367.8" font-family="sans" font-weight="bold" font-size="14.00" fill="#000000">↪ input</text>
<text text-anchor="start" x="329.5" y="-1367.8" font-family="sans" font-size="10.00" fill="#000000"> </text>
<text text-anchor="start" x="272.5" y="-1348" font-family="monospace" font-size="10.00" fill="#000000">temp/reads/represent/grep/{sample}_{library}_{read_type_trim}.fastq.gz</text>
<text text-anchor="start" x="684.5" y="-1327.8" font-family="sans" font-size="10.00" fill="#000000"> </text>
<text text-anchor="start" x="688.5" y="-1327.8" font-family="sans" font-weight="bold" font-size="14.00" fill="#000000">output →</text>
<text text-anchor="start" x="749.5" y="-1327.8" font-family="sans" font-size="10.00" fill="#000000"> </text>
<text text-anchor="start" x="272.5" y="-1308" font-family="monospace" font-size="10.00" fill="#000000">results/reads/low_complexity/{sample}_{library}_{read_type_trim}.fastq.gz</text>
<text text-anchor="start" x="272.5" y="-1290" font-family="monospace" font-size="10.00" fill="#000000">stats/reads/low_complexity/{sample}_{library}_{read_type_trim}.txt</text>
<text text-anchor="start" x="272.5" y="-1272" font-family="monospace" font-size="10.00" fill="#000000">temp/reads/low_complexity/{sample}_{library}_{read_type_trim}.discarded.fastq.gz</text>
<polygon fill="#d9d957" stroke="#d9d957" points="266.5,-1382 266.5,-1382 760.5,-1382 760.5,-1382 266.5,-1382"/>
<polygon fill="#d9d957" stroke="#d9d957" points="266.5,-1342 266.5,-1342 760.5,-1342 760.5,-1342 266.5,-1342"/>
<polygon fill="none" stroke="#d9d957" stroke-width="2" points="266,-1263 266,-1411 759,-1411 759,-1263 266,-1263"/>
</g>
<!-- 9&#45;&gt;11 -->
<g id="edge23" class="edge">
<title>9&#45;&gt;11</title>
<path fill="none" stroke="#c0c0c0" stroke-width="2" d="M484.7813,-1456.8996C487.4027,-1445.5606 490.159,-1433.6377 492.8751,-1421.8889"/>
<polygon fill="#c0c0c0" stroke="#c0c0c0" stroke-width="2" points="496.301,-1422.6088 495.1434,-1412.0774 489.4808,-1421.0321 496.301,-1422.6088"/>
</g>
<!-- 10&#45;&gt;9 -->
<g id="edge20" class="edge">
<title>10&#45;&gt;9</title>
<path fill="none" stroke="#c0c0c0" stroke-width="2" d="M450.399,-1633.6538C452.3154,-1622.5524 454.3513,-1610.7581 456.3525,-1599.1646"/>
<polygon fill="#c0c0c0" stroke="#c0c0c0" stroke-width="2" points="459.8463,-1599.5001 458.0984,-1589.0505 452.9483,-1598.3094 459.8463,-1599.5001"/>
</g>
<!-- 11&#45;&gt;0 -->
<g id="edge1" class="edge">
<title>11&#45;&gt;0</title>
<path fill="none" stroke="#c0c0c0" stroke-width="2" d="M529.2847,-1261.6925C567.8668,-1071.8561 648.1995,-561.8249 493.5,-182 489.5928,-172.4068 484.4123,-163.1627 478.4486,-154.3909"/>
<polygon fill="#c0c0c0" stroke="#c0c0c0" stroke-width="2" points="481.1873,-152.2044 472.507,-146.1297 475.5045,-156.2917 481.1873,-152.2044"/>
</g>
<!-- 11&#45;&gt;2 -->
<g id="edge5" class="edge">
<title>11&#45;&gt;2</title>
<path fill="none" stroke="#c0c0c0" stroke-width="2" d="M626.1327,-1261.8868C654.6688,-1243.024 684.9927,-1222.9794 712.5119,-1204.7888"/>
<polygon fill="#c0c0c0" stroke="#c0c0c0" stroke-width="2" points="714.545,-1207.6404 720.9571,-1199.2063 710.6849,-1201.8009 714.545,-1207.6404"/>
</g>
<!-- 11&#45;&gt;5 -->
<g id="edge11" class="edge">
<title>11&#45;&gt;5</title>
<path fill="none" stroke="#c0c0c0" stroke-width="2" d="M397.3265,-1261.8868C382.1272,-1251.9743 366.4276,-1241.7354 350.9031,-1231.6107"/>
<polygon fill="#c0c0c0" stroke="#c0c0c0" stroke-width="2" points="352.5887,-1228.5315 342.3006,-1226.0004 348.7648,-1234.3948 352.5887,-1228.5315"/>
</g>
</g>
</svg>
