<?xml version="1.0" encoding="UTF-8" standalone="no"?>
<!DOCTYPE svg PUBLIC "-//W3C//DTD SVG 1.1//EN"
 "http://www.w3.org/Graphics/SVG/1.1/DTD/svg11.dtd">
<!-- Generated by graphviz version 2.40.1 (0)
 -->
<!-- Title: snakemake_dag Pages: 1 -->
<svg width="416pt" height="620pt"
 viewBox="0.00 0.00 416.00 620.00" xmlns="http://www.w3.org/2000/svg" xmlns:xlink="http://www.w3.org/1999/xlink">
<g id="graph0" class="graph" transform="scale(1 1) rotate(0) translate(4 616)">
<title>snakemake_dag</title>
<polygon fill="#ffffff" stroke="transparent" points="-4,4 -4,-616 412,-616 412,4 -4,4"/>
<!-- 0 -->
<g id="node1" class="node">
<title>0</title>
<path fill="none" stroke="#d85656" stroke-width="2" d="M171,-36C171,-36 141,-36 141,-36 135,-36 129,-30 129,-24 129,-24 129,-12 129,-12 129,-6 135,0 141,0 141,0 171,0 171,0 177,0 183,-6 183,-12 183,-12 183,-24 183,-24 183,-30 177,-36 171,-36"/>
<text text-anchor="middle" x="156" y="-15.5" font-family="sans" font-size="10.00" fill="#000000">all</text>
</g>
<!-- 1 -->
<g id="node2" class="node">
<title>1</title>
<path fill="none" stroke="#80d856" stroke-width="2" d="M144,-108C144,-108 114,-108 114,-108 108,-108 102,-102 102,-96 102,-96 102,-84 102,-84 102,-78 108,-72 114,-72 114,-72 144,-72 144,-72 150,-72 156,-78 156,-84 156,-84 156,-96 156,-96 156,-102 150,-108 144,-108"/>
<text text-anchor="middle" x="129" y="-87.5" font-family="sans" font-size="10.00" fill="#000000">multiqc</text>
</g>
<!-- 1&#45;&gt;0 -->
<g id="edge2" class="edge">
<title>1&#45;&gt;0</title>
<path fill="none" stroke="#c0c0c0" stroke-width="2" d="M135.8132,-71.8314C138.7644,-63.9617 142.2858,-54.5712 145.555,-45.8533"/>
<polygon fill="#c0c0c0" stroke="#c0c0c0" stroke-width="2" points="148.8609,-47.0055 149.095,-36.4133 142.3066,-44.5476 148.8609,-47.0055"/>
</g>
<!-- 2 -->
<g id="node3" class="node">
<title>2</title>
<path fill="none" stroke="#56a9d8" stroke-width="2" d="M296,-252C296,-252 250,-252 250,-252 244,-252 238,-246 238,-240 238,-240 238,-228 238,-228 238,-222 244,-216 250,-216 250,-216 296,-216 296,-216 302,-216 308,-222 308,-228 308,-228 308,-240 308,-240 308,-246 302,-252 296,-252"/>
<text text-anchor="middle" x="273" y="-231.5" font-family="sans" font-size="10.00" fill="#000000">seqkit_stats</text>
</g>
<!-- 2&#45;&gt;1 -->
<g id="edge4" class="edge">
<title>2&#45;&gt;1</title>
<path fill="none" stroke="#c0c0c0" stroke-width="2" d="M254.7623,-215.7623C229.3354,-190.3354 183.1253,-144.1253 154.3569,-115.3569"/>
<polygon fill="#c0c0c0" stroke="#c0c0c0" stroke-width="2" points="156.6356,-112.6858 147.0896,-108.0896 151.6858,-117.6356 156.6356,-112.6858"/>
</g>
<!-- 3 -->
<g id="node4" class="node">
<title>3</title>
<path fill="none" stroke="#afd856" stroke-width="2" d="M292,-612C292,-612 244,-612 244,-612 238,-612 232,-606 232,-600 232,-600 232,-588 232,-588 232,-582 238,-576 244,-576 244,-576 292,-576 292,-576 298,-576 304,-582 304,-588 304,-588 304,-600 304,-600 304,-606 298,-612 292,-612"/>
<text text-anchor="middle" x="268" y="-591.5" font-family="sans" font-size="10.00" fill="#000000">merge_lanes</text>
</g>
<!-- 3&#45;&gt;2 -->
<g id="edge9" class="edge">
<title>3&#45;&gt;2</title>
<path fill="none" stroke="#c0c0c0" stroke-width="2" d="M304.0535,-576.6361C345.5345,-553.8442 408,-509.6239 408,-450 408,-450 408,-450 408,-378 408,-323.6807 356.2421,-281.4205 316.8219,-257.1114"/>
<polygon fill="#c0c0c0" stroke="#c0c0c0" stroke-width="2" points="318.4962,-254.0345 308.1172,-251.9064 314.9037,-260.0424 318.4962,-254.0345"/>
</g>
<!-- 5 -->
<g id="node6" class="node">
<title>5</title>
<path fill="none" stroke="#59d856" stroke-width="2" d="M105,-252C105,-252 49,-252 49,-252 43,-252 37,-246 37,-240 37,-240 37,-228 37,-228 37,-222 43,-216 49,-216 49,-216 105,-216 105,-216 111,-216 117,-222 117,-228 117,-228 117,-240 117,-240 117,-246 111,-252 105,-252"/>
<text text-anchor="middle" x="77" y="-231.5" font-family="sans" font-size="10.00" fill="#000000">nonpareil_infer</text>
</g>
<!-- 3&#45;&gt;5 -->
<g id="edge15" class="edge">
<title>3&#45;&gt;5</title>
<path fill="none" stroke="#c0c0c0" stroke-width="2" d="M231.8563,-591.1601C158.7038,-583.2357 0,-554.0532 0,-450 0,-450 0,-450 0,-378 0,-332.5253 30.2311,-287.5023 52.8084,-260.2188"/>
<polygon fill="#c0c0c0" stroke="#c0c0c0" stroke-width="2" points="55.7016,-262.2201 59.5275,-252.3402 50.3754,-257.6778 55.7016,-262.2201"/>
</g>
<!-- 6 -->
<g id="node7" class="node">
<title>6</title>
<path fill="none" stroke="#d88556" stroke-width="2" d="M359.5,-396C359.5,-396 300.5,-396 300.5,-396 294.5,-396 288.5,-390 288.5,-384 288.5,-384 288.5,-372 288.5,-372 288.5,-366 294.5,-360 300.5,-360 300.5,-360 359.5,-360 359.5,-360 365.5,-360 371.5,-366 371.5,-372 371.5,-372 371.5,-384 371.5,-384 371.5,-390 365.5,-396 359.5,-396"/>
<text text-anchor="middle" x="330" y="-375.5" font-family="sans" font-size="10.00" fill="#000000">extend_tadpole</text>
</g>
<!-- 3&#45;&gt;6 -->
<g id="edge16" class="edge">
<title>3&#45;&gt;6</title>
<path fill="none" stroke="#c0c0c0" stroke-width="2" d="M285.2198,-575.7718C305.6249,-552.7704 338.4379,-510.9951 351,-468 357.0746,-447.2089 350.9025,-423.3177 343.7108,-405.3778"/>
<polygon fill="#c0c0c0" stroke="#c0c0c0" stroke-width="2" points="346.8697,-403.8647 339.6818,-396.081 340.4469,-406.6482 346.8697,-403.8647"/>
</g>
<!-- 7 -->
<g id="node8" class="node">
<title>7</title>
<path fill="none" stroke="#d8ac56" stroke-width="2" d="M330,-468C330,-468 300,-468 300,-468 294,-468 288,-462 288,-456 288,-456 288,-444 288,-444 288,-438 294,-432 300,-432 300,-432 330,-432 330,-432 336,-432 342,-438 342,-444 342,-444 342,-456 342,-456 342,-462 336,-468 330,-468"/>
<text text-anchor="middle" x="315" y="-447.5" font-family="sans" font-size="10.00" fill="#000000">loglog</text>
</g>
<!-- 3&#45;&gt;7 -->
<g id="edge18" class="edge">
<title>3&#45;&gt;7</title>
<path fill="none" stroke="#c0c0c0" stroke-width="2" d="M273.9526,-575.7623C282.0044,-551.0928 296.4416,-506.8598 305.8699,-477.9731"/>
<polygon fill="#c0c0c0" stroke="#c0c0c0" stroke-width="2" points="309.3201,-478.6821 309.0957,-468.0896 302.6656,-476.5101 309.3201,-478.6821"/>
</g>
<!-- 8 -->
<g id="node9" class="node">
<title>8</title>
<path fill="none" stroke="#5682d8" stroke-width="2" d="M176,-540C176,-540 146,-540 146,-540 140,-540 134,-534 134,-528 134,-528 134,-516 134,-516 134,-510 140,-504 146,-504 146,-504 176,-504 176,-504 182,-504 188,-510 188,-516 188,-516 188,-528 188,-528 188,-534 182,-540 176,-540"/>
<text text-anchor="middle" x="161" y="-519.5" font-family="sans" font-size="10.00" fill="#000000">vsearch</text>
</g>
<!-- 3&#45;&gt;8 -->
<g id="edge19" class="edge">
<title>3&#45;&gt;8</title>
<path fill="none" stroke="#c0c0c0" stroke-width="2" d="M240.9994,-575.8314C227.5669,-566.7927 211.1527,-555.7476 196.6961,-546.0198"/>
<polygon fill="#c0c0c0" stroke="#c0c0c0" stroke-width="2" points="198.2425,-542.8418 187.992,-540.1628 194.3346,-548.6494 198.2425,-542.8418"/>
</g>
<!-- 9 -->
<g id="node10" class="node">
<title>9</title>
<path fill="none" stroke="#56d8d8" stroke-width="2" d="M205.5,-396C205.5,-396 162.5,-396 162.5,-396 156.5,-396 150.5,-390 150.5,-384 150.5,-384 150.5,-372 150.5,-372 150.5,-366 156.5,-360 162.5,-360 162.5,-360 205.5,-360 205.5,-360 211.5,-360 217.5,-366 217.5,-372 217.5,-372 217.5,-384 217.5,-384 217.5,-390 211.5,-396 205.5,-396"/>
<text text-anchor="middle" x="184" y="-375.5" font-family="sans" font-size="10.00" fill="#000000">seqkit_grep</text>
</g>
<!-- 3&#45;&gt;9 -->
<g id="edge20" class="edge">
<title>3&#45;&gt;9</title>
<path fill="none" stroke="#c0c0c0" stroke-width="2" d="M260.9827,-575.9555C246.2827,-538.1556 212.1752,-450.4506 194.7164,-405.5564"/>
<polygon fill="#c0c0c0" stroke="#c0c0c0" stroke-width="2" points="197.943,-404.1965 191.0564,-396.1451 191.4189,-406.7337 197.943,-404.1965"/>
</g>
<!-- 4 -->
<g id="node5" class="node">
<title>4</title>
<path fill="none" stroke="#56d882" stroke-width="2" d="M104.5,-180C104.5,-180 51.5,-180 51.5,-180 45.5,-180 39.5,-174 39.5,-168 39.5,-168 39.5,-156 39.5,-156 39.5,-150 45.5,-144 51.5,-144 51.5,-144 104.5,-144 104.5,-144 110.5,-144 116.5,-150 116.5,-156 116.5,-156 116.5,-168 116.5,-168 116.5,-174 110.5,-180 104.5,-180"/>
<text text-anchor="middle" x="78" y="-159.5" font-family="sans" font-size="10.00" fill="#000000">nonpareil_plot</text>
</g>
<!-- 4&#45;&gt;1 -->
<g id="edge3" class="edge">
<title>4&#45;&gt;1</title>
<path fill="none" stroke="#c0c0c0" stroke-width="2" d="M90.8695,-143.8314C96.6835,-135.6232 103.6696,-125.7606 110.0646,-116.7323"/>
<polygon fill="#c0c0c0" stroke="#c0c0c0" stroke-width="2" points="113.0331,-118.5966 115.9573,-108.4133 107.321,-114.5505 113.0331,-118.5966"/>
</g>
<!-- 5&#45;&gt;4 -->
<g id="edge10" class="edge">
<title>5&#45;&gt;4</title>
<path fill="none" stroke="#c0c0c0" stroke-width="2" d="M77.2523,-215.8314C77.3593,-208.131 77.4865,-198.9743 77.6053,-190.4166"/>
<polygon fill="#c0c0c0" stroke="#c0c0c0" stroke-width="2" points="81.1049,-190.4609 77.7443,-180.4133 74.1056,-190.3637 81.1049,-190.4609"/>
</g>
<!-- 6&#45;&gt;2 -->
<g id="edge7" class="edge">
<title>6&#45;&gt;2</title>
<path fill="none" stroke="#c0c0c0" stroke-width="2" d="M326.7717,-359.9045C323.0987,-341.3602 316.2483,-311.9335 306,-288 302.0617,-278.8027 296.7497,-269.3159 291.5396,-260.9093"/>
<polygon fill="#c0c0c0" stroke="#c0c0c0" stroke-width="2" points="294.3442,-258.7994 285.9958,-252.276 288.454,-262.5817 294.3442,-258.7994"/>
</g>
<!-- 6&#45;&gt;5 -->
<g id="edge13" class="edge">
<title>6&#45;&gt;5</title>
<path fill="none" stroke="#c0c0c0" stroke-width="2" d="M288.1848,-370.2633C237.9721,-360.3429 157.4466,-342.2346 133,-324 111.7029,-308.1146 96.6163,-281.5217 87.5088,-261.3511"/>
<polygon fill="#c0c0c0" stroke="#c0c0c0" stroke-width="2" points="90.6743,-259.8521 83.5172,-252.0402 84.2406,-262.6103 90.6743,-259.8521"/>
</g>
<!-- 7&#45;&gt;6 -->
<g id="edge17" class="edge">
<title>7&#45;&gt;6</title>
<path fill="none" stroke="#c0c0c0" stroke-width="2" d="M318.7851,-431.8314C320.3894,-424.131 322.297,-414.9743 324.0799,-406.4166"/>
<polygon fill="#c0c0c0" stroke="#c0c0c0" stroke-width="2" points="327.5507,-406.9169 326.1639,-396.4133 320.6979,-405.4892 327.5507,-406.9169"/>
</g>
<!-- 8&#45;&gt;2 -->
<g id="edge6" class="edge">
<title>8&#45;&gt;2</title>
<path fill="none" stroke="#c0c0c0" stroke-width="2" d="M176.7758,-503.8944C185.0305,-493.8051 194.8727,-480.7376 202,-468 235.5315,-408.0742 239.8148,-390.2175 258,-324 263.5845,-303.6652 267.4172,-280.1415 269.8099,-262.2445"/>
<polygon fill="#c0c0c0" stroke="#c0c0c0" stroke-width="2" points="273.3021,-262.5263 271.0855,-252.166 266.3575,-261.6473 273.3021,-262.5263"/>
</g>
<!-- 8&#45;&gt;5 -->
<g id="edge12" class="edge">
<title>8&#45;&gt;5</title>
<path fill="none" stroke="#c0c0c0" stroke-width="2" d="M138.3988,-503.9645C127.8806,-494.3774 116.1422,-481.7428 109,-468 73.9896,-400.6346 72.8832,-308.3067 74.9521,-262.3652"/>
<polygon fill="#c0c0c0" stroke="#c0c0c0" stroke-width="2" points="78.454,-262.4203 75.495,-252.2471 71.4641,-262.0452 78.454,-262.4203"/>
</g>
<!-- 10 -->
<g id="node11" class="node">
<title>10</title>
<path fill="none" stroke="#56d8a9" stroke-width="2" d="M181.5,-468C181.5,-468 130.5,-468 130.5,-468 124.5,-468 118.5,-462 118.5,-456 118.5,-456 118.5,-444 118.5,-444 118.5,-438 124.5,-432 130.5,-432 130.5,-432 181.5,-432 181.5,-432 187.5,-432 193.5,-438 193.5,-444 193.5,-444 193.5,-456 193.5,-456 193.5,-462 187.5,-468 181.5,-468"/>
<text text-anchor="middle" x="156" y="-447.5" font-family="sans" font-size="10.00" fill="#000000">seqkit_fx2tab</text>
</g>
<!-- 8&#45;&gt;10 -->
<g id="edge22" class="edge">
<title>8&#45;&gt;10</title>
<path fill="none" stroke="#c0c0c0" stroke-width="2" d="M159.7383,-503.8314C159.2035,-496.131 158.5677,-486.9743 157.9734,-478.4166"/>
<polygon fill="#c0c0c0" stroke="#c0c0c0" stroke-width="2" points="161.4632,-478.1467 157.2787,-468.4133 154.48,-478.6317 161.4632,-478.1467"/>
</g>
<!-- 9&#45;&gt;2 -->
<g id="edge5" class="edge">
<title>9&#45;&gt;2</title>
<path fill="none" stroke="#c0c0c0" stroke-width="2" d="M204.2248,-359.9324C214.4167,-350.0567 226.4024,-337.1751 235,-324 247.6695,-304.585 257.6429,-280.2449 264.1874,-261.774"/>
<polygon fill="#c0c0c0" stroke="#c0c0c0" stroke-width="2" points="267.5425,-262.7793 267.4658,-252.1848 260.9189,-260.5148 267.5425,-262.7793"/>
</g>
<!-- 9&#45;&gt;5 -->
<g id="edge11" class="edge">
<title>9&#45;&gt;5</title>
<path fill="none" stroke="#c0c0c0" stroke-width="2" d="M150.4821,-363.8585C133.0009,-354.8631 112.6766,-341.5765 100,-324 87.0065,-305.9842 81.3368,-281.3019 78.8714,-262.3417"/>
<polygon fill="#c0c0c0" stroke="#c0c0c0" stroke-width="2" points="82.3306,-261.7735 77.782,-252.2048 75.3707,-262.5216 82.3306,-261.7735"/>
</g>
<!-- 11 -->
<g id="node12" class="node">
<title>11</title>
<path fill="none" stroke="#d6d856" stroke-width="2" d="M214,-324C214,-324 154,-324 154,-324 148,-324 142,-318 142,-312 142,-312 142,-300 142,-300 142,-294 148,-288 154,-288 154,-288 214,-288 214,-288 220,-288 226,-294 226,-300 226,-300 226,-312 226,-312 226,-318 220,-324 214,-324"/>
<text text-anchor="middle" x="184" y="-303.5" font-family="sans" font-size="10.00" fill="#000000">low_complexity</text>
</g>
<!-- 9&#45;&gt;11 -->
<g id="edge23" class="edge">
<title>9&#45;&gt;11</title>
<path fill="none" stroke="#c0c0c0" stroke-width="2" d="M184,-359.8314C184,-352.131 184,-342.9743 184,-334.4166"/>
<polygon fill="#c0c0c0" stroke="#c0c0c0" stroke-width="2" points="187.5001,-334.4132 184,-324.4133 180.5001,-334.4133 187.5001,-334.4132"/>
</g>
<!-- 10&#45;&gt;9 -->
<g id="edge21" class="edge">
<title>10&#45;&gt;9</title>
<path fill="none" stroke="#c0c0c0" stroke-width="2" d="M163.0656,-431.8314C166.126,-423.9617 169.7779,-414.5712 173.1682,-405.8533"/>
<polygon fill="#c0c0c0" stroke="#c0c0c0" stroke-width="2" points="176.4768,-407.0019 176.8393,-396.4133 169.9527,-404.4647 176.4768,-407.0019"/>
</g>
<!-- 11&#45;&gt;0 -->
<g id="edge1" class="edge">
<title>11&#45;&gt;0</title>
<path fill="none" stroke="#c0c0c0" stroke-width="2" d="M183.0418,-287.742C180.8555,-248.2716 174.9081,-152.0917 165,-72 163.9662,-63.6435 162.5701,-54.6036 161.1862,-46.3541"/>
<polygon fill="#c0c0c0" stroke="#c0c0c0" stroke-width="2" points="164.6241,-45.694 159.468,-36.4384 157.7268,-46.8892 164.6241,-45.694"/>
</g>
<!-- 11&#45;&gt;2 -->
<g id="edge8" class="edge">
<title>11&#45;&gt;2</title>
<path fill="none" stroke="#c0c0c0" stroke-width="2" d="M206.4585,-287.8314C217.4205,-278.9632 230.7699,-268.1637 242.6265,-258.5718"/>
<polygon fill="#c0c0c0" stroke="#c0c0c0" stroke-width="2" points="244.9755,-261.1734 250.5487,-252.1628 240.5729,-255.7313 244.9755,-261.1734"/>
</g>
<!-- 11&#45;&gt;5 -->
<g id="edge14" class="edge">
<title>11&#45;&gt;5</title>
<path fill="none" stroke="#c0c0c0" stroke-width="2" d="M156.9994,-287.8314C143.5669,-278.7927 127.1527,-267.7476 112.6961,-258.0198"/>
<polygon fill="#c0c0c0" stroke="#c0c0c0" stroke-width="2" points="114.2425,-254.8418 103.992,-252.1628 110.3346,-260.6494 114.2425,-254.8418"/>
</g>
</g>
</svg>
