<?xml version="1.0" encoding="UTF-8" standalone="no"?>
<!DOCTYPE svg PUBLIC "-//W3C//DTD SVG 1.1//EN"
 "http://www.w3.org/Graphics/SVG/1.1/DTD/svg11.dtd">
<!-- Generated by graphviz version 2.40.1 (0)
 -->
<!-- Title: snakemake_dag Pages: 1 -->
<svg width="996pt" height="348pt"
 viewBox="0.00 0.00 996.19 348.00" xmlns="http://www.w3.org/2000/svg" xmlns:xlink="http://www.w3.org/1999/xlink">
<g id="graph0" class="graph" transform="scale(1 1) rotate(0) translate(4 344)">
<title>snakemake_dag</title>
<polygon fill="#ffffff" stroke="transparent" points="-4,4 -4,-344 992.1926,-344 992.1926,4 -4,4"/>
<!-- 0 -->
<g id="node1" class="node">
<title>0</title>
<path fill="none" stroke="#d85656" stroke-width="2" d="M412.1926,-36C412.1926,-36 382.1926,-36 382.1926,-36 376.1926,-36 370.1926,-30 370.1926,-24 370.1926,-24 370.1926,-12 370.1926,-12 370.1926,-6 376.1926,0 382.1926,0 382.1926,0 412.1926,0 412.1926,0 418.1926,0 424.1926,-6 424.1926,-12 424.1926,-12 424.1926,-24 424.1926,-24 424.1926,-30 418.1926,-36 412.1926,-36"/>
<text text-anchor="middle" x="397.1926" y="-15.5" font-family="sans" font-size="10.00" fill="#000000">all</text>
</g>
<!-- 1 -->
<g id="node2" class="node">
<title>1</title>
<path fill="none" stroke="#59d856" stroke-width="2" d="M512.1926,-108C512.1926,-108 482.1926,-108 482.1926,-108 476.1926,-108 470.1926,-102 470.1926,-96 470.1926,-96 470.1926,-84 470.1926,-84 470.1926,-78 476.1926,-72 482.1926,-72 482.1926,-72 512.1926,-72 512.1926,-72 518.1926,-72 524.1926,-78 524.1926,-84 524.1926,-84 524.1926,-96 524.1926,-96 524.1926,-102 518.1926,-108 512.1926,-108"/>
<text text-anchor="middle" x="497.1926" y="-87.5" font-family="sans" font-size="10.00" fill="#000000">multiqc</text>
</g>
<!-- 1&#45;&gt;0 -->
<g id="edge1" class="edge">
<title>1&#45;&gt;0</title>
<path fill="none" stroke="#c0c0c0" stroke-width="2" d="M471.9584,-71.8314C459.4047,-62.7927 444.0643,-51.7476 430.5535,-42.0198"/>
<polygon fill="#c0c0c0" stroke="#c0c0c0" stroke-width="2" points="432.5792,-39.1655 422.4188,-36.1628 428.4891,-44.8463 432.5792,-39.1655"/>
</g>
<!-- 2 -->
<g id="node3" class="node">
<title>2</title>
<path fill="none" stroke="#d8ac56" stroke-width="2" d="M591.1926,-180C591.1926,-180 521.1926,-180 521.1926,-180 515.1926,-180 509.1926,-174 509.1926,-168 509.1926,-168 509.1926,-156 509.1926,-156 509.1926,-150 515.1926,-144 521.1926,-144 521.1926,-144 591.1926,-144 591.1926,-144 597.1926,-144 603.1926,-150 603.1926,-156 603.1926,-156 603.1926,-168 603.1926,-168 603.1926,-174 597.1926,-180 591.1926,-180"/>
<text text-anchor="middle" x="556.1926" y="-165" font-family="sans" font-size="10.00" fill="#000000">fastqc</text>
<text text-anchor="middle" x="556.1926" y="-154" font-family="sans" font-size="10.00" fill="#000000">tool: merge_lanes</text>
</g>
<!-- 2&#45;&gt;1 -->
<g id="edge5" class="edge">
<title>2&#45;&gt;1</title>
<path fill="none" stroke="#c0c0c0" stroke-width="2" d="M541.3044,-143.8314C534.4396,-135.454 526.1626,-125.3531 518.6415,-116.1749"/>
<polygon fill="#c0c0c0" stroke="#c0c0c0" stroke-width="2" points="521.3267,-113.9297 512.2813,-108.4133 515.9124,-118.3665 521.3267,-113.9297"/>
</g>
<!-- 3 -->
<g id="node4" class="node">
<title>3</title>
<path fill="none" stroke="#80d856" stroke-width="2" d="M592.1926,-340C592.1926,-340 488.1926,-340 488.1926,-340 482.1926,-340 476.1926,-334 476.1926,-328 476.1926,-328 476.1926,-300 476.1926,-300 476.1926,-294 482.1926,-288 488.1926,-288 488.1926,-288 592.1926,-288 592.1926,-288 598.1926,-288 604.1926,-294 604.1926,-300 604.1926,-300 604.1926,-328 604.1926,-328 604.1926,-334 598.1926,-340 592.1926,-340"/>
<text text-anchor="middle" x="540.1926" y="-328" font-family="sans" font-size="10.00" fill="#000000">merge_lanes</text>
<text text-anchor="middle" x="540.1926" y="-317" font-family="sans" font-size="10.00" fill="#000000">library: lib1</text>
<text text-anchor="middle" x="540.1926" y="-306" font-family="sans" font-size="10.00" fill="#000000">read_type_trim: collapsed</text>
<text text-anchor="middle" x="540.1926" y="-295" font-family="sans" font-size="10.00" fill="#000000">sample: HD827sonic_2</text>
</g>
<!-- 3&#45;&gt;2 -->
<g id="edge14" class="edge">
<title>3&#45;&gt;2</title>
<path fill="none" stroke="#c0c0c0" stroke-width="2" d="M542.9431,-287.8703C545.7985,-260.7442 550.2513,-218.4425 553.195,-190.4779"/>
<polygon fill="#c0c0c0" stroke="#c0c0c0" stroke-width="2" points="556.714,-190.4799 554.2802,-180.1685 549.7525,-189.7471 556.714,-190.4799"/>
</g>
<!-- 13 -->
<g id="node14" class="node">
<title>13</title>
<path fill="none" stroke="#56d882" stroke-width="2" d="M650.1926,-252C650.1926,-252 580.1926,-252 580.1926,-252 574.1926,-252 568.1926,-246 568.1926,-240 568.1926,-240 568.1926,-228 568.1926,-228 568.1926,-222 574.1926,-216 580.1926,-216 580.1926,-216 650.1926,-216 650.1926,-216 656.1926,-216 662.1926,-222 662.1926,-228 662.1926,-228 662.1926,-240 662.1926,-240 662.1926,-246 656.1926,-252 650.1926,-252"/>
<text text-anchor="middle" x="615.1926" y="-237" font-family="sans" font-size="10.00" fill="#000000">nonpareil_infer</text>
<text text-anchor="middle" x="615.1926" y="-226" font-family="sans" font-size="10.00" fill="#000000">tool: merge_lanes</text>
</g>
<!-- 3&#45;&gt;13 -->
<g id="edge22" class="edge">
<title>3&#45;&gt;13</title>
<path fill="none" stroke="#c0c0c0" stroke-width="2" d="M564.7504,-287.805C573.2092,-278.7823 582.6693,-268.6915 591.0913,-259.7081"/>
<polygon fill="#c0c0c0" stroke="#c0c0c0" stroke-width="2" points="593.8879,-261.8424 598.174,-252.1532 588.7811,-257.0548 593.8879,-261.8424"/>
</g>
<!-- 19 -->
<g id="node20" class="node">
<title>19</title>
<path fill="none" stroke="#afd856" stroke-width="2" d="M468.1926,-252C468.1926,-252 408.1926,-252 408.1926,-252 402.1926,-252 396.1926,-246 396.1926,-240 396.1926,-240 396.1926,-228 396.1926,-228 396.1926,-222 402.1926,-216 408.1926,-216 408.1926,-216 468.1926,-216 468.1926,-216 474.1926,-216 480.1926,-222 480.1926,-228 480.1926,-228 480.1926,-240 480.1926,-240 480.1926,-246 474.1926,-252 468.1926,-252"/>
<text text-anchor="middle" x="438.1926" y="-231.5" font-family="sans" font-size="10.00" fill="#000000">low_complexity</text>
</g>
<!-- 3&#45;&gt;19 -->
<g id="edge28" class="edge">
<title>3&#45;&gt;19</title>
<path fill="none" stroke="#c0c0c0" stroke-width="2" d="M506.794,-287.805C494.7091,-278.3266 481.1213,-267.6695 469.2461,-258.3557"/>
<polygon fill="#c0c0c0" stroke="#c0c0c0" stroke-width="2" points="471.3666,-255.5707 461.338,-252.1532 467.0466,-261.0787 471.3666,-255.5707"/>
</g>
<!-- 4 -->
<g id="node5" class="node">
<title>4</title>
<path fill="none" stroke="#d8ac56" stroke-width="2" d="M221.1926,-180C221.1926,-180 151.1926,-180 151.1926,-180 145.1926,-180 139.1926,-174 139.1926,-168 139.1926,-168 139.1926,-156 139.1926,-156 139.1926,-150 145.1926,-144 151.1926,-144 151.1926,-144 221.1926,-144 221.1926,-144 227.1926,-144 233.1926,-150 233.1926,-156 233.1926,-156 233.1926,-168 233.1926,-168 233.1926,-174 227.1926,-180 221.1926,-180"/>
<text text-anchor="middle" x="186.1926" y="-165" font-family="sans" font-size="10.00" fill="#000000">fastqc</text>
<text text-anchor="middle" x="186.1926" y="-154" font-family="sans" font-size="10.00" fill="#000000">tool: merge_lanes</text>
</g>
<!-- 4&#45;&gt;1 -->
<g id="edge6" class="edge">
<title>4&#45;&gt;1</title>
<path fill="none" stroke="#c0c0c0" stroke-width="2" d="M233.4484,-146.4354C236.3982,-145.5804 239.3305,-144.7609 242.1926,-144 318.9518,-123.5936 410.3224,-105.7856 460.1878,-96.6053"/>
<polygon fill="#c0c0c0" stroke="#c0c0c0" stroke-width="2" points="460.9705,-100.0203 470.1783,-94.7794 459.712,-93.1343 460.9705,-100.0203"/>
</g>
<!-- 5 -->
<g id="node6" class="node">
<title>5</title>
<path fill="none" stroke="#80d856" stroke-width="2" d="M238.1926,-340C238.1926,-340 134.1926,-340 134.1926,-340 128.1926,-340 122.1926,-334 122.1926,-328 122.1926,-328 122.1926,-300 122.1926,-300 122.1926,-294 128.1926,-288 134.1926,-288 134.1926,-288 238.1926,-288 238.1926,-288 244.1926,-288 250.1926,-294 250.1926,-300 250.1926,-300 250.1926,-328 250.1926,-328 250.1926,-334 244.1926,-340 238.1926,-340"/>
<text text-anchor="middle" x="186.1926" y="-328" font-family="sans" font-size="10.00" fill="#000000">merge_lanes</text>
<text text-anchor="middle" x="186.1926" y="-317" font-family="sans" font-size="10.00" fill="#000000">library: lib1</text>
<text text-anchor="middle" x="186.1926" y="-306" font-family="sans" font-size="10.00" fill="#000000">read_type_trim: collapsed</text>
<text text-anchor="middle" x="186.1926" y="-295" font-family="sans" font-size="10.00" fill="#000000">sample: HD827sonic_1</text>
</g>
<!-- 5&#45;&gt;4 -->
<g id="edge15" class="edge">
<title>5&#45;&gt;4</title>
<path fill="none" stroke="#c0c0c0" stroke-width="2" d="M186.1926,-287.8703C186.1926,-260.7442 186.1926,-218.4425 186.1926,-190.4779"/>
<polygon fill="#c0c0c0" stroke="#c0c0c0" stroke-width="2" points="189.6927,-190.1684 186.1926,-180.1685 182.6927,-190.1685 189.6927,-190.1684"/>
</g>
<!-- 11 -->
<g id="node12" class="node">
<title>11</title>
<path fill="none" stroke="#56d882" stroke-width="2" d="M311.1926,-252C311.1926,-252 241.1926,-252 241.1926,-252 235.1926,-252 229.1926,-246 229.1926,-240 229.1926,-240 229.1926,-228 229.1926,-228 229.1926,-222 235.1926,-216 241.1926,-216 241.1926,-216 311.1926,-216 311.1926,-216 317.1926,-216 323.1926,-222 323.1926,-228 323.1926,-228 323.1926,-240 323.1926,-240 323.1926,-246 317.1926,-252 311.1926,-252"/>
<text text-anchor="middle" x="276.1926" y="-237" font-family="sans" font-size="10.00" fill="#000000">nonpareil_infer</text>
<text text-anchor="middle" x="276.1926" y="-226" font-family="sans" font-size="10.00" fill="#000000">tool: merge_lanes</text>
</g>
<!-- 5&#45;&gt;11 -->
<g id="edge20" class="edge">
<title>5&#45;&gt;11</title>
<path fill="none" stroke="#c0c0c0" stroke-width="2" d="M215.662,-287.805C226.1201,-278.5089 237.8538,-268.079 248.1863,-258.8945"/>
<polygon fill="#c0c0c0" stroke="#c0c0c0" stroke-width="2" points="250.6214,-261.4129 255.7702,-252.1532 245.9708,-256.181 250.6214,-261.4129"/>
</g>
<!-- 17 -->
<g id="node18" class="node">
<title>17</title>
<path fill="none" stroke="#afd856" stroke-width="2" d="M98.1926,-252C98.1926,-252 38.1926,-252 38.1926,-252 32.1926,-252 26.1926,-246 26.1926,-240 26.1926,-240 26.1926,-228 26.1926,-228 26.1926,-222 32.1926,-216 38.1926,-216 38.1926,-216 98.1926,-216 98.1926,-216 104.1926,-216 110.1926,-222 110.1926,-228 110.1926,-228 110.1926,-240 110.1926,-240 110.1926,-246 104.1926,-252 98.1926,-252"/>
<text text-anchor="middle" x="68.1926" y="-231.5" font-family="sans" font-size="10.00" fill="#000000">low_complexity</text>
</g>
<!-- 5&#45;&gt;17 -->
<g id="edge26" class="edge">
<title>5&#45;&gt;17</title>
<path fill="none" stroke="#c0c0c0" stroke-width="2" d="M147.555,-287.805C133.3056,-278.1444 117.2499,-267.2592 103.3269,-257.8198"/>
<polygon fill="#c0c0c0" stroke="#c0c0c0" stroke-width="2" points="105.2098,-254.8679 94.9687,-252.1532 101.2817,-260.6619 105.2098,-254.8679"/>
</g>
<!-- 6 -->
<g id="node7" class="node">
<title>6</title>
<path fill="none" stroke="#d8ac56" stroke-width="2" d="M762.1926,-252C762.1926,-252 692.1926,-252 692.1926,-252 686.1926,-252 680.1926,-246 680.1926,-240 680.1926,-240 680.1926,-228 680.1926,-228 680.1926,-222 686.1926,-216 692.1926,-216 692.1926,-216 762.1926,-216 762.1926,-216 768.1926,-216 774.1926,-222 774.1926,-228 774.1926,-228 774.1926,-240 774.1926,-240 774.1926,-246 768.1926,-252 762.1926,-252"/>
<text text-anchor="middle" x="727.1926" y="-237" font-family="sans" font-size="10.00" fill="#000000">fastqc</text>
<text text-anchor="middle" x="727.1926" y="-226" font-family="sans" font-size="10.00" fill="#000000">tool: merge_lanes</text>
</g>
<!-- 6&#45;&gt;1 -->
<g id="edge7" class="edge">
<title>6&#45;&gt;1</title>
<path fill="none" stroke="#c0c0c0" stroke-width="2" d="M728.591,-215.9114C729.1086,-195.6873 726.6455,-163.2541 708.1926,-144 684.4615,-119.2385 588.4115,-102.4544 534.4519,-94.7755"/>
<polygon fill="#c0c0c0" stroke="#c0c0c0" stroke-width="2" points="534.6411,-91.2683 524.2551,-93.3615 533.6795,-98.202 534.6411,-91.2683"/>
</g>
<!-- 7 -->
<g id="node8" class="node">
<title>7</title>
<path fill="none" stroke="#80d856" stroke-width="2" d="M891.1926,-340C891.1926,-340 787.1926,-340 787.1926,-340 781.1926,-340 775.1926,-334 775.1926,-328 775.1926,-328 775.1926,-300 775.1926,-300 775.1926,-294 781.1926,-288 787.1926,-288 787.1926,-288 891.1926,-288 891.1926,-288 897.1926,-288 903.1926,-294 903.1926,-300 903.1926,-300 903.1926,-328 903.1926,-328 903.1926,-334 897.1926,-340 891.1926,-340"/>
<text text-anchor="middle" x="839.1926" y="-328" font-family="sans" font-size="10.00" fill="#000000">merge_lanes</text>
<text text-anchor="middle" x="839.1926" y="-317" font-family="sans" font-size="10.00" fill="#000000">library: lib2</text>
<text text-anchor="middle" x="839.1926" y="-306" font-family="sans" font-size="10.00" fill="#000000">read_type_trim: collapsed</text>
<text text-anchor="middle" x="839.1926" y="-295" font-family="sans" font-size="10.00" fill="#000000">sample: HD827sonic_2</text>
</g>
<!-- 7&#45;&gt;6 -->
<g id="edge16" class="edge">
<title>7&#45;&gt;6</title>
<path fill="none" stroke="#c0c0c0" stroke-width="2" d="M802.5196,-287.805C789.1223,-278.2355 774.0429,-267.4645 760.915,-258.0874"/>
<polygon fill="#c0c0c0" stroke="#c0c0c0" stroke-width="2" points="762.7789,-255.1176 752.6072,-252.1532 758.7102,-260.8137 762.7789,-255.1176"/>
</g>
<!-- 9 -->
<g id="node10" class="node">
<title>9</title>
<path fill="none" stroke="#56d882" stroke-width="2" d="M874.1926,-252C874.1926,-252 804.1926,-252 804.1926,-252 798.1926,-252 792.1926,-246 792.1926,-240 792.1926,-240 792.1926,-228 792.1926,-228 792.1926,-222 798.1926,-216 804.1926,-216 804.1926,-216 874.1926,-216 874.1926,-216 880.1926,-216 886.1926,-222 886.1926,-228 886.1926,-228 886.1926,-240 886.1926,-240 886.1926,-246 880.1926,-252 874.1926,-252"/>
<text text-anchor="middle" x="839.1926" y="-237" font-family="sans" font-size="10.00" fill="#000000">nonpareil_infer</text>
<text text-anchor="middle" x="839.1926" y="-226" font-family="sans" font-size="10.00" fill="#000000">tool: merge_lanes</text>
</g>
<!-- 7&#45;&gt;9 -->
<g id="edge18" class="edge">
<title>7&#45;&gt;9</title>
<path fill="none" stroke="#c0c0c0" stroke-width="2" d="M839.1926,-287.805C839.1926,-279.6026 839.1926,-270.5174 839.1926,-262.1839"/>
<polygon fill="#c0c0c0" stroke="#c0c0c0" stroke-width="2" points="842.6927,-262.1532 839.1926,-252.1532 835.6927,-262.1533 842.6927,-262.1532"/>
</g>
<!-- 15 -->
<g id="node16" class="node">
<title>15</title>
<path fill="none" stroke="#afd856" stroke-width="2" d="M976.1926,-252C976.1926,-252 916.1926,-252 916.1926,-252 910.1926,-252 904.1926,-246 904.1926,-240 904.1926,-240 904.1926,-228 904.1926,-228 904.1926,-222 910.1926,-216 916.1926,-216 916.1926,-216 976.1926,-216 976.1926,-216 982.1926,-216 988.1926,-222 988.1926,-228 988.1926,-228 988.1926,-240 988.1926,-240 988.1926,-246 982.1926,-252 976.1926,-252"/>
<text text-anchor="middle" x="946.1926" y="-231.5" font-family="sans" font-size="10.00" fill="#000000">low_complexity</text>
</g>
<!-- 7&#45;&gt;15 -->
<g id="edge24" class="edge">
<title>7&#45;&gt;15</title>
<path fill="none" stroke="#c0c0c0" stroke-width="2" d="M874.2284,-287.805C886.9057,-278.3266 901.1596,-267.6695 913.6169,-258.3557"/>
<polygon fill="#c0c0c0" stroke="#c0c0c0" stroke-width="2" points="915.9995,-260.9444 921.9127,-252.1532 911.8079,-255.3381 915.9995,-260.9444"/>
</g>
<!-- 8 -->
<g id="node9" class="node">
<title>8</title>
<path fill="none" stroke="#56d8a9" stroke-width="2" d="M820.6926,-180C820.6926,-180 767.6926,-180 767.6926,-180 761.6926,-180 755.6926,-174 755.6926,-168 755.6926,-168 755.6926,-156 755.6926,-156 755.6926,-150 761.6926,-144 767.6926,-144 767.6926,-144 820.6926,-144 820.6926,-144 826.6926,-144 832.6926,-150 832.6926,-156 832.6926,-156 832.6926,-168 832.6926,-168 832.6926,-174 826.6926,-180 820.6926,-180"/>
<text text-anchor="middle" x="794.1926" y="-159.5" font-family="sans" font-size="10.00" fill="#000000">nonpareil_plot</text>
</g>
<!-- 8&#45;&gt;1 -->
<g id="edge8" class="edge">
<title>8&#45;&gt;1</title>
<path fill="none" stroke="#c0c0c0" stroke-width="2" d="M755.5582,-148.3329C750.7453,-146.792 745.872,-145.3082 741.1926,-144 668.7871,-123.7583 582.6058,-106.1775 534.4736,-96.9298"/>
<polygon fill="#c0c0c0" stroke="#c0c0c0" stroke-width="2" points="534.992,-93.4657 524.5134,-95.031 533.6811,-100.3419 534.992,-93.4657"/>
</g>
<!-- 9&#45;&gt;8 -->
<g id="edge17" class="edge">
<title>9&#45;&gt;8</title>
<path fill="none" stroke="#c0c0c0" stroke-width="2" d="M827.8372,-215.8314C822.76,-207.7079 816.67,-197.9637 811.075,-189.0118"/>
<polygon fill="#c0c0c0" stroke="#c0c0c0" stroke-width="2" points="813.969,-187.0383 805.7009,-180.4133 808.033,-190.7483 813.969,-187.0383"/>
</g>
<!-- 10 -->
<g id="node11" class="node">
<title>10</title>
<path fill="none" stroke="#56d8a9" stroke-width="2" d="M316.6926,-180C316.6926,-180 263.6926,-180 263.6926,-180 257.6926,-180 251.6926,-174 251.6926,-168 251.6926,-168 251.6926,-156 251.6926,-156 251.6926,-150 257.6926,-144 263.6926,-144 263.6926,-144 316.6926,-144 316.6926,-144 322.6926,-144 328.6926,-150 328.6926,-156 328.6926,-156 328.6926,-168 328.6926,-168 328.6926,-174 322.6926,-180 316.6926,-180"/>
<text text-anchor="middle" x="290.1926" y="-159.5" font-family="sans" font-size="10.00" fill="#000000">nonpareil_plot</text>
</g>
<!-- 10&#45;&gt;1 -->
<g id="edge9" class="edge">
<title>10&#45;&gt;1</title>
<path fill="none" stroke="#c0c0c0" stroke-width="2" d="M329.1277,-148.4574C366.7024,-135.3879 423.1798,-115.7436 460.1155,-102.8964"/>
<polygon fill="#c0c0c0" stroke="#c0c0c0" stroke-width="2" points="461.6879,-106.0552 469.9831,-99.4642 459.3882,-99.4437 461.6879,-106.0552"/>
</g>
<!-- 11&#45;&gt;10 -->
<g id="edge19" class="edge">
<title>11&#45;&gt;10</title>
<path fill="none" stroke="#c0c0c0" stroke-width="2" d="M279.7254,-215.8314C281.2227,-208.131 283.0032,-198.9743 284.6672,-190.4166"/>
<polygon fill="#c0c0c0" stroke="#c0c0c0" stroke-width="2" points="288.1391,-190.8975 286.6123,-180.4133 281.2678,-189.5614 288.1391,-190.8975"/>
</g>
<!-- 12 -->
<g id="node13" class="node">
<title>12</title>
<path fill="none" stroke="#56d8a9" stroke-width="2" d="M686.6926,-180C686.6926,-180 633.6926,-180 633.6926,-180 627.6926,-180 621.6926,-174 621.6926,-168 621.6926,-168 621.6926,-156 621.6926,-156 621.6926,-150 627.6926,-144 633.6926,-144 633.6926,-144 686.6926,-144 686.6926,-144 692.6926,-144 698.6926,-150 698.6926,-156 698.6926,-156 698.6926,-168 698.6926,-168 698.6926,-174 692.6926,-180 686.6926,-180"/>
<text text-anchor="middle" x="660.1926" y="-159.5" font-family="sans" font-size="10.00" fill="#000000">nonpareil_plot</text>
</g>
<!-- 12&#45;&gt;1 -->
<g id="edge10" class="edge">
<title>12&#45;&gt;1</title>
<path fill="none" stroke="#c0c0c0" stroke-width="2" d="M621.5639,-144.937C594.9008,-133.1594 559.6796,-117.6016 533.5269,-106.0495"/>
<polygon fill="#c0c0c0" stroke="#c0c0c0" stroke-width="2" points="534.8963,-102.8282 524.3347,-101.9891 532.0678,-109.2313 534.8963,-102.8282"/>
</g>
<!-- 13&#45;&gt;12 -->
<g id="edge21" class="edge">
<title>13&#45;&gt;12</title>
<path fill="none" stroke="#c0c0c0" stroke-width="2" d="M626.548,-215.8314C631.6252,-207.7079 637.7153,-197.9637 643.3103,-189.0118"/>
<polygon fill="#c0c0c0" stroke="#c0c0c0" stroke-width="2" points="646.3523,-190.7483 648.6843,-180.4133 640.4163,-187.0383 646.3523,-190.7483"/>
</g>
<!-- 14 -->
<g id="node15" class="node">
<title>14</title>
<path fill="none" stroke="#d8ac56" stroke-width="2" d="M945.1926,-180C945.1926,-180 863.1926,-180 863.1926,-180 857.1926,-180 851.1926,-174 851.1926,-168 851.1926,-168 851.1926,-156 851.1926,-156 851.1926,-150 857.1926,-144 863.1926,-144 863.1926,-144 945.1926,-144 945.1926,-144 951.1926,-144 957.1926,-150 957.1926,-156 957.1926,-156 957.1926,-168 957.1926,-168 957.1926,-174 951.1926,-180 945.1926,-180"/>
<text text-anchor="middle" x="904.1926" y="-165" font-family="sans" font-size="10.00" fill="#000000">fastqc</text>
<text text-anchor="middle" x="904.1926" y="-154" font-family="sans" font-size="10.00" fill="#000000">tool: low_complexity</text>
</g>
<!-- 14&#45;&gt;1 -->
<g id="edge11" class="edge">
<title>14&#45;&gt;1</title>
<path fill="none" stroke="#c0c0c0" stroke-width="2" d="M850.8698,-146.0518C847.9436,-145.3228 845.0372,-144.6329 842.1926,-144 731.1987,-119.3068 597.6562,-101.8106 534.1846,-94.2204"/>
<polygon fill="#c0c0c0" stroke="#c0c0c0" stroke-width="2" points="534.5937,-90.7445 524.2517,-93.0453 533.7712,-97.696 534.5937,-90.7445"/>
</g>
<!-- 15&#45;&gt;0 -->
<g id="edge3" class="edge">
<title>15&#45;&gt;0</title>
<path fill="none" stroke="#c0c0c0" stroke-width="2" d="M958.2448,-215.7753C969.6383,-196.0295 982.7258,-164.5949 966.1926,-144 898.7824,-60.0295 550.1018,-28.588 434.4866,-20.3751"/>
<polygon fill="#c0c0c0" stroke="#c0c0c0" stroke-width="2" points="434.5737,-16.8728 424.3556,-19.6729 434.0897,-23.8561 434.5737,-16.8728"/>
</g>
<!-- 15&#45;&gt;14 -->
<g id="edge23" class="edge">
<title>15&#45;&gt;14</title>
<path fill="none" stroke="#c0c0c0" stroke-width="2" d="M935.5943,-215.8314C930.9049,-207.7925 925.2898,-198.1666 920.1128,-189.2918"/>
<polygon fill="#c0c0c0" stroke="#c0c0c0" stroke-width="2" points="922.9957,-187.2875 914.9337,-180.4133 916.9492,-190.8146 922.9957,-187.2875"/>
</g>
<!-- 16 -->
<g id="node17" class="node">
<title>16</title>
<path fill="none" stroke="#d8ac56" stroke-width="2" d="M109.1926,-180C109.1926,-180 27.1926,-180 27.1926,-180 21.1926,-180 15.1926,-174 15.1926,-168 15.1926,-168 15.1926,-156 15.1926,-156 15.1926,-150 21.1926,-144 27.1926,-144 27.1926,-144 109.1926,-144 109.1926,-144 115.1926,-144 121.1926,-150 121.1926,-156 121.1926,-156 121.1926,-168 121.1926,-168 121.1926,-174 115.1926,-180 109.1926,-180"/>
<text text-anchor="middle" x="68.1926" y="-165" font-family="sans" font-size="10.00" fill="#000000">fastqc</text>
<text text-anchor="middle" x="68.1926" y="-154" font-family="sans" font-size="10.00" fill="#000000">tool: low_complexity</text>
</g>
<!-- 16&#45;&gt;1 -->
<g id="edge12" class="edge">
<title>16&#45;&gt;1</title>
<path fill="none" stroke="#c0c0c0" stroke-width="2" d="M121.5085,-146.0202C124.4365,-145.2994 127.3451,-144.6198 130.1926,-144 249.3585,-118.0617 393.0437,-100.9494 459.7668,-93.7987"/>
<polygon fill="#c0c0c0" stroke="#c0c0c0" stroke-width="2" points="460.2231,-97.2701 469.7991,-92.7368 459.4862,-90.309 460.2231,-97.2701"/>
</g>
<!-- 17&#45;&gt;0 -->
<g id="edge4" class="edge">
<title>17&#45;&gt;0</title>
<path fill="none" stroke="#c0c0c0" stroke-width="2" d="M37.6969,-215.7757C25.5104,-206.7056 12.8154,-194.5508 6.1926,-180 -.4355,-165.4374 -3.2276,-156.9329 6.1926,-144 48.9566,-85.2897 271.194,-40.24 360.2385,-24.2796"/>
<polygon fill="#c0c0c0" stroke="#c0c0c0" stroke-width="2" points="360.9327,-27.7112 370.1695,-22.5216 359.7125,-20.8184 360.9327,-27.7112"/>
</g>
<!-- 17&#45;&gt;16 -->
<g id="edge25" class="edge">
<title>17&#45;&gt;16</title>
<path fill="none" stroke="#c0c0c0" stroke-width="2" d="M68.1926,-215.8314C68.1926,-208.131 68.1926,-198.9743 68.1926,-190.4166"/>
<polygon fill="#c0c0c0" stroke="#c0c0c0" stroke-width="2" points="71.6927,-190.4132 68.1926,-180.4133 64.6927,-190.4133 71.6927,-190.4132"/>
</g>
<!-- 18 -->
<g id="node19" class="node">
<title>18</title>
<path fill="none" stroke="#d8ac56" stroke-width="2" d="M479.1926,-180C479.1926,-180 397.1926,-180 397.1926,-180 391.1926,-180 385.1926,-174 385.1926,-168 385.1926,-168 385.1926,-156 385.1926,-156 385.1926,-150 391.1926,-144 397.1926,-144 397.1926,-144 479.1926,-144 479.1926,-144 485.1926,-144 491.1926,-150 491.1926,-156 491.1926,-156 491.1926,-168 491.1926,-168 491.1926,-174 485.1926,-180 479.1926,-180"/>
<text text-anchor="middle" x="438.1926" y="-165" font-family="sans" font-size="10.00" fill="#000000">fastqc</text>
<text text-anchor="middle" x="438.1926" y="-154" font-family="sans" font-size="10.00" fill="#000000">tool: low_complexity</text>
</g>
<!-- 18&#45;&gt;1 -->
<g id="edge13" class="edge">
<title>18&#45;&gt;1</title>
<path fill="none" stroke="#c0c0c0" stroke-width="2" d="M453.0808,-143.8314C459.9456,-135.454 468.2227,-125.3531 475.7437,-116.1749"/>
<polygon fill="#c0c0c0" stroke="#c0c0c0" stroke-width="2" points="478.4729,-118.3665 482.104,-108.4133 473.0585,-113.9297 478.4729,-118.3665"/>
</g>
<!-- 19&#45;&gt;0 -->
<g id="edge2" class="edge">
<title>19&#45;&gt;0</title>
<path fill="none" stroke="#c0c0c0" stroke-width="2" d="M407.6969,-215.7757C395.5104,-206.7056 382.8154,-194.5508 376.1926,-180 356.2294,-136.1391 372.0197,-79.1312 384.8955,-45.7531"/>
<polygon fill="#c0c0c0" stroke="#c0c0c0" stroke-width="2" points="388.2566,-46.7769 388.755,-36.1938 381.7657,-44.1562 388.2566,-46.7769"/>
</g>
<!-- 19&#45;&gt;18 -->
<g id="edge27" class="edge">
<title>19&#45;&gt;18</title>
<path fill="none" stroke="#c0c0c0" stroke-width="2" d="M438.1926,-215.8314C438.1926,-208.131 438.1926,-198.9743 438.1926,-190.4166"/>
<polygon fill="#c0c0c0" stroke="#c0c0c0" stroke-width="2" points="441.6927,-190.4132 438.1926,-180.4133 434.6927,-190.4133 441.6927,-190.4132"/>
</g>
</g>
</svg>
