<?xml version="1.0" encoding="UTF-8" standalone="no"?>
<!DOCTYPE svg PUBLIC "-//W3C//DTD SVG 1.1//EN"
 "http://www.w3.org/Graphics/SVG/1.1/DTD/svg11.dtd">
<!-- Generated by graphviz version 2.40.1 (0)
 -->
<!-- Title: snakemake_dag Pages: 1 -->
<svg width="1285pt" height="348pt"
 viewBox="0.00 0.00 1285.29 348.00" xmlns="http://www.w3.org/2000/svg" xmlns:xlink="http://www.w3.org/1999/xlink">
<g id="graph0" class="graph" transform="scale(1 1) rotate(0) translate(4 344)">
<title>snakemake_dag</title>
<polygon fill="#ffffff" stroke="transparent" points="-4,4 -4,-344 1281.2867,-344 1281.2867,4 -4,4"/>
<!-- 0 -->
<g id="node1" class="node">
<title>0</title>
<path fill="none" stroke="#d85656" stroke-width="2" d="M704.2867,-36C704.2867,-36 674.2867,-36 674.2867,-36 668.2867,-36 662.2867,-30 662.2867,-24 662.2867,-24 662.2867,-12 662.2867,-12 662.2867,-6 668.2867,0 674.2867,0 674.2867,0 704.2867,0 704.2867,0 710.2867,0 716.2867,-6 716.2867,-12 716.2867,-12 716.2867,-24 716.2867,-24 716.2867,-30 710.2867,-36 704.2867,-36"/>
<text text-anchor="middle" x="689.2867" y="-15.5" font-family="sans" font-size="10.00" fill="#000000">all</text>
</g>
<!-- 1 -->
<g id="node2" class="node">
<title>1</title>
<path fill="none" stroke="#59d856" stroke-width="2" d="M704.2867,-108C704.2867,-108 674.2867,-108 674.2867,-108 668.2867,-108 662.2867,-102 662.2867,-96 662.2867,-96 662.2867,-84 662.2867,-84 662.2867,-78 668.2867,-72 674.2867,-72 674.2867,-72 704.2867,-72 704.2867,-72 710.2867,-72 716.2867,-78 716.2867,-84 716.2867,-84 716.2867,-96 716.2867,-96 716.2867,-102 710.2867,-108 704.2867,-108"/>
<text text-anchor="middle" x="689.2867" y="-87.5" font-family="sans" font-size="10.00" fill="#000000">multiqc</text>
</g>
<!-- 1&#45;&gt;0 -->
<g id="edge1" class="edge">
<title>1&#45;&gt;0</title>
<path fill="none" stroke="#c0c0c0" stroke-width="2" d="M689.2867,-71.8314C689.2867,-64.131 689.2867,-54.9743 689.2867,-46.4166"/>
<polygon fill="#c0c0c0" stroke="#c0c0c0" stroke-width="2" points="692.7868,-46.4132 689.2867,-36.4133 685.7868,-46.4133 692.7868,-46.4132"/>
</g>
<!-- 2 -->
<g id="node3" class="node">
<title>2</title>
<path fill="none" stroke="#d8ac56" stroke-width="2" d="M221.2867,-180C221.2867,-180 151.2867,-180 151.2867,-180 145.2867,-180 139.2867,-174 139.2867,-168 139.2867,-168 139.2867,-156 139.2867,-156 139.2867,-150 145.2867,-144 151.2867,-144 151.2867,-144 221.2867,-144 221.2867,-144 227.2867,-144 233.2867,-150 233.2867,-156 233.2867,-156 233.2867,-168 233.2867,-168 233.2867,-174 227.2867,-180 221.2867,-180"/>
<text text-anchor="middle" x="186.2867" y="-165" font-family="sans" font-size="10.00" fill="#000000">fastqc</text>
<text text-anchor="middle" x="186.2867" y="-154" font-family="sans" font-size="10.00" fill="#000000">tool: merge_lanes</text>
</g>
<!-- 2&#45;&gt;1 -->
<g id="edge6" class="edge">
<title>2&#45;&gt;1</title>
<path fill="none" stroke="#c0c0c0" stroke-width="2" d="M233.5301,-152.3992C248.455,-149.5152 265.0318,-146.4655 280.2867,-144 416.7541,-121.9441 579.9299,-102.451 651.9704,-94.1933"/>
<polygon fill="#c0c0c0" stroke="#c0c0c0" stroke-width="2" points="652.3853,-97.6688 661.924,-93.0576 651.5916,-90.7139 652.3853,-97.6688"/>
</g>
<!-- 3 -->
<g id="node4" class="node">
<title>3</title>
<path fill="none" stroke="#80d856" stroke-width="2" d="M238.2867,-340C238.2867,-340 134.2867,-340 134.2867,-340 128.2867,-340 122.2867,-334 122.2867,-328 122.2867,-328 122.2867,-300 122.2867,-300 122.2867,-294 128.2867,-288 134.2867,-288 134.2867,-288 238.2867,-288 238.2867,-288 244.2867,-288 250.2867,-294 250.2867,-300 250.2867,-300 250.2867,-328 250.2867,-328 250.2867,-334 244.2867,-340 238.2867,-340"/>
<text text-anchor="middle" x="186.2867" y="-328" font-family="sans" font-size="10.00" fill="#000000">merge_lanes</text>
<text text-anchor="middle" x="186.2867" y="-317" font-family="sans" font-size="10.00" fill="#000000">library: lib1</text>
<text text-anchor="middle" x="186.2867" y="-306" font-family="sans" font-size="10.00" fill="#000000">read_type_trim: collapsed</text>
<text text-anchor="middle" x="186.2867" y="-295" font-family="sans" font-size="10.00" fill="#000000">sample: HD827sonic_2</text>
</g>
<!-- 3&#45;&gt;2 -->
<g id="edge18" class="edge">
<title>3&#45;&gt;2</title>
<path fill="none" stroke="#c0c0c0" stroke-width="2" d="M186.2867,-287.8703C186.2867,-260.7442 186.2867,-218.4425 186.2867,-190.4779"/>
<polygon fill="#c0c0c0" stroke="#c0c0c0" stroke-width="2" points="189.7868,-190.1684 186.2867,-180.1685 182.7868,-190.1685 189.7868,-190.1684"/>
</g>
<!-- 11 -->
<g id="node12" class="node">
<title>11</title>
<path fill="none" stroke="#56d882" stroke-width="2" d="M331.2867,-252C331.2867,-252 261.2867,-252 261.2867,-252 255.2867,-252 249.2867,-246 249.2867,-240 249.2867,-240 249.2867,-228 249.2867,-228 249.2867,-222 255.2867,-216 261.2867,-216 261.2867,-216 331.2867,-216 331.2867,-216 337.2867,-216 343.2867,-222 343.2867,-228 343.2867,-228 343.2867,-240 343.2867,-240 343.2867,-246 337.2867,-252 331.2867,-252"/>
<text text-anchor="middle" x="296.2867" y="-237" font-family="sans" font-size="10.00" fill="#000000">nonpareil_infer</text>
<text text-anchor="middle" x="296.2867" y="-226" font-family="sans" font-size="10.00" fill="#000000">tool: merge_lanes</text>
</g>
<!-- 3&#45;&gt;11 -->
<g id="edge23" class="edge">
<title>3&#45;&gt;11</title>
<path fill="none" stroke="#c0c0c0" stroke-width="2" d="M222.3048,-287.805C235.4628,-278.2355 250.273,-267.4645 263.1665,-258.0874"/>
<polygon fill="#c0c0c0" stroke="#c0c0c0" stroke-width="2" points="265.2972,-260.8656 271.326,-252.1532 261.18,-255.2044 265.2972,-260.8656"/>
</g>
<!-- 25 -->
<g id="node26" class="node">
<title>25</title>
<path fill="none" stroke="#afd856" stroke-width="2" d="M98.2867,-252C98.2867,-252 38.2867,-252 38.2867,-252 32.2867,-252 26.2867,-246 26.2867,-240 26.2867,-240 26.2867,-228 26.2867,-228 26.2867,-222 32.2867,-216 38.2867,-216 38.2867,-216 98.2867,-216 98.2867,-216 104.2867,-216 110.2867,-222 110.2867,-228 110.2867,-228 110.2867,-240 110.2867,-240 110.2867,-246 104.2867,-252 98.2867,-252"/>
<text text-anchor="middle" x="68.2867" y="-231.5" font-family="sans" font-size="10.00" fill="#000000">low_complexity</text>
</g>
<!-- 3&#45;&gt;25 -->
<g id="edge37" class="edge">
<title>3&#45;&gt;25</title>
<path fill="none" stroke="#c0c0c0" stroke-width="2" d="M147.649,-287.805C133.3996,-278.1444 117.344,-267.2592 103.4209,-257.8198"/>
<polygon fill="#c0c0c0" stroke="#c0c0c0" stroke-width="2" points="105.3039,-254.8679 95.0627,-252.1532 101.3757,-260.6619 105.3039,-254.8679"/>
</g>
<!-- 4 -->
<g id="node5" class="node">
<title>4</title>
<path fill="none" stroke="#d8ac56" stroke-width="2" d="M687.2867,-180C687.2867,-180 617.2867,-180 617.2867,-180 611.2867,-180 605.2867,-174 605.2867,-168 605.2867,-168 605.2867,-156 605.2867,-156 605.2867,-150 611.2867,-144 617.2867,-144 617.2867,-144 687.2867,-144 687.2867,-144 693.2867,-144 699.2867,-150 699.2867,-156 699.2867,-156 699.2867,-168 699.2867,-168 699.2867,-174 693.2867,-180 687.2867,-180"/>
<text text-anchor="middle" x="652.2867" y="-165" font-family="sans" font-size="10.00" fill="#000000">fastqc</text>
<text text-anchor="middle" x="652.2867" y="-154" font-family="sans" font-size="10.00" fill="#000000">tool: merge_lanes</text>
</g>
<!-- 4&#45;&gt;1 -->
<g id="edge7" class="edge">
<title>4&#45;&gt;1</title>
<path fill="none" stroke="#c0c0c0" stroke-width="2" d="M661.6233,-143.8314C665.7109,-135.8771 670.597,-126.369 675.1176,-117.5723"/>
<polygon fill="#c0c0c0" stroke="#c0c0c0" stroke-width="2" points="678.3666,-118.9074 679.8243,-108.4133 672.1405,-115.7078 678.3666,-118.9074"/>
</g>
<!-- 5 -->
<g id="node6" class="node">
<title>5</title>
<path fill="none" stroke="#80d856" stroke-width="2" d="M592.2867,-340C592.2867,-340 488.2867,-340 488.2867,-340 482.2867,-340 476.2867,-334 476.2867,-328 476.2867,-328 476.2867,-300 476.2867,-300 476.2867,-294 482.2867,-288 488.2867,-288 488.2867,-288 592.2867,-288 592.2867,-288 598.2867,-288 604.2867,-294 604.2867,-300 604.2867,-300 604.2867,-328 604.2867,-328 604.2867,-334 598.2867,-340 592.2867,-340"/>
<text text-anchor="middle" x="540.2867" y="-328" font-family="sans" font-size="10.00" fill="#000000">merge_lanes</text>
<text text-anchor="middle" x="540.2867" y="-317" font-family="sans" font-size="10.00" fill="#000000">library: lib1</text>
<text text-anchor="middle" x="540.2867" y="-306" font-family="sans" font-size="10.00" fill="#000000">read_type_trim: collapsed</text>
<text text-anchor="middle" x="540.2867" y="-295" font-family="sans" font-size="10.00" fill="#000000">sample: HD827sonic_1</text>
</g>
<!-- 5&#45;&gt;4 -->
<g id="edge19" class="edge">
<title>5&#45;&gt;4</title>
<path fill="none" stroke="#c0c0c0" stroke-width="2" d="M565.9064,-287.7351C575.8449,-277.021 587.036,-264.2805 596.2867,-252 611.5369,-231.7549 626.587,-207.2431 637.2381,-188.9156"/>
<polygon fill="#c0c0c0" stroke="#c0c0c0" stroke-width="2" points="640.2947,-190.6211 642.2397,-180.2063 634.2245,-187.135 640.2947,-190.6211"/>
</g>
<!-- 13 -->
<g id="node14" class="node">
<title>13</title>
<path fill="none" stroke="#56d882" stroke-width="2" d="M575.2867,-252C575.2867,-252 505.2867,-252 505.2867,-252 499.2867,-252 493.2867,-246 493.2867,-240 493.2867,-240 493.2867,-228 493.2867,-228 493.2867,-222 499.2867,-216 505.2867,-216 505.2867,-216 575.2867,-216 575.2867,-216 581.2867,-216 587.2867,-222 587.2867,-228 587.2867,-228 587.2867,-240 587.2867,-240 587.2867,-246 581.2867,-252 575.2867,-252"/>
<text text-anchor="middle" x="540.2867" y="-237" font-family="sans" font-size="10.00" fill="#000000">nonpareil_infer</text>
<text text-anchor="middle" x="540.2867" y="-226" font-family="sans" font-size="10.00" fill="#000000">tool: merge_lanes</text>
</g>
<!-- 5&#45;&gt;13 -->
<g id="edge25" class="edge">
<title>5&#45;&gt;13</title>
<path fill="none" stroke="#c0c0c0" stroke-width="2" d="M540.2867,-287.805C540.2867,-279.6026 540.2867,-270.5174 540.2867,-262.1839"/>
<polygon fill="#c0c0c0" stroke="#c0c0c0" stroke-width="2" points="543.7868,-262.1532 540.2867,-252.1532 536.7868,-262.1533 543.7868,-262.1532"/>
</g>
<!-- 21 -->
<g id="node22" class="node">
<title>21</title>
<path fill="none" stroke="#afd856" stroke-width="2" d="M463.2867,-252C463.2867,-252 403.2867,-252 403.2867,-252 397.2867,-252 391.2867,-246 391.2867,-240 391.2867,-240 391.2867,-228 391.2867,-228 391.2867,-222 397.2867,-216 403.2867,-216 403.2867,-216 463.2867,-216 463.2867,-216 469.2867,-216 475.2867,-222 475.2867,-228 475.2867,-228 475.2867,-240 475.2867,-240 475.2867,-246 469.2867,-252 463.2867,-252"/>
<text text-anchor="middle" x="433.2867" y="-231.5" font-family="sans" font-size="10.00" fill="#000000">low_complexity</text>
</g>
<!-- 5&#45;&gt;21 -->
<g id="edge33" class="edge">
<title>5&#45;&gt;21</title>
<path fill="none" stroke="#c0c0c0" stroke-width="2" d="M505.2509,-287.805C492.5735,-278.3266 478.3196,-267.6695 465.8624,-258.3557"/>
<polygon fill="#c0c0c0" stroke="#c0c0c0" stroke-width="2" points="467.6714,-255.3381 457.5666,-252.1532 463.4798,-260.9444 467.6714,-255.3381"/>
</g>
<!-- 6 -->
<g id="node7" class="node">
<title>6</title>
<path fill="none" stroke="#d8ac56" stroke-width="2" d="M1051.2867,-252C1051.2867,-252 981.2867,-252 981.2867,-252 975.2867,-252 969.2867,-246 969.2867,-240 969.2867,-240 969.2867,-228 969.2867,-228 969.2867,-222 975.2867,-216 981.2867,-216 981.2867,-216 1051.2867,-216 1051.2867,-216 1057.2867,-216 1063.2867,-222 1063.2867,-228 1063.2867,-228 1063.2867,-240 1063.2867,-240 1063.2867,-246 1057.2867,-252 1051.2867,-252"/>
<text text-anchor="middle" x="1016.2867" y="-237" font-family="sans" font-size="10.00" fill="#000000">fastqc</text>
<text text-anchor="middle" x="1016.2867" y="-226" font-family="sans" font-size="10.00" fill="#000000">tool: merge_lanes</text>
</g>
<!-- 6&#45;&gt;1 -->
<g id="edge8" class="edge">
<title>6&#45;&gt;1</title>
<path fill="none" stroke="#c0c0c0" stroke-width="2" d="M1011.2372,-215.6623C1004.5244,-194.8911 990.5842,-161.6456 966.2867,-144 928.4676,-116.5346 793.1609,-100.014 726.6853,-93.3799"/>
<polygon fill="#c0c0c0" stroke="#c0c0c0" stroke-width="2" points="726.9253,-89.8868 716.6328,-92.3999 726.246,-96.8537 726.9253,-89.8868"/>
</g>
<!-- 7 -->
<g id="node8" class="node">
<title>7</title>
<path fill="none" stroke="#80d856" stroke-width="2" d="M1180.2867,-340C1180.2867,-340 1076.2867,-340 1076.2867,-340 1070.2867,-340 1064.2867,-334 1064.2867,-328 1064.2867,-328 1064.2867,-300 1064.2867,-300 1064.2867,-294 1070.2867,-288 1076.2867,-288 1076.2867,-288 1180.2867,-288 1180.2867,-288 1186.2867,-288 1192.2867,-294 1192.2867,-300 1192.2867,-300 1192.2867,-328 1192.2867,-328 1192.2867,-334 1186.2867,-340 1180.2867,-340"/>
<text text-anchor="middle" x="1128.2867" y="-328" font-family="sans" font-size="10.00" fill="#000000">merge_lanes</text>
<text text-anchor="middle" x="1128.2867" y="-317" font-family="sans" font-size="10.00" fill="#000000">library: lib2</text>
<text text-anchor="middle" x="1128.2867" y="-306" font-family="sans" font-size="10.00" fill="#000000">read_type_trim: collapsed</text>
<text text-anchor="middle" x="1128.2867" y="-295" font-family="sans" font-size="10.00" fill="#000000">sample: HD827sonic_2</text>
</g>
<!-- 7&#45;&gt;6 -->
<g id="edge20" class="edge">
<title>7&#45;&gt;6</title>
<path fill="none" stroke="#c0c0c0" stroke-width="2" d="M1091.6137,-287.805C1078.2164,-278.2355 1063.1369,-267.4645 1050.009,-258.0874"/>
<polygon fill="#c0c0c0" stroke="#c0c0c0" stroke-width="2" points="1051.8729,-255.1176 1041.7012,-252.1532 1047.8042,-260.8137 1051.8729,-255.1176"/>
</g>
<!-- 17 -->
<g id="node18" class="node">
<title>17</title>
<path fill="none" stroke="#56d882" stroke-width="2" d="M1163.2867,-252C1163.2867,-252 1093.2867,-252 1093.2867,-252 1087.2867,-252 1081.2867,-246 1081.2867,-240 1081.2867,-240 1081.2867,-228 1081.2867,-228 1081.2867,-222 1087.2867,-216 1093.2867,-216 1093.2867,-216 1163.2867,-216 1163.2867,-216 1169.2867,-216 1175.2867,-222 1175.2867,-228 1175.2867,-228 1175.2867,-240 1175.2867,-240 1175.2867,-246 1169.2867,-252 1163.2867,-252"/>
<text text-anchor="middle" x="1128.2867" y="-237" font-family="sans" font-size="10.00" fill="#000000">nonpareil_infer</text>
<text text-anchor="middle" x="1128.2867" y="-226" font-family="sans" font-size="10.00" fill="#000000">tool: merge_lanes</text>
</g>
<!-- 7&#45;&gt;17 -->
<g id="edge29" class="edge">
<title>7&#45;&gt;17</title>
<path fill="none" stroke="#c0c0c0" stroke-width="2" d="M1128.2867,-287.805C1128.2867,-279.6026 1128.2867,-270.5174 1128.2867,-262.1839"/>
<polygon fill="#c0c0c0" stroke="#c0c0c0" stroke-width="2" points="1131.7868,-262.1532 1128.2867,-252.1532 1124.7868,-262.1533 1131.7868,-262.1532"/>
</g>
<!-- 23 -->
<g id="node24" class="node">
<title>23</title>
<path fill="none" stroke="#afd856" stroke-width="2" d="M1265.2867,-252C1265.2867,-252 1205.2867,-252 1205.2867,-252 1199.2867,-252 1193.2867,-246 1193.2867,-240 1193.2867,-240 1193.2867,-228 1193.2867,-228 1193.2867,-222 1199.2867,-216 1205.2867,-216 1205.2867,-216 1265.2867,-216 1265.2867,-216 1271.2867,-216 1277.2867,-222 1277.2867,-228 1277.2867,-228 1277.2867,-240 1277.2867,-240 1277.2867,-246 1271.2867,-252 1265.2867,-252"/>
<text text-anchor="middle" x="1235.2867" y="-231.5" font-family="sans" font-size="10.00" fill="#000000">low_complexity</text>
</g>
<!-- 7&#45;&gt;23 -->
<g id="edge35" class="edge">
<title>7&#45;&gt;23</title>
<path fill="none" stroke="#c0c0c0" stroke-width="2" d="M1163.3225,-287.805C1175.9998,-278.3266 1190.2537,-267.6695 1202.7109,-258.3557"/>
<polygon fill="#c0c0c0" stroke="#c0c0c0" stroke-width="2" points="1205.0935,-260.9444 1211.0067,-252.1532 1200.9019,-255.3381 1205.0935,-260.9444"/>
</g>
<!-- 8 -->
<g id="node9" class="node">
<title>8</title>
<path fill="none" stroke="#d8ac56" stroke-width="2" d="M725.2867,-252C725.2867,-252 655.2867,-252 655.2867,-252 649.2867,-252 643.2867,-246 643.2867,-240 643.2867,-240 643.2867,-228 643.2867,-228 643.2867,-222 649.2867,-216 655.2867,-216 655.2867,-216 725.2867,-216 725.2867,-216 731.2867,-216 737.2867,-222 737.2867,-228 737.2867,-228 737.2867,-240 737.2867,-240 737.2867,-246 731.2867,-252 725.2867,-252"/>
<text text-anchor="middle" x="690.2867" y="-237" font-family="sans" font-size="10.00" fill="#000000">fastqc</text>
<text text-anchor="middle" x="690.2867" y="-226" font-family="sans" font-size="10.00" fill="#000000">tool: merge_lanes</text>
</g>
<!-- 8&#45;&gt;1 -->
<g id="edge9" class="edge">
<title>8&#45;&gt;1</title>
<path fill="none" stroke="#c0c0c0" stroke-width="2" d="M697.9546,-215.8756C701.9005,-205.5642 706.2921,-192.2907 708.2867,-180 710.8496,-164.2066 710.9804,-159.7716 708.2867,-144 706.7878,-135.2245 704.0116,-125.9785 701.0354,-117.6659"/>
<polygon fill="#c0c0c0" stroke="#c0c0c0" stroke-width="2" points="704.2139,-116.1782 697.3783,-108.0835 697.674,-118.6742 704.2139,-116.1782"/>
</g>
<!-- 9 -->
<g id="node10" class="node">
<title>9</title>
<path fill="none" stroke="#80d856" stroke-width="2" d="M854.2867,-340C854.2867,-340 750.2867,-340 750.2867,-340 744.2867,-340 738.2867,-334 738.2867,-328 738.2867,-328 738.2867,-300 738.2867,-300 738.2867,-294 744.2867,-288 750.2867,-288 750.2867,-288 854.2867,-288 854.2867,-288 860.2867,-288 866.2867,-294 866.2867,-300 866.2867,-300 866.2867,-328 866.2867,-328 866.2867,-334 860.2867,-340 854.2867,-340"/>
<text text-anchor="middle" x="802.2867" y="-328" font-family="sans" font-size="10.00" fill="#000000">merge_lanes</text>
<text text-anchor="middle" x="802.2867" y="-317" font-family="sans" font-size="10.00" fill="#000000">library: lib3</text>
<text text-anchor="middle" x="802.2867" y="-306" font-family="sans" font-size="10.00" fill="#000000">read_type_trim: collapsed</text>
<text text-anchor="middle" x="802.2867" y="-295" font-family="sans" font-size="10.00" fill="#000000">sample: HD827sonic_2</text>
</g>
<!-- 9&#45;&gt;8 -->
<g id="edge21" class="edge">
<title>9&#45;&gt;8</title>
<path fill="none" stroke="#c0c0c0" stroke-width="2" d="M765.6137,-287.805C752.2164,-278.2355 737.1369,-267.4645 724.009,-258.0874"/>
<polygon fill="#c0c0c0" stroke="#c0c0c0" stroke-width="2" points="725.8729,-255.1176 715.7012,-252.1532 721.8042,-260.8137 725.8729,-255.1176"/>
</g>
<!-- 15 -->
<g id="node16" class="node">
<title>15</title>
<path fill="none" stroke="#56d882" stroke-width="2" d="M837.2867,-252C837.2867,-252 767.2867,-252 767.2867,-252 761.2867,-252 755.2867,-246 755.2867,-240 755.2867,-240 755.2867,-228 755.2867,-228 755.2867,-222 761.2867,-216 767.2867,-216 767.2867,-216 837.2867,-216 837.2867,-216 843.2867,-216 849.2867,-222 849.2867,-228 849.2867,-228 849.2867,-240 849.2867,-240 849.2867,-246 843.2867,-252 837.2867,-252"/>
<text text-anchor="middle" x="802.2867" y="-237" font-family="sans" font-size="10.00" fill="#000000">nonpareil_infer</text>
<text text-anchor="middle" x="802.2867" y="-226" font-family="sans" font-size="10.00" fill="#000000">tool: merge_lanes</text>
</g>
<!-- 9&#45;&gt;15 -->
<g id="edge27" class="edge">
<title>9&#45;&gt;15</title>
<path fill="none" stroke="#c0c0c0" stroke-width="2" d="M802.2867,-287.805C802.2867,-279.6026 802.2867,-270.5174 802.2867,-262.1839"/>
<polygon fill="#c0c0c0" stroke="#c0c0c0" stroke-width="2" points="805.7868,-262.1532 802.2867,-252.1532 798.7868,-262.1533 805.7868,-262.1532"/>
</g>
<!-- 19 -->
<g id="node20" class="node">
<title>19</title>
<path fill="none" stroke="#afd856" stroke-width="2" d="M939.2867,-252C939.2867,-252 879.2867,-252 879.2867,-252 873.2867,-252 867.2867,-246 867.2867,-240 867.2867,-240 867.2867,-228 867.2867,-228 867.2867,-222 873.2867,-216 879.2867,-216 879.2867,-216 939.2867,-216 939.2867,-216 945.2867,-216 951.2867,-222 951.2867,-228 951.2867,-228 951.2867,-240 951.2867,-240 951.2867,-246 945.2867,-252 939.2867,-252"/>
<text text-anchor="middle" x="909.2867" y="-231.5" font-family="sans" font-size="10.00" fill="#000000">low_complexity</text>
</g>
<!-- 9&#45;&gt;19 -->
<g id="edge31" class="edge">
<title>9&#45;&gt;19</title>
<path fill="none" stroke="#c0c0c0" stroke-width="2" d="M837.3225,-287.805C849.9998,-278.3266 864.2537,-267.6695 876.7109,-258.3557"/>
<polygon fill="#c0c0c0" stroke="#c0c0c0" stroke-width="2" points="879.0935,-260.9444 885.0067,-252.1532 874.9019,-255.3381 879.0935,-260.9444"/>
</g>
<!-- 10 -->
<g id="node11" class="node">
<title>10</title>
<path fill="none" stroke="#56d8a9" stroke-width="2" d="M354.7867,-180C354.7867,-180 301.7867,-180 301.7867,-180 295.7867,-180 289.7867,-174 289.7867,-168 289.7867,-168 289.7867,-156 289.7867,-156 289.7867,-150 295.7867,-144 301.7867,-144 301.7867,-144 354.7867,-144 354.7867,-144 360.7867,-144 366.7867,-150 366.7867,-156 366.7867,-156 366.7867,-168 366.7867,-168 366.7867,-174 360.7867,-180 354.7867,-180"/>
<text text-anchor="middle" x="328.2867" y="-159.5" font-family="sans" font-size="10.00" fill="#000000">nonpareil_plot</text>
</g>
<!-- 10&#45;&gt;1 -->
<g id="edge10" class="edge">
<title>10&#45;&gt;1</title>
<path fill="none" stroke="#c0c0c0" stroke-width="2" d="M366.8547,-146.8256C370.0225,-145.7972 373.1943,-144.8386 376.2867,-144 474.1893,-117.4513 593.0086,-101.1742 652.1322,-94.1152"/>
<polygon fill="#c0c0c0" stroke="#c0c0c0" stroke-width="2" points="652.5949,-97.585 662.1188,-92.9432 651.7789,-90.6328 652.5949,-97.585"/>
</g>
<!-- 11&#45;&gt;10 -->
<g id="edge22" class="edge">
<title>11&#45;&gt;10</title>
<path fill="none" stroke="#c0c0c0" stroke-width="2" d="M304.3616,-215.8314C307.8968,-207.8771 312.1226,-198.369 316.0323,-189.5723"/>
<polygon fill="#c0c0c0" stroke="#c0c0c0" stroke-width="2" points="319.2399,-190.9729 320.103,-180.4133 312.8432,-188.1299 319.2399,-190.9729"/>
</g>
<!-- 12 -->
<g id="node13" class="node">
<title>12</title>
<path fill="none" stroke="#56d8a9" stroke-width="2" d="M574.7867,-180C574.7867,-180 521.7867,-180 521.7867,-180 515.7867,-180 509.7867,-174 509.7867,-168 509.7867,-168 509.7867,-156 509.7867,-156 509.7867,-150 515.7867,-144 521.7867,-144 521.7867,-144 574.7867,-144 574.7867,-144 580.7867,-144 586.7867,-150 586.7867,-156 586.7867,-156 586.7867,-168 586.7867,-168 586.7867,-174 580.7867,-180 574.7867,-180"/>
<text text-anchor="middle" x="548.2867" y="-159.5" font-family="sans" font-size="10.00" fill="#000000">nonpareil_plot</text>
</g>
<!-- 12&#45;&gt;1 -->
<g id="edge11" class="edge">
<title>12&#45;&gt;1</title>
<path fill="none" stroke="#c0c0c0" stroke-width="2" d="M583.8669,-143.8314C605.0445,-133.0173 631.8463,-119.3312 653.1256,-108.4652"/>
<polygon fill="#c0c0c0" stroke="#c0c0c0" stroke-width="2" points="654.8591,-111.51 662.1735,-103.845 651.6757,-105.2757 654.8591,-111.51"/>
</g>
<!-- 13&#45;&gt;12 -->
<g id="edge24" class="edge">
<title>13&#45;&gt;12</title>
<path fill="none" stroke="#c0c0c0" stroke-width="2" d="M542.3054,-215.8314C543.161,-208.131 544.1784,-198.9743 545.1292,-190.4166"/>
<polygon fill="#c0c0c0" stroke="#c0c0c0" stroke-width="2" points="548.6149,-190.7386 546.2407,-180.4133 541.6577,-189.9656 548.6149,-190.7386"/>
</g>
<!-- 14 -->
<g id="node15" class="node">
<title>14</title>
<path fill="none" stroke="#56d8a9" stroke-width="2" d="M820.7867,-180C820.7867,-180 767.7867,-180 767.7867,-180 761.7867,-180 755.7867,-174 755.7867,-168 755.7867,-168 755.7867,-156 755.7867,-156 755.7867,-150 761.7867,-144 767.7867,-144 767.7867,-144 820.7867,-144 820.7867,-144 826.7867,-144 832.7867,-150 832.7867,-156 832.7867,-156 832.7867,-168 832.7867,-168 832.7867,-174 826.7867,-180 820.7867,-180"/>
<text text-anchor="middle" x="794.2867" y="-159.5" font-family="sans" font-size="10.00" fill="#000000">nonpareil_plot</text>
</g>
<!-- 14&#45;&gt;1 -->
<g id="edge12" class="edge">
<title>14&#45;&gt;1</title>
<path fill="none" stroke="#c0c0c0" stroke-width="2" d="M767.7907,-143.8314C754.6093,-134.7927 738.5019,-123.7476 724.3156,-114.0198"/>
<polygon fill="#c0c0c0" stroke="#c0c0c0" stroke-width="2" points="726.0008,-110.9316 715.7741,-108.1628 722.0421,-116.7047 726.0008,-110.9316"/>
</g>
<!-- 15&#45;&gt;14 -->
<g id="edge26" class="edge">
<title>15&#45;&gt;14</title>
<path fill="none" stroke="#c0c0c0" stroke-width="2" d="M800.2679,-215.8314C799.4123,-208.131 798.3949,-198.9743 797.4441,-190.4166"/>
<polygon fill="#c0c0c0" stroke="#c0c0c0" stroke-width="2" points="800.9156,-189.9656 796.3326,-180.4133 793.9584,-190.7386 800.9156,-189.9656"/>
</g>
<!-- 16 -->
<g id="node17" class="node">
<title>16</title>
<path fill="none" stroke="#56d8a9" stroke-width="2" d="M1116.7867,-180C1116.7867,-180 1063.7867,-180 1063.7867,-180 1057.7867,-180 1051.7867,-174 1051.7867,-168 1051.7867,-168 1051.7867,-156 1051.7867,-156 1051.7867,-150 1057.7867,-144 1063.7867,-144 1063.7867,-144 1116.7867,-144 1116.7867,-144 1122.7867,-144 1128.7867,-150 1128.7867,-156 1128.7867,-156 1128.7867,-168 1128.7867,-168 1128.7867,-174 1122.7867,-180 1116.7867,-180"/>
<text text-anchor="middle" x="1090.2867" y="-159.5" font-family="sans" font-size="10.00" fill="#000000">nonpareil_plot</text>
</g>
<!-- 16&#45;&gt;1 -->
<g id="edge13" class="edge">
<title>16&#45;&gt;1</title>
<path fill="none" stroke="#c0c0c0" stroke-width="2" d="M1051.3552,-154.0964C1035.2545,-150.8806 1016.3865,-147.1801 999.2867,-144 901.1964,-125.7579 785.2878,-106.0605 726.9076,-96.2686"/>
<polygon fill="#c0c0c0" stroke="#c0c0c0" stroke-width="2" points="727.1343,-92.7579 716.6935,-94.5581 725.9781,-99.6618 727.1343,-92.7579"/>
</g>
<!-- 17&#45;&gt;16 -->
<g id="edge28" class="edge">
<title>17&#45;&gt;16</title>
<path fill="none" stroke="#c0c0c0" stroke-width="2" d="M1118.6976,-215.8314C1114.4549,-207.7925 1109.3746,-198.1666 1104.6907,-189.2918"/>
<polygon fill="#c0c0c0" stroke="#c0c0c0" stroke-width="2" points="1107.7678,-187.6235 1100.0048,-180.4133 1101.5771,-190.8908 1107.7678,-187.6235"/>
</g>
<!-- 18 -->
<g id="node19" class="node">
<title>18</title>
<path fill="none" stroke="#d8ac56" stroke-width="2" d="M945.2867,-180C945.2867,-180 863.2867,-180 863.2867,-180 857.2867,-180 851.2867,-174 851.2867,-168 851.2867,-168 851.2867,-156 851.2867,-156 851.2867,-150 857.2867,-144 863.2867,-144 863.2867,-144 945.2867,-144 945.2867,-144 951.2867,-144 957.2867,-150 957.2867,-156 957.2867,-156 957.2867,-168 957.2867,-168 957.2867,-174 951.2867,-180 945.2867,-180"/>
<text text-anchor="middle" x="904.2867" y="-165" font-family="sans" font-size="10.00" fill="#000000">fastqc</text>
<text text-anchor="middle" x="904.2867" y="-154" font-family="sans" font-size="10.00" fill="#000000">tool: low_complexity</text>
</g>
<!-- 18&#45;&gt;1 -->
<g id="edge14" class="edge">
<title>18&#45;&gt;1</title>
<path fill="none" stroke="#c0c0c0" stroke-width="2" d="M851.1406,-144.2022C812.2071,-131.1641 760.3655,-113.8032 725.9617,-102.2819"/>
<polygon fill="#c0c0c0" stroke="#c0c0c0" stroke-width="2" points="726.9063,-98.9072 716.3124,-99.0505 724.6834,-105.5449 726.9063,-98.9072"/>
</g>
<!-- 19&#45;&gt;0 -->
<g id="edge3" class="edge">
<title>19&#45;&gt;0</title>
<path fill="none" stroke="#c0c0c0" stroke-width="2" d="M936.7761,-215.7646C948.1715,-206.5451 960.1464,-194.2754 966.2867,-180 972.6087,-165.302 974.947,-157.4536 966.2867,-144 912.6273,-60.6418 788.8075,-31.7886 726.5102,-22.3233"/>
<polygon fill="#c0c0c0" stroke="#c0c0c0" stroke-width="2" points="726.7363,-18.8201 716.3414,-20.8684 725.7449,-25.7495 726.7363,-18.8201"/>
</g>
<!-- 19&#45;&gt;18 -->
<g id="edge30" class="edge">
<title>19&#45;&gt;18</title>
<path fill="none" stroke="#c0c0c0" stroke-width="2" d="M908.0249,-215.8314C907.4902,-208.131 906.8543,-198.9743 906.26,-190.4166"/>
<polygon fill="#c0c0c0" stroke="#c0c0c0" stroke-width="2" points="909.7498,-190.1467 905.5654,-180.4133 902.7666,-190.6317 909.7498,-190.1467"/>
</g>
<!-- 20 -->
<g id="node21" class="node">
<title>20</title>
<path fill="none" stroke="#d8ac56" stroke-width="2" d="M479.2867,-180C479.2867,-180 397.2867,-180 397.2867,-180 391.2867,-180 385.2867,-174 385.2867,-168 385.2867,-168 385.2867,-156 385.2867,-156 385.2867,-150 391.2867,-144 397.2867,-144 397.2867,-144 479.2867,-144 479.2867,-144 485.2867,-144 491.2867,-150 491.2867,-156 491.2867,-156 491.2867,-168 491.2867,-168 491.2867,-174 485.2867,-180 479.2867,-180"/>
<text text-anchor="middle" x="438.2867" y="-165" font-family="sans" font-size="10.00" fill="#000000">fastqc</text>
<text text-anchor="middle" x="438.2867" y="-154" font-family="sans" font-size="10.00" fill="#000000">tool: low_complexity</text>
</g>
<!-- 20&#45;&gt;1 -->
<g id="edge15" class="edge">
<title>20&#45;&gt;1</title>
<path fill="none" stroke="#c0c0c0" stroke-width="2" d="M491.3822,-146.5691C494.3943,-145.6987 497.3786,-144.8376 500.2867,-144 553.1165,-128.7841 614.3036,-111.3335 652.407,-100.4869"/>
<polygon fill="#c0c0c0" stroke="#c0c0c0" stroke-width="2" points="653.3865,-103.8472 662.0466,-97.7436 651.4704,-97.1145 653.3865,-103.8472"/>
</g>
<!-- 21&#45;&gt;0 -->
<g id="edge2" class="edge">
<title>21&#45;&gt;0</title>
<path fill="none" stroke="#c0c0c0" stroke-width="2" d="M391.1259,-224.8575C350.5219,-215.0968 293.3834,-198.5109 280.2867,-180 271.0455,-166.9386 270.7832,-156.8719 280.2867,-144 325.4895,-82.7752 560.2489,-38.8531 652.2476,-23.7468"/>
<polygon fill="#c0c0c0" stroke="#c0c0c0" stroke-width="2" points="652.9179,-27.184 662.2293,-22.1293 651.7981,-20.2741 652.9179,-27.184"/>
</g>
<!-- 21&#45;&gt;20 -->
<g id="edge32" class="edge">
<title>21&#45;&gt;20</title>
<path fill="none" stroke="#c0c0c0" stroke-width="2" d="M434.5484,-215.8314C435.0831,-208.131 435.719,-198.9743 436.3133,-190.4166"/>
<polygon fill="#c0c0c0" stroke="#c0c0c0" stroke-width="2" points="439.8067,-190.6317 437.008,-180.4133 432.8235,-190.1467 439.8067,-190.6317"/>
</g>
<!-- 22 -->
<g id="node23" class="node">
<title>22</title>
<path fill="none" stroke="#d8ac56" stroke-width="2" d="M1241.2867,-180C1241.2867,-180 1159.2867,-180 1159.2867,-180 1153.2867,-180 1147.2867,-174 1147.2867,-168 1147.2867,-168 1147.2867,-156 1147.2867,-156 1147.2867,-150 1153.2867,-144 1159.2867,-144 1159.2867,-144 1241.2867,-144 1241.2867,-144 1247.2867,-144 1253.2867,-150 1253.2867,-156 1253.2867,-156 1253.2867,-168 1253.2867,-168 1253.2867,-174 1247.2867,-180 1241.2867,-180"/>
<text text-anchor="middle" x="1200.2867" y="-165" font-family="sans" font-size="10.00" fill="#000000">fastqc</text>
<text text-anchor="middle" x="1200.2867" y="-154" font-family="sans" font-size="10.00" fill="#000000">tool: low_complexity</text>
</g>
<!-- 22&#45;&gt;1 -->
<g id="edge16" class="edge">
<title>22&#45;&gt;1</title>
<path fill="none" stroke="#c0c0c0" stroke-width="2" d="M1146.9899,-145.929C1144.057,-145.2317 1141.1421,-144.5822 1138.2867,-144 987.2963,-113.2161 803.9094,-97.894 726.5516,-92.4198"/>
<polygon fill="#c0c0c0" stroke="#c0c0c0" stroke-width="2" points="726.5726,-88.913 716.3542,-91.7122 726.0879,-95.8962 726.5726,-88.913"/>
</g>
<!-- 23&#45;&gt;0 -->
<g id="edge4" class="edge">
<title>23&#45;&gt;0</title>
<path fill="none" stroke="#c0c0c0" stroke-width="2" d="M1249.4895,-215.9202C1263.0607,-196.3014 1279.1523,-164.9772 1262.2867,-144 1194.3624,-59.5167 843.2572,-28.4151 726.8393,-20.3314"/>
<polygon fill="#c0c0c0" stroke="#c0c0c0" stroke-width="2" points="726.8517,-16.8243 716.6381,-19.6407 726.3788,-23.8083 726.8517,-16.8243"/>
</g>
<!-- 23&#45;&gt;22 -->
<g id="edge34" class="edge">
<title>23&#45;&gt;22</title>
<path fill="none" stroke="#c0c0c0" stroke-width="2" d="M1226.4547,-215.8314C1222.588,-207.8771 1217.966,-198.369 1213.6899,-189.5723"/>
<polygon fill="#c0c0c0" stroke="#c0c0c0" stroke-width="2" points="1216.7573,-187.8768 1209.2375,-180.4133 1210.4617,-190.9371 1216.7573,-187.8768"/>
</g>
<!-- 24 -->
<g id="node25" class="node">
<title>24</title>
<path fill="none" stroke="#d8ac56" stroke-width="2" d="M109.2867,-180C109.2867,-180 27.2867,-180 27.2867,-180 21.2867,-180 15.2867,-174 15.2867,-168 15.2867,-168 15.2867,-156 15.2867,-156 15.2867,-150 21.2867,-144 27.2867,-144 27.2867,-144 109.2867,-144 109.2867,-144 115.2867,-144 121.2867,-150 121.2867,-156 121.2867,-156 121.2867,-168 121.2867,-168 121.2867,-174 115.2867,-180 109.2867,-180"/>
<text text-anchor="middle" x="68.2867" y="-165" font-family="sans" font-size="10.00" fill="#000000">fastqc</text>
<text text-anchor="middle" x="68.2867" y="-154" font-family="sans" font-size="10.00" fill="#000000">tool: low_complexity</text>
</g>
<!-- 24&#45;&gt;1 -->
<g id="edge17" class="edge">
<title>24&#45;&gt;1</title>
<path fill="none" stroke="#c0c0c0" stroke-width="2" d="M121.5673,-145.8481C124.5044,-145.1717 127.4246,-144.5487 130.2867,-144 324.6373,-106.7377 562.1886,-94.6175 652.2751,-91.1948"/>
<polygon fill="#c0c0c0" stroke="#c0c0c0" stroke-width="2" points="652.4055,-94.6925 662.2704,-90.8282 652.1488,-87.6972 652.4055,-94.6925"/>
</g>
<!-- 25&#45;&gt;0 -->
<g id="edge5" class="edge">
<title>25&#45;&gt;0</title>
<path fill="none" stroke="#c0c0c0" stroke-width="2" d="M41.119,-215.8663C16.6342,-197.2916 -12.8122,-167.841 6.2867,-144 87.9527,-42.0566 520.5963,-22.4182 651.6408,-18.7898"/>
<polygon fill="#c0c0c0" stroke="#c0c0c0" stroke-width="2" points="652.0579,-22.2802 661.9631,-18.5203 651.8752,-15.2826 652.0579,-22.2802"/>
</g>
<!-- 25&#45;&gt;24 -->
<g id="edge36" class="edge">
<title>25&#45;&gt;24</title>
<path fill="none" stroke="#c0c0c0" stroke-width="2" d="M68.2867,-215.8314C68.2867,-208.131 68.2867,-198.9743 68.2867,-190.4166"/>
<polygon fill="#c0c0c0" stroke="#c0c0c0" stroke-width="2" points="71.7868,-190.4132 68.2867,-180.4133 64.7868,-190.4133 71.7868,-190.4132"/>
</g>
</g>
</svg>
