<?xml version="1.0" encoding="UTF-8" standalone="no"?>
<!DOCTYPE svg PUBLIC "-//W3C//DTD SVG 1.1//EN"
 "http://www.w3.org/Graphics/SVG/1.1/DTD/svg11.dtd">
<!-- Generated by graphviz version 2.40.1 (0)
 -->
<!-- Title: snakemake_dag Pages: 1 -->
<svg width="1277pt" height="348pt"
 viewBox="0.00 0.00 1277.16 348.00" xmlns="http://www.w3.org/2000/svg" xmlns:xlink="http://www.w3.org/1999/xlink">
<g id="graph0" class="graph" transform="scale(1 1) rotate(0) translate(4 344)">
<title>snakemake_dag</title>
<polygon fill="#ffffff" stroke="transparent" points="-4,4 -4,-344 1273.1583,-344 1273.1583,4 -4,4"/>
<!-- 0 -->
<g id="node1" class="node">
<title>0</title>
<path fill="none" stroke="#d85656" stroke-width="2" d="M630.7941,-36C630.7941,-36 600.7941,-36 600.7941,-36 594.7941,-36 588.7941,-30 588.7941,-24 588.7941,-24 588.7941,-12 588.7941,-12 588.7941,-6 594.7941,0 600.7941,0 600.7941,0 630.7941,0 630.7941,0 636.7941,0 642.7941,-6 642.7941,-12 642.7941,-12 642.7941,-24 642.7941,-24 642.7941,-30 636.7941,-36 630.7941,-36"/>
<text text-anchor="middle" x="615.7941" y="-15.5" font-family="sans" font-size="10.00" fill="#000000">all</text>
</g>
<!-- 1 -->
<g id="node2" class="node">
<title>1</title>
<path fill="none" stroke="#59d856" stroke-width="2" d="M630.7941,-108C630.7941,-108 600.7941,-108 600.7941,-108 594.7941,-108 588.7941,-102 588.7941,-96 588.7941,-96 588.7941,-84 588.7941,-84 588.7941,-78 594.7941,-72 600.7941,-72 600.7941,-72 630.7941,-72 630.7941,-72 636.7941,-72 642.7941,-78 642.7941,-84 642.7941,-84 642.7941,-96 642.7941,-96 642.7941,-102 636.7941,-108 630.7941,-108"/>
<text text-anchor="middle" x="615.7941" y="-87.5" font-family="sans" font-size="10.00" fill="#000000">multiqc</text>
</g>
<!-- 1&#45;&gt;0 -->
<g id="edge1" class="edge">
<title>1&#45;&gt;0</title>
<path fill="none" stroke="#c0c0c0" stroke-width="2" d="M615.7941,-71.8314C615.7941,-64.131 615.7941,-54.9743 615.7941,-46.4166"/>
<polygon fill="#c0c0c0" stroke="#c0c0c0" stroke-width="2" points="619.2942,-46.4132 615.7941,-36.4133 612.2942,-46.4133 619.2942,-46.4132"/>
</g>
<!-- 2 -->
<g id="node3" class="node">
<title>2</title>
<path fill="none" stroke="#d8ac56" stroke-width="2" d="M613.7941,-180C613.7941,-180 543.7941,-180 543.7941,-180 537.7941,-180 531.7941,-174 531.7941,-168 531.7941,-168 531.7941,-156 531.7941,-156 531.7941,-150 537.7941,-144 543.7941,-144 543.7941,-144 613.7941,-144 613.7941,-144 619.7941,-144 625.7941,-150 625.7941,-156 625.7941,-156 625.7941,-168 625.7941,-168 625.7941,-174 619.7941,-180 613.7941,-180"/>
<text text-anchor="middle" x="578.7941" y="-165" font-family="sans" font-size="10.00" fill="#000000">fastqc</text>
<text text-anchor="middle" x="578.7941" y="-154" font-family="sans" font-size="10.00" fill="#000000">tool: merge_lanes</text>
</g>
<!-- 2&#45;&gt;1 -->
<g id="edge6" class="edge">
<title>2&#45;&gt;1</title>
<path fill="none" stroke="#c0c0c0" stroke-width="2" d="M588.1308,-143.8314C592.2184,-135.8771 597.1045,-126.369 601.625,-117.5723"/>
<polygon fill="#c0c0c0" stroke="#c0c0c0" stroke-width="2" points="604.874,-118.9074 606.3318,-108.4133 598.648,-115.7078 604.874,-118.9074"/>
</g>
<!-- 3 -->
<g id="node4" class="node">
<title>3</title>
<path fill="none" stroke="#80d856" stroke-width="2" d="M530.7941,-340C530.7941,-340 426.7941,-340 426.7941,-340 420.7941,-340 414.7941,-334 414.7941,-328 414.7941,-328 414.7941,-300 414.7941,-300 414.7941,-294 420.7941,-288 426.7941,-288 426.7941,-288 530.7941,-288 530.7941,-288 536.7941,-288 542.7941,-294 542.7941,-300 542.7941,-300 542.7941,-328 542.7941,-328 542.7941,-334 536.7941,-340 530.7941,-340"/>
<text text-anchor="middle" x="478.7941" y="-328" font-family="sans" font-size="10.00" fill="#000000">merge_lanes</text>
<text text-anchor="middle" x="478.7941" y="-317" font-family="sans" font-size="10.00" fill="#000000">library: lib3</text>
<text text-anchor="middle" x="478.7941" y="-306" font-family="sans" font-size="10.00" fill="#000000">read_type_trim: collapsed</text>
<text text-anchor="middle" x="478.7941" y="-295" font-family="sans" font-size="10.00" fill="#000000">sample: HD827sonic_2</text>
</g>
<!-- 3&#45;&gt;2 -->
<g id="edge18" class="edge">
<title>3&#45;&gt;2</title>
<path fill="none" stroke="#c0c0c0" stroke-width="2" d="M505.3544,-287.9018C515.3081,-277.3125 526.262,-264.6155 534.7941,-252 548.1741,-232.2166 559.8601,-207.7611 567.8196,-189.3382"/>
<polygon fill="#c0c0c0" stroke="#c0c0c0" stroke-width="2" points="571.075,-190.6259 571.7382,-180.0518 564.6257,-187.9044 571.075,-190.6259"/>
</g>
<!-- 13 -->
<g id="node14" class="node">
<title>13</title>
<path fill="none" stroke="#56d882" stroke-width="2" d="M513.7941,-252C513.7941,-252 443.7941,-252 443.7941,-252 437.7941,-252 431.7941,-246 431.7941,-240 431.7941,-240 431.7941,-228 431.7941,-228 431.7941,-222 437.7941,-216 443.7941,-216 443.7941,-216 513.7941,-216 513.7941,-216 519.7941,-216 525.7941,-222 525.7941,-228 525.7941,-228 525.7941,-240 525.7941,-240 525.7941,-246 519.7941,-252 513.7941,-252"/>
<text text-anchor="middle" x="478.7941" y="-237" font-family="sans" font-size="10.00" fill="#000000">nonpareil_infer</text>
<text text-anchor="middle" x="478.7941" y="-226" font-family="sans" font-size="10.00" fill="#000000">tool: merge_lanes</text>
</g>
<!-- 3&#45;&gt;13 -->
<g id="edge25" class="edge">
<title>3&#45;&gt;13</title>
<path fill="none" stroke="#c0c0c0" stroke-width="2" d="M478.7941,-287.805C478.7941,-279.6026 478.7941,-270.5174 478.7941,-262.1839"/>
<polygon fill="#c0c0c0" stroke="#c0c0c0" stroke-width="2" points="482.2942,-262.1532 478.7941,-252.1532 475.2942,-262.1533 482.2942,-262.1532"/>
</g>
<!-- 25 -->
<g id="node26" class="node">
<title>25</title>
<path fill="none" stroke="#afd856" stroke-width="2" d="M401.7941,-252C401.7941,-252 341.7941,-252 341.7941,-252 335.7941,-252 329.7941,-246 329.7941,-240 329.7941,-240 329.7941,-228 329.7941,-228 329.7941,-222 335.7941,-216 341.7941,-216 341.7941,-216 401.7941,-216 401.7941,-216 407.7941,-216 413.7941,-222 413.7941,-228 413.7941,-228 413.7941,-240 413.7941,-240 413.7941,-246 407.7941,-252 401.7941,-252"/>
<text text-anchor="middle" x="371.7941" y="-231.5" font-family="sans" font-size="10.00" fill="#000000">low_complexity</text>
</g>
<!-- 3&#45;&gt;25 -->
<g id="edge37" class="edge">
<title>3&#45;&gt;25</title>
<path fill="none" stroke="#c0c0c0" stroke-width="2" d="M443.7583,-287.805C431.081,-278.3266 416.8271,-267.6695 404.3699,-258.3557"/>
<polygon fill="#c0c0c0" stroke="#c0c0c0" stroke-width="2" points="406.1789,-255.3381 396.0741,-252.1532 401.9873,-260.9444 406.1789,-255.3381"/>
</g>
<!-- 4 -->
<g id="node5" class="node">
<title>4</title>
<path fill="none" stroke="#d8ac56" stroke-width="2" d="M983.7941,-180C983.7941,-180 913.7941,-180 913.7941,-180 907.7941,-180 901.7941,-174 901.7941,-168 901.7941,-168 901.7941,-156 901.7941,-156 901.7941,-150 907.7941,-144 913.7941,-144 913.7941,-144 983.7941,-144 983.7941,-144 989.7941,-144 995.7941,-150 995.7941,-156 995.7941,-156 995.7941,-168 995.7941,-168 995.7941,-174 989.7941,-180 983.7941,-180"/>
<text text-anchor="middle" x="948.7941" y="-165" font-family="sans" font-size="10.00" fill="#000000">fastqc</text>
<text text-anchor="middle" x="948.7941" y="-154" font-family="sans" font-size="10.00" fill="#000000">tool: merge_lanes</text>
</g>
<!-- 4&#45;&gt;1 -->
<g id="edge7" class="edge">
<title>4&#45;&gt;1</title>
<path fill="none" stroke="#c0c0c0" stroke-width="2" d="M901.5526,-146.3808C898.5992,-145.5393 895.6623,-144.7378 892.7941,-144 808.0497,-122.2018 706.7329,-104.5366 653.2109,-95.8467"/>
<polygon fill="#c0c0c0" stroke="#c0c0c0" stroke-width="2" points="653.5919,-92.3631 643.1628,-94.2298 652.4797,-99.2742 653.5919,-92.3631"/>
</g>
<!-- 5 -->
<g id="node6" class="node">
<title>5</title>
<path fill="none" stroke="#80d856" stroke-width="2" d="M1142.7941,-340C1142.7941,-340 1038.7941,-340 1038.7941,-340 1032.7941,-340 1026.7941,-334 1026.7941,-328 1026.7941,-328 1026.7941,-300 1026.7941,-300 1026.7941,-294 1032.7941,-288 1038.7941,-288 1038.7941,-288 1142.7941,-288 1142.7941,-288 1148.7941,-288 1154.7941,-294 1154.7941,-300 1154.7941,-300 1154.7941,-328 1154.7941,-328 1154.7941,-334 1148.7941,-340 1142.7941,-340"/>
<text text-anchor="middle" x="1090.7941" y="-328" font-family="sans" font-size="10.00" fill="#000000">merge_lanes</text>
<text text-anchor="middle" x="1090.7941" y="-317" font-family="sans" font-size="10.00" fill="#000000">library: lib1</text>
<text text-anchor="middle" x="1090.7941" y="-306" font-family="sans" font-size="10.00" fill="#000000">read_type_trim: collapsed</text>
<text text-anchor="middle" x="1090.7941" y="-295" font-family="sans" font-size="10.00" fill="#000000">sample: HD827sonic_2</text>
</g>
<!-- 5&#45;&gt;4 -->
<g id="edge19" class="edge">
<title>5&#45;&gt;4</title>
<path fill="none" stroke="#c0c0c0" stroke-width="2" d="M1066.3835,-287.8703C1040.1449,-259.784 998.7077,-215.4287 972.6757,-187.5634"/>
<polygon fill="#c0c0c0" stroke="#c0c0c0" stroke-width="2" points="975.1515,-185.0865 965.7673,-180.1685 970.0364,-189.8652 975.1515,-185.0865"/>
</g>
<!-- 17 -->
<g id="node18" class="node">
<title>17</title>
<path fill="none" stroke="#56d882" stroke-width="2" d="M1125.7941,-252C1125.7941,-252 1055.7941,-252 1055.7941,-252 1049.7941,-252 1043.7941,-246 1043.7941,-240 1043.7941,-240 1043.7941,-228 1043.7941,-228 1043.7941,-222 1049.7941,-216 1055.7941,-216 1055.7941,-216 1125.7941,-216 1125.7941,-216 1131.7941,-216 1137.7941,-222 1137.7941,-228 1137.7941,-228 1137.7941,-240 1137.7941,-240 1137.7941,-246 1131.7941,-252 1125.7941,-252"/>
<text text-anchor="middle" x="1090.7941" y="-237" font-family="sans" font-size="10.00" fill="#000000">nonpareil_infer</text>
<text text-anchor="middle" x="1090.7941" y="-226" font-family="sans" font-size="10.00" fill="#000000">tool: merge_lanes</text>
</g>
<!-- 5&#45;&gt;17 -->
<g id="edge29" class="edge">
<title>5&#45;&gt;17</title>
<path fill="none" stroke="#c0c0c0" stroke-width="2" d="M1090.7941,-287.805C1090.7941,-279.6026 1090.7941,-270.5174 1090.7941,-262.1839"/>
<polygon fill="#c0c0c0" stroke="#c0c0c0" stroke-width="2" points="1094.2942,-262.1532 1090.7941,-252.1532 1087.2942,-262.1533 1094.2942,-262.1532"/>
</g>
<!-- 23 -->
<g id="node24" class="node">
<title>23</title>
<path fill="none" stroke="#afd856" stroke-width="2" d="M1230.7941,-252C1230.7941,-252 1170.7941,-252 1170.7941,-252 1164.7941,-252 1158.7941,-246 1158.7941,-240 1158.7941,-240 1158.7941,-228 1158.7941,-228 1158.7941,-222 1164.7941,-216 1170.7941,-216 1170.7941,-216 1230.7941,-216 1230.7941,-216 1236.7941,-216 1242.7941,-222 1242.7941,-228 1242.7941,-228 1242.7941,-240 1242.7941,-240 1242.7941,-246 1236.7941,-252 1230.7941,-252"/>
<text text-anchor="middle" x="1200.7941" y="-231.5" font-family="sans" font-size="10.00" fill="#000000">low_complexity</text>
</g>
<!-- 5&#45;&gt;23 -->
<g id="edge35" class="edge">
<title>5&#45;&gt;23</title>
<path fill="none" stroke="#c0c0c0" stroke-width="2" d="M1126.8122,-287.805C1139.9703,-278.2355 1154.7805,-267.4645 1167.674,-258.0874"/>
<polygon fill="#c0c0c0" stroke="#c0c0c0" stroke-width="2" points="1169.8047,-260.8656 1175.8334,-252.1532 1165.6874,-255.2044 1169.8047,-260.8656"/>
</g>
<!-- 6 -->
<g id="node7" class="node">
<title>6</title>
<path fill="none" stroke="#d8ac56" stroke-width="2" d="M674.7941,-252C674.7941,-252 604.7941,-252 604.7941,-252 598.7941,-252 592.7941,-246 592.7941,-240 592.7941,-240 592.7941,-228 592.7941,-228 592.7941,-222 598.7941,-216 604.7941,-216 604.7941,-216 674.7941,-216 674.7941,-216 680.7941,-216 686.7941,-222 686.7941,-228 686.7941,-228 686.7941,-240 686.7941,-240 686.7941,-246 680.7941,-252 674.7941,-252"/>
<text text-anchor="middle" x="639.7941" y="-237" font-family="sans" font-size="10.00" fill="#000000">fastqc</text>
<text text-anchor="middle" x="639.7941" y="-226" font-family="sans" font-size="10.00" fill="#000000">tool: merge_lanes</text>
</g>
<!-- 6&#45;&gt;1 -->
<g id="edge8" class="edge">
<title>6&#45;&gt;1</title>
<path fill="none" stroke="#c0c0c0" stroke-width="2" d="M640.2787,-215.8824C640.4212,-197.5723 639.6927,-168.5547 634.7941,-144 633.0524,-135.2694 630.2032,-126.037 627.2349,-117.7229"/>
<polygon fill="#c0c0c0" stroke="#c0c0c0" stroke-width="2" points="630.4226,-116.2562 623.6215,-108.1324 623.8721,-118.7243 630.4226,-116.2562"/>
</g>
<!-- 7 -->
<g id="node8" class="node">
<title>7</title>
<path fill="none" stroke="#80d856" stroke-width="2" d="M803.7941,-340C803.7941,-340 699.7941,-340 699.7941,-340 693.7941,-340 687.7941,-334 687.7941,-328 687.7941,-328 687.7941,-300 687.7941,-300 687.7941,-294 693.7941,-288 699.7941,-288 699.7941,-288 803.7941,-288 803.7941,-288 809.7941,-288 815.7941,-294 815.7941,-300 815.7941,-300 815.7941,-328 815.7941,-328 815.7941,-334 809.7941,-340 803.7941,-340"/>
<text text-anchor="middle" x="751.7941" y="-328" font-family="sans" font-size="10.00" fill="#000000">merge_lanes</text>
<text text-anchor="middle" x="751.7941" y="-317" font-family="sans" font-size="10.00" fill="#000000">library: lib1</text>
<text text-anchor="middle" x="751.7941" y="-306" font-family="sans" font-size="10.00" fill="#000000">read_type_trim: collapsed</text>
<text text-anchor="middle" x="751.7941" y="-295" font-family="sans" font-size="10.00" fill="#000000">sample: HD827sonic_1</text>
</g>
<!-- 7&#45;&gt;6 -->
<g id="edge20" class="edge">
<title>7&#45;&gt;6</title>
<path fill="none" stroke="#c0c0c0" stroke-width="2" d="M715.1211,-287.805C701.7238,-278.2355 686.6444,-267.4645 673.5165,-258.0874"/>
<polygon fill="#c0c0c0" stroke="#c0c0c0" stroke-width="2" points="675.3804,-255.1176 665.2087,-252.1532 671.3117,-260.8137 675.3804,-255.1176"/>
</g>
<!-- 15 -->
<g id="node16" class="node">
<title>15</title>
<path fill="none" stroke="#56d882" stroke-width="2" d="M786.7941,-252C786.7941,-252 716.7941,-252 716.7941,-252 710.7941,-252 704.7941,-246 704.7941,-240 704.7941,-240 704.7941,-228 704.7941,-228 704.7941,-222 710.7941,-216 716.7941,-216 716.7941,-216 786.7941,-216 786.7941,-216 792.7941,-216 798.7941,-222 798.7941,-228 798.7941,-228 798.7941,-240 798.7941,-240 798.7941,-246 792.7941,-252 786.7941,-252"/>
<text text-anchor="middle" x="751.7941" y="-237" font-family="sans" font-size="10.00" fill="#000000">nonpareil_infer</text>
<text text-anchor="middle" x="751.7941" y="-226" font-family="sans" font-size="10.00" fill="#000000">tool: merge_lanes</text>
</g>
<!-- 7&#45;&gt;15 -->
<g id="edge27" class="edge">
<title>7&#45;&gt;15</title>
<path fill="none" stroke="#c0c0c0" stroke-width="2" d="M751.7941,-287.805C751.7941,-279.6026 751.7941,-270.5174 751.7941,-262.1839"/>
<polygon fill="#c0c0c0" stroke="#c0c0c0" stroke-width="2" points="755.2942,-262.1532 751.7941,-252.1532 748.2942,-262.1533 755.2942,-262.1532"/>
</g>
<!-- 21 -->
<g id="node22" class="node">
<title>21</title>
<path fill="none" stroke="#afd856" stroke-width="2" d="M888.7941,-252C888.7941,-252 828.7941,-252 828.7941,-252 822.7941,-252 816.7941,-246 816.7941,-240 816.7941,-240 816.7941,-228 816.7941,-228 816.7941,-222 822.7941,-216 828.7941,-216 828.7941,-216 888.7941,-216 888.7941,-216 894.7941,-216 900.7941,-222 900.7941,-228 900.7941,-228 900.7941,-240 900.7941,-240 900.7941,-246 894.7941,-252 888.7941,-252"/>
<text text-anchor="middle" x="858.7941" y="-231.5" font-family="sans" font-size="10.00" fill="#000000">low_complexity</text>
</g>
<!-- 7&#45;&gt;21 -->
<g id="edge33" class="edge">
<title>7&#45;&gt;21</title>
<path fill="none" stroke="#c0c0c0" stroke-width="2" d="M786.8299,-287.805C799.5073,-278.3266 813.7612,-267.6695 826.2184,-258.3557"/>
<polygon fill="#c0c0c0" stroke="#c0c0c0" stroke-width="2" points="828.601,-260.9444 834.5142,-252.1532 824.4094,-255.3381 828.601,-260.9444"/>
</g>
<!-- 8 -->
<g id="node9" class="node">
<title>8</title>
<path fill="none" stroke="#d8ac56" stroke-width="2" d="M299.7941,-252C299.7941,-252 229.7941,-252 229.7941,-252 223.7941,-252 217.7941,-246 217.7941,-240 217.7941,-240 217.7941,-228 217.7941,-228 217.7941,-222 223.7941,-216 229.7941,-216 229.7941,-216 299.7941,-216 299.7941,-216 305.7941,-216 311.7941,-222 311.7941,-228 311.7941,-228 311.7941,-240 311.7941,-240 311.7941,-246 305.7941,-252 299.7941,-252"/>
<text text-anchor="middle" x="264.7941" y="-237" font-family="sans" font-size="10.00" fill="#000000">fastqc</text>
<text text-anchor="middle" x="264.7941" y="-226" font-family="sans" font-size="10.00" fill="#000000">tool: merge_lanes</text>
</g>
<!-- 8&#45;&gt;1 -->
<g id="edge9" class="edge">
<title>8&#45;&gt;1</title>
<path fill="none" stroke="#c0c0c0" stroke-width="2" d="M267.2672,-215.688C271.0871,-194.9409 280.4788,-161.718 302.7941,-144 344.9848,-110.5013 505.1076,-96.6807 578.5626,-92.0142"/>
<polygon fill="#c0c0c0" stroke="#c0c0c0" stroke-width="2" points="578.9795,-95.4954 588.747,-91.3909 578.5518,-88.5084 578.9795,-95.4954"/>
</g>
<!-- 9 -->
<g id="node10" class="node">
<title>9</title>
<path fill="none" stroke="#80d856" stroke-width="2" d="M204.7941,-340C204.7941,-340 100.7941,-340 100.7941,-340 94.7941,-340 88.7941,-334 88.7941,-328 88.7941,-328 88.7941,-300 88.7941,-300 88.7941,-294 94.7941,-288 100.7941,-288 100.7941,-288 204.7941,-288 204.7941,-288 210.7941,-288 216.7941,-294 216.7941,-300 216.7941,-300 216.7941,-328 216.7941,-328 216.7941,-334 210.7941,-340 204.7941,-340"/>
<text text-anchor="middle" x="152.7941" y="-328" font-family="sans" font-size="10.00" fill="#000000">merge_lanes</text>
<text text-anchor="middle" x="152.7941" y="-317" font-family="sans" font-size="10.00" fill="#000000">library: lib2</text>
<text text-anchor="middle" x="152.7941" y="-306" font-family="sans" font-size="10.00" fill="#000000">read_type_trim: collapsed</text>
<text text-anchor="middle" x="152.7941" y="-295" font-family="sans" font-size="10.00" fill="#000000">sample: HD827sonic_2</text>
</g>
<!-- 9&#45;&gt;8 -->
<g id="edge21" class="edge">
<title>9&#45;&gt;8</title>
<path fill="none" stroke="#c0c0c0" stroke-width="2" d="M189.4671,-287.805C202.8644,-278.2355 217.9439,-267.4645 231.0718,-258.0874"/>
<polygon fill="#c0c0c0" stroke="#c0c0c0" stroke-width="2" points="233.2766,-260.8137 239.3796,-252.1532 229.2079,-255.1176 233.2766,-260.8137"/>
</g>
<!-- 11 -->
<g id="node12" class="node">
<title>11</title>
<path fill="none" stroke="#56d882" stroke-width="2" d="M187.7941,-252C187.7941,-252 117.7941,-252 117.7941,-252 111.7941,-252 105.7941,-246 105.7941,-240 105.7941,-240 105.7941,-228 105.7941,-228 105.7941,-222 111.7941,-216 117.7941,-216 117.7941,-216 187.7941,-216 187.7941,-216 193.7941,-216 199.7941,-222 199.7941,-228 199.7941,-228 199.7941,-240 199.7941,-240 199.7941,-246 193.7941,-252 187.7941,-252"/>
<text text-anchor="middle" x="152.7941" y="-237" font-family="sans" font-size="10.00" fill="#000000">nonpareil_infer</text>
<text text-anchor="middle" x="152.7941" y="-226" font-family="sans" font-size="10.00" fill="#000000">tool: merge_lanes</text>
</g>
<!-- 9&#45;&gt;11 -->
<g id="edge23" class="edge">
<title>9&#45;&gt;11</title>
<path fill="none" stroke="#c0c0c0" stroke-width="2" d="M152.7941,-287.805C152.7941,-279.6026 152.7941,-270.5174 152.7941,-262.1839"/>
<polygon fill="#c0c0c0" stroke="#c0c0c0" stroke-width="2" points="156.2942,-262.1532 152.7941,-252.1532 149.2942,-262.1533 156.2942,-262.1532"/>
</g>
<!-- 19 -->
<g id="node20" class="node">
<title>19</title>
<path fill="none" stroke="#afd856" stroke-width="2" d="M75.7941,-252C75.7941,-252 15.7941,-252 15.7941,-252 9.7941,-252 3.7941,-246 3.7941,-240 3.7941,-240 3.7941,-228 3.7941,-228 3.7941,-222 9.7941,-216 15.7941,-216 15.7941,-216 75.7941,-216 75.7941,-216 81.7941,-216 87.7941,-222 87.7941,-228 87.7941,-228 87.7941,-240 87.7941,-240 87.7941,-246 81.7941,-252 75.7941,-252"/>
<text text-anchor="middle" x="45.7941" y="-231.5" font-family="sans" font-size="10.00" fill="#000000">low_complexity</text>
</g>
<!-- 9&#45;&gt;19 -->
<g id="edge31" class="edge">
<title>9&#45;&gt;19</title>
<path fill="none" stroke="#c0c0c0" stroke-width="2" d="M117.7583,-287.805C105.081,-278.3266 90.8271,-267.6695 78.3699,-258.3557"/>
<polygon fill="#c0c0c0" stroke="#c0c0c0" stroke-width="2" points="80.1789,-255.3381 70.0741,-252.1532 75.9873,-260.9444 80.1789,-255.3381"/>
</g>
<!-- 10 -->
<g id="node11" class="node">
<title>10</title>
<path fill="none" stroke="#56d8a9" stroke-width="2" d="M205.2941,-180C205.2941,-180 152.2941,-180 152.2941,-180 146.2941,-180 140.2941,-174 140.2941,-168 140.2941,-168 140.2941,-156 140.2941,-156 140.2941,-150 146.2941,-144 152.2941,-144 152.2941,-144 205.2941,-144 205.2941,-144 211.2941,-144 217.2941,-150 217.2941,-156 217.2941,-156 217.2941,-168 217.2941,-168 217.2941,-174 211.2941,-180 205.2941,-180"/>
<text text-anchor="middle" x="178.7941" y="-159.5" font-family="sans" font-size="10.00" fill="#000000">nonpareil_plot</text>
</g>
<!-- 10&#45;&gt;1 -->
<g id="edge10" class="edge">
<title>10&#45;&gt;1</title>
<path fill="none" stroke="#c0c0c0" stroke-width="2" d="M217.6981,-153.9451C233.7947,-150.7061 252.6669,-147.0292 269.7941,-144 381.7972,-124.191 514.8845,-104.4951 578.4219,-95.3264"/>
<polygon fill="#c0c0c0" stroke="#c0c0c0" stroke-width="2" points="578.9715,-98.7834 588.371,-93.8948 577.9744,-91.8548 578.9715,-98.7834"/>
</g>
<!-- 11&#45;&gt;10 -->
<g id="edge22" class="edge">
<title>11&#45;&gt;10</title>
<path fill="none" stroke="#c0c0c0" stroke-width="2" d="M159.355,-215.8314C162.1968,-207.9617 165.5879,-198.5712 168.736,-189.8533"/>
<polygon fill="#c0c0c0" stroke="#c0c0c0" stroke-width="2" points="172.0403,-191.0076 172.1449,-180.4133 165.4564,-188.63 172.0403,-191.0076"/>
</g>
<!-- 12 -->
<g id="node13" class="node">
<title>12</title>
<path fill="none" stroke="#56d8a9" stroke-width="2" d="M501.2941,-180C501.2941,-180 448.2941,-180 448.2941,-180 442.2941,-180 436.2941,-174 436.2941,-168 436.2941,-168 436.2941,-156 436.2941,-156 436.2941,-150 442.2941,-144 448.2941,-144 448.2941,-144 501.2941,-144 501.2941,-144 507.2941,-144 513.2941,-150 513.2941,-156 513.2941,-156 513.2941,-168 513.2941,-168 513.2941,-174 507.2941,-180 501.2941,-180"/>
<text text-anchor="middle" x="474.7941" y="-159.5" font-family="sans" font-size="10.00" fill="#000000">nonpareil_plot</text>
</g>
<!-- 12&#45;&gt;1 -->
<g id="edge11" class="edge">
<title>12&#45;&gt;1</title>
<path fill="none" stroke="#c0c0c0" stroke-width="2" d="M510.3744,-143.8314C531.552,-133.0173 558.3538,-119.3312 579.633,-108.4652"/>
<polygon fill="#c0c0c0" stroke="#c0c0c0" stroke-width="2" points="581.3666,-111.51 588.6809,-103.845 578.1831,-105.2757 581.3666,-111.51"/>
</g>
<!-- 13&#45;&gt;12 -->
<g id="edge24" class="edge">
<title>13&#45;&gt;12</title>
<path fill="none" stroke="#c0c0c0" stroke-width="2" d="M477.7848,-215.8314C477.357,-208.131 476.8483,-198.9743 476.3728,-190.4166"/>
<polygon fill="#c0c0c0" stroke="#c0c0c0" stroke-width="2" points="479.8665,-190.2037 475.8171,-180.4133 472.8773,-190.592 479.8665,-190.2037"/>
</g>
<!-- 14 -->
<g id="node15" class="node">
<title>14</title>
<path fill="none" stroke="#56d8a9" stroke-width="2" d="M747.2941,-180C747.2941,-180 694.2941,-180 694.2941,-180 688.2941,-180 682.2941,-174 682.2941,-168 682.2941,-168 682.2941,-156 682.2941,-156 682.2941,-150 688.2941,-144 694.2941,-144 694.2941,-144 747.2941,-144 747.2941,-144 753.2941,-144 759.2941,-150 759.2941,-156 759.2941,-156 759.2941,-168 759.2941,-168 759.2941,-174 753.2941,-180 747.2941,-180"/>
<text text-anchor="middle" x="720.7941" y="-159.5" font-family="sans" font-size="10.00" fill="#000000">nonpareil_plot</text>
</g>
<!-- 14&#45;&gt;1 -->
<g id="edge12" class="edge">
<title>14&#45;&gt;1</title>
<path fill="none" stroke="#c0c0c0" stroke-width="2" d="M694.2982,-143.8314C681.1168,-134.7927 665.0094,-123.7476 650.823,-114.0198"/>
<polygon fill="#c0c0c0" stroke="#c0c0c0" stroke-width="2" points="652.5083,-110.9316 642.2816,-108.1628 648.5495,-116.7047 652.5083,-110.9316"/>
</g>
<!-- 15&#45;&gt;14 -->
<g id="edge26" class="edge">
<title>15&#45;&gt;14</title>
<path fill="none" stroke="#c0c0c0" stroke-width="2" d="M743.9715,-215.8314C740.5832,-207.9617 736.54,-198.5712 732.7865,-189.8533"/>
<polygon fill="#c0c0c0" stroke="#c0c0c0" stroke-width="2" points="735.8914,-188.214 728.7221,-180.4133 729.462,-190.9822 735.8914,-188.214"/>
</g>
<!-- 16 -->
<g id="node17" class="node">
<title>16</title>
<path fill="none" stroke="#56d8a9" stroke-width="2" d="M1117.2941,-180C1117.2941,-180 1064.2941,-180 1064.2941,-180 1058.2941,-180 1052.2941,-174 1052.2941,-168 1052.2941,-168 1052.2941,-156 1052.2941,-156 1052.2941,-150 1058.2941,-144 1064.2941,-144 1064.2941,-144 1117.2941,-144 1117.2941,-144 1123.2941,-144 1129.2941,-150 1129.2941,-156 1129.2941,-156 1129.2941,-168 1129.2941,-168 1129.2941,-174 1123.2941,-180 1117.2941,-180"/>
<text text-anchor="middle" x="1090.7941" y="-159.5" font-family="sans" font-size="10.00" fill="#000000">nonpareil_plot</text>
</g>
<!-- 16&#45;&gt;1 -->
<g id="edge13" class="edge">
<title>16&#45;&gt;1</title>
<path fill="none" stroke="#c0c0c0" stroke-width="2" d="M1051.9442,-153.2806C1037.2187,-150.1306 1020.2737,-146.6911 1004.7941,-144 876.3657,-121.6727 722.8027,-102.5764 653.2764,-94.338"/>
<polygon fill="#c0c0c0" stroke="#c0c0c0" stroke-width="2" points="653.5892,-90.8507 643.2483,-93.1561 652.7698,-97.8026 653.5892,-90.8507"/>
</g>
<!-- 17&#45;&gt;16 -->
<g id="edge28" class="edge">
<title>17&#45;&gt;16</title>
<path fill="none" stroke="#c0c0c0" stroke-width="2" d="M1090.7941,-215.8314C1090.7941,-208.131 1090.7941,-198.9743 1090.7941,-190.4166"/>
<polygon fill="#c0c0c0" stroke="#c0c0c0" stroke-width="2" points="1094.2942,-190.4132 1090.7941,-180.4133 1087.2942,-190.4133 1094.2942,-190.4132"/>
</g>
<!-- 18 -->
<g id="node19" class="node">
<title>18</title>
<path fill="none" stroke="#d8ac56" stroke-width="2" d="M109.7941,-180C109.7941,-180 27.7941,-180 27.7941,-180 21.7941,-180 15.7941,-174 15.7941,-168 15.7941,-168 15.7941,-156 15.7941,-156 15.7941,-150 21.7941,-144 27.7941,-144 27.7941,-144 109.7941,-144 109.7941,-144 115.7941,-144 121.7941,-150 121.7941,-156 121.7941,-156 121.7941,-168 121.7941,-168 121.7941,-174 115.7941,-180 109.7941,-180"/>
<text text-anchor="middle" x="68.7941" y="-165" font-family="sans" font-size="10.00" fill="#000000">fastqc</text>
<text text-anchor="middle" x="68.7941" y="-154" font-family="sans" font-size="10.00" fill="#000000">tool: low_complexity</text>
</g>
<!-- 18&#45;&gt;1 -->
<g id="edge14" class="edge">
<title>18&#45;&gt;1</title>
<path fill="none" stroke="#c0c0c0" stroke-width="2" d="M121.9177,-146.1461C125.246,-145.3629 128.5577,-144.6382 131.7941,-144 296.3242,-111.5541 496.4443,-96.9697 578.2394,-92.0461"/>
<polygon fill="#c0c0c0" stroke="#c0c0c0" stroke-width="2" points="578.7501,-95.5222 588.5272,-91.4406 578.3388,-88.5343 578.7501,-95.5222"/>
</g>
<!-- 19&#45;&gt;0 -->
<g id="edge5" class="edge">
<title>19&#45;&gt;0</title>
<path fill="none" stroke="#c0c0c0" stroke-width="2" d="M27.5303,-215.9221C10.2345,-196.5896 -10.6879,-165.7789 6.7941,-144 79.2069,-53.7893 457.0838,-26.3183 578.3171,-19.7607"/>
<polygon fill="#c0c0c0" stroke="#c0c0c0" stroke-width="2" points="578.7741,-23.2416 588.5772,-19.2229 578.4077,-16.2512 578.7741,-23.2416"/>
</g>
<!-- 19&#45;&gt;18 -->
<g id="edge30" class="edge">
<title>19&#45;&gt;18</title>
<path fill="none" stroke="#c0c0c0" stroke-width="2" d="M51.598,-215.8314C54.0849,-208.0463 57.0472,-198.7729 59.8067,-190.1347"/>
<polygon fill="#c0c0c0" stroke="#c0c0c0" stroke-width="2" points="63.2031,-191.0041 62.9121,-180.4133 56.5351,-188.874 63.2031,-191.0041"/>
</g>
<!-- 20 -->
<g id="node21" class="node">
<title>20</title>
<path fill="none" stroke="#d8ac56" stroke-width="2" d="M871.7941,-180C871.7941,-180 789.7941,-180 789.7941,-180 783.7941,-180 777.7941,-174 777.7941,-168 777.7941,-168 777.7941,-156 777.7941,-156 777.7941,-150 783.7941,-144 789.7941,-144 789.7941,-144 871.7941,-144 871.7941,-144 877.7941,-144 883.7941,-150 883.7941,-156 883.7941,-156 883.7941,-168 883.7941,-168 883.7941,-174 877.7941,-180 871.7941,-180"/>
<text text-anchor="middle" x="830.7941" y="-165" font-family="sans" font-size="10.00" fill="#000000">fastqc</text>
<text text-anchor="middle" x="830.7941" y="-154" font-family="sans" font-size="10.00" fill="#000000">tool: low_complexity</text>
</g>
<!-- 20&#45;&gt;1 -->
<g id="edge15" class="edge">
<title>20&#45;&gt;1</title>
<path fill="none" stroke="#c0c0c0" stroke-width="2" d="M777.6481,-144.2022C738.7146,-131.1641 686.873,-113.8032 652.4692,-102.2819"/>
<polygon fill="#c0c0c0" stroke="#c0c0c0" stroke-width="2" points="653.4138,-98.9072 642.8199,-99.0505 651.1909,-105.5449 653.4138,-98.9072"/>
</g>
<!-- 21&#45;&gt;0 -->
<g id="edge3" class="edge">
<title>21&#45;&gt;0</title>
<path fill="none" stroke="#c0c0c0" stroke-width="2" d="M900.8702,-224.1162C939.5045,-214.0882 992.5551,-197.5761 1004.7941,-180 1013.9373,-166.8698 1014.2046,-156.94 1004.7941,-144 962.3223,-85.5988 741.6796,-40.4449 652.8765,-24.3666"/>
<polygon fill="#c0c0c0" stroke="#c0c0c0" stroke-width="2" points="653.4276,-20.9097 642.9676,-22.5945 652.1953,-27.8004 653.4276,-20.9097"/>
</g>
<!-- 21&#45;&gt;20 -->
<g id="edge32" class="edge">
<title>21&#45;&gt;20</title>
<path fill="none" stroke="#c0c0c0" stroke-width="2" d="M851.7286,-215.8314C848.6681,-207.9617 845.0163,-198.5712 841.626,-189.8533"/>
<polygon fill="#c0c0c0" stroke="#c0c0c0" stroke-width="2" points="844.8414,-188.4647 837.9548,-180.4133 838.3174,-191.0019 844.8414,-188.4647"/>
</g>
<!-- 22 -->
<g id="node23" class="node">
<title>22</title>
<path fill="none" stroke="#d8ac56" stroke-width="2" d="M1241.7941,-180C1241.7941,-180 1159.7941,-180 1159.7941,-180 1153.7941,-180 1147.7941,-174 1147.7941,-168 1147.7941,-168 1147.7941,-156 1147.7941,-156 1147.7941,-150 1153.7941,-144 1159.7941,-144 1159.7941,-144 1241.7941,-144 1241.7941,-144 1247.7941,-144 1253.7941,-150 1253.7941,-156 1253.7941,-156 1253.7941,-168 1253.7941,-168 1253.7941,-174 1247.7941,-180 1241.7941,-180"/>
<text text-anchor="middle" x="1200.7941" y="-165" font-family="sans" font-size="10.00" fill="#000000">fastqc</text>
<text text-anchor="middle" x="1200.7941" y="-154" font-family="sans" font-size="10.00" fill="#000000">tool: low_complexity</text>
</g>
<!-- 22&#45;&gt;1 -->
<g id="edge16" class="edge">
<title>22&#45;&gt;1</title>
<path fill="none" stroke="#c0c0c0" stroke-width="2" d="M1147.509,-145.8709C1144.5731,-145.1886 1141.6544,-144.5581 1138.7941,-144 958.8302,-108.8814 739.2828,-95.6279 653.0716,-91.5483"/>
<polygon fill="#c0c0c0" stroke="#c0c0c0" stroke-width="2" points="653.143,-88.0479 642.9927,-91.0848 652.8213,-95.0405 653.143,-88.0479"/>
</g>
<!-- 23&#45;&gt;0 -->
<g id="edge2" class="edge">
<title>23&#45;&gt;0</title>
<path fill="none" stroke="#c0c0c0" stroke-width="2" d="M1228.0289,-215.8121C1252.5672,-197.1944 1282.0554,-167.71 1262.7941,-144 1185.0572,-48.308 779.8288,-24.4385 653.4654,-19.279"/>
<polygon fill="#c0c0c0" stroke="#c0c0c0" stroke-width="2" points="653.2717,-15.7688 643.1422,-18.8743 652.9974,-22.7635 653.2717,-15.7688"/>
</g>
<!-- 23&#45;&gt;22 -->
<g id="edge34" class="edge">
<title>23&#45;&gt;22</title>
<path fill="none" stroke="#c0c0c0" stroke-width="2" d="M1200.7941,-215.8314C1200.7941,-208.131 1200.7941,-198.9743 1200.7941,-190.4166"/>
<polygon fill="#c0c0c0" stroke="#c0c0c0" stroke-width="2" points="1204.2942,-190.4132 1200.7941,-180.4133 1197.2942,-190.4133 1204.2942,-190.4132"/>
</g>
<!-- 24 -->
<g id="node25" class="node">
<title>24</title>
<path fill="none" stroke="#d8ac56" stroke-width="2" d="M405.7941,-180C405.7941,-180 323.7941,-180 323.7941,-180 317.7941,-180 311.7941,-174 311.7941,-168 311.7941,-168 311.7941,-156 311.7941,-156 311.7941,-150 317.7941,-144 323.7941,-144 323.7941,-144 405.7941,-144 405.7941,-144 411.7941,-144 417.7941,-150 417.7941,-156 417.7941,-156 417.7941,-168 417.7941,-168 417.7941,-174 411.7941,-180 405.7941,-180"/>
<text text-anchor="middle" x="364.7941" y="-165" font-family="sans" font-size="10.00" fill="#000000">fastqc</text>
<text text-anchor="middle" x="364.7941" y="-154" font-family="sans" font-size="10.00" fill="#000000">tool: low_complexity</text>
</g>
<!-- 24&#45;&gt;1 -->
<g id="edge17" class="edge">
<title>24&#45;&gt;1</title>
<path fill="none" stroke="#c0c0c0" stroke-width="2" d="M418.0248,-146.7307C466.3849,-132.8584 536.4632,-112.7563 578.9153,-100.5788"/>
<polygon fill="#c0c0c0" stroke="#c0c0c0" stroke-width="2" points="579.92,-103.9318 588.5672,-97.8101 577.9898,-97.2032 579.92,-103.9318"/>
</g>
<!-- 25&#45;&gt;0 -->
<g id="edge4" class="edge">
<title>25&#45;&gt;0</title>
<path fill="none" stroke="#c0c0c0" stroke-width="2" d="M336.8527,-215.7767C323.6435,-206.9077 310.0565,-194.9055 302.7941,-180 295.7861,-165.6164 293.8387,-157.2589 302.7941,-144 365.6608,-50.9233 509.9441,-26.5894 578.4155,-20.2377"/>
<polygon fill="#c0c0c0" stroke="#c0c0c0" stroke-width="2" points="579.0604,-23.6957 588.7297,-19.3649 578.4702,-16.7206 579.0604,-23.6957"/>
</g>
<!-- 25&#45;&gt;24 -->
<g id="edge36" class="edge">
<title>25&#45;&gt;24</title>
<path fill="none" stroke="#c0c0c0" stroke-width="2" d="M370.0277,-215.8314C369.2791,-208.131 368.3889,-198.9743 367.5569,-190.4166"/>
<polygon fill="#c0c0c0" stroke="#c0c0c0" stroke-width="2" points="371.0356,-190.0276 366.5843,-180.4133 364.0685,-190.7051 371.0356,-190.0276"/>
</g>
</g>
</svg>
