<?xml version="1.0" encoding="UTF-8" standalone="no"?>
<!DOCTYPE svg PUBLIC "-//W3C//DTD SVG 1.1//EN"
 "http://www.w3.org/Graphics/SVG/1.1/DTD/svg11.dtd">
<!-- Generated by graphviz version 2.40.1 (0)
 -->
<!-- Title: snakemake_dag Pages: 1 -->
<svg width="1337pt" height="1078pt"
 viewBox="0.00 0.00 1336.76 1078.00" xmlns="http://www.w3.org/2000/svg" xmlns:xlink="http://www.w3.org/1999/xlink">
<g id="graph0" class="graph" transform="scale(1 1) rotate(0) translate(4 1074)">
<title>snakemake_dag</title>
<polygon fill="#ffffff" stroke="transparent" points="-4,4 -4,-1074 1332.7621,-1074 1332.7621,4 -4,4"/>
<!-- 0 -->
<g id="node1" class="node">
<title>0</title>
<text text-anchor="start" x="1075.5" y="-143.6" font-family="sans" font-weight="bold" font-size="18.00" fill="#000000">all</text>
<text text-anchor="start" x="890.5" y="-119.8" font-family="sans" font-size="10.00" fill="#000000"> </text>
<text text-anchor="start" x="894.5" y="-119.8" font-family="sans" font-weight="bold" font-size="14.00" fill="#000000">↪ input</text>
<text text-anchor="start" x="947.5" y="-119.8" font-family="sans" font-size="10.00" fill="#000000"> </text>
<text text-anchor="start" x="890.5" y="-100" font-family="monospace" font-size="10.00" fill="#000000">reports/multiqc.html</text>
<text text-anchor="start" x="890.5" y="-82" font-family="monospace" font-size="10.00" fill="#000000">results/reads/low_complexity/HD827sonic_1_lib1_collapsed.fastq.gz</text>
<text text-anchor="start" x="890.5" y="-64" font-family="monospace" font-size="10.00" fill="#000000">results/reads/low_complexity/HD827sonic_2_lib1_collapsed.fastq.gz</text>
<text text-anchor="start" x="890.5" y="-46" font-family="monospace" font-size="10.00" fill="#000000">results/reads/low_complexity/HD827sonic_2_lib2_collapsed.fastq.gz</text>
<text text-anchor="start" x="890.5" y="-28" font-family="monospace" font-size="10.00" fill="#000000">results/reads/low_complexity/HD827sonic_2_lib3_collapsed.fastq.gz</text>
<text text-anchor="start" x="1274.5" y="-10" font-family="sans" font-size="10.00" fill="#000000"> &#160;</text>
<polygon fill="#d95757" stroke="#d95757" points="884.5,-134 884.5,-134 1288.5,-134 1288.5,-134 884.5,-134"/>
<polygon fill="#d95757" stroke="#d95757" points="884.5,-22 884.5,-22 1288.5,-22 1288.5,-22 884.5,-22"/>
<polygon fill="none" stroke="#d95757" stroke-width="2" points="884,-1 884,-163 1287,-163 1287,-1 884,-1"/>
</g>
<!-- 1 -->
<g id="node2" class="node">
<title>1</title>
<text text-anchor="start" x="833.5" y="-509.6" font-family="sans" font-weight="bold" font-size="18.00" fill="#000000">multiqc</text>
<text text-anchor="start" x="649.5" y="-485.8" font-family="sans" font-size="10.00" fill="#000000"> </text>
<text text-anchor="start" x="653.5" y="-485.8" font-family="sans" font-weight="bold" font-size="14.00" fill="#000000">↪ input</text>
<text text-anchor="start" x="706.5" y="-485.8" font-family="sans" font-size="10.00" fill="#000000"> </text>
<text text-anchor="start" x="649.5" y="-466" font-family="monospace" font-size="10.00" fill="#000000">stats/reads/fastqc/low_complexity/HD827sonic_1_lib1_collapsed_fastqc.zip</text>
<text text-anchor="start" x="649.5" y="-448" font-family="monospace" font-size="10.00" fill="#000000">stats/reads/fastqc/low_complexity/HD827sonic_2_lib1_collapsed_fastqc.zip</text>
<text text-anchor="start" x="649.5" y="-430" font-family="monospace" font-size="10.00" fill="#000000">stats/reads/fastqc/low_complexity/HD827sonic_2_lib2_collapsed_fastqc.zip</text>
<text text-anchor="start" x="649.5" y="-412" font-family="monospace" font-size="10.00" fill="#000000">stats/reads/fastqc/low_complexity/HD827sonic_2_lib3_collapsed_fastqc.zip</text>
<text text-anchor="start" x="649.5" y="-394" font-family="monospace" font-size="10.00" fill="#000000">stats/reads/fastqc/merge_lanes/HD827sonic_1_lib1_collapsed_fastqc.zip</text>
<text text-anchor="start" x="649.5" y="-376" font-family="monospace" font-size="10.00" fill="#000000">stats/reads/fastqc/merge_lanes/HD827sonic_2_lib1_collapsed_fastqc.zip</text>
<text text-anchor="start" x="649.5" y="-358" font-family="monospace" font-size="10.00" fill="#000000">stats/reads/fastqc/merge_lanes/HD827sonic_2_lib2_collapsed_fastqc.zip</text>
<text text-anchor="start" x="649.5" y="-340" font-family="monospace" font-size="10.00" fill="#000000">stats/reads/fastqc/merge_lanes/HD827sonic_2_lib3_collapsed_fastqc.zip</text>
<text text-anchor="start" x="649.5" y="-322" font-family="monospace" font-size="10.00" fill="#000000">stats/reads/nonpareil/merge_lanes/HD827sonic_1_lib1_collapsed.json</text>
<text text-anchor="start" x="649.5" y="-304" font-family="monospace" font-size="10.00" fill="#000000">stats/reads/nonpareil/merge_lanes/HD827sonic_2_lib1_collapsed.json</text>
<text text-anchor="start" x="649.5" y="-286" font-family="monospace" font-size="10.00" fill="#000000">stats/reads/nonpareil/merge_lanes/HD827sonic_2_lib2_collapsed.json</text>
<text text-anchor="start" x="649.5" y="-268" font-family="monospace" font-size="10.00" fill="#000000">stats/reads/nonpareil/merge_lanes/HD827sonic_2_lib3_collapsed.json</text>
<text text-anchor="start" x="1013.5" y="-247.8" font-family="sans" font-size="10.00" fill="#000000"> </text>
<text text-anchor="start" x="1017.5" y="-247.8" font-family="sans" font-weight="bold" font-size="14.00" fill="#000000">output →</text>
<text text-anchor="start" x="1078.5" y="-247.8" font-family="sans" font-size="10.00" fill="#000000"> </text>
<text text-anchor="start" x="649.5" y="-228" font-family="monospace" font-size="10.00" fill="#000000">reports/multiqc.html</text>
<text text-anchor="start" x="649.5" y="-210" font-family="monospace" font-size="10.00" fill="#000000">reports/multiqc_data.zip</text>
<polygon fill="#57d957" stroke="#57d957" points="643.5,-500 643.5,-500 1089.5,-500 1089.5,-500 643.5,-500"/>
<polygon fill="#57d957" stroke="#57d957" points="643.5,-262 643.5,-262 1089.5,-262 1089.5,-262 643.5,-262"/>
<polygon fill="none" stroke="#57d957" stroke-width="2" points="643,-201 643,-529 1088,-529 1088,-201 643,-201"/>
</g>
<!-- 1&#45;&gt;0 -->
<g id="edge1" class="edge">
<title>1&#45;&gt;0</title>
<path fill="none" stroke="#c0c0c0" stroke-width="2" d="M993.7933,-199.9682C1001.0837,-190.59 1008.2639,-181.3537 1015.2008,-172.4304"/>
<polygon fill="#c0c0c0" stroke="#c0c0c0" stroke-width="2" points="1018.1249,-174.3715 1021.4992,-164.3284 1012.5984,-170.0753 1018.1249,-174.3715"/>
</g>
<!-- 2 -->
<g id="node3" class="node">
<title>2</title>
<text text-anchor="start" x="839.5" y="-686.6" font-family="sans" font-weight="bold" font-size="18.00" fill="#000000">fastqc</text>
<text text-anchor="start" x="460.5" y="-662.8" font-family="sans" font-size="10.00" fill="#000000"> </text>
<text text-anchor="start" x="464.5" y="-662.8" font-family="sans" font-weight="bold" font-size="14.00" fill="#000000">↪ input</text>
<text text-anchor="start" x="517.5" y="-662.8" font-family="sans" font-size="10.00" fill="#000000"> </text>
<text text-anchor="start" x="460.5" y="-643" font-family="monospace" font-size="10.00" fill="#000000">&lt;input function&gt;</text>
<text text-anchor="start" x="1202.5" y="-622.8" font-family="sans" font-size="10.00" fill="#000000"> </text>
<text text-anchor="start" x="1206.5" y="-622.8" font-family="sans" font-weight="bold" font-size="14.00" fill="#000000">output →</text>
<text text-anchor="start" x="1267.5" y="-622.8" font-family="sans" font-size="10.00" fill="#000000"> </text>
<text text-anchor="start" x="460.5" y="-603" font-family="monospace" font-size="10.00" fill="#000000">stats/reads/fastqc/{tool,merge_lanes|extend/tadpole|derep|represent/grep|low_complexity}/{sample}_{library}_{read_type_trim}.html</text>
<text text-anchor="start" x="460.5" y="-585" font-family="monospace" font-size="10.00" fill="#000000">stats/reads/fastqc/{tool,merge_lanes|extend/tadpole|derep|represent/grep|low_complexity}/{sample}_{library}_{read_type_trim}_fastqc.zip</text>
<polygon fill="#d9ad57" stroke="#d9ad57" points="454.5,-677 454.5,-677 1278.5,-677 1278.5,-677 454.5,-677"/>
<polygon fill="#d9ad57" stroke="#d9ad57" points="454.5,-637 454.5,-637 1278.5,-637 1278.5,-637 454.5,-637"/>
<polygon fill="none" stroke="#d9ad57" stroke-width="2" points="454,-576 454,-706 1277,-706 1277,-576 454,-576"/>
</g>
<!-- 2&#45;&gt;1 -->
<g id="edge3" class="edge">
<title>2&#45;&gt;1</title>
<path fill="none" stroke="#c0c0c0" stroke-width="2" d="M865.5,-574.8911C865.5,-564.0517 865.5,-552.3912 865.5,-540.3188"/>
<polygon fill="#c0c0c0" stroke="#c0c0c0" stroke-width="2" points="869.0001,-540.09 865.5,-530.09 862.0001,-540.0901 869.0001,-540.09"/>
</g>
<!-- 3 -->
<g id="node4" class="node">
<title>3</title>
<text text-anchor="start" x="673.5" y="-1049.6" font-family="sans" font-weight="bold" font-size="18.00" fill="#000000">merge_lanes</text>
<text text-anchor="start" x="526.5" y="-1025.8" font-family="sans" font-size="10.00" fill="#000000"> </text>
<text text-anchor="start" x="530.5" y="-1025.8" font-family="sans" font-weight="bold" font-size="14.00" fill="#000000">↪ input</text>
<text text-anchor="start" x="583.5" y="-1025.8" font-family="sans" font-size="10.00" fill="#000000"> </text>
<text text-anchor="start" x="526.5" y="-1006" font-family="monospace" font-size="10.00" fill="#000000">&lt;input function&gt;</text>
<text text-anchor="start" x="860.5" y="-985.8" font-family="sans" font-size="10.00" fill="#000000"> </text>
<text text-anchor="start" x="864.5" y="-985.8" font-family="sans" font-weight="bold" font-size="14.00" fill="#000000">output →</text>
<text text-anchor="start" x="925.5" y="-985.8" font-family="sans" font-size="10.00" fill="#000000"> </text>
<text text-anchor="start" x="526.5" y="-966" font-family="monospace" font-size="10.00" fill="#000000">temp/reads/merge_lanes/{sample}_{library}_{read_type_trim}.fastq.gz</text>
<polygon fill="#82d957" stroke="#82d957" points="520.5,-1040 520.5,-1040 936.5,-1040 936.5,-1040 520.5,-1040"/>
<polygon fill="#82d957" stroke="#82d957" points="520.5,-1000 520.5,-1000 936.5,-1000 936.5,-1000 520.5,-1000"/>
<polygon fill="none" stroke="#82d957" stroke-width="2" points="520,-957 520,-1069 935,-1069 935,-957 520,-957"/>
</g>
<!-- 3&#45;&gt;2 -->
<g id="edge6" class="edge">
<title>3&#45;&gt;2</title>
<path fill="none" stroke="#c0c0c0" stroke-width="2" d="M720.0747,-955.7432C715.5347,-900.7267 715.5576,-816.646 746.5,-752 752.8427,-738.7486 761.5186,-726.3007 771.3182,-714.8767"/>
<polygon fill="#c0c0c0" stroke="#c0c0c0" stroke-width="2" points="774.1925,-716.9141 778.2671,-707.1341 768.983,-712.2385 774.1925,-716.9141"/>
</g>
<!-- 5 -->
<g id="node6" class="node">
<title>5</title>
<text text-anchor="start" x="356.5" y="-899.6" font-family="sans" font-weight="bold" font-size="18.00" fill="#000000">nonpareil_infer</text>
<text text-anchor="start" x="217.5" y="-875.8" font-family="sans" font-size="10.00" fill="#000000"> </text>
<text text-anchor="start" x="221.5" y="-875.8" font-family="sans" font-weight="bold" font-size="14.00" fill="#000000">↪ input</text>
<text text-anchor="start" x="274.5" y="-875.8" font-family="sans" font-size="10.00" fill="#000000"> </text>
<text text-anchor="start" x="217.5" y="-856" font-family="monospace" font-size="10.00" fill="#000000">&lt;input function&gt;</text>
<text text-anchor="start" x="557.5" y="-835.8" font-family="sans" font-size="10.00" fill="#000000"> </text>
<text text-anchor="start" x="561.5" y="-835.8" font-family="sans" font-weight="bold" font-size="14.00" fill="#000000">output →</text>
<text text-anchor="start" x="622.5" y="-835.8" font-family="sans" font-size="10.00" fill="#000000"> </text>
<text text-anchor="start" x="217.5" y="-816" font-family="monospace" font-size="10.00" fill="#000000">stats/reads/nonpareil/{tool}/{sample}_{library}_{read_type_trim}.log</text>
<text text-anchor="start" x="217.5" y="-798" font-family="monospace" font-size="10.00" fill="#000000">stats/reads/nonpareil/{tool}/{sample}_{library}_{read_type_trim}.npa</text>
<text text-anchor="start" x="217.5" y="-780" font-family="monospace" font-size="10.00" fill="#000000">stats/reads/nonpareil/{tool}/{sample}_{library}_{read_type_trim}.npc</text>
<text text-anchor="start" x="217.5" y="-762" font-family="monospace" font-size="10.00" fill="#000000">stats/reads/nonpareil/{tool}/{sample}_{library}_{read_type_trim}.npo</text>
<polygon fill="#57d982" stroke="#57d982" points="211.5,-890 211.5,-890 633.5,-890 633.5,-890 211.5,-890"/>
<polygon fill="#57d982" stroke="#57d982" points="211.5,-850 211.5,-850 633.5,-850 633.5,-850 211.5,-850"/>
<polygon fill="none" stroke="#57d982" stroke-width="2" points="211,-753 211,-919 632,-919 632,-753 211,-753"/>
</g>
<!-- 3&#45;&gt;5 -->
<g id="edge8" class="edge">
<title>3&#45;&gt;5</title>
<path fill="none" stroke="#c0c0c0" stroke-width="2" d="M628.5732,-955.7776C611.6165,-945.9694 593.643,-935.5729 575.6482,-925.1642"/>
<polygon fill="#c0c0c0" stroke="#c0c0c0" stroke-width="2" points="577.2258,-922.0334 566.8171,-920.056 573.7208,-928.0927 577.2258,-922.0334"/>
</g>
<!-- 6 -->
<g id="node7" class="node">
<title>6</title>
<text text-anchor="start" x="937" y="-890.6" font-family="sans" font-weight="bold" font-size="18.00" fill="#000000">low_complexity</text>
<text text-anchor="start" x="763.5" y="-866.8" font-family="sans" font-size="10.00" fill="#000000"> </text>
<text text-anchor="start" x="767.5" y="-866.8" font-family="sans" font-weight="bold" font-size="14.00" fill="#000000">↪ input</text>
<text text-anchor="start" x="820.5" y="-866.8" font-family="sans" font-size="10.00" fill="#000000"> </text>
<text text-anchor="start" x="763.5" y="-847" font-family="monospace" font-size="10.00" fill="#000000">temp/reads/merge_lanes/{sample}_{library}_{read_type_trim}.fastq.gz</text>
<text text-anchor="start" x="1175.5" y="-826.8" font-family="sans" font-size="10.00" fill="#000000"> </text>
<text text-anchor="start" x="1179.5" y="-826.8" font-family="sans" font-weight="bold" font-size="14.00" fill="#000000">output →</text>
<text text-anchor="start" x="1240.5" y="-826.8" font-family="sans" font-size="10.00" fill="#000000"> </text>
<text text-anchor="start" x="763.5" y="-807" font-family="monospace" font-size="10.00" fill="#000000">results/reads/low_complexity/{sample}_{library}_{read_type_trim}.fastq.gz</text>
<text text-anchor="start" x="763.5" y="-789" font-family="monospace" font-size="10.00" fill="#000000">stats/reads/low_complexity/{sample}_{library}_{read_type_trim}.txt</text>
<text text-anchor="start" x="763.5" y="-771" font-family="monospace" font-size="10.00" fill="#000000">temp/reads/low_complexity/{sample}_{library}_{read_type_trim}.discarded.fastq.gz</text>
<polygon fill="#add957" stroke="#add957" points="757.5,-881 757.5,-881 1251.5,-881 1251.5,-881 757.5,-881"/>
<polygon fill="#add957" stroke="#add957" points="757.5,-841 757.5,-841 1251.5,-841 1251.5,-841 757.5,-841"/>
<polygon fill="none" stroke="#add957" stroke-width="2" points="757,-762 757,-910 1250,-910 1250,-762 757,-762"/>
</g>
<!-- 3&#45;&gt;6 -->
<g id="edge9" class="edge">
<title>3&#45;&gt;6</title>
<path fill="none" stroke="#c0c0c0" stroke-width="2" d="M816.7281,-955.7776C836.2458,-943.2608 857.2572,-929.7861 877.8958,-916.5505"/>
<polygon fill="#c0c0c0" stroke="#c0c0c0" stroke-width="2" points="879.872,-919.4411 886.4004,-911.0965 876.0932,-913.5487 879.872,-919.4411"/>
</g>
<!-- 4 -->
<g id="node5" class="node">
<title>4</title>
<text text-anchor="start" x="155" y="-695.6" font-family="sans" font-weight="bold" font-size="18.00" fill="#000000">nonpareil_plot</text>
<text text-anchor="start" x="7.5" y="-671.8" font-family="sans" font-size="10.00" fill="#000000"> </text>
<text text-anchor="start" x="11.5" y="-671.8" font-family="sans" font-weight="bold" font-size="14.00" fill="#000000">↪ input</text>
<text text-anchor="start" x="64.5" y="-671.8" font-family="sans" font-size="10.00" fill="#000000"> </text>
<text text-anchor="start" x="7.5" y="-652" font-family="monospace" font-size="10.00" fill="#000000">stats/reads/nonpareil/{tool}/{sample}_{library}_{read_type_trim}.npo</text>
<text text-anchor="start" x="359.5" y="-631.8" font-family="sans" font-size="10.00" fill="#000000"> </text>
<text text-anchor="start" x="363.5" y="-631.8" font-family="sans" font-weight="bold" font-size="14.00" fill="#000000">output →</text>
<text text-anchor="start" x="424.5" y="-631.8" font-family="sans" font-size="10.00" fill="#000000"> </text>
<text text-anchor="start" x="7.5" y="-612" font-family="monospace" font-size="10.00" fill="#000000">reports/reads/nonpareil/{tool}/{sample}_{library}_{read_type_trim}.pdf</text>
<text text-anchor="start" x="7.5" y="-594" font-family="monospace" font-size="10.00" fill="#000000">stats/reads/nonpareil/{tool}/{sample}_{library}_{read_type_trim}.json</text>
<text text-anchor="start" x="7.5" y="-576" font-family="monospace" font-size="10.00" fill="#000000">stats/reads/nonpareil/{tool}/{sample}_{library}_{read_type_trim}.tsv</text>
<polygon fill="#57d9ad" stroke="#57d9ad" points="1.5,-686 1.5,-686 435.5,-686 435.5,-686 1.5,-686"/>
<polygon fill="#57d9ad" stroke="#57d9ad" points="1.5,-646 1.5,-646 435.5,-646 435.5,-646 1.5,-646"/>
<polygon fill="none" stroke="#57d9ad" stroke-width="2" points="1,-567 1,-715 434,-715 434,-567 1,-567"/>
</g>
<!-- 4&#45;&gt;1 -->
<g id="edge4" class="edge">
<title>4&#45;&gt;1</title>
<path fill="none" stroke="#c0c0c0" stroke-width="2" d="M393.7129,-565.9464C467.1808,-534.6545 553.5512,-497.8671 632.1742,-464.3795"/>
<polygon fill="#c0c0c0" stroke="#c0c0c0" stroke-width="2" points="633.8938,-467.4514 641.7225,-460.3126 631.1507,-461.0112 633.8938,-467.4514"/>
</g>
<!-- 5&#45;&gt;4 -->
<g id="edge7" class="edge">
<title>5&#45;&gt;4</title>
<path fill="none" stroke="#c0c0c0" stroke-width="2" d="M333.5055,-751.8876C323.6232,-742.4413 313.5622,-732.8242 303.703,-723.4"/>
<polygon fill="#c0c0c0" stroke="#c0c0c0" stroke-width="2" points="305.8565,-720.6166 296.2093,-716.2368 301.0196,-725.6767 305.8565,-720.6166"/>
</g>
<!-- 6&#45;&gt;0 -->
<g id="edge2" class="edge">
<title>6&#45;&gt;0</title>
<path fill="none" stroke="#c0c0c0" stroke-width="2" d="M1244.0282,-760.9129C1260.4516,-748.2045 1275.0093,-733.3534 1286.5,-716 1400.7334,-543.4831 1256.5686,-301.8496 1159.7757,-172.3822"/>
<polygon fill="#c0c0c0" stroke="#c0c0c0" stroke-width="2" points="1162.2859,-169.8977 1153.4719,-164.0186 1156.6959,-174.111 1162.2859,-169.8977"/>
</g>
<!-- 6&#45;&gt;2 -->
<g id="edge5" class="edge">
<title>6&#45;&gt;2</title>
<path fill="none" stroke="#c0c0c0" stroke-width="2" d="M950.343,-760.8868C939.7724,-745.9501 928.6774,-730.2724 918.1247,-715.361"/>
<polygon fill="#c0c0c0" stroke="#c0c0c0" stroke-width="2" points="920.9583,-713.3062 912.3247,-707.1653 915.2444,-717.3499 920.9583,-713.3062"/>
</g>
</g>
</svg>
