<?xml version="1.0" encoding="UTF-8" standalone="no"?>
<!DOCTYPE svg PUBLIC "-//W3C//DTD SVG 1.1//EN"
 "http://www.w3.org/Graphics/SVG/1.1/DTD/svg11.dtd">
<!-- Generated by graphviz version 2.40.1 (0)
 -->
<!-- Title: snakemake_dag Pages: 1 -->
<svg width="1331pt" height="1006pt"
 viewBox="0.00 0.00 1331.27 1006.00" xmlns="http://www.w3.org/2000/svg" xmlns:xlink="http://www.w3.org/1999/xlink">
<g id="graph0" class="graph" transform="scale(1 1) rotate(0) translate(4 1002)">
<title>snakemake_dag</title>
<polygon fill="#ffffff" stroke="transparent" points="-4,4 -4,-1002 1327.2733,-1002 1327.2733,4 -4,4"/>
<!-- 0 -->
<g id="node1" class="node">
<title>0</title>
<text text-anchor="start" x="1075.5" y="-125.6" font-family="sans" font-weight="bold" font-size="18.00" fill="#000000">all</text>
<text text-anchor="start" x="890.5" y="-101.8" font-family="sans" font-size="10.00" fill="#000000"> </text>
<text text-anchor="start" x="894.5" y="-101.8" font-family="sans" font-weight="bold" font-size="14.00" fill="#000000">↪ input</text>
<text text-anchor="start" x="947.5" y="-101.8" font-family="sans" font-size="10.00" fill="#000000"> </text>
<text text-anchor="start" x="890.5" y="-82" font-family="monospace" font-size="10.00" fill="#000000">reports/multiqc.html</text>
<text text-anchor="start" x="890.5" y="-64" font-family="monospace" font-size="10.00" fill="#000000">results/reads/low_complexity/HD827sonic_1_lib1_collapsed.fastq.gz</text>
<text text-anchor="start" x="890.5" y="-46" font-family="monospace" font-size="10.00" fill="#000000">results/reads/low_complexity/HD827sonic_2_lib1_collapsed.fastq.gz</text>
<text text-anchor="start" x="890.5" y="-28" font-family="monospace" font-size="10.00" fill="#000000">results/reads/low_complexity/HD827sonic_2_lib2_collapsed.fastq.gz</text>
<text text-anchor="start" x="1274.5" y="-10" font-family="sans" font-size="10.00" fill="#000000"> &#160;</text>
<polygon fill="#d95757" stroke="#d95757" points="884.5,-116 884.5,-116 1288.5,-116 1288.5,-116 884.5,-116"/>
<polygon fill="#d95757" stroke="#d95757" points="884.5,-22 884.5,-22 1288.5,-22 1288.5,-22 884.5,-22"/>
<polygon fill="none" stroke="#d95757" stroke-width="2" points="884,-1 884,-145 1287,-145 1287,-1 884,-1"/>
</g>
<!-- 1 -->
<g id="node2" class="node">
<title>1</title>
<text text-anchor="start" x="833.5" y="-437.6" font-family="sans" font-weight="bold" font-size="18.00" fill="#000000">multiqc</text>
<text text-anchor="start" x="649.5" y="-413.8" font-family="sans" font-size="10.00" fill="#000000"> </text>
<text text-anchor="start" x="653.5" y="-413.8" font-family="sans" font-weight="bold" font-size="14.00" fill="#000000">↪ input</text>
<text text-anchor="start" x="706.5" y="-413.8" font-family="sans" font-size="10.00" fill="#000000"> </text>
<text text-anchor="start" x="649.5" y="-394" font-family="monospace" font-size="10.00" fill="#000000">stats/reads/fastqc/low_complexity/HD827sonic_1_lib1_collapsed_fastqc.zip</text>
<text text-anchor="start" x="649.5" y="-376" font-family="monospace" font-size="10.00" fill="#000000">stats/reads/fastqc/low_complexity/HD827sonic_2_lib1_collapsed_fastqc.zip</text>
<text text-anchor="start" x="649.5" y="-358" font-family="monospace" font-size="10.00" fill="#000000">stats/reads/fastqc/low_complexity/HD827sonic_2_lib2_collapsed_fastqc.zip</text>
<text text-anchor="start" x="649.5" y="-340" font-family="monospace" font-size="10.00" fill="#000000">stats/reads/fastqc/merge_lanes/HD827sonic_1_lib1_collapsed_fastqc.zip</text>
<text text-anchor="start" x="649.5" y="-322" font-family="monospace" font-size="10.00" fill="#000000">stats/reads/fastqc/merge_lanes/HD827sonic_2_lib1_collapsed_fastqc.zip</text>
<text text-anchor="start" x="649.5" y="-304" font-family="monospace" font-size="10.00" fill="#000000">stats/reads/fastqc/merge_lanes/HD827sonic_2_lib2_collapsed_fastqc.zip</text>
<text text-anchor="start" x="649.5" y="-286" font-family="monospace" font-size="10.00" fill="#000000">stats/reads/nonpareil/merge_lanes/HD827sonic_1_lib1_collapsed.json</text>
<text text-anchor="start" x="649.5" y="-268" font-family="monospace" font-size="10.00" fill="#000000">stats/reads/nonpareil/merge_lanes/HD827sonic_2_lib1_collapsed.json</text>
<text text-anchor="start" x="649.5" y="-250" font-family="monospace" font-size="10.00" fill="#000000">stats/reads/nonpareil/merge_lanes/HD827sonic_2_lib2_collapsed.json</text>
<text text-anchor="start" x="1013.5" y="-229.8" font-family="sans" font-size="10.00" fill="#000000"> </text>
<text text-anchor="start" x="1017.5" y="-229.8" font-family="sans" font-weight="bold" font-size="14.00" fill="#000000">output →</text>
<text text-anchor="start" x="1078.5" y="-229.8" font-family="sans" font-size="10.00" fill="#000000"> </text>
<text text-anchor="start" x="649.5" y="-210" font-family="monospace" font-size="10.00" fill="#000000">reports/multiqc.html</text>
<text text-anchor="start" x="649.5" y="-192" font-family="monospace" font-size="10.00" fill="#000000">reports/multiqc_data.zip</text>
<polygon fill="#57d957" stroke="#57d957" points="643.5,-428 643.5,-428 1089.5,-428 1089.5,-428 643.5,-428"/>
<polygon fill="#57d957" stroke="#57d957" points="643.5,-244 643.5,-244 1089.5,-244 1089.5,-244 643.5,-244"/>
<polygon fill="none" stroke="#57d957" stroke-width="2" points="643,-183 643,-457 1088,-457 1088,-183 643,-183"/>
</g>
<!-- 1&#45;&gt;0 -->
<g id="edge1" class="edge">
<title>1&#45;&gt;0</title>
<path fill="none" stroke="#c0c0c0" stroke-width="2" d="M988.6846,-181.6972C997.1992,-172.1377 1005.6069,-162.6982 1013.6996,-153.6123"/>
<polygon fill="#c0c0c0" stroke="#c0c0c0" stroke-width="2" points="1016.3812,-155.8638 1020.4188,-146.0685 1011.154,-151.208 1016.3812,-155.8638"/>
</g>
<!-- 2 -->
<g id="node3" class="node">
<title>2</title>
<text text-anchor="start" x="839.5" y="-614.6" font-family="sans" font-weight="bold" font-size="18.00" fill="#000000">fastqc</text>
<text text-anchor="start" x="460.5" y="-590.8" font-family="sans" font-size="10.00" fill="#000000"> </text>
<text text-anchor="start" x="464.5" y="-590.8" font-family="sans" font-weight="bold" font-size="14.00" fill="#000000">↪ input</text>
<text text-anchor="start" x="517.5" y="-590.8" font-family="sans" font-size="10.00" fill="#000000"> </text>
<text text-anchor="start" x="460.5" y="-571" font-family="monospace" font-size="10.00" fill="#000000">&lt;input function&gt;</text>
<text text-anchor="start" x="1202.5" y="-550.8" font-family="sans" font-size="10.00" fill="#000000"> </text>
<text text-anchor="start" x="1206.5" y="-550.8" font-family="sans" font-weight="bold" font-size="14.00" fill="#000000">output →</text>
<text text-anchor="start" x="1267.5" y="-550.8" font-family="sans" font-size="10.00" fill="#000000"> </text>
<text text-anchor="start" x="460.5" y="-531" font-family="monospace" font-size="10.00" fill="#000000">stats/reads/fastqc/{tool,merge_lanes|extend/tadpole|derep|represent/grep|low_complexity}/{sample}_{library}_{read_type_trim}.html</text>
<text text-anchor="start" x="460.5" y="-513" font-family="monospace" font-size="10.00" fill="#000000">stats/reads/fastqc/{tool,merge_lanes|extend/tadpole|derep|represent/grep|low_complexity}/{sample}_{library}_{read_type_trim}_fastqc.zip</text>
<polygon fill="#d9ad57" stroke="#d9ad57" points="454.5,-605 454.5,-605 1278.5,-605 1278.5,-605 454.5,-605"/>
<polygon fill="#d9ad57" stroke="#d9ad57" points="454.5,-565 454.5,-565 1278.5,-565 1278.5,-565 454.5,-565"/>
<polygon fill="none" stroke="#d9ad57" stroke-width="2" points="454,-504 454,-634 1277,-634 1277,-504 454,-504"/>
</g>
<!-- 2&#45;&gt;1 -->
<g id="edge4" class="edge">
<title>2&#45;&gt;1</title>
<path fill="none" stroke="#c0c0c0" stroke-width="2" d="M865.5,-502.9263C865.5,-492.008 865.5,-480.3143 865.5,-468.314"/>
<polygon fill="#c0c0c0" stroke="#c0c0c0" stroke-width="2" points="869.0001,-468.1719 865.5,-458.1719 862.0001,-468.172 869.0001,-468.1719"/>
</g>
<!-- 3 -->
<g id="node4" class="node">
<title>3</title>
<text text-anchor="start" x="673.5" y="-977.6" font-family="sans" font-weight="bold" font-size="18.00" fill="#000000">merge_lanes</text>
<text text-anchor="start" x="526.5" y="-953.8" font-family="sans" font-size="10.00" fill="#000000"> </text>
<text text-anchor="start" x="530.5" y="-953.8" font-family="sans" font-weight="bold" font-size="14.00" fill="#000000">↪ input</text>
<text text-anchor="start" x="583.5" y="-953.8" font-family="sans" font-size="10.00" fill="#000000"> </text>
<text text-anchor="start" x="526.5" y="-934" font-family="monospace" font-size="10.00" fill="#000000">&lt;input function&gt;</text>
<text text-anchor="start" x="860.5" y="-913.8" font-family="sans" font-size="10.00" fill="#000000"> </text>
<text text-anchor="start" x="864.5" y="-913.8" font-family="sans" font-weight="bold" font-size="14.00" fill="#000000">output →</text>
<text text-anchor="start" x="925.5" y="-913.8" font-family="sans" font-size="10.00" fill="#000000"> </text>
<text text-anchor="start" x="526.5" y="-894" font-family="monospace" font-size="10.00" fill="#000000">temp/reads/merge_lanes/{sample}_{library}_{read_type_trim}.fastq.gz</text>
<polygon fill="#82d957" stroke="#82d957" points="520.5,-968 520.5,-968 936.5,-968 936.5,-968 520.5,-968"/>
<polygon fill="#82d957" stroke="#82d957" points="520.5,-928 520.5,-928 936.5,-928 936.5,-928 520.5,-928"/>
<polygon fill="none" stroke="#82d957" stroke-width="2" points="520,-885 520,-997 935,-997 935,-885 520,-885"/>
</g>
<!-- 3&#45;&gt;2 -->
<g id="edge5" class="edge">
<title>3&#45;&gt;2</title>
<path fill="none" stroke="#c0c0c0" stroke-width="2" d="M720.0747,-883.7432C715.5347,-828.7267 715.5576,-744.646 746.5,-680 752.8427,-666.7486 761.5186,-654.3007 771.3182,-642.8767"/>
<polygon fill="#c0c0c0" stroke="#c0c0c0" stroke-width="2" points="774.1925,-644.9141 778.2671,-635.1341 768.983,-640.2385 774.1925,-644.9141"/>
</g>
<!-- 5 -->
<g id="node6" class="node">
<title>5</title>
<text text-anchor="start" x="356.5" y="-827.6" font-family="sans" font-weight="bold" font-size="18.00" fill="#000000">nonpareil_infer</text>
<text text-anchor="start" x="217.5" y="-803.8" font-family="sans" font-size="10.00" fill="#000000"> </text>
<text text-anchor="start" x="221.5" y="-803.8" font-family="sans" font-weight="bold" font-size="14.00" fill="#000000">↪ input</text>
<text text-anchor="start" x="274.5" y="-803.8" font-family="sans" font-size="10.00" fill="#000000"> </text>
<text text-anchor="start" x="217.5" y="-784" font-family="monospace" font-size="10.00" fill="#000000">&lt;input function&gt;</text>
<text text-anchor="start" x="557.5" y="-763.8" font-family="sans" font-size="10.00" fill="#000000"> </text>
<text text-anchor="start" x="561.5" y="-763.8" font-family="sans" font-weight="bold" font-size="14.00" fill="#000000">output →</text>
<text text-anchor="start" x="622.5" y="-763.8" font-family="sans" font-size="10.00" fill="#000000"> </text>
<text text-anchor="start" x="217.5" y="-744" font-family="monospace" font-size="10.00" fill="#000000">stats/reads/nonpareil/{tool}/{sample}_{library}_{read_type_trim}.log</text>
<text text-anchor="start" x="217.5" y="-726" font-family="monospace" font-size="10.00" fill="#000000">stats/reads/nonpareil/{tool}/{sample}_{library}_{read_type_trim}.npa</text>
<text text-anchor="start" x="217.5" y="-708" font-family="monospace" font-size="10.00" fill="#000000">stats/reads/nonpareil/{tool}/{sample}_{library}_{read_type_trim}.npc</text>
<text text-anchor="start" x="217.5" y="-690" font-family="monospace" font-size="10.00" fill="#000000">stats/reads/nonpareil/{tool}/{sample}_{library}_{read_type_trim}.npo</text>
<polygon fill="#57d982" stroke="#57d982" points="211.5,-818 211.5,-818 633.5,-818 633.5,-818 211.5,-818"/>
<polygon fill="#57d982" stroke="#57d982" points="211.5,-778 211.5,-778 633.5,-778 633.5,-778 211.5,-778"/>
<polygon fill="none" stroke="#57d982" stroke-width="2" points="211,-681 211,-847 632,-847 632,-681 211,-681"/>
</g>
<!-- 3&#45;&gt;5 -->
<g id="edge8" class="edge">
<title>3&#45;&gt;5</title>
<path fill="none" stroke="#c0c0c0" stroke-width="2" d="M628.5732,-883.7776C611.6165,-873.9694 593.643,-863.5729 575.6482,-853.1642"/>
<polygon fill="#c0c0c0" stroke="#c0c0c0" stroke-width="2" points="577.2258,-850.0334 566.8171,-848.056 573.7208,-856.0927 577.2258,-850.0334"/>
</g>
<!-- 6 -->
<g id="node7" class="node">
<title>6</title>
<text text-anchor="start" x="937" y="-818.6" font-family="sans" font-weight="bold" font-size="18.00" fill="#000000">low_complexity</text>
<text text-anchor="start" x="763.5" y="-794.8" font-family="sans" font-size="10.00" fill="#000000"> </text>
<text text-anchor="start" x="767.5" y="-794.8" font-family="sans" font-weight="bold" font-size="14.00" fill="#000000">↪ input</text>
<text text-anchor="start" x="820.5" y="-794.8" font-family="sans" font-size="10.00" fill="#000000"> </text>
<text text-anchor="start" x="763.5" y="-775" font-family="monospace" font-size="10.00" fill="#000000">temp/reads/merge_lanes/{sample}_{library}_{read_type_trim}.fastq.gz</text>
<text text-anchor="start" x="1175.5" y="-754.8" font-family="sans" font-size="10.00" fill="#000000"> </text>
<text text-anchor="start" x="1179.5" y="-754.8" font-family="sans" font-weight="bold" font-size="14.00" fill="#000000">output →</text>
<text text-anchor="start" x="1240.5" y="-754.8" font-family="sans" font-size="10.00" fill="#000000"> </text>
<text text-anchor="start" x="763.5" y="-735" font-family="monospace" font-size="10.00" fill="#000000">results/reads/low_complexity/{sample}_{library}_{read_type_trim}.fastq.gz</text>
<text text-anchor="start" x="763.5" y="-717" font-family="monospace" font-size="10.00" fill="#000000">stats/reads/low_complexity/{sample}_{library}_{read_type_trim}.txt</text>
<text text-anchor="start" x="763.5" y="-699" font-family="monospace" font-size="10.00" fill="#000000">temp/reads/low_complexity/{sample}_{library}_{read_type_trim}.discarded.fastq.gz</text>
<polygon fill="#add957" stroke="#add957" points="757.5,-809 757.5,-809 1251.5,-809 1251.5,-809 757.5,-809"/>
<polygon fill="#add957" stroke="#add957" points="757.5,-769 757.5,-769 1251.5,-769 1251.5,-769 757.5,-769"/>
<polygon fill="none" stroke="#add957" stroke-width="2" points="757,-690 757,-838 1250,-838 1250,-690 757,-690"/>
</g>
<!-- 3&#45;&gt;6 -->
<g id="edge9" class="edge">
<title>3&#45;&gt;6</title>
<path fill="none" stroke="#c0c0c0" stroke-width="2" d="M816.7281,-883.7776C836.2458,-871.2608 857.2572,-857.7861 877.8958,-844.5505"/>
<polygon fill="#c0c0c0" stroke="#c0c0c0" stroke-width="2" points="879.872,-847.4411 886.4004,-839.0965 876.0932,-841.5487 879.872,-847.4411"/>
</g>
<!-- 4 -->
<g id="node5" class="node">
<title>4</title>
<text text-anchor="start" x="155" y="-623.6" font-family="sans" font-weight="bold" font-size="18.00" fill="#000000">nonpareil_plot</text>
<text text-anchor="start" x="7.5" y="-599.8" font-family="sans" font-size="10.00" fill="#000000"> </text>
<text text-anchor="start" x="11.5" y="-599.8" font-family="sans" font-weight="bold" font-size="14.00" fill="#000000">↪ input</text>
<text text-anchor="start" x="64.5" y="-599.8" font-family="sans" font-size="10.00" fill="#000000"> </text>
<text text-anchor="start" x="7.5" y="-580" font-family="monospace" font-size="10.00" fill="#000000">stats/reads/nonpareil/{tool}/{sample}_{library}_{read_type_trim}.npo</text>
<text text-anchor="start" x="359.5" y="-559.8" font-family="sans" font-size="10.00" fill="#000000"> </text>
<text text-anchor="start" x="363.5" y="-559.8" font-family="sans" font-weight="bold" font-size="14.00" fill="#000000">output →</text>
<text text-anchor="start" x="424.5" y="-559.8" font-family="sans" font-size="10.00" fill="#000000"> </text>
<text text-anchor="start" x="7.5" y="-540" font-family="monospace" font-size="10.00" fill="#000000">reports/reads/nonpareil/{tool}/{sample}_{library}_{read_type_trim}.pdf</text>
<text text-anchor="start" x="7.5" y="-522" font-family="monospace" font-size="10.00" fill="#000000">stats/reads/nonpareil/{tool}/{sample}_{library}_{read_type_trim}.json</text>
<text text-anchor="start" x="7.5" y="-504" font-family="monospace" font-size="10.00" fill="#000000">stats/reads/nonpareil/{tool}/{sample}_{library}_{read_type_trim}.tsv</text>
<polygon fill="#57d9ad" stroke="#57d9ad" points="1.5,-614 1.5,-614 435.5,-614 435.5,-614 1.5,-614"/>
<polygon fill="#57d9ad" stroke="#57d9ad" points="1.5,-574 1.5,-574 435.5,-574 435.5,-574 1.5,-574"/>
<polygon fill="none" stroke="#57d9ad" stroke-width="2" points="1,-495 1,-643 434,-643 434,-495 1,-495"/>
</g>
<!-- 4&#45;&gt;1 -->
<g id="edge3" class="edge">
<title>4&#45;&gt;1</title>
<path fill="none" stroke="#c0c0c0" stroke-width="2" d="M412.8001,-493.9541C481.8994,-467.4021 560.3244,-437.2666 632.2573,-409.6257"/>
<polygon fill="#c0c0c0" stroke="#c0c0c0" stroke-width="2" points="633.8264,-412.7723 641.9055,-405.9182 631.3155,-406.2381 633.8264,-412.7723"/>
</g>
<!-- 5&#45;&gt;4 -->
<g id="edge7" class="edge">
<title>5&#45;&gt;4</title>
<path fill="none" stroke="#c0c0c0" stroke-width="2" d="M333.5055,-679.8876C323.6232,-670.4413 313.5622,-660.8242 303.703,-651.4"/>
<polygon fill="#c0c0c0" stroke="#c0c0c0" stroke-width="2" points="305.8565,-648.6166 296.2093,-644.2368 301.0196,-653.6767 305.8565,-648.6166"/>
</g>
<!-- 6&#45;&gt;0 -->
<g id="edge2" class="edge">
<title>6&#45;&gt;0</title>
<path fill="none" stroke="#c0c0c0" stroke-width="2" d="M1244.0282,-688.9129C1260.4516,-676.2045 1275.0093,-661.3534 1286.5,-644 1390.4374,-487.0323 1250.4985,-270.1544 1157.0926,-154.0673"/>
<polygon fill="#c0c0c0" stroke="#c0c0c0" stroke-width="2" points="1159.7498,-151.7872 1150.7313,-146.2269 1154.3139,-156.1976 1159.7498,-151.7872"/>
</g>
<!-- 6&#45;&gt;2 -->
<g id="edge6" class="edge">
<title>6&#45;&gt;2</title>
<path fill="none" stroke="#c0c0c0" stroke-width="2" d="M950.343,-688.8868C939.7724,-673.9501 928.6774,-658.2724 918.1247,-643.361"/>
<polygon fill="#c0c0c0" stroke="#c0c0c0" stroke-width="2" points="920.9583,-641.3062 912.3247,-635.1653 915.2444,-645.3499 920.9583,-641.3062"/>
</g>
</g>
</svg>
