<?xml version="1.0" encoding="UTF-8" standalone="no"?>
<!DOCTYPE svg PUBLIC "-//W3C//DTD SVG 1.1//EN"
 "http://www.w3.org/Graphics/SVG/1.1/DTD/svg11.dtd">
<!-- Generated by graphviz version 2.40.1 (0)
 -->
<!-- Title: snakemake_dag Pages: 1 -->
<svg width="1342pt" height="708pt"
 viewBox="0.00 0.00 1342.00 708.00" xmlns="http://www.w3.org/2000/svg" xmlns:xlink="http://www.w3.org/1999/xlink">
<g id="graph0" class="graph" transform="scale(1 1) rotate(0) translate(4 704)">
<title>snakemake_dag</title>
<polygon fill="#ffffff" stroke="transparent" points="-4,4 -4,-704 1338,-704 1338,4 -4,4"/>
<!-- 0 -->
<g id="node1" class="node">
<title>0</title>
<path fill="none" stroke="#d85656" stroke-width="2" d="M881,-36C881,-36 851,-36 851,-36 845,-36 839,-30 839,-24 839,-24 839,-12 839,-12 839,-6 845,0 851,0 851,0 881,0 881,0 887,0 893,-6 893,-12 893,-12 893,-24 893,-24 893,-30 887,-36 881,-36"/>
<text text-anchor="middle" x="866" y="-15.5" font-family="sans" font-size="10.00" fill="#000000">all</text>
</g>
<!-- 1 -->
<g id="node2" class="node">
<title>1</title>
<path fill="none" stroke="#59d856" stroke-width="2" d="M684,-108C684,-108 654,-108 654,-108 648,-108 642,-102 642,-96 642,-96 642,-84 642,-84 642,-78 648,-72 654,-72 654,-72 684,-72 684,-72 690,-72 696,-78 696,-84 696,-84 696,-96 696,-96 696,-102 690,-108 684,-108"/>
<text text-anchor="middle" x="669" y="-87.5" font-family="sans" font-size="10.00" fill="#000000">multiqc</text>
</g>
<!-- 1&#45;&gt;0 -->
<g id="edge1" class="edge">
<title>1&#45;&gt;0</title>
<path fill="none" stroke="#c0c0c0" stroke-width="2" d="M696.392,-79.9887C730.942,-67.3613 790.4846,-45.5995 829.0401,-31.5082"/>
<polygon fill="#c0c0c0" stroke="#c0c0c0" stroke-width="2" points="830.6498,-34.6464 838.8406,-27.9263 828.2468,-28.0717 830.6498,-34.6464"/>
</g>
<!-- 2 -->
<g id="node3" class="node">
<title>2</title>
<path fill="none" stroke="#d8ac56" stroke-width="2" d="M82,-324C82,-324 12,-324 12,-324 6,-324 0,-318 0,-312 0,-312 0,-300 0,-300 0,-294 6,-288 12,-288 12,-288 82,-288 82,-288 88,-288 94,-294 94,-300 94,-300 94,-312 94,-312 94,-318 88,-324 82,-324"/>
<text text-anchor="middle" x="47" y="-309" font-family="sans" font-size="10.00" fill="#000000">fastqc</text>
<text text-anchor="middle" x="47" y="-298" font-family="sans" font-size="10.00" fill="#000000">tool: merge_lanes</text>
</g>
<!-- 2&#45;&gt;1 -->
<g id="edge5" class="edge">
<title>2&#45;&gt;1</title>
<path fill="none" stroke="#c0c0c0" stroke-width="2" d="M41.4846,-287.9545C32.5005,-254.5036 19.251,-182.7573 57,-144 97.1745,-102.7524 504.9844,-92.6691 631.6647,-90.5231"/>
<polygon fill="#c0c0c0" stroke="#c0c0c0" stroke-width="2" points="631.7259,-94.0227 641.6677,-90.3605 631.612,-87.0236 631.7259,-94.0227"/>
</g>
<!-- 3 -->
<g id="node4" class="node">
<title>3</title>
<path fill="none" stroke="#80d856" stroke-width="2" d="M271,-700C271,-700 167,-700 167,-700 161,-700 155,-694 155,-688 155,-688 155,-660 155,-660 155,-654 161,-648 167,-648 167,-648 271,-648 271,-648 277,-648 283,-654 283,-660 283,-660 283,-688 283,-688 283,-694 277,-700 271,-700"/>
<text text-anchor="middle" x="219" y="-688" font-family="sans" font-size="10.00" fill="#000000">merge_lanes</text>
<text text-anchor="middle" x="219" y="-677" font-family="sans" font-size="10.00" fill="#000000">library: lib1</text>
<text text-anchor="middle" x="219" y="-666" font-family="sans" font-size="10.00" fill="#000000">read_type_trim: collapsed</text>
<text text-anchor="middle" x="219" y="-655" font-family="sans" font-size="10.00" fill="#000000">sample: HD827sonic_1</text>
</g>
<!-- 3&#45;&gt;2 -->
<g id="edge23" class="edge">
<title>3&#45;&gt;2</title>
<path fill="none" stroke="#c0c0c0" stroke-width="2" d="M154.995,-657.1602C130.2247,-647.6545 103.6457,-633.2762 86,-612 59.6442,-580.2216 63,-563.2855 63,-522 63,-522 63,-522 63,-450 63,-409.6291 56.7112,-363.2789 52.0189,-334.3146"/>
<polygon fill="#c0c0c0" stroke="#c0c0c0" stroke-width="2" points="55.4148,-333.4004 50.3152,-324.1137 48.5105,-334.5537 55.4148,-333.4004"/>
</g>
<!-- 13 -->
<g id="node14" class="node">
<title>13</title>
<path fill="none" stroke="#56d882" stroke-width="2" d="M177,-612C177,-612 107,-612 107,-612 101,-612 95,-606 95,-600 95,-600 95,-588 95,-588 95,-582 101,-576 107,-576 107,-576 177,-576 177,-576 183,-576 189,-582 189,-588 189,-588 189,-600 189,-600 189,-606 183,-612 177,-612"/>
<text text-anchor="middle" x="142" y="-597" font-family="sans" font-size="10.00" fill="#000000">nonpareil_infer</text>
<text text-anchor="middle" x="142" y="-586" font-family="sans" font-size="10.00" fill="#000000">tool: merge_lanes</text>
</g>
<!-- 3&#45;&gt;13 -->
<g id="edge31" class="edge">
<title>3&#45;&gt;13</title>
<path fill="none" stroke="#c0c0c0" stroke-width="2" d="M193.7873,-647.805C185.0153,-638.6912 175.1943,-628.4875 166.4823,-619.4362"/>
<polygon fill="#c0c0c0" stroke="#c0c0c0" stroke-width="2" points="168.9289,-616.931 159.4725,-612.1532 163.8855,-621.7853 168.9289,-616.931"/>
</g>
<!-- 15 -->
<g id="node16" class="node">
<title>15</title>
<path fill="none" stroke="#d88556" stroke-width="2" d="M358.5,-540C358.5,-540 299.5,-540 299.5,-540 293.5,-540 287.5,-534 287.5,-528 287.5,-528 287.5,-516 287.5,-516 287.5,-510 293.5,-504 299.5,-504 299.5,-504 358.5,-504 358.5,-504 364.5,-504 370.5,-510 370.5,-516 370.5,-516 370.5,-528 370.5,-528 370.5,-534 364.5,-540 358.5,-540"/>
<text text-anchor="middle" x="329" y="-519.5" font-family="sans" font-size="10.00" fill="#000000">extend_tadpole</text>
</g>
<!-- 3&#45;&gt;15 -->
<g id="edge33" class="edge">
<title>3&#45;&gt;15</title>
<path fill="none" stroke="#c0c0c0" stroke-width="2" d="M271.6099,-647.9435C286.0178,-638.4633 300.3157,-626.4516 310,-612 322.2444,-593.7279 326.8132,-569.0651 328.4213,-550.1776"/>
<polygon fill="#c0c0c0" stroke="#c0c0c0" stroke-width="2" points="331.9213,-550.2852 329.0509,-540.0866 324.9349,-549.8492 331.9213,-550.2852"/>
</g>
<!-- 16 -->
<g id="node17" class="node">
<title>16</title>
<path fill="none" stroke="#d6d856" stroke-width="2" d="M289,-612C289,-612 259,-612 259,-612 253,-612 247,-606 247,-600 247,-600 247,-588 247,-588 247,-582 253,-576 259,-576 259,-576 289,-576 289,-576 295,-576 301,-582 301,-588 301,-588 301,-600 301,-600 301,-606 295,-612 289,-612"/>
<text text-anchor="middle" x="274" y="-591.5" font-family="sans" font-size="10.00" fill="#000000">loglog</text>
</g>
<!-- 3&#45;&gt;16 -->
<g id="edge35" class="edge">
<title>3&#45;&gt;16</title>
<path fill="none" stroke="#c0c0c0" stroke-width="2" d="M237.0091,-647.805C243.0242,-639.0557 249.7298,-629.3021 255.7622,-620.5277"/>
<polygon fill="#c0c0c0" stroke="#c0c0c0" stroke-width="2" points="258.7385,-622.3765 261.5196,-612.1532 252.9702,-618.4108 258.7385,-622.3765"/>
</g>
<!-- 36 -->
<g id="node37" class="node">
<title>36</title>
<path fill="none" stroke="#56a9d8" stroke-width="2" d="M273.5,-324C273.5,-324 230.5,-324 230.5,-324 224.5,-324 218.5,-318 218.5,-312 218.5,-312 218.5,-300 218.5,-300 218.5,-294 224.5,-288 230.5,-288 230.5,-288 273.5,-288 273.5,-288 279.5,-288 285.5,-294 285.5,-300 285.5,-300 285.5,-312 285.5,-312 285.5,-318 279.5,-324 273.5,-324"/>
<text text-anchor="middle" x="252" y="-303.5" font-family="sans" font-size="10.00" fill="#000000">seqkit_grep</text>
</g>
<!-- 3&#45;&gt;36 -->
<g id="edge59" class="edge">
<title>3&#45;&gt;36</title>
<path fill="none" stroke="#c0c0c0" stroke-width="2" d="M219,-647.9106C219,-617.633 219,-566.2014 219,-522 219,-522 219,-522 219,-450 219,-408.8829 231.941,-362.7926 241.6152,-334.082"/>
<polygon fill="#c0c0c0" stroke="#c0c0c0" stroke-width="2" points="245.0268,-334.9269 245.0015,-324.3321 238.4143,-332.6302 245.0268,-334.9269"/>
</g>
<!-- 4 -->
<g id="node5" class="node">
<title>4</title>
<path fill="none" stroke="#d8ac56" stroke-width="2" d="M931,-540C931,-540 861,-540 861,-540 855,-540 849,-534 849,-528 849,-528 849,-516 849,-516 849,-510 855,-504 861,-504 861,-504 931,-504 931,-504 937,-504 943,-510 943,-516 943,-516 943,-528 943,-528 943,-534 937,-540 931,-540"/>
<text text-anchor="middle" x="896" y="-525" font-family="sans" font-size="10.00" fill="#000000">fastqc</text>
<text text-anchor="middle" x="896" y="-514" font-family="sans" font-size="10.00" fill="#000000">tool: merge_lanes</text>
</g>
<!-- 4&#45;&gt;1 -->
<g id="edge6" class="edge">
<title>4&#45;&gt;1</title>
<path fill="none" stroke="#c0c0c0" stroke-width="2" d="M896.1505,-503.8711C895.7499,-453.9558 889.0519,-311.8613 829,-216 798.4586,-167.2466 742.1049,-129.5667 705.089,-108.5791"/>
<polygon fill="#c0c0c0" stroke="#c0c0c0" stroke-width="2" points="706.5649,-105.3955 696.1222,-103.6063 703.1699,-111.5171 706.5649,-105.3955"/>
</g>
<!-- 5 -->
<g id="node6" class="node">
<title>5</title>
<path fill="none" stroke="#80d856" stroke-width="2" d="M1115,-700C1115,-700 1011,-700 1011,-700 1005,-700 999,-694 999,-688 999,-688 999,-660 999,-660 999,-654 1005,-648 1011,-648 1011,-648 1115,-648 1115,-648 1121,-648 1127,-654 1127,-660 1127,-660 1127,-688 1127,-688 1127,-694 1121,-700 1115,-700"/>
<text text-anchor="middle" x="1063" y="-688" font-family="sans" font-size="10.00" fill="#000000">merge_lanes</text>
<text text-anchor="middle" x="1063" y="-677" font-family="sans" font-size="10.00" fill="#000000">library: lib1</text>
<text text-anchor="middle" x="1063" y="-666" font-family="sans" font-size="10.00" fill="#000000">read_type_trim: collapsed</text>
<text text-anchor="middle" x="1063" y="-655" font-family="sans" font-size="10.00" fill="#000000">sample: HD827sonic_2</text>
</g>
<!-- 5&#45;&gt;4 -->
<g id="edge24" class="edge">
<title>5&#45;&gt;4</title>
<path fill="none" stroke="#c0c0c0" stroke-width="2" d="M998.9865,-661.5704C969.3137,-652.6101 936.0404,-637.4376 915,-612 900.8299,-594.8685 896.4527,-569.7531 895.408,-550.404"/>
<polygon fill="#c0c0c0" stroke="#c0c0c0" stroke-width="2" points="898.9047,-550.2344 895.1293,-540.335 891.9074,-550.428 898.9047,-550.2344"/>
</g>
<!-- 9 -->
<g id="node10" class="node">
<title>9</title>
<path fill="none" stroke="#56d882" stroke-width="2" d="M1006,-612C1006,-612 936,-612 936,-612 930,-612 924,-606 924,-600 924,-600 924,-588 924,-588 924,-582 930,-576 936,-576 936,-576 1006,-576 1006,-576 1012,-576 1018,-582 1018,-588 1018,-588 1018,-600 1018,-600 1018,-606 1012,-612 1006,-612"/>
<text text-anchor="middle" x="971" y="-597" font-family="sans" font-size="10.00" fill="#000000">nonpareil_infer</text>
<text text-anchor="middle" x="971" y="-586" font-family="sans" font-size="10.00" fill="#000000">tool: merge_lanes</text>
</g>
<!-- 5&#45;&gt;9 -->
<g id="edge27" class="edge">
<title>5&#45;&gt;9</title>
<path fill="none" stroke="#c0c0c0" stroke-width="2" d="M1032.8758,-647.805C1022.1853,-638.5089 1010.1908,-628.079 999.6287,-618.8945"/>
<polygon fill="#c0c0c0" stroke="#c0c0c0" stroke-width="2" points="1001.7189,-616.0739 991.8762,-612.1532 997.1257,-621.3562 1001.7189,-616.0739"/>
</g>
<!-- 21 -->
<g id="node22" class="node">
<title>21</title>
<path fill="none" stroke="#d88556" stroke-width="2" d="M1111.5,-540C1111.5,-540 1052.5,-540 1052.5,-540 1046.5,-540 1040.5,-534 1040.5,-528 1040.5,-528 1040.5,-516 1040.5,-516 1040.5,-510 1046.5,-504 1052.5,-504 1052.5,-504 1111.5,-504 1111.5,-504 1117.5,-504 1123.5,-510 1123.5,-516 1123.5,-516 1123.5,-528 1123.5,-528 1123.5,-534 1117.5,-540 1111.5,-540"/>
<text text-anchor="middle" x="1082" y="-519.5" font-family="sans" font-size="10.00" fill="#000000">extend_tadpole</text>
</g>
<!-- 5&#45;&gt;21 -->
<g id="edge41" class="edge">
<title>5&#45;&gt;21</title>
<path fill="none" stroke="#c0c0c0" stroke-width="2" d="M1082.2526,-647.9062C1088.9351,-637.3174 1095.6019,-624.6197 1099,-612 1104.5557,-591.3675 1099.5952,-567.5981 1093.6276,-549.6696"/>
<polygon fill="#c0c0c0" stroke="#c0c0c0" stroke-width="2" points="1096.8632,-548.325 1090.1697,-540.1124 1090.2808,-550.7066 1096.8632,-548.325"/>
</g>
<!-- 22 -->
<g id="node23" class="node">
<title>22</title>
<path fill="none" stroke="#d6d856" stroke-width="2" d="M1078,-612C1078,-612 1048,-612 1048,-612 1042,-612 1036,-606 1036,-600 1036,-600 1036,-588 1036,-588 1036,-582 1042,-576 1048,-576 1048,-576 1078,-576 1078,-576 1084,-576 1090,-582 1090,-588 1090,-588 1090,-600 1090,-600 1090,-606 1084,-612 1078,-612"/>
<text text-anchor="middle" x="1063" y="-591.5" font-family="sans" font-size="10.00" fill="#000000">loglog</text>
</g>
<!-- 5&#45;&gt;22 -->
<g id="edge43" class="edge">
<title>5&#45;&gt;22</title>
<path fill="none" stroke="#c0c0c0" stroke-width="2" d="M1063,-647.805C1063,-639.6026 1063,-630.5174 1063,-622.1839"/>
<polygon fill="#c0c0c0" stroke="#c0c0c0" stroke-width="2" points="1066.5001,-622.1532 1063,-612.1532 1059.5001,-622.1533 1066.5001,-622.1532"/>
</g>
<!-- 33 -->
<g id="node34" class="node">
<title>33</title>
<path fill="none" stroke="#56a9d8" stroke-width="2" d="M1230.5,-324C1230.5,-324 1187.5,-324 1187.5,-324 1181.5,-324 1175.5,-318 1175.5,-312 1175.5,-312 1175.5,-300 1175.5,-300 1175.5,-294 1181.5,-288 1187.5,-288 1187.5,-288 1230.5,-288 1230.5,-288 1236.5,-288 1242.5,-294 1242.5,-300 1242.5,-300 1242.5,-312 1242.5,-312 1242.5,-318 1236.5,-324 1230.5,-324"/>
<text text-anchor="middle" x="1209" y="-303.5" font-family="sans" font-size="10.00" fill="#000000">seqkit_grep</text>
</g>
<!-- 5&#45;&gt;33 -->
<g id="edge55" class="edge">
<title>5&#45;&gt;33</title>
<path fill="none" stroke="#c0c0c0" stroke-width="2" d="M1127.1606,-647.8C1175.6825,-623.2456 1234,-581.3822 1234,-522 1234,-522 1234,-522 1234,-450 1234,-409.0964 1224.087,-362.6076 1216.7454,-333.7868"/>
<polygon fill="#c0c0c0" stroke="#c0c0c0" stroke-width="2" points="1220.1037,-332.7952 1214.18,-324.0111 1213.333,-334.572 1220.1037,-332.7952"/>
</g>
<!-- 6 -->
<g id="node7" class="node">
<title>6</title>
<path fill="none" stroke="#d8ac56" stroke-width="2" d="M528,-540C528,-540 458,-540 458,-540 452,-540 446,-534 446,-528 446,-528 446,-516 446,-516 446,-510 452,-504 458,-504 458,-504 528,-504 528,-504 534,-504 540,-510 540,-516 540,-516 540,-528 540,-528 540,-534 534,-540 528,-540"/>
<text text-anchor="middle" x="493" y="-525" font-family="sans" font-size="10.00" fill="#000000">fastqc</text>
<text text-anchor="middle" x="493" y="-514" font-family="sans" font-size="10.00" fill="#000000">tool: merge_lanes</text>
</g>
<!-- 6&#45;&gt;1 -->
<g id="edge7" class="edge">
<title>6&#45;&gt;1</title>
<path fill="none" stroke="#c0c0c0" stroke-width="2" d="M496.3331,-503.8945C505.5387,-455.7622 533.5443,-321.1345 577,-216 590.7432,-182.7503 592.6692,-172.9727 614,-144 621.5618,-133.7291 631.1169,-123.6208 640.1328,-114.9778"/>
<polygon fill="#c0c0c0" stroke="#c0c0c0" stroke-width="2" points="642.5936,-117.4688 647.5237,-108.0909 637.8215,-112.3475 642.5936,-117.4688"/>
</g>
<!-- 7 -->
<g id="node8" class="node">
<title>7</title>
<path fill="none" stroke="#80d856" stroke-width="2" d="M712,-700C712,-700 608,-700 608,-700 602,-700 596,-694 596,-688 596,-688 596,-660 596,-660 596,-654 602,-648 608,-648 608,-648 712,-648 712,-648 718,-648 724,-654 724,-660 724,-660 724,-688 724,-688 724,-694 718,-700 712,-700"/>
<text text-anchor="middle" x="660" y="-688" font-family="sans" font-size="10.00" fill="#000000">merge_lanes</text>
<text text-anchor="middle" x="660" y="-677" font-family="sans" font-size="10.00" fill="#000000">library: lib2</text>
<text text-anchor="middle" x="660" y="-666" font-family="sans" font-size="10.00" fill="#000000">read_type_trim: collapsed</text>
<text text-anchor="middle" x="660" y="-655" font-family="sans" font-size="10.00" fill="#000000">sample: HD827sonic_2</text>
</g>
<!-- 7&#45;&gt;6 -->
<g id="edge25" class="edge">
<title>7&#45;&gt;6</title>
<path fill="none" stroke="#c0c0c0" stroke-width="2" d="M595.9865,-661.5704C566.3137,-652.6101 533.0404,-637.4376 512,-612 497.8299,-594.8685 493.4527,-569.7531 492.408,-550.404"/>
<polygon fill="#c0c0c0" stroke="#c0c0c0" stroke-width="2" points="495.9047,-550.2344 492.1293,-540.335 488.9074,-550.428 495.9047,-550.2344"/>
</g>
<!-- 11 -->
<g id="node12" class="node">
<title>11</title>
<path fill="none" stroke="#56d882" stroke-width="2" d="M603,-612C603,-612 533,-612 533,-612 527,-612 521,-606 521,-600 521,-600 521,-588 521,-588 521,-582 527,-576 533,-576 533,-576 603,-576 603,-576 609,-576 615,-582 615,-588 615,-588 615,-600 615,-600 615,-606 609,-612 603,-612"/>
<text text-anchor="middle" x="568" y="-597" font-family="sans" font-size="10.00" fill="#000000">nonpareil_infer</text>
<text text-anchor="middle" x="568" y="-586" font-family="sans" font-size="10.00" fill="#000000">tool: merge_lanes</text>
</g>
<!-- 7&#45;&gt;11 -->
<g id="edge29" class="edge">
<title>7&#45;&gt;11</title>
<path fill="none" stroke="#c0c0c0" stroke-width="2" d="M629.8758,-647.805C619.1853,-638.5089 607.1908,-628.079 596.6287,-618.8945"/>
<polygon fill="#c0c0c0" stroke="#c0c0c0" stroke-width="2" points="598.7189,-616.0739 588.8762,-612.1532 594.1257,-621.3562 598.7189,-616.0739"/>
</g>
<!-- 18 -->
<g id="node19" class="node">
<title>18</title>
<path fill="none" stroke="#d88556" stroke-width="2" d="M703.5,-540C703.5,-540 644.5,-540 644.5,-540 638.5,-540 632.5,-534 632.5,-528 632.5,-528 632.5,-516 632.5,-516 632.5,-510 638.5,-504 644.5,-504 644.5,-504 703.5,-504 703.5,-504 709.5,-504 715.5,-510 715.5,-516 715.5,-516 715.5,-528 715.5,-528 715.5,-534 709.5,-540 703.5,-540"/>
<text text-anchor="middle" x="674" y="-519.5" font-family="sans" font-size="10.00" fill="#000000">extend_tadpole</text>
</g>
<!-- 7&#45;&gt;18 -->
<g id="edge37" class="edge">
<title>7&#45;&gt;18</title>
<path fill="none" stroke="#c0c0c0" stroke-width="2" d="M679.2526,-647.9062C685.9351,-637.3174 692.6019,-624.6197 696,-612 701.6108,-591.1631 695.2992,-567.4489 688.0201,-549.5955"/>
<polygon fill="#c0c0c0" stroke="#c0c0c0" stroke-width="2" points="691.1768,-548.0793 683.9462,-540.3353 684.7695,-550.8981 691.1768,-548.0793"/>
</g>
<!-- 19 -->
<g id="node20" class="node">
<title>19</title>
<path fill="none" stroke="#d6d856" stroke-width="2" d="M675,-612C675,-612 645,-612 645,-612 639,-612 633,-606 633,-600 633,-600 633,-588 633,-588 633,-582 639,-576 645,-576 645,-576 675,-576 675,-576 681,-576 687,-582 687,-588 687,-588 687,-600 687,-600 687,-606 681,-612 675,-612"/>
<text text-anchor="middle" x="660" y="-591.5" font-family="sans" font-size="10.00" fill="#000000">loglog</text>
</g>
<!-- 7&#45;&gt;19 -->
<g id="edge39" class="edge">
<title>7&#45;&gt;19</title>
<path fill="none" stroke="#c0c0c0" stroke-width="2" d="M660,-647.805C660,-639.6026 660,-630.5174 660,-622.1839"/>
<polygon fill="#c0c0c0" stroke="#c0c0c0" stroke-width="2" points="663.5001,-622.1532 660,-612.1532 656.5001,-622.1533 663.5001,-622.1532"/>
</g>
<!-- 30 -->
<g id="node31" class="node">
<title>30</title>
<path fill="none" stroke="#56a9d8" stroke-width="2" d="M798.5,-324C798.5,-324 755.5,-324 755.5,-324 749.5,-324 743.5,-318 743.5,-312 743.5,-312 743.5,-300 743.5,-300 743.5,-294 749.5,-288 755.5,-288 755.5,-288 798.5,-288 798.5,-288 804.5,-288 810.5,-294 810.5,-300 810.5,-300 810.5,-312 810.5,-312 810.5,-318 804.5,-324 798.5,-324"/>
<text text-anchor="middle" x="777" y="-303.5" font-family="sans" font-size="10.00" fill="#000000">seqkit_grep</text>
</g>
<!-- 7&#45;&gt;30 -->
<g id="edge51" class="edge">
<title>7&#45;&gt;30</title>
<path fill="none" stroke="#c0c0c0" stroke-width="2" d="M718.5801,-647.8066C764.614,-622.779 821,-580.237 821,-522 821,-522 821,-522 821,-450 821,-409.1184 814.8918,-398.7958 802,-360 799.0176,-351.0249 794.9712,-341.5633 791.0032,-333.1109"/>
<polygon fill="#c0c0c0" stroke="#c0c0c0" stroke-width="2" points="794.1332,-331.5439 786.6174,-324.0763 787.8359,-334.6009 794.1332,-331.5439"/>
</g>
<!-- 8 -->
<g id="node9" class="node">
<title>8</title>
<path fill="none" stroke="#56d8a9" stroke-width="2" d="M971.5,-468C971.5,-468 918.5,-468 918.5,-468 912.5,-468 906.5,-462 906.5,-456 906.5,-456 906.5,-444 906.5,-444 906.5,-438 912.5,-432 918.5,-432 918.5,-432 971.5,-432 971.5,-432 977.5,-432 983.5,-438 983.5,-444 983.5,-444 983.5,-456 983.5,-456 983.5,-462 977.5,-468 971.5,-468"/>
<text text-anchor="middle" x="945" y="-447.5" font-family="sans" font-size="10.00" fill="#000000">nonpareil_plot</text>
</g>
<!-- 8&#45;&gt;1 -->
<g id="edge8" class="edge">
<title>8&#45;&gt;1</title>
<path fill="none" stroke="#c0c0c0" stroke-width="2" d="M941.0158,-431.7991C927.6956,-372.4691 883.1165,-186.0658 840,-144 820.8253,-125.2926 750.1536,-107.3338 705.8874,-97.5712"/>
<polygon fill="#c0c0c0" stroke="#c0c0c0" stroke-width="2" points="706.5749,-94.139 696.0606,-95.4426 705.0929,-100.9804 706.5749,-94.139"/>
</g>
<!-- 9&#45;&gt;8 -->
<g id="edge26" class="edge">
<title>9&#45;&gt;8</title>
<path fill="none" stroke="#c0c0c0" stroke-width="2" d="M967.7071,-575.7623C963.2529,-551.0928 955.2663,-506.8598 950.0507,-477.9731"/>
<polygon fill="#c0c0c0" stroke="#c0c0c0" stroke-width="2" points="953.4874,-477.3086 948.2662,-468.0896 946.5988,-478.5524 953.4874,-477.3086"/>
</g>
<!-- 10 -->
<g id="node11" class="node">
<title>10</title>
<path fill="none" stroke="#56d8a9" stroke-width="2" d="M588.5,-468C588.5,-468 535.5,-468 535.5,-468 529.5,-468 523.5,-462 523.5,-456 523.5,-456 523.5,-444 523.5,-444 523.5,-438 529.5,-432 535.5,-432 535.5,-432 588.5,-432 588.5,-432 594.5,-432 600.5,-438 600.5,-444 600.5,-444 600.5,-456 600.5,-456 600.5,-462 594.5,-468 588.5,-468"/>
<text text-anchor="middle" x="562" y="-447.5" font-family="sans" font-size="10.00" fill="#000000">nonpareil_plot</text>
</g>
<!-- 10&#45;&gt;1 -->
<g id="edge9" class="edge">
<title>10&#45;&gt;1</title>
<path fill="none" stroke="#c0c0c0" stroke-width="2" d="M556.2202,-431.9773C551.1624,-413.7408 545.2998,-384.7794 550,-360 569.2257,-258.6416 588.4236,-236.0532 635,-144 639.6031,-134.9025 645.2907,-125.3672 650.6881,-116.8846"/>
<polygon fill="#c0c0c0" stroke="#c0c0c0" stroke-width="2" points="653.6309,-118.7794 656.1502,-108.4884 647.7632,-114.9622 653.6309,-118.7794"/>
</g>
<!-- 11&#45;&gt;10 -->
<g id="edge28" class="edge">
<title>11&#45;&gt;10</title>
<path fill="none" stroke="#c0c0c0" stroke-width="2" d="M567.2401,-575.7623C566.2167,-551.201 564.3853,-507.2474 563.1814,-478.3541"/>
<polygon fill="#c0c0c0" stroke="#c0c0c0" stroke-width="2" points="566.6671,-477.9352 562.7537,-468.0896 559.6732,-478.2267 566.6671,-477.9352"/>
</g>
<!-- 12 -->
<g id="node13" class="node">
<title>12</title>
<path fill="none" stroke="#56d8a9" stroke-width="2" d="M131.5,-180C131.5,-180 78.5,-180 78.5,-180 72.5,-180 66.5,-174 66.5,-168 66.5,-168 66.5,-156 66.5,-156 66.5,-150 72.5,-144 78.5,-144 78.5,-144 131.5,-144 131.5,-144 137.5,-144 143.5,-150 143.5,-156 143.5,-156 143.5,-168 143.5,-168 143.5,-174 137.5,-180 131.5,-180"/>
<text text-anchor="middle" x="105" y="-159.5" font-family="sans" font-size="10.00" fill="#000000">nonpareil_plot</text>
</g>
<!-- 12&#45;&gt;1 -->
<g id="edge10" class="edge">
<title>12&#45;&gt;1</title>
<path fill="none" stroke="#c0c0c0" stroke-width="2" d="M143.51,-146.5966C146.6908,-145.6196 149.8815,-144.7352 153,-144 328.8925,-102.5336 546.0192,-92.8956 631.7125,-90.6662"/>
<polygon fill="#c0c0c0" stroke="#c0c0c0" stroke-width="2" points="631.824,-94.1647 641.7365,-90.4242 631.6549,-87.1667 631.824,-94.1647"/>
</g>
<!-- 13&#45;&gt;12 -->
<g id="edge30" class="edge">
<title>13&#45;&gt;12</title>
<path fill="none" stroke="#c0c0c0" stroke-width="2" d="M140.964,-575.8216C139.4995,-548.5143 137,-495.2773 137,-450 137,-450 137,-450 137,-306 137,-264.9442 124.4511,-218.8385 115.0701,-190.1076"/>
<polygon fill="#c0c0c0" stroke="#c0c0c0" stroke-width="2" points="118.2932,-188.7116 111.7864,-180.3503 111.6589,-190.9443 118.2932,-188.7116"/>
</g>
<!-- 14 -->
<g id="node15" class="node">
<title>14</title>
<path fill="none" stroke="#d8ac56" stroke-width="2" d="M484,-324C484,-324 406,-324 406,-324 400,-324 394,-318 394,-312 394,-312 394,-300 394,-300 394,-294 400,-288 406,-288 406,-288 484,-288 484,-288 490,-288 496,-294 496,-300 496,-300 496,-312 496,-312 496,-318 490,-324 484,-324"/>
<text text-anchor="middle" x="445" y="-309" font-family="sans" font-size="10.00" fill="#000000">fastqc</text>
<text text-anchor="middle" x="445" y="-298" font-family="sans" font-size="10.00" fill="#000000">tool: extend/tadpole</text>
</g>
<!-- 14&#45;&gt;1 -->
<g id="edge11" class="edge">
<title>14&#45;&gt;1</title>
<path fill="none" stroke="#c0c0c0" stroke-width="2" d="M448.5558,-287.9725C455.9957,-254.8714 476.2692,-184.1273 520,-144 551.1899,-115.3801 598.7056,-101.6567 631.6594,-95.2616"/>
<polygon fill="#c0c0c0" stroke="#c0c0c0" stroke-width="2" points="632.5869,-98.6509 641.8078,-93.4331 631.3457,-91.7618 632.5869,-98.6509"/>
</g>
<!-- 15&#45;&gt;14 -->
<g id="edge32" class="edge">
<title>15&#45;&gt;14</title>
<path fill="none" stroke="#c0c0c0" stroke-width="2" d="M341.9327,-503.8801C349.0728,-493.5702 357.9046,-480.2966 365,-468 391.4255,-422.2034 417.7356,-366.4805 432.6255,-333.7585"/>
<polygon fill="#c0c0c0" stroke="#c0c0c0" stroke-width="2" points="435.9359,-334.9321 436.8673,-324.3783 429.5578,-332.0478 435.9359,-334.9321"/>
</g>
<!-- 24 -->
<g id="node25" class="node">
<title>24</title>
<path fill="none" stroke="#5682d8" stroke-width="2" d="M344,-468C344,-468 314,-468 314,-468 308,-468 302,-462 302,-456 302,-456 302,-444 302,-444 302,-438 308,-432 314,-432 314,-432 344,-432 344,-432 350,-432 356,-438 356,-444 356,-444 356,-456 356,-456 356,-462 350,-468 344,-468"/>
<text text-anchor="middle" x="329" y="-447.5" font-family="sans" font-size="10.00" fill="#000000">vsearch</text>
</g>
<!-- 15&#45;&gt;24 -->
<g id="edge45" class="edge">
<title>15&#45;&gt;24</title>
<path fill="none" stroke="#c0c0c0" stroke-width="2" d="M329,-503.8314C329,-496.131 329,-486.9743 329,-478.4166"/>
<polygon fill="#c0c0c0" stroke="#c0c0c0" stroke-width="2" points="332.5001,-478.4132 329,-468.4133 325.5001,-478.4133 332.5001,-478.4132"/>
</g>
<!-- 16&#45;&gt;15 -->
<g id="edge34" class="edge">
<title>16&#45;&gt;15</title>
<path fill="none" stroke="#c0c0c0" stroke-width="2" d="M287.8788,-575.8314C294.2136,-567.5386 301.8384,-557.557 308.7926,-548.4533"/>
<polygon fill="#c0c0c0" stroke="#c0c0c0" stroke-width="2" points="311.6452,-550.4847 314.9343,-540.4133 306.0825,-546.2353 311.6452,-550.4847"/>
</g>
<!-- 17 -->
<g id="node18" class="node">
<title>17</title>
<path fill="none" stroke="#d8ac56" stroke-width="2" d="M649,-396C649,-396 571,-396 571,-396 565,-396 559,-390 559,-384 559,-384 559,-372 559,-372 559,-366 565,-360 571,-360 571,-360 649,-360 649,-360 655,-360 661,-366 661,-372 661,-372 661,-384 661,-384 661,-390 655,-396 649,-396"/>
<text text-anchor="middle" x="610" y="-381" font-family="sans" font-size="10.00" fill="#000000">fastqc</text>
<text text-anchor="middle" x="610" y="-370" font-family="sans" font-size="10.00" fill="#000000">tool: extend/tadpole</text>
</g>
<!-- 17&#45;&gt;1 -->
<g id="edge12" class="edge">
<title>17&#45;&gt;1</title>
<path fill="none" stroke="#c0c0c0" stroke-width="2" d="M610.9981,-359.8364C612.907,-329.6778 617.9134,-267.491 629,-216 636.4303,-181.4905 649.3713,-142.9653 658.5189,-117.7071"/>
<polygon fill="#c0c0c0" stroke="#c0c0c0" stroke-width="2" points="661.897,-118.6613 662.0596,-108.0677 655.3263,-116.2477 661.897,-118.6613"/>
</g>
<!-- 18&#45;&gt;17 -->
<g id="edge36" class="edge">
<title>18&#45;&gt;17</title>
<path fill="none" stroke="#c0c0c0" stroke-width="2" d="M665.8944,-503.7623C654.8821,-478.9846 635.0984,-434.4714 622.2639,-405.5939"/>
<polygon fill="#c0c0c0" stroke="#c0c0c0" stroke-width="2" points="625.2996,-403.8062 618.0398,-396.0896 618.9029,-406.6492 625.2996,-403.8062"/>
</g>
<!-- 26 -->
<g id="node27" class="node">
<title>26</title>
<path fill="none" stroke="#5682d8" stroke-width="2" d="M704,-468C704,-468 674,-468 674,-468 668,-468 662,-462 662,-456 662,-456 662,-444 662,-444 662,-438 668,-432 674,-432 674,-432 704,-432 704,-432 710,-432 716,-438 716,-444 716,-444 716,-456 716,-456 716,-462 710,-468 704,-468"/>
<text text-anchor="middle" x="689" y="-447.5" font-family="sans" font-size="10.00" fill="#000000">vsearch</text>
</g>
<!-- 18&#45;&gt;26 -->
<g id="edge47" class="edge">
<title>18&#45;&gt;26</title>
<path fill="none" stroke="#c0c0c0" stroke-width="2" d="M677.7851,-503.8314C679.3894,-496.131 681.297,-486.9743 683.0799,-478.4166"/>
<polygon fill="#c0c0c0" stroke="#c0c0c0" stroke-width="2" points="686.5507,-478.9169 685.1639,-468.4133 679.6979,-477.4892 686.5507,-478.9169"/>
</g>
<!-- 19&#45;&gt;18 -->
<g id="edge38" class="edge">
<title>19&#45;&gt;18</title>
<path fill="none" stroke="#c0c0c0" stroke-width="2" d="M663.5328,-575.8314C665.0301,-568.131 666.8105,-558.9743 668.4745,-550.4166"/>
<polygon fill="#c0c0c0" stroke="#c0c0c0" stroke-width="2" points="671.9465,-550.8975 670.4196,-540.4133 665.0752,-549.5614 671.9465,-550.8975"/>
</g>
<!-- 20 -->
<g id="node21" class="node">
<title>20</title>
<path fill="none" stroke="#d8ac56" stroke-width="2" d="M1062,-396C1062,-396 984,-396 984,-396 978,-396 972,-390 972,-384 972,-384 972,-372 972,-372 972,-366 978,-360 984,-360 984,-360 1062,-360 1062,-360 1068,-360 1074,-366 1074,-372 1074,-372 1074,-384 1074,-384 1074,-390 1068,-396 1062,-396"/>
<text text-anchor="middle" x="1023" y="-381" font-family="sans" font-size="10.00" fill="#000000">fastqc</text>
<text text-anchor="middle" x="1023" y="-370" font-family="sans" font-size="10.00" fill="#000000">tool: extend/tadpole</text>
</g>
<!-- 20&#45;&gt;1 -->
<g id="edge13" class="edge">
<title>20&#45;&gt;1</title>
<path fill="none" stroke="#c0c0c0" stroke-width="2" d="M1028.3962,-359.9108C1040.1477,-316.4072 1062.7571,-205.0249 1007,-144 986.8433,-121.939 789.6903,-101.2079 706.1279,-93.3367"/>
<polygon fill="#c0c0c0" stroke="#c0c0c0" stroke-width="2" points="706.3336,-89.8408 696.0521,-92.3982 705.6844,-96.8106 706.3336,-89.8408"/>
</g>
<!-- 21&#45;&gt;20 -->
<g id="edge40" class="edge">
<title>21&#45;&gt;20</title>
<path fill="none" stroke="#c0c0c0" stroke-width="2" d="M1074.5276,-503.7623C1064.3757,-478.9846 1046.1376,-434.4714 1034.3058,-405.5939"/>
<polygon fill="#c0c0c0" stroke="#c0c0c0" stroke-width="2" points="1037.4418,-404.0161 1030.4117,-396.0896 1030.9644,-406.67 1037.4418,-404.0161"/>
</g>
<!-- 28 -->
<g id="node29" class="node">
<title>28</title>
<path fill="none" stroke="#5682d8" stroke-width="2" d="M1117,-468C1117,-468 1087,-468 1087,-468 1081,-468 1075,-462 1075,-456 1075,-456 1075,-444 1075,-444 1075,-438 1081,-432 1087,-432 1087,-432 1117,-432 1117,-432 1123,-432 1129,-438 1129,-444 1129,-444 1129,-456 1129,-456 1129,-462 1123,-468 1117,-468"/>
<text text-anchor="middle" x="1102" y="-447.5" font-family="sans" font-size="10.00" fill="#000000">vsearch</text>
</g>
<!-- 21&#45;&gt;28 -->
<g id="edge49" class="edge">
<title>21&#45;&gt;28</title>
<path fill="none" stroke="#c0c0c0" stroke-width="2" d="M1087.0468,-503.8314C1089.2094,-496.0463 1091.7853,-486.7729 1094.1848,-478.1347"/>
<polygon fill="#c0c0c0" stroke="#c0c0c0" stroke-width="2" points="1097.581,-478.9852 1096.8852,-468.4133 1090.8364,-477.1117 1097.581,-478.9852"/>
</g>
<!-- 22&#45;&gt;21 -->
<g id="edge42" class="edge">
<title>22&#45;&gt;21</title>
<path fill="none" stroke="#c0c0c0" stroke-width="2" d="M1067.7945,-575.8314C1069.8489,-568.0463 1072.296,-558.7729 1074.5756,-550.1347"/>
<polygon fill="#c0c0c0" stroke="#c0c0c0" stroke-width="2" points="1077.9735,-550.9753 1077.1409,-540.4133 1071.2052,-549.1892 1077.9735,-550.9753"/>
</g>
<!-- 23 -->
<g id="node24" class="node">
<title>23</title>
<path fill="none" stroke="#d8ac56" stroke-width="2" d="M456,-180C456,-180 418,-180 418,-180 412,-180 406,-174 406,-168 406,-168 406,-156 406,-156 406,-150 412,-144 418,-144 418,-144 456,-144 456,-144 462,-144 468,-150 468,-156 468,-156 468,-168 468,-168 468,-174 462,-180 456,-180"/>
<text text-anchor="middle" x="437" y="-165" font-family="sans" font-size="10.00" fill="#000000">fastqc</text>
<text text-anchor="middle" x="437" y="-154" font-family="sans" font-size="10.00" fill="#000000">tool: derep</text>
</g>
<!-- 23&#45;&gt;1 -->
<g id="edge14" class="edge">
<title>23&#45;&gt;1</title>
<path fill="none" stroke="#c0c0c0" stroke-width="2" d="M468.322,-149.0096C472.8834,-147.2528 477.5435,-145.5305 482,-144 533.2688,-126.3925 593.7132,-109.6478 631.7021,-99.5984"/>
<polygon fill="#c0c0c0" stroke="#c0c0c0" stroke-width="2" points="633.013,-102.8729 641.7952,-96.9464 631.234,-96.1027 633.013,-102.8729"/>
</g>
<!-- 24&#45;&gt;23 -->
<g id="edge44" class="edge">
<title>24&#45;&gt;23</title>
<path fill="none" stroke="#c0c0c0" stroke-width="2" d="M334.8732,-431.8968C344.715,-401.8252 365.3923,-339.7604 385,-288 397.9514,-253.8108 414.209,-214.9985 425.0654,-189.5945"/>
<polygon fill="#c0c0c0" stroke="#c0c0c0" stroke-width="2" points="428.3572,-190.7988 429.0829,-180.2289 421.9241,-188.0392 428.3572,-190.7988"/>
</g>
<!-- 37 -->
<g id="node38" class="node">
<title>37</title>
<path fill="none" stroke="#56d8d8" stroke-width="2" d="M313.5,-396C313.5,-396 262.5,-396 262.5,-396 256.5,-396 250.5,-390 250.5,-384 250.5,-384 250.5,-372 250.5,-372 250.5,-366 256.5,-360 262.5,-360 262.5,-360 313.5,-360 313.5,-360 319.5,-360 325.5,-366 325.5,-372 325.5,-372 325.5,-384 325.5,-384 325.5,-390 319.5,-396 313.5,-396"/>
<text text-anchor="middle" x="288" y="-375.5" font-family="sans" font-size="10.00" fill="#000000">seqkit_fx2tab</text>
</g>
<!-- 24&#45;&gt;37 -->
<g id="edge61" class="edge">
<title>24&#45;&gt;37</title>
<path fill="none" stroke="#c0c0c0" stroke-width="2" d="M318.654,-431.8314C314.0763,-423.7925 308.5948,-414.1666 303.5412,-405.2918"/>
<polygon fill="#c0c0c0" stroke="#c0c0c0" stroke-width="2" points="306.4752,-403.3712 298.4853,-396.4133 300.3923,-406.8351 306.4752,-403.3712"/>
</g>
<!-- 25 -->
<g id="node26" class="node">
<title>25</title>
<path fill="none" stroke="#d8ac56" stroke-width="2" d="M688,-252C688,-252 650,-252 650,-252 644,-252 638,-246 638,-240 638,-240 638,-228 638,-228 638,-222 644,-216 650,-216 650,-216 688,-216 688,-216 694,-216 700,-222 700,-228 700,-228 700,-240 700,-240 700,-246 694,-252 688,-252"/>
<text text-anchor="middle" x="669" y="-237" font-family="sans" font-size="10.00" fill="#000000">fastqc</text>
<text text-anchor="middle" x="669" y="-226" font-family="sans" font-size="10.00" fill="#000000">tool: derep</text>
</g>
<!-- 25&#45;&gt;1 -->
<g id="edge15" class="edge">
<title>25&#45;&gt;1</title>
<path fill="none" stroke="#c0c0c0" stroke-width="2" d="M669,-215.7623C669,-191.201 669,-147.2474 669,-118.3541"/>
<polygon fill="#c0c0c0" stroke="#c0c0c0" stroke-width="2" points="672.5001,-118.0896 669,-108.0896 665.5001,-118.0897 672.5001,-118.0896"/>
</g>
<!-- 26&#45;&gt;25 -->
<g id="edge46" class="edge">
<title>26&#45;&gt;25</title>
<path fill="none" stroke="#c0c0c0" stroke-width="2" d="M687.3292,-431.9555C683.8439,-394.3144 675.7765,-307.1867 671.6041,-262.1246"/>
<polygon fill="#c0c0c0" stroke="#c0c0c0" stroke-width="2" points="675.0873,-261.7797 670.6801,-252.1451 668.1171,-262.4252 675.0873,-261.7797"/>
</g>
<!-- 31 -->
<g id="node32" class="node">
<title>31</title>
<path fill="none" stroke="#56d8d8" stroke-width="2" d="M780.5,-396C780.5,-396 729.5,-396 729.5,-396 723.5,-396 717.5,-390 717.5,-384 717.5,-384 717.5,-372 717.5,-372 717.5,-366 723.5,-360 729.5,-360 729.5,-360 780.5,-360 780.5,-360 786.5,-360 792.5,-366 792.5,-372 792.5,-372 792.5,-384 792.5,-384 792.5,-390 786.5,-396 780.5,-396"/>
<text text-anchor="middle" x="755" y="-375.5" font-family="sans" font-size="10.00" fill="#000000">seqkit_fx2tab</text>
</g>
<!-- 26&#45;&gt;31 -->
<g id="edge53" class="edge">
<title>26&#45;&gt;31</title>
<path fill="none" stroke="#c0c0c0" stroke-width="2" d="M705.6546,-431.8314C713.4114,-423.3694 722.7802,-413.1489 731.261,-403.8971"/>
<polygon fill="#c0c0c0" stroke="#c0c0c0" stroke-width="2" points="733.9439,-406.1499 738.1212,-396.4133 728.7838,-401.4198 733.9439,-406.1499"/>
</g>
<!-- 27 -->
<g id="node28" class="node">
<title>27</title>
<path fill="none" stroke="#d8ac56" stroke-width="2" d="M1121,-324C1121,-324 1083,-324 1083,-324 1077,-324 1071,-318 1071,-312 1071,-312 1071,-300 1071,-300 1071,-294 1077,-288 1083,-288 1083,-288 1121,-288 1121,-288 1127,-288 1133,-294 1133,-300 1133,-300 1133,-312 1133,-312 1133,-318 1127,-324 1121,-324"/>
<text text-anchor="middle" x="1102" y="-309" font-family="sans" font-size="10.00" fill="#000000">fastqc</text>
<text text-anchor="middle" x="1102" y="-298" font-family="sans" font-size="10.00" fill="#000000">tool: derep</text>
</g>
<!-- 27&#45;&gt;1 -->
<g id="edge16" class="edge">
<title>27&#45;&gt;1</title>
<path fill="none" stroke="#c0c0c0" stroke-width="2" d="M1100.8282,-287.9937C1097.574,-253.9506 1085.3786,-180.3153 1040,-144 988.9507,-103.1466 789.5284,-93.1575 706.0588,-90.7502"/>
<polygon fill="#c0c0c0" stroke="#c0c0c0" stroke-width="2" points="706.096,-87.25 696.0058,-90.4811 705.9086,-94.2475 706.096,-87.25"/>
</g>
<!-- 28&#45;&gt;27 -->
<g id="edge48" class="edge">
<title>28&#45;&gt;27</title>
<path fill="none" stroke="#c0c0c0" stroke-width="2" d="M1102,-431.7623C1102,-407.201 1102,-363.2474 1102,-334.3541"/>
<polygon fill="#c0c0c0" stroke="#c0c0c0" stroke-width="2" points="1105.5001,-334.0896 1102,-324.0896 1098.5001,-334.0897 1105.5001,-334.0896"/>
</g>
<!-- 34 -->
<g id="node35" class="node">
<title>34</title>
<path fill="none" stroke="#56d8d8" stroke-width="2" d="M1193.5,-396C1193.5,-396 1142.5,-396 1142.5,-396 1136.5,-396 1130.5,-390 1130.5,-384 1130.5,-384 1130.5,-372 1130.5,-372 1130.5,-366 1136.5,-360 1142.5,-360 1142.5,-360 1193.5,-360 1193.5,-360 1199.5,-360 1205.5,-366 1205.5,-372 1205.5,-372 1205.5,-384 1205.5,-384 1205.5,-390 1199.5,-396 1193.5,-396"/>
<text text-anchor="middle" x="1168" y="-375.5" font-family="sans" font-size="10.00" fill="#000000">seqkit_fx2tab</text>
</g>
<!-- 28&#45;&gt;34 -->
<g id="edge57" class="edge">
<title>28&#45;&gt;34</title>
<path fill="none" stroke="#c0c0c0" stroke-width="2" d="M1118.6546,-431.8314C1126.4114,-423.3694 1135.7802,-413.1489 1144.261,-403.8971"/>
<polygon fill="#c0c0c0" stroke="#c0c0c0" stroke-width="2" points="1146.9439,-406.1499 1151.1212,-396.4133 1141.7838,-401.4198 1146.9439,-406.1499"/>
</g>
<!-- 29 -->
<g id="node30" class="node">
<title>29</title>
<path fill="none" stroke="#d8ac56" stroke-width="2" d="M807.5,-252C807.5,-252 730.5,-252 730.5,-252 724.5,-252 718.5,-246 718.5,-240 718.5,-240 718.5,-228 718.5,-228 718.5,-222 724.5,-216 730.5,-216 730.5,-216 807.5,-216 807.5,-216 813.5,-216 819.5,-222 819.5,-228 819.5,-228 819.5,-240 819.5,-240 819.5,-246 813.5,-252 807.5,-252"/>
<text text-anchor="middle" x="769" y="-237" font-family="sans" font-size="10.00" fill="#000000">fastqc</text>
<text text-anchor="middle" x="769" y="-226" font-family="sans" font-size="10.00" fill="#000000">tool: represent/grep</text>
</g>
<!-- 29&#45;&gt;1 -->
<g id="edge17" class="edge">
<title>29&#45;&gt;1</title>
<path fill="none" stroke="#c0c0c0" stroke-width="2" d="M756.3349,-215.7623C738.9028,-190.66 707.404,-145.3017 687.3799,-116.4671"/>
<polygon fill="#c0c0c0" stroke="#c0c0c0" stroke-width="2" points="690.141,-114.3069 681.5622,-108.0896 684.3914,-118.2997 690.141,-114.3069"/>
</g>
<!-- 30&#45;&gt;29 -->
<g id="edge50" class="edge">
<title>30&#45;&gt;29</title>
<path fill="none" stroke="#c0c0c0" stroke-width="2" d="M774.9813,-287.8314C774.1257,-280.131 773.1083,-270.9743 772.1574,-262.4166"/>
<polygon fill="#c0c0c0" stroke="#c0c0c0" stroke-width="2" points="775.6289,-261.9656 771.0459,-252.4133 768.6717,-262.7386 775.6289,-261.9656"/>
</g>
<!-- 41 -->
<g id="node42" class="node">
<title>41</title>
<path fill="none" stroke="#afd856" stroke-width="2" d="M986,-252C986,-252 926,-252 926,-252 920,-252 914,-246 914,-240 914,-240 914,-228 914,-228 914,-222 920,-216 926,-216 926,-216 986,-216 986,-216 992,-216 998,-222 998,-228 998,-228 998,-240 998,-240 998,-246 992,-252 986,-252"/>
<text text-anchor="middle" x="956" y="-231.5" font-family="sans" font-size="10.00" fill="#000000">low_complexity</text>
</g>
<!-- 30&#45;&gt;41 -->
<g id="edge65" class="edge">
<title>30&#45;&gt;41</title>
<path fill="none" stroke="#c0c0c0" stroke-width="2" d="M810.6685,-292.4574C837.0783,-281.8344 874.287,-266.8678 904.4431,-254.738"/>
<polygon fill="#c0c0c0" stroke="#c0c0c0" stroke-width="2" points="905.9921,-257.8875 913.9635,-250.9085 903.3798,-251.3932 905.9921,-257.8875"/>
</g>
<!-- 31&#45;&gt;30 -->
<g id="edge52" class="edge">
<title>31&#45;&gt;30</title>
<path fill="none" stroke="#c0c0c0" stroke-width="2" d="M760.5515,-359.8314C762.9303,-352.0463 765.7638,-342.7729 768.4033,-334.1347"/>
<polygon fill="#c0c0c0" stroke="#c0c0c0" stroke-width="2" points="771.7987,-334.9996 771.3737,-324.4133 765.1042,-332.954 771.7987,-334.9996"/>
</g>
<!-- 32 -->
<g id="node33" class="node">
<title>32</title>
<path fill="none" stroke="#d8ac56" stroke-width="2" d="M1219.5,-252C1219.5,-252 1142.5,-252 1142.5,-252 1136.5,-252 1130.5,-246 1130.5,-240 1130.5,-240 1130.5,-228 1130.5,-228 1130.5,-222 1136.5,-216 1142.5,-216 1142.5,-216 1219.5,-216 1219.5,-216 1225.5,-216 1231.5,-222 1231.5,-228 1231.5,-228 1231.5,-240 1231.5,-240 1231.5,-246 1225.5,-252 1219.5,-252"/>
<text text-anchor="middle" x="1181" y="-237" font-family="sans" font-size="10.00" fill="#000000">fastqc</text>
<text text-anchor="middle" x="1181" y="-226" font-family="sans" font-size="10.00" fill="#000000">tool: represent/grep</text>
</g>
<!-- 32&#45;&gt;1 -->
<g id="edge18" class="edge">
<title>32&#45;&gt;1</title>
<path fill="none" stroke="#c0c0c0" stroke-width="2" d="M1173.4778,-215.988C1163.627,-194.8697 1144.2246,-160.6423 1116,-144 1046.8687,-103.2374 801.0566,-93.1245 706.4695,-90.7183"/>
<polygon fill="#c0c0c0" stroke="#c0c0c0" stroke-width="2" points="706.307,-87.2135 696.2261,-90.4731 706.1395,-94.2115 706.307,-87.2135"/>
</g>
<!-- 33&#45;&gt;32 -->
<g id="edge54" class="edge">
<title>33&#45;&gt;32</title>
<path fill="none" stroke="#c0c0c0" stroke-width="2" d="M1201.9344,-287.8314C1198.874,-279.9617 1195.2221,-270.5712 1191.8318,-261.8533"/>
<polygon fill="#c0c0c0" stroke="#c0c0c0" stroke-width="2" points="1195.0473,-260.4647 1188.1607,-252.4133 1188.5232,-263.0019 1195.0473,-260.4647"/>
</g>
<!-- 39 -->
<g id="node40" class="node">
<title>39</title>
<path fill="none" stroke="#afd856" stroke-width="2" d="M1322,-252C1322,-252 1262,-252 1262,-252 1256,-252 1250,-246 1250,-240 1250,-240 1250,-228 1250,-228 1250,-222 1256,-216 1262,-216 1262,-216 1322,-216 1322,-216 1328,-216 1334,-222 1334,-228 1334,-228 1334,-240 1334,-240 1334,-246 1328,-252 1322,-252"/>
<text text-anchor="middle" x="1292" y="-231.5" font-family="sans" font-size="10.00" fill="#000000">low_complexity</text>
</g>
<!-- 33&#45;&gt;39 -->
<g id="edge63" class="edge">
<title>33&#45;&gt;39</title>
<path fill="none" stroke="#c0c0c0" stroke-width="2" d="M1229.9444,-287.8314C1240.0691,-279.0485 1252.3777,-268.3712 1263.3548,-258.8489"/>
<polygon fill="#c0c0c0" stroke="#c0c0c0" stroke-width="2" points="1265.8019,-261.3595 1271.0623,-252.1628 1261.2149,-256.0718 1265.8019,-261.3595"/>
</g>
<!-- 34&#45;&gt;33 -->
<g id="edge56" class="edge">
<title>34&#45;&gt;33</title>
<path fill="none" stroke="#c0c0c0" stroke-width="2" d="M1178.346,-359.8314C1182.9237,-351.7925 1188.4052,-342.1666 1193.4588,-333.2918"/>
<polygon fill="#c0c0c0" stroke="#c0c0c0" stroke-width="2" points="1196.6077,-334.8351 1198.5147,-324.4133 1190.5248,-331.3712 1196.6077,-334.8351"/>
</g>
<!-- 35 -->
<g id="node36" class="node">
<title>35</title>
<path fill="none" stroke="#d8ac56" stroke-width="2" d="M375.5,-180C375.5,-180 298.5,-180 298.5,-180 292.5,-180 286.5,-174 286.5,-168 286.5,-168 286.5,-156 286.5,-156 286.5,-150 292.5,-144 298.5,-144 298.5,-144 375.5,-144 375.5,-144 381.5,-144 387.5,-150 387.5,-156 387.5,-156 387.5,-168 387.5,-168 387.5,-174 381.5,-180 375.5,-180"/>
<text text-anchor="middle" x="337" y="-165" font-family="sans" font-size="10.00" fill="#000000">fastqc</text>
<text text-anchor="middle" x="337" y="-154" font-family="sans" font-size="10.00" fill="#000000">tool: represent/grep</text>
</g>
<!-- 35&#45;&gt;1 -->
<g id="edge19" class="edge">
<title>35&#45;&gt;1</title>
<path fill="none" stroke="#c0c0c0" stroke-width="2" d="M387.6451,-146.4358C390.8022,-145.5807 393.9394,-144.7611 397,-144 480.2219,-123.3059 579.3178,-105.2662 631.9065,-96.2059"/>
<polygon fill="#c0c0c0" stroke="#c0c0c0" stroke-width="2" points="632.5192,-99.652 641.7856,-94.5155 631.3385,-92.7523 632.5192,-99.652"/>
</g>
<!-- 36&#45;&gt;35 -->
<g id="edge58" class="edge">
<title>36&#45;&gt;35</title>
<path fill="none" stroke="#c0c0c0" stroke-width="2" d="M262.7653,-287.7623C277.5187,-262.7682 304.126,-217.6924 321.1564,-188.8409"/>
<polygon fill="#c0c0c0" stroke="#c0c0c0" stroke-width="2" points="324.2529,-190.4804 326.3221,-180.0896 318.2247,-186.9221 324.2529,-190.4804"/>
</g>
<!-- 43 -->
<g id="node44" class="node">
<title>43</title>
<path fill="none" stroke="#afd856" stroke-width="2" d="M245,-252C245,-252 185,-252 185,-252 179,-252 173,-246 173,-240 173,-240 173,-228 173,-228 173,-222 179,-216 185,-216 185,-216 245,-216 245,-216 251,-216 257,-222 257,-228 257,-228 257,-240 257,-240 257,-246 251,-252 245,-252"/>
<text text-anchor="middle" x="215" y="-231.5" font-family="sans" font-size="10.00" fill="#000000">low_complexity</text>
</g>
<!-- 36&#45;&gt;43 -->
<g id="edge67" class="edge">
<title>36&#45;&gt;43</title>
<path fill="none" stroke="#c0c0c0" stroke-width="2" d="M242.6633,-287.8314C238.5757,-279.8771 233.6896,-270.369 229.1691,-261.5723"/>
<polygon fill="#c0c0c0" stroke="#c0c0c0" stroke-width="2" points="232.1461,-259.7078 224.4624,-252.4133 225.9201,-262.9074 232.1461,-259.7078"/>
</g>
<!-- 37&#45;&gt;36 -->
<g id="edge60" class="edge">
<title>37&#45;&gt;36</title>
<path fill="none" stroke="#c0c0c0" stroke-width="2" d="M278.9157,-359.8314C274.9385,-351.8771 270.1845,-342.369 265.7861,-333.5723"/>
<polygon fill="#c0c0c0" stroke="#c0c0c0" stroke-width="2" points="268.8093,-331.7923 261.2066,-324.4133 262.5483,-334.9228 268.8093,-331.7923"/>
</g>
<!-- 38 -->
<g id="node39" class="node">
<title>38</title>
<path fill="none" stroke="#d8ac56" stroke-width="2" d="M1262,-180C1262,-180 1180,-180 1180,-180 1174,-180 1168,-174 1168,-168 1168,-168 1168,-156 1168,-156 1168,-150 1174,-144 1180,-144 1180,-144 1262,-144 1262,-144 1268,-144 1274,-150 1274,-156 1274,-156 1274,-168 1274,-168 1274,-174 1268,-180 1262,-180"/>
<text text-anchor="middle" x="1221" y="-165" font-family="sans" font-size="10.00" fill="#000000">fastqc</text>
<text text-anchor="middle" x="1221" y="-154" font-family="sans" font-size="10.00" fill="#000000">tool: low_complexity</text>
</g>
<!-- 38&#45;&gt;1 -->
<g id="edge20" class="edge">
<title>38&#45;&gt;1</title>
<path fill="none" stroke="#c0c0c0" stroke-width="2" d="M1167.7744,-146.92C1163.1358,-145.8433 1158.4974,-144.8494 1154,-144 988.6791,-112.7758 787.9996,-97.5001 706.2982,-92.2186"/>
<polygon fill="#c0c0c0" stroke="#c0c0c0" stroke-width="2" points="706.2286,-88.7072 696.027,-91.5671 705.7854,-95.6932 706.2286,-88.7072"/>
</g>
<!-- 39&#45;&gt;0 -->
<g id="edge2" class="edge">
<title>39&#45;&gt;0</title>
<path fill="none" stroke="#c0c0c0" stroke-width="2" d="M1295.5863,-215.9138C1298.4299,-195.9953 1299.5626,-164.1286 1283,-144 1233.722,-84.1124 995.7514,-39.3103 903.0613,-23.8608"/>
<polygon fill="#c0c0c0" stroke="#c0c0c0" stroke-width="2" points="903.4469,-20.3773 893.0111,-22.2062 902.3097,-27.2843 903.4469,-20.3773"/>
</g>
<!-- 39&#45;&gt;38 -->
<g id="edge62" class="edge">
<title>39&#45;&gt;38</title>
<path fill="none" stroke="#c0c0c0" stroke-width="2" d="M1274.0837,-215.8314C1265.6558,-207.2848 1255.459,-196.9443 1246.264,-187.6198"/>
<polygon fill="#c0c0c0" stroke="#c0c0c0" stroke-width="2" points="1248.6711,-185.0761 1239.1575,-180.4133 1243.6869,-189.9912 1248.6711,-185.0761"/>
</g>
<!-- 40 -->
<g id="node41" class="node">
<title>40</title>
<path fill="none" stroke="#d8ac56" stroke-width="2" d="M986,-180C986,-180 904,-180 904,-180 898,-180 892,-174 892,-168 892,-168 892,-156 892,-156 892,-150 898,-144 904,-144 904,-144 986,-144 986,-144 992,-144 998,-150 998,-156 998,-156 998,-168 998,-168 998,-174 992,-180 986,-180"/>
<text text-anchor="middle" x="945" y="-165" font-family="sans" font-size="10.00" fill="#000000">fastqc</text>
<text text-anchor="middle" x="945" y="-154" font-family="sans" font-size="10.00" fill="#000000">tool: low_complexity</text>
</g>
<!-- 40&#45;&gt;1 -->
<g id="edge21" class="edge">
<title>40&#45;&gt;1</title>
<path fill="none" stroke="#c0c0c0" stroke-width="2" d="M891.9823,-147.706C887.2555,-146.4469 882.5423,-145.1969 878,-144 817.7381,-128.1205 747.5797,-110.086 705.8083,-99.3963"/>
<polygon fill="#c0c0c0" stroke="#c0c0c0" stroke-width="2" points="706.6317,-95.9943 696.0763,-96.9072 704.8972,-102.776 706.6317,-95.9943"/>
</g>
<!-- 41&#45;&gt;0 -->
<g id="edge3" class="edge">
<title>41&#45;&gt;0</title>
<path fill="none" stroke="#c0c0c0" stroke-width="2" d="M979.8491,-215.928C990.2942,-206.5042 1001.426,-194.02 1007,-180 1012.9112,-165.132 1013.5353,-158.6045 1007,-144 985.6436,-96.2744 936.2855,-59.1636 902.0337,-37.9323"/>
<polygon fill="#c0c0c0" stroke="#c0c0c0" stroke-width="2" points="903.6136,-34.7977 893.244,-32.6247 899.9951,-40.79 903.6136,-34.7977"/>
</g>
<!-- 41&#45;&gt;40 -->
<g id="edge64" class="edge">
<title>41&#45;&gt;40</title>
<path fill="none" stroke="#c0c0c0" stroke-width="2" d="M953.2242,-215.8314C952.0478,-208.131 950.6489,-198.9743 949.3414,-190.4166"/>
<polygon fill="#c0c0c0" stroke="#c0c0c0" stroke-width="2" points="952.7833,-189.7699 947.8131,-180.4133 945.8636,-190.8272 952.7833,-189.7699"/>
</g>
<!-- 42 -->
<g id="node43" class="node">
<title>42</title>
<path fill="none" stroke="#d8ac56" stroke-width="2" d="M256,-180C256,-180 174,-180 174,-180 168,-180 162,-174 162,-168 162,-168 162,-156 162,-156 162,-150 168,-144 174,-144 174,-144 256,-144 256,-144 262,-144 268,-150 268,-156 268,-156 268,-168 268,-168 268,-174 262,-180 256,-180"/>
<text text-anchor="middle" x="215" y="-165" font-family="sans" font-size="10.00" fill="#000000">fastqc</text>
<text text-anchor="middle" x="215" y="-154" font-family="sans" font-size="10.00" fill="#000000">tool: low_complexity</text>
</g>
<!-- 42&#45;&gt;1 -->
<g id="edge22" class="edge">
<title>42&#45;&gt;1</title>
<path fill="none" stroke="#c0c0c0" stroke-width="2" d="M268.3091,-145.9885C271.2388,-145.2758 274.1497,-144.6067 277,-144 405.7828,-116.588 561.4547,-99.9536 631.5684,-93.3237"/>
<polygon fill="#c0c0c0" stroke="#c0c0c0" stroke-width="2" points="632.0426,-96.7948 641.6746,-92.3817 631.3928,-89.825 632.0426,-96.7948"/>
</g>
<!-- 43&#45;&gt;0 -->
<g id="edge4" class="edge">
<title>43&#45;&gt;0</title>
<path fill="none" stroke="#c0c0c0" stroke-width="2" d="M172.6927,-226.5274C114.2069,-214.4208 19.8352,-187.4012 57,-144 108.1818,-84.2297 676.1106,-33.5874 828.538,-21.0018"/>
<polygon fill="#c0c0c0" stroke="#c0c0c0" stroke-width="2" points="829.1015,-24.4674 838.7819,-20.1618 828.5293,-17.4908 829.1015,-24.4674"/>
</g>
<!-- 43&#45;&gt;42 -->
<g id="edge66" class="edge">
<title>43&#45;&gt;42</title>
<path fill="none" stroke="#c0c0c0" stroke-width="2" d="M215,-215.8314C215,-208.131 215,-198.9743 215,-190.4166"/>
<polygon fill="#c0c0c0" stroke="#c0c0c0" stroke-width="2" points="218.5001,-190.4132 215,-180.4133 211.5001,-190.4133 218.5001,-190.4132"/>
</g>
</g>
</svg>
