<?xml version="1.0" encoding="UTF-8" standalone="no"?>
<!DOCTYPE svg PUBLIC "-//W3C//DTD SVG 1.1//EN"
 "http://www.w3.org/Graphics/SVG/1.1/DTD/svg11.dtd">
<!-- Generated by graphviz version 2.40.1 (0)
 -->
<!-- Title: snakemake_dag Pages: 1 -->
<svg width="1684pt" height="708pt"
 viewBox="0.00 0.00 1683.62 708.00" xmlns="http://www.w3.org/2000/svg" xmlns:xlink="http://www.w3.org/1999/xlink">
<g id="graph0" class="graph" transform="scale(1 1) rotate(0) translate(4 704)">
<title>snakemake_dag</title>
<polygon fill="#ffffff" stroke="transparent" points="-4,4 -4,-704 1679.6192,-704 1679.6192,4 -4,4"/>
<!-- 0 -->
<g id="node1" class="node">
<title>0</title>
<path fill="none" stroke="#d85656" stroke-width="2" d="M914,-36C914,-36 884,-36 884,-36 878,-36 872,-30 872,-24 872,-24 872,-12 872,-12 872,-6 878,0 884,0 884,0 914,0 914,0 920,0 926,-6 926,-12 926,-12 926,-24 926,-24 926,-30 920,-36 914,-36"/>
<text text-anchor="middle" x="899" y="-15.5" font-family="sans" font-size="10.00" fill="#000000">all</text>
</g>
<!-- 1 -->
<g id="node2" class="node">
<title>1</title>
<path fill="none" stroke="#59d856" stroke-width="2" d="M914,-108C914,-108 884,-108 884,-108 878,-108 872,-102 872,-96 872,-96 872,-84 872,-84 872,-78 878,-72 884,-72 884,-72 914,-72 914,-72 920,-72 926,-78 926,-84 926,-84 926,-96 926,-96 926,-102 920,-108 914,-108"/>
<text text-anchor="middle" x="899" y="-87.5" font-family="sans" font-size="10.00" fill="#000000">multiqc</text>
</g>
<!-- 1&#45;&gt;0 -->
<g id="edge1" class="edge">
<title>1&#45;&gt;0</title>
<path fill="none" stroke="#c0c0c0" stroke-width="2" d="M899,-71.8314C899,-64.131 899,-54.9743 899,-46.4166"/>
<polygon fill="#c0c0c0" stroke="#c0c0c0" stroke-width="2" points="902.5001,-46.4132 899,-36.4133 895.5001,-46.4133 902.5001,-46.4132"/>
</g>
<!-- 2 -->
<g id="node3" class="node">
<title>2</title>
<path fill="none" stroke="#d8ac56" stroke-width="2" d="M796,-324C796,-324 726,-324 726,-324 720,-324 714,-318 714,-312 714,-312 714,-300 714,-300 714,-294 720,-288 726,-288 726,-288 796,-288 796,-288 802,-288 808,-294 808,-300 808,-300 808,-312 808,-312 808,-318 802,-324 796,-324"/>
<text text-anchor="middle" x="761" y="-309" font-family="sans" font-size="10.00" fill="#000000">fastqc</text>
<text text-anchor="middle" x="761" y="-298" font-family="sans" font-size="10.00" fill="#000000">tool: merge_lanes</text>
</g>
<!-- 2&#45;&gt;1 -->
<g id="edge6" class="edge">
<title>2&#45;&gt;1</title>
<path fill="none" stroke="#c0c0c0" stroke-width="2" d="M777.9487,-287.9595C799.3544,-264.4897 836.3598,-221.5583 861,-180 872.7504,-160.1816 882.7304,-136.054 889.5101,-117.7709"/>
<polygon fill="#c0c0c0" stroke="#c0c0c0" stroke-width="2" points="892.833,-118.8737 892.9383,-108.2794 886.2493,-116.4957 892.833,-118.8737"/>
</g>
<!-- 3 -->
<g id="node4" class="node">
<title>3</title>
<path fill="none" stroke="#80d856" stroke-width="2" d="M698,-700C698,-700 594,-700 594,-700 588,-700 582,-694 582,-688 582,-688 582,-660 582,-660 582,-654 588,-648 594,-648 594,-648 698,-648 698,-648 704,-648 710,-654 710,-660 710,-660 710,-688 710,-688 710,-694 704,-700 698,-700"/>
<text text-anchor="middle" x="646" y="-688" font-family="sans" font-size="10.00" fill="#000000">merge_lanes</text>
<text text-anchor="middle" x="646" y="-677" font-family="sans" font-size="10.00" fill="#000000">library: lib1</text>
<text text-anchor="middle" x="646" y="-666" font-family="sans" font-size="10.00" fill="#000000">read_type_trim: collapsed</text>
<text text-anchor="middle" x="646" y="-655" font-family="sans" font-size="10.00" fill="#000000">sample: HD827sonic_1</text>
</g>
<!-- 3&#45;&gt;2 -->
<g id="edge30" class="edge">
<title>3&#45;&gt;2</title>
<path fill="none" stroke="#c0c0c0" stroke-width="2" d="M663.5842,-647.718C670.1267,-637.0016 677.135,-624.2639 682,-612 697.1456,-573.8199 703,-563.0745 703,-522 703,-522 703,-522 703,-450 703,-406.6562 725.8892,-360.9417 742.9093,-332.9402"/>
<polygon fill="#c0c0c0" stroke="#c0c0c0" stroke-width="2" points="746.0719,-334.4847 748.4149,-324.1522 740.1398,-330.7684 746.0719,-334.4847"/>
</g>
<!-- 11 -->
<g id="node12" class="node">
<title>11</title>
<path fill="none" stroke="#56d882" stroke-width="2" d="M500,-612C500,-612 430,-612 430,-612 424,-612 418,-606 418,-600 418,-600 418,-588 418,-588 418,-582 424,-576 430,-576 430,-576 500,-576 500,-576 506,-576 512,-582 512,-588 512,-588 512,-600 512,-600 512,-606 506,-612 500,-612"/>
<text text-anchor="middle" x="465" y="-597" font-family="sans" font-size="10.00" fill="#000000">nonpareil_infer</text>
<text text-anchor="middle" x="465" y="-586" font-family="sans" font-size="10.00" fill="#000000">tool: merge_lanes</text>
</g>
<!-- 3&#45;&gt;11 -->
<g id="edge35" class="edge">
<title>3&#45;&gt;11</title>
<path fill="none" stroke="#c0c0c0" stroke-width="2" d="M586.7338,-647.805C563.5492,-637.5577 537.2474,-625.9325 515.0389,-616.1167"/>
<polygon fill="#c0c0c0" stroke="#c0c0c0" stroke-width="2" points="516.3541,-612.8713 505.7927,-612.0299 513.5242,-619.2739 516.3541,-612.8713"/>
</g>
<!-- 25 -->
<g id="node26" class="node">
<title>25</title>
<path fill="none" stroke="#d88556" stroke-width="2" d="M620.5,-540C620.5,-540 561.5,-540 561.5,-540 555.5,-540 549.5,-534 549.5,-528 549.5,-528 549.5,-516 549.5,-516 549.5,-510 555.5,-504 561.5,-504 561.5,-504 620.5,-504 620.5,-504 626.5,-504 632.5,-510 632.5,-516 632.5,-516 632.5,-528 632.5,-528 632.5,-534 626.5,-540 620.5,-540"/>
<text text-anchor="middle" x="591" y="-519.5" font-family="sans" font-size="10.00" fill="#000000">extend_tadpole</text>
</g>
<!-- 3&#45;&gt;25 -->
<g id="edge51" class="edge">
<title>3&#45;&gt;25</title>
<path fill="none" stroke="#c0c0c0" stroke-width="2" d="M628.2818,-647.7703C621.7208,-637.0611 614.7349,-624.3148 610,-612 602.2869,-591.9391 597.4324,-568.0964 594.5626,-549.9928"/>
<polygon fill="#c0c0c0" stroke="#c0c0c0" stroke-width="2" points="598.0204,-549.4495 593.0956,-540.0689 591.0956,-550.4732 598.0204,-549.4495"/>
</g>
<!-- 26 -->
<g id="node27" class="node">
<title>26</title>
<path fill="none" stroke="#d6d856" stroke-width="2" d="M661,-612C661,-612 631,-612 631,-612 625,-612 619,-606 619,-600 619,-600 619,-588 619,-588 619,-582 625,-576 631,-576 631,-576 661,-576 661,-576 667,-576 673,-582 673,-588 673,-588 673,-600 673,-600 673,-606 667,-612 661,-612"/>
<text text-anchor="middle" x="646" y="-591.5" font-family="sans" font-size="10.00" fill="#000000">loglog</text>
</g>
<!-- 3&#45;&gt;26 -->
<g id="edge53" class="edge">
<title>3&#45;&gt;26</title>
<path fill="none" stroke="#c0c0c0" stroke-width="2" d="M646,-647.805C646,-639.6026 646,-630.5174 646,-622.1839"/>
<polygon fill="#c0c0c0" stroke="#c0c0c0" stroke-width="2" points="649.5001,-622.1532 646,-612.1532 642.5001,-622.1533 649.5001,-622.1532"/>
</g>
<!-- 48 -->
<g id="node49" class="node">
<title>48</title>
<path fill="none" stroke="#56a9d8" stroke-width="2" d="M668.5,-324C668.5,-324 625.5,-324 625.5,-324 619.5,-324 613.5,-318 613.5,-312 613.5,-312 613.5,-300 613.5,-300 613.5,-294 619.5,-288 625.5,-288 625.5,-288 668.5,-288 668.5,-288 674.5,-288 680.5,-294 680.5,-300 680.5,-300 680.5,-312 680.5,-312 680.5,-318 674.5,-324 668.5,-324"/>
<text text-anchor="middle" x="647" y="-303.5" font-family="sans" font-size="10.00" fill="#000000">seqkit_grep</text>
</g>
<!-- 3&#45;&gt;48 -->
<g id="edge79" class="edge">
<title>3&#45;&gt;48</title>
<path fill="none" stroke="#c0c0c0" stroke-width="2" d="M684.067,-647.8599C696.1339,-637.8919 708.5249,-625.615 717,-612 738.877,-576.855 741,-563.3978 741,-522 741,-522 741,-522 741,-450 741,-401.9707 703.8785,-357.4394 676.2912,-330.9769"/>
<polygon fill="#c0c0c0" stroke="#c0c0c0" stroke-width="2" points="678.5058,-328.2567 668.8018,-324.0044 673.736,-333.3801 678.5058,-328.2567"/>
</g>
<!-- 4 -->
<g id="node5" class="node">
<title>4</title>
<path fill="none" stroke="#d8ac56" stroke-width="2" d="M916,-324C916,-324 846,-324 846,-324 840,-324 834,-318 834,-312 834,-312 834,-300 834,-300 834,-294 840,-288 846,-288 846,-288 916,-288 916,-288 922,-288 928,-294 928,-300 928,-300 928,-312 928,-312 928,-318 922,-324 916,-324"/>
<text text-anchor="middle" x="881" y="-309" font-family="sans" font-size="10.00" fill="#000000">fastqc</text>
<text text-anchor="middle" x="881" y="-298" font-family="sans" font-size="10.00" fill="#000000">tool: merge_lanes</text>
</g>
<!-- 4&#45;&gt;1 -->
<g id="edge7" class="edge">
<title>4&#45;&gt;1</title>
<path fill="none" stroke="#c0c0c0" stroke-width="2" d="M886.4008,-287.683C889.2077,-277.3114 892.3822,-264.0418 894,-252 900.2611,-205.3968 900.4786,-150.6062 899.8748,-118.1753"/>
<polygon fill="#c0c0c0" stroke="#c0c0c0" stroke-width="2" points="903.3717,-117.9965 899.6461,-108.0783 896.3735,-118.1551 903.3717,-117.9965"/>
</g>
<!-- 5 -->
<g id="node6" class="node">
<title>5</title>
<path fill="none" stroke="#80d856" stroke-width="2" d="M1083,-700C1083,-700 979,-700 979,-700 973,-700 967,-694 967,-688 967,-688 967,-660 967,-660 967,-654 973,-648 979,-648 979,-648 1083,-648 1083,-648 1089,-648 1095,-654 1095,-660 1095,-660 1095,-688 1095,-688 1095,-694 1089,-700 1083,-700"/>
<text text-anchor="middle" x="1031" y="-688" font-family="sans" font-size="10.00" fill="#000000">merge_lanes</text>
<text text-anchor="middle" x="1031" y="-677" font-family="sans" font-size="10.00" fill="#000000">library: lib1</text>
<text text-anchor="middle" x="1031" y="-666" font-family="sans" font-size="10.00" fill="#000000">read_type_trim: collapsed</text>
<text text-anchor="middle" x="1031" y="-655" font-family="sans" font-size="10.00" fill="#000000">sample: HD827sonic_2</text>
</g>
<!-- 5&#45;&gt;4 -->
<g id="edge31" class="edge">
<title>5&#45;&gt;4</title>
<path fill="none" stroke="#c0c0c0" stroke-width="2" d="M966.821,-657.0457C942.5475,-647.5608 916.763,-633.2282 900,-612 874.6643,-579.9156 881,-562.8816 881,-522 881,-522 881,-522 881,-450 881,-409.876 881,-363.4631 881,-334.4177"/>
<polygon fill="#c0c0c0" stroke="#c0c0c0" stroke-width="2" points="884.5001,-334.1853 881,-324.1854 877.5001,-334.1854 884.5001,-334.1853"/>
</g>
<!-- 13 -->
<g id="node14" class="node">
<title>13</title>
<path fill="none" stroke="#56d882" stroke-width="2" d="M991,-612C991,-612 921,-612 921,-612 915,-612 909,-606 909,-600 909,-600 909,-588 909,-588 909,-582 915,-576 921,-576 921,-576 991,-576 991,-576 997,-576 1003,-582 1003,-588 1003,-588 1003,-600 1003,-600 1003,-606 997,-612 991,-612"/>
<text text-anchor="middle" x="956" y="-597" font-family="sans" font-size="10.00" fill="#000000">nonpareil_infer</text>
<text text-anchor="middle" x="956" y="-586" font-family="sans" font-size="10.00" fill="#000000">tool: merge_lanes</text>
</g>
<!-- 5&#45;&gt;13 -->
<g id="edge37" class="edge">
<title>5&#45;&gt;13</title>
<path fill="none" stroke="#c0c0c0" stroke-width="2" d="M1006.4422,-647.805C997.9834,-638.7823 988.5233,-628.6915 980.1013,-619.7081"/>
<polygon fill="#c0c0c0" stroke="#c0c0c0" stroke-width="2" points="982.4115,-617.0548 973.0187,-612.1532 977.3047,-621.8424 982.4115,-617.0548"/>
</g>
<!-- 19 -->
<g id="node20" class="node">
<title>19</title>
<path fill="none" stroke="#d88556" stroke-width="2" d="M1097.5,-540C1097.5,-540 1038.5,-540 1038.5,-540 1032.5,-540 1026.5,-534 1026.5,-528 1026.5,-528 1026.5,-516 1026.5,-516 1026.5,-510 1032.5,-504 1038.5,-504 1038.5,-504 1097.5,-504 1097.5,-504 1103.5,-504 1109.5,-510 1109.5,-516 1109.5,-516 1109.5,-528 1109.5,-528 1109.5,-534 1103.5,-540 1097.5,-540"/>
<text text-anchor="middle" x="1068" y="-519.5" font-family="sans" font-size="10.00" fill="#000000">extend_tadpole</text>
</g>
<!-- 5&#45;&gt;19 -->
<g id="edge43" class="edge">
<title>5&#45;&gt;19</title>
<path fill="none" stroke="#c0c0c0" stroke-width="2" d="M1035.1609,-647.5855C1038.5183,-627.7408 1043.7096,-599.9713 1050,-576 1052.2469,-567.4377 1055.1252,-558.2557 1057.918,-549.9362"/>
<polygon fill="#c0c0c0" stroke="#c0c0c0" stroke-width="2" points="1061.2843,-550.9102 1061.234,-540.3155 1054.6664,-548.6292 1061.2843,-550.9102"/>
</g>
<!-- 20 -->
<g id="node21" class="node">
<title>20</title>
<path fill="none" stroke="#d6d856" stroke-width="2" d="M1101,-612C1101,-612 1071,-612 1071,-612 1065,-612 1059,-606 1059,-600 1059,-600 1059,-588 1059,-588 1059,-582 1065,-576 1071,-576 1071,-576 1101,-576 1101,-576 1107,-576 1113,-582 1113,-588 1113,-588 1113,-600 1113,-600 1113,-606 1107,-612 1101,-612"/>
<text text-anchor="middle" x="1086" y="-591.5" font-family="sans" font-size="10.00" fill="#000000">loglog</text>
</g>
<!-- 5&#45;&gt;20 -->
<g id="edge45" class="edge">
<title>5&#45;&gt;20</title>
<path fill="none" stroke="#c0c0c0" stroke-width="2" d="M1049.0091,-647.805C1055.0242,-639.0557 1061.7298,-629.3021 1067.7622,-620.5277"/>
<polygon fill="#c0c0c0" stroke="#c0c0c0" stroke-width="2" points="1070.7385,-622.3765 1073.5196,-612.1532 1064.9702,-618.4108 1070.7385,-622.3765"/>
</g>
<!-- 45 -->
<g id="node46" class="node">
<title>45</title>
<path fill="none" stroke="#56a9d8" stroke-width="2" d="M1183.5,-324C1183.5,-324 1140.5,-324 1140.5,-324 1134.5,-324 1128.5,-318 1128.5,-312 1128.5,-312 1128.5,-300 1128.5,-300 1128.5,-294 1134.5,-288 1140.5,-288 1140.5,-288 1183.5,-288 1183.5,-288 1189.5,-288 1195.5,-294 1195.5,-300 1195.5,-300 1195.5,-312 1195.5,-312 1195.5,-318 1189.5,-324 1183.5,-324"/>
<text text-anchor="middle" x="1162" y="-303.5" font-family="sans" font-size="10.00" fill="#000000">seqkit_grep</text>
</g>
<!-- 5&#45;&gt;45 -->
<g id="edge75" class="edge">
<title>5&#45;&gt;45</title>
<path fill="none" stroke="#c0c0c0" stroke-width="2" d="M1085.7283,-647.8951C1129.9923,-622.5434 1185,-579.4758 1185,-522 1185,-522 1185,-522 1185,-450 1185,-409.1884 1175.88,-362.6758 1169.1257,-333.8247"/>
<polygon fill="#c0c0c0" stroke="#c0c0c0" stroke-width="2" points="1172.5124,-332.9385 1166.7656,-324.0377 1165.7075,-334.5796 1172.5124,-332.9385"/>
</g>
<!-- 6 -->
<g id="node7" class="node">
<title>6</title>
<path fill="none" stroke="#d8ac56" stroke-width="2" d="M373,-540C373,-540 303,-540 303,-540 297,-540 291,-534 291,-528 291,-528 291,-516 291,-516 291,-510 297,-504 303,-504 303,-504 373,-504 373,-504 379,-504 385,-510 385,-516 385,-516 385,-528 385,-528 385,-534 379,-540 373,-540"/>
<text text-anchor="middle" x="338" y="-525" font-family="sans" font-size="10.00" fill="#000000">fastqc</text>
<text text-anchor="middle" x="338" y="-514" font-family="sans" font-size="10.00" fill="#000000">tool: merge_lanes</text>
</g>
<!-- 6&#45;&gt;1 -->
<g id="edge8" class="edge">
<title>6&#45;&gt;1</title>
<path fill="none" stroke="#c0c0c0" stroke-width="2" d="M339.6576,-503.8326C342.0009,-476.5392 346,-423.3198 346,-378 346,-378 346,-378 346,-234 346,-193.1184 334.5841,-171.3163 365,-144 401.8913,-110.8681 746.6072,-95.5002 861.7528,-91.2612"/>
<polygon fill="#c0c0c0" stroke="#c0c0c0" stroke-width="2" points="861.9822,-94.7553 871.8493,-90.8965 861.7294,-87.7599 861.9822,-94.7553"/>
</g>
<!-- 7 -->
<g id="node8" class="node">
<title>7</title>
<path fill="none" stroke="#80d856" stroke-width="2" d="M223,-700C223,-700 119,-700 119,-700 113,-700 107,-694 107,-688 107,-688 107,-660 107,-660 107,-654 113,-648 119,-648 119,-648 223,-648 223,-648 229,-648 235,-654 235,-660 235,-660 235,-688 235,-688 235,-694 229,-700 223,-700"/>
<text text-anchor="middle" x="171" y="-688" font-family="sans" font-size="10.00" fill="#000000">merge_lanes</text>
<text text-anchor="middle" x="171" y="-677" font-family="sans" font-size="10.00" fill="#000000">library: lib2</text>
<text text-anchor="middle" x="171" y="-666" font-family="sans" font-size="10.00" fill="#000000">read_type_trim: collapsed</text>
<text text-anchor="middle" x="171" y="-655" font-family="sans" font-size="10.00" fill="#000000">sample: HD827sonic_2</text>
</g>
<!-- 7&#45;&gt;6 -->
<g id="edge32" class="edge">
<title>7&#45;&gt;6</title>
<path fill="none" stroke="#c0c0c0" stroke-width="2" d="M235.0135,-661.5704C264.6863,-652.6101 297.9596,-637.4376 319,-612 333.1701,-594.8685 337.5473,-569.7531 338.592,-550.404"/>
<polygon fill="#c0c0c0" stroke="#c0c0c0" stroke-width="2" points="342.0926,-550.428 338.8707,-540.335 335.0953,-550.2344 342.0926,-550.428"/>
</g>
<!-- 15 -->
<g id="node16" class="node">
<title>15</title>
<path fill="none" stroke="#56d882" stroke-width="2" d="M298,-612C298,-612 228,-612 228,-612 222,-612 216,-606 216,-600 216,-600 216,-588 216,-588 216,-582 222,-576 228,-576 228,-576 298,-576 298,-576 304,-576 310,-582 310,-588 310,-588 310,-600 310,-600 310,-606 304,-612 298,-612"/>
<text text-anchor="middle" x="263" y="-597" font-family="sans" font-size="10.00" fill="#000000">nonpareil_infer</text>
<text text-anchor="middle" x="263" y="-586" font-family="sans" font-size="10.00" fill="#000000">tool: merge_lanes</text>
</g>
<!-- 7&#45;&gt;15 -->
<g id="edge39" class="edge">
<title>7&#45;&gt;15</title>
<path fill="none" stroke="#c0c0c0" stroke-width="2" d="M201.1242,-647.805C211.8147,-638.5089 223.8092,-628.079 234.3713,-618.8945"/>
<polygon fill="#c0c0c0" stroke="#c0c0c0" stroke-width="2" points="236.8743,-621.3562 242.1238,-612.1532 232.2811,-616.0739 236.8743,-621.3562"/>
</g>
<!-- 22 -->
<g id="node23" class="node">
<title>22</title>
<path fill="none" stroke="#d88556" stroke-width="2" d="M189.5,-540C189.5,-540 130.5,-540 130.5,-540 124.5,-540 118.5,-534 118.5,-528 118.5,-528 118.5,-516 118.5,-516 118.5,-510 124.5,-504 130.5,-504 130.5,-504 189.5,-504 189.5,-504 195.5,-504 201.5,-510 201.5,-516 201.5,-516 201.5,-528 201.5,-528 201.5,-534 195.5,-540 189.5,-540"/>
<text text-anchor="middle" x="160" y="-519.5" font-family="sans" font-size="10.00" fill="#000000">extend_tadpole</text>
</g>
<!-- 7&#45;&gt;22 -->
<g id="edge47" class="edge">
<title>7&#45;&gt;22</title>
<path fill="none" stroke="#c0c0c0" stroke-width="2" d="M151.7474,-647.9062C145.0649,-637.3174 138.3981,-624.6197 135,-612 130.8398,-596.5503 131.5585,-591.6255 135,-576 136.9805,-567.0081 140.6121,-557.7321 144.5051,-549.4596"/>
<polygon fill="#c0c0c0" stroke="#c0c0c0" stroke-width="2" points="147.7516,-550.7939 149.112,-540.2867 141.4962,-547.6522 147.7516,-550.7939"/>
</g>
<!-- 23 -->
<g id="node24" class="node">
<title>23</title>
<path fill="none" stroke="#d6d856" stroke-width="2" d="M186,-612C186,-612 156,-612 156,-612 150,-612 144,-606 144,-600 144,-600 144,-588 144,-588 144,-582 150,-576 156,-576 156,-576 186,-576 186,-576 192,-576 198,-582 198,-588 198,-588 198,-600 198,-600 198,-606 192,-612 186,-612"/>
<text text-anchor="middle" x="171" y="-591.5" font-family="sans" font-size="10.00" fill="#000000">loglog</text>
</g>
<!-- 7&#45;&gt;23 -->
<g id="edge49" class="edge">
<title>7&#45;&gt;23</title>
<path fill="none" stroke="#c0c0c0" stroke-width="2" d="M171,-647.805C171,-639.6026 171,-630.5174 171,-622.1839"/>
<polygon fill="#c0c0c0" stroke="#c0c0c0" stroke-width="2" points="174.5001,-622.1532 171,-612.1532 167.5001,-622.1533 174.5001,-622.1532"/>
</g>
<!-- 42 -->
<g id="node43" class="node">
<title>42</title>
<path fill="none" stroke="#56a9d8" stroke-width="2" d="M75.5,-324C75.5,-324 32.5,-324 32.5,-324 26.5,-324 20.5,-318 20.5,-312 20.5,-312 20.5,-300 20.5,-300 20.5,-294 26.5,-288 32.5,-288 32.5,-288 75.5,-288 75.5,-288 81.5,-288 87.5,-294 87.5,-300 87.5,-300 87.5,-312 87.5,-312 87.5,-318 81.5,-324 75.5,-324"/>
<text text-anchor="middle" x="54" y="-303.5" font-family="sans" font-size="10.00" fill="#000000">seqkit_grep</text>
</g>
<!-- 7&#45;&gt;42 -->
<g id="edge71" class="edge">
<title>7&#45;&gt;42</title>
<path fill="none" stroke="#c0c0c0" stroke-width="2" d="M116.6271,-647.8034C72.6505,-622.3915 18,-579.287 18,-522 18,-522 18,-522 18,-450 18,-408.5072 32.2416,-362.2433 42.8098,-333.6245"/>
<polygon fill="#c0c0c0" stroke="#c0c0c0" stroke-width="2" points="46.0824,-334.8654 46.3653,-324.2743 39.5395,-332.3773 46.0824,-334.8654"/>
</g>
<!-- 8 -->
<g id="node9" class="node">
<title>8</title>
<path fill="none" stroke="#d8ac56" stroke-width="2" d="M1327,-540C1327,-540 1257,-540 1257,-540 1251,-540 1245,-534 1245,-528 1245,-528 1245,-516 1245,-516 1245,-510 1251,-504 1257,-504 1257,-504 1327,-504 1327,-504 1333,-504 1339,-510 1339,-516 1339,-516 1339,-528 1339,-528 1339,-534 1333,-540 1327,-540"/>
<text text-anchor="middle" x="1292" y="-525" font-family="sans" font-size="10.00" fill="#000000">fastqc</text>
<text text-anchor="middle" x="1292" y="-514" font-family="sans" font-size="10.00" fill="#000000">tool: merge_lanes</text>
</g>
<!-- 8&#45;&gt;1 -->
<g id="edge9" class="edge">
<title>8&#45;&gt;1</title>
<path fill="none" stroke="#c0c0c0" stroke-width="2" d="M1292,-503.8146C1292,-476.4983 1292,-423.25 1292,-378 1292,-378 1292,-378 1292,-234 1292,-180.776 1259.4418,-169.9991 1213,-144 1165.9618,-117.667 1008.5247,-100.129 936.0686,-93.2586"/>
<polygon fill="#c0c0c0" stroke="#c0c0c0" stroke-width="2" points="936.2997,-89.7651 926.0182,-92.3226 935.6505,-96.7349 936.2997,-89.7651"/>
</g>
<!-- 9 -->
<g id="node10" class="node">
<title>9</title>
<path fill="none" stroke="#80d856" stroke-width="2" d="M1494,-700C1494,-700 1390,-700 1390,-700 1384,-700 1378,-694 1378,-688 1378,-688 1378,-660 1378,-660 1378,-654 1384,-648 1390,-648 1390,-648 1494,-648 1494,-648 1500,-648 1506,-654 1506,-660 1506,-660 1506,-688 1506,-688 1506,-694 1500,-700 1494,-700"/>
<text text-anchor="middle" x="1442" y="-688" font-family="sans" font-size="10.00" fill="#000000">merge_lanes</text>
<text text-anchor="middle" x="1442" y="-677" font-family="sans" font-size="10.00" fill="#000000">library: lib3</text>
<text text-anchor="middle" x="1442" y="-666" font-family="sans" font-size="10.00" fill="#000000">read_type_trim: collapsed</text>
<text text-anchor="middle" x="1442" y="-655" font-family="sans" font-size="10.00" fill="#000000">sample: HD827sonic_2</text>
</g>
<!-- 9&#45;&gt;8 -->
<g id="edge33" class="edge">
<title>9&#45;&gt;8</title>
<path fill="none" stroke="#c0c0c0" stroke-width="2" d="M1377.821,-657.0457C1353.5475,-647.5608 1327.763,-633.2282 1311,-612 1297.2218,-594.5518 1292.8103,-569.4641 1291.6526,-550.2062"/>
<polygon fill="#c0c0c0" stroke="#c0c0c0" stroke-width="2" points="1295.15,-550.0654 1291.3054,-540.1927 1288.1542,-550.308 1295.15,-550.0654"/>
</g>
<!-- 17 -->
<g id="node18" class="node">
<title>17</title>
<path fill="none" stroke="#56d882" stroke-width="2" d="M1402,-612C1402,-612 1332,-612 1332,-612 1326,-612 1320,-606 1320,-600 1320,-600 1320,-588 1320,-588 1320,-582 1326,-576 1332,-576 1332,-576 1402,-576 1402,-576 1408,-576 1414,-582 1414,-588 1414,-588 1414,-600 1414,-600 1414,-606 1408,-612 1402,-612"/>
<text text-anchor="middle" x="1367" y="-597" font-family="sans" font-size="10.00" fill="#000000">nonpareil_infer</text>
<text text-anchor="middle" x="1367" y="-586" font-family="sans" font-size="10.00" fill="#000000">tool: merge_lanes</text>
</g>
<!-- 9&#45;&gt;17 -->
<g id="edge41" class="edge">
<title>9&#45;&gt;17</title>
<path fill="none" stroke="#c0c0c0" stroke-width="2" d="M1417.4422,-647.805C1408.9834,-638.7823 1399.5233,-628.6915 1391.1013,-619.7081"/>
<polygon fill="#c0c0c0" stroke="#c0c0c0" stroke-width="2" points="1393.4115,-617.0548 1384.0187,-612.1532 1388.3047,-621.8424 1393.4115,-617.0548"/>
</g>
<!-- 28 -->
<g id="node29" class="node">
<title>28</title>
<path fill="none" stroke="#d88556" stroke-width="2" d="M1494.5,-540C1494.5,-540 1435.5,-540 1435.5,-540 1429.5,-540 1423.5,-534 1423.5,-528 1423.5,-528 1423.5,-516 1423.5,-516 1423.5,-510 1429.5,-504 1435.5,-504 1435.5,-504 1494.5,-504 1494.5,-504 1500.5,-504 1506.5,-510 1506.5,-516 1506.5,-516 1506.5,-528 1506.5,-528 1506.5,-534 1500.5,-540 1494.5,-540"/>
<text text-anchor="middle" x="1465" y="-519.5" font-family="sans" font-size="10.00" fill="#000000">extend_tadpole</text>
</g>
<!-- 9&#45;&gt;28 -->
<g id="edge55" class="edge">
<title>9&#45;&gt;28</title>
<path fill="none" stroke="#c0c0c0" stroke-width="2" d="M1445.9538,-647.8703C1450.0766,-620.6241 1456.5161,-578.0678 1460.7469,-550.1075"/>
<polygon fill="#c0c0c0" stroke="#c0c0c0" stroke-width="2" points="1464.2152,-550.5796 1462.2508,-540.1685 1457.294,-549.5322 1464.2152,-550.5796"/>
</g>
<!-- 29 -->
<g id="node30" class="node">
<title>29</title>
<path fill="none" stroke="#d6d856" stroke-width="2" d="M1512,-612C1512,-612 1482,-612 1482,-612 1476,-612 1470,-606 1470,-600 1470,-600 1470,-588 1470,-588 1470,-582 1476,-576 1482,-576 1482,-576 1512,-576 1512,-576 1518,-576 1524,-582 1524,-588 1524,-588 1524,-600 1524,-600 1524,-606 1518,-612 1512,-612"/>
<text text-anchor="middle" x="1497" y="-591.5" font-family="sans" font-size="10.00" fill="#000000">loglog</text>
</g>
<!-- 9&#45;&gt;29 -->
<g id="edge57" class="edge">
<title>9&#45;&gt;29</title>
<path fill="none" stroke="#c0c0c0" stroke-width="2" d="M1460.0091,-647.805C1466.0242,-639.0557 1472.7298,-629.3021 1478.7622,-620.5277"/>
<polygon fill="#c0c0c0" stroke="#c0c0c0" stroke-width="2" points="1481.7385,-622.3765 1484.5196,-612.1532 1475.9702,-618.4108 1481.7385,-622.3765"/>
</g>
<!-- 39 -->
<g id="node40" class="node">
<title>39</title>
<path fill="none" stroke="#56a9d8" stroke-width="2" d="M1601.5,-324C1601.5,-324 1558.5,-324 1558.5,-324 1552.5,-324 1546.5,-318 1546.5,-312 1546.5,-312 1546.5,-300 1546.5,-300 1546.5,-294 1552.5,-288 1558.5,-288 1558.5,-288 1601.5,-288 1601.5,-288 1607.5,-288 1613.5,-294 1613.5,-300 1613.5,-300 1613.5,-312 1613.5,-312 1613.5,-318 1607.5,-324 1601.5,-324"/>
<text text-anchor="middle" x="1580" y="-303.5" font-family="sans" font-size="10.00" fill="#000000">seqkit_grep</text>
</g>
<!-- 9&#45;&gt;39 -->
<g id="edge67" class="edge">
<title>9&#45;&gt;39</title>
<path fill="none" stroke="#c0c0c0" stroke-width="2" d="M1506.0106,-649.8249C1557.0415,-625.9106 1620,-583.8696 1620,-522 1620,-522 1620,-522 1620,-450 1620,-408.2219 1604.176,-362.0316 1592.4336,-333.5067"/>
<polygon fill="#c0c0c0" stroke="#c0c0c0" stroke-width="2" points="1595.6092,-332.0301 1588.483,-324.19 1589.1646,-334.7629 1595.6092,-332.0301"/>
</g>
<!-- 10 -->
<g id="node11" class="node">
<title>10</title>
<path fill="none" stroke="#56d8a9" stroke-width="2" d="M439.5,-180C439.5,-180 386.5,-180 386.5,-180 380.5,-180 374.5,-174 374.5,-168 374.5,-168 374.5,-156 374.5,-156 374.5,-150 380.5,-144 386.5,-144 386.5,-144 439.5,-144 439.5,-144 445.5,-144 451.5,-150 451.5,-156 451.5,-156 451.5,-168 451.5,-168 451.5,-174 445.5,-180 439.5,-180"/>
<text text-anchor="middle" x="413" y="-159.5" font-family="sans" font-size="10.00" fill="#000000">nonpareil_plot</text>
</g>
<!-- 10&#45;&gt;1 -->
<g id="edge10" class="edge">
<title>10&#45;&gt;1</title>
<path fill="none" stroke="#c0c0c0" stroke-width="2" d="M451.5253,-147.9043C456.357,-146.4369 461.2645,-145.0875 466,-144 609.9128,-110.9505 785.692,-96.9236 861.3856,-92.1113"/>
<polygon fill="#c0c0c0" stroke="#c0c0c0" stroke-width="2" points="862.0466,-95.5772 871.8116,-91.467 861.6147,-88.5906 862.0466,-95.5772"/>
</g>
<!-- 11&#45;&gt;10 -->
<g id="edge34" class="edge">
<title>11&#45;&gt;10</title>
<path fill="none" stroke="#c0c0c0" stroke-width="2" d="M453.7168,-575.6673C438.4232,-549.0239 413,-497.5783 413,-450 413,-450 413,-450 413,-306 413,-265.876 413,-219.4631 413,-190.4177"/>
<polygon fill="#c0c0c0" stroke="#c0c0c0" stroke-width="2" points="416.5001,-190.1853 413,-180.1854 409.5001,-190.1854 416.5001,-190.1853"/>
</g>
<!-- 12 -->
<g id="node13" class="node">
<title>12</title>
<path fill="none" stroke="#56d8a9" stroke-width="2" d="M978.5,-540C978.5,-540 925.5,-540 925.5,-540 919.5,-540 913.5,-534 913.5,-528 913.5,-528 913.5,-516 913.5,-516 913.5,-510 919.5,-504 925.5,-504 925.5,-504 978.5,-504 978.5,-504 984.5,-504 990.5,-510 990.5,-516 990.5,-516 990.5,-528 990.5,-528 990.5,-534 984.5,-540 978.5,-540"/>
<text text-anchor="middle" x="952" y="-519.5" font-family="sans" font-size="10.00" fill="#000000">nonpareil_plot</text>
</g>
<!-- 12&#45;&gt;1 -->
<g id="edge11" class="edge">
<title>12&#45;&gt;1</title>
<path fill="none" stroke="#c0c0c0" stroke-width="2" d="M951.4164,-503.7441C950.0261,-464.2776 945.9445,-368.1048 937,-288 929.8079,-223.5891 927.8061,-207.3236 914,-144 912.1433,-135.4841 909.7494,-126.3161 907.4215,-117.9951"/>
<polygon fill="#c0c0c0" stroke="#c0c0c0" stroke-width="2" points="910.7805,-117.0109 904.6554,-108.366 904.0526,-118.9437 910.7805,-117.0109"/>
</g>
<!-- 13&#45;&gt;12 -->
<g id="edge36" class="edge">
<title>13&#45;&gt;12</title>
<path fill="none" stroke="#c0c0c0" stroke-width="2" d="M954.9906,-575.8314C954.5628,-568.131 954.0541,-558.9743 953.5787,-550.4166"/>
<polygon fill="#c0c0c0" stroke="#c0c0c0" stroke-width="2" points="957.0724,-550.2037 953.023,-540.4133 950.0831,-550.592 957.0724,-550.2037"/>
</g>
<!-- 14 -->
<g id="node15" class="node">
<title>14</title>
<path fill="none" stroke="#56d8a9" stroke-width="2" d="M303.5,-468C303.5,-468 250.5,-468 250.5,-468 244.5,-468 238.5,-462 238.5,-456 238.5,-456 238.5,-444 238.5,-444 238.5,-438 244.5,-432 250.5,-432 250.5,-432 303.5,-432 303.5,-432 309.5,-432 315.5,-438 315.5,-444 315.5,-444 315.5,-456 315.5,-456 315.5,-462 309.5,-468 303.5,-468"/>
<text text-anchor="middle" x="277" y="-447.5" font-family="sans" font-size="10.00" fill="#000000">nonpareil_plot</text>
</g>
<!-- 14&#45;&gt;1 -->
<g id="edge12" class="edge">
<title>14&#45;&gt;1</title>
<path fill="none" stroke="#c0c0c0" stroke-width="2" d="M283.5743,-431.6321C292.6741,-404.5223 308,-352.0309 308,-306 308,-306 308,-306 308,-234 308,-192.6022 300.4059,-170.7506 332,-144 372.3817,-109.809 741.6007,-95.0429 861.5503,-91.121"/>
<polygon fill="#c0c0c0" stroke="#c0c0c0" stroke-width="2" points="861.8311,-94.6138 871.7139,-90.7952 861.6068,-87.6174 861.8311,-94.6138"/>
</g>
<!-- 15&#45;&gt;14 -->
<g id="edge38" class="edge">
<title>15&#45;&gt;14</title>
<path fill="none" stroke="#c0c0c0" stroke-width="2" d="M264.7731,-575.7623C267.161,-551.201 271.4343,-507.2474 274.2434,-478.3541"/>
<polygon fill="#c0c0c0" stroke="#c0c0c0" stroke-width="2" points="277.7571,-478.3814 275.2413,-468.0896 270.79,-477.704 277.7571,-478.3814"/>
</g>
<!-- 16 -->
<g id="node17" class="node">
<title>16</title>
<path fill="none" stroke="#56d8a9" stroke-width="2" d="M1387.5,-468C1387.5,-468 1334.5,-468 1334.5,-468 1328.5,-468 1322.5,-462 1322.5,-456 1322.5,-456 1322.5,-444 1322.5,-444 1322.5,-438 1328.5,-432 1334.5,-432 1334.5,-432 1387.5,-432 1387.5,-432 1393.5,-432 1399.5,-438 1399.5,-444 1399.5,-444 1399.5,-456 1399.5,-456 1399.5,-462 1393.5,-468 1387.5,-468"/>
<text text-anchor="middle" x="1361" y="-447.5" font-family="sans" font-size="10.00" fill="#000000">nonpareil_plot</text>
</g>
<!-- 16&#45;&gt;1 -->
<g id="edge13" class="edge">
<title>16&#45;&gt;1</title>
<path fill="none" stroke="#c0c0c0" stroke-width="2" d="M1354.4257,-431.6321C1345.3259,-404.5223 1330,-352.0309 1330,-306 1330,-306 1330,-306 1330,-234 1330,-192.6022 1337.0944,-171.3298 1306,-144 1278.4241,-119.7628 1031.6244,-99.5621 936.3203,-92.5991"/>
<polygon fill="#c0c0c0" stroke="#c0c0c0" stroke-width="2" points="936.4867,-89.1021 926.2605,-91.8723 935.9822,-96.0839 936.4867,-89.1021"/>
</g>
<!-- 17&#45;&gt;16 -->
<g id="edge40" class="edge">
<title>17&#45;&gt;16</title>
<path fill="none" stroke="#c0c0c0" stroke-width="2" d="M1366.2401,-575.7623C1365.2167,-551.201 1363.3853,-507.2474 1362.1814,-478.3541"/>
<polygon fill="#c0c0c0" stroke="#c0c0c0" stroke-width="2" points="1365.6671,-477.9352 1361.7537,-468.0896 1358.6732,-478.2267 1365.6671,-477.9352"/>
</g>
<!-- 18 -->
<g id="node19" class="node">
<title>18</title>
<path fill="none" stroke="#d8ac56" stroke-width="2" d="M1145,-468C1145,-468 1067,-468 1067,-468 1061,-468 1055,-462 1055,-456 1055,-456 1055,-444 1055,-444 1055,-438 1061,-432 1067,-432 1067,-432 1145,-432 1145,-432 1151,-432 1157,-438 1157,-444 1157,-444 1157,-456 1157,-456 1157,-462 1151,-468 1145,-468"/>
<text text-anchor="middle" x="1106" y="-453" font-family="sans" font-size="10.00" fill="#000000">fastqc</text>
<text text-anchor="middle" x="1106" y="-442" font-family="sans" font-size="10.00" fill="#000000">tool: extend/tadpole</text>
</g>
<!-- 18&#45;&gt;1 -->
<g id="edge14" class="edge">
<title>18&#45;&gt;1</title>
<path fill="none" stroke="#c0c0c0" stroke-width="2" d="M1115.9133,-431.8485C1124.6081,-413.512 1134.7482,-384.4743 1127,-360 1109.285,-304.0436 1082.008,-301.8341 1051,-252 1022.1041,-205.5604 1030.1682,-183.1765 992,-144 975.9503,-127.5263 953.8123,-114.403 935.1618,-105.2202"/>
<polygon fill="#c0c0c0" stroke="#c0c0c0" stroke-width="2" points="936.5893,-102.0237 926.0536,-100.9062 933.5929,-108.3499 936.5893,-102.0237"/>
</g>
<!-- 19&#45;&gt;18 -->
<g id="edge42" class="edge">
<title>19&#45;&gt;18</title>
<path fill="none" stroke="#c0c0c0" stroke-width="2" d="M1077.589,-503.8314C1081.8317,-495.7925 1086.9121,-486.1666 1091.596,-477.2918"/>
<polygon fill="#c0c0c0" stroke="#c0c0c0" stroke-width="2" points="1094.7096,-478.8908 1096.2819,-468.4133 1088.5189,-475.6235 1094.7096,-478.8908"/>
</g>
<!-- 35 -->
<g id="node36" class="node">
<title>35</title>
<path fill="none" stroke="#5682d8" stroke-width="2" d="M1025,-468C1025,-468 995,-468 995,-468 989,-468 983,-462 983,-456 983,-456 983,-444 983,-444 983,-438 989,-432 995,-432 995,-432 1025,-432 1025,-432 1031,-432 1037,-438 1037,-444 1037,-444 1037,-456 1037,-456 1037,-462 1031,-468 1025,-468"/>
<text text-anchor="middle" x="1010" y="-447.5" font-family="sans" font-size="10.00" fill="#000000">vsearch</text>
</g>
<!-- 19&#45;&gt;35 -->
<g id="edge63" class="edge">
<title>19&#45;&gt;35</title>
<path fill="none" stroke="#c0c0c0" stroke-width="2" d="M1053.3642,-503.8314C1046.6839,-495.5386 1038.6432,-485.557 1031.3096,-476.4533"/>
<polygon fill="#c0c0c0" stroke="#c0c0c0" stroke-width="2" points="1033.8319,-474.0052 1024.8329,-468.4133 1028.3806,-478.3965 1033.8319,-474.0052"/>
</g>
<!-- 20&#45;&gt;19 -->
<g id="edge44" class="edge">
<title>20&#45;&gt;19</title>
<path fill="none" stroke="#c0c0c0" stroke-width="2" d="M1081.4578,-575.8314C1079.5116,-568.0463 1077.1932,-558.7729 1075.0337,-550.1347"/>
<polygon fill="#c0c0c0" stroke="#c0c0c0" stroke-width="2" points="1078.4242,-549.2658 1072.6033,-540.4133 1071.6332,-550.9636 1078.4242,-549.2658"/>
</g>
<!-- 21 -->
<g id="node22" class="node">
<title>21</title>
<path fill="none" stroke="#d8ac56" stroke-width="2" d="M268,-396C268,-396 190,-396 190,-396 184,-396 178,-390 178,-384 178,-384 178,-372 178,-372 178,-366 184,-360 190,-360 190,-360 268,-360 268,-360 274,-360 280,-366 280,-372 280,-372 280,-384 280,-384 280,-390 274,-396 268,-396"/>
<text text-anchor="middle" x="229" y="-381" font-family="sans" font-size="10.00" fill="#000000">fastqc</text>
<text text-anchor="middle" x="229" y="-370" font-family="sans" font-size="10.00" fill="#000000">tool: extend/tadpole</text>
</g>
<!-- 21&#45;&gt;1 -->
<g id="edge15" class="edge">
<title>21&#45;&gt;1</title>
<path fill="none" stroke="#c0c0c0" stroke-width="2" d="M227.7751,-359.7712C225.8738,-314.9539 227.9063,-199.0441 294,-144 337.6495,-107.6479 736.418,-94.2345 861.5904,-90.8985"/>
<polygon fill="#c0c0c0" stroke="#c0c0c0" stroke-width="2" points="861.9168,-94.3913 871.8223,-90.6321 861.7345,-87.3936 861.9168,-94.3913"/>
</g>
<!-- 22&#45;&gt;21 -->
<g id="edge46" class="edge">
<title>22&#45;&gt;21</title>
<path fill="none" stroke="#c0c0c0" stroke-width="2" d="M168.9185,-503.5122C173.9432,-493.0872 180.3303,-479.821 186,-468 196.0467,-447.0532 207.3724,-423.3443 215.8775,-405.5208"/>
<polygon fill="#c0c0c0" stroke="#c0c0c0" stroke-width="2" points="219.1395,-406.8118 220.2864,-396.2792 212.8216,-403.7977 219.1395,-406.8118"/>
</g>
<!-- 33 -->
<g id="node34" class="node">
<title>33</title>
<path fill="none" stroke="#5682d8" stroke-width="2" d="M165,-468C165,-468 135,-468 135,-468 129,-468 123,-462 123,-456 123,-456 123,-444 123,-444 123,-438 129,-432 135,-432 135,-432 165,-432 165,-432 171,-432 177,-438 177,-444 177,-444 177,-456 177,-456 177,-462 171,-468 165,-468"/>
<text text-anchor="middle" x="150" y="-447.5" font-family="sans" font-size="10.00" fill="#000000">vsearch</text>
</g>
<!-- 22&#45;&gt;33 -->
<g id="edge61" class="edge">
<title>22&#45;&gt;33</title>
<path fill="none" stroke="#c0c0c0" stroke-width="2" d="M157.4766,-503.8314C156.4071,-496.131 155.1353,-486.9743 153.9468,-478.4166"/>
<polygon fill="#c0c0c0" stroke="#c0c0c0" stroke-width="2" points="157.3999,-477.8367 152.5574,-468.4133 150.4664,-478.7997 157.3999,-477.8367"/>
</g>
<!-- 23&#45;&gt;22 -->
<g id="edge48" class="edge">
<title>23&#45;&gt;22</title>
<path fill="none" stroke="#c0c0c0" stroke-width="2" d="M168.2242,-575.8314C167.0478,-568.131 165.6489,-558.9743 164.3414,-550.4166"/>
<polygon fill="#c0c0c0" stroke="#c0c0c0" stroke-width="2" points="167.7833,-549.7699 162.8131,-540.4133 160.8636,-550.8272 167.7833,-549.7699"/>
</g>
<!-- 24 -->
<g id="node25" class="node">
<title>24</title>
<path fill="none" stroke="#d8ac56" stroke-width="2" d="M531,-324C531,-324 453,-324 453,-324 447,-324 441,-318 441,-312 441,-312 441,-300 441,-300 441,-294 447,-288 453,-288 453,-288 531,-288 531,-288 537,-288 543,-294 543,-300 543,-300 543,-312 543,-312 543,-318 537,-324 531,-324"/>
<text text-anchor="middle" x="492" y="-309" font-family="sans" font-size="10.00" fill="#000000">fastqc</text>
<text text-anchor="middle" x="492" y="-298" font-family="sans" font-size="10.00" fill="#000000">tool: extend/tadpole</text>
</g>
<!-- 24&#45;&gt;1 -->
<g id="edge16" class="edge">
<title>24&#45;&gt;1</title>
<path fill="none" stroke="#c0c0c0" stroke-width="2" d="M486.1873,-287.9129C476.7678,-254.7137 462.6536,-183.8144 499,-144 523.3096,-117.3709 767.0815,-98.6557 861.7177,-92.3417"/>
<polygon fill="#c0c0c0" stroke="#c0c0c0" stroke-width="2" points="862.225,-95.816 871.9738,-91.6672 861.7656,-88.8311 862.225,-95.816"/>
</g>
<!-- 25&#45;&gt;24 -->
<g id="edge50" class="edge">
<title>25&#45;&gt;24</title>
<path fill="none" stroke="#c0c0c0" stroke-width="2" d="M577.297,-503.6221C570.0926,-493.453 561.4449,-480.3962 555,-468 531.5112,-422.8213 511.6161,-366.8181 500.7821,-333.8882"/>
<polygon fill="#c0c0c0" stroke="#c0c0c0" stroke-width="2" points="504.0055,-332.4819 497.5899,-324.0504 497.3473,-334.6425 504.0055,-332.4819"/>
</g>
<!-- 37 -->
<g id="node38" class="node">
<title>37</title>
<path fill="none" stroke="#5682d8" stroke-width="2" d="M606,-468C606,-468 576,-468 576,-468 570,-468 564,-462 564,-456 564,-456 564,-444 564,-444 564,-438 570,-432 576,-432 576,-432 606,-432 606,-432 612,-432 618,-438 618,-444 618,-444 618,-456 618,-456 618,-462 612,-468 606,-468"/>
<text text-anchor="middle" x="591" y="-447.5" font-family="sans" font-size="10.00" fill="#000000">vsearch</text>
</g>
<!-- 25&#45;&gt;37 -->
<g id="edge65" class="edge">
<title>25&#45;&gt;37</title>
<path fill="none" stroke="#c0c0c0" stroke-width="2" d="M591,-503.8314C591,-496.131 591,-486.9743 591,-478.4166"/>
<polygon fill="#c0c0c0" stroke="#c0c0c0" stroke-width="2" points="594.5001,-478.4132 591,-468.4133 587.5001,-478.4133 594.5001,-478.4132"/>
</g>
<!-- 26&#45;&gt;25 -->
<g id="edge52" class="edge">
<title>26&#45;&gt;25</title>
<path fill="none" stroke="#c0c0c0" stroke-width="2" d="M632.1212,-575.8314C625.7864,-567.5386 618.1616,-557.557 611.2074,-548.4533"/>
<polygon fill="#c0c0c0" stroke="#c0c0c0" stroke-width="2" points="613.9175,-546.2353 605.0657,-540.4133 608.3548,-550.4847 613.9175,-546.2353"/>
</g>
<!-- 27 -->
<g id="node28" class="node">
<title>27</title>
<path fill="none" stroke="#d8ac56" stroke-width="2" d="M1448,-396C1448,-396 1370,-396 1370,-396 1364,-396 1358,-390 1358,-384 1358,-384 1358,-372 1358,-372 1358,-366 1364,-360 1370,-360 1370,-360 1448,-360 1448,-360 1454,-360 1460,-366 1460,-372 1460,-372 1460,-384 1460,-384 1460,-390 1454,-396 1448,-396"/>
<text text-anchor="middle" x="1409" y="-381" font-family="sans" font-size="10.00" fill="#000000">fastqc</text>
<text text-anchor="middle" x="1409" y="-370" font-family="sans" font-size="10.00" fill="#000000">tool: extend/tadpole</text>
</g>
<!-- 27&#45;&gt;1 -->
<g id="edge17" class="edge">
<title>27&#45;&gt;1</title>
<path fill="none" stroke="#c0c0c0" stroke-width="2" d="M1406.559,-359.7816C1399.4835,-309.8563 1377.3252,-172.6616 1344,-144 1313.263,-117.5644 1037.732,-98.3869 936.2805,-92.1665"/>
<polygon fill="#c0c0c0" stroke="#c0c0c0" stroke-width="2" points="936.3755,-88.666 926.1822,-91.5551 935.9523,-95.6532 936.3755,-88.666"/>
</g>
<!-- 28&#45;&gt;27 -->
<g id="edge54" class="edge">
<title>28&#45;&gt;27</title>
<path fill="none" stroke="#c0c0c0" stroke-width="2" d="M1457.9076,-503.7623C1448.2718,-478.9846 1430.9611,-434.4714 1419.731,-405.5939"/>
<polygon fill="#c0c0c0" stroke="#c0c0c0" stroke-width="2" points="1422.9214,-404.1411 1416.0349,-396.0896 1416.3974,-406.6783 1422.9214,-404.1411"/>
</g>
<!-- 31 -->
<g id="node32" class="node">
<title>31</title>
<path fill="none" stroke="#5682d8" stroke-width="2" d="M1503,-468C1503,-468 1473,-468 1473,-468 1467,-468 1461,-462 1461,-456 1461,-456 1461,-444 1461,-444 1461,-438 1467,-432 1473,-432 1473,-432 1503,-432 1503,-432 1509,-432 1515,-438 1515,-444 1515,-444 1515,-456 1515,-456 1515,-462 1509,-468 1503,-468"/>
<text text-anchor="middle" x="1488" y="-447.5" font-family="sans" font-size="10.00" fill="#000000">vsearch</text>
</g>
<!-- 28&#45;&gt;31 -->
<g id="edge59" class="edge">
<title>28&#45;&gt;31</title>
<path fill="none" stroke="#c0c0c0" stroke-width="2" d="M1470.8039,-503.8314C1473.2908,-496.0463 1476.2531,-486.7729 1479.0125,-478.1347"/>
<polygon fill="#c0c0c0" stroke="#c0c0c0" stroke-width="2" points="1482.409,-479.0041 1482.118,-468.4133 1475.7409,-476.874 1482.409,-479.0041"/>
</g>
<!-- 29&#45;&gt;28 -->
<g id="edge56" class="edge">
<title>29&#45;&gt;28</title>
<path fill="none" stroke="#c0c0c0" stroke-width="2" d="M1488.925,-575.8314C1485.3898,-567.8771 1481.164,-558.369 1477.2544,-549.5723"/>
<polygon fill="#c0c0c0" stroke="#c0c0c0" stroke-width="2" points="1480.4435,-548.1299 1473.1837,-540.4133 1474.0468,-550.9729 1480.4435,-548.1299"/>
</g>
<!-- 30 -->
<g id="node31" class="node">
<title>30</title>
<path fill="none" stroke="#d8ac56" stroke-width="2" d="M1459,-252C1459,-252 1421,-252 1421,-252 1415,-252 1409,-246 1409,-240 1409,-240 1409,-228 1409,-228 1409,-222 1415,-216 1421,-216 1421,-216 1459,-216 1459,-216 1465,-216 1471,-222 1471,-228 1471,-228 1471,-240 1471,-240 1471,-246 1465,-252 1459,-252"/>
<text text-anchor="middle" x="1440" y="-237" font-family="sans" font-size="10.00" fill="#000000">fastqc</text>
<text text-anchor="middle" x="1440" y="-226" font-family="sans" font-size="10.00" fill="#000000">tool: derep</text>
</g>
<!-- 30&#45;&gt;1 -->
<g id="edge18" class="edge">
<title>30&#45;&gt;1</title>
<path fill="none" stroke="#c0c0c0" stroke-width="2" d="M1433.855,-215.9897C1425.6234,-194.873 1408.86,-160.6473 1382,-144 1344.303,-120.6361 1042.7386,-99.2256 936.154,-92.319"/>
<polygon fill="#c0c0c0" stroke="#c0c0c0" stroke-width="2" points="936.3757,-88.8261 926.1719,-91.6778 935.9269,-95.8117 936.3757,-88.8261"/>
</g>
<!-- 31&#45;&gt;30 -->
<g id="edge58" class="edge">
<title>31&#45;&gt;30</title>
<path fill="none" stroke="#c0c0c0" stroke-width="2" d="M1484.2398,-431.7075C1480.4748,-413.5082 1474.4702,-384.7951 1469,-360 1461.562,-326.2854 1452.5934,-287.6 1446.6183,-262.0871"/>
<polygon fill="#c0c0c0" stroke="#c0c0c0" stroke-width="2" points="1450.023,-261.2753 1444.3309,-252.3393 1443.2081,-262.8745 1450.023,-261.2753"/>
</g>
<!-- 40 -->
<g id="node41" class="node">
<title>40</title>
<path fill="none" stroke="#56d8d8" stroke-width="2" d="M1579.5,-396C1579.5,-396 1528.5,-396 1528.5,-396 1522.5,-396 1516.5,-390 1516.5,-384 1516.5,-384 1516.5,-372 1516.5,-372 1516.5,-366 1522.5,-360 1528.5,-360 1528.5,-360 1579.5,-360 1579.5,-360 1585.5,-360 1591.5,-366 1591.5,-372 1591.5,-372 1591.5,-384 1591.5,-384 1591.5,-390 1585.5,-396 1579.5,-396"/>
<text text-anchor="middle" x="1554" y="-375.5" font-family="sans" font-size="10.00" fill="#000000">seqkit_fx2tab</text>
</g>
<!-- 31&#45;&gt;40 -->
<g id="edge69" class="edge">
<title>31&#45;&gt;40</title>
<path fill="none" stroke="#c0c0c0" stroke-width="2" d="M1504.6546,-431.8314C1512.4114,-423.3694 1521.7802,-413.1489 1530.261,-403.8971"/>
<polygon fill="#c0c0c0" stroke="#c0c0c0" stroke-width="2" points="1532.9439,-406.1499 1537.1212,-396.4133 1527.7838,-401.4198 1532.9439,-406.1499"/>
</g>
<!-- 32 -->
<g id="node33" class="node">
<title>32</title>
<path fill="none" stroke="#d8ac56" stroke-width="2" d="M199,-324C199,-324 161,-324 161,-324 155,-324 149,-318 149,-312 149,-312 149,-300 149,-300 149,-294 155,-288 161,-288 161,-288 199,-288 199,-288 205,-288 211,-294 211,-300 211,-300 211,-312 211,-312 211,-318 205,-324 199,-324"/>
<text text-anchor="middle" x="180" y="-309" font-family="sans" font-size="10.00" fill="#000000">fastqc</text>
<text text-anchor="middle" x="180" y="-298" font-family="sans" font-size="10.00" fill="#000000">tool: derep</text>
</g>
<!-- 32&#45;&gt;1 -->
<g id="edge19" class="edge">
<title>32&#45;&gt;1</title>
<path fill="none" stroke="#c0c0c0" stroke-width="2" d="M191.6504,-287.8812C198.0456,-277.5715 205.893,-264.2979 212,-252 235.0526,-205.5781 214.2373,-174.6969 256,-144 304.8915,-108.0632 731.5858,-94.2765 861.5757,-90.8878"/>
<polygon fill="#c0c0c0" stroke="#c0c0c0" stroke-width="2" points="861.9128,-94.3804 871.8202,-90.6264 861.7342,-87.3827 861.9128,-94.3804"/>
</g>
<!-- 33&#45;&gt;32 -->
<g id="edge60" class="edge">
<title>33&#45;&gt;32</title>
<path fill="none" stroke="#c0c0c0" stroke-width="2" d="M153.7995,-431.7623C158.939,-407.0928 168.1542,-362.8598 174.1723,-333.9731"/>
<polygon fill="#c0c0c0" stroke="#c0c0c0" stroke-width="2" points="177.6181,-334.5933 176.2313,-324.0896 170.7653,-333.1656 177.6181,-334.5933"/>
</g>
<!-- 43 -->
<g id="node44" class="node">
<title>43</title>
<path fill="none" stroke="#56d8d8" stroke-width="2" d="M109.5,-396C109.5,-396 58.5,-396 58.5,-396 52.5,-396 46.5,-390 46.5,-384 46.5,-384 46.5,-372 46.5,-372 46.5,-366 52.5,-360 58.5,-360 58.5,-360 109.5,-360 109.5,-360 115.5,-360 121.5,-366 121.5,-372 121.5,-372 121.5,-384 121.5,-384 121.5,-390 115.5,-396 109.5,-396"/>
<text text-anchor="middle" x="84" y="-375.5" font-family="sans" font-size="10.00" fill="#000000">seqkit_fx2tab</text>
</g>
<!-- 33&#45;&gt;43 -->
<g id="edge73" class="edge">
<title>33&#45;&gt;43</title>
<path fill="none" stroke="#c0c0c0" stroke-width="2" d="M133.3454,-431.8314C125.5886,-423.3694 116.2198,-413.1489 107.739,-403.8971"/>
<polygon fill="#c0c0c0" stroke="#c0c0c0" stroke-width="2" points="110.2162,-401.4198 100.8788,-396.4133 105.0561,-406.1499 110.2162,-401.4198"/>
</g>
<!-- 34 -->
<g id="node35" class="node">
<title>34</title>
<path fill="none" stroke="#d8ac56" stroke-width="2" d="M1013,-396C1013,-396 975,-396 975,-396 969,-396 963,-390 963,-384 963,-384 963,-372 963,-372 963,-366 969,-360 975,-360 975,-360 1013,-360 1013,-360 1019,-360 1025,-366 1025,-372 1025,-372 1025,-384 1025,-384 1025,-390 1019,-396 1013,-396"/>
<text text-anchor="middle" x="994" y="-381" font-family="sans" font-size="10.00" fill="#000000">fastqc</text>
<text text-anchor="middle" x="994" y="-370" font-family="sans" font-size="10.00" fill="#000000">tool: derep</text>
</g>
<!-- 34&#45;&gt;1 -->
<g id="edge20" class="edge">
<title>34&#45;&gt;1</title>
<path fill="none" stroke="#c0c0c0" stroke-width="2" d="M996.7552,-359.8424C1002.0964,-318.4981 1010.0713,-215.4051 970,-144 961.8557,-129.4872 948.0382,-117.6433 934.7454,-108.7849"/>
<polygon fill="#c0c0c0" stroke="#c0c0c0" stroke-width="2" points="936.4827,-105.7431 926.1509,-103.3968 932.7644,-111.674 936.4827,-105.7431"/>
</g>
<!-- 35&#45;&gt;34 -->
<g id="edge62" class="edge">
<title>35&#45;&gt;34</title>
<path fill="none" stroke="#c0c0c0" stroke-width="2" d="M1005.9625,-431.8314C1004.2513,-424.131 1002.2165,-414.9743 1000.3148,-406.4166"/>
<polygon fill="#c0c0c0" stroke="#c0c0c0" stroke-width="2" points="1003.6779,-405.4159 998.0918,-396.4133 996.8446,-406.9344 1003.6779,-405.4159"/>
</g>
<!-- 46 -->
<g id="node47" class="node">
<title>46</title>
<path fill="none" stroke="#56d8d8" stroke-width="2" d="M1106.5,-396C1106.5,-396 1055.5,-396 1055.5,-396 1049.5,-396 1043.5,-390 1043.5,-384 1043.5,-384 1043.5,-372 1043.5,-372 1043.5,-366 1049.5,-360 1055.5,-360 1055.5,-360 1106.5,-360 1106.5,-360 1112.5,-360 1118.5,-366 1118.5,-372 1118.5,-372 1118.5,-384 1118.5,-384 1118.5,-390 1112.5,-396 1106.5,-396"/>
<text text-anchor="middle" x="1081" y="-375.5" font-family="sans" font-size="10.00" fill="#000000">seqkit_fx2tab</text>
</g>
<!-- 35&#45;&gt;46 -->
<g id="edge77" class="edge">
<title>35&#45;&gt;46</title>
<path fill="none" stroke="#c0c0c0" stroke-width="2" d="M1027.9163,-431.8314C1036.3442,-423.2848 1046.541,-412.9443 1055.736,-403.6198"/>
<polygon fill="#c0c0c0" stroke="#c0c0c0" stroke-width="2" points="1058.3131,-405.9912 1062.8425,-396.4133 1053.3289,-401.0761 1058.3131,-405.9912"/>
</g>
<!-- 36 -->
<g id="node37" class="node">
<title>36</title>
<path fill="none" stroke="#d8ac56" stroke-width="2" d="M558,-180C558,-180 520,-180 520,-180 514,-180 508,-174 508,-168 508,-168 508,-156 508,-156 508,-150 514,-144 520,-144 520,-144 558,-144 558,-144 564,-144 570,-150 570,-156 570,-156 570,-168 570,-168 570,-174 564,-180 558,-180"/>
<text text-anchor="middle" x="539" y="-165" font-family="sans" font-size="10.00" fill="#000000">fastqc</text>
<text text-anchor="middle" x="539" y="-154" font-family="sans" font-size="10.00" fill="#000000">tool: derep</text>
</g>
<!-- 36&#45;&gt;1 -->
<g id="edge21" class="edge">
<title>36&#45;&gt;1</title>
<path fill="none" stroke="#c0c0c0" stroke-width="2" d="M570.1509,-147.0726C573.1053,-145.934 576.0855,-144.8857 579,-144 678.6731,-113.7111 801.2974,-99.0055 861.724,-93.1733"/>
<polygon fill="#c0c0c0" stroke="#c0c0c0" stroke-width="2" points="862.2878,-96.6359 871.9172,-92.2173 861.6341,-89.6665 862.2878,-96.6359"/>
</g>
<!-- 37&#45;&gt;36 -->
<g id="edge64" class="edge">
<title>37&#45;&gt;36</title>
<path fill="none" stroke="#c0c0c0" stroke-width="2" d="M587.7472,-431.9843C578.9559,-383.2939 554.6715,-248.7961 544.0659,-190.0573"/>
<polygon fill="#c0c0c0" stroke="#c0c0c0" stroke-width="2" points="547.4728,-189.2278 542.2516,-180.0089 540.5842,-190.4717 547.4728,-189.2278"/>
</g>
<!-- 49 -->
<g id="node50" class="node">
<title>49</title>
<path fill="none" stroke="#56d8d8" stroke-width="2" d="M662.5,-396C662.5,-396 611.5,-396 611.5,-396 605.5,-396 599.5,-390 599.5,-384 599.5,-384 599.5,-372 599.5,-372 599.5,-366 605.5,-360 611.5,-360 611.5,-360 662.5,-360 662.5,-360 668.5,-360 674.5,-366 674.5,-372 674.5,-372 674.5,-384 674.5,-384 674.5,-390 668.5,-396 662.5,-396"/>
<text text-anchor="middle" x="637" y="-375.5" font-family="sans" font-size="10.00" fill="#000000">seqkit_fx2tab</text>
</g>
<!-- 37&#45;&gt;49 -->
<g id="edge81" class="edge">
<title>37&#45;&gt;49</title>
<path fill="none" stroke="#c0c0c0" stroke-width="2" d="M602.6077,-431.8314C607.7978,-423.7079 614.0232,-413.9637 619.7425,-405.0118"/>
<polygon fill="#c0c0c0" stroke="#c0c0c0" stroke-width="2" points="622.8015,-406.7246 625.236,-396.4133 616.9026,-402.9559 622.8015,-406.7246"/>
</g>
<!-- 38 -->
<g id="node39" class="node">
<title>38</title>
<path fill="none" stroke="#d8ac56" stroke-width="2" d="M1523.5,-180C1523.5,-180 1446.5,-180 1446.5,-180 1440.5,-180 1434.5,-174 1434.5,-168 1434.5,-168 1434.5,-156 1434.5,-156 1434.5,-150 1440.5,-144 1446.5,-144 1446.5,-144 1523.5,-144 1523.5,-144 1529.5,-144 1535.5,-150 1535.5,-156 1535.5,-156 1535.5,-168 1535.5,-168 1535.5,-174 1529.5,-180 1523.5,-180"/>
<text text-anchor="middle" x="1485" y="-165" font-family="sans" font-size="10.00" fill="#000000">fastqc</text>
<text text-anchor="middle" x="1485" y="-154" font-family="sans" font-size="10.00" fill="#000000">tool: represent/grep</text>
</g>
<!-- 38&#45;&gt;1 -->
<g id="edge22" class="edge">
<title>38&#45;&gt;1</title>
<path fill="none" stroke="#c0c0c0" stroke-width="2" d="M1434.4498,-147.123C1429.591,-145.9586 1424.7174,-144.8912 1420,-144 1240.5102,-110.0915 1021.9242,-96.149 936.1051,-91.7166"/>
<polygon fill="#c0c0c0" stroke="#c0c0c0" stroke-width="2" points="936.2358,-88.2188 926.0722,-91.2109 935.8833,-95.21 936.2358,-88.2188"/>
</g>
<!-- 39&#45;&gt;38 -->
<g id="edge66" class="edge">
<title>39&#45;&gt;38</title>
<path fill="none" stroke="#c0c0c0" stroke-width="2" d="M1567.9682,-287.7623C1551.4077,-262.66 1521.4838,-217.3017 1502.4609,-188.4671"/>
<polygon fill="#c0c0c0" stroke="#c0c0c0" stroke-width="2" points="1505.3625,-186.5094 1496.9341,-180.0896 1499.5195,-190.3642 1505.3625,-186.5094"/>
</g>
<!-- 53 -->
<g id="node54" class="node">
<title>53</title>
<path fill="none" stroke="#afd856" stroke-width="2" d="M1637,-252C1637,-252 1577,-252 1577,-252 1571,-252 1565,-246 1565,-240 1565,-240 1565,-228 1565,-228 1565,-222 1571,-216 1577,-216 1577,-216 1637,-216 1637,-216 1643,-216 1649,-222 1649,-228 1649,-228 1649,-240 1649,-240 1649,-246 1643,-252 1637,-252"/>
<text text-anchor="middle" x="1607" y="-231.5" font-family="sans" font-size="10.00" fill="#000000">low_complexity</text>
</g>
<!-- 39&#45;&gt;53 -->
<g id="edge85" class="edge">
<title>39&#45;&gt;53</title>
<path fill="none" stroke="#c0c0c0" stroke-width="2" d="M1586.8132,-287.8314C1589.7644,-279.9617 1593.2858,-270.5712 1596.555,-261.8533"/>
<polygon fill="#c0c0c0" stroke="#c0c0c0" stroke-width="2" points="1599.8609,-263.0055 1600.095,-252.4133 1593.3066,-260.5476 1599.8609,-263.0055"/>
</g>
<!-- 40&#45;&gt;39 -->
<g id="edge68" class="edge">
<title>40&#45;&gt;39</title>
<path fill="none" stroke="#c0c0c0" stroke-width="2" d="M1560.5609,-359.8314C1563.4027,-351.9617 1566.7937,-342.5712 1569.9419,-333.8533"/>
<polygon fill="#c0c0c0" stroke="#c0c0c0" stroke-width="2" points="1573.2462,-335.0076 1573.3508,-324.4133 1566.6623,-332.63 1573.2462,-335.0076"/>
</g>
<!-- 41 -->
<g id="node42" class="node">
<title>41</title>
<path fill="none" stroke="#d8ac56" stroke-width="2" d="M191.5,-252C191.5,-252 114.5,-252 114.5,-252 108.5,-252 102.5,-246 102.5,-240 102.5,-240 102.5,-228 102.5,-228 102.5,-222 108.5,-216 114.5,-216 114.5,-216 191.5,-216 191.5,-216 197.5,-216 203.5,-222 203.5,-228 203.5,-228 203.5,-240 203.5,-240 203.5,-246 197.5,-252 191.5,-252"/>
<text text-anchor="middle" x="153" y="-237" font-family="sans" font-size="10.00" fill="#000000">fastqc</text>
<text text-anchor="middle" x="153" y="-226" font-family="sans" font-size="10.00" fill="#000000">tool: represent/grep</text>
</g>
<!-- 41&#45;&gt;1 -->
<g id="edge23" class="edge">
<title>41&#45;&gt;1</title>
<path fill="none" stroke="#c0c0c0" stroke-width="2" d="M160.4085,-215.7905C170.1473,-194.4777 189.4395,-160.0589 218,-144 274.2399,-112.3776 726.9228,-95.4975 861.4382,-91.1456"/>
<polygon fill="#c0c0c0" stroke="#c0c0c0" stroke-width="2" points="861.7693,-94.6369 871.6525,-90.8196 861.5459,-87.6405 861.7693,-94.6369"/>
</g>
<!-- 42&#45;&gt;41 -->
<g id="edge70" class="edge">
<title>42&#45;&gt;41</title>
<path fill="none" stroke="#c0c0c0" stroke-width="2" d="M78.9819,-287.8314C91.2928,-278.8779 106.3107,-267.9558 119.5937,-258.2955"/>
<polygon fill="#c0c0c0" stroke="#c0c0c0" stroke-width="2" points="121.9973,-260.8752 128.0261,-252.1628 117.8801,-255.214 121.9973,-260.8752"/>
</g>
<!-- 51 -->
<g id="node52" class="node">
<title>51</title>
<path fill="none" stroke="#afd856" stroke-width="2" d="M72,-252C72,-252 12,-252 12,-252 6,-252 0,-246 0,-240 0,-240 0,-228 0,-228 0,-222 6,-216 12,-216 12,-216 72,-216 72,-216 78,-216 84,-222 84,-228 84,-228 84,-240 84,-240 84,-246 78,-252 72,-252"/>
<text text-anchor="middle" x="42" y="-231.5" font-family="sans" font-size="10.00" fill="#000000">low_complexity</text>
</g>
<!-- 42&#45;&gt;51 -->
<g id="edge83" class="edge">
<title>42&#45;&gt;51</title>
<path fill="none" stroke="#c0c0c0" stroke-width="2" d="M50.9719,-287.8314C49.6885,-280.131 48.1624,-270.9743 46.7361,-262.4166"/>
<polygon fill="#c0c0c0" stroke="#c0c0c0" stroke-width="2" points="50.1653,-261.7018 45.0689,-252.4133 43.2606,-262.8526 50.1653,-261.7018"/>
</g>
<!-- 43&#45;&gt;42 -->
<g id="edge72" class="edge">
<title>43&#45;&gt;42</title>
<path fill="none" stroke="#c0c0c0" stroke-width="2" d="M76.4297,-359.8314C73.1507,-351.9617 69.238,-342.5712 65.6055,-333.8533"/>
<polygon fill="#c0c0c0" stroke="#c0c0c0" stroke-width="2" points="68.7492,-332.2979 61.6722,-324.4133 62.2876,-334.9902 68.7492,-332.2979"/>
</g>
<!-- 44 -->
<g id="node45" class="node">
<title>44</title>
<path fill="none" stroke="#d8ac56" stroke-width="2" d="M1149.5,-252C1149.5,-252 1072.5,-252 1072.5,-252 1066.5,-252 1060.5,-246 1060.5,-240 1060.5,-240 1060.5,-228 1060.5,-228 1060.5,-222 1066.5,-216 1072.5,-216 1072.5,-216 1149.5,-216 1149.5,-216 1155.5,-216 1161.5,-222 1161.5,-228 1161.5,-228 1161.5,-240 1161.5,-240 1161.5,-246 1155.5,-252 1149.5,-252"/>
<text text-anchor="middle" x="1111" y="-237" font-family="sans" font-size="10.00" fill="#000000">fastqc</text>
<text text-anchor="middle" x="1111" y="-226" font-family="sans" font-size="10.00" fill="#000000">tool: represent/grep</text>
</g>
<!-- 44&#45;&gt;1 -->
<g id="edge24" class="edge">
<title>44&#45;&gt;1</title>
<path fill="none" stroke="#c0c0c0" stroke-width="2" d="M1102.1943,-215.9808C1091.4955,-195.8204 1071.6497,-163.4455 1046,-144 1013.1558,-119.1002 967.6633,-104.7544 936.0192,-97.1945"/>
<polygon fill="#c0c0c0" stroke="#c0c0c0" stroke-width="2" points="936.7928,-93.7812 926.2653,-94.9737 935.2387,-100.6065 936.7928,-93.7812"/>
</g>
<!-- 45&#45;&gt;44 -->
<g id="edge74" class="edge">
<title>45&#45;&gt;44</title>
<path fill="none" stroke="#c0c0c0" stroke-width="2" d="M1149.1305,-287.8314C1143.3165,-279.6232 1136.3304,-269.7606 1129.9354,-260.7323"/>
<polygon fill="#c0c0c0" stroke="#c0c0c0" stroke-width="2" points="1132.679,-258.5505 1124.0427,-252.4133 1126.9669,-262.5966 1132.679,-258.5505"/>
</g>
<!-- 55 -->
<g id="node56" class="node">
<title>55</title>
<path fill="none" stroke="#afd856" stroke-width="2" d="M1252,-252C1252,-252 1192,-252 1192,-252 1186,-252 1180,-246 1180,-240 1180,-240 1180,-228 1180,-228 1180,-222 1186,-216 1192,-216 1192,-216 1252,-216 1252,-216 1258,-216 1264,-222 1264,-228 1264,-228 1264,-240 1264,-240 1264,-246 1258,-252 1252,-252"/>
<text text-anchor="middle" x="1222" y="-231.5" font-family="sans" font-size="10.00" fill="#000000">low_complexity</text>
</g>
<!-- 45&#45;&gt;55 -->
<g id="edge87" class="edge">
<title>45&#45;&gt;55</title>
<path fill="none" stroke="#c0c0c0" stroke-width="2" d="M1177.1405,-287.8314C1184.1217,-279.454 1192.5391,-269.3531 1200.1876,-260.1749"/>
<polygon fill="#c0c0c0" stroke="#c0c0c0" stroke-width="2" points="1202.9425,-262.3362 1206.6556,-252.4133 1197.5649,-257.8548 1202.9425,-262.3362"/>
</g>
<!-- 46&#45;&gt;45 -->
<g id="edge76" class="edge">
<title>46&#45;&gt;45</title>
<path fill="none" stroke="#c0c0c0" stroke-width="2" d="M1101.4397,-359.8314C1111.3205,-351.0485 1123.3324,-340.3712 1134.045,-330.8489"/>
<polygon fill="#c0c0c0" stroke="#c0c0c0" stroke-width="2" points="1136.418,-333.4224 1141.5668,-324.1628 1131.7674,-328.1906 1136.418,-333.4224"/>
</g>
<!-- 47 -->
<g id="node48" class="node">
<title>47</title>
<path fill="none" stroke="#d8ac56" stroke-width="2" d="M677.5,-180C677.5,-180 600.5,-180 600.5,-180 594.5,-180 588.5,-174 588.5,-168 588.5,-168 588.5,-156 588.5,-156 588.5,-150 594.5,-144 600.5,-144 600.5,-144 677.5,-144 677.5,-144 683.5,-144 689.5,-150 689.5,-156 689.5,-156 689.5,-168 689.5,-168 689.5,-174 683.5,-180 677.5,-180"/>
<text text-anchor="middle" x="639" y="-165" font-family="sans" font-size="10.00" fill="#000000">fastqc</text>
<text text-anchor="middle" x="639" y="-154" font-family="sans" font-size="10.00" fill="#000000">tool: represent/grep</text>
</g>
<!-- 47&#45;&gt;1 -->
<g id="edge25" class="edge">
<title>47&#45;&gt;1</title>
<path fill="none" stroke="#c0c0c0" stroke-width="2" d="M689.7478,-147.9468C740.4454,-133.9074 817.1467,-112.6671 862.2451,-100.1783"/>
<polygon fill="#c0c0c0" stroke="#c0c0c0" stroke-width="2" points="863.2071,-103.5437 871.9103,-97.5018 861.3389,-96.7976 863.2071,-103.5437"/>
</g>
<!-- 48&#45;&gt;47 -->
<g id="edge78" class="edge">
<title>48&#45;&gt;47</title>
<path fill="none" stroke="#c0c0c0" stroke-width="2" d="M645.9868,-287.7623C644.6223,-263.201 642.1804,-219.2474 640.5752,-190.3541"/>
<polygon fill="#c0c0c0" stroke="#c0c0c0" stroke-width="2" points="644.0544,-189.88 640.005,-180.0896 637.0652,-190.2684 644.0544,-189.88"/>
</g>
<!-- 57 -->
<g id="node58" class="node">
<title>57</title>
<path fill="none" stroke="#afd856" stroke-width="2" d="M748,-252C748,-252 688,-252 688,-252 682,-252 676,-246 676,-240 676,-240 676,-228 676,-228 676,-222 682,-216 688,-216 688,-216 748,-216 748,-216 754,-216 760,-222 760,-228 760,-228 760,-240 760,-240 760,-246 754,-252 748,-252"/>
<text text-anchor="middle" x="718" y="-231.5" font-family="sans" font-size="10.00" fill="#000000">low_complexity</text>
</g>
<!-- 48&#45;&gt;57 -->
<g id="edge89" class="edge">
<title>48&#45;&gt;57</title>
<path fill="none" stroke="#c0c0c0" stroke-width="2" d="M664.9163,-287.8314C673.3442,-279.2848 683.541,-268.9443 692.736,-259.6198"/>
<polygon fill="#c0c0c0" stroke="#c0c0c0" stroke-width="2" points="695.3131,-261.9912 699.8425,-252.4133 690.3289,-257.0761 695.3131,-261.9912"/>
</g>
<!-- 49&#45;&gt;48 -->
<g id="edge80" class="edge">
<title>49&#45;&gt;48</title>
<path fill="none" stroke="#c0c0c0" stroke-width="2" d="M639.5234,-359.8314C640.5929,-352.131 641.8647,-342.9743 643.0532,-334.4166"/>
<polygon fill="#c0c0c0" stroke="#c0c0c0" stroke-width="2" points="646.5336,-334.7997 644.4426,-324.4133 639.6001,-333.8367 646.5336,-334.7997"/>
</g>
<!-- 50 -->
<g id="node51" class="node">
<title>50</title>
<path fill="none" stroke="#d8ac56" stroke-width="2" d="M154,-180C154,-180 72,-180 72,-180 66,-180 60,-174 60,-168 60,-168 60,-156 60,-156 60,-150 66,-144 72,-144 72,-144 154,-144 154,-144 160,-144 166,-150 166,-156 166,-156 166,-168 166,-168 166,-174 160,-180 154,-180"/>
<text text-anchor="middle" x="113" y="-165" font-family="sans" font-size="10.00" fill="#000000">fastqc</text>
<text text-anchor="middle" x="113" y="-154" font-family="sans" font-size="10.00" fill="#000000">tool: low_complexity</text>
</g>
<!-- 50&#45;&gt;1 -->
<g id="edge26" class="edge">
<title>50&#45;&gt;1</title>
<path fill="none" stroke="#c0c0c0" stroke-width="2" d="M166.194,-146.744C170.8394,-145.7055 175.4881,-144.7685 180,-144 437.9935,-100.0558 754.1388,-91.8721 861.3807,-90.3485"/>
<polygon fill="#c0c0c0" stroke="#c0c0c0" stroke-width="2" points="861.7264,-93.8443 871.6798,-90.2139 861.6349,-86.8449 861.7264,-93.8443"/>
</g>
<!-- 51&#45;&gt;0 -->
<g id="edge4" class="edge">
<title>51&#45;&gt;0</title>
<path fill="none" stroke="#c0c0c0" stroke-width="2" d="M37.9461,-215.8125C34.5888,-195.4976 32.9057,-162.9813 51,-144 108.0973,-84.1039 705.9438,-33.1855 861.9404,-20.848"/>
<polygon fill="#c0c0c0" stroke="#c0c0c0" stroke-width="2" points="862.2866,-24.3316 871.9817,-20.059 861.7382,-17.3531 862.2866,-24.3316"/>
</g>
<!-- 51&#45;&gt;50 -->
<g id="edge82" class="edge">
<title>51&#45;&gt;50</title>
<path fill="none" stroke="#c0c0c0" stroke-width="2" d="M59.9163,-215.8314C68.3442,-207.2848 78.541,-196.9443 87.736,-187.6198"/>
<polygon fill="#c0c0c0" stroke="#c0c0c0" stroke-width="2" points="90.3131,-189.9912 94.8425,-180.4133 85.3289,-185.0761 90.3131,-189.9912"/>
</g>
<!-- 52 -->
<g id="node53" class="node">
<title>52</title>
<path fill="none" stroke="#d8ac56" stroke-width="2" d="M1648,-180C1648,-180 1566,-180 1566,-180 1560,-180 1554,-174 1554,-168 1554,-168 1554,-156 1554,-156 1554,-150 1560,-144 1566,-144 1566,-144 1648,-144 1648,-144 1654,-144 1660,-150 1660,-156 1660,-156 1660,-168 1660,-168 1660,-174 1654,-180 1648,-180"/>
<text text-anchor="middle" x="1607" y="-165" font-family="sans" font-size="10.00" fill="#000000">fastqc</text>
<text text-anchor="middle" x="1607" y="-154" font-family="sans" font-size="10.00" fill="#000000">tool: low_complexity</text>
</g>
<!-- 52&#45;&gt;1 -->
<g id="edge27" class="edge">
<title>52&#45;&gt;1</title>
<path fill="none" stroke="#c0c0c0" stroke-width="2" d="M1553.7277,-145.8033C1550.7885,-145.1385 1547.8655,-144.5303 1545,-144 1316.2354,-101.668 1035.7024,-92.4912 936.1702,-90.5267"/>
<polygon fill="#c0c0c0" stroke="#c0c0c0" stroke-width="2" points="936.0853,-87.0247 926.0224,-90.3395 935.9561,-94.0235 936.0853,-87.0247"/>
</g>
<!-- 53&#45;&gt;0 -->
<g id="edge3" class="edge">
<title>53&#45;&gt;0</title>
<path fill="none" stroke="#c0c0c0" stroke-width="2" d="M1633.9891,-215.9825C1658.7879,-197.2426 1688.9025,-167.4239 1669,-144 1620.6541,-87.0999 1084.4237,-34.7486 936.5605,-21.3173"/>
<polygon fill="#c0c0c0" stroke="#c0c0c0" stroke-width="2" points="936.4772,-17.7956 926.203,-20.3826 935.848,-24.7673 936.4772,-17.7956"/>
</g>
<!-- 53&#45;&gt;52 -->
<g id="edge84" class="edge">
<title>53&#45;&gt;52</title>
<path fill="none" stroke="#c0c0c0" stroke-width="2" d="M1607,-215.8314C1607,-208.131 1607,-198.9743 1607,-190.4166"/>
<polygon fill="#c0c0c0" stroke="#c0c0c0" stroke-width="2" points="1610.5001,-190.4132 1607,-180.4133 1603.5001,-190.4133 1610.5001,-190.4132"/>
</g>
<!-- 54 -->
<g id="node55" class="node">
<title>54</title>
<path fill="none" stroke="#d8ac56" stroke-width="2" d="M1192,-180C1192,-180 1110,-180 1110,-180 1104,-180 1098,-174 1098,-168 1098,-168 1098,-156 1098,-156 1098,-150 1104,-144 1110,-144 1110,-144 1192,-144 1192,-144 1198,-144 1204,-150 1204,-156 1204,-156 1204,-168 1204,-168 1204,-174 1198,-180 1192,-180"/>
<text text-anchor="middle" x="1151" y="-165" font-family="sans" font-size="10.00" fill="#000000">fastqc</text>
<text text-anchor="middle" x="1151" y="-154" font-family="sans" font-size="10.00" fill="#000000">tool: low_complexity</text>
</g>
<!-- 54&#45;&gt;1 -->
<g id="edge28" class="edge">
<title>54&#45;&gt;1</title>
<path fill="none" stroke="#c0c0c0" stroke-width="2" d="M1097.8652,-146.8186C1049.2039,-132.9154 978.451,-112.7003 935.7664,-100.5047"/>
<polygon fill="#c0c0c0" stroke="#c0c0c0" stroke-width="2" points="936.6442,-97.1155 926.0675,-97.7336 934.7211,-103.8462 936.6442,-97.1155"/>
</g>
<!-- 55&#45;&gt;0 -->
<g id="edge2" class="edge">
<title>55&#45;&gt;0</title>
<path fill="none" stroke="#c0c0c0" stroke-width="2" d="M1225.2972,-215.8202C1227.8046,-196.1138 1228.5652,-164.7134 1213,-144 1145.6747,-54.4065 1004.2912,-28.3717 936.6343,-20.9216"/>
<polygon fill="#c0c0c0" stroke="#c0c0c0" stroke-width="2" points="936.7356,-17.4138 926.4315,-19.8786 936.0236,-24.3775 936.7356,-17.4138"/>
</g>
<!-- 55&#45;&gt;54 -->
<g id="edge86" class="edge">
<title>55&#45;&gt;54</title>
<path fill="none" stroke="#c0c0c0" stroke-width="2" d="M1204.0837,-215.8314C1195.6558,-207.2848 1185.459,-196.9443 1176.264,-187.6198"/>
<polygon fill="#c0c0c0" stroke="#c0c0c0" stroke-width="2" points="1178.6711,-185.0761 1169.1575,-180.4133 1173.6869,-189.9912 1178.6711,-185.0761"/>
</g>
<!-- 56 -->
<g id="node57" class="node">
<title>56</title>
<path fill="none" stroke="#d8ac56" stroke-width="2" d="M840,-180C840,-180 758,-180 758,-180 752,-180 746,-174 746,-168 746,-168 746,-156 746,-156 746,-150 752,-144 758,-144 758,-144 840,-144 840,-144 846,-144 852,-150 852,-156 852,-156 852,-168 852,-168 852,-174 846,-180 840,-180"/>
<text text-anchor="middle" x="799" y="-165" font-family="sans" font-size="10.00" fill="#000000">fastqc</text>
<text text-anchor="middle" x="799" y="-154" font-family="sans" font-size="10.00" fill="#000000">tool: low_complexity</text>
</g>
<!-- 56&#45;&gt;1 -->
<g id="edge29" class="edge">
<title>56&#45;&gt;1</title>
<path fill="none" stroke="#c0c0c0" stroke-width="2" d="M824.2342,-143.8314C836.788,-134.7927 852.1283,-123.7476 865.6391,-114.0198"/>
<polygon fill="#c0c0c0" stroke="#c0c0c0" stroke-width="2" points="867.7036,-116.8463 873.7739,-108.1628 863.6134,-111.1655 867.7036,-116.8463"/>
</g>
<!-- 57&#45;&gt;0 -->
<g id="edge5" class="edge">
<title>57&#45;&gt;0</title>
<path fill="none" stroke="#c0c0c0" stroke-width="2" d="M718.2359,-215.7347C719.2687,-196.5217 723.1973,-166.0693 737,-144 767.8286,-94.7077 825.1726,-57.0627 862.7061,-36.2431"/>
<polygon fill="#c0c0c0" stroke="#c0c0c0" stroke-width="2" points="864.671,-39.1591 871.7935,-31.3156 861.3343,-33.0055 864.671,-39.1591"/>
</g>
<!-- 57&#45;&gt;56 -->
<g id="edge88" class="edge">
<title>57&#45;&gt;56</title>
<path fill="none" stroke="#c0c0c0" stroke-width="2" d="M738.4397,-215.8314C748.3205,-207.0485 760.3324,-196.3712 771.045,-186.8489"/>
<polygon fill="#c0c0c0" stroke="#c0c0c0" stroke-width="2" points="773.418,-189.4224 778.5668,-180.1628 768.7674,-184.1906 773.418,-189.4224"/>
</g>
</g>
</svg>
