<?xml version="1.0" encoding="UTF-8" standalone="no"?>
<!DOCTYPE svg PUBLIC "-//W3C//DTD SVG 1.1//EN"
 "http://www.w3.org/Graphics/SVG/1.1/DTD/svg11.dtd">
<!-- Generated by graphviz version 2.40.1 (0)
 -->
<!-- Title: snakemake_dag Pages: 1 -->
<svg width="1696pt" height="708pt"
 viewBox="0.00 0.00 1695.73 708.00" xmlns="http://www.w3.org/2000/svg" xmlns:xlink="http://www.w3.org/1999/xlink">
<g id="graph0" class="graph" transform="scale(1 1) rotate(0) translate(4 704)">
<title>snakemake_dag</title>
<polygon fill="#ffffff" stroke="transparent" points="-4,4 -4,-704 1691.7319,-704 1691.7319,4 -4,4"/>
<!-- 0 -->
<g id="node1" class="node">
<title>0</title>
<path fill="none" stroke="#d85656" stroke-width="2" d="M903.7319,-36C903.7319,-36 873.7319,-36 873.7319,-36 867.7319,-36 861.7319,-30 861.7319,-24 861.7319,-24 861.7319,-12 861.7319,-12 861.7319,-6 867.7319,0 873.7319,0 873.7319,0 903.7319,0 903.7319,0 909.7319,0 915.7319,-6 915.7319,-12 915.7319,-12 915.7319,-24 915.7319,-24 915.7319,-30 909.7319,-36 903.7319,-36"/>
<text text-anchor="middle" x="888.7319" y="-15.5" font-family="sans" font-size="10.00" fill="#000000">all</text>
</g>
<!-- 1 -->
<g id="node2" class="node">
<title>1</title>
<path fill="none" stroke="#59d856" stroke-width="2" d="M903.7319,-108C903.7319,-108 873.7319,-108 873.7319,-108 867.7319,-108 861.7319,-102 861.7319,-96 861.7319,-96 861.7319,-84 861.7319,-84 861.7319,-78 867.7319,-72 873.7319,-72 873.7319,-72 903.7319,-72 903.7319,-72 909.7319,-72 915.7319,-78 915.7319,-84 915.7319,-84 915.7319,-96 915.7319,-96 915.7319,-102 909.7319,-108 903.7319,-108"/>
<text text-anchor="middle" x="888.7319" y="-87.5" font-family="sans" font-size="10.00" fill="#000000">multiqc</text>
</g>
<!-- 1&#45;&gt;0 -->
<g id="edge1" class="edge">
<title>1&#45;&gt;0</title>
<path fill="none" stroke="#c0c0c0" stroke-width="2" d="M888.7319,-71.8314C888.7319,-64.131 888.7319,-54.9743 888.7319,-46.4166"/>
<polygon fill="#c0c0c0" stroke="#c0c0c0" stroke-width="2" points="892.232,-46.4132 888.7319,-36.4133 885.232,-46.4133 892.232,-46.4132"/>
</g>
<!-- 2 -->
<g id="node3" class="node">
<title>2</title>
<path fill="none" stroke="#d8ac56" stroke-width="2" d="M495.7319,-324C495.7319,-324 425.7319,-324 425.7319,-324 419.7319,-324 413.7319,-318 413.7319,-312 413.7319,-312 413.7319,-300 413.7319,-300 413.7319,-294 419.7319,-288 425.7319,-288 425.7319,-288 495.7319,-288 495.7319,-288 501.7319,-288 507.7319,-294 507.7319,-300 507.7319,-300 507.7319,-312 507.7319,-312 507.7319,-318 501.7319,-324 495.7319,-324"/>
<text text-anchor="middle" x="460.7319" y="-309" font-family="sans" font-size="10.00" fill="#000000">fastqc</text>
<text text-anchor="middle" x="460.7319" y="-298" font-family="sans" font-size="10.00" fill="#000000">tool: merge_lanes</text>
</g>
<!-- 2&#45;&gt;1 -->
<g id="edge6" class="edge">
<title>2&#45;&gt;1</title>
<path fill="none" stroke="#c0c0c0" stroke-width="2" d="M461.5744,-287.7583C464.2063,-253.65 475.0528,-180.3837 519.7319,-144 570.1038,-102.9805 768.2325,-93.0885 851.5273,-90.7287"/>
<polygon fill="#c0c0c0" stroke="#c0c0c0" stroke-width="2" points="851.6594,-94.2265 861.5641,-90.4654 851.4758,-87.229 851.6594,-94.2265"/>
</g>
<!-- 3 -->
<g id="node4" class="node">
<title>3</title>
<path fill="none" stroke="#80d856" stroke-width="2" d="M345.7319,-700C345.7319,-700 241.7319,-700 241.7319,-700 235.7319,-700 229.7319,-694 229.7319,-688 229.7319,-688 229.7319,-660 229.7319,-660 229.7319,-654 235.7319,-648 241.7319,-648 241.7319,-648 345.7319,-648 345.7319,-648 351.7319,-648 357.7319,-654 357.7319,-660 357.7319,-660 357.7319,-688 357.7319,-688 357.7319,-694 351.7319,-700 345.7319,-700"/>
<text text-anchor="middle" x="293.7319" y="-688" font-family="sans" font-size="10.00" fill="#000000">merge_lanes</text>
<text text-anchor="middle" x="293.7319" y="-677" font-family="sans" font-size="10.00" fill="#000000">library: lib3</text>
<text text-anchor="middle" x="293.7319" y="-666" font-family="sans" font-size="10.00" fill="#000000">read_type_trim: collapsed</text>
<text text-anchor="middle" x="293.7319" y="-655" font-family="sans" font-size="10.00" fill="#000000">sample: HD827sonic_2</text>
</g>
<!-- 3&#45;&gt;2 -->
<g id="edge30" class="edge">
<title>3&#45;&gt;2</title>
<path fill="none" stroke="#c0c0c0" stroke-width="2" d="M357.7454,-661.5704C387.4183,-652.6101 420.6915,-637.4376 441.7319,-612 467.7884,-580.4981 460.7319,-562.8816 460.7319,-522 460.7319,-522 460.7319,-522 460.7319,-450 460.7319,-409.876 460.7319,-363.4631 460.7319,-334.4177"/>
<polygon fill="#c0c0c0" stroke="#c0c0c0" stroke-width="2" points="464.232,-334.1853 460.7319,-324.1854 457.232,-334.1854 464.232,-334.1853"/>
</g>
<!-- 13 -->
<g id="node14" class="node">
<title>13</title>
<path fill="none" stroke="#56d882" stroke-width="2" d="M420.7319,-612C420.7319,-612 350.7319,-612 350.7319,-612 344.7319,-612 338.7319,-606 338.7319,-600 338.7319,-600 338.7319,-588 338.7319,-588 338.7319,-582 344.7319,-576 350.7319,-576 350.7319,-576 420.7319,-576 420.7319,-576 426.7319,-576 432.7319,-582 432.7319,-588 432.7319,-588 432.7319,-600 432.7319,-600 432.7319,-606 426.7319,-612 420.7319,-612"/>
<text text-anchor="middle" x="385.7319" y="-597" font-family="sans" font-size="10.00" fill="#000000">nonpareil_infer</text>
<text text-anchor="middle" x="385.7319" y="-586" font-family="sans" font-size="10.00" fill="#000000">tool: merge_lanes</text>
</g>
<!-- 3&#45;&gt;13 -->
<g id="edge37" class="edge">
<title>3&#45;&gt;13</title>
<path fill="none" stroke="#c0c0c0" stroke-width="2" d="M323.8562,-647.805C334.5467,-638.5089 346.5411,-628.079 357.1033,-618.8945"/>
<polygon fill="#c0c0c0" stroke="#c0c0c0" stroke-width="2" points="359.6063,-621.3562 364.8557,-612.1532 355.013,-616.0739 359.6063,-621.3562"/>
</g>
<!-- 22 -->
<g id="node23" class="node">
<title>22</title>
<path fill="none" stroke="#d88556" stroke-width="2" d="M318.2319,-540C318.2319,-540 259.2319,-540 259.2319,-540 253.2319,-540 247.2319,-534 247.2319,-528 247.2319,-528 247.2319,-516 247.2319,-516 247.2319,-510 253.2319,-504 259.2319,-504 259.2319,-504 318.2319,-504 318.2319,-504 324.2319,-504 330.2319,-510 330.2319,-516 330.2319,-516 330.2319,-528 330.2319,-528 330.2319,-534 324.2319,-540 318.2319,-540"/>
<text text-anchor="middle" x="288.7319" y="-519.5" font-family="sans" font-size="10.00" fill="#000000">extend_tadpole</text>
</g>
<!-- 3&#45;&gt;22 -->
<g id="edge47" class="edge">
<title>3&#45;&gt;22</title>
<path fill="none" stroke="#c0c0c0" stroke-width="2" d="M274.4794,-647.9062C267.7969,-637.3174 261.1301,-624.6197 257.7319,-612 253.5718,-596.5503 253.6098,-591.4599 257.7319,-576 260.2271,-566.6419 264.7727,-557.2199 269.628,-548.925"/>
<polygon fill="#c0c0c0" stroke="#c0c0c0" stroke-width="2" points="272.609,-550.759 274.9356,-540.4228 266.6711,-547.0521 272.609,-550.759"/>
</g>
<!-- 23 -->
<g id="node24" class="node">
<title>23</title>
<path fill="none" stroke="#d6d856" stroke-width="2" d="M308.7319,-612C308.7319,-612 278.7319,-612 278.7319,-612 272.7319,-612 266.7319,-606 266.7319,-600 266.7319,-600 266.7319,-588 266.7319,-588 266.7319,-582 272.7319,-576 278.7319,-576 278.7319,-576 308.7319,-576 308.7319,-576 314.7319,-576 320.7319,-582 320.7319,-588 320.7319,-588 320.7319,-600 320.7319,-600 320.7319,-606 314.7319,-612 308.7319,-612"/>
<text text-anchor="middle" x="293.7319" y="-591.5" font-family="sans" font-size="10.00" fill="#000000">loglog</text>
</g>
<!-- 3&#45;&gt;23 -->
<g id="edge49" class="edge">
<title>3&#45;&gt;23</title>
<path fill="none" stroke="#c0c0c0" stroke-width="2" d="M293.7319,-647.805C293.7319,-639.6026 293.7319,-630.5174 293.7319,-622.1839"/>
<polygon fill="#c0c0c0" stroke="#c0c0c0" stroke-width="2" points="297.232,-622.1532 293.7319,-612.1532 290.232,-622.1533 297.232,-622.1532"/>
</g>
<!-- 42 -->
<g id="node43" class="node">
<title>42</title>
<path fill="none" stroke="#56a9d8" stroke-width="2" d="M165.2319,-324C165.2319,-324 122.2319,-324 122.2319,-324 116.2319,-324 110.2319,-318 110.2319,-312 110.2319,-312 110.2319,-300 110.2319,-300 110.2319,-294 116.2319,-288 122.2319,-288 122.2319,-288 165.2319,-288 165.2319,-288 171.2319,-288 177.2319,-294 177.2319,-300 177.2319,-300 177.2319,-312 177.2319,-312 177.2319,-318 171.2319,-324 165.2319,-324"/>
<text text-anchor="middle" x="143.7319" y="-303.5" font-family="sans" font-size="10.00" fill="#000000">seqkit_grep</text>
</g>
<!-- 3&#45;&gt;42 -->
<g id="edge71" class="edge">
<title>3&#45;&gt;42</title>
<path fill="none" stroke="#c0c0c0" stroke-width="2" d="M229.7204,-654.6439C171.8719,-632.7197 95.7319,-590.796 95.7319,-522 95.7319,-522 95.7319,-522 95.7319,-450 95.7319,-409.1184 100.6966,-398.3968 114.7319,-360 118.0234,-350.9955 122.5899,-341.6408 127.1263,-333.2976"/>
<polygon fill="#c0c0c0" stroke="#c0c0c0" stroke-width="2" points="130.2928,-334.8082 132.1658,-324.3802 124.1986,-331.3642 130.2928,-334.8082"/>
</g>
<!-- 4 -->
<g id="node5" class="node">
<title>4</title>
<path fill="none" stroke="#d8ac56" stroke-width="2" d="M1339.7319,-324C1339.7319,-324 1269.7319,-324 1269.7319,-324 1263.7319,-324 1257.7319,-318 1257.7319,-312 1257.7319,-312 1257.7319,-300 1257.7319,-300 1257.7319,-294 1263.7319,-288 1269.7319,-288 1269.7319,-288 1339.7319,-288 1339.7319,-288 1345.7319,-288 1351.7319,-294 1351.7319,-300 1351.7319,-300 1351.7319,-312 1351.7319,-312 1351.7319,-318 1345.7319,-324 1339.7319,-324"/>
<text text-anchor="middle" x="1304.7319" y="-309" font-family="sans" font-size="10.00" fill="#000000">fastqc</text>
<text text-anchor="middle" x="1304.7319" y="-298" font-family="sans" font-size="10.00" fill="#000000">tool: merge_lanes</text>
</g>
<!-- 4&#45;&gt;1 -->
<g id="edge7" class="edge">
<title>4&#45;&gt;1</title>
<path fill="none" stroke="#c0c0c0" stroke-width="2" d="M1308.7748,-287.9469C1315.0963,-254.4835 1322.9607,-182.717 1284.7319,-144 1259.706,-118.6544 1020.057,-99.2267 926.182,-92.5297"/>
<polygon fill="#c0c0c0" stroke="#c0c0c0" stroke-width="2" points="926.2196,-89.0238 915.9984,-91.8125 925.7278,-96.0065 926.2196,-89.0238"/>
</g>
<!-- 5 -->
<g id="node6" class="node">
<title>5</title>
<path fill="none" stroke="#80d856" stroke-width="2" d="M1506.7319,-700C1506.7319,-700 1402.7319,-700 1402.7319,-700 1396.7319,-700 1390.7319,-694 1390.7319,-688 1390.7319,-688 1390.7319,-660 1390.7319,-660 1390.7319,-654 1396.7319,-648 1402.7319,-648 1402.7319,-648 1506.7319,-648 1506.7319,-648 1512.7319,-648 1518.7319,-654 1518.7319,-660 1518.7319,-660 1518.7319,-688 1518.7319,-688 1518.7319,-694 1512.7319,-700 1506.7319,-700"/>
<text text-anchor="middle" x="1454.7319" y="-688" font-family="sans" font-size="10.00" fill="#000000">merge_lanes</text>
<text text-anchor="middle" x="1454.7319" y="-677" font-family="sans" font-size="10.00" fill="#000000">library: lib1</text>
<text text-anchor="middle" x="1454.7319" y="-666" font-family="sans" font-size="10.00" fill="#000000">read_type_trim: collapsed</text>
<text text-anchor="middle" x="1454.7319" y="-655" font-family="sans" font-size="10.00" fill="#000000">sample: HD827sonic_1</text>
</g>
<!-- 5&#45;&gt;4 -->
<g id="edge31" class="edge">
<title>5&#45;&gt;4</title>
<path fill="none" stroke="#c0c0c0" stroke-width="2" d="M1390.5529,-657.0457C1366.2795,-647.5608 1340.495,-633.2282 1323.7319,-612 1298.3962,-579.9156 1304.7319,-562.8816 1304.7319,-522 1304.7319,-522 1304.7319,-522 1304.7319,-450 1304.7319,-409.876 1304.7319,-363.4631 1304.7319,-334.4177"/>
<polygon fill="#c0c0c0" stroke="#c0c0c0" stroke-width="2" points="1308.232,-334.1853 1304.7319,-324.1854 1301.232,-334.1854 1308.232,-334.1853"/>
</g>
<!-- 11 -->
<g id="node12" class="node">
<title>11</title>
<path fill="none" stroke="#56d882" stroke-width="2" d="M1414.7319,-612C1414.7319,-612 1344.7319,-612 1344.7319,-612 1338.7319,-612 1332.7319,-606 1332.7319,-600 1332.7319,-600 1332.7319,-588 1332.7319,-588 1332.7319,-582 1338.7319,-576 1344.7319,-576 1344.7319,-576 1414.7319,-576 1414.7319,-576 1420.7319,-576 1426.7319,-582 1426.7319,-588 1426.7319,-588 1426.7319,-600 1426.7319,-600 1426.7319,-606 1420.7319,-612 1414.7319,-612"/>
<text text-anchor="middle" x="1379.7319" y="-597" font-family="sans" font-size="10.00" fill="#000000">nonpareil_infer</text>
<text text-anchor="middle" x="1379.7319" y="-586" font-family="sans" font-size="10.00" fill="#000000">tool: merge_lanes</text>
</g>
<!-- 5&#45;&gt;11 -->
<g id="edge35" class="edge">
<title>5&#45;&gt;11</title>
<path fill="none" stroke="#c0c0c0" stroke-width="2" d="M1430.1741,-647.805C1421.7154,-638.7823 1412.2552,-628.6915 1403.8332,-619.7081"/>
<polygon fill="#c0c0c0" stroke="#c0c0c0" stroke-width="2" points="1406.1434,-617.0548 1396.7506,-612.1532 1401.0366,-621.8424 1406.1434,-617.0548"/>
</g>
<!-- 28 -->
<g id="node29" class="node">
<title>28</title>
<path fill="none" stroke="#d88556" stroke-width="2" d="M1523.2319,-540C1523.2319,-540 1464.2319,-540 1464.2319,-540 1458.2319,-540 1452.2319,-534 1452.2319,-528 1452.2319,-528 1452.2319,-516 1452.2319,-516 1452.2319,-510 1458.2319,-504 1464.2319,-504 1464.2319,-504 1523.2319,-504 1523.2319,-504 1529.2319,-504 1535.2319,-510 1535.2319,-516 1535.2319,-516 1535.2319,-528 1535.2319,-528 1535.2319,-534 1529.2319,-540 1523.2319,-540"/>
<text text-anchor="middle" x="1493.7319" y="-519.5" font-family="sans" font-size="10.00" fill="#000000">extend_tadpole</text>
</g>
<!-- 5&#45;&gt;28 -->
<g id="edge55" class="edge">
<title>5&#45;&gt;28</title>
<path fill="none" stroke="#c0c0c0" stroke-width="2" d="M1458.5948,-647.9389C1461.8304,-628.0352 1467.0007,-600.0313 1473.7319,-576 1476.1739,-567.2817 1479.3911,-557.9739 1482.5294,-549.5847"/>
<polygon fill="#c0c0c0" stroke="#c0c0c0" stroke-width="2" points="1485.797,-550.8386 1486.126,-540.2489 1479.265,-548.3221 1485.797,-550.8386"/>
</g>
<!-- 29 -->
<g id="node30" class="node">
<title>29</title>
<path fill="none" stroke="#d6d856" stroke-width="2" d="M1524.7319,-612C1524.7319,-612 1494.7319,-612 1494.7319,-612 1488.7319,-612 1482.7319,-606 1482.7319,-600 1482.7319,-600 1482.7319,-588 1482.7319,-588 1482.7319,-582 1488.7319,-576 1494.7319,-576 1494.7319,-576 1524.7319,-576 1524.7319,-576 1530.7319,-576 1536.7319,-582 1536.7319,-588 1536.7319,-588 1536.7319,-600 1536.7319,-600 1536.7319,-606 1530.7319,-612 1524.7319,-612"/>
<text text-anchor="middle" x="1509.7319" y="-591.5" font-family="sans" font-size="10.00" fill="#000000">loglog</text>
</g>
<!-- 5&#45;&gt;29 -->
<g id="edge57" class="edge">
<title>5&#45;&gt;29</title>
<path fill="none" stroke="#c0c0c0" stroke-width="2" d="M1472.741,-647.805C1478.7561,-639.0557 1485.4617,-629.3021 1491.4941,-620.5277"/>
<polygon fill="#c0c0c0" stroke="#c0c0c0" stroke-width="2" points="1494.4704,-622.3765 1497.2516,-612.1532 1488.7021,-618.4108 1494.4704,-622.3765"/>
</g>
<!-- 39 -->
<g id="node40" class="node">
<title>39</title>
<path fill="none" stroke="#56a9d8" stroke-width="2" d="M1618.2319,-324C1618.2319,-324 1575.2319,-324 1575.2319,-324 1569.2319,-324 1563.2319,-318 1563.2319,-312 1563.2319,-312 1563.2319,-300 1563.2319,-300 1563.2319,-294 1569.2319,-288 1575.2319,-288 1575.2319,-288 1618.2319,-288 1618.2319,-288 1624.2319,-288 1630.2319,-294 1630.2319,-300 1630.2319,-300 1630.2319,-312 1630.2319,-312 1630.2319,-318 1624.2319,-324 1618.2319,-324"/>
<text text-anchor="middle" x="1596.7319" y="-303.5" font-family="sans" font-size="10.00" fill="#000000">seqkit_grep</text>
</g>
<!-- 5&#45;&gt;39 -->
<g id="edge67" class="edge">
<title>5&#45;&gt;39</title>
<path fill="none" stroke="#c0c0c0" stroke-width="2" d="M1518.9018,-648.9314C1568.8467,-624.7301 1629.7319,-582.7657 1629.7319,-522 1629.7319,-522 1629.7319,-522 1629.7319,-450 1629.7319,-408.8829 1616.7909,-362.7926 1607.1167,-334.082"/>
<polygon fill="#c0c0c0" stroke="#c0c0c0" stroke-width="2" points="1610.3177,-332.6302 1603.7304,-324.3321 1603.7051,-334.9269 1610.3177,-332.6302"/>
</g>
<!-- 6 -->
<g id="node7" class="node">
<title>6</title>
<path fill="none" stroke="#d8ac56" stroke-width="2" d="M583.7319,-540C583.7319,-540 513.7319,-540 513.7319,-540 507.7319,-540 501.7319,-534 501.7319,-528 501.7319,-528 501.7319,-516 501.7319,-516 501.7319,-510 507.7319,-504 513.7319,-504 513.7319,-504 583.7319,-504 583.7319,-504 589.7319,-504 595.7319,-510 595.7319,-516 595.7319,-516 595.7319,-528 595.7319,-528 595.7319,-534 589.7319,-540 583.7319,-540"/>
<text text-anchor="middle" x="548.7319" y="-525" font-family="sans" font-size="10.00" fill="#000000">fastqc</text>
<text text-anchor="middle" x="548.7319" y="-514" font-family="sans" font-size="10.00" fill="#000000">tool: merge_lanes</text>
</g>
<!-- 6&#45;&gt;1 -->
<g id="edge8" class="edge">
<title>6&#45;&gt;1</title>
<path fill="none" stroke="#c0c0c0" stroke-width="2" d="M545.3582,-503.9152C535.0826,-442.6372 510.9721,-241.2741 616.7319,-144 650.5354,-112.9088 785.0348,-98.1669 851.3596,-92.6742"/>
<polygon fill="#c0c0c0" stroke="#c0c0c0" stroke-width="2" points="851.7044,-96.1579 861.3931,-91.8709 851.1457,-89.1802 851.7044,-96.1579"/>
</g>
<!-- 7 -->
<g id="node8" class="node">
<title>7</title>
<path fill="none" stroke="#80d856" stroke-width="2" d="M754.7319,-700C754.7319,-700 650.7319,-700 650.7319,-700 644.7319,-700 638.7319,-694 638.7319,-688 638.7319,-688 638.7319,-660 638.7319,-660 638.7319,-654 644.7319,-648 650.7319,-648 650.7319,-648 754.7319,-648 754.7319,-648 760.7319,-648 766.7319,-654 766.7319,-660 766.7319,-660 766.7319,-688 766.7319,-688 766.7319,-694 760.7319,-700 754.7319,-700"/>
<text text-anchor="middle" x="702.7319" y="-688" font-family="sans" font-size="10.00" fill="#000000">merge_lanes</text>
<text text-anchor="middle" x="702.7319" y="-677" font-family="sans" font-size="10.00" fill="#000000">library: lib1</text>
<text text-anchor="middle" x="702.7319" y="-666" font-family="sans" font-size="10.00" fill="#000000">read_type_trim: collapsed</text>
<text text-anchor="middle" x="702.7319" y="-655" font-family="sans" font-size="10.00" fill="#000000">sample: HD827sonic_2</text>
</g>
<!-- 7&#45;&gt;6 -->
<g id="edge32" class="edge">
<title>7&#45;&gt;6</title>
<path fill="none" stroke="#c0c0c0" stroke-width="2" d="M676.2584,-647.8703C647.6809,-619.6639 602.4792,-575.0493 574.2707,-547.2071"/>
<polygon fill="#c0c0c0" stroke="#c0c0c0" stroke-width="2" points="576.7153,-544.7022 567.1395,-540.1685 571.798,-549.6842 576.7153,-544.7022"/>
</g>
<!-- 15 -->
<g id="node16" class="node">
<title>15</title>
<path fill="none" stroke="#56d882" stroke-width="2" d="M829.7319,-612C829.7319,-612 759.7319,-612 759.7319,-612 753.7319,-612 747.7319,-606 747.7319,-600 747.7319,-600 747.7319,-588 747.7319,-588 747.7319,-582 753.7319,-576 759.7319,-576 759.7319,-576 829.7319,-576 829.7319,-576 835.7319,-576 841.7319,-582 841.7319,-588 841.7319,-588 841.7319,-600 841.7319,-600 841.7319,-606 835.7319,-612 829.7319,-612"/>
<text text-anchor="middle" x="794.7319" y="-597" font-family="sans" font-size="10.00" fill="#000000">nonpareil_infer</text>
<text text-anchor="middle" x="794.7319" y="-586" font-family="sans" font-size="10.00" fill="#000000">tool: merge_lanes</text>
</g>
<!-- 7&#45;&gt;15 -->
<g id="edge39" class="edge">
<title>7&#45;&gt;15</title>
<path fill="none" stroke="#c0c0c0" stroke-width="2" d="M732.8562,-647.805C743.5467,-638.5089 755.5411,-628.079 766.1033,-618.8945"/>
<polygon fill="#c0c0c0" stroke="#c0c0c0" stroke-width="2" points="768.6063,-621.3562 773.8557,-612.1532 764.013,-616.0739 768.6063,-621.3562"/>
</g>
<!-- 25 -->
<g id="node26" class="node">
<title>25</title>
<path fill="none" stroke="#d88556" stroke-width="2" d="M698.2319,-540C698.2319,-540 639.2319,-540 639.2319,-540 633.2319,-540 627.2319,-534 627.2319,-528 627.2319,-528 627.2319,-516 627.2319,-516 627.2319,-510 633.2319,-504 639.2319,-504 639.2319,-504 698.2319,-504 698.2319,-504 704.2319,-504 710.2319,-510 710.2319,-516 710.2319,-516 710.2319,-528 710.2319,-528 710.2319,-534 704.2319,-540 698.2319,-540"/>
<text text-anchor="middle" x="668.7319" y="-519.5" font-family="sans" font-size="10.00" fill="#000000">extend_tadpole</text>
</g>
<!-- 7&#45;&gt;25 -->
<g id="edge51" class="edge">
<title>7&#45;&gt;25</title>
<path fill="none" stroke="#c0c0c0" stroke-width="2" d="M683.4794,-647.9062C676.7969,-637.3174 670.1301,-624.6197 666.7319,-612 661.3222,-591.9097 662.0796,-568.3763 664.053,-550.4135"/>
<polygon fill="#c0c0c0" stroke="#c0c0c0" stroke-width="2" points="667.5508,-550.655 665.3561,-540.2899 660.608,-549.7612 667.5508,-550.655"/>
</g>
<!-- 26 -->
<g id="node27" class="node">
<title>26</title>
<path fill="none" stroke="#d6d856" stroke-width="2" d="M717.7319,-612C717.7319,-612 687.7319,-612 687.7319,-612 681.7319,-612 675.7319,-606 675.7319,-600 675.7319,-600 675.7319,-588 675.7319,-588 675.7319,-582 681.7319,-576 687.7319,-576 687.7319,-576 717.7319,-576 717.7319,-576 723.7319,-576 729.7319,-582 729.7319,-588 729.7319,-588 729.7319,-600 729.7319,-600 729.7319,-606 723.7319,-612 717.7319,-612"/>
<text text-anchor="middle" x="702.7319" y="-591.5" font-family="sans" font-size="10.00" fill="#000000">loglog</text>
</g>
<!-- 7&#45;&gt;26 -->
<g id="edge53" class="edge">
<title>7&#45;&gt;26</title>
<path fill="none" stroke="#c0c0c0" stroke-width="2" d="M702.7319,-647.805C702.7319,-639.6026 702.7319,-630.5174 702.7319,-622.1839"/>
<polygon fill="#c0c0c0" stroke="#c0c0c0" stroke-width="2" points="706.232,-622.1532 702.7319,-612.1532 699.232,-622.1533 706.232,-622.1532"/>
</g>
<!-- 48 -->
<g id="node49" class="node">
<title>48</title>
<path fill="none" stroke="#56a9d8" stroke-width="2" d="M803.2319,-324C803.2319,-324 760.2319,-324 760.2319,-324 754.2319,-324 748.2319,-318 748.2319,-312 748.2319,-312 748.2319,-300 748.2319,-300 748.2319,-294 754.2319,-288 760.2319,-288 760.2319,-288 803.2319,-288 803.2319,-288 809.2319,-288 815.2319,-294 815.2319,-300 815.2319,-300 815.2319,-312 815.2319,-312 815.2319,-318 809.2319,-324 803.2319,-324"/>
<text text-anchor="middle" x="781.7319" y="-303.5" font-family="sans" font-size="10.00" fill="#000000">seqkit_grep</text>
</g>
<!-- 7&#45;&gt;48 -->
<g id="edge79" class="edge">
<title>7&#45;&gt;48</title>
<path fill="none" stroke="#c0c0c0" stroke-width="2" d="M766.7454,-661.5704C796.4183,-652.6101 829.6915,-637.4376 850.7319,-612 876.7884,-580.4981 869.7319,-562.8816 869.7319,-522 869.7319,-522 869.7319,-522 869.7319,-450 869.7319,-403.0672 835.2763,-358.4873 809.4851,-331.6918"/>
<polygon fill="#c0c0c0" stroke="#c0c0c0" stroke-width="2" points="811.6701,-328.9247 802.1421,-324.2913 806.7011,-333.8551 811.6701,-328.9247"/>
</g>
<!-- 8 -->
<g id="node9" class="node">
<title>8</title>
<path fill="none" stroke="#d8ac56" stroke-width="2" d="M979.7319,-540C979.7319,-540 909.7319,-540 909.7319,-540 903.7319,-540 897.7319,-534 897.7319,-528 897.7319,-528 897.7319,-516 897.7319,-516 897.7319,-510 903.7319,-504 909.7319,-504 909.7319,-504 979.7319,-504 979.7319,-504 985.7319,-504 991.7319,-510 991.7319,-516 991.7319,-516 991.7319,-528 991.7319,-528 991.7319,-534 985.7319,-540 979.7319,-540"/>
<text text-anchor="middle" x="944.7319" y="-525" font-family="sans" font-size="10.00" fill="#000000">fastqc</text>
<text text-anchor="middle" x="944.7319" y="-514" font-family="sans" font-size="10.00" fill="#000000">tool: merge_lanes</text>
</g>
<!-- 8&#45;&gt;1 -->
<g id="edge9" class="edge">
<title>8&#45;&gt;1</title>
<path fill="none" stroke="#c0c0c0" stroke-width="2" d="M936.8852,-503.746C926.0242,-476.7781 907.7319,-424.4617 907.7319,-378 907.7319,-378 907.7319,-378 907.7319,-234 907.7319,-193.5282 900.264,-147.2037 894.6919,-118.2725"/>
<polygon fill="#c0c0c0" stroke="#c0c0c0" stroke-width="2" points="898.0496,-117.2111 892.6687,-108.0844 891.1837,-118.5746 898.0496,-117.2111"/>
</g>
<!-- 9 -->
<g id="node10" class="node">
<title>9</title>
<path fill="none" stroke="#80d856" stroke-width="2" d="M1146.7319,-700C1146.7319,-700 1042.7319,-700 1042.7319,-700 1036.7319,-700 1030.7319,-694 1030.7319,-688 1030.7319,-688 1030.7319,-660 1030.7319,-660 1030.7319,-654 1036.7319,-648 1042.7319,-648 1042.7319,-648 1146.7319,-648 1146.7319,-648 1152.7319,-648 1158.7319,-654 1158.7319,-660 1158.7319,-660 1158.7319,-688 1158.7319,-688 1158.7319,-694 1152.7319,-700 1146.7319,-700"/>
<text text-anchor="middle" x="1094.7319" y="-688" font-family="sans" font-size="10.00" fill="#000000">merge_lanes</text>
<text text-anchor="middle" x="1094.7319" y="-677" font-family="sans" font-size="10.00" fill="#000000">library: lib2</text>
<text text-anchor="middle" x="1094.7319" y="-666" font-family="sans" font-size="10.00" fill="#000000">read_type_trim: collapsed</text>
<text text-anchor="middle" x="1094.7319" y="-655" font-family="sans" font-size="10.00" fill="#000000">sample: HD827sonic_2</text>
</g>
<!-- 9&#45;&gt;8 -->
<g id="edge33" class="edge">
<title>9&#45;&gt;8</title>
<path fill="none" stroke="#c0c0c0" stroke-width="2" d="M1030.5529,-657.0457C1006.2795,-647.5608 980.495,-633.2282 963.7319,-612 949.9538,-594.5518 945.5422,-569.4641 944.3846,-550.2062"/>
<polygon fill="#c0c0c0" stroke="#c0c0c0" stroke-width="2" points="947.8819,-550.0654 944.0374,-540.1927 940.8861,-550.308 947.8819,-550.0654"/>
</g>
<!-- 17 -->
<g id="node18" class="node">
<title>17</title>
<path fill="none" stroke="#56d882" stroke-width="2" d="M1054.7319,-612C1054.7319,-612 984.7319,-612 984.7319,-612 978.7319,-612 972.7319,-606 972.7319,-600 972.7319,-600 972.7319,-588 972.7319,-588 972.7319,-582 978.7319,-576 984.7319,-576 984.7319,-576 1054.7319,-576 1054.7319,-576 1060.7319,-576 1066.7319,-582 1066.7319,-588 1066.7319,-588 1066.7319,-600 1066.7319,-600 1066.7319,-606 1060.7319,-612 1054.7319,-612"/>
<text text-anchor="middle" x="1019.7319" y="-597" font-family="sans" font-size="10.00" fill="#000000">nonpareil_infer</text>
<text text-anchor="middle" x="1019.7319" y="-586" font-family="sans" font-size="10.00" fill="#000000">tool: merge_lanes</text>
</g>
<!-- 9&#45;&gt;17 -->
<g id="edge41" class="edge">
<title>9&#45;&gt;17</title>
<path fill="none" stroke="#c0c0c0" stroke-width="2" d="M1070.1741,-647.805C1061.7154,-638.7823 1052.2552,-628.6915 1043.8332,-619.7081"/>
<polygon fill="#c0c0c0" stroke="#c0c0c0" stroke-width="2" points="1046.1434,-617.0548 1036.7506,-612.1532 1041.0366,-621.8424 1046.1434,-617.0548"/>
</g>
<!-- 19 -->
<g id="node20" class="node">
<title>19</title>
<path fill="none" stroke="#d88556" stroke-width="2" d="M1160.2319,-540C1160.2319,-540 1101.2319,-540 1101.2319,-540 1095.2319,-540 1089.2319,-534 1089.2319,-528 1089.2319,-528 1089.2319,-516 1089.2319,-516 1089.2319,-510 1095.2319,-504 1101.2319,-504 1101.2319,-504 1160.2319,-504 1160.2319,-504 1166.2319,-504 1172.2319,-510 1172.2319,-516 1172.2319,-516 1172.2319,-528 1172.2319,-528 1172.2319,-534 1166.2319,-540 1160.2319,-540"/>
<text text-anchor="middle" x="1130.7319" y="-519.5" font-family="sans" font-size="10.00" fill="#000000">extend_tadpole</text>
</g>
<!-- 9&#45;&gt;19 -->
<g id="edge43" class="edge">
<title>9&#45;&gt;19</title>
<path fill="none" stroke="#c0c0c0" stroke-width="2" d="M1099.0104,-647.6158C1102.4277,-627.7866 1107.6426,-600.0232 1113.7319,-576 1115.8952,-567.4656 1118.626,-558.2921 1121.2623,-549.9716"/>
<polygon fill="#c0c0c0" stroke="#c0c0c0" stroke-width="2" points="1124.6284,-550.938 1124.3867,-540.3459 1117.9703,-548.7768 1124.6284,-550.938"/>
</g>
<!-- 20 -->
<g id="node21" class="node">
<title>20</title>
<path fill="none" stroke="#d6d856" stroke-width="2" d="M1164.7319,-612C1164.7319,-612 1134.7319,-612 1134.7319,-612 1128.7319,-612 1122.7319,-606 1122.7319,-600 1122.7319,-600 1122.7319,-588 1122.7319,-588 1122.7319,-582 1128.7319,-576 1134.7319,-576 1134.7319,-576 1164.7319,-576 1164.7319,-576 1170.7319,-576 1176.7319,-582 1176.7319,-588 1176.7319,-588 1176.7319,-600 1176.7319,-600 1176.7319,-606 1170.7319,-612 1164.7319,-612"/>
<text text-anchor="middle" x="1149.7319" y="-591.5" font-family="sans" font-size="10.00" fill="#000000">loglog</text>
</g>
<!-- 9&#45;&gt;20 -->
<g id="edge45" class="edge">
<title>9&#45;&gt;20</title>
<path fill="none" stroke="#c0c0c0" stroke-width="2" d="M1112.741,-647.805C1118.7561,-639.0557 1125.4617,-629.3021 1131.4941,-620.5277"/>
<polygon fill="#c0c0c0" stroke="#c0c0c0" stroke-width="2" points="1134.4704,-622.3765 1137.2516,-612.1532 1128.7021,-618.4108 1134.4704,-622.3765"/>
</g>
<!-- 45 -->
<g id="node46" class="node">
<title>45</title>
<path fill="none" stroke="#56a9d8" stroke-width="2" d="M1194.2319,-324C1194.2319,-324 1151.2319,-324 1151.2319,-324 1145.2319,-324 1139.2319,-318 1139.2319,-312 1139.2319,-312 1139.2319,-300 1139.2319,-300 1139.2319,-294 1145.2319,-288 1151.2319,-288 1151.2319,-288 1194.2319,-288 1194.2319,-288 1200.2319,-288 1206.2319,-294 1206.2319,-300 1206.2319,-300 1206.2319,-312 1206.2319,-312 1206.2319,-318 1200.2319,-324 1194.2319,-324"/>
<text text-anchor="middle" x="1172.7319" y="-303.5" font-family="sans" font-size="10.00" fill="#000000">seqkit_grep</text>
</g>
<!-- 9&#45;&gt;45 -->
<g id="edge75" class="edge">
<title>9&#45;&gt;45</title>
<path fill="none" stroke="#c0c0c0" stroke-width="2" d="M1145.039,-647.8374C1186.9184,-622.0443 1239.7319,-578.3466 1239.7319,-522 1239.7319,-522 1239.7319,-522 1239.7319,-450 1239.7319,-409.1184 1239.15,-396.4977 1220.7319,-360 1215.54,-349.7116 1207.8924,-339.8528 1200.2203,-331.4403"/>
<polygon fill="#c0c0c0" stroke="#c0c0c0" stroke-width="2" points="1202.6824,-328.9508 1193.2375,-324.1504 1197.6273,-333.793 1202.6824,-328.9508"/>
</g>
<!-- 10 -->
<g id="node11" class="node">
<title>10</title>
<path fill="none" stroke="#56d8a9" stroke-width="2" d="M1406.2319,-540C1406.2319,-540 1353.2319,-540 1353.2319,-540 1347.2319,-540 1341.2319,-534 1341.2319,-528 1341.2319,-528 1341.2319,-516 1341.2319,-516 1341.2319,-510 1347.2319,-504 1353.2319,-504 1353.2319,-504 1406.2319,-504 1406.2319,-504 1412.2319,-504 1418.2319,-510 1418.2319,-516 1418.2319,-516 1418.2319,-528 1418.2319,-528 1418.2319,-534 1412.2319,-540 1406.2319,-540"/>
<text text-anchor="middle" x="1379.7319" y="-519.5" font-family="sans" font-size="10.00" fill="#000000">nonpareil_plot</text>
</g>
<!-- 10&#45;&gt;1 -->
<g id="edge10" class="edge">
<title>10&#45;&gt;1</title>
<path fill="none" stroke="#c0c0c0" stroke-width="2" d="M1379.7319,-503.8146C1379.7319,-476.4983 1379.7319,-423.25 1379.7319,-378 1379.7319,-378 1379.7319,-378 1379.7319,-234 1379.7319,-183.0515 1353.0628,-169.1103 1308.7319,-144 1243.5854,-107.0991 1016.2241,-94.7335 926.0202,-91.2205"/>
<polygon fill="#c0c0c0" stroke="#c0c0c0" stroke-width="2" points="926.0933,-87.7209 915.9692,-90.8439 925.8311,-94.716 926.0933,-87.7209"/>
</g>
<!-- 11&#45;&gt;10 -->
<g id="edge34" class="edge">
<title>11&#45;&gt;10</title>
<path fill="none" stroke="#c0c0c0" stroke-width="2" d="M1379.7319,-575.8314C1379.7319,-568.131 1379.7319,-558.9743 1379.7319,-550.4166"/>
<polygon fill="#c0c0c0" stroke="#c0c0c0" stroke-width="2" points="1383.232,-550.4132 1379.7319,-540.4133 1376.232,-550.4133 1383.232,-550.4132"/>
</g>
<!-- 12 -->
<g id="node13" class="node">
<title>12</title>
<path fill="none" stroke="#56d8a9" stroke-width="2" d="M450.2319,-180C450.2319,-180 397.2319,-180 397.2319,-180 391.2319,-180 385.2319,-174 385.2319,-168 385.2319,-168 385.2319,-156 385.2319,-156 385.2319,-150 391.2319,-144 397.2319,-144 397.2319,-144 450.2319,-144 450.2319,-144 456.2319,-144 462.2319,-150 462.2319,-156 462.2319,-156 462.2319,-168 462.2319,-168 462.2319,-174 456.2319,-180 450.2319,-180"/>
<text text-anchor="middle" x="423.7319" y="-159.5" font-family="sans" font-size="10.00" fill="#000000">nonpareil_plot</text>
</g>
<!-- 12&#45;&gt;1 -->
<g id="edge11" class="edge">
<title>12&#45;&gt;1</title>
<path fill="none" stroke="#c0c0c0" stroke-width="2" d="M462.3444,-148.5942C468.1264,-146.8773 474.0528,-145.2767 479.7319,-144 614.937,-113.6045 779.4001,-98.3082 851.6615,-92.6501"/>
<polygon fill="#c0c0c0" stroke="#c0c0c0" stroke-width="2" points="851.9366,-96.1394 861.6396,-91.8846 851.4011,-89.1599 851.9366,-96.1394"/>
</g>
<!-- 13&#45;&gt;12 -->
<g id="edge36" class="edge">
<title>13&#45;&gt;12</title>
<path fill="none" stroke="#c0c0c0" stroke-width="2" d="M385.7319,-575.8146C385.7319,-548.4983 385.7319,-495.25 385.7319,-450 385.7319,-450 385.7319,-450 385.7319,-378 385.7319,-309.5225 404.4862,-230.6555 415.6442,-189.7924"/>
<polygon fill="#c0c0c0" stroke="#c0c0c0" stroke-width="2" points="419.0554,-190.5895 418.3681,-180.017 412.3123,-188.7106 419.0554,-190.5895"/>
</g>
<!-- 14 -->
<g id="node15" class="node">
<title>14</title>
<path fill="none" stroke="#56d8a9" stroke-width="2" d="M827.2319,-468C827.2319,-468 774.2319,-468 774.2319,-468 768.2319,-468 762.2319,-462 762.2319,-456 762.2319,-456 762.2319,-444 762.2319,-444 762.2319,-438 768.2319,-432 774.2319,-432 774.2319,-432 827.2319,-432 827.2319,-432 833.2319,-432 839.2319,-438 839.2319,-444 839.2319,-444 839.2319,-456 839.2319,-456 839.2319,-462 833.2319,-468 827.2319,-468"/>
<text text-anchor="middle" x="800.7319" y="-447.5" font-family="sans" font-size="10.00" fill="#000000">nonpareil_plot</text>
</g>
<!-- 14&#45;&gt;1 -->
<g id="edge12" class="edge">
<title>14&#45;&gt;1</title>
<path fill="none" stroke="#c0c0c0" stroke-width="2" d="M805.4541,-431.7362C814.449,-396.8524 834.5833,-318.3111 850.7319,-252 862.1545,-205.0956 874.8566,-150.3971 882.3005,-118.0664"/>
<polygon fill="#c0c0c0" stroke="#c0c0c0" stroke-width="2" points="885.7844,-118.5331 884.6139,-108.0031 878.9624,-116.9647 885.7844,-118.5331"/>
</g>
<!-- 15&#45;&gt;14 -->
<g id="edge38" class="edge">
<title>15&#45;&gt;14</title>
<path fill="none" stroke="#c0c0c0" stroke-width="2" d="M795.4918,-575.7623C796.5152,-551.201 798.3466,-507.2474 799.5505,-478.3541"/>
<polygon fill="#c0c0c0" stroke="#c0c0c0" stroke-width="2" points="803.0588,-478.2267 799.9782,-468.0896 796.0648,-477.9352 803.0588,-478.2267"/>
</g>
<!-- 16 -->
<g id="node17" class="node">
<title>16</title>
<path fill="none" stroke="#56d8a9" stroke-width="2" d="M1001.2319,-468C1001.2319,-468 948.2319,-468 948.2319,-468 942.2319,-468 936.2319,-462 936.2319,-456 936.2319,-456 936.2319,-444 936.2319,-444 936.2319,-438 942.2319,-432 948.2319,-432 948.2319,-432 1001.2319,-432 1001.2319,-432 1007.2319,-432 1013.2319,-438 1013.2319,-444 1013.2319,-444 1013.2319,-456 1013.2319,-456 1013.2319,-462 1007.2319,-468 1001.2319,-468"/>
<text text-anchor="middle" x="974.7319" y="-447.5" font-family="sans" font-size="10.00" fill="#000000">nonpareil_plot</text>
</g>
<!-- 16&#45;&gt;1 -->
<g id="edge13" class="edge">
<title>16&#45;&gt;1</title>
<path fill="none" stroke="#c0c0c0" stroke-width="2" d="M968.5818,-431.5984C960.0691,-404.4466 945.7319,-351.9035 945.7319,-306 945.7319,-306 945.7319,-306 945.7319,-234 945.7319,-192.6022 938.0273,-182.0557 921.7319,-144 917.7937,-134.8027 912.4816,-125.3159 907.2715,-116.9093"/>
<polygon fill="#c0c0c0" stroke="#c0c0c0" stroke-width="2" points="910.0762,-114.7994 901.7277,-108.276 904.186,-118.5817 910.0762,-114.7994"/>
</g>
<!-- 17&#45;&gt;16 -->
<g id="edge40" class="edge">
<title>17&#45;&gt;16</title>
<path fill="none" stroke="#c0c0c0" stroke-width="2" d="M1017.1968,-575.7268C1014.3343,-557.2955 1008.9726,-528.1857 1000.7319,-504 997.6598,-494.9835 993.4599,-485.5101 989.3318,-477.0596"/>
<polygon fill="#c0c0c0" stroke="#c0c0c0" stroke-width="2" points="992.4024,-475.3758 984.7654,-468.0323 986.1561,-478.5354 992.4024,-475.3758"/>
</g>
<!-- 18 -->
<g id="node19" class="node">
<title>18</title>
<path fill="none" stroke="#d8ac56" stroke-width="2" d="M1199.7319,-396C1199.7319,-396 1121.7319,-396 1121.7319,-396 1115.7319,-396 1109.7319,-390 1109.7319,-384 1109.7319,-384 1109.7319,-372 1109.7319,-372 1109.7319,-366 1115.7319,-360 1121.7319,-360 1121.7319,-360 1199.7319,-360 1199.7319,-360 1205.7319,-360 1211.7319,-366 1211.7319,-372 1211.7319,-372 1211.7319,-384 1211.7319,-384 1211.7319,-390 1205.7319,-396 1199.7319,-396"/>
<text text-anchor="middle" x="1160.7319" y="-381" font-family="sans" font-size="10.00" fill="#000000">fastqc</text>
<text text-anchor="middle" x="1160.7319" y="-370" font-family="sans" font-size="10.00" fill="#000000">tool: extend/tadpole</text>
</g>
<!-- 18&#45;&gt;1 -->
<g id="edge14" class="edge">
<title>18&#45;&gt;1</title>
<path fill="none" stroke="#c0c0c0" stroke-width="2" d="M1148.8517,-359.9735C1116.4403,-311.1635 1026.2146,-177.832 985.7319,-144 967.4301,-128.7049 944.1561,-115.5787 924.9936,-106.0985"/>
<polygon fill="#c0c0c0" stroke="#c0c0c0" stroke-width="2" points="926.4847,-102.9319 915.9566,-101.744 923.446,-109.238 926.4847,-102.9319"/>
</g>
<!-- 19&#45;&gt;18 -->
<g id="edge42" class="edge">
<title>19&#45;&gt;18</title>
<path fill="none" stroke="#c0c0c0" stroke-width="2" d="M1134.5315,-503.7623C1139.6709,-479.0928 1148.8861,-434.8598 1154.9042,-405.9731"/>
<polygon fill="#c0c0c0" stroke="#c0c0c0" stroke-width="2" points="1158.3501,-406.5933 1156.9633,-396.0896 1151.4972,-405.1656 1158.3501,-406.5933"/>
</g>
<!-- 31 -->
<g id="node32" class="node">
<title>31</title>
<path fill="none" stroke="#5682d8" stroke-width="2" d="M1073.7319,-468C1073.7319,-468 1043.7319,-468 1043.7319,-468 1037.7319,-468 1031.7319,-462 1031.7319,-456 1031.7319,-456 1031.7319,-444 1031.7319,-444 1031.7319,-438 1037.7319,-432 1043.7319,-432 1043.7319,-432 1073.7319,-432 1073.7319,-432 1079.7319,-432 1085.7319,-438 1085.7319,-444 1085.7319,-444 1085.7319,-456 1085.7319,-456 1085.7319,-462 1079.7319,-468 1073.7319,-468"/>
<text text-anchor="middle" x="1058.7319" y="-447.5" font-family="sans" font-size="10.00" fill="#000000">vsearch</text>
</g>
<!-- 19&#45;&gt;31 -->
<g id="edge59" class="edge">
<title>19&#45;&gt;31</title>
<path fill="none" stroke="#c0c0c0" stroke-width="2" d="M1112.5633,-503.8314C1104.0167,-495.2848 1093.6763,-484.9443 1084.3518,-475.6198"/>
<polygon fill="#c0c0c0" stroke="#c0c0c0" stroke-width="2" points="1086.6912,-473.0095 1077.1452,-468.4133 1081.7414,-477.9592 1086.6912,-473.0095"/>
</g>
<!-- 20&#45;&gt;19 -->
<g id="edge44" class="edge">
<title>20&#45;&gt;19</title>
<path fill="none" stroke="#c0c0c0" stroke-width="2" d="M1144.9374,-575.8314C1142.883,-568.0463 1140.4359,-558.7729 1138.1564,-550.1347"/>
<polygon fill="#c0c0c0" stroke="#c0c0c0" stroke-width="2" points="1141.5268,-549.1892 1135.591,-540.4133 1134.7585,-550.9753 1141.5268,-549.1892"/>
</g>
<!-- 21 -->
<g id="node22" class="node">
<title>21</title>
<path fill="none" stroke="#d8ac56" stroke-width="2" d="M345.7319,-324C345.7319,-324 267.7319,-324 267.7319,-324 261.7319,-324 255.7319,-318 255.7319,-312 255.7319,-312 255.7319,-300 255.7319,-300 255.7319,-294 261.7319,-288 267.7319,-288 267.7319,-288 345.7319,-288 345.7319,-288 351.7319,-288 357.7319,-294 357.7319,-300 357.7319,-300 357.7319,-312 357.7319,-312 357.7319,-318 351.7319,-324 345.7319,-324"/>
<text text-anchor="middle" x="306.7319" y="-309" font-family="sans" font-size="10.00" fill="#000000">fastqc</text>
<text text-anchor="middle" x="306.7319" y="-298" font-family="sans" font-size="10.00" fill="#000000">tool: extend/tadpole</text>
</g>
<!-- 21&#45;&gt;1 -->
<g id="edge15" class="edge">
<title>21&#45;&gt;1</title>
<path fill="none" stroke="#c0c0c0" stroke-width="2" d="M308.5912,-287.7673C313.1616,-253.3372 328.2857,-179.069 375.7319,-144 413.8422,-115.8315 739.6526,-97.3267 851.3425,-91.7628"/>
<polygon fill="#c0c0c0" stroke="#c0c0c0" stroke-width="2" points="851.65,-95.252 861.4659,-91.2649 851.306,-88.2605 851.65,-95.252"/>
</g>
<!-- 22&#45;&gt;21 -->
<g id="edge46" class="edge">
<title>22&#45;&gt;21</title>
<path fill="none" stroke="#c0c0c0" stroke-width="2" d="M290.2356,-503.9555C293.3724,-466.3144 300.633,-379.1867 304.3882,-334.1246"/>
<polygon fill="#c0c0c0" stroke="#c0c0c0" stroke-width="2" points="307.8772,-334.4012 305.2198,-324.1451 300.9014,-333.8198 307.8772,-334.4012"/>
</g>
<!-- 35 -->
<g id="node36" class="node">
<title>35</title>
<path fill="none" stroke="#5682d8" stroke-width="2" d="M242.7319,-468C242.7319,-468 212.7319,-468 212.7319,-468 206.7319,-468 200.7319,-462 200.7319,-456 200.7319,-456 200.7319,-444 200.7319,-444 200.7319,-438 206.7319,-432 212.7319,-432 212.7319,-432 242.7319,-432 242.7319,-432 248.7319,-432 254.7319,-438 254.7319,-444 254.7319,-444 254.7319,-456 254.7319,-456 254.7319,-462 248.7319,-468 242.7319,-468"/>
<text text-anchor="middle" x="227.7319" y="-447.5" font-family="sans" font-size="10.00" fill="#000000">vsearch</text>
</g>
<!-- 22&#45;&gt;35 -->
<g id="edge63" class="edge">
<title>22&#45;&gt;35</title>
<path fill="none" stroke="#c0c0c0" stroke-width="2" d="M273.3391,-503.8314C266.2416,-495.454 257.6839,-485.3531 249.9079,-476.1749"/>
<polygon fill="#c0c0c0" stroke="#c0c0c0" stroke-width="2" points="252.4667,-473.7807 243.3321,-468.4133 247.1258,-478.3056 252.4667,-473.7807"/>
</g>
<!-- 23&#45;&gt;22 -->
<g id="edge48" class="edge">
<title>23&#45;&gt;22</title>
<path fill="none" stroke="#c0c0c0" stroke-width="2" d="M292.4702,-575.8314C291.9355,-568.131 291.2996,-558.9743 290.7053,-550.4166"/>
<polygon fill="#c0c0c0" stroke="#c0c0c0" stroke-width="2" points="294.1951,-550.1467 290.0106,-540.4133 287.2119,-550.6317 294.1951,-550.1467"/>
</g>
<!-- 24 -->
<g id="node25" class="node">
<title>24</title>
<path fill="none" stroke="#d8ac56" stroke-width="2" d="M653.7319,-396C653.7319,-396 575.7319,-396 575.7319,-396 569.7319,-396 563.7319,-390 563.7319,-384 563.7319,-384 563.7319,-372 563.7319,-372 563.7319,-366 569.7319,-360 575.7319,-360 575.7319,-360 653.7319,-360 653.7319,-360 659.7319,-360 665.7319,-366 665.7319,-372 665.7319,-372 665.7319,-384 665.7319,-384 665.7319,-390 659.7319,-396 653.7319,-396"/>
<text text-anchor="middle" x="614.7319" y="-381" font-family="sans" font-size="10.00" fill="#000000">fastqc</text>
<text text-anchor="middle" x="614.7319" y="-370" font-family="sans" font-size="10.00" fill="#000000">tool: extend/tadpole</text>
</g>
<!-- 24&#45;&gt;1 -->
<g id="edge16" class="edge">
<title>24&#45;&gt;1</title>
<path fill="none" stroke="#c0c0c0" stroke-width="2" d="M610.4279,-359.8476C601.0459,-315.2045 584.2933,-199.6609 646.7319,-144 676.6659,-117.3153 791.2099,-100.8698 851.3525,-93.8937"/>
<polygon fill="#c0c0c0" stroke="#c0c0c0" stroke-width="2" points="852.0235,-97.3403 861.5672,-92.7394 851.2374,-90.3845 852.0235,-97.3403"/>
</g>
<!-- 25&#45;&gt;24 -->
<g id="edge50" class="edge">
<title>25&#45;&gt;24</title>
<path fill="none" stroke="#c0c0c0" stroke-width="2" d="M661.8928,-503.7623C652.6012,-478.9846 635.9087,-434.4714 625.0796,-405.5939"/>
<polygon fill="#c0c0c0" stroke="#c0c0c0" stroke-width="2" points="628.304,-404.224 621.5155,-396.0896 621.7497,-406.6819 628.304,-404.224"/>
</g>
<!-- 37 -->
<g id="node38" class="node">
<title>37</title>
<path fill="none" stroke="#5682d8" stroke-width="2" d="M708.7319,-468C708.7319,-468 678.7319,-468 678.7319,-468 672.7319,-468 666.7319,-462 666.7319,-456 666.7319,-456 666.7319,-444 666.7319,-444 666.7319,-438 672.7319,-432 678.7319,-432 678.7319,-432 708.7319,-432 708.7319,-432 714.7319,-432 720.7319,-438 720.7319,-444 720.7319,-444 720.7319,-456 720.7319,-456 720.7319,-462 714.7319,-468 708.7319,-468"/>
<text text-anchor="middle" x="693.7319" y="-447.5" font-family="sans" font-size="10.00" fill="#000000">vsearch</text>
</g>
<!-- 25&#45;&gt;37 -->
<g id="edge65" class="edge">
<title>25&#45;&gt;37</title>
<path fill="none" stroke="#c0c0c0" stroke-width="2" d="M675.0405,-503.8314C677.7436,-496.0463 680.9636,-486.7729 683.9629,-478.1347"/>
<polygon fill="#c0c0c0" stroke="#c0c0c0" stroke-width="2" points="687.3646,-479.0081 687.3384,-468.4133 680.7519,-476.7119 687.3646,-479.0081"/>
</g>
<!-- 26&#45;&gt;25 -->
<g id="edge52" class="edge">
<title>26&#45;&gt;25</title>
<path fill="none" stroke="#c0c0c0" stroke-width="2" d="M694.1523,-575.8314C690.3961,-567.8771 685.9062,-558.369 681.7522,-549.5723"/>
<polygon fill="#c0c0c0" stroke="#c0c0c0" stroke-width="2" points="684.8621,-547.9612 677.4271,-540.4133 678.5323,-550.9503 684.8621,-547.9612"/>
</g>
<!-- 27 -->
<g id="node28" class="node">
<title>27</title>
<path fill="none" stroke="#d8ac56" stroke-width="2" d="M1497.7319,-468C1497.7319,-468 1419.7319,-468 1419.7319,-468 1413.7319,-468 1407.7319,-462 1407.7319,-456 1407.7319,-456 1407.7319,-444 1407.7319,-444 1407.7319,-438 1413.7319,-432 1419.7319,-432 1419.7319,-432 1497.7319,-432 1497.7319,-432 1503.7319,-432 1509.7319,-438 1509.7319,-444 1509.7319,-444 1509.7319,-456 1509.7319,-456 1509.7319,-462 1503.7319,-468 1497.7319,-468"/>
<text text-anchor="middle" x="1458.7319" y="-453" font-family="sans" font-size="10.00" fill="#000000">fastqc</text>
<text text-anchor="middle" x="1458.7319" y="-442" font-family="sans" font-size="10.00" fill="#000000">tool: extend/tadpole</text>
</g>
<!-- 27&#45;&gt;1 -->
<g id="edge17" class="edge">
<title>27&#45;&gt;1</title>
<path fill="none" stroke="#c0c0c0" stroke-width="2" d="M1450.0369,-431.8324C1438.0017,-404.9721 1417.7319,-352.7885 1417.7319,-306 1417.7319,-306 1417.7319,-306 1417.7319,-234 1417.7319,-192.6022 1425.1707,-170.933 1393.7319,-144 1358.3378,-113.6785 1036.9439,-96.6082 926.1056,-91.5833"/>
<polygon fill="#c0c0c0" stroke="#c0c0c0" stroke-width="2" points="926.1994,-88.0841 916.0532,-91.1345 925.8872,-95.0771 926.1994,-88.0841"/>
</g>
<!-- 28&#45;&gt;27 -->
<g id="edge54" class="edge">
<title>28&#45;&gt;27</title>
<path fill="none" stroke="#c0c0c0" stroke-width="2" d="M1484.9,-503.8314C1481.0333,-495.8771 1476.4113,-486.369 1472.1351,-477.5723"/>
<polygon fill="#c0c0c0" stroke="#c0c0c0" stroke-width="2" points="1475.2026,-475.8768 1467.6828,-468.4133 1468.907,-478.9371 1475.2026,-475.8768"/>
</g>
<!-- 33 -->
<g id="node34" class="node">
<title>33</title>
<path fill="none" stroke="#5682d8" stroke-width="2" d="M1569.7319,-468C1569.7319,-468 1539.7319,-468 1539.7319,-468 1533.7319,-468 1527.7319,-462 1527.7319,-456 1527.7319,-456 1527.7319,-444 1527.7319,-444 1527.7319,-438 1533.7319,-432 1539.7319,-432 1539.7319,-432 1569.7319,-432 1569.7319,-432 1575.7319,-432 1581.7319,-438 1581.7319,-444 1581.7319,-444 1581.7319,-456 1581.7319,-456 1581.7319,-462 1575.7319,-468 1569.7319,-468"/>
<text text-anchor="middle" x="1554.7319" y="-447.5" font-family="sans" font-size="10.00" fill="#000000">vsearch</text>
</g>
<!-- 28&#45;&gt;33 -->
<g id="edge61" class="edge">
<title>28&#45;&gt;33</title>
<path fill="none" stroke="#c0c0c0" stroke-width="2" d="M1509.1248,-503.8314C1516.2223,-495.454 1524.78,-485.3531 1532.5559,-476.1749"/>
<polygon fill="#c0c0c0" stroke="#c0c0c0" stroke-width="2" points="1535.338,-478.3056 1539.1318,-468.4133 1529.9971,-473.7807 1535.338,-478.3056"/>
</g>
<!-- 29&#45;&gt;28 -->
<g id="edge56" class="edge">
<title>29&#45;&gt;28</title>
<path fill="none" stroke="#c0c0c0" stroke-width="2" d="M1505.6945,-575.8314C1503.9833,-568.131 1501.9485,-558.9743 1500.0467,-550.4166"/>
<polygon fill="#c0c0c0" stroke="#c0c0c0" stroke-width="2" points="1503.4098,-549.4159 1497.8238,-540.4133 1496.5765,-550.9344 1503.4098,-549.4159"/>
</g>
<!-- 30 -->
<g id="node31" class="node">
<title>30</title>
<path fill="none" stroke="#d8ac56" stroke-width="2" d="M1023.7319,-252C1023.7319,-252 985.7319,-252 985.7319,-252 979.7319,-252 973.7319,-246 973.7319,-240 973.7319,-240 973.7319,-228 973.7319,-228 973.7319,-222 979.7319,-216 985.7319,-216 985.7319,-216 1023.7319,-216 1023.7319,-216 1029.7319,-216 1035.7319,-222 1035.7319,-228 1035.7319,-228 1035.7319,-240 1035.7319,-240 1035.7319,-246 1029.7319,-252 1023.7319,-252"/>
<text text-anchor="middle" x="1004.7319" y="-237" font-family="sans" font-size="10.00" fill="#000000">fastqc</text>
<text text-anchor="middle" x="1004.7319" y="-226" font-family="sans" font-size="10.00" fill="#000000">tool: derep</text>
</g>
<!-- 30&#45;&gt;1 -->
<g id="edge18" class="edge">
<title>30&#45;&gt;1</title>
<path fill="none" stroke="#c0c0c0" stroke-width="2" d="M998.4249,-215.6767C991.1782,-196.4153 977.9035,-165.9229 959.7319,-144 949.6946,-131.8906 936.4466,-120.8903 924.1151,-112.0249"/>
<polygon fill="#c0c0c0" stroke="#c0c0c0" stroke-width="2" points="925.9871,-109.0638 915.7752,-106.2411 921.9979,-114.8159 925.9871,-109.0638"/>
</g>
<!-- 31&#45;&gt;30 -->
<g id="edge58" class="edge">
<title>31&#45;&gt;30</title>
<path fill="none" stroke="#c0c0c0" stroke-width="2" d="M1034.502,-431.9876C1023.8719,-422.5774 1012.5134,-410.0874 1006.7319,-396 988.7123,-352.0925 993.5785,-295.6847 998.9896,-262.3313"/>
<polygon fill="#c0c0c0" stroke="#c0c0c0" stroke-width="2" points="1002.4587,-262.8115 1000.7373,-252.3575 995.5637,-261.6033 1002.4587,-262.8115"/>
</g>
<!-- 46 -->
<g id="node47" class="node">
<title>46</title>
<path fill="none" stroke="#56d8d8" stroke-width="2" d="M1079.2319,-396C1079.2319,-396 1028.2319,-396 1028.2319,-396 1022.2319,-396 1016.2319,-390 1016.2319,-384 1016.2319,-384 1016.2319,-372 1016.2319,-372 1016.2319,-366 1022.2319,-360 1028.2319,-360 1028.2319,-360 1079.2319,-360 1079.2319,-360 1085.2319,-360 1091.2319,-366 1091.2319,-372 1091.2319,-372 1091.2319,-384 1091.2319,-384 1091.2319,-390 1085.2319,-396 1079.2319,-396"/>
<text text-anchor="middle" x="1053.7319" y="-375.5" font-family="sans" font-size="10.00" fill="#000000">seqkit_fx2tab</text>
</g>
<!-- 31&#45;&gt;46 -->
<g id="edge77" class="edge">
<title>31&#45;&gt;46</title>
<path fill="none" stroke="#c0c0c0" stroke-width="2" d="M1057.4702,-431.8314C1056.9355,-424.131 1056.2996,-414.9743 1055.7053,-406.4166"/>
<polygon fill="#c0c0c0" stroke="#c0c0c0" stroke-width="2" points="1059.1951,-406.1467 1055.0106,-396.4133 1052.2119,-406.6317 1059.1951,-406.1467"/>
</g>
<!-- 32 -->
<g id="node33" class="node">
<title>32</title>
<path fill="none" stroke="#d8ac56" stroke-width="2" d="M1495.7319,-396C1495.7319,-396 1457.7319,-396 1457.7319,-396 1451.7319,-396 1445.7319,-390 1445.7319,-384 1445.7319,-384 1445.7319,-372 1445.7319,-372 1445.7319,-366 1451.7319,-360 1457.7319,-360 1457.7319,-360 1495.7319,-360 1495.7319,-360 1501.7319,-360 1507.7319,-366 1507.7319,-372 1507.7319,-372 1507.7319,-384 1507.7319,-384 1507.7319,-390 1501.7319,-396 1495.7319,-396"/>
<text text-anchor="middle" x="1476.7319" y="-381" font-family="sans" font-size="10.00" fill="#000000">fastqc</text>
<text text-anchor="middle" x="1476.7319" y="-370" font-family="sans" font-size="10.00" fill="#000000">tool: derep</text>
</g>
<!-- 32&#45;&gt;1 -->
<g id="edge19" class="edge">
<title>32&#45;&gt;1</title>
<path fill="none" stroke="#c0c0c0" stroke-width="2" d="M1475.9486,-359.8247C1473.4011,-310.0113 1463.5813,-173.0793 1431.7319,-144 1394.4603,-109.9701 1042.9896,-95.1769 926.2317,-91.1743"/>
<polygon fill="#c0c0c0" stroke="#c0c0c0" stroke-width="2" points="926.1114,-87.6684 915.9996,-90.8307 925.8765,-94.6644 926.1114,-87.6684"/>
</g>
<!-- 33&#45;&gt;32 -->
<g id="edge60" class="edge">
<title>33&#45;&gt;32</title>
<path fill="none" stroke="#c0c0c0" stroke-width="2" d="M1535.0492,-431.8314C1525.6268,-423.1337 1514.1918,-412.5783 1503.9523,-403.1265"/>
<polygon fill="#c0c0c0" stroke="#c0c0c0" stroke-width="2" points="1506.1304,-400.3738 1496.4083,-396.1628 1501.3824,-405.5175 1506.1304,-400.3738"/>
</g>
<!-- 40 -->
<g id="node41" class="node">
<title>40</title>
<path fill="none" stroke="#56d8d8" stroke-width="2" d="M1589.2319,-396C1589.2319,-396 1538.2319,-396 1538.2319,-396 1532.2319,-396 1526.2319,-390 1526.2319,-384 1526.2319,-384 1526.2319,-372 1526.2319,-372 1526.2319,-366 1532.2319,-360 1538.2319,-360 1538.2319,-360 1589.2319,-360 1589.2319,-360 1595.2319,-360 1601.2319,-366 1601.2319,-372 1601.2319,-372 1601.2319,-384 1601.2319,-384 1601.2319,-390 1595.2319,-396 1589.2319,-396"/>
<text text-anchor="middle" x="1563.7319" y="-375.5" font-family="sans" font-size="10.00" fill="#000000">seqkit_fx2tab</text>
</g>
<!-- 33&#45;&gt;40 -->
<g id="edge69" class="edge">
<title>33&#45;&gt;40</title>
<path fill="none" stroke="#c0c0c0" stroke-width="2" d="M1557.003,-431.8314C1557.9656,-424.131 1559.1101,-414.9743 1560.1799,-406.4166"/>
<polygon fill="#c0c0c0" stroke="#c0c0c0" stroke-width="2" points="1563.6628,-406.7702 1561.4303,-396.4133 1556.7169,-405.9019 1563.6628,-406.7702"/>
</g>
<!-- 34 -->
<g id="node35" class="node">
<title>34</title>
<path fill="none" stroke="#d8ac56" stroke-width="2" d="M309.7319,-180C309.7319,-180 271.7319,-180 271.7319,-180 265.7319,-180 259.7319,-174 259.7319,-168 259.7319,-168 259.7319,-156 259.7319,-156 259.7319,-150 265.7319,-144 271.7319,-144 271.7319,-144 309.7319,-144 309.7319,-144 315.7319,-144 321.7319,-150 321.7319,-156 321.7319,-156 321.7319,-168 321.7319,-168 321.7319,-174 315.7319,-180 309.7319,-180"/>
<text text-anchor="middle" x="290.7319" y="-165" font-family="sans" font-size="10.00" fill="#000000">fastqc</text>
<text text-anchor="middle" x="290.7319" y="-154" font-family="sans" font-size="10.00" fill="#000000">tool: derep</text>
</g>
<!-- 34&#45;&gt;1 -->
<g id="edge20" class="edge">
<title>34&#45;&gt;1</title>
<path fill="none" stroke="#c0c0c0" stroke-width="2" d="M321.8312,-148.249C326.4252,-146.6037 331.1538,-145.1151 335.7319,-144 434.2581,-120.0014 743.9511,-98.9987 851.4983,-92.2582"/>
<polygon fill="#c0c0c0" stroke="#c0c0c0" stroke-width="2" points="851.7911,-95.7469 861.5544,-91.6327 851.3564,-88.7604 851.7911,-95.7469"/>
</g>
<!-- 35&#45;&gt;34 -->
<g id="edge62" class="edge">
<title>35&#45;&gt;34</title>
<path fill="none" stroke="#c0c0c0" stroke-width="2" d="M228.5653,-431.7997C230.2373,-401.5884 234.9109,-339.3274 246.7319,-288 254.7199,-253.316 268.9636,-214.8898 279.0798,-189.7001"/>
<polygon fill="#c0c0c0" stroke="#c0c0c0" stroke-width="2" points="282.3336,-190.9897 282.8658,-180.4082 275.8511,-188.3483 282.3336,-190.9897"/>
</g>
<!-- 43 -->
<g id="node44" class="node">
<title>43</title>
<path fill="none" stroke="#56d8d8" stroke-width="2" d="M187.2319,-396C187.2319,-396 136.2319,-396 136.2319,-396 130.2319,-396 124.2319,-390 124.2319,-384 124.2319,-384 124.2319,-372 124.2319,-372 124.2319,-366 130.2319,-360 136.2319,-360 136.2319,-360 187.2319,-360 187.2319,-360 193.2319,-360 199.2319,-366 199.2319,-372 199.2319,-372 199.2319,-384 199.2319,-384 199.2319,-390 193.2319,-396 187.2319,-396"/>
<text text-anchor="middle" x="161.7319" y="-375.5" font-family="sans" font-size="10.00" fill="#000000">seqkit_fx2tab</text>
</g>
<!-- 35&#45;&gt;43 -->
<g id="edge73" class="edge">
<title>35&#45;&gt;43</title>
<path fill="none" stroke="#c0c0c0" stroke-width="2" d="M211.0773,-431.8314C203.3205,-423.3694 193.9518,-413.1489 185.4709,-403.8971"/>
<polygon fill="#c0c0c0" stroke="#c0c0c0" stroke-width="2" points="187.9481,-401.4198 178.6108,-396.4133 182.788,-406.1499 187.9481,-401.4198"/>
</g>
<!-- 36 -->
<g id="node37" class="node">
<title>36</title>
<path fill="none" stroke="#d8ac56" stroke-width="2" d="M682.7319,-324C682.7319,-324 644.7319,-324 644.7319,-324 638.7319,-324 632.7319,-318 632.7319,-312 632.7319,-312 632.7319,-300 632.7319,-300 632.7319,-294 638.7319,-288 644.7319,-288 644.7319,-288 682.7319,-288 682.7319,-288 688.7319,-288 694.7319,-294 694.7319,-300 694.7319,-300 694.7319,-312 694.7319,-312 694.7319,-318 688.7319,-324 682.7319,-324"/>
<text text-anchor="middle" x="663.7319" y="-309" font-family="sans" font-size="10.00" fill="#000000">fastqc</text>
<text text-anchor="middle" x="663.7319" y="-298" font-family="sans" font-size="10.00" fill="#000000">tool: derep</text>
</g>
<!-- 36&#45;&gt;1 -->
<g id="edge21" class="edge">
<title>36&#45;&gt;1</title>
<path fill="none" stroke="#c0c0c0" stroke-width="2" d="M648.1795,-287.8462C640.7273,-277.947 632.5972,-265.0702 628.7319,-252 624.1945,-236.6569 622.6607,-230.8034 628.7319,-216 645.7851,-174.4194 661.0779,-166.9265 699.7319,-144 747.8259,-115.4745 811.7839,-101.3424 851.5943,-94.8648"/>
<polygon fill="#c0c0c0" stroke="#c0c0c0" stroke-width="2" points="852.313,-98.2953 861.6599,-93.3068 851.2422,-91.3777 852.313,-98.2953"/>
</g>
<!-- 37&#45;&gt;36 -->
<g id="edge64" class="edge">
<title>37&#45;&gt;36</title>
<path fill="none" stroke="#c0c0c0" stroke-width="2" d="M689.9324,-431.7623C684.7929,-407.0928 675.5777,-362.8598 669.5597,-333.9731"/>
<polygon fill="#c0c0c0" stroke="#c0c0c0" stroke-width="2" points="672.9667,-333.1656 667.5006,-324.0896 666.1138,-334.5933 672.9667,-333.1656"/>
</g>
<!-- 49 -->
<g id="node50" class="node">
<title>49</title>
<path fill="none" stroke="#56d8d8" stroke-width="2" d="M789.2319,-396C789.2319,-396 738.2319,-396 738.2319,-396 732.2319,-396 726.2319,-390 726.2319,-384 726.2319,-384 726.2319,-372 726.2319,-372 726.2319,-366 732.2319,-360 738.2319,-360 738.2319,-360 789.2319,-360 789.2319,-360 795.2319,-360 801.2319,-366 801.2319,-372 801.2319,-372 801.2319,-384 801.2319,-384 801.2319,-390 795.2319,-396 789.2319,-396"/>
<text text-anchor="middle" x="763.7319" y="-375.5" font-family="sans" font-size="10.00" fill="#000000">seqkit_fx2tab</text>
</g>
<!-- 37&#45;&gt;49 -->
<g id="edge81" class="edge">
<title>37&#45;&gt;49</title>
<path fill="none" stroke="#c0c0c0" stroke-width="2" d="M711.3959,-431.8314C719.7051,-423.2848 729.7583,-412.9443 738.8238,-403.6198"/>
<polygon fill="#c0c0c0" stroke="#c0c0c0" stroke-width="2" points="741.3688,-406.023 745.8301,-396.4133 736.3498,-401.1435 741.3688,-406.023"/>
</g>
<!-- 38 -->
<g id="node39" class="node">
<title>38</title>
<path fill="none" stroke="#d8ac56" stroke-width="2" d="M1573.2319,-252C1573.2319,-252 1496.2319,-252 1496.2319,-252 1490.2319,-252 1484.2319,-246 1484.2319,-240 1484.2319,-240 1484.2319,-228 1484.2319,-228 1484.2319,-222 1490.2319,-216 1496.2319,-216 1496.2319,-216 1573.2319,-216 1573.2319,-216 1579.2319,-216 1585.2319,-222 1585.2319,-228 1585.2319,-228 1585.2319,-240 1585.2319,-240 1585.2319,-246 1579.2319,-252 1573.2319,-252"/>
<text text-anchor="middle" x="1534.7319" y="-237" font-family="sans" font-size="10.00" fill="#000000">fastqc</text>
<text text-anchor="middle" x="1534.7319" y="-226" font-family="sans" font-size="10.00" fill="#000000">tool: represent/grep</text>
</g>
<!-- 38&#45;&gt;1 -->
<g id="edge22" class="edge">
<title>38&#45;&gt;1</title>
<path fill="none" stroke="#c0c0c0" stroke-width="2" d="M1527.2864,-215.8559C1517.5111,-194.6074 1498.183,-160.252 1469.7319,-144 1422.6095,-117.0824 1047.3027,-97.3926 926.2354,-91.6902"/>
<polygon fill="#c0c0c0" stroke="#c0c0c0" stroke-width="2" points="926.1365,-88.1819 915.9844,-91.2123 925.8105,-95.1743 926.1365,-88.1819"/>
</g>
<!-- 39&#45;&gt;38 -->
<g id="edge66" class="edge">
<title>39&#45;&gt;38</title>
<path fill="none" stroke="#c0c0c0" stroke-width="2" d="M1581.0867,-287.8314C1573.8729,-279.454 1565.1749,-269.3531 1557.2715,-260.1749"/>
<polygon fill="#c0c0c0" stroke="#c0c0c0" stroke-width="2" points="1559.7653,-257.7071 1550.5878,-252.4133 1554.4609,-262.2748 1559.7653,-257.7071"/>
</g>
<!-- 51 -->
<g id="node52" class="node">
<title>51</title>
<path fill="none" stroke="#afd856" stroke-width="2" d="M1675.7319,-252C1675.7319,-252 1615.7319,-252 1615.7319,-252 1609.7319,-252 1603.7319,-246 1603.7319,-240 1603.7319,-240 1603.7319,-228 1603.7319,-228 1603.7319,-222 1609.7319,-216 1615.7319,-216 1615.7319,-216 1675.7319,-216 1675.7319,-216 1681.7319,-216 1687.7319,-222 1687.7319,-228 1687.7319,-228 1687.7319,-240 1687.7319,-240 1687.7319,-246 1681.7319,-252 1675.7319,-252"/>
<text text-anchor="middle" x="1645.7319" y="-231.5" font-family="sans" font-size="10.00" fill="#000000">low_complexity</text>
</g>
<!-- 39&#45;&gt;51 -->
<g id="edge83" class="edge">
<title>39&#45;&gt;51</title>
<path fill="none" stroke="#c0c0c0" stroke-width="2" d="M1609.0967,-287.8314C1614.6828,-279.6232 1621.3949,-269.7606 1627.5391,-260.7323"/>
<polygon fill="#c0c0c0" stroke="#c0c0c0" stroke-width="2" points="1630.4679,-262.6496 1633.2007,-252.4133 1624.6809,-258.7112 1630.4679,-262.6496"/>
</g>
<!-- 40&#45;&gt;39 -->
<g id="edge68" class="edge">
<title>40&#45;&gt;39</title>
<path fill="none" stroke="#c0c0c0" stroke-width="2" d="M1572.0592,-359.8314C1575.7049,-351.8771 1580.0628,-342.369 1584.0946,-333.5723"/>
<polygon fill="#c0c0c0" stroke="#c0c0c0" stroke-width="2" points="1587.3076,-334.9622 1588.2925,-324.4133 1580.9442,-332.0456 1587.3076,-334.9622"/>
</g>
<!-- 41 -->
<g id="node42" class="node">
<title>41</title>
<path fill="none" stroke="#d8ac56" stroke-width="2" d="M229.2319,-180C229.2319,-180 152.2319,-180 152.2319,-180 146.2319,-180 140.2319,-174 140.2319,-168 140.2319,-168 140.2319,-156 140.2319,-156 140.2319,-150 146.2319,-144 152.2319,-144 152.2319,-144 229.2319,-144 229.2319,-144 235.2319,-144 241.2319,-150 241.2319,-156 241.2319,-156 241.2319,-168 241.2319,-168 241.2319,-174 235.2319,-180 229.2319,-180"/>
<text text-anchor="middle" x="190.7319" y="-165" font-family="sans" font-size="10.00" fill="#000000">fastqc</text>
<text text-anchor="middle" x="190.7319" y="-154" font-family="sans" font-size="10.00" fill="#000000">tool: represent/grep</text>
</g>
<!-- 41&#45;&gt;1 -->
<g id="edge23" class="edge">
<title>41&#45;&gt;1</title>
<path fill="none" stroke="#c0c0c0" stroke-width="2" d="M241.2882,-146.0306C244.4673,-145.276 247.6336,-144.5893 250.7319,-144 476.2093,-101.116 753.0022,-92.2799 851.6558,-90.4661"/>
<polygon fill="#c0c0c0" stroke="#c0c0c0" stroke-width="2" points="851.7803,-93.9646 861.7191,-90.2945 851.6609,-86.9656 851.7803,-93.9646"/>
</g>
<!-- 42&#45;&gt;41 -->
<g id="edge70" class="edge">
<title>42&#45;&gt;41</title>
<path fill="none" stroke="#c0c0c0" stroke-width="2" d="M149.6845,-287.7623C157.7364,-263.0928 172.1735,-218.8598 181.6018,-189.9731"/>
<polygon fill="#c0c0c0" stroke="#c0c0c0" stroke-width="2" points="185.0521,-190.6821 184.8277,-180.0896 178.3976,-188.5101 185.0521,-190.6821"/>
</g>
<!-- 55 -->
<g id="node56" class="node">
<title>55</title>
<path fill="none" stroke="#afd856" stroke-width="2" d="M98.7319,-252C98.7319,-252 38.7319,-252 38.7319,-252 32.7319,-252 26.7319,-246 26.7319,-240 26.7319,-240 26.7319,-228 26.7319,-228 26.7319,-222 32.7319,-216 38.7319,-216 38.7319,-216 98.7319,-216 98.7319,-216 104.7319,-216 110.7319,-222 110.7319,-228 110.7319,-228 110.7319,-240 110.7319,-240 110.7319,-246 104.7319,-252 98.7319,-252"/>
<text text-anchor="middle" x="68.7319" y="-231.5" font-family="sans" font-size="10.00" fill="#000000">low_complexity</text>
</g>
<!-- 42&#45;&gt;55 -->
<g id="edge87" class="edge">
<title>42&#45;&gt;55</title>
<path fill="none" stroke="#c0c0c0" stroke-width="2" d="M124.8063,-287.8314C115.7462,-279.1337 104.751,-268.5783 94.9054,-259.1265"/>
<polygon fill="#c0c0c0" stroke="#c0c0c0" stroke-width="2" points="97.2893,-256.5633 87.6515,-252.1628 92.4416,-261.613 97.2893,-256.5633"/>
</g>
<!-- 43&#45;&gt;42 -->
<g id="edge72" class="edge">
<title>43&#45;&gt;42</title>
<path fill="none" stroke="#c0c0c0" stroke-width="2" d="M157.1898,-359.8314C155.2435,-352.0463 152.9252,-342.7729 150.7656,-334.1347"/>
<polygon fill="#c0c0c0" stroke="#c0c0c0" stroke-width="2" points="154.1562,-333.2658 148.3352,-324.4133 147.3652,-334.9636 154.1562,-333.2658"/>
</g>
<!-- 44 -->
<g id="node45" class="node">
<title>44</title>
<path fill="none" stroke="#d8ac56" stroke-width="2" d="M1139.2319,-180C1139.2319,-180 1062.2319,-180 1062.2319,-180 1056.2319,-180 1050.2319,-174 1050.2319,-168 1050.2319,-168 1050.2319,-156 1050.2319,-156 1050.2319,-150 1056.2319,-144 1062.2319,-144 1062.2319,-144 1139.2319,-144 1139.2319,-144 1145.2319,-144 1151.2319,-150 1151.2319,-156 1151.2319,-156 1151.2319,-168 1151.2319,-168 1151.2319,-174 1145.2319,-180 1139.2319,-180"/>
<text text-anchor="middle" x="1100.7319" y="-165" font-family="sans" font-size="10.00" fill="#000000">fastqc</text>
<text text-anchor="middle" x="1100.7319" y="-154" font-family="sans" font-size="10.00" fill="#000000">tool: represent/grep</text>
</g>
<!-- 44&#45;&gt;1 -->
<g id="edge24" class="edge">
<title>44&#45;&gt;1</title>
<path fill="none" stroke="#c0c0c0" stroke-width="2" d="M1050.222,-144.8457C1011.877,-131.8229 960.0403,-114.2179 925.5514,-102.5047"/>
<polygon fill="#c0c0c0" stroke="#c0c0c0" stroke-width="2" points="926.4691,-99.1201 915.8748,-99.2183 924.218,-105.7483 926.4691,-99.1201"/>
</g>
<!-- 45&#45;&gt;44 -->
<g id="edge74" class="edge">
<title>45&#45;&gt;44</title>
<path fill="none" stroke="#c0c0c0" stroke-width="2" d="M1163.6131,-287.7623C1151.1702,-262.8764 1128.7731,-218.0822 1114.3402,-189.2165"/>
<polygon fill="#c0c0c0" stroke="#c0c0c0" stroke-width="2" points="1117.3794,-187.4686 1109.7767,-180.0896 1111.1184,-190.5992 1117.3794,-187.4686"/>
</g>
<!-- 57 -->
<g id="node58" class="node">
<title>57</title>
<path fill="none" stroke="#afd856" stroke-width="2" d="M1252.7319,-252C1252.7319,-252 1192.7319,-252 1192.7319,-252 1186.7319,-252 1180.7319,-246 1180.7319,-240 1180.7319,-240 1180.7319,-228 1180.7319,-228 1180.7319,-222 1186.7319,-216 1192.7319,-216 1192.7319,-216 1252.7319,-216 1252.7319,-216 1258.7319,-216 1264.7319,-222 1264.7319,-228 1264.7319,-228 1264.7319,-240 1264.7319,-240 1264.7319,-246 1258.7319,-252 1252.7319,-252"/>
<text text-anchor="middle" x="1222.7319" y="-231.5" font-family="sans" font-size="10.00" fill="#000000">low_complexity</text>
</g>
<!-- 45&#45;&gt;57 -->
<g id="edge89" class="edge">
<title>45&#45;&gt;57</title>
<path fill="none" stroke="#c0c0c0" stroke-width="2" d="M1185.349,-287.8314C1191.0491,-279.6232 1197.8982,-269.7606 1204.1678,-260.7323"/>
<polygon fill="#c0c0c0" stroke="#c0c0c0" stroke-width="2" points="1207.1157,-262.6234 1209.9449,-252.4133 1201.3661,-258.6306 1207.1157,-262.6234"/>
</g>
<!-- 46&#45;&gt;45 -->
<g id="edge76" class="edge">
<title>46&#45;&gt;45</title>
<path fill="none" stroke="#c0c0c0" stroke-width="2" d="M1083.7607,-359.8314C1098.9815,-350.6221 1117.6447,-339.3301 1133.9402,-329.4706"/>
<polygon fill="#c0c0c0" stroke="#c0c0c0" stroke-width="2" points="1135.9688,-332.3341 1142.7128,-324.1628 1132.3451,-326.345 1135.9688,-332.3341"/>
</g>
<!-- 47 -->
<g id="node48" class="node">
<title>47</title>
<path fill="none" stroke="#d8ac56" stroke-width="2" d="M727.2319,-252C727.2319,-252 650.2319,-252 650.2319,-252 644.2319,-252 638.2319,-246 638.2319,-240 638.2319,-240 638.2319,-228 638.2319,-228 638.2319,-222 644.2319,-216 650.2319,-216 650.2319,-216 727.2319,-216 727.2319,-216 733.2319,-216 739.2319,-222 739.2319,-228 739.2319,-228 739.2319,-240 739.2319,-240 739.2319,-246 733.2319,-252 727.2319,-252"/>
<text text-anchor="middle" x="688.7319" y="-237" font-family="sans" font-size="10.00" fill="#000000">fastqc</text>
<text text-anchor="middle" x="688.7319" y="-226" font-family="sans" font-size="10.00" fill="#000000">tool: represent/grep</text>
</g>
<!-- 47&#45;&gt;1 -->
<g id="edge25" class="edge">
<title>47&#45;&gt;1</title>
<path fill="none" stroke="#c0c0c0" stroke-width="2" d="M691.7781,-215.9043C696.1042,-195.6738 705.9402,-163.2346 726.7319,-144 761.2951,-112.0253 815.3254,-98.9404 851.3648,-93.6138"/>
<polygon fill="#c0c0c0" stroke="#c0c0c0" stroke-width="2" points="852.032,-97.0556 861.4755,-92.2525 851.0979,-90.1182 852.032,-97.0556"/>
</g>
<!-- 48&#45;&gt;47 -->
<g id="edge78" class="edge">
<title>48&#45;&gt;47</title>
<path fill="none" stroke="#c0c0c0" stroke-width="2" d="M758.2641,-287.8314C746.6993,-278.8779 732.5915,-267.9558 720.1136,-258.2955"/>
<polygon fill="#c0c0c0" stroke="#c0c0c0" stroke-width="2" points="722.2421,-255.5171 712.1922,-252.1628 717.9569,-261.0521 722.2421,-255.5171"/>
</g>
<!-- 53 -->
<g id="node54" class="node">
<title>53</title>
<path fill="none" stroke="#afd856" stroke-width="2" d="M829.7319,-252C829.7319,-252 769.7319,-252 769.7319,-252 763.7319,-252 757.7319,-246 757.7319,-240 757.7319,-240 757.7319,-228 757.7319,-228 757.7319,-222 763.7319,-216 769.7319,-216 769.7319,-216 829.7319,-216 829.7319,-216 835.7319,-216 841.7319,-222 841.7319,-228 841.7319,-228 841.7319,-240 841.7319,-240 841.7319,-246 835.7319,-252 829.7319,-252"/>
<text text-anchor="middle" x="799.7319" y="-231.5" font-family="sans" font-size="10.00" fill="#000000">low_complexity</text>
</g>
<!-- 48&#45;&gt;53 -->
<g id="edge85" class="edge">
<title>48&#45;&gt;53</title>
<path fill="none" stroke="#c0c0c0" stroke-width="2" d="M786.2741,-287.8314C788.2203,-280.0463 790.5387,-270.7729 792.6982,-262.1347"/>
<polygon fill="#c0c0c0" stroke="#c0c0c0" stroke-width="2" points="796.0987,-262.9636 795.1286,-252.4133 789.3077,-261.2658 796.0987,-262.9636"/>
</g>
<!-- 49&#45;&gt;48 -->
<g id="edge80" class="edge">
<title>49&#45;&gt;48</title>
<path fill="none" stroke="#c0c0c0" stroke-width="2" d="M768.2741,-359.8314C770.2203,-352.0463 772.5387,-342.7729 774.6982,-334.1347"/>
<polygon fill="#c0c0c0" stroke="#c0c0c0" stroke-width="2" points="778.0987,-334.9636 777.1286,-324.4133 771.3077,-333.2658 778.0987,-334.9636"/>
</g>
<!-- 50 -->
<g id="node51" class="node">
<title>50</title>
<path fill="none" stroke="#d8ac56" stroke-width="2" d="M1615.7319,-180C1615.7319,-180 1533.7319,-180 1533.7319,-180 1527.7319,-180 1521.7319,-174 1521.7319,-168 1521.7319,-168 1521.7319,-156 1521.7319,-156 1521.7319,-150 1527.7319,-144 1533.7319,-144 1533.7319,-144 1615.7319,-144 1615.7319,-144 1621.7319,-144 1627.7319,-150 1627.7319,-156 1627.7319,-156 1627.7319,-168 1627.7319,-168 1627.7319,-174 1621.7319,-180 1615.7319,-180"/>
<text text-anchor="middle" x="1574.7319" y="-165" font-family="sans" font-size="10.00" fill="#000000">fastqc</text>
<text text-anchor="middle" x="1574.7319" y="-154" font-family="sans" font-size="10.00" fill="#000000">tool: low_complexity</text>
</g>
<!-- 50&#45;&gt;1 -->
<g id="edge26" class="edge">
<title>50&#45;&gt;1</title>
<path fill="none" stroke="#c0c0c0" stroke-width="2" d="M1521.5277,-146.8031C1516.8845,-145.7518 1512.2391,-144.7957 1507.7319,-144 1289.3803,-105.4525 1022.6154,-93.9935 925.9433,-90.9739"/>
<polygon fill="#c0c0c0" stroke="#c0c0c0" stroke-width="2" points="925.9006,-87.4711 915.7999,-90.6689 925.6902,-94.468 925.9006,-87.4711"/>
</g>
<!-- 51&#45;&gt;0 -->
<g id="edge3" class="edge">
<title>51&#45;&gt;0</title>
<path fill="none" stroke="#c0c0c0" stroke-width="2" d="M1649.7188,-215.8757C1653.0146,-195.6189 1654.6415,-163.1557 1636.7319,-144 1538.4495,-38.8793 1062.7916,-21.4122 925.7499,-18.5515"/>
<polygon fill="#c0c0c0" stroke="#c0c0c0" stroke-width="2" points="925.8077,-15.0521 915.7414,-18.3564 925.6712,-22.0507 925.8077,-15.0521"/>
</g>
<!-- 51&#45;&gt;50 -->
<g id="edge82" class="edge">
<title>51&#45;&gt;50</title>
<path fill="none" stroke="#c0c0c0" stroke-width="2" d="M1627.8156,-215.8314C1619.3877,-207.2848 1609.1909,-196.9443 1599.9959,-187.6198"/>
<polygon fill="#c0c0c0" stroke="#c0c0c0" stroke-width="2" points="1602.4031,-185.0761 1592.8895,-180.4133 1597.4188,-189.9912 1602.4031,-185.0761"/>
</g>
<!-- 52 -->
<g id="node53" class="node">
<title>52</title>
<path fill="none" stroke="#d8ac56" stroke-width="2" d="M829.7319,-180C829.7319,-180 747.7319,-180 747.7319,-180 741.7319,-180 735.7319,-174 735.7319,-168 735.7319,-168 735.7319,-156 735.7319,-156 735.7319,-150 741.7319,-144 747.7319,-144 747.7319,-144 829.7319,-144 829.7319,-144 835.7319,-144 841.7319,-150 841.7319,-156 841.7319,-156 841.7319,-168 841.7319,-168 841.7319,-174 835.7319,-180 829.7319,-180"/>
<text text-anchor="middle" x="788.7319" y="-165" font-family="sans" font-size="10.00" fill="#000000">fastqc</text>
<text text-anchor="middle" x="788.7319" y="-154" font-family="sans" font-size="10.00" fill="#000000">tool: low_complexity</text>
</g>
<!-- 52&#45;&gt;1 -->
<g id="edge27" class="edge">
<title>52&#45;&gt;1</title>
<path fill="none" stroke="#c0c0c0" stroke-width="2" d="M813.9662,-143.8314C826.5199,-134.7927 841.8603,-123.7476 855.3711,-114.0198"/>
<polygon fill="#c0c0c0" stroke="#c0c0c0" stroke-width="2" points="857.4355,-116.8463 863.5058,-108.1628 853.3453,-111.1655 857.4355,-116.8463"/>
</g>
<!-- 53&#45;&gt;0 -->
<g id="edge2" class="edge">
<title>53&#45;&gt;0</title>
<path fill="none" stroke="#c0c0c0" stroke-width="2" d="M762.4317,-215.9669C748.5861,-207.189 734.3962,-195.2027 726.7319,-180 719.5293,-165.7129 719.7023,-158.373 726.7319,-144 752.7459,-90.8108 813.2492,-53.5823 852.504,-34.0058"/>
<polygon fill="#c0c0c0" stroke="#c0c0c0" stroke-width="2" points="854.0369,-37.1523 861.5066,-29.6387 850.9817,-30.8542 854.0369,-37.1523"/>
</g>
<!-- 53&#45;&gt;52 -->
<g id="edge84" class="edge">
<title>53&#45;&gt;52</title>
<path fill="none" stroke="#c0c0c0" stroke-width="2" d="M796.9562,-215.8314C795.7797,-208.131 794.3808,-198.9743 793.0734,-190.4166"/>
<polygon fill="#c0c0c0" stroke="#c0c0c0" stroke-width="2" points="796.5153,-189.7699 791.5451,-180.4133 789.5956,-190.8272 796.5153,-189.7699"/>
</g>
<!-- 54 -->
<g id="node55" class="node">
<title>54</title>
<path fill="none" stroke="#d8ac56" stroke-width="2" d="M109.7319,-180C109.7319,-180 27.7319,-180 27.7319,-180 21.7319,-180 15.7319,-174 15.7319,-168 15.7319,-168 15.7319,-156 15.7319,-156 15.7319,-150 21.7319,-144 27.7319,-144 27.7319,-144 109.7319,-144 109.7319,-144 115.7319,-144 121.7319,-150 121.7319,-156 121.7319,-156 121.7319,-168 121.7319,-168 121.7319,-174 115.7319,-180 109.7319,-180"/>
<text text-anchor="middle" x="68.7319" y="-165" font-family="sans" font-size="10.00" fill="#000000">fastqc</text>
<text text-anchor="middle" x="68.7319" y="-154" font-family="sans" font-size="10.00" fill="#000000">tool: low_complexity</text>
</g>
<!-- 54&#45;&gt;1 -->
<g id="edge28" class="edge">
<title>54&#45;&gt;1</title>
<path fill="none" stroke="#c0c0c0" stroke-width="2" d="M121.9964,-145.7607C124.9377,-145.1068 127.8632,-144.5127 130.7319,-144 271.7224,-118.8044 718.7998,-97.5038 851.3471,-91.6149"/>
<polygon fill="#c0c0c0" stroke="#c0c0c0" stroke-width="2" points="851.5755,-95.1083 861.4114,-91.1706 851.2667,-88.1151 851.5755,-95.1083"/>
</g>
<!-- 55&#45;&gt;0 -->
<g id="edge4" class="edge">
<title>55&#45;&gt;0</title>
<path fill="none" stroke="#c0c0c0" stroke-width="2" d="M41.6471,-215.9003C16.7702,-197.0934 -13.4073,-167.2207 6.7319,-144 63.2018,-78.8896 689.8828,-31.6466 851.0966,-20.5119"/>
<polygon fill="#c0c0c0" stroke="#c0c0c0" stroke-width="2" points="851.7221,-23.9774 861.4594,-19.8018 851.2435,-16.9938 851.7221,-23.9774"/>
</g>
<!-- 55&#45;&gt;54 -->
<g id="edge86" class="edge">
<title>55&#45;&gt;54</title>
<path fill="none" stroke="#c0c0c0" stroke-width="2" d="M68.7319,-215.8314C68.7319,-208.131 68.7319,-198.9743 68.7319,-190.4166"/>
<polygon fill="#c0c0c0" stroke="#c0c0c0" stroke-width="2" points="72.232,-190.4132 68.7319,-180.4133 65.232,-190.4133 72.232,-190.4132"/>
</g>
<!-- 56 -->
<g id="node57" class="node">
<title>56</title>
<path fill="none" stroke="#d8ac56" stroke-width="2" d="M1263.7319,-180C1263.7319,-180 1181.7319,-180 1181.7319,-180 1175.7319,-180 1169.7319,-174 1169.7319,-168 1169.7319,-168 1169.7319,-156 1169.7319,-156 1169.7319,-150 1175.7319,-144 1181.7319,-144 1181.7319,-144 1263.7319,-144 1263.7319,-144 1269.7319,-144 1275.7319,-150 1275.7319,-156 1275.7319,-156 1275.7319,-168 1275.7319,-168 1275.7319,-174 1269.7319,-180 1263.7319,-180"/>
<text text-anchor="middle" x="1222.7319" y="-165" font-family="sans" font-size="10.00" fill="#000000">fastqc</text>
<text text-anchor="middle" x="1222.7319" y="-154" font-family="sans" font-size="10.00" fill="#000000">tool: low_complexity</text>
</g>
<!-- 56&#45;&gt;1 -->
<g id="edge29" class="edge">
<title>56&#45;&gt;1</title>
<path fill="none" stroke="#c0c0c0" stroke-width="2" d="M1169.537,-146.4713C1166.2264,-145.6073 1162.9381,-144.7761 1159.7319,-144 1076.8506,-123.9377 978.4113,-105.7013 925.9784,-96.4277"/>
<polygon fill="#c0c0c0" stroke="#c0c0c0" stroke-width="2" points="926.2719,-92.9256 915.8168,-94.6409 925.0596,-99.8199 926.2719,-92.9256"/>
</g>
<!-- 57&#45;&gt;0 -->
<g id="edge5" class="edge">
<title>57&#45;&gt;0</title>
<path fill="none" stroke="#c0c0c0" stroke-width="2" d="M1253.2277,-215.7757C1265.4141,-206.7056 1278.1092,-194.5508 1284.7319,-180 1291.3601,-165.4374 1294.176,-156.9155 1284.7319,-144 1241.3115,-84.6191 1015.7863,-39.889 925.8325,-24.1486"/>
<polygon fill="#c0c0c0" stroke="#c0c0c0" stroke-width="2" points="926.2549,-20.6698 915.805,-22.4161 925.0631,-27.5676 926.2549,-20.6698"/>
</g>
<!-- 57&#45;&gt;56 -->
<g id="edge88" class="edge">
<title>57&#45;&gt;56</title>
<path fill="none" stroke="#c0c0c0" stroke-width="2" d="M1222.7319,-215.8314C1222.7319,-208.131 1222.7319,-198.9743 1222.7319,-190.4166"/>
<polygon fill="#c0c0c0" stroke="#c0c0c0" stroke-width="2" points="1226.232,-190.4132 1222.7319,-180.4133 1219.232,-190.4133 1226.232,-190.4132"/>
</g>
</g>
</svg>
