<?xml version="1.0" encoding="UTF-8" standalone="no"?>
<!DOCTYPE svg PUBLIC "-//W3C//DTD SVG 1.1//EN"
 "http://www.w3.org/Graphics/SVG/1.1/DTD/svg11.dtd">
<!-- Generated by graphviz version 2.40.1 (0)
 -->
<!-- Title: snakemake_dag Pages: 1 -->
<svg width="1528pt" height="708pt"
 viewBox="0.00 0.00 1527.62 708.00" xmlns="http://www.w3.org/2000/svg" xmlns:xlink="http://www.w3.org/1999/xlink">
<g id="graph0" class="graph" transform="scale(1 1) rotate(0) translate(4 704)">
<title>snakemake_dag</title>
<polygon fill="#ffffff" stroke="transparent" points="-4,4 -4,-704 1523.6157,-704 1523.6157,4 -4,4"/>
<!-- 0 -->
<g id="node1" class="node">
<title>0</title>
<path fill="none" stroke="#d85656" stroke-width="2" d="M788.6157,-36C788.6157,-36 758.6157,-36 758.6157,-36 752.6157,-36 746.6157,-30 746.6157,-24 746.6157,-24 746.6157,-12 746.6157,-12 746.6157,-6 752.6157,0 758.6157,0 758.6157,0 788.6157,0 788.6157,0 794.6157,0 800.6157,-6 800.6157,-12 800.6157,-12 800.6157,-24 800.6157,-24 800.6157,-30 794.6157,-36 788.6157,-36"/>
<text text-anchor="middle" x="773.6157" y="-15.5" font-family="sans" font-size="10.00" fill="#000000">all</text>
</g>
<!-- 1 -->
<g id="node2" class="node">
<title>1</title>
<path fill="none" stroke="#59d856" stroke-width="2" d="M907.6157,-108C907.6157,-108 877.6157,-108 877.6157,-108 871.6157,-108 865.6157,-102 865.6157,-96 865.6157,-96 865.6157,-84 865.6157,-84 865.6157,-78 871.6157,-72 877.6157,-72 877.6157,-72 907.6157,-72 907.6157,-72 913.6157,-72 919.6157,-78 919.6157,-84 919.6157,-84 919.6157,-96 919.6157,-96 919.6157,-102 913.6157,-108 907.6157,-108"/>
<text text-anchor="middle" x="892.6157" y="-87.5" font-family="sans" font-size="10.00" fill="#000000">multiqc</text>
</g>
<!-- 1&#45;&gt;0 -->
<g id="edge1" class="edge">
<title>1&#45;&gt;0</title>
<path fill="none" stroke="#c0c0c0" stroke-width="2" d="M865.6128,-73.6621C849.1453,-63.6986 827.8873,-50.8366 809.955,-39.9868"/>
<polygon fill="#c0c0c0" stroke="#c0c0c0" stroke-width="2" points="811.2914,-36.7046 800.9237,-34.5225 807.6677,-42.6937 811.2914,-36.7046"/>
</g>
<!-- 2 -->
<g id="node3" class="node">
<title>2</title>
<path fill="none" stroke="#d8ac56" stroke-width="2" d="M537.6157,-180C537.6157,-180 467.6157,-180 467.6157,-180 461.6157,-180 455.6157,-174 455.6157,-168 455.6157,-168 455.6157,-156 455.6157,-156 455.6157,-150 461.6157,-144 467.6157,-144 467.6157,-144 537.6157,-144 537.6157,-144 543.6157,-144 549.6157,-150 549.6157,-156 549.6157,-156 549.6157,-168 549.6157,-168 549.6157,-174 543.6157,-180 537.6157,-180"/>
<text text-anchor="middle" x="502.6157" y="-165" font-family="sans" font-size="10.00" fill="#000000">fastqc</text>
<text text-anchor="middle" x="502.6157" y="-154" font-family="sans" font-size="10.00" fill="#000000">tool: merge_lanes</text>
</g>
<!-- 2&#45;&gt;1 -->
<g id="edge5" class="edge">
<title>2&#45;&gt;1</title>
<path fill="none" stroke="#c0c0c0" stroke-width="2" d="M549.8301,-146.2716C552.7902,-145.4572 555.7361,-144.6914 558.6157,-144 664.9805,-118.4613 793.3418,-101.503 855.4108,-94.1561"/>
<polygon fill="#c0c0c0" stroke="#c0c0c0" stroke-width="2" points="855.974,-97.6142 865.5005,-92.9777 855.1619,-90.6615 855.974,-97.6142"/>
</g>
<!-- 3 -->
<g id="node4" class="node">
<title>3</title>
<path fill="none" stroke="#80d856" stroke-width="2" d="M493.6157,-700C493.6157,-700 389.6157,-700 389.6157,-700 383.6157,-700 377.6157,-694 377.6157,-688 377.6157,-688 377.6157,-660 377.6157,-660 377.6157,-654 383.6157,-648 389.6157,-648 389.6157,-648 493.6157,-648 493.6157,-648 499.6157,-648 505.6157,-654 505.6157,-660 505.6157,-660 505.6157,-688 505.6157,-688 505.6157,-694 499.6157,-700 493.6157,-700"/>
<text text-anchor="middle" x="441.6157" y="-688" font-family="sans" font-size="10.00" fill="#000000">merge_lanes</text>
<text text-anchor="middle" x="441.6157" y="-677" font-family="sans" font-size="10.00" fill="#000000">library: lib1</text>
<text text-anchor="middle" x="441.6157" y="-666" font-family="sans" font-size="10.00" fill="#000000">read_type_trim: collapsed</text>
<text text-anchor="middle" x="441.6157" y="-655" font-family="sans" font-size="10.00" fill="#000000">sample: HD827sonic_1</text>
</g>
<!-- 3&#45;&gt;2 -->
<g id="edge26" class="edge">
<title>3&#45;&gt;2</title>
<path fill="none" stroke="#c0c0c0" stroke-width="2" d="M455.5261,-647.9152C470.0126,-618.2733 490.6157,-568.0255 490.6157,-522 490.6157,-522 490.6157,-522 490.6157,-306 490.6157,-265.7369 495.3323,-219.3594 498.8515,-190.3596"/>
<polygon fill="#c0c0c0" stroke="#c0c0c0" stroke-width="2" points="502.3609,-190.5021 500.1293,-180.145 495.415,-189.6332 502.3609,-190.5021"/>
</g>
<!-- 9 -->
<g id="node10" class="node">
<title>9</title>
<path fill="none" stroke="#56d882" stroke-width="2" d="M611.6157,-612C611.6157,-612 541.6157,-612 541.6157,-612 535.6157,-612 529.6157,-606 529.6157,-600 529.6157,-600 529.6157,-588 529.6157,-588 529.6157,-582 535.6157,-576 541.6157,-576 541.6157,-576 611.6157,-576 611.6157,-576 617.6157,-576 623.6157,-582 623.6157,-588 623.6157,-588 623.6157,-600 623.6157,-600 623.6157,-606 617.6157,-612 611.6157,-612"/>
<text text-anchor="middle" x="576.6157" y="-597" font-family="sans" font-size="10.00" fill="#000000">nonpareil_infer</text>
<text text-anchor="middle" x="576.6157" y="-586" font-family="sans" font-size="10.00" fill="#000000">tool: merge_lanes</text>
</g>
<!-- 3&#45;&gt;9 -->
<g id="edge30" class="edge">
<title>3&#45;&gt;9</title>
<path fill="none" stroke="#c0c0c0" stroke-width="2" d="M485.8198,-647.805C502.4297,-637.9621 521.1847,-626.848 537.3187,-617.2871"/>
<polygon fill="#c0c0c0" stroke="#c0c0c0" stroke-width="2" points="539.1635,-620.2623 545.9821,-612.1532 535.5949,-614.2403 539.1635,-620.2623"/>
</g>
<!-- 18 -->
<g id="node19" class="node">
<title>18</title>
<path fill="none" stroke="#d88556" stroke-width="2" d="M416.1157,-540C416.1157,-540 357.1157,-540 357.1157,-540 351.1157,-540 345.1157,-534 345.1157,-528 345.1157,-528 345.1157,-516 345.1157,-516 345.1157,-510 351.1157,-504 357.1157,-504 357.1157,-504 416.1157,-504 416.1157,-504 422.1157,-504 428.1157,-510 428.1157,-516 428.1157,-516 428.1157,-528 428.1157,-528 428.1157,-534 422.1157,-540 416.1157,-540"/>
<text text-anchor="middle" x="386.6157" y="-519.5" font-family="sans" font-size="10.00" fill="#000000">extend_tadpole</text>
</g>
<!-- 3&#45;&gt;18 -->
<g id="edge40" class="edge">
<title>3&#45;&gt;18</title>
<path fill="none" stroke="#c0c0c0" stroke-width="2" d="M439.3825,-647.8147C436.9913,-627.5976 432.1639,-599.2449 422.6157,-576 418.7393,-566.5629 413.1013,-557.046 407.4329,-548.6864"/>
<polygon fill="#c0c0c0" stroke="#c0c0c0" stroke-width="2" points="410.2278,-546.577 401.5873,-540.4456 404.5183,-550.627 410.2278,-546.577"/>
</g>
<!-- 19 -->
<g id="node20" class="node">
<title>19</title>
<path fill="none" stroke="#d6d856" stroke-width="2" d="M401.6157,-612C401.6157,-612 371.6157,-612 371.6157,-612 365.6157,-612 359.6157,-606 359.6157,-600 359.6157,-600 359.6157,-588 359.6157,-588 359.6157,-582 365.6157,-576 371.6157,-576 371.6157,-576 401.6157,-576 401.6157,-576 407.6157,-576 413.6157,-582 413.6157,-588 413.6157,-588 413.6157,-600 413.6157,-600 413.6157,-606 407.6157,-612 401.6157,-612"/>
<text text-anchor="middle" x="386.6157" y="-591.5" font-family="sans" font-size="10.00" fill="#000000">loglog</text>
</g>
<!-- 3&#45;&gt;19 -->
<g id="edge42" class="edge">
<title>3&#45;&gt;19</title>
<path fill="none" stroke="#c0c0c0" stroke-width="2" d="M423.6067,-647.805C417.5915,-639.0557 410.8859,-629.3021 404.8535,-620.5277"/>
<polygon fill="#c0c0c0" stroke="#c0c0c0" stroke-width="2" points="407.6456,-618.4108 399.0961,-612.1532 401.8773,-622.3765 407.6456,-618.4108"/>
</g>
<!-- 36 -->
<g id="node37" class="node">
<title>36</title>
<path fill="none" stroke="#56a9d8" stroke-width="2" d="M130.1157,-324C130.1157,-324 87.1157,-324 87.1157,-324 81.1157,-324 75.1157,-318 75.1157,-312 75.1157,-312 75.1157,-300 75.1157,-300 75.1157,-294 81.1157,-288 87.1157,-288 87.1157,-288 130.1157,-288 130.1157,-288 136.1157,-288 142.1157,-294 142.1157,-300 142.1157,-300 142.1157,-312 142.1157,-312 142.1157,-318 136.1157,-324 130.1157,-324"/>
<text text-anchor="middle" x="108.6157" y="-303.5" font-family="sans" font-size="10.00" fill="#000000">seqkit_grep</text>
</g>
<!-- 3&#45;&gt;36 -->
<g id="edge60" class="edge">
<title>3&#45;&gt;36</title>
<path fill="none" stroke="#c0c0c0" stroke-width="2" d="M377.5024,-659.4121C278.2258,-634.9405 98.6157,-582.3302 98.6157,-522 98.6157,-522 98.6157,-522 98.6157,-450 98.6157,-409.7793 102.5462,-363.391 105.4789,-334.3773"/>
<polygon fill="#c0c0c0" stroke="#c0c0c0" stroke-width="2" points="108.9885,-334.4662 106.5437,-324.1573 102.0262,-333.7407 108.9885,-334.4662"/>
</g>
<!-- 4 -->
<g id="node5" class="node">
<title>4</title>
<path fill="none" stroke="#d8ac56" stroke-width="2" d="M722.6157,-540C722.6157,-540 652.6157,-540 652.6157,-540 646.6157,-540 640.6157,-534 640.6157,-528 640.6157,-528 640.6157,-516 640.6157,-516 640.6157,-510 646.6157,-504 652.6157,-504 652.6157,-504 722.6157,-504 722.6157,-504 728.6157,-504 734.6157,-510 734.6157,-516 734.6157,-516 734.6157,-528 734.6157,-528 734.6157,-534 728.6157,-540 722.6157,-540"/>
<text text-anchor="middle" x="687.6157" y="-525" font-family="sans" font-size="10.00" fill="#000000">fastqc</text>
<text text-anchor="middle" x="687.6157" y="-514" font-family="sans" font-size="10.00" fill="#000000">tool: merge_lanes</text>
</g>
<!-- 4&#45;&gt;1 -->
<g id="edge6" class="edge">
<title>4&#45;&gt;1</title>
<path fill="none" stroke="#c0c0c0" stroke-width="2" d="M679.981,-503.7257C669.4136,-476.7325 651.6157,-424.3849 651.6157,-378 651.6157,-378 651.6157,-378 651.6157,-306 651.6157,-225.8951 664.4528,-189.1581 730.6157,-144 768.7841,-117.949 820.5324,-103.6021 855.1727,-96.3646"/>
<polygon fill="#c0c0c0" stroke="#c0c0c0" stroke-width="2" points="856.2152,-99.7258 865.3399,-94.3416 854.8491,-92.8604 856.2152,-99.7258"/>
</g>
<!-- 5 -->
<g id="node6" class="node">
<title>5</title>
<path fill="none" stroke="#80d856" stroke-width="2" d="M899.6157,-700C899.6157,-700 795.6157,-700 795.6157,-700 789.6157,-700 783.6157,-694 783.6157,-688 783.6157,-688 783.6157,-660 783.6157,-660 783.6157,-654 789.6157,-648 795.6157,-648 795.6157,-648 899.6157,-648 899.6157,-648 905.6157,-648 911.6157,-654 911.6157,-660 911.6157,-660 911.6157,-688 911.6157,-688 911.6157,-694 905.6157,-700 899.6157,-700"/>
<text text-anchor="middle" x="847.6157" y="-688" font-family="sans" font-size="10.00" fill="#000000">merge_lanes</text>
<text text-anchor="middle" x="847.6157" y="-677" font-family="sans" font-size="10.00" fill="#000000">library: lib1</text>
<text text-anchor="middle" x="847.6157" y="-666" font-family="sans" font-size="10.00" fill="#000000">read_type_trim: collapsed</text>
<text text-anchor="middle" x="847.6157" y="-655" font-family="sans" font-size="10.00" fill="#000000">sample: HD827sonic_2</text>
</g>
<!-- 5&#45;&gt;4 -->
<g id="edge27" class="edge">
<title>5&#45;&gt;4</title>
<path fill="none" stroke="#c0c0c0" stroke-width="2" d="M804.9203,-647.9846C789.5639,-637.6903 772.5953,-625.172 758.6157,-612 738.2334,-592.7951 718.8065,-567.5108 705.443,-548.6327"/>
<polygon fill="#c0c0c0" stroke="#c0c0c0" stroke-width="2" points="708.1557,-546.4034 699.5703,-540.1952 702.4103,-550.4023 708.1557,-546.4034"/>
</g>
<!-- 13 -->
<g id="node14" class="node">
<title>13</title>
<path fill="none" stroke="#56d882" stroke-width="2" d="M882.6157,-612C882.6157,-612 812.6157,-612 812.6157,-612 806.6157,-612 800.6157,-606 800.6157,-600 800.6157,-600 800.6157,-588 800.6157,-588 800.6157,-582 806.6157,-576 812.6157,-576 812.6157,-576 882.6157,-576 882.6157,-576 888.6157,-576 894.6157,-582 894.6157,-588 894.6157,-588 894.6157,-600 894.6157,-600 894.6157,-606 888.6157,-612 882.6157,-612"/>
<text text-anchor="middle" x="847.6157" y="-597" font-family="sans" font-size="10.00" fill="#000000">nonpareil_infer</text>
<text text-anchor="middle" x="847.6157" y="-586" font-family="sans" font-size="10.00" fill="#000000">tool: merge_lanes</text>
</g>
<!-- 5&#45;&gt;13 -->
<g id="edge34" class="edge">
<title>5&#45;&gt;13</title>
<path fill="none" stroke="#c0c0c0" stroke-width="2" d="M847.6157,-647.805C847.6157,-639.6026 847.6157,-630.5174 847.6157,-622.1839"/>
<polygon fill="#c0c0c0" stroke="#c0c0c0" stroke-width="2" points="851.1158,-622.1532 847.6157,-612.1532 844.1158,-622.1533 851.1158,-622.1532"/>
</g>
<!-- 21 -->
<g id="node22" class="node">
<title>21</title>
<path fill="none" stroke="#d88556" stroke-width="2" d="M994.1157,-540C994.1157,-540 935.1157,-540 935.1157,-540 929.1157,-540 923.1157,-534 923.1157,-528 923.1157,-528 923.1157,-516 923.1157,-516 923.1157,-510 929.1157,-504 935.1157,-504 935.1157,-504 994.1157,-504 994.1157,-504 1000.1157,-504 1006.1157,-510 1006.1157,-516 1006.1157,-516 1006.1157,-528 1006.1157,-528 1006.1157,-534 1000.1157,-540 994.1157,-540"/>
<text text-anchor="middle" x="964.6157" y="-519.5" font-family="sans" font-size="10.00" fill="#000000">extend_tadpole</text>
</g>
<!-- 5&#45;&gt;21 -->
<g id="edge44" class="edge">
<title>5&#45;&gt;21</title>
<path fill="none" stroke="#c0c0c0" stroke-width="2" d="M911.6224,-658.7067C935.9957,-649.4302 961.3224,-634.8051 975.6157,-612 987.237,-593.4581 982.9932,-568.5145 976.6878,-549.5894"/>
<polygon fill="#c0c0c0" stroke="#c0c0c0" stroke-width="2" points="979.9109,-548.2135 973.1685,-540.0409 973.3429,-550.6344 979.9109,-548.2135"/>
</g>
<!-- 22 -->
<g id="node23" class="node">
<title>22</title>
<path fill="none" stroke="#d6d856" stroke-width="2" d="M954.6157,-612C954.6157,-612 924.6157,-612 924.6157,-612 918.6157,-612 912.6157,-606 912.6157,-600 912.6157,-600 912.6157,-588 912.6157,-588 912.6157,-582 918.6157,-576 924.6157,-576 924.6157,-576 954.6157,-576 954.6157,-576 960.6157,-576 966.6157,-582 966.6157,-588 966.6157,-588 966.6157,-600 966.6157,-600 966.6157,-606 960.6157,-612 954.6157,-612"/>
<text text-anchor="middle" x="939.6157" y="-591.5" font-family="sans" font-size="10.00" fill="#000000">loglog</text>
</g>
<!-- 5&#45;&gt;22 -->
<g id="edge46" class="edge">
<title>5&#45;&gt;22</title>
<path fill="none" stroke="#c0c0c0" stroke-width="2" d="M877.74,-647.805C888.4305,-638.5089 900.4249,-628.079 910.9871,-618.8945"/>
<polygon fill="#c0c0c0" stroke="#c0c0c0" stroke-width="2" points="913.4901,-621.3562 918.7395,-612.1532 908.8968,-616.0739 913.4901,-621.3562"/>
</g>
<!-- 39 -->
<g id="node40" class="node">
<title>39</title>
<path fill="none" stroke="#56a9d8" stroke-width="2" d="M824.1157,-324C824.1157,-324 781.1157,-324 781.1157,-324 775.1157,-324 769.1157,-318 769.1157,-312 769.1157,-312 769.1157,-300 769.1157,-300 769.1157,-294 775.1157,-288 781.1157,-288 781.1157,-288 824.1157,-288 824.1157,-288 830.1157,-288 836.1157,-294 836.1157,-300 836.1157,-300 836.1157,-312 836.1157,-312 836.1157,-318 830.1157,-324 824.1157,-324"/>
<text text-anchor="middle" x="802.6157" y="-303.5" font-family="sans" font-size="10.00" fill="#000000">seqkit_grep</text>
</g>
<!-- 5&#45;&gt;39 -->
<g id="edge64" class="edge">
<title>5&#45;&gt;39</title>
<path fill="none" stroke="#c0c0c0" stroke-width="2" d="M818.4948,-647.9949C808.5882,-637.7017 798.3335,-625.1816 791.6157,-612 773.0527,-575.5758 772.6157,-562.8816 772.6157,-522 772.6157,-522 772.6157,-522 772.6157,-450 772.6157,-409.0614 784.3803,-362.926 793.175,-334.1567"/>
<polygon fill="#c0c0c0" stroke="#c0c0c0" stroke-width="2" points="796.5869,-334.9746 796.2535,-324.385 789.9103,-332.8712 796.5869,-334.9746"/>
</g>
<!-- 6 -->
<g id="node7" class="node">
<title>6</title>
<path fill="none" stroke="#d8ac56" stroke-width="2" d="M1125.6157,-540C1125.6157,-540 1055.6157,-540 1055.6157,-540 1049.6157,-540 1043.6157,-534 1043.6157,-528 1043.6157,-528 1043.6157,-516 1043.6157,-516 1043.6157,-510 1049.6157,-504 1055.6157,-504 1055.6157,-504 1125.6157,-504 1125.6157,-504 1131.6157,-504 1137.6157,-510 1137.6157,-516 1137.6157,-516 1137.6157,-528 1137.6157,-528 1137.6157,-534 1131.6157,-540 1125.6157,-540"/>
<text text-anchor="middle" x="1090.6157" y="-525" font-family="sans" font-size="10.00" fill="#000000">fastqc</text>
<text text-anchor="middle" x="1090.6157" y="-514" font-family="sans" font-size="10.00" fill="#000000">tool: merge_lanes</text>
</g>
<!-- 6&#45;&gt;1 -->
<g id="edge7" class="edge">
<title>6&#45;&gt;1</title>
<path fill="none" stroke="#c0c0c0" stroke-width="2" d="M1097.19,-503.6321C1106.2898,-476.5223 1121.6157,-424.0309 1121.6157,-378 1121.6157,-378 1121.6157,-378 1121.6157,-234 1121.6157,-144.396 994.4177,-108.3683 929.6193,-95.8282"/>
<polygon fill="#c0c0c0" stroke="#c0c0c0" stroke-width="2" points="930.2535,-92.3862 919.7843,-94.0126 928.9827,-99.2699 930.2535,-92.3862"/>
</g>
<!-- 7 -->
<g id="node8" class="node">
<title>7</title>
<path fill="none" stroke="#80d856" stroke-width="2" d="M1317.6157,-700C1317.6157,-700 1213.6157,-700 1213.6157,-700 1207.6157,-700 1201.6157,-694 1201.6157,-688 1201.6157,-688 1201.6157,-660 1201.6157,-660 1201.6157,-654 1207.6157,-648 1213.6157,-648 1213.6157,-648 1317.6157,-648 1317.6157,-648 1323.6157,-648 1329.6157,-654 1329.6157,-660 1329.6157,-660 1329.6157,-688 1329.6157,-688 1329.6157,-694 1323.6157,-700 1317.6157,-700"/>
<text text-anchor="middle" x="1265.6157" y="-688" font-family="sans" font-size="10.00" fill="#000000">merge_lanes</text>
<text text-anchor="middle" x="1265.6157" y="-677" font-family="sans" font-size="10.00" fill="#000000">library: lib2</text>
<text text-anchor="middle" x="1265.6157" y="-666" font-family="sans" font-size="10.00" fill="#000000">read_type_trim: collapsed</text>
<text text-anchor="middle" x="1265.6157" y="-655" font-family="sans" font-size="10.00" fill="#000000">sample: HD827sonic_2</text>
</g>
<!-- 7&#45;&gt;6 -->
<g id="edge28" class="edge">
<title>7&#45;&gt;6</title>
<path fill="none" stroke="#c0c0c0" stroke-width="2" d="M1201.6031,-653.8288C1178.3477,-644.0658 1153.2362,-630.386 1134.6157,-612 1117.1212,-594.7258 1105.5311,-569.087 1098.6591,-549.5882"/>
<polygon fill="#c0c0c0" stroke="#c0c0c0" stroke-width="2" points="1101.9586,-548.4184 1095.4892,-540.0281 1095.3143,-550.6215 1101.9586,-548.4184"/>
</g>
<!-- 11 -->
<g id="node12" class="node">
<title>11</title>
<path fill="none" stroke="#56d882" stroke-width="2" d="M1225.6157,-612C1225.6157,-612 1155.6157,-612 1155.6157,-612 1149.6157,-612 1143.6157,-606 1143.6157,-600 1143.6157,-600 1143.6157,-588 1143.6157,-588 1143.6157,-582 1149.6157,-576 1155.6157,-576 1155.6157,-576 1225.6157,-576 1225.6157,-576 1231.6157,-576 1237.6157,-582 1237.6157,-588 1237.6157,-588 1237.6157,-600 1237.6157,-600 1237.6157,-606 1231.6157,-612 1225.6157,-612"/>
<text text-anchor="middle" x="1190.6157" y="-597" font-family="sans" font-size="10.00" fill="#000000">nonpareil_infer</text>
<text text-anchor="middle" x="1190.6157" y="-586" font-family="sans" font-size="10.00" fill="#000000">tool: merge_lanes</text>
</g>
<!-- 7&#45;&gt;11 -->
<g id="edge32" class="edge">
<title>7&#45;&gt;11</title>
<path fill="none" stroke="#c0c0c0" stroke-width="2" d="M1241.0579,-647.805C1232.5992,-638.7823 1223.139,-628.6915 1214.717,-619.7081"/>
<polygon fill="#c0c0c0" stroke="#c0c0c0" stroke-width="2" points="1217.0272,-617.0548 1207.6344,-612.1532 1211.9204,-621.8424 1217.0272,-617.0548"/>
</g>
<!-- 15 -->
<g id="node16" class="node">
<title>15</title>
<path fill="none" stroke="#d88556" stroke-width="2" d="M1376.1157,-540C1376.1157,-540 1317.1157,-540 1317.1157,-540 1311.1157,-540 1305.1157,-534 1305.1157,-528 1305.1157,-528 1305.1157,-516 1305.1157,-516 1305.1157,-510 1311.1157,-504 1317.1157,-504 1317.1157,-504 1376.1157,-504 1376.1157,-504 1382.1157,-504 1388.1157,-510 1388.1157,-516 1388.1157,-516 1388.1157,-528 1388.1157,-528 1388.1157,-534 1382.1157,-540 1376.1157,-540"/>
<text text-anchor="middle" x="1346.6157" y="-519.5" font-family="sans" font-size="10.00" fill="#000000">extend_tadpole</text>
</g>
<!-- 7&#45;&gt;15 -->
<g id="edge36" class="edge">
<title>7&#45;&gt;15</title>
<path fill="none" stroke="#c0c0c0" stroke-width="2" d="M1279.5401,-647.8703C1294.2513,-620.2641 1317.3383,-576.9403 1332.224,-549.0067"/>
<polygon fill="#c0c0c0" stroke="#c0c0c0" stroke-width="2" points="1335.3197,-550.6396 1336.9338,-540.1685 1329.1421,-547.3476 1335.3197,-550.6396"/>
</g>
<!-- 16 -->
<g id="node17" class="node">
<title>16</title>
<path fill="none" stroke="#d6d856" stroke-width="2" d="M1373.6157,-612C1373.6157,-612 1343.6157,-612 1343.6157,-612 1337.6157,-612 1331.6157,-606 1331.6157,-600 1331.6157,-600 1331.6157,-588 1331.6157,-588 1331.6157,-582 1337.6157,-576 1343.6157,-576 1343.6157,-576 1373.6157,-576 1373.6157,-576 1379.6157,-576 1385.6157,-582 1385.6157,-588 1385.6157,-588 1385.6157,-600 1385.6157,-600 1385.6157,-606 1379.6157,-612 1373.6157,-612"/>
<text text-anchor="middle" x="1358.6157" y="-591.5" font-family="sans" font-size="10.00" fill="#000000">loglog</text>
</g>
<!-- 7&#45;&gt;16 -->
<g id="edge38" class="edge">
<title>7&#45;&gt;16</title>
<path fill="none" stroke="#c0c0c0" stroke-width="2" d="M1296.0674,-647.805C1306.8741,-638.5089 1318.9989,-628.079 1329.6759,-618.8945"/>
<polygon fill="#c0c0c0" stroke="#c0c0c0" stroke-width="2" points="1332.214,-621.328 1337.5126,-612.1532 1327.649,-616.0212 1332.214,-621.328"/>
</g>
<!-- 42 -->
<g id="node43" class="node">
<title>42</title>
<path fill="none" stroke="#56a9d8" stroke-width="2" d="M1340.1157,-324C1340.1157,-324 1297.1157,-324 1297.1157,-324 1291.1157,-324 1285.1157,-318 1285.1157,-312 1285.1157,-312 1285.1157,-300 1285.1157,-300 1285.1157,-294 1291.1157,-288 1297.1157,-288 1297.1157,-288 1340.1157,-288 1340.1157,-288 1346.1157,-288 1352.1157,-294 1352.1157,-300 1352.1157,-300 1352.1157,-312 1352.1157,-312 1352.1157,-318 1346.1157,-324 1340.1157,-324"/>
<text text-anchor="middle" x="1318.6157" y="-303.5" font-family="sans" font-size="10.00" fill="#000000">seqkit_grep</text>
</g>
<!-- 7&#45;&gt;42 -->
<g id="edge68" class="edge">
<title>7&#45;&gt;42</title>
<path fill="none" stroke="#c0c0c0" stroke-width="2" d="M1265.6157,-647.9106C1265.6157,-617.633 1265.6157,-566.2014 1265.6157,-522 1265.6157,-522 1265.6157,-522 1265.6157,-450 1265.6157,-409.0242 1270.2797,-397.9976 1285.6157,-360 1289.3603,-350.7221 1294.6164,-341.2121 1299.835,-332.809"/>
<polygon fill="#c0c0c0" stroke="#c0c0c0" stroke-width="2" points="1302.9183,-334.4863 1305.4095,-324.1885 1297.0403,-330.6851 1302.9183,-334.4863"/>
</g>
<!-- 8 -->
<g id="node9" class="node">
<title>8</title>
<path fill="none" stroke="#56d8a9" stroke-width="2" d="M633.1157,-180C633.1157,-180 580.1157,-180 580.1157,-180 574.1157,-180 568.1157,-174 568.1157,-168 568.1157,-168 568.1157,-156 568.1157,-156 568.1157,-150 574.1157,-144 580.1157,-144 580.1157,-144 633.1157,-144 633.1157,-144 639.1157,-144 645.1157,-150 645.1157,-156 645.1157,-156 645.1157,-168 645.1157,-168 645.1157,-174 639.1157,-180 633.1157,-180"/>
<text text-anchor="middle" x="606.6157" y="-159.5" font-family="sans" font-size="10.00" fill="#000000">nonpareil_plot</text>
</g>
<!-- 8&#45;&gt;1 -->
<g id="edge8" class="edge">
<title>8&#45;&gt;1</title>
<path fill="none" stroke="#c0c0c0" stroke-width="2" d="M645.187,-152.2898C700.3345,-138.4065 801.0427,-113.0533 855.4206,-99.3638"/>
<polygon fill="#c0c0c0" stroke="#c0c0c0" stroke-width="2" points="856.4896,-102.704 865.3325,-96.8685 854.7806,-95.9158 856.4896,-102.704"/>
</g>
<!-- 9&#45;&gt;8 -->
<g id="edge29" class="edge">
<title>9&#45;&gt;8</title>
<path fill="none" stroke="#c0c0c0" stroke-width="2" d="M580.7597,-575.9265C586.6179,-548.7528 596.6157,-495.6844 596.6157,-450 596.6157,-450 596.6157,-450 596.6157,-306 596.6157,-265.7793 600.5462,-219.391 603.4789,-190.3773"/>
<polygon fill="#c0c0c0" stroke="#c0c0c0" stroke-width="2" points="606.9885,-190.4662 604.5437,-180.1573 600.0262,-189.7407 606.9885,-190.4662"/>
</g>
<!-- 10 -->
<g id="node11" class="node">
<title>10</title>
<path fill="none" stroke="#56d8a9" stroke-width="2" d="M1221.1157,-540C1221.1157,-540 1168.1157,-540 1168.1157,-540 1162.1157,-540 1156.1157,-534 1156.1157,-528 1156.1157,-528 1156.1157,-516 1156.1157,-516 1156.1157,-510 1162.1157,-504 1168.1157,-504 1168.1157,-504 1221.1157,-504 1221.1157,-504 1227.1157,-504 1233.1157,-510 1233.1157,-516 1233.1157,-516 1233.1157,-528 1233.1157,-528 1233.1157,-534 1227.1157,-540 1221.1157,-540"/>
<text text-anchor="middle" x="1194.6157" y="-519.5" font-family="sans" font-size="10.00" fill="#000000">nonpareil_plot</text>
</g>
<!-- 10&#45;&gt;1 -->
<g id="edge9" class="edge">
<title>10&#45;&gt;1</title>
<path fill="none" stroke="#c0c0c0" stroke-width="2" d="M1187.1931,-503.7059C1176.9192,-476.6881 1159.6157,-424.3101 1159.6157,-378 1159.6157,-378 1159.6157,-378 1159.6157,-234 1159.6157,-130.8446 1003.3173,-101.2431 929.8902,-93.0282"/>
<polygon fill="#c0c0c0" stroke="#c0c0c0" stroke-width="2" points="929.9953,-89.5203 919.6865,-91.9652 929.2699,-96.4827 929.9953,-89.5203"/>
</g>
<!-- 11&#45;&gt;10 -->
<g id="edge31" class="edge">
<title>11&#45;&gt;10</title>
<path fill="none" stroke="#c0c0c0" stroke-width="2" d="M1191.6251,-575.8314C1192.0529,-568.131 1192.5616,-558.9743 1193.037,-550.4166"/>
<polygon fill="#c0c0c0" stroke="#c0c0c0" stroke-width="2" points="1196.5326,-550.592 1193.5928,-540.4133 1189.5434,-550.2037 1196.5326,-550.592"/>
</g>
<!-- 12 -->
<g id="node13" class="node">
<title>12</title>
<path fill="none" stroke="#56d8a9" stroke-width="2" d="M887.1157,-468C887.1157,-468 834.1157,-468 834.1157,-468 828.1157,-468 822.1157,-462 822.1157,-456 822.1157,-456 822.1157,-444 822.1157,-444 822.1157,-438 828.1157,-432 834.1157,-432 834.1157,-432 887.1157,-432 887.1157,-432 893.1157,-432 899.1157,-438 899.1157,-444 899.1157,-444 899.1157,-456 899.1157,-456 899.1157,-462 893.1157,-468 887.1157,-468"/>
<text text-anchor="middle" x="860.6157" y="-447.5" font-family="sans" font-size="10.00" fill="#000000">nonpareil_plot</text>
</g>
<!-- 12&#45;&gt;1 -->
<g id="edge10" class="edge">
<title>12&#45;&gt;1</title>
<path fill="none" stroke="#c0c0c0" stroke-width="2" d="M870.8313,-431.6064C875.9506,-421.4327 881.6734,-408.3765 884.6157,-396 908.3532,-296.1501 900.8287,-172.8046 895.7007,-118.2391"/>
<polygon fill="#c0c0c0" stroke="#c0c0c0" stroke-width="2" points="899.1822,-117.8784 894.717,-108.2705 892.216,-118.5659 899.1822,-117.8784"/>
</g>
<!-- 13&#45;&gt;12 -->
<g id="edge33" class="edge">
<title>13&#45;&gt;12</title>
<path fill="none" stroke="#c0c0c0" stroke-width="2" d="M849.2622,-575.7623C851.4795,-551.201 855.4476,-507.2474 858.056,-478.3541"/>
<polygon fill="#c0c0c0" stroke="#c0c0c0" stroke-width="2" points="861.5692,-478.3638 858.9826,-468.0896 854.5976,-477.7344 861.5692,-478.3638"/>
</g>
<!-- 14 -->
<g id="node15" class="node">
<title>14</title>
<path fill="none" stroke="#d8ac56" stroke-width="2" d="M1507.6157,-468C1507.6157,-468 1429.6157,-468 1429.6157,-468 1423.6157,-468 1417.6157,-462 1417.6157,-456 1417.6157,-456 1417.6157,-444 1417.6157,-444 1417.6157,-438 1423.6157,-432 1429.6157,-432 1429.6157,-432 1507.6157,-432 1507.6157,-432 1513.6157,-432 1519.6157,-438 1519.6157,-444 1519.6157,-444 1519.6157,-456 1519.6157,-456 1519.6157,-462 1513.6157,-468 1507.6157,-468"/>
<text text-anchor="middle" x="1468.6157" y="-453" font-family="sans" font-size="10.00" fill="#000000">fastqc</text>
<text text-anchor="middle" x="1468.6157" y="-442" font-family="sans" font-size="10.00" fill="#000000">tool: extend/tadpole</text>
</g>
<!-- 14&#45;&gt;1 -->
<g id="edge11" class="edge">
<title>14&#45;&gt;1</title>
<path fill="none" stroke="#c0c0c0" stroke-width="2" d="M1474.3417,-431.5668C1482.2673,-404.3758 1495.6157,-351.7842 1495.6157,-306 1495.6157,-306 1495.6157,-306 1495.6157,-234 1495.6157,-189.669 1488.9361,-169.4178 1452.6157,-144 1409.8436,-114.0671 1047.9309,-96.4676 929.7678,-91.4783"/>
<polygon fill="#c0c0c0" stroke="#c0c0c0" stroke-width="2" points="929.8875,-87.9804 919.7505,-91.0611 929.5961,-94.9743 929.8875,-87.9804"/>
</g>
<!-- 15&#45;&gt;14 -->
<g id="edge35" class="edge">
<title>15&#45;&gt;14</title>
<path fill="none" stroke="#c0c0c0" stroke-width="2" d="M1377.4015,-503.8314C1393.006,-494.6221 1412.1397,-483.3301 1428.8461,-473.4706"/>
<polygon fill="#c0c0c0" stroke="#c0c0c0" stroke-width="2" points="1431.0066,-476.2596 1437.8398,-468.1628 1427.4488,-470.2312 1431.0066,-476.2596"/>
</g>
<!-- 26 -->
<g id="node27" class="node">
<title>26</title>
<path fill="none" stroke="#5682d8" stroke-width="2" d="M1353.6157,-468C1353.6157,-468 1323.6157,-468 1323.6157,-468 1317.6157,-468 1311.6157,-462 1311.6157,-456 1311.6157,-456 1311.6157,-444 1311.6157,-444 1311.6157,-438 1317.6157,-432 1323.6157,-432 1323.6157,-432 1353.6157,-432 1353.6157,-432 1359.6157,-432 1365.6157,-438 1365.6157,-444 1365.6157,-444 1365.6157,-456 1365.6157,-456 1365.6157,-462 1359.6157,-468 1353.6157,-468"/>
<text text-anchor="middle" x="1338.6157" y="-447.5" font-family="sans" font-size="10.00" fill="#000000">vsearch</text>
</g>
<!-- 15&#45;&gt;26 -->
<g id="edge50" class="edge">
<title>15&#45;&gt;26</title>
<path fill="none" stroke="#c0c0c0" stroke-width="2" d="M1344.597,-503.8314C1343.7414,-496.131 1342.724,-486.9743 1341.7731,-478.4166"/>
<polygon fill="#c0c0c0" stroke="#c0c0c0" stroke-width="2" points="1345.2446,-477.9656 1340.6616,-468.4133 1338.2874,-478.7386 1345.2446,-477.9656"/>
</g>
<!-- 16&#45;&gt;15 -->
<g id="edge37" class="edge">
<title>16&#45;&gt;15</title>
<path fill="none" stroke="#c0c0c0" stroke-width="2" d="M1355.5876,-575.8314C1354.3042,-568.131 1352.7781,-558.9743 1351.3518,-550.4166"/>
<polygon fill="#c0c0c0" stroke="#c0c0c0" stroke-width="2" points="1354.7811,-549.7018 1349.6846,-540.4133 1347.8763,-550.8526 1354.7811,-549.7018"/>
</g>
<!-- 17 -->
<g id="node18" class="node">
<title>17</title>
<path fill="none" stroke="#d8ac56" stroke-width="2" d="M425.6157,-180C425.6157,-180 347.6157,-180 347.6157,-180 341.6157,-180 335.6157,-174 335.6157,-168 335.6157,-168 335.6157,-156 335.6157,-156 335.6157,-150 341.6157,-144 347.6157,-144 347.6157,-144 425.6157,-144 425.6157,-144 431.6157,-144 437.6157,-150 437.6157,-156 437.6157,-156 437.6157,-168 437.6157,-168 437.6157,-174 431.6157,-180 425.6157,-180"/>
<text text-anchor="middle" x="386.6157" y="-165" font-family="sans" font-size="10.00" fill="#000000">fastqc</text>
<text text-anchor="middle" x="386.6157" y="-154" font-family="sans" font-size="10.00" fill="#000000">tool: extend/tadpole</text>
</g>
<!-- 17&#45;&gt;1 -->
<g id="edge12" class="edge">
<title>17&#45;&gt;1</title>
<path fill="none" stroke="#c0c0c0" stroke-width="2" d="M437.8544,-146.0001C440.8061,-145.2746 443.7415,-144.6005 446.6157,-144 596.2793,-112.7298 778.2522,-97.686 855.2965,-92.3537"/>
<polygon fill="#c0c0c0" stroke="#c0c0c0" stroke-width="2" points="855.7167,-95.8333 865.4571,-91.665 855.2433,-88.8493 855.7167,-95.8333"/>
</g>
<!-- 18&#45;&gt;17 -->
<g id="edge39" class="edge">
<title>18&#45;&gt;17</title>
<path fill="none" stroke="#c0c0c0" stroke-width="2" d="M386.6157,-503.8146C386.6157,-476.4983 386.6157,-423.25 386.6157,-378 386.6157,-378 386.6157,-378 386.6157,-306 386.6157,-265.876 386.6157,-219.4631 386.6157,-190.4177"/>
<polygon fill="#c0c0c0" stroke="#c0c0c0" stroke-width="2" points="390.1158,-190.1853 386.6157,-180.1854 383.1158,-190.1854 390.1158,-190.1853"/>
</g>
<!-- 28 -->
<g id="node29" class="node">
<title>28</title>
<path fill="none" stroke="#5682d8" stroke-width="2" d="M321.6157,-468C321.6157,-468 291.6157,-468 291.6157,-468 285.6157,-468 279.6157,-462 279.6157,-456 279.6157,-456 279.6157,-444 279.6157,-444 279.6157,-438 285.6157,-432 291.6157,-432 291.6157,-432 321.6157,-432 321.6157,-432 327.6157,-432 333.6157,-438 333.6157,-444 333.6157,-444 333.6157,-456 333.6157,-456 333.6157,-462 327.6157,-468 321.6157,-468"/>
<text text-anchor="middle" x="306.6157" y="-447.5" font-family="sans" font-size="10.00" fill="#000000">vsearch</text>
</g>
<!-- 18&#45;&gt;28 -->
<g id="edge52" class="edge">
<title>18&#45;&gt;28</title>
<path fill="none" stroke="#c0c0c0" stroke-width="2" d="M366.4283,-503.8314C356.7643,-495.1337 345.0361,-484.5783 334.5341,-475.1265"/>
<polygon fill="#c0c0c0" stroke="#c0c0c0" stroke-width="2" points="336.571,-472.251 326.7966,-468.1628 331.8882,-477.454 336.571,-472.251"/>
</g>
<!-- 19&#45;&gt;18 -->
<g id="edge41" class="edge">
<title>19&#45;&gt;18</title>
<path fill="none" stroke="#c0c0c0" stroke-width="2" d="M386.6157,-575.8314C386.6157,-568.131 386.6157,-558.9743 386.6157,-550.4166"/>
<polygon fill="#c0c0c0" stroke="#c0c0c0" stroke-width="2" points="390.1158,-550.4132 386.6157,-540.4133 383.1158,-550.4133 390.1158,-550.4132"/>
</g>
<!-- 20 -->
<g id="node21" class="node">
<title>20</title>
<path fill="none" stroke="#d8ac56" stroke-width="2" d="M1081.6157,-468C1081.6157,-468 1003.6157,-468 1003.6157,-468 997.6157,-468 991.6157,-462 991.6157,-456 991.6157,-456 991.6157,-444 991.6157,-444 991.6157,-438 997.6157,-432 1003.6157,-432 1003.6157,-432 1081.6157,-432 1081.6157,-432 1087.6157,-432 1093.6157,-438 1093.6157,-444 1093.6157,-444 1093.6157,-456 1093.6157,-456 1093.6157,-462 1087.6157,-468 1081.6157,-468"/>
<text text-anchor="middle" x="1042.6157" y="-453" font-family="sans" font-size="10.00" fill="#000000">fastqc</text>
<text text-anchor="middle" x="1042.6157" y="-442" font-family="sans" font-size="10.00" fill="#000000">tool: extend/tadpole</text>
</g>
<!-- 20&#45;&gt;1 -->
<g id="edge13" class="edge">
<title>20&#45;&gt;1</title>
<path fill="none" stroke="#c0c0c0" stroke-width="2" d="M1051.3108,-431.8324C1063.3459,-404.9721 1083.6157,-352.7885 1083.6157,-306 1083.6157,-306 1083.6157,-306 1083.6157,-234 1083.6157,-157.7655 985.4009,-116.8177 929.8284,-99.7503"/>
<polygon fill="#c0c0c0" stroke="#c0c0c0" stroke-width="2" points="930.5634,-96.3178 919.9814,-96.8382 928.5782,-103.0304 930.5634,-96.3178"/>
</g>
<!-- 21&#45;&gt;20 -->
<g id="edge43" class="edge">
<title>21&#45;&gt;20</title>
<path fill="none" stroke="#c0c0c0" stroke-width="2" d="M984.2984,-503.8314C993.7208,-495.1337 1005.1559,-484.5783 1015.3953,-475.1265"/>
<polygon fill="#c0c0c0" stroke="#c0c0c0" stroke-width="2" points="1017.9653,-477.5175 1022.9393,-468.1628 1013.2173,-472.3738 1017.9653,-477.5175"/>
</g>
<!-- 24 -->
<g id="node25" class="node">
<title>24</title>
<path fill="none" stroke="#5682d8" stroke-width="2" d="M961.6157,-468C961.6157,-468 931.6157,-468 931.6157,-468 925.6157,-468 919.6157,-462 919.6157,-456 919.6157,-456 919.6157,-444 919.6157,-444 919.6157,-438 925.6157,-432 931.6157,-432 931.6157,-432 961.6157,-432 961.6157,-432 967.6157,-432 973.6157,-438 973.6157,-444 973.6157,-444 973.6157,-456 973.6157,-456 973.6157,-462 967.6157,-468 961.6157,-468"/>
<text text-anchor="middle" x="946.6157" y="-447.5" font-family="sans" font-size="10.00" fill="#000000">vsearch</text>
</g>
<!-- 21&#45;&gt;24 -->
<g id="edge48" class="edge">
<title>21&#45;&gt;24</title>
<path fill="none" stroke="#c0c0c0" stroke-width="2" d="M960.0736,-503.8314C958.1273,-496.0463 955.809,-486.7729 953.6494,-478.1347"/>
<polygon fill="#c0c0c0" stroke="#c0c0c0" stroke-width="2" points="957.04,-477.2658 951.219,-468.4133 950.249,-478.9636 957.04,-477.2658"/>
</g>
<!-- 22&#45;&gt;21 -->
<g id="edge45" class="edge">
<title>22&#45;&gt;21</title>
<path fill="none" stroke="#c0c0c0" stroke-width="2" d="M945.9243,-575.8314C948.6274,-568.0463 951.8473,-558.7729 954.8467,-550.1347"/>
<polygon fill="#c0c0c0" stroke="#c0c0c0" stroke-width="2" points="958.2484,-551.0081 958.2222,-540.4133 951.6357,-548.7119 958.2484,-551.0081"/>
</g>
<!-- 23 -->
<g id="node24" class="node">
<title>23</title>
<path fill="none" stroke="#d8ac56" stroke-width="2" d="M982.6157,-324C982.6157,-324 944.6157,-324 944.6157,-324 938.6157,-324 932.6157,-318 932.6157,-312 932.6157,-312 932.6157,-300 932.6157,-300 932.6157,-294 938.6157,-288 944.6157,-288 944.6157,-288 982.6157,-288 982.6157,-288 988.6157,-288 994.6157,-294 994.6157,-300 994.6157,-300 994.6157,-312 994.6157,-312 994.6157,-318 988.6157,-324 982.6157,-324"/>
<text text-anchor="middle" x="963.6157" y="-309" font-family="sans" font-size="10.00" fill="#000000">fastqc</text>
<text text-anchor="middle" x="963.6157" y="-298" font-family="sans" font-size="10.00" fill="#000000">tool: derep</text>
</g>
<!-- 23&#45;&gt;1 -->
<g id="edge14" class="edge">
<title>23&#45;&gt;1</title>
<path fill="none" stroke="#c0c0c0" stroke-width="2" d="M961.2925,-287.9294C956.9492,-257.3806 946.1278,-193.9755 925.6157,-144 921.8168,-134.7443 916.545,-125.2406 911.3288,-116.8365"/>
<polygon fill="#c0c0c0" stroke="#c0c0c0" stroke-width="2" points="914.1263,-114.7166 905.7629,-108.2125 908.2449,-118.5125 914.1263,-114.7166"/>
</g>
<!-- 24&#45;&gt;23 -->
<g id="edge47" class="edge">
<title>24&#45;&gt;23</title>
<path fill="none" stroke="#c0c0c0" stroke-width="2" d="M948.7688,-431.7623C951.6684,-407.201 956.8573,-363.2474 960.2684,-334.3541"/>
<polygon fill="#c0c0c0" stroke="#c0c0c0" stroke-width="2" points="963.7835,-334.431 961.4801,-324.0896 956.8318,-333.6103 963.7835,-334.431"/>
</g>
<!-- 30 -->
<g id="node31" class="node">
<title>30</title>
<path fill="none" stroke="#56d882" stroke-width="2" d="M1043.6157,-396C1043.6157,-396 987.6157,-396 987.6157,-396 981.6157,-396 975.6157,-390 975.6157,-384 975.6157,-384 975.6157,-372 975.6157,-372 975.6157,-366 981.6157,-360 987.6157,-360 987.6157,-360 1043.6157,-360 1043.6157,-360 1049.6157,-360 1055.6157,-366 1055.6157,-372 1055.6157,-372 1055.6157,-384 1055.6157,-384 1055.6157,-390 1049.6157,-396 1043.6157,-396"/>
<text text-anchor="middle" x="1015.6157" y="-381" font-family="sans" font-size="10.00" fill="#000000">nonpareil_infer</text>
<text text-anchor="middle" x="1015.6157" y="-370" font-family="sans" font-size="10.00" fill="#000000">tool: derep</text>
</g>
<!-- 24&#45;&gt;30 -->
<g id="edge54" class="edge">
<title>24&#45;&gt;30</title>
<path fill="none" stroke="#c0c0c0" stroke-width="2" d="M964.0273,-431.8314C972.1367,-423.3694 981.9314,-413.1489 990.7977,-403.8971"/>
<polygon fill="#c0c0c0" stroke="#c0c0c0" stroke-width="2" points="993.5776,-406.0549 997.9697,-396.4133 988.5236,-401.2115 993.5776,-406.0549"/>
</g>
<!-- 40 -->
<g id="node41" class="node">
<title>40</title>
<path fill="none" stroke="#56d8d8" stroke-width="2" d="M864.1157,-396C864.1157,-396 813.1157,-396 813.1157,-396 807.1157,-396 801.1157,-390 801.1157,-384 801.1157,-384 801.1157,-372 801.1157,-372 801.1157,-366 807.1157,-360 813.1157,-360 813.1157,-360 864.1157,-360 864.1157,-360 870.1157,-360 876.1157,-366 876.1157,-372 876.1157,-372 876.1157,-384 876.1157,-384 876.1157,-390 870.1157,-396 864.1157,-396"/>
<text text-anchor="middle" x="838.6157" y="-375.5" font-family="sans" font-size="10.00" fill="#000000">seqkit_fx2tab</text>
</g>
<!-- 24&#45;&gt;40 -->
<g id="edge66" class="edge">
<title>24&#45;&gt;40</title>
<path fill="none" stroke="#c0c0c0" stroke-width="2" d="M919.3628,-431.8314C905.6768,-422.7074 888.9243,-411.539 874.233,-401.7449"/>
<polygon fill="#c0c0c0" stroke="#c0c0c0" stroke-width="2" points="876.1219,-398.7977 865.86,-396.1628 872.239,-404.6221 876.1219,-398.7977"/>
</g>
<!-- 25 -->
<g id="node26" class="node">
<title>25</title>
<path fill="none" stroke="#d8ac56" stroke-width="2" d="M1241.6157,-324C1241.6157,-324 1203.6157,-324 1203.6157,-324 1197.6157,-324 1191.6157,-318 1191.6157,-312 1191.6157,-312 1191.6157,-300 1191.6157,-300 1191.6157,-294 1197.6157,-288 1203.6157,-288 1203.6157,-288 1241.6157,-288 1241.6157,-288 1247.6157,-288 1253.6157,-294 1253.6157,-300 1253.6157,-300 1253.6157,-312 1253.6157,-312 1253.6157,-318 1247.6157,-324 1241.6157,-324"/>
<text text-anchor="middle" x="1222.6157" y="-309" font-family="sans" font-size="10.00" fill="#000000">fastqc</text>
<text text-anchor="middle" x="1222.6157" y="-298" font-family="sans" font-size="10.00" fill="#000000">tool: derep</text>
</g>
<!-- 25&#45;&gt;1 -->
<g id="edge15" class="edge">
<title>25&#45;&gt;1</title>
<path fill="none" stroke="#c0c0c0" stroke-width="2" d="M1219.5375,-287.8202C1212.7196,-249.7334 1195.2251,-163.474 1173.6157,-144 1138.2362,-112.1167 998.2164,-97.7006 930.1535,-92.4724"/>
<polygon fill="#c0c0c0" stroke="#c0c0c0" stroke-width="2" points="930.106,-88.9594 919.8747,-91.7109 929.5888,-95.9402 930.106,-88.9594"/>
</g>
<!-- 26&#45;&gt;25 -->
<g id="edge49" class="edge">
<title>26&#45;&gt;25</title>
<path fill="none" stroke="#c0c0c0" stroke-width="2" d="M1319.4287,-431.9714C1308.9927,-421.799 1296.1106,-408.6284 1285.6157,-396 1268.7493,-375.7047 1251.7118,-351.0579 1239.6149,-332.6916"/>
<polygon fill="#c0c0c0" stroke="#c0c0c0" stroke-width="2" points="1242.4893,-330.6918 1234.0957,-324.2266 1236.6255,-334.5149 1242.4893,-330.6918"/>
</g>
<!-- 32 -->
<g id="node33" class="node">
<title>32</title>
<path fill="none" stroke="#56d882" stroke-width="2" d="M1455.6157,-396C1455.6157,-396 1399.6157,-396 1399.6157,-396 1393.6157,-396 1387.6157,-390 1387.6157,-384 1387.6157,-384 1387.6157,-372 1387.6157,-372 1387.6157,-366 1393.6157,-360 1399.6157,-360 1399.6157,-360 1455.6157,-360 1455.6157,-360 1461.6157,-360 1467.6157,-366 1467.6157,-372 1467.6157,-372 1467.6157,-384 1467.6157,-384 1467.6157,-390 1461.6157,-396 1455.6157,-396"/>
<text text-anchor="middle" x="1427.6157" y="-381" font-family="sans" font-size="10.00" fill="#000000">nonpareil_infer</text>
<text text-anchor="middle" x="1427.6157" y="-370" font-family="sans" font-size="10.00" fill="#000000">tool: derep</text>
</g>
<!-- 26&#45;&gt;32 -->
<g id="edge56" class="edge">
<title>26&#45;&gt;32</title>
<path fill="none" stroke="#c0c0c0" stroke-width="2" d="M1361.0742,-431.8314C1372.0362,-422.9632 1385.3856,-412.1637 1397.2422,-402.5718"/>
<polygon fill="#c0c0c0" stroke="#c0c0c0" stroke-width="2" points="1399.5913,-405.1734 1405.1644,-396.1628 1395.1886,-399.7313 1399.5913,-405.1734"/>
</g>
<!-- 43 -->
<g id="node44" class="node">
<title>43</title>
<path fill="none" stroke="#56d8d8" stroke-width="2" d="M1357.1157,-396C1357.1157,-396 1306.1157,-396 1306.1157,-396 1300.1157,-396 1294.1157,-390 1294.1157,-384 1294.1157,-384 1294.1157,-372 1294.1157,-372 1294.1157,-366 1300.1157,-360 1306.1157,-360 1306.1157,-360 1357.1157,-360 1357.1157,-360 1363.1157,-360 1369.1157,-366 1369.1157,-372 1369.1157,-372 1369.1157,-384 1369.1157,-384 1369.1157,-390 1363.1157,-396 1357.1157,-396"/>
<text text-anchor="middle" x="1331.6157" y="-375.5" font-family="sans" font-size="10.00" fill="#000000">seqkit_fx2tab</text>
</g>
<!-- 26&#45;&gt;43 -->
<g id="edge70" class="edge">
<title>26&#45;&gt;43</title>
<path fill="none" stroke="#c0c0c0" stroke-width="2" d="M1336.8493,-431.8314C1336.1007,-424.131 1335.2104,-414.9743 1334.3784,-406.4166"/>
<polygon fill="#c0c0c0" stroke="#c0c0c0" stroke-width="2" points="1337.8572,-406.0276 1333.4059,-396.4133 1330.8901,-406.7051 1337.8572,-406.0276"/>
</g>
<!-- 27 -->
<g id="node28" class="node">
<title>27</title>
<path fill="none" stroke="#d8ac56" stroke-width="2" d="M336.6157,-324C336.6157,-324 298.6157,-324 298.6157,-324 292.6157,-324 286.6157,-318 286.6157,-312 286.6157,-312 286.6157,-300 286.6157,-300 286.6157,-294 292.6157,-288 298.6157,-288 298.6157,-288 336.6157,-288 336.6157,-288 342.6157,-288 348.6157,-294 348.6157,-300 348.6157,-300 348.6157,-312 348.6157,-312 348.6157,-318 342.6157,-324 336.6157,-324"/>
<text text-anchor="middle" x="317.6157" y="-309" font-family="sans" font-size="10.00" fill="#000000">fastqc</text>
<text text-anchor="middle" x="317.6157" y="-298" font-family="sans" font-size="10.00" fill="#000000">tool: derep</text>
</g>
<!-- 27&#45;&gt;1 -->
<g id="edge16" class="edge">
<title>27&#45;&gt;1</title>
<path fill="none" stroke="#c0c0c0" stroke-width="2" d="M311.9949,-287.9986C302.8144,-254.6213 289.1381,-182.9927 326.6157,-144 363.2593,-105.8751 735.1202,-93.74 855.3426,-90.7973"/>
<polygon fill="#c0c0c0" stroke="#c0c0c0" stroke-width="2" points="855.6101,-94.2921 865.5241,-90.5556 855.4438,-87.294 855.6101,-94.2921"/>
</g>
<!-- 28&#45;&gt;27 -->
<g id="edge51" class="edge">
<title>28&#45;&gt;27</title>
<path fill="none" stroke="#c0c0c0" stroke-width="2" d="M308.0089,-431.7623C309.8851,-407.201 313.2427,-363.2474 315.4498,-334.3541"/>
<polygon fill="#c0c0c0" stroke="#c0c0c0" stroke-width="2" points="318.9619,-334.3272 316.2339,-324.0896 311.9823,-333.794 318.9619,-334.3272"/>
</g>
<!-- 34 -->
<g id="node35" class="node">
<title>34</title>
<path fill="none" stroke="#56d882" stroke-width="2" d="M288.6157,-396C288.6157,-396 232.6157,-396 232.6157,-396 226.6157,-396 220.6157,-390 220.6157,-384 220.6157,-384 220.6157,-372 220.6157,-372 220.6157,-366 226.6157,-360 232.6157,-360 232.6157,-360 288.6157,-360 288.6157,-360 294.6157,-360 300.6157,-366 300.6157,-372 300.6157,-372 300.6157,-384 300.6157,-384 300.6157,-390 294.6157,-396 288.6157,-396"/>
<text text-anchor="middle" x="260.6157" y="-381" font-family="sans" font-size="10.00" fill="#000000">nonpareil_infer</text>
<text text-anchor="middle" x="260.6157" y="-370" font-family="sans" font-size="10.00" fill="#000000">tool: derep</text>
</g>
<!-- 28&#45;&gt;34 -->
<g id="edge58" class="edge">
<title>28&#45;&gt;34</title>
<path fill="none" stroke="#c0c0c0" stroke-width="2" d="M295.008,-431.8314C289.818,-423.7079 283.5925,-413.9637 277.8733,-405.0118"/>
<polygon fill="#c0c0c0" stroke="#c0c0c0" stroke-width="2" points="280.7131,-402.9559 272.3798,-396.4133 274.8142,-406.7246 280.7131,-402.9559"/>
</g>
<!-- 37 -->
<g id="node38" class="node">
<title>37</title>
<path fill="none" stroke="#56d8d8" stroke-width="2" d="M190.1157,-396C190.1157,-396 139.1157,-396 139.1157,-396 133.1157,-396 127.1157,-390 127.1157,-384 127.1157,-384 127.1157,-372 127.1157,-372 127.1157,-366 133.1157,-360 139.1157,-360 139.1157,-360 190.1157,-360 190.1157,-360 196.1157,-360 202.1157,-366 202.1157,-372 202.1157,-372 202.1157,-384 202.1157,-384 202.1157,-390 196.1157,-396 190.1157,-396"/>
<text text-anchor="middle" x="164.6157" y="-375.5" font-family="sans" font-size="10.00" fill="#000000">seqkit_fx2tab</text>
</g>
<!-- 28&#45;&gt;37 -->
<g id="edge62" class="edge">
<title>28&#45;&gt;37</title>
<path fill="none" stroke="#c0c0c0" stroke-width="2" d="M279.5724,-436.2879C259.6815,-426.2024 232.2022,-412.2692 209.0979,-400.5543"/>
<polygon fill="#c0c0c0" stroke="#c0c0c0" stroke-width="2" points="210.6582,-397.4213 200.1563,-396.0206 207.4925,-403.6646 210.6582,-397.4213"/>
</g>
<!-- 29 -->
<g id="node30" class="node">
<title>29</title>
<path fill="none" stroke="#56d8a9" stroke-width="2" d="M1043.1157,-252C1043.1157,-252 990.1157,-252 990.1157,-252 984.1157,-252 978.1157,-246 978.1157,-240 978.1157,-240 978.1157,-228 978.1157,-228 978.1157,-222 984.1157,-216 990.1157,-216 990.1157,-216 1043.1157,-216 1043.1157,-216 1049.1157,-216 1055.1157,-222 1055.1157,-228 1055.1157,-228 1055.1157,-240 1055.1157,-240 1055.1157,-246 1049.1157,-252 1043.1157,-252"/>
<text text-anchor="middle" x="1016.6157" y="-231.5" font-family="sans" font-size="10.00" fill="#000000">nonpareil_plot</text>
</g>
<!-- 29&#45;&gt;1 -->
<g id="edge17" class="edge">
<title>29&#45;&gt;1</title>
<path fill="none" stroke="#c0c0c0" stroke-width="2" d="M1008.4862,-215.7453C999.3656,-196.5411 983.2466,-166.096 963.6157,-144 953.3364,-132.4299 940.2626,-121.6638 928.1427,-112.8373"/>
<polygon fill="#c0c0c0" stroke="#c0c0c0" stroke-width="2" points="930.1375,-109.9613 919.9504,-107.0505 926.0988,-115.6788 930.1375,-109.9613"/>
</g>
<!-- 30&#45;&gt;29 -->
<g id="edge53" class="edge">
<title>30&#45;&gt;29</title>
<path fill="none" stroke="#c0c0c0" stroke-width="2" d="M1015.7424,-359.7623C1015.9129,-335.201 1016.2182,-291.2474 1016.4188,-262.3541"/>
<polygon fill="#c0c0c0" stroke="#c0c0c0" stroke-width="2" points="1019.9205,-262.1137 1016.4901,-252.0896 1012.9206,-262.065 1019.9205,-262.1137"/>
</g>
<!-- 31 -->
<g id="node32" class="node">
<title>31</title>
<path fill="none" stroke="#56d8a9" stroke-width="2" d="M1454.1157,-324C1454.1157,-324 1401.1157,-324 1401.1157,-324 1395.1157,-324 1389.1157,-318 1389.1157,-312 1389.1157,-312 1389.1157,-300 1389.1157,-300 1389.1157,-294 1395.1157,-288 1401.1157,-288 1401.1157,-288 1454.1157,-288 1454.1157,-288 1460.1157,-288 1466.1157,-294 1466.1157,-300 1466.1157,-300 1466.1157,-312 1466.1157,-312 1466.1157,-318 1460.1157,-324 1454.1157,-324"/>
<text text-anchor="middle" x="1427.6157" y="-303.5" font-family="sans" font-size="10.00" fill="#000000">nonpareil_plot</text>
</g>
<!-- 31&#45;&gt;1 -->
<g id="edge18" class="edge">
<title>31&#45;&gt;1</title>
<path fill="none" stroke="#c0c0c0" stroke-width="2" d="M1435.1741,-287.7606C1447.8131,-253.9866 1468.2604,-181.7231 1429.6157,-144 1393.8952,-109.1313 1045.5507,-94.8957 929.7971,-91.1036"/>
<polygon fill="#c0c0c0" stroke="#c0c0c0" stroke-width="2" points="929.7597,-87.6007 919.6528,-90.7787 929.5355,-94.5971 929.7597,-87.6007"/>
</g>
<!-- 32&#45;&gt;31 -->
<g id="edge55" class="edge">
<title>32&#45;&gt;31</title>
<path fill="none" stroke="#c0c0c0" stroke-width="2" d="M1427.6157,-359.8314C1427.6157,-352.131 1427.6157,-342.9743 1427.6157,-334.4166"/>
<polygon fill="#c0c0c0" stroke="#c0c0c0" stroke-width="2" points="1431.1158,-334.4132 1427.6157,-324.4133 1424.1158,-334.4133 1431.1158,-334.4132"/>
</g>
<!-- 33 -->
<g id="node34" class="node">
<title>33</title>
<path fill="none" stroke="#56d8a9" stroke-width="2" d="M267.1157,-252C267.1157,-252 214.1157,-252 214.1157,-252 208.1157,-252 202.1157,-246 202.1157,-240 202.1157,-240 202.1157,-228 202.1157,-228 202.1157,-222 208.1157,-216 214.1157,-216 214.1157,-216 267.1157,-216 267.1157,-216 273.1157,-216 279.1157,-222 279.1157,-228 279.1157,-228 279.1157,-240 279.1157,-240 279.1157,-246 273.1157,-252 267.1157,-252"/>
<text text-anchor="middle" x="240.6157" y="-231.5" font-family="sans" font-size="10.00" fill="#000000">nonpareil_plot</text>
</g>
<!-- 33&#45;&gt;1 -->
<g id="edge19" class="edge">
<title>33&#45;&gt;1</title>
<path fill="none" stroke="#c0c0c0" stroke-width="2" d="M245.722,-215.9348C252.743,-194.7641 267.5679,-160.4852 293.6157,-144 341.0892,-113.9549 732.1279,-96.2608 855.4846,-91.3866"/>
<polygon fill="#c0c0c0" stroke="#c0c0c0" stroke-width="2" points="855.7173,-94.8803 865.5732,-90.9931 855.4444,-87.8856 855.7173,-94.8803"/>
</g>
<!-- 34&#45;&gt;33 -->
<g id="edge57" class="edge">
<title>34&#45;&gt;33</title>
<path fill="none" stroke="#c0c0c0" stroke-width="2" d="M258.0827,-359.7623C254.6714,-335.201 248.5667,-291.2474 244.5538,-262.3541"/>
<polygon fill="#c0c0c0" stroke="#c0c0c0" stroke-width="2" points="247.9707,-261.513 243.1282,-252.0896 241.0372,-262.4761 247.9707,-261.513"/>
</g>
<!-- 35 -->
<g id="node36" class="node">
<title>35</title>
<path fill="none" stroke="#d8ac56" stroke-width="2" d="M229.1157,-180C229.1157,-180 152.1157,-180 152.1157,-180 146.1157,-180 140.1157,-174 140.1157,-168 140.1157,-168 140.1157,-156 140.1157,-156 140.1157,-150 146.1157,-144 152.1157,-144 152.1157,-144 229.1157,-144 229.1157,-144 235.1157,-144 241.1157,-150 241.1157,-156 241.1157,-156 241.1157,-168 241.1157,-168 241.1157,-174 235.1157,-180 229.1157,-180"/>
<text text-anchor="middle" x="190.6157" y="-165" font-family="sans" font-size="10.00" fill="#000000">fastqc</text>
<text text-anchor="middle" x="190.6157" y="-154" font-family="sans" font-size="10.00" fill="#000000">tool: represent/grep</text>
</g>
<!-- 35&#45;&gt;1 -->
<g id="edge20" class="edge">
<title>35&#45;&gt;1</title>
<path fill="none" stroke="#c0c0c0" stroke-width="2" d="M241.1487,-147.0295C246.011,-145.8844 250.8902,-144.847 255.6157,-144 480.9193,-103.6154 756.6252,-93.2529 855.3019,-90.7502"/>
<polygon fill="#c0c0c0" stroke="#c0c0c0" stroke-width="2" points="855.4598,-94.2475 865.3723,-90.5068 855.2907,-87.2495 855.4598,-94.2475"/>
</g>
<!-- 36&#45;&gt;35 -->
<g id="edge59" class="edge">
<title>36&#45;&gt;35</title>
<path fill="none" stroke="#c0c0c0" stroke-width="2" d="M119.0011,-287.7623C133.2338,-262.7682 158.902,-217.6924 175.3313,-188.8409"/>
<polygon fill="#c0c0c0" stroke="#c0c0c0" stroke-width="2" points="178.4077,-190.5114 180.3147,-180.0896 172.3248,-187.0475 178.4077,-190.5114"/>
</g>
<!-- 47 -->
<g id="node48" class="node">
<title>47</title>
<path fill="none" stroke="#afd856" stroke-width="2" d="M98.6157,-252C98.6157,-252 38.6157,-252 38.6157,-252 32.6157,-252 26.6157,-246 26.6157,-240 26.6157,-240 26.6157,-228 26.6157,-228 26.6157,-222 32.6157,-216 38.6157,-216 38.6157,-216 98.6157,-216 98.6157,-216 104.6157,-216 110.6157,-222 110.6157,-228 110.6157,-228 110.6157,-240 110.6157,-240 110.6157,-246 104.6157,-252 98.6157,-252"/>
<text text-anchor="middle" x="68.6157" y="-231.5" font-family="sans" font-size="10.00" fill="#000000">low_complexity</text>
</g>
<!-- 36&#45;&gt;47 -->
<g id="edge74" class="edge">
<title>36&#45;&gt;47</title>
<path fill="none" stroke="#c0c0c0" stroke-width="2" d="M98.522,-287.8314C94.056,-279.7925 88.7083,-270.1666 83.7778,-261.2918"/>
<polygon fill="#c0c0c0" stroke="#c0c0c0" stroke-width="2" points="86.7613,-259.4551 78.8453,-252.4133 80.6422,-262.8546 86.7613,-259.4551"/>
</g>
<!-- 37&#45;&gt;36 -->
<g id="edge61" class="edge">
<title>37&#45;&gt;36</title>
<path fill="none" stroke="#c0c0c0" stroke-width="2" d="M150.4846,-359.8314C144.0346,-351.5386 136.2712,-341.557 129.1905,-332.4533"/>
<polygon fill="#c0c0c0" stroke="#c0c0c0" stroke-width="2" points="131.8393,-330.158 122.9372,-324.4133 126.3139,-334.4556 131.8393,-330.158"/>
</g>
<!-- 38 -->
<g id="node39" class="node">
<title>38</title>
<path fill="none" stroke="#d8ac56" stroke-width="2" d="M871.1157,-252C871.1157,-252 794.1157,-252 794.1157,-252 788.1157,-252 782.1157,-246 782.1157,-240 782.1157,-240 782.1157,-228 782.1157,-228 782.1157,-222 788.1157,-216 794.1157,-216 794.1157,-216 871.1157,-216 871.1157,-216 877.1157,-216 883.1157,-222 883.1157,-228 883.1157,-228 883.1157,-240 883.1157,-240 883.1157,-246 877.1157,-252 871.1157,-252"/>
<text text-anchor="middle" x="832.6157" y="-237" font-family="sans" font-size="10.00" fill="#000000">fastqc</text>
<text text-anchor="middle" x="832.6157" y="-226" font-family="sans" font-size="10.00" fill="#000000">tool: represent/grep</text>
</g>
<!-- 38&#45;&gt;1 -->
<g id="edge21" class="edge">
<title>38&#45;&gt;1</title>
<path fill="none" stroke="#c0c0c0" stroke-width="2" d="M840.2148,-215.7623C850.5388,-190.9846 869.086,-146.4714 881.1183,-117.5939"/>
<polygon fill="#c0c0c0" stroke="#c0c0c0" stroke-width="2" points="884.4629,-118.6666 885.0784,-108.0896 878.0014,-115.9742 884.4629,-118.6666"/>
</g>
<!-- 39&#45;&gt;38 -->
<g id="edge63" class="edge">
<title>39&#45;&gt;38</title>
<path fill="none" stroke="#c0c0c0" stroke-width="2" d="M810.186,-287.8314C813.465,-279.9617 817.3777,-270.5712 821.0102,-261.8533"/>
<polygon fill="#c0c0c0" stroke="#c0c0c0" stroke-width="2" points="824.3281,-262.9902 824.9435,-252.4133 817.8665,-260.2979 824.3281,-262.9902"/>
</g>
<!-- 45 -->
<g id="node46" class="node">
<title>45</title>
<path fill="none" stroke="#afd856" stroke-width="2" d="M751.6157,-252C751.6157,-252 691.6157,-252 691.6157,-252 685.6157,-252 679.6157,-246 679.6157,-240 679.6157,-240 679.6157,-228 679.6157,-228 679.6157,-222 685.6157,-216 691.6157,-216 691.6157,-216 751.6157,-216 751.6157,-216 757.6157,-216 763.6157,-222 763.6157,-228 763.6157,-228 763.6157,-240 763.6157,-240 763.6157,-246 757.6157,-252 751.6157,-252"/>
<text text-anchor="middle" x="721.6157" y="-231.5" font-family="sans" font-size="10.00" fill="#000000">low_complexity</text>
</g>
<!-- 39&#45;&gt;45 -->
<g id="edge72" class="edge">
<title>39&#45;&gt;45</title>
<path fill="none" stroke="#c0c0c0" stroke-width="2" d="M782.176,-287.8314C772.2953,-279.0485 760.2833,-268.3712 749.5707,-258.8489"/>
<polygon fill="#c0c0c0" stroke="#c0c0c0" stroke-width="2" points="751.8483,-256.1906 742.0489,-252.1628 747.1977,-261.4224 751.8483,-256.1906"/>
</g>
<!-- 40&#45;&gt;39 -->
<g id="edge65" class="edge">
<title>40&#45;&gt;39</title>
<path fill="none" stroke="#c0c0c0" stroke-width="2" d="M829.5314,-359.8314C825.5543,-351.8771 820.8002,-342.369 816.4019,-333.5723"/>
<polygon fill="#c0c0c0" stroke="#c0c0c0" stroke-width="2" points="819.425,-331.7923 811.8224,-324.4133 813.164,-334.9228 819.425,-331.7923"/>
</g>
<!-- 41 -->
<g id="node42" class="node">
<title>41</title>
<path fill="none" stroke="#d8ac56" stroke-width="2" d="M1315.1157,-252C1315.1157,-252 1238.1157,-252 1238.1157,-252 1232.1157,-252 1226.1157,-246 1226.1157,-240 1226.1157,-240 1226.1157,-228 1226.1157,-228 1226.1157,-222 1232.1157,-216 1238.1157,-216 1238.1157,-216 1315.1157,-216 1315.1157,-216 1321.1157,-216 1327.1157,-222 1327.1157,-228 1327.1157,-228 1327.1157,-240 1327.1157,-240 1327.1157,-246 1321.1157,-252 1315.1157,-252"/>
<text text-anchor="middle" x="1276.6157" y="-237" font-family="sans" font-size="10.00" fill="#000000">fastqc</text>
<text text-anchor="middle" x="1276.6157" y="-226" font-family="sans" font-size="10.00" fill="#000000">tool: represent/grep</text>
</g>
<!-- 41&#45;&gt;1 -->
<g id="edge22" class="edge">
<title>41&#45;&gt;1</title>
<path fill="none" stroke="#c0c0c0" stroke-width="2" d="M1268.7799,-215.8431C1258.7419,-194.917 1239.2737,-161.2056 1211.6157,-144 1165.0206,-115.0139 1003.7214,-98.8175 929.9563,-92.7731"/>
<polygon fill="#c0c0c0" stroke="#c0c0c0" stroke-width="2" points="929.9796,-89.2638 919.7322,-91.9546 929.421,-96.2415 929.9796,-89.2638"/>
</g>
<!-- 42&#45;&gt;41 -->
<g id="edge67" class="edge">
<title>42&#45;&gt;41</title>
<path fill="none" stroke="#c0c0c0" stroke-width="2" d="M1308.0173,-287.8314C1303.328,-279.7925 1297.7129,-270.1666 1292.5359,-261.2918"/>
<polygon fill="#c0c0c0" stroke="#c0c0c0" stroke-width="2" points="1295.4188,-259.2875 1287.3568,-252.4133 1289.3723,-262.8146 1295.4188,-259.2875"/>
</g>
<!-- 49 -->
<g id="node50" class="node">
<title>49</title>
<path fill="none" stroke="#afd856" stroke-width="2" d="M1417.6157,-252C1417.6157,-252 1357.6157,-252 1357.6157,-252 1351.6157,-252 1345.6157,-246 1345.6157,-240 1345.6157,-240 1345.6157,-228 1345.6157,-228 1345.6157,-222 1351.6157,-216 1357.6157,-216 1357.6157,-216 1417.6157,-216 1417.6157,-216 1423.6157,-216 1429.6157,-222 1429.6157,-228 1429.6157,-228 1429.6157,-240 1429.6157,-240 1429.6157,-246 1423.6157,-252 1417.6157,-252"/>
<text text-anchor="middle" x="1387.6157" y="-231.5" font-family="sans" font-size="10.00" fill="#000000">low_complexity</text>
</g>
<!-- 42&#45;&gt;49 -->
<g id="edge76" class="edge">
<title>42&#45;&gt;49</title>
<path fill="none" stroke="#c0c0c0" stroke-width="2" d="M1336.0273,-287.8314C1344.1367,-279.3694 1353.9314,-269.1489 1362.7977,-259.8971"/>
<polygon fill="#c0c0c0" stroke="#c0c0c0" stroke-width="2" points="1365.5776,-262.0549 1369.9697,-252.4133 1360.5236,-257.2115 1365.5776,-262.0549"/>
</g>
<!-- 43&#45;&gt;42 -->
<g id="edge69" class="edge">
<title>43&#45;&gt;42</title>
<path fill="none" stroke="#c0c0c0" stroke-width="2" d="M1328.3353,-359.8314C1326.9449,-352.131 1325.2916,-342.9743 1323.7465,-334.4166"/>
<polygon fill="#c0c0c0" stroke="#c0c0c0" stroke-width="2" points="1327.1616,-333.6322 1321.9403,-324.4133 1320.2729,-334.8761 1327.1616,-333.6322"/>
</g>
<!-- 44 -->
<g id="node45" class="node">
<title>44</title>
<path fill="none" stroke="#d8ac56" stroke-width="2" d="M833.6157,-180C833.6157,-180 751.6157,-180 751.6157,-180 745.6157,-180 739.6157,-174 739.6157,-168 739.6157,-168 739.6157,-156 739.6157,-156 739.6157,-150 745.6157,-144 751.6157,-144 751.6157,-144 833.6157,-144 833.6157,-144 839.6157,-144 845.6157,-150 845.6157,-156 845.6157,-156 845.6157,-168 845.6157,-168 845.6157,-174 839.6157,-180 833.6157,-180"/>
<text text-anchor="middle" x="792.6157" y="-165" font-family="sans" font-size="10.00" fill="#000000">fastqc</text>
<text text-anchor="middle" x="792.6157" y="-154" font-family="sans" font-size="10.00" fill="#000000">tool: low_complexity</text>
</g>
<!-- 44&#45;&gt;1 -->
<g id="edge23" class="edge">
<title>44&#45;&gt;1</title>
<path fill="none" stroke="#c0c0c0" stroke-width="2" d="M817.8499,-143.8314C830.4037,-134.7927 845.744,-123.7476 859.2549,-114.0198"/>
<polygon fill="#c0c0c0" stroke="#c0c0c0" stroke-width="2" points="861.3193,-116.8463 867.3896,-108.1628 857.2291,-111.1655 861.3193,-116.8463"/>
</g>
<!-- 45&#45;&gt;0 -->
<g id="edge2" class="edge">
<title>45&#45;&gt;0</title>
<path fill="none" stroke="#c0c0c0" stroke-width="2" d="M722.2095,-215.8805C723.0933,-197.5688 725.2733,-168.5501 730.6157,-144 738.1654,-109.307 752.1368,-70.8826 762.1052,-45.6958"/>
<polygon fill="#c0c0c0" stroke="#c0c0c0" stroke-width="2" points="765.3575,-46.989 765.8389,-36.4051 758.8623,-44.3787 765.3575,-46.989"/>
</g>
<!-- 45&#45;&gt;44 -->
<g id="edge71" class="edge">
<title>45&#45;&gt;44</title>
<path fill="none" stroke="#c0c0c0" stroke-width="2" d="M739.532,-215.8314C747.9599,-207.2848 758.1567,-196.9443 767.3517,-187.6198"/>
<polygon fill="#c0c0c0" stroke="#c0c0c0" stroke-width="2" points="769.9288,-189.9912 774.4582,-180.4133 764.9446,-185.0761 769.9288,-189.9912"/>
</g>
<!-- 46 -->
<g id="node47" class="node">
<title>46</title>
<path fill="none" stroke="#d8ac56" stroke-width="2" d="M109.6157,-180C109.6157,-180 27.6157,-180 27.6157,-180 21.6157,-180 15.6157,-174 15.6157,-168 15.6157,-168 15.6157,-156 15.6157,-156 15.6157,-150 21.6157,-144 27.6157,-144 27.6157,-144 109.6157,-144 109.6157,-144 115.6157,-144 121.6157,-150 121.6157,-156 121.6157,-156 121.6157,-168 121.6157,-168 121.6157,-174 115.6157,-180 109.6157,-180"/>
<text text-anchor="middle" x="68.6157" y="-165" font-family="sans" font-size="10.00" fill="#000000">fastqc</text>
<text text-anchor="middle" x="68.6157" y="-154" font-family="sans" font-size="10.00" fill="#000000">tool: low_complexity</text>
</g>
<!-- 46&#45;&gt;1 -->
<g id="edge24" class="edge">
<title>46&#45;&gt;1</title>
<path fill="none" stroke="#c0c0c0" stroke-width="2" d="M121.88,-145.7594C124.8213,-145.1059 127.7469,-144.5121 130.6157,-144 272.5101,-118.6701 722.7952,-97.424 855.4806,-91.5879"/>
<polygon fill="#c0c0c0" stroke="#c0c0c0" stroke-width="2" points="855.7116,-95.0812 865.5492,-91.1478 855.4059,-88.0879 855.7116,-95.0812"/>
</g>
<!-- 47&#45;&gt;0 -->
<g id="edge3" class="edge">
<title>47&#45;&gt;0</title>
<path fill="none" stroke="#c0c0c0" stroke-width="2" d="M41.6296,-215.985C16.8332,-197.2472 -13.2794,-167.4301 6.6157,-144 54.7605,-87.3008 588.9109,-34.8043 736.2008,-21.3289"/>
<polygon fill="#c0c0c0" stroke="#c0c0c0" stroke-width="2" points="736.8761,-24.7821 746.5181,-20.3911 736.2423,-17.8108 736.8761,-24.7821"/>
</g>
<!-- 47&#45;&gt;46 -->
<g id="edge73" class="edge">
<title>47&#45;&gt;46</title>
<path fill="none" stroke="#c0c0c0" stroke-width="2" d="M68.6157,-215.8314C68.6157,-208.131 68.6157,-198.9743 68.6157,-190.4166"/>
<polygon fill="#c0c0c0" stroke="#c0c0c0" stroke-width="2" points="72.1158,-190.4132 68.6157,-180.4133 65.1158,-190.4133 72.1158,-190.4132"/>
</g>
<!-- 48 -->
<g id="node49" class="node">
<title>48</title>
<path fill="none" stroke="#d8ac56" stroke-width="2" d="M1408.6157,-180C1408.6157,-180 1326.6157,-180 1326.6157,-180 1320.6157,-180 1314.6157,-174 1314.6157,-168 1314.6157,-168 1314.6157,-156 1314.6157,-156 1314.6157,-150 1320.6157,-144 1326.6157,-144 1326.6157,-144 1408.6157,-144 1408.6157,-144 1414.6157,-144 1420.6157,-150 1420.6157,-156 1420.6157,-156 1420.6157,-168 1420.6157,-168 1420.6157,-174 1414.6157,-180 1408.6157,-180"/>
<text text-anchor="middle" x="1367.6157" y="-165" font-family="sans" font-size="10.00" fill="#000000">fastqc</text>
<text text-anchor="middle" x="1367.6157" y="-154" font-family="sans" font-size="10.00" fill="#000000">tool: low_complexity</text>
</g>
<!-- 48&#45;&gt;1 -->
<g id="edge25" class="edge">
<title>48&#45;&gt;1</title>
<path fill="none" stroke="#c0c0c0" stroke-width="2" d="M1314.5728,-151.7449C1300.3195,-149.102 1284.8976,-146.3442 1270.6157,-144 1146.1172,-123.5649 997.8141,-103.6687 929.9096,-94.8044"/>
<polygon fill="#c0c0c0" stroke="#c0c0c0" stroke-width="2" points="930.0857,-91.2979 919.7176,-93.4781 929.1823,-98.2394 930.0857,-91.2979"/>
</g>
<!-- 49&#45;&gt;0 -->
<g id="edge4" class="edge">
<title>49&#45;&gt;0</title>
<path fill="none" stroke="#c0c0c0" stroke-width="2" d="M1406.9684,-215.9302C1425.3245,-196.6047 1447.627,-165.7999 1429.6157,-144 1349.8665,-47.4754 937.9387,-24.1403 810.9388,-19.2001"/>
<polygon fill="#c0c0c0" stroke="#c0c0c0" stroke-width="2" points="811.0409,-15.7015 800.9172,-18.8258 810.7796,-22.6966 811.0409,-15.7015"/>
</g>
<!-- 49&#45;&gt;48 -->
<g id="edge75" class="edge">
<title>49&#45;&gt;48</title>
<path fill="none" stroke="#c0c0c0" stroke-width="2" d="M1382.5689,-215.8314C1380.4064,-208.0463 1377.8304,-198.7729 1375.4309,-190.1347"/>
<polygon fill="#c0c0c0" stroke="#c0c0c0" stroke-width="2" points="1378.7793,-189.1117 1372.7305,-180.4133 1372.0347,-190.9852 1378.7793,-189.1117"/>
</g>
</g>
</svg>
