<?xml version="1.0" encoding="UTF-8" standalone="no"?>
<!DOCTYPE svg PUBLIC "-//W3C//DTD SVG 1.1//EN"
 "http://www.w3.org/Graphics/SVG/1.1/DTD/svg11.dtd">
<!-- Generated by graphviz version 2.40.1 (0)
 -->
<!-- Title: snakemake_dag Pages: 1 -->
<svg width="1779pt" height="708pt"
 viewBox="0.00 0.00 1779.00 708.00" xmlns="http://www.w3.org/2000/svg" xmlns:xlink="http://www.w3.org/1999/xlink">
<g id="graph0" class="graph" transform="scale(1 1) rotate(0) translate(4 704)">
<title>snakemake_dag</title>
<polygon fill="#ffffff" stroke="transparent" points="-4,4 -4,-704 1775,-704 1775,4 -4,4"/>
<!-- 0 -->
<g id="node1" class="node">
<title>0</title>
<path fill="none" stroke="#d85656" stroke-width="2" d="M881,-36C881,-36 851,-36 851,-36 845,-36 839,-30 839,-24 839,-24 839,-12 839,-12 839,-6 845,0 851,0 851,0 881,0 881,0 887,0 893,-6 893,-12 893,-12 893,-24 893,-24 893,-30 887,-36 881,-36"/>
<text text-anchor="middle" x="866" y="-15.5" font-family="sans" font-size="10.00" fill="#000000">all</text>
</g>
<!-- 1 -->
<g id="node2" class="node">
<title>1</title>
<path fill="none" stroke="#59d856" stroke-width="2" d="M881,-108C881,-108 851,-108 851,-108 845,-108 839,-102 839,-96 839,-96 839,-84 839,-84 839,-78 845,-72 851,-72 851,-72 881,-72 881,-72 887,-72 893,-78 893,-84 893,-84 893,-96 893,-96 893,-102 887,-108 881,-108"/>
<text text-anchor="middle" x="866" y="-87.5" font-family="sans" font-size="10.00" fill="#000000">multiqc</text>
</g>
<!-- 1&#45;&gt;0 -->
<g id="edge1" class="edge">
<title>1&#45;&gt;0</title>
<path fill="none" stroke="#c0c0c0" stroke-width="2" d="M866,-71.8314C866,-64.131 866,-54.9743 866,-46.4166"/>
<polygon fill="#c0c0c0" stroke="#c0c0c0" stroke-width="2" points="869.5001,-46.4132 866,-36.4133 862.5001,-46.4133 869.5001,-46.4132"/>
</g>
<!-- 2 -->
<g id="node3" class="node">
<title>2</title>
<path fill="none" stroke="#d8ac56" stroke-width="2" d="M1014,-324C1014,-324 944,-324 944,-324 938,-324 932,-318 932,-312 932,-312 932,-300 932,-300 932,-294 938,-288 944,-288 944,-288 1014,-288 1014,-288 1020,-288 1026,-294 1026,-300 1026,-300 1026,-312 1026,-312 1026,-318 1020,-324 1014,-324"/>
<text text-anchor="middle" x="979" y="-309" font-family="sans" font-size="10.00" fill="#000000">fastqc</text>
<text text-anchor="middle" x="979" y="-298" font-family="sans" font-size="10.00" fill="#000000">tool: merge_lanes</text>
</g>
<!-- 2&#45;&gt;1 -->
<g id="edge6" class="edge">
<title>2&#45;&gt;1</title>
<path fill="none" stroke="#c0c0c0" stroke-width="2" d="M983.0475,-287.9549C989.1403,-256.0448 997.0894,-188.8047 968,-144 953.268,-121.3092 925.7024,-107.5323 902.9386,-99.5785"/>
<polygon fill="#c0c0c0" stroke="#c0c0c0" stroke-width="2" points="903.7974,-96.1776 893.2053,-96.42 901.6367,-102.8358 903.7974,-96.1776"/>
</g>
<!-- 3 -->
<g id="node4" class="node">
<title>3</title>
<path fill="none" stroke="#80d856" stroke-width="2" d="M1109,-700C1109,-700 1005,-700 1005,-700 999,-700 993,-694 993,-688 993,-688 993,-660 993,-660 993,-654 999,-648 1005,-648 1005,-648 1109,-648 1109,-648 1115,-648 1121,-654 1121,-660 1121,-660 1121,-688 1121,-688 1121,-694 1115,-700 1109,-700"/>
<text text-anchor="middle" x="1057" y="-688" font-family="sans" font-size="10.00" fill="#000000">merge_lanes</text>
<text text-anchor="middle" x="1057" y="-677" font-family="sans" font-size="10.00" fill="#000000">library: lib3</text>
<text text-anchor="middle" x="1057" y="-666" font-family="sans" font-size="10.00" fill="#000000">read_type_trim: collapsed</text>
<text text-anchor="middle" x="1057" y="-655" font-family="sans" font-size="10.00" fill="#000000">sample: HD827sonic_2</text>
</g>
<!-- 3&#45;&gt;2 -->
<g id="edge30" class="edge">
<title>3&#45;&gt;2</title>
<path fill="none" stroke="#c0c0c0" stroke-width="2" d="M1038.7778,-647.9024C1020.1715,-618.6529 994,-569.1335 994,-522 994,-522 994,-522 994,-450 994,-409.6589 988.1042,-363.3012 983.7053,-334.327"/>
<polygon fill="#c0c0c0" stroke="#c0c0c0" stroke-width="2" points="987.1124,-333.4608 982.108,-324.1223 980.1966,-334.5433 987.1124,-333.4608"/>
</g>
<!-- 11 -->
<g id="node12" class="node">
<title>11</title>
<path fill="none" stroke="#56d882" stroke-width="2" d="M939,-612C939,-612 869,-612 869,-612 863,-612 857,-606 857,-600 857,-600 857,-588 857,-588 857,-582 863,-576 869,-576 869,-576 939,-576 939,-576 945,-576 951,-582 951,-588 951,-588 951,-600 951,-600 951,-606 945,-612 939,-612"/>
<text text-anchor="middle" x="904" y="-597" font-family="sans" font-size="10.00" fill="#000000">nonpareil_infer</text>
<text text-anchor="middle" x="904" y="-586" font-family="sans" font-size="10.00" fill="#000000">tool: merge_lanes</text>
</g>
<!-- 3&#45;&gt;11 -->
<g id="edge35" class="edge">
<title>3&#45;&gt;11</title>
<path fill="none" stroke="#c0c0c0" stroke-width="2" d="M1006.9021,-647.805C987.816,-637.8254 966.2309,-626.539 947.7764,-616.8896"/>
<polygon fill="#c0c0c0" stroke="#c0c0c0" stroke-width="2" points="949.2016,-613.6853 938.7181,-612.1532 945.958,-619.8885 949.2016,-613.6853"/>
</g>
<!-- 19 -->
<g id="node20" class="node">
<title>19</title>
<path fill="none" stroke="#d88556" stroke-width="2" d="M1141.5,-540C1141.5,-540 1082.5,-540 1082.5,-540 1076.5,-540 1070.5,-534 1070.5,-528 1070.5,-528 1070.5,-516 1070.5,-516 1070.5,-510 1076.5,-504 1082.5,-504 1082.5,-504 1141.5,-504 1141.5,-504 1147.5,-504 1153.5,-510 1153.5,-516 1153.5,-516 1153.5,-528 1153.5,-528 1153.5,-534 1147.5,-540 1141.5,-540"/>
<text text-anchor="middle" x="1112" y="-519.5" font-family="sans" font-size="10.00" fill="#000000">extend_tadpole</text>
</g>
<!-- 3&#45;&gt;19 -->
<g id="edge43" class="edge">
<title>3&#45;&gt;19</title>
<path fill="none" stroke="#c0c0c0" stroke-width="2" d="M1074.7182,-647.7703C1081.2792,-637.0611 1088.2651,-624.3148 1093,-612 1100.7131,-591.9391 1105.5676,-568.0964 1108.4374,-549.9928"/>
<polygon fill="#c0c0c0" stroke="#c0c0c0" stroke-width="2" points="1111.9044,-550.4732 1109.9044,-540.0689 1104.9796,-549.4495 1111.9044,-550.4732"/>
</g>
<!-- 20 -->
<g id="node21" class="node">
<title>20</title>
<path fill="none" stroke="#d6d856" stroke-width="2" d="M1072,-612C1072,-612 1042,-612 1042,-612 1036,-612 1030,-606 1030,-600 1030,-600 1030,-588 1030,-588 1030,-582 1036,-576 1042,-576 1042,-576 1072,-576 1072,-576 1078,-576 1084,-582 1084,-588 1084,-588 1084,-600 1084,-600 1084,-606 1078,-612 1072,-612"/>
<text text-anchor="middle" x="1057" y="-591.5" font-family="sans" font-size="10.00" fill="#000000">loglog</text>
</g>
<!-- 3&#45;&gt;20 -->
<g id="edge45" class="edge">
<title>3&#45;&gt;20</title>
<path fill="none" stroke="#c0c0c0" stroke-width="2" d="M1057,-647.805C1057,-639.6026 1057,-630.5174 1057,-622.1839"/>
<polygon fill="#c0c0c0" stroke="#c0c0c0" stroke-width="2" points="1060.5001,-622.1532 1057,-612.1532 1053.5001,-622.1533 1060.5001,-622.1532"/>
</g>
<!-- 42 -->
<g id="node43" class="node">
<title>42</title>
<path fill="none" stroke="#56a9d8" stroke-width="2" d="M1257.5,-324C1257.5,-324 1214.5,-324 1214.5,-324 1208.5,-324 1202.5,-318 1202.5,-312 1202.5,-312 1202.5,-300 1202.5,-300 1202.5,-294 1208.5,-288 1214.5,-288 1214.5,-288 1257.5,-288 1257.5,-288 1263.5,-288 1269.5,-294 1269.5,-300 1269.5,-300 1269.5,-312 1269.5,-312 1269.5,-318 1263.5,-324 1257.5,-324"/>
<text text-anchor="middle" x="1236" y="-303.5" font-family="sans" font-size="10.00" fill="#000000">seqkit_grep</text>
</g>
<!-- 3&#45;&gt;42 -->
<g id="edge71" class="edge">
<title>3&#45;&gt;42</title>
<path fill="none" stroke="#c0c0c0" stroke-width="2" d="M1121.4188,-648.2465C1170.6052,-623.8486 1230,-581.9711 1230,-522 1230,-522 1230,-522 1230,-450 1230,-409.8412 1232.3583,-363.4372 1234.1179,-334.4031"/>
<polygon fill="#c0c0c0" stroke="#c0c0c0" stroke-width="2" points="1237.6264,-334.3741 1234.7568,-324.1753 1230.6401,-333.9376 1237.6264,-334.3741"/>
</g>
<!-- 4 -->
<g id="node5" class="node">
<title>4</title>
<path fill="none" stroke="#d8ac56" stroke-width="2" d="M1423,-324C1423,-324 1353,-324 1353,-324 1347,-324 1341,-318 1341,-312 1341,-312 1341,-300 1341,-300 1341,-294 1347,-288 1353,-288 1353,-288 1423,-288 1423,-288 1429,-288 1435,-294 1435,-300 1435,-300 1435,-312 1435,-312 1435,-318 1429,-324 1423,-324"/>
<text text-anchor="middle" x="1388" y="-309" font-family="sans" font-size="10.00" fill="#000000">fastqc</text>
<text text-anchor="middle" x="1388" y="-298" font-family="sans" font-size="10.00" fill="#000000">tool: merge_lanes</text>
</g>
<!-- 4&#45;&gt;1 -->
<g id="edge7" class="edge">
<title>4&#45;&gt;1</title>
<path fill="none" stroke="#c0c0c0" stroke-width="2" d="M1392.1451,-287.8445C1398.637,-254.2104 1406.7741,-182.1709 1368,-144 1334.9822,-111.4958 1014.0857,-95.8481 903.3486,-91.3848"/>
<polygon fill="#c0c0c0" stroke="#c0c0c0" stroke-width="2" points="903.4354,-87.8856 893.3049,-90.9876 903.1587,-94.8801 903.4354,-87.8856"/>
</g>
<!-- 5 -->
<g id="node6" class="node">
<title>5</title>
<path fill="none" stroke="#80d856" stroke-width="2" d="M1590,-700C1590,-700 1486,-700 1486,-700 1480,-700 1474,-694 1474,-688 1474,-688 1474,-660 1474,-660 1474,-654 1480,-648 1486,-648 1486,-648 1590,-648 1590,-648 1596,-648 1602,-654 1602,-660 1602,-660 1602,-688 1602,-688 1602,-694 1596,-700 1590,-700"/>
<text text-anchor="middle" x="1538" y="-688" font-family="sans" font-size="10.00" fill="#000000">merge_lanes</text>
<text text-anchor="middle" x="1538" y="-677" font-family="sans" font-size="10.00" fill="#000000">library: lib1</text>
<text text-anchor="middle" x="1538" y="-666" font-family="sans" font-size="10.00" fill="#000000">read_type_trim: collapsed</text>
<text text-anchor="middle" x="1538" y="-655" font-family="sans" font-size="10.00" fill="#000000">sample: HD827sonic_1</text>
</g>
<!-- 5&#45;&gt;4 -->
<g id="edge31" class="edge">
<title>5&#45;&gt;4</title>
<path fill="none" stroke="#c0c0c0" stroke-width="2" d="M1473.821,-657.0457C1449.5475,-647.5608 1423.763,-633.2282 1407,-612 1381.6643,-579.9156 1388,-562.8816 1388,-522 1388,-522 1388,-522 1388,-450 1388,-409.876 1388,-363.4631 1388,-334.4177"/>
<polygon fill="#c0c0c0" stroke="#c0c0c0" stroke-width="2" points="1391.5001,-334.1853 1388,-324.1854 1384.5001,-334.1854 1391.5001,-334.1853"/>
</g>
<!-- 15 -->
<g id="node16" class="node">
<title>15</title>
<path fill="none" stroke="#56d882" stroke-width="2" d="M1498,-612C1498,-612 1428,-612 1428,-612 1422,-612 1416,-606 1416,-600 1416,-600 1416,-588 1416,-588 1416,-582 1422,-576 1428,-576 1428,-576 1498,-576 1498,-576 1504,-576 1510,-582 1510,-588 1510,-588 1510,-600 1510,-600 1510,-606 1504,-612 1498,-612"/>
<text text-anchor="middle" x="1463" y="-597" font-family="sans" font-size="10.00" fill="#000000">nonpareil_infer</text>
<text text-anchor="middle" x="1463" y="-586" font-family="sans" font-size="10.00" fill="#000000">tool: merge_lanes</text>
</g>
<!-- 5&#45;&gt;15 -->
<g id="edge39" class="edge">
<title>5&#45;&gt;15</title>
<path fill="none" stroke="#c0c0c0" stroke-width="2" d="M1513.4422,-647.805C1504.9834,-638.7823 1495.5233,-628.6915 1487.1013,-619.7081"/>
<polygon fill="#c0c0c0" stroke="#c0c0c0" stroke-width="2" points="1489.4115,-617.0548 1480.0187,-612.1532 1484.3047,-621.8424 1489.4115,-617.0548"/>
</g>
<!-- 28 -->
<g id="node29" class="node">
<title>28</title>
<path fill="none" stroke="#d88556" stroke-width="2" d="M1606.5,-540C1606.5,-540 1547.5,-540 1547.5,-540 1541.5,-540 1535.5,-534 1535.5,-528 1535.5,-528 1535.5,-516 1535.5,-516 1535.5,-510 1541.5,-504 1547.5,-504 1547.5,-504 1606.5,-504 1606.5,-504 1612.5,-504 1618.5,-510 1618.5,-516 1618.5,-516 1618.5,-528 1618.5,-528 1618.5,-534 1612.5,-540 1606.5,-540"/>
<text text-anchor="middle" x="1577" y="-519.5" font-family="sans" font-size="10.00" fill="#000000">extend_tadpole</text>
</g>
<!-- 5&#45;&gt;28 -->
<g id="edge55" class="edge">
<title>5&#45;&gt;28</title>
<path fill="none" stroke="#c0c0c0" stroke-width="2" d="M1541.8628,-647.9389C1545.0985,-628.0352 1550.2688,-600.0313 1557,-576 1559.442,-567.2817 1562.6592,-557.9739 1565.7974,-549.5847"/>
<polygon fill="#c0c0c0" stroke="#c0c0c0" stroke-width="2" points="1569.0651,-550.8386 1569.3941,-540.2489 1562.533,-548.3221 1569.0651,-550.8386"/>
</g>
<!-- 29 -->
<g id="node30" class="node">
<title>29</title>
<path fill="none" stroke="#d6d856" stroke-width="2" d="M1608,-612C1608,-612 1578,-612 1578,-612 1572,-612 1566,-606 1566,-600 1566,-600 1566,-588 1566,-588 1566,-582 1572,-576 1578,-576 1578,-576 1608,-576 1608,-576 1614,-576 1620,-582 1620,-588 1620,-588 1620,-600 1620,-600 1620,-606 1614,-612 1608,-612"/>
<text text-anchor="middle" x="1593" y="-591.5" font-family="sans" font-size="10.00" fill="#000000">loglog</text>
</g>
<!-- 5&#45;&gt;29 -->
<g id="edge57" class="edge">
<title>5&#45;&gt;29</title>
<path fill="none" stroke="#c0c0c0" stroke-width="2" d="M1556.0091,-647.805C1562.0242,-639.0557 1568.7298,-629.3021 1574.7622,-620.5277"/>
<polygon fill="#c0c0c0" stroke="#c0c0c0" stroke-width="2" points="1577.7385,-622.3765 1580.5196,-612.1532 1571.9702,-618.4108 1577.7385,-622.3765"/>
</g>
<!-- 48 -->
<g id="node49" class="node">
<title>48</title>
<path fill="none" stroke="#56a9d8" stroke-width="2" d="M1701.5,-324C1701.5,-324 1658.5,-324 1658.5,-324 1652.5,-324 1646.5,-318 1646.5,-312 1646.5,-312 1646.5,-300 1646.5,-300 1646.5,-294 1652.5,-288 1658.5,-288 1658.5,-288 1701.5,-288 1701.5,-288 1707.5,-288 1713.5,-294 1713.5,-300 1713.5,-300 1713.5,-312 1713.5,-312 1713.5,-318 1707.5,-324 1701.5,-324"/>
<text text-anchor="middle" x="1680" y="-303.5" font-family="sans" font-size="10.00" fill="#000000">seqkit_grep</text>
</g>
<!-- 5&#45;&gt;48 -->
<g id="edge79" class="edge">
<title>5&#45;&gt;48</title>
<path fill="none" stroke="#c0c0c0" stroke-width="2" d="M1602.1698,-648.9314C1652.1148,-624.7301 1713,-582.7657 1713,-522 1713,-522 1713,-522 1713,-450 1713,-408.8829 1700.059,-362.7926 1690.3848,-334.082"/>
<polygon fill="#c0c0c0" stroke="#c0c0c0" stroke-width="2" points="1693.5857,-332.6302 1686.9985,-324.3321 1686.9732,-334.9269 1693.5857,-332.6302"/>
</g>
<!-- 6 -->
<g id="node7" class="node">
<title>6</title>
<path fill="none" stroke="#d8ac56" stroke-width="2" d="M372,-540C372,-540 302,-540 302,-540 296,-540 290,-534 290,-528 290,-528 290,-516 290,-516 290,-510 296,-504 302,-504 302,-504 372,-504 372,-504 378,-504 384,-510 384,-516 384,-516 384,-528 384,-528 384,-534 378,-540 372,-540"/>
<text text-anchor="middle" x="337" y="-525" font-family="sans" font-size="10.00" fill="#000000">fastqc</text>
<text text-anchor="middle" x="337" y="-514" font-family="sans" font-size="10.00" fill="#000000">tool: merge_lanes</text>
</g>
<!-- 6&#45;&gt;1 -->
<g id="edge8" class="edge">
<title>6&#45;&gt;1</title>
<path fill="none" stroke="#c0c0c0" stroke-width="2" d="M338.1854,-503.6989C343.032,-434.952 363.721,-193.5447 418,-144 448.1771,-116.455 726.6786,-97.9431 828.74,-92.0341"/>
<polygon fill="#c0c0c0" stroke="#c0c0c0" stroke-width="2" points="829.1098,-95.5188 838.8939,-91.4542 828.7106,-88.5302 829.1098,-95.5188"/>
</g>
<!-- 7 -->
<g id="node8" class="node">
<title>7</title>
<path fill="none" stroke="#80d856" stroke-width="2" d="M314,-700C314,-700 210,-700 210,-700 204,-700 198,-694 198,-688 198,-688 198,-660 198,-660 198,-654 204,-648 210,-648 210,-648 314,-648 314,-648 320,-648 326,-654 326,-660 326,-660 326,-688 326,-688 326,-694 320,-700 314,-700"/>
<text text-anchor="middle" x="262" y="-688" font-family="sans" font-size="10.00" fill="#000000">merge_lanes</text>
<text text-anchor="middle" x="262" y="-677" font-family="sans" font-size="10.00" fill="#000000">library: lib2</text>
<text text-anchor="middle" x="262" y="-666" font-family="sans" font-size="10.00" fill="#000000">read_type_trim: collapsed</text>
<text text-anchor="middle" x="262" y="-655" font-family="sans" font-size="10.00" fill="#000000">sample: HD827sonic_2</text>
</g>
<!-- 7&#45;&gt;6 -->
<g id="edge32" class="edge">
<title>7&#45;&gt;6</title>
<path fill="none" stroke="#c0c0c0" stroke-width="2" d="M274.893,-647.8703C288.4552,-620.3841 309.7056,-577.3168 323.4941,-549.3719"/>
<polygon fill="#c0c0c0" stroke="#c0c0c0" stroke-width="2" points="326.7491,-550.6849 328.0353,-540.1685 320.4717,-547.5875 326.7491,-550.6849"/>
</g>
<!-- 13 -->
<g id="node14" class="node">
<title>13</title>
<path fill="none" stroke="#56d882" stroke-width="2" d="M438,-612C438,-612 368,-612 368,-612 362,-612 356,-606 356,-600 356,-600 356,-588 356,-588 356,-582 362,-576 368,-576 368,-576 438,-576 438,-576 444,-576 450,-582 450,-588 450,-588 450,-600 450,-600 450,-606 444,-612 438,-612"/>
<text text-anchor="middle" x="403" y="-597" font-family="sans" font-size="10.00" fill="#000000">nonpareil_infer</text>
<text text-anchor="middle" x="403" y="-586" font-family="sans" font-size="10.00" fill="#000000">tool: merge_lanes</text>
</g>
<!-- 7&#45;&gt;13 -->
<g id="edge37" class="edge">
<title>7&#45;&gt;13</title>
<path fill="none" stroke="#c0c0c0" stroke-width="2" d="M308.1687,-647.805C325.5168,-637.9621 345.1054,-626.848 361.9565,-617.2871"/>
<polygon fill="#c0c0c0" stroke="#c0c0c0" stroke-width="2" points="364.0345,-620.1322 371.0049,-612.1532 360.5801,-614.0439 364.0345,-620.1322"/>
</g>
<!-- 22 -->
<g id="node23" class="node">
<title>22</title>
<path fill="none" stroke="#d88556" stroke-width="2" d="M181.5,-540C181.5,-540 122.5,-540 122.5,-540 116.5,-540 110.5,-534 110.5,-528 110.5,-528 110.5,-516 110.5,-516 110.5,-510 116.5,-504 122.5,-504 122.5,-504 181.5,-504 181.5,-504 187.5,-504 193.5,-510 193.5,-516 193.5,-516 193.5,-528 193.5,-528 193.5,-534 187.5,-540 181.5,-540"/>
<text text-anchor="middle" x="152" y="-519.5" font-family="sans" font-size="10.00" fill="#000000">extend_tadpole</text>
</g>
<!-- 7&#45;&gt;22 -->
<g id="edge47" class="edge">
<title>7&#45;&gt;22</title>
<path fill="none" stroke="#c0c0c0" stroke-width="2" d="M209.3901,-647.9435C194.9822,-638.4633 180.6843,-626.4516 171,-612 158.7556,-593.7279 154.1868,-569.0651 152.5787,-550.1776"/>
<polygon fill="#c0c0c0" stroke="#c0c0c0" stroke-width="2" points="156.0651,-549.8492 151.9491,-540.0866 149.0787,-550.2852 156.0651,-549.8492"/>
</g>
<!-- 23 -->
<g id="node24" class="node">
<title>23</title>
<path fill="none" stroke="#d6d856" stroke-width="2" d="M222,-612C222,-612 192,-612 192,-612 186,-612 180,-606 180,-600 180,-600 180,-588 180,-588 180,-582 186,-576 192,-576 192,-576 222,-576 222,-576 228,-576 234,-582 234,-588 234,-588 234,-600 234,-600 234,-606 228,-612 222,-612"/>
<text text-anchor="middle" x="207" y="-591.5" font-family="sans" font-size="10.00" fill="#000000">loglog</text>
</g>
<!-- 7&#45;&gt;23 -->
<g id="edge49" class="edge">
<title>7&#45;&gt;23</title>
<path fill="none" stroke="#c0c0c0" stroke-width="2" d="M243.9909,-647.805C237.9758,-639.0557 231.2702,-629.3021 225.2378,-620.5277"/>
<polygon fill="#c0c0c0" stroke="#c0c0c0" stroke-width="2" points="228.0298,-618.4108 219.4804,-612.1532 222.2615,-622.3765 228.0298,-618.4108"/>
</g>
<!-- 45 -->
<g id="node46" class="node">
<title>45</title>
<path fill="none" stroke="#56a9d8" stroke-width="2" d="M262.5,-324C262.5,-324 219.5,-324 219.5,-324 213.5,-324 207.5,-318 207.5,-312 207.5,-312 207.5,-300 207.5,-300 207.5,-294 213.5,-288 219.5,-288 219.5,-288 262.5,-288 262.5,-288 268.5,-288 274.5,-294 274.5,-300 274.5,-300 274.5,-312 274.5,-312 274.5,-318 268.5,-324 262.5,-324"/>
<text text-anchor="middle" x="241" y="-303.5" font-family="sans" font-size="10.00" fill="#000000">seqkit_grep</text>
</g>
<!-- 7&#45;&gt;45 -->
<g id="edge75" class="edge">
<title>7&#45;&gt;45</title>
<path fill="none" stroke="#c0c0c0" stroke-width="2" d="M262,-647.9106C262,-617.633 262,-566.2014 262,-522 262,-522 262,-522 262,-450 262,-409.2729 253.673,-362.7384 247.5061,-333.8595"/>
<polygon fill="#c0c0c0" stroke="#c0c0c0" stroke-width="2" points="250.9177,-333.0768 245.3512,-324.0621 244.0811,-334.5806 250.9177,-333.0768"/>
</g>
<!-- 8 -->
<g id="node9" class="node">
<title>8</title>
<path fill="none" stroke="#d8ac56" stroke-width="2" d="M522,-540C522,-540 452,-540 452,-540 446,-540 440,-534 440,-528 440,-528 440,-516 440,-516 440,-510 446,-504 452,-504 452,-504 522,-504 522,-504 528,-504 534,-510 534,-516 534,-516 534,-528 534,-528 534,-534 528,-540 522,-540"/>
<text text-anchor="middle" x="487" y="-525" font-family="sans" font-size="10.00" fill="#000000">fastqc</text>
<text text-anchor="middle" x="487" y="-514" font-family="sans" font-size="10.00" fill="#000000">tool: merge_lanes</text>
</g>
<!-- 8&#45;&gt;1 -->
<g id="edge9" class="edge">
<title>8&#45;&gt;1</title>
<path fill="none" stroke="#c0c0c0" stroke-width="2" d="M482.9065,-503.9045C474.9126,-466.9326 458,-379.9703 458,-306 458,-306 458,-306 458,-234 458,-187.5795 472.551,-170.0103 511,-144 562.3935,-109.2329 748.5093,-95.884 828.7558,-91.666"/>
<polygon fill="#c0c0c0" stroke="#c0c0c0" stroke-width="2" points="829.0925,-95.1535 838.9025,-91.1519 828.7382,-88.1625 829.0925,-95.1535"/>
</g>
<!-- 9 -->
<g id="node10" class="node">
<title>9</title>
<path fill="none" stroke="#80d856" stroke-width="2" d="M689,-700C689,-700 585,-700 585,-700 579,-700 573,-694 573,-688 573,-688 573,-660 573,-660 573,-654 579,-648 585,-648 585,-648 689,-648 689,-648 695,-648 701,-654 701,-660 701,-660 701,-688 701,-688 701,-694 695,-700 689,-700"/>
<text text-anchor="middle" x="637" y="-688" font-family="sans" font-size="10.00" fill="#000000">merge_lanes</text>
<text text-anchor="middle" x="637" y="-677" font-family="sans" font-size="10.00" fill="#000000">library: lib1</text>
<text text-anchor="middle" x="637" y="-666" font-family="sans" font-size="10.00" fill="#000000">read_type_trim: collapsed</text>
<text text-anchor="middle" x="637" y="-655" font-family="sans" font-size="10.00" fill="#000000">sample: HD827sonic_2</text>
</g>
<!-- 9&#45;&gt;8 -->
<g id="edge33" class="edge">
<title>9&#45;&gt;8</title>
<path fill="none" stroke="#c0c0c0" stroke-width="2" d="M572.821,-657.0457C548.5475,-647.5608 522.763,-633.2282 506,-612 492.2218,-594.5518 487.8103,-569.4641 486.6526,-550.2062"/>
<polygon fill="#c0c0c0" stroke="#c0c0c0" stroke-width="2" points="490.15,-550.0654 486.3054,-540.1927 483.1542,-550.308 490.15,-550.0654"/>
</g>
<!-- 17 -->
<g id="node18" class="node">
<title>17</title>
<path fill="none" stroke="#56d882" stroke-width="2" d="M597,-612C597,-612 527,-612 527,-612 521,-612 515,-606 515,-600 515,-600 515,-588 515,-588 515,-582 521,-576 527,-576 527,-576 597,-576 597,-576 603,-576 609,-582 609,-588 609,-588 609,-600 609,-600 609,-606 603,-612 597,-612"/>
<text text-anchor="middle" x="562" y="-597" font-family="sans" font-size="10.00" fill="#000000">nonpareil_infer</text>
<text text-anchor="middle" x="562" y="-586" font-family="sans" font-size="10.00" fill="#000000">tool: merge_lanes</text>
</g>
<!-- 9&#45;&gt;17 -->
<g id="edge41" class="edge">
<title>9&#45;&gt;17</title>
<path fill="none" stroke="#c0c0c0" stroke-width="2" d="M612.4422,-647.805C603.9834,-638.7823 594.5233,-628.6915 586.1013,-619.7081"/>
<polygon fill="#c0c0c0" stroke="#c0c0c0" stroke-width="2" points="588.4115,-617.0548 579.0187,-612.1532 583.3047,-621.8424 588.4115,-617.0548"/>
</g>
<!-- 25 -->
<g id="node26" class="node">
<title>25</title>
<path fill="none" stroke="#d88556" stroke-width="2" d="M682.5,-540C682.5,-540 623.5,-540 623.5,-540 617.5,-540 611.5,-534 611.5,-528 611.5,-528 611.5,-516 611.5,-516 611.5,-510 617.5,-504 623.5,-504 623.5,-504 682.5,-504 682.5,-504 688.5,-504 694.5,-510 694.5,-516 694.5,-516 694.5,-528 694.5,-528 694.5,-534 688.5,-540 682.5,-540"/>
<text text-anchor="middle" x="653" y="-519.5" font-family="sans" font-size="10.00" fill="#000000">extend_tadpole</text>
</g>
<!-- 9&#45;&gt;25 -->
<g id="edge51" class="edge">
<title>9&#45;&gt;25</title>
<path fill="none" stroke="#c0c0c0" stroke-width="2" d="M639.7505,-647.8703C642.6059,-620.7442 647.0587,-578.4425 650.0023,-550.4779"/>
<polygon fill="#c0c0c0" stroke="#c0c0c0" stroke-width="2" points="653.5214,-550.4799 651.0875,-540.1685 646.5598,-549.7471 653.5214,-550.4799"/>
</g>
<!-- 26 -->
<g id="node27" class="node">
<title>26</title>
<path fill="none" stroke="#d6d856" stroke-width="2" d="M707,-612C707,-612 677,-612 677,-612 671,-612 665,-606 665,-600 665,-600 665,-588 665,-588 665,-582 671,-576 677,-576 677,-576 707,-576 707,-576 713,-576 719,-582 719,-588 719,-588 719,-600 719,-600 719,-606 713,-612 707,-612"/>
<text text-anchor="middle" x="692" y="-591.5" font-family="sans" font-size="10.00" fill="#000000">loglog</text>
</g>
<!-- 9&#45;&gt;26 -->
<g id="edge53" class="edge">
<title>9&#45;&gt;26</title>
<path fill="none" stroke="#c0c0c0" stroke-width="2" d="M655.0091,-647.805C661.0242,-639.0557 667.7298,-629.3021 673.7622,-620.5277"/>
<polygon fill="#c0c0c0" stroke="#c0c0c0" stroke-width="2" points="676.7385,-622.3765 679.5196,-612.1532 670.9702,-618.4108 676.7385,-622.3765"/>
</g>
<!-- 39 -->
<g id="node40" class="node">
<title>39</title>
<path fill="none" stroke="#56a9d8" stroke-width="2" d="M774.5,-324C774.5,-324 731.5,-324 731.5,-324 725.5,-324 719.5,-318 719.5,-312 719.5,-312 719.5,-300 719.5,-300 719.5,-294 725.5,-288 731.5,-288 731.5,-288 774.5,-288 774.5,-288 780.5,-288 786.5,-294 786.5,-300 786.5,-300 786.5,-312 786.5,-312 786.5,-318 780.5,-324 774.5,-324"/>
<text text-anchor="middle" x="753" y="-303.5" font-family="sans" font-size="10.00" fill="#000000">seqkit_grep</text>
</g>
<!-- 9&#45;&gt;39 -->
<g id="edge67" class="edge">
<title>9&#45;&gt;39</title>
<path fill="none" stroke="#c0c0c0" stroke-width="2" d="M689.113,-647.9405C732.0803,-622.3537 786,-578.9077 786,-522 786,-522 786,-522 786,-450 786,-408.8829 773.059,-362.7926 763.3848,-334.082"/>
<polygon fill="#c0c0c0" stroke="#c0c0c0" stroke-width="2" points="766.5857,-332.6302 759.9985,-324.3321 759.9732,-334.9269 766.5857,-332.6302"/>
</g>
<!-- 10 -->
<g id="node11" class="node">
<title>10</title>
<path fill="none" stroke="#56d8a9" stroke-width="2" d="M946.5,-180C946.5,-180 893.5,-180 893.5,-180 887.5,-180 881.5,-174 881.5,-168 881.5,-168 881.5,-156 881.5,-156 881.5,-150 887.5,-144 893.5,-144 893.5,-144 946.5,-144 946.5,-144 952.5,-144 958.5,-150 958.5,-156 958.5,-156 958.5,-168 958.5,-168 958.5,-174 952.5,-180 946.5,-180"/>
<text text-anchor="middle" x="920" y="-159.5" font-family="sans" font-size="10.00" fill="#000000">nonpareil_plot</text>
</g>
<!-- 10&#45;&gt;1 -->
<g id="edge10" class="edge">
<title>10&#45;&gt;1</title>
<path fill="none" stroke="#c0c0c0" stroke-width="2" d="M906.3735,-143.8314C900.154,-135.5386 892.6678,-125.557 885.84,-116.4533"/>
<polygon fill="#c0c0c0" stroke="#c0c0c0" stroke-width="2" points="888.61,-114.3133 879.81,-108.4133 883.01,-118.5133 888.61,-114.3133"/>
</g>
<!-- 11&#45;&gt;10 -->
<g id="edge34" class="edge">
<title>11&#45;&gt;10</title>
<path fill="none" stroke="#c0c0c0" stroke-width="2" d="M904,-575.8146C904,-548.4983 904,-495.25 904,-450 904,-450 904,-450 904,-306 904,-265.6291 910.2888,-219.2789 914.9811,-190.3146"/>
<polygon fill="#c0c0c0" stroke="#c0c0c0" stroke-width="2" points="918.4895,-190.5537 916.6848,-180.1137 911.5852,-189.4004 918.4895,-190.5537"/>
</g>
<!-- 12 -->
<g id="node13" class="node">
<title>12</title>
<path fill="none" stroke="#56d8a9" stroke-width="2" d="M438.5,-468C438.5,-468 385.5,-468 385.5,-468 379.5,-468 373.5,-462 373.5,-456 373.5,-456 373.5,-444 373.5,-444 373.5,-438 379.5,-432 385.5,-432 385.5,-432 438.5,-432 438.5,-432 444.5,-432 450.5,-438 450.5,-444 450.5,-444 450.5,-456 450.5,-456 450.5,-462 444.5,-468 438.5,-468"/>
<text text-anchor="middle" x="412" y="-447.5" font-family="sans" font-size="10.00" fill="#000000">nonpareil_plot</text>
</g>
<!-- 12&#45;&gt;1 -->
<g id="edge11" class="edge">
<title>12&#45;&gt;1</title>
<path fill="none" stroke="#c0c0c0" stroke-width="2" d="M413.6576,-431.8326C416.0009,-404.5392 420,-351.3198 420,-306 420,-306 420,-306 420,-234 420,-192.6022 412.8423,-171.2576 444,-144 472.7962,-118.8083 731.4261,-99.0209 828.982,-92.3924"/>
<polygon fill="#c0c0c0" stroke="#c0c0c0" stroke-width="2" points="829.2425,-95.8829 838.9855,-91.7206 828.7735,-88.8986 829.2425,-95.8829"/>
</g>
<!-- 13&#45;&gt;12 -->
<g id="edge36" class="edge">
<title>13&#45;&gt;12</title>
<path fill="none" stroke="#c0c0c0" stroke-width="2" d="M404.1399,-575.7623C405.6749,-551.201 408.422,-507.2474 410.2279,-478.3541"/>
<polygon fill="#c0c0c0" stroke="#c0c0c0" stroke-width="2" points="413.7387,-478.2885 410.8694,-468.0896 406.7523,-477.8518 413.7387,-478.2885"/>
</g>
<!-- 14 -->
<g id="node15" class="node">
<title>14</title>
<path fill="none" stroke="#56d8a9" stroke-width="2" d="M1489.5,-540C1489.5,-540 1436.5,-540 1436.5,-540 1430.5,-540 1424.5,-534 1424.5,-528 1424.5,-528 1424.5,-516 1424.5,-516 1424.5,-510 1430.5,-504 1436.5,-504 1436.5,-504 1489.5,-504 1489.5,-504 1495.5,-504 1501.5,-510 1501.5,-516 1501.5,-516 1501.5,-528 1501.5,-528 1501.5,-534 1495.5,-540 1489.5,-540"/>
<text text-anchor="middle" x="1463" y="-519.5" font-family="sans" font-size="10.00" fill="#000000">nonpareil_plot</text>
</g>
<!-- 14&#45;&gt;1 -->
<g id="edge12" class="edge">
<title>14&#45;&gt;1</title>
<path fill="none" stroke="#c0c0c0" stroke-width="2" d="M1463,-503.8146C1463,-476.4983 1463,-423.25 1463,-378 1463,-378 1463,-378 1463,-234 1463,-183.0515 1436.6482,-168.5415 1392,-144 1349.3314,-120.5466 1016.1268,-98.8792 903.2459,-92.1454"/>
<polygon fill="#c0c0c0" stroke="#c0c0c0" stroke-width="2" points="903.2162,-88.6376 893.0269,-91.5408 902.8027,-95.6254 903.2162,-88.6376"/>
</g>
<!-- 15&#45;&gt;14 -->
<g id="edge38" class="edge">
<title>15&#45;&gt;14</title>
<path fill="none" stroke="#c0c0c0" stroke-width="2" d="M1463,-575.8314C1463,-568.131 1463,-558.9743 1463,-550.4166"/>
<polygon fill="#c0c0c0" stroke="#c0c0c0" stroke-width="2" points="1466.5001,-550.4132 1463,-540.4133 1459.5001,-550.4133 1466.5001,-550.4132"/>
</g>
<!-- 16 -->
<g id="node17" class="node">
<title>16</title>
<path fill="none" stroke="#56d8a9" stroke-width="2" d="M572.5,-468C572.5,-468 519.5,-468 519.5,-468 513.5,-468 507.5,-462 507.5,-456 507.5,-456 507.5,-444 507.5,-444 507.5,-438 513.5,-432 519.5,-432 519.5,-432 572.5,-432 572.5,-432 578.5,-432 584.5,-438 584.5,-444 584.5,-444 584.5,-456 584.5,-456 584.5,-462 578.5,-468 572.5,-468"/>
<text text-anchor="middle" x="546" y="-447.5" font-family="sans" font-size="10.00" fill="#000000">nonpareil_plot</text>
</g>
<!-- 16&#45;&gt;1 -->
<g id="edge13" class="edge">
<title>16&#45;&gt;1</title>
<path fill="none" stroke="#c0c0c0" stroke-width="2" d="M533.586,-431.7235C527.2022,-421.5841 519.7796,-408.5233 515,-396 500.4227,-357.8056 496,-346.8816 496,-306 496,-306 496,-306 496,-234 496,-183.3255 522.6386,-170.2239 566,-144 609.7182,-117.5604 758.1552,-100.2847 828.4719,-93.3905"/>
<polygon fill="#c0c0c0" stroke="#c0c0c0" stroke-width="2" points="829.0396,-96.8521 838.6586,-92.411 828.3695,-89.8843 829.0396,-96.8521"/>
</g>
<!-- 17&#45;&gt;16 -->
<g id="edge40" class="edge">
<title>17&#45;&gt;16</title>
<path fill="none" stroke="#c0c0c0" stroke-width="2" d="M559.9736,-575.7623C557.2446,-551.201 552.3608,-507.2474 549.1505,-478.3541"/>
<polygon fill="#c0c0c0" stroke="#c0c0c0" stroke-width="2" points="552.593,-477.6419 548.01,-468.0896 545.6358,-478.415 552.593,-477.6419"/>
</g>
<!-- 18 -->
<g id="node19" class="node">
<title>18</title>
<path fill="none" stroke="#d8ac56" stroke-width="2" d="M1172,-324C1172,-324 1094,-324 1094,-324 1088,-324 1082,-318 1082,-312 1082,-312 1082,-300 1082,-300 1082,-294 1088,-288 1094,-288 1094,-288 1172,-288 1172,-288 1178,-288 1184,-294 1184,-300 1184,-300 1184,-312 1184,-312 1184,-318 1178,-324 1172,-324"/>
<text text-anchor="middle" x="1133" y="-309" font-family="sans" font-size="10.00" fill="#000000">fastqc</text>
<text text-anchor="middle" x="1133" y="-298" font-family="sans" font-size="10.00" fill="#000000">tool: extend/tadpole</text>
</g>
<!-- 18&#45;&gt;1 -->
<g id="edge14" class="edge">
<title>18&#45;&gt;1</title>
<path fill="none" stroke="#c0c0c0" stroke-width="2" d="M1133.2646,-287.9852C1132.7265,-254.5856 1126.5781,-182.9213 1086,-144 1060.0691,-119.1279 959.0743,-102.2506 903.3821,-94.6267"/>
<polygon fill="#c0c0c0" stroke="#c0c0c0" stroke-width="2" points="903.5863,-91.1229 893.2109,-93.2682 902.6596,-98.0613 903.5863,-91.1229"/>
</g>
<!-- 19&#45;&gt;18 -->
<g id="edge42" class="edge">
<title>19&#45;&gt;18</title>
<path fill="none" stroke="#c0c0c0" stroke-width="2" d="M1126.2689,-503.8963C1133.6391,-493.8076 1142.2647,-480.7401 1148,-468 1161.5858,-437.8216 1162.7424,-428.8204 1167,-396 1169.0583,-380.133 1171.4365,-375.3726 1167,-360 1164.2478,-350.4635 1159.2576,-340.9881 1153.933,-332.6989"/>
<polygon fill="#c0c0c0" stroke="#c0c0c0" stroke-width="2" points="1156.6595,-330.4863 1148.114,-324.2232 1150.8886,-334.4483 1156.6595,-330.4863"/>
</g>
<!-- 33 -->
<g id="node34" class="node">
<title>33</title>
<path fill="none" stroke="#5682d8" stroke-width="2" d="M1127,-468C1127,-468 1097,-468 1097,-468 1091,-468 1085,-462 1085,-456 1085,-456 1085,-444 1085,-444 1085,-438 1091,-432 1097,-432 1097,-432 1127,-432 1127,-432 1133,-432 1139,-438 1139,-444 1139,-444 1139,-456 1139,-456 1139,-462 1133,-468 1127,-468"/>
<text text-anchor="middle" x="1112" y="-447.5" font-family="sans" font-size="10.00" fill="#000000">vsearch</text>
</g>
<!-- 19&#45;&gt;33 -->
<g id="edge61" class="edge">
<title>19&#45;&gt;33</title>
<path fill="none" stroke="#c0c0c0" stroke-width="2" d="M1112,-503.8314C1112,-496.131 1112,-486.9743 1112,-478.4166"/>
<polygon fill="#c0c0c0" stroke="#c0c0c0" stroke-width="2" points="1115.5001,-478.4132 1112,-468.4133 1108.5001,-478.4133 1115.5001,-478.4132"/>
</g>
<!-- 20&#45;&gt;19 -->
<g id="edge44" class="edge">
<title>20&#45;&gt;19</title>
<path fill="none" stroke="#c0c0c0" stroke-width="2" d="M1070.8788,-575.8314C1077.2136,-567.5386 1084.8384,-557.557 1091.7926,-548.4533"/>
<polygon fill="#c0c0c0" stroke="#c0c0c0" stroke-width="2" points="1094.6452,-550.4847 1097.9343,-540.4133 1089.0825,-546.2353 1094.6452,-550.4847"/>
</g>
<!-- 21 -->
<g id="node22" class="node">
<title>21</title>
<path fill="none" stroke="#d8ac56" stroke-width="2" d="M90,-396C90,-396 12,-396 12,-396 6,-396 0,-390 0,-384 0,-384 0,-372 0,-372 0,-366 6,-360 12,-360 12,-360 90,-360 90,-360 96,-360 102,-366 102,-372 102,-372 102,-384 102,-384 102,-390 96,-396 90,-396"/>
<text text-anchor="middle" x="51" y="-381" font-family="sans" font-size="10.00" fill="#000000">fastqc</text>
<text text-anchor="middle" x="51" y="-370" font-family="sans" font-size="10.00" fill="#000000">tool: extend/tadpole</text>
</g>
<!-- 21&#45;&gt;1 -->
<g id="edge15" class="edge">
<title>21&#45;&gt;1</title>
<path fill="none" stroke="#c0c0c0" stroke-width="2" d="M52.7816,-359.9651C58.3378,-314.5523 79.7759,-195.4502 155,-144 210.892,-105.7722 690.6217,-93.4435 828.8636,-90.6677"/>
<polygon fill="#c0c0c0" stroke="#c0c0c0" stroke-width="2" points="829.0298,-94.1653 838.9593,-90.47 828.8926,-87.1666 829.0298,-94.1653"/>
</g>
<!-- 22&#45;&gt;21 -->
<g id="edge46" class="edge">
<title>22&#45;&gt;21</title>
<path fill="none" stroke="#c0c0c0" stroke-width="2" d="M139.2083,-503.7623C121.6018,-478.66 89.788,-433.3017 69.5637,-404.4671"/>
<polygon fill="#c0c0c0" stroke="#c0c0c0" stroke-width="2" points="72.2956,-402.2668 63.6879,-396.0896 66.5647,-406.2864 72.2956,-402.2668"/>
</g>
<!-- 31 -->
<g id="node32" class="node">
<title>31</title>
<path fill="none" stroke="#5682d8" stroke-width="2" d="M167,-468C167,-468 137,-468 137,-468 131,-468 125,-462 125,-456 125,-456 125,-444 125,-444 125,-438 131,-432 137,-432 137,-432 167,-432 167,-432 173,-432 179,-438 179,-444 179,-444 179,-456 179,-456 179,-462 173,-468 167,-468"/>
<text text-anchor="middle" x="152" y="-447.5" font-family="sans" font-size="10.00" fill="#000000">vsearch</text>
</g>
<!-- 22&#45;&gt;31 -->
<g id="edge59" class="edge">
<title>22&#45;&gt;31</title>
<path fill="none" stroke="#c0c0c0" stroke-width="2" d="M152,-503.8314C152,-496.131 152,-486.9743 152,-478.4166"/>
<polygon fill="#c0c0c0" stroke="#c0c0c0" stroke-width="2" points="155.5001,-478.4132 152,-468.4133 148.5001,-478.4133 155.5001,-478.4132"/>
</g>
<!-- 23&#45;&gt;22 -->
<g id="edge48" class="edge">
<title>23&#45;&gt;22</title>
<path fill="none" stroke="#c0c0c0" stroke-width="2" d="M193.1212,-575.8314C186.7864,-567.5386 179.1616,-557.557 172.2074,-548.4533"/>
<polygon fill="#c0c0c0" stroke="#c0c0c0" stroke-width="2" points="174.9175,-546.2353 166.0657,-540.4133 169.3548,-550.4847 174.9175,-546.2353"/>
</g>
<!-- 24 -->
<g id="node25" class="node">
<title>24</title>
<path fill="none" stroke="#d8ac56" stroke-width="2" d="M614,-396C614,-396 536,-396 536,-396 530,-396 524,-390 524,-384 524,-384 524,-372 524,-372 524,-366 530,-360 536,-360 536,-360 614,-360 614,-360 620,-360 626,-366 626,-372 626,-372 626,-384 626,-384 626,-390 620,-396 614,-396"/>
<text text-anchor="middle" x="575" y="-381" font-family="sans" font-size="10.00" fill="#000000">fastqc</text>
<text text-anchor="middle" x="575" y="-370" font-family="sans" font-size="10.00" fill="#000000">tool: extend/tadpole</text>
</g>
<!-- 24&#45;&gt;1 -->
<g id="edge16" class="edge">
<title>24&#45;&gt;1</title>
<path fill="none" stroke="#c0c0c0" stroke-width="2" d="M568.332,-359.6027C558.2942,-329.1081 541.9913,-266.4492 557,-216 567.8968,-179.3721 572.4143,-165.5101 604,-144 640.2711,-119.2991 765.766,-101.6399 828.9889,-94.0865"/>
<polygon fill="#c0c0c0" stroke="#c0c0c0" stroke-width="2" points="829.4182,-97.5602 838.9426,-92.9195 828.6031,-90.6078 829.4182,-97.5602"/>
</g>
<!-- 25&#45;&gt;24 -->
<g id="edge50" class="edge">
<title>25&#45;&gt;24</title>
<path fill="none" stroke="#c0c0c0" stroke-width="2" d="M643.1212,-503.7623C629.6414,-478.8764 605.3779,-434.0822 589.7423,-405.2165"/>
<polygon fill="#c0c0c0" stroke="#c0c0c0" stroke-width="2" points="592.639,-403.2155 584.7985,-396.0896 586.4839,-406.5496 592.639,-403.2155"/>
</g>
<!-- 35 -->
<g id="node36" class="node">
<title>35</title>
<path fill="none" stroke="#5682d8" stroke-width="2" d="M683,-468C683,-468 653,-468 653,-468 647,-468 641,-462 641,-456 641,-456 641,-444 641,-444 641,-438 647,-432 653,-432 653,-432 683,-432 683,-432 689,-432 695,-438 695,-444 695,-444 695,-456 695,-456 695,-462 689,-468 683,-468"/>
<text text-anchor="middle" x="668" y="-447.5" font-family="sans" font-size="10.00" fill="#000000">vsearch</text>
</g>
<!-- 25&#45;&gt;35 -->
<g id="edge63" class="edge">
<title>25&#45;&gt;35</title>
<path fill="none" stroke="#c0c0c0" stroke-width="2" d="M656.7851,-503.8314C658.3894,-496.131 660.297,-486.9743 662.0799,-478.4166"/>
<polygon fill="#c0c0c0" stroke="#c0c0c0" stroke-width="2" points="665.5507,-478.9169 664.1639,-468.4133 658.6979,-477.4892 665.5507,-478.9169"/>
</g>
<!-- 26&#45;&gt;25 -->
<g id="edge52" class="edge">
<title>26&#45;&gt;25</title>
<path fill="none" stroke="#c0c0c0" stroke-width="2" d="M682.1587,-575.8314C677.8043,-567.7925 672.5902,-558.1666 667.7831,-549.2918"/>
<polygon fill="#c0c0c0" stroke="#c0c0c0" stroke-width="2" points="670.8143,-547.5392 662.9739,-540.4133 664.6592,-550.8732 670.8143,-547.5392"/>
</g>
<!-- 27 -->
<g id="node28" class="node">
<title>27</title>
<path fill="none" stroke="#d8ac56" stroke-width="2" d="M1581,-468C1581,-468 1503,-468 1503,-468 1497,-468 1491,-462 1491,-456 1491,-456 1491,-444 1491,-444 1491,-438 1497,-432 1503,-432 1503,-432 1581,-432 1581,-432 1587,-432 1593,-438 1593,-444 1593,-444 1593,-456 1593,-456 1593,-462 1587,-468 1581,-468"/>
<text text-anchor="middle" x="1542" y="-453" font-family="sans" font-size="10.00" fill="#000000">fastqc</text>
<text text-anchor="middle" x="1542" y="-442" font-family="sans" font-size="10.00" fill="#000000">tool: extend/tadpole</text>
</g>
<!-- 27&#45;&gt;1 -->
<g id="edge17" class="edge">
<title>27&#45;&gt;1</title>
<path fill="none" stroke="#c0c0c0" stroke-width="2" d="M1533.305,-431.8324C1521.2698,-404.9721 1501,-352.7885 1501,-306 1501,-306 1501,-306 1501,-234 1501,-192.6022 1508.6848,-170.643 1477,-144 1433.046,-107.0402 1029.3419,-94.0259 903.3674,-90.8451"/>
<polygon fill="#c0c0c0" stroke="#c0c0c0" stroke-width="2" points="903.1592,-87.339 893.0761,-90.5917 902.9869,-94.3369 903.1592,-87.339"/>
</g>
<!-- 28&#45;&gt;27 -->
<g id="edge54" class="edge">
<title>28&#45;&gt;27</title>
<path fill="none" stroke="#c0c0c0" stroke-width="2" d="M1568.168,-503.8314C1564.3014,-495.8771 1559.6794,-486.369 1555.4032,-477.5723"/>
<polygon fill="#c0c0c0" stroke="#c0c0c0" stroke-width="2" points="1558.4707,-475.8768 1550.9509,-468.4133 1552.1751,-478.9371 1558.4707,-475.8768"/>
</g>
<!-- 37 -->
<g id="node38" class="node">
<title>37</title>
<path fill="none" stroke="#5682d8" stroke-width="2" d="M1653,-468C1653,-468 1623,-468 1623,-468 1617,-468 1611,-462 1611,-456 1611,-456 1611,-444 1611,-444 1611,-438 1617,-432 1623,-432 1623,-432 1653,-432 1653,-432 1659,-432 1665,-438 1665,-444 1665,-444 1665,-456 1665,-456 1665,-462 1659,-468 1653,-468"/>
<text text-anchor="middle" x="1638" y="-447.5" font-family="sans" font-size="10.00" fill="#000000">vsearch</text>
</g>
<!-- 28&#45;&gt;37 -->
<g id="edge65" class="edge">
<title>28&#45;&gt;37</title>
<path fill="none" stroke="#c0c0c0" stroke-width="2" d="M1592.3929,-503.8314C1599.4904,-495.454 1608.048,-485.3531 1615.824,-476.1749"/>
<polygon fill="#c0c0c0" stroke="#c0c0c0" stroke-width="2" points="1618.6061,-478.3056 1622.3999,-468.4133 1613.2652,-473.7807 1618.6061,-478.3056"/>
</g>
<!-- 29&#45;&gt;28 -->
<g id="edge56" class="edge">
<title>29&#45;&gt;28</title>
<path fill="none" stroke="#c0c0c0" stroke-width="2" d="M1588.9625,-575.8314C1587.2513,-568.131 1585.2165,-558.9743 1583.3148,-550.4166"/>
<polygon fill="#c0c0c0" stroke="#c0c0c0" stroke-width="2" points="1586.6779,-549.4159 1581.0918,-540.4133 1579.8446,-550.9344 1586.6779,-549.4159"/>
</g>
<!-- 30 -->
<g id="node31" class="node">
<title>30</title>
<path fill="none" stroke="#d8ac56" stroke-width="2" d="M145,-324C145,-324 107,-324 107,-324 101,-324 95,-318 95,-312 95,-312 95,-300 95,-300 95,-294 101,-288 107,-288 107,-288 145,-288 145,-288 151,-288 157,-294 157,-300 157,-300 157,-312 157,-312 157,-318 151,-324 145,-324"/>
<text text-anchor="middle" x="126" y="-309" font-family="sans" font-size="10.00" fill="#000000">fastqc</text>
<text text-anchor="middle" x="126" y="-298" font-family="sans" font-size="10.00" fill="#000000">tool: derep</text>
</g>
<!-- 30&#45;&gt;1 -->
<g id="edge18" class="edge">
<title>30&#45;&gt;1</title>
<path fill="none" stroke="#c0c0c0" stroke-width="2" d="M126.2556,-287.943C127.1381,-269.1708 130.3037,-239.3262 141,-216 158.3625,-178.1364 164.0245,-163.1814 201,-144 256.8732,-115.0153 697.284,-96.3208 828.9482,-91.3381"/>
<polygon fill="#c0c0c0" stroke="#c0c0c0" stroke-width="2" points="829.09,-94.8354 838.952,-90.9635 828.828,-87.8403 829.09,-94.8354"/>
</g>
<!-- 31&#45;&gt;30 -->
<g id="edge58" class="edge">
<title>31&#45;&gt;30</title>
<path fill="none" stroke="#c0c0c0" stroke-width="2" d="M148.7071,-431.7623C144.2529,-407.0928 136.2663,-362.8598 131.0507,-333.9731"/>
<polygon fill="#c0c0c0" stroke="#c0c0c0" stroke-width="2" points="134.4874,-333.3086 129.2662,-324.0896 127.5988,-334.5524 134.4874,-333.3086"/>
</g>
<!-- 46 -->
<g id="node47" class="node">
<title>46</title>
<path fill="none" stroke="#56d8d8" stroke-width="2" d="M221.5,-396C221.5,-396 170.5,-396 170.5,-396 164.5,-396 158.5,-390 158.5,-384 158.5,-384 158.5,-372 158.5,-372 158.5,-366 164.5,-360 170.5,-360 170.5,-360 221.5,-360 221.5,-360 227.5,-360 233.5,-366 233.5,-372 233.5,-372 233.5,-384 233.5,-384 233.5,-390 227.5,-396 221.5,-396"/>
<text text-anchor="middle" x="196" y="-375.5" font-family="sans" font-size="10.00" fill="#000000">seqkit_fx2tab</text>
</g>
<!-- 31&#45;&gt;46 -->
<g id="edge77" class="edge">
<title>31&#45;&gt;46</title>
<path fill="none" stroke="#c0c0c0" stroke-width="2" d="M163.1031,-431.8314C168.0674,-423.7079 174.0222,-413.9637 179.4928,-405.0118"/>
<polygon fill="#c0c0c0" stroke="#c0c0c0" stroke-width="2" points="182.5194,-406.7712 184.7474,-396.4133 176.5464,-403.121 182.5194,-406.7712"/>
</g>
<!-- 32 -->
<g id="node33" class="node">
<title>32</title>
<path fill="none" stroke="#d8ac56" stroke-width="2" d="M1065,-180C1065,-180 1027,-180 1027,-180 1021,-180 1015,-174 1015,-168 1015,-168 1015,-156 1015,-156 1015,-150 1021,-144 1027,-144 1027,-144 1065,-144 1065,-144 1071,-144 1077,-150 1077,-156 1077,-156 1077,-168 1077,-168 1077,-174 1071,-180 1065,-180"/>
<text text-anchor="middle" x="1046" y="-165" font-family="sans" font-size="10.00" fill="#000000">fastqc</text>
<text text-anchor="middle" x="1046" y="-154" font-family="sans" font-size="10.00" fill="#000000">tool: derep</text>
</g>
<!-- 32&#45;&gt;1 -->
<g id="edge19" class="edge">
<title>32&#45;&gt;1</title>
<path fill="none" stroke="#c0c0c0" stroke-width="2" d="M1014.6464,-149.4586C983.3851,-136.954 935.4032,-117.7613 902.4591,-104.5836"/>
<polygon fill="#c0c0c0" stroke="#c0c0c0" stroke-width="2" points="903.7579,-101.3336 893.1732,-100.8693 901.1581,-107.8329 903.7579,-101.3336"/>
</g>
<!-- 33&#45;&gt;32 -->
<g id="edge60" class="edge">
<title>33&#45;&gt;32</title>
<path fill="none" stroke="#c0c0c0" stroke-width="2" d="M1095.7807,-431.8365C1087.8721,-421.9347 1079.0072,-409.0585 1074,-396 1047.0024,-325.5911 1044.3653,-235.2779 1045.0057,-190.2136"/>
<polygon fill="#c0c0c0" stroke="#c0c0c0" stroke-width="2" points="1048.5088,-190.0971 1045.2192,-180.026 1041.5104,-189.9504 1048.5088,-190.0971"/>
</g>
<!-- 43 -->
<g id="node44" class="node">
<title>43</title>
<path fill="none" stroke="#56d8d8" stroke-width="2" d="M1145.5,-396C1145.5,-396 1094.5,-396 1094.5,-396 1088.5,-396 1082.5,-390 1082.5,-384 1082.5,-384 1082.5,-372 1082.5,-372 1082.5,-366 1088.5,-360 1094.5,-360 1094.5,-360 1145.5,-360 1145.5,-360 1151.5,-360 1157.5,-366 1157.5,-372 1157.5,-372 1157.5,-384 1157.5,-384 1157.5,-390 1151.5,-396 1145.5,-396"/>
<text text-anchor="middle" x="1120" y="-375.5" font-family="sans" font-size="10.00" fill="#000000">seqkit_fx2tab</text>
</g>
<!-- 33&#45;&gt;43 -->
<g id="edge73" class="edge">
<title>33&#45;&gt;43</title>
<path fill="none" stroke="#c0c0c0" stroke-width="2" d="M1114.0187,-431.8314C1114.8743,-424.131 1115.8917,-414.9743 1116.8426,-406.4166"/>
<polygon fill="#c0c0c0" stroke="#c0c0c0" stroke-width="2" points="1120.3283,-406.7386 1117.9541,-396.4133 1113.3711,-405.9656 1120.3283,-406.7386"/>
</g>
<!-- 34 -->
<g id="node35" class="node">
<title>34</title>
<path fill="none" stroke="#d8ac56" stroke-width="2" d="M616,-252C616,-252 578,-252 578,-252 572,-252 566,-246 566,-240 566,-240 566,-228 566,-228 566,-222 572,-216 578,-216 578,-216 616,-216 616,-216 622,-216 628,-222 628,-228 628,-228 628,-240 628,-240 628,-246 622,-252 616,-252"/>
<text text-anchor="middle" x="597" y="-237" font-family="sans" font-size="10.00" fill="#000000">fastqc</text>
<text text-anchor="middle" x="597" y="-226" font-family="sans" font-size="10.00" fill="#000000">tool: derep</text>
</g>
<!-- 34&#45;&gt;1 -->
<g id="edge20" class="edge">
<title>34&#45;&gt;1</title>
<path fill="none" stroke="#c0c0c0" stroke-width="2" d="M598.3624,-215.9681C600.9026,-195.4842 608.1765,-162.5083 629,-144 658.3092,-117.9495 769.9626,-101.2637 828.9598,-94.0746"/>
<polygon fill="#c0c0c0" stroke="#c0c0c0" stroke-width="2" points="829.471,-97.5385 838.9879,-92.8824 828.6446,-90.5875 829.471,-97.5385"/>
</g>
<!-- 35&#45;&gt;34 -->
<g id="edge62" class="edge">
<title>35&#45;&gt;34</title>
<path fill="none" stroke="#c0c0c0" stroke-width="2" d="M662.0687,-431.9555C649.6698,-394.235 620.9358,-306.8188 606.1511,-261.8399"/>
<polygon fill="#c0c0c0" stroke="#c0c0c0" stroke-width="2" points="609.4121,-260.5521 602.9644,-252.1451 602.7621,-262.738 609.4121,-260.5521"/>
</g>
<!-- 40 -->
<g id="node41" class="node">
<title>40</title>
<path fill="none" stroke="#56d8d8" stroke-width="2" d="M745.5,-396C745.5,-396 694.5,-396 694.5,-396 688.5,-396 682.5,-390 682.5,-384 682.5,-384 682.5,-372 682.5,-372 682.5,-366 688.5,-360 694.5,-360 694.5,-360 745.5,-360 745.5,-360 751.5,-360 757.5,-366 757.5,-372 757.5,-372 757.5,-384 757.5,-384 757.5,-390 751.5,-396 745.5,-396"/>
<text text-anchor="middle" x="720" y="-375.5" font-family="sans" font-size="10.00" fill="#000000">seqkit_fx2tab</text>
</g>
<!-- 35&#45;&gt;40 -->
<g id="edge69" class="edge">
<title>35&#45;&gt;40</title>
<path fill="none" stroke="#c0c0c0" stroke-width="2" d="M681.1218,-431.8314C687.0499,-423.6232 694.1729,-413.7606 700.6933,-404.7323"/>
<polygon fill="#c0c0c0" stroke="#c0c0c0" stroke-width="2" points="703.684,-406.5693 706.7015,-396.4133 698.0092,-402.4708 703.684,-406.5693"/>
</g>
<!-- 36 -->
<g id="node37" class="node">
<title>36</title>
<path fill="none" stroke="#d8ac56" stroke-width="2" d="M1579,-396C1579,-396 1541,-396 1541,-396 1535,-396 1529,-390 1529,-384 1529,-384 1529,-372 1529,-372 1529,-366 1535,-360 1541,-360 1541,-360 1579,-360 1579,-360 1585,-360 1591,-366 1591,-372 1591,-372 1591,-384 1591,-384 1591,-390 1585,-396 1579,-396"/>
<text text-anchor="middle" x="1560" y="-381" font-family="sans" font-size="10.00" fill="#000000">fastqc</text>
<text text-anchor="middle" x="1560" y="-370" font-family="sans" font-size="10.00" fill="#000000">tool: derep</text>
</g>
<!-- 36&#45;&gt;1 -->
<g id="edge21" class="edge">
<title>36&#45;&gt;1</title>
<path fill="none" stroke="#c0c0c0" stroke-width="2" d="M1559.2408,-359.7982C1556.7557,-309.9157 1547.0826,-172.8218 1515,-144 1469.3923,-103.0276 1035.1685,-92.7197 903.5985,-90.5269"/>
<polygon fill="#c0c0c0" stroke="#c0c0c0" stroke-width="2" points="903.29,-87.0216 893.2351,-90.3607 903.1777,-94.0207 903.29,-87.0216"/>
</g>
<!-- 37&#45;&gt;36 -->
<g id="edge64" class="edge">
<title>37&#45;&gt;36</title>
<path fill="none" stroke="#c0c0c0" stroke-width="2" d="M1618.3173,-431.8314C1608.8949,-423.1337 1597.4599,-412.5783 1587.2204,-403.1265"/>
<polygon fill="#c0c0c0" stroke="#c0c0c0" stroke-width="2" points="1589.3984,-400.3738 1579.6764,-396.1628 1584.6505,-405.5175 1589.3984,-400.3738"/>
</g>
<!-- 49 -->
<g id="node50" class="node">
<title>49</title>
<path fill="none" stroke="#56d8d8" stroke-width="2" d="M1672.5,-396C1672.5,-396 1621.5,-396 1621.5,-396 1615.5,-396 1609.5,-390 1609.5,-384 1609.5,-384 1609.5,-372 1609.5,-372 1609.5,-366 1615.5,-360 1621.5,-360 1621.5,-360 1672.5,-360 1672.5,-360 1678.5,-360 1684.5,-366 1684.5,-372 1684.5,-372 1684.5,-384 1684.5,-384 1684.5,-390 1678.5,-396 1672.5,-396"/>
<text text-anchor="middle" x="1647" y="-375.5" font-family="sans" font-size="10.00" fill="#000000">seqkit_fx2tab</text>
</g>
<!-- 37&#45;&gt;49 -->
<g id="edge81" class="edge">
<title>37&#45;&gt;49</title>
<path fill="none" stroke="#c0c0c0" stroke-width="2" d="M1640.2711,-431.8314C1641.2336,-424.131 1642.3782,-414.9743 1643.4479,-406.4166"/>
<polygon fill="#c0c0c0" stroke="#c0c0c0" stroke-width="2" points="1646.9309,-406.7702 1644.6983,-396.4133 1639.9849,-405.9019 1646.9309,-406.7702"/>
</g>
<!-- 38 -->
<g id="node39" class="node">
<title>38</title>
<path fill="none" stroke="#d8ac56" stroke-width="2" d="M851.5,-180C851.5,-180 774.5,-180 774.5,-180 768.5,-180 762.5,-174 762.5,-168 762.5,-168 762.5,-156 762.5,-156 762.5,-150 768.5,-144 774.5,-144 774.5,-144 851.5,-144 851.5,-144 857.5,-144 863.5,-150 863.5,-156 863.5,-156 863.5,-168 863.5,-168 863.5,-174 857.5,-180 851.5,-180"/>
<text text-anchor="middle" x="813" y="-165" font-family="sans" font-size="10.00" fill="#000000">fastqc</text>
<text text-anchor="middle" x="813" y="-154" font-family="sans" font-size="10.00" fill="#000000">tool: represent/grep</text>
</g>
<!-- 38&#45;&gt;1 -->
<g id="edge22" class="edge">
<title>38&#45;&gt;1</title>
<path fill="none" stroke="#c0c0c0" stroke-width="2" d="M826.3741,-143.8314C832.4162,-135.6232 839.6763,-125.7606 846.3221,-116.7323"/>
<polygon fill="#c0c0c0" stroke="#c0c0c0" stroke-width="2" points="849.3363,-118.5415 852.4458,-108.4133 843.6989,-114.3918 849.3363,-118.5415"/>
</g>
<!-- 39&#45;&gt;38 -->
<g id="edge66" class="edge">
<title>39&#45;&gt;38</title>
<path fill="none" stroke="#c0c0c0" stroke-width="2" d="M760.599,-287.7623C770.9231,-262.9846 789.4703,-218.4714 801.5025,-189.5939"/>
<polygon fill="#c0c0c0" stroke="#c0c0c0" stroke-width="2" points="804.8472,-190.6666 805.4627,-180.0896 798.3857,-187.9742 804.8472,-190.6666"/>
</g>
<!-- 51 -->
<g id="node52" class="node">
<title>51</title>
<path fill="none" stroke="#afd856" stroke-width="2" d="M721,-252C721,-252 661,-252 661,-252 655,-252 649,-246 649,-240 649,-240 649,-228 649,-228 649,-222 655,-216 661,-216 661,-216 721,-216 721,-216 727,-216 733,-222 733,-228 733,-228 733,-240 733,-240 733,-246 727,-252 721,-252"/>
<text text-anchor="middle" x="691" y="-231.5" font-family="sans" font-size="10.00" fill="#000000">low_complexity</text>
</g>
<!-- 39&#45;&gt;51 -->
<g id="edge83" class="edge">
<title>39&#45;&gt;51</title>
<path fill="none" stroke="#c0c0c0" stroke-width="2" d="M737.3548,-287.8314C730.1409,-279.454 721.443,-269.3531 713.5395,-260.1749"/>
<polygon fill="#c0c0c0" stroke="#c0c0c0" stroke-width="2" points="716.0333,-257.7071 706.8559,-252.4133 710.7289,-262.2748 716.0333,-257.7071"/>
</g>
<!-- 40&#45;&gt;39 -->
<g id="edge68" class="edge">
<title>40&#45;&gt;39</title>
<path fill="none" stroke="#c0c0c0" stroke-width="2" d="M728.3273,-359.8314C731.973,-351.8771 736.3309,-342.369 740.3627,-333.5723"/>
<polygon fill="#c0c0c0" stroke="#c0c0c0" stroke-width="2" points="743.5757,-334.9622 744.5606,-324.4133 737.2123,-332.0456 743.5757,-334.9622"/>
</g>
<!-- 41 -->
<g id="node42" class="node">
<title>41</title>
<path fill="none" stroke="#d8ac56" stroke-width="2" d="M1222.5,-180C1222.5,-180 1145.5,-180 1145.5,-180 1139.5,-180 1133.5,-174 1133.5,-168 1133.5,-168 1133.5,-156 1133.5,-156 1133.5,-150 1139.5,-144 1145.5,-144 1145.5,-144 1222.5,-144 1222.5,-144 1228.5,-144 1234.5,-150 1234.5,-156 1234.5,-156 1234.5,-168 1234.5,-168 1234.5,-174 1228.5,-180 1222.5,-180"/>
<text text-anchor="middle" x="1184" y="-165" font-family="sans" font-size="10.00" fill="#000000">fastqc</text>
<text text-anchor="middle" x="1184" y="-154" font-family="sans" font-size="10.00" fill="#000000">tool: represent/grep</text>
</g>
<!-- 41&#45;&gt;1 -->
<g id="edge23" class="edge">
<title>41&#45;&gt;1</title>
<path fill="none" stroke="#c0c0c0" stroke-width="2" d="M1133.3347,-147.6541C1128.4997,-146.3802 1123.663,-145.1422 1119,-144 1042.6379,-125.2952 952.4132,-106.9222 902.988,-97.1729"/>
<polygon fill="#c0c0c0" stroke="#c0c0c0" stroke-width="2" points="903.5673,-93.7199 893.0801,-95.2264 902.2178,-100.5886 903.5673,-93.7199"/>
</g>
<!-- 42&#45;&gt;41 -->
<g id="edge70" class="edge">
<title>42&#45;&gt;41</title>
<path fill="none" stroke="#c0c0c0" stroke-width="2" d="M1229.4142,-287.7623C1220.4667,-262.9846 1204.3924,-218.4714 1193.9645,-189.5939"/>
<polygon fill="#c0c0c0" stroke="#c0c0c0" stroke-width="2" points="1197.2208,-188.3064 1190.5324,-180.0896 1190.6369,-190.6839 1197.2208,-188.3064"/>
</g>
<!-- 57 -->
<g id="node58" class="node">
<title>57</title>
<path fill="none" stroke="#afd856" stroke-width="2" d="M1336,-252C1336,-252 1276,-252 1276,-252 1270,-252 1264,-246 1264,-240 1264,-240 1264,-228 1264,-228 1264,-222 1270,-216 1276,-216 1276,-216 1336,-216 1336,-216 1342,-216 1348,-222 1348,-228 1348,-228 1348,-240 1348,-240 1348,-246 1342,-252 1336,-252"/>
<text text-anchor="middle" x="1306" y="-231.5" font-family="sans" font-size="10.00" fill="#000000">low_complexity</text>
</g>
<!-- 42&#45;&gt;57 -->
<g id="edge89" class="edge">
<title>42&#45;&gt;57</title>
<path fill="none" stroke="#c0c0c0" stroke-width="2" d="M1253.664,-287.8314C1261.9732,-279.2848 1272.0264,-268.9443 1281.0918,-259.6198"/>
<polygon fill="#c0c0c0" stroke="#c0c0c0" stroke-width="2" points="1283.6369,-262.023 1288.0982,-252.4133 1278.6179,-257.1435 1283.6369,-262.023"/>
</g>
<!-- 43&#45;&gt;42 -->
<g id="edge72" class="edge">
<title>43&#45;&gt;42</title>
<path fill="none" stroke="#c0c0c0" stroke-width="2" d="M1149.2717,-359.8314C1164.1088,-350.6221 1182.3015,-339.3301 1198.1862,-329.4706"/>
<polygon fill="#c0c0c0" stroke="#c0c0c0" stroke-width="2" points="1200.087,-332.4102 1206.7377,-324.1628 1196.3955,-326.4628 1200.087,-332.4102"/>
</g>
<!-- 44 -->
<g id="node45" class="node">
<title>44</title>
<path fill="none" stroke="#d8ac56" stroke-width="2" d="M341.5,-252C341.5,-252 264.5,-252 264.5,-252 258.5,-252 252.5,-246 252.5,-240 252.5,-240 252.5,-228 252.5,-228 252.5,-222 258.5,-216 264.5,-216 264.5,-216 341.5,-216 341.5,-216 347.5,-216 353.5,-222 353.5,-228 353.5,-228 353.5,-240 353.5,-240 353.5,-246 347.5,-252 341.5,-252"/>
<text text-anchor="middle" x="303" y="-237" font-family="sans" font-size="10.00" fill="#000000">fastqc</text>
<text text-anchor="middle" x="303" y="-226" font-family="sans" font-size="10.00" fill="#000000">tool: represent/grep</text>
</g>
<!-- 44&#45;&gt;1 -->
<g id="edge24" class="edge">
<title>44&#45;&gt;1</title>
<path fill="none" stroke="#c0c0c0" stroke-width="2" d="M310.488,-215.9296C320.3051,-194.7537 339.6744,-160.4697 368,-144 407.6075,-120.9706 719.4601,-99.2644 828.5087,-92.308"/>
<polygon fill="#c0c0c0" stroke="#c0c0c0" stroke-width="2" points="828.9513,-95.7871 838.7104,-91.6626 828.5093,-88.801 828.9513,-95.7871"/>
</g>
<!-- 45&#45;&gt;44 -->
<g id="edge74" class="edge">
<title>45&#45;&gt;44</title>
<path fill="none" stroke="#c0c0c0" stroke-width="2" d="M256.6452,-287.8314C263.8591,-279.454 272.557,-269.3531 280.4605,-260.1749"/>
<polygon fill="#c0c0c0" stroke="#c0c0c0" stroke-width="2" points="283.2711,-262.2748 287.1441,-252.4133 277.9667,-257.7071 283.2711,-262.2748"/>
</g>
<!-- 55 -->
<g id="node56" class="node">
<title>55</title>
<path fill="none" stroke="#afd856" stroke-width="2" d="M222,-252C222,-252 162,-252 162,-252 156,-252 150,-246 150,-240 150,-240 150,-228 150,-228 150,-222 156,-216 162,-216 162,-216 222,-216 222,-216 228,-216 234,-222 234,-228 234,-228 234,-240 234,-240 234,-246 228,-252 222,-252"/>
<text text-anchor="middle" x="192" y="-231.5" font-family="sans" font-size="10.00" fill="#000000">low_complexity</text>
</g>
<!-- 45&#45;&gt;55 -->
<g id="edge87" class="edge">
<title>45&#45;&gt;55</title>
<path fill="none" stroke="#c0c0c0" stroke-width="2" d="M228.6352,-287.8314C223.0491,-279.6232 216.337,-269.7606 210.1928,-260.7323"/>
<polygon fill="#c0c0c0" stroke="#c0c0c0" stroke-width="2" points="213.051,-258.7112 204.5313,-252.4133 207.264,-262.6496 213.051,-258.7112"/>
</g>
<!-- 46&#45;&gt;45 -->
<g id="edge76" class="edge">
<title>46&#45;&gt;45</title>
<path fill="none" stroke="#c0c0c0" stroke-width="2" d="M207.3554,-359.8314C212.4326,-351.7079 218.5227,-341.9637 224.1176,-333.0118"/>
<polygon fill="#c0c0c0" stroke="#c0c0c0" stroke-width="2" points="227.1597,-334.7483 229.4917,-324.4133 221.2237,-331.0383 227.1597,-334.7483"/>
</g>
<!-- 47 -->
<g id="node48" class="node">
<title>47</title>
<path fill="none" stroke="#d8ac56" stroke-width="2" d="M1656.5,-252C1656.5,-252 1579.5,-252 1579.5,-252 1573.5,-252 1567.5,-246 1567.5,-240 1567.5,-240 1567.5,-228 1567.5,-228 1567.5,-222 1573.5,-216 1579.5,-216 1579.5,-216 1656.5,-216 1656.5,-216 1662.5,-216 1668.5,-222 1668.5,-228 1668.5,-228 1668.5,-240 1668.5,-240 1668.5,-246 1662.5,-252 1656.5,-252"/>
<text text-anchor="middle" x="1618" y="-237" font-family="sans" font-size="10.00" fill="#000000">fastqc</text>
<text text-anchor="middle" x="1618" y="-226" font-family="sans" font-size="10.00" fill="#000000">tool: represent/grep</text>
</g>
<!-- 47&#45;&gt;1 -->
<g id="edge25" class="edge">
<title>47&#45;&gt;1</title>
<path fill="none" stroke="#c0c0c0" stroke-width="2" d="M1610.5934,-215.7872C1600.8565,-194.4711 1581.5661,-160.0491 1553,-144 1496.1932,-112.0845 1038.5688,-95.383 903.4381,-91.1139"/>
<polygon fill="#c0c0c0" stroke="#c0c0c0" stroke-width="2" points="903.2876,-87.6076 893.1834,-90.7944 903.0696,-94.6042 903.2876,-87.6076"/>
</g>
<!-- 48&#45;&gt;47 -->
<g id="edge78" class="edge">
<title>48&#45;&gt;47</title>
<path fill="none" stroke="#c0c0c0" stroke-width="2" d="M1664.3548,-287.8314C1657.1409,-279.454 1648.443,-269.3531 1640.5395,-260.1749"/>
<polygon fill="#c0c0c0" stroke="#c0c0c0" stroke-width="2" points="1643.0333,-257.7071 1633.8559,-252.4133 1637.7289,-262.2748 1643.0333,-257.7071"/>
</g>
<!-- 53 -->
<g id="node54" class="node">
<title>53</title>
<path fill="none" stroke="#afd856" stroke-width="2" d="M1759,-252C1759,-252 1699,-252 1699,-252 1693,-252 1687,-246 1687,-240 1687,-240 1687,-228 1687,-228 1687,-222 1693,-216 1699,-216 1699,-216 1759,-216 1759,-216 1765,-216 1771,-222 1771,-228 1771,-228 1771,-240 1771,-240 1771,-246 1765,-252 1759,-252"/>
<text text-anchor="middle" x="1729" y="-231.5" font-family="sans" font-size="10.00" fill="#000000">low_complexity</text>
</g>
<!-- 48&#45;&gt;53 -->
<g id="edge85" class="edge">
<title>48&#45;&gt;53</title>
<path fill="none" stroke="#c0c0c0" stroke-width="2" d="M1692.3648,-287.8314C1697.9509,-279.6232 1704.663,-269.7606 1710.8072,-260.7323"/>
<polygon fill="#c0c0c0" stroke="#c0c0c0" stroke-width="2" points="1713.736,-262.6496 1716.4687,-252.4133 1707.949,-258.7112 1713.736,-262.6496"/>
</g>
<!-- 49&#45;&gt;48 -->
<g id="edge80" class="edge">
<title>49&#45;&gt;48</title>
<path fill="none" stroke="#c0c0c0" stroke-width="2" d="M1655.3273,-359.8314C1658.973,-351.8771 1663.3309,-342.369 1667.3627,-333.5723"/>
<polygon fill="#c0c0c0" stroke="#c0c0c0" stroke-width="2" points="1670.5757,-334.9622 1671.5606,-324.4133 1664.2123,-332.0456 1670.5757,-334.9622"/>
</g>
<!-- 50 -->
<g id="node51" class="node">
<title>50</title>
<path fill="none" stroke="#d8ac56" stroke-width="2" d="M732,-180C732,-180 650,-180 650,-180 644,-180 638,-174 638,-168 638,-168 638,-156 638,-156 638,-150 644,-144 650,-144 650,-144 732,-144 732,-144 738,-144 744,-150 744,-156 744,-156 744,-168 744,-168 744,-174 738,-180 732,-180"/>
<text text-anchor="middle" x="691" y="-165" font-family="sans" font-size="10.00" fill="#000000">fastqc</text>
<text text-anchor="middle" x="691" y="-154" font-family="sans" font-size="10.00" fill="#000000">tool: low_complexity</text>
</g>
<!-- 50&#45;&gt;1 -->
<g id="edge26" class="edge">
<title>50&#45;&gt;1</title>
<path fill="none" stroke="#c0c0c0" stroke-width="2" d="M735.1599,-143.8314C764.3251,-131.8319 802.0849,-116.2965 829.5385,-105.0013"/>
<polygon fill="#c0c0c0" stroke="#c0c0c0" stroke-width="2" points="830.8721,-108.2373 838.7883,-101.1957 828.2087,-101.7638 830.8721,-108.2373"/>
</g>
<!-- 51&#45;&gt;0 -->
<g id="edge4" class="edge">
<title>51&#45;&gt;0</title>
<path fill="none" stroke="#c0c0c0" stroke-width="2" d="M660.5042,-215.7757C648.3178,-206.7056 635.6228,-194.5508 629,-180 622.3719,-165.4374 620.759,-157.7145 629,-144 672.6308,-71.3903 773.8011,-38.3666 828.7938,-25.3216"/>
<polygon fill="#c0c0c0" stroke="#c0c0c0" stroke-width="2" points="829.8472,-28.6715 838.8233,-23.0431 828.2964,-21.8455 829.8472,-28.6715"/>
</g>
<!-- 51&#45;&gt;50 -->
<g id="edge82" class="edge">
<title>51&#45;&gt;50</title>
<path fill="none" stroke="#c0c0c0" stroke-width="2" d="M691,-215.8314C691,-208.131 691,-198.9743 691,-190.4166"/>
<polygon fill="#c0c0c0" stroke="#c0c0c0" stroke-width="2" points="694.5001,-190.4132 691,-180.4133 687.5001,-190.4133 694.5001,-190.4132"/>
</g>
<!-- 52 -->
<g id="node53" class="node">
<title>52</title>
<path fill="none" stroke="#d8ac56" stroke-width="2" d="M1699,-180C1699,-180 1617,-180 1617,-180 1611,-180 1605,-174 1605,-168 1605,-168 1605,-156 1605,-156 1605,-150 1611,-144 1617,-144 1617,-144 1699,-144 1699,-144 1705,-144 1711,-150 1711,-156 1711,-156 1711,-168 1711,-168 1711,-174 1705,-180 1699,-180"/>
<text text-anchor="middle" x="1658" y="-165" font-family="sans" font-size="10.00" fill="#000000">fastqc</text>
<text text-anchor="middle" x="1658" y="-154" font-family="sans" font-size="10.00" fill="#000000">tool: low_complexity</text>
</g>
<!-- 52&#45;&gt;1 -->
<g id="edge27" class="edge">
<title>52&#45;&gt;1</title>
<path fill="none" stroke="#c0c0c0" stroke-width="2" d="M1604.8065,-146.7409C1600.161,-145.7031 1595.5121,-144.7671 1591,-144 1456.5067,-121.1344 1032.1884,-98.3805 903.4171,-91.854"/>
<polygon fill="#c0c0c0" stroke="#c0c0c0" stroke-width="2" points="903.4342,-88.3505 893.2706,-91.3424 903.0816,-95.3416 903.4342,-88.3505"/>
</g>
<!-- 53&#45;&gt;0 -->
<g id="edge2" class="edge">
<title>53&#45;&gt;0</title>
<path fill="none" stroke="#c0c0c0" stroke-width="2" d="M1733.0044,-215.8593C1736.3163,-195.5874 1737.9578,-163.1104 1720,-144 1662.9411,-83.2787 1060.5383,-32.9689 903.3447,-20.8053"/>
<polygon fill="#c0c0c0" stroke="#c0c0c0" stroke-width="2" points="903.4652,-17.3043 893.2263,-20.0276 902.9287,-24.2837 903.4652,-17.3043"/>
</g>
<!-- 53&#45;&gt;52 -->
<g id="edge84" class="edge">
<title>53&#45;&gt;52</title>
<path fill="none" stroke="#c0c0c0" stroke-width="2" d="M1711.0837,-215.8314C1702.6558,-207.2848 1692.459,-196.9443 1683.264,-187.6198"/>
<polygon fill="#c0c0c0" stroke="#c0c0c0" stroke-width="2" points="1685.6711,-185.0761 1676.1575,-180.4133 1680.6869,-189.9912 1685.6711,-185.0761"/>
</g>
<!-- 54 -->
<g id="node55" class="node">
<title>54</title>
<path fill="none" stroke="#d8ac56" stroke-width="2" d="M304,-180C304,-180 222,-180 222,-180 216,-180 210,-174 210,-168 210,-168 210,-156 210,-156 210,-150 216,-144 222,-144 222,-144 304,-144 304,-144 310,-144 316,-150 316,-156 316,-156 316,-168 316,-168 316,-174 310,-180 304,-180"/>
<text text-anchor="middle" x="263" y="-165" font-family="sans" font-size="10.00" fill="#000000">fastqc</text>
<text text-anchor="middle" x="263" y="-154" font-family="sans" font-size="10.00" fill="#000000">tool: low_complexity</text>
</g>
<!-- 54&#45;&gt;1 -->
<g id="edge28" class="edge">
<title>54&#45;&gt;1</title>
<path fill="none" stroke="#c0c0c0" stroke-width="2" d="M316.216,-146.8687C320.8567,-145.8031 325.4982,-144.8258 330,-144 515.4149,-109.9855 741.1249,-96.0583 828.7421,-91.6729"/>
<polygon fill="#c0c0c0" stroke="#c0c0c0" stroke-width="2" points="828.9134,-95.1688 838.7306,-91.1847 828.5716,-88.1772 828.9134,-95.1688"/>
</g>
<!-- 55&#45;&gt;0 -->
<g id="edge3" class="edge">
<title>55&#45;&gt;0</title>
<path fill="none" stroke="#c0c0c0" stroke-width="2" d="M188.0842,-215.9415C184.8536,-195.745 183.2865,-163.3371 201,-144 286.7901,-50.3466 701.8744,-25.015 828.9513,-19.3998"/>
<polygon fill="#c0c0c0" stroke="#c0c0c0" stroke-width="2" points="829.1305,-22.8954 838.9721,-18.9719 828.8318,-15.9018 829.1305,-22.8954"/>
</g>
<!-- 55&#45;&gt;54 -->
<g id="edge86" class="edge">
<title>55&#45;&gt;54</title>
<path fill="none" stroke="#c0c0c0" stroke-width="2" d="M209.9163,-215.8314C218.3442,-207.2848 228.541,-196.9443 237.736,-187.6198"/>
<polygon fill="#c0c0c0" stroke="#c0c0c0" stroke-width="2" points="240.3131,-189.9912 244.8425,-180.4133 235.3289,-185.0761 240.3131,-189.9912"/>
</g>
<!-- 56 -->
<g id="node57" class="node">
<title>56</title>
<path fill="none" stroke="#d8ac56" stroke-width="2" d="M1347,-180C1347,-180 1265,-180 1265,-180 1259,-180 1253,-174 1253,-168 1253,-168 1253,-156 1253,-156 1253,-150 1259,-144 1265,-144 1265,-144 1347,-144 1347,-144 1353,-144 1359,-150 1359,-156 1359,-156 1359,-168 1359,-168 1359,-174 1353,-180 1347,-180"/>
<text text-anchor="middle" x="1306" y="-165" font-family="sans" font-size="10.00" fill="#000000">fastqc</text>
<text text-anchor="middle" x="1306" y="-154" font-family="sans" font-size="10.00" fill="#000000">tool: low_complexity</text>
</g>
<!-- 56&#45;&gt;1 -->
<g id="edge29" class="edge">
<title>56&#45;&gt;1</title>
<path fill="none" stroke="#c0c0c0" stroke-width="2" d="M1252.6872,-146.0057C1249.7584,-145.2886 1246.8488,-144.6138 1244,-144 1120.6661,-117.4252 971.796,-100.5182 903.5239,-93.592"/>
<polygon fill="#c0c0c0" stroke="#c0c0c0" stroke-width="2" points="903.5738,-90.0795 893.2749,-92.5661 902.8765,-97.0447 903.5738,-90.0795"/>
</g>
<!-- 57&#45;&gt;0 -->
<g id="edge5" class="edge">
<title>57&#45;&gt;0</title>
<path fill="none" stroke="#c0c0c0" stroke-width="2" d="M1336.4958,-215.7757C1348.6822,-206.7056 1361.3772,-194.5508 1368,-180 1374.6281,-165.4374 1377.8407,-156.6159 1368,-144 1310.028,-69.6791 1009.9308,-32.5504 903.491,-21.5689"/>
<polygon fill="#c0c0c0" stroke="#c0c0c0" stroke-width="2" points="903.5292,-18.0549 893.2274,-20.5295 902.8238,-25.0193 903.5292,-18.0549"/>
</g>
<!-- 57&#45;&gt;56 -->
<g id="edge88" class="edge">
<title>57&#45;&gt;56</title>
<path fill="none" stroke="#c0c0c0" stroke-width="2" d="M1306,-215.8314C1306,-208.131 1306,-198.9743 1306,-190.4166"/>
<polygon fill="#c0c0c0" stroke="#c0c0c0" stroke-width="2" points="1309.5001,-190.4132 1306,-180.4133 1302.5001,-190.4133 1309.5001,-190.4132"/>
</g>
</g>
</svg>
