<?xml version="1.0" encoding="UTF-8" standalone="no"?>
<!DOCTYPE svg PUBLIC "-//W3C//DTD SVG 1.1//EN"
 "http://www.w3.org/Graphics/SVG/1.1/DTD/svg11.dtd">
<!-- Generated by graphviz version 2.40.1 (0)
 -->
<!-- Title: snakemake_dag Pages: 1 -->
<svg width="1208pt" height="2062pt"
 viewBox="0.00 0.00 1207.75 2062.00" xmlns="http://www.w3.org/2000/svg" xmlns:xlink="http://www.w3.org/1999/xlink">
<g id="graph0" class="graph" transform="scale(1 1) rotate(0) translate(4 2058)">
<title>snakemake_dag</title>
<polygon fill="#ffffff" stroke="transparent" points="-4,4 -4,-2058 1203.7546,-2058 1203.7546,4 -4,4"/>
<!-- 0 -->
<g id="node1" class="node">
<title>0</title>
<text text-anchor="start" x="341.2546" y="-125.6" font-family="sans" font-weight="bold" font-size="18.00" fill="#000000">all</text>
<text text-anchor="start" x="156.2546" y="-101.8" font-family="sans" font-size="10.00" fill="#000000"> </text>
<text text-anchor="start" x="160.2546" y="-101.8" font-family="sans" font-weight="bold" font-size="14.00" fill="#000000">↪ input</text>
<text text-anchor="start" x="213.2546" y="-101.8" font-family="sans" font-size="10.00" fill="#000000"> </text>
<text text-anchor="start" x="156.2546" y="-82" font-family="monospace" font-size="10.00" fill="#000000">reports/multiqc.html</text>
<text text-anchor="start" x="156.2546" y="-64" font-family="monospace" font-size="10.00" fill="#000000">results/reads/low_complexity/HD827sonic_1_lib1_collapsed.fastq.gz</text>
<text text-anchor="start" x="156.2546" y="-46" font-family="monospace" font-size="10.00" fill="#000000">results/reads/low_complexity/HD827sonic_2_lib1_collapsed.fastq.gz</text>
<text text-anchor="start" x="156.2546" y="-28" font-family="monospace" font-size="10.00" fill="#000000">results/reads/low_complexity/HD827sonic_2_lib2_collapsed.fastq.gz</text>
<text text-anchor="start" x="540.2546" y="-10" font-family="sans" font-size="10.00" fill="#000000"> &#160;</text>
<polygon fill="#d95757" stroke="#d95757" points="150.2546,-116 150.2546,-116 554.2546,-116 554.2546,-116 150.2546,-116"/>
<polygon fill="#d95757" stroke="#d95757" points="150.2546,-22 150.2546,-22 554.2546,-22 554.2546,-22 150.2546,-22"/>
<polygon fill="none" stroke="#d95757" stroke-width="2" points="149.7546,-1 149.7546,-145 552.7546,-145 552.7546,-1 149.7546,-1"/>
</g>
<!-- 1 -->
<g id="node2" class="node">
<title>1</title>
<text text-anchor="start" x="540.2546" y="-653.6" font-family="sans" font-weight="bold" font-size="18.00" fill="#000000">multiqc</text>
<text text-anchor="start" x="356.2546" y="-629.8" font-family="sans" font-size="10.00" fill="#000000"> </text>
<text text-anchor="start" x="360.2546" y="-629.8" font-family="sans" font-weight="bold" font-size="14.00" fill="#000000">↪ input</text>
<text text-anchor="start" x="413.2546" y="-629.8" font-family="sans" font-size="10.00" fill="#000000"> </text>
<text text-anchor="start" x="356.2546" y="-610" font-family="monospace" font-size="10.00" fill="#000000">stats/reads/fastqc/derep/HD827sonic_1_lib1_collapsed_fastqc.zip</text>
<text text-anchor="start" x="356.2546" y="-592" font-family="monospace" font-size="10.00" fill="#000000">stats/reads/fastqc/derep/HD827sonic_2_lib1_collapsed_fastqc.zip</text>
<text text-anchor="start" x="356.2546" y="-574" font-family="monospace" font-size="10.00" fill="#000000">stats/reads/fastqc/derep/HD827sonic_2_lib2_collapsed_fastqc.zip</text>
<text text-anchor="start" x="356.2546" y="-556" font-family="monospace" font-size="10.00" fill="#000000">stats/reads/fastqc/extend/tadpole/HD827sonic_1_lib1_collapsed_fastqc.zip</text>
<text text-anchor="start" x="356.2546" y="-538" font-family="monospace" font-size="10.00" fill="#000000">stats/reads/fastqc/extend/tadpole/HD827sonic_2_lib1_collapsed_fastqc.zip</text>
<text text-anchor="start" x="356.2546" y="-520" font-family="monospace" font-size="10.00" fill="#000000">stats/reads/fastqc/extend/tadpole/HD827sonic_2_lib2_collapsed_fastqc.zip</text>
<text text-anchor="start" x="356.2546" y="-502" font-family="monospace" font-size="10.00" fill="#000000">stats/reads/fastqc/low_complexity/HD827sonic_1_lib1_collapsed_fastqc.zip</text>
<text text-anchor="start" x="356.2546" y="-484" font-family="monospace" font-size="10.00" fill="#000000">stats/reads/fastqc/low_complexity/HD827sonic_2_lib1_collapsed_fastqc.zip</text>
<text text-anchor="start" x="356.2546" y="-466" font-family="monospace" font-size="10.00" fill="#000000">stats/reads/fastqc/low_complexity/HD827sonic_2_lib2_collapsed_fastqc.zip</text>
<text text-anchor="start" x="356.2546" y="-448" font-family="monospace" font-size="10.00" fill="#000000">stats/reads/fastqc/merge_lanes/HD827sonic_1_lib1_collapsed_fastqc.zip</text>
<text text-anchor="start" x="356.2546" y="-430" font-family="monospace" font-size="10.00" fill="#000000">stats/reads/fastqc/merge_lanes/HD827sonic_2_lib1_collapsed_fastqc.zip</text>
<text text-anchor="start" x="356.2546" y="-412" font-family="monospace" font-size="10.00" fill="#000000">stats/reads/fastqc/merge_lanes/HD827sonic_2_lib2_collapsed_fastqc.zip</text>
<text text-anchor="start" x="356.2546" y="-394" font-family="monospace" font-size="10.00" fill="#000000">stats/reads/fastqc/represent/grep/HD827sonic_1_lib1_collapsed_fastqc.zip</text>
<text text-anchor="start" x="356.2546" y="-376" font-family="monospace" font-size="10.00" fill="#000000">stats/reads/fastqc/represent/grep/HD827sonic_2_lib1_collapsed_fastqc.zip</text>
<text text-anchor="start" x="356.2546" y="-358" font-family="monospace" font-size="10.00" fill="#000000">stats/reads/fastqc/represent/grep/HD827sonic_2_lib2_collapsed_fastqc.zip</text>
<text text-anchor="start" x="356.2546" y="-340" font-family="monospace" font-size="10.00" fill="#000000">stats/reads/nonpareil/derep/HD827sonic_1_lib1_collapsed.json</text>
<text text-anchor="start" x="356.2546" y="-322" font-family="monospace" font-size="10.00" fill="#000000">stats/reads/nonpareil/derep/HD827sonic_2_lib1_collapsed.json</text>
<text text-anchor="start" x="356.2546" y="-304" font-family="monospace" font-size="10.00" fill="#000000">stats/reads/nonpareil/derep/HD827sonic_2_lib2_collapsed.json</text>
<text text-anchor="start" x="356.2546" y="-286" font-family="monospace" font-size="10.00" fill="#000000">stats/reads/nonpareil/merge_lanes/HD827sonic_1_lib1_collapsed.json</text>
<text text-anchor="start" x="356.2546" y="-268" font-family="monospace" font-size="10.00" fill="#000000">stats/reads/nonpareil/merge_lanes/HD827sonic_2_lib1_collapsed.json</text>
<text text-anchor="start" x="356.2546" y="-250" font-family="monospace" font-size="10.00" fill="#000000">stats/reads/nonpareil/merge_lanes/HD827sonic_2_lib2_collapsed.json</text>
<text text-anchor="start" x="720.2546" y="-229.8" font-family="sans" font-size="10.00" fill="#000000"> </text>
<text text-anchor="start" x="724.2546" y="-229.8" font-family="sans" font-weight="bold" font-size="14.00" fill="#000000">output →</text>
<text text-anchor="start" x="785.2546" y="-229.8" font-family="sans" font-size="10.00" fill="#000000"> </text>
<text text-anchor="start" x="356.2546" y="-210" font-family="monospace" font-size="10.00" fill="#000000">reports/multiqc.html</text>
<text text-anchor="start" x="356.2546" y="-192" font-family="monospace" font-size="10.00" fill="#000000">reports/multiqc_data.zip</text>
<polygon fill="#57d957" stroke="#57d957" points="350.2546,-644 350.2546,-644 796.2546,-644 796.2546,-644 350.2546,-644"/>
<polygon fill="#57d957" stroke="#57d957" points="350.2546,-244 350.2546,-244 796.2546,-244 796.2546,-244 350.2546,-244"/>
<polygon fill="none" stroke="#57d957" stroke-width="2" points="349.7546,-183 349.7546,-673 794.7546,-673 794.7546,-183 349.7546,-183"/>
</g>
<!-- 1&#45;&gt;0 -->
<g id="edge1" class="edge">
<title>1&#45;&gt;0</title>
<path fill="none" stroke="#c0c0c0" stroke-width="2" d="M419.0638,-181.9243C413.1861,-172.4827 407.4989,-163.3471 402.0846,-154.65"/>
<polygon fill="#c0c0c0" stroke="#c0c0c0" stroke-width="2" points="405.0207,-152.7436 396.7644,-146.104 399.0781,-156.4431 405.0207,-152.7436"/>
</g>
<!-- 2 -->
<g id="node3" class="node">
<title>2</title>
<text text-anchor="start" x="546.2546" y="-821.6" font-family="sans" font-weight="bold" font-size="18.00" fill="#000000">fastqc</text>
<text text-anchor="start" x="167.2546" y="-797.8" font-family="sans" font-size="10.00" fill="#000000"> </text>
<text text-anchor="start" x="171.2546" y="-797.8" font-family="sans" font-weight="bold" font-size="14.00" fill="#000000">↪ input</text>
<text text-anchor="start" x="224.2546" y="-797.8" font-family="sans" font-size="10.00" fill="#000000"> </text>
<text text-anchor="start" x="167.2546" y="-778" font-family="monospace" font-size="10.00" fill="#000000">&lt;input function&gt;</text>
<text text-anchor="start" x="909.2546" y="-757.8" font-family="sans" font-size="10.00" fill="#000000"> </text>
<text text-anchor="start" x="913.2546" y="-757.8" font-family="sans" font-weight="bold" font-size="14.00" fill="#000000">output →</text>
<text text-anchor="start" x="974.2546" y="-757.8" font-family="sans" font-size="10.00" fill="#000000"> </text>
<text text-anchor="start" x="167.2546" y="-738" font-family="monospace" font-size="10.00" fill="#000000">stats/reads/fastqc/{tool,merge_lanes|extend/tadpole|derep|represent/grep|low_complexity}/{sample}_{library}_{read_type_trim}.html</text>
<text text-anchor="start" x="167.2546" y="-720" font-family="monospace" font-size="10.00" fill="#000000">stats/reads/fastqc/{tool,merge_lanes|extend/tadpole|derep|represent/grep|low_complexity}/{sample}_{library}_{read_type_trim}_fastqc.zip</text>
<polygon fill="#d9ad57" stroke="#d9ad57" points="161.2546,-812 161.2546,-812 985.2546,-812 985.2546,-812 161.2546,-812"/>
<polygon fill="#d9ad57" stroke="#d9ad57" points="161.2546,-772 161.2546,-772 985.2546,-772 985.2546,-772 161.2546,-772"/>
<polygon fill="none" stroke="#d9ad57" stroke-width="2" points="160.7546,-711 160.7546,-841 983.7546,-841 983.7546,-711 160.7546,-711"/>
</g>
<!-- 2&#45;&gt;1 -->
<g id="edge4" class="edge">
<title>2&#45;&gt;1</title>
<path fill="none" stroke="#c0c0c0" stroke-width="2" d="M572.2546,-709.7247C572.2546,-701.701 572.2546,-693.1733 572.2546,-684.2726"/>
<polygon fill="#c0c0c0" stroke="#c0c0c0" stroke-width="2" points="575.7547,-684.0717 572.2546,-674.0717 568.7547,-684.0718 575.7547,-684.0717"/>
</g>
<!-- 3 -->
<g id="node4" class="node">
<title>3</title>
<text text-anchor="start" x="319.2546" y="-2033.6" font-family="sans" font-weight="bold" font-size="18.00" fill="#000000">merge_lanes</text>
<text text-anchor="start" x="172.2546" y="-2009.8" font-family="sans" font-size="10.00" fill="#000000"> </text>
<text text-anchor="start" x="176.2546" y="-2009.8" font-family="sans" font-weight="bold" font-size="14.00" fill="#000000">↪ input</text>
<text text-anchor="start" x="229.2546" y="-2009.8" font-family="sans" font-size="10.00" fill="#000000"> </text>
<text text-anchor="start" x="172.2546" y="-1990" font-family="monospace" font-size="10.00" fill="#000000">&lt;input function&gt;</text>
<text text-anchor="start" x="506.2546" y="-1969.8" font-family="sans" font-size="10.00" fill="#000000"> </text>
<text text-anchor="start" x="510.2546" y="-1969.8" font-family="sans" font-weight="bold" font-size="14.00" fill="#000000">output →</text>
<text text-anchor="start" x="571.2546" y="-1969.8" font-family="sans" font-size="10.00" fill="#000000"> </text>
<text text-anchor="start" x="172.2546" y="-1950" font-family="monospace" font-size="10.00" fill="#000000">temp/reads/merge_lanes/{sample}_{library}_{read_type_trim}.fastq.gz</text>
<polygon fill="#82d957" stroke="#82d957" points="166.2546,-2024 166.2546,-2024 582.2546,-2024 582.2546,-2024 166.2546,-2024"/>
<polygon fill="#82d957" stroke="#82d957" points="166.2546,-1984 166.2546,-1984 582.2546,-1984 582.2546,-1984 166.2546,-1984"/>
<polygon fill="none" stroke="#82d957" stroke-width="2" points="165.7546,-1941 165.7546,-2053 580.7546,-2053 580.7546,-1941 165.7546,-1941"/>
</g>
<!-- 3&#45;&gt;2 -->
<g id="edge7" class="edge">
<title>3&#45;&gt;2</title>
<path fill="none" stroke="#c0c0c0" stroke-width="2" d="M169.2408,-1939.8629C151.1208,-1929.7548 134.065,-1917.8982 119.2546,-1904 39.5874,-1829.2395 20.2546,-1788.252 20.2546,-1679 20.2546,-1679 20.2546,-1679 20.2546,-1130 20.2546,-1017.6821 -35.5198,-961.8099 39.2546,-878 58.4787,-856.453 99.0567,-839.3765 149.6599,-825.8651"/>
<polygon fill="#c0c0c0" stroke="#c0c0c0" stroke-width="2" points="150.7643,-829.1946 159.5658,-823.2969 149.0075,-822.4186 150.7643,-829.1946"/>
</g>
<!-- 5 -->
<g id="node6" class="node">
<title>5</title>
<text text-anchor="start" x="823.2546" y="-1379.6" font-family="sans" font-weight="bold" font-size="18.00" fill="#000000">nonpareil_infer</text>
<text text-anchor="start" x="684.2546" y="-1355.8" font-family="sans" font-size="10.00" fill="#000000"> </text>
<text text-anchor="start" x="688.2546" y="-1355.8" font-family="sans" font-weight="bold" font-size="14.00" fill="#000000">↪ input</text>
<text text-anchor="start" x="741.2546" y="-1355.8" font-family="sans" font-size="10.00" fill="#000000"> </text>
<text text-anchor="start" x="684.2546" y="-1336" font-family="monospace" font-size="10.00" fill="#000000">&lt;input function&gt;</text>
<text text-anchor="start" x="1024.2546" y="-1315.8" font-family="sans" font-size="10.00" fill="#000000"> </text>
<text text-anchor="start" x="1028.2546" y="-1315.8" font-family="sans" font-weight="bold" font-size="14.00" fill="#000000">output →</text>
<text text-anchor="start" x="1089.2546" y="-1315.8" font-family="sans" font-size="10.00" fill="#000000"> </text>
<text text-anchor="start" x="684.2546" y="-1296" font-family="monospace" font-size="10.00" fill="#000000">stats/reads/nonpareil/{tool}/{sample}_{library}_{read_type_trim}.log</text>
<text text-anchor="start" x="684.2546" y="-1278" font-family="monospace" font-size="10.00" fill="#000000">stats/reads/nonpareil/{tool}/{sample}_{library}_{read_type_trim}.npa</text>
<text text-anchor="start" x="684.2546" y="-1260" font-family="monospace" font-size="10.00" fill="#000000">stats/reads/nonpareil/{tool}/{sample}_{library}_{read_type_trim}.npc</text>
<text text-anchor="start" x="684.2546" y="-1242" font-family="monospace" font-size="10.00" fill="#000000">stats/reads/nonpareil/{tool}/{sample}_{library}_{read_type_trim}.npo</text>
<polygon fill="#57d982" stroke="#57d982" points="678.2546,-1370 678.2546,-1370 1100.2546,-1370 1100.2546,-1370 678.2546,-1370"/>
<polygon fill="#57d982" stroke="#57d982" points="678.2546,-1330 678.2546,-1330 1100.2546,-1330 1100.2546,-1330 678.2546,-1330"/>
<polygon fill="none" stroke="#57d982" stroke-width="2" points="677.7546,-1233 677.7546,-1399 1098.7546,-1399 1098.7546,-1233 677.7546,-1233"/>
</g>
<!-- 3&#45;&gt;5 -->
<g id="edge12" class="edge">
<title>3&#45;&gt;5</title>
<path fill="none" stroke="#c0c0c0" stroke-width="2" d="M562.4377,-1939.9417C581.1153,-1929.7629 598.8317,-1917.8694 614.2546,-1904 762.9995,-1770.238 837.2413,-1539.0245 868.7588,-1409.9852"/>
<polygon fill="#c0c0c0" stroke="#c0c0c0" stroke-width="2" points="872.1979,-1410.6529 871.1356,-1400.1115 865.3924,-1409.0146 872.1979,-1410.6529"/>
</g>
<!-- 6 -->
<g id="node7" class="node">
<title>6</title>
<text text-anchor="start" x="398.7546" y="-1733.6" font-family="sans" font-weight="bold" font-size="18.00" fill="#000000">extend_tadpole</text>
<text text-anchor="start" x="254.2546" y="-1709.8" font-family="sans" font-size="10.00" fill="#000000"> </text>
<text text-anchor="start" x="258.2546" y="-1709.8" font-family="sans" font-weight="bold" font-size="14.00" fill="#000000">↪ input</text>
<text text-anchor="start" x="311.2546" y="-1709.8" font-family="sans" font-size="10.00" fill="#000000"> </text>
<text text-anchor="start" x="254.2546" y="-1690" font-family="monospace" font-size="10.00" fill="#000000">logs/reads/extend/loglog/{sample}_{library}_{read_type_trim}.log</text>
<text text-anchor="start" x="254.2546" y="-1672" font-family="monospace" font-size="10.00" fill="#000000">temp/reads/extend/loglog/{sample}_{library}_{read_type_trim}.flag</text>
<text text-anchor="start" x="254.2546" y="-1654" font-family="monospace" font-size="10.00" fill="#000000">temp/reads/merge_lanes/{sample}_{library}_{read_type_trim}.fastq.gz</text>
<text text-anchor="start" x="606.2546" y="-1633.8" font-family="sans" font-size="10.00" fill="#000000"> </text>
<text text-anchor="start" x="610.2546" y="-1633.8" font-family="sans" font-weight="bold" font-size="14.00" fill="#000000">output →</text>
<text text-anchor="start" x="671.2546" y="-1633.8" font-family="sans" font-size="10.00" fill="#000000"> </text>
<text text-anchor="start" x="254.2546" y="-1614" font-family="monospace" font-size="10.00" fill="#000000">temp/reads/extend/tadpole/{sample}_{library}_{read_type_trim}.fastq.gz</text>
<polygon fill="#d98257" stroke="#d98257" points="248.2546,-1724 248.2546,-1724 682.2546,-1724 682.2546,-1724 248.2546,-1724"/>
<polygon fill="#d98257" stroke="#d98257" points="248.2546,-1648 248.2546,-1648 682.2546,-1648 682.2546,-1648 248.2546,-1648"/>
<polygon fill="none" stroke="#d98257" stroke-width="2" points="247.7546,-1605 247.7546,-1753 680.7546,-1753 680.7546,-1605 247.7546,-1605"/>
</g>
<!-- 3&#45;&gt;6 -->
<g id="edge14" class="edge">
<title>3&#45;&gt;6</title>
<path fill="none" stroke="#c0c0c0" stroke-width="2" d="M557.0858,-1939.806C570.3342,-1929.7375 582.0693,-1917.9047 591.2546,-1904 619.1813,-1861.7246 612.2038,-1836.1329 591.2546,-1790 586.7587,-1780.0993 580.895,-1770.7354 574.1549,-1761.961"/>
<polygon fill="#c0c0c0" stroke="#c0c0c0" stroke-width="2" points="576.7597,-1759.6167 567.7328,-1754.0699 571.3305,-1764.0353 576.7597,-1759.6167"/>
</g>
<!-- 7 -->
<g id="node8" class="node">
<title>7</title>
<text text-anchor="start" x="345.7546" y="-1883.6" font-family="sans" font-weight="bold" font-size="18.00" fill="#000000">loglog</text>
<text text-anchor="start" x="172.2546" y="-1859.8" font-family="sans" font-size="10.00" fill="#000000"> </text>
<text text-anchor="start" x="176.2546" y="-1859.8" font-family="sans" font-weight="bold" font-size="14.00" fill="#000000">↪ input</text>
<text text-anchor="start" x="229.2546" y="-1859.8" font-family="sans" font-size="10.00" fill="#000000"> </text>
<text text-anchor="start" x="172.2546" y="-1840" font-family="monospace" font-size="10.00" fill="#000000">temp/reads/merge_lanes/{sample}_{library}_{read_type_trim}.fastq.gz</text>
<text text-anchor="start" x="506.2546" y="-1819.8" font-family="sans" font-size="10.00" fill="#000000"> </text>
<text text-anchor="start" x="510.2546" y="-1819.8" font-family="sans" font-weight="bold" font-size="14.00" fill="#000000">output →</text>
<text text-anchor="start" x="571.2546" y="-1819.8" font-family="sans" font-size="10.00" fill="#000000"> </text>
<text text-anchor="start" x="172.2546" y="-1800" font-family="monospace" font-size="10.00" fill="#000000">temp/reads/extend/loglog/{sample}_{library}_{read_type_trim}.flag</text>
<polygon fill="#d9d957" stroke="#d9d957" points="166.2546,-1874 166.2546,-1874 582.2546,-1874 582.2546,-1874 166.2546,-1874"/>
<polygon fill="#d9d957" stroke="#d9d957" points="166.2546,-1834 166.2546,-1834 582.2546,-1834 582.2546,-1834 166.2546,-1834"/>
<polygon fill="none" stroke="#d9d957" stroke-width="2" points="165.7546,-1791 165.7546,-1903 580.7546,-1903 580.7546,-1791 165.7546,-1791"/>
</g>
<!-- 3&#45;&gt;7 -->
<g id="edge15" class="edge">
<title>3&#45;&gt;7</title>
<path fill="none" stroke="#c0c0c0" stroke-width="2" d="M373.2546,-1939.8635C373.2546,-1931.6231 373.2546,-1923.0771 373.2546,-1914.6558"/>
<polygon fill="#c0c0c0" stroke="#c0c0c0" stroke-width="2" points="376.7547,-1914.4745 373.2546,-1904.4745 369.7547,-1914.4745 376.7547,-1914.4745"/>
</g>
<!-- 9 -->
<g id="node10" class="node">
<title>9</title>
<text text-anchor="start" x="280.2546" y="-1175.6" font-family="sans" font-weight="bold" font-size="18.00" fill="#000000">seqkit_grep</text>
<text text-anchor="start" x="120.2546" y="-1151.8" font-family="sans" font-size="10.00" fill="#000000"> </text>
<text text-anchor="start" x="124.2546" y="-1151.8" font-family="sans" font-weight="bold" font-size="14.00" fill="#000000">↪ input</text>
<text text-anchor="start" x="177.2546" y="-1151.8" font-family="sans" font-size="10.00" fill="#000000"> </text>
<text text-anchor="start" x="120.2546" y="-1132" font-family="monospace" font-size="10.00" fill="#000000">temp/reads/merge_lanes/{sample}_{library}_{read_type_trim}.fastq.gz</text>
<text text-anchor="start" x="120.2546" y="-1114" font-family="monospace" font-size="10.00" fill="#000000">temp/reads/represent/fx2tab/{sample}_{library}_{read_type_trim}.tsv</text>
<text text-anchor="start" x="472.2546" y="-1093.8" font-family="sans" font-size="10.00" fill="#000000"> </text>
<text text-anchor="start" x="476.2546" y="-1093.8" font-family="sans" font-weight="bold" font-size="14.00" fill="#000000">output →</text>
<text text-anchor="start" x="537.2546" y="-1093.8" font-family="sans" font-size="10.00" fill="#000000"> </text>
<text text-anchor="start" x="120.2546" y="-1074" font-family="monospace" font-size="10.00" fill="#000000">temp/reads/represent/grep/{sample}_{library}_{read_type_trim}.fastq.gz</text>
<polygon fill="#57add9" stroke="#57add9" points="114.2546,-1166 114.2546,-1166 548.2546,-1166 548.2546,-1166 114.2546,-1166"/>
<polygon fill="#57add9" stroke="#57add9" points="114.2546,-1108 114.2546,-1108 548.2546,-1108 548.2546,-1108 114.2546,-1108"/>
<polygon fill="none" stroke="#57add9" stroke-width="2" points="113.7546,-1065 113.7546,-1195 546.7546,-1195 546.7546,-1065 113.7546,-1065"/>
</g>
<!-- 3&#45;&gt;9 -->
<g id="edge18" class="edge">
<title>3&#45;&gt;9</title>
<path fill="none" stroke="#c0c0c0" stroke-width="2" d="M191.9051,-1939.8686C177.8982,-1929.7773 165.3186,-1917.9224 155.2546,-1904 96.463,-1822.6683 136.2546,-1779.3559 136.2546,-1679 136.2546,-1679 136.2546,-1679 136.2546,-1502 136.2546,-1381.7032 91.6948,-1334.1345 155.2546,-1232 161.8521,-1221.3985 169.9861,-1211.7757 179.1034,-1203.0639"/>
<polygon fill="#c0c0c0" stroke="#c0c0c0" stroke-width="2" points="181.5457,-1205.5742 186.6156,-1196.2712 176.8508,-1200.3821 181.5457,-1205.5742"/>
</g>
<!-- 4 -->
<g id="node5" class="node">
<title>4</title>
<text text-anchor="start" x="919.7546" y="-1007.6" font-family="sans" font-weight="bold" font-size="18.00" fill="#000000">nonpareil_plot</text>
<text text-anchor="start" x="772.2546" y="-983.8" font-family="sans" font-size="10.00" fill="#000000"> </text>
<text text-anchor="start" x="776.2546" y="-983.8" font-family="sans" font-weight="bold" font-size="14.00" fill="#000000">↪ input</text>
<text text-anchor="start" x="829.2546" y="-983.8" font-family="sans" font-size="10.00" fill="#000000"> </text>
<text text-anchor="start" x="772.2546" y="-964" font-family="monospace" font-size="10.00" fill="#000000">stats/reads/nonpareil/{tool}/{sample}_{library}_{read_type_trim}.npo</text>
<text text-anchor="start" x="1124.2546" y="-943.8" font-family="sans" font-size="10.00" fill="#000000"> </text>
<text text-anchor="start" x="1128.2546" y="-943.8" font-family="sans" font-weight="bold" font-size="14.00" fill="#000000">output →</text>
<text text-anchor="start" x="1189.2546" y="-943.8" font-family="sans" font-size="10.00" fill="#000000"> </text>
<text text-anchor="start" x="772.2546" y="-924" font-family="monospace" font-size="10.00" fill="#000000">reports/reads/nonpareil/{tool}/{sample}_{library}_{read_type_trim}.pdf</text>
<text text-anchor="start" x="772.2546" y="-906" font-family="monospace" font-size="10.00" fill="#000000">stats/reads/nonpareil/{tool}/{sample}_{library}_{read_type_trim}.json</text>
<text text-anchor="start" x="772.2546" y="-888" font-family="monospace" font-size="10.00" fill="#000000">stats/reads/nonpareil/{tool}/{sample}_{library}_{read_type_trim}.tsv</text>
<polygon fill="#57d9ad" stroke="#57d9ad" points="766.2546,-998 766.2546,-998 1200.2546,-998 1200.2546,-998 766.2546,-998"/>
<polygon fill="#57d9ad" stroke="#57d9ad" points="766.2546,-958 766.2546,-958 1200.2546,-958 1200.2546,-958 766.2546,-958"/>
<polygon fill="none" stroke="#57d9ad" stroke-width="2" points="765.7546,-879 765.7546,-1027 1198.7546,-1027 1198.7546,-879 765.7546,-879"/>
</g>
<!-- 4&#45;&gt;1 -->
<g id="edge3" class="edge">
<title>4&#45;&gt;1</title>
<path fill="none" stroke="#c0c0c0" stroke-width="2" d="M1005.1858,-877.9267C1016.1377,-827.5219 1021.6314,-761.2213 994.2546,-710 952.6947,-632.2424 879.1558,-572.1886 804.9849,-527.878"/>
<polygon fill="#c0c0c0" stroke="#c0c0c0" stroke-width="2" points="806.3318,-524.6095 795.9386,-522.5522 802.7804,-530.6417 806.3318,-524.6095"/>
</g>
<!-- 5&#45;&gt;4 -->
<g id="edge10" class="edge">
<title>5&#45;&gt;4</title>
<path fill="none" stroke="#c0c0c0" stroke-width="2" d="M910.0564,-1231.8081C925.1296,-1173.5998 945.112,-1096.4337 960.2327,-1038.042"/>
<polygon fill="#c0c0c0" stroke="#c0c0c0" stroke-width="2" points="963.6876,-1038.6618 962.8063,-1028.1037 956.9111,-1036.907 963.6876,-1038.6618"/>
</g>
<!-- 6&#45;&gt;2 -->
<g id="edge8" class="edge">
<title>6&#45;&gt;2</title>
<path fill="none" stroke="#c0c0c0" stroke-width="2" d="M600.5906,-1603.7238C611.7279,-1593.026 621.6154,-1581.1303 629.2546,-1568 685.7375,-1470.9176 648.2546,-1428.3179 648.2546,-1316 648.2546,-1316 648.2546,-1316 648.2546,-1130 648.2546,-1016.7992 639.863,-987.5262 611.2546,-878 609.0027,-869.3787 606.2631,-860.4849 603.2908,-851.7094"/>
<polygon fill="#c0c0c0" stroke="#c0c0c0" stroke-width="2" points="606.589,-850.5377 599.9863,-842.2518 599.9808,-852.8467 606.589,-850.5377"/>
</g>
<!-- 8 -->
<g id="node9" class="node">
<title>8</title>
<text text-anchor="start" x="369.2546" y="-1547.6" font-family="sans" font-weight="bold" font-size="18.00" fill="#000000">vsearch</text>
<text text-anchor="start" x="192.2546" y="-1523.8" font-family="sans" font-size="10.00" fill="#000000"> </text>
<text text-anchor="start" x="196.2546" y="-1523.8" font-family="sans" font-weight="bold" font-size="14.00" fill="#000000">↪ input</text>
<text text-anchor="start" x="249.2546" y="-1523.8" font-family="sans" font-size="10.00" fill="#000000"> </text>
<text text-anchor="start" x="192.2546" y="-1504" font-family="monospace" font-size="10.00" fill="#000000">temp/reads/extend/tadpole/{sample}_{library}_{read_type_trim}.fastq.gz</text>
<text text-anchor="start" x="544.2546" y="-1483.8" font-family="sans" font-size="10.00" fill="#000000"> </text>
<text text-anchor="start" x="548.2546" y="-1483.8" font-family="sans" font-weight="bold" font-size="14.00" fill="#000000">output →</text>
<text text-anchor="start" x="609.2546" y="-1483.8" font-family="sans" font-size="10.00" fill="#000000"> </text>
<text text-anchor="start" x="192.2546" y="-1464" font-family="monospace" font-size="10.00" fill="#000000">stats/reads/derep/{sample}_{library}_{read_type_trim}.log</text>
<text text-anchor="start" x="192.2546" y="-1446" font-family="monospace" font-size="10.00" fill="#000000">temp/reads/derep/{sample}_{library}_{read_type_trim}.fastq.gz</text>
<polygon fill="#5782d9" stroke="#5782d9" points="186.2546,-1538 186.2546,-1538 620.2546,-1538 620.2546,-1538 186.2546,-1538"/>
<polygon fill="#5782d9" stroke="#5782d9" points="186.2546,-1498 186.2546,-1498 620.2546,-1498 620.2546,-1498 186.2546,-1498"/>
<polygon fill="none" stroke="#5782d9" stroke-width="2" points="185.7546,-1437 185.7546,-1567 618.7546,-1567 618.7546,-1437 185.7546,-1437"/>
</g>
<!-- 6&#45;&gt;8 -->
<g id="edge16" class="edge">
<title>6&#45;&gt;8</title>
<path fill="none" stroke="#c0c0c0" stroke-width="2" d="M437.961,-1603.9361C434.9396,-1595.3104 431.8571,-1586.5104 428.832,-1577.8741"/>
<polygon fill="#c0c0c0" stroke="#c0c0c0" stroke-width="2" points="432.0564,-1576.4918 425.4472,-1568.2111 425.4499,-1578.806 432.0564,-1576.4918"/>
</g>
<!-- 7&#45;&gt;6 -->
<g id="edge13" class="edge">
<title>7&#45;&gt;6</title>
<path fill="none" stroke="#c0c0c0" stroke-width="2" d="M404.3171,-1789.6538C408.9511,-1781.0988 413.8079,-1772.1324 418.6661,-1763.1634"/>
<polygon fill="#c0c0c0" stroke="#c0c0c0" stroke-width="2" points="421.8312,-1764.6687 423.5165,-1754.2088 415.6761,-1761.3347 421.8312,-1764.6687"/>
</g>
<!-- 8&#45;&gt;2 -->
<g id="edge9" class="edge">
<title>8&#45;&gt;2</title>
<path fill="none" stroke="#c0c0c0" stroke-width="2" d="M560.415,-1435.8954C572.5026,-1425.5096 583.1352,-1413.6084 591.2546,-1400 645.1138,-1309.7311 606.4475,-998.0159 584.5472,-852.255"/>
<polygon fill="#c0c0c0" stroke="#c0c0c0" stroke-width="2" points="587.9599,-851.4149 583.0008,-842.0523 581.0389,-852.4639 587.9599,-851.4149"/>
</g>
<!-- 8&#45;&gt;5 -->
<g id="edge11" class="edge">
<title>8&#45;&gt;5</title>
<path fill="none" stroke="#c0c0c0" stroke-width="2" d="M574.9685,-1435.8996C604.7626,-1424.4969 636.0992,-1412.5039 666.9649,-1400.6911"/>
<polygon fill="#c0c0c0" stroke="#c0c0c0" stroke-width="2" points="668.4382,-1403.8749 676.5266,-1397.0317 665.9361,-1397.3373 668.4382,-1403.8749"/>
</g>
<!-- 10 -->
<g id="node11" class="node">
<title>10</title>
<text text-anchor="start" x="316.2546" y="-1352.6" font-family="sans" font-weight="bold" font-size="18.00" fill="#000000">seqkit_fx2tab</text>
<text text-anchor="start" x="172.2546" y="-1328.8" font-family="sans" font-size="10.00" fill="#000000"> </text>
<text text-anchor="start" x="176.2546" y="-1328.8" font-family="sans" font-weight="bold" font-size="14.00" fill="#000000">↪ input</text>
<text text-anchor="start" x="229.2546" y="-1328.8" font-family="sans" font-size="10.00" fill="#000000"> </text>
<text text-anchor="start" x="172.2546" y="-1309" font-family="monospace" font-size="10.00" fill="#000000">temp/reads/derep/{sample}_{library}_{read_type_trim}.fastq.gz</text>
<text text-anchor="start" x="506.2546" y="-1288.8" font-family="sans" font-size="10.00" fill="#000000"> </text>
<text text-anchor="start" x="510.2546" y="-1288.8" font-family="sans" font-weight="bold" font-size="14.00" fill="#000000">output →</text>
<text text-anchor="start" x="571.2546" y="-1288.8" font-family="sans" font-size="10.00" fill="#000000"> </text>
<text text-anchor="start" x="172.2546" y="-1269" font-family="monospace" font-size="10.00" fill="#000000">temp/reads/represent/fx2tab/{sample}_{library}_{read_type_trim}.tsv</text>
<polygon fill="#57d9d9" stroke="#57d9d9" points="166.2546,-1343 166.2546,-1343 582.2546,-1343 582.2546,-1343 166.2546,-1343"/>
<polygon fill="#57d9d9" stroke="#57d9d9" points="166.2546,-1303 166.2546,-1303 582.2546,-1303 582.2546,-1303 166.2546,-1303"/>
<polygon fill="none" stroke="#57d9d9" stroke-width="2" points="165.7546,-1260 165.7546,-1372 580.7546,-1372 580.7546,-1260 165.7546,-1260"/>
</g>
<!-- 8&#45;&gt;10 -->
<g id="edge19" class="edge">
<title>8&#45;&gt;10</title>
<path fill="none" stroke="#c0c0c0" stroke-width="2" d="M391.9487,-1435.8996C389.2813,-1418.7915 386.4067,-1400.3545 383.7307,-1383.1912"/>
<polygon fill="#c0c0c0" stroke="#c0c0c0" stroke-width="2" points="387.1799,-1382.5939 382.1811,-1373.2525 380.2635,-1383.6723 387.1799,-1382.5939"/>
</g>
<!-- 9&#45;&gt;2 -->
<g id="edge5" class="edge">
<title>9&#45;&gt;2</title>
<path fill="none" stroke="#c0c0c0" stroke-width="2" d="M518.5924,-1063.9433C531.8369,-1053.6142 543.7022,-1041.7103 553.2546,-1028 588.5986,-977.272 590.7887,-906.0337 585.6154,-852.2364"/>
<polygon fill="#c0c0c0" stroke="#c0c0c0" stroke-width="2" points="589.0711,-851.6347 584.5303,-842.0623 582.1106,-852.3771 589.0711,-851.6347"/>
</g>
<!-- 11 -->
<g id="node12" class="node">
<title>11</title>
<text text-anchor="start" x="229.7546" y="-1007.6" font-family="sans" font-weight="bold" font-size="18.00" fill="#000000">low_complexity</text>
<text text-anchor="start" x="56.2546" y="-983.8" font-family="sans" font-size="10.00" fill="#000000"> </text>
<text text-anchor="start" x="60.2546" y="-983.8" font-family="sans" font-weight="bold" font-size="14.00" fill="#000000">↪ input</text>
<text text-anchor="start" x="113.2546" y="-983.8" font-family="sans" font-size="10.00" fill="#000000"> </text>
<text text-anchor="start" x="56.2546" y="-964" font-family="monospace" font-size="10.00" fill="#000000">temp/reads/represent/grep/{sample}_{library}_{read_type_trim}.fastq.gz</text>
<text text-anchor="start" x="468.2546" y="-943.8" font-family="sans" font-size="10.00" fill="#000000"> </text>
<text text-anchor="start" x="472.2546" y="-943.8" font-family="sans" font-weight="bold" font-size="14.00" fill="#000000">output →</text>
<text text-anchor="start" x="533.2546" y="-943.8" font-family="sans" font-size="10.00" fill="#000000"> </text>
<text text-anchor="start" x="56.2546" y="-924" font-family="monospace" font-size="10.00" fill="#000000">results/reads/low_complexity/{sample}_{library}_{read_type_trim}.fastq.gz</text>
<text text-anchor="start" x="56.2546" y="-906" font-family="monospace" font-size="10.00" fill="#000000">stats/reads/low_complexity/{sample}_{library}_{read_type_trim}.txt</text>
<text text-anchor="start" x="56.2546" y="-888" font-family="monospace" font-size="10.00" fill="#000000">temp/reads/low_complexity/{sample}_{library}_{read_type_trim}.discarded.fastq.gz</text>
<polygon fill="#add957" stroke="#add957" points="50.2546,-998 50.2546,-998 544.2546,-998 544.2546,-998 50.2546,-998"/>
<polygon fill="#add957" stroke="#add957" points="50.2546,-958 50.2546,-958 544.2546,-958 544.2546,-958 50.2546,-958"/>
<polygon fill="none" stroke="#add957" stroke-width="2" points="49.7546,-879 49.7546,-1027 542.7546,-1027 542.7546,-879 49.7546,-879"/>
</g>
<!-- 9&#45;&gt;11 -->
<g id="edge20" class="edge">
<title>9&#45;&gt;11</title>
<path fill="none" stroke="#c0c0c0" stroke-width="2" d="M317.5459,-1063.84C315.9151,-1055.3503 314.2279,-1046.567 312.5499,-1037.8315"/>
<polygon fill="#c0c0c0" stroke="#c0c0c0" stroke-width="2" points="315.9865,-1037.1675 310.6628,-1028.0073 309.1121,-1038.488 315.9865,-1037.1675"/>
</g>
<!-- 10&#45;&gt;9 -->
<g id="edge17" class="edge">
<title>10&#45;&gt;9</title>
<path fill="none" stroke="#c0c0c0" stroke-width="2" d="M360.061,-1258.9298C356.1866,-1242.1708 351.8869,-1223.5722 347.7867,-1205.8364"/>
<polygon fill="#c0c0c0" stroke="#c0c0c0" stroke-width="2" points="351.1958,-1205.0438 345.5333,-1196.0891 344.3757,-1206.6205 351.1958,-1205.0438"/>
</g>
<!-- 11&#45;&gt;0 -->
<g id="edge2" class="edge">
<title>11&#45;&gt;0</title>
<path fill="none" stroke="#c0c0c0" stroke-width="2" d="M175.8392,-877.9535C165.6448,-867.112 156.762,-855.1219 150.2546,-842 124.1899,-789.4414 141.3236,-767.9829 150.2546,-710 181.8379,-504.9505 267.4434,-275.3945 316.1396,-155.7284"/>
<polygon fill="#c0c0c0" stroke="#c0c0c0" stroke-width="2" points="319.4697,-156.8316 320.0129,-146.2507 312.9899,-154.1835 319.4697,-156.8316"/>
</g>
<!-- 11&#45;&gt;2 -->
<g id="edge6" class="edge">
<title>11&#45;&gt;2</title>
<path fill="none" stroke="#c0c0c0" stroke-width="2" d="M413.3035,-877.9361C428.9231,-867.9192 444.9093,-857.6671 460.4364,-847.7095"/>
<polygon fill="#c0c0c0" stroke="#c0c0c0" stroke-width="2" points="462.4819,-850.5557 469.0102,-842.2111 458.703,-844.6633 462.4819,-850.5557"/>
</g>
</g>
</svg>
