<?xml version="1.0" encoding="UTF-8" standalone="no"?>
<!DOCTYPE svg PUBLIC "-//W3C//DTD SVG 1.1//EN"
 "http://www.w3.org/Graphics/SVG/1.1/DTD/svg11.dtd">
<!-- Generated by graphviz version 2.40.1 (0)
 -->
<!-- Title: snakemake_dag Pages: 1 -->
<svg width="1339pt" height="2152pt"
 viewBox="0.00 0.00 1339.00 2152.00" xmlns="http://www.w3.org/2000/svg" xmlns:xlink="http://www.w3.org/1999/xlink">
<g id="graph0" class="graph" transform="scale(1 1) rotate(0) translate(4 2148)">
<title>snakemake_dag</title>
<polygon fill="#ffffff" stroke="transparent" points="-4,4 -4,-2148 1335,-2148 1335,4 -4,4"/>
<!-- 0 -->
<g id="node1" class="node">
<title>0</title>
<text text-anchor="start" x="885.5" y="-143.6" font-family="sans" font-weight="bold" font-size="18.00" fill="#000000">all</text>
<text text-anchor="start" x="700.5" y="-119.8" font-family="sans" font-size="10.00" fill="#000000"> </text>
<text text-anchor="start" x="704.5" y="-119.8" font-family="sans" font-weight="bold" font-size="14.00" fill="#000000">↪ input</text>
<text text-anchor="start" x="757.5" y="-119.8" font-family="sans" font-size="10.00" fill="#000000"> </text>
<text text-anchor="start" x="700.5" y="-100" font-family="monospace" font-size="10.00" fill="#000000">reports/multiqc.html</text>
<text text-anchor="start" x="700.5" y="-82" font-family="monospace" font-size="10.00" fill="#000000">results/reads/low_complexity/HD827sonic_1_lib1_collapsed.fastq.gz</text>
<text text-anchor="start" x="700.5" y="-64" font-family="monospace" font-size="10.00" fill="#000000">results/reads/low_complexity/HD827sonic_2_lib1_collapsed.fastq.gz</text>
<text text-anchor="start" x="700.5" y="-46" font-family="monospace" font-size="10.00" fill="#000000">results/reads/low_complexity/HD827sonic_2_lib2_collapsed.fastq.gz</text>
<text text-anchor="start" x="700.5" y="-28" font-family="monospace" font-size="10.00" fill="#000000">results/reads/low_complexity/HD827sonic_2_lib3_collapsed.fastq.gz</text>
<text text-anchor="start" x="1084.5" y="-10" font-family="sans" font-size="10.00" fill="#000000"> &#160;</text>
<polygon fill="#d95757" stroke="#d95757" points="694.5,-134 694.5,-134 1098.5,-134 1098.5,-134 694.5,-134"/>
<polygon fill="#d95757" stroke="#d95757" points="694.5,-22 694.5,-22 1098.5,-22 1098.5,-22 694.5,-22"/>
<polygon fill="none" stroke="#d95757" stroke-width="2" points="694,-1 694,-163 1097,-163 1097,-1 694,-1"/>
</g>
<!-- 1 -->
<g id="node2" class="node">
<title>1</title>
<text text-anchor="start" x="737.5" y="-725.6" font-family="sans" font-weight="bold" font-size="18.00" fill="#000000">multiqc</text>
<text text-anchor="start" x="553.5" y="-701.8" font-family="sans" font-size="10.00" fill="#000000"> </text>
<text text-anchor="start" x="557.5" y="-701.8" font-family="sans" font-weight="bold" font-size="14.00" fill="#000000">↪ input</text>
<text text-anchor="start" x="610.5" y="-701.8" font-family="sans" font-size="10.00" fill="#000000"> </text>
<text text-anchor="start" x="553.5" y="-682" font-family="monospace" font-size="10.00" fill="#000000">stats/reads/fastqc/derep/HD827sonic_1_lib1_collapsed_fastqc.zip</text>
<text text-anchor="start" x="553.5" y="-664" font-family="monospace" font-size="10.00" fill="#000000">stats/reads/fastqc/derep/HD827sonic_2_lib1_collapsed_fastqc.zip</text>
<text text-anchor="start" x="553.5" y="-646" font-family="monospace" font-size="10.00" fill="#000000">stats/reads/fastqc/derep/HD827sonic_2_lib2_collapsed_fastqc.zip</text>
<text text-anchor="start" x="553.5" y="-628" font-family="monospace" font-size="10.00" fill="#000000">stats/reads/fastqc/derep/HD827sonic_2_lib3_collapsed_fastqc.zip</text>
<text text-anchor="start" x="553.5" y="-610" font-family="monospace" font-size="10.00" fill="#000000">stats/reads/fastqc/extend/tadpole/HD827sonic_1_lib1_collapsed_fastqc.zip</text>
<text text-anchor="start" x="553.5" y="-592" font-family="monospace" font-size="10.00" fill="#000000">stats/reads/fastqc/extend/tadpole/HD827sonic_2_lib1_collapsed_fastqc.zip</text>
<text text-anchor="start" x="553.5" y="-574" font-family="monospace" font-size="10.00" fill="#000000">stats/reads/fastqc/extend/tadpole/HD827sonic_2_lib2_collapsed_fastqc.zip</text>
<text text-anchor="start" x="553.5" y="-556" font-family="monospace" font-size="10.00" fill="#000000">stats/reads/fastqc/extend/tadpole/HD827sonic_2_lib3_collapsed_fastqc.zip</text>
<text text-anchor="start" x="553.5" y="-538" font-family="monospace" font-size="10.00" fill="#000000">stats/reads/fastqc/low_complexity/HD827sonic_1_lib1_collapsed_fastqc.zip</text>
<text text-anchor="start" x="553.5" y="-520" font-family="monospace" font-size="10.00" fill="#000000">stats/reads/fastqc/low_complexity/HD827sonic_2_lib1_collapsed_fastqc.zip</text>
<text text-anchor="start" x="553.5" y="-502" font-family="monospace" font-size="10.00" fill="#000000">stats/reads/fastqc/low_complexity/HD827sonic_2_lib2_collapsed_fastqc.zip</text>
<text text-anchor="start" x="553.5" y="-484" font-family="monospace" font-size="10.00" fill="#000000">stats/reads/fastqc/low_complexity/HD827sonic_2_lib3_collapsed_fastqc.zip</text>
<text text-anchor="start" x="553.5" y="-466" font-family="monospace" font-size="10.00" fill="#000000">stats/reads/fastqc/merge_lanes/HD827sonic_1_lib1_collapsed_fastqc.zip</text>
<text text-anchor="start" x="553.5" y="-448" font-family="monospace" font-size="10.00" fill="#000000">stats/reads/fastqc/merge_lanes/HD827sonic_2_lib1_collapsed_fastqc.zip</text>
<text text-anchor="start" x="553.5" y="-430" font-family="monospace" font-size="10.00" fill="#000000">stats/reads/fastqc/merge_lanes/HD827sonic_2_lib2_collapsed_fastqc.zip</text>
<text text-anchor="start" x="553.5" y="-412" font-family="monospace" font-size="10.00" fill="#000000">stats/reads/fastqc/merge_lanes/HD827sonic_2_lib3_collapsed_fastqc.zip</text>
<text text-anchor="start" x="553.5" y="-394" font-family="monospace" font-size="10.00" fill="#000000">stats/reads/fastqc/represent/grep/HD827sonic_1_lib1_collapsed_fastqc.zip</text>
<text text-anchor="start" x="553.5" y="-376" font-family="monospace" font-size="10.00" fill="#000000">stats/reads/fastqc/represent/grep/HD827sonic_2_lib1_collapsed_fastqc.zip</text>
<text text-anchor="start" x="553.5" y="-358" font-family="monospace" font-size="10.00" fill="#000000">stats/reads/fastqc/represent/grep/HD827sonic_2_lib2_collapsed_fastqc.zip</text>
<text text-anchor="start" x="553.5" y="-340" font-family="monospace" font-size="10.00" fill="#000000">stats/reads/fastqc/represent/grep/HD827sonic_2_lib3_collapsed_fastqc.zip</text>
<text text-anchor="start" x="553.5" y="-322" font-family="monospace" font-size="10.00" fill="#000000">stats/reads/nonpareil/merge_lanes/HD827sonic_1_lib1_collapsed.json</text>
<text text-anchor="start" x="553.5" y="-304" font-family="monospace" font-size="10.00" fill="#000000">stats/reads/nonpareil/merge_lanes/HD827sonic_2_lib1_collapsed.json</text>
<text text-anchor="start" x="553.5" y="-286" font-family="monospace" font-size="10.00" fill="#000000">stats/reads/nonpareil/merge_lanes/HD827sonic_2_lib2_collapsed.json</text>
<text text-anchor="start" x="553.5" y="-268" font-family="monospace" font-size="10.00" fill="#000000">stats/reads/nonpareil/merge_lanes/HD827sonic_2_lib3_collapsed.json</text>
<text text-anchor="start" x="917.5" y="-247.8" font-family="sans" font-size="10.00" fill="#000000"> </text>
<text text-anchor="start" x="921.5" y="-247.8" font-family="sans" font-weight="bold" font-size="14.00" fill="#000000">output →</text>
<text text-anchor="start" x="982.5" y="-247.8" font-family="sans" font-size="10.00" fill="#000000"> </text>
<text text-anchor="start" x="553.5" y="-228" font-family="monospace" font-size="10.00" fill="#000000">reports/multiqc.html</text>
<text text-anchor="start" x="553.5" y="-210" font-family="monospace" font-size="10.00" fill="#000000">reports/multiqc_data.zip</text>
<polygon fill="#57d957" stroke="#57d957" points="547.5,-716 547.5,-716 993.5,-716 993.5,-716 547.5,-716"/>
<polygon fill="#57d957" stroke="#57d957" points="547.5,-262 547.5,-262 993.5,-262 993.5,-262 547.5,-262"/>
<polygon fill="none" stroke="#57d957" stroke-width="2" points="547,-201 547,-745 992,-745 992,-201 547,-201"/>
</g>
<!-- 1&#45;&gt;0 -->
<g id="edge2" class="edge">
<title>1&#45;&gt;0</title>
<path fill="none" stroke="#c0c0c0" stroke-width="2" d="M857.525,-199.8431C860.4195,-190.8609 863.2299,-182.1398 865.9254,-173.7753"/>
<polygon fill="#c0c0c0" stroke="#c0c0c0" stroke-width="2" points="869.299,-174.7171 869.035,-164.1256 862.6364,-172.57 869.299,-174.7171"/>
</g>
<!-- 2 -->
<g id="node3" class="node">
<title>2</title>
<text text-anchor="start" x="386.5" y="-893.6" font-family="sans" font-weight="bold" font-size="18.00" fill="#000000">fastqc</text>
<text text-anchor="start" x="7.5" y="-869.8" font-family="sans" font-size="10.00" fill="#000000"> </text>
<text text-anchor="start" x="11.5" y="-869.8" font-family="sans" font-weight="bold" font-size="14.00" fill="#000000">↪ input</text>
<text text-anchor="start" x="64.5" y="-869.8" font-family="sans" font-size="10.00" fill="#000000"> </text>
<text text-anchor="start" x="7.5" y="-850" font-family="monospace" font-size="10.00" fill="#000000">&lt;input function&gt;</text>
<text text-anchor="start" x="749.5" y="-829.8" font-family="sans" font-size="10.00" fill="#000000"> </text>
<text text-anchor="start" x="753.5" y="-829.8" font-family="sans" font-weight="bold" font-size="14.00" fill="#000000">output →</text>
<text text-anchor="start" x="814.5" y="-829.8" font-family="sans" font-size="10.00" fill="#000000"> </text>
<text text-anchor="start" x="7.5" y="-810" font-family="monospace" font-size="10.00" fill="#000000">stats/reads/fastqc/{tool,merge_lanes|extend/tadpole|derep|represent/grep|low_complexity}/{sample}_{library}_{read_type_trim}.html</text>
<text text-anchor="start" x="7.5" y="-792" font-family="monospace" font-size="10.00" fill="#000000">stats/reads/fastqc/{tool,merge_lanes|extend/tadpole|derep|represent/grep|low_complexity}/{sample}_{library}_{read_type_trim}_fastqc.zip</text>
<polygon fill="#d9ad57" stroke="#d9ad57" points="1.5,-884 1.5,-884 825.5,-884 825.5,-884 1.5,-884"/>
<polygon fill="#d9ad57" stroke="#d9ad57" points="1.5,-844 1.5,-844 825.5,-844 825.5,-844 1.5,-844"/>
<polygon fill="none" stroke="#d9ad57" stroke-width="2" points="1,-783 1,-913 824,-913 824,-783 1,-783"/>
</g>
<!-- 2&#45;&gt;1 -->
<g id="edge3" class="edge">
<title>2&#45;&gt;1</title>
<path fill="none" stroke="#c0c0c0" stroke-width="2" d="M475.5027,-781.8207C494.1874,-762.1939 515.831,-739.459 538.7336,-715.4017"/>
<polygon fill="#c0c0c0" stroke="#c0c0c0" stroke-width="2" points="541.5196,-717.5512 545.8798,-707.8952 536.4497,-712.7247 541.5196,-717.5512"/>
</g>
<!-- 3 -->
<g id="node4" class="node">
<title>3</title>
<text text-anchor="start" x="576.5" y="-2123.6" font-family="sans" font-weight="bold" font-size="18.00" fill="#000000">merge_lanes</text>
<text text-anchor="start" x="429.5" y="-2099.8" font-family="sans" font-size="10.00" fill="#000000"> </text>
<text text-anchor="start" x="433.5" y="-2099.8" font-family="sans" font-weight="bold" font-size="14.00" fill="#000000">↪ input</text>
<text text-anchor="start" x="486.5" y="-2099.8" font-family="sans" font-size="10.00" fill="#000000"> </text>
<text text-anchor="start" x="429.5" y="-2080" font-family="monospace" font-size="10.00" fill="#000000">&lt;input function&gt;</text>
<text text-anchor="start" x="763.5" y="-2059.8" font-family="sans" font-size="10.00" fill="#000000"> </text>
<text text-anchor="start" x="767.5" y="-2059.8" font-family="sans" font-weight="bold" font-size="14.00" fill="#000000">output →</text>
<text text-anchor="start" x="828.5" y="-2059.8" font-family="sans" font-size="10.00" fill="#000000"> </text>
<text text-anchor="start" x="429.5" y="-2040" font-family="monospace" font-size="10.00" fill="#000000">temp/reads/merge_lanes/{sample}_{library}_{read_type_trim}.fastq.gz</text>
<polygon fill="#82d957" stroke="#82d957" points="423.5,-2114 423.5,-2114 839.5,-2114 839.5,-2114 423.5,-2114"/>
<polygon fill="#82d957" stroke="#82d957" points="423.5,-2074 423.5,-2074 839.5,-2074 839.5,-2074 423.5,-2074"/>
<polygon fill="none" stroke="#82d957" stroke-width="2" points="423,-2031 423,-2143 838,-2143 838,-2031 423,-2031"/>
</g>
<!-- 3&#45;&gt;2 -->
<g id="edge6" class="edge">
<title>3&#45;&gt;2</title>
<path fill="none" stroke="#c0c0c0" stroke-width="2" d="M422.9408,-2029.8869C407.1764,-2019.8043 392.6914,-2007.9459 380.5,-1994 296.8336,-1898.2925 317.5,-1842.122 317.5,-1715 317.5,-1715 317.5,-1715 317.5,-1202 317.5,-1088.6667 320.0093,-1057.298 356.5,-950 359.5172,-941.1281 363.2796,-932.1225 367.4181,-923.3228"/>
<polygon fill="#c0c0c0" stroke="#c0c0c0" stroke-width="2" points="370.6097,-924.7632 371.8516,-914.2413 364.3193,-921.6922 370.6097,-924.7632"/>
</g>
<!-- 5 -->
<g id="node6" class="node">
<title>5</title>
<text text-anchor="start" x="1045.5" y="-1973.6" font-family="sans" font-weight="bold" font-size="18.00" fill="#000000">nonpareil_infer</text>
<text text-anchor="start" x="906.5" y="-1949.8" font-family="sans" font-size="10.00" fill="#000000"> </text>
<text text-anchor="start" x="910.5" y="-1949.8" font-family="sans" font-weight="bold" font-size="14.00" fill="#000000">↪ input</text>
<text text-anchor="start" x="963.5" y="-1949.8" font-family="sans" font-size="10.00" fill="#000000"> </text>
<text text-anchor="start" x="906.5" y="-1930" font-family="monospace" font-size="10.00" fill="#000000">&lt;input function&gt;</text>
<text text-anchor="start" x="1246.5" y="-1909.8" font-family="sans" font-size="10.00" fill="#000000"> </text>
<text text-anchor="start" x="1250.5" y="-1909.8" font-family="sans" font-weight="bold" font-size="14.00" fill="#000000">output →</text>
<text text-anchor="start" x="1311.5" y="-1909.8" font-family="sans" font-size="10.00" fill="#000000"> </text>
<text text-anchor="start" x="906.5" y="-1890" font-family="monospace" font-size="10.00" fill="#000000">stats/reads/nonpareil/{tool}/{sample}_{library}_{read_type_trim}.log</text>
<text text-anchor="start" x="906.5" y="-1872" font-family="monospace" font-size="10.00" fill="#000000">stats/reads/nonpareil/{tool}/{sample}_{library}_{read_type_trim}.npa</text>
<text text-anchor="start" x="906.5" y="-1854" font-family="monospace" font-size="10.00" fill="#000000">stats/reads/nonpareil/{tool}/{sample}_{library}_{read_type_trim}.npc</text>
<text text-anchor="start" x="906.5" y="-1836" font-family="monospace" font-size="10.00" fill="#000000">stats/reads/nonpareil/{tool}/{sample}_{library}_{read_type_trim}.npo</text>
<polygon fill="#57d982" stroke="#57d982" points="900.5,-1964 900.5,-1964 1322.5,-1964 1322.5,-1964 900.5,-1964"/>
<polygon fill="#57d982" stroke="#57d982" points="900.5,-1924 900.5,-1924 1322.5,-1924 1322.5,-1924 900.5,-1924"/>
<polygon fill="none" stroke="#57d982" stroke-width="2" points="900,-1827 900,-1993 1321,-1993 1321,-1827 900,-1827"/>
</g>
<!-- 3&#45;&gt;5 -->
<g id="edge11" class="edge">
<title>3&#45;&gt;5</title>
<path fill="none" stroke="#c0c0c0" stroke-width="2" d="M785.3482,-2029.8997C818.5472,-2017.6576 854.2439,-2004.4944 889.3966,-1991.5319"/>
<polygon fill="#c0c0c0" stroke="#c0c0c0" stroke-width="2" points="890.6338,-1994.8061 898.8053,-1988.0624 888.2119,-1988.2384 890.6338,-1994.8061"/>
</g>
<!-- 6 -->
<g id="node7" class="node">
<title>6</title>
<text text-anchor="start" x="517" y="-1769.6" font-family="sans" font-weight="bold" font-size="18.00" fill="#000000">extend_tadpole</text>
<text text-anchor="start" x="372.5" y="-1745.8" font-family="sans" font-size="10.00" fill="#000000"> </text>
<text text-anchor="start" x="376.5" y="-1745.8" font-family="sans" font-weight="bold" font-size="14.00" fill="#000000">↪ input</text>
<text text-anchor="start" x="429.5" y="-1745.8" font-family="sans" font-size="10.00" fill="#000000"> </text>
<text text-anchor="start" x="372.5" y="-1726" font-family="monospace" font-size="10.00" fill="#000000">logs/reads/extend/loglog/{sample}_{library}_{read_type_trim}.log</text>
<text text-anchor="start" x="372.5" y="-1708" font-family="monospace" font-size="10.00" fill="#000000">temp/reads/extend/loglog/{sample}_{library}_{read_type_trim}.flag</text>
<text text-anchor="start" x="372.5" y="-1690" font-family="monospace" font-size="10.00" fill="#000000">temp/reads/merge_lanes/{sample}_{library}_{read_type_trim}.fastq.gz</text>
<text text-anchor="start" x="724.5" y="-1669.8" font-family="sans" font-size="10.00" fill="#000000"> </text>
<text text-anchor="start" x="728.5" y="-1669.8" font-family="sans" font-weight="bold" font-size="14.00" fill="#000000">output →</text>
<text text-anchor="start" x="789.5" y="-1669.8" font-family="sans" font-size="10.00" fill="#000000"> </text>
<text text-anchor="start" x="372.5" y="-1650" font-family="monospace" font-size="10.00" fill="#000000">temp/reads/extend/tadpole/{sample}_{library}_{read_type_trim}.fastq.gz</text>
<polygon fill="#d98257" stroke="#d98257" points="366.5,-1760 366.5,-1760 800.5,-1760 800.5,-1760 366.5,-1760"/>
<polygon fill="#d98257" stroke="#d98257" points="366.5,-1684 366.5,-1684 800.5,-1684 800.5,-1684 366.5,-1684"/>
<polygon fill="none" stroke="#d98257" stroke-width="2" points="366,-1641 366,-1789 799,-1789 799,-1641 366,-1641"/>
</g>
<!-- 3&#45;&gt;6 -->
<g id="edge13" class="edge">
<title>3&#45;&gt;6</title>
<path fill="none" stroke="#c0c0c0" stroke-width="2" d="M446.6688,-2029.806C433.4205,-2019.7375 421.6853,-2007.9047 412.5,-1994 371.3449,-1931.6994 376.9536,-1891.6625 412.5,-1826 418.0159,-1815.8108 424.9182,-1806.4081 432.7598,-1797.758"/>
<polygon fill="#c0c0c0" stroke="#c0c0c0" stroke-width="2" points="435.4747,-1799.9842 439.8815,-1790.3493 430.4282,-1795.1331 435.4747,-1799.9842"/>
</g>
<!-- 7 -->
<g id="node8" class="node">
<title>7</title>
<text text-anchor="start" x="603" y="-1946.6" font-family="sans" font-weight="bold" font-size="18.00" fill="#000000">loglog</text>
<text text-anchor="start" x="429.5" y="-1922.8" font-family="sans" font-size="10.00" fill="#000000"> </text>
<text text-anchor="start" x="433.5" y="-1922.8" font-family="sans" font-weight="bold" font-size="14.00" fill="#000000">↪ input</text>
<text text-anchor="start" x="486.5" y="-1922.8" font-family="sans" font-size="10.00" fill="#000000"> </text>
<text text-anchor="start" x="429.5" y="-1903" font-family="monospace" font-size="10.00" fill="#000000">temp/reads/merge_lanes/{sample}_{library}_{read_type_trim}.fastq.gz</text>
<text text-anchor="start" x="763.5" y="-1882.8" font-family="sans" font-size="10.00" fill="#000000"> </text>
<text text-anchor="start" x="767.5" y="-1882.8" font-family="sans" font-weight="bold" font-size="14.00" fill="#000000">output →</text>
<text text-anchor="start" x="828.5" y="-1882.8" font-family="sans" font-size="10.00" fill="#000000"> </text>
<text text-anchor="start" x="429.5" y="-1863" font-family="monospace" font-size="10.00" fill="#000000">temp/reads/extend/loglog/{sample}_{library}_{read_type_trim}.flag</text>
<polygon fill="#d9d957" stroke="#d9d957" points="423.5,-1937 423.5,-1937 839.5,-1937 839.5,-1937 423.5,-1937"/>
<polygon fill="#d9d957" stroke="#d9d957" points="423.5,-1897 423.5,-1897 839.5,-1897 839.5,-1897 423.5,-1897"/>
<polygon fill="none" stroke="#d9d957" stroke-width="2" points="423,-1854 423,-1966 838,-1966 838,-1854 423,-1854"/>
</g>
<!-- 3&#45;&gt;7 -->
<g id="edge14" class="edge">
<title>3&#45;&gt;7</title>
<path fill="none" stroke="#c0c0c0" stroke-width="2" d="M630.5,-2029.5332C630.5,-2012.8255 630.5,-1994.4283 630.5,-1977.1799"/>
<polygon fill="#c0c0c0" stroke="#c0c0c0" stroke-width="2" points="634.0001,-1977.1785 630.5,-1967.1785 627.0001,-1977.1785 634.0001,-1977.1785"/>
</g>
<!-- 9 -->
<g id="node10" class="node">
<title>9</title>
<text text-anchor="start" x="623.5" y="-1247.6" font-family="sans" font-weight="bold" font-size="18.00" fill="#000000">seqkit_grep</text>
<text text-anchor="start" x="463.5" y="-1223.8" font-family="sans" font-size="10.00" fill="#000000"> </text>
<text text-anchor="start" x="467.5" y="-1223.8" font-family="sans" font-weight="bold" font-size="14.00" fill="#000000">↪ input</text>
<text text-anchor="start" x="520.5" y="-1223.8" font-family="sans" font-size="10.00" fill="#000000"> </text>
<text text-anchor="start" x="463.5" y="-1204" font-family="monospace" font-size="10.00" fill="#000000">temp/reads/merge_lanes/{sample}_{library}_{read_type_trim}.fastq.gz</text>
<text text-anchor="start" x="463.5" y="-1186" font-family="monospace" font-size="10.00" fill="#000000">temp/reads/represent/fx2tab/{sample}_{library}_{read_type_trim}.tsv</text>
<text text-anchor="start" x="815.5" y="-1165.8" font-family="sans" font-size="10.00" fill="#000000"> </text>
<text text-anchor="start" x="819.5" y="-1165.8" font-family="sans" font-weight="bold" font-size="14.00" fill="#000000">output →</text>
<text text-anchor="start" x="880.5" y="-1165.8" font-family="sans" font-size="10.00" fill="#000000"> </text>
<text text-anchor="start" x="463.5" y="-1146" font-family="monospace" font-size="10.00" fill="#000000">temp/reads/represent/grep/{sample}_{library}_{read_type_trim}.fastq.gz</text>
<polygon fill="#57add9" stroke="#57add9" points="457.5,-1238 457.5,-1238 891.5,-1238 891.5,-1238 457.5,-1238"/>
<polygon fill="#57add9" stroke="#57add9" points="457.5,-1180 457.5,-1180 891.5,-1180 891.5,-1180 457.5,-1180"/>
<polygon fill="none" stroke="#57add9" stroke-width="2" points="457,-1137 457,-1267 890,-1267 890,-1137 457,-1137"/>
</g>
<!-- 3&#45;&gt;9 -->
<g id="edge16" class="edge">
<title>3&#45;&gt;9</title>
<path fill="none" stroke="#c0c0c0" stroke-width="2" d="M812.3385,-2029.8574C826.196,-2019.7707 838.609,-2007.9199 848.5,-1994 920.4906,-1892.6853 867.5,-1839.2872 867.5,-1715 867.5,-1715 867.5,-1715 867.5,-1529 867.5,-1428.6441 902.1186,-1388.8313 848.5,-1304 841.7544,-1293.3277 833.459,-1283.6426 824.181,-1274.8779"/>
<polygon fill="#c0c0c0" stroke="#c0c0c0" stroke-width="2" points="826.3276,-1272.1021 816.5405,-1268.0447 821.6612,-1277.3199 826.3276,-1272.1021"/>
</g>
<!-- 4 -->
<g id="node5" class="node">
<title>4</title>
<text text-anchor="start" x="1051" y="-1583.6" font-family="sans" font-weight="bold" font-size="18.00" fill="#000000">nonpareil_plot</text>
<text text-anchor="start" x="903.5" y="-1559.8" font-family="sans" font-size="10.00" fill="#000000"> </text>
<text text-anchor="start" x="907.5" y="-1559.8" font-family="sans" font-weight="bold" font-size="14.00" fill="#000000">↪ input</text>
<text text-anchor="start" x="960.5" y="-1559.8" font-family="sans" font-size="10.00" fill="#000000"> </text>
<text text-anchor="start" x="903.5" y="-1540" font-family="monospace" font-size="10.00" fill="#000000">stats/reads/nonpareil/{tool}/{sample}_{library}_{read_type_trim}.npo</text>
<text text-anchor="start" x="1255.5" y="-1519.8" font-family="sans" font-size="10.00" fill="#000000"> </text>
<text text-anchor="start" x="1259.5" y="-1519.8" font-family="sans" font-weight="bold" font-size="14.00" fill="#000000">output →</text>
<text text-anchor="start" x="1320.5" y="-1519.8" font-family="sans" font-size="10.00" fill="#000000"> </text>
<text text-anchor="start" x="903.5" y="-1500" font-family="monospace" font-size="10.00" fill="#000000">reports/reads/nonpareil/{tool}/{sample}_{library}_{read_type_trim}.pdf</text>
<text text-anchor="start" x="903.5" y="-1482" font-family="monospace" font-size="10.00" fill="#000000">stats/reads/nonpareil/{tool}/{sample}_{library}_{read_type_trim}.json</text>
<text text-anchor="start" x="903.5" y="-1464" font-family="monospace" font-size="10.00" fill="#000000">stats/reads/nonpareil/{tool}/{sample}_{library}_{read_type_trim}.tsv</text>
<polygon fill="#57d9ad" stroke="#57d9ad" points="897.5,-1574 897.5,-1574 1331.5,-1574 1331.5,-1574 897.5,-1574"/>
<polygon fill="#57d9ad" stroke="#57d9ad" points="897.5,-1534 897.5,-1534 1331.5,-1534 1331.5,-1534 897.5,-1534"/>
<polygon fill="none" stroke="#57d9ad" stroke-width="2" points="897,-1455 897,-1603 1330,-1603 1330,-1455 897,-1455"/>
</g>
<!-- 4&#45;&gt;1 -->
<g id="edge4" class="edge">
<title>4&#45;&gt;1</title>
<path fill="none" stroke="#c0c0c0" stroke-width="2" d="M1064.7229,-1453.7279C1027.8349,-1389.5116 983.5,-1293.3335 983.5,-1202 983.5,-1202 983.5,-1202 983.5,-1025 983.5,-933.9802 957.8928,-839.879 924.3943,-755.7197"/>
<polygon fill="#c0c0c0" stroke="#c0c0c0" stroke-width="2" points="927.5808,-754.2628 920.5947,-746.2976 921.0888,-756.8809 927.5808,-754.2628"/>
</g>
<!-- 5&#45;&gt;4 -->
<g id="edge10" class="edge">
<title>5&#45;&gt;4</title>
<path fill="none" stroke="#c0c0c0" stroke-width="2" d="M1111.1621,-1825.9163C1111.6565,-1763.1218 1112.3298,-1677.6137 1112.8269,-1614.4847"/>
<polygon fill="#c0c0c0" stroke="#c0c0c0" stroke-width="2" points="1116.3293,-1614.1847 1112.9082,-1604.1574 1109.3295,-1614.1295 1116.3293,-1614.1847"/>
</g>
<!-- 6&#45;&gt;2 -->
<g id="edge7" class="edge">
<title>6&#45;&gt;2</title>
<path fill="none" stroke="#c0c0c0" stroke-width="2" d="M406.3488,-1639.739C394.1428,-1629.2233 383.239,-1617.3587 374.5,-1604 315.1953,-1513.3454 355.5,-1469.3296 355.5,-1361 355.5,-1361 355.5,-1361 355.5,-1202 355.5,-1089.2091 364.3502,-1060.7902 385.5,-950 387.1222,-941.5024 389.0647,-932.6687 391.1542,-923.9122"/>
<polygon fill="#c0c0c0" stroke="#c0c0c0" stroke-width="2" points="394.5827,-924.6266 393.5666,-914.0806 387.7844,-922.9585 394.5827,-924.6266"/>
</g>
<!-- 8 -->
<g id="node9" class="node">
<title>8</title>
<text text-anchor="start" x="568.5" y="-1574.6" font-family="sans" font-weight="bold" font-size="18.00" fill="#000000">vsearch</text>
<text text-anchor="start" x="391.5" y="-1550.8" font-family="sans" font-size="10.00" fill="#000000"> </text>
<text text-anchor="start" x="395.5" y="-1550.8" font-family="sans" font-weight="bold" font-size="14.00" fill="#000000">↪ input</text>
<text text-anchor="start" x="448.5" y="-1550.8" font-family="sans" font-size="10.00" fill="#000000"> </text>
<text text-anchor="start" x="391.5" y="-1531" font-family="monospace" font-size="10.00" fill="#000000">temp/reads/extend/tadpole/{sample}_{library}_{read_type_trim}.fastq.gz</text>
<text text-anchor="start" x="743.5" y="-1510.8" font-family="sans" font-size="10.00" fill="#000000"> </text>
<text text-anchor="start" x="747.5" y="-1510.8" font-family="sans" font-weight="bold" font-size="14.00" fill="#000000">output →</text>
<text text-anchor="start" x="808.5" y="-1510.8" font-family="sans" font-size="10.00" fill="#000000"> </text>
<text text-anchor="start" x="391.5" y="-1491" font-family="monospace" font-size="10.00" fill="#000000">stats/reads/derep/{sample}_{library}_{read_type_trim}.log</text>
<text text-anchor="start" x="391.5" y="-1473" font-family="monospace" font-size="10.00" fill="#000000">temp/reads/derep/{sample}_{library}_{read_type_trim}.fastq.gz</text>
<polygon fill="#5782d9" stroke="#5782d9" points="385.5,-1565 385.5,-1565 819.5,-1565 819.5,-1565 385.5,-1565"/>
<polygon fill="#5782d9" stroke="#5782d9" points="385.5,-1525 385.5,-1525 819.5,-1525 819.5,-1525 385.5,-1525"/>
<polygon fill="none" stroke="#5782d9" stroke-width="2" points="385,-1464 385,-1594 818,-1594 818,-1464 385,-1464"/>
</g>
<!-- 6&#45;&gt;8 -->
<g id="edge15" class="edge">
<title>6&#45;&gt;8</title>
<path fill="none" stroke="#c0c0c0" stroke-width="2" d="M590.1733,-1639.8828C591.3442,-1628.4196 592.5537,-1616.5797 593.7268,-1605.0957"/>
<polygon fill="#c0c0c0" stroke="#c0c0c0" stroke-width="2" points="597.212,-1605.4176 594.7465,-1595.1137 590.2483,-1604.7062 597.212,-1605.4176"/>
</g>
<!-- 7&#45;&gt;6 -->
<g id="edge12" class="edge">
<title>7&#45;&gt;6</title>
<path fill="none" stroke="#c0c0c0" stroke-width="2" d="M616.4227,-1852.8111C612.3615,-1836.3123 607.8401,-1817.9442 603.4564,-1800.1355"/>
<polygon fill="#c0c0c0" stroke="#c0c0c0" stroke-width="2" points="606.8278,-1799.1883 601.039,-1790.3147 600.0307,-1800.8615 606.8278,-1799.1883"/>
</g>
<!-- 8&#45;&gt;2 -->
<g id="edge9" class="edge">
<title>8&#45;&gt;2</title>
<path fill="none" stroke="#c0c0c0" stroke-width="2" d="M451.9001,-1462.9584C436.2272,-1450.2335 422.4245,-1435.3383 412.5,-1418 365.6359,-1336.128 388.5766,-1060.0471 403.3406,-924.4459"/>
<polygon fill="#c0c0c0" stroke="#c0c0c0" stroke-width="2" points="406.8598,-924.4631 404.4765,-914.1398 399.902,-923.6962 406.8598,-924.4631"/>
</g>
<!-- 10 -->
<g id="node11" class="node">
<title>10</title>
<text text-anchor="start" x="573.5" y="-1397.6" font-family="sans" font-weight="bold" font-size="18.00" fill="#000000">seqkit_fx2tab</text>
<text text-anchor="start" x="429.5" y="-1373.8" font-family="sans" font-size="10.00" fill="#000000"> </text>
<text text-anchor="start" x="433.5" y="-1373.8" font-family="sans" font-weight="bold" font-size="14.00" fill="#000000">↪ input</text>
<text text-anchor="start" x="486.5" y="-1373.8" font-family="sans" font-size="10.00" fill="#000000"> </text>
<text text-anchor="start" x="429.5" y="-1354" font-family="monospace" font-size="10.00" fill="#000000">temp/reads/derep/{sample}_{library}_{read_type_trim}.fastq.gz</text>
<text text-anchor="start" x="763.5" y="-1333.8" font-family="sans" font-size="10.00" fill="#000000"> </text>
<text text-anchor="start" x="767.5" y="-1333.8" font-family="sans" font-weight="bold" font-size="14.00" fill="#000000">output →</text>
<text text-anchor="start" x="828.5" y="-1333.8" font-family="sans" font-size="10.00" fill="#000000"> </text>
<text text-anchor="start" x="429.5" y="-1314" font-family="monospace" font-size="10.00" fill="#000000">temp/reads/represent/fx2tab/{sample}_{library}_{read_type_trim}.tsv</text>
<polygon fill="#57d9d9" stroke="#57d9d9" points="423.5,-1388 423.5,-1388 839.5,-1388 839.5,-1388 423.5,-1388"/>
<polygon fill="#57d9d9" stroke="#57d9d9" points="423.5,-1348 423.5,-1348 839.5,-1348 839.5,-1348 423.5,-1348"/>
<polygon fill="none" stroke="#57d9d9" stroke-width="2" points="423,-1305 423,-1417 838,-1417 838,-1305 423,-1305"/>
</g>
<!-- 8&#45;&gt;10 -->
<g id="edge18" class="edge">
<title>8&#45;&gt;10</title>
<path fill="none" stroke="#c0c0c0" stroke-width="2" d="M612.9616,-1462.602C614.9208,-1451.252 616.9575,-1439.4532 618.9198,-1428.0855"/>
<polygon fill="#c0c0c0" stroke="#c0c0c0" stroke-width="2" points="622.3691,-1428.6785 620.6212,-1418.2288 615.4711,-1427.4877 622.3691,-1428.6785"/>
</g>
<!-- 9&#45;&gt;2 -->
<g id="edge5" class="edge">
<title>9&#45;&gt;2</title>
<path fill="none" stroke="#c0c0c0" stroke-width="2" d="M487.2771,-1135.9325C473.3939,-1125.589 460.812,-1113.6855 450.5,-1100 430.1231,-1072.9569 420.5285,-988.1667 416.1071,-924.3504"/>
<polygon fill="#c0c0c0" stroke="#c0c0c0" stroke-width="2" points="419.5948,-924.047 415.4411,-914.3004 412.6101,-924.51 419.5948,-924.047"/>
</g>
<!-- 11 -->
<g id="node12" class="node">
<title>11</title>
<text text-anchor="start" x="641" y="-1079.6" font-family="sans" font-weight="bold" font-size="18.00" fill="#000000">low_complexity</text>
<text text-anchor="start" x="467.5" y="-1055.8" font-family="sans" font-size="10.00" fill="#000000"> </text>
<text text-anchor="start" x="471.5" y="-1055.8" font-family="sans" font-weight="bold" font-size="14.00" fill="#000000">↪ input</text>
<text text-anchor="start" x="524.5" y="-1055.8" font-family="sans" font-size="10.00" fill="#000000"> </text>
<text text-anchor="start" x="467.5" y="-1036" font-family="monospace" font-size="10.00" fill="#000000">temp/reads/represent/grep/{sample}_{library}_{read_type_trim}.fastq.gz</text>
<text text-anchor="start" x="879.5" y="-1015.8" font-family="sans" font-size="10.00" fill="#000000"> </text>
<text text-anchor="start" x="883.5" y="-1015.8" font-family="sans" font-weight="bold" font-size="14.00" fill="#000000">output →</text>
<text text-anchor="start" x="944.5" y="-1015.8" font-family="sans" font-size="10.00" fill="#000000"> </text>
<text text-anchor="start" x="467.5" y="-996" font-family="monospace" font-size="10.00" fill="#000000">results/reads/low_complexity/{sample}_{library}_{read_type_trim}.fastq.gz</text>
<text text-anchor="start" x="467.5" y="-978" font-family="monospace" font-size="10.00" fill="#000000">stats/reads/low_complexity/{sample}_{library}_{read_type_trim}.txt</text>
<text text-anchor="start" x="467.5" y="-960" font-family="monospace" font-size="10.00" fill="#000000">temp/reads/low_complexity/{sample}_{library}_{read_type_trim}.discarded.fastq.gz</text>
<polygon fill="#add957" stroke="#add957" points="461.5,-1070 461.5,-1070 955.5,-1070 955.5,-1070 461.5,-1070"/>
<polygon fill="#add957" stroke="#add957" points="461.5,-1030 461.5,-1030 955.5,-1030 955.5,-1030 461.5,-1030"/>
<polygon fill="none" stroke="#add957" stroke-width="2" points="461,-951 461,-1099 954,-1099 954,-951 461,-951"/>
</g>
<!-- 9&#45;&gt;11 -->
<g id="edge19" class="edge">
<title>9&#45;&gt;11</title>
<path fill="none" stroke="#c0c0c0" stroke-width="2" d="M686.2087,-1135.84C687.8395,-1127.3503 689.5267,-1118.567 691.2047,-1109.8315"/>
<polygon fill="#c0c0c0" stroke="#c0c0c0" stroke-width="2" points="694.6425,-1110.488 693.0918,-1100.0073 687.7682,-1109.1675 694.6425,-1110.488"/>
</g>
<!-- 10&#45;&gt;9 -->
<g id="edge17" class="edge">
<title>10&#45;&gt;9</title>
<path fill="none" stroke="#c0c0c0" stroke-width="2" d="M646.024,-1303.5974C648.2787,-1295.2601 650.6287,-1286.5707 652.9635,-1277.9375"/>
<polygon fill="#c0c0c0" stroke="#c0c0c0" stroke-width="2" points="656.3551,-1278.8028 655.5872,-1268.2358 649.5978,-1276.9753 656.3551,-1278.8028"/>
</g>
<!-- 11&#45;&gt;0 -->
<g id="edge1" class="edge">
<title>11&#45;&gt;0</title>
<path fill="none" stroke="#c0c0c0" stroke-width="2" d="M826.8171,-949.7324C892.4864,-900.7449 967.5657,-830.3389 1002.5,-746 1095.3645,-521.8052 1089.8614,-426.3959 1002.5,-200 998.8786,-190.6152 994.1261,-181.515 988.6369,-172.808"/>
<polygon fill="#c0c0c0" stroke="#c0c0c0" stroke-width="2" points="991.3789,-170.6115 982.9169,-164.2361 985.5563,-174.4969 991.3789,-170.6115"/>
</g>
<!-- 11&#45;&gt;2 -->
<g id="edge8" class="edge">
<title>11&#45;&gt;2</title>
<path fill="none" stroke="#c0c0c0" stroke-width="2" d="M582.3934,-949.9361C565.544,-939.8264 548.2954,-929.4772 531.5549,-919.433"/>
<polygon fill="#c0c0c0" stroke="#c0c0c0" stroke-width="2" points="533.2276,-916.3549 522.8519,-914.2111 529.6261,-922.3574 533.2276,-916.3549"/>
</g>
</g>
</svg>
