<?xml version="1.0" encoding="UTF-8" standalone="no"?>
<!DOCTYPE svg PUBLIC "-//W3C//DTD SVG 1.1//EN"
 "http://www.w3.org/Graphics/SVG/1.1/DTD/svg11.dtd">
<!-- Generated by graphviz version 2.40.1 (0)
 -->
<!-- Title: snakemake_dag Pages: 1 -->
<svg width="1339pt" height="2026pt"
 viewBox="0.00 0.00 1339.00 2026.00" xmlns="http://www.w3.org/2000/svg" xmlns:xlink="http://www.w3.org/1999/xlink">
<g id="graph0" class="graph" transform="scale(1 1) rotate(0) translate(4 2022)">
<title>snakemake_dag</title>
<polygon fill="#ffffff" stroke="transparent" points="-4,4 -4,-2022 1335,-2022 1335,4 -4,4"/>
<!-- 0 -->
<g id="node1" class="node">
<title>0</title>
<text text-anchor="start" x="885.5" y="-125.6" font-family="sans" font-weight="bold" font-size="18.00" fill="#000000">all</text>
<text text-anchor="start" x="700.5" y="-101.8" font-family="sans" font-size="10.00" fill="#000000"> </text>
<text text-anchor="start" x="704.5" y="-101.8" font-family="sans" font-weight="bold" font-size="14.00" fill="#000000">↪ input</text>
<text text-anchor="start" x="757.5" y="-101.8" font-family="sans" font-size="10.00" fill="#000000"> </text>
<text text-anchor="start" x="700.5" y="-82" font-family="monospace" font-size="10.00" fill="#000000">reports/multiqc.html</text>
<text text-anchor="start" x="700.5" y="-64" font-family="monospace" font-size="10.00" fill="#000000">results/reads/low_complexity/HD827sonic_1_lib1_collapsed.fastq.gz</text>
<text text-anchor="start" x="700.5" y="-46" font-family="monospace" font-size="10.00" fill="#000000">results/reads/low_complexity/HD827sonic_2_lib1_collapsed.fastq.gz</text>
<text text-anchor="start" x="700.5" y="-28" font-family="monospace" font-size="10.00" fill="#000000">results/reads/low_complexity/HD827sonic_2_lib2_collapsed.fastq.gz</text>
<text text-anchor="start" x="1084.5" y="-10" font-family="sans" font-size="10.00" fill="#000000"> &#160;</text>
<polygon fill="#d95757" stroke="#d95757" points="694.5,-116 694.5,-116 1098.5,-116 1098.5,-116 694.5,-116"/>
<polygon fill="#d95757" stroke="#d95757" points="694.5,-22 694.5,-22 1098.5,-22 1098.5,-22 694.5,-22"/>
<polygon fill="none" stroke="#d95757" stroke-width="2" points="694,-1 694,-145 1097,-145 1097,-1 694,-1"/>
</g>
<!-- 1 -->
<g id="node2" class="node">
<title>1</title>
<text text-anchor="start" x="737.5" y="-599.6" font-family="sans" font-weight="bold" font-size="18.00" fill="#000000">multiqc</text>
<text text-anchor="start" x="553.5" y="-575.8" font-family="sans" font-size="10.00" fill="#000000"> </text>
<text text-anchor="start" x="557.5" y="-575.8" font-family="sans" font-weight="bold" font-size="14.00" fill="#000000">↪ input</text>
<text text-anchor="start" x="610.5" y="-575.8" font-family="sans" font-size="10.00" fill="#000000"> </text>
<text text-anchor="start" x="553.5" y="-556" font-family="monospace" font-size="10.00" fill="#000000">stats/reads/fastqc/derep/HD827sonic_1_lib1_collapsed_fastqc.zip</text>
<text text-anchor="start" x="553.5" y="-538" font-family="monospace" font-size="10.00" fill="#000000">stats/reads/fastqc/derep/HD827sonic_2_lib1_collapsed_fastqc.zip</text>
<text text-anchor="start" x="553.5" y="-520" font-family="monospace" font-size="10.00" fill="#000000">stats/reads/fastqc/derep/HD827sonic_2_lib2_collapsed_fastqc.zip</text>
<text text-anchor="start" x="553.5" y="-502" font-family="monospace" font-size="10.00" fill="#000000">stats/reads/fastqc/extend/tadpole/HD827sonic_1_lib1_collapsed_fastqc.zip</text>
<text text-anchor="start" x="553.5" y="-484" font-family="monospace" font-size="10.00" fill="#000000">stats/reads/fastqc/extend/tadpole/HD827sonic_2_lib1_collapsed_fastqc.zip</text>
<text text-anchor="start" x="553.5" y="-466" font-family="monospace" font-size="10.00" fill="#000000">stats/reads/fastqc/extend/tadpole/HD827sonic_2_lib2_collapsed_fastqc.zip</text>
<text text-anchor="start" x="553.5" y="-448" font-family="monospace" font-size="10.00" fill="#000000">stats/reads/fastqc/low_complexity/HD827sonic_1_lib1_collapsed_fastqc.zip</text>
<text text-anchor="start" x="553.5" y="-430" font-family="monospace" font-size="10.00" fill="#000000">stats/reads/fastqc/low_complexity/HD827sonic_2_lib1_collapsed_fastqc.zip</text>
<text text-anchor="start" x="553.5" y="-412" font-family="monospace" font-size="10.00" fill="#000000">stats/reads/fastqc/low_complexity/HD827sonic_2_lib2_collapsed_fastqc.zip</text>
<text text-anchor="start" x="553.5" y="-394" font-family="monospace" font-size="10.00" fill="#000000">stats/reads/fastqc/merge_lanes/HD827sonic_1_lib1_collapsed_fastqc.zip</text>
<text text-anchor="start" x="553.5" y="-376" font-family="monospace" font-size="10.00" fill="#000000">stats/reads/fastqc/merge_lanes/HD827sonic_2_lib1_collapsed_fastqc.zip</text>
<text text-anchor="start" x="553.5" y="-358" font-family="monospace" font-size="10.00" fill="#000000">stats/reads/fastqc/merge_lanes/HD827sonic_2_lib2_collapsed_fastqc.zip</text>
<text text-anchor="start" x="553.5" y="-340" font-family="monospace" font-size="10.00" fill="#000000">stats/reads/fastqc/represent/grep/HD827sonic_1_lib1_collapsed_fastqc.zip</text>
<text text-anchor="start" x="553.5" y="-322" font-family="monospace" font-size="10.00" fill="#000000">stats/reads/fastqc/represent/grep/HD827sonic_2_lib1_collapsed_fastqc.zip</text>
<text text-anchor="start" x="553.5" y="-304" font-family="monospace" font-size="10.00" fill="#000000">stats/reads/fastqc/represent/grep/HD827sonic_2_lib2_collapsed_fastqc.zip</text>
<text text-anchor="start" x="553.5" y="-286" font-family="monospace" font-size="10.00" fill="#000000">stats/reads/nonpareil/merge_lanes/HD827sonic_1_lib1_collapsed.json</text>
<text text-anchor="start" x="553.5" y="-268" font-family="monospace" font-size="10.00" fill="#000000">stats/reads/nonpareil/merge_lanes/HD827sonic_2_lib1_collapsed.json</text>
<text text-anchor="start" x="553.5" y="-250" font-family="monospace" font-size="10.00" fill="#000000">stats/reads/nonpareil/merge_lanes/HD827sonic_2_lib2_collapsed.json</text>
<text text-anchor="start" x="917.5" y="-229.8" font-family="sans" font-size="10.00" fill="#000000"> </text>
<text text-anchor="start" x="921.5" y="-229.8" font-family="sans" font-weight="bold" font-size="14.00" fill="#000000">output →</text>
<text text-anchor="start" x="982.5" y="-229.8" font-family="sans" font-size="10.00" fill="#000000"> </text>
<text text-anchor="start" x="553.5" y="-210" font-family="monospace" font-size="10.00" fill="#000000">reports/multiqc.html</text>
<text text-anchor="start" x="553.5" y="-192" font-family="monospace" font-size="10.00" fill="#000000">reports/multiqc_data.zip</text>
<polygon fill="#57d957" stroke="#57d957" points="547.5,-590 547.5,-590 993.5,-590 993.5,-590 547.5,-590"/>
<polygon fill="#57d957" stroke="#57d957" points="547.5,-244 547.5,-244 993.5,-244 993.5,-244 547.5,-244"/>
<polygon fill="none" stroke="#57d957" stroke-width="2" points="547,-183 547,-619 992,-619 992,-183 547,-183"/>
</g>
<!-- 1&#45;&gt;0 -->
<g id="edge2" class="edge">
<title>1&#45;&gt;0</title>
<path fill="none" stroke="#c0c0c0" stroke-width="2" d="M853.7188,-181.7637C857.1462,-172.8417 860.4787,-164.1666 863.6687,-155.8626"/>
<polygon fill="#c0c0c0" stroke="#c0c0c0" stroke-width="2" points="867.0263,-156.8822 867.3451,-146.2922 860.4918,-154.372 867.0263,-156.8822"/>
</g>
<!-- 2 -->
<g id="node3" class="node">
<title>2</title>
<text text-anchor="start" x="386.5" y="-767.6" font-family="sans" font-weight="bold" font-size="18.00" fill="#000000">fastqc</text>
<text text-anchor="start" x="7.5" y="-743.8" font-family="sans" font-size="10.00" fill="#000000"> </text>
<text text-anchor="start" x="11.5" y="-743.8" font-family="sans" font-weight="bold" font-size="14.00" fill="#000000">↪ input</text>
<text text-anchor="start" x="64.5" y="-743.8" font-family="sans" font-size="10.00" fill="#000000"> </text>
<text text-anchor="start" x="7.5" y="-724" font-family="monospace" font-size="10.00" fill="#000000">&lt;input function&gt;</text>
<text text-anchor="start" x="749.5" y="-703.8" font-family="sans" font-size="10.00" fill="#000000"> </text>
<text text-anchor="start" x="753.5" y="-703.8" font-family="sans" font-weight="bold" font-size="14.00" fill="#000000">output →</text>
<text text-anchor="start" x="814.5" y="-703.8" font-family="sans" font-size="10.00" fill="#000000"> </text>
<text text-anchor="start" x="7.5" y="-684" font-family="monospace" font-size="10.00" fill="#000000">stats/reads/fastqc/{tool,merge_lanes|extend/tadpole|derep|represent/grep|low_complexity}/{sample}_{library}_{read_type_trim}.html</text>
<text text-anchor="start" x="7.5" y="-666" font-family="monospace" font-size="10.00" fill="#000000">stats/reads/fastqc/{tool,merge_lanes|extend/tadpole|derep|represent/grep|low_complexity}/{sample}_{library}_{read_type_trim}_fastqc.zip</text>
<polygon fill="#d9ad57" stroke="#d9ad57" points="1.5,-758 1.5,-758 825.5,-758 825.5,-758 1.5,-758"/>
<polygon fill="#d9ad57" stroke="#d9ad57" points="1.5,-718 1.5,-718 825.5,-718 825.5,-718 1.5,-718"/>
<polygon fill="none" stroke="#d9ad57" stroke-width="2" points="1,-657 1,-787 824,-787 824,-657 1,-657"/>
</g>
<!-- 2&#45;&gt;1 -->
<g id="edge3" class="edge">
<title>2&#45;&gt;1</title>
<path fill="none" stroke="#c0c0c0" stroke-width="2" d="M486.0378,-655.8778C502.0752,-641.4576 519.8658,-625.461 538.4938,-608.7114"/>
<polygon fill="#c0c0c0" stroke="#c0c0c0" stroke-width="2" points="540.8583,-611.2922 545.9542,-602.0034 536.1779,-606.087 540.8583,-611.2922"/>
</g>
<!-- 3 -->
<g id="node4" class="node">
<title>3</title>
<text text-anchor="start" x="576.5" y="-1997.6" font-family="sans" font-weight="bold" font-size="18.00" fill="#000000">merge_lanes</text>
<text text-anchor="start" x="429.5" y="-1973.8" font-family="sans" font-size="10.00" fill="#000000"> </text>
<text text-anchor="start" x="433.5" y="-1973.8" font-family="sans" font-weight="bold" font-size="14.00" fill="#000000">↪ input</text>
<text text-anchor="start" x="486.5" y="-1973.8" font-family="sans" font-size="10.00" fill="#000000"> </text>
<text text-anchor="start" x="429.5" y="-1954" font-family="monospace" font-size="10.00" fill="#000000">&lt;input function&gt;</text>
<text text-anchor="start" x="763.5" y="-1933.8" font-family="sans" font-size="10.00" fill="#000000"> </text>
<text text-anchor="start" x="767.5" y="-1933.8" font-family="sans" font-weight="bold" font-size="14.00" fill="#000000">output →</text>
<text text-anchor="start" x="828.5" y="-1933.8" font-family="sans" font-size="10.00" fill="#000000"> </text>
<text text-anchor="start" x="429.5" y="-1914" font-family="monospace" font-size="10.00" fill="#000000">temp/reads/merge_lanes/{sample}_{library}_{read_type_trim}.fastq.gz</text>
<polygon fill="#82d957" stroke="#82d957" points="423.5,-1988 423.5,-1988 839.5,-1988 839.5,-1988 423.5,-1988"/>
<polygon fill="#82d957" stroke="#82d957" points="423.5,-1948 423.5,-1948 839.5,-1948 839.5,-1948 423.5,-1948"/>
<polygon fill="none" stroke="#82d957" stroke-width="2" points="423,-1905 423,-2017 838,-2017 838,-1905 423,-1905"/>
</g>
<!-- 3&#45;&gt;2 -->
<g id="edge6" class="edge">
<title>3&#45;&gt;2</title>
<path fill="none" stroke="#c0c0c0" stroke-width="2" d="M422.9408,-1903.8869C407.1764,-1893.8043 392.6914,-1881.9459 380.5,-1868 296.8336,-1772.2925 317.5,-1716.122 317.5,-1589 317.5,-1589 317.5,-1589 317.5,-1076 317.5,-962.6667 320.0093,-931.298 356.5,-824 359.5172,-815.1281 363.2796,-806.1225 367.4181,-797.3228"/>
<polygon fill="#c0c0c0" stroke="#c0c0c0" stroke-width="2" points="370.6097,-798.7632 371.8516,-788.2413 364.3193,-795.6922 370.6097,-798.7632"/>
</g>
<!-- 5 -->
<g id="node6" class="node">
<title>5</title>
<text text-anchor="start" x="1045.5" y="-1847.6" font-family="sans" font-weight="bold" font-size="18.00" fill="#000000">nonpareil_infer</text>
<text text-anchor="start" x="906.5" y="-1823.8" font-family="sans" font-size="10.00" fill="#000000"> </text>
<text text-anchor="start" x="910.5" y="-1823.8" font-family="sans" font-weight="bold" font-size="14.00" fill="#000000">↪ input</text>
<text text-anchor="start" x="963.5" y="-1823.8" font-family="sans" font-size="10.00" fill="#000000"> </text>
<text text-anchor="start" x="906.5" y="-1804" font-family="monospace" font-size="10.00" fill="#000000">&lt;input function&gt;</text>
<text text-anchor="start" x="1246.5" y="-1783.8" font-family="sans" font-size="10.00" fill="#000000"> </text>
<text text-anchor="start" x="1250.5" y="-1783.8" font-family="sans" font-weight="bold" font-size="14.00" fill="#000000">output →</text>
<text text-anchor="start" x="1311.5" y="-1783.8" font-family="sans" font-size="10.00" fill="#000000"> </text>
<text text-anchor="start" x="906.5" y="-1764" font-family="monospace" font-size="10.00" fill="#000000">stats/reads/nonpareil/{tool}/{sample}_{library}_{read_type_trim}.log</text>
<text text-anchor="start" x="906.5" y="-1746" font-family="monospace" font-size="10.00" fill="#000000">stats/reads/nonpareil/{tool}/{sample}_{library}_{read_type_trim}.npa</text>
<text text-anchor="start" x="906.5" y="-1728" font-family="monospace" font-size="10.00" fill="#000000">stats/reads/nonpareil/{tool}/{sample}_{library}_{read_type_trim}.npc</text>
<text text-anchor="start" x="906.5" y="-1710" font-family="monospace" font-size="10.00" fill="#000000">stats/reads/nonpareil/{tool}/{sample}_{library}_{read_type_trim}.npo</text>
<polygon fill="#57d982" stroke="#57d982" points="900.5,-1838 900.5,-1838 1322.5,-1838 1322.5,-1838 900.5,-1838"/>
<polygon fill="#57d982" stroke="#57d982" points="900.5,-1798 900.5,-1798 1322.5,-1798 1322.5,-1798 900.5,-1798"/>
<polygon fill="none" stroke="#57d982" stroke-width="2" points="900,-1701 900,-1867 1321,-1867 1321,-1701 900,-1701"/>
</g>
<!-- 3&#45;&gt;5 -->
<g id="edge11" class="edge">
<title>3&#45;&gt;5</title>
<path fill="none" stroke="#c0c0c0" stroke-width="2" d="M785.3482,-1903.8997C818.5472,-1891.6576 854.2439,-1878.4944 889.3966,-1865.5319"/>
<polygon fill="#c0c0c0" stroke="#c0c0c0" stroke-width="2" points="890.6338,-1868.8061 898.8053,-1862.0624 888.2119,-1862.2384 890.6338,-1868.8061"/>
</g>
<!-- 6 -->
<g id="node7" class="node">
<title>6</title>
<text text-anchor="start" x="517" y="-1643.6" font-family="sans" font-weight="bold" font-size="18.00" fill="#000000">extend_tadpole</text>
<text text-anchor="start" x="372.5" y="-1619.8" font-family="sans" font-size="10.00" fill="#000000"> </text>
<text text-anchor="start" x="376.5" y="-1619.8" font-family="sans" font-weight="bold" font-size="14.00" fill="#000000">↪ input</text>
<text text-anchor="start" x="429.5" y="-1619.8" font-family="sans" font-size="10.00" fill="#000000"> </text>
<text text-anchor="start" x="372.5" y="-1600" font-family="monospace" font-size="10.00" fill="#000000">logs/reads/extend/loglog/{sample}_{library}_{read_type_trim}.log</text>
<text text-anchor="start" x="372.5" y="-1582" font-family="monospace" font-size="10.00" fill="#000000">temp/reads/extend/loglog/{sample}_{library}_{read_type_trim}.flag</text>
<text text-anchor="start" x="372.5" y="-1564" font-family="monospace" font-size="10.00" fill="#000000">temp/reads/merge_lanes/{sample}_{library}_{read_type_trim}.fastq.gz</text>
<text text-anchor="start" x="724.5" y="-1543.8" font-family="sans" font-size="10.00" fill="#000000"> </text>
<text text-anchor="start" x="728.5" y="-1543.8" font-family="sans" font-weight="bold" font-size="14.00" fill="#000000">output →</text>
<text text-anchor="start" x="789.5" y="-1543.8" font-family="sans" font-size="10.00" fill="#000000"> </text>
<text text-anchor="start" x="372.5" y="-1524" font-family="monospace" font-size="10.00" fill="#000000">temp/reads/extend/tadpole/{sample}_{library}_{read_type_trim}.fastq.gz</text>
<polygon fill="#d98257" stroke="#d98257" points="366.5,-1634 366.5,-1634 800.5,-1634 800.5,-1634 366.5,-1634"/>
<polygon fill="#d98257" stroke="#d98257" points="366.5,-1558 366.5,-1558 800.5,-1558 800.5,-1558 366.5,-1558"/>
<polygon fill="none" stroke="#d98257" stroke-width="2" points="366,-1515 366,-1663 799,-1663 799,-1515 366,-1515"/>
</g>
<!-- 3&#45;&gt;6 -->
<g id="edge13" class="edge">
<title>3&#45;&gt;6</title>
<path fill="none" stroke="#c0c0c0" stroke-width="2" d="M446.6688,-1903.806C433.4205,-1893.7375 421.6853,-1881.9047 412.5,-1868 371.3449,-1805.6994 376.9536,-1765.6625 412.5,-1700 418.0159,-1689.8108 424.9182,-1680.4081 432.7598,-1671.758"/>
<polygon fill="#c0c0c0" stroke="#c0c0c0" stroke-width="2" points="435.4747,-1673.9842 439.8815,-1664.3493 430.4282,-1669.1331 435.4747,-1673.9842"/>
</g>
<!-- 7 -->
<g id="node8" class="node">
<title>7</title>
<text text-anchor="start" x="603" y="-1820.6" font-family="sans" font-weight="bold" font-size="18.00" fill="#000000">loglog</text>
<text text-anchor="start" x="429.5" y="-1796.8" font-family="sans" font-size="10.00" fill="#000000"> </text>
<text text-anchor="start" x="433.5" y="-1796.8" font-family="sans" font-weight="bold" font-size="14.00" fill="#000000">↪ input</text>
<text text-anchor="start" x="486.5" y="-1796.8" font-family="sans" font-size="10.00" fill="#000000"> </text>
<text text-anchor="start" x="429.5" y="-1777" font-family="monospace" font-size="10.00" fill="#000000">temp/reads/merge_lanes/{sample}_{library}_{read_type_trim}.fastq.gz</text>
<text text-anchor="start" x="763.5" y="-1756.8" font-family="sans" font-size="10.00" fill="#000000"> </text>
<text text-anchor="start" x="767.5" y="-1756.8" font-family="sans" font-weight="bold" font-size="14.00" fill="#000000">output →</text>
<text text-anchor="start" x="828.5" y="-1756.8" font-family="sans" font-size="10.00" fill="#000000"> </text>
<text text-anchor="start" x="429.5" y="-1737" font-family="monospace" font-size="10.00" fill="#000000">temp/reads/extend/loglog/{sample}_{library}_{read_type_trim}.flag</text>
<polygon fill="#d9d957" stroke="#d9d957" points="423.5,-1811 423.5,-1811 839.5,-1811 839.5,-1811 423.5,-1811"/>
<polygon fill="#d9d957" stroke="#d9d957" points="423.5,-1771 423.5,-1771 839.5,-1771 839.5,-1771 423.5,-1771"/>
<polygon fill="none" stroke="#d9d957" stroke-width="2" points="423,-1728 423,-1840 838,-1840 838,-1728 423,-1728"/>
</g>
<!-- 3&#45;&gt;7 -->
<g id="edge14" class="edge">
<title>3&#45;&gt;7</title>
<path fill="none" stroke="#c0c0c0" stroke-width="2" d="M630.5,-1903.5332C630.5,-1886.8255 630.5,-1868.4283 630.5,-1851.1799"/>
<polygon fill="#c0c0c0" stroke="#c0c0c0" stroke-width="2" points="634.0001,-1851.1785 630.5,-1841.1785 627.0001,-1851.1785 634.0001,-1851.1785"/>
</g>
<!-- 9 -->
<g id="node10" class="node">
<title>9</title>
<text text-anchor="start" x="623.5" y="-1121.6" font-family="sans" font-weight="bold" font-size="18.00" fill="#000000">seqkit_grep</text>
<text text-anchor="start" x="463.5" y="-1097.8" font-family="sans" font-size="10.00" fill="#000000"> </text>
<text text-anchor="start" x="467.5" y="-1097.8" font-family="sans" font-weight="bold" font-size="14.00" fill="#000000">↪ input</text>
<text text-anchor="start" x="520.5" y="-1097.8" font-family="sans" font-size="10.00" fill="#000000"> </text>
<text text-anchor="start" x="463.5" y="-1078" font-family="monospace" font-size="10.00" fill="#000000">temp/reads/merge_lanes/{sample}_{library}_{read_type_trim}.fastq.gz</text>
<text text-anchor="start" x="463.5" y="-1060" font-family="monospace" font-size="10.00" fill="#000000">temp/reads/represent/fx2tab/{sample}_{library}_{read_type_trim}.tsv</text>
<text text-anchor="start" x="815.5" y="-1039.8" font-family="sans" font-size="10.00" fill="#000000"> </text>
<text text-anchor="start" x="819.5" y="-1039.8" font-family="sans" font-weight="bold" font-size="14.00" fill="#000000">output →</text>
<text text-anchor="start" x="880.5" y="-1039.8" font-family="sans" font-size="10.00" fill="#000000"> </text>
<text text-anchor="start" x="463.5" y="-1020" font-family="monospace" font-size="10.00" fill="#000000">temp/reads/represent/grep/{sample}_{library}_{read_type_trim}.fastq.gz</text>
<polygon fill="#57add9" stroke="#57add9" points="457.5,-1112 457.5,-1112 891.5,-1112 891.5,-1112 457.5,-1112"/>
<polygon fill="#57add9" stroke="#57add9" points="457.5,-1054 457.5,-1054 891.5,-1054 891.5,-1054 457.5,-1054"/>
<polygon fill="none" stroke="#57add9" stroke-width="2" points="457,-1011 457,-1141 890,-1141 890,-1011 457,-1011"/>
</g>
<!-- 3&#45;&gt;9 -->
<g id="edge17" class="edge">
<title>3&#45;&gt;9</title>
<path fill="none" stroke="#c0c0c0" stroke-width="2" d="M812.3385,-1903.8574C826.196,-1893.7707 838.609,-1881.9199 848.5,-1868 920.4906,-1766.6853 867.5,-1713.2872 867.5,-1589 867.5,-1589 867.5,-1589 867.5,-1403 867.5,-1302.6441 902.1186,-1262.8313 848.5,-1178 841.7544,-1167.3277 833.459,-1157.6426 824.181,-1148.8779"/>
<polygon fill="#c0c0c0" stroke="#c0c0c0" stroke-width="2" points="826.3276,-1146.1021 816.5405,-1142.0447 821.6612,-1151.3199 826.3276,-1146.1021"/>
</g>
<!-- 4 -->
<g id="node5" class="node">
<title>4</title>
<text text-anchor="start" x="1051" y="-1457.6" font-family="sans" font-weight="bold" font-size="18.00" fill="#000000">nonpareil_plot</text>
<text text-anchor="start" x="903.5" y="-1433.8" font-family="sans" font-size="10.00" fill="#000000"> </text>
<text text-anchor="start" x="907.5" y="-1433.8" font-family="sans" font-weight="bold" font-size="14.00" fill="#000000">↪ input</text>
<text text-anchor="start" x="960.5" y="-1433.8" font-family="sans" font-size="10.00" fill="#000000"> </text>
<text text-anchor="start" x="903.5" y="-1414" font-family="monospace" font-size="10.00" fill="#000000">stats/reads/nonpareil/{tool}/{sample}_{library}_{read_type_trim}.npo</text>
<text text-anchor="start" x="1255.5" y="-1393.8" font-family="sans" font-size="10.00" fill="#000000"> </text>
<text text-anchor="start" x="1259.5" y="-1393.8" font-family="sans" font-weight="bold" font-size="14.00" fill="#000000">output →</text>
<text text-anchor="start" x="1320.5" y="-1393.8" font-family="sans" font-size="10.00" fill="#000000"> </text>
<text text-anchor="start" x="903.5" y="-1374" font-family="monospace" font-size="10.00" fill="#000000">reports/reads/nonpareil/{tool}/{sample}_{library}_{read_type_trim}.pdf</text>
<text text-anchor="start" x="903.5" y="-1356" font-family="monospace" font-size="10.00" fill="#000000">stats/reads/nonpareil/{tool}/{sample}_{library}_{read_type_trim}.json</text>
<text text-anchor="start" x="903.5" y="-1338" font-family="monospace" font-size="10.00" fill="#000000">stats/reads/nonpareil/{tool}/{sample}_{library}_{read_type_trim}.tsv</text>
<polygon fill="#57d9ad" stroke="#57d9ad" points="897.5,-1448 897.5,-1448 1331.5,-1448 1331.5,-1448 897.5,-1448"/>
<polygon fill="#57d9ad" stroke="#57d9ad" points="897.5,-1408 897.5,-1408 1331.5,-1408 1331.5,-1408 897.5,-1408"/>
<polygon fill="none" stroke="#57d9ad" stroke-width="2" points="897,-1329 897,-1477 1330,-1477 1330,-1329 897,-1329"/>
</g>
<!-- 4&#45;&gt;1 -->
<g id="edge4" class="edge">
<title>4&#45;&gt;1</title>
<path fill="none" stroke="#c0c0c0" stroke-width="2" d="M1064.7229,-1327.7279C1027.8349,-1263.5116 983.5,-1167.3335 983.5,-1076 983.5,-1076 983.5,-1076 983.5,-899 983.5,-806.3504 951.847,-711.3057 912.8881,-629.412"/>
<polygon fill="#c0c0c0" stroke="#c0c0c0" stroke-width="2" points="915.8477,-627.4913 908.3525,-620.0031 909.542,-630.5309 915.8477,-627.4913"/>
</g>
<!-- 5&#45;&gt;4 -->
<g id="edge10" class="edge">
<title>5&#45;&gt;4</title>
<path fill="none" stroke="#c0c0c0" stroke-width="2" d="M1111.1621,-1699.9163C1111.6565,-1637.1218 1112.3298,-1551.6137 1112.8269,-1488.4847"/>
<polygon fill="#c0c0c0" stroke="#c0c0c0" stroke-width="2" points="1116.3293,-1488.1847 1112.9082,-1478.1574 1109.3295,-1488.1295 1116.3293,-1488.1847"/>
</g>
<!-- 6&#45;&gt;2 -->
<g id="edge9" class="edge">
<title>6&#45;&gt;2</title>
<path fill="none" stroke="#c0c0c0" stroke-width="2" d="M406.3488,-1513.739C394.1428,-1503.2233 383.239,-1491.3587 374.5,-1478 315.1953,-1387.3454 355.5,-1343.3296 355.5,-1235 355.5,-1235 355.5,-1235 355.5,-1076 355.5,-963.2091 364.3502,-934.7902 385.5,-824 387.1222,-815.5024 389.0647,-806.6687 391.1542,-797.9122"/>
<polygon fill="#c0c0c0" stroke="#c0c0c0" stroke-width="2" points="394.5827,-798.6266 393.5666,-788.0806 387.7844,-796.9585 394.5827,-798.6266"/>
</g>
<!-- 8 -->
<g id="node9" class="node">
<title>8</title>
<text text-anchor="start" x="568.5" y="-1448.6" font-family="sans" font-weight="bold" font-size="18.00" fill="#000000">vsearch</text>
<text text-anchor="start" x="391.5" y="-1424.8" font-family="sans" font-size="10.00" fill="#000000"> </text>
<text text-anchor="start" x="395.5" y="-1424.8" font-family="sans" font-weight="bold" font-size="14.00" fill="#000000">↪ input</text>
<text text-anchor="start" x="448.5" y="-1424.8" font-family="sans" font-size="10.00" fill="#000000"> </text>
<text text-anchor="start" x="391.5" y="-1405" font-family="monospace" font-size="10.00" fill="#000000">temp/reads/extend/tadpole/{sample}_{library}_{read_type_trim}.fastq.gz</text>
<text text-anchor="start" x="743.5" y="-1384.8" font-family="sans" font-size="10.00" fill="#000000"> </text>
<text text-anchor="start" x="747.5" y="-1384.8" font-family="sans" font-weight="bold" font-size="14.00" fill="#000000">output →</text>
<text text-anchor="start" x="808.5" y="-1384.8" font-family="sans" font-size="10.00" fill="#000000"> </text>
<text text-anchor="start" x="391.5" y="-1365" font-family="monospace" font-size="10.00" fill="#000000">stats/reads/derep/{sample}_{library}_{read_type_trim}.log</text>
<text text-anchor="start" x="391.5" y="-1347" font-family="monospace" font-size="10.00" fill="#000000">temp/reads/derep/{sample}_{library}_{read_type_trim}.fastq.gz</text>
<polygon fill="#5782d9" stroke="#5782d9" points="385.5,-1439 385.5,-1439 819.5,-1439 819.5,-1439 385.5,-1439"/>
<polygon fill="#5782d9" stroke="#5782d9" points="385.5,-1399 385.5,-1399 819.5,-1399 819.5,-1399 385.5,-1399"/>
<polygon fill="none" stroke="#5782d9" stroke-width="2" points="385,-1338 385,-1468 818,-1468 818,-1338 385,-1338"/>
</g>
<!-- 6&#45;&gt;8 -->
<g id="edge15" class="edge">
<title>6&#45;&gt;8</title>
<path fill="none" stroke="#c0c0c0" stroke-width="2" d="M590.1733,-1513.8828C591.3442,-1502.4196 592.5537,-1490.5797 593.7268,-1479.0957"/>
<polygon fill="#c0c0c0" stroke="#c0c0c0" stroke-width="2" points="597.212,-1479.4176 594.7465,-1469.1137 590.2483,-1478.7062 597.212,-1479.4176"/>
</g>
<!-- 7&#45;&gt;6 -->
<g id="edge12" class="edge">
<title>7&#45;&gt;6</title>
<path fill="none" stroke="#c0c0c0" stroke-width="2" d="M616.4227,-1726.8111C612.3615,-1710.3123 607.8401,-1691.9442 603.4564,-1674.1355"/>
<polygon fill="#c0c0c0" stroke="#c0c0c0" stroke-width="2" points="606.8278,-1673.1883 601.039,-1664.3147 600.0307,-1674.8615 606.8278,-1673.1883"/>
</g>
<!-- 8&#45;&gt;2 -->
<g id="edge7" class="edge">
<title>8&#45;&gt;2</title>
<path fill="none" stroke="#c0c0c0" stroke-width="2" d="M451.9001,-1336.9584C436.2272,-1324.2335 422.4245,-1309.3383 412.5,-1292 365.6359,-1210.128 388.5766,-934.0471 403.3406,-798.4459"/>
<polygon fill="#c0c0c0" stroke="#c0c0c0" stroke-width="2" points="406.8598,-798.4631 404.4765,-788.1398 399.902,-797.6962 406.8598,-798.4631"/>
</g>
<!-- 10 -->
<g id="node11" class="node">
<title>10</title>
<text text-anchor="start" x="573.5" y="-1271.6" font-family="sans" font-weight="bold" font-size="18.00" fill="#000000">seqkit_fx2tab</text>
<text text-anchor="start" x="429.5" y="-1247.8" font-family="sans" font-size="10.00" fill="#000000"> </text>
<text text-anchor="start" x="433.5" y="-1247.8" font-family="sans" font-weight="bold" font-size="14.00" fill="#000000">↪ input</text>
<text text-anchor="start" x="486.5" y="-1247.8" font-family="sans" font-size="10.00" fill="#000000"> </text>
<text text-anchor="start" x="429.5" y="-1228" font-family="monospace" font-size="10.00" fill="#000000">temp/reads/derep/{sample}_{library}_{read_type_trim}.fastq.gz</text>
<text text-anchor="start" x="763.5" y="-1207.8" font-family="sans" font-size="10.00" fill="#000000"> </text>
<text text-anchor="start" x="767.5" y="-1207.8" font-family="sans" font-weight="bold" font-size="14.00" fill="#000000">output →</text>
<text text-anchor="start" x="828.5" y="-1207.8" font-family="sans" font-size="10.00" fill="#000000"> </text>
<text text-anchor="start" x="429.5" y="-1188" font-family="monospace" font-size="10.00" fill="#000000">temp/reads/represent/fx2tab/{sample}_{library}_{read_type_trim}.tsv</text>
<polygon fill="#57d9d9" stroke="#57d9d9" points="423.5,-1262 423.5,-1262 839.5,-1262 839.5,-1262 423.5,-1262"/>
<polygon fill="#57d9d9" stroke="#57d9d9" points="423.5,-1222 423.5,-1222 839.5,-1222 839.5,-1222 423.5,-1222"/>
<polygon fill="none" stroke="#57d9d9" stroke-width="2" points="423,-1179 423,-1291 838,-1291 838,-1179 423,-1179"/>
</g>
<!-- 8&#45;&gt;10 -->
<g id="edge18" class="edge">
<title>8&#45;&gt;10</title>
<path fill="none" stroke="#c0c0c0" stroke-width="2" d="M612.9616,-1336.602C614.9208,-1325.252 616.9575,-1313.4532 618.9198,-1302.0855"/>
<polygon fill="#c0c0c0" stroke="#c0c0c0" stroke-width="2" points="622.3691,-1302.6785 620.6212,-1292.2288 615.4711,-1301.4877 622.3691,-1302.6785"/>
</g>
<!-- 9&#45;&gt;2 -->
<g id="edge5" class="edge">
<title>9&#45;&gt;2</title>
<path fill="none" stroke="#c0c0c0" stroke-width="2" d="M487.2771,-1009.9325C473.3939,-999.589 460.812,-987.6855 450.5,-974 430.1231,-946.9569 420.5285,-862.1667 416.1071,-798.3504"/>
<polygon fill="#c0c0c0" stroke="#c0c0c0" stroke-width="2" points="419.5948,-798.047 415.4411,-788.3004 412.6101,-798.51 419.5948,-798.047"/>
</g>
<!-- 11 -->
<g id="node12" class="node">
<title>11</title>
<text text-anchor="start" x="641" y="-953.6" font-family="sans" font-weight="bold" font-size="18.00" fill="#000000">low_complexity</text>
<text text-anchor="start" x="467.5" y="-929.8" font-family="sans" font-size="10.00" fill="#000000"> </text>
<text text-anchor="start" x="471.5" y="-929.8" font-family="sans" font-weight="bold" font-size="14.00" fill="#000000">↪ input</text>
<text text-anchor="start" x="524.5" y="-929.8" font-family="sans" font-size="10.00" fill="#000000"> </text>
<text text-anchor="start" x="467.5" y="-910" font-family="monospace" font-size="10.00" fill="#000000">temp/reads/represent/grep/{sample}_{library}_{read_type_trim}.fastq.gz</text>
<text text-anchor="start" x="879.5" y="-889.8" font-family="sans" font-size="10.00" fill="#000000"> </text>
<text text-anchor="start" x="883.5" y="-889.8" font-family="sans" font-weight="bold" font-size="14.00" fill="#000000">output →</text>
<text text-anchor="start" x="944.5" y="-889.8" font-family="sans" font-size="10.00" fill="#000000"> </text>
<text text-anchor="start" x="467.5" y="-870" font-family="monospace" font-size="10.00" fill="#000000">results/reads/low_complexity/{sample}_{library}_{read_type_trim}.fastq.gz</text>
<text text-anchor="start" x="467.5" y="-852" font-family="monospace" font-size="10.00" fill="#000000">stats/reads/low_complexity/{sample}_{library}_{read_type_trim}.txt</text>
<text text-anchor="start" x="467.5" y="-834" font-family="monospace" font-size="10.00" fill="#000000">temp/reads/low_complexity/{sample}_{library}_{read_type_trim}.discarded.fastq.gz</text>
<polygon fill="#add957" stroke="#add957" points="461.5,-944 461.5,-944 955.5,-944 955.5,-944 461.5,-944"/>
<polygon fill="#add957" stroke="#add957" points="461.5,-904 461.5,-904 955.5,-904 955.5,-904 461.5,-904"/>
<polygon fill="none" stroke="#add957" stroke-width="2" points="461,-825 461,-973 954,-973 954,-825 461,-825"/>
</g>
<!-- 9&#45;&gt;11 -->
<g id="edge19" class="edge">
<title>9&#45;&gt;11</title>
<path fill="none" stroke="#c0c0c0" stroke-width="2" d="M686.2087,-1009.84C687.8395,-1001.3503 689.5267,-992.567 691.2047,-983.8315"/>
<polygon fill="#c0c0c0" stroke="#c0c0c0" stroke-width="2" points="694.6425,-984.488 693.0918,-974.0073 687.7682,-983.1675 694.6425,-984.488"/>
</g>
<!-- 10&#45;&gt;9 -->
<g id="edge16" class="edge">
<title>10&#45;&gt;9</title>
<path fill="none" stroke="#c0c0c0" stroke-width="2" d="M646.024,-1177.5974C648.2787,-1169.2601 650.6287,-1160.5707 652.9635,-1151.9375"/>
<polygon fill="#c0c0c0" stroke="#c0c0c0" stroke-width="2" points="656.3551,-1152.8028 655.5872,-1142.2358 649.5978,-1150.9753 656.3551,-1152.8028"/>
</g>
<!-- 11&#45;&gt;0 -->
<g id="edge1" class="edge">
<title>11&#45;&gt;0</title>
<path fill="none" stroke="#c0c0c0" stroke-width="2" d="M826.8171,-823.7324C892.4864,-774.7449 967.5657,-704.3389 1002.5,-620 1076.9957,-440.1515 1076.1623,-362.1915 1002.5,-182 998.5458,-172.3274 993.2737,-163.0499 987.183,-154.2751"/>
<polygon fill="#c0c0c0" stroke="#c0c0c0" stroke-width="2" points="989.8545,-152.0001 981.109,-146.0196 984.2162,-156.1486 989.8545,-152.0001"/>
</g>
<!-- 11&#45;&gt;2 -->
<g id="edge8" class="edge">
<title>11&#45;&gt;2</title>
<path fill="none" stroke="#c0c0c0" stroke-width="2" d="M582.3934,-823.9361C565.544,-813.8264 548.2954,-803.4772 531.5549,-793.433"/>
<polygon fill="#c0c0c0" stroke="#c0c0c0" stroke-width="2" points="533.2276,-790.3549 522.8519,-788.2111 529.6261,-796.3574 533.2276,-790.3549"/>
</g>
</g>
</svg>
