<?xml version="1.0" encoding="UTF-8" standalone="no"?>
<!DOCTYPE svg PUBLIC "-//W3C//DTD SVG 1.1//EN"
 "http://www.w3.org/Graphics/SVG/1.1/DTD/svg11.dtd">
<!-- Generated by graphviz version 2.40.1 (0)
 -->
<!-- Title: snakemake_dag Pages: 1 -->
<svg width="324pt" height="692pt"
 viewBox="0.00 0.00 324.00 692.00" xmlns="http://www.w3.org/2000/svg" xmlns:xlink="http://www.w3.org/1999/xlink">
<g id="graph0" class="graph" transform="scale(1 1) rotate(0) translate(4 688)">
<title>snakemake_dag</title>
<polygon fill="#ffffff" stroke="transparent" points="-4,4 -4,-688 320,-688 320,4 -4,4"/>
<!-- 0 -->
<g id="node1" class="node">
<title>0</title>
<path fill="none" stroke="#d85656" stroke-width="2" d="M279,-36C279,-36 249,-36 249,-36 243,-36 237,-30 237,-24 237,-24 237,-12 237,-12 237,-6 243,0 249,0 249,0 279,0 279,0 285,0 291,-6 291,-12 291,-12 291,-24 291,-24 291,-30 285,-36 279,-36"/>
<text text-anchor="middle" x="264" y="-15.5" font-family="sans" font-size="10.00" fill="#000000">all</text>
</g>
<!-- 1 -->
<g id="node2" class="node">
<title>1</title>
<path fill="none" stroke="#59d856" stroke-width="2" d="M252,-108C252,-108 222,-108 222,-108 216,-108 210,-102 210,-96 210,-96 210,-84 210,-84 210,-78 216,-72 222,-72 222,-72 252,-72 252,-72 258,-72 264,-78 264,-84 264,-84 264,-96 264,-96 264,-102 258,-108 252,-108"/>
<text text-anchor="middle" x="237" y="-87.5" font-family="sans" font-size="10.00" fill="#000000">multiqc</text>
</g>
<!-- 1&#45;&gt;0 -->
<g id="edge2" class="edge">
<title>1&#45;&gt;0</title>
<path fill="none" stroke="#c0c0c0" stroke-width="2" d="M243.8132,-71.8314C246.7644,-63.9617 250.2858,-54.5712 253.555,-45.8533"/>
<polygon fill="#c0c0c0" stroke="#c0c0c0" stroke-width="2" points="256.8609,-47.0055 257.095,-36.4133 250.3066,-44.5476 256.8609,-47.0055"/>
</g>
<!-- 2 -->
<g id="node3" class="node">
<title>2</title>
<path fill="none" stroke="#d8ac56" stroke-width="2" d="M110,-180C110,-180 80,-180 80,-180 74,-180 68,-174 68,-168 68,-168 68,-156 68,-156 68,-150 74,-144 80,-144 80,-144 110,-144 110,-144 116,-144 122,-150 122,-156 122,-156 122,-168 122,-168 122,-174 116,-180 110,-180"/>
<text text-anchor="middle" x="95" y="-159.5" font-family="sans" font-size="10.00" fill="#000000">fastqc</text>
</g>
<!-- 2&#45;&gt;1 -->
<g id="edge3" class="edge">
<title>2&#45;&gt;1</title>
<path fill="none" stroke="#c0c0c0" stroke-width="2" d="M122.0434,-148.2879C144.3055,-137 176.0733,-120.8924 200.5742,-108.4694"/>
<polygon fill="#c0c0c0" stroke="#c0c0c0" stroke-width="2" points="202.2375,-111.5503 209.5737,-103.9063 199.0718,-105.307 202.2375,-111.5503"/>
</g>
<!-- 3 -->
<g id="node4" class="node">
<title>3</title>
<path fill="none" stroke="#80d856" stroke-width="2" d="M174,-684C174,-684 126,-684 126,-684 120,-684 114,-678 114,-672 114,-672 114,-660 114,-660 114,-654 120,-648 126,-648 126,-648 174,-648 174,-648 180,-648 186,-654 186,-660 186,-660 186,-672 186,-672 186,-678 180,-684 174,-684"/>
<text text-anchor="middle" x="150" y="-663.5" font-family="sans" font-size="10.00" fill="#000000">merge_lanes</text>
</g>
<!-- 3&#45;&gt;2 -->
<g id="edge8" class="edge">
<title>3&#45;&gt;2</title>
<path fill="none" stroke="#c0c0c0" stroke-width="2" d="M113.6892,-650.4755C69.2963,-628.764 0,-584.813 0,-522 0,-522 0,-522 0,-306 0,-258.0912 37.0913,-213.8312 64.921,-187.3654"/>
<polygon fill="#c0c0c0" stroke="#c0c0c0" stroke-width="2" points="67.5108,-189.7382 72.4863,-180.3843 62.7636,-184.5938 67.5108,-189.7382"/>
</g>
<!-- 5 -->
<g id="node6" class="node">
<title>5</title>
<path fill="none" stroke="#56d882" stroke-width="2" d="M304,-612C304,-612 248,-612 248,-612 242,-612 236,-606 236,-600 236,-600 236,-588 236,-588 236,-582 242,-576 248,-576 248,-576 304,-576 304,-576 310,-576 316,-582 316,-588 316,-588 316,-600 316,-600 316,-606 310,-612 304,-612"/>
<text text-anchor="middle" x="276" y="-591.5" font-family="sans" font-size="10.00" fill="#000000">nonpareil_infer</text>
</g>
<!-- 3&#45;&gt;5 -->
<g id="edge11" class="edge">
<title>3&#45;&gt;5</title>
<path fill="none" stroke="#c0c0c0" stroke-width="2" d="M181.7951,-647.8314C198.0605,-638.5368 218.0386,-627.1208 235.4051,-617.1971"/>
<polygon fill="#c0c0c0" stroke="#c0c0c0" stroke-width="2" points="237.2691,-620.1631 244.2151,-612.1628 233.7961,-614.0854 237.2691,-620.1631"/>
</g>
<!-- 6 -->
<g id="node7" class="node">
<title>6</title>
<path fill="none" stroke="#d88556" stroke-width="2" d="M124.5,-540C124.5,-540 65.5,-540 65.5,-540 59.5,-540 53.5,-534 53.5,-528 53.5,-528 53.5,-516 53.5,-516 53.5,-510 59.5,-504 65.5,-504 65.5,-504 124.5,-504 124.5,-504 130.5,-504 136.5,-510 136.5,-516 136.5,-516 136.5,-528 136.5,-528 136.5,-534 130.5,-540 124.5,-540"/>
<text text-anchor="middle" x="95" y="-519.5" font-family="sans" font-size="10.00" fill="#000000">extend_tadpole</text>
</g>
<!-- 3&#45;&gt;6 -->
<g id="edge13" class="edge">
<title>3&#45;&gt;6</title>
<path fill="none" stroke="#c0c0c0" stroke-width="2" d="M135.1147,-647.5185C127.7538,-637.5296 119.328,-624.6716 114,-612 105.6694,-592.1876 100.8467,-568.3321 98.1459,-550.1605"/>
<polygon fill="#c0c0c0" stroke="#c0c0c0" stroke-width="2" points="101.6059,-549.6289 96.7905,-540.1917 94.6698,-550.5721 101.6059,-549.6289"/>
</g>
<!-- 7 -->
<g id="node8" class="node">
<title>7</title>
<path fill="none" stroke="#d6d856" stroke-width="2" d="M165,-612C165,-612 135,-612 135,-612 129,-612 123,-606 123,-600 123,-600 123,-588 123,-588 123,-582 129,-576 135,-576 135,-576 165,-576 165,-576 171,-576 177,-582 177,-588 177,-588 177,-600 177,-600 177,-606 171,-612 165,-612"/>
<text text-anchor="middle" x="150" y="-591.5" font-family="sans" font-size="10.00" fill="#000000">loglog</text>
</g>
<!-- 3&#45;&gt;7 -->
<g id="edge14" class="edge">
<title>3&#45;&gt;7</title>
<path fill="none" stroke="#c0c0c0" stroke-width="2" d="M150,-647.8314C150,-640.131 150,-630.9743 150,-622.4166"/>
<polygon fill="#c0c0c0" stroke="#c0c0c0" stroke-width="2" points="153.5001,-622.4132 150,-612.4133 146.5001,-622.4133 153.5001,-622.4132"/>
</g>
<!-- 9 -->
<g id="node10" class="node">
<title>9</title>
<path fill="none" stroke="#56a9d8" stroke-width="2" d="M184.5,-324C184.5,-324 141.5,-324 141.5,-324 135.5,-324 129.5,-318 129.5,-312 129.5,-312 129.5,-300 129.5,-300 129.5,-294 135.5,-288 141.5,-288 141.5,-288 184.5,-288 184.5,-288 190.5,-288 196.5,-294 196.5,-300 196.5,-300 196.5,-312 196.5,-312 196.5,-318 190.5,-324 184.5,-324"/>
<text text-anchor="middle" x="163" y="-303.5" font-family="sans" font-size="10.00" fill="#000000">seqkit_grep</text>
</g>
<!-- 3&#45;&gt;9 -->
<g id="edge17" class="edge">
<title>3&#45;&gt;9</title>
<path fill="none" stroke="#c0c0c0" stroke-width="2" d="M164.3619,-647.9377C171.7594,-637.8611 180.3812,-624.7919 186,-612 202.56,-574.2989 208,-563.1777 208,-522 208,-522 208,-522 208,-450 208,-409.1184 202.1851,-398.697 189,-360 185.9278,-350.9835 181.728,-341.5101 177.5999,-333.0596"/>
<polygon fill="#c0c0c0" stroke="#c0c0c0" stroke-width="2" points="180.6705,-331.3758 173.0335,-324.0323 174.4242,-334.5354 180.6705,-331.3758"/>
</g>
<!-- 4 -->
<g id="node5" class="node">
<title>4</title>
<path fill="none" stroke="#56d8a9" stroke-width="2" d="M301.5,-468C301.5,-468 248.5,-468 248.5,-468 242.5,-468 236.5,-462 236.5,-456 236.5,-456 236.5,-444 236.5,-444 236.5,-438 242.5,-432 248.5,-432 248.5,-432 301.5,-432 301.5,-432 307.5,-432 313.5,-438 313.5,-444 313.5,-444 313.5,-456 313.5,-456 313.5,-462 307.5,-468 301.5,-468"/>
<text text-anchor="middle" x="275" y="-447.5" font-family="sans" font-size="10.00" fill="#000000">nonpareil_plot</text>
</g>
<!-- 4&#45;&gt;1 -->
<g id="edge4" class="edge">
<title>4&#45;&gt;1</title>
<path fill="none" stroke="#c0c0c0" stroke-width="2" d="M270.6488,-431.9379C264.4978,-404.7787 254,-351.7286 254,-306 254,-306 254,-306 254,-234 254,-193.5973 247.3181,-147.2552 242.3326,-118.3013"/>
<polygon fill="#c0c0c0" stroke="#c0c0c0" stroke-width="2" points="245.7165,-117.3387 240.5224,-108.1045 238.8243,-118.5623 245.7165,-117.3387"/>
</g>
<!-- 5&#45;&gt;4 -->
<g id="edge10" class="edge">
<title>5&#45;&gt;4</title>
<path fill="none" stroke="#c0c0c0" stroke-width="2" d="M275.8733,-575.7623C275.7028,-551.201 275.3976,-507.2474 275.1969,-478.3541"/>
<polygon fill="#c0c0c0" stroke="#c0c0c0" stroke-width="2" points="278.6951,-478.065 275.1256,-468.0896 271.6952,-478.1137 278.6951,-478.065"/>
</g>
<!-- 6&#45;&gt;2 -->
<g id="edge7" class="edge">
<title>6&#45;&gt;2</title>
<path fill="none" stroke="#c0c0c0" stroke-width="2" d="M80.5844,-503.9611C73.1712,-493.8913 64.5515,-480.8213 59,-468 42.6794,-430.3072 38,-419.0745 38,-378 38,-378 38,-378 38,-306 38,-262.7597 60.4945,-217.0187 77.2212,-188.9832"/>
<polygon fill="#c0c0c0" stroke="#c0c0c0" stroke-width="2" points="80.3756,-190.5353 82.6318,-180.1834 74.4126,-186.8688 80.3756,-190.5353"/>
</g>
<!-- 8 -->
<g id="node9" class="node">
<title>8</title>
<path fill="none" stroke="#5682d8" stroke-width="2" d="M110,-468C110,-468 80,-468 80,-468 74,-468 68,-462 68,-456 68,-456 68,-444 68,-444 68,-438 74,-432 80,-432 80,-432 110,-432 110,-432 116,-432 122,-438 122,-444 122,-444 122,-456 122,-456 122,-462 116,-468 110,-468"/>
<text text-anchor="middle" x="95" y="-447.5" font-family="sans" font-size="10.00" fill="#000000">vsearch</text>
</g>
<!-- 6&#45;&gt;8 -->
<g id="edge15" class="edge">
<title>6&#45;&gt;8</title>
<path fill="none" stroke="#c0c0c0" stroke-width="2" d="M95,-503.8314C95,-496.131 95,-486.9743 95,-478.4166"/>
<polygon fill="#c0c0c0" stroke="#c0c0c0" stroke-width="2" points="98.5001,-478.4132 95,-468.4133 91.5001,-478.4133 98.5001,-478.4132"/>
</g>
<!-- 7&#45;&gt;6 -->
<g id="edge12" class="edge">
<title>7&#45;&gt;6</title>
<path fill="none" stroke="#c0c0c0" stroke-width="2" d="M136.1212,-575.8314C129.7864,-567.5386 122.1616,-557.557 115.2074,-548.4533"/>
<polygon fill="#c0c0c0" stroke="#c0c0c0" stroke-width="2" points="117.9175,-546.2353 109.0657,-540.4133 112.3548,-550.4847 117.9175,-546.2353"/>
</g>
<!-- 8&#45;&gt;2 -->
<g id="edge5" class="edge">
<title>8&#45;&gt;2</title>
<path fill="none" stroke="#c0c0c0" stroke-width="2" d="M95,-431.9843C95,-383.2939 95,-248.7961 95,-190.0573"/>
<polygon fill="#c0c0c0" stroke="#c0c0c0" stroke-width="2" points="98.5001,-190.0088 95,-180.0089 91.5001,-190.0089 98.5001,-190.0088"/>
</g>
<!-- 10 -->
<g id="node11" class="node">
<title>10</title>
<path fill="none" stroke="#56d8d8" stroke-width="2" d="M167.5,-396C167.5,-396 116.5,-396 116.5,-396 110.5,-396 104.5,-390 104.5,-384 104.5,-384 104.5,-372 104.5,-372 104.5,-366 110.5,-360 116.5,-360 116.5,-360 167.5,-360 167.5,-360 173.5,-360 179.5,-366 179.5,-372 179.5,-372 179.5,-384 179.5,-384 179.5,-390 173.5,-396 167.5,-396"/>
<text text-anchor="middle" x="142" y="-375.5" font-family="sans" font-size="10.00" fill="#000000">seqkit_fx2tab</text>
</g>
<!-- 8&#45;&gt;10 -->
<g id="edge18" class="edge">
<title>8&#45;&gt;10</title>
<path fill="none" stroke="#c0c0c0" stroke-width="2" d="M106.8601,-431.8314C112.1629,-423.7079 118.5237,-413.9637 124.3673,-405.0118"/>
<polygon fill="#c0c0c0" stroke="#c0c0c0" stroke-width="2" points="127.4448,-406.7003 129.9802,-396.4133 121.5831,-402.8739 127.4448,-406.7003"/>
</g>
<!-- 9&#45;&gt;2 -->
<g id="edge9" class="edge">
<title>9&#45;&gt;2</title>
<path fill="none" stroke="#c0c0c0" stroke-width="2" d="M152.2267,-287.7654C146.2778,-277.4195 138.9179,-264.1483 133,-252 122.9725,-231.4156 112.9534,-207.5131 105.7224,-189.5164"/>
<polygon fill="#c0c0c0" stroke="#c0c0c0" stroke-width="2" points="108.9585,-188.1822 102.0097,-180.1844 102.4543,-190.7699 108.9585,-188.1822"/>
</g>
<!-- 11 -->
<g id="node12" class="node">
<title>11</title>
<path fill="none" stroke="#afd856" stroke-width="2" d="M214,-252C214,-252 154,-252 154,-252 148,-252 142,-246 142,-240 142,-240 142,-228 142,-228 142,-222 148,-216 154,-216 154,-216 214,-216 214,-216 220,-216 226,-222 226,-228 226,-228 226,-240 226,-240 226,-246 220,-252 214,-252"/>
<text text-anchor="middle" x="184" y="-231.5" font-family="sans" font-size="10.00" fill="#000000">low_complexity</text>
</g>
<!-- 9&#45;&gt;11 -->
<g id="edge19" class="edge">
<title>9&#45;&gt;11</title>
<path fill="none" stroke="#c0c0c0" stroke-width="2" d="M168.2992,-287.8314C170.5698,-280.0463 173.2746,-270.7729 175.794,-262.1347"/>
<polygon fill="#c0c0c0" stroke="#c0c0c0" stroke-width="2" points="179.1894,-262.9933 178.6295,-252.4133 172.4694,-261.0332 179.1894,-262.9933"/>
</g>
<!-- 10&#45;&gt;9 -->
<g id="edge16" class="edge">
<title>10&#45;&gt;9</title>
<path fill="none" stroke="#c0c0c0" stroke-width="2" d="M147.2992,-359.8314C149.5698,-352.0463 152.2746,-342.7729 154.794,-334.1347"/>
<polygon fill="#c0c0c0" stroke="#c0c0c0" stroke-width="2" points="158.1894,-334.9933 157.6295,-324.4133 151.4694,-333.0332 158.1894,-334.9933"/>
</g>
<!-- 11&#45;&gt;0 -->
<g id="edge1" class="edge">
<title>11&#45;&gt;0</title>
<path fill="none" stroke="#c0c0c0" stroke-width="2" d="M202.3354,-215.988C224.0852,-193.2045 259.1389,-151.6488 273,-108 279.3965,-87.8573 276.5799,-64.0188 272.4694,-45.9376"/>
<polygon fill="#c0c0c0" stroke="#c0c0c0" stroke-width="2" points="275.8078,-44.8629 269.9596,-36.0284 269.0221,-46.5817 275.8078,-44.8629"/>
</g>
<!-- 11&#45;&gt;2 -->
<g id="edge6" class="edge">
<title>11&#45;&gt;2</title>
<path fill="none" stroke="#c0c0c0" stroke-width="2" d="M161.5415,-215.8314C150.5795,-206.9632 137.2301,-196.1637 125.3735,-186.5718"/>
<polygon fill="#c0c0c0" stroke="#c0c0c0" stroke-width="2" points="127.4271,-183.7313 117.4513,-180.1628 123.0245,-189.1734 127.4271,-183.7313"/>
</g>
</g>
</svg>
