<?xml version="1.0" encoding="UTF-8" standalone="no"?>
<!DOCTYPE svg PUBLIC "-//W3C//DTD SVG 1.1//EN"
 "http://www.w3.org/Graphics/SVG/1.1/DTD/svg11.dtd">
<!-- Generated by graphviz version 2.40.1 (0)
 -->
<!-- Title: snakemake_dag Pages: 1 -->
<svg width="334pt" height="692pt"
 viewBox="0.00 0.00 333.67 692.00" xmlns="http://www.w3.org/2000/svg" xmlns:xlink="http://www.w3.org/1999/xlink">
<g id="graph0" class="graph" transform="scale(1 1) rotate(0) translate(4 688)">
<title>snakemake_dag</title>
<polygon fill="#ffffff" stroke="transparent" points="-4,4 -4,-688 329.6729,-688 329.6729,4 -4,4"/>
<!-- 0 -->
<g id="node1" class="node">
<title>0</title>
<path fill="none" stroke="#d85656" stroke-width="2" d="M125.6729,-36C125.6729,-36 95.6729,-36 95.6729,-36 89.6729,-36 83.6729,-30 83.6729,-24 83.6729,-24 83.6729,-12 83.6729,-12 83.6729,-6 89.6729,0 95.6729,0 95.6729,0 125.6729,0 125.6729,0 131.6729,0 137.6729,-6 137.6729,-12 137.6729,-12 137.6729,-24 137.6729,-24 137.6729,-30 131.6729,-36 125.6729,-36"/>
<text text-anchor="middle" x="110.6729" y="-15.5" font-family="sans" font-size="10.00" fill="#000000">all</text>
</g>
<!-- 1 -->
<g id="node2" class="node">
<title>1</title>
<path fill="none" stroke="#59d856" stroke-width="2" d="M156.6729,-108C156.6729,-108 126.6729,-108 126.6729,-108 120.6729,-108 114.6729,-102 114.6729,-96 114.6729,-96 114.6729,-84 114.6729,-84 114.6729,-78 120.6729,-72 126.6729,-72 126.6729,-72 156.6729,-72 156.6729,-72 162.6729,-72 168.6729,-78 168.6729,-84 168.6729,-84 168.6729,-96 168.6729,-96 168.6729,-102 162.6729,-108 156.6729,-108"/>
<text text-anchor="middle" x="141.6729" y="-87.5" font-family="sans" font-size="10.00" fill="#000000">multiqc</text>
</g>
<!-- 1&#45;&gt;0 -->
<g id="edge1" class="edge">
<title>1&#45;&gt;0</title>
<path fill="none" stroke="#c0c0c0" stroke-width="2" d="M133.8503,-71.8314C130.462,-63.9617 126.4188,-54.5712 122.6653,-45.8533"/>
<polygon fill="#c0c0c0" stroke="#c0c0c0" stroke-width="2" points="125.7702,-44.214 118.6009,-36.4133 119.3408,-46.9822 125.7702,-44.214"/>
</g>
<!-- 2 -->
<g id="node3" class="node">
<title>2</title>
<path fill="none" stroke="#d8ac56" stroke-width="2" d="M156.6729,-180C156.6729,-180 126.6729,-180 126.6729,-180 120.6729,-180 114.6729,-174 114.6729,-168 114.6729,-168 114.6729,-156 114.6729,-156 114.6729,-150 120.6729,-144 126.6729,-144 126.6729,-144 156.6729,-144 156.6729,-144 162.6729,-144 168.6729,-150 168.6729,-156 168.6729,-156 168.6729,-168 168.6729,-168 168.6729,-174 162.6729,-180 156.6729,-180"/>
<text text-anchor="middle" x="141.6729" y="-159.5" font-family="sans" font-size="10.00" fill="#000000">fastqc</text>
</g>
<!-- 2&#45;&gt;1 -->
<g id="edge4" class="edge">
<title>2&#45;&gt;1</title>
<path fill="none" stroke="#c0c0c0" stroke-width="2" d="M141.6729,-143.8314C141.6729,-136.131 141.6729,-126.9743 141.6729,-118.4166"/>
<polygon fill="#c0c0c0" stroke="#c0c0c0" stroke-width="2" points="145.173,-118.4132 141.6729,-108.4133 138.173,-118.4133 145.173,-118.4132"/>
</g>
<!-- 3 -->
<g id="node4" class="node">
<title>3</title>
<path fill="none" stroke="#80d856" stroke-width="2" d="M131.6729,-684C131.6729,-684 83.6729,-684 83.6729,-684 77.6729,-684 71.6729,-678 71.6729,-672 71.6729,-672 71.6729,-660 71.6729,-660 71.6729,-654 77.6729,-648 83.6729,-648 83.6729,-648 131.6729,-648 131.6729,-648 137.6729,-648 143.6729,-654 143.6729,-660 143.6729,-660 143.6729,-672 143.6729,-672 143.6729,-678 137.6729,-684 131.6729,-684"/>
<text text-anchor="middle" x="107.6729" y="-663.5" font-family="sans" font-size="10.00" fill="#000000">merge_lanes</text>
</g>
<!-- 3&#45;&gt;2 -->
<g id="edge8" class="edge">
<title>3&#45;&gt;2</title>
<path fill="none" stroke="#c0c0c0" stroke-width="2" d="M82.2833,-647.9792C50.9241,-623.3983 1.6729,-576.1699 1.6729,-522 1.6729,-522 1.6729,-522 1.6729,-306 1.6729,-265.1184 -5.0188,-247.8001 20.6729,-216 41.5038,-190.2165 77.219,-176.3502 104.4635,-169.1542"/>
<polygon fill="#c0c0c0" stroke="#c0c0c0" stroke-width="2" points="105.5607,-172.489 114.4418,-166.7119 103.8964,-165.6897 105.5607,-172.489"/>
</g>
<!-- 5 -->
<g id="node6" class="node">
<title>5</title>
<path fill="none" stroke="#56d882" stroke-width="2" d="M313.6729,-396C313.6729,-396 257.6729,-396 257.6729,-396 251.6729,-396 245.6729,-390 245.6729,-384 245.6729,-384 245.6729,-372 245.6729,-372 245.6729,-366 251.6729,-360 257.6729,-360 257.6729,-360 313.6729,-360 313.6729,-360 319.6729,-360 325.6729,-366 325.6729,-372 325.6729,-372 325.6729,-384 325.6729,-384 325.6729,-390 319.6729,-396 313.6729,-396"/>
<text text-anchor="middle" x="285.6729" y="-375.5" font-family="sans" font-size="10.00" fill="#000000">nonpareil_infer</text>
</g>
<!-- 3&#45;&gt;5 -->
<g id="edge12" class="edge">
<title>3&#45;&gt;5</title>
<path fill="none" stroke="#c0c0c0" stroke-width="2" d="M127.8806,-647.8109C138.6743,-637.6971 151.9145,-624.6329 162.6729,-612 188.0982,-582.1448 194.2813,-574.0844 213.6729,-540 239.4654,-494.665 262.6616,-438.3596 275.396,-405.4753"/>
<polygon fill="#c0c0c0" stroke="#c0c0c0" stroke-width="2" points="278.694,-406.6502 279.0035,-396.0599 272.1573,-404.1457 278.694,-406.6502"/>
</g>
<!-- 6 -->
<g id="node7" class="node">
<title>6</title>
<path fill="none" stroke="#d88556" stroke-width="2" d="M192.1729,-540C192.1729,-540 133.1729,-540 133.1729,-540 127.1729,-540 121.1729,-534 121.1729,-528 121.1729,-528 121.1729,-516 121.1729,-516 121.1729,-510 127.1729,-504 133.1729,-504 133.1729,-504 192.1729,-504 192.1729,-504 198.1729,-504 204.1729,-510 204.1729,-516 204.1729,-516 204.1729,-528 204.1729,-528 204.1729,-534 198.1729,-540 192.1729,-540"/>
<text text-anchor="middle" x="162.6729" y="-519.5" font-family="sans" font-size="10.00" fill="#000000">extend_tadpole</text>
</g>
<!-- 3&#45;&gt;6 -->
<g id="edge14" class="edge">
<title>3&#45;&gt;6</title>
<path fill="none" stroke="#c0c0c0" stroke-width="2" d="M122.5582,-647.5185C129.9191,-637.5296 138.3449,-624.6716 143.6729,-612 152.0035,-592.1876 156.8262,-568.3321 159.527,-550.1605"/>
<polygon fill="#c0c0c0" stroke="#c0c0c0" stroke-width="2" points="163.0032,-550.5721 160.8824,-540.1917 156.067,-549.6289 163.0032,-550.5721"/>
</g>
<!-- 7 -->
<g id="node8" class="node">
<title>7</title>
<path fill="none" stroke="#d6d856" stroke-width="2" d="M122.6729,-612C122.6729,-612 92.6729,-612 92.6729,-612 86.6729,-612 80.6729,-606 80.6729,-600 80.6729,-600 80.6729,-588 80.6729,-588 80.6729,-582 86.6729,-576 92.6729,-576 92.6729,-576 122.6729,-576 122.6729,-576 128.6729,-576 134.6729,-582 134.6729,-588 134.6729,-588 134.6729,-600 134.6729,-600 134.6729,-606 128.6729,-612 122.6729,-612"/>
<text text-anchor="middle" x="107.6729" y="-591.5" font-family="sans" font-size="10.00" fill="#000000">loglog</text>
</g>
<!-- 3&#45;&gt;7 -->
<g id="edge15" class="edge">
<title>3&#45;&gt;7</title>
<path fill="none" stroke="#c0c0c0" stroke-width="2" d="M107.6729,-647.8314C107.6729,-640.131 107.6729,-630.9743 107.6729,-622.4166"/>
<polygon fill="#c0c0c0" stroke="#c0c0c0" stroke-width="2" points="111.173,-622.4132 107.6729,-612.4133 104.173,-622.4133 111.173,-622.4132"/>
</g>
<!-- 9 -->
<g id="node10" class="node">
<title>9</title>
<path fill="none" stroke="#56a9d8" stroke-width="2" d="M114.1729,-324C114.1729,-324 71.1729,-324 71.1729,-324 65.1729,-324 59.1729,-318 59.1729,-312 59.1729,-312 59.1729,-300 59.1729,-300 59.1729,-294 65.1729,-288 71.1729,-288 71.1729,-288 114.1729,-288 114.1729,-288 120.1729,-288 126.1729,-294 126.1729,-300 126.1729,-300 126.1729,-312 126.1729,-312 126.1729,-318 120.1729,-324 114.1729,-324"/>
<text text-anchor="middle" x="92.6729" y="-303.5" font-family="sans" font-size="10.00" fill="#000000">seqkit_grep</text>
</g>
<!-- 3&#45;&gt;9 -->
<g id="edge17" class="edge">
<title>3&#45;&gt;9</title>
<path fill="none" stroke="#c0c0c0" stroke-width="2" d="M93.4172,-647.8904C86.0508,-637.7999 77.4248,-624.7326 71.6729,-612 54.6301,-574.2731 47.6729,-563.3978 47.6729,-522 47.6729,-522 47.6729,-522 47.6729,-450 47.6729,-409.1184 53.4878,-398.697 66.6729,-360 69.7451,-350.9835 73.9449,-341.5101 78.073,-333.0596"/>
<polygon fill="#c0c0c0" stroke="#c0c0c0" stroke-width="2" points="81.2488,-334.5354 82.6394,-324.0323 75.0024,-331.3758 81.2488,-334.5354"/>
</g>
<!-- 4 -->
<g id="node5" class="node">
<title>4</title>
<path fill="none" stroke="#56d8a9" stroke-width="2" d="M311.1729,-252C311.1729,-252 258.1729,-252 258.1729,-252 252.1729,-252 246.1729,-246 246.1729,-240 246.1729,-240 246.1729,-228 246.1729,-228 246.1729,-222 252.1729,-216 258.1729,-216 258.1729,-216 311.1729,-216 311.1729,-216 317.1729,-216 323.1729,-222 323.1729,-228 323.1729,-228 323.1729,-240 323.1729,-240 323.1729,-246 317.1729,-252 311.1729,-252"/>
<text text-anchor="middle" x="284.6729" y="-231.5" font-family="sans" font-size="10.00" fill="#000000">nonpareil_plot</text>
</g>
<!-- 4&#45;&gt;1 -->
<g id="edge3" class="edge">
<title>4&#45;&gt;1</title>
<path fill="none" stroke="#c0c0c0" stroke-width="2" d="M266.5619,-215.7623C241.3116,-190.3354 195.4223,-144.1253 166.8537,-115.3569"/>
<polygon fill="#c0c0c0" stroke="#c0c0c0" stroke-width="2" points="169.1668,-112.7191 159.6369,-108.0896 164.1998,-117.6516 169.1668,-112.7191"/>
</g>
<!-- 5&#45;&gt;4 -->
<g id="edge10" class="edge">
<title>5&#45;&gt;4</title>
<path fill="none" stroke="#c0c0c0" stroke-width="2" d="M285.5463,-359.7623C285.3757,-335.201 285.0705,-291.2474 284.8698,-262.3541"/>
<polygon fill="#c0c0c0" stroke="#c0c0c0" stroke-width="2" points="288.368,-262.065 284.7986,-252.0896 281.3682,-262.1137 288.368,-262.065"/>
</g>
<!-- 6&#45;&gt;2 -->
<g id="edge6" class="edge">
<title>6&#45;&gt;2</title>
<path fill="none" stroke="#c0c0c0" stroke-width="2" d="M177.5582,-503.5185C184.9191,-493.5296 193.3449,-480.6716 198.6729,-468 214.5188,-430.3142 217.6729,-418.8816 217.6729,-378 217.6729,-378 217.6729,-378 217.6729,-306 217.6729,-260.656 187.8345,-215.5999 165.5503,-188.2735"/>
<polygon fill="#c0c0c0" stroke="#c0c0c0" stroke-width="2" points="168.0314,-185.7856 158.9185,-180.3814 162.6723,-190.2889 168.0314,-185.7856"/>
</g>
<!-- 8 -->
<g id="node9" class="node">
<title>8</title>
<path fill="none" stroke="#5682d8" stroke-width="2" d="M177.6729,-468C177.6729,-468 147.6729,-468 147.6729,-468 141.6729,-468 135.6729,-462 135.6729,-456 135.6729,-456 135.6729,-444 135.6729,-444 135.6729,-438 141.6729,-432 147.6729,-432 147.6729,-432 177.6729,-432 177.6729,-432 183.6729,-432 189.6729,-438 189.6729,-444 189.6729,-444 189.6729,-456 189.6729,-456 189.6729,-462 183.6729,-468 177.6729,-468"/>
<text text-anchor="middle" x="162.6729" y="-447.5" font-family="sans" font-size="10.00" fill="#000000">vsearch</text>
</g>
<!-- 6&#45;&gt;8 -->
<g id="edge16" class="edge">
<title>6&#45;&gt;8</title>
<path fill="none" stroke="#c0c0c0" stroke-width="2" d="M162.6729,-503.8314C162.6729,-496.131 162.6729,-486.9743 162.6729,-478.4166"/>
<polygon fill="#c0c0c0" stroke="#c0c0c0" stroke-width="2" points="166.173,-478.4132 162.6729,-468.4133 159.173,-478.4133 166.173,-478.4132"/>
</g>
<!-- 7&#45;&gt;6 -->
<g id="edge13" class="edge">
<title>7&#45;&gt;6</title>
<path fill="none" stroke="#c0c0c0" stroke-width="2" d="M121.5518,-575.8314C127.8865,-567.5386 135.5113,-557.557 142.4655,-548.4533"/>
<polygon fill="#c0c0c0" stroke="#c0c0c0" stroke-width="2" points="145.3182,-550.4847 148.6072,-540.4133 139.7554,-546.2353 145.3182,-550.4847"/>
</g>
<!-- 8&#45;&gt;2 -->
<g id="edge9" class="edge">
<title>8&#45;&gt;2</title>
<path fill="none" stroke="#c0c0c0" stroke-width="2" d="M162.6596,-431.7125C162.5538,-413.517 162.1368,-384.8067 160.6729,-360 157.1088,-299.6017 149.5237,-229.1335 145.0909,-190.6693"/>
<polygon fill="#c0c0c0" stroke="#c0c0c0" stroke-width="2" points="148.5113,-189.7823 143.8772,-180.2547 141.5583,-190.5926 148.5113,-189.7823"/>
</g>
<!-- 8&#45;&gt;5 -->
<g id="edge11" class="edge">
<title>8&#45;&gt;5</title>
<path fill="none" stroke="#c0c0c0" stroke-width="2" d="M189.9706,-434.0209C206.3926,-424.408 227.5853,-412.0025 245.8519,-401.3099"/>
<polygon fill="#c0c0c0" stroke="#c0c0c0" stroke-width="2" points="247.6884,-404.2905 254.5504,-396.2181 244.1521,-398.2494 247.6884,-404.2905"/>
</g>
<!-- 10 -->
<g id="node11" class="node">
<title>10</title>
<path fill="none" stroke="#56d8d8" stroke-width="2" d="M139.1729,-396C139.1729,-396 88.1729,-396 88.1729,-396 82.1729,-396 76.1729,-390 76.1729,-384 76.1729,-384 76.1729,-372 76.1729,-372 76.1729,-366 82.1729,-360 88.1729,-360 88.1729,-360 139.1729,-360 139.1729,-360 145.1729,-360 151.1729,-366 151.1729,-372 151.1729,-372 151.1729,-384 151.1729,-384 151.1729,-390 145.1729,-396 139.1729,-396"/>
<text text-anchor="middle" x="113.6729" y="-375.5" font-family="sans" font-size="10.00" fill="#000000">seqkit_fx2tab</text>
</g>
<!-- 8&#45;&gt;10 -->
<g id="edge19" class="edge">
<title>8&#45;&gt;10</title>
<path fill="none" stroke="#c0c0c0" stroke-width="2" d="M150.3082,-431.8314C144.7221,-423.6232 138.01,-413.7606 131.8657,-404.7323"/>
<polygon fill="#c0c0c0" stroke="#c0c0c0" stroke-width="2" points="134.724,-402.7112 126.2042,-396.4133 128.937,-406.6496 134.724,-402.7112"/>
</g>
<!-- 9&#45;&gt;2 -->
<g id="edge7" class="edge">
<title>9&#45;&gt;2</title>
<path fill="none" stroke="#c0c0c0" stroke-width="2" d="M104.6633,-287.6709C110.8343,-277.5161 118.0184,-264.4574 122.6729,-252 130.1954,-231.8669 135.0598,-208.0279 137.9817,-189.9441"/>
<polygon fill="#c0c0c0" stroke="#c0c0c0" stroke-width="2" points="141.4458,-190.4446 139.4831,-180.0332 134.5247,-189.3961 141.4458,-190.4446"/>
</g>
<!-- 11 -->
<g id="node12" class="node">
<title>11</title>
<path fill="none" stroke="#afd856" stroke-width="2" d="M101.6729,-252C101.6729,-252 41.6729,-252 41.6729,-252 35.6729,-252 29.6729,-246 29.6729,-240 29.6729,-240 29.6729,-228 29.6729,-228 29.6729,-222 35.6729,-216 41.6729,-216 41.6729,-216 101.6729,-216 101.6729,-216 107.6729,-216 113.6729,-222 113.6729,-228 113.6729,-228 113.6729,-240 113.6729,-240 113.6729,-246 107.6729,-252 101.6729,-252"/>
<text text-anchor="middle" x="71.6729" y="-231.5" font-family="sans" font-size="10.00" fill="#000000">low_complexity</text>
</g>
<!-- 9&#45;&gt;11 -->
<g id="edge20" class="edge">
<title>9&#45;&gt;11</title>
<path fill="none" stroke="#c0c0c0" stroke-width="2" d="M87.3737,-287.8314C85.1031,-280.0463 82.3984,-270.7729 79.8789,-262.1347"/>
<polygon fill="#c0c0c0" stroke="#c0c0c0" stroke-width="2" points="83.2035,-261.0332 77.0435,-252.4133 76.4835,-262.9933 83.2035,-261.0332"/>
</g>
<!-- 10&#45;&gt;9 -->
<g id="edge18" class="edge">
<title>10&#45;&gt;9</title>
<path fill="none" stroke="#c0c0c0" stroke-width="2" d="M108.3737,-359.8314C106.1031,-352.0463 103.3984,-342.7729 100.8789,-334.1347"/>
<polygon fill="#c0c0c0" stroke="#c0c0c0" stroke-width="2" points="104.2035,-333.0332 98.0435,-324.4133 97.4835,-334.9933 104.2035,-333.0332"/>
</g>
<!-- 11&#45;&gt;0 -->
<g id="edge2" class="edge">
<title>11&#45;&gt;0</title>
<path fill="none" stroke="#c0c0c0" stroke-width="2" d="M74.931,-215.9555C81.7273,-178.3144 97.4587,-91.1867 105.5949,-46.1246"/>
<polygon fill="#c0c0c0" stroke="#c0c0c0" stroke-width="2" points="109.0641,-46.6079 107.3967,-36.1451 102.1755,-45.364 109.0641,-46.6079"/>
</g>
<!-- 11&#45;&gt;2 -->
<g id="edge5" class="edge">
<title>11&#45;&gt;2</title>
<path fill="none" stroke="#c0c0c0" stroke-width="2" d="M89.3369,-215.8314C97.6461,-207.2848 107.6993,-196.9443 116.7648,-187.6198"/>
<polygon fill="#c0c0c0" stroke="#c0c0c0" stroke-width="2" points="119.3098,-190.023 123.7711,-180.4133 114.2908,-185.1435 119.3098,-190.023"/>
</g>
</g>
</svg>
