<?xml version="1.0" encoding="UTF-8" standalone="no"?>
<!DOCTYPE svg PUBLIC "-//W3C//DTD SVG 1.1//EN"
 "http://www.w3.org/Graphics/SVG/1.1/DTD/svg11.dtd">
<!-- Generated by graphviz version 2.40.1 (0)
 -->
<!-- Title: snakemake_dag Pages: 1 -->
<svg width="1705pt" height="564pt"
 viewBox="0.00 0.00 1705.30 564.00" xmlns="http://www.w3.org/2000/svg" xmlns:xlink="http://www.w3.org/1999/xlink">
<g id="graph0" class="graph" transform="scale(1 1) rotate(0) translate(4 560)">
<title>snakemake_dag</title>
<polygon fill="#ffffff" stroke="transparent" points="-4,4 -4,-560 1701.2978,-560 1701.2978,4 -4,4"/>
<!-- 0 -->
<g id="node1" class="node">
<title>0</title>
<path fill="none" stroke="#d85656" stroke-width="2" d="M726.8881,-36C726.8881,-36 696.8881,-36 696.8881,-36 690.8881,-36 684.8881,-30 684.8881,-24 684.8881,-24 684.8881,-12 684.8881,-12 684.8881,-6 690.8881,0 696.8881,0 696.8881,0 726.8881,0 726.8881,0 732.8881,0 738.8881,-6 738.8881,-12 738.8881,-12 738.8881,-24 738.8881,-24 738.8881,-30 732.8881,-36 726.8881,-36"/>
<text text-anchor="middle" x="711.8881" y="-15.5" font-family="sans" font-size="10.00" fill="#000000">all</text>
</g>
<!-- 1 -->
<g id="node2" class="node">
<title>1</title>
<path fill="none" stroke="#80d856" stroke-width="2" d="M869.8881,-108C869.8881,-108 839.8881,-108 839.8881,-108 833.8881,-108 827.8881,-102 827.8881,-96 827.8881,-96 827.8881,-84 827.8881,-84 827.8881,-78 833.8881,-72 839.8881,-72 839.8881,-72 869.8881,-72 869.8881,-72 875.8881,-72 881.8881,-78 881.8881,-84 881.8881,-84 881.8881,-96 881.8881,-96 881.8881,-102 875.8881,-108 869.8881,-108"/>
<text text-anchor="middle" x="854.8881" y="-87.5" font-family="sans" font-size="10.00" fill="#000000">multiqc</text>
</g>
<!-- 1&#45;&gt;0 -->
<g id="edge1" class="edge">
<title>1&#45;&gt;0</title>
<path fill="none" stroke="#c0c0c0" stroke-width="2" d="M827.6543,-76.2879C805.0916,-64.9277 772.8332,-48.6857 748.0968,-36.231"/>
<polygon fill="#c0c0c0" stroke="#c0c0c0" stroke-width="2" points="749.5262,-33.0321 739.0205,-31.6611 746.3782,-39.2843 749.5262,-33.0321"/>
</g>
<!-- 2 -->
<g id="node3" class="node">
<title>2</title>
<path fill="none" stroke="#56a9d8" stroke-width="2" d="M1209.8881,-180C1209.8881,-180 1139.8881,-180 1139.8881,-180 1133.8881,-180 1127.8881,-174 1127.8881,-168 1127.8881,-168 1127.8881,-156 1127.8881,-156 1127.8881,-150 1133.8881,-144 1139.8881,-144 1139.8881,-144 1209.8881,-144 1209.8881,-144 1215.8881,-144 1221.8881,-150 1221.8881,-156 1221.8881,-156 1221.8881,-168 1221.8881,-168 1221.8881,-174 1215.8881,-180 1209.8881,-180"/>
<text text-anchor="middle" x="1174.8881" y="-165" font-family="sans" font-size="10.00" fill="#000000">seqkit_stats</text>
<text text-anchor="middle" x="1174.8881" y="-154" font-family="sans" font-size="10.00" fill="#000000">tool: merge_lanes</text>
</g>
<!-- 2&#45;&gt;1 -->
<g id="edge5" class="edge">
<title>2&#45;&gt;1</title>
<path fill="none" stroke="#c0c0c0" stroke-width="2" d="M1127.6384,-146.4121C1124.6871,-145.5628 1121.7528,-144.751 1118.8881,-144 1038.8721,-123.0239 943.4453,-105.2627 892.0687,-96.2822"/>
<polygon fill="#c0c0c0" stroke="#c0c0c0" stroke-width="2" points="892.5478,-92.8132 882.0968,-94.553 891.3517,-99.7102 892.5478,-92.8132"/>
</g>
<!-- 3 -->
<g id="node4" class="node">
<title>3</title>
<path fill="none" stroke="#afd856" stroke-width="2" d="M1076.8881,-556C1076.8881,-556 972.8881,-556 972.8881,-556 966.8881,-556 960.8881,-550 960.8881,-544 960.8881,-544 960.8881,-516 960.8881,-516 960.8881,-510 966.8881,-504 972.8881,-504 972.8881,-504 1076.8881,-504 1076.8881,-504 1082.8881,-504 1088.8881,-510 1088.8881,-516 1088.8881,-516 1088.8881,-544 1088.8881,-544 1088.8881,-550 1082.8881,-556 1076.8881,-556"/>
<text text-anchor="middle" x="1024.8881" y="-544" font-family="sans" font-size="10.00" fill="#000000">merge_lanes</text>
<text text-anchor="middle" x="1024.8881" y="-533" font-family="sans" font-size="10.00" fill="#000000">library: lib2</text>
<text text-anchor="middle" x="1024.8881" y="-522" font-family="sans" font-size="10.00" fill="#000000">read_type_trim: collapsed</text>
<text text-anchor="middle" x="1024.8881" y="-511" font-family="sans" font-size="10.00" fill="#000000">sample: HD827sonic_2</text>
</g>
<!-- 3&#45;&gt;2 -->
<g id="edge23" class="edge">
<title>3&#45;&gt;2</title>
<path fill="none" stroke="#c0c0c0" stroke-width="2" d="M1082.6381,-503.8586C1098.651,-494.4051 1114.908,-482.4294 1126.8881,-468 1154.2019,-435.1017 1160.8881,-420.7592 1160.8881,-378 1160.8881,-378 1160.8881,-378 1160.8881,-306 1160.8881,-265.6868 1166.3908,-219.322 1170.4965,-190.3387"/>
<polygon fill="#c0c0c0" stroke="#c0c0c0" stroke-width="2" points="1174.0054,-190.5313 1171.9872,-180.1304 1167.0789,-189.5197 1174.0054,-190.5313"/>
</g>
<!-- 11 -->
<g id="node12" class="node">
<title>11</title>
<path fill="none" stroke="#59d856" stroke-width="2" d="M1105.8881,-468C1105.8881,-468 1035.8881,-468 1035.8881,-468 1029.8881,-468 1023.8881,-462 1023.8881,-456 1023.8881,-456 1023.8881,-444 1023.8881,-444 1023.8881,-438 1029.8881,-432 1035.8881,-432 1035.8881,-432 1105.8881,-432 1105.8881,-432 1111.8881,-432 1117.8881,-438 1117.8881,-444 1117.8881,-444 1117.8881,-456 1117.8881,-456 1117.8881,-462 1111.8881,-468 1105.8881,-468"/>
<text text-anchor="middle" x="1070.8881" y="-453" font-family="sans" font-size="10.00" fill="#000000">nonpareil_infer</text>
<text text-anchor="middle" x="1070.8881" y="-442" font-family="sans" font-size="10.00" fill="#000000">tool: merge_lanes</text>
</g>
<!-- 3&#45;&gt;11 -->
<g id="edge29" class="edge">
<title>3&#45;&gt;11</title>
<path fill="none" stroke="#c0c0c0" stroke-width="2" d="M1039.9502,-503.805C1044.8762,-495.238 1050.3559,-485.7081 1055.3186,-477.0774"/>
<polygon fill="#c0c0c0" stroke="#c0c0c0" stroke-width="2" points="1058.4994,-478.567 1060.4499,-468.1532 1052.431,-475.0776 1058.4994,-478.567"/>
</g>
<!-- 15 -->
<g id="node16" class="node">
<title>15</title>
<path fill="none" stroke="#d88556" stroke-width="2" d="M953.3881,-396C953.3881,-396 894.3881,-396 894.3881,-396 888.3881,-396 882.3881,-390 882.3881,-384 882.3881,-384 882.3881,-372 882.3881,-372 882.3881,-366 888.3881,-360 894.3881,-360 894.3881,-360 953.3881,-360 953.3881,-360 959.3881,-360 965.3881,-366 965.3881,-372 965.3881,-372 965.3881,-384 965.3881,-384 965.3881,-390 959.3881,-396 953.3881,-396"/>
<text text-anchor="middle" x="923.8881" y="-375.5" font-family="sans" font-size="10.00" fill="#000000">extend_tadpole</text>
</g>
<!-- 3&#45;&gt;15 -->
<g id="edge33" class="edge">
<title>3&#45;&gt;15</title>
<path fill="none" stroke="#c0c0c0" stroke-width="2" d="M978.7398,-503.9534C965.3253,-494.2839 951.8808,-482.1627 942.8881,-468 931.1697,-449.5448 926.5509,-425.0916 924.7897,-406.3325"/>
<polygon fill="#c0c0c0" stroke="#c0c0c0" stroke-width="2" points="928.2766,-406.0243 924.0644,-396.3028 921.2949,-406.5292 928.2766,-406.0243"/>
</g>
<!-- 16 -->
<g id="node17" class="node">
<title>16</title>
<path fill="none" stroke="#d8ac56" stroke-width="2" d="M993.8881,-468C993.8881,-468 963.8881,-468 963.8881,-468 957.8881,-468 951.8881,-462 951.8881,-456 951.8881,-456 951.8881,-444 951.8881,-444 951.8881,-438 957.8881,-432 963.8881,-432 963.8881,-432 993.8881,-432 993.8881,-432 999.8881,-432 1005.8881,-438 1005.8881,-444 1005.8881,-444 1005.8881,-456 1005.8881,-456 1005.8881,-462 999.8881,-468 993.8881,-468"/>
<text text-anchor="middle" x="978.8881" y="-447.5" font-family="sans" font-size="10.00" fill="#000000">loglog</text>
</g>
<!-- 3&#45;&gt;16 -->
<g id="edge35" class="edge">
<title>3&#45;&gt;16</title>
<path fill="none" stroke="#c0c0c0" stroke-width="2" d="M1009.8259,-503.805C1004.8999,-495.238 999.4202,-485.7081 994.4575,-477.0774"/>
<polygon fill="#c0c0c0" stroke="#c0c0c0" stroke-width="2" points="997.3451,-475.0776 989.3262,-468.1532 991.2768,-478.567 997.3451,-475.0776"/>
</g>
<!-- 4 -->
<g id="node5" class="node">
<title>4</title>
<path fill="none" stroke="#56a9d8" stroke-width="2" d="M575.8881,-396C575.8881,-396 505.8881,-396 505.8881,-396 499.8881,-396 493.8881,-390 493.8881,-384 493.8881,-384 493.8881,-372 493.8881,-372 493.8881,-366 499.8881,-360 505.8881,-360 505.8881,-360 575.8881,-360 575.8881,-360 581.8881,-360 587.8881,-366 587.8881,-372 587.8881,-372 587.8881,-384 587.8881,-384 587.8881,-390 581.8881,-396 575.8881,-396"/>
<text text-anchor="middle" x="540.8881" y="-381" font-family="sans" font-size="10.00" fill="#000000">seqkit_stats</text>
<text text-anchor="middle" x="540.8881" y="-370" font-family="sans" font-size="10.00" fill="#000000">tool: merge_lanes</text>
</g>
<!-- 4&#45;&gt;1 -->
<g id="edge6" class="edge">
<title>4&#45;&gt;1</title>
<path fill="none" stroke="#c0c0c0" stroke-width="2" d="M538.4544,-359.7171C533.723,-315.7835 528.449,-203.5186 587.8881,-144 619.7026,-112.1428 751.8883,-97.8023 817.5441,-92.5447"/>
<polygon fill="#c0c0c0" stroke="#c0c0c0" stroke-width="2" points="818.1604,-96.0077 827.8619,-91.7496 817.6225,-89.0284 818.1604,-96.0077"/>
</g>
<!-- 5 -->
<g id="node6" class="node">
<title>5</title>
<path fill="none" stroke="#afd856" stroke-width="2" d="M451.8881,-556C451.8881,-556 347.8881,-556 347.8881,-556 341.8881,-556 335.8881,-550 335.8881,-544 335.8881,-544 335.8881,-516 335.8881,-516 335.8881,-510 341.8881,-504 347.8881,-504 347.8881,-504 451.8881,-504 451.8881,-504 457.8881,-504 463.8881,-510 463.8881,-516 463.8881,-516 463.8881,-544 463.8881,-544 463.8881,-550 457.8881,-556 451.8881,-556"/>
<text text-anchor="middle" x="399.8881" y="-544" font-family="sans" font-size="10.00" fill="#000000">merge_lanes</text>
<text text-anchor="middle" x="399.8881" y="-533" font-family="sans" font-size="10.00" fill="#000000">library: lib1</text>
<text text-anchor="middle" x="399.8881" y="-522" font-family="sans" font-size="10.00" fill="#000000">read_type_trim: collapsed</text>
<text text-anchor="middle" x="399.8881" y="-511" font-family="sans" font-size="10.00" fill="#000000">sample: HD827sonic_2</text>
</g>
<!-- 5&#45;&gt;4 -->
<g id="edge24" class="edge">
<title>5&#45;&gt;4</title>
<path fill="none" stroke="#c0c0c0" stroke-width="2" d="M456.4156,-503.9639C472.6671,-494.4239 489.3631,-482.3739 501.8881,-468 517.5348,-450.0434 527.7257,-424.8437 533.7519,-405.6751"/>
<polygon fill="#c0c0c0" stroke="#c0c0c0" stroke-width="2" points="537.1331,-406.5832 536.6049,-396.0015 530.419,-404.6029 537.1331,-406.5832"/>
</g>
<!-- 9 -->
<g id="node10" class="node">
<title>9</title>
<path fill="none" stroke="#59d856" stroke-width="2" d="M480.8881,-468C480.8881,-468 410.8881,-468 410.8881,-468 404.8881,-468 398.8881,-462 398.8881,-456 398.8881,-456 398.8881,-444 398.8881,-444 398.8881,-438 404.8881,-432 410.8881,-432 410.8881,-432 480.8881,-432 480.8881,-432 486.8881,-432 492.8881,-438 492.8881,-444 492.8881,-444 492.8881,-456 492.8881,-456 492.8881,-462 486.8881,-468 480.8881,-468"/>
<text text-anchor="middle" x="445.8881" y="-453" font-family="sans" font-size="10.00" fill="#000000">nonpareil_infer</text>
<text text-anchor="middle" x="445.8881" y="-442" font-family="sans" font-size="10.00" fill="#000000">tool: merge_lanes</text>
</g>
<!-- 5&#45;&gt;9 -->
<g id="edge27" class="edge">
<title>5&#45;&gt;9</title>
<path fill="none" stroke="#c0c0c0" stroke-width="2" d="M414.9502,-503.805C419.8762,-495.238 425.3559,-485.7081 430.3186,-477.0774"/>
<polygon fill="#c0c0c0" stroke="#c0c0c0" stroke-width="2" points="433.4994,-478.567 435.4499,-468.1532 427.431,-475.0776 433.4994,-478.567"/>
</g>
<!-- 18 -->
<g id="node19" class="node">
<title>18</title>
<path fill="none" stroke="#d88556" stroke-width="2" d="M347.3881,-396C347.3881,-396 288.3881,-396 288.3881,-396 282.3881,-396 276.3881,-390 276.3881,-384 276.3881,-384 276.3881,-372 276.3881,-372 276.3881,-366 282.3881,-360 288.3881,-360 288.3881,-360 347.3881,-360 347.3881,-360 353.3881,-360 359.3881,-366 359.3881,-372 359.3881,-372 359.3881,-384 359.3881,-384 359.3881,-390 353.3881,-396 347.3881,-396"/>
<text text-anchor="middle" x="317.8881" y="-375.5" font-family="sans" font-size="10.00" fill="#000000">extend_tadpole</text>
</g>
<!-- 5&#45;&gt;18 -->
<g id="edge37" class="edge">
<title>5&#45;&gt;18</title>
<path fill="none" stroke="#c0c0c0" stroke-width="2" d="M350.1926,-503.741C337.3027,-494.3131 325.0435,-482.3808 317.8881,-468 308.418,-448.9673 309.0139,-424.7442 311.6512,-406.2235"/>
<polygon fill="#c0c0c0" stroke="#c0c0c0" stroke-width="2" points="315.1085,-406.7696 313.3271,-396.3256 308.2068,-405.601 315.1085,-406.7696"/>
</g>
<!-- 19 -->
<g id="node20" class="node">
<title>19</title>
<path fill="none" stroke="#d8ac56" stroke-width="2" d="M368.8881,-468C368.8881,-468 338.8881,-468 338.8881,-468 332.8881,-468 326.8881,-462 326.8881,-456 326.8881,-456 326.8881,-444 326.8881,-444 326.8881,-438 332.8881,-432 338.8881,-432 338.8881,-432 368.8881,-432 368.8881,-432 374.8881,-432 380.8881,-438 380.8881,-444 380.8881,-444 380.8881,-456 380.8881,-456 380.8881,-462 374.8881,-468 368.8881,-468"/>
<text text-anchor="middle" x="353.8881" y="-447.5" font-family="sans" font-size="10.00" fill="#000000">loglog</text>
</g>
<!-- 5&#45;&gt;19 -->
<g id="edge39" class="edge">
<title>5&#45;&gt;19</title>
<path fill="none" stroke="#c0c0c0" stroke-width="2" d="M384.8259,-503.805C379.8999,-495.238 374.4202,-485.7081 369.4575,-477.0774"/>
<polygon fill="#c0c0c0" stroke="#c0c0c0" stroke-width="2" points="372.3451,-475.0776 364.3262,-468.1532 366.2768,-478.567 372.3451,-475.0776"/>
</g>
<!-- 6 -->
<g id="node7" class="node">
<title>6</title>
<path fill="none" stroke="#56a9d8" stroke-width="2" d="M1284.8881,-396C1284.8881,-396 1214.8881,-396 1214.8881,-396 1208.8881,-396 1202.8881,-390 1202.8881,-384 1202.8881,-384 1202.8881,-372 1202.8881,-372 1202.8881,-366 1208.8881,-360 1214.8881,-360 1214.8881,-360 1284.8881,-360 1284.8881,-360 1290.8881,-360 1296.8881,-366 1296.8881,-372 1296.8881,-372 1296.8881,-384 1296.8881,-384 1296.8881,-390 1290.8881,-396 1284.8881,-396"/>
<text text-anchor="middle" x="1249.8881" y="-381" font-family="sans" font-size="10.00" fill="#000000">seqkit_stats</text>
<text text-anchor="middle" x="1249.8881" y="-370" font-family="sans" font-size="10.00" fill="#000000">tool: merge_lanes</text>
</g>
<!-- 6&#45;&gt;1 -->
<g id="edge7" class="edge">
<title>6&#45;&gt;1</title>
<path fill="none" stroke="#c0c0c0" stroke-width="2" d="M1255.0699,-359.8151C1266.3026,-316.0991 1287.564,-204.2807 1230.8881,-144 1207.8309,-119.4764 982.398,-99.7227 892.054,-92.7288"/>
<polygon fill="#c0c0c0" stroke="#c0c0c0" stroke-width="2" points="892.2168,-89.2311 881.979,-91.9585 891.6831,-96.2107 892.2168,-89.2311"/>
</g>
<!-- 7 -->
<g id="node8" class="node">
<title>7</title>
<path fill="none" stroke="#afd856" stroke-width="2" d="M1442.8881,-556C1442.8881,-556 1338.8881,-556 1338.8881,-556 1332.8881,-556 1326.8881,-550 1326.8881,-544 1326.8881,-544 1326.8881,-516 1326.8881,-516 1326.8881,-510 1332.8881,-504 1338.8881,-504 1338.8881,-504 1442.8881,-504 1442.8881,-504 1448.8881,-504 1454.8881,-510 1454.8881,-516 1454.8881,-516 1454.8881,-544 1454.8881,-544 1454.8881,-550 1448.8881,-556 1442.8881,-556"/>
<text text-anchor="middle" x="1390.8881" y="-544" font-family="sans" font-size="10.00" fill="#000000">merge_lanes</text>
<text text-anchor="middle" x="1390.8881" y="-533" font-family="sans" font-size="10.00" fill="#000000">library: lib1</text>
<text text-anchor="middle" x="1390.8881" y="-522" font-family="sans" font-size="10.00" fill="#000000">read_type_trim: collapsed</text>
<text text-anchor="middle" x="1390.8881" y="-511" font-family="sans" font-size="10.00" fill="#000000">sample: HD827sonic_1</text>
</g>
<!-- 7&#45;&gt;6 -->
<g id="edge25" class="edge">
<title>7&#45;&gt;6</title>
<path fill="none" stroke="#c0c0c0" stroke-width="2" d="M1341.9753,-503.7916C1326.6051,-493.9714 1310.3992,-481.8021 1297.8881,-468 1281.2787,-449.6768 1268.5061,-424.5609 1260.3273,-405.5166"/>
<polygon fill="#c0c0c0" stroke="#c0c0c0" stroke-width="2" points="1263.5238,-404.0873 1256.4729,-396.1793 1257.0534,-406.7583 1263.5238,-404.0873"/>
</g>
<!-- 13 -->
<g id="node14" class="node">
<title>13</title>
<path fill="none" stroke="#59d856" stroke-width="2" d="M1388.8881,-468C1388.8881,-468 1318.8881,-468 1318.8881,-468 1312.8881,-468 1306.8881,-462 1306.8881,-456 1306.8881,-456 1306.8881,-444 1306.8881,-444 1306.8881,-438 1312.8881,-432 1318.8881,-432 1318.8881,-432 1388.8881,-432 1388.8881,-432 1394.8881,-432 1400.8881,-438 1400.8881,-444 1400.8881,-444 1400.8881,-456 1400.8881,-456 1400.8881,-462 1394.8881,-468 1388.8881,-468"/>
<text text-anchor="middle" x="1353.8881" y="-453" font-family="sans" font-size="10.00" fill="#000000">nonpareil_infer</text>
<text text-anchor="middle" x="1353.8881" y="-442" font-family="sans" font-size="10.00" fill="#000000">tool: merge_lanes</text>
</g>
<!-- 7&#45;&gt;13 -->
<g id="edge31" class="edge">
<title>7&#45;&gt;13</title>
<path fill="none" stroke="#c0c0c0" stroke-width="2" d="M1378.7729,-503.805C1374.8528,-495.3292 1370.4968,-485.9107 1366.5389,-477.3531"/>
<polygon fill="#c0c0c0" stroke="#c0c0c0" stroke-width="2" points="1369.6585,-475.7603 1362.2839,-468.1532 1363.3051,-478.6988 1369.6585,-475.7603"/>
</g>
<!-- 21 -->
<g id="node22" class="node">
<title>21</title>
<path fill="none" stroke="#d88556" stroke-width="2" d="M1513.3881,-396C1513.3881,-396 1454.3881,-396 1454.3881,-396 1448.3881,-396 1442.3881,-390 1442.3881,-384 1442.3881,-384 1442.3881,-372 1442.3881,-372 1442.3881,-366 1448.3881,-360 1454.3881,-360 1454.3881,-360 1513.3881,-360 1513.3881,-360 1519.3881,-360 1525.3881,-366 1525.3881,-372 1525.3881,-372 1525.3881,-384 1525.3881,-384 1525.3881,-390 1519.3881,-396 1513.3881,-396"/>
<text text-anchor="middle" x="1483.8881" y="-375.5" font-family="sans" font-size="10.00" fill="#000000">extend_tadpole</text>
</g>
<!-- 7&#45;&gt;21 -->
<g id="edge41" class="edge">
<title>7&#45;&gt;21</title>
<path fill="none" stroke="#c0c0c0" stroke-width="2" d="M1405.4629,-503.9511C1416.7341,-484.0538 1432.8952,-456.0526 1447.8881,-432 1453.4618,-423.0582 1459.7673,-413.4434 1465.5262,-404.8405"/>
<polygon fill="#c0c0c0" stroke="#c0c0c0" stroke-width="2" points="1468.5878,-406.5604 1471.276,-396.3123 1462.7837,-402.6472 1468.5878,-406.5604"/>
</g>
<!-- 22 -->
<g id="node23" class="node">
<title>22</title>
<path fill="none" stroke="#d8ac56" stroke-width="2" d="M1498.8881,-468C1498.8881,-468 1468.8881,-468 1468.8881,-468 1462.8881,-468 1456.8881,-462 1456.8881,-456 1456.8881,-456 1456.8881,-444 1456.8881,-444 1456.8881,-438 1462.8881,-432 1468.8881,-432 1468.8881,-432 1498.8881,-432 1498.8881,-432 1504.8881,-432 1510.8881,-438 1510.8881,-444 1510.8881,-444 1510.8881,-456 1510.8881,-456 1510.8881,-462 1504.8881,-468 1498.8881,-468"/>
<text text-anchor="middle" x="1483.8881" y="-447.5" font-family="sans" font-size="10.00" fill="#000000">loglog</text>
</g>
<!-- 7&#45;&gt;22 -->
<g id="edge43" class="edge">
<title>7&#45;&gt;22</title>
<path fill="none" stroke="#c0c0c0" stroke-width="2" d="M1421.3397,-503.805C1432.1464,-494.5089 1444.2713,-484.079 1454.9482,-474.8945"/>
<polygon fill="#c0c0c0" stroke="#c0c0c0" stroke-width="2" points="1457.4863,-477.328 1462.7849,-468.1532 1452.9214,-472.0212 1457.4863,-477.328"/>
</g>
<!-- 8 -->
<g id="node9" class="node">
<title>8</title>
<path fill="none" stroke="#56d882" stroke-width="2" d="M463.3881,-396C463.3881,-396 410.3881,-396 410.3881,-396 404.3881,-396 398.3881,-390 398.3881,-384 398.3881,-384 398.3881,-372 398.3881,-372 398.3881,-366 404.3881,-360 410.3881,-360 410.3881,-360 463.3881,-360 463.3881,-360 469.3881,-360 475.3881,-366 475.3881,-372 475.3881,-372 475.3881,-384 475.3881,-384 475.3881,-390 469.3881,-396 463.3881,-396"/>
<text text-anchor="middle" x="436.8881" y="-375.5" font-family="sans" font-size="10.00" fill="#000000">nonpareil_plot</text>
</g>
<!-- 8&#45;&gt;1 -->
<g id="edge8" class="edge">
<title>8&#45;&gt;1</title>
<path fill="none" stroke="#c0c0c0" stroke-width="2" d="M446.3226,-359.798C474.6937,-305.0942 557.4383,-145.801 559.8881,-144 600.3878,-114.2255 747.617,-98.6456 817.5343,-92.7863"/>
<polygon fill="#c0c0c0" stroke="#c0c0c0" stroke-width="2" points="817.9833,-96.2614 827.6658,-91.9601 817.4144,-89.2845 817.9833,-96.2614"/>
</g>
<!-- 9&#45;&gt;8 -->
<g id="edge26" class="edge">
<title>9&#45;&gt;8</title>
<path fill="none" stroke="#c0c0c0" stroke-width="2" d="M443.617,-431.8314C442.6544,-424.131 441.5098,-414.9743 440.4401,-406.4166"/>
<polygon fill="#c0c0c0" stroke="#c0c0c0" stroke-width="2" points="443.9031,-405.9019 439.1897,-396.4133 436.9572,-406.7702 443.9031,-405.9019"/>
</g>
<!-- 10 -->
<g id="node11" class="node">
<title>10</title>
<path fill="none" stroke="#56d882" stroke-width="2" d="M1097.3881,-180C1097.3881,-180 1044.3881,-180 1044.3881,-180 1038.3881,-180 1032.3881,-174 1032.3881,-168 1032.3881,-168 1032.3881,-156 1032.3881,-156 1032.3881,-150 1038.3881,-144 1044.3881,-144 1044.3881,-144 1097.3881,-144 1097.3881,-144 1103.3881,-144 1109.3881,-150 1109.3881,-156 1109.3881,-156 1109.3881,-168 1109.3881,-168 1109.3881,-174 1103.3881,-180 1097.3881,-180"/>
<text text-anchor="middle" x="1070.8881" y="-159.5" font-family="sans" font-size="10.00" fill="#000000">nonpareil_plot</text>
</g>
<!-- 10&#45;&gt;1 -->
<g id="edge9" class="edge">
<title>10&#45;&gt;1</title>
<path fill="none" stroke="#c0c0c0" stroke-width="2" d="M1032.1731,-147.3008C1029.0382,-146.1658 1025.9141,-145.053 1022.8881,-144 977.9871,-128.3749 925.7902,-111.8505 891.6415,-101.2587"/>
<polygon fill="#c0c0c0" stroke="#c0c0c0" stroke-width="2" points="892.6685,-97.9128 882.0808,-98.302 890.6003,-104.6003 892.6685,-97.9128"/>
</g>
<!-- 11&#45;&gt;10 -->
<g id="edge28" class="edge">
<title>11&#45;&gt;10</title>
<path fill="none" stroke="#c0c0c0" stroke-width="2" d="M1070.8881,-431.9843C1070.8881,-383.2939 1070.8881,-248.7961 1070.8881,-190.0573"/>
<polygon fill="#c0c0c0" stroke="#c0c0c0" stroke-width="2" points="1074.3882,-190.0088 1070.8881,-180.0089 1067.3882,-190.0089 1074.3882,-190.0088"/>
</g>
<!-- 12 -->
<g id="node13" class="node">
<title>12</title>
<path fill="none" stroke="#56d882" stroke-width="2" d="M1380.3881,-396C1380.3881,-396 1327.3881,-396 1327.3881,-396 1321.3881,-396 1315.3881,-390 1315.3881,-384 1315.3881,-384 1315.3881,-372 1315.3881,-372 1315.3881,-366 1321.3881,-360 1327.3881,-360 1327.3881,-360 1380.3881,-360 1380.3881,-360 1386.3881,-360 1392.3881,-366 1392.3881,-372 1392.3881,-372 1392.3881,-384 1392.3881,-384 1392.3881,-390 1386.3881,-396 1380.3881,-396"/>
<text text-anchor="middle" x="1353.8881" y="-375.5" font-family="sans" font-size="10.00" fill="#000000">nonpareil_plot</text>
</g>
<!-- 12&#45;&gt;1 -->
<g id="edge10" class="edge">
<title>12&#45;&gt;1</title>
<path fill="none" stroke="#c0c0c0" stroke-width="2" d="M1334.1991,-359.5771C1324.7588,-349.801 1313.9879,-337.1161 1306.8881,-324 1267.3055,-250.8768 1318.7127,-198.4687 1255.8881,-144 1228.6101,-120.3501 986.5511,-99.8609 892.2554,-92.707"/>
<polygon fill="#c0c0c0" stroke="#c0c0c0" stroke-width="2" points="892.2661,-89.1981 882.0322,-91.9399 891.7422,-96.1785 892.2661,-89.1981"/>
</g>
<!-- 13&#45;&gt;12 -->
<g id="edge30" class="edge">
<title>13&#45;&gt;12</title>
<path fill="none" stroke="#c0c0c0" stroke-width="2" d="M1353.8881,-431.8314C1353.8881,-424.131 1353.8881,-414.9743 1353.8881,-406.4166"/>
<polygon fill="#c0c0c0" stroke="#c0c0c0" stroke-width="2" points="1357.3882,-406.4132 1353.8881,-396.4133 1350.3882,-406.4133 1357.3882,-406.4132"/>
</g>
<!-- 14 -->
<g id="node15" class="node">
<title>14</title>
<path fill="none" stroke="#56a9d8" stroke-width="2" d="M1001.8881,-180C1001.8881,-180 923.8881,-180 923.8881,-180 917.8881,-180 911.8881,-174 911.8881,-168 911.8881,-168 911.8881,-156 911.8881,-156 911.8881,-150 917.8881,-144 923.8881,-144 923.8881,-144 1001.8881,-144 1001.8881,-144 1007.8881,-144 1013.8881,-150 1013.8881,-156 1013.8881,-156 1013.8881,-168 1013.8881,-168 1013.8881,-174 1007.8881,-180 1001.8881,-180"/>
<text text-anchor="middle" x="962.8881" y="-165" font-family="sans" font-size="10.00" fill="#000000">seqkit_stats</text>
<text text-anchor="middle" x="962.8881" y="-154" font-family="sans" font-size="10.00" fill="#000000">tool: extend/tadpole</text>
</g>
<!-- 14&#45;&gt;1 -->
<g id="edge11" class="edge">
<title>14&#45;&gt;1</title>
<path fill="none" stroke="#c0c0c0" stroke-width="2" d="M935.6351,-143.8314C921.9491,-134.7074 905.1966,-123.539 890.5053,-113.7449"/>
<polygon fill="#c0c0c0" stroke="#c0c0c0" stroke-width="2" points="892.3943,-110.7977 882.1323,-108.1628 888.5114,-116.6221 892.3943,-110.7977"/>
</g>
<!-- 15&#45;&gt;14 -->
<g id="edge32" class="edge">
<title>15&#45;&gt;14</title>
<path fill="none" stroke="#c0c0c0" stroke-width="2" d="M927.7918,-359.5324C929.9585,-349.1136 932.6581,-335.847 934.8881,-324 943.7109,-277.1268 952.9462,-222.4187 958.296,-190.0776"/>
<polygon fill="#c0c0c0" stroke="#c0c0c0" stroke-width="2" points="961.7823,-190.447 959.9551,-180.0109 954.8755,-189.3086 961.7823,-190.447"/>
</g>
<!-- 26 -->
<g id="node27" class="node">
<title>26</title>
<path fill="none" stroke="#59d856" stroke-width="2" d="M913.8881,-324C913.8881,-324 835.8881,-324 835.8881,-324 829.8881,-324 823.8881,-318 823.8881,-312 823.8881,-312 823.8881,-300 823.8881,-300 823.8881,-294 829.8881,-288 835.8881,-288 835.8881,-288 913.8881,-288 913.8881,-288 919.8881,-288 925.8881,-294 925.8881,-300 925.8881,-300 925.8881,-312 925.8881,-312 925.8881,-318 919.8881,-324 913.8881,-324"/>
<text text-anchor="middle" x="874.8881" y="-309" font-family="sans" font-size="10.00" fill="#000000">nonpareil_infer</text>
<text text-anchor="middle" x="874.8881" y="-298" font-family="sans" font-size="10.00" fill="#000000">tool: extend/tadpole</text>
</g>
<!-- 15&#45;&gt;26 -->
<g id="edge47" class="edge">
<title>15&#45;&gt;26</title>
<path fill="none" stroke="#c0c0c0" stroke-width="2" d="M911.5233,-359.8314C905.9372,-351.6232 899.2251,-341.7606 893.0809,-332.7323"/>
<polygon fill="#c0c0c0" stroke="#c0c0c0" stroke-width="2" points="895.9391,-330.7112 887.4193,-324.4133 890.1521,-334.6496 895.9391,-330.7112"/>
</g>
<!-- 30 -->
<g id="node31" class="node">
<title>30</title>
<path fill="none" stroke="#d6d856" stroke-width="2" d="M735.8881,-324C735.8881,-324 675.8881,-324 675.8881,-324 669.8881,-324 663.8881,-318 663.8881,-312 663.8881,-312 663.8881,-300 663.8881,-300 663.8881,-294 669.8881,-288 675.8881,-288 675.8881,-288 735.8881,-288 735.8881,-288 741.8881,-288 747.8881,-294 747.8881,-300 747.8881,-300 747.8881,-312 747.8881,-312 747.8881,-318 741.8881,-324 735.8881,-324"/>
<text text-anchor="middle" x="705.8881" y="-303.5" font-family="sans" font-size="10.00" fill="#000000">low_complexity</text>
</g>
<!-- 15&#45;&gt;30 -->
<g id="edge51" class="edge">
<title>15&#45;&gt;30</title>
<path fill="none" stroke="#c0c0c0" stroke-width="2" d="M882.3708,-364.2879C846.9892,-352.6022 795.9677,-335.7511 757.8752,-323.1701"/>
<polygon fill="#c0c0c0" stroke="#c0c0c0" stroke-width="2" points="758.5865,-319.7191 747.9933,-319.9063 756.3911,-326.3659 758.5865,-319.7191"/>
</g>
<!-- 16&#45;&gt;15 -->
<g id="edge34" class="edge">
<title>16&#45;&gt;15</title>
<path fill="none" stroke="#c0c0c0" stroke-width="2" d="M965.0092,-431.8314C958.6745,-423.5386 951.0497,-413.557 944.0955,-404.4533"/>
<polygon fill="#c0c0c0" stroke="#c0c0c0" stroke-width="2" points="946.8055,-402.2353 937.9537,-396.4133 941.2428,-406.4847 946.8055,-402.2353"/>
</g>
<!-- 17 -->
<g id="node18" class="node">
<title>17</title>
<path fill="none" stroke="#56a9d8" stroke-width="2" d="M356.8881,-252C356.8881,-252 278.8881,-252 278.8881,-252 272.8881,-252 266.8881,-246 266.8881,-240 266.8881,-240 266.8881,-228 266.8881,-228 266.8881,-222 272.8881,-216 278.8881,-216 278.8881,-216 356.8881,-216 356.8881,-216 362.8881,-216 368.8881,-222 368.8881,-228 368.8881,-228 368.8881,-240 368.8881,-240 368.8881,-246 362.8881,-252 356.8881,-252"/>
<text text-anchor="middle" x="317.8881" y="-237" font-family="sans" font-size="10.00" fill="#000000">seqkit_stats</text>
<text text-anchor="middle" x="317.8881" y="-226" font-family="sans" font-size="10.00" fill="#000000">tool: extend/tadpole</text>
</g>
<!-- 17&#45;&gt;1 -->
<g id="edge12" class="edge">
<title>17&#45;&gt;1</title>
<path fill="none" stroke="#c0c0c0" stroke-width="2" d="M337.0092,-215.6537C360.2484,-194.5454 401.6215,-160.6589 443.8881,-144 511.7658,-117.2467 729.9424,-98.9976 817.7579,-92.5641"/>
<polygon fill="#c0c0c0" stroke="#c0c0c0" stroke-width="2" points="818.0803,-96.05 827.8021,-91.8383 817.5758,-89.0682 818.0803,-96.05"/>
</g>
<!-- 18&#45;&gt;17 -->
<g id="edge36" class="edge">
<title>18&#45;&gt;17</title>
<path fill="none" stroke="#c0c0c0" stroke-width="2" d="M317.8881,-359.7623C317.8881,-335.201 317.8881,-291.2474 317.8881,-262.3541"/>
<polygon fill="#c0c0c0" stroke="#c0c0c0" stroke-width="2" points="321.3882,-262.0896 317.8881,-252.0896 314.3882,-262.0897 321.3882,-262.0896"/>
</g>
<!-- 24 -->
<g id="node25" class="node">
<title>24</title>
<path fill="none" stroke="#59d856" stroke-width="2" d="M443.8881,-324C443.8881,-324 365.8881,-324 365.8881,-324 359.8881,-324 353.8881,-318 353.8881,-312 353.8881,-312 353.8881,-300 353.8881,-300 353.8881,-294 359.8881,-288 365.8881,-288 365.8881,-288 443.8881,-288 443.8881,-288 449.8881,-288 455.8881,-294 455.8881,-300 455.8881,-300 455.8881,-312 455.8881,-312 455.8881,-318 449.8881,-324 443.8881,-324"/>
<text text-anchor="middle" x="404.8881" y="-309" font-family="sans" font-size="10.00" fill="#000000">nonpareil_infer</text>
<text text-anchor="middle" x="404.8881" y="-298" font-family="sans" font-size="10.00" fill="#000000">tool: extend/tadpole</text>
</g>
<!-- 18&#45;&gt;24 -->
<g id="edge45" class="edge">
<title>18&#45;&gt;24</title>
<path fill="none" stroke="#c0c0c0" stroke-width="2" d="M339.8418,-359.8314C350.5575,-350.9632 363.6069,-340.1637 375.1971,-330.5718"/>
<polygon fill="#c0c0c0" stroke="#c0c0c0" stroke-width="2" points="377.4688,-333.2349 382.9413,-324.1628 373.0058,-327.8422 377.4688,-333.2349"/>
</g>
<!-- 34 -->
<g id="node35" class="node">
<title>34</title>
<path fill="none" stroke="#d6d856" stroke-width="2" d="M163.8881,-324C163.8881,-324 103.8881,-324 103.8881,-324 97.8881,-324 91.8881,-318 91.8881,-312 91.8881,-312 91.8881,-300 91.8881,-300 91.8881,-294 97.8881,-288 103.8881,-288 103.8881,-288 163.8881,-288 163.8881,-288 169.8881,-288 175.8881,-294 175.8881,-300 175.8881,-300 175.8881,-312 175.8881,-312 175.8881,-318 169.8881,-324 163.8881,-324"/>
<text text-anchor="middle" x="133.8881" y="-303.5" font-family="sans" font-size="10.00" fill="#000000">low_complexity</text>
</g>
<!-- 18&#45;&gt;34 -->
<g id="edge55" class="edge">
<title>18&#45;&gt;34</title>
<path fill="none" stroke="#c0c0c0" stroke-width="2" d="M276.1356,-361.6621C249.2717,-351.1501 214.1626,-337.4118 185.5466,-326.2142"/>
<polygon fill="#c0c0c0" stroke="#c0c0c0" stroke-width="2" points="186.7,-322.9072 176.1122,-322.5225 184.1492,-329.4259 186.7,-322.9072"/>
</g>
<!-- 19&#45;&gt;18 -->
<g id="edge38" class="edge">
<title>19&#45;&gt;18</title>
<path fill="none" stroke="#c0c0c0" stroke-width="2" d="M344.8037,-431.8314C340.8266,-423.8771 336.0726,-414.369 331.6742,-405.5723"/>
<polygon fill="#c0c0c0" stroke="#c0c0c0" stroke-width="2" points="334.6974,-403.7923 327.0947,-396.4133 328.4364,-406.9228 334.6974,-403.7923"/>
</g>
<!-- 20 -->
<g id="node21" class="node">
<title>20</title>
<path fill="none" stroke="#56a9d8" stroke-width="2" d="M1405.8881,-324C1405.8881,-324 1327.8881,-324 1327.8881,-324 1321.8881,-324 1315.8881,-318 1315.8881,-312 1315.8881,-312 1315.8881,-300 1315.8881,-300 1315.8881,-294 1321.8881,-288 1327.8881,-288 1327.8881,-288 1405.8881,-288 1405.8881,-288 1411.8881,-288 1417.8881,-294 1417.8881,-300 1417.8881,-300 1417.8881,-312 1417.8881,-312 1417.8881,-318 1411.8881,-324 1405.8881,-324"/>
<text text-anchor="middle" x="1366.8881" y="-309" font-family="sans" font-size="10.00" fill="#000000">seqkit_stats</text>
<text text-anchor="middle" x="1366.8881" y="-298" font-family="sans" font-size="10.00" fill="#000000">tool: extend/tadpole</text>
</g>
<!-- 20&#45;&gt;1 -->
<g id="edge13" class="edge">
<title>20&#45;&gt;1</title>
<path fill="none" stroke="#c0c0c0" stroke-width="2" d="M1359.7574,-287.8845C1343.1947,-245.8524 1303.4092,-145.1678 1301.8881,-144 1269.5875,-119.2033 993.7133,-98.9967 892.1881,-92.3367"/>
<polygon fill="#c0c0c0" stroke="#c0c0c0" stroke-width="2" points="892.2887,-88.8359 882.083,-91.6809 891.8353,-95.8212 892.2887,-88.8359"/>
</g>
<!-- 21&#45;&gt;20 -->
<g id="edge40" class="edge">
<title>21&#45;&gt;20</title>
<path fill="none" stroke="#c0c0c0" stroke-width="2" d="M1454.364,-359.8314C1439.399,-350.6221 1421.0495,-339.3301 1405.0278,-329.4706"/>
<polygon fill="#c0c0c0" stroke="#c0c0c0" stroke-width="2" points="1406.7536,-326.423 1396.4027,-324.1628 1403.0849,-332.3847 1406.7536,-326.423"/>
</g>
<!-- 28 -->
<g id="node29" class="node">
<title>28</title>
<path fill="none" stroke="#59d856" stroke-width="2" d="M1525.8881,-324C1525.8881,-324 1447.8881,-324 1447.8881,-324 1441.8881,-324 1435.8881,-318 1435.8881,-312 1435.8881,-312 1435.8881,-300 1435.8881,-300 1435.8881,-294 1441.8881,-288 1447.8881,-288 1447.8881,-288 1525.8881,-288 1525.8881,-288 1531.8881,-288 1537.8881,-294 1537.8881,-300 1537.8881,-300 1537.8881,-312 1537.8881,-312 1537.8881,-318 1531.8881,-324 1525.8881,-324"/>
<text text-anchor="middle" x="1486.8881" y="-309" font-family="sans" font-size="10.00" fill="#000000">nonpareil_infer</text>
<text text-anchor="middle" x="1486.8881" y="-298" font-family="sans" font-size="10.00" fill="#000000">tool: extend/tadpole</text>
</g>
<!-- 21&#45;&gt;28 -->
<g id="edge49" class="edge">
<title>21&#45;&gt;28</title>
<path fill="none" stroke="#c0c0c0" stroke-width="2" d="M1484.6451,-359.8314C1484.9659,-352.131 1485.3475,-342.9743 1485.704,-334.4166"/>
<polygon fill="#c0c0c0" stroke="#c0c0c0" stroke-width="2" points="1489.2014,-334.5503 1486.1208,-324.4133 1482.2075,-334.2589 1489.2014,-334.5503"/>
</g>
<!-- 32 -->
<g id="node33" class="node">
<title>32</title>
<path fill="none" stroke="#d6d856" stroke-width="2" d="M1641.8881,-324C1641.8881,-324 1581.8881,-324 1581.8881,-324 1575.8881,-324 1569.8881,-318 1569.8881,-312 1569.8881,-312 1569.8881,-300 1569.8881,-300 1569.8881,-294 1575.8881,-288 1581.8881,-288 1581.8881,-288 1641.8881,-288 1641.8881,-288 1647.8881,-288 1653.8881,-294 1653.8881,-300 1653.8881,-300 1653.8881,-312 1653.8881,-312 1653.8881,-318 1647.8881,-324 1641.8881,-324"/>
<text text-anchor="middle" x="1611.8881" y="-303.5" font-family="sans" font-size="10.00" fill="#000000">low_complexity</text>
</g>
<!-- 21&#45;&gt;32 -->
<g id="edge53" class="edge">
<title>21&#45;&gt;32</title>
<path fill="none" stroke="#c0c0c0" stroke-width="2" d="M1516.1879,-359.8314C1532.7114,-350.5368 1553.0066,-339.1208 1570.6487,-329.1971"/>
<polygon fill="#c0c0c0" stroke="#c0c0c0" stroke-width="2" points="1572.5987,-332.116 1579.5986,-324.1628 1569.1669,-326.015 1572.5987,-332.116"/>
</g>
<!-- 22&#45;&gt;21 -->
<g id="edge42" class="edge">
<title>22&#45;&gt;21</title>
<path fill="none" stroke="#c0c0c0" stroke-width="2" d="M1483.8881,-431.8314C1483.8881,-424.131 1483.8881,-414.9743 1483.8881,-406.4166"/>
<polygon fill="#c0c0c0" stroke="#c0c0c0" stroke-width="2" points="1487.3882,-406.4132 1483.8881,-396.4133 1480.3882,-406.4133 1487.3882,-406.4132"/>
</g>
<!-- 23 -->
<g id="node24" class="node">
<title>23</title>
<path fill="none" stroke="#56d882" stroke-width="2" d="M452.3881,-252C452.3881,-252 399.3881,-252 399.3881,-252 393.3881,-252 387.3881,-246 387.3881,-240 387.3881,-240 387.3881,-228 387.3881,-228 387.3881,-222 393.3881,-216 399.3881,-216 399.3881,-216 452.3881,-216 452.3881,-216 458.3881,-216 464.3881,-222 464.3881,-228 464.3881,-228 464.3881,-240 464.3881,-240 464.3881,-246 458.3881,-252 452.3881,-252"/>
<text text-anchor="middle" x="425.8881" y="-231.5" font-family="sans" font-size="10.00" fill="#000000">nonpareil_plot</text>
</g>
<!-- 23&#45;&gt;1 -->
<g id="edge14" class="edge">
<title>23&#45;&gt;1</title>
<path fill="none" stroke="#c0c0c0" stroke-width="2" d="M431.2719,-215.7944C438.4899,-194.8216 453.4345,-161.0652 478.8881,-144 533.9125,-107.1091 734.1502,-94.863 817.7865,-91.3007"/>
<polygon fill="#c0c0c0" stroke="#c0c0c0" stroke-width="2" points="818.0085,-94.7947 827.8575,-90.8901 817.7232,-87.8005 818.0085,-94.7947"/>
</g>
<!-- 24&#45;&gt;23 -->
<g id="edge44" class="edge">
<title>24&#45;&gt;23</title>
<path fill="none" stroke="#c0c0c0" stroke-width="2" d="M410.1872,-287.8314C412.4579,-280.0463 415.1626,-270.7729 417.6821,-262.1347"/>
<polygon fill="#c0c0c0" stroke="#c0c0c0" stroke-width="2" points="421.0775,-262.9933 420.5175,-252.4133 414.3574,-261.0332 421.0775,-262.9933"/>
</g>
<!-- 25 -->
<g id="node26" class="node">
<title>25</title>
<path fill="none" stroke="#56d882" stroke-width="2" d="M881.3881,-180C881.3881,-180 828.3881,-180 828.3881,-180 822.3881,-180 816.3881,-174 816.3881,-168 816.3881,-168 816.3881,-156 816.3881,-156 816.3881,-150 822.3881,-144 828.3881,-144 828.3881,-144 881.3881,-144 881.3881,-144 887.3881,-144 893.3881,-150 893.3881,-156 893.3881,-156 893.3881,-168 893.3881,-168 893.3881,-174 887.3881,-180 881.3881,-180"/>
<text text-anchor="middle" x="854.8881" y="-159.5" font-family="sans" font-size="10.00" fill="#000000">nonpareil_plot</text>
</g>
<!-- 25&#45;&gt;1 -->
<g id="edge15" class="edge">
<title>25&#45;&gt;1</title>
<path fill="none" stroke="#c0c0c0" stroke-width="2" d="M854.8881,-143.8314C854.8881,-136.131 854.8881,-126.9743 854.8881,-118.4166"/>
<polygon fill="#c0c0c0" stroke="#c0c0c0" stroke-width="2" points="858.3882,-118.4132 854.8881,-108.4133 851.3882,-118.4133 858.3882,-118.4132"/>
</g>
<!-- 26&#45;&gt;25 -->
<g id="edge46" class="edge">
<title>26&#45;&gt;25</title>
<path fill="none" stroke="#c0c0c0" stroke-width="2" d="M872.355,-287.7623C868.9438,-263.201 862.8391,-219.2474 858.8261,-190.3541"/>
<polygon fill="#c0c0c0" stroke="#c0c0c0" stroke-width="2" points="862.243,-189.513 857.4005,-180.0896 855.3095,-190.4761 862.243,-189.513"/>
</g>
<!-- 27 -->
<g id="node28" class="node">
<title>27</title>
<path fill="none" stroke="#56d882" stroke-width="2" d="M1419.3881,-252C1419.3881,-252 1366.3881,-252 1366.3881,-252 1360.3881,-252 1354.3881,-246 1354.3881,-240 1354.3881,-240 1354.3881,-228 1354.3881,-228 1354.3881,-222 1360.3881,-216 1366.3881,-216 1366.3881,-216 1419.3881,-216 1419.3881,-216 1425.3881,-216 1431.3881,-222 1431.3881,-228 1431.3881,-228 1431.3881,-240 1431.3881,-240 1431.3881,-246 1425.3881,-252 1419.3881,-252"/>
<text text-anchor="middle" x="1392.8881" y="-231.5" font-family="sans" font-size="10.00" fill="#000000">nonpareil_plot</text>
</g>
<!-- 27&#45;&gt;1 -->
<g id="edge16" class="edge">
<title>27&#45;&gt;1</title>
<path fill="none" stroke="#c0c0c0" stroke-width="2" d="M1387.597,-215.6536C1380.4682,-194.5454 1365.6093,-160.6589 1339.8881,-144 1302.5111,-119.7921 999.392,-98.9239 892.2415,-92.2381"/>
<polygon fill="#c0c0c0" stroke="#c0c0c0" stroke-width="2" points="892.4032,-88.7415 882.2063,-91.6178 891.9713,-95.7282 892.4032,-88.7415"/>
</g>
<!-- 28&#45;&gt;27 -->
<g id="edge48" class="edge">
<title>28&#45;&gt;27</title>
<path fill="none" stroke="#c0c0c0" stroke-width="2" d="M1463.1679,-287.8314C1451.4787,-278.8779 1437.2193,-267.9558 1424.6072,-258.2955"/>
<polygon fill="#c0c0c0" stroke="#c0c0c0" stroke-width="2" points="1426.6677,-255.4651 1416.6006,-252.1628 1422.4112,-261.0222 1426.6677,-255.4651"/>
</g>
<!-- 29 -->
<g id="node30" class="node">
<title>29</title>
<path fill="none" stroke="#56a9d8" stroke-width="2" d="M690.8881,-180C690.8881,-180 608.8881,-180 608.8881,-180 602.8881,-180 596.8881,-174 596.8881,-168 596.8881,-168 596.8881,-156 596.8881,-156 596.8881,-150 602.8881,-144 608.8881,-144 608.8881,-144 690.8881,-144 690.8881,-144 696.8881,-144 702.8881,-150 702.8881,-156 702.8881,-156 702.8881,-168 702.8881,-168 702.8881,-174 696.8881,-180 690.8881,-180"/>
<text text-anchor="middle" x="649.8881" y="-165" font-family="sans" font-size="10.00" fill="#000000">seqkit_stats</text>
<text text-anchor="middle" x="649.8881" y="-154" font-family="sans" font-size="10.00" fill="#000000">tool: low_complexity</text>
</g>
<!-- 29&#45;&gt;1 -->
<g id="edge17" class="edge">
<title>29&#45;&gt;1</title>
<path fill="none" stroke="#c0c0c0" stroke-width="2" d="M701.3536,-143.9243C737.6833,-131.1646 785.4968,-114.3716 818.0501,-102.9382"/>
<polygon fill="#c0c0c0" stroke="#c0c0c0" stroke-width="2" points="819.3582,-106.1884 827.6334,-99.5724 817.0385,-99.5839 819.3582,-106.1884"/>
</g>
<!-- 30&#45;&gt;0 -->
<g id="edge3" class="edge">
<title>30&#45;&gt;0</title>
<path fill="none" stroke="#c0c0c0" stroke-width="2" d="M675.9929,-287.907C633.6541,-259.7599 563.8881,-202.603 587.8881,-144 605.6966,-100.5152 646.5567,-63.9757 676.5257,-41.628"/>
<polygon fill="#c0c0c0" stroke="#c0c0c0" stroke-width="2" points="678.6355,-44.4213 684.6615,-35.7071 674.5165,-38.7615 678.6355,-44.4213"/>
</g>
<!-- 30&#45;&gt;29 -->
<g id="edge50" class="edge">
<title>30&#45;&gt;29</title>
<path fill="none" stroke="#c0c0c0" stroke-width="2" d="M698.7956,-287.7623C689.1599,-262.9846 671.8492,-218.4714 660.619,-189.5939"/>
<polygon fill="#c0c0c0" stroke="#c0c0c0" stroke-width="2" points="663.8095,-188.1411 656.9229,-180.0896 657.2854,-190.6783 663.8095,-188.1411"/>
</g>
<!-- 40 -->
<g id="node41" class="node">
<title>40</title>
<path fill="none" stroke="#59d856" stroke-width="2" d="M793.8881,-252C793.8881,-252 711.8881,-252 711.8881,-252 705.8881,-252 699.8881,-246 699.8881,-240 699.8881,-240 699.8881,-228 699.8881,-228 699.8881,-222 705.8881,-216 711.8881,-216 711.8881,-216 793.8881,-216 793.8881,-216 799.8881,-216 805.8881,-222 805.8881,-228 805.8881,-228 805.8881,-240 805.8881,-240 805.8881,-246 799.8881,-252 793.8881,-252"/>
<text text-anchor="middle" x="752.8881" y="-237" font-family="sans" font-size="10.00" fill="#000000">nonpareil_infer</text>
<text text-anchor="middle" x="752.8881" y="-226" font-family="sans" font-size="10.00" fill="#000000">tool: low_complexity</text>
</g>
<!-- 30&#45;&gt;40 -->
<g id="edge61" class="edge">
<title>30&#45;&gt;40</title>
<path fill="none" stroke="#c0c0c0" stroke-width="2" d="M717.7481,-287.8314C723.051,-279.7079 729.4117,-269.9637 735.2554,-261.0118"/>
<polygon fill="#c0c0c0" stroke="#c0c0c0" stroke-width="2" points="738.3328,-262.7003 740.8683,-252.4133 732.4712,-258.8739 738.3328,-262.7003"/>
</g>
<!-- 31 -->
<g id="node32" class="node">
<title>31</title>
<path fill="none" stroke="#56a9d8" stroke-width="2" d="M1543.8881,-252C1543.8881,-252 1461.8881,-252 1461.8881,-252 1455.8881,-252 1449.8881,-246 1449.8881,-240 1449.8881,-240 1449.8881,-228 1449.8881,-228 1449.8881,-222 1455.8881,-216 1461.8881,-216 1461.8881,-216 1543.8881,-216 1543.8881,-216 1549.8881,-216 1555.8881,-222 1555.8881,-228 1555.8881,-228 1555.8881,-240 1555.8881,-240 1555.8881,-246 1549.8881,-252 1543.8881,-252"/>
<text text-anchor="middle" x="1502.8881" y="-237" font-family="sans" font-size="10.00" fill="#000000">seqkit_stats</text>
<text text-anchor="middle" x="1502.8881" y="-226" font-family="sans" font-size="10.00" fill="#000000">tool: low_complexity</text>
</g>
<!-- 31&#45;&gt;1 -->
<g id="edge18" class="edge">
<title>31&#45;&gt;1</title>
<path fill="none" stroke="#c0c0c0" stroke-width="2" d="M1482.8434,-215.8548C1458.0687,-194.6054 1413.6723,-160.249 1368.8881,-144 1280.907,-112.078 994.9824,-96.3229 892.1534,-91.5842"/>
<polygon fill="#c0c0c0" stroke="#c0c0c0" stroke-width="2" points="892.089,-88.0778 881.9411,-91.1223 891.7727,-95.0707 892.089,-88.0778"/>
</g>
<!-- 32&#45;&gt;0 -->
<g id="edge2" class="edge">
<title>32&#45;&gt;0</title>
<path fill="none" stroke="#c0c0c0" stroke-width="2" d="M1651.9907,-287.9226C1666.3279,-279.2521 1680.902,-267.3548 1688.8881,-252 1714.2249,-203.2849 1676.9092,-170.6285 1628.8881,-144 1473.4606,-57.813 902.0381,-26.4973 749.5178,-19.5747"/>
<polygon fill="#c0c0c0" stroke="#c0c0c0" stroke-width="2" points="749.4177,-16.0669 739.2718,-19.118 749.106,-23.0599 749.4177,-16.0669"/>
</g>
<!-- 32&#45;&gt;31 -->
<g id="edge52" class="edge">
<title>32&#45;&gt;31</title>
<path fill="none" stroke="#c0c0c0" stroke-width="2" d="M1584.3828,-287.8314C1570.5701,-278.7074 1553.6624,-267.539 1538.8351,-257.7449"/>
<polygon fill="#c0c0c0" stroke="#c0c0c0" stroke-width="2" points="1540.6576,-254.7541 1530.3846,-252.1628 1536.7995,-260.5949 1540.6576,-254.7541"/>
</g>
<!-- 38 -->
<g id="node39" class="node">
<title>38</title>
<path fill="none" stroke="#59d856" stroke-width="2" d="M1667.8881,-252C1667.8881,-252 1585.8881,-252 1585.8881,-252 1579.8881,-252 1573.8881,-246 1573.8881,-240 1573.8881,-240 1573.8881,-228 1573.8881,-228 1573.8881,-222 1579.8881,-216 1585.8881,-216 1585.8881,-216 1667.8881,-216 1667.8881,-216 1673.8881,-216 1679.8881,-222 1679.8881,-228 1679.8881,-228 1679.8881,-240 1679.8881,-240 1679.8881,-246 1673.8881,-252 1667.8881,-252"/>
<text text-anchor="middle" x="1626.8881" y="-237" font-family="sans" font-size="10.00" fill="#000000">nonpareil_infer</text>
<text text-anchor="middle" x="1626.8881" y="-226" font-family="sans" font-size="10.00" fill="#000000">tool: low_complexity</text>
</g>
<!-- 32&#45;&gt;38 -->
<g id="edge59" class="edge">
<title>32&#45;&gt;38</title>
<path fill="none" stroke="#c0c0c0" stroke-width="2" d="M1615.6732,-287.8314C1617.2774,-280.131 1619.1851,-270.9743 1620.9679,-262.4166"/>
<polygon fill="#c0c0c0" stroke="#c0c0c0" stroke-width="2" points="1624.4388,-262.9169 1623.052,-252.4133 1617.5859,-261.4892 1624.4388,-262.9169"/>
</g>
<!-- 33 -->
<g id="node34" class="node">
<title>33</title>
<path fill="none" stroke="#56a9d8" stroke-width="2" d="M236.8881,-252C236.8881,-252 154.8881,-252 154.8881,-252 148.8881,-252 142.8881,-246 142.8881,-240 142.8881,-240 142.8881,-228 142.8881,-228 142.8881,-222 148.8881,-216 154.8881,-216 154.8881,-216 236.8881,-216 236.8881,-216 242.8881,-216 248.8881,-222 248.8881,-228 248.8881,-228 248.8881,-240 248.8881,-240 248.8881,-246 242.8881,-252 236.8881,-252"/>
<text text-anchor="middle" x="195.8881" y="-237" font-family="sans" font-size="10.00" fill="#000000">seqkit_stats</text>
<text text-anchor="middle" x="195.8881" y="-226" font-family="sans" font-size="10.00" fill="#000000">tool: low_complexity</text>
</g>
<!-- 33&#45;&gt;1 -->
<g id="edge19" class="edge">
<title>33&#45;&gt;1</title>
<path fill="none" stroke="#c0c0c0" stroke-width="2" d="M224.5498,-215.891C259.3647,-194.8453 320.5669,-160.855 377.8881,-144 460.4466,-119.7241 720.2043,-99.4746 817.5545,-92.5524"/>
<polygon fill="#c0c0c0" stroke="#c0c0c0" stroke-width="2" points="818.0709,-96.0248 827.8002,-91.8306 817.5789,-89.0421 818.0709,-96.0248"/>
</g>
<!-- 34&#45;&gt;0 -->
<g id="edge4" class="edge">
<title>34&#45;&gt;0</title>
<path fill="none" stroke="#c0c0c0" stroke-width="2" d="M91.6786,-299.7224C63.3002,-293.0683 27.9042,-279.4961 9.8881,-252 -21.7287,-203.7467 31.0253,-171.2209 81.8881,-144 187.0153,-87.7376 555.9547,-37.5688 674.74,-22.5567"/>
<polygon fill="#c0c0c0" stroke="#c0c0c0" stroke-width="2" points="675.3112,-26.0126 684.7974,-21.2944 674.4394,-19.0671 675.3112,-26.0126"/>
</g>
<!-- 34&#45;&gt;33 -->
<g id="edge54" class="edge">
<title>34&#45;&gt;33</title>
<path fill="none" stroke="#c0c0c0" stroke-width="2" d="M149.5333,-287.8314C156.7471,-279.454 165.4451,-269.3531 173.3485,-260.1749"/>
<polygon fill="#c0c0c0" stroke="#c0c0c0" stroke-width="2" points="176.1591,-262.2748 180.0322,-252.4133 170.8547,-257.7071 176.1591,-262.2748"/>
</g>
<!-- 36 -->
<g id="node37" class="node">
<title>36</title>
<path fill="none" stroke="#59d856" stroke-width="2" d="M112.8881,-252C112.8881,-252 30.8881,-252 30.8881,-252 24.8881,-252 18.8881,-246 18.8881,-240 18.8881,-240 18.8881,-228 18.8881,-228 18.8881,-222 24.8881,-216 30.8881,-216 30.8881,-216 112.8881,-216 112.8881,-216 118.8881,-216 124.8881,-222 124.8881,-228 124.8881,-228 124.8881,-240 124.8881,-240 124.8881,-246 118.8881,-252 112.8881,-252"/>
<text text-anchor="middle" x="71.8881" y="-237" font-family="sans" font-size="10.00" fill="#000000">nonpareil_infer</text>
<text text-anchor="middle" x="71.8881" y="-226" font-family="sans" font-size="10.00" fill="#000000">tool: low_complexity</text>
</g>
<!-- 34&#45;&gt;36 -->
<g id="edge57" class="edge">
<title>34&#45;&gt;36</title>
<path fill="none" stroke="#c0c0c0" stroke-width="2" d="M118.2428,-287.8314C111.029,-279.454 102.331,-269.3531 94.4276,-260.1749"/>
<polygon fill="#c0c0c0" stroke="#c0c0c0" stroke-width="2" points="96.9214,-257.7071 87.7439,-252.4133 91.617,-262.2748 96.9214,-257.7071"/>
</g>
<!-- 35 -->
<g id="node36" class="node">
<title>35</title>
<path fill="none" stroke="#56d882" stroke-width="2" d="M156.3881,-180C156.3881,-180 103.3881,-180 103.3881,-180 97.3881,-180 91.3881,-174 91.3881,-168 91.3881,-168 91.3881,-156 91.3881,-156 91.3881,-150 97.3881,-144 103.3881,-144 103.3881,-144 156.3881,-144 156.3881,-144 162.3881,-144 168.3881,-150 168.3881,-156 168.3881,-156 168.3881,-168 168.3881,-168 168.3881,-174 162.3881,-180 156.3881,-180"/>
<text text-anchor="middle" x="129.8881" y="-159.5" font-family="sans" font-size="10.00" fill="#000000">nonpareil_plot</text>
</g>
<!-- 35&#45;&gt;1 -->
<g id="edge20" class="edge">
<title>35&#45;&gt;1</title>
<path fill="none" stroke="#c0c0c0" stroke-width="2" d="M168.5724,-155.0152C189.8572,-151.3517 216.7698,-147.012 240.8881,-144 458.8874,-116.775 722.1253,-98.4869 817.8353,-92.3113"/>
<polygon fill="#c0c0c0" stroke="#c0c0c0" stroke-width="2" points="818.1257,-95.8 827.8815,-91.6681 817.6783,-88.8143 818.1257,-95.8"/>
</g>
<!-- 36&#45;&gt;35 -->
<g id="edge56" class="edge">
<title>36&#45;&gt;35</title>
<path fill="none" stroke="#c0c0c0" stroke-width="2" d="M86.5239,-215.8314C93.2042,-207.5386 101.2449,-197.557 108.5784,-188.4533"/>
<polygon fill="#c0c0c0" stroke="#c0c0c0" stroke-width="2" points="111.5075,-190.3965 115.0551,-180.4133 106.0562,-186.0052 111.5075,-190.3965"/>
</g>
<!-- 37 -->
<g id="node38" class="node">
<title>37</title>
<path fill="none" stroke="#56d882" stroke-width="2" d="M1607.3881,-180C1607.3881,-180 1554.3881,-180 1554.3881,-180 1548.3881,-180 1542.3881,-174 1542.3881,-168 1542.3881,-168 1542.3881,-156 1542.3881,-156 1542.3881,-150 1548.3881,-144 1554.3881,-144 1554.3881,-144 1607.3881,-144 1607.3881,-144 1613.3881,-144 1619.3881,-150 1619.3881,-156 1619.3881,-156 1619.3881,-168 1619.3881,-168 1619.3881,-174 1613.3881,-180 1607.3881,-180"/>
<text text-anchor="middle" x="1580.8881" y="-159.5" font-family="sans" font-size="10.00" fill="#000000">nonpareil_plot</text>
</g>
<!-- 37&#45;&gt;1 -->
<g id="edge21" class="edge">
<title>37&#45;&gt;1</title>
<path fill="none" stroke="#c0c0c0" stroke-width="2" d="M1542.0769,-154.1558C1523.6063,-150.6431 1501.1724,-146.6947 1480.8881,-144 1258.624,-114.4735 989.7167,-97.5494 892.352,-92.0252"/>
<polygon fill="#c0c0c0" stroke="#c0c0c0" stroke-width="2" points="892.3173,-88.5178 882.1369,-91.4519 891.925,-95.5068 892.3173,-88.5178"/>
</g>
<!-- 38&#45;&gt;37 -->
<g id="edge58" class="edge">
<title>38&#45;&gt;37</title>
<path fill="none" stroke="#c0c0c0" stroke-width="2" d="M1615.2803,-215.8314C1610.0903,-207.7079 1603.8649,-197.9637 1598.1456,-189.0118"/>
<polygon fill="#c0c0c0" stroke="#c0c0c0" stroke-width="2" points="1600.9855,-186.9559 1592.6521,-180.4133 1595.0866,-190.7246 1600.9855,-186.9559"/>
</g>
<!-- 39 -->
<g id="node40" class="node">
<title>39</title>
<path fill="none" stroke="#56d882" stroke-width="2" d="M786.3881,-180C786.3881,-180 733.3881,-180 733.3881,-180 727.3881,-180 721.3881,-174 721.3881,-168 721.3881,-168 721.3881,-156 721.3881,-156 721.3881,-150 727.3881,-144 733.3881,-144 733.3881,-144 786.3881,-144 786.3881,-144 792.3881,-144 798.3881,-150 798.3881,-156 798.3881,-156 798.3881,-168 798.3881,-168 798.3881,-174 792.3881,-180 786.3881,-180"/>
<text text-anchor="middle" x="759.8881" y="-159.5" font-family="sans" font-size="10.00" fill="#000000">nonpareil_plot</text>
</g>
<!-- 39&#45;&gt;1 -->
<g id="edge22" class="edge">
<title>39&#45;&gt;1</title>
<path fill="none" stroke="#c0c0c0" stroke-width="2" d="M783.8606,-143.8314C795.6741,-134.8779 810.0852,-123.9558 822.8315,-114.2955"/>
<polygon fill="#c0c0c0" stroke="#c0c0c0" stroke-width="2" points="825.0676,-116.9925 830.9232,-108.1628 820.8394,-111.4137 825.0676,-116.9925"/>
</g>
<!-- 40&#45;&gt;39 -->
<g id="edge60" class="edge">
<title>40&#45;&gt;39</title>
<path fill="none" stroke="#c0c0c0" stroke-width="2" d="M754.6545,-215.8314C755.4031,-208.131 756.2933,-198.9743 757.1253,-190.4166"/>
<polygon fill="#c0c0c0" stroke="#c0c0c0" stroke-width="2" points="760.6137,-190.7051 758.0979,-180.4133 753.6466,-190.0276 760.6137,-190.7051"/>
</g>
</g>
</svg>
