<?xml version="1.0" encoding="UTF-8" standalone="no"?>
<!DOCTYPE svg PUBLIC "-//W3C//DTD SVG 1.1//EN"
 "http://www.w3.org/Graphics/SVG/1.1/DTD/svg11.dtd">
<!-- Generated by graphviz version 2.40.1 (0)
 -->
<!-- Title: snakemake_dag Pages: 1 -->
<svg width="1721pt" height="564pt"
 viewBox="0.00 0.00 1720.79 564.00" xmlns="http://www.w3.org/2000/svg" xmlns:xlink="http://www.w3.org/1999/xlink">
<g id="graph0" class="graph" transform="scale(1 1) rotate(0) translate(4 560)">
<title>snakemake_dag</title>
<polygon fill="#ffffff" stroke="transparent" points="-4,4 -4,-560 1716.787,-560 1716.787,4 -4,4"/>
<!-- 0 -->
<g id="node1" class="node">
<title>0</title>
<path fill="none" stroke="#b6d856" stroke-width="2" d="M1269.5,-36C1269.5,-36 1239.5,-36 1239.5,-36 1233.5,-36 1227.5,-30 1227.5,-24 1227.5,-24 1227.5,-12 1227.5,-12 1227.5,-6 1233.5,0 1239.5,0 1239.5,0 1269.5,0 1269.5,0 1275.5,0 1281.5,-6 1281.5,-12 1281.5,-12 1281.5,-24 1281.5,-24 1281.5,-30 1275.5,-36 1269.5,-36"/>
<text text-anchor="middle" x="1254.5" y="-15.5" font-family="sans" font-size="10.00" fill="#000000">all</text>
</g>
<!-- 1 -->
<g id="node2" class="node">
<title>1</title>
<path fill="none" stroke="#56d0d8" stroke-width="2" d="M959.5,-108C959.5,-108 929.5,-108 929.5,-108 923.5,-108 917.5,-102 917.5,-96 917.5,-96 917.5,-84 917.5,-84 917.5,-78 923.5,-72 929.5,-72 929.5,-72 959.5,-72 959.5,-72 965.5,-72 971.5,-78 971.5,-84 971.5,-84 971.5,-96 971.5,-96 971.5,-102 965.5,-108 959.5,-108"/>
<text text-anchor="middle" x="944.5" y="-87.5" font-family="sans" font-size="10.00" fill="#000000">multiqc</text>
</g>
<!-- 1&#45;&gt;0 -->
<g id="edge1" class="edge">
<title>1&#45;&gt;0</title>
<path fill="none" stroke="#c0c0c0" stroke-width="2" d="M971.7387,-83.6736C1027.4405,-70.7364 1154.427,-41.2428 1217.5148,-26.5901"/>
<polygon fill="#c0c0c0" stroke="#c0c0c0" stroke-width="2" points="1218.4848,-29.9581 1227.4337,-24.2864 1216.9011,-23.1396 1218.4848,-29.9581"/>
</g>
<!-- 2 -->
<g id="node3" class="node">
<title>2</title>
<path fill="none" stroke="#56d8b9" stroke-width="2" d="M659.5,-180C659.5,-180 589.5,-180 589.5,-180 583.5,-180 577.5,-174 577.5,-168 577.5,-168 577.5,-156 577.5,-156 577.5,-150 583.5,-144 589.5,-144 589.5,-144 659.5,-144 659.5,-144 665.5,-144 671.5,-150 671.5,-156 671.5,-156 671.5,-168 671.5,-168 671.5,-174 665.5,-180 659.5,-180"/>
<text text-anchor="middle" x="624.5" y="-165" font-family="sans" font-size="10.00" fill="#000000">seqkit_stats</text>
<text text-anchor="middle" x="624.5" y="-154" font-family="sans" font-size="10.00" fill="#000000">tool: merge_lanes</text>
</g>
<!-- 2&#45;&gt;1 -->
<g id="edge5" class="edge">
<title>2&#45;&gt;1</title>
<path fill="none" stroke="#c0c0c0" stroke-width="2" d="M671.7496,-146.4121C674.701,-145.5628 677.6353,-144.751 680.5,-144 760.516,-123.0239 855.9428,-105.2627 907.3194,-96.2822"/>
<polygon fill="#c0c0c0" stroke="#c0c0c0" stroke-width="2" points="908.0364,-99.7102 917.2913,-94.553 906.8403,-92.8132 908.0364,-99.7102"/>
</g>
<!-- 3 -->
<g id="node4" class="node">
<title>3</title>
<path fill="none" stroke="#56a9d8" stroke-width="2" d="M817.5,-556C817.5,-556 713.5,-556 713.5,-556 707.5,-556 701.5,-550 701.5,-544 701.5,-544 701.5,-516 701.5,-516 701.5,-510 707.5,-504 713.5,-504 713.5,-504 817.5,-504 817.5,-504 823.5,-504 829.5,-510 829.5,-516 829.5,-516 829.5,-544 829.5,-544 829.5,-550 823.5,-556 817.5,-556"/>
<text text-anchor="middle" x="765.5" y="-544" font-family="sans" font-size="10.00" fill="#000000">merge_lanes</text>
<text text-anchor="middle" x="765.5" y="-533" font-family="sans" font-size="10.00" fill="#000000">library: lib2</text>
<text text-anchor="middle" x="765.5" y="-522" font-family="sans" font-size="10.00" fill="#000000">read_type_trim: collapsed</text>
<text text-anchor="middle" x="765.5" y="-511" font-family="sans" font-size="10.00" fill="#000000">sample: HD827sonic_2</text>
</g>
<!-- 3&#45;&gt;2 -->
<g id="edge23" class="edge">
<title>3&#45;&gt;2</title>
<path fill="none" stroke="#c0c0c0" stroke-width="2" d="M714.0673,-503.7787C699.0805,-494.1669 683.7349,-482.1228 672.5,-468 645.8802,-434.5376 638.5,-420.7592 638.5,-378 638.5,-378 638.5,-378 638.5,-306 638.5,-265.6868 632.9973,-219.322 628.8916,-190.3387"/>
<polygon fill="#c0c0c0" stroke="#c0c0c0" stroke-width="2" points="632.3092,-189.5197 627.4008,-180.1304 625.3827,-190.5313 632.3092,-189.5197"/>
</g>
<!-- 9 -->
<g id="node10" class="node">
<title>9</title>
<path fill="none" stroke="#d8cb56" stroke-width="2" d="M763.5,-468C763.5,-468 693.5,-468 693.5,-468 687.5,-468 681.5,-462 681.5,-456 681.5,-456 681.5,-444 681.5,-444 681.5,-438 687.5,-432 693.5,-432 693.5,-432 763.5,-432 763.5,-432 769.5,-432 775.5,-438 775.5,-444 775.5,-444 775.5,-456 775.5,-456 775.5,-462 769.5,-468 763.5,-468"/>
<text text-anchor="middle" x="728.5" y="-453" font-family="sans" font-size="10.00" fill="#000000">nonpareil_infer</text>
<text text-anchor="middle" x="728.5" y="-442" font-family="sans" font-size="10.00" fill="#000000">tool: merge_lanes</text>
</g>
<!-- 3&#45;&gt;9 -->
<g id="edge27" class="edge">
<title>3&#45;&gt;9</title>
<path fill="none" stroke="#c0c0c0" stroke-width="2" d="M753.3848,-503.805C749.4647,-495.3292 745.1087,-485.9107 741.1508,-477.3531"/>
<polygon fill="#c0c0c0" stroke="#c0c0c0" stroke-width="2" points="744.2704,-475.7603 736.8959,-468.1532 737.917,-478.6988 744.2704,-475.7603"/>
</g>
<!-- 15 -->
<g id="node16" class="node">
<title>15</title>
<path fill="none" stroke="#8fd856" stroke-width="2" d="M888,-396C888,-396 829,-396 829,-396 823,-396 817,-390 817,-384 817,-384 817,-372 817,-372 817,-366 823,-360 829,-360 829,-360 888,-360 888,-360 894,-360 900,-366 900,-372 900,-372 900,-384 900,-384 900,-390 894,-396 888,-396"/>
<text text-anchor="middle" x="858.5" y="-375.5" font-family="sans" font-size="10.00" fill="#000000">read_extension</text>
</g>
<!-- 3&#45;&gt;15 -->
<g id="edge33" class="edge">
<title>3&#45;&gt;15</title>
<path fill="none" stroke="#c0c0c0" stroke-width="2" d="M780.0749,-503.9511C791.3461,-484.0538 807.5071,-456.0526 822.5,-432 828.0738,-423.0582 834.3793,-413.4434 840.1381,-404.8405"/>
<polygon fill="#c0c0c0" stroke="#c0c0c0" stroke-width="2" points="843.1997,-406.5604 845.888,-396.3123 837.3956,-402.6472 843.1997,-406.5604"/>
</g>
<!-- 16 -->
<g id="node17" class="node">
<title>16</title>
<path fill="none" stroke="#56d86b" stroke-width="2" d="M873.5,-468C873.5,-468 843.5,-468 843.5,-468 837.5,-468 831.5,-462 831.5,-456 831.5,-456 831.5,-444 831.5,-444 831.5,-438 837.5,-432 843.5,-432 843.5,-432 873.5,-432 873.5,-432 879.5,-432 885.5,-438 885.5,-444 885.5,-444 885.5,-456 885.5,-456 885.5,-462 879.5,-468 873.5,-468"/>
<text text-anchor="middle" x="858.5" y="-447.5" font-family="sans" font-size="10.00" fill="#000000">loglog</text>
</g>
<!-- 3&#45;&gt;16 -->
<g id="edge35" class="edge">
<title>3&#45;&gt;16</title>
<path fill="none" stroke="#c0c0c0" stroke-width="2" d="M795.9517,-503.805C806.7584,-494.5089 818.8832,-484.079 829.5602,-474.8945"/>
<polygon fill="#c0c0c0" stroke="#c0c0c0" stroke-width="2" points="832.0983,-477.328 837.3969,-468.1532 827.5333,-472.0212 832.0983,-477.328"/>
</g>
<!-- 4 -->
<g id="node5" class="node">
<title>4</title>
<path fill="none" stroke="#56d8b9" stroke-width="2" d="M480.5,-396C480.5,-396 410.5,-396 410.5,-396 404.5,-396 398.5,-390 398.5,-384 398.5,-384 398.5,-372 398.5,-372 398.5,-366 404.5,-360 410.5,-360 410.5,-360 480.5,-360 480.5,-360 486.5,-360 492.5,-366 492.5,-372 492.5,-372 492.5,-384 492.5,-384 492.5,-390 486.5,-396 480.5,-396"/>
<text text-anchor="middle" x="445.5" y="-381" font-family="sans" font-size="10.00" fill="#000000">seqkit_stats</text>
<text text-anchor="middle" x="445.5" y="-370" font-family="sans" font-size="10.00" fill="#000000">tool: merge_lanes</text>
</g>
<!-- 4&#45;&gt;1 -->
<g id="edge6" class="edge">
<title>4&#45;&gt;1</title>
<path fill="none" stroke="#c0c0c0" stroke-width="2" d="M452.4386,-359.8889C473.0878,-306.1834 533.2845,-151.0886 542.5,-144 571.1863,-121.9344 813.0366,-100.4849 907.1955,-92.8914"/>
<polygon fill="#c0c0c0" stroke="#c0c0c0" stroke-width="2" points="907.7138,-96.3613 917.4033,-92.076 907.1563,-89.3835 907.7138,-96.3613"/>
</g>
<!-- 5 -->
<g id="node6" class="node">
<title>5</title>
<path fill="none" stroke="#56a9d8" stroke-width="2" d="M470.5,-556C470.5,-556 366.5,-556 366.5,-556 360.5,-556 354.5,-550 354.5,-544 354.5,-544 354.5,-516 354.5,-516 354.5,-510 360.5,-504 366.5,-504 366.5,-504 470.5,-504 470.5,-504 476.5,-504 482.5,-510 482.5,-516 482.5,-516 482.5,-544 482.5,-544 482.5,-550 476.5,-556 470.5,-556"/>
<text text-anchor="middle" x="418.5" y="-544" font-family="sans" font-size="10.00" fill="#000000">merge_lanes</text>
<text text-anchor="middle" x="418.5" y="-533" font-family="sans" font-size="10.00" fill="#000000">library: lib1</text>
<text text-anchor="middle" x="418.5" y="-522" font-family="sans" font-size="10.00" fill="#000000">read_type_trim: collapsed</text>
<text text-anchor="middle" x="418.5" y="-511" font-family="sans" font-size="10.00" fill="#000000">sample: HD827sonic_2</text>
</g>
<!-- 5&#45;&gt;4 -->
<g id="edge24" class="edge">
<title>5&#45;&gt;4</title>
<path fill="none" stroke="#c0c0c0" stroke-width="2" d="M423.1415,-503.8703C427.9812,-476.6241 435.5406,-434.0678 440.5072,-406.1075"/>
<polygon fill="#c0c0c0" stroke="#c0c0c0" stroke-width="2" points="443.9697,-406.6265 442.2727,-396.1685 437.0776,-405.4022 443.9697,-406.6265"/>
</g>
<!-- 13 -->
<g id="node14" class="node">
<title>13</title>
<path fill="none" stroke="#d8cb56" stroke-width="2" d="M570.5,-468C570.5,-468 500.5,-468 500.5,-468 494.5,-468 488.5,-462 488.5,-456 488.5,-456 488.5,-444 488.5,-444 488.5,-438 494.5,-432 500.5,-432 500.5,-432 570.5,-432 570.5,-432 576.5,-432 582.5,-438 582.5,-444 582.5,-444 582.5,-456 582.5,-456 582.5,-462 576.5,-468 570.5,-468"/>
<text text-anchor="middle" x="535.5" y="-453" font-family="sans" font-size="10.00" fill="#000000">nonpareil_infer</text>
<text text-anchor="middle" x="535.5" y="-442" font-family="sans" font-size="10.00" fill="#000000">tool: merge_lanes</text>
</g>
<!-- 5&#45;&gt;13 -->
<g id="edge31" class="edge">
<title>5&#45;&gt;13</title>
<path fill="none" stroke="#c0c0c0" stroke-width="2" d="M456.8102,-503.805C470.9389,-494.1444 486.8584,-483.2592 500.6635,-473.8198"/>
<polygon fill="#c0c0c0" stroke="#c0c0c0" stroke-width="2" points="502.6716,-476.6868 508.9509,-468.1532 498.7205,-470.9084 502.6716,-476.6868"/>
</g>
<!-- 18 -->
<g id="node19" class="node">
<title>18</title>
<path fill="none" stroke="#8fd856" stroke-width="2" d="M365,-396C365,-396 306,-396 306,-396 300,-396 294,-390 294,-384 294,-384 294,-372 294,-372 294,-366 300,-360 306,-360 306,-360 365,-360 365,-360 371,-360 377,-366 377,-372 377,-372 377,-384 377,-384 377,-390 371,-396 365,-396"/>
<text text-anchor="middle" x="335.5" y="-375.5" font-family="sans" font-size="10.00" fill="#000000">read_extension</text>
</g>
<!-- 5&#45;&gt;18 -->
<g id="edge37" class="edge">
<title>5&#45;&gt;18</title>
<path fill="none" stroke="#c0c0c0" stroke-width="2" d="M384.1666,-503.7716C373.1541,-493.7155 361.9051,-481.406 354.5,-468 344.0435,-449.0699 339.333,-424.9826 337.2154,-406.4917"/>
<polygon fill="#c0c0c0" stroke="#c0c0c0" stroke-width="2" points="340.6801,-405.954 336.2444,-396.3324 333.7118,-406.6201 340.6801,-405.954"/>
</g>
<!-- 19 -->
<g id="node20" class="node">
<title>19</title>
<path fill="none" stroke="#56d86b" stroke-width="2" d="M405.5,-468C405.5,-468 375.5,-468 375.5,-468 369.5,-468 363.5,-462 363.5,-456 363.5,-456 363.5,-444 363.5,-444 363.5,-438 369.5,-432 375.5,-432 375.5,-432 405.5,-432 405.5,-432 411.5,-432 417.5,-438 417.5,-444 417.5,-444 417.5,-456 417.5,-456 417.5,-462 411.5,-468 405.5,-468"/>
<text text-anchor="middle" x="390.5" y="-447.5" font-family="sans" font-size="10.00" fill="#000000">loglog</text>
</g>
<!-- 5&#45;&gt;19 -->
<g id="edge39" class="edge">
<title>5&#45;&gt;19</title>
<path fill="none" stroke="#c0c0c0" stroke-width="2" d="M409.3318,-503.805C406.3971,-495.4203 403.1396,-486.1132 400.1703,-477.6295"/>
<polygon fill="#c0c0c0" stroke="#c0c0c0" stroke-width="2" points="403.4607,-476.4356 396.8536,-468.1532 396.8537,-478.7481 403.4607,-476.4356"/>
</g>
<!-- 6 -->
<g id="node7" class="node">
<title>6</title>
<path fill="none" stroke="#56d8b9" stroke-width="2" d="M1266.5,-396C1266.5,-396 1196.5,-396 1196.5,-396 1190.5,-396 1184.5,-390 1184.5,-384 1184.5,-384 1184.5,-372 1184.5,-372 1184.5,-366 1190.5,-360 1196.5,-360 1196.5,-360 1266.5,-360 1266.5,-360 1272.5,-360 1278.5,-366 1278.5,-372 1278.5,-372 1278.5,-384 1278.5,-384 1278.5,-390 1272.5,-396 1266.5,-396"/>
<text text-anchor="middle" x="1231.5" y="-381" font-family="sans" font-size="10.00" fill="#000000">seqkit_stats</text>
<text text-anchor="middle" x="1231.5" y="-370" font-family="sans" font-size="10.00" fill="#000000">tool: merge_lanes</text>
</g>
<!-- 6&#45;&gt;1 -->
<g id="edge7" class="edge">
<title>6&#45;&gt;1</title>
<path fill="none" stroke="#c0c0c0" stroke-width="2" d="M1236.5407,-359.6958C1247.3035,-316.2024 1267.3249,-205.6967 1212.5,-144 1182.4241,-110.1544 1048.3179,-96.7637 981.9515,-92.138"/>
<polygon fill="#c0c0c0" stroke="#c0c0c0" stroke-width="2" points="982.1185,-88.6415 971.908,-91.4691 981.6533,-95.626 982.1185,-88.6415"/>
</g>
<!-- 7 -->
<g id="node8" class="node">
<title>7</title>
<path fill="none" stroke="#56a9d8" stroke-width="2" d="M1424.5,-556C1424.5,-556 1320.5,-556 1320.5,-556 1314.5,-556 1308.5,-550 1308.5,-544 1308.5,-544 1308.5,-516 1308.5,-516 1308.5,-510 1314.5,-504 1320.5,-504 1320.5,-504 1424.5,-504 1424.5,-504 1430.5,-504 1436.5,-510 1436.5,-516 1436.5,-516 1436.5,-544 1436.5,-544 1436.5,-550 1430.5,-556 1424.5,-556"/>
<text text-anchor="middle" x="1372.5" y="-544" font-family="sans" font-size="10.00" fill="#000000">merge_lanes</text>
<text text-anchor="middle" x="1372.5" y="-533" font-family="sans" font-size="10.00" fill="#000000">library: lib1</text>
<text text-anchor="middle" x="1372.5" y="-522" font-family="sans" font-size="10.00" fill="#000000">read_type_trim: collapsed</text>
<text text-anchor="middle" x="1372.5" y="-511" font-family="sans" font-size="10.00" fill="#000000">sample: HD827sonic_1</text>
</g>
<!-- 7&#45;&gt;6 -->
<g id="edge25" class="edge">
<title>7&#45;&gt;6</title>
<path fill="none" stroke="#c0c0c0" stroke-width="2" d="M1323.5873,-503.7916C1308.2171,-493.9714 1292.0112,-481.8021 1279.5,-468 1262.8906,-449.6768 1250.1181,-424.5609 1241.9392,-405.5166"/>
<polygon fill="#c0c0c0" stroke="#c0c0c0" stroke-width="2" points="1245.1357,-404.0873 1238.0849,-396.1793 1238.6653,-406.7583 1245.1357,-404.0873"/>
</g>
<!-- 11 -->
<g id="node12" class="node">
<title>11</title>
<path fill="none" stroke="#d8cb56" stroke-width="2" d="M1370.5,-468C1370.5,-468 1300.5,-468 1300.5,-468 1294.5,-468 1288.5,-462 1288.5,-456 1288.5,-456 1288.5,-444 1288.5,-444 1288.5,-438 1294.5,-432 1300.5,-432 1300.5,-432 1370.5,-432 1370.5,-432 1376.5,-432 1382.5,-438 1382.5,-444 1382.5,-444 1382.5,-456 1382.5,-456 1382.5,-462 1376.5,-468 1370.5,-468"/>
<text text-anchor="middle" x="1335.5" y="-453" font-family="sans" font-size="10.00" fill="#000000">nonpareil_infer</text>
<text text-anchor="middle" x="1335.5" y="-442" font-family="sans" font-size="10.00" fill="#000000">tool: merge_lanes</text>
</g>
<!-- 7&#45;&gt;11 -->
<g id="edge29" class="edge">
<title>7&#45;&gt;11</title>
<path fill="none" stroke="#c0c0c0" stroke-width="2" d="M1360.3848,-503.805C1356.4647,-495.3292 1352.1087,-485.9107 1348.1508,-477.3531"/>
<polygon fill="#c0c0c0" stroke="#c0c0c0" stroke-width="2" points="1351.2704,-475.7603 1343.8959,-468.1532 1344.917,-478.6988 1351.2704,-475.7603"/>
</g>
<!-- 21 -->
<g id="node22" class="node">
<title>21</title>
<path fill="none" stroke="#8fd856" stroke-width="2" d="M1495,-396C1495,-396 1436,-396 1436,-396 1430,-396 1424,-390 1424,-384 1424,-384 1424,-372 1424,-372 1424,-366 1430,-360 1436,-360 1436,-360 1495,-360 1495,-360 1501,-360 1507,-366 1507,-372 1507,-372 1507,-384 1507,-384 1507,-390 1501,-396 1495,-396"/>
<text text-anchor="middle" x="1465.5" y="-375.5" font-family="sans" font-size="10.00" fill="#000000">read_extension</text>
</g>
<!-- 7&#45;&gt;21 -->
<g id="edge41" class="edge">
<title>7&#45;&gt;21</title>
<path fill="none" stroke="#c0c0c0" stroke-width="2" d="M1387.0749,-503.9511C1398.3461,-484.0538 1414.5071,-456.0526 1429.5,-432 1435.0738,-423.0582 1441.3793,-413.4434 1447.1381,-404.8405"/>
<polygon fill="#c0c0c0" stroke="#c0c0c0" stroke-width="2" points="1450.1997,-406.5604 1452.888,-396.3123 1444.3956,-402.6472 1450.1997,-406.5604"/>
</g>
<!-- 22 -->
<g id="node23" class="node">
<title>22</title>
<path fill="none" stroke="#56d86b" stroke-width="2" d="M1480.5,-468C1480.5,-468 1450.5,-468 1450.5,-468 1444.5,-468 1438.5,-462 1438.5,-456 1438.5,-456 1438.5,-444 1438.5,-444 1438.5,-438 1444.5,-432 1450.5,-432 1450.5,-432 1480.5,-432 1480.5,-432 1486.5,-432 1492.5,-438 1492.5,-444 1492.5,-444 1492.5,-456 1492.5,-456 1492.5,-462 1486.5,-468 1480.5,-468"/>
<text text-anchor="middle" x="1465.5" y="-447.5" font-family="sans" font-size="10.00" fill="#000000">loglog</text>
</g>
<!-- 7&#45;&gt;22 -->
<g id="edge43" class="edge">
<title>7&#45;&gt;22</title>
<path fill="none" stroke="#c0c0c0" stroke-width="2" d="M1402.9517,-503.805C1413.7584,-494.5089 1425.8832,-484.079 1436.5602,-474.8945"/>
<polygon fill="#c0c0c0" stroke="#c0c0c0" stroke-width="2" points="1439.0983,-477.328 1444.3969,-468.1532 1434.5333,-472.0212 1439.0983,-477.328"/>
</g>
<!-- 8 -->
<g id="node9" class="node">
<title>8</title>
<path fill="none" stroke="#567bd8" stroke-width="2" d="M755,-180C755,-180 702,-180 702,-180 696,-180 690,-174 690,-168 690,-168 690,-156 690,-156 690,-150 696,-144 702,-144 702,-144 755,-144 755,-144 761,-144 767,-150 767,-156 767,-156 767,-168 767,-168 767,-174 761,-180 755,-180"/>
<text text-anchor="middle" x="728.5" y="-159.5" font-family="sans" font-size="10.00" fill="#000000">nonpareil_plot</text>
</g>
<!-- 8&#45;&gt;1 -->
<g id="edge8" class="edge">
<title>8&#45;&gt;1</title>
<path fill="none" stroke="#c0c0c0" stroke-width="2" d="M767.2149,-147.3008C770.3498,-146.1658 773.474,-145.053 776.5,-144 821.4009,-128.3749 873.5979,-111.8505 907.7465,-101.2587"/>
<polygon fill="#c0c0c0" stroke="#c0c0c0" stroke-width="2" points="908.7877,-104.6003 917.3072,-98.302 906.7196,-97.9128 908.7877,-104.6003"/>
</g>
<!-- 9&#45;&gt;8 -->
<g id="edge26" class="edge">
<title>9&#45;&gt;8</title>
<path fill="none" stroke="#c0c0c0" stroke-width="2" d="M728.5,-431.9843C728.5,-383.2939 728.5,-248.7961 728.5,-190.0573"/>
<polygon fill="#c0c0c0" stroke="#c0c0c0" stroke-width="2" points="732.0001,-190.0088 728.5,-180.0089 725.0001,-190.0089 732.0001,-190.0088"/>
</g>
<!-- 10 -->
<g id="node11" class="node">
<title>10</title>
<path fill="none" stroke="#567bd8" stroke-width="2" d="M1362,-396C1362,-396 1309,-396 1309,-396 1303,-396 1297,-390 1297,-384 1297,-384 1297,-372 1297,-372 1297,-366 1303,-360 1309,-360 1309,-360 1362,-360 1362,-360 1368,-360 1374,-366 1374,-372 1374,-372 1374,-384 1374,-384 1374,-390 1368,-396 1362,-396"/>
<text text-anchor="middle" x="1335.5" y="-375.5" font-family="sans" font-size="10.00" fill="#000000">nonpareil_plot</text>
</g>
<!-- 10&#45;&gt;1 -->
<g id="edge9" class="edge">
<title>10&#45;&gt;1</title>
<path fill="none" stroke="#c0c0c0" stroke-width="2" d="M1315.8396,-359.5617C1306.4065,-349.7816 1295.6335,-337.0978 1288.5,-324 1248.6714,-250.8713 1298.2054,-199.9157 1236.5,-144 1199.618,-110.5785 1052.2559,-96.8531 982.0547,-92.1255"/>
<polygon fill="#c0c0c0" stroke="#c0c0c0" stroke-width="2" points="982.084,-88.6202 971.8788,-91.4671 981.6319,-95.6056 982.084,-88.6202"/>
</g>
<!-- 11&#45;&gt;10 -->
<g id="edge28" class="edge">
<title>11&#45;&gt;10</title>
<path fill="none" stroke="#c0c0c0" stroke-width="2" d="M1335.5,-431.8314C1335.5,-424.131 1335.5,-414.9743 1335.5,-406.4166"/>
<polygon fill="#c0c0c0" stroke="#c0c0c0" stroke-width="2" points="1339.0001,-406.4132 1335.5,-396.4133 1332.0001,-406.4133 1339.0001,-406.4132"/>
</g>
<!-- 12 -->
<g id="node13" class="node">
<title>12</title>
<path fill="none" stroke="#567bd8" stroke-width="2" d="M576,-396C576,-396 523,-396 523,-396 517,-396 511,-390 511,-384 511,-384 511,-372 511,-372 511,-366 517,-360 523,-360 523,-360 576,-360 576,-360 582,-360 588,-366 588,-372 588,-372 588,-384 588,-384 588,-390 582,-396 576,-396"/>
<text text-anchor="middle" x="549.5" y="-375.5" font-family="sans" font-size="10.00" fill="#000000">nonpareil_plot</text>
</g>
<!-- 12&#45;&gt;1 -->
<g id="edge10" class="edge">
<title>12&#45;&gt;1</title>
<path fill="none" stroke="#c0c0c0" stroke-width="2" d="M544.3182,-359.8151C533.0854,-316.0991 511.824,-204.2807 568.5,-144 591.5571,-119.4764 816.99,-99.7227 907.3341,-92.7288"/>
<polygon fill="#c0c0c0" stroke="#c0c0c0" stroke-width="2" points="907.7049,-96.2107 917.409,-91.9585 907.1713,-89.2311 907.7049,-96.2107"/>
</g>
<!-- 13&#45;&gt;12 -->
<g id="edge30" class="edge">
<title>13&#45;&gt;12</title>
<path fill="none" stroke="#c0c0c0" stroke-width="2" d="M539.0328,-431.8314C540.5301,-424.131 542.3105,-414.9743 543.9745,-406.4166"/>
<polygon fill="#c0c0c0" stroke="#c0c0c0" stroke-width="2" points="547.4465,-406.8975 545.9196,-396.4133 540.5752,-405.5614 547.4465,-406.8975"/>
</g>
<!-- 14 -->
<g id="node15" class="node">
<title>14</title>
<path fill="none" stroke="#56d8b9" stroke-width="2" d="M875.5,-180C875.5,-180 797.5,-180 797.5,-180 791.5,-180 785.5,-174 785.5,-168 785.5,-168 785.5,-156 785.5,-156 785.5,-150 791.5,-144 797.5,-144 797.5,-144 875.5,-144 875.5,-144 881.5,-144 887.5,-150 887.5,-156 887.5,-156 887.5,-168 887.5,-168 887.5,-174 881.5,-180 875.5,-180"/>
<text text-anchor="middle" x="836.5" y="-165" font-family="sans" font-size="10.00" fill="#000000">seqkit_stats</text>
<text text-anchor="middle" x="836.5" y="-154" font-family="sans" font-size="10.00" fill="#000000">tool: extend/tadpole</text>
</g>
<!-- 14&#45;&gt;1 -->
<g id="edge11" class="edge">
<title>14&#45;&gt;1</title>
<path fill="none" stroke="#c0c0c0" stroke-width="2" d="M863.753,-143.8314C877.4389,-134.7074 894.1915,-123.539 908.8827,-113.7449"/>
<polygon fill="#c0c0c0" stroke="#c0c0c0" stroke-width="2" points="910.8767,-116.6221 917.2558,-108.1628 906.9938,-110.7977 910.8767,-116.6221"/>
</g>
<!-- 15&#45;&gt;14 -->
<g id="edge32" class="edge">
<title>15&#45;&gt;14</title>
<path fill="none" stroke="#c0c0c0" stroke-width="2" d="M856.6621,-359.9555C852.8283,-322.3144 843.9542,-235.1867 839.3645,-190.1246"/>
<polygon fill="#c0c0c0" stroke="#c0c0c0" stroke-width="2" points="842.8435,-189.7389 838.3481,-180.1451 835.8795,-190.4483 842.8435,-189.7389"/>
</g>
<!-- 24 -->
<g id="node25" class="node">
<title>24</title>
<path fill="none" stroke="#d8cb56" stroke-width="2" d="M974.5,-324C974.5,-324 896.5,-324 896.5,-324 890.5,-324 884.5,-318 884.5,-312 884.5,-312 884.5,-300 884.5,-300 884.5,-294 890.5,-288 896.5,-288 896.5,-288 974.5,-288 974.5,-288 980.5,-288 986.5,-294 986.5,-300 986.5,-300 986.5,-312 986.5,-312 986.5,-318 980.5,-324 974.5,-324"/>
<text text-anchor="middle" x="935.5" y="-309" font-family="sans" font-size="10.00" fill="#000000">nonpareil_infer</text>
<text text-anchor="middle" x="935.5" y="-298" font-family="sans" font-size="10.00" fill="#000000">tool: extend/tadpole</text>
</g>
<!-- 15&#45;&gt;24 -->
<g id="edge45" class="edge">
<title>15&#45;&gt;24</title>
<path fill="none" stroke="#c0c0c0" stroke-width="2" d="M877.9304,-359.8314C887.232,-351.1337 898.5204,-340.5783 908.6286,-331.1265"/>
<polygon fill="#c0c0c0" stroke="#c0c0c0" stroke-width="2" points="911.1621,-333.5493 916.0759,-324.1628 906.3811,-328.4363 911.1621,-333.5493"/>
</g>
<!-- 32 -->
<g id="node33" class="node">
<title>32</title>
<path fill="none" stroke="#d87d56" stroke-width="2" d="M1129.5,-324C1129.5,-324 1069.5,-324 1069.5,-324 1063.5,-324 1057.5,-318 1057.5,-312 1057.5,-312 1057.5,-300 1057.5,-300 1057.5,-294 1063.5,-288 1069.5,-288 1069.5,-288 1129.5,-288 1129.5,-288 1135.5,-288 1141.5,-294 1141.5,-300 1141.5,-300 1141.5,-312 1141.5,-312 1141.5,-318 1135.5,-324 1129.5,-324"/>
<text text-anchor="middle" x="1099.5" y="-303.5" font-family="sans" font-size="10.00" fill="#000000">low_complexity</text>
</g>
<!-- 15&#45;&gt;32 -->
<g id="edge53" class="edge">
<title>15&#45;&gt;32</title>
<path fill="none" stroke="#c0c0c0" stroke-width="2" d="M900.2039,-365.5408C941.1602,-353.3048 1003.7429,-334.6079 1047.8306,-321.4365"/>
<polygon fill="#c0c0c0" stroke="#c0c0c0" stroke-width="2" points="1048.9193,-324.7642 1057.4989,-318.548 1046.9155,-318.0571 1048.9193,-324.7642"/>
</g>
<!-- 16&#45;&gt;15 -->
<g id="edge34" class="edge">
<title>16&#45;&gt;15</title>
<path fill="none" stroke="#c0c0c0" stroke-width="2" d="M858.5,-431.8314C858.5,-424.131 858.5,-414.9743 858.5,-406.4166"/>
<polygon fill="#c0c0c0" stroke="#c0c0c0" stroke-width="2" points="862.0001,-406.4132 858.5,-396.4133 855.0001,-406.4133 862.0001,-406.4132"/>
</g>
<!-- 17 -->
<g id="node18" class="node">
<title>17</title>
<path fill="none" stroke="#56d8b9" stroke-width="2" d="M471.5,-252C471.5,-252 393.5,-252 393.5,-252 387.5,-252 381.5,-246 381.5,-240 381.5,-240 381.5,-228 381.5,-228 381.5,-222 387.5,-216 393.5,-216 393.5,-216 471.5,-216 471.5,-216 477.5,-216 483.5,-222 483.5,-228 483.5,-228 483.5,-240 483.5,-240 483.5,-246 477.5,-252 471.5,-252"/>
<text text-anchor="middle" x="432.5" y="-237" font-family="sans" font-size="10.00" fill="#000000">seqkit_stats</text>
<text text-anchor="middle" x="432.5" y="-226" font-family="sans" font-size="10.00" fill="#000000">tool: extend/tadpole</text>
</g>
<!-- 17&#45;&gt;1 -->
<g id="edge12" class="edge">
<title>17&#45;&gt;1</title>
<path fill="none" stroke="#c0c0c0" stroke-width="2" d="M440.0222,-215.988C449.873,-194.8697 469.2754,-160.6423 497.5,-144 566.6313,-103.2374 812.4434,-93.1245 907.0305,-90.7183"/>
<polygon fill="#c0c0c0" stroke="#c0c0c0" stroke-width="2" points="907.3605,-94.2115 917.2739,-90.4731 907.193,-87.2135 907.3605,-94.2115"/>
</g>
<!-- 18&#45;&gt;17 -->
<g id="edge36" class="edge">
<title>18&#45;&gt;17</title>
<path fill="none" stroke="#c0c0c0" stroke-width="2" d="M347.7851,-359.7623C364.6943,-334.66 395.2482,-289.3017 414.6715,-260.4671"/>
<polygon fill="#c0c0c0" stroke="#c0c0c0" stroke-width="2" points="417.6306,-262.3389 420.3146,-252.0896 411.8249,-258.4281 417.6306,-262.3389"/>
</g>
<!-- 28 -->
<g id="node29" class="node">
<title>28</title>
<path fill="none" stroke="#d8cb56" stroke-width="2" d="M118.5,-324C118.5,-324 40.5,-324 40.5,-324 34.5,-324 28.5,-318 28.5,-312 28.5,-312 28.5,-300 28.5,-300 28.5,-294 34.5,-288 40.5,-288 40.5,-288 118.5,-288 118.5,-288 124.5,-288 130.5,-294 130.5,-300 130.5,-300 130.5,-312 130.5,-312 130.5,-318 124.5,-324 118.5,-324"/>
<text text-anchor="middle" x="79.5" y="-309" font-family="sans" font-size="10.00" fill="#000000">nonpareil_infer</text>
<text text-anchor="middle" x="79.5" y="-298" font-family="sans" font-size="10.00" fill="#000000">tool: extend/tadpole</text>
</g>
<!-- 18&#45;&gt;28 -->
<g id="edge49" class="edge">
<title>18&#45;&gt;28</title>
<path fill="none" stroke="#c0c0c0" stroke-width="2" d="M293.7994,-366.2717C252.2659,-354.5904 188.0413,-336.5272 140.7249,-323.2195"/>
<polygon fill="#c0c0c0" stroke="#c0c0c0" stroke-width="2" points="141.4731,-319.7942 130.899,-320.456 139.5778,-326.5328 141.4731,-319.7942"/>
</g>
<!-- 30 -->
<g id="node31" class="node">
<title>30</title>
<path fill="none" stroke="#d87d56" stroke-width="2" d="M300.5,-324C300.5,-324 240.5,-324 240.5,-324 234.5,-324 228.5,-318 228.5,-312 228.5,-312 228.5,-300 228.5,-300 228.5,-294 234.5,-288 240.5,-288 240.5,-288 300.5,-288 300.5,-288 306.5,-288 312.5,-294 312.5,-300 312.5,-300 312.5,-312 312.5,-312 312.5,-318 306.5,-324 300.5,-324"/>
<text text-anchor="middle" x="270.5" y="-303.5" font-family="sans" font-size="10.00" fill="#000000">low_complexity</text>
</g>
<!-- 18&#45;&gt;30 -->
<g id="edge51" class="edge">
<title>18&#45;&gt;30</title>
<path fill="none" stroke="#c0c0c0" stroke-width="2" d="M319.0978,-359.8314C311.4585,-351.3694 302.2317,-341.1489 293.8793,-331.8971"/>
<polygon fill="#c0c0c0" stroke="#c0c0c0" stroke-width="2" points="296.4221,-329.4906 287.1231,-324.4133 291.2262,-334.1813 296.4221,-329.4906"/>
</g>
<!-- 19&#45;&gt;18 -->
<g id="edge38" class="edge">
<title>19&#45;&gt;18</title>
<path fill="none" stroke="#c0c0c0" stroke-width="2" d="M376.6212,-431.8314C370.2864,-423.5386 362.6616,-413.557 355.7074,-404.4533"/>
<polygon fill="#c0c0c0" stroke="#c0c0c0" stroke-width="2" points="358.4175,-402.2353 349.5657,-396.4133 352.8548,-406.4847 358.4175,-402.2353"/>
</g>
<!-- 20 -->
<g id="node21" class="node">
<title>20</title>
<path fill="none" stroke="#56d8b9" stroke-width="2" d="M1387.5,-324C1387.5,-324 1309.5,-324 1309.5,-324 1303.5,-324 1297.5,-318 1297.5,-312 1297.5,-312 1297.5,-300 1297.5,-300 1297.5,-294 1303.5,-288 1309.5,-288 1309.5,-288 1387.5,-288 1387.5,-288 1393.5,-288 1399.5,-294 1399.5,-300 1399.5,-300 1399.5,-312 1399.5,-312 1399.5,-318 1393.5,-324 1387.5,-324"/>
<text text-anchor="middle" x="1348.5" y="-309" font-family="sans" font-size="10.00" fill="#000000">seqkit_stats</text>
<text text-anchor="middle" x="1348.5" y="-298" font-family="sans" font-size="10.00" fill="#000000">tool: extend/tadpole</text>
</g>
<!-- 20&#45;&gt;1 -->
<g id="edge13" class="edge">
<title>20&#45;&gt;1</title>
<path fill="none" stroke="#c0c0c0" stroke-width="2" d="M1341.3664,-287.8882C1324.7973,-245.8643 1284.9988,-145.1963 1283.5,-144 1237.456,-107.2512 1060.3488,-95.0567 982.0715,-91.4085"/>
<polygon fill="#c0c0c0" stroke="#c0c0c0" stroke-width="2" points="981.8514,-87.8954 971.7061,-90.9487 981.5411,-94.8885 981.8514,-87.8954"/>
</g>
<!-- 21&#45;&gt;20 -->
<g id="edge40" class="edge">
<title>21&#45;&gt;20</title>
<path fill="none" stroke="#c0c0c0" stroke-width="2" d="M1435.976,-359.8314C1421.0109,-350.6221 1402.6614,-339.3301 1386.6397,-329.4706"/>
<polygon fill="#c0c0c0" stroke="#c0c0c0" stroke-width="2" points="1388.3655,-326.423 1378.0146,-324.1628 1384.6968,-332.3847 1388.3655,-326.423"/>
</g>
<!-- 26 -->
<g id="node27" class="node">
<title>26</title>
<path fill="none" stroke="#d8cb56" stroke-width="2" d="M1507.5,-324C1507.5,-324 1429.5,-324 1429.5,-324 1423.5,-324 1417.5,-318 1417.5,-312 1417.5,-312 1417.5,-300 1417.5,-300 1417.5,-294 1423.5,-288 1429.5,-288 1429.5,-288 1507.5,-288 1507.5,-288 1513.5,-288 1519.5,-294 1519.5,-300 1519.5,-300 1519.5,-312 1519.5,-312 1519.5,-318 1513.5,-324 1507.5,-324"/>
<text text-anchor="middle" x="1468.5" y="-309" font-family="sans" font-size="10.00" fill="#000000">nonpareil_infer</text>
<text text-anchor="middle" x="1468.5" y="-298" font-family="sans" font-size="10.00" fill="#000000">tool: extend/tadpole</text>
</g>
<!-- 21&#45;&gt;26 -->
<g id="edge47" class="edge">
<title>21&#45;&gt;26</title>
<path fill="none" stroke="#c0c0c0" stroke-width="2" d="M1466.257,-359.8314C1466.5779,-352.131 1466.9594,-342.9743 1467.316,-334.4166"/>
<polygon fill="#c0c0c0" stroke="#c0c0c0" stroke-width="2" points="1470.8133,-334.5503 1467.7328,-324.4133 1463.8194,-334.2589 1470.8133,-334.5503"/>
</g>
<!-- 34 -->
<g id="node35" class="node">
<title>34</title>
<path fill="none" stroke="#d87d56" stroke-width="2" d="M1642.5,-324C1642.5,-324 1582.5,-324 1582.5,-324 1576.5,-324 1570.5,-318 1570.5,-312 1570.5,-312 1570.5,-300 1570.5,-300 1570.5,-294 1576.5,-288 1582.5,-288 1582.5,-288 1642.5,-288 1642.5,-288 1648.5,-288 1654.5,-294 1654.5,-300 1654.5,-300 1654.5,-312 1654.5,-312 1654.5,-318 1648.5,-324 1642.5,-324"/>
<text text-anchor="middle" x="1612.5" y="-303.5" font-family="sans" font-size="10.00" fill="#000000">low_complexity</text>
</g>
<!-- 21&#45;&gt;34 -->
<g id="edge55" class="edge">
<title>21&#45;&gt;34</title>
<path fill="none" stroke="#c0c0c0" stroke-width="2" d="M1502.5943,-359.8314C1521.9926,-350.3302 1545.917,-338.6121 1566.4862,-328.5374"/>
<polygon fill="#c0c0c0" stroke="#c0c0c0" stroke-width="2" points="1568.2314,-331.5799 1575.6724,-324.038 1565.1522,-325.2935 1568.2314,-331.5799"/>
</g>
<!-- 22&#45;&gt;21 -->
<g id="edge42" class="edge">
<title>22&#45;&gt;21</title>
<path fill="none" stroke="#c0c0c0" stroke-width="2" d="M1465.5,-431.8314C1465.5,-424.131 1465.5,-414.9743 1465.5,-406.4166"/>
<polygon fill="#c0c0c0" stroke="#c0c0c0" stroke-width="2" points="1469.0001,-406.4132 1465.5,-396.4133 1462.0001,-406.4133 1469.0001,-406.4132"/>
</g>
<!-- 23 -->
<g id="node24" class="node">
<title>23</title>
<path fill="none" stroke="#567bd8" stroke-width="2" d="M971,-180C971,-180 918,-180 918,-180 912,-180 906,-174 906,-168 906,-168 906,-156 906,-156 906,-150 912,-144 918,-144 918,-144 971,-144 971,-144 977,-144 983,-150 983,-156 983,-156 983,-168 983,-168 983,-174 977,-180 971,-180"/>
<text text-anchor="middle" x="944.5" y="-159.5" font-family="sans" font-size="10.00" fill="#000000">nonpareil_plot</text>
</g>
<!-- 23&#45;&gt;1 -->
<g id="edge14" class="edge">
<title>23&#45;&gt;1</title>
<path fill="none" stroke="#c0c0c0" stroke-width="2" d="M944.5,-143.8314C944.5,-136.131 944.5,-126.9743 944.5,-118.4166"/>
<polygon fill="#c0c0c0" stroke="#c0c0c0" stroke-width="2" points="948.0001,-118.4132 944.5,-108.4133 941.0001,-118.4133 948.0001,-118.4132"/>
</g>
<!-- 24&#45;&gt;23 -->
<g id="edge44" class="edge">
<title>24&#45;&gt;23</title>
<path fill="none" stroke="#c0c0c0" stroke-width="2" d="M936.6399,-287.7623C938.1749,-263.201 940.922,-219.2474 942.7279,-190.3541"/>
<polygon fill="#c0c0c0" stroke="#c0c0c0" stroke-width="2" points="946.2387,-190.2885 943.3694,-180.0896 939.2523,-189.8518 946.2387,-190.2885"/>
</g>
<!-- 25 -->
<g id="node26" class="node">
<title>25</title>
<path fill="none" stroke="#567bd8" stroke-width="2" d="M1401,-252C1401,-252 1348,-252 1348,-252 1342,-252 1336,-246 1336,-240 1336,-240 1336,-228 1336,-228 1336,-222 1342,-216 1348,-216 1348,-216 1401,-216 1401,-216 1407,-216 1413,-222 1413,-228 1413,-228 1413,-240 1413,-240 1413,-246 1407,-252 1401,-252"/>
<text text-anchor="middle" x="1374.5" y="-231.5" font-family="sans" font-size="10.00" fill="#000000">nonpareil_plot</text>
</g>
<!-- 25&#45;&gt;1 -->
<g id="edge15" class="edge">
<title>25&#45;&gt;1</title>
<path fill="none" stroke="#c0c0c0" stroke-width="2" d="M1369.1172,-215.7928C1361.9003,-194.8183 1346.9567,-161.0605 1321.5,-144 1266.3253,-107.0233 1065.5573,-94.8261 981.6996,-91.2888"/>
<polygon fill="#c0c0c0" stroke="#c0c0c0" stroke-width="2" points="981.7351,-87.7875 971.602,-90.8812 981.4527,-94.7818 981.7351,-87.7875"/>
</g>
<!-- 26&#45;&gt;25 -->
<g id="edge46" class="edge">
<title>26&#45;&gt;25</title>
<path fill="none" stroke="#c0c0c0" stroke-width="2" d="M1444.7798,-287.8314C1433.0906,-278.8779 1418.8312,-267.9558 1406.2191,-258.2955"/>
<polygon fill="#c0c0c0" stroke="#c0c0c0" stroke-width="2" points="1408.2797,-255.4651 1398.2126,-252.1628 1404.0231,-261.0222 1408.2797,-255.4651"/>
</g>
<!-- 27 -->
<g id="node28" class="node">
<title>27</title>
<path fill="none" stroke="#567bd8" stroke-width="2" d="M65,-252C65,-252 12,-252 12,-252 6,-252 0,-246 0,-240 0,-240 0,-228 0,-228 0,-222 6,-216 12,-216 12,-216 65,-216 65,-216 71,-216 77,-222 77,-228 77,-228 77,-240 77,-240 77,-246 71,-252 65,-252"/>
<text text-anchor="middle" x="38.5" y="-231.5" font-family="sans" font-size="10.00" fill="#000000">nonpareil_plot</text>
</g>
<!-- 27&#45;&gt;1 -->
<g id="edge16" class="edge">
<title>27&#45;&gt;1</title>
<path fill="none" stroke="#c0c0c0" stroke-width="2" d="M69.6422,-215.9585C108.1365,-194.6409 176.3165,-160.0472 239.5,-144 367.8244,-111.4085 780.4553,-95.4008 907.1499,-91.1697"/>
<polygon fill="#c0c0c0" stroke="#c0c0c0" stroke-width="2" points="907.6055,-94.6567 917.4849,-90.8296 907.3752,-87.6605 907.6055,-94.6567"/>
</g>
<!-- 28&#45;&gt;27 -->
<g id="edge48" class="edge">
<title>28&#45;&gt;27</title>
<path fill="none" stroke="#c0c0c0" stroke-width="2" d="M69.154,-287.8314C64.5763,-279.7925 59.0948,-270.1666 54.0412,-261.2918"/>
<polygon fill="#c0c0c0" stroke="#c0c0c0" stroke-width="2" points="56.9752,-259.3712 48.9853,-252.4133 50.8923,-262.8351 56.9752,-259.3712"/>
</g>
<!-- 29 -->
<g id="node30" class="node">
<title>29</title>
<path fill="none" stroke="#56d8b9" stroke-width="2" d="M227.5,-252C227.5,-252 145.5,-252 145.5,-252 139.5,-252 133.5,-246 133.5,-240 133.5,-240 133.5,-228 133.5,-228 133.5,-222 139.5,-216 145.5,-216 145.5,-216 227.5,-216 227.5,-216 233.5,-216 239.5,-222 239.5,-228 239.5,-228 239.5,-240 239.5,-240 239.5,-246 233.5,-252 227.5,-252"/>
<text text-anchor="middle" x="186.5" y="-237" font-family="sans" font-size="10.00" fill="#000000">seqkit_stats</text>
<text text-anchor="middle" x="186.5" y="-226" font-family="sans" font-size="10.00" fill="#000000">tool: low_complexity</text>
</g>
<!-- 29&#45;&gt;1 -->
<g id="edge17" class="edge">
<title>29&#45;&gt;1</title>
<path fill="none" stroke="#c0c0c0" stroke-width="2" d="M202.7738,-215.6817C223.0461,-194.2617 259.8747,-159.7375 299.5,-144 411.2673,-99.6109 787.0279,-91.6999 907.2041,-90.299"/>
<polygon fill="#c0c0c0" stroke="#c0c0c0" stroke-width="2" points="907.411,-93.7971 917.3726,-90.1892 907.3353,-86.7975 907.411,-93.7971"/>
</g>
<!-- 30&#45;&gt;0 -->
<g id="edge3" class="edge">
<title>30&#45;&gt;0</title>
<path fill="none" stroke="#c0c0c0" stroke-width="2" d="M228.4239,-296.1162C189.7896,-286.0882 136.739,-269.5761 124.5,-252 115.3568,-238.8698 116.7492,-229.9973 124.5,-216 153.712,-163.2458 182.679,-164.192 239.5,-144 425.753,-77.8128 1055.7141,-31.4509 1216.7608,-20.4902"/>
<polygon fill="#c0c0c0" stroke="#c0c0c0" stroke-width="2" points="1217.3669,-23.9573 1227.1081,-19.7909 1216.8949,-16.9732 1217.3669,-23.9573"/>
</g>
<!-- 30&#45;&gt;29 -->
<g id="edge50" class="edge">
<title>30&#45;&gt;29</title>
<path fill="none" stroke="#c0c0c0" stroke-width="2" d="M249.3033,-287.8314C239.0566,-279.0485 226.5997,-268.3712 215.4903,-258.8489"/>
<polygon fill="#c0c0c0" stroke="#c0c0c0" stroke-width="2" points="217.5603,-256.0134 207.69,-252.1628 213.0048,-261.3282 217.5603,-256.0134"/>
</g>
<!-- 36 -->
<g id="node37" class="node">
<title>36</title>
<path fill="none" stroke="#d8cb56" stroke-width="2" d="M351.5,-252C351.5,-252 269.5,-252 269.5,-252 263.5,-252 257.5,-246 257.5,-240 257.5,-240 257.5,-228 257.5,-228 257.5,-222 263.5,-216 269.5,-216 269.5,-216 351.5,-216 351.5,-216 357.5,-216 363.5,-222 363.5,-228 363.5,-228 363.5,-240 363.5,-240 363.5,-246 357.5,-252 351.5,-252"/>
<text text-anchor="middle" x="310.5" y="-237" font-family="sans" font-size="10.00" fill="#000000">nonpareil_infer</text>
<text text-anchor="middle" x="310.5" y="-226" font-family="sans" font-size="10.00" fill="#000000">tool: low_complexity</text>
</g>
<!-- 30&#45;&gt;36 -->
<g id="edge57" class="edge">
<title>30&#45;&gt;36</title>
<path fill="none" stroke="#c0c0c0" stroke-width="2" d="M280.5937,-287.8314C285.0597,-279.7925 290.4075,-270.1666 295.3379,-261.2918"/>
<polygon fill="#c0c0c0" stroke="#c0c0c0" stroke-width="2" points="298.4735,-262.8546 300.2704,-252.4133 292.3544,-259.4551 298.4735,-262.8546"/>
</g>
<!-- 31 -->
<g id="node32" class="node">
<title>31</title>
<path fill="none" stroke="#56d8b9" stroke-width="2" d="M1095.5,-180C1095.5,-180 1013.5,-180 1013.5,-180 1007.5,-180 1001.5,-174 1001.5,-168 1001.5,-168 1001.5,-156 1001.5,-156 1001.5,-150 1007.5,-144 1013.5,-144 1013.5,-144 1095.5,-144 1095.5,-144 1101.5,-144 1107.5,-150 1107.5,-156 1107.5,-156 1107.5,-168 1107.5,-168 1107.5,-174 1101.5,-180 1095.5,-180"/>
<text text-anchor="middle" x="1054.5" y="-165" font-family="sans" font-size="10.00" fill="#000000">seqkit_stats</text>
<text text-anchor="middle" x="1054.5" y="-154" font-family="sans" font-size="10.00" fill="#000000">tool: low_complexity</text>
</g>
<!-- 31&#45;&gt;1 -->
<g id="edge18" class="edge">
<title>31&#45;&gt;1</title>
<path fill="none" stroke="#c0c0c0" stroke-width="2" d="M1026.7424,-143.8314C1012.6965,-134.6377 995.4795,-123.3684 980.4346,-113.5208"/>
<polygon fill="#c0c0c0" stroke="#c0c0c0" stroke-width="2" points="982.1516,-110.4616 971.8677,-107.9134 978.3179,-116.3185 982.1516,-110.4616"/>
</g>
<!-- 32&#45;&gt;0 -->
<g id="edge2" class="edge">
<title>32&#45;&gt;0</title>
<path fill="none" stroke="#c0c0c0" stroke-width="2" d="M1141.6229,-301.654C1251.6726,-290.2035 1539.7915,-259.5677 1546.5,-252 1635.985,-151.0542 1388.1806,-59.9112 1291.3872,-29.085"/>
<polygon fill="#c0c0c0" stroke="#c0c0c0" stroke-width="2" points="1292.2892,-25.6997 1281.6999,-26.0411 1290.1908,-32.3778 1292.2892,-25.6997"/>
</g>
<!-- 32&#45;&gt;31 -->
<g id="edge52" class="edge">
<title>32&#45;&gt;31</title>
<path fill="none" stroke="#c0c0c0" stroke-width="2" d="M1093.1964,-287.5507C1089.6773,-277.1377 1085.2581,-263.8708 1081.5,-252 1074.9558,-231.3289 1067.9288,-207.8617 1062.6844,-190.0741"/>
<polygon fill="#c0c0c0" stroke="#c0c0c0" stroke-width="2" points="1065.9962,-188.9296 1059.8198,-180.3214 1059.28,-190.9024 1065.9962,-188.9296"/>
</g>
<!-- 38 -->
<g id="node39" class="node">
<title>38</title>
<path fill="none" stroke="#d8cb56" stroke-width="2" d="M1184.5,-252C1184.5,-252 1102.5,-252 1102.5,-252 1096.5,-252 1090.5,-246 1090.5,-240 1090.5,-240 1090.5,-228 1090.5,-228 1090.5,-222 1096.5,-216 1102.5,-216 1102.5,-216 1184.5,-216 1184.5,-216 1190.5,-216 1196.5,-222 1196.5,-228 1196.5,-228 1196.5,-240 1196.5,-240 1196.5,-246 1190.5,-252 1184.5,-252"/>
<text text-anchor="middle" x="1143.5" y="-237" font-family="sans" font-size="10.00" fill="#000000">nonpareil_infer</text>
<text text-anchor="middle" x="1143.5" y="-226" font-family="sans" font-size="10.00" fill="#000000">tool: low_complexity</text>
</g>
<!-- 32&#45;&gt;38 -->
<g id="edge59" class="edge">
<title>32&#45;&gt;38</title>
<path fill="none" stroke="#c0c0c0" stroke-width="2" d="M1110.6031,-287.8314C1115.5674,-279.7079 1121.5222,-269.9637 1126.9928,-261.0118"/>
<polygon fill="#c0c0c0" stroke="#c0c0c0" stroke-width="2" points="1130.0194,-262.7712 1132.2474,-252.4133 1124.0464,-259.121 1130.0194,-262.7712"/>
</g>
<!-- 33 -->
<g id="node34" class="node">
<title>33</title>
<path fill="none" stroke="#56d8b9" stroke-width="2" d="M1525.5,-252C1525.5,-252 1443.5,-252 1443.5,-252 1437.5,-252 1431.5,-246 1431.5,-240 1431.5,-240 1431.5,-228 1431.5,-228 1431.5,-222 1437.5,-216 1443.5,-216 1443.5,-216 1525.5,-216 1525.5,-216 1531.5,-216 1537.5,-222 1537.5,-228 1537.5,-228 1537.5,-240 1537.5,-240 1537.5,-246 1531.5,-252 1525.5,-252"/>
<text text-anchor="middle" x="1484.5" y="-237" font-family="sans" font-size="10.00" fill="#000000">seqkit_stats</text>
<text text-anchor="middle" x="1484.5" y="-226" font-family="sans" font-size="10.00" fill="#000000">tool: low_complexity</text>
</g>
<!-- 33&#45;&gt;1 -->
<g id="edge19" class="edge">
<title>33&#45;&gt;1</title>
<path fill="none" stroke="#c0c0c0" stroke-width="2" d="M1463.9375,-215.6905C1439.0042,-194.6177 1394.7941,-160.7652 1350.5,-144 1283.2287,-118.5379 1068.7193,-99.5949 981.7044,-92.7693"/>
<polygon fill="#c0c0c0" stroke="#c0c0c0" stroke-width="2" points="981.7423,-89.2618 971.5018,-91.9789 981.2015,-96.2409 981.7423,-89.2618"/>
</g>
<!-- 34&#45;&gt;0 -->
<g id="edge4" class="edge">
<title>34&#45;&gt;0</title>
<path fill="none" stroke="#c0c0c0" stroke-width="2" d="M1654.6882,-293.4504C1674.7332,-285.1292 1696.8188,-271.9731 1708.5,-252 1724.5392,-224.5754 1688.435,-144.95 1687.5,-144 1631.0591,-86.6538 1386.113,-40.1677 1291.7521,-24.0712"/>
<polygon fill="#c0c0c0" stroke="#c0c0c0" stroke-width="2" points="1292.2359,-20.6035 1281.7928,-22.3902 1291.0708,-27.5058 1292.2359,-20.6035"/>
</g>
<!-- 34&#45;&gt;33 -->
<g id="edge54" class="edge">
<title>34&#45;&gt;33</title>
<path fill="none" stroke="#c0c0c0" stroke-width="2" d="M1580.2002,-287.8314C1563.6766,-278.5368 1543.3814,-267.1208 1525.7393,-257.1971"/>
<polygon fill="#c0c0c0" stroke="#c0c0c0" stroke-width="2" points="1527.2212,-254.015 1516.7895,-252.1628 1523.7893,-260.116 1527.2212,-254.015"/>
</g>
<!-- 40 -->
<g id="node41" class="node">
<title>40</title>
<path fill="none" stroke="#d8cb56" stroke-width="2" d="M1687.5,-252C1687.5,-252 1605.5,-252 1605.5,-252 1599.5,-252 1593.5,-246 1593.5,-240 1593.5,-240 1593.5,-228 1593.5,-228 1593.5,-222 1599.5,-216 1605.5,-216 1605.5,-216 1687.5,-216 1687.5,-216 1693.5,-216 1699.5,-222 1699.5,-228 1699.5,-228 1699.5,-240 1699.5,-240 1699.5,-246 1693.5,-252 1687.5,-252"/>
<text text-anchor="middle" x="1646.5" y="-237" font-family="sans" font-size="10.00" fill="#000000">nonpareil_infer</text>
<text text-anchor="middle" x="1646.5" y="-226" font-family="sans" font-size="10.00" fill="#000000">tool: low_complexity</text>
</g>
<!-- 34&#45;&gt;40 -->
<g id="edge61" class="edge">
<title>34&#45;&gt;40</title>
<path fill="none" stroke="#c0c0c0" stroke-width="2" d="M1621.0796,-287.8314C1624.8358,-279.8771 1629.3257,-270.369 1633.4798,-261.5723"/>
<polygon fill="#c0c0c0" stroke="#c0c0c0" stroke-width="2" points="1636.6996,-262.9503 1637.8048,-252.4133 1630.3699,-259.9612 1636.6996,-262.9503"/>
</g>
<!-- 35 -->
<g id="node36" class="node">
<title>35</title>
<path fill="none" stroke="#567bd8" stroke-width="2" d="M374,-180C374,-180 321,-180 321,-180 315,-180 309,-174 309,-168 309,-168 309,-156 309,-156 309,-150 315,-144 321,-144 321,-144 374,-144 374,-144 380,-144 386,-150 386,-156 386,-156 386,-168 386,-168 386,-174 380,-180 374,-180"/>
<text text-anchor="middle" x="347.5" y="-159.5" font-family="sans" font-size="10.00" fill="#000000">nonpareil_plot</text>
</g>
<!-- 35&#45;&gt;1 -->
<g id="edge20" class="edge">
<title>35&#45;&gt;1</title>
<path fill="none" stroke="#c0c0c0" stroke-width="2" d="M386.3354,-153.5277C402.4214,-150.2248 421.3043,-146.6129 438.5,-144 612.9323,-117.4945 823.1496,-99.4805 907.1645,-92.8399"/>
<polygon fill="#c0c0c0" stroke="#c0c0c0" stroke-width="2" points="907.5432,-96.3211 917.2392,-92.0505 906.9963,-89.3425 907.5432,-96.3211"/>
</g>
<!-- 36&#45;&gt;35 -->
<g id="edge56" class="edge">
<title>36&#45;&gt;35</title>
<path fill="none" stroke="#c0c0c0" stroke-width="2" d="M319.8367,-215.8314C323.9243,-207.8771 328.8104,-198.369 333.3309,-189.5723"/>
<polygon fill="#c0c0c0" stroke="#c0c0c0" stroke-width="2" points="336.5799,-190.9074 338.0376,-180.4133 330.3539,-187.7078 336.5799,-190.9074"/>
</g>
<!-- 37 -->
<g id="node38" class="node">
<title>37</title>
<path fill="none" stroke="#567bd8" stroke-width="2" d="M1191,-180C1191,-180 1138,-180 1138,-180 1132,-180 1126,-174 1126,-168 1126,-168 1126,-156 1126,-156 1126,-150 1132,-144 1138,-144 1138,-144 1191,-144 1191,-144 1197,-144 1203,-150 1203,-156 1203,-156 1203,-168 1203,-168 1203,-174 1197,-180 1191,-180"/>
<text text-anchor="middle" x="1164.5" y="-159.5" font-family="sans" font-size="10.00" fill="#000000">nonpareil_plot</text>
</g>
<!-- 37&#45;&gt;1 -->
<g id="edge21" class="edge">
<title>37&#45;&gt;1</title>
<path fill="none" stroke="#c0c0c0" stroke-width="2" d="M1125.7929,-147.278C1122.6563,-146.1482 1119.5296,-145.0427 1116.5,-144 1070.3058,-128.1004 1016.4986,-111.514 981.536,-100.9894"/>
<polygon fill="#c0c0c0" stroke="#c0c0c0" stroke-width="2" points="982.3427,-97.5773 971.7587,-98.0563 980.3313,-104.2821 982.3427,-97.5773"/>
</g>
<!-- 38&#45;&gt;37 -->
<g id="edge58" class="edge">
<title>38&#45;&gt;37</title>
<path fill="none" stroke="#c0c0c0" stroke-width="2" d="M1148.7992,-215.8314C1151.0698,-208.0463 1153.7746,-198.7729 1156.294,-190.1347"/>
<polygon fill="#c0c0c0" stroke="#c0c0c0" stroke-width="2" points="1159.6894,-190.9933 1159.1295,-180.4133 1152.9694,-189.0332 1159.6894,-190.9933"/>
</g>
<!-- 39 -->
<g id="node40" class="node">
<title>39</title>
<path fill="none" stroke="#567bd8" stroke-width="2" d="M1666,-180C1666,-180 1613,-180 1613,-180 1607,-180 1601,-174 1601,-168 1601,-168 1601,-156 1601,-156 1601,-150 1607,-144 1613,-144 1613,-144 1666,-144 1666,-144 1672,-144 1678,-150 1678,-156 1678,-156 1678,-168 1678,-168 1678,-174 1672,-180 1666,-180"/>
<text text-anchor="middle" x="1639.5" y="-159.5" font-family="sans" font-size="10.00" fill="#000000">nonpareil_plot</text>
</g>
<!-- 39&#45;&gt;1 -->
<g id="edge22" class="edge">
<title>39&#45;&gt;1</title>
<path fill="none" stroke="#c0c0c0" stroke-width="2" d="M1600.6446,-157.9747C1478.2713,-145.2972 1101.8493,-106.3009 981.7411,-93.8581"/>
<polygon fill="#c0c0c0" stroke="#c0c0c0" stroke-width="2" points="981.8881,-90.3546 971.5806,-92.8055 981.1667,-97.3174 981.8881,-90.3546"/>
</g>
<!-- 40&#45;&gt;39 -->
<g id="edge60" class="edge">
<title>40&#45;&gt;39</title>
<path fill="none" stroke="#c0c0c0" stroke-width="2" d="M1644.7336,-215.8314C1643.985,-208.131 1643.0947,-198.9743 1642.2627,-190.4166"/>
<polygon fill="#c0c0c0" stroke="#c0c0c0" stroke-width="2" points="1645.7415,-190.0276 1641.2902,-180.4133 1638.7744,-190.7051 1645.7415,-190.0276"/>
</g>
</g>
</svg>
