<?xml version="1.0" encoding="UTF-8" standalone="no"?>
<!DOCTYPE svg PUBLIC "-//W3C//DTD SVG 1.1//EN"
 "http://www.w3.org/Graphics/SVG/1.1/DTD/svg11.dtd">
<!-- Generated by graphviz version 2.40.1 (0)
 -->
<!-- Title: snakemake_dag Pages: 1 -->
<svg width="945pt" height="1690pt"
 viewBox="0.00 0.00 945.00 1690.00" xmlns="http://www.w3.org/2000/svg" xmlns:xlink="http://www.w3.org/1999/xlink">
<g id="graph0" class="graph" transform="scale(1 1) rotate(0) translate(4 1686)">
<title>snakemake_dag</title>
<polygon fill="#ffffff" stroke="transparent" points="-4,4 -4,-1686 941,-1686 941,4 -4,4"/>
<!-- 0 -->
<g id="node1" class="node">
<title>0</title>
<text text-anchor="start" x="325.5" y="-125.6" font-family="sans" font-weight="bold" font-size="18.00" fill="#000000">all</text>
<text text-anchor="start" x="140.5" y="-101.8" font-family="sans" font-size="10.00" fill="#000000"> </text>
<text text-anchor="start" x="144.5" y="-101.8" font-family="sans" font-weight="bold" font-size="14.00" fill="#000000">↪ input</text>
<text text-anchor="start" x="197.5" y="-101.8" font-family="sans" font-size="10.00" fill="#000000"> </text>
<text text-anchor="start" x="140.5" y="-82" font-family="monospace" font-size="10.00" fill="#000000">reports/multiqc.html</text>
<text text-anchor="start" x="140.5" y="-64" font-family="monospace" font-size="10.00" fill="#000000">results/reads/low_complexity/HD827sonic_1_lib1_collapsed.fastq.gz</text>
<text text-anchor="start" x="140.5" y="-46" font-family="monospace" font-size="10.00" fill="#000000">results/reads/low_complexity/HD827sonic_2_lib1_collapsed.fastq.gz</text>
<text text-anchor="start" x="140.5" y="-28" font-family="monospace" font-size="10.00" fill="#000000">results/reads/low_complexity/HD827sonic_2_lib2_collapsed.fastq.gz</text>
<text text-anchor="start" x="524.5" y="-10" font-family="sans" font-size="10.00" fill="#000000"> &#160;</text>
<polygon fill="#d95757" stroke="#d95757" points="134.5,-116 134.5,-116 538.5,-116 538.5,-116 134.5,-116"/>
<polygon fill="#d95757" stroke="#d95757" points="134.5,-22 134.5,-22 538.5,-22 538.5,-22 134.5,-22"/>
<polygon fill="none" stroke="#d95757" stroke-width="2" points="134,-1 134,-145 537,-145 537,-1 134,-1"/>
</g>
<!-- 1 -->
<g id="node2" class="node">
<title>1</title>
<text text-anchor="start" x="182.5" y="-599.6" font-family="sans" font-weight="bold" font-size="18.00" fill="#000000">multiqc</text>
<text text-anchor="start" x="7.5" y="-575.8" font-family="sans" font-size="10.00" fill="#000000"> </text>
<text text-anchor="start" x="11.5" y="-575.8" font-family="sans" font-weight="bold" font-size="14.00" fill="#000000">↪ input</text>
<text text-anchor="start" x="64.5" y="-575.8" font-family="sans" font-size="10.00" fill="#000000"> </text>
<text text-anchor="start" x="7.5" y="-556" font-family="monospace" font-size="10.00" fill="#000000">stats/reads/extend/tadpole/HD827sonic_1_lib1_collapsed.tsv</text>
<text text-anchor="start" x="7.5" y="-538" font-family="monospace" font-size="10.00" fill="#000000">stats/reads/extend/tadpole/HD827sonic_2_lib1_collapsed.tsv</text>
<text text-anchor="start" x="7.5" y="-520" font-family="monospace" font-size="10.00" fill="#000000">stats/reads/extend/tadpole/HD827sonic_2_lib2_collapsed.tsv</text>
<text text-anchor="start" x="7.5" y="-502" font-family="monospace" font-size="10.00" fill="#000000">stats/reads/low_complexity/HD827sonic_1_lib1_collapsed.tsv</text>
<text text-anchor="start" x="7.5" y="-484" font-family="monospace" font-size="10.00" fill="#000000">stats/reads/low_complexity/HD827sonic_2_lib1_collapsed.tsv</text>
<text text-anchor="start" x="7.5" y="-466" font-family="monospace" font-size="10.00" fill="#000000">stats/reads/low_complexity/HD827sonic_2_lib2_collapsed.tsv</text>
<text text-anchor="start" x="7.5" y="-448" font-family="monospace" font-size="10.00" fill="#000000">stats/reads/merge_lanes/HD827sonic_1_lib1_collapsed.tsv</text>
<text text-anchor="start" x="7.5" y="-430" font-family="monospace" font-size="10.00" fill="#000000">stats/reads/merge_lanes/HD827sonic_2_lib1_collapsed.tsv</text>
<text text-anchor="start" x="7.5" y="-412" font-family="monospace" font-size="10.00" fill="#000000">stats/reads/merge_lanes/HD827sonic_2_lib2_collapsed.tsv</text>
<text text-anchor="start" x="7.5" y="-394" font-family="monospace" font-size="10.00" fill="#000000">stats/reads/nonpareil/extend/tadpole/HD827sonic_1_lib1_collapsed.json</text>
<text text-anchor="start" x="7.5" y="-376" font-family="monospace" font-size="10.00" fill="#000000">stats/reads/nonpareil/extend/tadpole/HD827sonic_2_lib1_collapsed.json</text>
<text text-anchor="start" x="7.5" y="-358" font-family="monospace" font-size="10.00" fill="#000000">stats/reads/nonpareil/extend/tadpole/HD827sonic_2_lib2_collapsed.json</text>
<text text-anchor="start" x="7.5" y="-340" font-family="monospace" font-size="10.00" fill="#000000">stats/reads/nonpareil/low_complexity/HD827sonic_1_lib1_collapsed.json</text>
<text text-anchor="start" x="7.5" y="-322" font-family="monospace" font-size="10.00" fill="#000000">stats/reads/nonpareil/low_complexity/HD827sonic_2_lib1_collapsed.json</text>
<text text-anchor="start" x="7.5" y="-304" font-family="monospace" font-size="10.00" fill="#000000">stats/reads/nonpareil/low_complexity/HD827sonic_2_lib2_collapsed.json</text>
<text text-anchor="start" x="7.5" y="-286" font-family="monospace" font-size="10.00" fill="#000000">stats/reads/nonpareil/merge_lanes/HD827sonic_1_lib1_collapsed.json</text>
<text text-anchor="start" x="7.5" y="-268" font-family="monospace" font-size="10.00" fill="#000000">stats/reads/nonpareil/merge_lanes/HD827sonic_2_lib1_collapsed.json</text>
<text text-anchor="start" x="7.5" y="-250" font-family="monospace" font-size="10.00" fill="#000000">stats/reads/nonpareil/merge_lanes/HD827sonic_2_lib2_collapsed.json</text>
<text text-anchor="start" x="353.5" y="-229.8" font-family="sans" font-size="10.00" fill="#000000"> </text>
<text text-anchor="start" x="357.5" y="-229.8" font-family="sans" font-weight="bold" font-size="14.00" fill="#000000">output →</text>
<text text-anchor="start" x="418.5" y="-229.8" font-family="sans" font-size="10.00" fill="#000000"> </text>
<text text-anchor="start" x="7.5" y="-210" font-family="monospace" font-size="10.00" fill="#000000">reports/multiqc.html</text>
<text text-anchor="start" x="7.5" y="-192" font-family="monospace" font-size="10.00" fill="#000000">reports/multiqc_data.zip</text>
<polygon fill="#82d957" stroke="#82d957" points="1.5,-590 1.5,-590 429.5,-590 429.5,-590 1.5,-590"/>
<polygon fill="#82d957" stroke="#82d957" points="1.5,-244 1.5,-244 429.5,-244 429.5,-244 1.5,-244"/>
<polygon fill="none" stroke="#82d957" stroke-width="2" points="1,-183 1,-619 428,-619 428,-183 1,-183"/>
</g>
<!-- 1&#45;&gt;0 -->
<g id="edge2" class="edge">
<title>1&#45;&gt;0</title>
<path fill="none" stroke="#c0c0c0" stroke-width="2" d="M295.3768,-181.7637C298.6682,-172.8417 301.8684,-164.1666 304.9318,-155.8626"/>
<polygon fill="#c0c0c0" stroke="#c0c0c0" stroke-width="2" points="308.2849,-156.8855 308.4623,-146.2922 301.7175,-154.4628 308.2849,-156.8855"/>
</g>
<!-- 2 -->
<g id="node3" class="node">
<title>2</title>
<text text-anchor="start" x="138.5" y="-962.6" font-family="sans" font-weight="bold" font-size="18.00" fill="#000000">seqkit_stats</text>
<text text-anchor="start" x="15.5" y="-938.8" font-family="sans" font-size="10.00" fill="#000000"> </text>
<text text-anchor="start" x="19.5" y="-938.8" font-family="sans" font-weight="bold" font-size="14.00" fill="#000000">↪ input</text>
<text text-anchor="start" x="72.5" y="-938.8" font-family="sans" font-size="10.00" fill="#000000"> </text>
<text text-anchor="start" x="15.5" y="-919" font-family="monospace" font-size="10.00" fill="#000000">&lt;input function&gt;</text>
<text text-anchor="start" x="295.5" y="-898.8" font-family="sans" font-size="10.00" fill="#000000"> </text>
<text text-anchor="start" x="299.5" y="-898.8" font-family="sans" font-weight="bold" font-size="14.00" fill="#000000">output →</text>
<text text-anchor="start" x="360.5" y="-898.8" font-family="sans" font-size="10.00" fill="#000000"> </text>
<text text-anchor="start" x="15.5" y="-879" font-family="monospace" font-size="10.00" fill="#000000">stats/reads/{tool}/{sample}_{library}_{read_type_trim}.tsv</text>
<polygon fill="#57add9" stroke="#57add9" points="9.5,-953 9.5,-953 371.5,-953 371.5,-953 9.5,-953"/>
<polygon fill="#57add9" stroke="#57add9" points="9.5,-913 9.5,-913 371.5,-913 371.5,-913 9.5,-913"/>
<polygon fill="none" stroke="#57add9" stroke-width="2" points="9,-870 9,-982 370,-982 370,-870 9,-870"/>
</g>
<!-- 2&#45;&gt;1 -->
<g id="edge3" class="edge">
<title>2&#45;&gt;1</title>
<path fill="none" stroke="#c0c0c0" stroke-width="2" d="M192.223,-868.8164C194.9709,-811.1117 199.3946,-718.2143 203.5785,-630.3518"/>
<polygon fill="#c0c0c0" stroke="#c0c0c0" stroke-width="2" points="207.0813,-630.3732 204.061,-620.218 200.0893,-630.0402 207.0813,-630.3732"/>
</g>
<!-- 3 -->
<g id="node4" class="node">
<title>3</title>
<text text-anchor="start" x="322.5" y="-1661.6" font-family="sans" font-weight="bold" font-size="18.00" fill="#000000">merge_lanes</text>
<text text-anchor="start" x="175.5" y="-1637.8" font-family="sans" font-size="10.00" fill="#000000"> </text>
<text text-anchor="start" x="179.5" y="-1637.8" font-family="sans" font-weight="bold" font-size="14.00" fill="#000000">↪ input</text>
<text text-anchor="start" x="232.5" y="-1637.8" font-family="sans" font-size="10.00" fill="#000000"> </text>
<text text-anchor="start" x="175.5" y="-1618" font-family="monospace" font-size="10.00" fill="#000000">&lt;input function&gt;</text>
<text text-anchor="start" x="509.5" y="-1597.8" font-family="sans" font-size="10.00" fill="#000000"> </text>
<text text-anchor="start" x="513.5" y="-1597.8" font-family="sans" font-weight="bold" font-size="14.00" fill="#000000">output →</text>
<text text-anchor="start" x="574.5" y="-1597.8" font-family="sans" font-size="10.00" fill="#000000"> </text>
<text text-anchor="start" x="175.5" y="-1578" font-family="monospace" font-size="10.00" fill="#000000">temp/reads/merge_lanes/{sample}_{library}_{read_type_trim}.fastq.gz</text>
<polygon fill="#add957" stroke="#add957" points="169.5,-1652 169.5,-1652 585.5,-1652 585.5,-1652 169.5,-1652"/>
<polygon fill="#add957" stroke="#add957" points="169.5,-1612 169.5,-1612 585.5,-1612 585.5,-1612 169.5,-1612"/>
<polygon fill="none" stroke="#add957" stroke-width="2" points="169,-1569 169,-1681 584,-1681 584,-1569 169,-1569"/>
</g>
<!-- 3&#45;&gt;2 -->
<g id="edge7" class="edge">
<title>3&#45;&gt;2</title>
<path fill="none" stroke="#c0c0c0" stroke-width="2" d="M289.4412,-1567.9183C277.4418,-1557.1246 266.2542,-1545.0716 257.5,-1532 171.2126,-1403.1578 184.5847,-1349.627 163.5,-1196 154.4352,-1129.9525 156.4012,-1112.2876 163.5,-1046 165.35,-1028.7248 168.6575,-1010.2861 172.3068,-993.1758"/>
<polygon fill="#c0c0c0" stroke="#c0c0c0" stroke-width="2" points="175.7548,-993.7925 174.4865,-983.2738 168.9184,-992.2875 175.7548,-993.7925"/>
</g>
<!-- 5 -->
<g id="node6" class="node">
<title>5</title>
<text text-anchor="start" x="660.5" y="-989.6" font-family="sans" font-weight="bold" font-size="18.00" fill="#000000">nonpareil_infer</text>
<text text-anchor="start" x="521.5" y="-965.8" font-family="sans" font-size="10.00" fill="#000000"> </text>
<text text-anchor="start" x="525.5" y="-965.8" font-family="sans" font-weight="bold" font-size="14.00" fill="#000000">↪ input</text>
<text text-anchor="start" x="578.5" y="-965.8" font-family="sans" font-size="10.00" fill="#000000"> </text>
<text text-anchor="start" x="521.5" y="-946" font-family="monospace" font-size="10.00" fill="#000000">&lt;input function&gt;</text>
<text text-anchor="start" x="861.5" y="-925.8" font-family="sans" font-size="10.00" fill="#000000"> </text>
<text text-anchor="start" x="865.5" y="-925.8" font-family="sans" font-weight="bold" font-size="14.00" fill="#000000">output →</text>
<text text-anchor="start" x="926.5" y="-925.8" font-family="sans" font-size="10.00" fill="#000000"> </text>
<text text-anchor="start" x="521.5" y="-906" font-family="monospace" font-size="10.00" fill="#000000">stats/reads/nonpareil/{tool}/{sample}_{library}_{read_type_trim}.log</text>
<text text-anchor="start" x="521.5" y="-888" font-family="monospace" font-size="10.00" fill="#000000">stats/reads/nonpareil/{tool}/{sample}_{library}_{read_type_trim}.npa</text>
<text text-anchor="start" x="521.5" y="-870" font-family="monospace" font-size="10.00" fill="#000000">stats/reads/nonpareil/{tool}/{sample}_{library}_{read_type_trim}.npc</text>
<text text-anchor="start" x="521.5" y="-852" font-family="monospace" font-size="10.00" fill="#000000">stats/reads/nonpareil/{tool}/{sample}_{library}_{read_type_trim}.npo</text>
<polygon fill="#57d957" stroke="#57d957" points="515.5,-980 515.5,-980 937.5,-980 937.5,-980 515.5,-980"/>
<polygon fill="#57d957" stroke="#57d957" points="515.5,-940 515.5,-940 937.5,-940 937.5,-940 515.5,-940"/>
<polygon fill="none" stroke="#57d957" stroke-width="2" points="515,-843 515,-1009 936,-1009 936,-843 515,-843"/>
</g>
<!-- 3&#45;&gt;5 -->
<g id="edge11" class="edge">
<title>3&#45;&gt;5</title>
<path fill="none" stroke="#c0c0c0" stroke-width="2" d="M585.4131,-1587.4945C643.0104,-1572.9093 694.8528,-1554.2846 713.5,-1532 833.7773,-1388.2613 792.4994,-1151.1944 756.2467,-1020.2416"/>
<polygon fill="#c0c0c0" stroke="#c0c0c0" stroke-width="2" points="759.5061,-1018.9033 753.4265,-1010.2264 752.7681,-1020.8007 759.5061,-1018.9033"/>
</g>
<!-- 6 -->
<g id="node7" class="node">
<title>6</title>
<text text-anchor="start" x="392" y="-1361.6" font-family="sans" font-weight="bold" font-size="18.00" fill="#000000">extend_tadpole</text>
<text text-anchor="start" x="247.5" y="-1337.8" font-family="sans" font-size="10.00" fill="#000000"> </text>
<text text-anchor="start" x="251.5" y="-1337.8" font-family="sans" font-weight="bold" font-size="14.00" fill="#000000">↪ input</text>
<text text-anchor="start" x="304.5" y="-1337.8" font-family="sans" font-size="10.00" fill="#000000"> </text>
<text text-anchor="start" x="247.5" y="-1318" font-family="monospace" font-size="10.00" fill="#000000">logs/reads/extend/loglog/{sample}_{library}_{read_type_trim}.log</text>
<text text-anchor="start" x="247.5" y="-1300" font-family="monospace" font-size="10.00" fill="#000000">temp/reads/extend/loglog/{sample}_{library}_{read_type_trim}.flag</text>
<text text-anchor="start" x="247.5" y="-1282" font-family="monospace" font-size="10.00" fill="#000000">temp/reads/merge_lanes/{sample}_{library}_{read_type_trim}.fastq.gz</text>
<text text-anchor="start" x="599.5" y="-1261.8" font-family="sans" font-size="10.00" fill="#000000"> </text>
<text text-anchor="start" x="603.5" y="-1261.8" font-family="sans" font-weight="bold" font-size="14.00" fill="#000000">output →</text>
<text text-anchor="start" x="664.5" y="-1261.8" font-family="sans" font-size="10.00" fill="#000000"> </text>
<text text-anchor="start" x="247.5" y="-1242" font-family="monospace" font-size="10.00" fill="#000000">temp/reads/extend/tadpole/{sample}_{library}_{read_type_trim}.fastq.gz</text>
<polygon fill="#d98257" stroke="#d98257" points="241.5,-1352 241.5,-1352 675.5,-1352 675.5,-1352 241.5,-1352"/>
<polygon fill="#d98257" stroke="#d98257" points="241.5,-1276 241.5,-1276 675.5,-1276 675.5,-1276 241.5,-1276"/>
<polygon fill="none" stroke="#d98257" stroke-width="2" points="241,-1233 241,-1381 674,-1381 674,-1233 241,-1233"/>
</g>
<!-- 3&#45;&gt;6 -->
<g id="edge13" class="edge">
<title>3&#45;&gt;6</title>
<path fill="none" stroke="#c0c0c0" stroke-width="2" d="M302.1336,-1567.9388C292.529,-1557.108 284.1016,-1545.0382 278.5,-1532 258.4998,-1485.4478 253.8604,-1462.2719 278.5,-1418 284.2654,-1407.6408 291.4416,-1398.1251 299.5788,-1389.4055"/>
<polygon fill="#c0c0c0" stroke="#c0c0c0" stroke-width="2" points="302.0925,-1391.8411 306.6301,-1382.2671 297.1125,-1386.9218 302.0925,-1391.8411"/>
</g>
<!-- 7 -->
<g id="node8" class="node">
<title>7</title>
<text text-anchor="start" x="468" y="-1511.6" font-family="sans" font-weight="bold" font-size="18.00" fill="#000000">loglog</text>
<text text-anchor="start" x="294.5" y="-1487.8" font-family="sans" font-size="10.00" fill="#000000"> </text>
<text text-anchor="start" x="298.5" y="-1487.8" font-family="sans" font-weight="bold" font-size="14.00" fill="#000000">↪ input</text>
<text text-anchor="start" x="351.5" y="-1487.8" font-family="sans" font-size="10.00" fill="#000000"> </text>
<text text-anchor="start" x="294.5" y="-1468" font-family="monospace" font-size="10.00" fill="#000000">temp/reads/merge_lanes/{sample}_{library}_{read_type_trim}.fastq.gz</text>
<text text-anchor="start" x="628.5" y="-1447.8" font-family="sans" font-size="10.00" fill="#000000"> </text>
<text text-anchor="start" x="632.5" y="-1447.8" font-family="sans" font-weight="bold" font-size="14.00" fill="#000000">output →</text>
<text text-anchor="start" x="693.5" y="-1447.8" font-family="sans" font-size="10.00" fill="#000000"> </text>
<text text-anchor="start" x="294.5" y="-1428" font-family="monospace" font-size="10.00" fill="#000000">temp/reads/extend/loglog/{sample}_{library}_{read_type_trim}.flag</text>
<polygon fill="#d9ad57" stroke="#d9ad57" points="288.5,-1502 288.5,-1502 704.5,-1502 704.5,-1502 288.5,-1502"/>
<polygon fill="#d9ad57" stroke="#d9ad57" points="288.5,-1462 288.5,-1462 704.5,-1462 704.5,-1462 288.5,-1462"/>
<polygon fill="none" stroke="#d9ad57" stroke-width="2" points="288,-1419 288,-1531 703,-1531 703,-1419 288,-1419"/>
</g>
<!-- 3&#45;&gt;7 -->
<g id="edge14" class="edge">
<title>3&#45;&gt;7</title>
<path fill="none" stroke="#c0c0c0" stroke-width="2" d="M421.8283,-1567.8635C428.9404,-1558.8986 436.3394,-1549.5721 443.5858,-1540.438"/>
<polygon fill="#c0c0c0" stroke="#c0c0c0" stroke-width="2" points="446.4304,-1542.4839 449.9036,-1532.4745 440.9465,-1538.1333 446.4304,-1542.4839"/>
</g>
<!-- 4 -->
<g id="node5" class="node">
<title>4</title>
<text text-anchor="start" x="648" y="-785.6" font-family="sans" font-weight="bold" font-size="18.00" fill="#000000">nonpareil_plot</text>
<text text-anchor="start" x="500.5" y="-761.8" font-family="sans" font-size="10.00" fill="#000000"> </text>
<text text-anchor="start" x="504.5" y="-761.8" font-family="sans" font-weight="bold" font-size="14.00" fill="#000000">↪ input</text>
<text text-anchor="start" x="557.5" y="-761.8" font-family="sans" font-size="10.00" fill="#000000"> </text>
<text text-anchor="start" x="500.5" y="-742" font-family="monospace" font-size="10.00" fill="#000000">stats/reads/nonpareil/{tool}/{sample}_{library}_{read_type_trim}.npo</text>
<text text-anchor="start" x="852.5" y="-721.8" font-family="sans" font-size="10.00" fill="#000000"> </text>
<text text-anchor="start" x="856.5" y="-721.8" font-family="sans" font-weight="bold" font-size="14.00" fill="#000000">output →</text>
<text text-anchor="start" x="917.5" y="-721.8" font-family="sans" font-size="10.00" fill="#000000"> </text>
<text text-anchor="start" x="500.5" y="-702" font-family="monospace" font-size="10.00" fill="#000000">reports/reads/nonpareil/{tool}/{sample}_{library}_{read_type_trim}.pdf</text>
<text text-anchor="start" x="500.5" y="-684" font-family="monospace" font-size="10.00" fill="#000000">stats/reads/nonpareil/{tool}/{sample}_{library}_{read_type_trim}.json</text>
<text text-anchor="start" x="500.5" y="-666" font-family="monospace" font-size="10.00" fill="#000000">stats/reads/nonpareil/{tool}/{sample}_{library}_{read_type_trim}.tsv</text>
<polygon fill="#57d982" stroke="#57d982" points="494.5,-776 494.5,-776 928.5,-776 928.5,-776 494.5,-776"/>
<polygon fill="#57d982" stroke="#57d982" points="494.5,-736 494.5,-736 928.5,-736 928.5,-736 494.5,-736"/>
<polygon fill="none" stroke="#57d982" stroke-width="2" points="494,-657 494,-805 927,-805 927,-657 494,-657"/>
</g>
<!-- 4&#45;&gt;1 -->
<g id="edge4" class="edge">
<title>4&#45;&gt;1</title>
<path fill="none" stroke="#c0c0c0" stroke-width="2" d="M597.6397,-655.9115C550.1912,-624.3429 493.2414,-586.453 437.937,-549.6577"/>
<polygon fill="#c0c0c0" stroke="#c0c0c0" stroke-width="2" points="439.6989,-546.6261 429.4345,-544.0007 435.8214,-552.454 439.6989,-546.6261"/>
</g>
<!-- 5&#45;&gt;4 -->
<g id="edge8" class="edge">
<title>5&#45;&gt;4</title>
<path fill="none" stroke="#c0c0c0" stroke-width="2" d="M719.0298,-841.8876C718.3815,-833.46 717.7228,-824.8965 717.0735,-816.4552"/>
<polygon fill="#c0c0c0" stroke="#c0c0c0" stroke-width="2" points="720.5442,-815.9389 716.2874,-806.2368 713.5648,-816.4758 720.5442,-815.9389"/>
</g>
<!-- 6&#45;&gt;2 -->
<g id="edge6" class="edge">
<title>6&#45;&gt;2</title>
<path fill="none" stroke="#c0c0c0" stroke-width="2" d="M239.7109,-1236.6212C224.6594,-1225.063 211.2324,-1211.6236 200.5,-1196 159.8209,-1136.7818 163.8743,-1051.7934 173.6989,-993.0578"/>
<polygon fill="#c0c0c0" stroke="#c0c0c0" stroke-width="2" points="177.1582,-993.5946 175.4544,-983.1377 170.2653,-992.3748 177.1582,-993.5946"/>
</g>
<!-- 6&#45;&gt;5 -->
<g id="edge10" class="edge">
<title>6&#45;&gt;5</title>
<path fill="none" stroke="#c0c0c0" stroke-width="2" d="M675.2891,-1236.6212C690.3406,-1225.063 703.7676,-1211.6236 714.5,-1196 749.197,-1145.4903 751.3505,-1076.2325 745.1371,-1020.5082"/>
<polygon fill="#c0c0c0" stroke="#c0c0c0" stroke-width="2" points="748.573,-1019.7698 743.8855,-1010.2683 741.6247,-1020.6191 748.573,-1019.7698"/>
</g>
<!-- 8 -->
<g id="node9" class="node">
<title>8</title>
<text text-anchor="start" x="391" y="-1175.6" font-family="sans" font-weight="bold" font-size="18.00" fill="#000000">low_complexity</text>
<text text-anchor="start" x="217.5" y="-1151.8" font-family="sans" font-size="10.00" fill="#000000"> </text>
<text text-anchor="start" x="221.5" y="-1151.8" font-family="sans" font-weight="bold" font-size="14.00" fill="#000000">↪ input</text>
<text text-anchor="start" x="274.5" y="-1151.8" font-family="sans" font-size="10.00" fill="#000000"> </text>
<text text-anchor="start" x="217.5" y="-1132" font-family="monospace" font-size="10.00" fill="#000000">temp/reads/extend/tadpole/{sample}_{library}_{read_type_trim}.fastq.gz</text>
<text text-anchor="start" x="629.5" y="-1111.8" font-family="sans" font-size="10.00" fill="#000000"> </text>
<text text-anchor="start" x="633.5" y="-1111.8" font-family="sans" font-weight="bold" font-size="14.00" fill="#000000">output →</text>
<text text-anchor="start" x="694.5" y="-1111.8" font-family="sans" font-size="10.00" fill="#000000"> </text>
<text text-anchor="start" x="217.5" y="-1092" font-family="monospace" font-size="10.00" fill="#000000">results/reads/low_complexity/{sample}_{library}_{read_type_trim}.fastq.gz</text>
<text text-anchor="start" x="217.5" y="-1074" font-family="monospace" font-size="10.00" fill="#000000">stats/reads/low_complexity/{sample}_{library}_{read_type_trim}.txt</text>
<text text-anchor="start" x="217.5" y="-1056" font-family="monospace" font-size="10.00" fill="#000000">temp/reads/low_complexity/{sample}_{library}_{read_type_trim}.discarded.fastq.gz</text>
<polygon fill="#d9d957" stroke="#d9d957" points="211.5,-1166 211.5,-1166 705.5,-1166 705.5,-1166 211.5,-1166"/>
<polygon fill="#d9d957" stroke="#d9d957" points="211.5,-1126 211.5,-1126 705.5,-1126 705.5,-1126 211.5,-1126"/>
<polygon fill="none" stroke="#d9d957" stroke-width="2" points="211,-1047 211,-1195 704,-1195 704,-1047 211,-1047"/>
</g>
<!-- 6&#45;&gt;8 -->
<g id="edge15" class="edge">
<title>6&#45;&gt;8</title>
<path fill="none" stroke="#c0c0c0" stroke-width="2" d="M457.5,-1231.8828C457.5,-1223.4042 457.5,-1214.7194 457.5,-1206.125"/>
<polygon fill="#c0c0c0" stroke="#c0c0c0" stroke-width="2" points="461.0001,-1206.0952 457.5,-1196.0952 454.0001,-1206.0952 461.0001,-1206.0952"/>
</g>
<!-- 7&#45;&gt;6 -->
<g id="edge12" class="edge">
<title>7&#45;&gt;6</title>
<path fill="none" stroke="#c0c0c0" stroke-width="2" d="M482.5288,-1417.6538C480.6543,-1409.3662 478.6923,-1400.6924 476.7271,-1392.0042"/>
<polygon fill="#c0c0c0" stroke="#c0c0c0" stroke-width="2" points="480.1315,-1391.1902 474.5115,-1382.2088 473.304,-1392.7346 480.1315,-1391.1902"/>
</g>
<!-- 8&#45;&gt;0 -->
<g id="edge1" class="edge">
<title>8&#45;&gt;0</title>
<path fill="none" stroke="#c0c0c0" stroke-width="2" d="M462.869,-1045.6724C475.6317,-851.357 502.1827,-337.5139 438.5,-182 434.5746,-172.4142 429.3816,-163.1752 423.4098,-154.4068"/>
<polygon fill="#c0c0c0" stroke="#c0c0c0" stroke-width="2" points="426.146,-152.2171 417.4616,-146.1482 420.466,-156.3082 426.146,-152.2171"/>
</g>
<!-- 8&#45;&gt;2 -->
<g id="edge5" class="edge">
<title>8&#45;&gt;2</title>
<path fill="none" stroke="#c0c0c0" stroke-width="2" d="M354.2676,-1045.8868C328.5667,-1027.1866 301.2696,-1007.3249 276.4414,-989.2596"/>
<polygon fill="#c0c0c0" stroke="#c0c0c0" stroke-width="2" points="278.2673,-986.2597 268.122,-983.2063 274.1488,-991.92 278.2673,-986.2597"/>
</g>
<!-- 8&#45;&gt;5 -->
<g id="edge9" class="edge">
<title>8&#45;&gt;5</title>
<path fill="none" stroke="#c0c0c0" stroke-width="2" d="M560.7324,-1045.8868C574.0425,-1036.2023 587.7807,-1026.2062 601.3824,-1016.3095"/>
<polygon fill="#c0c0c0" stroke="#c0c0c0" stroke-width="2" points="603.8018,-1018.8775 609.8286,-1010.1639 599.6833,-1013.2173 603.8018,-1018.8775"/>
</g>
</g>
</svg>
