<?xml version="1.0" encoding="UTF-8" standalone="no"?>
<!DOCTYPE svg PUBLIC "-//W3C//DTD SVG 1.1//EN"
 "http://www.w3.org/Graphics/SVG/1.1/DTD/svg11.dtd">
<!-- Generated by graphviz version 2.40.1 (0)
 -->
<!-- Title: snakemake_dag Pages: 1 -->
<svg width="1344pt" height="1690pt"
 viewBox="0.00 0.00 1344.00 1690.00" xmlns="http://www.w3.org/2000/svg" xmlns:xlink="http://www.w3.org/1999/xlink">
<g id="graph0" class="graph" transform="scale(1 1) rotate(0) translate(4 1686)">
<title>snakemake_dag</title>
<polygon fill="#ffffff" stroke="transparent" points="-4,4 -4,-1686 1340,-1686 1340,4 -4,4"/>
<!-- 0 -->
<g id="node1" class="node">
<title>0</title>
<text text-anchor="start" x="508.5" y="-125.6" font-family="sans" font-weight="bold" font-size="18.00" fill="#000000">all</text>
<text text-anchor="start" x="323.5" y="-101.8" font-family="sans" font-size="10.00" fill="#000000"> </text>
<text text-anchor="start" x="327.5" y="-101.8" font-family="sans" font-weight="bold" font-size="14.00" fill="#000000">↪ input</text>
<text text-anchor="start" x="380.5" y="-101.8" font-family="sans" font-size="10.00" fill="#000000"> </text>
<text text-anchor="start" x="323.5" y="-82" font-family="monospace" font-size="10.00" fill="#000000">reports/multiqc.html</text>
<text text-anchor="start" x="323.5" y="-64" font-family="monospace" font-size="10.00" fill="#000000">results/reads/low_complexity/HD827sonic_1_lib1_collapsed.fastq.gz</text>
<text text-anchor="start" x="323.5" y="-46" font-family="monospace" font-size="10.00" fill="#000000">results/reads/low_complexity/HD827sonic_2_lib1_collapsed.fastq.gz</text>
<text text-anchor="start" x="323.5" y="-28" font-family="monospace" font-size="10.00" fill="#000000">results/reads/low_complexity/HD827sonic_2_lib2_collapsed.fastq.gz</text>
<text text-anchor="start" x="707.5" y="-10" font-family="sans" font-size="10.00" fill="#000000"> &#160;</text>
<polygon fill="#6bd957" stroke="#6bd957" points="317.5,-116 317.5,-116 721.5,-116 721.5,-116 317.5,-116"/>
<polygon fill="#6bd957" stroke="#6bd957" points="317.5,-22 317.5,-22 721.5,-22 721.5,-22 317.5,-22"/>
<polygon fill="none" stroke="#6bd957" stroke-width="2" points="317,-1 317,-145 720,-145 720,-1 317,-1"/>
</g>
<!-- 1 -->
<g id="node2" class="node">
<title>1</title>
<text text-anchor="start" x="365.5" y="-599.6" font-family="sans" font-weight="bold" font-size="18.00" fill="#000000">multiqc</text>
<text text-anchor="start" x="190.5" y="-575.8" font-family="sans" font-size="10.00" fill="#000000"> </text>
<text text-anchor="start" x="194.5" y="-575.8" font-family="sans" font-weight="bold" font-size="14.00" fill="#000000">↪ input</text>
<text text-anchor="start" x="247.5" y="-575.8" font-family="sans" font-size="10.00" fill="#000000"> </text>
<text text-anchor="start" x="190.5" y="-556" font-family="monospace" font-size="10.00" fill="#000000">stats/reads/extend/tadpole/HD827sonic_1_lib1_collapsed.tsv</text>
<text text-anchor="start" x="190.5" y="-538" font-family="monospace" font-size="10.00" fill="#000000">stats/reads/extend/tadpole/HD827sonic_2_lib1_collapsed.tsv</text>
<text text-anchor="start" x="190.5" y="-520" font-family="monospace" font-size="10.00" fill="#000000">stats/reads/extend/tadpole/HD827sonic_2_lib2_collapsed.tsv</text>
<text text-anchor="start" x="190.5" y="-502" font-family="monospace" font-size="10.00" fill="#000000">stats/reads/low_complexity/HD827sonic_1_lib1_collapsed.tsv</text>
<text text-anchor="start" x="190.5" y="-484" font-family="monospace" font-size="10.00" fill="#000000">stats/reads/low_complexity/HD827sonic_2_lib1_collapsed.tsv</text>
<text text-anchor="start" x="190.5" y="-466" font-family="monospace" font-size="10.00" fill="#000000">stats/reads/low_complexity/HD827sonic_2_lib2_collapsed.tsv</text>
<text text-anchor="start" x="190.5" y="-448" font-family="monospace" font-size="10.00" fill="#000000">stats/reads/merge_lanes/HD827sonic_1_lib1_collapsed.tsv</text>
<text text-anchor="start" x="190.5" y="-430" font-family="monospace" font-size="10.00" fill="#000000">stats/reads/merge_lanes/HD827sonic_2_lib1_collapsed.tsv</text>
<text text-anchor="start" x="190.5" y="-412" font-family="monospace" font-size="10.00" fill="#000000">stats/reads/merge_lanes/HD827sonic_2_lib2_collapsed.tsv</text>
<text text-anchor="start" x="190.5" y="-394" font-family="monospace" font-size="10.00" fill="#000000">stats/reads/nonpareil/extend/tadpole/HD827sonic_1_lib1_collapsed.json</text>
<text text-anchor="start" x="190.5" y="-376" font-family="monospace" font-size="10.00" fill="#000000">stats/reads/nonpareil/extend/tadpole/HD827sonic_2_lib1_collapsed.json</text>
<text text-anchor="start" x="190.5" y="-358" font-family="monospace" font-size="10.00" fill="#000000">stats/reads/nonpareil/extend/tadpole/HD827sonic_2_lib2_collapsed.json</text>
<text text-anchor="start" x="190.5" y="-340" font-family="monospace" font-size="10.00" fill="#000000">stats/reads/nonpareil/low_complexity/HD827sonic_1_lib1_collapsed.json</text>
<text text-anchor="start" x="190.5" y="-322" font-family="monospace" font-size="10.00" fill="#000000">stats/reads/nonpareil/low_complexity/HD827sonic_2_lib1_collapsed.json</text>
<text text-anchor="start" x="190.5" y="-304" font-family="monospace" font-size="10.00" fill="#000000">stats/reads/nonpareil/low_complexity/HD827sonic_2_lib2_collapsed.json</text>
<text text-anchor="start" x="190.5" y="-286" font-family="monospace" font-size="10.00" fill="#000000">stats/reads/nonpareil/merge_lanes/HD827sonic_1_lib1_collapsed.json</text>
<text text-anchor="start" x="190.5" y="-268" font-family="monospace" font-size="10.00" fill="#000000">stats/reads/nonpareil/merge_lanes/HD827sonic_2_lib1_collapsed.json</text>
<text text-anchor="start" x="190.5" y="-250" font-family="monospace" font-size="10.00" fill="#000000">stats/reads/nonpareil/merge_lanes/HD827sonic_2_lib2_collapsed.json</text>
<text text-anchor="start" x="536.5" y="-229.8" font-family="sans" font-size="10.00" fill="#000000"> </text>
<text text-anchor="start" x="540.5" y="-229.8" font-family="sans" font-weight="bold" font-size="14.00" fill="#000000">output →</text>
<text text-anchor="start" x="601.5" y="-229.8" font-family="sans" font-size="10.00" fill="#000000"> </text>
<text text-anchor="start" x="190.5" y="-210" font-family="monospace" font-size="10.00" fill="#000000">reports/multiqc.html</text>
<text text-anchor="start" x="190.5" y="-192" font-family="monospace" font-size="10.00" fill="#000000">reports/multiqc_data.zip</text>
<polygon fill="#93d957" stroke="#93d957" points="184.5,-590 184.5,-590 612.5,-590 612.5,-590 184.5,-590"/>
<polygon fill="#93d957" stroke="#93d957" points="184.5,-244 184.5,-244 612.5,-244 612.5,-244 184.5,-244"/>
<polygon fill="none" stroke="#93d957" stroke-width="2" points="184,-183 184,-619 611,-619 611,-183 184,-183"/>
</g>
<!-- 1&#45;&gt;0 -->
<g id="edge2" class="edge">
<title>1&#45;&gt;0</title>
<path fill="none" stroke="#c0c0c0" stroke-width="2" d="M478.3768,-181.7637C481.6682,-172.8417 484.8684,-164.1666 487.9318,-155.8626"/>
<polygon fill="#c0c0c0" stroke="#c0c0c0" stroke-width="2" points="491.2849,-156.8855 491.4623,-146.2922 484.7175,-154.4628 491.2849,-156.8855"/>
</g>
<!-- 2 -->
<g id="node3" class="node">
<title>2</title>
<text text-anchor="start" x="238.5" y="-962.6" font-family="sans" font-weight="bold" font-size="18.00" fill="#000000">seqkit_stats</text>
<text text-anchor="start" x="7.5" y="-938.8" font-family="sans" font-size="10.00" fill="#000000"> </text>
<text text-anchor="start" x="11.5" y="-938.8" font-family="sans" font-weight="bold" font-size="14.00" fill="#000000">↪ input</text>
<text text-anchor="start" x="64.5" y="-938.8" font-family="sans" font-size="10.00" fill="#000000"> </text>
<text text-anchor="start" x="7.5" y="-919" font-family="monospace" font-size="10.00" fill="#000000">&lt;input function&gt;</text>
<text text-anchor="start" x="503.5" y="-898.8" font-family="sans" font-size="10.00" fill="#000000"> </text>
<text text-anchor="start" x="507.5" y="-898.8" font-family="sans" font-weight="bold" font-size="14.00" fill="#000000">output →</text>
<text text-anchor="start" x="568.5" y="-898.8" font-family="sans" font-size="10.00" fill="#000000"> </text>
<text text-anchor="start" x="7.5" y="-879" font-family="monospace" font-size="10.00" fill="#000000">stats/reads/{tool}/{sample,HD827sonic_1|HD827sonic_2}_{library,lib1|lib2}_{read_type_trim}.tsv</text>
<polygon fill="#d97f57" stroke="#d97f57" points="1.5,-953 1.5,-953 579.5,-953 579.5,-953 1.5,-953"/>
<polygon fill="#d97f57" stroke="#d97f57" points="1.5,-913 1.5,-913 579.5,-913 579.5,-913 1.5,-913"/>
<polygon fill="none" stroke="#d97f57" stroke-width="2" points="1,-870 1,-982 578,-982 578,-870 1,-870"/>
</g>
<!-- 2&#45;&gt;1 -->
<g id="edge4" class="edge">
<title>2&#45;&gt;1</title>
<path fill="none" stroke="#c0c0c0" stroke-width="2" d="M301.2635,-868.8164C313.1462,-811.0532 332.2832,-718.0259 350.374,-630.0845"/>
<polygon fill="#c0c0c0" stroke="#c0c0c0" stroke-width="2" points="353.8169,-630.7182 352.4037,-620.218 346.9605,-629.3077 353.8169,-630.7182"/>
</g>
<!-- 3 -->
<g id="node4" class="node">
<title>3</title>
<text text-anchor="start" x="457.5" y="-1661.6" font-family="sans" font-weight="bold" font-size="18.00" fill="#000000">merge_lanes</text>
<text text-anchor="start" x="202.5" y="-1637.8" font-family="sans" font-size="10.00" fill="#000000"> </text>
<text text-anchor="start" x="206.5" y="-1637.8" font-family="sans" font-weight="bold" font-size="14.00" fill="#000000">↪ input</text>
<text text-anchor="start" x="259.5" y="-1637.8" font-family="sans" font-size="10.00" fill="#000000"> </text>
<text text-anchor="start" x="202.5" y="-1618" font-family="monospace" font-size="10.00" fill="#000000">&lt;input function&gt;</text>
<text text-anchor="start" x="752.5" y="-1597.8" font-family="sans" font-size="10.00" fill="#000000"> </text>
<text text-anchor="start" x="756.5" y="-1597.8" font-family="sans" font-weight="bold" font-size="14.00" fill="#000000">output →</text>
<text text-anchor="start" x="817.5" y="-1597.8" font-family="sans" font-size="10.00" fill="#000000"> </text>
<text text-anchor="start" x="202.5" y="-1578" font-family="monospace" font-size="10.00" fill="#000000">temp/reads/merge_lanes/{sample,HD827sonic_1|HD827sonic_2}_{library,lib1|lib2}_{read_type_trim}.fastq.gz</text>
<polygon fill="#d9cf57" stroke="#d9cf57" points="196.5,-1652 196.5,-1652 828.5,-1652 828.5,-1652 196.5,-1652"/>
<polygon fill="#d9cf57" stroke="#d9cf57" points="196.5,-1612 196.5,-1612 828.5,-1612 828.5,-1612 196.5,-1612"/>
<polygon fill="none" stroke="#d9cf57" stroke-width="2" points="196,-1569 196,-1681 827,-1681 827,-1569 196,-1569"/>
</g>
<!-- 3&#45;&gt;2 -->
<g id="edge7" class="edge">
<title>3&#45;&gt;2</title>
<path fill="none" stroke="#c0c0c0" stroke-width="2" d="M377.7359,-1567.9908C363.0678,-1557.6407 349.4951,-1545.6932 338.5,-1532 200.7023,-1360.3885 203.4422,-1262.4119 243.5,-1046 246.8064,-1028.1369 252.6629,-1009.4977 259.1129,-992.383"/>
<polygon fill="#c0c0c0" stroke="#c0c0c0" stroke-width="2" points="262.3813,-993.6349 262.7448,-983.0463 255.8575,-991.0972 262.3813,-993.6349"/>
</g>
<!-- 5 -->
<g id="node6" class="node">
<title>5</title>
<text text-anchor="start" x="951.5" y="-989.6" font-family="sans" font-weight="bold" font-size="18.00" fill="#000000">nonpareil_infer</text>
<text text-anchor="start" x="704.5" y="-965.8" font-family="sans" font-size="10.00" fill="#000000"> </text>
<text text-anchor="start" x="708.5" y="-965.8" font-family="sans" font-weight="bold" font-size="14.00" fill="#000000">↪ input</text>
<text text-anchor="start" x="761.5" y="-965.8" font-family="sans" font-size="10.00" fill="#000000"> </text>
<text text-anchor="start" x="704.5" y="-946" font-family="monospace" font-size="10.00" fill="#000000">&lt;input function&gt;</text>
<text text-anchor="start" x="1260.5" y="-925.8" font-family="sans" font-size="10.00" fill="#000000"> </text>
<text text-anchor="start" x="1264.5" y="-925.8" font-family="sans" font-weight="bold" font-size="14.00" fill="#000000">output →</text>
<text text-anchor="start" x="1325.5" y="-925.8" font-family="sans" font-size="10.00" fill="#000000"> </text>
<text text-anchor="start" x="704.5" y="-906" font-family="monospace" font-size="10.00" fill="#000000">stats/reads/nonpareil/{tool}/{sample,HD827sonic_1|HD827sonic_2}_{library,lib1|lib2}_{read_type_trim}.log</text>
<text text-anchor="start" x="704.5" y="-888" font-family="monospace" font-size="10.00" fill="#000000">stats/reads/nonpareil/{tool}/{sample,HD827sonic_1|HD827sonic_2}_{library,lib1|lib2}_{read_type_trim}.npa</text>
<text text-anchor="start" x="704.5" y="-870" font-family="monospace" font-size="10.00" fill="#000000">stats/reads/nonpareil/{tool}/{sample,HD827sonic_1|HD827sonic_2}_{library,lib1|lib2}_{read_type_trim}.npc</text>
<text text-anchor="start" x="704.5" y="-852" font-family="monospace" font-size="10.00" fill="#000000">stats/reads/nonpareil/{tool}/{sample,HD827sonic_1|HD827sonic_2}_{library,lib1|lib2}_{read_type_trim}.npo</text>
<polygon fill="#bbd957" stroke="#bbd957" points="698.5,-980 698.5,-980 1336.5,-980 1336.5,-980 698.5,-980"/>
<polygon fill="#bbd957" stroke="#bbd957" points="698.5,-940 698.5,-940 1336.5,-940 1336.5,-940 698.5,-940"/>
<polygon fill="none" stroke="#bbd957" stroke-width="2" points="698,-843 698,-1009 1335,-1009 1335,-843 698,-843"/>
</g>
<!-- 3&#45;&gt;5 -->
<g id="edge11" class="edge">
<title>3&#45;&gt;5</title>
<path fill="none" stroke="#c0c0c0" stroke-width="2" d="M828.1569,-1594.7541C906.1631,-1580.8576 975.0158,-1560.8012 1001.5,-1532 1129.0248,-1393.3183 1085.5294,-1152.2521 1047.84,-1019.8134"/>
<polygon fill="#c0c0c0" stroke="#c0c0c0" stroke-width="2" points="1051.1649,-1018.7117 1045.0241,-1010.078 1044.4405,-1020.6567 1051.1649,-1018.7117"/>
</g>
<!-- 6 -->
<g id="node7" class="node">
<title>6</title>
<text text-anchor="start" x="575.5" y="-1361.6" font-family="sans" font-weight="bold" font-size="18.00" fill="#000000">read_extension</text>
<text text-anchor="start" x="322.5" y="-1337.8" font-family="sans" font-size="10.00" fill="#000000"> </text>
<text text-anchor="start" x="326.5" y="-1337.8" font-family="sans" font-weight="bold" font-size="14.00" fill="#000000">↪ input</text>
<text text-anchor="start" x="379.5" y="-1337.8" font-family="sans" font-size="10.00" fill="#000000"> </text>
<text text-anchor="start" x="322.5" y="-1318" font-family="monospace" font-size="10.00" fill="#000000">logs/reads/extend/loglog/{sample}_{library}_{read_type_trim}.log</text>
<text text-anchor="start" x="322.5" y="-1300" font-family="monospace" font-size="10.00" fill="#000000">temp/reads/extend/loglog/{sample}_{library}_{read_type_trim}.flag</text>
<text text-anchor="start" x="322.5" y="-1282" font-family="monospace" font-size="10.00" fill="#000000">temp/reads/merge_lanes/{sample}_{library}_{read_type_trim}.fastq.gz</text>
<text text-anchor="start" x="890.5" y="-1261.8" font-family="sans" font-size="10.00" fill="#000000"> </text>
<text text-anchor="start" x="894.5" y="-1261.8" font-family="sans" font-weight="bold" font-size="14.00" fill="#000000">output →</text>
<text text-anchor="start" x="955.5" y="-1261.8" font-family="sans" font-size="10.00" fill="#000000"> </text>
<text text-anchor="start" x="322.5" y="-1242" font-family="monospace" font-size="10.00" fill="#000000">temp/reads/extend/tadpole/{sample,HD827sonic_1|HD827sonic_2}_{library,lib1|lib2}_{read_type_trim}.fastq.gz</text>
<polygon fill="#57a7d9" stroke="#57a7d9" points="316.5,-1352 316.5,-1352 966.5,-1352 966.5,-1352 316.5,-1352"/>
<polygon fill="#57a7d9" stroke="#57a7d9" points="316.5,-1276 316.5,-1276 966.5,-1276 966.5,-1276 316.5,-1276"/>
<polygon fill="none" stroke="#57a7d9" stroke-width="2" points="316,-1233 316,-1381 965,-1381 965,-1233 316,-1233"/>
</g>
<!-- 3&#45;&gt;6 -->
<g id="edge13" class="edge">
<title>3&#45;&gt;6</title>
<path fill="none" stroke="#c0c0c0" stroke-width="2" d="M392.3953,-1567.765C380.4942,-1557.472 370.043,-1545.5998 362.5,-1532 337.925,-1487.6922 334.0818,-1459.9466 362.5,-1418 369.745,-1407.306 378.2038,-1397.6422 387.5724,-1388.9094"/>
<polygon fill="#c0c0c0" stroke="#c0c0c0" stroke-width="2" points="390.0987,-1391.3478 395.2751,-1382.1036 385.4637,-1386.1021 390.0987,-1391.3478"/>
</g>
<!-- 7 -->
<g id="node8" class="node">
<title>7</title>
<text text-anchor="start" x="654" y="-1511.6" font-family="sans" font-weight="bold" font-size="18.00" fill="#000000">loglog</text>
<text text-anchor="start" x="378.5" y="-1487.8" font-family="sans" font-size="10.00" fill="#000000"> </text>
<text text-anchor="start" x="382.5" y="-1487.8" font-family="sans" font-weight="bold" font-size="14.00" fill="#000000">↪ input</text>
<text text-anchor="start" x="435.5" y="-1487.8" font-family="sans" font-size="10.00" fill="#000000"> </text>
<text text-anchor="start" x="378.5" y="-1468" font-family="monospace" font-size="10.00" fill="#000000">temp/reads/merge_lanes/{sample}_{library}_{read_type_trim}.fastq.gz</text>
<text text-anchor="start" x="916.5" y="-1447.8" font-family="sans" font-size="10.00" fill="#000000"> </text>
<text text-anchor="start" x="920.5" y="-1447.8" font-family="sans" font-weight="bold" font-size="14.00" fill="#000000">output →</text>
<text text-anchor="start" x="981.5" y="-1447.8" font-family="sans" font-size="10.00" fill="#000000"> </text>
<text text-anchor="start" x="378.5" y="-1428" font-family="monospace" font-size="10.00" fill="#000000">temp/reads/extend/loglog/{sample,HD827sonic_1|HD827sonic_2}_{library,lib1|lib2}_{read_type_trim}.flag</text>
<polygon fill="#577fd9" stroke="#577fd9" points="372.5,-1502 372.5,-1502 992.5,-1502 992.5,-1502 372.5,-1502"/>
<polygon fill="#577fd9" stroke="#577fd9" points="372.5,-1462 372.5,-1462 992.5,-1462 992.5,-1462 372.5,-1462"/>
<polygon fill="none" stroke="#577fd9" stroke-width="2" points="372,-1419 372,-1531 991,-1531 991,-1419 372,-1419"/>
</g>
<!-- 3&#45;&gt;7 -->
<g id="edge14" class="edge">
<title>3&#45;&gt;7</title>
<path fill="none" stroke="#c0c0c0" stroke-width="2" d="M576.2547,-1567.8635C587.0043,-1558.3786 598.2126,-1548.4889 609.1361,-1538.8505"/>
<polygon fill="#c0c0c0" stroke="#c0c0c0" stroke-width="2" points="611.4612,-1541.4667 616.6439,-1532.226 606.8298,-1536.2178 611.4612,-1541.4667"/>
</g>
<!-- 4 -->
<g id="node5" class="node">
<title>4</title>
<text text-anchor="start" x="939" y="-785.6" font-family="sans" font-weight="bold" font-size="18.00" fill="#000000">nonpareil_plot</text>
<text text-anchor="start" x="683.5" y="-761.8" font-family="sans" font-size="10.00" fill="#000000"> </text>
<text text-anchor="start" x="687.5" y="-761.8" font-family="sans" font-weight="bold" font-size="14.00" fill="#000000">↪ input</text>
<text text-anchor="start" x="740.5" y="-761.8" font-family="sans" font-size="10.00" fill="#000000"> </text>
<text text-anchor="start" x="683.5" y="-742" font-family="monospace" font-size="10.00" fill="#000000">stats/reads/nonpareil/{tool}/{sample}_{library}_{read_type_trim}.npo</text>
<text text-anchor="start" x="1251.5" y="-721.8" font-family="sans" font-size="10.00" fill="#000000"> </text>
<text text-anchor="start" x="1255.5" y="-721.8" font-family="sans" font-weight="bold" font-size="14.00" fill="#000000">output →</text>
<text text-anchor="start" x="1316.5" y="-721.8" font-family="sans" font-size="10.00" fill="#000000"> </text>
<text text-anchor="start" x="683.5" y="-702" font-family="monospace" font-size="10.00" fill="#000000">reports/reads/nonpareil/{tool}/{sample,HD827sonic_1|HD827sonic_2}_{library,lib1|lib2}_{read_type_trim}.pdf</text>
<text text-anchor="start" x="683.5" y="-684" font-family="monospace" font-size="10.00" fill="#000000">stats/reads/nonpareil/{tool}/{sample,HD827sonic_1|HD827sonic_2}_{library,lib1|lib2}_{read_type_trim}.json</text>
<text text-anchor="start" x="683.5" y="-666" font-family="monospace" font-size="10.00" fill="#000000">stats/reads/nonpareil/{tool}/{sample,HD827sonic_1|HD827sonic_2}_{library,lib1|lib2}_{read_type_trim}.tsv</text>
<polygon fill="#d95757" stroke="#d95757" points="677.5,-776 677.5,-776 1327.5,-776 1327.5,-776 677.5,-776"/>
<polygon fill="#d95757" stroke="#d95757" points="677.5,-736 677.5,-736 1327.5,-736 1327.5,-736 677.5,-736"/>
<polygon fill="none" stroke="#d95757" stroke-width="2" points="677,-657 677,-805 1326,-805 1326,-657 677,-657"/>
</g>
<!-- 4&#45;&gt;1 -->
<g id="edge3" class="edge">
<title>4&#45;&gt;1</title>
<path fill="none" stroke="#c0c0c0" stroke-width="2" d="M864.0653,-655.9115C792.2716,-616.6864 702.6148,-567.7018 621.1343,-523.1843"/>
<polygon fill="#c0c0c0" stroke="#c0c0c0" stroke-width="2" points="622.7151,-520.0597 612.2613,-518.3365 619.3588,-526.2026 622.7151,-520.0597"/>
</g>
<!-- 5&#45;&gt;4 -->
<g id="edge8" class="edge">
<title>5&#45;&gt;4</title>
<path fill="none" stroke="#c0c0c0" stroke-width="2" d="M1010.0298,-841.8876C1009.3815,-833.46 1008.7228,-824.8965 1008.0735,-816.4552"/>
<polygon fill="#c0c0c0" stroke="#c0c0c0" stroke-width="2" points="1011.5442,-815.9389 1007.2874,-806.2368 1004.5648,-816.4758 1011.5442,-815.9389"/>
</g>
<!-- 6&#45;&gt;2 -->
<g id="edge6" class="edge">
<title>6&#45;&gt;2</title>
<path fill="none" stroke="#c0c0c0" stroke-width="2" d="M328.6874,-1231.8762C304.1039,-1220.9029 285.0634,-1208.9042 275.5,-1196 232.4798,-1137.9517 246.2567,-1052.0924 264.0815,-992.8545"/>
<polygon fill="#c0c0c0" stroke="#c0c0c0" stroke-width="2" points="267.4507,-993.8067 267.087,-983.2181 260.7682,-991.7225 267.4507,-993.8067"/>
</g>
<!-- 6&#45;&gt;5 -->
<g id="edge10" class="edge">
<title>6&#45;&gt;5</title>
<path fill="none" stroke="#c0c0c0" stroke-width="2" d="M950.6502,-1231.9923C975.8773,-1220.9501 995.524,-1208.9033 1005.5,-1196 1043.3975,-1146.9823 1045.12,-1076.6798 1037.9064,-1020.1004"/>
<polygon fill="#c0c0c0" stroke="#c0c0c0" stroke-width="2" points="1041.3554,-1019.4903 1036.5163,-1010.0651 1034.4216,-1020.4508 1041.3554,-1019.4903"/>
</g>
<!-- 8 -->
<g id="node9" class="node">
<title>8</title>
<text text-anchor="start" x="574" y="-1175.6" font-family="sans" font-weight="bold" font-size="18.00" fill="#000000">low_complexity</text>
<text text-anchor="start" x="292.5" y="-1151.8" font-family="sans" font-size="10.00" fill="#000000"> </text>
<text text-anchor="start" x="296.5" y="-1151.8" font-family="sans" font-weight="bold" font-size="14.00" fill="#000000">↪ input</text>
<text text-anchor="start" x="349.5" y="-1151.8" font-family="sans" font-size="10.00" fill="#000000"> </text>
<text text-anchor="start" x="292.5" y="-1132" font-family="monospace" font-size="10.00" fill="#000000">temp/reads/extend/tadpole/{sample}_{library}_{read_type_trim}.fastq.gz</text>
<text text-anchor="start" x="920.5" y="-1111.8" font-family="sans" font-size="10.00" fill="#000000"> </text>
<text text-anchor="start" x="924.5" y="-1111.8" font-family="sans" font-weight="bold" font-size="14.00" fill="#000000">output →</text>
<text text-anchor="start" x="985.5" y="-1111.8" font-family="sans" font-size="10.00" fill="#000000"> </text>
<text text-anchor="start" x="292.5" y="-1092" font-family="monospace" font-size="10.00" fill="#000000">results/reads/low_complexity/{sample,HD827sonic_1|HD827sonic_2}_{library,lib1|lib2}_{read_type_trim}.fastq.gz</text>
<text text-anchor="start" x="292.5" y="-1074" font-family="monospace" font-size="10.00" fill="#000000">stats/reads/low_complexity/{sample,HD827sonic_1|HD827sonic_2}_{library,lib1|lib2}_{read_type_trim}.txt</text>
<text text-anchor="start" x="292.5" y="-1056" font-family="monospace" font-size="10.00" fill="#000000">temp/reads/low_complexity/{sample,HD827sonic_1|HD827sonic_2}_{library,lib1|lib2}_{read_type_trim}.discarded.fastq.gz</text>
<polygon fill="#57d993" stroke="#57d993" points="286.5,-1166 286.5,-1166 996.5,-1166 996.5,-1166 286.5,-1166"/>
<polygon fill="#57d993" stroke="#57d993" points="286.5,-1126 286.5,-1126 996.5,-1126 996.5,-1126 286.5,-1126"/>
<polygon fill="none" stroke="#57d993" stroke-width="2" points="286,-1047 286,-1195 995,-1195 995,-1047 286,-1047"/>
</g>
<!-- 6&#45;&gt;8 -->
<g id="edge15" class="edge">
<title>6&#45;&gt;8</title>
<path fill="none" stroke="#c0c0c0" stroke-width="2" d="M640.5,-1231.8828C640.5,-1223.4042 640.5,-1214.7194 640.5,-1206.125"/>
<polygon fill="#c0c0c0" stroke="#c0c0c0" stroke-width="2" points="644.0001,-1206.0952 640.5,-1196.0952 637.0001,-1206.0952 644.0001,-1206.0952"/>
</g>
<!-- 7&#45;&gt;6 -->
<g id="edge12" class="edge">
<title>7&#45;&gt;6</title>
<path fill="none" stroke="#c0c0c0" stroke-width="2" d="M667.5048,-1417.6538C665.4822,-1409.3662 663.3654,-1400.6924 661.2451,-1392.0042"/>
<polygon fill="#c0c0c0" stroke="#c0c0c0" stroke-width="2" points="664.6257,-1391.0938 658.8545,-1382.2088 657.8253,-1392.7535 664.6257,-1391.0938"/>
</g>
<!-- 8&#45;&gt;0 -->
<g id="edge1" class="edge">
<title>8&#45;&gt;0</title>
<path fill="none" stroke="#c0c0c0" stroke-width="2" d="M645.869,-1045.6724C658.6317,-851.357 685.1827,-337.5139 621.5,-182 617.5746,-172.4142 612.3816,-163.1752 606.4098,-154.4068"/>
<polygon fill="#c0c0c0" stroke="#c0c0c0" stroke-width="2" points="609.146,-152.2171 600.4616,-146.1482 603.466,-156.3082 609.146,-152.2171"/>
</g>
<!-- 8&#45;&gt;2 -->
<g id="edge5" class="edge">
<title>8&#45;&gt;2</title>
<path fill="none" stroke="#c0c0c0" stroke-width="2" d="M505.2963,-1045.8868C470.8155,-1026.7308 434.1409,-1006.356 400.9956,-987.942"/>
<polygon fill="#c0c0c0" stroke="#c0c0c0" stroke-width="2" points="402.6398,-984.8516 392.1985,-983.0547 399.2403,-990.9707 402.6398,-984.8516"/>
</g>
<!-- 8&#45;&gt;5 -->
<g id="edge9" class="edge">
<title>8&#45;&gt;5</title>
<path fill="none" stroke="#c0c0c0" stroke-width="2" d="M785.3336,-1045.8868C805.0664,-1035.653 825.47,-1025.0714 845.6095,-1014.6267"/>
<polygon fill="#c0c0c0" stroke="#c0c0c0" stroke-width="2" points="847.2642,-1017.7113 854.53,-1010.0004 844.0414,-1011.4973 847.2642,-1017.7113"/>
</g>
</g>
</svg>
