<?xml version="1.0" encoding="UTF-8" standalone="no"?>
<!DOCTYPE svg PUBLIC "-//W3C//DTD SVG 1.1//EN"
 "http://www.w3.org/Graphics/SVG/1.1/DTD/svg11.dtd">
<!-- Generated by graphviz version 2.40.1 (0)
 -->
<!-- Title: snakemake_dag Pages: 1 -->
<svg width="218pt" height="548pt"
 viewBox="0.00 0.00 218.00 548.00" xmlns="http://www.w3.org/2000/svg" xmlns:xlink="http://www.w3.org/1999/xlink">
<g id="graph0" class="graph" transform="scale(1 1) rotate(0) translate(4 544)">
<title>snakemake_dag</title>
<polygon fill="#ffffff" stroke="transparent" points="-4,4 -4,-544 214,-544 214,4 -4,4"/>
<!-- 0 -->
<g id="node1" class="node">
<title>0</title>
<path fill="none" stroke="#d85656" stroke-width="2" d="M88,-36C88,-36 58,-36 58,-36 52,-36 46,-30 46,-24 46,-24 46,-12 46,-12 46,-6 52,0 58,0 58,0 88,0 88,0 94,0 100,-6 100,-12 100,-12 100,-24 100,-24 100,-30 94,-36 88,-36"/>
<text text-anchor="middle" x="73" y="-15.5" font-family="sans" font-size="10.00" fill="#000000">all</text>
</g>
<!-- 1 -->
<g id="node2" class="node">
<title>1</title>
<path fill="none" stroke="#80d856" stroke-width="2" d="M61,-108C61,-108 31,-108 31,-108 25,-108 19,-102 19,-96 19,-96 19,-84 19,-84 19,-78 25,-72 31,-72 31,-72 61,-72 61,-72 67,-72 73,-78 73,-84 73,-84 73,-96 73,-96 73,-102 67,-108 61,-108"/>
<text text-anchor="middle" x="46" y="-87.5" font-family="sans" font-size="10.00" fill="#000000">multiqc</text>
</g>
<!-- 1&#45;&gt;0 -->
<g id="edge1" class="edge">
<title>1&#45;&gt;0</title>
<path fill="none" stroke="#c0c0c0" stroke-width="2" d="M52.8132,-71.8314C55.7644,-63.9617 59.2858,-54.5712 62.555,-45.8533"/>
<polygon fill="#c0c0c0" stroke="#c0c0c0" stroke-width="2" points="65.8609,-47.0055 66.095,-36.4133 59.3066,-44.5476 65.8609,-47.0055"/>
</g>
<!-- 2 -->
<g id="node3" class="node">
<title>2</title>
<path fill="none" stroke="#56a9d8" stroke-width="2" d="M58,-252C58,-252 12,-252 12,-252 6,-252 0,-246 0,-240 0,-240 0,-228 0,-228 0,-222 6,-216 12,-216 12,-216 58,-216 58,-216 64,-216 70,-222 70,-228 70,-228 70,-240 70,-240 70,-246 64,-252 58,-252"/>
<text text-anchor="middle" x="35" y="-231.5" font-family="sans" font-size="10.00" fill="#000000">seqkit_stats</text>
</g>
<!-- 2&#45;&gt;1 -->
<g id="edge4" class="edge">
<title>2&#45;&gt;1</title>
<path fill="none" stroke="#c0c0c0" stroke-width="2" d="M36.3932,-215.7623C38.2694,-191.201 41.6269,-147.2474 43.8341,-118.3541"/>
<polygon fill="#c0c0c0" stroke="#c0c0c0" stroke-width="2" points="47.3462,-118.3272 44.6182,-108.0896 40.3666,-117.794 47.3462,-118.3272"/>
</g>
<!-- 3 -->
<g id="node4" class="node">
<title>3</title>
<path fill="none" stroke="#afd856" stroke-width="2" d="M123,-540C123,-540 75,-540 75,-540 69,-540 63,-534 63,-528 63,-528 63,-516 63,-516 63,-510 69,-504 75,-504 75,-504 123,-504 123,-504 129,-504 135,-510 135,-516 135,-516 135,-528 135,-528 135,-534 129,-540 123,-540"/>
<text text-anchor="middle" x="99" y="-519.5" font-family="sans" font-size="10.00" fill="#000000">merge_lanes</text>
</g>
<!-- 3&#45;&gt;2 -->
<g id="edge5" class="edge">
<title>3&#45;&gt;2</title>
<path fill="none" stroke="#c0c0c0" stroke-width="2" d="M90.3333,-503.9994C74.5554,-469.8734 42.1108,-392.9967 35,-324 32.8809,-303.4381 32.952,-280.0932 33.5155,-262.3327"/>
<polygon fill="#c0c0c0" stroke="#c0c0c0" stroke-width="2" points="37.0132,-262.4559 33.903,-252.3279 30.0185,-262.1849 37.0132,-262.4559"/>
</g>
<!-- 5 -->
<g id="node6" class="node">
<title>5</title>
<path fill="none" stroke="#59d856" stroke-width="2" d="M198,-252C198,-252 142,-252 142,-252 136,-252 130,-246 130,-240 130,-240 130,-228 130,-228 130,-222 136,-216 142,-216 142,-216 198,-216 198,-216 204,-216 210,-222 210,-228 210,-228 210,-240 210,-240 210,-246 204,-252 198,-252"/>
<text text-anchor="middle" x="170" y="-231.5" font-family="sans" font-size="10.00" fill="#000000">nonpareil_infer</text>
</g>
<!-- 3&#45;&gt;5 -->
<g id="edge9" class="edge">
<title>3&#45;&gt;5</title>
<path fill="none" stroke="#c0c0c0" stroke-width="2" d="M130.0219,-503.7701C142.5166,-494.6989 155.6815,-482.5449 163,-468 196.8961,-400.635 185.3342,-307.9954 176.4031,-262.1074"/>
<polygon fill="#c0c0c0" stroke="#c0c0c0" stroke-width="2" points="179.8233,-261.3627 174.3866,-252.2691 172.9658,-262.7683 179.8233,-261.3627"/>
</g>
<!-- 6 -->
<g id="node7" class="node">
<title>6</title>
<path fill="none" stroke="#d88556" stroke-width="2" d="M130.5,-396C130.5,-396 71.5,-396 71.5,-396 65.5,-396 59.5,-390 59.5,-384 59.5,-384 59.5,-372 59.5,-372 59.5,-366 65.5,-360 71.5,-360 71.5,-360 130.5,-360 130.5,-360 136.5,-360 142.5,-366 142.5,-372 142.5,-372 142.5,-384 142.5,-384 142.5,-390 136.5,-396 130.5,-396"/>
<text text-anchor="middle" x="101" y="-375.5" font-family="sans" font-size="10.00" fill="#000000">extend_tadpole</text>
</g>
<!-- 3&#45;&gt;6 -->
<g id="edge12" class="edge">
<title>3&#45;&gt;6</title>
<path fill="none" stroke="#c0c0c0" stroke-width="2" d="M95.585,-503.5804C93.8291,-493.1767 91.8774,-479.9092 91,-468 89.8244,-452.0432 89.5372,-447.933 91,-432 91.7723,-423.5885 93.2077,-414.5317 94.7547,-406.2836"/>
<polygon fill="#c0c0c0" stroke="#c0c0c0" stroke-width="2" points="98.2067,-406.8697 96.7325,-396.3779 91.3422,-405.499 98.2067,-406.8697"/>
</g>
<!-- 7 -->
<g id="node8" class="node">
<title>7</title>
<path fill="none" stroke="#d8ac56" stroke-width="2" d="M142,-468C142,-468 112,-468 112,-468 106,-468 100,-462 100,-456 100,-456 100,-444 100,-444 100,-438 106,-432 112,-432 112,-432 142,-432 142,-432 148,-432 154,-438 154,-444 154,-444 154,-456 154,-456 154,-462 148,-468 142,-468"/>
<text text-anchor="middle" x="127" y="-447.5" font-family="sans" font-size="10.00" fill="#000000">loglog</text>
</g>
<!-- 3&#45;&gt;7 -->
<g id="edge14" class="edge">
<title>3&#45;&gt;7</title>
<path fill="none" stroke="#c0c0c0" stroke-width="2" d="M106.0656,-503.8314C109.126,-495.9617 112.7779,-486.5712 116.1682,-477.8533"/>
<polygon fill="#c0c0c0" stroke="#c0c0c0" stroke-width="2" points="119.4768,-479.0019 119.8393,-468.4133 112.9527,-476.4647 119.4768,-479.0019"/>
</g>
<!-- 4 -->
<g id="node5" class="node">
<title>4</title>
<path fill="none" stroke="#56d882" stroke-width="2" d="M195.5,-180C195.5,-180 142.5,-180 142.5,-180 136.5,-180 130.5,-174 130.5,-168 130.5,-168 130.5,-156 130.5,-156 130.5,-150 136.5,-144 142.5,-144 142.5,-144 195.5,-144 195.5,-144 201.5,-144 207.5,-150 207.5,-156 207.5,-156 207.5,-168 207.5,-168 207.5,-174 201.5,-180 195.5,-180"/>
<text text-anchor="middle" x="169" y="-159.5" font-family="sans" font-size="10.00" fill="#000000">nonpareil_plot</text>
</g>
<!-- 4&#45;&gt;1 -->
<g id="edge3" class="edge">
<title>4&#45;&gt;1</title>
<path fill="none" stroke="#c0c0c0" stroke-width="2" d="M137.9619,-143.8314C120.9929,-133.8983 99.8846,-121.5422 82.1724,-111.1741"/>
<polygon fill="#c0c0c0" stroke="#c0c0c0" stroke-width="2" points="83.6578,-107.9881 73.2595,-105.9568 80.1215,-114.0292 83.6578,-107.9881"/>
</g>
<!-- 5&#45;&gt;4 -->
<g id="edge8" class="edge">
<title>5&#45;&gt;4</title>
<path fill="none" stroke="#c0c0c0" stroke-width="2" d="M169.7477,-215.8314C169.6407,-208.131 169.5135,-198.9743 169.3947,-190.4166"/>
<polygon fill="#c0c0c0" stroke="#c0c0c0" stroke-width="2" points="172.8944,-190.3637 169.2557,-180.4133 165.8951,-190.4609 172.8944,-190.3637"/>
</g>
<!-- 6&#45;&gt;2 -->
<g id="edge7" class="edge">
<title>6&#45;&gt;2</title>
<path fill="none" stroke="#c0c0c0" stroke-width="2" d="M78.6799,-359.9651C68.3262,-350.3781 56.8262,-337.7435 50,-324 40.4576,-304.7877 36.8134,-280.7168 35.4975,-262.3039"/>
<polygon fill="#c0c0c0" stroke="#c0c0c0" stroke-width="2" points="38.9863,-261.9978 34.9648,-252.1959 31.996,-262.3663 38.9863,-261.9978"/>
</g>
<!-- 6&#45;&gt;5 -->
<g id="edge11" class="edge">
<title>6&#45;&gt;5</title>
<path fill="none" stroke="#c0c0c0" stroke-width="2" d="M123.1305,-359.869C133.4376,-350.2584 144.9531,-337.6316 152,-324 161.9093,-304.8311 166.3717,-280.7577 168.377,-262.3327"/>
<polygon fill="#c0c0c0" stroke="#c0c0c0" stroke-width="2" points="171.8768,-262.4926 169.2964,-252.2169 164.9056,-261.859 171.8768,-262.4926"/>
</g>
<!-- 8 -->
<g id="node9" class="node">
<title>8</title>
<path fill="none" stroke="#d6d856" stroke-width="2" d="M131,-324C131,-324 71,-324 71,-324 65,-324 59,-318 59,-312 59,-312 59,-300 59,-300 59,-294 65,-288 71,-288 71,-288 131,-288 131,-288 137,-288 143,-294 143,-300 143,-300 143,-312 143,-312 143,-318 137,-324 131,-324"/>
<text text-anchor="middle" x="101" y="-303.5" font-family="sans" font-size="10.00" fill="#000000">low_complexity</text>
</g>
<!-- 6&#45;&gt;8 -->
<g id="edge15" class="edge">
<title>6&#45;&gt;8</title>
<path fill="none" stroke="#c0c0c0" stroke-width="2" d="M101,-359.8314C101,-352.131 101,-342.9743 101,-334.4166"/>
<polygon fill="#c0c0c0" stroke="#c0c0c0" stroke-width="2" points="104.5001,-334.4132 101,-324.4133 97.5001,-334.4133 104.5001,-334.4132"/>
</g>
<!-- 7&#45;&gt;6 -->
<g id="edge13" class="edge">
<title>7&#45;&gt;6</title>
<path fill="none" stroke="#c0c0c0" stroke-width="2" d="M120.4391,-431.8314C117.5973,-423.9617 114.2063,-414.5712 111.0581,-405.8533"/>
<polygon fill="#c0c0c0" stroke="#c0c0c0" stroke-width="2" points="114.3377,-404.63 107.6492,-396.4133 107.7538,-407.0076 114.3377,-404.63"/>
</g>
<!-- 8&#45;&gt;0 -->
<g id="edge2" class="edge">
<title>8&#45;&gt;0</title>
<path fill="none" stroke="#c0c0c0" stroke-width="2" d="M100.0418,-287.742C97.8555,-248.2716 91.9081,-152.0917 82,-72 80.9662,-63.6435 79.5701,-54.6036 78.1862,-46.3541"/>
<polygon fill="#c0c0c0" stroke="#c0c0c0" stroke-width="2" points="81.6241,-45.694 76.468,-36.4384 74.7268,-46.8892 81.6241,-45.694"/>
</g>
<!-- 8&#45;&gt;2 -->
<g id="edge6" class="edge">
<title>8&#45;&gt;2</title>
<path fill="none" stroke="#c0c0c0" stroke-width="2" d="M84.3454,-287.8314C76.5886,-279.3694 67.2198,-269.1489 58.739,-259.8971"/>
<polygon fill="#c0c0c0" stroke="#c0c0c0" stroke-width="2" points="61.2162,-257.4198 51.8788,-252.4133 56.0561,-262.1499 61.2162,-257.4198"/>
</g>
<!-- 8&#45;&gt;5 -->
<g id="edge10" class="edge">
<title>8&#45;&gt;5</title>
<path fill="none" stroke="#c0c0c0" stroke-width="2" d="M118.4116,-287.8314C126.521,-279.3694 136.3156,-269.1489 145.182,-259.8971"/>
<polygon fill="#c0c0c0" stroke="#c0c0c0" stroke-width="2" points="147.9618,-262.0549 152.354,-252.4133 142.9079,-257.2115 147.9618,-262.0549"/>
</g>
</g>
</svg>
