<?xml version="1.0" encoding="UTF-8" standalone="no"?>
<!DOCTYPE svg PUBLIC "-//W3C//DTD SVG 1.1//EN"
 "http://www.w3.org/Graphics/SVG/1.1/DTD/svg11.dtd">
<!-- Generated by graphviz version 2.40.1 (0)
 -->
<!-- Title: snakemake_dag Pages: 1 -->
<svg width="1031pt" height="420pt"
 viewBox="0.00 0.00 1031.26 420.00" xmlns="http://www.w3.org/2000/svg" xmlns:xlink="http://www.w3.org/1999/xlink">
<g id="graph0" class="graph" transform="scale(1 1) rotate(0) translate(4 416)">
<title>snakemake_dag</title>
<polygon fill="#ffffff" stroke="transparent" points="-4,4 -4,-416 1027.2571,-416 1027.2571,4 -4,4"/>
<!-- 0 -->
<g id="node1" class="node">
<title>0</title>
<path fill="none" stroke="#d85656" stroke-width="2" d="M608,-36C608,-36 578,-36 578,-36 572,-36 566,-30 566,-24 566,-24 566,-12 566,-12 566,-6 572,0 578,0 578,0 608,0 608,0 614,0 620,-6 620,-12 620,-12 620,-24 620,-24 620,-30 614,-36 608,-36"/>
<text text-anchor="middle" x="593" y="-15.5" font-family="sans" font-size="10.00" fill="#000000">all</text>
</g>
<!-- 1 -->
<g id="node2" class="node">
<title>1</title>
<path fill="none" stroke="#59d856" stroke-width="2" d="M439,-108C439,-108 409,-108 409,-108 403,-108 397,-102 397,-96 397,-96 397,-84 397,-84 397,-78 403,-72 409,-72 409,-72 439,-72 439,-72 445,-72 451,-78 451,-84 451,-84 451,-96 451,-96 451,-102 445,-108 439,-108"/>
<text text-anchor="middle" x="424" y="-87.5" font-family="sans" font-size="10.00" fill="#000000">multiqc</text>
</g>
<!-- 1&#45;&gt;0 -->
<g id="edge1" class="edge">
<title>1&#45;&gt;0</title>
<path fill="none" stroke="#c0c0c0" stroke-width="2" d="M451.1528,-78.432C479.7334,-66.2556 524.8867,-47.0187 556.5533,-33.5276"/>
<polygon fill="#c0c0c0" stroke="#c0c0c0" stroke-width="2" points="558.0866,-36.6788 565.9146,-29.5393 555.3429,-30.2389 558.0866,-36.6788"/>
</g>
<!-- 2 -->
<g id="node3" class="node">
<title>2</title>
<path fill="none" stroke="#d8ac56" stroke-width="2" d="M872,-180C872,-180 802,-180 802,-180 796,-180 790,-174 790,-168 790,-168 790,-156 790,-156 790,-150 796,-144 802,-144 802,-144 872,-144 872,-144 878,-144 884,-150 884,-156 884,-156 884,-168 884,-168 884,-174 878,-180 872,-180"/>
<text text-anchor="middle" x="837" y="-165" font-family="sans" font-size="10.00" fill="#000000">fastqc</text>
<text text-anchor="middle" x="837" y="-154" font-family="sans" font-size="10.00" fill="#000000">tool: merge_lanes</text>
</g>
<!-- 2&#45;&gt;1 -->
<g id="edge5" class="edge">
<title>2&#45;&gt;1</title>
<path fill="none" stroke="#c0c0c0" stroke-width="2" d="M789.6989,-152.7365C774.7712,-149.8684 758.2075,-146.7429 743,-144 641.3135,-125.6595 521.0502,-105.7942 461.4135,-96.0655"/>
<polygon fill="#c0c0c0" stroke="#c0c0c0" stroke-width="2" points="461.777,-92.5787 451.3443,-94.4253 460.6515,-99.4876 461.777,-92.5787"/>
</g>
<!-- 3 -->
<g id="node4" class="node">
<title>3</title>
<path fill="none" stroke="#80d856" stroke-width="2" d="M846,-412C846,-412 742,-412 742,-412 736,-412 730,-406 730,-400 730,-400 730,-372 730,-372 730,-366 736,-360 742,-360 742,-360 846,-360 846,-360 852,-360 858,-366 858,-372 858,-372 858,-400 858,-400 858,-406 852,-412 846,-412"/>
<text text-anchor="middle" x="794" y="-400" font-family="sans" font-size="10.00" fill="#000000">merge_lanes</text>
<text text-anchor="middle" x="794" y="-389" font-family="sans" font-size="10.00" fill="#000000">library: lib1</text>
<text text-anchor="middle" x="794" y="-378" font-family="sans" font-size="10.00" fill="#000000">read_type_trim: collapsed</text>
<text text-anchor="middle" x="794" y="-367" font-family="sans" font-size="10.00" fill="#000000">sample: HD827sonic_1</text>
</g>
<!-- 3&#45;&gt;2 -->
<g id="edge17" class="edge">
<title>3&#45;&gt;2</title>
<path fill="none" stroke="#c0c0c0" stroke-width="2" d="M799.0168,-359.866C807.1625,-317.4324 823.1973,-233.9025 831.5895,-190.185"/>
<polygon fill="#c0c0c0" stroke="#c0c0c0" stroke-width="2" points="835.0527,-190.709 833.5008,-180.2285 828.1782,-189.3893 835.0527,-190.709"/>
</g>
<!-- 11 -->
<g id="node12" class="node">
<title>11</title>
<path fill="none" stroke="#56d882" stroke-width="2" d="M669,-324C669,-324 599,-324 599,-324 593,-324 587,-318 587,-312 587,-312 587,-300 587,-300 587,-294 593,-288 599,-288 599,-288 669,-288 669,-288 675,-288 681,-294 681,-300 681,-300 681,-312 681,-312 681,-318 675,-324 669,-324"/>
<text text-anchor="middle" x="634" y="-309" font-family="sans" font-size="10.00" fill="#000000">nonpareil_infer</text>
<text text-anchor="middle" x="634" y="-298" font-family="sans" font-size="10.00" fill="#000000">tool: merge_lanes</text>
</g>
<!-- 3&#45;&gt;11 -->
<g id="edge23" class="edge">
<title>3&#45;&gt;11</title>
<path fill="none" stroke="#c0c0c0" stroke-width="2" d="M741.61,-359.805C721.4685,-349.7342 698.6655,-338.3328 679.2514,-328.6257"/>
<polygon fill="#c0c0c0" stroke="#c0c0c0" stroke-width="2" points="680.816,-325.4949 670.3065,-324.1532 677.6855,-331.7559 680.816,-325.4949"/>
</g>
<!-- 19 -->
<g id="node20" class="node">
<title>19</title>
<path fill="none" stroke="#5682d8" stroke-width="2" d="M864,-324C864,-324 834,-324 834,-324 828,-324 822,-318 822,-312 822,-312 822,-300 822,-300 822,-294 828,-288 834,-288 834,-288 864,-288 864,-288 870,-288 876,-294 876,-300 876,-300 876,-312 876,-312 876,-318 870,-324 864,-324"/>
<text text-anchor="middle" x="849" y="-303.5" font-family="sans" font-size="10.00" fill="#000000">vsearch</text>
</g>
<!-- 3&#45;&gt;19 -->
<g id="edge31" class="edge">
<title>3&#45;&gt;19</title>
<path fill="none" stroke="#c0c0c0" stroke-width="2" d="M812.0091,-359.805C818.0242,-351.0557 824.7298,-341.3021 830.7622,-332.5277"/>
<polygon fill="#c0c0c0" stroke="#c0c0c0" stroke-width="2" points="833.7385,-334.3765 836.5196,-324.1532 827.9702,-330.4108 833.7385,-334.3765"/>
</g>
<!-- 4 -->
<g id="node5" class="node">
<title>4</title>
<path fill="none" stroke="#d8ac56" stroke-width="2" d="M346,-180C346,-180 276,-180 276,-180 270,-180 264,-174 264,-168 264,-168 264,-156 264,-156 264,-150 270,-144 276,-144 276,-144 346,-144 346,-144 352,-144 358,-150 358,-156 358,-156 358,-168 358,-168 358,-174 352,-180 346,-180"/>
<text text-anchor="middle" x="311" y="-165" font-family="sans" font-size="10.00" fill="#000000">fastqc</text>
<text text-anchor="middle" x="311" y="-154" font-family="sans" font-size="10.00" fill="#000000">tool: merge_lanes</text>
</g>
<!-- 4&#45;&gt;1 -->
<g id="edge6" class="edge">
<title>4&#45;&gt;1</title>
<path fill="none" stroke="#c0c0c0" stroke-width="2" d="M339.5147,-143.8314C354.2991,-134.4112 372.5037,-122.8118 388.2237,-112.7955"/>
<polygon fill="#c0c0c0" stroke="#c0c0c0" stroke-width="2" points="390.1111,-115.7431 396.6639,-107.4177 386.3495,-109.8396 390.1111,-115.7431"/>
</g>
<!-- 5 -->
<g id="node6" class="node">
<title>5</title>
<path fill="none" stroke="#80d856" stroke-width="2" d="M453,-412C453,-412 349,-412 349,-412 343,-412 337,-406 337,-400 337,-400 337,-372 337,-372 337,-366 343,-360 349,-360 349,-360 453,-360 453,-360 459,-360 465,-366 465,-372 465,-372 465,-400 465,-400 465,-406 459,-412 453,-412"/>
<text text-anchor="middle" x="401" y="-400" font-family="sans" font-size="10.00" fill="#000000">merge_lanes</text>
<text text-anchor="middle" x="401" y="-389" font-family="sans" font-size="10.00" fill="#000000">library: lib2</text>
<text text-anchor="middle" x="401" y="-378" font-family="sans" font-size="10.00" fill="#000000">read_type_trim: collapsed</text>
<text text-anchor="middle" x="401" y="-367" font-family="sans" font-size="10.00" fill="#000000">sample: HD827sonic_2</text>
</g>
<!-- 5&#45;&gt;4 -->
<g id="edge18" class="edge">
<title>5&#45;&gt;4</title>
<path fill="none" stroke="#c0c0c0" stroke-width="2" d="M371.8707,-359.9992C361.9631,-349.7065 351.71,-337.1855 345,-324 322.8895,-280.5515 315.1525,-223.5491 312.4486,-190.0351"/>
<polygon fill="#c0c0c0" stroke="#c0c0c0" stroke-width="2" points="315.9374,-189.7522 311.7357,-180.0262 308.9551,-190.2496 315.9374,-189.7522"/>
</g>
<!-- 13 -->
<g id="node14" class="node">
<title>13</title>
<path fill="none" stroke="#56d882" stroke-width="2" d="M436,-324C436,-324 366,-324 366,-324 360,-324 354,-318 354,-312 354,-312 354,-300 354,-300 354,-294 360,-288 366,-288 366,-288 436,-288 436,-288 442,-288 448,-294 448,-300 448,-300 448,-312 448,-312 448,-318 442,-324 436,-324"/>
<text text-anchor="middle" x="401" y="-309" font-family="sans" font-size="10.00" fill="#000000">nonpareil_infer</text>
<text text-anchor="middle" x="401" y="-298" font-family="sans" font-size="10.00" fill="#000000">tool: merge_lanes</text>
</g>
<!-- 5&#45;&gt;13 -->
<g id="edge25" class="edge">
<title>5&#45;&gt;13</title>
<path fill="none" stroke="#c0c0c0" stroke-width="2" d="M401,-359.805C401,-351.6026 401,-342.5174 401,-334.1839"/>
<polygon fill="#c0c0c0" stroke="#c0c0c0" stroke-width="2" points="404.5001,-334.1532 401,-324.1532 397.5001,-334.1533 404.5001,-334.1532"/>
</g>
<!-- 17 -->
<g id="node18" class="node">
<title>17</title>
<path fill="none" stroke="#5682d8" stroke-width="2" d="M508,-324C508,-324 478,-324 478,-324 472,-324 466,-318 466,-312 466,-312 466,-300 466,-300 466,-294 472,-288 478,-288 478,-288 508,-288 508,-288 514,-288 520,-294 520,-300 520,-300 520,-312 520,-312 520,-318 514,-324 508,-324"/>
<text text-anchor="middle" x="493" y="-303.5" font-family="sans" font-size="10.00" fill="#000000">vsearch</text>
</g>
<!-- 5&#45;&gt;17 -->
<g id="edge29" class="edge">
<title>5&#45;&gt;17</title>
<path fill="none" stroke="#c0c0c0" stroke-width="2" d="M431.1242,-359.805C441.8147,-350.5089 453.8092,-340.079 464.3713,-330.8945"/>
<polygon fill="#c0c0c0" stroke="#c0c0c0" stroke-width="2" points="466.8743,-333.3562 472.1238,-324.1532 462.2811,-328.0739 466.8743,-333.3562"/>
</g>
<!-- 6 -->
<g id="node7" class="node">
<title>6</title>
<path fill="none" stroke="#d8ac56" stroke-width="2" d="M174,-324C174,-324 104,-324 104,-324 98,-324 92,-318 92,-312 92,-312 92,-300 92,-300 92,-294 98,-288 104,-288 104,-288 174,-288 174,-288 180,-288 186,-294 186,-300 186,-300 186,-312 186,-312 186,-318 180,-324 174,-324"/>
<text text-anchor="middle" x="139" y="-309" font-family="sans" font-size="10.00" fill="#000000">fastqc</text>
<text text-anchor="middle" x="139" y="-298" font-family="sans" font-size="10.00" fill="#000000">tool: merge_lanes</text>
</g>
<!-- 6&#45;&gt;1 -->
<g id="edge7" class="edge">
<title>6&#45;&gt;1</title>
<path fill="none" stroke="#c0c0c0" stroke-width="2" d="M150.4887,-287.7418C177.1342,-245.3975 240.8952,-144.0793 241,-144 284.2785,-111.2422 347.1274,-98.2957 386.7632,-93.2198"/>
<polygon fill="#c0c0c0" stroke="#c0c0c0" stroke-width="2" points="387.2797,-96.6833 396.8024,-92.0391 386.462,-89.7312 387.2797,-96.6833"/>
</g>
<!-- 7 -->
<g id="node8" class="node">
<title>7</title>
<path fill="none" stroke="#80d856" stroke-width="2" d="M191,-412C191,-412 87,-412 87,-412 81,-412 75,-406 75,-400 75,-400 75,-372 75,-372 75,-366 81,-360 87,-360 87,-360 191,-360 191,-360 197,-360 203,-366 203,-372 203,-372 203,-400 203,-400 203,-406 197,-412 191,-412"/>
<text text-anchor="middle" x="139" y="-400" font-family="sans" font-size="10.00" fill="#000000">merge_lanes</text>
<text text-anchor="middle" x="139" y="-389" font-family="sans" font-size="10.00" fill="#000000">library: lib1</text>
<text text-anchor="middle" x="139" y="-378" font-family="sans" font-size="10.00" fill="#000000">read_type_trim: collapsed</text>
<text text-anchor="middle" x="139" y="-367" font-family="sans" font-size="10.00" fill="#000000">sample: HD827sonic_2</text>
</g>
<!-- 7&#45;&gt;6 -->
<g id="edge19" class="edge">
<title>7&#45;&gt;6</title>
<path fill="none" stroke="#c0c0c0" stroke-width="2" d="M139,-359.805C139,-351.6026 139,-342.5174 139,-334.1839"/>
<polygon fill="#c0c0c0" stroke="#c0c0c0" stroke-width="2" points="142.5001,-334.1532 139,-324.1532 135.5001,-334.1533 142.5001,-334.1532"/>
</g>
<!-- 9 -->
<g id="node10" class="node">
<title>9</title>
<path fill="none" stroke="#56d882" stroke-width="2" d="M286,-324C286,-324 216,-324 216,-324 210,-324 204,-318 204,-312 204,-312 204,-300 204,-300 204,-294 210,-288 216,-288 216,-288 286,-288 286,-288 292,-288 298,-294 298,-300 298,-300 298,-312 298,-312 298,-318 292,-324 286,-324"/>
<text text-anchor="middle" x="251" y="-309" font-family="sans" font-size="10.00" fill="#000000">nonpareil_infer</text>
<text text-anchor="middle" x="251" y="-298" font-family="sans" font-size="10.00" fill="#000000">tool: merge_lanes</text>
</g>
<!-- 7&#45;&gt;9 -->
<g id="edge21" class="edge">
<title>7&#45;&gt;9</title>
<path fill="none" stroke="#c0c0c0" stroke-width="2" d="M175.673,-359.805C189.0703,-350.2355 204.1498,-339.4645 217.2777,-330.0874"/>
<polygon fill="#c0c0c0" stroke="#c0c0c0" stroke-width="2" points="219.4825,-332.8137 225.5855,-324.1532 215.4138,-327.1176 219.4825,-332.8137"/>
</g>
<!-- 15 -->
<g id="node16" class="node">
<title>15</title>
<path fill="none" stroke="#5682d8" stroke-width="2" d="M62,-324C62,-324 32,-324 32,-324 26,-324 20,-318 20,-312 20,-312 20,-300 20,-300 20,-294 26,-288 32,-288 32,-288 62,-288 62,-288 68,-288 74,-294 74,-300 74,-300 74,-312 74,-312 74,-318 68,-324 62,-324"/>
<text text-anchor="middle" x="47" y="-303.5" font-family="sans" font-size="10.00" fill="#000000">vsearch</text>
</g>
<!-- 7&#45;&gt;15 -->
<g id="edge27" class="edge">
<title>7&#45;&gt;15</title>
<path fill="none" stroke="#c0c0c0" stroke-width="2" d="M108.8758,-359.805C98.1853,-350.5089 86.1908,-340.079 75.6287,-330.8945"/>
<polygon fill="#c0c0c0" stroke="#c0c0c0" stroke-width="2" points="77.7189,-328.0739 67.8762,-324.1532 73.1257,-333.3562 77.7189,-328.0739"/>
</g>
<!-- 8 -->
<g id="node9" class="node">
<title>8</title>
<path fill="none" stroke="#56d8a9" stroke-width="2" d="M285.5,-252C285.5,-252 232.5,-252 232.5,-252 226.5,-252 220.5,-246 220.5,-240 220.5,-240 220.5,-228 220.5,-228 220.5,-222 226.5,-216 232.5,-216 232.5,-216 285.5,-216 285.5,-216 291.5,-216 297.5,-222 297.5,-228 297.5,-228 297.5,-240 297.5,-240 297.5,-246 291.5,-252 285.5,-252"/>
<text text-anchor="middle" x="259" y="-231.5" font-family="sans" font-size="10.00" fill="#000000">nonpareil_plot</text>
</g>
<!-- 8&#45;&gt;1 -->
<g id="edge8" class="edge">
<title>8&#45;&gt;1</title>
<path fill="none" stroke="#c0c0c0" stroke-width="2" d="M252.0736,-215.8685C245.8414,-196.2045 239.7802,-164.8409 255,-144 270.6731,-122.5382 342.0027,-105.4743 386.8364,-96.6307"/>
<polygon fill="#c0c0c0" stroke="#c0c0c0" stroke-width="2" points="387.6334,-100.0416 396.7922,-94.7155 386.311,-93.1676 387.6334,-100.0416"/>
</g>
<!-- 9&#45;&gt;8 -->
<g id="edge20" class="edge">
<title>9&#45;&gt;8</title>
<path fill="none" stroke="#c0c0c0" stroke-width="2" d="M253.0187,-287.8314C253.8743,-280.131 254.8917,-270.9743 255.8426,-262.4166"/>
<polygon fill="#c0c0c0" stroke="#c0c0c0" stroke-width="2" points="259.3283,-262.7386 256.9541,-252.4133 252.3711,-261.9656 259.3283,-262.7386"/>
</g>
<!-- 10 -->
<g id="node11" class="node">
<title>10</title>
<path fill="none" stroke="#56d8a9" stroke-width="2" d="M517.5,-180C517.5,-180 464.5,-180 464.5,-180 458.5,-180 452.5,-174 452.5,-168 452.5,-168 452.5,-156 452.5,-156 452.5,-150 458.5,-144 464.5,-144 464.5,-144 517.5,-144 517.5,-144 523.5,-144 529.5,-150 529.5,-156 529.5,-156 529.5,-168 529.5,-168 529.5,-174 523.5,-180 517.5,-180"/>
<text text-anchor="middle" x="491" y="-159.5" font-family="sans" font-size="10.00" fill="#000000">nonpareil_plot</text>
</g>
<!-- 10&#45;&gt;1 -->
<g id="edge9" class="edge">
<title>10&#45;&gt;1</title>
<path fill="none" stroke="#c0c0c0" stroke-width="2" d="M474.0931,-143.8314C466.2187,-135.3694 456.708,-125.1489 448.0987,-115.8971"/>
<polygon fill="#c0c0c0" stroke="#c0c0c0" stroke-width="2" points="450.5092,-113.3497 441.1346,-108.4133 445.3847,-118.1183 450.5092,-113.3497"/>
</g>
<!-- 11&#45;&gt;10 -->
<g id="edge22" class="edge">
<title>11&#45;&gt;10</title>
<path fill="none" stroke="#c0c0c0" stroke-width="2" d="M604.6479,-287.8656C590.1103,-278.163 572.7702,-265.4568 559,-252 539.2914,-232.74 520.704,-207.4611 507.9599,-188.5992"/>
<polygon fill="#c0c0c0" stroke="#c0c0c0" stroke-width="2" points="510.8105,-186.565 502.3634,-180.1699 504.9788,-190.4369 510.8105,-186.565"/>
</g>
<!-- 12 -->
<g id="node13" class="node">
<title>12</title>
<path fill="none" stroke="#56d8a9" stroke-width="2" d="M419.5,-252C419.5,-252 366.5,-252 366.5,-252 360.5,-252 354.5,-246 354.5,-240 354.5,-240 354.5,-228 354.5,-228 354.5,-222 360.5,-216 366.5,-216 366.5,-216 419.5,-216 419.5,-216 425.5,-216 431.5,-222 431.5,-228 431.5,-228 431.5,-240 431.5,-240 431.5,-246 425.5,-252 419.5,-252"/>
<text text-anchor="middle" x="393" y="-231.5" font-family="sans" font-size="10.00" fill="#000000">nonpareil_plot</text>
</g>
<!-- 12&#45;&gt;1 -->
<g id="edge10" class="edge">
<title>12&#45;&gt;1</title>
<path fill="none" stroke="#c0c0c0" stroke-width="2" d="M396.0347,-215.9977C399.1918,-197.7771 404.4433,-168.8279 410,-144 411.874,-135.6269 414.1276,-126.5819 416.2737,-118.3328"/>
<polygon fill="#c0c0c0" stroke="#c0c0c0" stroke-width="2" points="419.7221,-118.9829 418.8978,-108.4202 412.9552,-117.1914 419.7221,-118.9829"/>
</g>
<!-- 13&#45;&gt;12 -->
<g id="edge24" class="edge">
<title>13&#45;&gt;12</title>
<path fill="none" stroke="#c0c0c0" stroke-width="2" d="M398.9813,-287.8314C398.1257,-280.131 397.1083,-270.9743 396.1574,-262.4166"/>
<polygon fill="#c0c0c0" stroke="#c0c0c0" stroke-width="2" points="399.6289,-261.9656 395.0459,-252.4133 392.6717,-262.7386 399.6289,-261.9656"/>
</g>
<!-- 14 -->
<g id="node15" class="node">
<title>14</title>
<path fill="none" stroke="#d8ac56" stroke-width="2" d="M152,-252C152,-252 114,-252 114,-252 108,-252 102,-246 102,-240 102,-240 102,-228 102,-228 102,-222 108,-216 114,-216 114,-216 152,-216 152,-216 158,-216 164,-222 164,-228 164,-228 164,-240 164,-240 164,-246 158,-252 152,-252"/>
<text text-anchor="middle" x="133" y="-237" font-family="sans" font-size="10.00" fill="#000000">fastqc</text>
<text text-anchor="middle" x="133" y="-226" font-family="sans" font-size="10.00" fill="#000000">tool: derep</text>
</g>
<!-- 14&#45;&gt;1 -->
<g id="edge11" class="edge">
<title>14&#45;&gt;1</title>
<path fill="none" stroke="#c0c0c0" stroke-width="2" d="M137.0879,-215.7991C142.7005,-195.1564 154.8441,-162.0315 178,-144 210.1383,-118.9739 325.7967,-101.7728 386.3827,-94.2624"/>
<polygon fill="#c0c0c0" stroke="#c0c0c0" stroke-width="2" points="387.1643,-97.6934 396.6701,-93.0149 386.3215,-90.7443 387.1643,-97.6934"/>
</g>
<!-- 15&#45;&gt;14 -->
<g id="edge26" class="edge">
<title>15&#45;&gt;14</title>
<path fill="none" stroke="#c0c0c0" stroke-width="2" d="M68.7014,-287.8314C79.1921,-279.0485 91.9455,-268.3712 103.3194,-258.8489"/>
<polygon fill="#c0c0c0" stroke="#c0c0c0" stroke-width="2" points="105.8847,-261.2659 111.3055,-252.1628 101.3911,-255.8986 105.8847,-261.2659"/>
</g>
<!-- 25 -->
<g id="node26" class="node">
<title>25</title>
<path fill="none" stroke="#afd856" stroke-width="2" d="M72,-252C72,-252 12,-252 12,-252 6,-252 0,-246 0,-240 0,-240 0,-228 0,-228 0,-222 6,-216 12,-216 12,-216 72,-216 72,-216 78,-216 84,-222 84,-228 84,-228 84,-240 84,-240 84,-246 78,-252 72,-252"/>
<text text-anchor="middle" x="42" y="-231.5" font-family="sans" font-size="10.00" fill="#000000">low_complexity</text>
</g>
<!-- 15&#45;&gt;25 -->
<g id="edge37" class="edge">
<title>15&#45;&gt;25</title>
<path fill="none" stroke="#c0c0c0" stroke-width="2" d="M45.7383,-287.8314C45.2035,-280.131 44.5677,-270.9743 43.9734,-262.4166"/>
<polygon fill="#c0c0c0" stroke="#c0c0c0" stroke-width="2" points="47.4632,-262.1467 43.2787,-252.4133 40.48,-262.6317 47.4632,-262.1467"/>
</g>
<!-- 16 -->
<g id="node17" class="node">
<title>16</title>
<path fill="none" stroke="#d8ac56" stroke-width="2" d="M500,-252C500,-252 462,-252 462,-252 456,-252 450,-246 450,-240 450,-240 450,-228 450,-228 450,-222 456,-216 462,-216 462,-216 500,-216 500,-216 506,-216 512,-222 512,-228 512,-228 512,-240 512,-240 512,-246 506,-252 500,-252"/>
<text text-anchor="middle" x="481" y="-237" font-family="sans" font-size="10.00" fill="#000000">fastqc</text>
<text text-anchor="middle" x="481" y="-226" font-family="sans" font-size="10.00" fill="#000000">tool: derep</text>
</g>
<!-- 16&#45;&gt;1 -->
<g id="edge12" class="edge">
<title>16&#45;&gt;1</title>
<path fill="none" stroke="#c0c0c0" stroke-width="2" d="M465.7396,-215.5561C458.1847,-205.5775 449.5227,-192.7174 444,-180 435.4192,-160.2407 430.333,-136.3824 427.4385,-118.1963"/>
<polygon fill="#c0c0c0" stroke="#c0c0c0" stroke-width="2" points="430.8894,-117.6054 425.9778,-108.2179 423.9633,-118.6194 430.8894,-117.6054"/>
</g>
<!-- 17&#45;&gt;16 -->
<g id="edge28" class="edge">
<title>17&#45;&gt;16</title>
<path fill="none" stroke="#c0c0c0" stroke-width="2" d="M489.9719,-287.8314C488.6885,-280.131 487.1624,-270.9743 485.7361,-262.4166"/>
<polygon fill="#c0c0c0" stroke="#c0c0c0" stroke-width="2" points="489.1653,-261.7018 484.0689,-252.4133 482.2606,-262.8526 489.1653,-261.7018"/>
</g>
<!-- 23 -->
<g id="node24" class="node">
<title>23</title>
<path fill="none" stroke="#afd856" stroke-width="2" d="M640,-252C640,-252 580,-252 580,-252 574,-252 568,-246 568,-240 568,-240 568,-228 568,-228 568,-222 574,-216 580,-216 580,-216 640,-216 640,-216 646,-216 652,-222 652,-228 652,-228 652,-240 652,-240 652,-246 646,-252 640,-252"/>
<text text-anchor="middle" x="610" y="-231.5" font-family="sans" font-size="10.00" fill="#000000">low_complexity</text>
</g>
<!-- 17&#45;&gt;23 -->
<g id="edge35" class="edge">
<title>17&#45;&gt;23</title>
<path fill="none" stroke="#c0c0c0" stroke-width="2" d="M520.1362,-289.3008C535.5423,-279.8201 555.0687,-267.8039 571.9812,-257.3962"/>
<polygon fill="#c0c0c0" stroke="#c0c0c0" stroke-width="2" points="573.8693,-260.344 580.5515,-252.1222 570.2005,-254.3824 573.8693,-260.344"/>
</g>
<!-- 18 -->
<g id="node19" class="node">
<title>18</title>
<path fill="none" stroke="#d8ac56" stroke-width="2" d="M722,-180C722,-180 684,-180 684,-180 678,-180 672,-174 672,-168 672,-168 672,-156 672,-156 672,-150 678,-144 684,-144 684,-144 722,-144 722,-144 728,-144 734,-150 734,-156 734,-156 734,-168 734,-168 734,-174 728,-180 722,-180"/>
<text text-anchor="middle" x="703" y="-165" font-family="sans" font-size="10.00" fill="#000000">fastqc</text>
<text text-anchor="middle" x="703" y="-154" font-family="sans" font-size="10.00" fill="#000000">tool: derep</text>
</g>
<!-- 18&#45;&gt;1 -->
<g id="edge13" class="edge">
<title>18&#45;&gt;1</title>
<path fill="none" stroke="#c0c0c0" stroke-width="2" d="M671.7947,-147.2431C668.8518,-146.0688 665.889,-144.9655 663,-144 593.2338,-120.684 508.6704,-104.2283 461.1321,-96.0034"/>
<polygon fill="#c0c0c0" stroke="#c0c0c0" stroke-width="2" points="461.4495,-92.5071 451.0039,-94.279 460.2746,-99.4078 461.4495,-92.5071"/>
</g>
<!-- 19&#45;&gt;18 -->
<g id="edge30" class="edge">
<title>19&#45;&gt;18</title>
<path fill="none" stroke="#c0c0c0" stroke-width="2" d="M830.509,-287.7623C804.729,-262.3354 757.877,-216.1253 728.7091,-187.3569"/>
<polygon fill="#c0c0c0" stroke="#c0c0c0" stroke-width="2" points="730.9183,-184.6199 721.3409,-180.0896 726.0028,-189.6037 730.9183,-184.6199"/>
</g>
<!-- 21 -->
<g id="node22" class="node">
<title>21</title>
<path fill="none" stroke="#afd856" stroke-width="2" d="M985,-252C985,-252 925,-252 925,-252 919,-252 913,-246 913,-240 913,-240 913,-228 913,-228 913,-222 919,-216 925,-216 925,-216 985,-216 985,-216 991,-216 997,-222 997,-228 997,-228 997,-240 997,-240 997,-246 991,-252 985,-252"/>
<text text-anchor="middle" x="955" y="-231.5" font-family="sans" font-size="10.00" fill="#000000">low_complexity</text>
</g>
<!-- 19&#45;&gt;21 -->
<g id="edge33" class="edge">
<title>19&#45;&gt;21</title>
<path fill="none" stroke="#c0c0c0" stroke-width="2" d="M875.7483,-287.8314C889.0553,-278.7927 905.316,-267.7476 919.6375,-258.0198"/>
<polygon fill="#c0c0c0" stroke="#c0c0c0" stroke-width="2" points="921.9547,-260.677 928.2603,-252.1628 918.0215,-254.8864 921.9547,-260.677"/>
</g>
<!-- 20 -->
<g id="node21" class="node">
<title>20</title>
<path fill="none" stroke="#d8ac56" stroke-width="2" d="M996,-180C996,-180 914,-180 914,-180 908,-180 902,-174 902,-168 902,-168 902,-156 902,-156 902,-150 908,-144 914,-144 914,-144 996,-144 996,-144 1002,-144 1008,-150 1008,-156 1008,-156 1008,-168 1008,-168 1008,-174 1002,-180 996,-180"/>
<text text-anchor="middle" x="955" y="-165" font-family="sans" font-size="10.00" fill="#000000">fastqc</text>
<text text-anchor="middle" x="955" y="-154" font-family="sans" font-size="10.00" fill="#000000">tool: low_complexity</text>
</g>
<!-- 20&#45;&gt;1 -->
<g id="edge14" class="edge">
<title>20&#45;&gt;1</title>
<path fill="none" stroke="#c0c0c0" stroke-width="2" d="M901.7068,-145.9116C898.773,-145.2188 895.8569,-144.5749 893,-144 734.2056,-112.0431 541.0813,-97.2449 461.2652,-92.1579"/>
<polygon fill="#c0c0c0" stroke="#c0c0c0" stroke-width="2" points="461.4116,-88.6603 451.213,-91.5307 460.9756,-95.6467 461.4116,-88.6603"/>
</g>
<!-- 21&#45;&gt;0 -->
<g id="edge2" class="edge">
<title>21&#45;&gt;0</title>
<path fill="none" stroke="#c0c0c0" stroke-width="2" d="M985.4958,-215.7757C997.6822,-206.7056 1010.3772,-194.5508 1017,-180 1023.6281,-165.4374 1026.5676,-156.8243 1017,-144 969.7517,-80.6689 724.4863,-37.7372 630.0866,-23.3317"/>
<polygon fill="#c0c0c0" stroke="#c0c0c0" stroke-width="2" points="630.5342,-19.8597 620.1246,-21.8323 629.4923,-26.7818 630.5342,-19.8597"/>
</g>
<!-- 21&#45;&gt;20 -->
<g id="edge32" class="edge">
<title>21&#45;&gt;20</title>
<path fill="none" stroke="#c0c0c0" stroke-width="2" d="M955,-215.8314C955,-208.131 955,-198.9743 955,-190.4166"/>
<polygon fill="#c0c0c0" stroke="#c0c0c0" stroke-width="2" points="958.5001,-190.4132 955,-180.4133 951.5001,-190.4133 958.5001,-190.4132"/>
</g>
<!-- 22 -->
<g id="node23" class="node">
<title>22</title>
<path fill="none" stroke="#d8ac56" stroke-width="2" d="M642,-180C642,-180 560,-180 560,-180 554,-180 548,-174 548,-168 548,-168 548,-156 548,-156 548,-150 554,-144 560,-144 560,-144 642,-144 642,-144 648,-144 654,-150 654,-156 654,-156 654,-168 654,-168 654,-174 648,-180 642,-180"/>
<text text-anchor="middle" x="601" y="-165" font-family="sans" font-size="10.00" fill="#000000">fastqc</text>
<text text-anchor="middle" x="601" y="-154" font-family="sans" font-size="10.00" fill="#000000">tool: low_complexity</text>
</g>
<!-- 22&#45;&gt;1 -->
<g id="edge15" class="edge">
<title>22&#45;&gt;1</title>
<path fill="none" stroke="#c0c0c0" stroke-width="2" d="M556.3354,-143.8314C526.6536,-131.7574 488.1708,-116.1034 460.3621,-104.7913"/>
<polygon fill="#c0c0c0" stroke="#c0c0c0" stroke-width="2" points="461.5846,-101.5102 451.0029,-100.9842 458.947,-107.9943 461.5846,-101.5102"/>
</g>
<!-- 23&#45;&gt;0 -->
<g id="edge4" class="edge">
<title>23&#45;&gt;0</title>
<path fill="none" stroke="#c0c0c0" stroke-width="2" d="M652.2673,-229.1917C683.1063,-223.2256 722.8886,-209.8714 743,-180 751.9358,-166.7278 749.7581,-158.5027 743,-144 719.6264,-93.8405 665.3687,-56.542 628.9285,-36.019"/>
<polygon fill="#c0c0c0" stroke="#c0c0c0" stroke-width="2" points="630.5286,-32.9047 620.0775,-31.1651 627.1626,-39.0424 630.5286,-32.9047"/>
</g>
<!-- 23&#45;&gt;22 -->
<g id="edge34" class="edge">
<title>23&#45;&gt;22</title>
<path fill="none" stroke="#c0c0c0" stroke-width="2" d="M607.7289,-215.8314C606.7664,-208.131 605.6218,-198.9743 604.5521,-190.4166"/>
<polygon fill="#c0c0c0" stroke="#c0c0c0" stroke-width="2" points="608.0151,-189.9019 603.3017,-180.4133 601.0691,-190.7702 608.0151,-189.9019"/>
</g>
<!-- 24 -->
<g id="node25" class="node">
<title>24</title>
<path fill="none" stroke="#d8ac56" stroke-width="2" d="M114,-180C114,-180 32,-180 32,-180 26,-180 20,-174 20,-168 20,-168 20,-156 20,-156 20,-150 26,-144 32,-144 32,-144 114,-144 114,-144 120,-144 126,-150 126,-156 126,-156 126,-168 126,-168 126,-174 120,-180 114,-180"/>
<text text-anchor="middle" x="73" y="-165" font-family="sans" font-size="10.00" fill="#000000">fastqc</text>
<text text-anchor="middle" x="73" y="-154" font-family="sans" font-size="10.00" fill="#000000">tool: low_complexity</text>
</g>
<!-- 24&#45;&gt;1 -->
<g id="edge16" class="edge">
<title>24&#45;&gt;1</title>
<path fill="none" stroke="#c0c0c0" stroke-width="2" d="M126.304,-147.2953C130.9255,-146.1371 135.5387,-145.0219 140,-144 228.013,-123.8394 332.5804,-105.3461 386.9683,-96.1332"/>
<polygon fill="#c0c0c0" stroke="#c0c0c0" stroke-width="2" points="387.5615,-99.5827 396.8409,-94.4696 386.3983,-92.68 387.5615,-99.5827"/>
</g>
<!-- 25&#45;&gt;0 -->
<g id="edge3" class="edge">
<title>25&#45;&gt;0</title>
<path fill="none" stroke="#c0c0c0" stroke-width="2" d="M26.2736,-215.657C11.4918,-196.0978 -6.0165,-165.0947 11,-144 80.2387,-58.1674 438.2674,-27.8882 555.6694,-20.1801"/>
<polygon fill="#c0c0c0" stroke="#c0c0c0" stroke-width="2" points="556.1888,-23.6542 565.9451,-19.5232 555.7421,-16.6684 556.1888,-23.6542"/>
</g>
<!-- 25&#45;&gt;24 -->
<g id="edge36" class="edge">
<title>25&#45;&gt;24</title>
<path fill="none" stroke="#c0c0c0" stroke-width="2" d="M49.8226,-215.8314C53.2109,-207.9617 57.2541,-198.5712 61.0076,-189.8533"/>
<polygon fill="#c0c0c0" stroke="#c0c0c0" stroke-width="2" points="64.3321,-190.9822 65.0721,-180.4133 57.9027,-188.214 64.3321,-190.9822"/>
</g>
</g>
</svg>
