<?xml version="1.0" encoding="UTF-8" standalone="no"?>
<!DOCTYPE svg PUBLIC "-//W3C//DTD SVG 1.1//EN"
 "http://www.w3.org/Graphics/SVG/1.1/DTD/svg11.dtd">
<!-- Generated by graphviz version 2.40.1 (0)
 -->
<!-- Title: snakemake_dag Pages: 1 -->
<svg width="1324pt" height="420pt"
 viewBox="0.00 0.00 1323.74 420.00" xmlns="http://www.w3.org/2000/svg" xmlns:xlink="http://www.w3.org/1999/xlink">
<g id="graph0" class="graph" transform="scale(1 1) rotate(0) translate(4 416)">
<title>snakemake_dag</title>
<polygon fill="#ffffff" stroke="transparent" points="-4,4 -4,-416 1319.7423,-416 1319.7423,4 -4,4"/>
<!-- 0 -->
<g id="node1" class="node">
<title>0</title>
<path fill="none" stroke="#d85656" stroke-width="2" d="M915.7423,-36C915.7423,-36 885.7423,-36 885.7423,-36 879.7423,-36 873.7423,-30 873.7423,-24 873.7423,-24 873.7423,-12 873.7423,-12 873.7423,-6 879.7423,0 885.7423,0 885.7423,0 915.7423,0 915.7423,0 921.7423,0 927.7423,-6 927.7423,-12 927.7423,-12 927.7423,-24 927.7423,-24 927.7423,-30 921.7423,-36 915.7423,-36"/>
<text text-anchor="middle" x="900.7423" y="-15.5" font-family="sans" font-size="10.00" fill="#000000">all</text>
</g>
<!-- 1 -->
<g id="node2" class="node">
<title>1</title>
<path fill="none" stroke="#59d856" stroke-width="2" d="M657.7423,-108C657.7423,-108 627.7423,-108 627.7423,-108 621.7423,-108 615.7423,-102 615.7423,-96 615.7423,-96 615.7423,-84 615.7423,-84 615.7423,-78 621.7423,-72 627.7423,-72 627.7423,-72 657.7423,-72 657.7423,-72 663.7423,-72 669.7423,-78 669.7423,-84 669.7423,-84 669.7423,-96 669.7423,-96 669.7423,-102 663.7423,-108 657.7423,-108"/>
<text text-anchor="middle" x="642.7423" y="-87.5" font-family="sans" font-size="10.00" fill="#000000">multiqc</text>
</g>
<!-- 1&#45;&gt;0 -->
<g id="edge1" class="edge">
<title>1&#45;&gt;0</title>
<path fill="none" stroke="#c0c0c0" stroke-width="2" d="M669.8652,-82.4308C716.3193,-69.4669 811.1658,-42.9981 863.6834,-28.342"/>
<polygon fill="#c0c0c0" stroke="#c0c0c0" stroke-width="2" points="864.9046,-31.635 873.5957,-25.5758 863.0229,-24.8927 864.9046,-31.635"/>
</g>
<!-- 2 -->
<g id="node3" class="node">
<title>2</title>
<path fill="none" stroke="#d8ac56" stroke-width="2" d="M397.7423,-180C397.7423,-180 327.7423,-180 327.7423,-180 321.7423,-180 315.7423,-174 315.7423,-168 315.7423,-168 315.7423,-156 315.7423,-156 315.7423,-150 321.7423,-144 327.7423,-144 327.7423,-144 397.7423,-144 397.7423,-144 403.7423,-144 409.7423,-150 409.7423,-156 409.7423,-156 409.7423,-168 409.7423,-168 409.7423,-174 403.7423,-180 397.7423,-180"/>
<text text-anchor="middle" x="362.7423" y="-165" font-family="sans" font-size="10.00" fill="#000000">fastqc</text>
<text text-anchor="middle" x="362.7423" y="-154" font-family="sans" font-size="10.00" fill="#000000">tool: merge_lanes</text>
</g>
<!-- 2&#45;&gt;1 -->
<g id="edge5" class="edge">
<title>2&#45;&gt;1</title>
<path fill="none" stroke="#c0c0c0" stroke-width="2" d="M410.0238,-146.5293C412.9672,-145.651 415.8911,-144.8007 418.7423,-144 484.1281,-125.6377 561.3066,-107.8806 605.8786,-98.002"/>
<polygon fill="#c0c0c0" stroke="#c0c0c0" stroke-width="2" points="606.6684,-101.4121 615.6799,-95.8404 605.1608,-94.5763 606.6684,-101.4121"/>
</g>
<!-- 3 -->
<g id="node4" class="node">
<title>3</title>
<path fill="none" stroke="#80d856" stroke-width="2" d="M383.7423,-412C383.7423,-412 279.7423,-412 279.7423,-412 273.7423,-412 267.7423,-406 267.7423,-400 267.7423,-400 267.7423,-372 267.7423,-372 267.7423,-366 273.7423,-360 279.7423,-360 279.7423,-360 383.7423,-360 383.7423,-360 389.7423,-360 395.7423,-366 395.7423,-372 395.7423,-372 395.7423,-400 395.7423,-400 395.7423,-406 389.7423,-412 383.7423,-412"/>
<text text-anchor="middle" x="331.7423" y="-400" font-family="sans" font-size="10.00" fill="#000000">merge_lanes</text>
<text text-anchor="middle" x="331.7423" y="-389" font-family="sans" font-size="10.00" fill="#000000">library: lib1</text>
<text text-anchor="middle" x="331.7423" y="-378" font-family="sans" font-size="10.00" fill="#000000">read_type_trim: collapsed</text>
<text text-anchor="middle" x="331.7423" y="-367" font-family="sans" font-size="10.00" fill="#000000">sample: HD827sonic_1</text>
</g>
<!-- 3&#45;&gt;2 -->
<g id="edge20" class="edge">
<title>3&#45;&gt;2</title>
<path fill="none" stroke="#c0c0c0" stroke-width="2" d="M335.3591,-359.866C341.2316,-317.4324 352.7915,-233.9025 358.8417,-190.185"/>
<polygon fill="#c0c0c0" stroke="#c0c0c0" stroke-width="2" points="362.3156,-190.6139 360.2196,-180.2285 355.3817,-189.6542 362.3156,-190.6139"/>
</g>
<!-- 13 -->
<g id="node14" class="node">
<title>13</title>
<path fill="none" stroke="#56d882" stroke-width="2" d="M441.7423,-324C441.7423,-324 371.7423,-324 371.7423,-324 365.7423,-324 359.7423,-318 359.7423,-312 359.7423,-312 359.7423,-300 359.7423,-300 359.7423,-294 365.7423,-288 371.7423,-288 371.7423,-288 441.7423,-288 441.7423,-288 447.7423,-288 453.7423,-294 453.7423,-300 453.7423,-300 453.7423,-312 453.7423,-312 453.7423,-318 447.7423,-324 441.7423,-324"/>
<text text-anchor="middle" x="406.7423" y="-309" font-family="sans" font-size="10.00" fill="#000000">nonpareil_infer</text>
<text text-anchor="middle" x="406.7423" y="-298" font-family="sans" font-size="10.00" fill="#000000">tool: merge_lanes</text>
</g>
<!-- 3&#45;&gt;13 -->
<g id="edge28" class="edge">
<title>3&#45;&gt;13</title>
<path fill="none" stroke="#c0c0c0" stroke-width="2" d="M356.3001,-359.805C364.7589,-350.7823 374.219,-340.6915 382.641,-331.7081"/>
<polygon fill="#c0c0c0" stroke="#c0c0c0" stroke-width="2" points="385.4376,-333.8424 389.7237,-324.1532 380.3308,-329.0548 385.4376,-333.8424"/>
</g>
<!-- 17 -->
<g id="node18" class="node">
<title>17</title>
<path fill="none" stroke="#5682d8" stroke-width="2" d="M237.7423,-324C237.7423,-324 207.7423,-324 207.7423,-324 201.7423,-324 195.7423,-318 195.7423,-312 195.7423,-312 195.7423,-300 195.7423,-300 195.7423,-294 201.7423,-288 207.7423,-288 207.7423,-288 237.7423,-288 237.7423,-288 243.7423,-288 249.7423,-294 249.7423,-300 249.7423,-300 249.7423,-312 249.7423,-312 249.7423,-318 243.7423,-324 237.7423,-324"/>
<text text-anchor="middle" x="222.7423" y="-303.5" font-family="sans" font-size="10.00" fill="#000000">vsearch</text>
</g>
<!-- 3&#45;&gt;17 -->
<g id="edge32" class="edge">
<title>3&#45;&gt;17</title>
<path fill="none" stroke="#c0c0c0" stroke-width="2" d="M296.0516,-359.805C283.0132,-350.2355 268.3376,-339.4645 255.5614,-330.0874"/>
<polygon fill="#c0c0c0" stroke="#c0c0c0" stroke-width="2" points="257.6087,-327.2485 247.4761,-324.1532 253.4669,-332.8917 257.6087,-327.2485"/>
</g>
<!-- 4 -->
<g id="node5" class="node">
<title>4</title>
<path fill="none" stroke="#d8ac56" stroke-width="2" d="M1191.7423,-324C1191.7423,-324 1121.7423,-324 1121.7423,-324 1115.7423,-324 1109.7423,-318 1109.7423,-312 1109.7423,-312 1109.7423,-300 1109.7423,-300 1109.7423,-294 1115.7423,-288 1121.7423,-288 1121.7423,-288 1191.7423,-288 1191.7423,-288 1197.7423,-288 1203.7423,-294 1203.7423,-300 1203.7423,-300 1203.7423,-312 1203.7423,-312 1203.7423,-318 1197.7423,-324 1191.7423,-324"/>
<text text-anchor="middle" x="1156.7423" y="-309" font-family="sans" font-size="10.00" fill="#000000">fastqc</text>
<text text-anchor="middle" x="1156.7423" y="-298" font-family="sans" font-size="10.00" fill="#000000">tool: merge_lanes</text>
</g>
<!-- 4&#45;&gt;1 -->
<g id="edge6" class="edge">
<title>4&#45;&gt;1</title>
<path fill="none" stroke="#c0c0c0" stroke-width="2" d="M1169.1008,-287.9543C1180.1377,-269.4498 1193.0888,-240.0542 1182.7423,-216 1164.3574,-173.2574 1148.8964,-163.6971 1106.7423,-144 1030.9659,-108.5924 776.0693,-95.1858 679.893,-91.3132"/>
<polygon fill="#c0c0c0" stroke="#c0c0c0" stroke-width="2" points="679.8929,-87.8106 669.7638,-90.9172 679.6194,-94.8053 679.8929,-87.8106"/>
</g>
<!-- 5 -->
<g id="node6" class="node">
<title>5</title>
<path fill="none" stroke="#80d856" stroke-width="2" d="M1208.7423,-412C1208.7423,-412 1104.7423,-412 1104.7423,-412 1098.7423,-412 1092.7423,-406 1092.7423,-400 1092.7423,-400 1092.7423,-372 1092.7423,-372 1092.7423,-366 1098.7423,-360 1104.7423,-360 1104.7423,-360 1208.7423,-360 1208.7423,-360 1214.7423,-360 1220.7423,-366 1220.7423,-372 1220.7423,-372 1220.7423,-400 1220.7423,-400 1220.7423,-406 1214.7423,-412 1208.7423,-412"/>
<text text-anchor="middle" x="1156.7423" y="-400" font-family="sans" font-size="10.00" fill="#000000">merge_lanes</text>
<text text-anchor="middle" x="1156.7423" y="-389" font-family="sans" font-size="10.00" fill="#000000">library: lib1</text>
<text text-anchor="middle" x="1156.7423" y="-378" font-family="sans" font-size="10.00" fill="#000000">read_type_trim: collapsed</text>
<text text-anchor="middle" x="1156.7423" y="-367" font-family="sans" font-size="10.00" fill="#000000">sample: HD827sonic_2</text>
</g>
<!-- 5&#45;&gt;4 -->
<g id="edge21" class="edge">
<title>5&#45;&gt;4</title>
<path fill="none" stroke="#c0c0c0" stroke-width="2" d="M1156.7423,-359.805C1156.7423,-351.6026 1156.7423,-342.5174 1156.7423,-334.1839"/>
<polygon fill="#c0c0c0" stroke="#c0c0c0" stroke-width="2" points="1160.2424,-334.1532 1156.7423,-324.1532 1153.2424,-334.1533 1160.2424,-334.1532"/>
</g>
<!-- 11 -->
<g id="node12" class="node">
<title>11</title>
<path fill="none" stroke="#56d882" stroke-width="2" d="M1303.7423,-324C1303.7423,-324 1233.7423,-324 1233.7423,-324 1227.7423,-324 1221.7423,-318 1221.7423,-312 1221.7423,-312 1221.7423,-300 1221.7423,-300 1221.7423,-294 1227.7423,-288 1233.7423,-288 1233.7423,-288 1303.7423,-288 1303.7423,-288 1309.7423,-288 1315.7423,-294 1315.7423,-300 1315.7423,-300 1315.7423,-312 1315.7423,-312 1315.7423,-318 1309.7423,-324 1303.7423,-324"/>
<text text-anchor="middle" x="1268.7423" y="-309" font-family="sans" font-size="10.00" fill="#000000">nonpareil_infer</text>
<text text-anchor="middle" x="1268.7423" y="-298" font-family="sans" font-size="10.00" fill="#000000">tool: merge_lanes</text>
</g>
<!-- 5&#45;&gt;11 -->
<g id="edge26" class="edge">
<title>5&#45;&gt;11</title>
<path fill="none" stroke="#c0c0c0" stroke-width="2" d="M1193.4153,-359.805C1206.8126,-350.2355 1221.8921,-339.4645 1235.02,-330.0874"/>
<polygon fill="#c0c0c0" stroke="#c0c0c0" stroke-width="2" points="1237.2248,-332.8137 1243.3278,-324.1532 1233.1561,-327.1176 1237.2248,-332.8137"/>
</g>
<!-- 15 -->
<g id="node16" class="node">
<title>15</title>
<path fill="none" stroke="#5682d8" stroke-width="2" d="M1062.7423,-324C1062.7423,-324 1032.7423,-324 1032.7423,-324 1026.7423,-324 1020.7423,-318 1020.7423,-312 1020.7423,-312 1020.7423,-300 1020.7423,-300 1020.7423,-294 1026.7423,-288 1032.7423,-288 1032.7423,-288 1062.7423,-288 1062.7423,-288 1068.7423,-288 1074.7423,-294 1074.7423,-300 1074.7423,-300 1074.7423,-312 1074.7423,-312 1074.7423,-318 1068.7423,-324 1062.7423,-324"/>
<text text-anchor="middle" x="1047.7423" y="-303.5" font-family="sans" font-size="10.00" fill="#000000">vsearch</text>
</g>
<!-- 5&#45;&gt;15 -->
<g id="edge30" class="edge">
<title>5&#45;&gt;15</title>
<path fill="none" stroke="#c0c0c0" stroke-width="2" d="M1121.0516,-359.805C1108.0132,-350.2355 1093.3376,-339.4645 1080.5614,-330.0874"/>
<polygon fill="#c0c0c0" stroke="#c0c0c0" stroke-width="2" points="1082.6087,-327.2485 1072.4761,-324.1532 1078.4669,-332.8917 1082.6087,-327.2485"/>
</g>
<!-- 6 -->
<g id="node7" class="node">
<title>6</title>
<path fill="none" stroke="#d8ac56" stroke-width="2" d="M553.7423,-324C553.7423,-324 483.7423,-324 483.7423,-324 477.7423,-324 471.7423,-318 471.7423,-312 471.7423,-312 471.7423,-300 471.7423,-300 471.7423,-294 477.7423,-288 483.7423,-288 483.7423,-288 553.7423,-288 553.7423,-288 559.7423,-288 565.7423,-294 565.7423,-300 565.7423,-300 565.7423,-312 565.7423,-312 565.7423,-318 559.7423,-324 553.7423,-324"/>
<text text-anchor="middle" x="518.7423" y="-309" font-family="sans" font-size="10.00" fill="#000000">fastqc</text>
<text text-anchor="middle" x="518.7423" y="-298" font-family="sans" font-size="10.00" fill="#000000">tool: merge_lanes</text>
</g>
<!-- 6&#45;&gt;1 -->
<g id="edge7" class="edge">
<title>6&#45;&gt;1</title>
<path fill="none" stroke="#c0c0c0" stroke-width="2" d="M517.0288,-287.9086C515.9908,-269.1083 516.4643,-239.2411 526.7423,-216 545.1305,-174.4199 582.9361,-137.5594 610.4035,-114.6144"/>
<polygon fill="#c0c0c0" stroke="#c0c0c0" stroke-width="2" points="612.6798,-117.2743 618.2067,-108.2352 608.2493,-111.8547 612.6798,-117.2743"/>
</g>
<!-- 7 -->
<g id="node8" class="node">
<title>7</title>
<path fill="none" stroke="#80d856" stroke-width="2" d="M682.7423,-412C682.7423,-412 578.7423,-412 578.7423,-412 572.7423,-412 566.7423,-406 566.7423,-400 566.7423,-400 566.7423,-372 566.7423,-372 566.7423,-366 572.7423,-360 578.7423,-360 578.7423,-360 682.7423,-360 682.7423,-360 688.7423,-360 694.7423,-366 694.7423,-372 694.7423,-372 694.7423,-400 694.7423,-400 694.7423,-406 688.7423,-412 682.7423,-412"/>
<text text-anchor="middle" x="630.7423" y="-400" font-family="sans" font-size="10.00" fill="#000000">merge_lanes</text>
<text text-anchor="middle" x="630.7423" y="-389" font-family="sans" font-size="10.00" fill="#000000">library: lib2</text>
<text text-anchor="middle" x="630.7423" y="-378" font-family="sans" font-size="10.00" fill="#000000">read_type_trim: collapsed</text>
<text text-anchor="middle" x="630.7423" y="-367" font-family="sans" font-size="10.00" fill="#000000">sample: HD827sonic_2</text>
</g>
<!-- 7&#45;&gt;6 -->
<g id="edge22" class="edge">
<title>7&#45;&gt;6</title>
<path fill="none" stroke="#c0c0c0" stroke-width="2" d="M594.0693,-359.805C580.672,-350.2355 565.5926,-339.4645 552.4647,-330.0874"/>
<polygon fill="#c0c0c0" stroke="#c0c0c0" stroke-width="2" points="554.3286,-327.1176 544.1569,-324.1532 550.2599,-332.8137 554.3286,-327.1176"/>
</g>
<!-- 9 -->
<g id="node10" class="node">
<title>9</title>
<path fill="none" stroke="#56d882" stroke-width="2" d="M665.7423,-324C665.7423,-324 595.7423,-324 595.7423,-324 589.7423,-324 583.7423,-318 583.7423,-312 583.7423,-312 583.7423,-300 583.7423,-300 583.7423,-294 589.7423,-288 595.7423,-288 595.7423,-288 665.7423,-288 665.7423,-288 671.7423,-288 677.7423,-294 677.7423,-300 677.7423,-300 677.7423,-312 677.7423,-312 677.7423,-318 671.7423,-324 665.7423,-324"/>
<text text-anchor="middle" x="630.7423" y="-309" font-family="sans" font-size="10.00" fill="#000000">nonpareil_infer</text>
<text text-anchor="middle" x="630.7423" y="-298" font-family="sans" font-size="10.00" fill="#000000">tool: merge_lanes</text>
</g>
<!-- 7&#45;&gt;9 -->
<g id="edge24" class="edge">
<title>7&#45;&gt;9</title>
<path fill="none" stroke="#c0c0c0" stroke-width="2" d="M630.7423,-359.805C630.7423,-351.6026 630.7423,-342.5174 630.7423,-334.1839"/>
<polygon fill="#c0c0c0" stroke="#c0c0c0" stroke-width="2" points="634.2424,-334.1532 630.7423,-324.1532 627.2424,-334.1533 634.2424,-334.1532"/>
</g>
<!-- 19 -->
<g id="node20" class="node">
<title>19</title>
<path fill="none" stroke="#5682d8" stroke-width="2" d="M756.7423,-324C756.7423,-324 726.7423,-324 726.7423,-324 720.7423,-324 714.7423,-318 714.7423,-312 714.7423,-312 714.7423,-300 714.7423,-300 714.7423,-294 720.7423,-288 726.7423,-288 726.7423,-288 756.7423,-288 756.7423,-288 762.7423,-288 768.7423,-294 768.7423,-300 768.7423,-300 768.7423,-312 768.7423,-312 768.7423,-318 762.7423,-324 756.7423,-324"/>
<text text-anchor="middle" x="741.7423" y="-303.5" font-family="sans" font-size="10.00" fill="#000000">vsearch</text>
</g>
<!-- 7&#45;&gt;19 -->
<g id="edge34" class="edge">
<title>7&#45;&gt;19</title>
<path fill="none" stroke="#c0c0c0" stroke-width="2" d="M667.0879,-359.805C680.3656,-350.2355 695.3104,-339.4645 708.3211,-330.0874"/>
<polygon fill="#c0c0c0" stroke="#c0c0c0" stroke-width="2" points="710.4885,-332.8396 716.5547,-324.1532 706.3957,-327.1608 710.4885,-332.8396"/>
</g>
<!-- 8 -->
<g id="node9" class="node">
<title>8</title>
<path fill="none" stroke="#56d8a9" stroke-width="2" d="M601.2423,-252C601.2423,-252 548.2423,-252 548.2423,-252 542.2423,-252 536.2423,-246 536.2423,-240 536.2423,-240 536.2423,-228 536.2423,-228 536.2423,-222 542.2423,-216 548.2423,-216 548.2423,-216 601.2423,-216 601.2423,-216 607.2423,-216 613.2423,-222 613.2423,-228 613.2423,-228 613.2423,-240 613.2423,-240 613.2423,-246 607.2423,-252 601.2423,-252"/>
<text text-anchor="middle" x="574.7423" y="-231.5" font-family="sans" font-size="10.00" fill="#000000">nonpareil_plot</text>
</g>
<!-- 8&#45;&gt;1 -->
<g id="edge8" class="edge">
<title>8&#45;&gt;1</title>
<path fill="none" stroke="#c0c0c0" stroke-width="2" d="M583.3546,-215.7623C595.1062,-190.8764 616.259,-146.0822 629.8901,-117.2165"/>
<polygon fill="#c0c0c0" stroke="#c0c0c0" stroke-width="2" points="633.0948,-118.6267 634.2,-108.0896 626.765,-115.6376 633.0948,-118.6267"/>
</g>
<!-- 9&#45;&gt;8 -->
<g id="edge23" class="edge">
<title>9&#45;&gt;8</title>
<path fill="none" stroke="#c0c0c0" stroke-width="2" d="M616.6112,-287.8314C610.1612,-279.5386 602.3978,-269.557 595.3171,-260.4533"/>
<polygon fill="#c0c0c0" stroke="#c0c0c0" stroke-width="2" points="597.9659,-258.158 589.0637,-252.4133 592.4405,-262.4556 597.9659,-258.158"/>
</g>
<!-- 10 -->
<g id="node11" class="node">
<title>10</title>
<path fill="none" stroke="#56d8a9" stroke-width="2" d="M1295.2423,-180C1295.2423,-180 1242.2423,-180 1242.2423,-180 1236.2423,-180 1230.2423,-174 1230.2423,-168 1230.2423,-168 1230.2423,-156 1230.2423,-156 1230.2423,-150 1236.2423,-144 1242.2423,-144 1242.2423,-144 1295.2423,-144 1295.2423,-144 1301.2423,-144 1307.2423,-150 1307.2423,-156 1307.2423,-156 1307.2423,-168 1307.2423,-168 1307.2423,-174 1301.2423,-180 1295.2423,-180"/>
<text text-anchor="middle" x="1268.7423" y="-159.5" font-family="sans" font-size="10.00" fill="#000000">nonpareil_plot</text>
</g>
<!-- 10&#45;&gt;1 -->
<g id="edge9" class="edge">
<title>10&#45;&gt;1</title>
<path fill="none" stroke="#c0c0c0" stroke-width="2" d="M1229.9574,-147.6791C1225.2142,-146.2698 1220.3986,-144.9958 1215.7423,-144 1016.9552,-101.4883 772.24,-92.4411 680.141,-90.5181"/>
<polygon fill="#c0c0c0" stroke="#c0c0c0" stroke-width="2" points="679.997,-87.0148 669.9315,-90.3216 679.8622,-94.0135 679.997,-87.0148"/>
</g>
<!-- 11&#45;&gt;10 -->
<g id="edge25" class="edge">
<title>11&#45;&gt;10</title>
<path fill="none" stroke="#c0c0c0" stroke-width="2" d="M1268.7423,-287.7623C1268.7423,-263.201 1268.7423,-219.2474 1268.7423,-190.3541"/>
<polygon fill="#c0c0c0" stroke="#c0c0c0" stroke-width="2" points="1272.2424,-190.0896 1268.7423,-180.0896 1265.2424,-190.0897 1272.2424,-190.0896"/>
</g>
<!-- 12 -->
<g id="node13" class="node">
<title>12</title>
<path fill="none" stroke="#56d8a9" stroke-width="2" d="M493.2423,-180C493.2423,-180 440.2423,-180 440.2423,-180 434.2423,-180 428.2423,-174 428.2423,-168 428.2423,-168 428.2423,-156 428.2423,-156 428.2423,-150 434.2423,-144 440.2423,-144 440.2423,-144 493.2423,-144 493.2423,-144 499.2423,-144 505.2423,-150 505.2423,-156 505.2423,-156 505.2423,-168 505.2423,-168 505.2423,-174 499.2423,-180 493.2423,-180"/>
<text text-anchor="middle" x="466.7423" y="-159.5" font-family="sans" font-size="10.00" fill="#000000">nonpareil_plot</text>
</g>
<!-- 12&#45;&gt;1 -->
<g id="edge10" class="edge">
<title>12&#45;&gt;1</title>
<path fill="none" stroke="#c0c0c0" stroke-width="2" d="M505.3663,-146.1993C535.3671,-133.9262 576.6881,-117.0222 606.1589,-104.9659"/>
<polygon fill="#c0c0c0" stroke="#c0c0c0" stroke-width="2" points="607.7353,-108.1027 615.6656,-101.0768 605.0849,-101.6238 607.7353,-108.1027"/>
</g>
<!-- 13&#45;&gt;12 -->
<g id="edge27" class="edge">
<title>13&#45;&gt;12</title>
<path fill="none" stroke="#c0c0c0" stroke-width="2" d="M414.3414,-287.7623C424.6654,-262.9846 443.2126,-218.4714 455.2449,-189.5939"/>
<polygon fill="#c0c0c0" stroke="#c0c0c0" stroke-width="2" points="458.5895,-190.6666 459.205,-180.0896 452.128,-187.9742 458.5895,-190.6666"/>
</g>
<!-- 14 -->
<g id="node15" class="node">
<title>14</title>
<path fill="none" stroke="#d8ac56" stroke-width="2" d="M859.7423,-252C859.7423,-252 821.7423,-252 821.7423,-252 815.7423,-252 809.7423,-246 809.7423,-240 809.7423,-240 809.7423,-228 809.7423,-228 809.7423,-222 815.7423,-216 821.7423,-216 821.7423,-216 859.7423,-216 859.7423,-216 865.7423,-216 871.7423,-222 871.7423,-228 871.7423,-228 871.7423,-240 871.7423,-240 871.7423,-246 865.7423,-252 859.7423,-252"/>
<text text-anchor="middle" x="840.7423" y="-237" font-family="sans" font-size="10.00" fill="#000000">fastqc</text>
<text text-anchor="middle" x="840.7423" y="-226" font-family="sans" font-size="10.00" fill="#000000">tool: derep</text>
</g>
<!-- 14&#45;&gt;1 -->
<g id="edge11" class="edge">
<title>14&#45;&gt;1</title>
<path fill="none" stroke="#c0c0c0" stroke-width="2" d="M812.1933,-215.7585C797.0903,-205.7339 778.4696,-192.7692 762.7423,-180 744.6812,-165.336 742.9722,-158.4536 724.7423,-144 710.2521,-132.5115 693.3174,-121.0626 678.6121,-111.6829"/>
<polygon fill="#c0c0c0" stroke="#c0c0c0" stroke-width="2" points="680.1136,-108.4924 669.7859,-106.1282 676.3851,-114.4168 680.1136,-108.4924"/>
</g>
<!-- 15&#45;&gt;14 -->
<g id="edge29" class="edge">
<title>15&#45;&gt;14</title>
<path fill="none" stroke="#c0c0c0" stroke-width="2" d="M1020.5237,-298.2042C989.0242,-288.9655 935.4889,-272.598 881.4304,-252.0816"/>
<polygon fill="#c0c0c0" stroke="#c0c0c0" stroke-width="2" points="882.6374,-248.7959 872.0473,-248.4798 880.1288,-255.331 882.6374,-248.7959"/>
</g>
<!-- 23 -->
<g id="node24" class="node">
<title>23</title>
<path fill="none" stroke="#56d882" stroke-width="2" d="M1059.7423,-252C1059.7423,-252 1003.7423,-252 1003.7423,-252 997.7423,-252 991.7423,-246 991.7423,-240 991.7423,-240 991.7423,-228 991.7423,-228 991.7423,-222 997.7423,-216 1003.7423,-216 1003.7423,-216 1059.7423,-216 1059.7423,-216 1065.7423,-216 1071.7423,-222 1071.7423,-228 1071.7423,-228 1071.7423,-240 1071.7423,-240 1071.7423,-246 1065.7423,-252 1059.7423,-252"/>
<text text-anchor="middle" x="1031.7423" y="-237" font-family="sans" font-size="10.00" fill="#000000">nonpareil_infer</text>
<text text-anchor="middle" x="1031.7423" y="-226" font-family="sans" font-size="10.00" fill="#000000">tool: derep</text>
</g>
<!-- 15&#45;&gt;23 -->
<g id="edge38" class="edge">
<title>15&#45;&gt;23</title>
<path fill="none" stroke="#c0c0c0" stroke-width="2" d="M1043.7048,-287.8314C1041.9936,-280.131 1039.9588,-270.9743 1038.0571,-262.4166"/>
<polygon fill="#c0c0c0" stroke="#c0c0c0" stroke-width="2" points="1041.4202,-261.4159 1035.8342,-252.4133 1034.5869,-262.9344 1041.4202,-261.4159"/>
</g>
<!-- 31 -->
<g id="node32" class="node">
<title>31</title>
<path fill="none" stroke="#afd856" stroke-width="2" d="M1161.7423,-252C1161.7423,-252 1101.7423,-252 1101.7423,-252 1095.7423,-252 1089.7423,-246 1089.7423,-240 1089.7423,-240 1089.7423,-228 1089.7423,-228 1089.7423,-222 1095.7423,-216 1101.7423,-216 1101.7423,-216 1161.7423,-216 1161.7423,-216 1167.7423,-216 1173.7423,-222 1173.7423,-228 1173.7423,-228 1173.7423,-240 1173.7423,-240 1173.7423,-246 1167.7423,-252 1161.7423,-252"/>
<text text-anchor="middle" x="1131.7423" y="-231.5" font-family="sans" font-size="10.00" fill="#000000">low_complexity</text>
</g>
<!-- 15&#45;&gt;31 -->
<g id="edge46" class="edge">
<title>15&#45;&gt;31</title>
<path fill="none" stroke="#c0c0c0" stroke-width="2" d="M1068.9391,-287.8314C1079.1858,-279.0485 1091.6426,-268.3712 1102.752,-258.8489"/>
<polygon fill="#c0c0c0" stroke="#c0c0c0" stroke-width="2" points="1105.2375,-261.3282 1110.5524,-252.1628 1100.682,-256.0134 1105.2375,-261.3282"/>
</g>
<!-- 16 -->
<g id="node17" class="node">
<title>16</title>
<path fill="none" stroke="#d8ac56" stroke-width="2" d="M285.7423,-180C285.7423,-180 247.7423,-180 247.7423,-180 241.7423,-180 235.7423,-174 235.7423,-168 235.7423,-168 235.7423,-156 235.7423,-156 235.7423,-150 241.7423,-144 247.7423,-144 247.7423,-144 285.7423,-144 285.7423,-144 291.7423,-144 297.7423,-150 297.7423,-156 297.7423,-156 297.7423,-168 297.7423,-168 297.7423,-174 291.7423,-180 285.7423,-180"/>
<text text-anchor="middle" x="266.7423" y="-165" font-family="sans" font-size="10.00" fill="#000000">fastqc</text>
<text text-anchor="middle" x="266.7423" y="-154" font-family="sans" font-size="10.00" fill="#000000">tool: derep</text>
</g>
<!-- 16&#45;&gt;1 -->
<g id="edge12" class="edge">
<title>16&#45;&gt;1</title>
<path fill="none" stroke="#c0c0c0" stroke-width="2" d="M297.8859,-147.0482C300.8418,-145.9147 303.8244,-144.8742 306.7423,-144 412.407,-112.3414 542.6586,-98.1387 605.4352,-92.7692"/>
<polygon fill="#c0c0c0" stroke="#c0c0c0" stroke-width="2" points="605.9581,-96.2379 615.635,-91.9243 605.3801,-89.2618 605.9581,-96.2379"/>
</g>
<!-- 17&#45;&gt;16 -->
<g id="edge31" class="edge">
<title>17&#45;&gt;16</title>
<path fill="none" stroke="#c0c0c0" stroke-width="2" d="M228.3149,-287.7623C235.8528,-263.0928 249.3685,-218.8598 258.195,-189.9731"/>
<polygon fill="#c0c0c0" stroke="#c0c0c0" stroke-width="2" points="261.6399,-190.6759 261.2149,-180.0896 254.9454,-188.6303 261.6399,-190.6759"/>
</g>
<!-- 21 -->
<g id="node22" class="node">
<title>21</title>
<path fill="none" stroke="#56d882" stroke-width="2" d="M211.7423,-252C211.7423,-252 155.7423,-252 155.7423,-252 149.7423,-252 143.7423,-246 143.7423,-240 143.7423,-240 143.7423,-228 143.7423,-228 143.7423,-222 149.7423,-216 155.7423,-216 155.7423,-216 211.7423,-216 211.7423,-216 217.7423,-216 223.7423,-222 223.7423,-228 223.7423,-228 223.7423,-240 223.7423,-240 223.7423,-246 217.7423,-252 211.7423,-252"/>
<text text-anchor="middle" x="183.7423" y="-237" font-family="sans" font-size="10.00" fill="#000000">nonpareil_infer</text>
<text text-anchor="middle" x="183.7423" y="-226" font-family="sans" font-size="10.00" fill="#000000">tool: derep</text>
</g>
<!-- 17&#45;&gt;21 -->
<g id="edge36" class="edge">
<title>17&#45;&gt;21</title>
<path fill="none" stroke="#c0c0c0" stroke-width="2" d="M212.901,-287.8314C208.5466,-279.7925 203.3325,-270.1666 198.5254,-261.2918"/>
<polygon fill="#c0c0c0" stroke="#c0c0c0" stroke-width="2" points="201.5566,-259.5392 193.7162,-252.4133 195.4015,-262.8732 201.5566,-259.5392"/>
</g>
<!-- 27 -->
<g id="node28" class="node">
<title>27</title>
<path fill="none" stroke="#afd856" stroke-width="2" d="M98.7423,-252C98.7423,-252 38.7423,-252 38.7423,-252 32.7423,-252 26.7423,-246 26.7423,-240 26.7423,-240 26.7423,-228 26.7423,-228 26.7423,-222 32.7423,-216 38.7423,-216 38.7423,-216 98.7423,-216 98.7423,-216 104.7423,-216 110.7423,-222 110.7423,-228 110.7423,-228 110.7423,-240 110.7423,-240 110.7423,-246 104.7423,-252 98.7423,-252"/>
<text text-anchor="middle" x="68.7423" y="-231.5" font-family="sans" font-size="10.00" fill="#000000">low_complexity</text>
</g>
<!-- 17&#45;&gt;27 -->
<g id="edge42" class="edge">
<title>17&#45;&gt;27</title>
<path fill="none" stroke="#c0c0c0" stroke-width="2" d="M195.5647,-293.2936C173.8009,-283.1183 142.7308,-268.592 116.7913,-256.4645"/>
<polygon fill="#c0c0c0" stroke="#c0c0c0" stroke-width="2" points="118.0347,-253.1822 107.4935,-252.1174 115.07,-259.5234 118.0347,-253.1822"/>
</g>
<!-- 18 -->
<g id="node19" class="node">
<title>18</title>
<path fill="none" stroke="#d8ac56" stroke-width="2" d="M681.7423,-252C681.7423,-252 643.7423,-252 643.7423,-252 637.7423,-252 631.7423,-246 631.7423,-240 631.7423,-240 631.7423,-228 631.7423,-228 631.7423,-222 637.7423,-216 643.7423,-216 643.7423,-216 681.7423,-216 681.7423,-216 687.7423,-216 693.7423,-222 693.7423,-228 693.7423,-228 693.7423,-240 693.7423,-240 693.7423,-246 687.7423,-252 681.7423,-252"/>
<text text-anchor="middle" x="662.7423" y="-237" font-family="sans" font-size="10.00" fill="#000000">fastqc</text>
<text text-anchor="middle" x="662.7423" y="-226" font-family="sans" font-size="10.00" fill="#000000">tool: derep</text>
</g>
<!-- 18&#45;&gt;1 -->
<g id="edge13" class="edge">
<title>18&#45;&gt;1</title>
<path fill="none" stroke="#c0c0c0" stroke-width="2" d="M648.0671,-215.7088C641.0377,-205.772 633.3728,-192.9031 629.7423,-180 623.9965,-159.5789 627.8645,-135.799 632.8367,-117.8128"/>
<polygon fill="#c0c0c0" stroke="#c0c0c0" stroke-width="2" points="636.1935,-118.8038 635.7428,-108.2185 629.4941,-116.7745 636.1935,-118.8038"/>
</g>
<!-- 19&#45;&gt;18 -->
<g id="edge33" class="edge">
<title>19&#45;&gt;18</title>
<path fill="none" stroke="#c0c0c0" stroke-width="2" d="M721.8073,-287.8314C712.2641,-279.1337 700.6824,-268.5783 690.3117,-259.1265"/>
<polygon fill="#c0c0c0" stroke="#c0c0c0" stroke-width="2" points="692.4196,-256.3121 682.671,-252.1628 687.7043,-261.4857 692.4196,-256.3121"/>
</g>
<!-- 25 -->
<g id="node26" class="node">
<title>25</title>
<path fill="none" stroke="#56d882" stroke-width="2" d="M779.7423,-252C779.7423,-252 723.7423,-252 723.7423,-252 717.7423,-252 711.7423,-246 711.7423,-240 711.7423,-240 711.7423,-228 711.7423,-228 711.7423,-222 717.7423,-216 723.7423,-216 723.7423,-216 779.7423,-216 779.7423,-216 785.7423,-216 791.7423,-222 791.7423,-228 791.7423,-228 791.7423,-240 791.7423,-240 791.7423,-246 785.7423,-252 779.7423,-252"/>
<text text-anchor="middle" x="751.7423" y="-237" font-family="sans" font-size="10.00" fill="#000000">nonpareil_infer</text>
<text text-anchor="middle" x="751.7423" y="-226" font-family="sans" font-size="10.00" fill="#000000">tool: derep</text>
</g>
<!-- 19&#45;&gt;25 -->
<g id="edge40" class="edge">
<title>19&#45;&gt;25</title>
<path fill="none" stroke="#c0c0c0" stroke-width="2" d="M744.2657,-287.8314C745.3352,-280.131 746.607,-270.9743 747.7956,-262.4166"/>
<polygon fill="#c0c0c0" stroke="#c0c0c0" stroke-width="2" points="751.2759,-262.7997 749.1849,-252.4133 744.3424,-261.8367 751.2759,-262.7997"/>
</g>
<!-- 29 -->
<g id="node30" class="node">
<title>29</title>
<path fill="none" stroke="#afd856" stroke-width="2" d="M961.7423,-252C961.7423,-252 901.7423,-252 901.7423,-252 895.7423,-252 889.7423,-246 889.7423,-240 889.7423,-240 889.7423,-228 889.7423,-228 889.7423,-222 895.7423,-216 901.7423,-216 901.7423,-216 961.7423,-216 961.7423,-216 967.7423,-216 973.7423,-222 973.7423,-228 973.7423,-228 973.7423,-240 973.7423,-240 973.7423,-246 967.7423,-252 961.7423,-252"/>
<text text-anchor="middle" x="931.7423" y="-231.5" font-family="sans" font-size="10.00" fill="#000000">low_complexity</text>
</g>
<!-- 19&#45;&gt;29 -->
<g id="edge44" class="edge">
<title>19&#45;&gt;29</title>
<path fill="none" stroke="#c0c0c0" stroke-width="2" d="M768.9647,-295.6842C797.759,-284.7726 843.8873,-267.2924 879.6991,-253.7217"/>
<polygon fill="#c0c0c0" stroke="#c0c0c0" stroke-width="2" points="881.3924,-256.8229 889.5033,-250.0064 878.9119,-250.2771 881.3924,-256.8229"/>
</g>
<!-- 20 -->
<g id="node21" class="node">
<title>20</title>
<path fill="none" stroke="#56d8a9" stroke-width="2" d="M205.2423,-180C205.2423,-180 152.2423,-180 152.2423,-180 146.2423,-180 140.2423,-174 140.2423,-168 140.2423,-168 140.2423,-156 140.2423,-156 140.2423,-150 146.2423,-144 152.2423,-144 152.2423,-144 205.2423,-144 205.2423,-144 211.2423,-144 217.2423,-150 217.2423,-156 217.2423,-156 217.2423,-168 217.2423,-168 217.2423,-174 211.2423,-180 205.2423,-180"/>
<text text-anchor="middle" x="178.7423" y="-159.5" font-family="sans" font-size="10.00" fill="#000000">nonpareil_plot</text>
</g>
<!-- 20&#45;&gt;1 -->
<g id="edge14" class="edge">
<title>20&#45;&gt;1</title>
<path fill="none" stroke="#c0c0c0" stroke-width="2" d="M217.2731,-146.6822C220.4492,-145.686 223.6332,-144.7738 226.7423,-144 363.8188,-109.8838 531.9848,-96.4659 605.4411,-91.9662"/>
<polygon fill="#c0c0c0" stroke="#c0c0c0" stroke-width="2" points="605.8014,-95.4511 615.5768,-91.3656 605.3872,-88.4633 605.8014,-95.4511"/>
</g>
<!-- 21&#45;&gt;20 -->
<g id="edge35" class="edge">
<title>21&#45;&gt;20</title>
<path fill="none" stroke="#c0c0c0" stroke-width="2" d="M182.4806,-215.8314C181.9459,-208.131 181.31,-198.9743 180.7157,-190.4166"/>
<polygon fill="#c0c0c0" stroke="#c0c0c0" stroke-width="2" points="184.2055,-190.1467 180.021,-180.4133 177.2223,-190.6317 184.2055,-190.1467"/>
</g>
<!-- 22 -->
<g id="node23" class="node">
<title>22</title>
<path fill="none" stroke="#56d8a9" stroke-width="2" d="M961.2423,-180C961.2423,-180 908.2423,-180 908.2423,-180 902.2423,-180 896.2423,-174 896.2423,-168 896.2423,-168 896.2423,-156 896.2423,-156 896.2423,-150 902.2423,-144 908.2423,-144 908.2423,-144 961.2423,-144 961.2423,-144 967.2423,-144 973.2423,-150 973.2423,-156 973.2423,-156 973.2423,-168 973.2423,-168 973.2423,-174 967.2423,-180 961.2423,-180"/>
<text text-anchor="middle" x="934.7423" y="-159.5" font-family="sans" font-size="10.00" fill="#000000">nonpareil_plot</text>
</g>
<!-- 22&#45;&gt;1 -->
<g id="edge15" class="edge">
<title>22&#45;&gt;1</title>
<path fill="none" stroke="#c0c0c0" stroke-width="2" d="M896.1288,-146.986C892.9712,-145.9216 889.8141,-144.9109 886.7423,-144 814.4694,-122.5677 727.9024,-105.3529 679.7373,-96.5036"/>
<polygon fill="#c0c0c0" stroke="#c0c0c0" stroke-width="2" points="680.2408,-93.0378 669.776,-94.6923 678.9885,-99.9249 680.2408,-93.0378"/>
</g>
<!-- 23&#45;&gt;22 -->
<g id="edge37" class="edge">
<title>23&#45;&gt;22</title>
<path fill="none" stroke="#c0c0c0" stroke-width="2" d="M1007.2651,-215.8314C995.2029,-206.8779 980.4884,-195.9558 967.4737,-186.2955"/>
<polygon fill="#c0c0c0" stroke="#c0c0c0" stroke-width="2" points="969.3275,-183.3127 959.2117,-180.1628 965.1553,-188.9335 969.3275,-183.3127"/>
</g>
<!-- 24 -->
<g id="node25" class="node">
<title>24</title>
<path fill="none" stroke="#56d8a9" stroke-width="2" d="M703.2423,-180C703.2423,-180 650.2423,-180 650.2423,-180 644.2423,-180 638.2423,-174 638.2423,-168 638.2423,-168 638.2423,-156 638.2423,-156 638.2423,-150 644.2423,-144 650.2423,-144 650.2423,-144 703.2423,-144 703.2423,-144 709.2423,-144 715.2423,-150 715.2423,-156 715.2423,-156 715.2423,-168 715.2423,-168 715.2423,-174 709.2423,-180 703.2423,-180"/>
<text text-anchor="middle" x="676.7423" y="-159.5" font-family="sans" font-size="10.00" fill="#000000">nonpareil_plot</text>
</g>
<!-- 24&#45;&gt;1 -->
<g id="edge16" class="edge">
<title>24&#45;&gt;1</title>
<path fill="none" stroke="#c0c0c0" stroke-width="2" d="M668.1627,-143.8314C664.4065,-135.8771 659.9166,-126.369 655.7626,-117.5723"/>
<polygon fill="#c0c0c0" stroke="#c0c0c0" stroke-width="2" points="658.8725,-115.9612 651.4375,-108.4133 652.5427,-118.9503 658.8725,-115.9612"/>
</g>
<!-- 25&#45;&gt;24 -->
<g id="edge39" class="edge">
<title>25&#45;&gt;24</title>
<path fill="none" stroke="#c0c0c0" stroke-width="2" d="M732.8167,-215.8314C723.7566,-207.1337 712.7614,-196.5783 702.9158,-187.1265"/>
<polygon fill="#c0c0c0" stroke="#c0c0c0" stroke-width="2" points="705.2997,-184.5633 695.6619,-180.1628 700.452,-189.613 705.2997,-184.5633"/>
</g>
<!-- 26 -->
<g id="node27" class="node">
<title>26</title>
<path fill="none" stroke="#d8ac56" stroke-width="2" d="M109.7423,-180C109.7423,-180 27.7423,-180 27.7423,-180 21.7423,-180 15.7423,-174 15.7423,-168 15.7423,-168 15.7423,-156 15.7423,-156 15.7423,-150 21.7423,-144 27.7423,-144 27.7423,-144 109.7423,-144 109.7423,-144 115.7423,-144 121.7423,-150 121.7423,-156 121.7423,-156 121.7423,-168 121.7423,-168 121.7423,-174 115.7423,-180 109.7423,-180"/>
<text text-anchor="middle" x="68.7423" y="-165" font-family="sans" font-size="10.00" fill="#000000">fastqc</text>
<text text-anchor="middle" x="68.7423" y="-154" font-family="sans" font-size="10.00" fill="#000000">tool: low_complexity</text>
</g>
<!-- 26&#45;&gt;1 -->
<g id="edge17" class="edge">
<title>26&#45;&gt;1</title>
<path fill="none" stroke="#c0c0c0" stroke-width="2" d="M122.0289,-145.8785C124.9644,-145.1942 127.8827,-144.5613 130.7423,-144 306.3239,-109.5366 520.3891,-95.9519 605.3827,-91.6666"/>
<polygon fill="#c0c0c0" stroke="#c0c0c0" stroke-width="2" points="605.7504,-95.1529 615.5668,-91.1669 605.4073,-88.1613 605.7504,-95.1529"/>
</g>
<!-- 27&#45;&gt;0 -->
<g id="edge3" class="edge">
<title>27&#45;&gt;0</title>
<path fill="none" stroke="#c0c0c0" stroke-width="2" d="M41.6487,-215.8927C16.7646,-197.0794 -13.4187,-167.2018 6.7423,-144 64.0901,-78.0029 700.5934,-31.3336 863.133,-20.4351"/>
<polygon fill="#c0c0c0" stroke="#c0c0c0" stroke-width="2" points="863.8279,-23.8967 873.5736,-19.7407 863.3634,-16.9121 863.8279,-23.8967"/>
</g>
<!-- 27&#45;&gt;26 -->
<g id="edge41" class="edge">
<title>27&#45;&gt;26</title>
<path fill="none" stroke="#c0c0c0" stroke-width="2" d="M68.7423,-215.8314C68.7423,-208.131 68.7423,-198.9743 68.7423,-190.4166"/>
<polygon fill="#c0c0c0" stroke="#c0c0c0" stroke-width="2" points="72.2424,-190.4132 68.7423,-180.4133 65.2424,-190.4133 72.2424,-190.4132"/>
</g>
<!-- 28 -->
<g id="node29" class="node">
<title>28</title>
<path fill="none" stroke="#d8ac56" stroke-width="2" d="M865.7423,-180C865.7423,-180 783.7423,-180 783.7423,-180 777.7423,-180 771.7423,-174 771.7423,-168 771.7423,-168 771.7423,-156 771.7423,-156 771.7423,-150 777.7423,-144 783.7423,-144 783.7423,-144 865.7423,-144 865.7423,-144 871.7423,-144 877.7423,-150 877.7423,-156 877.7423,-156 877.7423,-168 877.7423,-168 877.7423,-174 871.7423,-180 865.7423,-180"/>
<text text-anchor="middle" x="824.7423" y="-165" font-family="sans" font-size="10.00" fill="#000000">fastqc</text>
<text text-anchor="middle" x="824.7423" y="-154" font-family="sans" font-size="10.00" fill="#000000">tool: low_complexity</text>
</g>
<!-- 28&#45;&gt;1 -->
<g id="edge18" class="edge">
<title>28&#45;&gt;1</title>
<path fill="none" stroke="#c0c0c0" stroke-width="2" d="M778.816,-143.8314C748.1074,-131.6829 708.237,-115.91 679.6033,-104.5824"/>
<polygon fill="#c0c0c0" stroke="#c0c0c0" stroke-width="2" points="680.5636,-101.1984 669.9773,-100.7743 677.9885,-107.7075 680.5636,-101.1984"/>
</g>
<!-- 29&#45;&gt;0 -->
<g id="edge2" class="edge">
<title>29&#45;&gt;0</title>
<path fill="none" stroke="#c0c0c0" stroke-width="2" d="M973.9806,-218.8848C976.9395,-217.8899 979.8818,-216.9192 982.7423,-216 1037.3774,-198.4432 1072.2819,-225.888 1106.7423,-180 1116.3502,-167.206 1114.5661,-157.9567 1106.7423,-144 1070.5905,-79.5096 986.491,-44.078 937.6587,-28.273"/>
<polygon fill="#c0c0c0" stroke="#c0c0c0" stroke-width="2" points="938.6842,-24.9266 928.0954,-25.2828 936.5952,-31.6077 938.6842,-24.9266"/>
</g>
<!-- 29&#45;&gt;28 -->
<g id="edge43" class="edge">
<title>29&#45;&gt;28</title>
<path fill="none" stroke="#c0c0c0" stroke-width="2" d="M904.7417,-215.8314C891.3092,-206.7927 874.895,-195.7476 860.4384,-186.0198"/>
<polygon fill="#c0c0c0" stroke="#c0c0c0" stroke-width="2" points="861.9849,-182.8418 851.7343,-180.1628 858.0769,-188.6494 861.9849,-182.8418"/>
</g>
<!-- 30 -->
<g id="node31" class="node">
<title>30</title>
<path fill="none" stroke="#d8ac56" stroke-width="2" d="M1085.7423,-180C1085.7423,-180 1003.7423,-180 1003.7423,-180 997.7423,-180 991.7423,-174 991.7423,-168 991.7423,-168 991.7423,-156 991.7423,-156 991.7423,-150 997.7423,-144 1003.7423,-144 1003.7423,-144 1085.7423,-144 1085.7423,-144 1091.7423,-144 1097.7423,-150 1097.7423,-156 1097.7423,-156 1097.7423,-168 1097.7423,-168 1097.7423,-174 1091.7423,-180 1085.7423,-180"/>
<text text-anchor="middle" x="1044.7423" y="-165" font-family="sans" font-size="10.00" fill="#000000">fastqc</text>
<text text-anchor="middle" x="1044.7423" y="-154" font-family="sans" font-size="10.00" fill="#000000">tool: low_complexity</text>
</g>
<!-- 30&#45;&gt;1 -->
<g id="edge19" class="edge">
<title>30&#45;&gt;1</title>
<path fill="none" stroke="#c0c0c0" stroke-width="2" d="M991.4177,-146.0595C988.492,-145.3286 985.5862,-144.636 982.7423,-144 873.8469,-119.6453 742.9494,-102.0931 680.0599,-94.3749"/>
<polygon fill="#c0c0c0" stroke="#c0c0c0" stroke-width="2" points="680.1944,-90.8656 669.8454,-93.1347 679.3506,-97.8146 680.1944,-90.8656"/>
</g>
<!-- 31&#45;&gt;0 -->
<g id="edge4" class="edge">
<title>31&#45;&gt;0</title>
<path fill="none" stroke="#c0c0c0" stroke-width="2" d="M1132.9461,-215.7759C1133.5378,-197.1292 1132.6771,-167.6222 1123.7423,-144 1109.6851,-106.8347 1103.0377,-95.149 1070.7423,-72 1030.6536,-43.2649 974.6417,-29.3828 938.0392,-22.9948"/>
<polygon fill="#c0c0c0" stroke="#c0c0c0" stroke-width="2" points="938.236,-19.4803 927.8012,-21.3151 937.1026,-26.388 938.236,-19.4803"/>
</g>
<!-- 31&#45;&gt;30 -->
<g id="edge45" class="edge">
<title>31&#45;&gt;30</title>
<path fill="none" stroke="#c0c0c0" stroke-width="2" d="M1109.7885,-215.8314C1099.0729,-206.9632 1086.0234,-196.1637 1074.4333,-186.5718"/>
<polygon fill="#c0c0c0" stroke="#c0c0c0" stroke-width="2" points="1076.6245,-183.8422 1066.6891,-180.1628 1072.1615,-189.2349 1076.6245,-183.8422"/>
</g>
</g>
</svg>
