<?xml version="1.0" encoding="UTF-8" standalone="no"?>
<!DOCTYPE svg PUBLIC "-//W3C//DTD SVG 1.1//EN"
 "http://www.w3.org/Graphics/SVG/1.1/DTD/svg11.dtd">
<!-- Generated by graphviz version 2.40.1 (0)
 -->
<!-- Title: snakemake_dag Pages: 1 -->
<svg width="1650pt" height="492pt"
 viewBox="0.00 0.00 1650.32 492.00" xmlns="http://www.w3.org/2000/svg" xmlns:xlink="http://www.w3.org/1999/xlink">
<g id="graph0" class="graph" transform="scale(1 1) rotate(0) translate(4 488)">
<title>snakemake_dag</title>
<polygon fill="#ffffff" stroke="transparent" points="-4,4 -4,-488 1646.3168,-488 1646.3168,4 -4,4"/>
<!-- 0 -->
<g id="node1" class="node">
<title>0</title>
<path fill="none" stroke="#d85656" stroke-width="2" d="M835.0838,-36C835.0838,-36 805.0838,-36 805.0838,-36 799.0838,-36 793.0838,-30 793.0838,-24 793.0838,-24 793.0838,-12 793.0838,-12 793.0838,-6 799.0838,0 805.0838,0 805.0838,0 835.0838,0 835.0838,0 841.0838,0 847.0838,-6 847.0838,-12 847.0838,-12 847.0838,-24 847.0838,-24 847.0838,-30 841.0838,-36 835.0838,-36"/>
<text text-anchor="middle" x="820.0838" y="-15.5" font-family="sans" font-size="10.00" fill="#000000">all</text>
</g>
<!-- 1 -->
<g id="node2" class="node">
<title>1</title>
<path fill="none" stroke="#59d856" stroke-width="2" d="M795.0838,-108C795.0838,-108 765.0838,-108 765.0838,-108 759.0838,-108 753.0838,-102 753.0838,-96 753.0838,-96 753.0838,-84 753.0838,-84 753.0838,-78 759.0838,-72 765.0838,-72 765.0838,-72 795.0838,-72 795.0838,-72 801.0838,-72 807.0838,-78 807.0838,-84 807.0838,-84 807.0838,-96 807.0838,-96 807.0838,-102 801.0838,-108 795.0838,-108"/>
<text text-anchor="middle" x="780.0838" y="-87.5" font-family="sans" font-size="10.00" fill="#000000">multiqc</text>
</g>
<!-- 1&#45;&gt;0 -->
<g id="edge1" class="edge">
<title>1&#45;&gt;0</title>
<path fill="none" stroke="#c0c0c0" stroke-width="2" d="M790.1775,-71.8314C794.6435,-63.7925 799.9912,-54.1666 804.9217,-45.2918"/>
<polygon fill="#c0c0c0" stroke="#c0c0c0" stroke-width="2" points="808.0573,-46.8546 809.8542,-36.4133 801.9381,-43.4551 808.0573,-46.8546"/>
</g>
<!-- 2 -->
<g id="node3" class="node">
<title>2</title>
<path fill="none" stroke="#d8ac56" stroke-width="2" d="M594.0838,-180C594.0838,-180 524.0838,-180 524.0838,-180 518.0838,-180 512.0838,-174 512.0838,-168 512.0838,-168 512.0838,-156 512.0838,-156 512.0838,-150 518.0838,-144 524.0838,-144 524.0838,-144 594.0838,-144 594.0838,-144 600.0838,-144 606.0838,-150 606.0838,-156 606.0838,-156 606.0838,-168 606.0838,-168 606.0838,-174 600.0838,-180 594.0838,-180"/>
<text text-anchor="middle" x="559.0838" y="-165" font-family="sans" font-size="10.00" fill="#000000">fastqc</text>
<text text-anchor="middle" x="559.0838" y="-154" font-family="sans" font-size="10.00" fill="#000000">tool: merge_lanes</text>
</g>
<!-- 2&#45;&gt;1 -->
<g id="edge5" class="edge">
<title>2&#45;&gt;1</title>
<path fill="none" stroke="#c0c0c0" stroke-width="2" d="M606.2227,-146.6425C647.1847,-133.2974 705.6916,-114.2364 743.2833,-101.9893"/>
<polygon fill="#c0c0c0" stroke="#c0c0c0" stroke-width="2" points="744.4086,-105.3038 752.8325,-98.8782 742.2402,-98.6481 744.4086,-105.3038"/>
</g>
<!-- 3 -->
<g id="node4" class="node">
<title>3</title>
<path fill="none" stroke="#80d856" stroke-width="2" d="M504.0838,-484C504.0838,-484 400.0838,-484 400.0838,-484 394.0838,-484 388.0838,-478 388.0838,-472 388.0838,-472 388.0838,-444 388.0838,-444 388.0838,-438 394.0838,-432 400.0838,-432 400.0838,-432 504.0838,-432 504.0838,-432 510.0838,-432 516.0838,-438 516.0838,-444 516.0838,-444 516.0838,-472 516.0838,-472 516.0838,-478 510.0838,-484 504.0838,-484"/>
<text text-anchor="middle" x="452.0838" y="-472" font-family="sans" font-size="10.00" fill="#000000">merge_lanes</text>
<text text-anchor="middle" x="452.0838" y="-461" font-family="sans" font-size="10.00" fill="#000000">library: lib2</text>
<text text-anchor="middle" x="452.0838" y="-450" font-family="sans" font-size="10.00" fill="#000000">read_type_trim: collapsed</text>
<text text-anchor="middle" x="452.0838" y="-439" font-family="sans" font-size="10.00" fill="#000000">sample: HD827sonic_2</text>
</g>
<!-- 3&#45;&gt;2 -->
<g id="edge23" class="edge">
<title>3&#45;&gt;2</title>
<path fill="none" stroke="#c0c0c0" stroke-width="2" d="M481.1579,-431.971C491.0595,-421.6752 501.3229,-409.1595 508.0838,-396 526.5202,-360.1146 546.3121,-244.1675 554.8099,-190.1628"/>
<polygon fill="#c0c0c0" stroke="#c0c0c0" stroke-width="2" points="558.2762,-190.649 556.3551,-180.2298 551.3594,-189.5729 558.2762,-190.649"/>
</g>
<!-- 11 -->
<g id="node12" class="node">
<title>11</title>
<path fill="none" stroke="#56d882" stroke-width="2" d="M487.0838,-396C487.0838,-396 417.0838,-396 417.0838,-396 411.0838,-396 405.0838,-390 405.0838,-384 405.0838,-384 405.0838,-372 405.0838,-372 405.0838,-366 411.0838,-360 417.0838,-360 417.0838,-360 487.0838,-360 487.0838,-360 493.0838,-360 499.0838,-366 499.0838,-372 499.0838,-372 499.0838,-384 499.0838,-384 499.0838,-390 493.0838,-396 487.0838,-396"/>
<text text-anchor="middle" x="452.0838" y="-381" font-family="sans" font-size="10.00" fill="#000000">nonpareil_infer</text>
<text text-anchor="middle" x="452.0838" y="-370" font-family="sans" font-size="10.00" fill="#000000">tool: merge_lanes</text>
</g>
<!-- 3&#45;&gt;11 -->
<g id="edge29" class="edge">
<title>3&#45;&gt;11</title>
<path fill="none" stroke="#c0c0c0" stroke-width="2" d="M452.0838,-431.805C452.0838,-423.6026 452.0838,-414.5174 452.0838,-406.1839"/>
<polygon fill="#c0c0c0" stroke="#c0c0c0" stroke-width="2" points="455.5839,-406.1532 452.0838,-396.1532 448.5839,-406.1533 455.5839,-406.1532"/>
</g>
<!-- 17 -->
<g id="node18" class="node">
<title>17</title>
<path fill="none" stroke="#5682d8" stroke-width="2" d="M336.0838,-396C336.0838,-396 306.0838,-396 306.0838,-396 300.0838,-396 294.0838,-390 294.0838,-384 294.0838,-384 294.0838,-372 294.0838,-372 294.0838,-366 300.0838,-360 306.0838,-360 306.0838,-360 336.0838,-360 336.0838,-360 342.0838,-360 348.0838,-366 348.0838,-372 348.0838,-372 348.0838,-384 348.0838,-384 348.0838,-390 342.0838,-396 336.0838,-396"/>
<text text-anchor="middle" x="321.0838" y="-375.5" font-family="sans" font-size="10.00" fill="#000000">vsearch</text>
</g>
<!-- 3&#45;&gt;17 -->
<g id="edge35" class="edge">
<title>3&#45;&gt;17</title>
<path fill="none" stroke="#c0c0c0" stroke-width="2" d="M409.1895,-431.805C392.3162,-421.5007 373.1616,-409.8033 357.032,-399.9531"/>
<polygon fill="#c0c0c0" stroke="#c0c0c0" stroke-width="2" points="358.7747,-396.9163 348.4161,-394.6915 355.1264,-402.8905 358.7747,-396.9163"/>
</g>
<!-- 4 -->
<g id="node5" class="node">
<title>4</title>
<path fill="none" stroke="#d8ac56" stroke-width="2" d="M1133.0838,-252C1133.0838,-252 1063.0838,-252 1063.0838,-252 1057.0838,-252 1051.0838,-246 1051.0838,-240 1051.0838,-240 1051.0838,-228 1051.0838,-228 1051.0838,-222 1057.0838,-216 1063.0838,-216 1063.0838,-216 1133.0838,-216 1133.0838,-216 1139.0838,-216 1145.0838,-222 1145.0838,-228 1145.0838,-228 1145.0838,-240 1145.0838,-240 1145.0838,-246 1139.0838,-252 1133.0838,-252"/>
<text text-anchor="middle" x="1098.0838" y="-237" font-family="sans" font-size="10.00" fill="#000000">fastqc</text>
<text text-anchor="middle" x="1098.0838" y="-226" font-family="sans" font-size="10.00" fill="#000000">tool: merge_lanes</text>
</g>
<!-- 4&#45;&gt;1 -->
<g id="edge6" class="edge">
<title>4&#45;&gt;1</title>
<path fill="none" stroke="#c0c0c0" stroke-width="2" d="M1090.7492,-215.6719C1081.4564,-194.9096 1063.4142,-161.6725 1037.0838,-144 1001.5664,-120.1614 880.0384,-102.257 817.6714,-94.3952"/>
<polygon fill="#c0c0c0" stroke="#c0c0c0" stroke-width="2" points="817.8237,-90.8874 807.4694,-93.1323 816.9637,-97.8344 817.8237,-90.8874"/>
</g>
<!-- 5 -->
<g id="node6" class="node">
<title>5</title>
<path fill="none" stroke="#80d856" stroke-width="2" d="M1254.0838,-484C1254.0838,-484 1150.0838,-484 1150.0838,-484 1144.0838,-484 1138.0838,-478 1138.0838,-472 1138.0838,-472 1138.0838,-444 1138.0838,-444 1138.0838,-438 1144.0838,-432 1150.0838,-432 1150.0838,-432 1254.0838,-432 1254.0838,-432 1260.0838,-432 1266.0838,-438 1266.0838,-444 1266.0838,-444 1266.0838,-472 1266.0838,-472 1266.0838,-478 1260.0838,-484 1254.0838,-484"/>
<text text-anchor="middle" x="1202.0838" y="-472" font-family="sans" font-size="10.00" fill="#000000">merge_lanes</text>
<text text-anchor="middle" x="1202.0838" y="-461" font-family="sans" font-size="10.00" fill="#000000">library: lib1</text>
<text text-anchor="middle" x="1202.0838" y="-450" font-family="sans" font-size="10.00" fill="#000000">read_type_trim: collapsed</text>
<text text-anchor="middle" x="1202.0838" y="-439" font-family="sans" font-size="10.00" fill="#000000">sample: HD827sonic_1</text>
</g>
<!-- 5&#45;&gt;4 -->
<g id="edge24" class="edge">
<title>5&#45;&gt;4</title>
<path fill="none" stroke="#c0c0c0" stroke-width="2" d="M1173.8187,-431.9949C1163.8874,-421.6102 1153.3943,-409.0289 1146.0838,-396 1121.7337,-352.603 1108.5776,-295.5839 1102.4724,-262.0527"/>
<polygon fill="#c0c0c0" stroke="#c0c0c0" stroke-width="2" points="1105.8927,-261.2916 1100.7327,-252.0383 1098.996,-262.4898 1105.8927,-261.2916"/>
</g>
<!-- 13 -->
<g id="node14" class="node">
<title>13</title>
<path fill="none" stroke="#56d882" stroke-width="2" d="M1237.0838,-396C1237.0838,-396 1167.0838,-396 1167.0838,-396 1161.0838,-396 1155.0838,-390 1155.0838,-384 1155.0838,-384 1155.0838,-372 1155.0838,-372 1155.0838,-366 1161.0838,-360 1167.0838,-360 1167.0838,-360 1237.0838,-360 1237.0838,-360 1243.0838,-360 1249.0838,-366 1249.0838,-372 1249.0838,-372 1249.0838,-384 1249.0838,-384 1249.0838,-390 1243.0838,-396 1237.0838,-396"/>
<text text-anchor="middle" x="1202.0838" y="-381" font-family="sans" font-size="10.00" fill="#000000">nonpareil_infer</text>
<text text-anchor="middle" x="1202.0838" y="-370" font-family="sans" font-size="10.00" fill="#000000">tool: merge_lanes</text>
</g>
<!-- 5&#45;&gt;13 -->
<g id="edge31" class="edge">
<title>5&#45;&gt;13</title>
<path fill="none" stroke="#c0c0c0" stroke-width="2" d="M1202.0838,-431.805C1202.0838,-423.6026 1202.0838,-414.5174 1202.0838,-406.1839"/>
<polygon fill="#c0c0c0" stroke="#c0c0c0" stroke-width="2" points="1205.5839,-406.1532 1202.0838,-396.1532 1198.5839,-406.1533 1205.5839,-406.1532"/>
</g>
<!-- 19 -->
<g id="node20" class="node">
<title>19</title>
<path fill="none" stroke="#5682d8" stroke-width="2" d="M1330.0838,-396C1330.0838,-396 1300.0838,-396 1300.0838,-396 1294.0838,-396 1288.0838,-390 1288.0838,-384 1288.0838,-384 1288.0838,-372 1288.0838,-372 1288.0838,-366 1294.0838,-360 1300.0838,-360 1300.0838,-360 1330.0838,-360 1330.0838,-360 1336.0838,-360 1342.0838,-366 1342.0838,-372 1342.0838,-372 1342.0838,-384 1342.0838,-384 1342.0838,-390 1336.0838,-396 1330.0838,-396"/>
<text text-anchor="middle" x="1315.0838" y="-375.5" font-family="sans" font-size="10.00" fill="#000000">vsearch</text>
</g>
<!-- 5&#45;&gt;19 -->
<g id="edge37" class="edge">
<title>5&#45;&gt;19</title>
<path fill="none" stroke="#c0c0c0" stroke-width="2" d="M1239.0842,-431.805C1252.6011,-422.2355 1267.8152,-411.4645 1281.0603,-402.0874"/>
<polygon fill="#c0c0c0" stroke="#c0c0c0" stroke-width="2" points="1283.303,-404.788 1289.4423,-396.1532 1279.2583,-399.0749 1283.303,-404.788"/>
</g>
<!-- 6 -->
<g id="node7" class="node">
<title>6</title>
<path fill="none" stroke="#d8ac56" stroke-width="2" d="M651.0838,-396C651.0838,-396 581.0838,-396 581.0838,-396 575.0838,-396 569.0838,-390 569.0838,-384 569.0838,-384 569.0838,-372 569.0838,-372 569.0838,-366 575.0838,-360 581.0838,-360 581.0838,-360 651.0838,-360 651.0838,-360 657.0838,-360 663.0838,-366 663.0838,-372 663.0838,-372 663.0838,-384 663.0838,-384 663.0838,-390 657.0838,-396 651.0838,-396"/>
<text text-anchor="middle" x="616.0838" y="-381" font-family="sans" font-size="10.00" fill="#000000">fastqc</text>
<text text-anchor="middle" x="616.0838" y="-370" font-family="sans" font-size="10.00" fill="#000000">tool: merge_lanes</text>
</g>
<!-- 6&#45;&gt;1 -->
<g id="edge7" class="edge">
<title>6&#45;&gt;1</title>
<path fill="none" stroke="#c0c0c0" stroke-width="2" d="M601.8478,-359.6423C595.0299,-349.6872 587.5976,-336.8222 584.0838,-324 571.3974,-277.7068 564.6928,-259.9089 584.0838,-216 593.6794,-194.2716 643.2905,-157.131 663.0838,-144 688.3164,-127.2605 719.5736,-113.1267 743.4312,-103.5226"/>
<polygon fill="#c0c0c0" stroke="#c0c0c0" stroke-width="2" points="744.8157,-106.739 752.8358,-99.8159 742.2489,-100.2266 744.8157,-106.739"/>
</g>
<!-- 7 -->
<g id="node8" class="node">
<title>7</title>
<path fill="none" stroke="#80d856" stroke-width="2" d="M774.0838,-484C774.0838,-484 670.0838,-484 670.0838,-484 664.0838,-484 658.0838,-478 658.0838,-472 658.0838,-472 658.0838,-444 658.0838,-444 658.0838,-438 664.0838,-432 670.0838,-432 670.0838,-432 774.0838,-432 774.0838,-432 780.0838,-432 786.0838,-438 786.0838,-444 786.0838,-444 786.0838,-472 786.0838,-472 786.0838,-478 780.0838,-484 774.0838,-484"/>
<text text-anchor="middle" x="722.0838" y="-472" font-family="sans" font-size="10.00" fill="#000000">merge_lanes</text>
<text text-anchor="middle" x="722.0838" y="-461" font-family="sans" font-size="10.00" fill="#000000">library: lib1</text>
<text text-anchor="middle" x="722.0838" y="-450" font-family="sans" font-size="10.00" fill="#000000">read_type_trim: collapsed</text>
<text text-anchor="middle" x="722.0838" y="-439" font-family="sans" font-size="10.00" fill="#000000">sample: HD827sonic_2</text>
</g>
<!-- 7&#45;&gt;6 -->
<g id="edge25" class="edge">
<title>7&#45;&gt;6</title>
<path fill="none" stroke="#c0c0c0" stroke-width="2" d="M687.3754,-431.805C674.8166,-422.3266 660.6959,-411.6695 648.355,-402.3557"/>
<polygon fill="#c0c0c0" stroke="#c0c0c0" stroke-width="2" points="650.2272,-399.3837 640.1368,-396.1532 646.0103,-404.971 650.2272,-399.3837"/>
</g>
<!-- 9 -->
<g id="node10" class="node">
<title>9</title>
<path fill="none" stroke="#56d882" stroke-width="2" d="M938.0838,-396C938.0838,-396 868.0838,-396 868.0838,-396 862.0838,-396 856.0838,-390 856.0838,-384 856.0838,-384 856.0838,-372 856.0838,-372 856.0838,-366 862.0838,-360 868.0838,-360 868.0838,-360 938.0838,-360 938.0838,-360 944.0838,-360 950.0838,-366 950.0838,-372 950.0838,-372 950.0838,-384 950.0838,-384 950.0838,-390 944.0838,-396 938.0838,-396"/>
<text text-anchor="middle" x="903.0838" y="-381" font-family="sans" font-size="10.00" fill="#000000">nonpareil_infer</text>
<text text-anchor="middle" x="903.0838" y="-370" font-family="sans" font-size="10.00" fill="#000000">tool: merge_lanes</text>
</g>
<!-- 7&#45;&gt;9 -->
<g id="edge27" class="edge">
<title>7&#45;&gt;9</title>
<path fill="none" stroke="#c0c0c0" stroke-width="2" d="M781.3499,-431.805C804.5346,-421.5577 830.8364,-409.9325 853.0448,-400.1167"/>
<polygon fill="#c0c0c0" stroke="#c0c0c0" stroke-width="2" points="854.5596,-403.2739 862.2911,-396.0299 851.7297,-396.8713 854.5596,-403.2739"/>
</g>
<!-- 15 -->
<g id="node16" class="node">
<title>15</title>
<path fill="none" stroke="#5682d8" stroke-width="2" d="M737.0838,-396C737.0838,-396 707.0838,-396 707.0838,-396 701.0838,-396 695.0838,-390 695.0838,-384 695.0838,-384 695.0838,-372 695.0838,-372 695.0838,-366 701.0838,-360 707.0838,-360 707.0838,-360 737.0838,-360 737.0838,-360 743.0838,-360 749.0838,-366 749.0838,-372 749.0838,-372 749.0838,-384 749.0838,-384 749.0838,-390 743.0838,-396 737.0838,-396"/>
<text text-anchor="middle" x="722.0838" y="-375.5" font-family="sans" font-size="10.00" fill="#000000">vsearch</text>
</g>
<!-- 7&#45;&gt;15 -->
<g id="edge33" class="edge">
<title>7&#45;&gt;15</title>
<path fill="none" stroke="#c0c0c0" stroke-width="2" d="M722.0838,-431.805C722.0838,-423.6026 722.0838,-414.5174 722.0838,-406.1839"/>
<polygon fill="#c0c0c0" stroke="#c0c0c0" stroke-width="2" points="725.5839,-406.1532 722.0838,-396.1532 718.5839,-406.1533 725.5839,-406.1532"/>
</g>
<!-- 8 -->
<g id="node9" class="node">
<title>8</title>
<path fill="none" stroke="#56d8a9" stroke-width="2" d="M1018.5838,-324C1018.5838,-324 965.5838,-324 965.5838,-324 959.5838,-324 953.5838,-318 953.5838,-312 953.5838,-312 953.5838,-300 953.5838,-300 953.5838,-294 959.5838,-288 965.5838,-288 965.5838,-288 1018.5838,-288 1018.5838,-288 1024.5838,-288 1030.5838,-294 1030.5838,-300 1030.5838,-300 1030.5838,-312 1030.5838,-312 1030.5838,-318 1024.5838,-324 1018.5838,-324"/>
<text text-anchor="middle" x="992.0838" y="-303.5" font-family="sans" font-size="10.00" fill="#000000">nonpareil_plot</text>
</g>
<!-- 8&#45;&gt;1 -->
<g id="edge8" class="edge">
<title>8&#45;&gt;1</title>
<path fill="none" stroke="#c0c0c0" stroke-width="2" d="M1000.8199,-287.7783C1008.6435,-268.6017 1017.0554,-238.1794 1004.0838,-216 963.643,-146.8525 869.7578,-112.722 817.278,-98.5017"/>
<polygon fill="#c0c0c0" stroke="#c0c0c0" stroke-width="2" points="817.9216,-95.0526 807.3622,-95.9186 816.1569,-101.8265 817.9216,-95.0526"/>
</g>
<!-- 9&#45;&gt;8 -->
<g id="edge26" class="edge">
<title>9&#45;&gt;8</title>
<path fill="none" stroke="#c0c0c0" stroke-width="2" d="M925.5422,-359.8314C936.5043,-350.9632 949.8537,-340.1637 961.7103,-330.5718"/>
<polygon fill="#c0c0c0" stroke="#c0c0c0" stroke-width="2" points="964.0593,-333.1734 969.6325,-324.1628 959.6567,-327.7313 964.0593,-333.1734"/>
</g>
<!-- 10 -->
<g id="node11" class="node">
<title>10</title>
<path fill="none" stroke="#56d8a9" stroke-width="2" d="M481.5838,-180C481.5838,-180 428.5838,-180 428.5838,-180 422.5838,-180 416.5838,-174 416.5838,-168 416.5838,-168 416.5838,-156 416.5838,-156 416.5838,-150 422.5838,-144 428.5838,-144 428.5838,-144 481.5838,-144 481.5838,-144 487.5838,-144 493.5838,-150 493.5838,-156 493.5838,-156 493.5838,-168 493.5838,-168 493.5838,-174 487.5838,-180 481.5838,-180"/>
<text text-anchor="middle" x="455.0838" y="-159.5" font-family="sans" font-size="10.00" fill="#000000">nonpareil_plot</text>
</g>
<!-- 10&#45;&gt;1 -->
<g id="edge9" class="edge">
<title>10&#45;&gt;1</title>
<path fill="none" stroke="#c0c0c0" stroke-width="2" d="M493.6724,-146.8998C496.8356,-145.8548 500.0007,-144.872 503.0838,-144 587.5044,-120.1215 689.3486,-103.2278 742.9395,-95.2303"/>
<polygon fill="#c0c0c0" stroke="#c0c0c0" stroke-width="2" points="743.6112,-98.6692 752.9948,-93.7499 742.5916,-91.7438 743.6112,-98.6692"/>
</g>
<!-- 11&#45;&gt;10 -->
<g id="edge28" class="edge">
<title>11&#45;&gt;10</title>
<path fill="none" stroke="#c0c0c0" stroke-width="2" d="M452.3344,-359.9555C452.8561,-322.3938 454.0622,-235.5541 454.6892,-190.4103"/>
<polygon fill="#c0c0c0" stroke="#c0c0c0" stroke-width="2" points="458.1924,-190.1927 454.8318,-180.1451 451.1931,-190.0955 458.1924,-190.1927"/>
</g>
<!-- 12 -->
<g id="node13" class="node">
<title>12</title>
<path fill="none" stroke="#56d8a9" stroke-width="2" d="M1228.5838,-252C1228.5838,-252 1175.5838,-252 1175.5838,-252 1169.5838,-252 1163.5838,-246 1163.5838,-240 1163.5838,-240 1163.5838,-228 1163.5838,-228 1163.5838,-222 1169.5838,-216 1175.5838,-216 1175.5838,-216 1228.5838,-216 1228.5838,-216 1234.5838,-216 1240.5838,-222 1240.5838,-228 1240.5838,-228 1240.5838,-240 1240.5838,-240 1240.5838,-246 1234.5838,-252 1228.5838,-252"/>
<text text-anchor="middle" x="1202.0838" y="-231.5" font-family="sans" font-size="10.00" fill="#000000">nonpareil_plot</text>
</g>
<!-- 12&#45;&gt;1 -->
<g id="edge10" class="edge">
<title>12&#45;&gt;1</title>
<path fill="none" stroke="#c0c0c0" stroke-width="2" d="M1180.9143,-215.7275C1155.7498,-195.0175 1111.6576,-161.8295 1068.0838,-144 982.7167,-109.0696 873.8038,-96.5307 817.521,-92.1875"/>
<polygon fill="#c0c0c0" stroke="#c0c0c0" stroke-width="2" points="817.5425,-88.6799 807.3151,-91.446 817.0352,-95.6615 817.5425,-88.6799"/>
</g>
<!-- 13&#45;&gt;12 -->
<g id="edge30" class="edge">
<title>13&#45;&gt;12</title>
<path fill="none" stroke="#c0c0c0" stroke-width="2" d="M1202.0838,-359.7623C1202.0838,-335.201 1202.0838,-291.2474 1202.0838,-262.3541"/>
<polygon fill="#c0c0c0" stroke="#c0c0c0" stroke-width="2" points="1205.5839,-262.0896 1202.0838,-252.0896 1198.5839,-262.0897 1205.5839,-262.0896"/>
</g>
<!-- 14 -->
<g id="node15" class="node">
<title>14</title>
<path fill="none" stroke="#d8ac56" stroke-width="2" d="M741.0838,-324C741.0838,-324 703.0838,-324 703.0838,-324 697.0838,-324 691.0838,-318 691.0838,-312 691.0838,-312 691.0838,-300 691.0838,-300 691.0838,-294 697.0838,-288 703.0838,-288 703.0838,-288 741.0838,-288 741.0838,-288 747.0838,-288 753.0838,-294 753.0838,-300 753.0838,-300 753.0838,-312 753.0838,-312 753.0838,-318 747.0838,-324 741.0838,-324"/>
<text text-anchor="middle" x="722.0838" y="-309" font-family="sans" font-size="10.00" fill="#000000">fastqc</text>
<text text-anchor="middle" x="722.0838" y="-298" font-family="sans" font-size="10.00" fill="#000000">tool: derep</text>
</g>
<!-- 14&#45;&gt;1 -->
<g id="edge11" class="edge">
<title>14&#45;&gt;1</title>
<path fill="none" stroke="#c0c0c0" stroke-width="2" d="M718.8541,-287.8328C714.2131,-256.5937 708.5964,-191.4843 732.0838,-144 737.1931,-133.6704 744.8175,-123.7999 752.4936,-115.3895"/>
<polygon fill="#c0c0c0" stroke="#c0c0c0" stroke-width="2" points="755.0865,-117.7425 759.487,-108.1048 750.0368,-112.8948 755.0865,-117.7425"/>
</g>
<!-- 15&#45;&gt;14 -->
<g id="edge32" class="edge">
<title>15&#45;&gt;14</title>
<path fill="none" stroke="#c0c0c0" stroke-width="2" d="M722.0838,-359.8314C722.0838,-352.131 722.0838,-342.9743 722.0838,-334.4166"/>
<polygon fill="#c0c0c0" stroke="#c0c0c0" stroke-width="2" points="725.5839,-334.4132 722.0838,-324.4133 718.5839,-334.4133 725.5839,-334.4132"/>
</g>
<!-- 25 -->
<g id="node26" class="node">
<title>25</title>
<path fill="none" stroke="#56d882" stroke-width="2" d="M661.0838,-324C661.0838,-324 605.0838,-324 605.0838,-324 599.0838,-324 593.0838,-318 593.0838,-312 593.0838,-312 593.0838,-300 593.0838,-300 593.0838,-294 599.0838,-288 605.0838,-288 605.0838,-288 661.0838,-288 661.0838,-288 667.0838,-288 673.0838,-294 673.0838,-300 673.0838,-300 673.0838,-312 673.0838,-312 673.0838,-318 667.0838,-324 661.0838,-324"/>
<text text-anchor="middle" x="633.0838" y="-309" font-family="sans" font-size="10.00" fill="#000000">nonpareil_infer</text>
<text text-anchor="middle" x="633.0838" y="-298" font-family="sans" font-size="10.00" fill="#000000">tool: derep</text>
</g>
<!-- 15&#45;&gt;25 -->
<g id="edge43" class="edge">
<title>15&#45;&gt;25</title>
<path fill="none" stroke="#c0c0c0" stroke-width="2" d="M699.6253,-359.8314C688.6633,-350.9632 675.3139,-340.1637 663.4573,-330.5718"/>
<polygon fill="#c0c0c0" stroke="#c0c0c0" stroke-width="2" points="665.5109,-327.7313 655.535,-324.1628 661.1082,-333.1734 665.5109,-327.7313"/>
</g>
<!-- 31 -->
<g id="node32" class="node">
<title>31</title>
<path fill="none" stroke="#afd856" stroke-width="2" d="M867.0838,-324C867.0838,-324 807.0838,-324 807.0838,-324 801.0838,-324 795.0838,-318 795.0838,-312 795.0838,-312 795.0838,-300 795.0838,-300 795.0838,-294 801.0838,-288 807.0838,-288 807.0838,-288 867.0838,-288 867.0838,-288 873.0838,-288 879.0838,-294 879.0838,-300 879.0838,-300 879.0838,-312 879.0838,-312 879.0838,-318 873.0838,-324 867.0838,-324"/>
<text text-anchor="middle" x="837.0838" y="-303.5" font-family="sans" font-size="10.00" fill="#000000">low_complexity</text>
</g>
<!-- 15&#45;&gt;31 -->
<g id="edge49" class="edge">
<title>15&#45;&gt;31</title>
<path fill="none" stroke="#c0c0c0" stroke-width="2" d="M749.3372,-360.937C764.2443,-351.6038 782.9431,-339.8967 799.245,-329.6904"/>
<polygon fill="#c0c0c0" stroke="#c0c0c0" stroke-width="2" points="801.3971,-332.4724 808.0157,-324.1992 797.6825,-326.5393 801.3971,-332.4724"/>
</g>
<!-- 16 -->
<g id="node17" class="node">
<title>16</title>
<path fill="none" stroke="#d8ac56" stroke-width="2" d="M386.0838,-180C386.0838,-180 348.0838,-180 348.0838,-180 342.0838,-180 336.0838,-174 336.0838,-168 336.0838,-168 336.0838,-156 336.0838,-156 336.0838,-150 342.0838,-144 348.0838,-144 348.0838,-144 386.0838,-144 386.0838,-144 392.0838,-144 398.0838,-150 398.0838,-156 398.0838,-156 398.0838,-168 398.0838,-168 398.0838,-174 392.0838,-180 386.0838,-180"/>
<text text-anchor="middle" x="367.0838" y="-165" font-family="sans" font-size="10.00" fill="#000000">fastqc</text>
<text text-anchor="middle" x="367.0838" y="-154" font-family="sans" font-size="10.00" fill="#000000">tool: derep</text>
</g>
<!-- 16&#45;&gt;1 -->
<g id="edge12" class="edge">
<title>16&#45;&gt;1</title>
<path fill="none" stroke="#c0c0c0" stroke-width="2" d="M398.213,-146.9996C401.1719,-145.8764 404.1591,-144.8515 407.0838,-144 526.6485,-109.1893 674.5903,-96.2921 742.6341,-91.9655"/>
<polygon fill="#c0c0c0" stroke="#c0c0c0" stroke-width="2" points="743.0836,-95.4447 752.8521,-91.3427 742.6577,-88.4577 743.0836,-95.4447"/>
</g>
<!-- 17&#45;&gt;16 -->
<g id="edge34" class="edge">
<title>17&#45;&gt;16</title>
<path fill="none" stroke="#c0c0c0" stroke-width="2" d="M326.1476,-359.5712C328.9351,-349.1645 332.369,-335.8972 335.0838,-324 345.7418,-277.2929 356.1208,-222.5341 362.0436,-190.1377"/>
<polygon fill="#c0c0c0" stroke="#c0c0c0" stroke-width="2" points="365.532,-190.5169 363.8754,-180.0524 358.6446,-189.266 365.532,-190.5169"/>
</g>
<!-- 23 -->
<g id="node24" class="node">
<title>23</title>
<path fill="none" stroke="#56d882" stroke-width="2" d="M314.0838,-324C314.0838,-324 258.0838,-324 258.0838,-324 252.0838,-324 246.0838,-318 246.0838,-312 246.0838,-312 246.0838,-300 246.0838,-300 246.0838,-294 252.0838,-288 258.0838,-288 258.0838,-288 314.0838,-288 314.0838,-288 320.0838,-288 326.0838,-294 326.0838,-300 326.0838,-300 326.0838,-312 326.0838,-312 326.0838,-318 320.0838,-324 314.0838,-324"/>
<text text-anchor="middle" x="286.0838" y="-309" font-family="sans" font-size="10.00" fill="#000000">nonpareil_infer</text>
<text text-anchor="middle" x="286.0838" y="-298" font-family="sans" font-size="10.00" fill="#000000">tool: derep</text>
</g>
<!-- 17&#45;&gt;23 -->
<g id="edge41" class="edge">
<title>17&#45;&gt;23</title>
<path fill="none" stroke="#c0c0c0" stroke-width="2" d="M312.2518,-359.8314C308.3851,-351.8771 303.7632,-342.369 299.487,-333.5723"/>
<polygon fill="#c0c0c0" stroke="#c0c0c0" stroke-width="2" points="302.5544,-331.8768 295.0347,-324.4133 296.2589,-334.9371 302.5544,-331.8768"/>
</g>
<!-- 27 -->
<g id="node28" class="node">
<title>27</title>
<path fill="none" stroke="#afd856" stroke-width="2" d="M164.0838,-324C164.0838,-324 104.0838,-324 104.0838,-324 98.0838,-324 92.0838,-318 92.0838,-312 92.0838,-312 92.0838,-300 92.0838,-300 92.0838,-294 98.0838,-288 104.0838,-288 104.0838,-288 164.0838,-288 164.0838,-288 170.0838,-288 176.0838,-294 176.0838,-300 176.0838,-300 176.0838,-312 176.0838,-312 176.0838,-318 170.0838,-324 164.0838,-324"/>
<text text-anchor="middle" x="134.0838" y="-303.5" font-family="sans" font-size="10.00" fill="#000000">low_complexity</text>
</g>
<!-- 17&#45;&gt;27 -->
<g id="edge45" class="edge">
<title>17&#45;&gt;27</title>
<path fill="none" stroke="#c0c0c0" stroke-width="2" d="M293.8924,-367.5306C265.6519,-356.6572 220.7841,-339.3819 185.7694,-325.9004"/>
<polygon fill="#c0c0c0" stroke="#c0c0c0" stroke-width="2" points="186.7666,-322.5339 176.1768,-322.2069 184.2513,-329.0664 186.7666,-322.5339"/>
</g>
<!-- 18 -->
<g id="node19" class="node">
<title>18</title>
<path fill="none" stroke="#d8ac56" stroke-width="2" d="M1263.0838,-180C1263.0838,-180 1225.0838,-180 1225.0838,-180 1219.0838,-180 1213.0838,-174 1213.0838,-168 1213.0838,-168 1213.0838,-156 1213.0838,-156 1213.0838,-150 1219.0838,-144 1225.0838,-144 1225.0838,-144 1263.0838,-144 1263.0838,-144 1269.0838,-144 1275.0838,-150 1275.0838,-156 1275.0838,-156 1275.0838,-168 1275.0838,-168 1275.0838,-174 1269.0838,-180 1263.0838,-180"/>
<text text-anchor="middle" x="1244.0838" y="-165" font-family="sans" font-size="10.00" fill="#000000">fastqc</text>
<text text-anchor="middle" x="1244.0838" y="-154" font-family="sans" font-size="10.00" fill="#000000">tool: derep</text>
</g>
<!-- 18&#45;&gt;1 -->
<g id="edge13" class="edge">
<title>18&#45;&gt;1</title>
<path fill="none" stroke="#c0c0c0" stroke-width="2" d="M1212.8986,-153.1585C1200.8429,-149.9575 1186.8892,-146.5152 1174.0838,-144 1044.2377,-118.4959 887.9736,-100.9126 817.6294,-93.6853"/>
<polygon fill="#c0c0c0" stroke="#c0c0c0" stroke-width="2" points="817.7933,-90.184 807.4906,-92.6544 817.0852,-97.1481 817.7933,-90.184"/>
</g>
<!-- 19&#45;&gt;18 -->
<g id="edge36" class="edge">
<title>19&#45;&gt;18</title>
<path fill="none" stroke="#c0c0c0" stroke-width="2" d="M1304.9089,-359.9133C1299.4051,-349.6137 1292.7909,-336.3395 1288.0838,-324 1270.6501,-278.2983 1257.1636,-222.8901 1249.942,-190.1464"/>
<polygon fill="#c0c0c0" stroke="#c0c0c0" stroke-width="2" points="1253.3583,-189.3851 1247.8204,-180.3528 1246.517,-190.8671 1253.3583,-189.3851"/>
</g>
<!-- 21 -->
<g id="node22" class="node">
<title>21</title>
<path fill="none" stroke="#56d882" stroke-width="2" d="M1365.0838,-324C1365.0838,-324 1309.0838,-324 1309.0838,-324 1303.0838,-324 1297.0838,-318 1297.0838,-312 1297.0838,-312 1297.0838,-300 1297.0838,-300 1297.0838,-294 1303.0838,-288 1309.0838,-288 1309.0838,-288 1365.0838,-288 1365.0838,-288 1371.0838,-288 1377.0838,-294 1377.0838,-300 1377.0838,-300 1377.0838,-312 1377.0838,-312 1377.0838,-318 1371.0838,-324 1365.0838,-324"/>
<text text-anchor="middle" x="1337.0838" y="-309" font-family="sans" font-size="10.00" fill="#000000">nonpareil_infer</text>
<text text-anchor="middle" x="1337.0838" y="-298" font-family="sans" font-size="10.00" fill="#000000">tool: derep</text>
</g>
<!-- 19&#45;&gt;21 -->
<g id="edge39" class="edge">
<title>19&#45;&gt;21</title>
<path fill="none" stroke="#c0c0c0" stroke-width="2" d="M1320.6353,-359.8314C1323.0141,-352.0463 1325.8476,-342.7729 1328.487,-334.1347"/>
<polygon fill="#c0c0c0" stroke="#c0c0c0" stroke-width="2" points="1331.8825,-334.9996 1331.4575,-324.4133 1325.188,-332.954 1331.8825,-334.9996"/>
</g>
<!-- 29 -->
<g id="node30" class="node">
<title>29</title>
<path fill="none" stroke="#afd856" stroke-width="2" d="M1538.0838,-324C1538.0838,-324 1478.0838,-324 1478.0838,-324 1472.0838,-324 1466.0838,-318 1466.0838,-312 1466.0838,-312 1466.0838,-300 1466.0838,-300 1466.0838,-294 1472.0838,-288 1478.0838,-288 1478.0838,-288 1538.0838,-288 1538.0838,-288 1544.0838,-288 1550.0838,-294 1550.0838,-300 1550.0838,-300 1550.0838,-312 1550.0838,-312 1550.0838,-318 1544.0838,-324 1538.0838,-324"/>
<text text-anchor="middle" x="1508.0838" y="-303.5" font-family="sans" font-size="10.00" fill="#000000">low_complexity</text>
</g>
<!-- 19&#45;&gt;29 -->
<g id="edge47" class="edge">
<title>19&#45;&gt;29</title>
<path fill="none" stroke="#c0c0c0" stroke-width="2" d="M1342.3266,-367.8369C1371.8956,-356.806 1419.8005,-338.9347 1456.5248,-325.2344"/>
<polygon fill="#c0c0c0" stroke="#c0c0c0" stroke-width="2" points="1457.9352,-328.444 1466.0811,-321.6694 1455.4885,-321.8855 1457.9352,-328.444"/>
</g>
<!-- 20 -->
<g id="node21" class="node">
<title>20</title>
<path fill="none" stroke="#56d8a9" stroke-width="2" d="M1362.5838,-252C1362.5838,-252 1309.5838,-252 1309.5838,-252 1303.5838,-252 1297.5838,-246 1297.5838,-240 1297.5838,-240 1297.5838,-228 1297.5838,-228 1297.5838,-222 1303.5838,-216 1309.5838,-216 1309.5838,-216 1362.5838,-216 1362.5838,-216 1368.5838,-216 1374.5838,-222 1374.5838,-228 1374.5838,-228 1374.5838,-240 1374.5838,-240 1374.5838,-246 1368.5838,-252 1362.5838,-252"/>
<text text-anchor="middle" x="1336.0838" y="-231.5" font-family="sans" font-size="10.00" fill="#000000">nonpareil_plot</text>
</g>
<!-- 20&#45;&gt;1 -->
<g id="edge14" class="edge">
<title>20&#45;&gt;1</title>
<path fill="none" stroke="#c0c0c0" stroke-width="2" d="M1331.0058,-215.6442C1324.1204,-194.5268 1309.6466,-160.6315 1284.0838,-144 1245.1338,-118.6587 927.3676,-98.3743 817.3824,-92.0529"/>
<polygon fill="#c0c0c0" stroke="#c0c0c0" stroke-width="2" points="817.2869,-88.5419 807.1042,-91.4682 816.8892,-95.5306 817.2869,-88.5419"/>
</g>
<!-- 21&#45;&gt;20 -->
<g id="edge38" class="edge">
<title>21&#45;&gt;20</title>
<path fill="none" stroke="#c0c0c0" stroke-width="2" d="M1336.8314,-287.8314C1336.7245,-280.131 1336.5973,-270.9743 1336.4784,-262.4166"/>
<polygon fill="#c0c0c0" stroke="#c0c0c0" stroke-width="2" points="1339.9781,-262.3637 1336.3395,-252.4133 1332.9788,-262.4609 1339.9781,-262.3637"/>
</g>
<!-- 22 -->
<g id="node23" class="node">
<title>22</title>
<path fill="none" stroke="#56d8a9" stroke-width="2" d="M305.5838,-180C305.5838,-180 252.5838,-180 252.5838,-180 246.5838,-180 240.5838,-174 240.5838,-168 240.5838,-168 240.5838,-156 240.5838,-156 240.5838,-150 246.5838,-144 252.5838,-144 252.5838,-144 305.5838,-144 305.5838,-144 311.5838,-144 317.5838,-150 317.5838,-156 317.5838,-156 317.5838,-168 317.5838,-168 317.5838,-174 311.5838,-180 305.5838,-180"/>
<text text-anchor="middle" x="279.0838" y="-159.5" font-family="sans" font-size="10.00" fill="#000000">nonpareil_plot</text>
</g>
<!-- 22&#45;&gt;1 -->
<g id="edge15" class="edge">
<title>22&#45;&gt;1</title>
<path fill="none" stroke="#c0c0c0" stroke-width="2" d="M317.6057,-146.6462C320.7838,-145.658 323.9706,-144.7576 327.0838,-144 478.3095,-107.1996 664.2882,-95.0778 742.5613,-91.4312"/>
<polygon fill="#c0c0c0" stroke="#c0c0c0" stroke-width="2" points="743.0423,-94.9133 752.8764,-90.9712 742.7304,-87.9203 743.0423,-94.9133"/>
</g>
<!-- 23&#45;&gt;22 -->
<g id="edge40" class="edge">
<title>23&#45;&gt;22</title>
<path fill="none" stroke="#c0c0c0" stroke-width="2" d="M285.1972,-287.7623C284.0033,-263.201 281.8666,-219.2474 280.4621,-190.3541"/>
<polygon fill="#c0c0c0" stroke="#c0c0c0" stroke-width="2" points="283.9446,-189.9079 279.9631,-180.0896 276.9529,-190.2478 283.9446,-189.9079"/>
</g>
<!-- 24 -->
<g id="node25" class="node">
<title>24</title>
<path fill="none" stroke="#56d8a9" stroke-width="2" d="M658.5838,-252C658.5838,-252 605.5838,-252 605.5838,-252 599.5838,-252 593.5838,-246 593.5838,-240 593.5838,-240 593.5838,-228 593.5838,-228 593.5838,-222 599.5838,-216 605.5838,-216 605.5838,-216 658.5838,-216 658.5838,-216 664.5838,-216 670.5838,-222 670.5838,-228 670.5838,-228 670.5838,-240 670.5838,-240 670.5838,-246 664.5838,-252 658.5838,-252"/>
<text text-anchor="middle" x="632.0838" y="-231.5" font-family="sans" font-size="10.00" fill="#000000">nonpareil_plot</text>
</g>
<!-- 24&#45;&gt;1 -->
<g id="edge16" class="edge">
<title>24&#45;&gt;1</title>
<path fill="none" stroke="#c0c0c0" stroke-width="2" d="M642.126,-215.8944C653.468,-196.5383 673.3357,-165.7075 696.0838,-144 710.2382,-130.4931 728.2368,-118.4009 743.9399,-109.1009"/>
<polygon fill="#c0c0c0" stroke="#c0c0c0" stroke-width="2" points="745.9533,-111.9804 752.8739,-103.9582 742.4611,-105.9137 745.9533,-111.9804"/>
</g>
<!-- 25&#45;&gt;24 -->
<g id="edge42" class="edge">
<title>25&#45;&gt;24</title>
<path fill="none" stroke="#c0c0c0" stroke-width="2" d="M632.8314,-287.8314C632.7245,-280.131 632.5973,-270.9743 632.4784,-262.4166"/>
<polygon fill="#c0c0c0" stroke="#c0c0c0" stroke-width="2" points="635.9781,-262.3637 632.3395,-252.4133 628.9788,-262.4609 635.9781,-262.3637"/>
</g>
<!-- 26 -->
<g id="node27" class="node">
<title>26</title>
<path fill="none" stroke="#d8ac56" stroke-width="2" d="M115.0838,-180C115.0838,-180 33.0838,-180 33.0838,-180 27.0838,-180 21.0838,-174 21.0838,-168 21.0838,-168 21.0838,-156 21.0838,-156 21.0838,-150 27.0838,-144 33.0838,-144 33.0838,-144 115.0838,-144 115.0838,-144 121.0838,-144 127.0838,-150 127.0838,-156 127.0838,-156 127.0838,-168 127.0838,-168 127.0838,-174 121.0838,-180 115.0838,-180"/>
<text text-anchor="middle" x="74.0838" y="-165" font-family="sans" font-size="10.00" fill="#000000">fastqc</text>
<text text-anchor="middle" x="74.0838" y="-154" font-family="sans" font-size="10.00" fill="#000000">tool: low_complexity</text>
</g>
<!-- 26&#45;&gt;1 -->
<g id="edge17" class="edge">
<title>26&#45;&gt;1</title>
<path fill="none" stroke="#c0c0c0" stroke-width="2" d="M127.3562,-145.8042C130.2954,-145.1391 133.2183,-144.5306 136.0838,-144 363.8735,-101.8181 643.1518,-92.5516 742.6805,-90.5449"/>
<polygon fill="#c0c0c0" stroke="#c0c0c0" stroke-width="2" points="742.9009,-94.0415 752.833,-90.3533 742.7687,-87.0427 742.9009,-94.0415"/>
</g>
<!-- 27&#45;&gt;0 -->
<g id="edge3" class="edge">
<title>27&#45;&gt;0</title>
<path fill="none" stroke="#c0c0c0" stroke-width="2" d="M102.9406,-287.9377C54.0989,-257.4013 -30.7354,-194.0139 12.0838,-144 63.1982,-84.297 630.4279,-33.6056 782.6679,-21.0055"/>
<polygon fill="#c0c0c0" stroke="#c0c0c0" stroke-width="2" points="783.2196,-24.472 792.8992,-20.1645 782.6461,-17.4955 783.2196,-24.472"/>
</g>
<!-- 27&#45;&gt;26 -->
<g id="edge44" class="edge">
<title>27&#45;&gt;26</title>
<path fill="none" stroke="#c0c0c0" stroke-width="2" d="M124.7751,-287.6894C119.6282,-277.3197 113.2491,-264.05 108.0838,-252 99.241,-231.371 90.3137,-207.6014 83.8269,-189.672"/>
<polygon fill="#c0c0c0" stroke="#c0c0c0" stroke-width="2" points="87.0697,-188.3458 80.3996,-180.1141 80.4805,-190.7086 87.0697,-188.3458"/>
</g>
<!-- 33 -->
<g id="node34" class="node">
<title>33</title>
<path fill="none" stroke="#56d882" stroke-width="2" d="M211.0838,-252C211.0838,-252 129.0838,-252 129.0838,-252 123.0838,-252 117.0838,-246 117.0838,-240 117.0838,-240 117.0838,-228 117.0838,-228 117.0838,-222 123.0838,-216 129.0838,-216 129.0838,-216 211.0838,-216 211.0838,-216 217.0838,-216 223.0838,-222 223.0838,-228 223.0838,-228 223.0838,-240 223.0838,-240 223.0838,-246 217.0838,-252 211.0838,-252"/>
<text text-anchor="middle" x="170.0838" y="-237" font-family="sans" font-size="10.00" fill="#000000">nonpareil_infer</text>
<text text-anchor="middle" x="170.0838" y="-226" font-family="sans" font-size="10.00" fill="#000000">tool: low_complexity</text>
</g>
<!-- 27&#45;&gt;33 -->
<g id="edge51" class="edge">
<title>27&#45;&gt;33</title>
<path fill="none" stroke="#c0c0c0" stroke-width="2" d="M143.1681,-287.8314C147.1452,-279.8771 151.8993,-270.369 156.2976,-261.5723"/>
<polygon fill="#c0c0c0" stroke="#c0c0c0" stroke-width="2" points="159.5354,-262.9228 160.8771,-252.4133 153.2745,-259.7923 159.5354,-262.9228"/>
</g>
<!-- 28 -->
<g id="node29" class="node">
<title>28</title>
<path fill="none" stroke="#d8ac56" stroke-width="2" d="M1487.0838,-252C1487.0838,-252 1405.0838,-252 1405.0838,-252 1399.0838,-252 1393.0838,-246 1393.0838,-240 1393.0838,-240 1393.0838,-228 1393.0838,-228 1393.0838,-222 1399.0838,-216 1405.0838,-216 1405.0838,-216 1487.0838,-216 1487.0838,-216 1493.0838,-216 1499.0838,-222 1499.0838,-228 1499.0838,-228 1499.0838,-240 1499.0838,-240 1499.0838,-246 1493.0838,-252 1487.0838,-252"/>
<text text-anchor="middle" x="1446.0838" y="-237" font-family="sans" font-size="10.00" fill="#000000">fastqc</text>
<text text-anchor="middle" x="1446.0838" y="-226" font-family="sans" font-size="10.00" fill="#000000">tool: low_complexity</text>
</g>
<!-- 28&#45;&gt;1 -->
<g id="edge18" class="edge">
<title>28&#45;&gt;1</title>
<path fill="none" stroke="#c0c0c0" stroke-width="2" d="M1426.2246,-215.8248C1401.6701,-194.5458 1357.6399,-160.1603 1313.0838,-144 1221.4723,-110.7729 922.7032,-95.7602 817.3059,-91.4064"/>
<polygon fill="#c0c0c0" stroke="#c0c0c0" stroke-width="2" points="817.2806,-87.9026 807.1472,-90.9952 816.9975,-94.8969 817.2806,-87.9026"/>
</g>
<!-- 29&#45;&gt;0 -->
<g id="edge2" class="edge">
<title>29&#45;&gt;0</title>
<path fill="none" stroke="#c0c0c0" stroke-width="2" d="M1550.2932,-299.7224C1578.6717,-293.0683 1614.0676,-279.4961 1632.0838,-252 1662.2966,-205.8893 1619.0042,-171.2515 1571.0838,-144 1446.0455,-72.8931 990.947,-31.631 857.2544,-20.8539"/>
<polygon fill="#c0c0c0" stroke="#c0c0c0" stroke-width="2" points="857.3594,-17.3513 847.1128,-20.0454 856.803,-24.3291 857.3594,-17.3513"/>
</g>
<!-- 29&#45;&gt;28 -->
<g id="edge46" class="edge">
<title>29&#45;&gt;28</title>
<path fill="none" stroke="#c0c0c0" stroke-width="2" d="M1492.4386,-287.8314C1485.2247,-279.454 1476.5268,-269.3531 1468.6233,-260.1749"/>
<polygon fill="#c0c0c0" stroke="#c0c0c0" stroke-width="2" points="1471.1171,-257.7071 1461.9396,-252.4133 1465.8127,-262.2748 1471.1171,-257.7071"/>
</g>
<!-- 37 -->
<g id="node38" class="node">
<title>37</title>
<path fill="none" stroke="#56d882" stroke-width="2" d="M1611.0838,-252C1611.0838,-252 1529.0838,-252 1529.0838,-252 1523.0838,-252 1517.0838,-246 1517.0838,-240 1517.0838,-240 1517.0838,-228 1517.0838,-228 1517.0838,-222 1523.0838,-216 1529.0838,-216 1529.0838,-216 1611.0838,-216 1611.0838,-216 1617.0838,-216 1623.0838,-222 1623.0838,-228 1623.0838,-228 1623.0838,-240 1623.0838,-240 1623.0838,-246 1617.0838,-252 1611.0838,-252"/>
<text text-anchor="middle" x="1570.0838" y="-237" font-family="sans" font-size="10.00" fill="#000000">nonpareil_infer</text>
<text text-anchor="middle" x="1570.0838" y="-226" font-family="sans" font-size="10.00" fill="#000000">tool: low_complexity</text>
</g>
<!-- 29&#45;&gt;37 -->
<g id="edge55" class="edge">
<title>29&#45;&gt;37</title>
<path fill="none" stroke="#c0c0c0" stroke-width="2" d="M1523.729,-287.8314C1530.9428,-279.454 1539.6408,-269.3531 1547.5442,-260.1749"/>
<polygon fill="#c0c0c0" stroke="#c0c0c0" stroke-width="2" points="1550.3548,-262.2748 1554.2279,-252.4133 1545.0504,-257.7071 1550.3548,-262.2748"/>
</g>
<!-- 30 -->
<g id="node31" class="node">
<title>30</title>
<path fill="none" stroke="#d8ac56" stroke-width="2" d="M983.0838,-252C983.0838,-252 901.0838,-252 901.0838,-252 895.0838,-252 889.0838,-246 889.0838,-240 889.0838,-240 889.0838,-228 889.0838,-228 889.0838,-222 895.0838,-216 901.0838,-216 901.0838,-216 983.0838,-216 983.0838,-216 989.0838,-216 995.0838,-222 995.0838,-228 995.0838,-228 995.0838,-240 995.0838,-240 995.0838,-246 989.0838,-252 983.0838,-252"/>
<text text-anchor="middle" x="942.0838" y="-237" font-family="sans" font-size="10.00" fill="#000000">fastqc</text>
<text text-anchor="middle" x="942.0838" y="-226" font-family="sans" font-size="10.00" fill="#000000">tool: low_complexity</text>
</g>
<!-- 30&#45;&gt;1 -->
<g id="edge19" class="edge">
<title>30&#45;&gt;1</title>
<path fill="none" stroke="#c0c0c0" stroke-width="2" d="M921.5664,-215.7623C892.8394,-190.2272 840.5318,-143.7316 808.1982,-114.9906"/>
<polygon fill="#c0c0c0" stroke="#c0c0c0" stroke-width="2" points="810.234,-112.1173 800.4346,-108.0896 805.5834,-117.3492 810.234,-112.1173"/>
</g>
<!-- 31&#45;&gt;0 -->
<g id="edge4" class="edge">
<title>31&#45;&gt;0</title>
<path fill="none" stroke="#c0c0c0" stroke-width="2" d="M839.2188,-287.5349C840.3165,-277.117 841.5363,-263.8504 842.0838,-252 845.5282,-177.4414 832.8184,-89.9633 825.281,-46.0937"/>
<polygon fill="#c0c0c0" stroke="#c0c0c0" stroke-width="2" points="828.7138,-45.4056 823.534,-36.1633 821.8197,-46.6185 828.7138,-45.4056"/>
</g>
<!-- 31&#45;&gt;30 -->
<g id="edge48" class="edge">
<title>31&#45;&gt;30</title>
<path fill="none" stroke="#c0c0c0" stroke-width="2" d="M863.5797,-287.8314C876.7611,-278.7927 892.8685,-267.7476 907.0549,-258.0198"/>
<polygon fill="#c0c0c0" stroke="#c0c0c0" stroke-width="2" points="909.3284,-260.7047 915.5963,-252.1628 905.3696,-254.9316 909.3284,-260.7047"/>
</g>
<!-- 35 -->
<g id="node36" class="node">
<title>35</title>
<path fill="none" stroke="#56d882" stroke-width="2" d="M821.0838,-252C821.0838,-252 739.0838,-252 739.0838,-252 733.0838,-252 727.0838,-246 727.0838,-240 727.0838,-240 727.0838,-228 727.0838,-228 727.0838,-222 733.0838,-216 739.0838,-216 739.0838,-216 821.0838,-216 821.0838,-216 827.0838,-216 833.0838,-222 833.0838,-228 833.0838,-228 833.0838,-240 833.0838,-240 833.0838,-246 827.0838,-252 821.0838,-252"/>
<text text-anchor="middle" x="780.0838" y="-237" font-family="sans" font-size="10.00" fill="#000000">nonpareil_infer</text>
<text text-anchor="middle" x="780.0838" y="-226" font-family="sans" font-size="10.00" fill="#000000">tool: low_complexity</text>
</g>
<!-- 31&#45;&gt;35 -->
<g id="edge53" class="edge">
<title>31&#45;&gt;35</title>
<path fill="none" stroke="#c0c0c0" stroke-width="2" d="M822.7003,-287.8314C816.1352,-279.5386 808.2331,-269.557 801.026,-260.4533"/>
<polygon fill="#c0c0c0" stroke="#c0c0c0" stroke-width="2" points="803.6122,-258.0813 794.6609,-252.4133 798.1238,-262.4262 803.6122,-258.0813"/>
</g>
<!-- 32 -->
<g id="node33" class="node">
<title>32</title>
<path fill="none" stroke="#56d8a9" stroke-width="2" d="M210.5838,-180C210.5838,-180 157.5838,-180 157.5838,-180 151.5838,-180 145.5838,-174 145.5838,-168 145.5838,-168 145.5838,-156 145.5838,-156 145.5838,-150 151.5838,-144 157.5838,-144 157.5838,-144 210.5838,-144 210.5838,-144 216.5838,-144 222.5838,-150 222.5838,-156 222.5838,-156 222.5838,-168 222.5838,-168 222.5838,-174 216.5838,-180 210.5838,-180"/>
<text text-anchor="middle" x="184.0838" y="-159.5" font-family="sans" font-size="10.00" fill="#000000">nonpareil_plot</text>
</g>
<!-- 32&#45;&gt;1 -->
<g id="edge20" class="edge">
<title>32&#45;&gt;1</title>
<path fill="none" stroke="#c0c0c0" stroke-width="2" d="M222.814,-146.2494C225.5873,-145.4058 228.3626,-144.6426 231.0838,-144 328.9563,-120.888 635.7045,-99.3557 742.7667,-92.3647"/>
<polygon fill="#c0c0c0" stroke="#c0c0c0" stroke-width="2" points="743.0302,-95.8551 752.7827,-91.7152 742.5772,-88.8697 743.0302,-95.8551"/>
</g>
<!-- 33&#45;&gt;32 -->
<g id="edge50" class="edge">
<title>33&#45;&gt;32</title>
<path fill="none" stroke="#c0c0c0" stroke-width="2" d="M173.6166,-215.8314C175.1139,-208.131 176.8943,-198.9743 178.5583,-190.4166"/>
<polygon fill="#c0c0c0" stroke="#c0c0c0" stroke-width="2" points="182.0303,-190.8975 180.5034,-180.4133 175.159,-189.5614 182.0303,-190.8975"/>
</g>
<!-- 34 -->
<g id="node35" class="node">
<title>34</title>
<path fill="none" stroke="#56d8a9" stroke-width="2" d="M806.5838,-180C806.5838,-180 753.5838,-180 753.5838,-180 747.5838,-180 741.5838,-174 741.5838,-168 741.5838,-168 741.5838,-156 741.5838,-156 741.5838,-150 747.5838,-144 753.5838,-144 753.5838,-144 806.5838,-144 806.5838,-144 812.5838,-144 818.5838,-150 818.5838,-156 818.5838,-156 818.5838,-168 818.5838,-168 818.5838,-174 812.5838,-180 806.5838,-180"/>
<text text-anchor="middle" x="780.0838" y="-159.5" font-family="sans" font-size="10.00" fill="#000000">nonpareil_plot</text>
</g>
<!-- 34&#45;&gt;1 -->
<g id="edge21" class="edge">
<title>34&#45;&gt;1</title>
<path fill="none" stroke="#c0c0c0" stroke-width="2" d="M780.0838,-143.8314C780.0838,-136.131 780.0838,-126.9743 780.0838,-118.4166"/>
<polygon fill="#c0c0c0" stroke="#c0c0c0" stroke-width="2" points="783.5839,-118.4132 780.0838,-108.4133 776.5839,-118.4133 783.5839,-118.4132"/>
</g>
<!-- 35&#45;&gt;34 -->
<g id="edge52" class="edge">
<title>35&#45;&gt;34</title>
<path fill="none" stroke="#c0c0c0" stroke-width="2" d="M780.0838,-215.8314C780.0838,-208.131 780.0838,-198.9743 780.0838,-190.4166"/>
<polygon fill="#c0c0c0" stroke="#c0c0c0" stroke-width="2" points="783.5839,-190.4132 780.0838,-180.4133 776.5839,-190.4133 783.5839,-190.4132"/>
</g>
<!-- 36 -->
<g id="node37" class="node">
<title>36</title>
<path fill="none" stroke="#56d8a9" stroke-width="2" d="M1549.5838,-180C1549.5838,-180 1496.5838,-180 1496.5838,-180 1490.5838,-180 1484.5838,-174 1484.5838,-168 1484.5838,-168 1484.5838,-156 1484.5838,-156 1484.5838,-150 1490.5838,-144 1496.5838,-144 1496.5838,-144 1549.5838,-144 1549.5838,-144 1555.5838,-144 1561.5838,-150 1561.5838,-156 1561.5838,-156 1561.5838,-168 1561.5838,-168 1561.5838,-174 1555.5838,-180 1549.5838,-180"/>
<text text-anchor="middle" x="1523.0838" y="-159.5" font-family="sans" font-size="10.00" fill="#000000">nonpareil_plot</text>
</g>
<!-- 36&#45;&gt;1 -->
<g id="edge22" class="edge">
<title>36&#45;&gt;1</title>
<path fill="none" stroke="#c0c0c0" stroke-width="2" d="M1484.365,-154.2345C1465.6188,-150.6965 1442.7464,-146.7043 1422.0838,-144 1193.0888,-114.0291 915.8504,-97.276 817.1562,-91.9159"/>
<polygon fill="#c0c0c0" stroke="#c0c0c0" stroke-width="2" points="817.2632,-88.4167 807.0898,-91.3752 816.8877,-95.4066 817.2632,-88.4167"/>
</g>
<!-- 37&#45;&gt;36 -->
<g id="edge54" class="edge">
<title>37&#45;&gt;36</title>
<path fill="none" stroke="#c0c0c0" stroke-width="2" d="M1558.2237,-215.8314C1552.9208,-207.7079 1546.5601,-197.9637 1540.7165,-189.0118"/>
<polygon fill="#c0c0c0" stroke="#c0c0c0" stroke-width="2" points="1543.5006,-186.8739 1535.1035,-180.4133 1537.639,-190.7003 1543.5006,-186.8739"/>
</g>
</g>
</svg>
