<?xml version="1.0" encoding="UTF-8" standalone="no"?>
<!DOCTYPE svg PUBLIC "-//W3C//DTD SVG 1.1//EN"
 "http://www.w3.org/Graphics/SVG/1.1/DTD/svg11.dtd">
<!-- Generated by graphviz version 2.40.1 (0)
 -->
<!-- Title: snakemake_dag Pages: 1 -->
<svg width="1411pt" height="420pt"
 viewBox="0.00 0.00 1411.49 420.00" xmlns="http://www.w3.org/2000/svg" xmlns:xlink="http://www.w3.org/1999/xlink">
<g id="graph0" class="graph" transform="scale(1 1) rotate(0) translate(4 416)">
<title>snakemake_dag</title>
<polygon fill="#ffffff" stroke="transparent" points="-4,4 -4,-416 1407.4862,-416 1407.4862,4 -4,4"/>
<!-- 0 -->
<g id="node1" class="node">
<title>0</title>
<path fill="none" stroke="#d85656" stroke-width="2" d="M745.4862,-36C745.4862,-36 715.4862,-36 715.4862,-36 709.4862,-36 703.4862,-30 703.4862,-24 703.4862,-24 703.4862,-12 703.4862,-12 703.4862,-6 709.4862,0 715.4862,0 715.4862,0 745.4862,0 745.4862,0 751.4862,0 757.4862,-6 757.4862,-12 757.4862,-12 757.4862,-24 757.4862,-24 757.4862,-30 751.4862,-36 745.4862,-36"/>
<text text-anchor="middle" x="730.4862" y="-15.5" font-family="sans" font-size="10.00" fill="#000000">all</text>
</g>
<!-- 1 -->
<g id="node2" class="node">
<title>1</title>
<path fill="none" stroke="#59d856" stroke-width="2" d="M745.4862,-108C745.4862,-108 715.4862,-108 715.4862,-108 709.4862,-108 703.4862,-102 703.4862,-96 703.4862,-96 703.4862,-84 703.4862,-84 703.4862,-78 709.4862,-72 715.4862,-72 715.4862,-72 745.4862,-72 745.4862,-72 751.4862,-72 757.4862,-78 757.4862,-84 757.4862,-84 757.4862,-96 757.4862,-96 757.4862,-102 751.4862,-108 745.4862,-108"/>
<text text-anchor="middle" x="730.4862" y="-87.5" font-family="sans" font-size="10.00" fill="#000000">multiqc</text>
</g>
<!-- 1&#45;&gt;0 -->
<g id="edge1" class="edge">
<title>1&#45;&gt;0</title>
<path fill="none" stroke="#c0c0c0" stroke-width="2" d="M730.4862,-71.8314C730.4862,-64.131 730.4862,-54.9743 730.4862,-46.4166"/>
<polygon fill="#c0c0c0" stroke="#c0c0c0" stroke-width="2" points="733.9863,-46.4132 730.4862,-36.4133 726.9863,-46.4133 733.9863,-46.4132"/>
</g>
<!-- 2 -->
<g id="node3" class="node">
<title>2</title>
<path fill="none" stroke="#d8ac56" stroke-width="2" d="M405.4862,-180C405.4862,-180 335.4862,-180 335.4862,-180 329.4862,-180 323.4862,-174 323.4862,-168 323.4862,-168 323.4862,-156 323.4862,-156 323.4862,-150 329.4862,-144 335.4862,-144 335.4862,-144 405.4862,-144 405.4862,-144 411.4862,-144 417.4862,-150 417.4862,-156 417.4862,-156 417.4862,-168 417.4862,-168 417.4862,-174 411.4862,-180 405.4862,-180"/>
<text text-anchor="middle" x="370.4862" y="-165" font-family="sans" font-size="10.00" fill="#000000">fastqc</text>
<text text-anchor="middle" x="370.4862" y="-154" font-family="sans" font-size="10.00" fill="#000000">tool: merge_lanes</text>
</g>
<!-- 2&#45;&gt;1 -->
<g id="edge6" class="edge">
<title>2&#45;&gt;1</title>
<path fill="none" stroke="#c0c0c0" stroke-width="2" d="M417.7133,-146.3242C420.6703,-145.4967 423.6119,-144.7137 426.4862,-144 521.499,-120.4063 635.6674,-102.9931 693.3028,-94.95"/>
<polygon fill="#c0c0c0" stroke="#c0c0c0" stroke-width="2" points="693.9619,-98.3923 703.3894,-93.5578 693.0047,-91.458 693.9619,-98.3923"/>
</g>
<!-- 3 -->
<g id="node4" class="node">
<title>3</title>
<path fill="none" stroke="#80d856" stroke-width="2" d="M582.4862,-412C582.4862,-412 478.4862,-412 478.4862,-412 472.4862,-412 466.4862,-406 466.4862,-400 466.4862,-400 466.4862,-372 466.4862,-372 466.4862,-366 472.4862,-360 478.4862,-360 478.4862,-360 582.4862,-360 582.4862,-360 588.4862,-360 594.4862,-366 594.4862,-372 594.4862,-372 594.4862,-400 594.4862,-400 594.4862,-406 588.4862,-412 582.4862,-412"/>
<text text-anchor="middle" x="530.4862" y="-400" font-family="sans" font-size="10.00" fill="#000000">merge_lanes</text>
<text text-anchor="middle" x="530.4862" y="-389" font-family="sans" font-size="10.00" fill="#000000">library: lib2</text>
<text text-anchor="middle" x="530.4862" y="-378" font-family="sans" font-size="10.00" fill="#000000">read_type_trim: collapsed</text>
<text text-anchor="middle" x="530.4862" y="-367" font-family="sans" font-size="10.00" fill="#000000">sample: HD827sonic_2</text>
</g>
<!-- 3&#45;&gt;2 -->
<g id="edge22" class="edge">
<title>3&#45;&gt;2</title>
<path fill="none" stroke="#c0c0c0" stroke-width="2" d="M511.819,-359.866C481.1249,-316.8942 420.3267,-231.7767 389.4438,-188.5407"/>
<polygon fill="#c0c0c0" stroke="#c0c0c0" stroke-width="2" points="392.167,-186.3315 383.5065,-180.2285 386.4708,-190.4002 392.167,-186.3315"/>
</g>
<!-- 17 -->
<g id="node18" class="node">
<title>17</title>
<path fill="none" stroke="#56d882" stroke-width="2" d="M671.4862,-324C671.4862,-324 601.4862,-324 601.4862,-324 595.4862,-324 589.4862,-318 589.4862,-312 589.4862,-312 589.4862,-300 589.4862,-300 589.4862,-294 595.4862,-288 601.4862,-288 601.4862,-288 671.4862,-288 671.4862,-288 677.4862,-288 683.4862,-294 683.4862,-300 683.4862,-300 683.4862,-312 683.4862,-312 683.4862,-318 677.4862,-324 671.4862,-324"/>
<text text-anchor="middle" x="636.4862" y="-309" font-family="sans" font-size="10.00" fill="#000000">nonpareil_infer</text>
<text text-anchor="middle" x="636.4862" y="-298" font-family="sans" font-size="10.00" fill="#000000">tool: merge_lanes</text>
</g>
<!-- 3&#45;&gt;17 -->
<g id="edge33" class="edge">
<title>3&#45;&gt;17</title>
<path fill="none" stroke="#c0c0c0" stroke-width="2" d="M565.1945,-359.805C577.7534,-350.3266 591.8741,-339.6695 604.2149,-330.3557"/>
<polygon fill="#c0c0c0" stroke="#c0c0c0" stroke-width="2" points="606.5596,-332.971 612.4331,-324.1532 602.3428,-327.3837 606.5596,-332.971"/>
</g>
<!-- 25 -->
<g id="node26" class="node">
<title>25</title>
<path fill="none" stroke="#56d8d8" stroke-width="2" d="M545.4862,-324C545.4862,-324 515.4862,-324 515.4862,-324 509.4862,-324 503.4862,-318 503.4862,-312 503.4862,-312 503.4862,-300 503.4862,-300 503.4862,-294 509.4862,-288 515.4862,-288 515.4862,-288 545.4862,-288 545.4862,-288 551.4862,-288 557.4862,-294 557.4862,-300 557.4862,-300 557.4862,-312 557.4862,-312 557.4862,-318 551.4862,-324 545.4862,-324"/>
<text text-anchor="middle" x="530.4862" y="-303.5" font-family="sans" font-size="10.00" fill="#000000">seqkit</text>
</g>
<!-- 3&#45;&gt;25 -->
<g id="edge41" class="edge">
<title>3&#45;&gt;25</title>
<path fill="none" stroke="#c0c0c0" stroke-width="2" d="M530.4862,-359.805C530.4862,-351.6026 530.4862,-342.5174 530.4862,-334.1839"/>
<polygon fill="#c0c0c0" stroke="#c0c0c0" stroke-width="2" points="533.9863,-334.1532 530.4862,-324.1532 526.9863,-334.1533 533.9863,-334.1532"/>
</g>
<!-- 4 -->
<g id="node5" class="node">
<title>4</title>
<path fill="none" stroke="#d8ac56" stroke-width="2" d="M817.4862,-180C817.4862,-180 747.4862,-180 747.4862,-180 741.4862,-180 735.4862,-174 735.4862,-168 735.4862,-168 735.4862,-156 735.4862,-156 735.4862,-150 741.4862,-144 747.4862,-144 747.4862,-144 817.4862,-144 817.4862,-144 823.4862,-144 829.4862,-150 829.4862,-156 829.4862,-156 829.4862,-168 829.4862,-168 829.4862,-174 823.4862,-180 817.4862,-180"/>
<text text-anchor="middle" x="782.4862" y="-165" font-family="sans" font-size="10.00" fill="#000000">fastqc</text>
<text text-anchor="middle" x="782.4862" y="-154" font-family="sans" font-size="10.00" fill="#000000">tool: merge_lanes</text>
</g>
<!-- 4&#45;&gt;1 -->
<g id="edge7" class="edge">
<title>4&#45;&gt;1</title>
<path fill="none" stroke="#c0c0c0" stroke-width="2" d="M769.3644,-143.8314C763.4363,-135.6232 756.3132,-125.7606 749.7928,-116.7323"/>
<polygon fill="#c0c0c0" stroke="#c0c0c0" stroke-width="2" points="752.477,-114.4708 743.7846,-108.4133 746.8022,-118.5693 752.477,-114.4708"/>
</g>
<!-- 5 -->
<g id="node6" class="node">
<title>5</title>
<path fill="none" stroke="#80d856" stroke-width="2" d="M927.4862,-412C927.4862,-412 823.4862,-412 823.4862,-412 817.4862,-412 811.4862,-406 811.4862,-400 811.4862,-400 811.4862,-372 811.4862,-372 811.4862,-366 817.4862,-360 823.4862,-360 823.4862,-360 927.4862,-360 927.4862,-360 933.4862,-360 939.4862,-366 939.4862,-372 939.4862,-372 939.4862,-400 939.4862,-400 939.4862,-406 933.4862,-412 927.4862,-412"/>
<text text-anchor="middle" x="875.4862" y="-400" font-family="sans" font-size="10.00" fill="#000000">merge_lanes</text>
<text text-anchor="middle" x="875.4862" y="-389" font-family="sans" font-size="10.00" fill="#000000">library: lib1</text>
<text text-anchor="middle" x="875.4862" y="-378" font-family="sans" font-size="10.00" fill="#000000">read_type_trim: collapsed</text>
<text text-anchor="middle" x="875.4862" y="-367" font-family="sans" font-size="10.00" fill="#000000">sample: HD827sonic_2</text>
</g>
<!-- 5&#45;&gt;4 -->
<g id="edge23" class="edge">
<title>5&#45;&gt;4</title>
<path fill="none" stroke="#c0c0c0" stroke-width="2" d="M846.483,-359.9343C836.5891,-349.6346 826.3124,-337.1257 819.4862,-324 796.9054,-280.5807 788.004,-223.5689 784.5681,-190.0451"/>
<polygon fill="#c0c0c0" stroke="#c0c0c0" stroke-width="2" points="788.0479,-189.6647 783.6341,-180.033 781.0781,-190.3149 788.0479,-189.6647"/>
</g>
<!-- 15 -->
<g id="node16" class="node">
<title>15</title>
<path fill="none" stroke="#56d882" stroke-width="2" d="M910.4862,-324C910.4862,-324 840.4862,-324 840.4862,-324 834.4862,-324 828.4862,-318 828.4862,-312 828.4862,-312 828.4862,-300 828.4862,-300 828.4862,-294 834.4862,-288 840.4862,-288 840.4862,-288 910.4862,-288 910.4862,-288 916.4862,-288 922.4862,-294 922.4862,-300 922.4862,-300 922.4862,-312 922.4862,-312 922.4862,-318 916.4862,-324 910.4862,-324"/>
<text text-anchor="middle" x="875.4862" y="-309" font-family="sans" font-size="10.00" fill="#000000">nonpareil_infer</text>
<text text-anchor="middle" x="875.4862" y="-298" font-family="sans" font-size="10.00" fill="#000000">tool: merge_lanes</text>
</g>
<!-- 5&#45;&gt;15 -->
<g id="edge31" class="edge">
<title>5&#45;&gt;15</title>
<path fill="none" stroke="#c0c0c0" stroke-width="2" d="M875.4862,-359.805C875.4862,-351.6026 875.4862,-342.5174 875.4862,-334.1839"/>
<polygon fill="#c0c0c0" stroke="#c0c0c0" stroke-width="2" points="878.9863,-334.1532 875.4862,-324.1532 871.9863,-334.1533 878.9863,-334.1532"/>
</g>
<!-- 23 -->
<g id="node24" class="node">
<title>23</title>
<path fill="none" stroke="#56d8d8" stroke-width="2" d="M982.4862,-324C982.4862,-324 952.4862,-324 952.4862,-324 946.4862,-324 940.4862,-318 940.4862,-312 940.4862,-312 940.4862,-300 940.4862,-300 940.4862,-294 946.4862,-288 952.4862,-288 952.4862,-288 982.4862,-288 982.4862,-288 988.4862,-288 994.4862,-294 994.4862,-300 994.4862,-300 994.4862,-312 994.4862,-312 994.4862,-318 988.4862,-324 982.4862,-324"/>
<text text-anchor="middle" x="967.4862" y="-303.5" font-family="sans" font-size="10.00" fill="#000000">seqkit</text>
</g>
<!-- 5&#45;&gt;23 -->
<g id="edge39" class="edge">
<title>5&#45;&gt;23</title>
<path fill="none" stroke="#c0c0c0" stroke-width="2" d="M905.6104,-359.805C916.3009,-350.5089 928.2953,-340.079 938.8575,-330.8945"/>
<polygon fill="#c0c0c0" stroke="#c0c0c0" stroke-width="2" points="941.3605,-333.3562 946.6099,-324.1532 936.7672,-328.0739 941.3605,-333.3562"/>
</g>
<!-- 6 -->
<g id="node7" class="node">
<title>6</title>
<path fill="none" stroke="#d8ac56" stroke-width="2" d="M334.4862,-252C334.4862,-252 264.4862,-252 264.4862,-252 258.4862,-252 252.4862,-246 252.4862,-240 252.4862,-240 252.4862,-228 252.4862,-228 252.4862,-222 258.4862,-216 264.4862,-216 264.4862,-216 334.4862,-216 334.4862,-216 340.4862,-216 346.4862,-222 346.4862,-228 346.4862,-228 346.4862,-240 346.4862,-240 346.4862,-246 340.4862,-252 334.4862,-252"/>
<text text-anchor="middle" x="299.4862" y="-237" font-family="sans" font-size="10.00" fill="#000000">fastqc</text>
<text text-anchor="middle" x="299.4862" y="-226" font-family="sans" font-size="10.00" fill="#000000">tool: merge_lanes</text>
</g>
<!-- 6&#45;&gt;1 -->
<g id="edge8" class="edge">
<title>6&#45;&gt;1</title>
<path fill="none" stroke="#c0c0c0" stroke-width="2" d="M296.7951,-215.9564C294.858,-195.4615 295.3323,-162.4752 314.4862,-144 341.5794,-117.8667 596.2436,-98.7236 693.2279,-92.3252"/>
<polygon fill="#c0c0c0" stroke="#c0c0c0" stroke-width="2" points="693.6985,-95.802 703.4499,-91.6596 693.2436,-88.8168 693.6985,-95.802"/>
</g>
<!-- 7 -->
<g id="node8" class="node">
<title>7</title>
<path fill="none" stroke="#80d856" stroke-width="2" d="M276.4862,-412C276.4862,-412 172.4862,-412 172.4862,-412 166.4862,-412 160.4862,-406 160.4862,-400 160.4862,-400 160.4862,-372 160.4862,-372 160.4862,-366 166.4862,-360 172.4862,-360 172.4862,-360 276.4862,-360 276.4862,-360 282.4862,-360 288.4862,-366 288.4862,-372 288.4862,-372 288.4862,-400 288.4862,-400 288.4862,-406 282.4862,-412 276.4862,-412"/>
<text text-anchor="middle" x="224.4862" y="-400" font-family="sans" font-size="10.00" fill="#000000">merge_lanes</text>
<text text-anchor="middle" x="224.4862" y="-389" font-family="sans" font-size="10.00" fill="#000000">library: lib1</text>
<text text-anchor="middle" x="224.4862" y="-378" font-family="sans" font-size="10.00" fill="#000000">read_type_trim: collapsed</text>
<text text-anchor="middle" x="224.4862" y="-367" font-family="sans" font-size="10.00" fill="#000000">sample: HD827sonic_1</text>
</g>
<!-- 7&#45;&gt;6 -->
<g id="edge24" class="edge">
<title>7&#45;&gt;6</title>
<path fill="none" stroke="#c0c0c0" stroke-width="2" d="M253.607,-359.9949C263.5137,-349.7017 273.7684,-337.1816 280.4862,-324 290.3058,-304.7319 295.0533,-280.6642 297.347,-262.2667"/>
<polygon fill="#c0c0c0" stroke="#c0c0c0" stroke-width="2" points="300.8435,-262.486 298.4337,-252.1689 293.8837,-261.7369 300.8435,-262.486"/>
</g>
<!-- 11 -->
<g id="node12" class="node">
<title>11</title>
<path fill="none" stroke="#56d882" stroke-width="2" d="M259.4862,-324C259.4862,-324 189.4862,-324 189.4862,-324 183.4862,-324 177.4862,-318 177.4862,-312 177.4862,-312 177.4862,-300 177.4862,-300 177.4862,-294 183.4862,-288 189.4862,-288 189.4862,-288 259.4862,-288 259.4862,-288 265.4862,-288 271.4862,-294 271.4862,-300 271.4862,-300 271.4862,-312 271.4862,-312 271.4862,-318 265.4862,-324 259.4862,-324"/>
<text text-anchor="middle" x="224.4862" y="-309" font-family="sans" font-size="10.00" fill="#000000">nonpareil_infer</text>
<text text-anchor="middle" x="224.4862" y="-298" font-family="sans" font-size="10.00" fill="#000000">tool: merge_lanes</text>
</g>
<!-- 7&#45;&gt;11 -->
<g id="edge27" class="edge">
<title>7&#45;&gt;11</title>
<path fill="none" stroke="#c0c0c0" stroke-width="2" d="M224.4862,-359.805C224.4862,-351.6026 224.4862,-342.5174 224.4862,-334.1839"/>
<polygon fill="#c0c0c0" stroke="#c0c0c0" stroke-width="2" points="227.9863,-334.1532 224.4862,-324.1532 220.9863,-334.1533 227.9863,-334.1532"/>
</g>
<!-- 21 -->
<g id="node22" class="node">
<title>21</title>
<path fill="none" stroke="#56d8d8" stroke-width="2" d="M147.4862,-324C147.4862,-324 117.4862,-324 117.4862,-324 111.4862,-324 105.4862,-318 105.4862,-312 105.4862,-312 105.4862,-300 105.4862,-300 105.4862,-294 111.4862,-288 117.4862,-288 117.4862,-288 147.4862,-288 147.4862,-288 153.4862,-288 159.4862,-294 159.4862,-300 159.4862,-300 159.4862,-312 159.4862,-312 159.4862,-318 153.4862,-324 147.4862,-324"/>
<text text-anchor="middle" x="132.4862" y="-303.5" font-family="sans" font-size="10.00" fill="#000000">seqkit</text>
</g>
<!-- 7&#45;&gt;21 -->
<g id="edge37" class="edge">
<title>7&#45;&gt;21</title>
<path fill="none" stroke="#c0c0c0" stroke-width="2" d="M194.3619,-359.805C183.6714,-350.5089 171.677,-340.079 161.1148,-330.8945"/>
<polygon fill="#c0c0c0" stroke="#c0c0c0" stroke-width="2" points="163.2051,-328.0739 153.3624,-324.1532 158.6118,-333.3562 163.2051,-328.0739"/>
</g>
<!-- 8 -->
<g id="node9" class="node">
<title>8</title>
<path fill="none" stroke="#d8ac56" stroke-width="2" d="M1127.4862,-324C1127.4862,-324 1057.4862,-324 1057.4862,-324 1051.4862,-324 1045.4862,-318 1045.4862,-312 1045.4862,-312 1045.4862,-300 1045.4862,-300 1045.4862,-294 1051.4862,-288 1057.4862,-288 1057.4862,-288 1127.4862,-288 1127.4862,-288 1133.4862,-288 1139.4862,-294 1139.4862,-300 1139.4862,-300 1139.4862,-312 1139.4862,-312 1139.4862,-318 1133.4862,-324 1127.4862,-324"/>
<text text-anchor="middle" x="1092.4862" y="-309" font-family="sans" font-size="10.00" fill="#000000">fastqc</text>
<text text-anchor="middle" x="1092.4862" y="-298" font-family="sans" font-size="10.00" fill="#000000">tool: merge_lanes</text>
</g>
<!-- 8&#45;&gt;1 -->
<g id="edge9" class="edge">
<title>8&#45;&gt;1</title>
<path fill="none" stroke="#c0c0c0" stroke-width="2" d="M1099.9201,-287.8387C1112.0909,-254.8336 1131.6003,-184.6751 1096.4862,-144 1075.1352,-119.2678 856.4985,-99.7363 767.6853,-92.7631"/>
<polygon fill="#c0c0c0" stroke="#c0c0c0" stroke-width="2" points="767.7605,-89.2586 757.5199,-91.9755 767.2197,-96.2376 767.7605,-89.2586"/>
</g>
<!-- 9 -->
<g id="node10" class="node">
<title>9</title>
<path fill="none" stroke="#80d856" stroke-width="2" d="M1256.4862,-412C1256.4862,-412 1152.4862,-412 1152.4862,-412 1146.4862,-412 1140.4862,-406 1140.4862,-400 1140.4862,-400 1140.4862,-372 1140.4862,-372 1140.4862,-366 1146.4862,-360 1152.4862,-360 1152.4862,-360 1256.4862,-360 1256.4862,-360 1262.4862,-360 1268.4862,-366 1268.4862,-372 1268.4862,-372 1268.4862,-400 1268.4862,-400 1268.4862,-406 1262.4862,-412 1256.4862,-412"/>
<text text-anchor="middle" x="1204.4862" y="-400" font-family="sans" font-size="10.00" fill="#000000">merge_lanes</text>
<text text-anchor="middle" x="1204.4862" y="-389" font-family="sans" font-size="10.00" fill="#000000">library: lib3</text>
<text text-anchor="middle" x="1204.4862" y="-378" font-family="sans" font-size="10.00" fill="#000000">read_type_trim: collapsed</text>
<text text-anchor="middle" x="1204.4862" y="-367" font-family="sans" font-size="10.00" fill="#000000">sample: HD827sonic_2</text>
</g>
<!-- 9&#45;&gt;8 -->
<g id="edge25" class="edge">
<title>9&#45;&gt;8</title>
<path fill="none" stroke="#c0c0c0" stroke-width="2" d="M1167.8132,-359.805C1154.4159,-350.2355 1139.3364,-339.4645 1126.2085,-330.0874"/>
<polygon fill="#c0c0c0" stroke="#c0c0c0" stroke-width="2" points="1128.0724,-327.1176 1117.9007,-324.1532 1124.0037,-332.8137 1128.0724,-327.1176"/>
</g>
<!-- 13 -->
<g id="node14" class="node">
<title>13</title>
<path fill="none" stroke="#56d882" stroke-width="2" d="M1239.4862,-324C1239.4862,-324 1169.4862,-324 1169.4862,-324 1163.4862,-324 1157.4862,-318 1157.4862,-312 1157.4862,-312 1157.4862,-300 1157.4862,-300 1157.4862,-294 1163.4862,-288 1169.4862,-288 1169.4862,-288 1239.4862,-288 1239.4862,-288 1245.4862,-288 1251.4862,-294 1251.4862,-300 1251.4862,-300 1251.4862,-312 1251.4862,-312 1251.4862,-318 1245.4862,-324 1239.4862,-324"/>
<text text-anchor="middle" x="1204.4862" y="-309" font-family="sans" font-size="10.00" fill="#000000">nonpareil_infer</text>
<text text-anchor="middle" x="1204.4862" y="-298" font-family="sans" font-size="10.00" fill="#000000">tool: merge_lanes</text>
</g>
<!-- 9&#45;&gt;13 -->
<g id="edge29" class="edge">
<title>9&#45;&gt;13</title>
<path fill="none" stroke="#c0c0c0" stroke-width="2" d="M1204.4862,-359.805C1204.4862,-351.6026 1204.4862,-342.5174 1204.4862,-334.1839"/>
<polygon fill="#c0c0c0" stroke="#c0c0c0" stroke-width="2" points="1207.9863,-334.1532 1204.4862,-324.1532 1200.9863,-334.1533 1207.9863,-334.1532"/>
</g>
<!-- 19 -->
<g id="node20" class="node">
<title>19</title>
<path fill="none" stroke="#56d8d8" stroke-width="2" d="M1311.4862,-324C1311.4862,-324 1281.4862,-324 1281.4862,-324 1275.4862,-324 1269.4862,-318 1269.4862,-312 1269.4862,-312 1269.4862,-300 1269.4862,-300 1269.4862,-294 1275.4862,-288 1281.4862,-288 1281.4862,-288 1311.4862,-288 1311.4862,-288 1317.4862,-288 1323.4862,-294 1323.4862,-300 1323.4862,-300 1323.4862,-312 1323.4862,-312 1323.4862,-318 1317.4862,-324 1311.4862,-324"/>
<text text-anchor="middle" x="1296.4862" y="-303.5" font-family="sans" font-size="10.00" fill="#000000">seqkit</text>
</g>
<!-- 9&#45;&gt;19 -->
<g id="edge35" class="edge">
<title>9&#45;&gt;19</title>
<path fill="none" stroke="#c0c0c0" stroke-width="2" d="M1234.6104,-359.805C1245.3009,-350.5089 1257.2953,-340.079 1267.8575,-330.8945"/>
<polygon fill="#c0c0c0" stroke="#c0c0c0" stroke-width="2" points="1270.3605,-333.3562 1275.6099,-324.1532 1265.7672,-328.0739 1270.3605,-333.3562"/>
</g>
<!-- 10 -->
<g id="node11" class="node">
<title>10</title>
<path fill="none" stroke="#56d8a9" stroke-width="2" d="M254.9862,-180C254.9862,-180 201.9862,-180 201.9862,-180 195.9862,-180 189.9862,-174 189.9862,-168 189.9862,-168 189.9862,-156 189.9862,-156 189.9862,-150 195.9862,-144 201.9862,-144 201.9862,-144 254.9862,-144 254.9862,-144 260.9862,-144 266.9862,-150 266.9862,-156 266.9862,-156 266.9862,-168 266.9862,-168 266.9862,-174 260.9862,-180 254.9862,-180"/>
<text text-anchor="middle" x="228.4862" y="-159.5" font-family="sans" font-size="10.00" fill="#000000">nonpareil_plot</text>
</g>
<!-- 10&#45;&gt;1 -->
<g id="edge10" class="edge">
<title>10&#45;&gt;1</title>
<path fill="none" stroke="#c0c0c0" stroke-width="2" d="M267.0069,-147.8841C271.8393,-146.4202 276.7483,-145.0771 281.4862,-144 431.7484,-109.8385 615.5236,-96.3178 693.1023,-91.8682"/>
<polygon fill="#c0c0c0" stroke="#c0c0c0" stroke-width="2" points="693.5394,-95.3494 703.3296,-91.2993 693.1506,-88.3602 693.5394,-95.3494"/>
</g>
<!-- 11&#45;&gt;10 -->
<g id="edge26" class="edge">
<title>11&#45;&gt;10</title>
<path fill="none" stroke="#c0c0c0" stroke-width="2" d="M224.9928,-287.7623C225.675,-263.201 226.896,-219.2474 227.6985,-190.3541"/>
<polygon fill="#c0c0c0" stroke="#c0c0c0" stroke-width="2" points="231.2046,-190.183 227.9837,-180.0896 224.2073,-189.9885 231.2046,-190.183"/>
</g>
<!-- 12 -->
<g id="node13" class="node">
<title>12</title>
<path fill="none" stroke="#56d8a9" stroke-width="2" d="M1208.9862,-252C1208.9862,-252 1155.9862,-252 1155.9862,-252 1149.9862,-252 1143.9862,-246 1143.9862,-240 1143.9862,-240 1143.9862,-228 1143.9862,-228 1143.9862,-222 1149.9862,-216 1155.9862,-216 1155.9862,-216 1208.9862,-216 1208.9862,-216 1214.9862,-216 1220.9862,-222 1220.9862,-228 1220.9862,-228 1220.9862,-240 1220.9862,-240 1220.9862,-246 1214.9862,-252 1208.9862,-252"/>
<text text-anchor="middle" x="1182.4862" y="-231.5" font-family="sans" font-size="10.00" fill="#000000">nonpareil_plot</text>
</g>
<!-- 12&#45;&gt;1 -->
<g id="edge11" class="edge">
<title>12&#45;&gt;1</title>
<path fill="none" stroke="#c0c0c0" stroke-width="2" d="M1177.1262,-215.7586C1169.9313,-194.7512 1155.0088,-160.9617 1129.4862,-144 1070.5349,-104.8224 855.1546,-93.8364 767.7348,-90.956"/>
<polygon fill="#c0c0c0" stroke="#c0c0c0" stroke-width="2" points="767.8317,-87.4574 757.7274,-90.6436 767.6132,-94.454 767.8317,-87.4574"/>
</g>
<!-- 13&#45;&gt;12 -->
<g id="edge28" class="edge">
<title>13&#45;&gt;12</title>
<path fill="none" stroke="#c0c0c0" stroke-width="2" d="M1198.9346,-287.8314C1196.5559,-280.0463 1193.7223,-270.7729 1191.0829,-262.1347"/>
<polygon fill="#c0c0c0" stroke="#c0c0c0" stroke-width="2" points="1194.3819,-260.954 1188.1124,-252.4133 1187.6875,-262.9996 1194.3819,-260.954"/>
</g>
<!-- 14 -->
<g id="node15" class="node">
<title>14</title>
<path fill="none" stroke="#56d8a9" stroke-width="2" d="M912.9862,-180C912.9862,-180 859.9862,-180 859.9862,-180 853.9862,-180 847.9862,-174 847.9862,-168 847.9862,-168 847.9862,-156 847.9862,-156 847.9862,-150 853.9862,-144 859.9862,-144 859.9862,-144 912.9862,-144 912.9862,-144 918.9862,-144 924.9862,-150 924.9862,-156 924.9862,-156 924.9862,-168 924.9862,-168 924.9862,-174 918.9862,-180 912.9862,-180"/>
<text text-anchor="middle" x="886.4862" y="-159.5" font-family="sans" font-size="10.00" fill="#000000">nonpareil_plot</text>
</g>
<!-- 14&#45;&gt;1 -->
<g id="edge12" class="edge">
<title>14&#45;&gt;1</title>
<path fill="none" stroke="#c0c0c0" stroke-width="2" d="M847.9244,-144.2022C823.2318,-132.8057 791.3835,-118.1065 767.084,-106.8913"/>
<polygon fill="#c0c0c0" stroke="#c0c0c0" stroke-width="2" points="768.3869,-103.6379 757.8406,-102.6251 765.4535,-109.9936 768.3869,-103.6379"/>
</g>
<!-- 15&#45;&gt;14 -->
<g id="edge30" class="edge">
<title>15&#45;&gt;14</title>
<path fill="none" stroke="#c0c0c0" stroke-width="2" d="M876.8793,-287.7623C878.7555,-263.201 882.1131,-219.2474 884.3202,-190.3541"/>
<polygon fill="#c0c0c0" stroke="#c0c0c0" stroke-width="2" points="887.8324,-190.3272 885.1043,-180.0896 880.8527,-189.794 887.8324,-190.3272"/>
</g>
<!-- 16 -->
<g id="node17" class="node">
<title>16</title>
<path fill="none" stroke="#56d8a9" stroke-width="2" d="M704.9862,-180C704.9862,-180 651.9862,-180 651.9862,-180 645.9862,-180 639.9862,-174 639.9862,-168 639.9862,-168 639.9862,-156 639.9862,-156 639.9862,-150 645.9862,-144 651.9862,-144 651.9862,-144 704.9862,-144 704.9862,-144 710.9862,-144 716.9862,-150 716.9862,-156 716.9862,-156 716.9862,-168 716.9862,-168 716.9862,-174 710.9862,-180 704.9862,-180"/>
<text text-anchor="middle" x="678.4862" y="-159.5" font-family="sans" font-size="10.00" fill="#000000">nonpareil_plot</text>
</g>
<!-- 16&#45;&gt;1 -->
<g id="edge13" class="edge">
<title>16&#45;&gt;1</title>
<path fill="none" stroke="#c0c0c0" stroke-width="2" d="M691.608,-143.8314C697.536,-135.6232 704.6591,-125.7606 711.1795,-116.7323"/>
<polygon fill="#c0c0c0" stroke="#c0c0c0" stroke-width="2" points="714.1701,-118.5693 717.1877,-108.4133 708.4954,-114.4708 714.1701,-118.5693"/>
</g>
<!-- 17&#45;&gt;16 -->
<g id="edge32" class="edge">
<title>17&#45;&gt;16</title>
<path fill="none" stroke="#c0c0c0" stroke-width="2" d="M641.8055,-287.7623C649.0007,-263.0928 661.9021,-218.8598 670.3273,-189.9731"/>
<polygon fill="#c0c0c0" stroke="#c0c0c0" stroke-width="2" points="673.77,-190.6696 673.21,-180.0896 667.05,-188.7096 673.77,-190.6696"/>
</g>
<!-- 18 -->
<g id="node19" class="node">
<title>18</title>
<path fill="none" stroke="#d8ac56" stroke-width="2" d="M1289.4862,-252C1289.4862,-252 1251.4862,-252 1251.4862,-252 1245.4862,-252 1239.4862,-246 1239.4862,-240 1239.4862,-240 1239.4862,-228 1239.4862,-228 1239.4862,-222 1245.4862,-216 1251.4862,-216 1251.4862,-216 1289.4862,-216 1289.4862,-216 1295.4862,-216 1301.4862,-222 1301.4862,-228 1301.4862,-228 1301.4862,-240 1301.4862,-240 1301.4862,-246 1295.4862,-252 1289.4862,-252"/>
<text text-anchor="middle" x="1270.4862" y="-237" font-family="sans" font-size="10.00" fill="#000000">fastqc</text>
<text text-anchor="middle" x="1270.4862" y="-226" font-family="sans" font-size="10.00" fill="#000000">tool: derep</text>
</g>
<!-- 18&#45;&gt;1 -->
<g id="edge14" class="edge">
<title>18&#45;&gt;1</title>
<path fill="none" stroke="#c0c0c0" stroke-width="2" d="M1250.4299,-215.6375C1224.0536,-191.897 1178.6941,-152.5726 1158.4862,-144 1088.1856,-114.1771 858.2993,-97.6016 767.6836,-92.0922"/>
<polygon fill="#c0c0c0" stroke="#c0c0c0" stroke-width="2" points="767.7846,-88.592 757.5937,-91.4896 767.3672,-95.5796 767.7846,-88.592"/>
</g>
<!-- 19&#45;&gt;18 -->
<g id="edge34" class="edge">
<title>19&#45;&gt;18</title>
<path fill="none" stroke="#c0c0c0" stroke-width="2" d="M1289.9253,-287.8314C1287.0834,-279.9617 1283.6924,-270.5712 1280.5443,-261.8533"/>
<polygon fill="#c0c0c0" stroke="#c0c0c0" stroke-width="2" points="1283.8238,-260.63 1277.1354,-252.4133 1277.24,-263.0076 1283.8238,-260.63"/>
</g>
<!-- 31 -->
<g id="node32" class="node">
<title>31</title>
<path fill="none" stroke="#afd856" stroke-width="2" d="M1391.4862,-252C1391.4862,-252 1331.4862,-252 1331.4862,-252 1325.4862,-252 1319.4862,-246 1319.4862,-240 1319.4862,-240 1319.4862,-228 1319.4862,-228 1319.4862,-222 1325.4862,-216 1331.4862,-216 1331.4862,-216 1391.4862,-216 1391.4862,-216 1397.4862,-216 1403.4862,-222 1403.4862,-228 1403.4862,-228 1403.4862,-240 1403.4862,-240 1403.4862,-246 1397.4862,-252 1391.4862,-252"/>
<text text-anchor="middle" x="1361.4862" y="-231.5" font-family="sans" font-size="10.00" fill="#000000">low_complexity</text>
</g>
<!-- 19&#45;&gt;31 -->
<g id="edge47" class="edge">
<title>19&#45;&gt;31</title>
<path fill="none" stroke="#c0c0c0" stroke-width="2" d="M1312.8884,-287.8314C1320.5277,-279.3694 1329.7545,-269.1489 1338.1068,-259.8971"/>
<polygon fill="#c0c0c0" stroke="#c0c0c0" stroke-width="2" points="1340.76,-262.1813 1344.8631,-252.4133 1335.5641,-257.4906 1340.76,-262.1813"/>
</g>
<!-- 20 -->
<g id="node21" class="node">
<title>20</title>
<path fill="none" stroke="#d8ac56" stroke-width="2" d="M180.4862,-252C180.4862,-252 142.4862,-252 142.4862,-252 136.4862,-252 130.4862,-246 130.4862,-240 130.4862,-240 130.4862,-228 130.4862,-228 130.4862,-222 136.4862,-216 142.4862,-216 142.4862,-216 180.4862,-216 180.4862,-216 186.4862,-216 192.4862,-222 192.4862,-228 192.4862,-228 192.4862,-240 192.4862,-240 192.4862,-246 186.4862,-252 180.4862,-252"/>
<text text-anchor="middle" x="161.4862" y="-237" font-family="sans" font-size="10.00" fill="#000000">fastqc</text>
<text text-anchor="middle" x="161.4862" y="-226" font-family="sans" font-size="10.00" fill="#000000">tool: derep</text>
</g>
<!-- 20&#45;&gt;1 -->
<g id="edge15" class="edge">
<title>20&#45;&gt;1</title>
<path fill="none" stroke="#c0c0c0" stroke-width="2" d="M159.5929,-215.7515C158.5628,-195.0641 160.4996,-161.8972 180.4862,-144 218.6081,-109.8631 575.1593,-95.1205 692.9329,-91.155"/>
<polygon fill="#c0c0c0" stroke="#c0c0c0" stroke-width="2" points="693.3688,-94.6426 703.248,-90.8148 693.1381,-87.6464 693.3688,-94.6426"/>
</g>
<!-- 21&#45;&gt;20 -->
<g id="edge36" class="edge">
<title>21&#45;&gt;20</title>
<path fill="none" stroke="#c0c0c0" stroke-width="2" d="M139.8041,-287.8314C142.9738,-279.9617 146.7561,-270.5712 150.2675,-261.8533"/>
<polygon fill="#c0c0c0" stroke="#c0c0c0" stroke-width="2" points="153.5801,-262.9968 154.0697,-252.4133 147.087,-260.3815 153.5801,-262.9968"/>
</g>
<!-- 29 -->
<g id="node30" class="node">
<title>29</title>
<path fill="none" stroke="#afd856" stroke-width="2" d="M100.4862,-252C100.4862,-252 40.4862,-252 40.4862,-252 34.4862,-252 28.4862,-246 28.4862,-240 28.4862,-240 28.4862,-228 28.4862,-228 28.4862,-222 34.4862,-216 40.4862,-216 40.4862,-216 100.4862,-216 100.4862,-216 106.4862,-216 112.4862,-222 112.4862,-228 112.4862,-228 112.4862,-240 112.4862,-240 112.4862,-246 106.4862,-252 100.4862,-252"/>
<text text-anchor="middle" x="70.4862" y="-231.5" font-family="sans" font-size="10.00" fill="#000000">low_complexity</text>
</g>
<!-- 21&#45;&gt;29 -->
<g id="edge45" class="edge">
<title>21&#45;&gt;29</title>
<path fill="none" stroke="#c0c0c0" stroke-width="2" d="M116.8409,-287.8314C109.6271,-279.454 100.9291,-269.3531 93.0257,-260.1749"/>
<polygon fill="#c0c0c0" stroke="#c0c0c0" stroke-width="2" points="95.5195,-257.7071 86.342,-252.4133 90.2151,-262.2748 95.5195,-257.7071"/>
</g>
<!-- 22 -->
<g id="node23" class="node">
<title>22</title>
<path fill="none" stroke="#d8ac56" stroke-width="2" d="M972.4862,-252C972.4862,-252 934.4862,-252 934.4862,-252 928.4862,-252 922.4862,-246 922.4862,-240 922.4862,-240 922.4862,-228 922.4862,-228 922.4862,-222 928.4862,-216 934.4862,-216 934.4862,-216 972.4862,-216 972.4862,-216 978.4862,-216 984.4862,-222 984.4862,-228 984.4862,-228 984.4862,-240 984.4862,-240 984.4862,-246 978.4862,-252 972.4862,-252"/>
<text text-anchor="middle" x="953.4862" y="-237" font-family="sans" font-size="10.00" fill="#000000">fastqc</text>
<text text-anchor="middle" x="953.4862" y="-226" font-family="sans" font-size="10.00" fill="#000000">tool: derep</text>
</g>
<!-- 22&#45;&gt;1 -->
<g id="edge16" class="edge">
<title>22&#45;&gt;1</title>
<path fill="none" stroke="#c0c0c0" stroke-width="2" d="M954.8558,-215.9389C955.347,-195.74 952.8597,-163.3298 934.4862,-144 911.7695,-120.101 820.1437,-103.1132 767.7429,-95.133"/>
<polygon fill="#c0c0c0" stroke="#c0c0c0" stroke-width="2" points="768.2238,-91.6661 757.8178,-93.6577 767.1945,-98.59 768.2238,-91.6661"/>
</g>
<!-- 23&#45;&gt;22 -->
<g id="edge38" class="edge">
<title>23&#45;&gt;22</title>
<path fill="none" stroke="#c0c0c0" stroke-width="2" d="M963.9534,-287.8314C962.4561,-280.131 960.6756,-270.9743 959.0116,-262.4166"/>
<polygon fill="#c0c0c0" stroke="#c0c0c0" stroke-width="2" points="962.4109,-261.5614 957.0665,-252.4133 955.5396,-262.8975 962.4109,-261.5614"/>
</g>
<!-- 33 -->
<g id="node34" class="node">
<title>33</title>
<path fill="none" stroke="#afd856" stroke-width="2" d="M1074.4862,-252C1074.4862,-252 1014.4862,-252 1014.4862,-252 1008.4862,-252 1002.4862,-246 1002.4862,-240 1002.4862,-240 1002.4862,-228 1002.4862,-228 1002.4862,-222 1008.4862,-216 1014.4862,-216 1014.4862,-216 1074.4862,-216 1074.4862,-216 1080.4862,-216 1086.4862,-222 1086.4862,-228 1086.4862,-228 1086.4862,-240 1086.4862,-240 1086.4862,-246 1080.4862,-252 1074.4862,-252"/>
<text text-anchor="middle" x="1044.4862" y="-231.5" font-family="sans" font-size="10.00" fill="#000000">low_complexity</text>
</g>
<!-- 23&#45;&gt;33 -->
<g id="edge49" class="edge">
<title>23&#45;&gt;33</title>
<path fill="none" stroke="#c0c0c0" stroke-width="2" d="M986.9165,-287.8314C996.2181,-279.1337 1007.5065,-268.5783 1017.6147,-259.1265"/>
<polygon fill="#c0c0c0" stroke="#c0c0c0" stroke-width="2" points="1020.1482,-261.5493 1025.062,-252.1628 1015.3673,-256.4363 1020.1482,-261.5493"/>
</g>
<!-- 24 -->
<g id="node25" class="node">
<title>24</title>
<path fill="none" stroke="#d8ac56" stroke-width="2" d="M609.4862,-180C609.4862,-180 571.4862,-180 571.4862,-180 565.4862,-180 559.4862,-174 559.4862,-168 559.4862,-168 559.4862,-156 559.4862,-156 559.4862,-150 565.4862,-144 571.4862,-144 571.4862,-144 609.4862,-144 609.4862,-144 615.4862,-144 621.4862,-150 621.4862,-156 621.4862,-156 621.4862,-168 621.4862,-168 621.4862,-174 615.4862,-180 609.4862,-180"/>
<text text-anchor="middle" x="590.4862" y="-165" font-family="sans" font-size="10.00" fill="#000000">fastqc</text>
<text text-anchor="middle" x="590.4862" y="-154" font-family="sans" font-size="10.00" fill="#000000">tool: derep</text>
</g>
<!-- 24&#45;&gt;1 -->
<g id="edge17" class="edge">
<title>24&#45;&gt;1</title>
<path fill="none" stroke="#c0c0c0" stroke-width="2" d="M621.5567,-146.0209C643.0805,-134.9515 671.8044,-120.1792 694.3522,-108.5832"/>
<polygon fill="#c0c0c0" stroke="#c0c0c0" stroke-width="2" points="695.993,-111.6751 703.2852,-103.9891 692.7916,-105.4501 695.993,-111.6751"/>
</g>
<!-- 25&#45;&gt;24 -->
<g id="edge40" class="edge">
<title>25&#45;&gt;24</title>
<path fill="none" stroke="#c0c0c0" stroke-width="2" d="M538.0852,-287.7623C548.4092,-262.9846 566.9564,-218.4714 578.9887,-189.5939"/>
<polygon fill="#c0c0c0" stroke="#c0c0c0" stroke-width="2" points="582.3334,-190.6666 582.9488,-180.0896 575.8718,-187.9742 582.3334,-190.6666"/>
</g>
<!-- 27 -->
<g id="node28" class="node">
<title>27</title>
<path fill="none" stroke="#afd856" stroke-width="2" d="M518.4862,-252C518.4862,-252 458.4862,-252 458.4862,-252 452.4862,-252 446.4862,-246 446.4862,-240 446.4862,-240 446.4862,-228 446.4862,-228 446.4862,-222 452.4862,-216 458.4862,-216 458.4862,-216 518.4862,-216 518.4862,-216 524.4862,-216 530.4862,-222 530.4862,-228 530.4862,-228 530.4862,-240 530.4862,-240 530.4862,-246 524.4862,-252 518.4862,-252"/>
<text text-anchor="middle" x="488.4862" y="-231.5" font-family="sans" font-size="10.00" fill="#000000">low_complexity</text>
</g>
<!-- 25&#45;&gt;27 -->
<g id="edge43" class="edge">
<title>25&#45;&gt;27</title>
<path fill="none" stroke="#c0c0c0" stroke-width="2" d="M519.8878,-287.8314C515.1984,-279.7925 509.5833,-270.1666 504.4064,-261.2918"/>
<polygon fill="#c0c0c0" stroke="#c0c0c0" stroke-width="2" points="507.2892,-259.2875 499.2272,-252.4133 501.2428,-262.8146 507.2892,-259.2875"/>
</g>
<!-- 26 -->
<g id="node27" class="node">
<title>26</title>
<path fill="none" stroke="#d8ac56" stroke-width="2" d="M529.4862,-180C529.4862,-180 447.4862,-180 447.4862,-180 441.4862,-180 435.4862,-174 435.4862,-168 435.4862,-168 435.4862,-156 435.4862,-156 435.4862,-150 441.4862,-144 447.4862,-144 447.4862,-144 529.4862,-144 529.4862,-144 535.4862,-144 541.4862,-150 541.4862,-156 541.4862,-156 541.4862,-168 541.4862,-168 541.4862,-174 535.4862,-180 529.4862,-180"/>
<text text-anchor="middle" x="488.4862" y="-165" font-family="sans" font-size="10.00" fill="#000000">fastqc</text>
<text text-anchor="middle" x="488.4862" y="-154" font-family="sans" font-size="10.00" fill="#000000">tool: low_complexity</text>
</g>
<!-- 26&#45;&gt;1 -->
<g id="edge18" class="edge">
<title>26&#45;&gt;1</title>
<path fill="none" stroke="#c0c0c0" stroke-width="2" d="M541.5941,-146.1993C587.641,-132.4994 653.0827,-113.0291 693.6064,-100.9725"/>
<polygon fill="#c0c0c0" stroke="#c0c0c0" stroke-width="2" points="694.7585,-104.2814 703.3452,-98.075 692.7623,-97.5721 694.7585,-104.2814"/>
</g>
<!-- 27&#45;&gt;0 -->
<g id="edge2" class="edge">
<title>27&#45;&gt;0</title>
<path fill="none" stroke="#c0c0c0" stroke-width="2" d="M446.2963,-227.9819C420.1661,-224.3311 385.9046,-219.6824 355.4862,-216 280.7171,-206.9486 68.8341,-236.0128 18.4862,-180 7.7902,-168.1006 8.2054,-156.2599 18.4862,-144 106.2475,-39.3442 559.2626,-21.5681 693.1687,-18.5902"/>
<polygon fill="#c0c0c0" stroke="#c0c0c0" stroke-width="2" points="693.4068,-22.0861 703.332,-18.3794 693.2615,-15.0876 693.4068,-22.0861"/>
</g>
<!-- 27&#45;&gt;26 -->
<g id="edge42" class="edge">
<title>27&#45;&gt;26</title>
<path fill="none" stroke="#c0c0c0" stroke-width="2" d="M488.4862,-215.8314C488.4862,-208.131 488.4862,-198.9743 488.4862,-190.4166"/>
<polygon fill="#c0c0c0" stroke="#c0c0c0" stroke-width="2" points="491.9863,-190.4132 488.4862,-180.4133 484.9863,-190.4133 491.9863,-190.4132"/>
</g>
<!-- 28 -->
<g id="node29" class="node">
<title>28</title>
<path fill="none" stroke="#d8ac56" stroke-width="2" d="M121.4862,-180C121.4862,-180 39.4862,-180 39.4862,-180 33.4862,-180 27.4862,-174 27.4862,-168 27.4862,-168 27.4862,-156 27.4862,-156 27.4862,-150 33.4862,-144 39.4862,-144 39.4862,-144 121.4862,-144 121.4862,-144 127.4862,-144 133.4862,-150 133.4862,-156 133.4862,-156 133.4862,-168 133.4862,-168 133.4862,-174 127.4862,-180 121.4862,-180"/>
<text text-anchor="middle" x="80.4862" y="-165" font-family="sans" font-size="10.00" fill="#000000">fastqc</text>
<text text-anchor="middle" x="80.4862" y="-154" font-family="sans" font-size="10.00" fill="#000000">tool: low_complexity</text>
</g>
<!-- 28&#45;&gt;1 -->
<g id="edge19" class="edge">
<title>28&#45;&gt;1</title>
<path fill="none" stroke="#c0c0c0" stroke-width="2" d="M133.6951,-146.8293C138.3373,-145.7723 142.9811,-144.8077 147.4862,-144 351.4864,-107.4237 600.3524,-94.8558 693.212,-91.2549"/>
<polygon fill="#c0c0c0" stroke="#c0c0c0" stroke-width="2" points="693.3803,-94.7511 703.2417,-90.8776 693.1172,-87.7561 693.3803,-94.7511"/>
</g>
<!-- 29&#45;&gt;0 -->
<g id="edge5" class="edge">
<title>29&#45;&gt;0</title>
<path fill="none" stroke="#c0c0c0" stroke-width="2" d="M39.5101,-215.8776C27.1293,-206.8263 14.2279,-194.6581 7.4862,-180 -15.5491,-129.9162 19.4532,-97.1948 68.4862,-72 124.1583,-43.3937 561.5842,-24.4678 693.1678,-19.3789"/>
<polygon fill="#c0c0c0" stroke="#c0c0c0" stroke-width="2" points="693.3128,-22.876 703.1716,-18.9959 693.045,-15.8811 693.3128,-22.876"/>
</g>
<!-- 29&#45;&gt;28 -->
<g id="edge44" class="edge">
<title>29&#45;&gt;28</title>
<path fill="none" stroke="#c0c0c0" stroke-width="2" d="M73.0096,-215.8314C74.0791,-208.131 75.3508,-198.9743 76.5394,-190.4166"/>
<polygon fill="#c0c0c0" stroke="#c0c0c0" stroke-width="2" points="80.0197,-190.7997 77.9288,-180.4133 73.0863,-189.8367 80.0197,-190.7997"/>
</g>
<!-- 30 -->
<g id="node31" class="node">
<title>30</title>
<path fill="none" stroke="#d8ac56" stroke-width="2" d="M1313.4862,-180C1313.4862,-180 1231.4862,-180 1231.4862,-180 1225.4862,-180 1219.4862,-174 1219.4862,-168 1219.4862,-168 1219.4862,-156 1219.4862,-156 1219.4862,-150 1225.4862,-144 1231.4862,-144 1231.4862,-144 1313.4862,-144 1313.4862,-144 1319.4862,-144 1325.4862,-150 1325.4862,-156 1325.4862,-156 1325.4862,-168 1325.4862,-168 1325.4862,-174 1319.4862,-180 1313.4862,-180"/>
<text text-anchor="middle" x="1272.4862" y="-165" font-family="sans" font-size="10.00" fill="#000000">fastqc</text>
<text text-anchor="middle" x="1272.4862" y="-154" font-family="sans" font-size="10.00" fill="#000000">tool: low_complexity</text>
</g>
<!-- 30&#45;&gt;1 -->
<g id="edge20" class="edge">
<title>30&#45;&gt;1</title>
<path fill="none" stroke="#c0c0c0" stroke-width="2" d="M1219.2584,-146.9313C1214.6203,-145.8521 1209.9825,-144.8546 1205.4862,-144 1044.1525,-113.3354 848.4495,-97.8136 767.8865,-92.3454"/>
<polygon fill="#c0c0c0" stroke="#c0c0c0" stroke-width="2" points="767.9558,-88.8423 757.745,-91.6692 767.49,-95.8268 767.9558,-88.8423"/>
</g>
<!-- 31&#45;&gt;0 -->
<g id="edge4" class="edge">
<title>31&#45;&gt;0</title>
<path fill="none" stroke="#c0c0c0" stroke-width="2" d="M1364.5733,-215.6795C1366.8434,-196.4204 1367.5881,-165.9299 1354.4862,-144 1324.1357,-93.1997 1298.3101,-91.6346 1242.4862,-72 1154.6366,-41.1013 870.5782,-24.7263 767.9304,-19.7031"/>
<polygon fill="#c0c0c0" stroke="#c0c0c0" stroke-width="2" points="767.8876,-16.1971 757.7309,-19.2124 767.5511,-23.189 767.8876,-16.1971"/>
</g>
<!-- 31&#45;&gt;30 -->
<g id="edge46" class="edge">
<title>31&#45;&gt;30</title>
<path fill="none" stroke="#c0c0c0" stroke-width="2" d="M1339.0277,-215.8314C1328.0657,-206.9632 1314.7163,-196.1637 1302.8597,-186.5718"/>
<polygon fill="#c0c0c0" stroke="#c0c0c0" stroke-width="2" points="1304.9133,-183.7313 1294.9374,-180.1628 1300.5106,-189.1734 1304.9133,-183.7313"/>
</g>
<!-- 32 -->
<g id="node33" class="node">
<title>32</title>
<path fill="none" stroke="#d8ac56" stroke-width="2" d="M1075.4862,-180C1075.4862,-180 993.4862,-180 993.4862,-180 987.4862,-180 981.4862,-174 981.4862,-168 981.4862,-168 981.4862,-156 981.4862,-156 981.4862,-150 987.4862,-144 993.4862,-144 993.4862,-144 1075.4862,-144 1075.4862,-144 1081.4862,-144 1087.4862,-150 1087.4862,-156 1087.4862,-156 1087.4862,-168 1087.4862,-168 1087.4862,-174 1081.4862,-180 1075.4862,-180"/>
<text text-anchor="middle" x="1034.4862" y="-165" font-family="sans" font-size="10.00" fill="#000000">fastqc</text>
<text text-anchor="middle" x="1034.4862" y="-154" font-family="sans" font-size="10.00" fill="#000000">tool: low_complexity</text>
</g>
<!-- 32&#45;&gt;1 -->
<g id="edge21" class="edge">
<title>32&#45;&gt;1</title>
<path fill="none" stroke="#c0c0c0" stroke-width="2" d="M981.1404,-147.4702C976.5279,-146.274 971.9283,-145.1023 967.4862,-144 897.0415,-126.5188 814.2767,-108.1526 767.5431,-97.9812"/>
<polygon fill="#c0c0c0" stroke="#c0c0c0" stroke-width="2" points="768.0938,-94.5193 757.5789,-95.818 766.6087,-101.36 768.0938,-94.5193"/>
</g>
<!-- 33&#45;&gt;0 -->
<g id="edge3" class="edge">
<title>33&#45;&gt;0</title>
<path fill="none" stroke="#c0c0c0" stroke-width="2" d="M1086.5927,-225.5225C1101.9686,-222.4661 1119.5044,-219.026 1135.4862,-216 1227.8997,-198.5024 1393.8152,-216.9828 1334.4862,-144 1262.1738,-55.0459 888.5533,-26.7591 768.0186,-19.8761"/>
<polygon fill="#c0c0c0" stroke="#c0c0c0" stroke-width="2" points="767.9903,-16.3692 757.8118,-19.3103 767.6027,-23.3585 767.9903,-16.3692"/>
</g>
<!-- 33&#45;&gt;32 -->
<g id="edge48" class="edge">
<title>33&#45;&gt;32</title>
<path fill="none" stroke="#c0c0c0" stroke-width="2" d="M1041.9627,-215.8314C1040.8932,-208.131 1039.6215,-198.9743 1038.4329,-190.4166"/>
<polygon fill="#c0c0c0" stroke="#c0c0c0" stroke-width="2" points="1041.8861,-189.8367 1037.0436,-180.4133 1034.9526,-190.7997 1041.8861,-189.8367"/>
</g>
</g>
</svg>
