<?xml version="1.0" encoding="UTF-8" standalone="no"?>
<!DOCTYPE svg PUBLIC "-//W3C//DTD SVG 1.1//EN"
 "http://www.w3.org/Graphics/SVG/1.1/DTD/svg11.dtd">
<!-- Generated by graphviz version 2.40.1 (0)
 -->
<!-- Title: snakemake_dag Pages: 1 -->
<svg width="1366pt" height="420pt"
 viewBox="0.00 0.00 1365.59 420.00" xmlns="http://www.w3.org/2000/svg" xmlns:xlink="http://www.w3.org/1999/xlink">
<g id="graph0" class="graph" transform="scale(1 1) rotate(0) translate(4 416)">
<title>snakemake_dag</title>
<polygon fill="#ffffff" stroke="transparent" points="-4,4 -4,-416 1361.5939,-416 1361.5939,4 -4,4"/>
<!-- 0 -->
<g id="node1" class="node">
<title>0</title>
<path fill="none" stroke="#d85656" stroke-width="2" d="M684.067,-36C684.067,-36 654.067,-36 654.067,-36 648.067,-36 642.067,-30 642.067,-24 642.067,-24 642.067,-12 642.067,-12 642.067,-6 648.067,0 654.067,0 654.067,0 684.067,0 684.067,0 690.067,0 696.067,-6 696.067,-12 696.067,-12 696.067,-24 696.067,-24 696.067,-30 690.067,-36 684.067,-36"/>
<text text-anchor="middle" x="669.067" y="-15.5" font-family="sans" font-size="10.00" fill="#000000">all</text>
</g>
<!-- 1 -->
<g id="node2" class="node">
<title>1</title>
<path fill="none" stroke="#59d856" stroke-width="2" d="M684.067,-108C684.067,-108 654.067,-108 654.067,-108 648.067,-108 642.067,-102 642.067,-96 642.067,-96 642.067,-84 642.067,-84 642.067,-78 648.067,-72 654.067,-72 654.067,-72 684.067,-72 684.067,-72 690.067,-72 696.067,-78 696.067,-84 696.067,-84 696.067,-96 696.067,-96 696.067,-102 690.067,-108 684.067,-108"/>
<text text-anchor="middle" x="669.067" y="-87.5" font-family="sans" font-size="10.00" fill="#000000">multiqc</text>
</g>
<!-- 1&#45;&gt;0 -->
<g id="edge1" class="edge">
<title>1&#45;&gt;0</title>
<path fill="none" stroke="#c0c0c0" stroke-width="2" d="M669.067,-71.8314C669.067,-64.131 669.067,-54.9743 669.067,-46.4166"/>
<polygon fill="#c0c0c0" stroke="#c0c0c0" stroke-width="2" points="672.5671,-46.4132 669.067,-36.4133 665.5671,-46.4133 672.5671,-46.4132"/>
</g>
<!-- 2 -->
<g id="node3" class="node">
<title>2</title>
<path fill="none" stroke="#d8ac56" stroke-width="2" d="M314.067,-180C314.067,-180 244.067,-180 244.067,-180 238.067,-180 232.067,-174 232.067,-168 232.067,-168 232.067,-156 232.067,-156 232.067,-150 238.067,-144 244.067,-144 244.067,-144 314.067,-144 314.067,-144 320.067,-144 326.067,-150 326.067,-156 326.067,-156 326.067,-168 326.067,-168 326.067,-174 320.067,-180 314.067,-180"/>
<text text-anchor="middle" x="279.067" y="-165" font-family="sans" font-size="10.00" fill="#000000">fastqc</text>
<text text-anchor="middle" x="279.067" y="-154" font-family="sans" font-size="10.00" fill="#000000">tool: merge_lanes</text>
</g>
<!-- 2&#45;&gt;1 -->
<g id="edge6" class="edge">
<title>2&#45;&gt;1</title>
<path fill="none" stroke="#c0c0c0" stroke-width="2" d="M326.2814,-146.2716C329.2415,-145.4572 332.1874,-144.6914 335.067,-144 441.4318,-118.4613 569.7931,-101.503 631.8621,-94.1561"/>
<polygon fill="#c0c0c0" stroke="#c0c0c0" stroke-width="2" points="632.4253,-97.6142 641.9518,-92.9777 631.6132,-90.6615 632.4253,-97.6142"/>
</g>
<!-- 3 -->
<g id="node4" class="node">
<title>3</title>
<path fill="none" stroke="#80d856" stroke-width="2" d="M331.067,-412C331.067,-412 227.067,-412 227.067,-412 221.067,-412 215.067,-406 215.067,-400 215.067,-400 215.067,-372 215.067,-372 215.067,-366 221.067,-360 227.067,-360 227.067,-360 331.067,-360 331.067,-360 337.067,-360 343.067,-366 343.067,-372 343.067,-372 343.067,-400 343.067,-400 343.067,-406 337.067,-412 331.067,-412"/>
<text text-anchor="middle" x="279.067" y="-400" font-family="sans" font-size="10.00" fill="#000000">merge_lanes</text>
<text text-anchor="middle" x="279.067" y="-389" font-family="sans" font-size="10.00" fill="#000000">library: lib1</text>
<text text-anchor="middle" x="279.067" y="-378" font-family="sans" font-size="10.00" fill="#000000">read_type_trim: collapsed</text>
<text text-anchor="middle" x="279.067" y="-367" font-family="sans" font-size="10.00" fill="#000000">sample: HD827sonic_2</text>
</g>
<!-- 3&#45;&gt;2 -->
<g id="edge22" class="edge">
<title>3&#45;&gt;2</title>
<path fill="none" stroke="#c0c0c0" stroke-width="2" d="M279.067,-359.866C279.067,-317.5222 279.067,-234.2555 279.067,-190.4628"/>
<polygon fill="#c0c0c0" stroke="#c0c0c0" stroke-width="2" points="282.5671,-190.2284 279.067,-180.2285 275.5671,-190.2285 282.5671,-190.2284"/>
</g>
<!-- 17 -->
<g id="node18" class="node">
<title>17</title>
<path fill="none" stroke="#56d882" stroke-width="2" d="M389.067,-324C389.067,-324 319.067,-324 319.067,-324 313.067,-324 307.067,-318 307.067,-312 307.067,-312 307.067,-300 307.067,-300 307.067,-294 313.067,-288 319.067,-288 319.067,-288 389.067,-288 389.067,-288 395.067,-288 401.067,-294 401.067,-300 401.067,-300 401.067,-312 401.067,-312 401.067,-318 395.067,-324 389.067,-324"/>
<text text-anchor="middle" x="354.067" y="-309" font-family="sans" font-size="10.00" fill="#000000">nonpareil_infer</text>
<text text-anchor="middle" x="354.067" y="-298" font-family="sans" font-size="10.00" fill="#000000">tool: merge_lanes</text>
</g>
<!-- 3&#45;&gt;17 -->
<g id="edge33" class="edge">
<title>3&#45;&gt;17</title>
<path fill="none" stroke="#c0c0c0" stroke-width="2" d="M303.6248,-359.805C312.0836,-350.7823 321.5437,-340.6915 329.9657,-331.7081"/>
<polygon fill="#c0c0c0" stroke="#c0c0c0" stroke-width="2" points="332.7623,-333.8424 337.0484,-324.1532 327.6555,-329.0548 332.7623,-333.8424"/>
</g>
<!-- 23 -->
<g id="node24" class="node">
<title>23</title>
<path fill="none" stroke="#56d8d8" stroke-width="2" d="M198.067,-324C198.067,-324 168.067,-324 168.067,-324 162.067,-324 156.067,-318 156.067,-312 156.067,-312 156.067,-300 156.067,-300 156.067,-294 162.067,-288 168.067,-288 168.067,-288 198.067,-288 198.067,-288 204.067,-288 210.067,-294 210.067,-300 210.067,-300 210.067,-312 210.067,-312 210.067,-318 204.067,-324 198.067,-324"/>
<text text-anchor="middle" x="183.067" y="-303.5" font-family="sans" font-size="10.00" fill="#000000">seqkit</text>
</g>
<!-- 3&#45;&gt;23 -->
<g id="edge39" class="edge">
<title>3&#45;&gt;23</title>
<path fill="none" stroke="#c0c0c0" stroke-width="2" d="M247.633,-359.805C236.3684,-350.4178 223.7162,-339.8743 212.6167,-330.6247"/>
<polygon fill="#c0c0c0" stroke="#c0c0c0" stroke-width="2" points="214.7738,-327.8663 204.8509,-324.1532 210.2925,-333.2439 214.7738,-327.8663"/>
</g>
<!-- 4 -->
<g id="node5" class="node">
<title>4</title>
<path fill="none" stroke="#d8ac56" stroke-width="2" d="M1056.067,-180C1056.067,-180 986.067,-180 986.067,-180 980.067,-180 974.067,-174 974.067,-168 974.067,-168 974.067,-156 974.067,-156 974.067,-150 980.067,-144 986.067,-144 986.067,-144 1056.067,-144 1056.067,-144 1062.067,-144 1068.067,-150 1068.067,-156 1068.067,-156 1068.067,-168 1068.067,-168 1068.067,-174 1062.067,-180 1056.067,-180"/>
<text text-anchor="middle" x="1021.067" y="-165" font-family="sans" font-size="10.00" fill="#000000">fastqc</text>
<text text-anchor="middle" x="1021.067" y="-154" font-family="sans" font-size="10.00" fill="#000000">tool: merge_lanes</text>
</g>
<!-- 4&#45;&gt;1 -->
<g id="edge7" class="edge">
<title>4&#45;&gt;1</title>
<path fill="none" stroke="#c0c0c0" stroke-width="2" d="M973.8359,-146.3399C970.8799,-145.5086 967.9396,-144.7204 965.067,-144 873.1987,-120.9602 762.9807,-103.4686 706.4897,-95.2236"/>
<polygon fill="#c0c0c0" stroke="#c0c0c0" stroke-width="2" points="706.6537,-91.711 696.2561,-93.7456 705.6531,-98.6392 706.6537,-91.711"/>
</g>
<!-- 5 -->
<g id="node6" class="node">
<title>5</title>
<path fill="none" stroke="#80d856" stroke-width="2" d="M1177.067,-412C1177.067,-412 1073.067,-412 1073.067,-412 1067.067,-412 1061.067,-406 1061.067,-400 1061.067,-400 1061.067,-372 1061.067,-372 1061.067,-366 1067.067,-360 1073.067,-360 1073.067,-360 1177.067,-360 1177.067,-360 1183.067,-360 1189.067,-366 1189.067,-372 1189.067,-372 1189.067,-400 1189.067,-400 1189.067,-406 1183.067,-412 1177.067,-412"/>
<text text-anchor="middle" x="1125.067" y="-400" font-family="sans" font-size="10.00" fill="#000000">merge_lanes</text>
<text text-anchor="middle" x="1125.067" y="-389" font-family="sans" font-size="10.00" fill="#000000">library: lib3</text>
<text text-anchor="middle" x="1125.067" y="-378" font-family="sans" font-size="10.00" fill="#000000">read_type_trim: collapsed</text>
<text text-anchor="middle" x="1125.067" y="-367" font-family="sans" font-size="10.00" fill="#000000">sample: HD827sonic_2</text>
</g>
<!-- 5&#45;&gt;4 -->
<g id="edge23" class="edge">
<title>5&#45;&gt;4</title>
<path fill="none" stroke="#c0c0c0" stroke-width="2" d="M1096.802,-359.9949C1086.8707,-349.6102 1076.3775,-337.0289 1069.067,-324 1056.1212,-300.9277 1037.588,-229.9399 1027.7686,-190.0152"/>
<polygon fill="#c0c0c0" stroke="#c0c0c0" stroke-width="2" points="1031.1235,-188.9993 1025.3551,-180.1125 1024.3226,-190.6569 1031.1235,-188.9993"/>
</g>
<!-- 11 -->
<g id="node12" class="node">
<title>11</title>
<path fill="none" stroke="#56d882" stroke-width="2" d="M1160.067,-324C1160.067,-324 1090.067,-324 1090.067,-324 1084.067,-324 1078.067,-318 1078.067,-312 1078.067,-312 1078.067,-300 1078.067,-300 1078.067,-294 1084.067,-288 1090.067,-288 1090.067,-288 1160.067,-288 1160.067,-288 1166.067,-288 1172.067,-294 1172.067,-300 1172.067,-300 1172.067,-312 1172.067,-312 1172.067,-318 1166.067,-324 1160.067,-324"/>
<text text-anchor="middle" x="1125.067" y="-309" font-family="sans" font-size="10.00" fill="#000000">nonpareil_infer</text>
<text text-anchor="middle" x="1125.067" y="-298" font-family="sans" font-size="10.00" fill="#000000">tool: merge_lanes</text>
</g>
<!-- 5&#45;&gt;11 -->
<g id="edge27" class="edge">
<title>5&#45;&gt;11</title>
<path fill="none" stroke="#c0c0c0" stroke-width="2" d="M1125.067,-359.805C1125.067,-351.6026 1125.067,-342.5174 1125.067,-334.1839"/>
<polygon fill="#c0c0c0" stroke="#c0c0c0" stroke-width="2" points="1128.5671,-334.1532 1125.067,-324.1532 1121.5671,-334.1533 1128.5671,-334.1532"/>
</g>
<!-- 19 -->
<g id="node20" class="node">
<title>19</title>
<path fill="none" stroke="#56d8d8" stroke-width="2" d="M1232.067,-324C1232.067,-324 1202.067,-324 1202.067,-324 1196.067,-324 1190.067,-318 1190.067,-312 1190.067,-312 1190.067,-300 1190.067,-300 1190.067,-294 1196.067,-288 1202.067,-288 1202.067,-288 1232.067,-288 1232.067,-288 1238.067,-288 1244.067,-294 1244.067,-300 1244.067,-300 1244.067,-312 1244.067,-312 1244.067,-318 1238.067,-324 1232.067,-324"/>
<text text-anchor="middle" x="1217.067" y="-303.5" font-family="sans" font-size="10.00" fill="#000000">seqkit</text>
</g>
<!-- 5&#45;&gt;19 -->
<g id="edge35" class="edge">
<title>5&#45;&gt;19</title>
<path fill="none" stroke="#c0c0c0" stroke-width="2" d="M1155.1913,-359.805C1165.8818,-350.5089 1177.8762,-340.079 1188.4384,-330.8945"/>
<polygon fill="#c0c0c0" stroke="#c0c0c0" stroke-width="2" points="1190.9414,-333.3562 1196.1908,-324.1532 1186.3481,-328.0739 1190.9414,-333.3562"/>
</g>
<!-- 6 -->
<g id="node7" class="node">
<title>6</title>
<path fill="none" stroke="#d8ac56" stroke-width="2" d="M790.067,-252C790.067,-252 720.067,-252 720.067,-252 714.067,-252 708.067,-246 708.067,-240 708.067,-240 708.067,-228 708.067,-228 708.067,-222 714.067,-216 720.067,-216 720.067,-216 790.067,-216 790.067,-216 796.067,-216 802.067,-222 802.067,-228 802.067,-228 802.067,-240 802.067,-240 802.067,-246 796.067,-252 790.067,-252"/>
<text text-anchor="middle" x="755.067" y="-237" font-family="sans" font-size="10.00" fill="#000000">fastqc</text>
<text text-anchor="middle" x="755.067" y="-226" font-family="sans" font-size="10.00" fill="#000000">tool: merge_lanes</text>
</g>
<!-- 6&#45;&gt;1 -->
<g id="edge8" class="edge">
<title>6&#45;&gt;1</title>
<path fill="none" stroke="#c0c0c0" stroke-width="2" d="M736.5632,-215.6457C727.2075,-205.6916 716.1542,-192.8263 708.067,-180 695.6526,-160.3106 685.3767,-135.9891 678.495,-117.5952"/>
<polygon fill="#c0c0c0" stroke="#c0c0c0" stroke-width="2" points="681.7329,-116.2574 675.0289,-108.0532 675.1535,-118.6473 681.7329,-116.2574"/>
</g>
<!-- 7 -->
<g id="node8" class="node">
<title>7</title>
<path fill="none" stroke="#80d856" stroke-width="2" d="M882.067,-412C882.067,-412 778.067,-412 778.067,-412 772.067,-412 766.067,-406 766.067,-400 766.067,-400 766.067,-372 766.067,-372 766.067,-366 772.067,-360 778.067,-360 778.067,-360 882.067,-360 882.067,-360 888.067,-360 894.067,-366 894.067,-372 894.067,-372 894.067,-400 894.067,-400 894.067,-406 888.067,-412 882.067,-412"/>
<text text-anchor="middle" x="830.067" y="-400" font-family="sans" font-size="10.00" fill="#000000">merge_lanes</text>
<text text-anchor="middle" x="830.067" y="-389" font-family="sans" font-size="10.00" fill="#000000">library: lib1</text>
<text text-anchor="middle" x="830.067" y="-378" font-family="sans" font-size="10.00" fill="#000000">read_type_trim: collapsed</text>
<text text-anchor="middle" x="830.067" y="-367" font-family="sans" font-size="10.00" fill="#000000">sample: HD827sonic_1</text>
</g>
<!-- 7&#45;&gt;6 -->
<g id="edge24" class="edge">
<title>7&#45;&gt;6</title>
<path fill="none" stroke="#c0c0c0" stroke-width="2" d="M800.9461,-359.9949C791.0395,-349.7017 780.7848,-337.1816 774.067,-324 764.2473,-304.7319 759.4999,-280.6642 757.2062,-262.2667"/>
<polygon fill="#c0c0c0" stroke="#c0c0c0" stroke-width="2" points="760.6695,-261.7369 756.1195,-252.1689 753.7097,-262.486 760.6695,-261.7369"/>
</g>
<!-- 13 -->
<g id="node14" class="node">
<title>13</title>
<path fill="none" stroke="#56d882" stroke-width="2" d="M865.067,-324C865.067,-324 795.067,-324 795.067,-324 789.067,-324 783.067,-318 783.067,-312 783.067,-312 783.067,-300 783.067,-300 783.067,-294 789.067,-288 795.067,-288 795.067,-288 865.067,-288 865.067,-288 871.067,-288 877.067,-294 877.067,-300 877.067,-300 877.067,-312 877.067,-312 877.067,-318 871.067,-324 865.067,-324"/>
<text text-anchor="middle" x="830.067" y="-309" font-family="sans" font-size="10.00" fill="#000000">nonpareil_infer</text>
<text text-anchor="middle" x="830.067" y="-298" font-family="sans" font-size="10.00" fill="#000000">tool: merge_lanes</text>
</g>
<!-- 7&#45;&gt;13 -->
<g id="edge29" class="edge">
<title>7&#45;&gt;13</title>
<path fill="none" stroke="#c0c0c0" stroke-width="2" d="M830.067,-359.805C830.067,-351.6026 830.067,-342.5174 830.067,-334.1839"/>
<polygon fill="#c0c0c0" stroke="#c0c0c0" stroke-width="2" points="833.5671,-334.1532 830.067,-324.1532 826.5671,-334.1533 833.5671,-334.1532"/>
</g>
<!-- 25 -->
<g id="node26" class="node">
<title>25</title>
<path fill="none" stroke="#56d8d8" stroke-width="2" d="M937.067,-324C937.067,-324 907.067,-324 907.067,-324 901.067,-324 895.067,-318 895.067,-312 895.067,-312 895.067,-300 895.067,-300 895.067,-294 901.067,-288 907.067,-288 907.067,-288 937.067,-288 937.067,-288 943.067,-288 949.067,-294 949.067,-300 949.067,-300 949.067,-312 949.067,-312 949.067,-318 943.067,-324 937.067,-324"/>
<text text-anchor="middle" x="922.067" y="-303.5" font-family="sans" font-size="10.00" fill="#000000">seqkit</text>
</g>
<!-- 7&#45;&gt;25 -->
<g id="edge41" class="edge">
<title>7&#45;&gt;25</title>
<path fill="none" stroke="#c0c0c0" stroke-width="2" d="M860.1913,-359.805C870.8818,-350.5089 882.8762,-340.079 893.4384,-330.8945"/>
<polygon fill="#c0c0c0" stroke="#c0c0c0" stroke-width="2" points="895.9414,-333.3562 901.1908,-324.1532 891.3481,-328.0739 895.9414,-333.3562"/>
</g>
<!-- 8 -->
<g id="node9" class="node">
<title>8</title>
<path fill="none" stroke="#d8ac56" stroke-width="2" d="M501.067,-324C501.067,-324 431.067,-324 431.067,-324 425.067,-324 419.067,-318 419.067,-312 419.067,-312 419.067,-300 419.067,-300 419.067,-294 425.067,-288 431.067,-288 431.067,-288 501.067,-288 501.067,-288 507.067,-288 513.067,-294 513.067,-300 513.067,-300 513.067,-312 513.067,-312 513.067,-318 507.067,-324 501.067,-324"/>
<text text-anchor="middle" x="466.067" y="-309" font-family="sans" font-size="10.00" fill="#000000">fastqc</text>
<text text-anchor="middle" x="466.067" y="-298" font-family="sans" font-size="10.00" fill="#000000">tool: merge_lanes</text>
</g>
<!-- 8&#45;&gt;1 -->
<g id="edge9" class="edge">
<title>8&#45;&gt;1</title>
<path fill="none" stroke="#c0c0c0" stroke-width="2" d="M445.2092,-287.6461C435.913,-278.0709 425.9692,-265.54 421.067,-252 415.6202,-236.9557 416.4305,-231.3135 421.067,-216 432.2119,-179.191 437.8388,-166.4479 469.067,-144 518.1688,-108.7041 589.0451,-96.4781 631.9128,-92.2434"/>
<polygon fill="#c0c0c0" stroke="#c0c0c0" stroke-width="2" points="632.2681,-95.7257 641.9173,-91.3505 631.6457,-88.7535 632.2681,-95.7257"/>
</g>
<!-- 9 -->
<g id="node10" class="node">
<title>9</title>
<path fill="none" stroke="#80d856" stroke-width="2" d="M610.067,-412C610.067,-412 506.067,-412 506.067,-412 500.067,-412 494.067,-406 494.067,-400 494.067,-400 494.067,-372 494.067,-372 494.067,-366 500.067,-360 506.067,-360 506.067,-360 610.067,-360 610.067,-360 616.067,-360 622.067,-366 622.067,-372 622.067,-372 622.067,-400 622.067,-400 622.067,-406 616.067,-412 610.067,-412"/>
<text text-anchor="middle" x="558.067" y="-400" font-family="sans" font-size="10.00" fill="#000000">merge_lanes</text>
<text text-anchor="middle" x="558.067" y="-389" font-family="sans" font-size="10.00" fill="#000000">library: lib2</text>
<text text-anchor="middle" x="558.067" y="-378" font-family="sans" font-size="10.00" fill="#000000">read_type_trim: collapsed</text>
<text text-anchor="middle" x="558.067" y="-367" font-family="sans" font-size="10.00" fill="#000000">sample: HD827sonic_2</text>
</g>
<!-- 9&#45;&gt;8 -->
<g id="edge25" class="edge">
<title>9&#45;&gt;8</title>
<path fill="none" stroke="#c0c0c0" stroke-width="2" d="M527.9428,-359.805C517.2523,-350.5089 505.2578,-340.079 494.6957,-330.8945"/>
<polygon fill="#c0c0c0" stroke="#c0c0c0" stroke-width="2" points="496.786,-328.0739 486.9432,-324.1532 492.1927,-333.3562 496.786,-328.0739"/>
</g>
<!-- 15 -->
<g id="node16" class="node">
<title>15</title>
<path fill="none" stroke="#56d882" stroke-width="2" d="M685.067,-324C685.067,-324 615.067,-324 615.067,-324 609.067,-324 603.067,-318 603.067,-312 603.067,-312 603.067,-300 603.067,-300 603.067,-294 609.067,-288 615.067,-288 615.067,-288 685.067,-288 685.067,-288 691.067,-288 697.067,-294 697.067,-300 697.067,-300 697.067,-312 697.067,-312 697.067,-318 691.067,-324 685.067,-324"/>
<text text-anchor="middle" x="650.067" y="-309" font-family="sans" font-size="10.00" fill="#000000">nonpareil_infer</text>
<text text-anchor="middle" x="650.067" y="-298" font-family="sans" font-size="10.00" fill="#000000">tool: merge_lanes</text>
</g>
<!-- 9&#45;&gt;15 -->
<g id="edge31" class="edge">
<title>9&#45;&gt;15</title>
<path fill="none" stroke="#c0c0c0" stroke-width="2" d="M588.1913,-359.805C598.8818,-350.5089 610.8762,-340.079 621.4384,-330.8945"/>
<polygon fill="#c0c0c0" stroke="#c0c0c0" stroke-width="2" points="623.9414,-333.3562 629.1908,-324.1532 619.3481,-328.0739 623.9414,-333.3562"/>
</g>
<!-- 21 -->
<g id="node22" class="node">
<title>21</title>
<path fill="none" stroke="#56d8d8" stroke-width="2" d="M573.067,-324C573.067,-324 543.067,-324 543.067,-324 537.067,-324 531.067,-318 531.067,-312 531.067,-312 531.067,-300 531.067,-300 531.067,-294 537.067,-288 543.067,-288 543.067,-288 573.067,-288 573.067,-288 579.067,-288 585.067,-294 585.067,-300 585.067,-300 585.067,-312 585.067,-312 585.067,-318 579.067,-324 573.067,-324"/>
<text text-anchor="middle" x="558.067" y="-303.5" font-family="sans" font-size="10.00" fill="#000000">seqkit</text>
</g>
<!-- 9&#45;&gt;21 -->
<g id="edge37" class="edge">
<title>9&#45;&gt;21</title>
<path fill="none" stroke="#c0c0c0" stroke-width="2" d="M558.067,-359.805C558.067,-351.6026 558.067,-342.5174 558.067,-334.1839"/>
<polygon fill="#c0c0c0" stroke="#c0c0c0" stroke-width="2" points="561.5671,-334.1532 558.067,-324.1532 554.5671,-334.1533 561.5671,-334.1532"/>
</g>
<!-- 10 -->
<g id="node11" class="node">
<title>10</title>
<path fill="none" stroke="#56d8a9" stroke-width="2" d="M1151.567,-180C1151.567,-180 1098.567,-180 1098.567,-180 1092.567,-180 1086.567,-174 1086.567,-168 1086.567,-168 1086.567,-156 1086.567,-156 1086.567,-150 1092.567,-144 1098.567,-144 1098.567,-144 1151.567,-144 1151.567,-144 1157.567,-144 1163.567,-150 1163.567,-156 1163.567,-156 1163.567,-168 1163.567,-168 1163.567,-174 1157.567,-180 1151.567,-180"/>
<text text-anchor="middle" x="1125.067" y="-159.5" font-family="sans" font-size="10.00" fill="#000000">nonpareil_plot</text>
</g>
<!-- 10&#45;&gt;1 -->
<g id="edge10" class="edge">
<title>10&#45;&gt;1</title>
<path fill="none" stroke="#c0c0c0" stroke-width="2" d="M1086.5341,-146.6908C1083.3584,-145.6926 1080.1752,-144.7777 1077.067,-144 942.9548,-110.4434 778.5039,-96.7643 706.1832,-92.0846"/>
<polygon fill="#c0c0c0" stroke="#c0c0c0" stroke-width="2" points="706.3955,-88.5911 696.196,-91.4582 705.9573,-95.5774 706.3955,-88.5911"/>
</g>
<!-- 11&#45;&gt;10 -->
<g id="edge26" class="edge">
<title>11&#45;&gt;10</title>
<path fill="none" stroke="#c0c0c0" stroke-width="2" d="M1125.067,-287.7623C1125.067,-263.201 1125.067,-219.2474 1125.067,-190.3541"/>
<polygon fill="#c0c0c0" stroke="#c0c0c0" stroke-width="2" points="1128.5671,-190.0896 1125.067,-180.0896 1121.5671,-190.0897 1128.5671,-190.0896"/>
</g>
<!-- 12 -->
<g id="node13" class="node">
<title>12</title>
<path fill="none" stroke="#56d8a9" stroke-width="2" d="M781.567,-180C781.567,-180 728.567,-180 728.567,-180 722.567,-180 716.567,-174 716.567,-168 716.567,-168 716.567,-156 716.567,-156 716.567,-150 722.567,-144 728.567,-144 728.567,-144 781.567,-144 781.567,-144 787.567,-144 793.567,-150 793.567,-156 793.567,-156 793.567,-168 793.567,-168 793.567,-174 787.567,-180 781.567,-180"/>
<text text-anchor="middle" x="755.067" y="-159.5" font-family="sans" font-size="10.00" fill="#000000">nonpareil_plot</text>
</g>
<!-- 12&#45;&gt;1 -->
<g id="edge11" class="edge">
<title>12&#45;&gt;1</title>
<path fill="none" stroke="#c0c0c0" stroke-width="2" d="M733.3656,-143.8314C722.8749,-135.0485 710.1215,-124.3712 698.7476,-114.8489"/>
<polygon fill="#c0c0c0" stroke="#c0c0c0" stroke-width="2" points="700.6759,-111.8986 690.7615,-108.1628 696.1823,-117.2659 700.6759,-111.8986"/>
</g>
<!-- 13&#45;&gt;12 -->
<g id="edge28" class="edge">
<title>13&#45;&gt;12</title>
<path fill="none" stroke="#c0c0c0" stroke-width="2" d="M829.3332,-287.6617C827.8808,-268.6602 823.6018,-238.6309 811.067,-216 805.0343,-205.1083 796.0845,-195.0583 787.1009,-186.6563"/>
<polygon fill="#c0c0c0" stroke="#c0c0c0" stroke-width="2" points="789.4112,-184.0271 779.6099,-180.004 784.7631,-189.2612 789.4112,-184.0271"/>
</g>
<!-- 14 -->
<g id="node15" class="node">
<title>14</title>
<path fill="none" stroke="#56d8a9" stroke-width="2" d="M677.567,-252C677.567,-252 624.567,-252 624.567,-252 618.567,-252 612.567,-246 612.567,-240 612.567,-240 612.567,-228 612.567,-228 612.567,-222 618.567,-216 624.567,-216 624.567,-216 677.567,-216 677.567,-216 683.567,-216 689.567,-222 689.567,-228 689.567,-228 689.567,-240 689.567,-240 689.567,-246 683.567,-252 677.567,-252"/>
<text text-anchor="middle" x="651.067" y="-231.5" font-family="sans" font-size="10.00" fill="#000000">nonpareil_plot</text>
</g>
<!-- 14&#45;&gt;1 -->
<g id="edge12" class="edge">
<title>14&#45;&gt;1</title>
<path fill="none" stroke="#c0c0c0" stroke-width="2" d="M653.3467,-215.7623C656.4169,-191.201 661.9111,-147.2474 665.5228,-118.3541"/>
<polygon fill="#c0c0c0" stroke="#c0c0c0" stroke-width="2" points="669.0384,-118.4465 666.8058,-108.0896 662.0924,-117.5782 669.0384,-118.4465"/>
</g>
<!-- 15&#45;&gt;14 -->
<g id="edge30" class="edge">
<title>15&#45;&gt;14</title>
<path fill="none" stroke="#c0c0c0" stroke-width="2" d="M650.3194,-287.8314C650.4263,-280.131 650.5535,-270.9743 650.6723,-262.4166"/>
<polygon fill="#c0c0c0" stroke="#c0c0c0" stroke-width="2" points="654.172,-262.4609 650.8113,-252.4133 647.1726,-262.3637 654.172,-262.4609"/>
</g>
<!-- 16 -->
<g id="node17" class="node">
<title>16</title>
<path fill="none" stroke="#56d8a9" stroke-width="2" d="M409.567,-180C409.567,-180 356.567,-180 356.567,-180 350.567,-180 344.567,-174 344.567,-168 344.567,-168 344.567,-156 344.567,-156 344.567,-150 350.567,-144 356.567,-144 356.567,-144 409.567,-144 409.567,-144 415.567,-144 421.567,-150 421.567,-156 421.567,-156 421.567,-168 421.567,-168 421.567,-174 415.567,-180 409.567,-180"/>
<text text-anchor="middle" x="383.067" y="-159.5" font-family="sans" font-size="10.00" fill="#000000">nonpareil_plot</text>
</g>
<!-- 16&#45;&gt;1 -->
<g id="edge13" class="edge">
<title>16&#45;&gt;1</title>
<path fill="none" stroke="#c0c0c0" stroke-width="2" d="M421.7142,-148.378C426.5249,-146.8294 431.3942,-145.3314 436.067,-144 504.5651,-124.4832 585.8745,-106.8774 632.0759,-97.3835"/>
<polygon fill="#c0c0c0" stroke="#c0c0c0" stroke-width="2" points="632.8372,-100.8004 641.9354,-95.3713 631.4374,-93.9417 632.8372,-100.8004"/>
</g>
<!-- 17&#45;&gt;16 -->
<g id="edge32" class="edge">
<title>17&#45;&gt;16</title>
<path fill="none" stroke="#c0c0c0" stroke-width="2" d="M357.7399,-287.7623C362.708,-263.0928 371.6161,-218.8598 377.4336,-189.9731"/>
<polygon fill="#c0c0c0" stroke="#c0c0c0" stroke-width="2" points="380.8808,-190.5838 379.424,-180.0896 374.0185,-189.2018 380.8808,-190.5838"/>
</g>
<!-- 18 -->
<g id="node19" class="node">
<title>18</title>
<path fill="none" stroke="#d8ac56" stroke-width="2" d="M1211.067,-252C1211.067,-252 1173.067,-252 1173.067,-252 1167.067,-252 1161.067,-246 1161.067,-240 1161.067,-240 1161.067,-228 1161.067,-228 1161.067,-222 1167.067,-216 1173.067,-216 1173.067,-216 1211.067,-216 1211.067,-216 1217.067,-216 1223.067,-222 1223.067,-228 1223.067,-228 1223.067,-240 1223.067,-240 1223.067,-246 1217.067,-252 1211.067,-252"/>
<text text-anchor="middle" x="1192.067" y="-237" font-family="sans" font-size="10.00" fill="#000000">fastqc</text>
<text text-anchor="middle" x="1192.067" y="-226" font-family="sans" font-size="10.00" fill="#000000">tool: derep</text>
</g>
<!-- 18&#45;&gt;1 -->
<g id="edge14" class="edge">
<title>18&#45;&gt;1</title>
<path fill="none" stroke="#c0c0c0" stroke-width="2" d="M1193.9321,-215.7829C1194.9357,-195.1249 1192.974,-161.9857 1173.067,-144 1138.5526,-112.8167 817.2674,-96.3081 706.4403,-91.5049"/>
<polygon fill="#c0c0c0" stroke="#c0c0c0" stroke-width="2" points="706.5287,-88.0056 696.3888,-91.0765 706.2306,-94.9992 706.5287,-88.0056"/>
</g>
<!-- 19&#45;&gt;18 -->
<g id="edge34" class="edge">
<title>19&#45;&gt;18</title>
<path fill="none" stroke="#c0c0c0" stroke-width="2" d="M1210.7585,-287.8314C1208.0553,-280.0463 1204.8354,-270.7729 1201.836,-262.1347"/>
<polygon fill="#c0c0c0" stroke="#c0c0c0" stroke-width="2" points="1205.0471,-260.7119 1198.4605,-252.4133 1198.4343,-263.0081 1205.0471,-260.7119"/>
</g>
<!-- 27 -->
<g id="node28" class="node">
<title>27</title>
<path fill="none" stroke="#afd856" stroke-width="2" d="M1313.067,-252C1313.067,-252 1253.067,-252 1253.067,-252 1247.067,-252 1241.067,-246 1241.067,-240 1241.067,-240 1241.067,-228 1241.067,-228 1241.067,-222 1247.067,-216 1253.067,-216 1253.067,-216 1313.067,-216 1313.067,-216 1319.067,-216 1325.067,-222 1325.067,-228 1325.067,-228 1325.067,-240 1325.067,-240 1325.067,-246 1319.067,-252 1313.067,-252"/>
<text text-anchor="middle" x="1283.067" y="-231.5" font-family="sans" font-size="10.00" fill="#000000">low_complexity</text>
</g>
<!-- 19&#45;&gt;27 -->
<g id="edge43" class="edge">
<title>19&#45;&gt;27</title>
<path fill="none" stroke="#c0c0c0" stroke-width="2" d="M1233.7216,-287.8314C1241.4784,-279.3694 1250.8472,-269.1489 1259.328,-259.8971"/>
<polygon fill="#c0c0c0" stroke="#c0c0c0" stroke-width="2" points="1262.011,-262.1499 1266.1882,-252.4133 1256.8509,-257.4198 1262.011,-262.1499"/>
</g>
<!-- 20 -->
<g id="node21" class="node">
<title>20</title>
<path fill="none" stroke="#d8ac56" stroke-width="2" d="M582.067,-252C582.067,-252 544.067,-252 544.067,-252 538.067,-252 532.067,-246 532.067,-240 532.067,-240 532.067,-228 532.067,-228 532.067,-222 538.067,-216 544.067,-216 544.067,-216 582.067,-216 582.067,-216 588.067,-216 594.067,-222 594.067,-228 594.067,-228 594.067,-240 594.067,-240 594.067,-246 588.067,-252 582.067,-252"/>
<text text-anchor="middle" x="563.067" y="-237" font-family="sans" font-size="10.00" fill="#000000">fastqc</text>
<text text-anchor="middle" x="563.067" y="-226" font-family="sans" font-size="10.00" fill="#000000">tool: derep</text>
</g>
<!-- 20&#45;&gt;1 -->
<g id="edge15" class="edge">
<title>20&#45;&gt;1</title>
<path fill="none" stroke="#c0c0c0" stroke-width="2" d="M576.492,-215.7623C594.97,-190.66 628.3588,-145.3017 649.5843,-116.4671"/>
<polygon fill="#c0c0c0" stroke="#c0c0c0" stroke-width="2" points="652.6415,-118.2179 655.7511,-108.0896 647.0042,-114.0681 652.6415,-118.2179"/>
</g>
<!-- 21&#45;&gt;20 -->
<g id="edge36" class="edge">
<title>21&#45;&gt;20</title>
<path fill="none" stroke="#c0c0c0" stroke-width="2" d="M559.3287,-287.8314C559.8635,-280.131 560.4994,-270.9743 561.0936,-262.4166"/>
<polygon fill="#c0c0c0" stroke="#c0c0c0" stroke-width="2" points="564.587,-262.6317 561.7883,-252.4133 557.6039,-262.1467 564.587,-262.6317"/>
</g>
<!-- 31 -->
<g id="node32" class="node">
<title>31</title>
<path fill="none" stroke="#afd856" stroke-width="2" d="M502.067,-252C502.067,-252 442.067,-252 442.067,-252 436.067,-252 430.067,-246 430.067,-240 430.067,-240 430.067,-228 430.067,-228 430.067,-222 436.067,-216 442.067,-216 442.067,-216 502.067,-216 502.067,-216 508.067,-216 514.067,-222 514.067,-228 514.067,-228 514.067,-240 514.067,-240 514.067,-246 508.067,-252 502.067,-252"/>
<text text-anchor="middle" x="472.067" y="-231.5" font-family="sans" font-size="10.00" fill="#000000">low_complexity</text>
</g>
<!-- 21&#45;&gt;31 -->
<g id="edge47" class="edge">
<title>21&#45;&gt;31</title>
<path fill="none" stroke="#c0c0c0" stroke-width="2" d="M536.3656,-287.8314C525.8749,-279.0485 513.1215,-268.3712 501.7476,-258.8489"/>
<polygon fill="#c0c0c0" stroke="#c0c0c0" stroke-width="2" points="503.6759,-255.8986 493.7615,-252.1628 499.1823,-261.2659 503.6759,-255.8986"/>
</g>
<!-- 22 -->
<g id="node23" class="node">
<title>22</title>
<path fill="none" stroke="#d8ac56" stroke-width="2" d="M202.067,-180C202.067,-180 164.067,-180 164.067,-180 158.067,-180 152.067,-174 152.067,-168 152.067,-168 152.067,-156 152.067,-156 152.067,-150 158.067,-144 164.067,-144 164.067,-144 202.067,-144 202.067,-144 208.067,-144 214.067,-150 214.067,-156 214.067,-156 214.067,-168 214.067,-168 214.067,-174 208.067,-180 202.067,-180"/>
<text text-anchor="middle" x="183.067" y="-165" font-family="sans" font-size="10.00" fill="#000000">fastqc</text>
<text text-anchor="middle" x="183.067" y="-154" font-family="sans" font-size="10.00" fill="#000000">tool: derep</text>
</g>
<!-- 22&#45;&gt;1 -->
<g id="edge16" class="edge">
<title>22&#45;&gt;1</title>
<path fill="none" stroke="#c0c0c0" stroke-width="2" d="M214.1755,-146.9268C217.1387,-145.8188 220.1327,-144.8174 223.067,-144 370.5342,-102.9217 554.0368,-93.0901 631.6404,-90.7385"/>
<polygon fill="#c0c0c0" stroke="#c0c0c0" stroke-width="2" points="631.9742,-94.2307 641.873,-90.4539 631.7795,-87.2334 631.9742,-94.2307"/>
</g>
<!-- 23&#45;&gt;22 -->
<g id="edge38" class="edge">
<title>23&#45;&gt;22</title>
<path fill="none" stroke="#c0c0c0" stroke-width="2" d="M183.067,-287.7623C183.067,-263.201 183.067,-219.2474 183.067,-190.3541"/>
<polygon fill="#c0c0c0" stroke="#c0c0c0" stroke-width="2" points="186.5671,-190.0896 183.067,-180.0896 179.5671,-190.0897 186.5671,-190.0896"/>
</g>
<!-- 29 -->
<g id="node30" class="node">
<title>29</title>
<path fill="none" stroke="#afd856" stroke-width="2" d="M111.067,-252C111.067,-252 51.067,-252 51.067,-252 45.067,-252 39.067,-246 39.067,-240 39.067,-240 39.067,-228 39.067,-228 39.067,-222 45.067,-216 51.067,-216 51.067,-216 111.067,-216 111.067,-216 117.067,-216 123.067,-222 123.067,-228 123.067,-228 123.067,-240 123.067,-240 123.067,-246 117.067,-252 111.067,-252"/>
<text text-anchor="middle" x="81.067" y="-231.5" font-family="sans" font-size="10.00" fill="#000000">low_complexity</text>
</g>
<!-- 23&#45;&gt;29 -->
<g id="edge45" class="edge">
<title>23&#45;&gt;29</title>
<path fill="none" stroke="#c0c0c0" stroke-width="2" d="M157.3281,-287.8314C144.5233,-278.7927 128.8761,-267.7476 115.0951,-258.0198"/>
<polygon fill="#c0c0c0" stroke="#c0c0c0" stroke-width="2" points="116.9858,-255.0703 106.7977,-252.1628 112.949,-260.7891 116.9858,-255.0703"/>
</g>
<!-- 24 -->
<g id="node25" class="node">
<title>24</title>
<path fill="none" stroke="#d8ac56" stroke-width="2" d="M908.067,-252C908.067,-252 870.067,-252 870.067,-252 864.067,-252 858.067,-246 858.067,-240 858.067,-240 858.067,-228 858.067,-228 858.067,-222 864.067,-216 870.067,-216 870.067,-216 908.067,-216 908.067,-216 914.067,-216 920.067,-222 920.067,-228 920.067,-228 920.067,-240 920.067,-240 920.067,-246 914.067,-252 908.067,-252"/>
<text text-anchor="middle" x="889.067" y="-237" font-family="sans" font-size="10.00" fill="#000000">fastqc</text>
<text text-anchor="middle" x="889.067" y="-226" font-family="sans" font-size="10.00" fill="#000000">tool: derep</text>
</g>
<!-- 24&#45;&gt;1 -->
<g id="edge17" class="edge">
<title>24&#45;&gt;1</title>
<path fill="none" stroke="#c0c0c0" stroke-width="2" d="M873.3877,-215.8575C853.161,-192.7704 818.7211,-154.6087 803.067,-144 773.0174,-123.6355 734.1168,-109.0378 705.9769,-100.1953"/>
<polygon fill="#c0c0c0" stroke="#c0c0c0" stroke-width="2" points="706.7186,-96.7625 696.1327,-97.1978 704.6796,-103.459 706.7186,-96.7625"/>
</g>
<!-- 25&#45;&gt;24 -->
<g id="edge40" class="edge">
<title>25&#45;&gt;24</title>
<path fill="none" stroke="#c0c0c0" stroke-width="2" d="M913.7397,-287.8314C910.094,-279.8771 905.7362,-270.369 901.7043,-261.5723"/>
<polygon fill="#c0c0c0" stroke="#c0c0c0" stroke-width="2" points="904.8548,-260.0456 897.5064,-252.4133 898.4913,-262.9622 904.8548,-260.0456"/>
</g>
<!-- 33 -->
<g id="node34" class="node">
<title>33</title>
<path fill="none" stroke="#afd856" stroke-width="2" d="M1010.067,-252C1010.067,-252 950.067,-252 950.067,-252 944.067,-252 938.067,-246 938.067,-240 938.067,-240 938.067,-228 938.067,-228 938.067,-222 944.067,-216 950.067,-216 950.067,-216 1010.067,-216 1010.067,-216 1016.067,-216 1022.067,-222 1022.067,-228 1022.067,-228 1022.067,-240 1022.067,-240 1022.067,-246 1016.067,-252 1010.067,-252"/>
<text text-anchor="middle" x="980.067" y="-231.5" font-family="sans" font-size="10.00" fill="#000000">low_complexity</text>
</g>
<!-- 25&#45;&gt;33 -->
<g id="edge49" class="edge">
<title>25&#45;&gt;33</title>
<path fill="none" stroke="#c0c0c0" stroke-width="2" d="M936.7029,-287.8314C943.3831,-279.5386 951.4239,-269.557 958.7574,-260.4533"/>
<polygon fill="#c0c0c0" stroke="#c0c0c0" stroke-width="2" points="961.6864,-262.3965 965.2341,-252.4133 956.2351,-258.0052 961.6864,-262.3965"/>
</g>
<!-- 26 -->
<g id="node27" class="node">
<title>26</title>
<path fill="none" stroke="#d8ac56" stroke-width="2" d="M1314.067,-180C1314.067,-180 1232.067,-180 1232.067,-180 1226.067,-180 1220.067,-174 1220.067,-168 1220.067,-168 1220.067,-156 1220.067,-156 1220.067,-150 1226.067,-144 1232.067,-144 1232.067,-144 1314.067,-144 1314.067,-144 1320.067,-144 1326.067,-150 1326.067,-156 1326.067,-156 1326.067,-168 1326.067,-168 1326.067,-174 1320.067,-180 1314.067,-180"/>
<text text-anchor="middle" x="1273.067" y="-165" font-family="sans" font-size="10.00" fill="#000000">fastqc</text>
<text text-anchor="middle" x="1273.067" y="-154" font-family="sans" font-size="10.00" fill="#000000">tool: low_complexity</text>
</g>
<!-- 26&#45;&gt;1 -->
<g id="edge18" class="edge">
<title>26&#45;&gt;1</title>
<path fill="none" stroke="#c0c0c0" stroke-width="2" d="M1219.8511,-146.8678C1215.2105,-145.8024 1210.5689,-144.8254 1206.067,-144 1020.2741,-109.934 794.0963,-96.034 706.3485,-91.6644"/>
<polygon fill="#c0c0c0" stroke="#c0c0c0" stroke-width="2" points="706.2624,-88.1562 696.1043,-91.1666 705.9226,-95.148 706.2624,-88.1562"/>
</g>
<!-- 27&#45;&gt;0 -->
<g id="edge5" class="edge">
<title>27&#45;&gt;0</title>
<path fill="none" stroke="#c0c0c0" stroke-width="2" d="M1318.0085,-215.7767C1331.2177,-206.9077 1344.8047,-194.9055 1352.067,-180 1359.0751,-165.6164 1359.6168,-158.1068 1352.067,-144 1324.8461,-93.1372 1298.4376,-91.2831 1244.067,-72 1144.1682,-36.5698 817.0706,-22.8293 706.2015,-19.1187"/>
<polygon fill="#c0c0c0" stroke="#c0c0c0" stroke-width="2" points="706.2712,-15.6192 696.1622,-18.7905 706.0424,-22.6155 706.2712,-15.6192"/>
</g>
<!-- 27&#45;&gt;26 -->
<g id="edge42" class="edge">
<title>27&#45;&gt;26</title>
<path fill="none" stroke="#c0c0c0" stroke-width="2" d="M1280.5436,-215.8314C1279.4741,-208.131 1278.2023,-198.9743 1277.0138,-190.4166"/>
<polygon fill="#c0c0c0" stroke="#c0c0c0" stroke-width="2" points="1280.4669,-189.8367 1275.6244,-180.4133 1273.5335,-190.7997 1280.4669,-189.8367"/>
</g>
<!-- 28 -->
<g id="node29" class="node">
<title>28</title>
<path fill="none" stroke="#d8ac56" stroke-width="2" d="M122.067,-180C122.067,-180 40.067,-180 40.067,-180 34.067,-180 28.067,-174 28.067,-168 28.067,-168 28.067,-156 28.067,-156 28.067,-150 34.067,-144 40.067,-144 40.067,-144 122.067,-144 122.067,-144 128.067,-144 134.067,-150 134.067,-156 134.067,-156 134.067,-168 134.067,-168 134.067,-174 128.067,-180 122.067,-180"/>
<text text-anchor="middle" x="81.067" y="-165" font-family="sans" font-size="10.00" fill="#000000">fastqc</text>
<text text-anchor="middle" x="81.067" y="-154" font-family="sans" font-size="10.00" fill="#000000">tool: low_complexity</text>
</g>
<!-- 28&#45;&gt;1 -->
<g id="edge19" class="edge">
<title>28&#45;&gt;1</title>
<path fill="none" stroke="#c0c0c0" stroke-width="2" d="M134.3517,-145.8689C137.2878,-145.1871 140.2066,-144.5573 143.067,-144 324.2789,-108.6927 545.3975,-95.5333 631.8858,-91.5134"/>
<polygon fill="#c0c0c0" stroke="#c0c0c0" stroke-width="2" points="632.1606,-95.0047 641.9926,-91.0572 631.8449,-88.0118 632.1606,-95.0047"/>
</g>
<!-- 29&#45;&gt;0 -->
<g id="edge4" class="edge">
<title>29&#45;&gt;0</title>
<path fill="none" stroke="#c0c0c0" stroke-width="2" d="M43.7668,-215.9669C29.9212,-207.189 15.7313,-195.2027 8.067,-180 -17.05,-130.1781 22.2509,-97.1284 72.067,-72 122.0063,-46.8094 509.0937,-25.8454 631.8487,-19.7744"/>
<polygon fill="#c0c0c0" stroke="#c0c0c0" stroke-width="2" points="632.077,-23.2675 641.8936,-19.2818 631.7341,-16.2759 632.077,-23.2675"/>
</g>
<!-- 29&#45;&gt;28 -->
<g id="edge44" class="edge">
<title>29&#45;&gt;28</title>
<path fill="none" stroke="#c0c0c0" stroke-width="2" d="M81.067,-215.8314C81.067,-208.131 81.067,-198.9743 81.067,-190.4166"/>
<polygon fill="#c0c0c0" stroke="#c0c0c0" stroke-width="2" points="84.5671,-190.4132 81.067,-180.4133 77.5671,-190.4133 84.5671,-190.4132"/>
</g>
<!-- 30 -->
<g id="node31" class="node">
<title>30</title>
<path fill="none" stroke="#d8ac56" stroke-width="2" d="M572.067,-180C572.067,-180 490.067,-180 490.067,-180 484.067,-180 478.067,-174 478.067,-168 478.067,-168 478.067,-156 478.067,-156 478.067,-150 484.067,-144 490.067,-144 490.067,-144 572.067,-144 572.067,-144 578.067,-144 584.067,-150 584.067,-156 584.067,-156 584.067,-168 584.067,-168 584.067,-174 578.067,-180 572.067,-180"/>
<text text-anchor="middle" x="531.067" y="-165" font-family="sans" font-size="10.00" fill="#000000">fastqc</text>
<text text-anchor="middle" x="531.067" y="-154" font-family="sans" font-size="10.00" fill="#000000">tool: low_complexity</text>
</g>
<!-- 30&#45;&gt;1 -->
<g id="edge20" class="edge">
<title>30&#45;&gt;1</title>
<path fill="none" stroke="#c0c0c0" stroke-width="2" d="M565.8903,-143.8314C586.2473,-133.2103 611.9143,-119.8188 632.5551,-109.0497"/>
<polygon fill="#c0c0c0" stroke="#c0c0c0" stroke-width="2" points="634.4011,-112.0343 641.648,-104.3056 631.1631,-105.8282 634.4011,-112.0343"/>
</g>
<!-- 31&#45;&gt;0 -->
<g id="edge2" class="edge">
<title>31&#45;&gt;0</title>
<path fill="none" stroke="#c0c0c0" stroke-width="2" d="M429.6841,-232.0964C322.3017,-226.8411 46.1158,-210.4647 19.067,-180 8.444,-168.0354 8.8866,-156.3434 19.067,-144 97.9518,-48.3553 505.4102,-24.4336 631.7013,-19.2732"/>
<polygon fill="#c0c0c0" stroke="#c0c0c0" stroke-width="2" points="632.1572,-22.7581 642.0122,-18.8685 631.8826,-15.7634 632.1572,-22.7581"/>
</g>
<!-- 31&#45;&gt;30 -->
<g id="edge46" class="edge">
<title>31&#45;&gt;30</title>
<path fill="none" stroke="#c0c0c0" stroke-width="2" d="M486.9552,-215.8314C493.82,-207.454 502.0971,-197.3531 509.6181,-188.1749"/>
<polygon fill="#c0c0c0" stroke="#c0c0c0" stroke-width="2" points="512.3473,-190.3665 515.9784,-180.4133 506.9329,-185.9297 512.3473,-190.3665"/>
</g>
<!-- 32 -->
<g id="node33" class="node">
<title>32</title>
<path fill="none" stroke="#d8ac56" stroke-width="2" d="M944.067,-180C944.067,-180 862.067,-180 862.067,-180 856.067,-180 850.067,-174 850.067,-168 850.067,-168 850.067,-156 850.067,-156 850.067,-150 856.067,-144 862.067,-144 862.067,-144 944.067,-144 944.067,-144 950.067,-144 956.067,-150 956.067,-156 956.067,-156 956.067,-168 956.067,-168 956.067,-174 950.067,-180 944.067,-180"/>
<text text-anchor="middle" x="903.067" y="-165" font-family="sans" font-size="10.00" fill="#000000">fastqc</text>
<text text-anchor="middle" x="903.067" y="-154" font-family="sans" font-size="10.00" fill="#000000">tool: low_complexity</text>
</g>
<!-- 32&#45;&gt;1 -->
<g id="edge21" class="edge">
<title>32&#45;&gt;1</title>
<path fill="none" stroke="#c0c0c0" stroke-width="2" d="M849.9688,-145.6621C806.0262,-132.1413 744.7359,-113.2827 705.9825,-101.3586"/>
<polygon fill="#c0c0c0" stroke="#c0c0c0" stroke-width="2" points="706.7488,-97.9325 696.1617,-98.3368 704.6901,-104.623 706.7488,-97.9325"/>
</g>
<!-- 33&#45;&gt;0 -->
<g id="edge3" class="edge">
<title>33&#45;&gt;0</title>
<path fill="none" stroke="#c0c0c0" stroke-width="2" d="M1022.1388,-229.0754C1113.9481,-218.1303 1324.909,-191.82 1335.067,-180 1345.4954,-167.8654 1345.2752,-156.3205 1335.067,-144 1253.9176,-46.0585 834.9235,-23.6807 706.5178,-19.0884"/>
<polygon fill="#c0c0c0" stroke="#c0c0c0" stroke-width="2" points="706.5051,-15.5861 696.3913,-18.742 706.2657,-22.582 706.5051,-15.5861"/>
</g>
<!-- 33&#45;&gt;32 -->
<g id="edge48" class="edge">
<title>33&#45;&gt;32</title>
<path fill="none" stroke="#c0c0c0" stroke-width="2" d="M960.6367,-215.8314C951.3351,-207.1337 940.0466,-196.5783 929.9384,-187.1265"/>
<polygon fill="#c0c0c0" stroke="#c0c0c0" stroke-width="2" points="932.1859,-184.4363 922.4912,-180.1628 927.4049,-189.5493 932.1859,-184.4363"/>
</g>
</g>
</svg>
