<?xml version="1.0" encoding="UTF-8" standalone="no"?>
<!DOCTYPE svg PUBLIC "-//W3C//DTD SVG 1.1//EN"
 "http://www.w3.org/Graphics/SVG/1.1/DTD/svg11.dtd">
<!-- Generated by graphviz version 2.40.1 (0)
 -->
<!-- Title: snakemake_dag Pages: 1 -->
<svg width="1397pt" height="1336pt"
 viewBox="0.00 0.00 1397.00 1336.00" xmlns="http://www.w3.org/2000/svg" xmlns:xlink="http://www.w3.org/1999/xlink">
<g id="graph0" class="graph" transform="scale(1 1) rotate(0) translate(4 1332)">
<title>snakemake_dag</title>
<polygon fill="#ffffff" stroke="transparent" points="-4,4 -4,-1332 1393,-1332 1393,4 -4,4"/>
<!-- 0 -->
<g id="node1" class="node">
<title>0</title>
<text text-anchor="start" x="1075.5" y="-143.6" font-family="sans" font-weight="bold" font-size="18.00" fill="#000000">all</text>
<text text-anchor="start" x="890.5" y="-119.8" font-family="sans" font-size="10.00" fill="#000000"> </text>
<text text-anchor="start" x="894.5" y="-119.8" font-family="sans" font-weight="bold" font-size="14.00" fill="#000000">↪ input</text>
<text text-anchor="start" x="947.5" y="-119.8" font-family="sans" font-size="10.00" fill="#000000"> </text>
<text text-anchor="start" x="890.5" y="-100" font-family="monospace" font-size="10.00" fill="#000000">reports/multiqc.html</text>
<text text-anchor="start" x="890.5" y="-82" font-family="monospace" font-size="10.00" fill="#000000">results/reads/low_complexity/HD827sonic_1_lib1_collapsed.fastq.gz</text>
<text text-anchor="start" x="890.5" y="-64" font-family="monospace" font-size="10.00" fill="#000000">results/reads/low_complexity/HD827sonic_2_lib1_collapsed.fastq.gz</text>
<text text-anchor="start" x="890.5" y="-46" font-family="monospace" font-size="10.00" fill="#000000">results/reads/low_complexity/HD827sonic_2_lib2_collapsed.fastq.gz</text>
<text text-anchor="start" x="890.5" y="-28" font-family="monospace" font-size="10.00" fill="#000000">results/reads/low_complexity/HD827sonic_2_lib3_collapsed.fastq.gz</text>
<text text-anchor="start" x="1274.5" y="-10" font-family="sans" font-size="10.00" fill="#000000"> &#160;</text>
<polygon fill="#d95757" stroke="#d95757" points="884.5,-134 884.5,-134 1288.5,-134 1288.5,-134 884.5,-134"/>
<polygon fill="#d95757" stroke="#d95757" points="884.5,-22 884.5,-22 1288.5,-22 1288.5,-22 884.5,-22"/>
<polygon fill="none" stroke="#d95757" stroke-width="2" points="884,-1 884,-163 1287,-163 1287,-1 884,-1"/>
</g>
<!-- 1 -->
<g id="node2" class="node">
<title>1</title>
<text text-anchor="start" x="833.5" y="-581.6" font-family="sans" font-weight="bold" font-size="18.00" fill="#000000">multiqc</text>
<text text-anchor="start" x="649.5" y="-557.8" font-family="sans" font-size="10.00" fill="#000000"> </text>
<text text-anchor="start" x="653.5" y="-557.8" font-family="sans" font-weight="bold" font-size="14.00" fill="#000000">↪ input</text>
<text text-anchor="start" x="706.5" y="-557.8" font-family="sans" font-size="10.00" fill="#000000"> </text>
<text text-anchor="start" x="649.5" y="-538" font-family="monospace" font-size="10.00" fill="#000000">stats/reads/fastqc/derep/HD827sonic_1_lib1_collapsed_fastqc.zip</text>
<text text-anchor="start" x="649.5" y="-520" font-family="monospace" font-size="10.00" fill="#000000">stats/reads/fastqc/derep/HD827sonic_2_lib1_collapsed_fastqc.zip</text>
<text text-anchor="start" x="649.5" y="-502" font-family="monospace" font-size="10.00" fill="#000000">stats/reads/fastqc/derep/HD827sonic_2_lib2_collapsed_fastqc.zip</text>
<text text-anchor="start" x="649.5" y="-484" font-family="monospace" font-size="10.00" fill="#000000">stats/reads/fastqc/derep/HD827sonic_2_lib3_collapsed_fastqc.zip</text>
<text text-anchor="start" x="649.5" y="-466" font-family="monospace" font-size="10.00" fill="#000000">stats/reads/fastqc/low_complexity/HD827sonic_1_lib1_collapsed_fastqc.zip</text>
<text text-anchor="start" x="649.5" y="-448" font-family="monospace" font-size="10.00" fill="#000000">stats/reads/fastqc/low_complexity/HD827sonic_2_lib1_collapsed_fastqc.zip</text>
<text text-anchor="start" x="649.5" y="-430" font-family="monospace" font-size="10.00" fill="#000000">stats/reads/fastqc/low_complexity/HD827sonic_2_lib2_collapsed_fastqc.zip</text>
<text text-anchor="start" x="649.5" y="-412" font-family="monospace" font-size="10.00" fill="#000000">stats/reads/fastqc/low_complexity/HD827sonic_2_lib3_collapsed_fastqc.zip</text>
<text text-anchor="start" x="649.5" y="-394" font-family="monospace" font-size="10.00" fill="#000000">stats/reads/fastqc/merge_lanes/HD827sonic_1_lib1_collapsed_fastqc.zip</text>
<text text-anchor="start" x="649.5" y="-376" font-family="monospace" font-size="10.00" fill="#000000">stats/reads/fastqc/merge_lanes/HD827sonic_2_lib1_collapsed_fastqc.zip</text>
<text text-anchor="start" x="649.5" y="-358" font-family="monospace" font-size="10.00" fill="#000000">stats/reads/fastqc/merge_lanes/HD827sonic_2_lib2_collapsed_fastqc.zip</text>
<text text-anchor="start" x="649.5" y="-340" font-family="monospace" font-size="10.00" fill="#000000">stats/reads/fastqc/merge_lanes/HD827sonic_2_lib3_collapsed_fastqc.zip</text>
<text text-anchor="start" x="649.5" y="-322" font-family="monospace" font-size="10.00" fill="#000000">stats/reads/nonpareil/merge_lanes/HD827sonic_1_lib1_collapsed.json</text>
<text text-anchor="start" x="649.5" y="-304" font-family="monospace" font-size="10.00" fill="#000000">stats/reads/nonpareil/merge_lanes/HD827sonic_2_lib1_collapsed.json</text>
<text text-anchor="start" x="649.5" y="-286" font-family="monospace" font-size="10.00" fill="#000000">stats/reads/nonpareil/merge_lanes/HD827sonic_2_lib2_collapsed.json</text>
<text text-anchor="start" x="649.5" y="-268" font-family="monospace" font-size="10.00" fill="#000000">stats/reads/nonpareil/merge_lanes/HD827sonic_2_lib3_collapsed.json</text>
<text text-anchor="start" x="1013.5" y="-247.8" font-family="sans" font-size="10.00" fill="#000000"> </text>
<text text-anchor="start" x="1017.5" y="-247.8" font-family="sans" font-weight="bold" font-size="14.00" fill="#000000">output →</text>
<text text-anchor="start" x="1078.5" y="-247.8" font-family="sans" font-size="10.00" fill="#000000"> </text>
<text text-anchor="start" x="649.5" y="-228" font-family="monospace" font-size="10.00" fill="#000000">reports/multiqc.html</text>
<text text-anchor="start" x="649.5" y="-210" font-family="monospace" font-size="10.00" fill="#000000">reports/multiqc_data.zip</text>
<polygon fill="#57d957" stroke="#57d957" points="643.5,-572 643.5,-572 1089.5,-572 1089.5,-572 643.5,-572"/>
<polygon fill="#57d957" stroke="#57d957" points="643.5,-262 643.5,-262 1089.5,-262 1089.5,-262 643.5,-262"/>
<polygon fill="none" stroke="#57d957" stroke-width="2" points="643,-201 643,-601 1088,-601 1088,-201 643,-201"/>
</g>
<!-- 1&#45;&gt;0 -->
<g id="edge2" class="edge">
<title>1&#45;&gt;0</title>
<path fill="none" stroke="#c0c0c0" stroke-width="2" d="M1004.2052,-199.8775C1010.6424,-190.5435 1016.9387,-181.4139 1022.997,-172.6293"/>
<polygon fill="#c0c0c0" stroke="#c0c0c0" stroke-width="2" points="1025.9333,-174.5365 1028.7295,-164.3173 1020.1708,-170.5623 1025.9333,-174.5365"/>
</g>
<!-- 2 -->
<g id="node3" class="node">
<title>2</title>
<text text-anchor="start" x="839.5" y="-758.6" font-family="sans" font-weight="bold" font-size="18.00" fill="#000000">fastqc</text>
<text text-anchor="start" x="460.5" y="-734.8" font-family="sans" font-size="10.00" fill="#000000"> </text>
<text text-anchor="start" x="464.5" y="-734.8" font-family="sans" font-weight="bold" font-size="14.00" fill="#000000">↪ input</text>
<text text-anchor="start" x="517.5" y="-734.8" font-family="sans" font-size="10.00" fill="#000000"> </text>
<text text-anchor="start" x="460.5" y="-715" font-family="monospace" font-size="10.00" fill="#000000">&lt;input function&gt;</text>
<text text-anchor="start" x="1202.5" y="-694.8" font-family="sans" font-size="10.00" fill="#000000"> </text>
<text text-anchor="start" x="1206.5" y="-694.8" font-family="sans" font-weight="bold" font-size="14.00" fill="#000000">output →</text>
<text text-anchor="start" x="1267.5" y="-694.8" font-family="sans" font-size="10.00" fill="#000000"> </text>
<text text-anchor="start" x="460.5" y="-675" font-family="monospace" font-size="10.00" fill="#000000">stats/reads/fastqc/{tool,merge_lanes|extend/tadpole|derep|represent/grep|low_complexity}/{sample}_{library}_{read_type_trim}.html</text>
<text text-anchor="start" x="460.5" y="-657" font-family="monospace" font-size="10.00" fill="#000000">stats/reads/fastqc/{tool,merge_lanes|extend/tadpole|derep|represent/grep|low_complexity}/{sample}_{library}_{read_type_trim}_fastqc.zip</text>
<polygon fill="#d9ad57" stroke="#d9ad57" points="454.5,-749 454.5,-749 1278.5,-749 1278.5,-749 454.5,-749"/>
<polygon fill="#d9ad57" stroke="#d9ad57" points="454.5,-709 454.5,-709 1278.5,-709 1278.5,-709 454.5,-709"/>
<polygon fill="none" stroke="#d9ad57" stroke-width="2" points="454,-648 454,-778 1277,-778 1277,-648 454,-648"/>
</g>
<!-- 2&#45;&gt;1 -->
<g id="edge4" class="edge">
<title>2&#45;&gt;1</title>
<path fill="none" stroke="#c0c0c0" stroke-width="2" d="M865.5,-646.8328C865.5,-636.1422 865.5,-624.5977 865.5,-612.5443"/>
<polygon fill="#c0c0c0" stroke="#c0c0c0" stroke-width="2" points="869.0001,-612.3074 865.5,-602.3074 862.0001,-612.3074 869.0001,-612.3074"/>
</g>
<!-- 3 -->
<g id="node4" class="node">
<title>3</title>
<text text-anchor="start" x="727.5" y="-1307.6" font-family="sans" font-weight="bold" font-size="18.00" fill="#000000">merge_lanes</text>
<text text-anchor="start" x="580.5" y="-1283.8" font-family="sans" font-size="10.00" fill="#000000"> </text>
<text text-anchor="start" x="584.5" y="-1283.8" font-family="sans" font-weight="bold" font-size="14.00" fill="#000000">↪ input</text>
<text text-anchor="start" x="637.5" y="-1283.8" font-family="sans" font-size="10.00" fill="#000000"> </text>
<text text-anchor="start" x="580.5" y="-1264" font-family="monospace" font-size="10.00" fill="#000000">&lt;input function&gt;</text>
<text text-anchor="start" x="914.5" y="-1243.8" font-family="sans" font-size="10.00" fill="#000000"> </text>
<text text-anchor="start" x="918.5" y="-1243.8" font-family="sans" font-weight="bold" font-size="14.00" fill="#000000">output →</text>
<text text-anchor="start" x="979.5" y="-1243.8" font-family="sans" font-size="10.00" fill="#000000"> </text>
<text text-anchor="start" x="580.5" y="-1224" font-family="monospace" font-size="10.00" fill="#000000">temp/reads/merge_lanes/{sample}_{library}_{read_type_trim}.fastq.gz</text>
<polygon fill="#82d957" stroke="#82d957" points="574.5,-1298 574.5,-1298 990.5,-1298 990.5,-1298 574.5,-1298"/>
<polygon fill="#82d957" stroke="#82d957" points="574.5,-1258 574.5,-1258 990.5,-1258 990.5,-1258 574.5,-1258"/>
<polygon fill="none" stroke="#82d957" stroke-width="2" points="574,-1215 574,-1327 989,-1327 989,-1215 574,-1215"/>
</g>
<!-- 3&#45;&gt;2 -->
<g id="edge7" class="edge">
<title>3&#45;&gt;2</title>
<path fill="none" stroke="#c0c0c0" stroke-width="2" d="M783.3069,-1213.9782C785.5418,-1160.9322 790.3738,-1079.8031 800.5,-1010 811.5185,-934.0459 830.99,-848.5583 845.7574,-788.8708"/>
<polygon fill="#c0c0c0" stroke="#c0c0c0" stroke-width="2" points="849.1583,-789.6977 848.1777,-779.1483 842.3656,-788.0066 849.1583,-789.6977"/>
</g>
<!-- 5 -->
<g id="node6" class="node">
<title>5</title>
<text text-anchor="start" x="384.5" y="-1157.6" font-family="sans" font-weight="bold" font-size="18.00" fill="#000000">nonpareil_infer</text>
<text text-anchor="start" x="245.5" y="-1133.8" font-family="sans" font-size="10.00" fill="#000000"> </text>
<text text-anchor="start" x="249.5" y="-1133.8" font-family="sans" font-weight="bold" font-size="14.00" fill="#000000">↪ input</text>
<text text-anchor="start" x="302.5" y="-1133.8" font-family="sans" font-size="10.00" fill="#000000"> </text>
<text text-anchor="start" x="245.5" y="-1114" font-family="monospace" font-size="10.00" fill="#000000">&lt;input function&gt;</text>
<text text-anchor="start" x="585.5" y="-1093.8" font-family="sans" font-size="10.00" fill="#000000"> </text>
<text text-anchor="start" x="589.5" y="-1093.8" font-family="sans" font-weight="bold" font-size="14.00" fill="#000000">output →</text>
<text text-anchor="start" x="650.5" y="-1093.8" font-family="sans" font-size="10.00" fill="#000000"> </text>
<text text-anchor="start" x="245.5" y="-1074" font-family="monospace" font-size="10.00" fill="#000000">stats/reads/nonpareil/{tool}/{sample}_{library}_{read_type_trim}.log</text>
<text text-anchor="start" x="245.5" y="-1056" font-family="monospace" font-size="10.00" fill="#000000">stats/reads/nonpareil/{tool}/{sample}_{library}_{read_type_trim}.npa</text>
<text text-anchor="start" x="245.5" y="-1038" font-family="monospace" font-size="10.00" fill="#000000">stats/reads/nonpareil/{tool}/{sample}_{library}_{read_type_trim}.npc</text>
<text text-anchor="start" x="245.5" y="-1020" font-family="monospace" font-size="10.00" fill="#000000">stats/reads/nonpareil/{tool}/{sample}_{library}_{read_type_trim}.npo</text>
<polygon fill="#57d982" stroke="#57d982" points="239.5,-1148 239.5,-1148 661.5,-1148 661.5,-1148 239.5,-1148"/>
<polygon fill="#57d982" stroke="#57d982" points="239.5,-1108 239.5,-1108 661.5,-1108 661.5,-1108 239.5,-1108"/>
<polygon fill="none" stroke="#57d982" stroke-width="2" points="239,-1011 239,-1177 660,-1177 660,-1011 239,-1011"/>
</g>
<!-- 3&#45;&gt;5 -->
<g id="edge9" class="edge">
<title>3&#45;&gt;5</title>
<path fill="none" stroke="#c0c0c0" stroke-width="2" d="M674.1676,-1213.7776C655.603,-1203.8802 635.9148,-1193.3838 616.2133,-1182.8803"/>
<polygon fill="#c0c0c0" stroke="#c0c0c0" stroke-width="2" points="617.6352,-1179.672 607.1643,-1178.056 614.342,-1185.849 617.6352,-1179.672"/>
</g>
<!-- 6 -->
<g id="node7" class="node">
<title>6</title>
<text text-anchor="start" x="993" y="-1139.6" font-family="sans" font-weight="bold" font-size="18.00" fill="#000000">seqkit</text>
<text text-anchor="start" x="817.5" y="-1115.8" font-family="sans" font-size="10.00" fill="#000000"> </text>
<text text-anchor="start" x="821.5" y="-1115.8" font-family="sans" font-weight="bold" font-size="14.00" fill="#000000">↪ input</text>
<text text-anchor="start" x="874.5" y="-1115.8" font-family="sans" font-size="10.00" fill="#000000"> </text>
<text text-anchor="start" x="817.5" y="-1096" font-family="monospace" font-size="10.00" fill="#000000">temp/reads/merge_lanes/{sample}_{library}_{read_type_trim}.fastq.gz</text>
<text text-anchor="start" x="1151.5" y="-1075.8" font-family="sans" font-size="10.00" fill="#000000"> </text>
<text text-anchor="start" x="1155.5" y="-1075.8" font-family="sans" font-weight="bold" font-size="14.00" fill="#000000">output →</text>
<text text-anchor="start" x="1216.5" y="-1075.8" font-family="sans" font-size="10.00" fill="#000000"> </text>
<text text-anchor="start" x="817.5" y="-1056" font-family="monospace" font-size="10.00" fill="#000000">stats/reads/derep/{sample}_{library}_{read_type_trim}.dup.tsv</text>
<text text-anchor="start" x="817.5" y="-1038" font-family="monospace" font-size="10.00" fill="#000000">temp/reads/derep/{sample}_{library}_{read_type_trim}.fastq.gz</text>
<polygon fill="#57d9d9" stroke="#57d9d9" points="811.5,-1130 811.5,-1130 1227.5,-1130 1227.5,-1130 811.5,-1130"/>
<polygon fill="#57d9d9" stroke="#57d9d9" points="811.5,-1090 811.5,-1090 1227.5,-1090 1227.5,-1090 811.5,-1090"/>
<polygon fill="none" stroke="#57d9d9" stroke-width="2" points="811,-1029 811,-1159 1226,-1159 1226,-1029 811,-1029"/>
</g>
<!-- 3&#45;&gt;6 -->
<g id="edge10" class="edge">
<title>3&#45;&gt;6</title>
<path fill="none" stroke="#c0c0c0" stroke-width="2" d="M858.1198,-1213.7776C878.3863,-1198.6419 900.5283,-1182.1054 921.7119,-1166.2848"/>
<polygon fill="#c0c0c0" stroke="#c0c0c0" stroke-width="2" points="923.8601,-1169.0489 929.7779,-1160.2608 919.6714,-1163.4403 923.8601,-1169.0489"/>
</g>
<!-- 4 -->
<g id="node5" class="node">
<title>4</title>
<text text-anchor="start" x="155" y="-767.6" font-family="sans" font-weight="bold" font-size="18.00" fill="#000000">nonpareil_plot</text>
<text text-anchor="start" x="7.5" y="-743.8" font-family="sans" font-size="10.00" fill="#000000"> </text>
<text text-anchor="start" x="11.5" y="-743.8" font-family="sans" font-weight="bold" font-size="14.00" fill="#000000">↪ input</text>
<text text-anchor="start" x="64.5" y="-743.8" font-family="sans" font-size="10.00" fill="#000000"> </text>
<text text-anchor="start" x="7.5" y="-724" font-family="monospace" font-size="10.00" fill="#000000">stats/reads/nonpareil/{tool}/{sample}_{library}_{read_type_trim}.npo</text>
<text text-anchor="start" x="359.5" y="-703.8" font-family="sans" font-size="10.00" fill="#000000"> </text>
<text text-anchor="start" x="363.5" y="-703.8" font-family="sans" font-weight="bold" font-size="14.00" fill="#000000">output →</text>
<text text-anchor="start" x="424.5" y="-703.8" font-family="sans" font-size="10.00" fill="#000000"> </text>
<text text-anchor="start" x="7.5" y="-684" font-family="monospace" font-size="10.00" fill="#000000">reports/reads/nonpareil/{tool}/{sample}_{library}_{read_type_trim}.pdf</text>
<text text-anchor="start" x="7.5" y="-666" font-family="monospace" font-size="10.00" fill="#000000">stats/reads/nonpareil/{tool}/{sample}_{library}_{read_type_trim}.json</text>
<text text-anchor="start" x="7.5" y="-648" font-family="monospace" font-size="10.00" fill="#000000">stats/reads/nonpareil/{tool}/{sample}_{library}_{read_type_trim}.tsv</text>
<polygon fill="#57d9ad" stroke="#57d9ad" points="1.5,-758 1.5,-758 435.5,-758 435.5,-758 1.5,-758"/>
<polygon fill="#57d9ad" stroke="#57d9ad" points="1.5,-718 1.5,-718 435.5,-718 435.5,-718 1.5,-718"/>
<polygon fill="none" stroke="#57d9ad" stroke-width="2" points="1,-639 1,-787 434,-787 434,-639 1,-639"/>
</g>
<!-- 4&#45;&gt;1 -->
<g id="edge3" class="edge">
<title>4&#45;&gt;1</title>
<path fill="none" stroke="#c0c0c0" stroke-width="2" d="M373.5368,-637.8712C451.2112,-600.4724 546.6873,-554.5024 632.7956,-513.0429"/>
<polygon fill="#c0c0c0" stroke="#c0c0c0" stroke-width="2" points="634.4095,-516.1504 641.9011,-508.6587 631.3727,-509.8434 634.4095,-516.1504"/>
</g>
<!-- 5&#45;&gt;4 -->
<g id="edge8" class="edge">
<title>5&#45;&gt;4</title>
<path fill="none" stroke="#c0c0c0" stroke-width="2" d="M398.2994,-1009.9163C359.747,-946.6039 307.1346,-860.2017 268.6054,-796.9274"/>
<polygon fill="#c0c0c0" stroke="#c0c0c0" stroke-width="2" points="271.4555,-794.8782 263.2651,-788.1574 265.4767,-798.5188 271.4555,-794.8782"/>
</g>
<!-- 6&#45;&gt;2 -->
<g id="edge5" class="edge">
<title>6&#45;&gt;2</title>
<path fill="none" stroke="#c0c0c0" stroke-width="2" d="M925.019,-1027.7505C908.9353,-1011.994 894.2751,-993.9014 884.5,-974 856.3217,-916.631 853.3758,-843.4941 856.4395,-789.2448"/>
<polygon fill="#c0c0c0" stroke="#c0c0c0" stroke-width="2" points="859.9493,-789.2055 857.1016,-779.0005 852.9639,-788.7539 859.9493,-789.2055"/>
</g>
<!-- 7 -->
<g id="node8" class="node">
<title>7</title>
<text text-anchor="start" x="1075" y="-953.6" font-family="sans" font-weight="bold" font-size="18.00" fill="#000000">low_complexity</text>
<text text-anchor="start" x="901.5" y="-929.8" font-family="sans" font-size="10.00" fill="#000000"> </text>
<text text-anchor="start" x="905.5" y="-929.8" font-family="sans" font-weight="bold" font-size="14.00" fill="#000000">↪ input</text>
<text text-anchor="start" x="958.5" y="-929.8" font-family="sans" font-size="10.00" fill="#000000"> </text>
<text text-anchor="start" x="901.5" y="-910" font-family="monospace" font-size="10.00" fill="#000000">temp/reads/derep/{sample}_{library}_{read_type_trim}.fastq.gz</text>
<text text-anchor="start" x="1313.5" y="-889.8" font-family="sans" font-size="10.00" fill="#000000"> </text>
<text text-anchor="start" x="1317.5" y="-889.8" font-family="sans" font-weight="bold" font-size="14.00" fill="#000000">output →</text>
<text text-anchor="start" x="1378.5" y="-889.8" font-family="sans" font-size="10.00" fill="#000000"> </text>
<text text-anchor="start" x="901.5" y="-870" font-family="monospace" font-size="10.00" fill="#000000">results/reads/low_complexity/{sample}_{library}_{read_type_trim}.fastq.gz</text>
<text text-anchor="start" x="901.5" y="-852" font-family="monospace" font-size="10.00" fill="#000000">stats/reads/low_complexity/{sample}_{library}_{read_type_trim}.txt</text>
<text text-anchor="start" x="901.5" y="-834" font-family="monospace" font-size="10.00" fill="#000000">temp/reads/low_complexity/{sample}_{library}_{read_type_trim}.discarded.fastq.gz</text>
<polygon fill="#add957" stroke="#add957" points="895.5,-944 895.5,-944 1389.5,-944 1389.5,-944 895.5,-944"/>
<polygon fill="#add957" stroke="#add957" points="895.5,-904 895.5,-904 1389.5,-904 1389.5,-904 895.5,-904"/>
<polygon fill="none" stroke="#add957" stroke-width="2" points="895,-825 895,-973 1388,-973 1388,-825 895,-825"/>
</g>
<!-- 6&#45;&gt;7 -->
<g id="edge11" class="edge">
<title>6&#45;&gt;7</title>
<path fill="none" stroke="#c0c0c0" stroke-width="2" d="M1060.1422,-1027.9819C1069.289,-1013.4809 1079.0922,-997.9392 1088.6144,-982.843"/>
<polygon fill="#c0c0c0" stroke="#c0c0c0" stroke-width="2" points="1091.8066,-984.3426 1094.1814,-974.0173 1085.886,-980.608 1091.8066,-984.3426"/>
</g>
<!-- 7&#45;&gt;0 -->
<g id="edge1" class="edge">
<title>7&#45;&gt;0</title>
<path fill="none" stroke="#c0c0c0" stroke-width="2" d="M1261.1014,-823.8603C1271.224,-813.0363 1280.0425,-801.0757 1286.5,-788 1316.02,-728.2253 1298.0052,-703.6664 1286.5,-638 1256.7232,-468.0474 1179.3847,-281.5551 1129.7857,-173.5246"/>
<polygon fill="#c0c0c0" stroke="#c0c0c0" stroke-width="2" points="1132.8886,-171.8953 1125.5215,-164.281 1126.5324,-174.8276 1132.8886,-171.8953"/>
</g>
<!-- 7&#45;&gt;2 -->
<g id="edge6" class="edge">
<title>7&#45;&gt;2</title>
<path fill="none" stroke="#c0c0c0" stroke-width="2" d="M1030.0358,-823.8828C1010.8782,-810.9722 991.0115,-797.5838 971.9887,-784.7642"/>
<polygon fill="#c0c0c0" stroke="#c0c0c0" stroke-width="2" points="973.8528,-781.7998 963.6042,-779.1137 969.9408,-787.6047 973.8528,-781.7998"/>
</g>
</g>
</svg>
