<?xml version="1.0" encoding="UTF-8" standalone="no"?>
<!DOCTYPE svg PUBLIC "-//W3C//DTD SVG 1.1//EN"
 "http://www.w3.org/Graphics/SVG/1.1/DTD/svg11.dtd">
<!-- Generated by graphviz version 2.40.1 (0)
 -->
<!-- Title: snakemake_dag Pages: 1 -->
<svg width="1397pt" height="1282pt"
 viewBox="0.00 0.00 1397.00 1282.00" xmlns="http://www.w3.org/2000/svg" xmlns:xlink="http://www.w3.org/1999/xlink">
<g id="graph0" class="graph" transform="scale(1 1) rotate(0) translate(4 1278)">
<title>snakemake_dag</title>
<polygon fill="#ffffff" stroke="transparent" points="-4,4 -4,-1278 1393,-1278 1393,4 -4,4"/>
<!-- 0 -->
<g id="node1" class="node">
<title>0</title>
<text text-anchor="start" x="292.5" y="-125.6" font-family="sans" font-weight="bold" font-size="18.00" fill="#000000">all</text>
<text text-anchor="start" x="107.5" y="-101.8" font-family="sans" font-size="10.00" fill="#000000"> </text>
<text text-anchor="start" x="111.5" y="-101.8" font-family="sans" font-weight="bold" font-size="14.00" fill="#000000">↪ input</text>
<text text-anchor="start" x="164.5" y="-101.8" font-family="sans" font-size="10.00" fill="#000000"> </text>
<text text-anchor="start" x="107.5" y="-82" font-family="monospace" font-size="10.00" fill="#000000">reports/multiqc.html</text>
<text text-anchor="start" x="107.5" y="-64" font-family="monospace" font-size="10.00" fill="#000000">results/reads/low_complexity/HD827sonic_1_lib1_collapsed.fastq.gz</text>
<text text-anchor="start" x="107.5" y="-46" font-family="monospace" font-size="10.00" fill="#000000">results/reads/low_complexity/HD827sonic_2_lib1_collapsed.fastq.gz</text>
<text text-anchor="start" x="107.5" y="-28" font-family="monospace" font-size="10.00" fill="#000000">results/reads/low_complexity/HD827sonic_2_lib2_collapsed.fastq.gz</text>
<text text-anchor="start" x="491.5" y="-10" font-family="sans" font-size="10.00" fill="#000000"> &#160;</text>
<polygon fill="#d95757" stroke="#d95757" points="101.5,-116 101.5,-116 505.5,-116 505.5,-116 101.5,-116"/>
<polygon fill="#d95757" stroke="#d95757" points="101.5,-22 101.5,-22 505.5,-22 505.5,-22 101.5,-22"/>
<polygon fill="none" stroke="#d95757" stroke-width="2" points="101,-1 101,-145 504,-145 504,-1 101,-1"/>
</g>
<!-- 1 -->
<g id="node2" class="node">
<title>1</title>
<text text-anchor="start" x="491.5" y="-545.6" font-family="sans" font-weight="bold" font-size="18.00" fill="#000000">multiqc</text>
<text text-anchor="start" x="307.5" y="-521.8" font-family="sans" font-size="10.00" fill="#000000"> </text>
<text text-anchor="start" x="311.5" y="-521.8" font-family="sans" font-weight="bold" font-size="14.00" fill="#000000">↪ input</text>
<text text-anchor="start" x="364.5" y="-521.8" font-family="sans" font-size="10.00" fill="#000000"> </text>
<text text-anchor="start" x="307.5" y="-502" font-family="monospace" font-size="10.00" fill="#000000">stats/reads/fastqc/derep/HD827sonic_1_lib1_collapsed_fastqc.zip</text>
<text text-anchor="start" x="307.5" y="-484" font-family="monospace" font-size="10.00" fill="#000000">stats/reads/fastqc/derep/HD827sonic_2_lib1_collapsed_fastqc.zip</text>
<text text-anchor="start" x="307.5" y="-466" font-family="monospace" font-size="10.00" fill="#000000">stats/reads/fastqc/derep/HD827sonic_2_lib2_collapsed_fastqc.zip</text>
<text text-anchor="start" x="307.5" y="-448" font-family="monospace" font-size="10.00" fill="#000000">stats/reads/fastqc/low_complexity/HD827sonic_1_lib1_collapsed_fastqc.zip</text>
<text text-anchor="start" x="307.5" y="-430" font-family="monospace" font-size="10.00" fill="#000000">stats/reads/fastqc/low_complexity/HD827sonic_2_lib1_collapsed_fastqc.zip</text>
<text text-anchor="start" x="307.5" y="-412" font-family="monospace" font-size="10.00" fill="#000000">stats/reads/fastqc/low_complexity/HD827sonic_2_lib2_collapsed_fastqc.zip</text>
<text text-anchor="start" x="307.5" y="-394" font-family="monospace" font-size="10.00" fill="#000000">stats/reads/fastqc/merge_lanes/HD827sonic_1_lib1_collapsed_fastqc.zip</text>
<text text-anchor="start" x="307.5" y="-376" font-family="monospace" font-size="10.00" fill="#000000">stats/reads/fastqc/merge_lanes/HD827sonic_2_lib1_collapsed_fastqc.zip</text>
<text text-anchor="start" x="307.5" y="-358" font-family="monospace" font-size="10.00" fill="#000000">stats/reads/fastqc/merge_lanes/HD827sonic_2_lib2_collapsed_fastqc.zip</text>
<text text-anchor="start" x="307.5" y="-340" font-family="monospace" font-size="10.00" fill="#000000">stats/reads/nonpareil/derep/HD827sonic_1_lib1_collapsed.json</text>
<text text-anchor="start" x="307.5" y="-322" font-family="monospace" font-size="10.00" fill="#000000">stats/reads/nonpareil/derep/HD827sonic_2_lib1_collapsed.json</text>
<text text-anchor="start" x="307.5" y="-304" font-family="monospace" font-size="10.00" fill="#000000">stats/reads/nonpareil/derep/HD827sonic_2_lib2_collapsed.json</text>
<text text-anchor="start" x="307.5" y="-286" font-family="monospace" font-size="10.00" fill="#000000">stats/reads/nonpareil/merge_lanes/HD827sonic_1_lib1_collapsed.json</text>
<text text-anchor="start" x="307.5" y="-268" font-family="monospace" font-size="10.00" fill="#000000">stats/reads/nonpareil/merge_lanes/HD827sonic_2_lib1_collapsed.json</text>
<text text-anchor="start" x="307.5" y="-250" font-family="monospace" font-size="10.00" fill="#000000">stats/reads/nonpareil/merge_lanes/HD827sonic_2_lib2_collapsed.json</text>
<text text-anchor="start" x="671.5" y="-229.8" font-family="sans" font-size="10.00" fill="#000000"> </text>
<text text-anchor="start" x="675.5" y="-229.8" font-family="sans" font-weight="bold" font-size="14.00" fill="#000000">output →</text>
<text text-anchor="start" x="736.5" y="-229.8" font-family="sans" font-size="10.00" fill="#000000"> </text>
<text text-anchor="start" x="307.5" y="-210" font-family="monospace" font-size="10.00" fill="#000000">reports/multiqc.html</text>
<text text-anchor="start" x="307.5" y="-192" font-family="monospace" font-size="10.00" fill="#000000">reports/multiqc_data.zip</text>
<polygon fill="#57d957" stroke="#57d957" points="301.5,-536 301.5,-536 747.5,-536 747.5,-536 301.5,-536"/>
<polygon fill="#57d957" stroke="#57d957" points="301.5,-244 301.5,-244 747.5,-244 747.5,-244 301.5,-244"/>
<polygon fill="none" stroke="#57d957" stroke-width="2" points="301,-183 301,-565 746,-565 746,-183 301,-183"/>
</g>
<!-- 1&#45;&gt;0 -->
<g id="edge2" class="edge">
<title>1&#45;&gt;0</title>
<path fill="none" stroke="#c0c0c0" stroke-width="2" d="M382.2861,-181.6679C375.4266,-172.3254 368.7387,-163.2166 362.3401,-154.5016"/>
<polygon fill="#c0c0c0" stroke="#c0c0c0" stroke-width="2" points="365.0373,-152.2613 356.2977,-146.272 359.3948,-156.4041 365.0373,-152.2613"/>
</g>
<!-- 2 -->
<g id="node3" class="node">
<title>2</title>
<text text-anchor="start" x="497.5" y="-722.6" font-family="sans" font-weight="bold" font-size="18.00" fill="#000000">fastqc</text>
<text text-anchor="start" x="118.5" y="-698.8" font-family="sans" font-size="10.00" fill="#000000"> </text>
<text text-anchor="start" x="122.5" y="-698.8" font-family="sans" font-weight="bold" font-size="14.00" fill="#000000">↪ input</text>
<text text-anchor="start" x="175.5" y="-698.8" font-family="sans" font-size="10.00" fill="#000000"> </text>
<text text-anchor="start" x="118.5" y="-679" font-family="monospace" font-size="10.00" fill="#000000">&lt;input function&gt;</text>
<text text-anchor="start" x="860.5" y="-658.8" font-family="sans" font-size="10.00" fill="#000000"> </text>
<text text-anchor="start" x="864.5" y="-658.8" font-family="sans" font-weight="bold" font-size="14.00" fill="#000000">output →</text>
<text text-anchor="start" x="925.5" y="-658.8" font-family="sans" font-size="10.00" fill="#000000"> </text>
<text text-anchor="start" x="118.5" y="-639" font-family="monospace" font-size="10.00" fill="#000000">stats/reads/fastqc/{tool,merge_lanes|extend/tadpole|derep|represent/grep|low_complexity}/{sample}_{library}_{read_type_trim}.html</text>
<text text-anchor="start" x="118.5" y="-621" font-family="monospace" font-size="10.00" fill="#000000">stats/reads/fastqc/{tool,merge_lanes|extend/tadpole|derep|represent/grep|low_complexity}/{sample}_{library}_{read_type_trim}_fastqc.zip</text>
<polygon fill="#d9ad57" stroke="#d9ad57" points="112.5,-713 112.5,-713 936.5,-713 936.5,-713 112.5,-713"/>
<polygon fill="#d9ad57" stroke="#d9ad57" points="112.5,-673 112.5,-673 936.5,-673 936.5,-673 112.5,-673"/>
<polygon fill="none" stroke="#d9ad57" stroke-width="2" points="112,-612 112,-742 935,-742 935,-612 112,-612"/>
</g>
<!-- 2&#45;&gt;1 -->
<g id="edge4" class="edge">
<title>2&#45;&gt;1</title>
<path fill="none" stroke="#c0c0c0" stroke-width="2" d="M523.5,-610.8798C523.5,-600.1327 523.5,-588.5345 523.5,-576.4466"/>
<polygon fill="#c0c0c0" stroke="#c0c0c0" stroke-width="2" points="527.0001,-576.1855 523.5,-566.1855 520.0001,-576.1856 527.0001,-576.1855"/>
</g>
<!-- 3 -->
<g id="node4" class="node">
<title>3</title>
<text text-anchor="start" x="606.5" y="-1253.6" font-family="sans" font-weight="bold" font-size="18.00" fill="#000000">merge_lanes</text>
<text text-anchor="start" x="459.5" y="-1229.8" font-family="sans" font-size="10.00" fill="#000000"> </text>
<text text-anchor="start" x="463.5" y="-1229.8" font-family="sans" font-weight="bold" font-size="14.00" fill="#000000">↪ input</text>
<text text-anchor="start" x="516.5" y="-1229.8" font-family="sans" font-size="10.00" fill="#000000"> </text>
<text text-anchor="start" x="459.5" y="-1210" font-family="monospace" font-size="10.00" fill="#000000">&lt;input function&gt;</text>
<text text-anchor="start" x="793.5" y="-1189.8" font-family="sans" font-size="10.00" fill="#000000"> </text>
<text text-anchor="start" x="797.5" y="-1189.8" font-family="sans" font-weight="bold" font-size="14.00" fill="#000000">output →</text>
<text text-anchor="start" x="858.5" y="-1189.8" font-family="sans" font-size="10.00" fill="#000000"> </text>
<text text-anchor="start" x="459.5" y="-1170" font-family="monospace" font-size="10.00" fill="#000000">temp/reads/merge_lanes/{sample}_{library}_{read_type_trim}.fastq.gz</text>
<polygon fill="#82d957" stroke="#82d957" points="453.5,-1244 453.5,-1244 869.5,-1244 869.5,-1244 453.5,-1244"/>
<polygon fill="#82d957" stroke="#82d957" points="453.5,-1204 453.5,-1204 869.5,-1204 869.5,-1204 453.5,-1204"/>
<polygon fill="none" stroke="#82d957" stroke-width="2" points="453,-1161 453,-1273 868,-1273 868,-1161 453,-1161"/>
</g>
<!-- 3&#45;&gt;2 -->
<g id="edge6" class="edge">
<title>3&#45;&gt;2</title>
<path fill="none" stroke="#c0c0c0" stroke-width="2" d="M659.98,-1159.9414C658.5377,-1114.0639 654.1507,-1048.2205 641.5,-992 622.5073,-907.5958 585.9802,-815.3912 558.573,-752.6798"/>
<polygon fill="#c0c0c0" stroke="#c0c0c0" stroke-width="2" points="561.6592,-751.0034 554.4279,-743.2602 555.2522,-753.8229 561.6592,-751.0034"/>
</g>
<!-- 5 -->
<g id="node6" class="node">
<title>5</title>
<text text-anchor="start" x="835.5" y="-935.6" font-family="sans" font-weight="bold" font-size="18.00" fill="#000000">nonpareil_infer</text>
<text text-anchor="start" x="696.5" y="-911.8" font-family="sans" font-size="10.00" fill="#000000"> </text>
<text text-anchor="start" x="700.5" y="-911.8" font-family="sans" font-weight="bold" font-size="14.00" fill="#000000">↪ input</text>
<text text-anchor="start" x="753.5" y="-911.8" font-family="sans" font-size="10.00" fill="#000000"> </text>
<text text-anchor="start" x="696.5" y="-892" font-family="monospace" font-size="10.00" fill="#000000">&lt;input function&gt;</text>
<text text-anchor="start" x="1036.5" y="-871.8" font-family="sans" font-size="10.00" fill="#000000"> </text>
<text text-anchor="start" x="1040.5" y="-871.8" font-family="sans" font-weight="bold" font-size="14.00" fill="#000000">output →</text>
<text text-anchor="start" x="1101.5" y="-871.8" font-family="sans" font-size="10.00" fill="#000000"> </text>
<text text-anchor="start" x="696.5" y="-852" font-family="monospace" font-size="10.00" fill="#000000">stats/reads/nonpareil/{tool}/{sample}_{library}_{read_type_trim}.log</text>
<text text-anchor="start" x="696.5" y="-834" font-family="monospace" font-size="10.00" fill="#000000">stats/reads/nonpareil/{tool}/{sample}_{library}_{read_type_trim}.npa</text>
<text text-anchor="start" x="696.5" y="-816" font-family="monospace" font-size="10.00" fill="#000000">stats/reads/nonpareil/{tool}/{sample}_{library}_{read_type_trim}.npc</text>
<text text-anchor="start" x="696.5" y="-798" font-family="monospace" font-size="10.00" fill="#000000">stats/reads/nonpareil/{tool}/{sample}_{library}_{read_type_trim}.npo</text>
<polygon fill="#57d982" stroke="#57d982" points="690.5,-926 690.5,-926 1112.5,-926 1112.5,-926 690.5,-926"/>
<polygon fill="#57d982" stroke="#57d982" points="690.5,-886 690.5,-886 1112.5,-886 1112.5,-886 690.5,-886"/>
<polygon fill="none" stroke="#57d982" stroke-width="2" points="690,-789 690,-955 1111,-955 1111,-789 690,-789"/>
</g>
<!-- 3&#45;&gt;5 -->
<g id="edge9" class="edge">
<title>3&#45;&gt;5</title>
<path fill="none" stroke="#c0c0c0" stroke-width="2" d="M700.4005,-1159.643C737.3302,-1106.5566 792.8864,-1026.6946 836.0962,-964.5804"/>
<polygon fill="#c0c0c0" stroke="#c0c0c0" stroke-width="2" points="839.0014,-966.5332 841.8389,-956.3254 833.255,-962.5357 839.0014,-966.5332"/>
</g>
<!-- 6 -->
<g id="node7" class="node">
<title>6</title>
<text text-anchor="start" x="390.5" y="-1103.6" font-family="sans" font-weight="bold" font-size="18.00" fill="#000000">vsearch</text>
<text text-anchor="start" x="222.5" y="-1079.8" font-family="sans" font-size="10.00" fill="#000000"> </text>
<text text-anchor="start" x="226.5" y="-1079.8" font-family="sans" font-weight="bold" font-size="14.00" fill="#000000">↪ input</text>
<text text-anchor="start" x="279.5" y="-1079.8" font-family="sans" font-size="10.00" fill="#000000"> </text>
<text text-anchor="start" x="222.5" y="-1060" font-family="monospace" font-size="10.00" fill="#000000">temp/reads/merge_lanes/{sample}_{library}_{read_type_trim}.fastq.gz</text>
<text text-anchor="start" x="556.5" y="-1039.8" font-family="sans" font-size="10.00" fill="#000000"> </text>
<text text-anchor="start" x="560.5" y="-1039.8" font-family="sans" font-weight="bold" font-size="14.00" fill="#000000">output →</text>
<text text-anchor="start" x="621.5" y="-1039.8" font-family="sans" font-size="10.00" fill="#000000"> </text>
<text text-anchor="start" x="222.5" y="-1020" font-family="monospace" font-size="10.00" fill="#000000">stats/reads/derep/{sample}_{library}_{read_type_trim}.log</text>
<text text-anchor="start" x="222.5" y="-1002" font-family="monospace" font-size="10.00" fill="#000000">temp/reads/derep/{sample}_{library}_{read_type_trim}.fastq.gz</text>
<polygon fill="#5782d9" stroke="#5782d9" points="216.5,-1094 216.5,-1094 632.5,-1094 632.5,-1094 216.5,-1094"/>
<polygon fill="#5782d9" stroke="#5782d9" points="216.5,-1054 216.5,-1054 632.5,-1054 632.5,-1054 216.5,-1054"/>
<polygon fill="none" stroke="#5782d9" stroke-width="2" points="216,-993 216,-1123 631,-1123 631,-993 216,-993"/>
</g>
<!-- 3&#45;&gt;6 -->
<g id="edge11" class="edge">
<title>3&#45;&gt;6</title>
<path fill="none" stroke="#c0c0c0" stroke-width="2" d="M575.2724,-1159.822C560.7162,-1150.0564 545.4311,-1139.8019 530.3975,-1129.716"/>
<polygon fill="#c0c0c0" stroke="#c0c0c0" stroke-width="2" points="532.3318,-1126.7991 522.0776,-1124.1343 528.4319,-1132.6121 532.3318,-1126.7991"/>
</g>
<!-- 4 -->
<g id="node5" class="node">
<title>4</title>
<text text-anchor="start" x="1109" y="-731.6" font-family="sans" font-weight="bold" font-size="18.00" fill="#000000">nonpareil_plot</text>
<text text-anchor="start" x="961.5" y="-707.8" font-family="sans" font-size="10.00" fill="#000000"> </text>
<text text-anchor="start" x="965.5" y="-707.8" font-family="sans" font-weight="bold" font-size="14.00" fill="#000000">↪ input</text>
<text text-anchor="start" x="1018.5" y="-707.8" font-family="sans" font-size="10.00" fill="#000000"> </text>
<text text-anchor="start" x="961.5" y="-688" font-family="monospace" font-size="10.00" fill="#000000">stats/reads/nonpareil/{tool}/{sample}_{library}_{read_type_trim}.npo</text>
<text text-anchor="start" x="1313.5" y="-667.8" font-family="sans" font-size="10.00" fill="#000000"> </text>
<text text-anchor="start" x="1317.5" y="-667.8" font-family="sans" font-weight="bold" font-size="14.00" fill="#000000">output →</text>
<text text-anchor="start" x="1378.5" y="-667.8" font-family="sans" font-size="10.00" fill="#000000"> </text>
<text text-anchor="start" x="961.5" y="-648" font-family="monospace" font-size="10.00" fill="#000000">reports/reads/nonpareil/{tool}/{sample}_{library}_{read_type_trim}.pdf</text>
<text text-anchor="start" x="961.5" y="-630" font-family="monospace" font-size="10.00" fill="#000000">stats/reads/nonpareil/{tool}/{sample}_{library}_{read_type_trim}.json</text>
<text text-anchor="start" x="961.5" y="-612" font-family="monospace" font-size="10.00" fill="#000000">stats/reads/nonpareil/{tool}/{sample}_{library}_{read_type_trim}.tsv</text>
<polygon fill="#57d9ad" stroke="#57d9ad" points="955.5,-722 955.5,-722 1389.5,-722 1389.5,-722 955.5,-722"/>
<polygon fill="#57d9ad" stroke="#57d9ad" points="955.5,-682 955.5,-682 1389.5,-682 1389.5,-682 955.5,-682"/>
<polygon fill="none" stroke="#57d9ad" stroke-width="2" points="955,-603 955,-751 1388,-751 1388,-603 955,-603"/>
</g>
<!-- 4&#45;&gt;1 -->
<g id="edge3" class="edge">
<title>4&#45;&gt;1</title>
<path fill="none" stroke="#c0c0c0" stroke-width="2" d="M1010.9041,-601.9065C934.1474,-566.0157 840.817,-522.3751 756.4506,-482.926"/>
<polygon fill="#c0c0c0" stroke="#c0c0c0" stroke-width="2" points="757.8064,-479.6963 747.2653,-478.631 754.8414,-486.0373 757.8064,-479.6963"/>
</g>
<!-- 5&#45;&gt;4 -->
<g id="edge8" class="edge">
<title>5&#45;&gt;4</title>
<path fill="none" stroke="#c0c0c0" stroke-width="2" d="M1017.3947,-787.8876C1031.0374,-778.0709 1044.9365,-768.0696 1058.5248,-758.2921"/>
<polygon fill="#c0c0c0" stroke="#c0c0c0" stroke-width="2" points="1060.8673,-760.9185 1066.9401,-752.2368 1056.7788,-755.2366 1060.8673,-760.9185"/>
</g>
<!-- 6&#45;&gt;2 -->
<g id="edge7" class="edge">
<title>6&#45;&gt;2</title>
<path fill="none" stroke="#c0c0c0" stroke-width="2" d="M485.0146,-991.8576C492.7806,-980.5649 499.6808,-968.4408 504.5,-956 529.7289,-890.871 532.6026,-810.8335 530.2794,-753.2113"/>
<polygon fill="#c0c0c0" stroke="#c0c0c0" stroke-width="2" points="533.7693,-752.9092 529.8085,-743.0826 526.7768,-753.2344 533.7693,-752.9092"/>
</g>
<!-- 6&#45;&gt;5 -->
<g id="edge10" class="edge">
<title>6&#45;&gt;5</title>
<path fill="none" stroke="#c0c0c0" stroke-width="2" d="M593.0154,-991.8996C621.0445,-980.9701 650.4644,-969.4982 679.535,-958.1625"/>
<polygon fill="#c0c0c0" stroke="#c0c0c0" stroke-width="2" points="680.9138,-961.3816 688.959,-954.4877 678.3707,-954.8598 680.9138,-961.3816"/>
</g>
<!-- 7 -->
<g id="node8" class="node">
<title>7</title>
<text text-anchor="start" x="181" y="-926.6" font-family="sans" font-weight="bold" font-size="18.00" fill="#000000">low_complexity</text>
<text text-anchor="start" x="7.5" y="-902.8" font-family="sans" font-size="10.00" fill="#000000"> </text>
<text text-anchor="start" x="11.5" y="-902.8" font-family="sans" font-weight="bold" font-size="14.00" fill="#000000">↪ input</text>
<text text-anchor="start" x="64.5" y="-902.8" font-family="sans" font-size="10.00" fill="#000000"> </text>
<text text-anchor="start" x="7.5" y="-883" font-family="monospace" font-size="10.00" fill="#000000">temp/reads/derep/{sample}_{library}_{read_type_trim}.fastq.gz</text>
<text text-anchor="start" x="419.5" y="-862.8" font-family="sans" font-size="10.00" fill="#000000"> </text>
<text text-anchor="start" x="423.5" y="-862.8" font-family="sans" font-weight="bold" font-size="14.00" fill="#000000">output →</text>
<text text-anchor="start" x="484.5" y="-862.8" font-family="sans" font-size="10.00" fill="#000000"> </text>
<text text-anchor="start" x="7.5" y="-843" font-family="monospace" font-size="10.00" fill="#000000">results/reads/low_complexity/{sample}_{library}_{read_type_trim}.fastq.gz</text>
<text text-anchor="start" x="7.5" y="-825" font-family="monospace" font-size="10.00" fill="#000000">stats/reads/low_complexity/{sample}_{library}_{read_type_trim}.txt</text>
<text text-anchor="start" x="7.5" y="-807" font-family="monospace" font-size="10.00" fill="#000000">temp/reads/low_complexity/{sample}_{library}_{read_type_trim}.discarded.fastq.gz</text>
<polygon fill="#add957" stroke="#add957" points="1.5,-917 1.5,-917 495.5,-917 495.5,-917 1.5,-917"/>
<polygon fill="#add957" stroke="#add957" points="1.5,-877 1.5,-877 495.5,-877 495.5,-877 1.5,-877"/>
<polygon fill="none" stroke="#add957" stroke-width="2" points="1,-798 1,-946 494,-946 494,-798 1,-798"/>
</g>
<!-- 6&#45;&gt;7 -->
<g id="edge12" class="edge">
<title>6&#45;&gt;7</title>
<path fill="none" stroke="#c0c0c0" stroke-width="2" d="M360.9534,-991.8996C349.4729,-979.7668 337.36,-966.9657 325.493,-954.4245"/>
<polygon fill="#c0c0c0" stroke="#c0c0c0" stroke-width="2" points="327.9564,-951.9355 318.541,-947.0774 322.8719,-956.7467 327.9564,-951.9355"/>
</g>
<!-- 7&#45;&gt;0 -->
<g id="edge1" class="edge">
<title>7&#45;&gt;0</title>
<path fill="none" stroke="#c0c0c0" stroke-width="2" d="M133.4271,-796.7726C120.5481,-783.4298 109.2795,-768.4642 101.5,-752 73.0186,-691.7235 89.4626,-667.5709 101.5,-602 131.7638,-437.1454 210.956,-257.0821 260.4236,-155.2929"/>
<polygon fill="#c0c0c0" stroke="#c0c0c0" stroke-width="2" points="263.5755,-156.8146 264.8192,-146.293 257.2856,-153.7426 263.5755,-156.8146"/>
</g>
<!-- 7&#45;&gt;2 -->
<g id="edge5" class="edge">
<title>7&#45;&gt;2</title>
<path fill="none" stroke="#c0c0c0" stroke-width="2" d="M353.814,-796.8868C376.0319,-781.1894 399.4081,-764.6737 421.4663,-749.089"/>
<polygon fill="#c0c0c0" stroke="#c0c0c0" stroke-width="2" points="423.7031,-751.7942 429.8507,-743.1653 419.6638,-746.0771 423.7031,-751.7942"/>
</g>
</g>
</svg>
