<?xml version="1.0" encoding="UTF-8" standalone="no"?>
<!DOCTYPE svg PUBLIC "-//W3C//DTD SVG 1.1//EN"
 "http://www.w3.org/Graphics/SVG/1.1/DTD/svg11.dtd">
<!-- Generated by graphviz version 2.40.1 (0)
 -->
<!-- Title: snakemake_dag Pages: 1 -->
<svg width="1397pt" height="1246pt"
 viewBox="0.00 0.00 1397.00 1246.00" xmlns="http://www.w3.org/2000/svg" xmlns:xlink="http://www.w3.org/1999/xlink">
<g id="graph0" class="graph" transform="scale(1 1) rotate(0) translate(4 1242)">
<title>snakemake_dag</title>
<polygon fill="#ffffff" stroke="transparent" points="-4,4 -4,-1242 1393,-1242 1393,4 -4,4"/>
<!-- 0 -->
<g id="node1" class="node">
<title>0</title>
<text text-anchor="start" x="1075.5" y="-125.6" font-family="sans" font-weight="bold" font-size="18.00" fill="#000000">all</text>
<text text-anchor="start" x="890.5" y="-101.8" font-family="sans" font-size="10.00" fill="#000000"> </text>
<text text-anchor="start" x="894.5" y="-101.8" font-family="sans" font-weight="bold" font-size="14.00" fill="#000000">↪ input</text>
<text text-anchor="start" x="947.5" y="-101.8" font-family="sans" font-size="10.00" fill="#000000"> </text>
<text text-anchor="start" x="890.5" y="-82" font-family="monospace" font-size="10.00" fill="#000000">reports/multiqc.html</text>
<text text-anchor="start" x="890.5" y="-64" font-family="monospace" font-size="10.00" fill="#000000">results/reads/low_complexity/HD827sonic_1_lib1_collapsed.fastq.gz</text>
<text text-anchor="start" x="890.5" y="-46" font-family="monospace" font-size="10.00" fill="#000000">results/reads/low_complexity/HD827sonic_2_lib1_collapsed.fastq.gz</text>
<text text-anchor="start" x="890.5" y="-28" font-family="monospace" font-size="10.00" fill="#000000">results/reads/low_complexity/HD827sonic_2_lib2_collapsed.fastq.gz</text>
<text text-anchor="start" x="1274.5" y="-10" font-family="sans" font-size="10.00" fill="#000000"> &#160;</text>
<polygon fill="#d95757" stroke="#d95757" points="884.5,-116 884.5,-116 1288.5,-116 1288.5,-116 884.5,-116"/>
<polygon fill="#d95757" stroke="#d95757" points="884.5,-22 884.5,-22 1288.5,-22 1288.5,-22 884.5,-22"/>
<polygon fill="none" stroke="#d95757" stroke-width="2" points="884,-1 884,-145 1287,-145 1287,-1 884,-1"/>
</g>
<!-- 1 -->
<g id="node2" class="node">
<title>1</title>
<text text-anchor="start" x="833.5" y="-491.6" font-family="sans" font-weight="bold" font-size="18.00" fill="#000000">multiqc</text>
<text text-anchor="start" x="649.5" y="-467.8" font-family="sans" font-size="10.00" fill="#000000"> </text>
<text text-anchor="start" x="653.5" y="-467.8" font-family="sans" font-weight="bold" font-size="14.00" fill="#000000">↪ input</text>
<text text-anchor="start" x="706.5" y="-467.8" font-family="sans" font-size="10.00" fill="#000000"> </text>
<text text-anchor="start" x="649.5" y="-448" font-family="monospace" font-size="10.00" fill="#000000">stats/reads/fastqc/derep/HD827sonic_1_lib1_collapsed_fastqc.zip</text>
<text text-anchor="start" x="649.5" y="-430" font-family="monospace" font-size="10.00" fill="#000000">stats/reads/fastqc/derep/HD827sonic_2_lib1_collapsed_fastqc.zip</text>
<text text-anchor="start" x="649.5" y="-412" font-family="monospace" font-size="10.00" fill="#000000">stats/reads/fastqc/derep/HD827sonic_2_lib2_collapsed_fastqc.zip</text>
<text text-anchor="start" x="649.5" y="-394" font-family="monospace" font-size="10.00" fill="#000000">stats/reads/fastqc/low_complexity/HD827sonic_1_lib1_collapsed_fastqc.zip</text>
<text text-anchor="start" x="649.5" y="-376" font-family="monospace" font-size="10.00" fill="#000000">stats/reads/fastqc/low_complexity/HD827sonic_2_lib1_collapsed_fastqc.zip</text>
<text text-anchor="start" x="649.5" y="-358" font-family="monospace" font-size="10.00" fill="#000000">stats/reads/fastqc/low_complexity/HD827sonic_2_lib2_collapsed_fastqc.zip</text>
<text text-anchor="start" x="649.5" y="-340" font-family="monospace" font-size="10.00" fill="#000000">stats/reads/fastqc/merge_lanes/HD827sonic_1_lib1_collapsed_fastqc.zip</text>
<text text-anchor="start" x="649.5" y="-322" font-family="monospace" font-size="10.00" fill="#000000">stats/reads/fastqc/merge_lanes/HD827sonic_2_lib1_collapsed_fastqc.zip</text>
<text text-anchor="start" x="649.5" y="-304" font-family="monospace" font-size="10.00" fill="#000000">stats/reads/fastqc/merge_lanes/HD827sonic_2_lib2_collapsed_fastqc.zip</text>
<text text-anchor="start" x="649.5" y="-286" font-family="monospace" font-size="10.00" fill="#000000">stats/reads/nonpareil/merge_lanes/HD827sonic_1_lib1_collapsed.json</text>
<text text-anchor="start" x="649.5" y="-268" font-family="monospace" font-size="10.00" fill="#000000">stats/reads/nonpareil/merge_lanes/HD827sonic_2_lib1_collapsed.json</text>
<text text-anchor="start" x="649.5" y="-250" font-family="monospace" font-size="10.00" fill="#000000">stats/reads/nonpareil/merge_lanes/HD827sonic_2_lib2_collapsed.json</text>
<text text-anchor="start" x="1013.5" y="-229.8" font-family="sans" font-size="10.00" fill="#000000"> </text>
<text text-anchor="start" x="1017.5" y="-229.8" font-family="sans" font-weight="bold" font-size="14.00" fill="#000000">output →</text>
<text text-anchor="start" x="1078.5" y="-229.8" font-family="sans" font-size="10.00" fill="#000000"> </text>
<text text-anchor="start" x="649.5" y="-210" font-family="monospace" font-size="10.00" fill="#000000">reports/multiqc.html</text>
<text text-anchor="start" x="649.5" y="-192" font-family="monospace" font-size="10.00" fill="#000000">reports/multiqc_data.zip</text>
<polygon fill="#57d957" stroke="#57d957" points="643.5,-482 643.5,-482 1089.5,-482 1089.5,-482 643.5,-482"/>
<polygon fill="#57d957" stroke="#57d957" points="643.5,-244 643.5,-244 1089.5,-244 1089.5,-244 643.5,-244"/>
<polygon fill="none" stroke="#57d957" stroke-width="2" points="643,-183 643,-511 1088,-511 1088,-183 643,-183"/>
</g>
<!-- 1&#45;&gt;0 -->
<g id="edge2" class="edge">
<title>1&#45;&gt;0</title>
<path fill="none" stroke="#c0c0c0" stroke-width="2" d="M998.2342,-181.6856C1005.8073,-172.2537 1013.23,-163.009 1020.3502,-154.1411"/>
<polygon fill="#c0c0c0" stroke="#c0c0c0" stroke-width="2" points="1023.2681,-156.0974 1026.7998,-146.1085 1017.8097,-151.7148 1023.2681,-156.0974"/>
</g>
<!-- 2 -->
<g id="node3" class="node">
<title>2</title>
<text text-anchor="start" x="839.5" y="-668.6" font-family="sans" font-weight="bold" font-size="18.00" fill="#000000">fastqc</text>
<text text-anchor="start" x="460.5" y="-644.8" font-family="sans" font-size="10.00" fill="#000000"> </text>
<text text-anchor="start" x="464.5" y="-644.8" font-family="sans" font-weight="bold" font-size="14.00" fill="#000000">↪ input</text>
<text text-anchor="start" x="517.5" y="-644.8" font-family="sans" font-size="10.00" fill="#000000"> </text>
<text text-anchor="start" x="460.5" y="-625" font-family="monospace" font-size="10.00" fill="#000000">&lt;input function&gt;</text>
<text text-anchor="start" x="1202.5" y="-604.8" font-family="sans" font-size="10.00" fill="#000000"> </text>
<text text-anchor="start" x="1206.5" y="-604.8" font-family="sans" font-weight="bold" font-size="14.00" fill="#000000">output →</text>
<text text-anchor="start" x="1267.5" y="-604.8" font-family="sans" font-size="10.00" fill="#000000"> </text>
<text text-anchor="start" x="460.5" y="-585" font-family="monospace" font-size="10.00" fill="#000000">stats/reads/fastqc/{tool,merge_lanes|extend/tadpole|derep|represent/grep|low_complexity}/{sample}_{library}_{read_type_trim}.html</text>
<text text-anchor="start" x="460.5" y="-567" font-family="monospace" font-size="10.00" fill="#000000">stats/reads/fastqc/{tool,merge_lanes|extend/tadpole|derep|represent/grep|low_complexity}/{sample}_{library}_{read_type_trim}_fastqc.zip</text>
<polygon fill="#d9ad57" stroke="#d9ad57" points="454.5,-659 454.5,-659 1278.5,-659 1278.5,-659 454.5,-659"/>
<polygon fill="#d9ad57" stroke="#d9ad57" points="454.5,-619 454.5,-619 1278.5,-619 1278.5,-619 454.5,-619"/>
<polygon fill="none" stroke="#d9ad57" stroke-width="2" points="454,-558 454,-688 1277,-688 1277,-558 454,-558"/>
</g>
<!-- 2&#45;&gt;1 -->
<g id="edge4" class="edge">
<title>2&#45;&gt;1</title>
<path fill="none" stroke="#c0c0c0" stroke-width="2" d="M865.5,-556.8911C865.5,-546.0517 865.5,-534.3912 865.5,-522.3188"/>
<polygon fill="#c0c0c0" stroke="#c0c0c0" stroke-width="2" points="869.0001,-522.09 865.5,-512.09 862.0001,-522.0901 869.0001,-522.09"/>
</g>
<!-- 3 -->
<g id="node4" class="node">
<title>3</title>
<text text-anchor="start" x="727.5" y="-1217.6" font-family="sans" font-weight="bold" font-size="18.00" fill="#000000">merge_lanes</text>
<text text-anchor="start" x="580.5" y="-1193.8" font-family="sans" font-size="10.00" fill="#000000"> </text>
<text text-anchor="start" x="584.5" y="-1193.8" font-family="sans" font-weight="bold" font-size="14.00" fill="#000000">↪ input</text>
<text text-anchor="start" x="637.5" y="-1193.8" font-family="sans" font-size="10.00" fill="#000000"> </text>
<text text-anchor="start" x="580.5" y="-1174" font-family="monospace" font-size="10.00" fill="#000000">&lt;input function&gt;</text>
<text text-anchor="start" x="914.5" y="-1153.8" font-family="sans" font-size="10.00" fill="#000000"> </text>
<text text-anchor="start" x="918.5" y="-1153.8" font-family="sans" font-weight="bold" font-size="14.00" fill="#000000">output →</text>
<text text-anchor="start" x="979.5" y="-1153.8" font-family="sans" font-size="10.00" fill="#000000"> </text>
<text text-anchor="start" x="580.5" y="-1134" font-family="monospace" font-size="10.00" fill="#000000">temp/reads/merge_lanes/{sample}_{library}_{read_type_trim}.fastq.gz</text>
<polygon fill="#82d957" stroke="#82d957" points="574.5,-1208 574.5,-1208 990.5,-1208 990.5,-1208 574.5,-1208"/>
<polygon fill="#82d957" stroke="#82d957" points="574.5,-1168 574.5,-1168 990.5,-1168 990.5,-1168 574.5,-1168"/>
<polygon fill="none" stroke="#82d957" stroke-width="2" points="574,-1125 574,-1237 989,-1237 989,-1125 574,-1125"/>
</g>
<!-- 3&#45;&gt;2 -->
<g id="edge7" class="edge">
<title>3&#45;&gt;2</title>
<path fill="none" stroke="#c0c0c0" stroke-width="2" d="M783.3069,-1123.9782C785.5418,-1070.9322 790.3738,-989.8031 800.5,-920 811.5185,-844.0459 830.99,-758.5583 845.7574,-698.8708"/>
<polygon fill="#c0c0c0" stroke="#c0c0c0" stroke-width="2" points="849.1583,-699.6977 848.1777,-689.1483 842.3656,-698.0066 849.1583,-699.6977"/>
</g>
<!-- 5 -->
<g id="node6" class="node">
<title>5</title>
<text text-anchor="start" x="384.5" y="-1067.6" font-family="sans" font-weight="bold" font-size="18.00" fill="#000000">nonpareil_infer</text>
<text text-anchor="start" x="245.5" y="-1043.8" font-family="sans" font-size="10.00" fill="#000000"> </text>
<text text-anchor="start" x="249.5" y="-1043.8" font-family="sans" font-weight="bold" font-size="14.00" fill="#000000">↪ input</text>
<text text-anchor="start" x="302.5" y="-1043.8" font-family="sans" font-size="10.00" fill="#000000"> </text>
<text text-anchor="start" x="245.5" y="-1024" font-family="monospace" font-size="10.00" fill="#000000">&lt;input function&gt;</text>
<text text-anchor="start" x="585.5" y="-1003.8" font-family="sans" font-size="10.00" fill="#000000"> </text>
<text text-anchor="start" x="589.5" y="-1003.8" font-family="sans" font-weight="bold" font-size="14.00" fill="#000000">output →</text>
<text text-anchor="start" x="650.5" y="-1003.8" font-family="sans" font-size="10.00" fill="#000000"> </text>
<text text-anchor="start" x="245.5" y="-984" font-family="monospace" font-size="10.00" fill="#000000">stats/reads/nonpareil/{tool}/{sample}_{library}_{read_type_trim}.log</text>
<text text-anchor="start" x="245.5" y="-966" font-family="monospace" font-size="10.00" fill="#000000">stats/reads/nonpareil/{tool}/{sample}_{library}_{read_type_trim}.npa</text>
<text text-anchor="start" x="245.5" y="-948" font-family="monospace" font-size="10.00" fill="#000000">stats/reads/nonpareil/{tool}/{sample}_{library}_{read_type_trim}.npc</text>
<text text-anchor="start" x="245.5" y="-930" font-family="monospace" font-size="10.00" fill="#000000">stats/reads/nonpareil/{tool}/{sample}_{library}_{read_type_trim}.npo</text>
<polygon fill="#57d982" stroke="#57d982" points="239.5,-1058 239.5,-1058 661.5,-1058 661.5,-1058 239.5,-1058"/>
<polygon fill="#57d982" stroke="#57d982" points="239.5,-1018 239.5,-1018 661.5,-1018 661.5,-1018 239.5,-1018"/>
<polygon fill="none" stroke="#57d982" stroke-width="2" points="239,-921 239,-1087 660,-1087 660,-921 239,-921"/>
</g>
<!-- 3&#45;&gt;5 -->
<g id="edge9" class="edge">
<title>3&#45;&gt;5</title>
<path fill="none" stroke="#c0c0c0" stroke-width="2" d="M674.1676,-1123.7776C655.603,-1113.8802 635.9148,-1103.3838 616.2133,-1092.8803"/>
<polygon fill="#c0c0c0" stroke="#c0c0c0" stroke-width="2" points="617.6352,-1089.672 607.1643,-1088.056 614.342,-1095.849 617.6352,-1089.672"/>
</g>
<!-- 6 -->
<g id="node7" class="node">
<title>6</title>
<text text-anchor="start" x="985.5" y="-1049.6" font-family="sans" font-weight="bold" font-size="18.00" fill="#000000">vsearch</text>
<text text-anchor="start" x="817.5" y="-1025.8" font-family="sans" font-size="10.00" fill="#000000"> </text>
<text text-anchor="start" x="821.5" y="-1025.8" font-family="sans" font-weight="bold" font-size="14.00" fill="#000000">↪ input</text>
<text text-anchor="start" x="874.5" y="-1025.8" font-family="sans" font-size="10.00" fill="#000000"> </text>
<text text-anchor="start" x="817.5" y="-1006" font-family="monospace" font-size="10.00" fill="#000000">temp/reads/merge_lanes/{sample}_{library}_{read_type_trim}.fastq.gz</text>
<text text-anchor="start" x="1151.5" y="-985.8" font-family="sans" font-size="10.00" fill="#000000"> </text>
<text text-anchor="start" x="1155.5" y="-985.8" font-family="sans" font-weight="bold" font-size="14.00" fill="#000000">output →</text>
<text text-anchor="start" x="1216.5" y="-985.8" font-family="sans" font-size="10.00" fill="#000000"> </text>
<text text-anchor="start" x="817.5" y="-966" font-family="monospace" font-size="10.00" fill="#000000">stats/reads/derep/{sample}_{library}_{read_type_trim}.log</text>
<text text-anchor="start" x="817.5" y="-948" font-family="monospace" font-size="10.00" fill="#000000">temp/reads/derep/{sample}_{library}_{read_type_trim}.fastq.gz</text>
<polygon fill="#5782d9" stroke="#5782d9" points="811.5,-1040 811.5,-1040 1227.5,-1040 1227.5,-1040 811.5,-1040"/>
<polygon fill="#5782d9" stroke="#5782d9" points="811.5,-1000 811.5,-1000 1227.5,-1000 1227.5,-1000 811.5,-1000"/>
<polygon fill="none" stroke="#5782d9" stroke-width="2" points="811,-939 811,-1069 1226,-1069 1226,-939 811,-939"/>
</g>
<!-- 3&#45;&gt;6 -->
<g id="edge10" class="edge">
<title>3&#45;&gt;6</title>
<path fill="none" stroke="#c0c0c0" stroke-width="2" d="M858.1198,-1123.7776C878.3863,-1108.6419 900.5283,-1092.1054 921.7119,-1076.2848"/>
<polygon fill="#c0c0c0" stroke="#c0c0c0" stroke-width="2" points="923.8601,-1079.0489 929.7779,-1070.2608 919.6714,-1073.4403 923.8601,-1079.0489"/>
</g>
<!-- 4 -->
<g id="node5" class="node">
<title>4</title>
<text text-anchor="start" x="155" y="-677.6" font-family="sans" font-weight="bold" font-size="18.00" fill="#000000">nonpareil_plot</text>
<text text-anchor="start" x="7.5" y="-653.8" font-family="sans" font-size="10.00" fill="#000000"> </text>
<text text-anchor="start" x="11.5" y="-653.8" font-family="sans" font-weight="bold" font-size="14.00" fill="#000000">↪ input</text>
<text text-anchor="start" x="64.5" y="-653.8" font-family="sans" font-size="10.00" fill="#000000"> </text>
<text text-anchor="start" x="7.5" y="-634" font-family="monospace" font-size="10.00" fill="#000000">stats/reads/nonpareil/{tool}/{sample}_{library}_{read_type_trim}.npo</text>
<text text-anchor="start" x="359.5" y="-613.8" font-family="sans" font-size="10.00" fill="#000000"> </text>
<text text-anchor="start" x="363.5" y="-613.8" font-family="sans" font-weight="bold" font-size="14.00" fill="#000000">output →</text>
<text text-anchor="start" x="424.5" y="-613.8" font-family="sans" font-size="10.00" fill="#000000"> </text>
<text text-anchor="start" x="7.5" y="-594" font-family="monospace" font-size="10.00" fill="#000000">reports/reads/nonpareil/{tool}/{sample}_{library}_{read_type_trim}.pdf</text>
<text text-anchor="start" x="7.5" y="-576" font-family="monospace" font-size="10.00" fill="#000000">stats/reads/nonpareil/{tool}/{sample}_{library}_{read_type_trim}.json</text>
<text text-anchor="start" x="7.5" y="-558" font-family="monospace" font-size="10.00" fill="#000000">stats/reads/nonpareil/{tool}/{sample}_{library}_{read_type_trim}.tsv</text>
<polygon fill="#57d9ad" stroke="#57d9ad" points="1.5,-668 1.5,-668 435.5,-668 435.5,-668 1.5,-668"/>
<polygon fill="#57d9ad" stroke="#57d9ad" points="1.5,-628 1.5,-628 435.5,-628 435.5,-628 1.5,-628"/>
<polygon fill="none" stroke="#57d9ad" stroke-width="2" points="1,-549 1,-697 434,-697 434,-549 1,-549"/>
</g>
<!-- 4&#45;&gt;1 -->
<g id="edge3" class="edge">
<title>4&#45;&gt;1</title>
<path fill="none" stroke="#c0c0c0" stroke-width="2" d="M393.7129,-547.9464C467.1808,-516.6545 553.5512,-479.8671 632.1742,-446.3795"/>
<polygon fill="#c0c0c0" stroke="#c0c0c0" stroke-width="2" points="633.8938,-449.4514 641.7225,-442.3126 631.1507,-443.0112 633.8938,-449.4514"/>
</g>
<!-- 5&#45;&gt;4 -->
<g id="edge8" class="edge">
<title>5&#45;&gt;4</title>
<path fill="none" stroke="#c0c0c0" stroke-width="2" d="M398.2994,-919.9163C359.747,-856.6039 307.1346,-770.2017 268.6054,-706.9274"/>
<polygon fill="#c0c0c0" stroke="#c0c0c0" stroke-width="2" points="271.4555,-704.8782 263.2651,-698.1574 265.4767,-708.5188 271.4555,-704.8782"/>
</g>
<!-- 6&#45;&gt;2 -->
<g id="edge5" class="edge">
<title>6&#45;&gt;2</title>
<path fill="none" stroke="#c0c0c0" stroke-width="2" d="M925.019,-937.7505C908.9353,-921.994 894.2751,-903.9014 884.5,-884 856.3217,-826.631 853.3758,-753.4941 856.4395,-699.2448"/>
<polygon fill="#c0c0c0" stroke="#c0c0c0" stroke-width="2" points="859.9493,-699.2055 857.1016,-689.0005 852.9639,-698.7539 859.9493,-699.2055"/>
</g>
<!-- 7 -->
<g id="node8" class="node">
<title>7</title>
<text text-anchor="start" x="1075" y="-863.6" font-family="sans" font-weight="bold" font-size="18.00" fill="#000000">low_complexity</text>
<text text-anchor="start" x="901.5" y="-839.8" font-family="sans" font-size="10.00" fill="#000000"> </text>
<text text-anchor="start" x="905.5" y="-839.8" font-family="sans" font-weight="bold" font-size="14.00" fill="#000000">↪ input</text>
<text text-anchor="start" x="958.5" y="-839.8" font-family="sans" font-size="10.00" fill="#000000"> </text>
<text text-anchor="start" x="901.5" y="-820" font-family="monospace" font-size="10.00" fill="#000000">temp/reads/derep/{sample}_{library}_{read_type_trim}.fastq.gz</text>
<text text-anchor="start" x="1313.5" y="-799.8" font-family="sans" font-size="10.00" fill="#000000"> </text>
<text text-anchor="start" x="1317.5" y="-799.8" font-family="sans" font-weight="bold" font-size="14.00" fill="#000000">output →</text>
<text text-anchor="start" x="1378.5" y="-799.8" font-family="sans" font-size="10.00" fill="#000000"> </text>
<text text-anchor="start" x="901.5" y="-780" font-family="monospace" font-size="10.00" fill="#000000">results/reads/low_complexity/{sample}_{library}_{read_type_trim}.fastq.gz</text>
<text text-anchor="start" x="901.5" y="-762" font-family="monospace" font-size="10.00" fill="#000000">stats/reads/low_complexity/{sample}_{library}_{read_type_trim}.txt</text>
<text text-anchor="start" x="901.5" y="-744" font-family="monospace" font-size="10.00" fill="#000000">temp/reads/low_complexity/{sample}_{library}_{read_type_trim}.discarded.fastq.gz</text>
<polygon fill="#add957" stroke="#add957" points="895.5,-854 895.5,-854 1389.5,-854 1389.5,-854 895.5,-854"/>
<polygon fill="#add957" stroke="#add957" points="895.5,-814 895.5,-814 1389.5,-814 1389.5,-814 895.5,-814"/>
<polygon fill="none" stroke="#add957" stroke-width="2" points="895,-735 895,-883 1388,-883 1388,-735 895,-735"/>
</g>
<!-- 6&#45;&gt;7 -->
<g id="edge11" class="edge">
<title>6&#45;&gt;7</title>
<path fill="none" stroke="#c0c0c0" stroke-width="2" d="M1060.1422,-937.9819C1069.289,-923.4809 1079.0922,-907.9392 1088.6144,-892.843"/>
<polygon fill="#c0c0c0" stroke="#c0c0c0" stroke-width="2" points="1091.8066,-894.3426 1094.1814,-884.0173 1085.886,-890.608 1091.8066,-894.3426"/>
</g>
<!-- 7&#45;&gt;0 -->
<g id="edge1" class="edge">
<title>7&#45;&gt;0</title>
<path fill="none" stroke="#c0c0c0" stroke-width="2" d="M1261.1014,-733.8603C1271.224,-723.0363 1280.0425,-711.0757 1286.5,-698 1316.02,-638.2253 1299.7547,-613.3357 1286.5,-548 1257.0804,-402.984 1181.8914,-247.2662 1132.2791,-155.0858"/>
<polygon fill="#c0c0c0" stroke="#c0c0c0" stroke-width="2" points="1135.2488,-153.2196 1127.4106,-146.0912 1129.0927,-156.5517 1135.2488,-153.2196"/>
</g>
<!-- 7&#45;&gt;2 -->
<g id="edge6" class="edge">
<title>7&#45;&gt;2</title>
<path fill="none" stroke="#c0c0c0" stroke-width="2" d="M1030.0358,-733.8828C1010.8782,-720.9722 991.0115,-707.5838 971.9887,-694.7642"/>
<polygon fill="#c0c0c0" stroke="#c0c0c0" stroke-width="2" points="973.8528,-691.7998 963.6042,-689.1137 969.9408,-697.6047 973.8528,-691.7998"/>
</g>
</g>
</svg>
