<?xml version="1.0" encoding="UTF-8" standalone="no"?>
<!DOCTYPE svg PUBLIC "-//W3C//DTD SVG 1.1//EN"
 "http://www.w3.org/Graphics/SVG/1.1/DTD/svg11.dtd">
<!-- Generated by graphviz version 2.40.1 (0)
 -->
<!-- Title: snakemake_dag Pages: 1 -->
<svg width="266pt" height="404pt"
 viewBox="0.00 0.00 266.00 404.00" xmlns="http://www.w3.org/2000/svg" xmlns:xlink="http://www.w3.org/1999/xlink">
<g id="graph0" class="graph" transform="scale(1 1) rotate(0) translate(4 400)">
<title>snakemake_dag</title>
<polygon fill="#ffffff" stroke="transparent" points="-4,4 -4,-400 262,-400 262,4 -4,4"/>
<!-- 0 -->
<g id="node1" class="node">
<title>0</title>
<path fill="none" stroke="#d85656" stroke-width="2" d="M96,-36C96,-36 66,-36 66,-36 60,-36 54,-30 54,-24 54,-24 54,-12 54,-12 54,-6 60,0 66,0 66,0 96,0 96,0 102,0 108,-6 108,-12 108,-12 108,-24 108,-24 108,-30 102,-36 96,-36"/>
<text text-anchor="middle" x="81" y="-15.5" font-family="sans" font-size="10.00" fill="#000000">all</text>
</g>
<!-- 1 -->
<g id="node2" class="node">
<title>1</title>
<path fill="none" stroke="#59d856" stroke-width="2" d="M127,-108C127,-108 97,-108 97,-108 91,-108 85,-102 85,-96 85,-96 85,-84 85,-84 85,-78 91,-72 97,-72 97,-72 127,-72 127,-72 133,-72 139,-78 139,-84 139,-84 139,-96 139,-96 139,-102 133,-108 127,-108"/>
<text text-anchor="middle" x="112" y="-87.5" font-family="sans" font-size="10.00" fill="#000000">multiqc</text>
</g>
<!-- 1&#45;&gt;0 -->
<g id="edge1" class="edge">
<title>1&#45;&gt;0</title>
<path fill="none" stroke="#c0c0c0" stroke-width="2" d="M104.1774,-71.8314C100.7891,-63.9617 96.7459,-54.5712 92.9924,-45.8533"/>
<polygon fill="#c0c0c0" stroke="#c0c0c0" stroke-width="2" points="96.0973,-44.214 88.9279,-36.4133 89.6679,-46.9822 96.0973,-44.214"/>
</g>
<!-- 2 -->
<g id="node3" class="node">
<title>2</title>
<path fill="none" stroke="#d8ac56" stroke-width="2" d="M127,-180C127,-180 97,-180 97,-180 91,-180 85,-174 85,-168 85,-168 85,-156 85,-156 85,-150 91,-144 97,-144 97,-144 127,-144 127,-144 133,-144 139,-150 139,-156 139,-156 139,-168 139,-168 139,-174 133,-180 127,-180"/>
<text text-anchor="middle" x="112" y="-159.5" font-family="sans" font-size="10.00" fill="#000000">fastqc</text>
</g>
<!-- 2&#45;&gt;1 -->
<g id="edge4" class="edge">
<title>2&#45;&gt;1</title>
<path fill="none" stroke="#c0c0c0" stroke-width="2" d="M112,-143.8314C112,-136.131 112,-126.9743 112,-118.4166"/>
<polygon fill="#c0c0c0" stroke="#c0c0c0" stroke-width="2" points="115.5001,-118.4132 112,-108.4133 108.5001,-118.4133 115.5001,-118.4132"/>
</g>
<!-- 3 -->
<g id="node4" class="node">
<title>3</title>
<path fill="none" stroke="#80d856" stroke-width="2" d="M174,-396C174,-396 126,-396 126,-396 120,-396 114,-390 114,-384 114,-384 114,-372 114,-372 114,-366 120,-360 126,-360 126,-360 174,-360 174,-360 180,-360 186,-366 186,-372 186,-372 186,-384 186,-384 186,-390 180,-396 174,-396"/>
<text text-anchor="middle" x="150" y="-375.5" font-family="sans" font-size="10.00" fill="#000000">merge_lanes</text>
</g>
<!-- 3&#45;&gt;2 -->
<g id="edge5" class="edge">
<title>3&#45;&gt;2</title>
<path fill="none" stroke="#c0c0c0" stroke-width="2" d="M146.8255,-359.9555C140.2035,-322.3144 124.8754,-235.1867 116.9478,-190.1246"/>
<polygon fill="#c0c0c0" stroke="#c0c0c0" stroke-width="2" points="120.372,-189.3874 115.1922,-180.1451 113.4779,-190.6003 120.372,-189.3874"/>
</g>
<!-- 5 -->
<g id="node6" class="node">
<title>5</title>
<path fill="none" stroke="#56d882" stroke-width="2" d="M246,-252C246,-252 190,-252 190,-252 184,-252 178,-246 178,-240 178,-240 178,-228 178,-228 178,-222 184,-216 190,-216 190,-216 246,-216 246,-216 252,-216 258,-222 258,-228 258,-228 258,-240 258,-240 258,-246 252,-252 246,-252"/>
<text text-anchor="middle" x="218" y="-231.5" font-family="sans" font-size="10.00" fill="#000000">nonpareil_infer</text>
</g>
<!-- 3&#45;&gt;5 -->
<g id="edge9" class="edge">
<title>3&#45;&gt;5</title>
<path fill="none" stroke="#c0c0c0" stroke-width="2" d="M158.6122,-359.7623C170.3639,-334.8764 191.5167,-290.0822 205.1478,-261.2165"/>
<polygon fill="#c0c0c0" stroke="#c0c0c0" stroke-width="2" points="208.3524,-262.6267 209.4577,-252.0896 202.0227,-259.6376 208.3524,-262.6267"/>
</g>
<!-- 6 -->
<g id="node7" class="node">
<title>6</title>
<path fill="none" stroke="#5682d8" stroke-width="2" d="M110,-324C110,-324 80,-324 80,-324 74,-324 68,-318 68,-312 68,-312 68,-300 68,-300 68,-294 74,-288 80,-288 80,-288 110,-288 110,-288 116,-288 122,-294 122,-300 122,-300 122,-312 122,-312 122,-318 116,-324 110,-324"/>
<text text-anchor="middle" x="95" y="-303.5" font-family="sans" font-size="10.00" fill="#000000">vsearch</text>
</g>
<!-- 3&#45;&gt;6 -->
<g id="edge11" class="edge">
<title>3&#45;&gt;6</title>
<path fill="none" stroke="#c0c0c0" stroke-width="2" d="M136.1212,-359.8314C129.7864,-351.5386 122.1616,-341.557 115.2074,-332.4533"/>
<polygon fill="#c0c0c0" stroke="#c0c0c0" stroke-width="2" points="117.9175,-330.2353 109.0657,-324.4133 112.3548,-334.4847 117.9175,-330.2353"/>
</g>
<!-- 4 -->
<g id="node5" class="node">
<title>4</title>
<path fill="none" stroke="#56d8a9" stroke-width="2" d="M233.5,-180C233.5,-180 180.5,-180 180.5,-180 174.5,-180 168.5,-174 168.5,-168 168.5,-168 168.5,-156 168.5,-156 168.5,-150 174.5,-144 180.5,-144 180.5,-144 233.5,-144 233.5,-144 239.5,-144 245.5,-150 245.5,-156 245.5,-156 245.5,-168 245.5,-168 245.5,-174 239.5,-180 233.5,-180"/>
<text text-anchor="middle" x="207" y="-159.5" font-family="sans" font-size="10.00" fill="#000000">nonpareil_plot</text>
</g>
<!-- 4&#45;&gt;1 -->
<g id="edge3" class="edge">
<title>4&#45;&gt;1</title>
<path fill="none" stroke="#c0c0c0" stroke-width="2" d="M183.0275,-143.8314C171.2139,-134.8779 156.8028,-123.9558 144.0565,-114.2955"/>
<polygon fill="#c0c0c0" stroke="#c0c0c0" stroke-width="2" points="146.0486,-111.4137 135.9648,-108.1628 141.8205,-116.9925 146.0486,-111.4137"/>
</g>
<!-- 5&#45;&gt;4 -->
<g id="edge8" class="edge">
<title>5&#45;&gt;4</title>
<path fill="none" stroke="#c0c0c0" stroke-width="2" d="M215.2242,-215.8314C214.0478,-208.131 212.6489,-198.9743 211.3414,-190.4166"/>
<polygon fill="#c0c0c0" stroke="#c0c0c0" stroke-width="2" points="214.7833,-189.7699 209.8131,-180.4133 207.8636,-190.8272 214.7833,-189.7699"/>
</g>
<!-- 6&#45;&gt;2 -->
<g id="edge7" class="edge">
<title>6&#45;&gt;2</title>
<path fill="none" stroke="#c0c0c0" stroke-width="2" d="M97.1531,-287.7623C100.0527,-263.201 105.2416,-219.2474 108.6526,-190.3541"/>
<polygon fill="#c0c0c0" stroke="#c0c0c0" stroke-width="2" points="112.1678,-190.431 109.8644,-180.0896 105.2161,-189.6103 112.1678,-190.431"/>
</g>
<!-- 6&#45;&gt;5 -->
<g id="edge10" class="edge">
<title>6&#45;&gt;5</title>
<path fill="none" stroke="#c0c0c0" stroke-width="2" d="M122.2977,-290.0209C138.7197,-280.408 159.9124,-268.0025 178.179,-257.3099"/>
<polygon fill="#c0c0c0" stroke="#c0c0c0" stroke-width="2" points="180.0155,-260.2905 186.8775,-252.2181 176.4792,-254.2494 180.0155,-260.2905"/>
</g>
<!-- 7 -->
<g id="node8" class="node">
<title>7</title>
<path fill="none" stroke="#afd856" stroke-width="2" d="M72,-252C72,-252 12,-252 12,-252 6,-252 0,-246 0,-240 0,-240 0,-228 0,-228 0,-222 6,-216 12,-216 12,-216 72,-216 72,-216 78,-216 84,-222 84,-228 84,-228 84,-240 84,-240 84,-246 78,-252 72,-252"/>
<text text-anchor="middle" x="42" y="-231.5" font-family="sans" font-size="10.00" fill="#000000">low_complexity</text>
</g>
<!-- 6&#45;&gt;7 -->
<g id="edge12" class="edge">
<title>6&#45;&gt;7</title>
<path fill="none" stroke="#c0c0c0" stroke-width="2" d="M81.6259,-287.8314C75.5838,-279.6232 68.3237,-269.7606 61.6779,-260.7323"/>
<polygon fill="#c0c0c0" stroke="#c0c0c0" stroke-width="2" points="64.3011,-258.3918 55.5542,-252.4133 58.6637,-262.5415 64.3011,-258.3918"/>
</g>
<!-- 7&#45;&gt;0 -->
<g id="edge2" class="edge">
<title>7&#45;&gt;0</title>
<path fill="none" stroke="#c0c0c0" stroke-width="2" d="M45.258,-215.9555C52.0543,-178.3144 67.7857,-91.1867 75.922,-46.1246"/>
<polygon fill="#c0c0c0" stroke="#c0c0c0" stroke-width="2" points="79.3912,-46.6079 77.7238,-36.1451 72.5026,-45.364 79.3912,-46.6079"/>
</g>
<!-- 7&#45;&gt;2 -->
<g id="edge6" class="edge">
<title>7&#45;&gt;2</title>
<path fill="none" stroke="#c0c0c0" stroke-width="2" d="M59.664,-215.8314C67.9732,-207.2848 78.0264,-196.9443 87.0918,-187.6198"/>
<polygon fill="#c0c0c0" stroke="#c0c0c0" stroke-width="2" points="89.6369,-190.023 94.0982,-180.4133 84.6179,-185.1435 89.6369,-190.023"/>
</g>
</g>
</svg>
