<?xml version="1.0" encoding="UTF-8" standalone="no"?>
<!DOCTYPE svg PUBLIC "-//W3C//DTD SVG 1.1//EN"
 "http://www.w3.org/Graphics/SVG/1.1/DTD/svg11.dtd">
<!-- Generated by graphviz version 2.40.1 (0)
 -->
<!-- Title: snakemake_dag Pages: 1 -->
<svg width="266pt" height="404pt"
 viewBox="0.00 0.00 266.00 404.00" xmlns="http://www.w3.org/2000/svg" xmlns:xlink="http://www.w3.org/1999/xlink">
<g id="graph0" class="graph" transform="scale(1 1) rotate(0) translate(4 400)">
<title>snakemake_dag</title>
<polygon fill="#ffffff" stroke="transparent" points="-4,4 -4,-400 262,-400 262,4 -4,4"/>
<!-- 0 -->
<g id="node1" class="node">
<title>0</title>
<path fill="none" stroke="#d85656" stroke-width="2" d="M188,-36C188,-36 158,-36 158,-36 152,-36 146,-30 146,-24 146,-24 146,-12 146,-12 146,-6 152,0 158,0 158,0 188,0 188,0 194,0 200,-6 200,-12 200,-12 200,-24 200,-24 200,-30 194,-36 188,-36"/>
<text text-anchor="middle" x="173" y="-15.5" font-family="sans" font-size="10.00" fill="#000000">all</text>
</g>
<!-- 1 -->
<g id="node2" class="node">
<title>1</title>
<path fill="none" stroke="#59d856" stroke-width="2" d="M161,-108C161,-108 131,-108 131,-108 125,-108 119,-102 119,-96 119,-96 119,-84 119,-84 119,-78 125,-72 131,-72 131,-72 161,-72 161,-72 167,-72 173,-78 173,-84 173,-84 173,-96 173,-96 173,-102 167,-108 161,-108"/>
<text text-anchor="middle" x="146" y="-87.5" font-family="sans" font-size="10.00" fill="#000000">multiqc</text>
</g>
<!-- 1&#45;&gt;0 -->
<g id="edge2" class="edge">
<title>1&#45;&gt;0</title>
<path fill="none" stroke="#c0c0c0" stroke-width="2" d="M152.8132,-71.8314C155.7644,-63.9617 159.2858,-54.5712 162.555,-45.8533"/>
<polygon fill="#c0c0c0" stroke="#c0c0c0" stroke-width="2" points="165.8609,-47.0055 166.095,-36.4133 159.3066,-44.5476 165.8609,-47.0055"/>
</g>
<!-- 2 -->
<g id="node3" class="node">
<title>2</title>
<path fill="none" stroke="#d8ac56" stroke-width="2" d="M161,-180C161,-180 131,-180 131,-180 125,-180 119,-174 119,-168 119,-168 119,-156 119,-156 119,-150 125,-144 131,-144 131,-144 161,-144 161,-144 167,-144 173,-150 173,-156 173,-156 173,-168 173,-168 173,-174 167,-180 161,-180"/>
<text text-anchor="middle" x="146" y="-159.5" font-family="sans" font-size="10.00" fill="#000000">fastqc</text>
</g>
<!-- 2&#45;&gt;1 -->
<g id="edge3" class="edge">
<title>2&#45;&gt;1</title>
<path fill="none" stroke="#c0c0c0" stroke-width="2" d="M146,-143.8314C146,-136.131 146,-126.9743 146,-118.4166"/>
<polygon fill="#c0c0c0" stroke="#c0c0c0" stroke-width="2" points="149.5001,-118.4132 146,-108.4133 142.5001,-118.4133 149.5001,-118.4132"/>
</g>
<!-- 3 -->
<g id="node4" class="node">
<title>3</title>
<path fill="none" stroke="#80d856" stroke-width="2" d="M132,-396C132,-396 84,-396 84,-396 78,-396 72,-390 72,-384 72,-384 72,-372 72,-372 72,-366 78,-360 84,-360 84,-360 132,-360 132,-360 138,-360 144,-366 144,-372 144,-372 144,-384 144,-384 144,-390 138,-396 132,-396"/>
<text text-anchor="middle" x="108" y="-375.5" font-family="sans" font-size="10.00" fill="#000000">merge_lanes</text>
</g>
<!-- 3&#45;&gt;2 -->
<g id="edge6" class="edge">
<title>3&#45;&gt;2</title>
<path fill="none" stroke="#c0c0c0" stroke-width="2" d="M111.1745,-359.9555C117.7965,-322.3144 133.1246,-235.1867 141.0522,-190.1246"/>
<polygon fill="#c0c0c0" stroke="#c0c0c0" stroke-width="2" points="144.5221,-190.6003 142.8078,-180.1451 137.628,-189.3874 144.5221,-190.6003"/>
</g>
<!-- 5 -->
<g id="node6" class="node">
<title>5</title>
<path fill="none" stroke="#56d882" stroke-width="2" d="M68,-324C68,-324 12,-324 12,-324 6,-324 0,-318 0,-312 0,-312 0,-300 0,-300 0,-294 6,-288 12,-288 12,-288 68,-288 68,-288 74,-288 80,-294 80,-300 80,-300 80,-312 80,-312 80,-318 74,-324 68,-324"/>
<text text-anchor="middle" x="40" y="-303.5" font-family="sans" font-size="10.00" fill="#000000">nonpareil_infer</text>
</g>
<!-- 3&#45;&gt;5 -->
<g id="edge9" class="edge">
<title>3&#45;&gt;5</title>
<path fill="none" stroke="#c0c0c0" stroke-width="2" d="M90.8407,-359.8314C82.8489,-351.3694 73.1962,-341.1489 64.4584,-331.8971"/>
<polygon fill="#c0c0c0" stroke="#c0c0c0" stroke-width="2" points="66.8011,-329.2802 57.3903,-324.4133 61.712,-334.0866 66.8011,-329.2802"/>
</g>
<!-- 6 -->
<g id="node7" class="node">
<title>6</title>
<path fill="none" stroke="#56d8d8" stroke-width="2" d="M178,-324C178,-324 148,-324 148,-324 142,-324 136,-318 136,-312 136,-312 136,-300 136,-300 136,-294 142,-288 148,-288 148,-288 178,-288 178,-288 184,-288 190,-294 190,-300 190,-300 190,-312 190,-312 190,-318 184,-324 178,-324"/>
<text text-anchor="middle" x="163" y="-303.5" font-family="sans" font-size="10.00" fill="#000000">seqkit</text>
</g>
<!-- 3&#45;&gt;6 -->
<g id="edge10" class="edge">
<title>3&#45;&gt;6</title>
<path fill="none" stroke="#c0c0c0" stroke-width="2" d="M121.8788,-359.8314C128.2136,-351.5386 135.8384,-341.557 142.7926,-332.4533"/>
<polygon fill="#c0c0c0" stroke="#c0c0c0" stroke-width="2" points="145.6452,-334.4847 148.9343,-324.4133 140.0825,-330.2353 145.6452,-334.4847"/>
</g>
<!-- 4 -->
<g id="node5" class="node">
<title>4</title>
<path fill="none" stroke="#56d8a9" stroke-width="2" d="M83.5,-180C83.5,-180 30.5,-180 30.5,-180 24.5,-180 18.5,-174 18.5,-168 18.5,-168 18.5,-156 18.5,-156 18.5,-150 24.5,-144 30.5,-144 30.5,-144 83.5,-144 83.5,-144 89.5,-144 95.5,-150 95.5,-156 95.5,-156 95.5,-168 95.5,-168 95.5,-174 89.5,-180 83.5,-180"/>
<text text-anchor="middle" x="57" y="-159.5" font-family="sans" font-size="10.00" fill="#000000">nonpareil_plot</text>
</g>
<!-- 4&#45;&gt;1 -->
<g id="edge4" class="edge">
<title>4&#45;&gt;1</title>
<path fill="none" stroke="#c0c0c0" stroke-width="2" d="M79.4585,-143.8314C90.4205,-134.9632 103.7699,-124.1637 115.6265,-114.5718"/>
<polygon fill="#c0c0c0" stroke="#c0c0c0" stroke-width="2" points="117.9755,-117.1734 123.5487,-108.1628 113.5729,-111.7313 117.9755,-117.1734"/>
</g>
<!-- 5&#45;&gt;4 -->
<g id="edge8" class="edge">
<title>5&#45;&gt;4</title>
<path fill="none" stroke="#c0c0c0" stroke-width="2" d="M42.1531,-287.7623C45.0527,-263.201 50.2416,-219.2474 53.6526,-190.3541"/>
<polygon fill="#c0c0c0" stroke="#c0c0c0" stroke-width="2" points="57.1678,-190.431 54.8644,-180.0896 50.2161,-189.6103 57.1678,-190.431"/>
</g>
<!-- 6&#45;&gt;2 -->
<g id="edge7" class="edge">
<title>6&#45;&gt;2</title>
<path fill="none" stroke="#c0c0c0" stroke-width="2" d="M160.8469,-287.7623C157.9473,-263.201 152.7584,-219.2474 149.3474,-190.3541"/>
<polygon fill="#c0c0c0" stroke="#c0c0c0" stroke-width="2" points="152.7839,-189.6103 148.1356,-180.0896 145.8322,-190.431 152.7839,-189.6103"/>
</g>
<!-- 7 -->
<g id="node8" class="node">
<title>7</title>
<path fill="none" stroke="#afd856" stroke-width="2" d="M246,-252C246,-252 186,-252 186,-252 180,-252 174,-246 174,-240 174,-240 174,-228 174,-228 174,-222 180,-216 186,-216 186,-216 246,-216 246,-216 252,-216 258,-222 258,-228 258,-228 258,-240 258,-240 258,-246 252,-252 246,-252"/>
<text text-anchor="middle" x="216" y="-231.5" font-family="sans" font-size="10.00" fill="#000000">low_complexity</text>
</g>
<!-- 6&#45;&gt;7 -->
<g id="edge11" class="edge">
<title>6&#45;&gt;7</title>
<path fill="none" stroke="#c0c0c0" stroke-width="2" d="M176.3741,-287.8314C182.4162,-279.6232 189.6763,-269.7606 196.3221,-260.7323"/>
<polygon fill="#c0c0c0" stroke="#c0c0c0" stroke-width="2" points="199.3363,-262.5415 202.4458,-252.4133 193.6989,-258.3918 199.3363,-262.5415"/>
</g>
<!-- 7&#45;&gt;0 -->
<g id="edge1" class="edge">
<title>7&#45;&gt;0</title>
<path fill="none" stroke="#c0c0c0" stroke-width="2" d="M212.4078,-215.9555C204.9144,-178.3144 187.5696,-91.1867 178.5989,-46.1246"/>
<polygon fill="#c0c0c0" stroke="#c0c0c0" stroke-width="2" points="181.9974,-45.2692 176.6122,-36.1451 175.1321,-46.636 181.9974,-45.2692"/>
</g>
<!-- 7&#45;&gt;2 -->
<g id="edge5" class="edge">
<title>7&#45;&gt;2</title>
<path fill="none" stroke="#c0c0c0" stroke-width="2" d="M198.336,-215.8314C190.0268,-207.2848 179.9736,-196.9443 170.9082,-187.6198"/>
<polygon fill="#c0c0c0" stroke="#c0c0c0" stroke-width="2" points="173.3821,-185.1435 163.9018,-180.4133 168.3631,-190.023 173.3821,-185.1435"/>
</g>
</g>
</svg>
