<?xml version="1.0" encoding="UTF-8" standalone="no"?>
<!DOCTYPE svg PUBLIC "-//W3C//DTD SVG 1.1//EN"
 "http://www.w3.org/Graphics/SVG/1.1/DTD/svg11.dtd">
<!-- Generated by graphviz version 2.40.1 (0)
 -->
<!-- Title: snakemake_dag Pages: 1 -->
<svg width="1566pt" height="492pt"
 viewBox="0.00 0.00 1565.50 492.00" xmlns="http://www.w3.org/2000/svg" xmlns:xlink="http://www.w3.org/1999/xlink">
<g id="graph0" class="graph" transform="scale(1 1) rotate(0) translate(4 488)">
<title>snakemake_dag</title>
<polygon fill="#ffffff" stroke="transparent" points="-4,4 -4,-488 1561.5031,-488 1561.5031,4 -4,4"/>
<!-- 0 -->
<g id="node1" class="node">
<title>0</title>
<path fill="none" stroke="#d85656" stroke-width="2" d="M838.3236,-36C838.3236,-36 808.3236,-36 808.3236,-36 802.3236,-36 796.3236,-30 796.3236,-24 796.3236,-24 796.3236,-12 796.3236,-12 796.3236,-6 802.3236,0 808.3236,0 808.3236,0 838.3236,0 838.3236,0 844.3236,0 850.3236,-6 850.3236,-12 850.3236,-12 850.3236,-24 850.3236,-24 850.3236,-30 844.3236,-36 838.3236,-36"/>
<text text-anchor="middle" x="823.3236" y="-15.5" font-family="sans" font-size="10.00" fill="#000000">all</text>
</g>
<!-- 1 -->
<g id="node2" class="node">
<title>1</title>
<path fill="none" stroke="#80d856" stroke-width="2" d="M798.3236,-108C798.3236,-108 768.3236,-108 768.3236,-108 762.3236,-108 756.3236,-102 756.3236,-96 756.3236,-96 756.3236,-84 756.3236,-84 756.3236,-78 762.3236,-72 768.3236,-72 768.3236,-72 798.3236,-72 798.3236,-72 804.3236,-72 810.3236,-78 810.3236,-84 810.3236,-84 810.3236,-96 810.3236,-96 810.3236,-102 804.3236,-108 798.3236,-108"/>
<text text-anchor="middle" x="783.3236" y="-87.5" font-family="sans" font-size="10.00" fill="#000000">multiqc</text>
</g>
<!-- 1&#45;&gt;0 -->
<g id="edge1" class="edge">
<title>1&#45;&gt;0</title>
<path fill="none" stroke="#c0c0c0" stroke-width="2" d="M793.4173,-71.8314C797.8833,-63.7925 803.2311,-54.1666 808.1615,-45.2918"/>
<polygon fill="#c0c0c0" stroke="#c0c0c0" stroke-width="2" points="811.2971,-46.8546 813.094,-36.4133 805.178,-43.4551 811.2971,-46.8546"/>
</g>
<!-- 2 -->
<g id="node3" class="node">
<title>2</title>
<path fill="none" stroke="#5682d8" stroke-width="2" d="M1070.3236,-180C1070.3236,-180 1000.3236,-180 1000.3236,-180 994.3236,-180 988.3236,-174 988.3236,-168 988.3236,-168 988.3236,-156 988.3236,-156 988.3236,-150 994.3236,-144 1000.3236,-144 1000.3236,-144 1070.3236,-144 1070.3236,-144 1076.3236,-144 1082.3236,-150 1082.3236,-156 1082.3236,-156 1082.3236,-168 1082.3236,-168 1082.3236,-174 1076.3236,-180 1070.3236,-180"/>
<text text-anchor="middle" x="1035.3236" y="-165" font-family="sans" font-size="10.00" fill="#000000">seqkit_stats</text>
<text text-anchor="middle" x="1035.3236" y="-154" font-family="sans" font-size="10.00" fill="#000000">tool: merge_lanes</text>
</g>
<!-- 2&#45;&gt;1 -->
<g id="edge5" class="edge">
<title>2&#45;&gt;1</title>
<path fill="none" stroke="#c0c0c0" stroke-width="2" d="M988.0861,-146.94C984.7863,-145.932 981.5076,-144.9433 978.3236,-144 923.4816,-127.7529 859.5164,-110.3279 820.2196,-99.7961"/>
<polygon fill="#c0c0c0" stroke="#c0c0c0" stroke-width="2" points="821.1052,-96.41 810.5404,-97.2077 819.2968,-103.1724 821.1052,-96.41"/>
</g>
<!-- 3 -->
<g id="node4" class="node">
<title>3</title>
<path fill="none" stroke="#afd856" stroke-width="2" d="M775.3236,-484C775.3236,-484 671.3236,-484 671.3236,-484 665.3236,-484 659.3236,-478 659.3236,-472 659.3236,-472 659.3236,-444 659.3236,-444 659.3236,-438 665.3236,-432 671.3236,-432 671.3236,-432 775.3236,-432 775.3236,-432 781.3236,-432 787.3236,-438 787.3236,-444 787.3236,-444 787.3236,-472 787.3236,-472 787.3236,-478 781.3236,-484 775.3236,-484"/>
<text text-anchor="middle" x="723.3236" y="-472" font-family="sans" font-size="10.00" fill="#000000">merge_lanes</text>
<text text-anchor="middle" x="723.3236" y="-461" font-family="sans" font-size="10.00" fill="#000000">library: lib1</text>
<text text-anchor="middle" x="723.3236" y="-450" font-family="sans" font-size="10.00" fill="#000000">read_type_trim: collapsed</text>
<text text-anchor="middle" x="723.3236" y="-439" font-family="sans" font-size="10.00" fill="#000000">sample: HD827sonic_1</text>
</g>
<!-- 3&#45;&gt;2 -->
<g id="edge23" class="edge">
<title>3&#45;&gt;2</title>
<path fill="none" stroke="#c0c0c0" stroke-width="2" d="M778.3519,-431.9202C842.4537,-398.8071 947.2197,-335.7573 1007.3236,-252 1020.4639,-233.6884 1027.5698,-209.0286 1031.3308,-190.1523"/>
<polygon fill="#c0c0c0" stroke="#c0c0c0" stroke-width="2" points="1034.819,-190.5287 1033.1362,-180.0684 1027.9286,-189.295 1034.819,-190.5287"/>
</g>
<!-- 13 -->
<g id="node14" class="node">
<title>13</title>
<path fill="none" stroke="#59d856" stroke-width="2" d="M659.3236,-396C659.3236,-396 589.3236,-396 589.3236,-396 583.3236,-396 577.3236,-390 577.3236,-384 577.3236,-384 577.3236,-372 577.3236,-372 577.3236,-366 583.3236,-360 589.3236,-360 589.3236,-360 659.3236,-360 659.3236,-360 665.3236,-360 671.3236,-366 671.3236,-372 671.3236,-372 671.3236,-384 671.3236,-384 671.3236,-390 665.3236,-396 659.3236,-396"/>
<text text-anchor="middle" x="624.3236" y="-381" font-family="sans" font-size="10.00" fill="#000000">nonpareil_infer</text>
<text text-anchor="middle" x="624.3236" y="-370" font-family="sans" font-size="10.00" fill="#000000">tool: merge_lanes</text>
</g>
<!-- 3&#45;&gt;13 -->
<g id="edge31" class="edge">
<title>3&#45;&gt;13</title>
<path fill="none" stroke="#c0c0c0" stroke-width="2" d="M690.9073,-431.805C679.2906,-422.4178 666.2431,-411.8743 654.7967,-402.6247"/>
<polygon fill="#c0c0c0" stroke="#c0c0c0" stroke-width="2" points="656.766,-399.7162 646.7882,-396.1532 652.3664,-405.1608 656.766,-399.7162"/>
</g>
<!-- 17 -->
<g id="node18" class="node">
<title>17</title>
<path fill="none" stroke="#56d8a9" stroke-width="2" d="M738.3236,-396C738.3236,-396 708.3236,-396 708.3236,-396 702.3236,-396 696.3236,-390 696.3236,-384 696.3236,-384 696.3236,-372 696.3236,-372 696.3236,-366 702.3236,-360 708.3236,-360 708.3236,-360 738.3236,-360 738.3236,-360 744.3236,-360 750.3236,-366 750.3236,-372 750.3236,-372 750.3236,-384 750.3236,-384 750.3236,-390 744.3236,-396 738.3236,-396"/>
<text text-anchor="middle" x="723.3236" y="-375.5" font-family="sans" font-size="10.00" fill="#000000">seqkit</text>
</g>
<!-- 3&#45;&gt;17 -->
<g id="edge35" class="edge">
<title>3&#45;&gt;17</title>
<path fill="none" stroke="#c0c0c0" stroke-width="2" d="M723.3236,-431.805C723.3236,-423.6026 723.3236,-414.5174 723.3236,-406.1839"/>
<polygon fill="#c0c0c0" stroke="#c0c0c0" stroke-width="2" points="726.8237,-406.1532 723.3236,-396.1532 719.8237,-406.1533 726.8237,-406.1532"/>
</g>
<!-- 4 -->
<g id="node5" class="node">
<title>4</title>
<path fill="none" stroke="#5682d8" stroke-width="2" d="M577.3236,-252C577.3236,-252 507.3236,-252 507.3236,-252 501.3236,-252 495.3236,-246 495.3236,-240 495.3236,-240 495.3236,-228 495.3236,-228 495.3236,-222 501.3236,-216 507.3236,-216 507.3236,-216 577.3236,-216 577.3236,-216 583.3236,-216 589.3236,-222 589.3236,-228 589.3236,-228 589.3236,-240 589.3236,-240 589.3236,-246 583.3236,-252 577.3236,-252"/>
<text text-anchor="middle" x="542.3236" y="-237" font-family="sans" font-size="10.00" fill="#000000">seqkit_stats</text>
<text text-anchor="middle" x="542.3236" y="-226" font-family="sans" font-size="10.00" fill="#000000">tool: merge_lanes</text>
</g>
<!-- 4&#45;&gt;1 -->
<g id="edge6" class="edge">
<title>4&#45;&gt;1</title>
<path fill="none" stroke="#c0c0c0" stroke-width="2" d="M498.3873,-215.9393C474.3091,-205.0496 448.0185,-191.1712 441.3236,-180 433.0987,-166.2759 430.9295,-156.164 441.3236,-144 460.9838,-120.992 661.3569,-100.7657 745.9545,-93.1829"/>
<polygon fill="#c0c0c0" stroke="#c0c0c0" stroke-width="2" points="746.4984,-96.6485 756.1507,-92.2801 745.8809,-89.6758 746.4984,-96.6485"/>
</g>
<!-- 5 -->
<g id="node6" class="node">
<title>5</title>
<path fill="none" stroke="#afd856" stroke-width="2" d="M490.3236,-484C490.3236,-484 386.3236,-484 386.3236,-484 380.3236,-484 374.3236,-478 374.3236,-472 374.3236,-472 374.3236,-444 374.3236,-444 374.3236,-438 380.3236,-432 386.3236,-432 386.3236,-432 490.3236,-432 490.3236,-432 496.3236,-432 502.3236,-438 502.3236,-444 502.3236,-444 502.3236,-472 502.3236,-472 502.3236,-478 496.3236,-484 490.3236,-484"/>
<text text-anchor="middle" x="438.3236" y="-472" font-family="sans" font-size="10.00" fill="#000000">merge_lanes</text>
<text text-anchor="middle" x="438.3236" y="-461" font-family="sans" font-size="10.00" fill="#000000">library: lib1</text>
<text text-anchor="middle" x="438.3236" y="-450" font-family="sans" font-size="10.00" fill="#000000">read_type_trim: collapsed</text>
<text text-anchor="middle" x="438.3236" y="-439" font-family="sans" font-size="10.00" fill="#000000">sample: HD827sonic_2</text>
</g>
<!-- 5&#45;&gt;4 -->
<g id="edge24" class="edge">
<title>5&#45;&gt;4</title>
<path fill="none" stroke="#c0c0c0" stroke-width="2" d="M466.5886,-431.9949C476.52,-421.6102 487.0131,-409.0289 494.3236,-396 518.6737,-352.603 531.8298,-295.5839 537.9349,-262.0527"/>
<polygon fill="#c0c0c0" stroke="#c0c0c0" stroke-width="2" points="541.4113,-262.4898 539.6746,-252.0383 534.5146,-261.2916 541.4113,-262.4898"/>
</g>
<!-- 11 -->
<g id="node12" class="node">
<title>11</title>
<path fill="none" stroke="#59d856" stroke-width="2" d="M473.3236,-396C473.3236,-396 403.3236,-396 403.3236,-396 397.3236,-396 391.3236,-390 391.3236,-384 391.3236,-384 391.3236,-372 391.3236,-372 391.3236,-366 397.3236,-360 403.3236,-360 403.3236,-360 473.3236,-360 473.3236,-360 479.3236,-360 485.3236,-366 485.3236,-372 485.3236,-372 485.3236,-384 485.3236,-384 485.3236,-390 479.3236,-396 473.3236,-396"/>
<text text-anchor="middle" x="438.3236" y="-381" font-family="sans" font-size="10.00" fill="#000000">nonpareil_infer</text>
<text text-anchor="middle" x="438.3236" y="-370" font-family="sans" font-size="10.00" fill="#000000">tool: merge_lanes</text>
</g>
<!-- 5&#45;&gt;11 -->
<g id="edge29" class="edge">
<title>5&#45;&gt;11</title>
<path fill="none" stroke="#c0c0c0" stroke-width="2" d="M438.3236,-431.805C438.3236,-423.6026 438.3236,-414.5174 438.3236,-406.1839"/>
<polygon fill="#c0c0c0" stroke="#c0c0c0" stroke-width="2" points="441.8237,-406.1532 438.3236,-396.1532 434.8237,-406.1533 441.8237,-406.1532"/>
</g>
<!-- 15 -->
<g id="node16" class="node">
<title>15</title>
<path fill="none" stroke="#56d8a9" stroke-width="2" d="M325.3236,-396C325.3236,-396 295.3236,-396 295.3236,-396 289.3236,-396 283.3236,-390 283.3236,-384 283.3236,-384 283.3236,-372 283.3236,-372 283.3236,-366 289.3236,-360 295.3236,-360 295.3236,-360 325.3236,-360 325.3236,-360 331.3236,-360 337.3236,-366 337.3236,-372 337.3236,-372 337.3236,-384 337.3236,-384 337.3236,-390 331.3236,-396 325.3236,-396"/>
<text text-anchor="middle" x="310.3236" y="-375.5" font-family="sans" font-size="10.00" fill="#000000">seqkit</text>
</g>
<!-- 5&#45;&gt;15 -->
<g id="edge33" class="edge">
<title>5&#45;&gt;15</title>
<path fill="none" stroke="#c0c0c0" stroke-width="2" d="M396.4116,-431.805C380.1993,-421.6723 361.8315,-410.1925 346.2384,-400.4468"/>
<polygon fill="#c0c0c0" stroke="#c0c0c0" stroke-width="2" points="347.7503,-397.2644 337.4153,-394.9323 344.0403,-403.2004 347.7503,-397.2644"/>
</g>
<!-- 6 -->
<g id="node7" class="node">
<title>6</title>
<path fill="none" stroke="#5682d8" stroke-width="2" d="M1145.3236,-396C1145.3236,-396 1075.3236,-396 1075.3236,-396 1069.3236,-396 1063.3236,-390 1063.3236,-384 1063.3236,-384 1063.3236,-372 1063.3236,-372 1063.3236,-366 1069.3236,-360 1075.3236,-360 1075.3236,-360 1145.3236,-360 1145.3236,-360 1151.3236,-360 1157.3236,-366 1157.3236,-372 1157.3236,-372 1157.3236,-384 1157.3236,-384 1157.3236,-390 1151.3236,-396 1145.3236,-396"/>
<text text-anchor="middle" x="1110.3236" y="-381" font-family="sans" font-size="10.00" fill="#000000">seqkit_stats</text>
<text text-anchor="middle" x="1110.3236" y="-370" font-family="sans" font-size="10.00" fill="#000000">tool: merge_lanes</text>
</g>
<!-- 6&#45;&gt;1 -->
<g id="edge7" class="edge">
<title>6&#45;&gt;1</title>
<path fill="none" stroke="#c0c0c0" stroke-width="2" d="M1115.3847,-359.9268C1126.3495,-316.4589 1147.0609,-205.1497 1091.3236,-144 1055.5958,-104.8029 894.9831,-93.9825 820.9339,-91.056"/>
<polygon fill="#c0c0c0" stroke="#c0c0c0" stroke-width="2" points="820.7835,-87.5482 810.6618,-90.6791 820.5267,-94.5435 820.7835,-87.5482"/>
</g>
<!-- 7 -->
<g id="node8" class="node">
<title>7</title>
<path fill="none" stroke="#afd856" stroke-width="2" d="M1274.3236,-484C1274.3236,-484 1170.3236,-484 1170.3236,-484 1164.3236,-484 1158.3236,-478 1158.3236,-472 1158.3236,-472 1158.3236,-444 1158.3236,-444 1158.3236,-438 1164.3236,-432 1170.3236,-432 1170.3236,-432 1274.3236,-432 1274.3236,-432 1280.3236,-432 1286.3236,-438 1286.3236,-444 1286.3236,-444 1286.3236,-472 1286.3236,-472 1286.3236,-478 1280.3236,-484 1274.3236,-484"/>
<text text-anchor="middle" x="1222.3236" y="-472" font-family="sans" font-size="10.00" fill="#000000">merge_lanes</text>
<text text-anchor="middle" x="1222.3236" y="-461" font-family="sans" font-size="10.00" fill="#000000">library: lib2</text>
<text text-anchor="middle" x="1222.3236" y="-450" font-family="sans" font-size="10.00" fill="#000000">read_type_trim: collapsed</text>
<text text-anchor="middle" x="1222.3236" y="-439" font-family="sans" font-size="10.00" fill="#000000">sample: HD827sonic_2</text>
</g>
<!-- 7&#45;&gt;6 -->
<g id="edge25" class="edge">
<title>7&#45;&gt;6</title>
<path fill="none" stroke="#c0c0c0" stroke-width="2" d="M1185.6506,-431.805C1172.2533,-422.2355 1157.1738,-411.4645 1144.0459,-402.0874"/>
<polygon fill="#c0c0c0" stroke="#c0c0c0" stroke-width="2" points="1145.9098,-399.1176 1135.7381,-396.1532 1141.8411,-404.8137 1145.9098,-399.1176"/>
</g>
<!-- 9 -->
<g id="node10" class="node">
<title>9</title>
<path fill="none" stroke="#59d856" stroke-width="2" d="M1257.3236,-396C1257.3236,-396 1187.3236,-396 1187.3236,-396 1181.3236,-396 1175.3236,-390 1175.3236,-384 1175.3236,-384 1175.3236,-372 1175.3236,-372 1175.3236,-366 1181.3236,-360 1187.3236,-360 1187.3236,-360 1257.3236,-360 1257.3236,-360 1263.3236,-360 1269.3236,-366 1269.3236,-372 1269.3236,-372 1269.3236,-384 1269.3236,-384 1269.3236,-390 1263.3236,-396 1257.3236,-396"/>
<text text-anchor="middle" x="1222.3236" y="-381" font-family="sans" font-size="10.00" fill="#000000">nonpareil_infer</text>
<text text-anchor="middle" x="1222.3236" y="-370" font-family="sans" font-size="10.00" fill="#000000">tool: merge_lanes</text>
</g>
<!-- 7&#45;&gt;9 -->
<g id="edge27" class="edge">
<title>7&#45;&gt;9</title>
<path fill="none" stroke="#c0c0c0" stroke-width="2" d="M1222.3236,-431.805C1222.3236,-423.6026 1222.3236,-414.5174 1222.3236,-406.1839"/>
<polygon fill="#c0c0c0" stroke="#c0c0c0" stroke-width="2" points="1225.8237,-406.1532 1222.3236,-396.1532 1218.8237,-406.1533 1225.8237,-406.1532"/>
</g>
<!-- 19 -->
<g id="node20" class="node">
<title>19</title>
<path fill="none" stroke="#56d8a9" stroke-width="2" d="M1353.3236,-396C1353.3236,-396 1323.3236,-396 1323.3236,-396 1317.3236,-396 1311.3236,-390 1311.3236,-384 1311.3236,-384 1311.3236,-372 1311.3236,-372 1311.3236,-366 1317.3236,-360 1323.3236,-360 1323.3236,-360 1353.3236,-360 1353.3236,-360 1359.3236,-360 1365.3236,-366 1365.3236,-372 1365.3236,-372 1365.3236,-384 1365.3236,-384 1365.3236,-390 1359.3236,-396 1353.3236,-396"/>
<text text-anchor="middle" x="1338.3236" y="-375.5" font-family="sans" font-size="10.00" fill="#000000">seqkit</text>
</g>
<!-- 7&#45;&gt;19 -->
<g id="edge37" class="edge">
<title>7&#45;&gt;19</title>
<path fill="none" stroke="#c0c0c0" stroke-width="2" d="M1260.3063,-431.805C1274.1821,-422.2355 1289.8001,-411.4645 1303.3969,-402.0874"/>
<polygon fill="#c0c0c0" stroke="#c0c0c0" stroke-width="2" points="1305.7563,-404.7119 1312.0014,-396.1532 1301.7822,-398.9494 1305.7563,-404.7119"/>
</g>
<!-- 8 -->
<g id="node9" class="node">
<title>8</title>
<path fill="none" stroke="#56d882" stroke-width="2" d="M1203.8236,-324C1203.8236,-324 1150.8236,-324 1150.8236,-324 1144.8236,-324 1138.8236,-318 1138.8236,-312 1138.8236,-312 1138.8236,-300 1138.8236,-300 1138.8236,-294 1144.8236,-288 1150.8236,-288 1150.8236,-288 1203.8236,-288 1203.8236,-288 1209.8236,-288 1215.8236,-294 1215.8236,-300 1215.8236,-300 1215.8236,-312 1215.8236,-312 1215.8236,-318 1209.8236,-324 1203.8236,-324"/>
<text text-anchor="middle" x="1177.3236" y="-303.5" font-family="sans" font-size="10.00" fill="#000000">nonpareil_plot</text>
</g>
<!-- 8&#45;&gt;1 -->
<g id="edge8" class="edge">
<title>8&#45;&gt;1</title>
<path fill="none" stroke="#c0c0c0" stroke-width="2" d="M1173.8282,-287.7477C1166.1315,-249.5202 1146.62,-163.0034 1124.3236,-144 1079.1755,-105.5199 899.9803,-94.2622 821.0207,-91.135"/>
<polygon fill="#c0c0c0" stroke="#c0c0c0" stroke-width="2" points="820.6922,-87.6204 810.5688,-90.7457 820.4316,-94.6156 820.6922,-87.6204"/>
</g>
<!-- 9&#45;&gt;8 -->
<g id="edge26" class="edge">
<title>9&#45;&gt;8</title>
<path fill="none" stroke="#c0c0c0" stroke-width="2" d="M1210.9682,-359.8314C1205.891,-351.7079 1199.8009,-341.9637 1194.206,-333.0118"/>
<polygon fill="#c0c0c0" stroke="#c0c0c0" stroke-width="2" points="1197.0999,-331.0383 1188.8319,-324.4133 1191.1639,-334.7483 1197.0999,-331.0383"/>
</g>
<!-- 10 -->
<g id="node11" class="node">
<title>10</title>
<path fill="none" stroke="#56d882" stroke-width="2" d="M464.8236,-252C464.8236,-252 411.8236,-252 411.8236,-252 405.8236,-252 399.8236,-246 399.8236,-240 399.8236,-240 399.8236,-228 399.8236,-228 399.8236,-222 405.8236,-216 411.8236,-216 411.8236,-216 464.8236,-216 464.8236,-216 470.8236,-216 476.8236,-222 476.8236,-228 476.8236,-228 476.8236,-240 476.8236,-240 476.8236,-246 470.8236,-252 464.8236,-252"/>
<text text-anchor="middle" x="438.3236" y="-231.5" font-family="sans" font-size="10.00" fill="#000000">nonpareil_plot</text>
</g>
<!-- 10&#45;&gt;1 -->
<g id="edge9" class="edge">
<title>10&#45;&gt;1</title>
<path fill="none" stroke="#c0c0c0" stroke-width="2" d="M429.7626,-215.7757C421.7598,-195.7334 413.3599,-163.7561 430.3236,-144 450.7513,-120.2097 659.3555,-100.2961 745.9538,-92.9899"/>
<polygon fill="#c0c0c0" stroke="#c0c0c0" stroke-width="2" points="746.4555,-96.4603 756.1304,-92.1421 745.8743,-89.4845 746.4555,-96.4603"/>
</g>
<!-- 11&#45;&gt;10 -->
<g id="edge28" class="edge">
<title>11&#45;&gt;10</title>
<path fill="none" stroke="#c0c0c0" stroke-width="2" d="M438.3236,-359.7623C438.3236,-335.201 438.3236,-291.2474 438.3236,-262.3541"/>
<polygon fill="#c0c0c0" stroke="#c0c0c0" stroke-width="2" points="441.8237,-262.0896 438.3236,-252.0896 434.8237,-262.0897 441.8237,-262.0896"/>
</g>
<!-- 12 -->
<g id="node13" class="node">
<title>12</title>
<path fill="none" stroke="#56d882" stroke-width="2" d="M515.8236,-180C515.8236,-180 462.8236,-180 462.8236,-180 456.8236,-180 450.8236,-174 450.8236,-168 450.8236,-168 450.8236,-156 450.8236,-156 450.8236,-150 456.8236,-144 462.8236,-144 462.8236,-144 515.8236,-144 515.8236,-144 521.8236,-144 527.8236,-150 527.8236,-156 527.8236,-156 527.8236,-168 527.8236,-168 527.8236,-174 521.8236,-180 515.8236,-180"/>
<text text-anchor="middle" x="489.3236" y="-159.5" font-family="sans" font-size="10.00" fill="#000000">nonpareil_plot</text>
</g>
<!-- 12&#45;&gt;1 -->
<g id="edge10" class="edge">
<title>12&#45;&gt;1</title>
<path fill="none" stroke="#c0c0c0" stroke-width="2" d="M527.9354,-146.9801C531.0934,-145.9171 534.251,-144.9083 537.3236,-144 610.1799,-122.4627 697.4597,-105.2855 746.0226,-96.4711"/>
<polygon fill="#c0c0c0" stroke="#c0c0c0" stroke-width="2" points="746.8423,-99.8799 756.0662,-94.6674 745.605,-92.9901 746.8423,-99.8799"/>
</g>
<!-- 13&#45;&gt;12 -->
<g id="edge30" class="edge">
<title>13&#45;&gt;12</title>
<path fill="none" stroke="#c0c0c0" stroke-width="2" d="M626.4316,-359.9374C629.1985,-327.7034 630.4263,-259.5722 598.3236,-216 590.2705,-205.0698 562.8116,-191.4974 537.4711,-180.694"/>
<polygon fill="#c0c0c0" stroke="#c0c0c0" stroke-width="2" points="538.4842,-177.3242 527.9077,-176.7004 535.7867,-183.7836 538.4842,-177.3242"/>
</g>
<!-- 14 -->
<g id="node15" class="node">
<title>14</title>
<path fill="none" stroke="#5682d8" stroke-width="2" d="M306.3236,-180C306.3236,-180 260.3236,-180 260.3236,-180 254.3236,-180 248.3236,-174 248.3236,-168 248.3236,-168 248.3236,-156 248.3236,-156 248.3236,-150 254.3236,-144 260.3236,-144 260.3236,-144 306.3236,-144 306.3236,-144 312.3236,-144 318.3236,-150 318.3236,-156 318.3236,-156 318.3236,-168 318.3236,-168 318.3236,-174 312.3236,-180 306.3236,-180"/>
<text text-anchor="middle" x="283.3236" y="-165" font-family="sans" font-size="10.00" fill="#000000">seqkit_stats</text>
<text text-anchor="middle" x="283.3236" y="-154" font-family="sans" font-size="10.00" fill="#000000">tool: derep</text>
</g>
<!-- 14&#45;&gt;1 -->
<g id="edge11" class="edge">
<title>14&#45;&gt;1</title>
<path fill="none" stroke="#c0c0c0" stroke-width="2" d="M318.3501,-148.022C322.9986,-146.4959 327.7412,-145.1001 332.3236,-144 483.004,-107.8271 668.0961,-95.3694 745.9867,-91.5329"/>
<polygon fill="#c0c0c0" stroke="#c0c0c0" stroke-width="2" points="746.4278,-95.016 756.2511,-91.0471 746.0968,-88.0238 746.4278,-95.016"/>
</g>
<!-- 15&#45;&gt;14 -->
<g id="edge32" class="edge">
<title>15&#45;&gt;14</title>
<path fill="none" stroke="#c0c0c0" stroke-width="2" d="M304.2753,-359.711C301.0938,-349.3481 297.4273,-336.0779 295.3236,-324 287.2369,-277.5707 284.5944,-222.727 283.7343,-190.2382"/>
<polygon fill="#c0c0c0" stroke="#c0c0c0" stroke-width="2" points="287.2308,-190.0401 283.5057,-180.1217 280.2326,-190.1983 287.2308,-190.0401"/>
</g>
<!-- 21 -->
<g id="node22" class="node">
<title>21</title>
<path fill="none" stroke="#59d856" stroke-width="2" d="M372.3236,-324C372.3236,-324 316.3236,-324 316.3236,-324 310.3236,-324 304.3236,-318 304.3236,-312 304.3236,-312 304.3236,-300 304.3236,-300 304.3236,-294 310.3236,-288 316.3236,-288 316.3236,-288 372.3236,-288 372.3236,-288 378.3236,-288 384.3236,-294 384.3236,-300 384.3236,-300 384.3236,-312 384.3236,-312 384.3236,-318 378.3236,-324 372.3236,-324"/>
<text text-anchor="middle" x="344.3236" y="-309" font-family="sans" font-size="10.00" fill="#000000">nonpareil_infer</text>
<text text-anchor="middle" x="344.3236" y="-298" font-family="sans" font-size="10.00" fill="#000000">tool: derep</text>
</g>
<!-- 15&#45;&gt;21 -->
<g id="edge39" class="edge">
<title>15&#45;&gt;21</title>
<path fill="none" stroke="#c0c0c0" stroke-width="2" d="M318.9032,-359.8314C322.6594,-351.8771 327.1493,-342.369 331.3034,-333.5723"/>
<polygon fill="#c0c0c0" stroke="#c0c0c0" stroke-width="2" points="334.5232,-334.9503 335.6285,-324.4133 328.1935,-331.9612 334.5232,-334.9503"/>
</g>
<!-- 27 -->
<g id="node28" class="node">
<title>27</title>
<path fill="none" stroke="#d6d856" stroke-width="2" d="M163.3236,-324C163.3236,-324 103.3236,-324 103.3236,-324 97.3236,-324 91.3236,-318 91.3236,-312 91.3236,-312 91.3236,-300 91.3236,-300 91.3236,-294 97.3236,-288 103.3236,-288 103.3236,-288 163.3236,-288 163.3236,-288 169.3236,-288 175.3236,-294 175.3236,-300 175.3236,-300 175.3236,-312 175.3236,-312 175.3236,-318 169.3236,-324 163.3236,-324"/>
<text text-anchor="middle" x="133.3236" y="-303.5" font-family="sans" font-size="10.00" fill="#000000">low_complexity</text>
</g>
<!-- 15&#45;&gt;27 -->
<g id="edge45" class="edge">
<title>15&#45;&gt;27</title>
<path fill="none" stroke="#c0c0c0" stroke-width="2" d="M283.0553,-366.9078C257.0424,-356.3263 217.1861,-340.1135 185.1327,-327.0749"/>
<polygon fill="#c0c0c0" stroke="#c0c0c0" stroke-width="2" points="186.0413,-323.666 175.4595,-323.14 183.4037,-330.1501 186.0413,-323.666"/>
</g>
<!-- 16 -->
<g id="node17" class="node">
<title>16</title>
<path fill="none" stroke="#5682d8" stroke-width="2" d="M604.3236,-180C604.3236,-180 558.3236,-180 558.3236,-180 552.3236,-180 546.3236,-174 546.3236,-168 546.3236,-168 546.3236,-156 546.3236,-156 546.3236,-150 552.3236,-144 558.3236,-144 558.3236,-144 604.3236,-144 604.3236,-144 610.3236,-144 616.3236,-150 616.3236,-156 616.3236,-156 616.3236,-168 616.3236,-168 616.3236,-174 610.3236,-180 604.3236,-180"/>
<text text-anchor="middle" x="581.3236" y="-165" font-family="sans" font-size="10.00" fill="#000000">seqkit_stats</text>
<text text-anchor="middle" x="581.3236" y="-154" font-family="sans" font-size="10.00" fill="#000000">tool: derep</text>
</g>
<!-- 16&#45;&gt;1 -->
<g id="edge12" class="edge">
<title>16&#45;&gt;1</title>
<path fill="none" stroke="#c0c0c0" stroke-width="2" d="M616.7943,-147.2795C619.672,-146.1493 622.5416,-145.0434 625.3236,-144 666.4694,-128.5679 714.289,-112.477 746.4503,-101.9188"/>
<polygon fill="#c0c0c0" stroke="#c0c0c0" stroke-width="2" points="747.8971,-105.1282 756.3138,-98.6931 745.7212,-98.4749 747.8971,-105.1282"/>
</g>
<!-- 17&#45;&gt;16 -->
<g id="edge34" class="edge">
<title>17&#45;&gt;16</title>
<path fill="none" stroke="#c0c0c0" stroke-width="2" d="M704.234,-359.605C694.5354,-349.6397 683.0002,-336.7768 674.3236,-324 644.2854,-279.7669 649.1285,-261.67 621.3236,-216 615.6812,-206.7323 608.8595,-197.0716 602.4598,-188.5265"/>
<polygon fill="#c0c0c0" stroke="#c0c0c0" stroke-width="2" points="605.1115,-186.2321 596.2603,-180.4092 599.5485,-190.4809 605.1115,-186.2321"/>
</g>
<!-- 23 -->
<g id="node24" class="node">
<title>23</title>
<path fill="none" stroke="#59d856" stroke-width="2" d="M751.3236,-324C751.3236,-324 695.3236,-324 695.3236,-324 689.3236,-324 683.3236,-318 683.3236,-312 683.3236,-312 683.3236,-300 683.3236,-300 683.3236,-294 689.3236,-288 695.3236,-288 695.3236,-288 751.3236,-288 751.3236,-288 757.3236,-288 763.3236,-294 763.3236,-300 763.3236,-300 763.3236,-312 763.3236,-312 763.3236,-318 757.3236,-324 751.3236,-324"/>
<text text-anchor="middle" x="723.3236" y="-309" font-family="sans" font-size="10.00" fill="#000000">nonpareil_infer</text>
<text text-anchor="middle" x="723.3236" y="-298" font-family="sans" font-size="10.00" fill="#000000">tool: derep</text>
</g>
<!-- 17&#45;&gt;23 -->
<g id="edge41" class="edge">
<title>17&#45;&gt;23</title>
<path fill="none" stroke="#c0c0c0" stroke-width="2" d="M723.3236,-359.8314C723.3236,-352.131 723.3236,-342.9743 723.3236,-334.4166"/>
<polygon fill="#c0c0c0" stroke="#c0c0c0" stroke-width="2" points="726.8237,-334.4132 723.3236,-324.4133 719.8237,-334.4133 726.8237,-334.4132"/>
</g>
<!-- 31 -->
<g id="node32" class="node">
<title>31</title>
<path fill="none" stroke="#d6d856" stroke-width="2" d="M875.3236,-324C875.3236,-324 815.3236,-324 815.3236,-324 809.3236,-324 803.3236,-318 803.3236,-312 803.3236,-312 803.3236,-300 803.3236,-300 803.3236,-294 809.3236,-288 815.3236,-288 815.3236,-288 875.3236,-288 875.3236,-288 881.3236,-288 887.3236,-294 887.3236,-300 887.3236,-300 887.3236,-312 887.3236,-312 887.3236,-318 881.3236,-324 875.3236,-324"/>
<text text-anchor="middle" x="845.3236" y="-303.5" font-family="sans" font-size="10.00" fill="#000000">low_complexity</text>
</g>
<!-- 17&#45;&gt;31 -->
<g id="edge49" class="edge">
<title>17&#45;&gt;31</title>
<path fill="none" stroke="#c0c0c0" stroke-width="2" d="M750.3994,-362.0209C766.6879,-352.408 787.7082,-340.0025 805.8263,-329.3099"/>
<polygon fill="#c0c0c0" stroke="#c0c0c0" stroke-width="2" points="807.6209,-332.3149 814.4541,-324.2181 804.0631,-326.2864 807.6209,-332.3149"/>
</g>
<!-- 18 -->
<g id="node19" class="node">
<title>18</title>
<path fill="none" stroke="#5682d8" stroke-width="2" d="M1292.3236,-324C1292.3236,-324 1246.3236,-324 1246.3236,-324 1240.3236,-324 1234.3236,-318 1234.3236,-312 1234.3236,-312 1234.3236,-300 1234.3236,-300 1234.3236,-294 1240.3236,-288 1246.3236,-288 1246.3236,-288 1292.3236,-288 1292.3236,-288 1298.3236,-288 1304.3236,-294 1304.3236,-300 1304.3236,-300 1304.3236,-312 1304.3236,-312 1304.3236,-318 1298.3236,-324 1292.3236,-324"/>
<text text-anchor="middle" x="1269.3236" y="-309" font-family="sans" font-size="10.00" fill="#000000">seqkit_stats</text>
<text text-anchor="middle" x="1269.3236" y="-298" font-family="sans" font-size="10.00" fill="#000000">tool: derep</text>
</g>
<!-- 18&#45;&gt;1 -->
<g id="edge13" class="edge">
<title>18&#45;&gt;1</title>
<path fill="none" stroke="#c0c0c0" stroke-width="2" d="M1243.5897,-287.9779C1231.0092,-278.3039 1216.263,-265.5893 1205.3236,-252 1171.2895,-209.7216 1192.6218,-175.3599 1148.3236,-144 1096.045,-106.9905 902.7023,-94.85 820.5939,-91.309"/>
<polygon fill="#c0c0c0" stroke="#c0c0c0" stroke-width="2" points="820.5948,-87.8062 810.4592,-90.8916 820.3066,-94.8002 820.5948,-87.8062"/>
</g>
<!-- 19&#45;&gt;18 -->
<g id="edge36" class="edge">
<title>19&#45;&gt;18</title>
<path fill="none" stroke="#c0c0c0" stroke-width="2" d="M1320.912,-359.8314C1312.8026,-351.3694 1303.008,-341.1489 1294.1417,-331.8971"/>
<polygon fill="#c0c0c0" stroke="#c0c0c0" stroke-width="2" points="1296.4157,-329.2115 1286.9697,-324.4133 1291.3618,-334.0549 1296.4157,-329.2115"/>
</g>
<!-- 25 -->
<g id="node26" class="node">
<title>25</title>
<path fill="none" stroke="#59d856" stroke-width="2" d="M1390.3236,-324C1390.3236,-324 1334.3236,-324 1334.3236,-324 1328.3236,-324 1322.3236,-318 1322.3236,-312 1322.3236,-312 1322.3236,-300 1322.3236,-300 1322.3236,-294 1328.3236,-288 1334.3236,-288 1334.3236,-288 1390.3236,-288 1390.3236,-288 1396.3236,-288 1402.3236,-294 1402.3236,-300 1402.3236,-300 1402.3236,-312 1402.3236,-312 1402.3236,-318 1396.3236,-324 1390.3236,-324"/>
<text text-anchor="middle" x="1362.3236" y="-309" font-family="sans" font-size="10.00" fill="#000000">nonpareil_infer</text>
<text text-anchor="middle" x="1362.3236" y="-298" font-family="sans" font-size="10.00" fill="#000000">tool: derep</text>
</g>
<!-- 19&#45;&gt;25 -->
<g id="edge43" class="edge">
<title>19&#45;&gt;25</title>
<path fill="none" stroke="#c0c0c0" stroke-width="2" d="M1344.3798,-359.8314C1346.9748,-352.0463 1350.066,-342.7729 1352.9454,-334.1347"/>
<polygon fill="#c0c0c0" stroke="#c0c0c0" stroke-width="2" points="1356.3439,-335.0069 1356.1858,-324.4133 1349.7031,-332.7933 1356.3439,-335.0069"/>
</g>
<!-- 29 -->
<g id="node30" class="node">
<title>29</title>
<path fill="none" stroke="#d6d856" stroke-width="2" d="M1504.3236,-324C1504.3236,-324 1444.3236,-324 1444.3236,-324 1438.3236,-324 1432.3236,-318 1432.3236,-312 1432.3236,-312 1432.3236,-300 1432.3236,-300 1432.3236,-294 1438.3236,-288 1444.3236,-288 1444.3236,-288 1504.3236,-288 1504.3236,-288 1510.3236,-288 1516.3236,-294 1516.3236,-300 1516.3236,-300 1516.3236,-312 1516.3236,-312 1516.3236,-318 1510.3236,-324 1504.3236,-324"/>
<text text-anchor="middle" x="1474.3236" y="-303.5" font-family="sans" font-size="10.00" fill="#000000">low_complexity</text>
</g>
<!-- 19&#45;&gt;29 -->
<g id="edge47" class="edge">
<title>19&#45;&gt;29</title>
<path fill="none" stroke="#c0c0c0" stroke-width="2" d="M1365.5184,-363.6028C1384.3063,-353.6562 1409.6892,-340.2182 1431.2127,-328.8234"/>
<polygon fill="#c0c0c0" stroke="#c0c0c0" stroke-width="2" points="1432.9701,-331.8533 1440.1703,-324.0811 1429.6948,-325.6668 1432.9701,-331.8533"/>
</g>
<!-- 20 -->
<g id="node21" class="node">
<title>20</title>
<path fill="none" stroke="#56d882" stroke-width="2" d="M369.8236,-252C369.8236,-252 316.8236,-252 316.8236,-252 310.8236,-252 304.8236,-246 304.8236,-240 304.8236,-240 304.8236,-228 304.8236,-228 304.8236,-222 310.8236,-216 316.8236,-216 316.8236,-216 369.8236,-216 369.8236,-216 375.8236,-216 381.8236,-222 381.8236,-228 381.8236,-228 381.8236,-240 381.8236,-240 381.8236,-246 375.8236,-252 369.8236,-252"/>
<text text-anchor="middle" x="343.3236" y="-231.5" font-family="sans" font-size="10.00" fill="#000000">nonpareil_plot</text>
</g>
<!-- 20&#45;&gt;1 -->
<g id="edge14" class="edge">
<title>20&#45;&gt;1</title>
<path fill="none" stroke="#c0c0c0" stroke-width="2" d="M352.8432,-215.7112C364.847,-194.6583 387.5644,-160.825 417.3236,-144 473.1075,-112.4614 664.2936,-97.2809 745.9098,-92.119"/>
<polygon fill="#c0c0c0" stroke="#c0c0c0" stroke-width="2" points="746.4525,-95.5923 756.2182,-91.4837 746.0218,-88.6055 746.4525,-95.5923"/>
</g>
<!-- 21&#45;&gt;20 -->
<g id="edge38" class="edge">
<title>21&#45;&gt;20</title>
<path fill="none" stroke="#c0c0c0" stroke-width="2" d="M344.0713,-287.8314C343.9643,-280.131 343.8371,-270.9743 343.7183,-262.4166"/>
<polygon fill="#c0c0c0" stroke="#c0c0c0" stroke-width="2" points="347.218,-262.3637 343.5793,-252.4133 340.2187,-262.4609 347.218,-262.3637"/>
</g>
<!-- 22 -->
<g id="node23" class="node">
<title>22</title>
<path fill="none" stroke="#56d882" stroke-width="2" d="M699.8236,-180C699.8236,-180 646.8236,-180 646.8236,-180 640.8236,-180 634.8236,-174 634.8236,-168 634.8236,-168 634.8236,-156 634.8236,-156 634.8236,-150 640.8236,-144 646.8236,-144 646.8236,-144 699.8236,-144 699.8236,-144 705.8236,-144 711.8236,-150 711.8236,-156 711.8236,-156 711.8236,-168 711.8236,-168 711.8236,-174 705.8236,-180 699.8236,-180"/>
<text text-anchor="middle" x="673.3236" y="-159.5" font-family="sans" font-size="10.00" fill="#000000">nonpareil_plot</text>
</g>
<!-- 22&#45;&gt;1 -->
<g id="edge15" class="edge">
<title>22&#45;&gt;1</title>
<path fill="none" stroke="#c0c0c0" stroke-width="2" d="M701.0812,-143.8314C715.1271,-134.6377 732.3441,-123.3684 747.389,-113.5208"/>
<polygon fill="#c0c0c0" stroke="#c0c0c0" stroke-width="2" points="749.5057,-116.3185 755.9559,-107.9134 745.672,-110.4616 749.5057,-116.3185"/>
</g>
<!-- 23&#45;&gt;22 -->
<g id="edge40" class="edge">
<title>23&#45;&gt;22</title>
<path fill="none" stroke="#c0c0c0" stroke-width="2" d="M716.9911,-287.7623C708.3877,-262.9846 692.9317,-218.4714 682.9048,-189.5939"/>
<polygon fill="#c0c0c0" stroke="#c0c0c0" stroke-width="2" points="686.1913,-188.3883 679.6047,-180.0896 679.5785,-190.6844 686.1913,-188.3883"/>
</g>
<!-- 24 -->
<g id="node25" class="node">
<title>24</title>
<path fill="none" stroke="#56d882" stroke-width="2" d="M1279.8236,-252C1279.8236,-252 1226.8236,-252 1226.8236,-252 1220.8236,-252 1214.8236,-246 1214.8236,-240 1214.8236,-240 1214.8236,-228 1214.8236,-228 1214.8236,-222 1220.8236,-216 1226.8236,-216 1226.8236,-216 1279.8236,-216 1279.8236,-216 1285.8236,-216 1291.8236,-222 1291.8236,-228 1291.8236,-228 1291.8236,-240 1291.8236,-240 1291.8236,-246 1285.8236,-252 1279.8236,-252"/>
<text text-anchor="middle" x="1253.3236" y="-231.5" font-family="sans" font-size="10.00" fill="#000000">nonpareil_plot</text>
</g>
<!-- 24&#45;&gt;1 -->
<g id="edge16" class="edge">
<title>24&#45;&gt;1</title>
<path fill="none" stroke="#c0c0c0" stroke-width="2" d="M1247.9805,-215.7332C1240.8018,-194.7014 1225.8948,-160.8884 1200.3236,-144 1138.2869,-103.0281 910.9859,-93.0696 820.6768,-90.7105"/>
<polygon fill="#c0c0c0" stroke="#c0c0c0" stroke-width="2" points="820.6953,-87.21 810.6128,-90.4646 820.5242,-94.2079 820.6953,-87.21"/>
</g>
<!-- 25&#45;&gt;24 -->
<g id="edge42" class="edge">
<title>25&#45;&gt;24</title>
<path fill="none" stroke="#c0c0c0" stroke-width="2" d="M1334.8183,-287.8314C1321.0056,-278.7074 1304.098,-267.539 1289.2707,-257.7449"/>
<polygon fill="#c0c0c0" stroke="#c0c0c0" stroke-width="2" points="1291.0932,-254.7541 1280.8201,-252.1628 1287.235,-260.5949 1291.0932,-254.7541"/>
</g>
<!-- 26 -->
<g id="node27" class="node">
<title>26</title>
<path fill="none" stroke="#5682d8" stroke-width="2" d="M112.3236,-252C112.3236,-252 30.3236,-252 30.3236,-252 24.3236,-252 18.3236,-246 18.3236,-240 18.3236,-240 18.3236,-228 18.3236,-228 18.3236,-222 24.3236,-216 30.3236,-216 30.3236,-216 112.3236,-216 112.3236,-216 118.3236,-216 124.3236,-222 124.3236,-228 124.3236,-228 124.3236,-240 124.3236,-240 124.3236,-246 118.3236,-252 112.3236,-252"/>
<text text-anchor="middle" x="71.3236" y="-237" font-family="sans" font-size="10.00" fill="#000000">seqkit_stats</text>
<text text-anchor="middle" x="71.3236" y="-226" font-family="sans" font-size="10.00" fill="#000000">tool: low_complexity</text>
</g>
<!-- 26&#45;&gt;1 -->
<g id="edge17" class="edge">
<title>26&#45;&gt;1</title>
<path fill="none" stroke="#c0c0c0" stroke-width="2" d="M80.0798,-215.7748C91.4087,-194.4465 113.3115,-160.0126 143.3236,-144 196.5507,-115.6014 617.1658,-96.6261 745.9684,-91.437"/>
<polygon fill="#c0c0c0" stroke="#c0c0c0" stroke-width="2" points="746.2721,-94.9278 756.1248,-91.0322 745.9933,-87.9334 746.2721,-94.9278"/>
</g>
<!-- 27&#45;&gt;0 -->
<g id="edge4" class="edge">
<title>27&#45;&gt;0</title>
<path fill="none" stroke="#c0c0c0" stroke-width="2" d="M91.1142,-299.7224C62.7357,-293.0683 27.3398,-279.4961 9.3236,-252 -33.893,-186.0431 94.9043,-146.4263 100.3236,-144 226.1584,-87.6623 655.9365,-36.5305 785.8367,-22.065"/>
<polygon fill="#c0c0c0" stroke="#c0c0c0" stroke-width="2" points="786.5135,-25.5116 796.0677,-20.9327 785.7434,-18.5541 786.5135,-25.5116"/>
</g>
<!-- 27&#45;&gt;26 -->
<g id="edge44" class="edge">
<title>27&#45;&gt;26</title>
<path fill="none" stroke="#c0c0c0" stroke-width="2" d="M117.6784,-287.8314C110.4645,-279.454 101.7666,-269.3531 93.8631,-260.1749"/>
<polygon fill="#c0c0c0" stroke="#c0c0c0" stroke-width="2" points="96.3569,-257.7071 87.1795,-252.4133 91.0525,-262.2748 96.3569,-257.7071"/>
</g>
<!-- 33 -->
<g id="node34" class="node">
<title>33</title>
<path fill="none" stroke="#59d856" stroke-width="2" d="M236.3236,-252C236.3236,-252 154.3236,-252 154.3236,-252 148.3236,-252 142.3236,-246 142.3236,-240 142.3236,-240 142.3236,-228 142.3236,-228 142.3236,-222 148.3236,-216 154.3236,-216 154.3236,-216 236.3236,-216 236.3236,-216 242.3236,-216 248.3236,-222 248.3236,-228 248.3236,-228 248.3236,-240 248.3236,-240 248.3236,-246 242.3236,-252 236.3236,-252"/>
<text text-anchor="middle" x="195.3236" y="-237" font-family="sans" font-size="10.00" fill="#000000">nonpareil_infer</text>
<text text-anchor="middle" x="195.3236" y="-226" font-family="sans" font-size="10.00" fill="#000000">tool: low_complexity</text>
</g>
<!-- 27&#45;&gt;33 -->
<g id="edge51" class="edge">
<title>27&#45;&gt;33</title>
<path fill="none" stroke="#c0c0c0" stroke-width="2" d="M148.9688,-287.8314C156.1827,-279.454 164.8806,-269.3531 172.7841,-260.1749"/>
<polygon fill="#c0c0c0" stroke="#c0c0c0" stroke-width="2" points="175.5947,-262.2748 179.4677,-252.4133 170.2903,-257.7071 175.5947,-262.2748"/>
</g>
<!-- 28 -->
<g id="node29" class="node">
<title>28</title>
<path fill="none" stroke="#5682d8" stroke-width="2" d="M1404.3236,-252C1404.3236,-252 1322.3236,-252 1322.3236,-252 1316.3236,-252 1310.3236,-246 1310.3236,-240 1310.3236,-240 1310.3236,-228 1310.3236,-228 1310.3236,-222 1316.3236,-216 1322.3236,-216 1322.3236,-216 1404.3236,-216 1404.3236,-216 1410.3236,-216 1416.3236,-222 1416.3236,-228 1416.3236,-228 1416.3236,-240 1416.3236,-240 1416.3236,-246 1410.3236,-252 1404.3236,-252"/>
<text text-anchor="middle" x="1363.3236" y="-237" font-family="sans" font-size="10.00" fill="#000000">seqkit_stats</text>
<text text-anchor="middle" x="1363.3236" y="-226" font-family="sans" font-size="10.00" fill="#000000">tool: low_complexity</text>
</g>
<!-- 28&#45;&gt;1 -->
<g id="edge18" class="edge">
<title>28&#45;&gt;1</title>
<path fill="none" stroke="#c0c0c0" stroke-width="2" d="M1343.4111,-215.9698C1318.804,-194.8335 1274.7221,-160.5885 1230.3236,-144 1155.3218,-115.9772 914.1215,-98.2244 820.7386,-92.2494"/>
<polygon fill="#c0c0c0" stroke="#c0c0c0" stroke-width="2" points="820.8189,-88.7476 810.6184,-91.6111 820.3782,-95.7337 820.8189,-88.7476"/>
</g>
<!-- 29&#45;&gt;0 -->
<g id="edge3" class="edge">
<title>29&#45;&gt;0</title>
<path fill="none" stroke="#c0c0c0" stroke-width="2" d="M1513.015,-287.9437C1527.1103,-279.2204 1541.4967,-267.2799 1549.3236,-252 1574.4563,-202.9351 1535.9549,-171.7537 1488.3236,-144 1379.1894,-80.4099 984.3728,-34.764 860.6606,-21.7697"/>
<polygon fill="#c0c0c0" stroke="#c0c0c0" stroke-width="2" points="860.8569,-18.2713 850.5483,-20.7171 860.1321,-25.2337 860.8569,-18.2713"/>
</g>
<!-- 29&#45;&gt;28 -->
<g id="edge46" class="edge">
<title>29&#45;&gt;28</title>
<path fill="none" stroke="#c0c0c0" stroke-width="2" d="M1446.3136,-287.8314C1432.2475,-278.7074 1415.0296,-267.539 1399.9303,-257.7449"/>
<polygon fill="#c0c0c0" stroke="#c0c0c0" stroke-width="2" points="1401.6189,-254.6684 1391.3246,-252.1628 1397.8096,-260.5412 1401.6189,-254.6684"/>
</g>
<!-- 35 -->
<g id="node36" class="node">
<title>35</title>
<path fill="none" stroke="#59d856" stroke-width="2" d="M1528.3236,-252C1528.3236,-252 1446.3236,-252 1446.3236,-252 1440.3236,-252 1434.3236,-246 1434.3236,-240 1434.3236,-240 1434.3236,-228 1434.3236,-228 1434.3236,-222 1440.3236,-216 1446.3236,-216 1446.3236,-216 1528.3236,-216 1528.3236,-216 1534.3236,-216 1540.3236,-222 1540.3236,-228 1540.3236,-228 1540.3236,-240 1540.3236,-240 1540.3236,-246 1534.3236,-252 1528.3236,-252"/>
<text text-anchor="middle" x="1487.3236" y="-237" font-family="sans" font-size="10.00" fill="#000000">nonpareil_infer</text>
<text text-anchor="middle" x="1487.3236" y="-226" font-family="sans" font-size="10.00" fill="#000000">tool: low_complexity</text>
</g>
<!-- 29&#45;&gt;35 -->
<g id="edge53" class="edge">
<title>29&#45;&gt;35</title>
<path fill="none" stroke="#c0c0c0" stroke-width="2" d="M1477.6041,-287.8314C1478.9944,-280.131 1480.6477,-270.9743 1482.1928,-262.4166"/>
<polygon fill="#c0c0c0" stroke="#c0c0c0" stroke-width="2" points="1485.6664,-262.8761 1483.999,-252.4133 1478.7778,-261.6322 1485.6664,-262.8761"/>
</g>
<!-- 30 -->
<g id="node31" class="node">
<title>30</title>
<path fill="none" stroke="#5682d8" stroke-width="2" d="M824.3236,-180C824.3236,-180 742.3236,-180 742.3236,-180 736.3236,-180 730.3236,-174 730.3236,-168 730.3236,-168 730.3236,-156 730.3236,-156 730.3236,-150 736.3236,-144 742.3236,-144 742.3236,-144 824.3236,-144 824.3236,-144 830.3236,-144 836.3236,-150 836.3236,-156 836.3236,-156 836.3236,-168 836.3236,-168 836.3236,-174 830.3236,-180 824.3236,-180"/>
<text text-anchor="middle" x="783.3236" y="-165" font-family="sans" font-size="10.00" fill="#000000">seqkit_stats</text>
<text text-anchor="middle" x="783.3236" y="-154" font-family="sans" font-size="10.00" fill="#000000">tool: low_complexity</text>
</g>
<!-- 30&#45;&gt;1 -->
<g id="edge19" class="edge">
<title>30&#45;&gt;1</title>
<path fill="none" stroke="#c0c0c0" stroke-width="2" d="M783.3236,-143.8314C783.3236,-136.131 783.3236,-126.9743 783.3236,-118.4166"/>
<polygon fill="#c0c0c0" stroke="#c0c0c0" stroke-width="2" points="786.8237,-118.4132 783.3236,-108.4133 779.8237,-118.4133 786.8237,-118.4132"/>
</g>
<!-- 31&#45;&gt;0 -->
<g id="edge2" class="edge">
<title>31&#45;&gt;0</title>
<path fill="none" stroke="#c0c0c0" stroke-width="2" d="M846.3365,-287.9768C847.7932,-258.0203 849.8394,-196.1172 845.3236,-144 842.3884,-110.1241 835.0934,-71.6937 829.7044,-46.2773"/>
<polygon fill="#c0c0c0" stroke="#c0c0c0" stroke-width="2" points="833.0665,-45.2655 827.5298,-36.2325 826.225,-46.7467 833.0665,-45.2655"/>
</g>
<!-- 31&#45;&gt;30 -->
<g id="edge48" class="edge">
<title>31&#45;&gt;30</title>
<path fill="none" stroke="#c0c0c0" stroke-width="2" d="M837.4713,-287.7623C826.8031,-262.9846 807.6377,-218.4714 795.2043,-189.5939"/>
<polygon fill="#c0c0c0" stroke="#c0c0c0" stroke-width="2" points="798.2815,-187.8903 791.1122,-180.0896 791.8521,-190.6586 798.2815,-187.8903"/>
</g>
<!-- 37 -->
<g id="node38" class="node">
<title>37</title>
<path fill="none" stroke="#59d856" stroke-width="2" d="M986.3236,-252C986.3236,-252 904.3236,-252 904.3236,-252 898.3236,-252 892.3236,-246 892.3236,-240 892.3236,-240 892.3236,-228 892.3236,-228 892.3236,-222 898.3236,-216 904.3236,-216 904.3236,-216 986.3236,-216 986.3236,-216 992.3236,-216 998.3236,-222 998.3236,-228 998.3236,-228 998.3236,-240 998.3236,-240 998.3236,-246 992.3236,-252 986.3236,-252"/>
<text text-anchor="middle" x="945.3236" y="-237" font-family="sans" font-size="10.00" fill="#000000">nonpareil_infer</text>
<text text-anchor="middle" x="945.3236" y="-226" font-family="sans" font-size="10.00" fill="#000000">tool: low_complexity</text>
</g>
<!-- 31&#45;&gt;37 -->
<g id="edge55" class="edge">
<title>31&#45;&gt;37</title>
<path fill="none" stroke="#c0c0c0" stroke-width="2" d="M870.5578,-287.8314C883.1116,-278.7927 898.4519,-267.7476 911.9627,-258.0198"/>
<polygon fill="#c0c0c0" stroke="#c0c0c0" stroke-width="2" points="914.0272,-260.8463 920.0975,-252.1628 909.937,-255.1655 914.0272,-260.8463"/>
</g>
<!-- 32 -->
<g id="node33" class="node">
<title>32</title>
<path fill="none" stroke="#56d882" stroke-width="2" d="M217.8236,-180C217.8236,-180 164.8236,-180 164.8236,-180 158.8236,-180 152.8236,-174 152.8236,-168 152.8236,-168 152.8236,-156 152.8236,-156 152.8236,-150 158.8236,-144 164.8236,-144 164.8236,-144 217.8236,-144 217.8236,-144 223.8236,-144 229.8236,-150 229.8236,-156 229.8236,-156 229.8236,-168 229.8236,-168 229.8236,-174 223.8236,-180 217.8236,-180"/>
<text text-anchor="middle" x="191.3236" y="-159.5" font-family="sans" font-size="10.00" fill="#000000">nonpareil_plot</text>
</g>
<!-- 32&#45;&gt;1 -->
<g id="edge20" class="edge">
<title>32&#45;&gt;1</title>
<path fill="none" stroke="#c0c0c0" stroke-width="2" d="M229.8293,-146.5782C233.0111,-145.6053 236.2031,-144.7269 239.3236,-144 336.2845,-121.4143 639.6741,-99.5807 746.0322,-92.4351"/>
<polygon fill="#c0c0c0" stroke="#c0c0c0" stroke-width="2" points="746.5321,-95.9096 756.2768,-91.7514 746.0659,-88.9251 746.5321,-95.9096"/>
</g>
<!-- 33&#45;&gt;32 -->
<g id="edge50" class="edge">
<title>33&#45;&gt;32</title>
<path fill="none" stroke="#c0c0c0" stroke-width="2" d="M194.3142,-215.8314C193.8864,-208.131 193.3777,-198.9743 192.9023,-190.4166"/>
<polygon fill="#c0c0c0" stroke="#c0c0c0" stroke-width="2" points="196.396,-190.2037 192.3466,-180.4133 189.4067,-190.592 196.396,-190.2037"/>
</g>
<!-- 34 -->
<g id="node35" class="node">
<title>34</title>
<path fill="none" stroke="#56d882" stroke-width="2" d="M1467.8236,-180C1467.8236,-180 1414.8236,-180 1414.8236,-180 1408.8236,-180 1402.8236,-174 1402.8236,-168 1402.8236,-168 1402.8236,-156 1402.8236,-156 1402.8236,-150 1408.8236,-144 1414.8236,-144 1414.8236,-144 1467.8236,-144 1467.8236,-144 1473.8236,-144 1479.8236,-150 1479.8236,-156 1479.8236,-156 1479.8236,-168 1479.8236,-168 1479.8236,-174 1473.8236,-180 1467.8236,-180"/>
<text text-anchor="middle" x="1441.3236" y="-159.5" font-family="sans" font-size="10.00" fill="#000000">nonpareil_plot</text>
</g>
<!-- 34&#45;&gt;1 -->
<g id="edge21" class="edge">
<title>34&#45;&gt;1</title>
<path fill="none" stroke="#c0c0c0" stroke-width="2" d="M1402.4996,-154.2506C1384.0262,-150.7587 1361.5936,-146.8004 1341.3236,-144 1146.0726,-117.0256 910.5372,-98.9353 820.645,-92.5539"/>
<polygon fill="#c0c0c0" stroke="#c0c0c0" stroke-width="2" points="820.6381,-89.0448 810.417,-91.8339 820.1465,-96.0276 820.6381,-89.0448"/>
</g>
<!-- 35&#45;&gt;34 -->
<g id="edge52" class="edge">
<title>35&#45;&gt;34</title>
<path fill="none" stroke="#c0c0c0" stroke-width="2" d="M1475.7159,-215.8314C1470.5258,-207.7079 1464.3004,-197.9637 1458.5811,-189.0118"/>
<polygon fill="#c0c0c0" stroke="#c0c0c0" stroke-width="2" points="1461.421,-186.9559 1453.0876,-180.4133 1455.5221,-190.7246 1461.421,-186.9559"/>
</g>
<!-- 36 -->
<g id="node37" class="node">
<title>36</title>
<path fill="none" stroke="#56d882" stroke-width="2" d="M957.8236,-180C957.8236,-180 904.8236,-180 904.8236,-180 898.8236,-180 892.8236,-174 892.8236,-168 892.8236,-168 892.8236,-156 892.8236,-156 892.8236,-150 898.8236,-144 904.8236,-144 904.8236,-144 957.8236,-144 957.8236,-144 963.8236,-144 969.8236,-150 969.8236,-156 969.8236,-156 969.8236,-168 969.8236,-168 969.8236,-174 963.8236,-180 957.8236,-180"/>
<text text-anchor="middle" x="931.3236" y="-159.5" font-family="sans" font-size="10.00" fill="#000000">nonpareil_plot</text>
</g>
<!-- 36&#45;&gt;1 -->
<g id="edge22" class="edge">
<title>36&#45;&gt;1</title>
<path fill="none" stroke="#c0c0c0" stroke-width="2" d="M893.977,-143.8314C871.1987,-132.7501 842.2218,-118.6532 819.6351,-107.665"/>
<polygon fill="#c0c0c0" stroke="#c0c0c0" stroke-width="2" points="820.9065,-104.3914 810.383,-103.164 817.8442,-110.6861 820.9065,-104.3914"/>
</g>
<!-- 37&#45;&gt;36 -->
<g id="edge54" class="edge">
<title>37&#45;&gt;36</title>
<path fill="none" stroke="#c0c0c0" stroke-width="2" d="M941.7908,-215.8314C940.2935,-208.131 938.5131,-198.9743 936.8491,-190.4166"/>
<polygon fill="#c0c0c0" stroke="#c0c0c0" stroke-width="2" points="940.2484,-189.5614 934.904,-180.4133 933.3771,-190.8975 940.2484,-189.5614"/>
</g>
</g>
</svg>
