<?xml version="1.0" encoding="UTF-8" standalone="no"?>
<!DOCTYPE svg PUBLIC "-//W3C//DTD SVG 1.1//EN"
 "http://www.w3.org/Graphics/SVG/1.1/DTD/svg11.dtd">
<!-- Generated by graphviz version 2.40.1 (0)
 -->
<!-- Title: snakemake_dag Pages: 1 -->
<svg width="1658pt" height="492pt"
 viewBox="0.00 0.00 1658.44 492.00" xmlns="http://www.w3.org/2000/svg" xmlns:xlink="http://www.w3.org/1999/xlink">
<g id="graph0" class="graph" transform="scale(1 1) rotate(0) translate(4 488)">
<title>snakemake_dag</title>
<polygon fill="#ffffff" stroke="transparent" points="-4,4 -4,-488 1654.4448,-488 1654.4448,4 -4,4"/>
<!-- 0 -->
<g id="node1" class="node">
<title>0</title>
<path fill="none" stroke="#d85656" stroke-width="2" d="M843.18,-36C843.18,-36 813.18,-36 813.18,-36 807.18,-36 801.18,-30 801.18,-24 801.18,-24 801.18,-12 801.18,-12 801.18,-6 807.18,0 813.18,0 813.18,0 843.18,0 843.18,0 849.18,0 855.18,-6 855.18,-12 855.18,-12 855.18,-24 855.18,-24 855.18,-30 849.18,-36 843.18,-36"/>
<text text-anchor="middle" x="828.18" y="-15.5" font-family="sans" font-size="10.00" fill="#000000">all</text>
</g>
<!-- 1 -->
<g id="node2" class="node">
<title>1</title>
<path fill="none" stroke="#80d856" stroke-width="2" d="M803.18,-108C803.18,-108 773.18,-108 773.18,-108 767.18,-108 761.18,-102 761.18,-96 761.18,-96 761.18,-84 761.18,-84 761.18,-78 767.18,-72 773.18,-72 773.18,-72 803.18,-72 803.18,-72 809.18,-72 815.18,-78 815.18,-84 815.18,-84 815.18,-96 815.18,-96 815.18,-102 809.18,-108 803.18,-108"/>
<text text-anchor="middle" x="788.18" y="-87.5" font-family="sans" font-size="10.00" fill="#000000">multiqc</text>
</g>
<!-- 1&#45;&gt;0 -->
<g id="edge1" class="edge">
<title>1&#45;&gt;0</title>
<path fill="none" stroke="#c0c0c0" stroke-width="2" d="M798.2737,-71.8314C802.7397,-63.7925 808.0875,-54.1666 813.0179,-45.2918"/>
<polygon fill="#c0c0c0" stroke="#c0c0c0" stroke-width="2" points="816.1535,-46.8546 817.9504,-36.4133 810.0344,-43.4551 816.1535,-46.8546"/>
</g>
<!-- 2 -->
<g id="node3" class="node">
<title>2</title>
<path fill="none" stroke="#56a9d8" stroke-width="2" d="M602.18,-180C602.18,-180 532.18,-180 532.18,-180 526.18,-180 520.18,-174 520.18,-168 520.18,-168 520.18,-156 520.18,-156 520.18,-150 526.18,-144 532.18,-144 532.18,-144 602.18,-144 602.18,-144 608.18,-144 614.18,-150 614.18,-156 614.18,-156 614.18,-168 614.18,-168 614.18,-174 608.18,-180 602.18,-180"/>
<text text-anchor="middle" x="567.18" y="-165" font-family="sans" font-size="10.00" fill="#000000">seqkit_stats</text>
<text text-anchor="middle" x="567.18" y="-154" font-family="sans" font-size="10.00" fill="#000000">tool: merge_lanes</text>
</g>
<!-- 2&#45;&gt;1 -->
<g id="edge5" class="edge">
<title>2&#45;&gt;1</title>
<path fill="none" stroke="#c0c0c0" stroke-width="2" d="M614.319,-146.6425C655.2809,-133.2974 713.7878,-114.2364 751.3795,-101.9893"/>
<polygon fill="#c0c0c0" stroke="#c0c0c0" stroke-width="2" points="752.5048,-105.3038 760.9287,-98.8782 750.3364,-98.6481 752.5048,-105.3038"/>
</g>
<!-- 3 -->
<g id="node4" class="node">
<title>3</title>
<path fill="none" stroke="#afd856" stroke-width="2" d="M512.18,-484C512.18,-484 408.18,-484 408.18,-484 402.18,-484 396.18,-478 396.18,-472 396.18,-472 396.18,-444 396.18,-444 396.18,-438 402.18,-432 408.18,-432 408.18,-432 512.18,-432 512.18,-432 518.18,-432 524.18,-438 524.18,-444 524.18,-444 524.18,-472 524.18,-472 524.18,-478 518.18,-484 512.18,-484"/>
<text text-anchor="middle" x="460.18" y="-472" font-family="sans" font-size="10.00" fill="#000000">merge_lanes</text>
<text text-anchor="middle" x="460.18" y="-461" font-family="sans" font-size="10.00" fill="#000000">library: lib1</text>
<text text-anchor="middle" x="460.18" y="-450" font-family="sans" font-size="10.00" fill="#000000">read_type_trim: collapsed</text>
<text text-anchor="middle" x="460.18" y="-439" font-family="sans" font-size="10.00" fill="#000000">sample: HD827sonic_2</text>
</g>
<!-- 3&#45;&gt;2 -->
<g id="edge23" class="edge">
<title>3&#45;&gt;2</title>
<path fill="none" stroke="#c0c0c0" stroke-width="2" d="M489.2541,-431.971C499.1557,-421.6752 509.4192,-409.1595 516.18,-396 534.6164,-360.1146 554.4083,-244.1675 562.9061,-190.1628"/>
<polygon fill="#c0c0c0" stroke="#c0c0c0" stroke-width="2" points="566.3725,-190.649 564.4513,-180.2298 559.4557,-189.5729 566.3725,-190.649"/>
</g>
<!-- 11 -->
<g id="node12" class="node">
<title>11</title>
<path fill="none" stroke="#59d856" stroke-width="2" d="M495.18,-396C495.18,-396 425.18,-396 425.18,-396 419.18,-396 413.18,-390 413.18,-384 413.18,-384 413.18,-372 413.18,-372 413.18,-366 419.18,-360 425.18,-360 425.18,-360 495.18,-360 495.18,-360 501.18,-360 507.18,-366 507.18,-372 507.18,-372 507.18,-384 507.18,-384 507.18,-390 501.18,-396 495.18,-396"/>
<text text-anchor="middle" x="460.18" y="-381" font-family="sans" font-size="10.00" fill="#000000">nonpareil_infer</text>
<text text-anchor="middle" x="460.18" y="-370" font-family="sans" font-size="10.00" fill="#000000">tool: merge_lanes</text>
</g>
<!-- 3&#45;&gt;11 -->
<g id="edge29" class="edge">
<title>3&#45;&gt;11</title>
<path fill="none" stroke="#c0c0c0" stroke-width="2" d="M460.18,-431.805C460.18,-423.6026 460.18,-414.5174 460.18,-406.1839"/>
<polygon fill="#c0c0c0" stroke="#c0c0c0" stroke-width="2" points="463.6801,-406.1532 460.18,-396.1532 456.6801,-406.1533 463.6801,-406.1532"/>
</g>
<!-- 15 -->
<g id="node16" class="node">
<title>15</title>
<path fill="none" stroke="#5682d8" stroke-width="2" d="M340.18,-396C340.18,-396 310.18,-396 310.18,-396 304.18,-396 298.18,-390 298.18,-384 298.18,-384 298.18,-372 298.18,-372 298.18,-366 304.18,-360 310.18,-360 310.18,-360 340.18,-360 340.18,-360 346.18,-360 352.18,-366 352.18,-372 352.18,-372 352.18,-384 352.18,-384 352.18,-390 346.18,-396 340.18,-396"/>
<text text-anchor="middle" x="325.18" y="-375.5" font-family="sans" font-size="10.00" fill="#000000">vsearch</text>
</g>
<!-- 3&#45;&gt;15 -->
<g id="edge33" class="edge">
<title>3&#45;&gt;15</title>
<path fill="none" stroke="#c0c0c0" stroke-width="2" d="M415.9759,-431.805C398.3279,-421.3469 378.2582,-409.4538 361.4837,-399.5133"/>
<polygon fill="#c0c0c0" stroke="#c0c0c0" stroke-width="2" points="362.9272,-396.3003 352.5399,-394.2133 359.3585,-402.3224 362.9272,-396.3003"/>
</g>
<!-- 4 -->
<g id="node5" class="node">
<title>4</title>
<path fill="none" stroke="#56a9d8" stroke-width="2" d="M1141.18,-252C1141.18,-252 1071.18,-252 1071.18,-252 1065.18,-252 1059.18,-246 1059.18,-240 1059.18,-240 1059.18,-228 1059.18,-228 1059.18,-222 1065.18,-216 1071.18,-216 1071.18,-216 1141.18,-216 1141.18,-216 1147.18,-216 1153.18,-222 1153.18,-228 1153.18,-228 1153.18,-240 1153.18,-240 1153.18,-246 1147.18,-252 1141.18,-252"/>
<text text-anchor="middle" x="1106.18" y="-237" font-family="sans" font-size="10.00" fill="#000000">seqkit_stats</text>
<text text-anchor="middle" x="1106.18" y="-226" font-family="sans" font-size="10.00" fill="#000000">tool: merge_lanes</text>
</g>
<!-- 4&#45;&gt;1 -->
<g id="edge6" class="edge">
<title>4&#45;&gt;1</title>
<path fill="none" stroke="#c0c0c0" stroke-width="2" d="M1098.8454,-215.6719C1089.5526,-194.9096 1071.5104,-161.6725 1045.18,-144 1009.6626,-120.1614 888.1346,-102.257 825.7676,-94.3952"/>
<polygon fill="#c0c0c0" stroke="#c0c0c0" stroke-width="2" points="825.9199,-90.8874 815.5656,-93.1323 825.0599,-97.8344 825.9199,-90.8874"/>
</g>
<!-- 5 -->
<g id="node6" class="node">
<title>5</title>
<path fill="none" stroke="#afd856" stroke-width="2" d="M1262.18,-484C1262.18,-484 1158.18,-484 1158.18,-484 1152.18,-484 1146.18,-478 1146.18,-472 1146.18,-472 1146.18,-444 1146.18,-444 1146.18,-438 1152.18,-432 1158.18,-432 1158.18,-432 1262.18,-432 1262.18,-432 1268.18,-432 1274.18,-438 1274.18,-444 1274.18,-444 1274.18,-472 1274.18,-472 1274.18,-478 1268.18,-484 1262.18,-484"/>
<text text-anchor="middle" x="1210.18" y="-472" font-family="sans" font-size="10.00" fill="#000000">merge_lanes</text>
<text text-anchor="middle" x="1210.18" y="-461" font-family="sans" font-size="10.00" fill="#000000">library: lib1</text>
<text text-anchor="middle" x="1210.18" y="-450" font-family="sans" font-size="10.00" fill="#000000">read_type_trim: collapsed</text>
<text text-anchor="middle" x="1210.18" y="-439" font-family="sans" font-size="10.00" fill="#000000">sample: HD827sonic_1</text>
</g>
<!-- 5&#45;&gt;4 -->
<g id="edge24" class="edge">
<title>5&#45;&gt;4</title>
<path fill="none" stroke="#c0c0c0" stroke-width="2" d="M1181.9149,-431.9949C1171.9836,-421.6102 1161.4905,-409.0289 1154.18,-396 1129.8299,-352.603 1116.6738,-295.5839 1110.5687,-262.0527"/>
<polygon fill="#c0c0c0" stroke="#c0c0c0" stroke-width="2" points="1113.989,-261.2916 1108.829,-252.0383 1107.0922,-262.4898 1113.989,-261.2916"/>
</g>
<!-- 13 -->
<g id="node14" class="node">
<title>13</title>
<path fill="none" stroke="#59d856" stroke-width="2" d="M1245.18,-396C1245.18,-396 1175.18,-396 1175.18,-396 1169.18,-396 1163.18,-390 1163.18,-384 1163.18,-384 1163.18,-372 1163.18,-372 1163.18,-366 1169.18,-360 1175.18,-360 1175.18,-360 1245.18,-360 1245.18,-360 1251.18,-360 1257.18,-366 1257.18,-372 1257.18,-372 1257.18,-384 1257.18,-384 1257.18,-390 1251.18,-396 1245.18,-396"/>
<text text-anchor="middle" x="1210.18" y="-381" font-family="sans" font-size="10.00" fill="#000000">nonpareil_infer</text>
<text text-anchor="middle" x="1210.18" y="-370" font-family="sans" font-size="10.00" fill="#000000">tool: merge_lanes</text>
</g>
<!-- 5&#45;&gt;13 -->
<g id="edge31" class="edge">
<title>5&#45;&gt;13</title>
<path fill="none" stroke="#c0c0c0" stroke-width="2" d="M1210.18,-431.805C1210.18,-423.6026 1210.18,-414.5174 1210.18,-406.1839"/>
<polygon fill="#c0c0c0" stroke="#c0c0c0" stroke-width="2" points="1213.6801,-406.1532 1210.18,-396.1532 1206.6801,-406.1533 1213.6801,-406.1532"/>
</g>
<!-- 19 -->
<g id="node20" class="node">
<title>19</title>
<path fill="none" stroke="#5682d8" stroke-width="2" d="M1338.18,-396C1338.18,-396 1308.18,-396 1308.18,-396 1302.18,-396 1296.18,-390 1296.18,-384 1296.18,-384 1296.18,-372 1296.18,-372 1296.18,-366 1302.18,-360 1308.18,-360 1308.18,-360 1338.18,-360 1338.18,-360 1344.18,-360 1350.18,-366 1350.18,-372 1350.18,-372 1350.18,-384 1350.18,-384 1350.18,-390 1344.18,-396 1338.18,-396"/>
<text text-anchor="middle" x="1323.18" y="-375.5" font-family="sans" font-size="10.00" fill="#000000">vsearch</text>
</g>
<!-- 5&#45;&gt;19 -->
<g id="edge37" class="edge">
<title>5&#45;&gt;19</title>
<path fill="none" stroke="#c0c0c0" stroke-width="2" d="M1247.1804,-431.805C1260.6973,-422.2355 1275.9114,-411.4645 1289.1566,-402.0874"/>
<polygon fill="#c0c0c0" stroke="#c0c0c0" stroke-width="2" points="1291.3992,-404.788 1297.5385,-396.1532 1287.3545,-399.0749 1291.3992,-404.788"/>
</g>
<!-- 6 -->
<g id="node7" class="node">
<title>6</title>
<path fill="none" stroke="#56a9d8" stroke-width="2" d="M661.18,-396C661.18,-396 591.18,-396 591.18,-396 585.18,-396 579.18,-390 579.18,-384 579.18,-384 579.18,-372 579.18,-372 579.18,-366 585.18,-360 591.18,-360 591.18,-360 661.18,-360 661.18,-360 667.18,-360 673.18,-366 673.18,-372 673.18,-372 673.18,-384 673.18,-384 673.18,-390 667.18,-396 661.18,-396"/>
<text text-anchor="middle" x="626.18" y="-381" font-family="sans" font-size="10.00" fill="#000000">seqkit_stats</text>
<text text-anchor="middle" x="626.18" y="-370" font-family="sans" font-size="10.00" fill="#000000">tool: merge_lanes</text>
</g>
<!-- 6&#45;&gt;1 -->
<g id="edge7" class="edge">
<title>6&#45;&gt;1</title>
<path fill="none" stroke="#c0c0c0" stroke-width="2" d="M611.066,-359.7768C603.8251,-349.8586 595.9276,-336.9858 592.18,-324 578.8706,-277.8821 572.789,-259.9089 592.18,-216 601.7756,-194.2716 651.3867,-157.131 671.18,-144 696.4126,-127.2605 727.6698,-113.1267 751.5274,-103.5226"/>
<polygon fill="#c0c0c0" stroke="#c0c0c0" stroke-width="2" points="752.912,-106.739 760.932,-99.8159 750.3451,-100.2266 752.912,-106.739"/>
</g>
<!-- 7 -->
<g id="node8" class="node">
<title>7</title>
<path fill="none" stroke="#afd856" stroke-width="2" d="M786.18,-484C786.18,-484 682.18,-484 682.18,-484 676.18,-484 670.18,-478 670.18,-472 670.18,-472 670.18,-444 670.18,-444 670.18,-438 676.18,-432 682.18,-432 682.18,-432 786.18,-432 786.18,-432 792.18,-432 798.18,-438 798.18,-444 798.18,-444 798.18,-472 798.18,-472 798.18,-478 792.18,-484 786.18,-484"/>
<text text-anchor="middle" x="734.18" y="-472" font-family="sans" font-size="10.00" fill="#000000">merge_lanes</text>
<text text-anchor="middle" x="734.18" y="-461" font-family="sans" font-size="10.00" fill="#000000">library: lib2</text>
<text text-anchor="middle" x="734.18" y="-450" font-family="sans" font-size="10.00" fill="#000000">read_type_trim: collapsed</text>
<text text-anchor="middle" x="734.18" y="-439" font-family="sans" font-size="10.00" fill="#000000">sample: HD827sonic_2</text>
</g>
<!-- 7&#45;&gt;6 -->
<g id="edge25" class="edge">
<title>7&#45;&gt;6</title>
<path fill="none" stroke="#c0c0c0" stroke-width="2" d="M698.8167,-431.805C686.0209,-422.3266 671.6338,-411.6695 659.0601,-402.3557"/>
<polygon fill="#c0c0c0" stroke="#c0c0c0" stroke-width="2" points="660.8058,-399.2931 650.6869,-396.1532 656.6391,-404.918 660.8058,-399.2931"/>
</g>
<!-- 9 -->
<g id="node10" class="node">
<title>9</title>
<path fill="none" stroke="#59d856" stroke-width="2" d="M948.18,-396C948.18,-396 878.18,-396 878.18,-396 872.18,-396 866.18,-390 866.18,-384 866.18,-384 866.18,-372 866.18,-372 866.18,-366 872.18,-360 878.18,-360 878.18,-360 948.18,-360 948.18,-360 954.18,-360 960.18,-366 960.18,-372 960.18,-372 960.18,-384 960.18,-384 960.18,-390 954.18,-396 948.18,-396"/>
<text text-anchor="middle" x="913.18" y="-381" font-family="sans" font-size="10.00" fill="#000000">nonpareil_infer</text>
<text text-anchor="middle" x="913.18" y="-370" font-family="sans" font-size="10.00" fill="#000000">tool: merge_lanes</text>
</g>
<!-- 7&#45;&gt;9 -->
<g id="edge27" class="edge">
<title>7&#45;&gt;9</title>
<path fill="none" stroke="#c0c0c0" stroke-width="2" d="M792.7913,-431.805C815.7197,-421.5577 841.7309,-409.9325 863.694,-400.1167"/>
<polygon fill="#c0c0c0" stroke="#c0c0c0" stroke-width="2" points="865.1365,-403.3057 872.838,-396.0299 862.2802,-396.9149 865.1365,-403.3057"/>
</g>
<!-- 17 -->
<g id="node18" class="node">
<title>17</title>
<path fill="none" stroke="#5682d8" stroke-width="2" d="M749.18,-396C749.18,-396 719.18,-396 719.18,-396 713.18,-396 707.18,-390 707.18,-384 707.18,-384 707.18,-372 707.18,-372 707.18,-366 713.18,-360 719.18,-360 719.18,-360 749.18,-360 749.18,-360 755.18,-360 761.18,-366 761.18,-372 761.18,-372 761.18,-384 761.18,-384 761.18,-390 755.18,-396 749.18,-396"/>
<text text-anchor="middle" x="734.18" y="-375.5" font-family="sans" font-size="10.00" fill="#000000">vsearch</text>
</g>
<!-- 7&#45;&gt;17 -->
<g id="edge35" class="edge">
<title>7&#45;&gt;17</title>
<path fill="none" stroke="#c0c0c0" stroke-width="2" d="M734.18,-431.805C734.18,-423.6026 734.18,-414.5174 734.18,-406.1839"/>
<polygon fill="#c0c0c0" stroke="#c0c0c0" stroke-width="2" points="737.6801,-406.1532 734.18,-396.1532 730.6801,-406.1533 737.6801,-406.1532"/>
</g>
<!-- 8 -->
<g id="node9" class="node">
<title>8</title>
<path fill="none" stroke="#56d882" stroke-width="2" d="M1026.68,-324C1026.68,-324 973.68,-324 973.68,-324 967.68,-324 961.68,-318 961.68,-312 961.68,-312 961.68,-300 961.68,-300 961.68,-294 967.68,-288 973.68,-288 973.68,-288 1026.68,-288 1026.68,-288 1032.68,-288 1038.68,-294 1038.68,-300 1038.68,-300 1038.68,-312 1038.68,-312 1038.68,-318 1032.68,-324 1026.68,-324"/>
<text text-anchor="middle" x="1000.18" y="-303.5" font-family="sans" font-size="10.00" fill="#000000">nonpareil_plot</text>
</g>
<!-- 8&#45;&gt;1 -->
<g id="edge8" class="edge">
<title>8&#45;&gt;1</title>
<path fill="none" stroke="#c0c0c0" stroke-width="2" d="M1008.9161,-287.7783C1016.7397,-268.6017 1025.1516,-238.1794 1012.18,-216 971.7392,-146.8525 877.854,-112.722 825.3742,-98.5017"/>
<polygon fill="#c0c0c0" stroke="#c0c0c0" stroke-width="2" points="826.0178,-95.0526 815.4584,-95.9186 824.2531,-101.8265 826.0178,-95.0526"/>
</g>
<!-- 9&#45;&gt;8 -->
<g id="edge26" class="edge">
<title>9&#45;&gt;8</title>
<path fill="none" stroke="#c0c0c0" stroke-width="2" d="M935.1338,-359.8314C945.8495,-350.9632 958.8989,-340.1637 970.489,-330.5718"/>
<polygon fill="#c0c0c0" stroke="#c0c0c0" stroke-width="2" points="972.7608,-333.2349 978.2332,-324.1628 968.2978,-327.8422 972.7608,-333.2349"/>
</g>
<!-- 10 -->
<g id="node11" class="node">
<title>10</title>
<path fill="none" stroke="#56d882" stroke-width="2" d="M489.68,-180C489.68,-180 436.68,-180 436.68,-180 430.68,-180 424.68,-174 424.68,-168 424.68,-168 424.68,-156 424.68,-156 424.68,-150 430.68,-144 436.68,-144 436.68,-144 489.68,-144 489.68,-144 495.68,-144 501.68,-150 501.68,-156 501.68,-156 501.68,-168 501.68,-168 501.68,-174 495.68,-180 489.68,-180"/>
<text text-anchor="middle" x="463.18" y="-159.5" font-family="sans" font-size="10.00" fill="#000000">nonpareil_plot</text>
</g>
<!-- 10&#45;&gt;1 -->
<g id="edge9" class="edge">
<title>10&#45;&gt;1</title>
<path fill="none" stroke="#c0c0c0" stroke-width="2" d="M501.7686,-146.8998C504.9318,-145.8548 508.0969,-144.872 511.18,-144 595.6006,-120.1215 697.4448,-103.2278 751.0357,-95.2303"/>
<polygon fill="#c0c0c0" stroke="#c0c0c0" stroke-width="2" points="751.7075,-98.6692 761.091,-93.7499 750.6879,-91.7438 751.7075,-98.6692"/>
</g>
<!-- 11&#45;&gt;10 -->
<g id="edge28" class="edge">
<title>11&#45;&gt;10</title>
<path fill="none" stroke="#c0c0c0" stroke-width="2" d="M460.4306,-359.9555C460.9523,-322.3938 462.1584,-235.5541 462.7854,-190.4103"/>
<polygon fill="#c0c0c0" stroke="#c0c0c0" stroke-width="2" points="466.2887,-190.1927 462.928,-180.1451 459.2893,-190.0955 466.2887,-190.1927"/>
</g>
<!-- 12 -->
<g id="node13" class="node">
<title>12</title>
<path fill="none" stroke="#56d882" stroke-width="2" d="M1236.68,-252C1236.68,-252 1183.68,-252 1183.68,-252 1177.68,-252 1171.68,-246 1171.68,-240 1171.68,-240 1171.68,-228 1171.68,-228 1171.68,-222 1177.68,-216 1183.68,-216 1183.68,-216 1236.68,-216 1236.68,-216 1242.68,-216 1248.68,-222 1248.68,-228 1248.68,-228 1248.68,-240 1248.68,-240 1248.68,-246 1242.68,-252 1236.68,-252"/>
<text text-anchor="middle" x="1210.18" y="-231.5" font-family="sans" font-size="10.00" fill="#000000">nonpareil_plot</text>
</g>
<!-- 12&#45;&gt;1 -->
<g id="edge10" class="edge">
<title>12&#45;&gt;1</title>
<path fill="none" stroke="#c0c0c0" stroke-width="2" d="M1189.0105,-215.7275C1163.846,-195.0175 1119.7538,-161.8295 1076.18,-144 990.8129,-109.0696 881.9,-96.5307 825.6172,-92.1875"/>
<polygon fill="#c0c0c0" stroke="#c0c0c0" stroke-width="2" points="825.6387,-88.6799 815.4113,-91.446 825.1314,-95.6615 825.6387,-88.6799"/>
</g>
<!-- 13&#45;&gt;12 -->
<g id="edge30" class="edge">
<title>13&#45;&gt;12</title>
<path fill="none" stroke="#c0c0c0" stroke-width="2" d="M1210.18,-359.7623C1210.18,-335.201 1210.18,-291.2474 1210.18,-262.3541"/>
<polygon fill="#c0c0c0" stroke="#c0c0c0" stroke-width="2" points="1213.6801,-262.0896 1210.18,-252.0896 1206.6801,-262.0897 1213.6801,-262.0896"/>
</g>
<!-- 14 -->
<g id="node15" class="node">
<title>14</title>
<path fill="none" stroke="#56a9d8" stroke-width="2" d="M394.18,-180C394.18,-180 348.18,-180 348.18,-180 342.18,-180 336.18,-174 336.18,-168 336.18,-168 336.18,-156 336.18,-156 336.18,-150 342.18,-144 348.18,-144 348.18,-144 394.18,-144 394.18,-144 400.18,-144 406.18,-150 406.18,-156 406.18,-156 406.18,-168 406.18,-168 406.18,-174 400.18,-180 394.18,-180"/>
<text text-anchor="middle" x="371.18" y="-165" font-family="sans" font-size="10.00" fill="#000000">seqkit_stats</text>
<text text-anchor="middle" x="371.18" y="-154" font-family="sans" font-size="10.00" fill="#000000">tool: derep</text>
</g>
<!-- 14&#45;&gt;1 -->
<g id="edge11" class="edge">
<title>14&#45;&gt;1</title>
<path fill="none" stroke="#c0c0c0" stroke-width="2" d="M406.463,-146.6985C409.3828,-145.6986 412.3133,-144.7812 415.18,-144 535.328,-111.259 682.9858,-97.3541 750.8455,-92.3742"/>
<polygon fill="#c0c0c0" stroke="#c0c0c0" stroke-width="2" points="751.3083,-95.8503 761.035,-91.6501 750.812,-88.8679 751.3083,-95.8503"/>
</g>
<!-- 15&#45;&gt;14 -->
<g id="edge32" class="edge">
<title>15&#45;&gt;14</title>
<path fill="none" stroke="#c0c0c0" stroke-width="2" d="M332.0409,-359.7089C335.7344,-349.3453 340.1423,-336.0752 343.18,-324 354.8161,-277.7448 363.1919,-222.8479 367.6055,-190.3012"/>
<polygon fill="#c0c0c0" stroke="#c0c0c0" stroke-width="2" points="371.1046,-190.5385 368.9494,-180.1652 364.1653,-189.6184 371.1046,-190.5385"/>
</g>
<!-- 23 -->
<g id="node24" class="node">
<title>23</title>
<path fill="none" stroke="#59d856" stroke-width="2" d="M322.18,-324C322.18,-324 266.18,-324 266.18,-324 260.18,-324 254.18,-318 254.18,-312 254.18,-312 254.18,-300 254.18,-300 254.18,-294 260.18,-288 266.18,-288 266.18,-288 322.18,-288 322.18,-288 328.18,-288 334.18,-294 334.18,-300 334.18,-300 334.18,-312 334.18,-312 334.18,-318 328.18,-324 322.18,-324"/>
<text text-anchor="middle" x="294.18" y="-309" font-family="sans" font-size="10.00" fill="#000000">nonpareil_infer</text>
<text text-anchor="middle" x="294.18" y="-298" font-family="sans" font-size="10.00" fill="#000000">tool: derep</text>
</g>
<!-- 15&#45;&gt;23 -->
<g id="edge41" class="edge">
<title>15&#45;&gt;23</title>
<path fill="none" stroke="#c0c0c0" stroke-width="2" d="M317.3574,-359.8314C313.9691,-351.9617 309.9259,-342.5712 306.1724,-333.8533"/>
<polygon fill="#c0c0c0" stroke="#c0c0c0" stroke-width="2" points="309.2773,-332.214 302.1079,-324.4133 302.8479,-334.9822 309.2773,-332.214"/>
</g>
<!-- 27 -->
<g id="node28" class="node">
<title>27</title>
<path fill="none" stroke="#d6d856" stroke-width="2" d="M172.18,-324C172.18,-324 112.18,-324 112.18,-324 106.18,-324 100.18,-318 100.18,-312 100.18,-312 100.18,-300 100.18,-300 100.18,-294 106.18,-288 112.18,-288 112.18,-288 172.18,-288 172.18,-288 178.18,-288 184.18,-294 184.18,-300 184.18,-300 184.18,-312 184.18,-312 184.18,-318 178.18,-324 172.18,-324"/>
<text text-anchor="middle" x="142.18" y="-303.5" font-family="sans" font-size="10.00" fill="#000000">low_complexity</text>
</g>
<!-- 15&#45;&gt;27 -->
<g id="edge45" class="edge">
<title>15&#45;&gt;27</title>
<path fill="none" stroke="#c0c0c0" stroke-width="2" d="M298.1777,-367.3762C270.7323,-356.578 227.535,-339.5823 193.5492,-326.2108"/>
<polygon fill="#c0c0c0" stroke="#c0c0c0" stroke-width="2" points="194.8156,-322.948 184.2285,-322.5437 192.2527,-329.462 194.8156,-322.948"/>
</g>
<!-- 16 -->
<g id="node17" class="node">
<title>16</title>
<path fill="none" stroke="#56a9d8" stroke-width="2" d="M757.18,-324C757.18,-324 711.18,-324 711.18,-324 705.18,-324 699.18,-318 699.18,-312 699.18,-312 699.18,-300 699.18,-300 699.18,-294 705.18,-288 711.18,-288 711.18,-288 757.18,-288 757.18,-288 763.18,-288 769.18,-294 769.18,-300 769.18,-300 769.18,-312 769.18,-312 769.18,-318 763.18,-324 757.18,-324"/>
<text text-anchor="middle" x="734.18" y="-309" font-family="sans" font-size="10.00" fill="#000000">seqkit_stats</text>
<text text-anchor="middle" x="734.18" y="-298" font-family="sans" font-size="10.00" fill="#000000">tool: derep</text>
</g>
<!-- 16&#45;&gt;1 -->
<g id="edge12" class="edge">
<title>16&#45;&gt;1</title>
<path fill="none" stroke="#c0c0c0" stroke-width="2" d="M730.2596,-287.8205C724.4817,-256.5631 716.7212,-191.4266 740.18,-144 745.2894,-133.6704 752.9137,-123.7999 760.5898,-115.3895"/>
<polygon fill="#c0c0c0" stroke="#c0c0c0" stroke-width="2" points="763.1827,-117.7425 767.5832,-108.1048 758.133,-112.8948 763.1827,-117.7425"/>
</g>
<!-- 17&#45;&gt;16 -->
<g id="edge34" class="edge">
<title>17&#45;&gt;16</title>
<path fill="none" stroke="#c0c0c0" stroke-width="2" d="M734.18,-359.8314C734.18,-352.131 734.18,-342.9743 734.18,-334.4166"/>
<polygon fill="#c0c0c0" stroke="#c0c0c0" stroke-width="2" points="737.6801,-334.4132 734.18,-324.4133 730.6801,-334.4133 737.6801,-334.4132"/>
</g>
<!-- 25 -->
<g id="node26" class="node">
<title>25</title>
<path fill="none" stroke="#59d856" stroke-width="2" d="M669.18,-324C669.18,-324 613.18,-324 613.18,-324 607.18,-324 601.18,-318 601.18,-312 601.18,-312 601.18,-300 601.18,-300 601.18,-294 607.18,-288 613.18,-288 613.18,-288 669.18,-288 669.18,-288 675.18,-288 681.18,-294 681.18,-300 681.18,-300 681.18,-312 681.18,-312 681.18,-318 675.18,-324 669.18,-324"/>
<text text-anchor="middle" x="641.18" y="-309" font-family="sans" font-size="10.00" fill="#000000">nonpareil_infer</text>
<text text-anchor="middle" x="641.18" y="-298" font-family="sans" font-size="10.00" fill="#000000">tool: derep</text>
</g>
<!-- 17&#45;&gt;25 -->
<g id="edge43" class="edge">
<title>17&#45;&gt;25</title>
<path fill="none" stroke="#c0c0c0" stroke-width="2" d="M710.7122,-359.8314C699.1473,-350.8779 685.0396,-339.9558 672.5616,-330.2955"/>
<polygon fill="#c0c0c0" stroke="#c0c0c0" stroke-width="2" points="674.6902,-327.5171 664.6403,-324.1628 670.4049,-333.0521 674.6902,-327.5171"/>
</g>
<!-- 31 -->
<g id="node32" class="node">
<title>31</title>
<path fill="none" stroke="#d6d856" stroke-width="2" d="M879.18,-324C879.18,-324 819.18,-324 819.18,-324 813.18,-324 807.18,-318 807.18,-312 807.18,-312 807.18,-300 807.18,-300 807.18,-294 813.18,-288 819.18,-288 819.18,-288 879.18,-288 879.18,-288 885.18,-288 891.18,-294 891.18,-300 891.18,-300 891.18,-312 891.18,-312 891.18,-318 885.18,-324 879.18,-324"/>
<text text-anchor="middle" x="849.18" y="-303.5" font-family="sans" font-size="10.00" fill="#000000">low_complexity</text>
</g>
<!-- 17&#45;&gt;31 -->
<g id="edge49" class="edge">
<title>17&#45;&gt;31</title>
<path fill="none" stroke="#c0c0c0" stroke-width="2" d="M761.4334,-360.937C776.3405,-351.6038 795.0394,-339.8967 811.3412,-329.6904"/>
<polygon fill="#c0c0c0" stroke="#c0c0c0" stroke-width="2" points="813.4933,-332.4724 820.1119,-324.1992 809.7787,-326.5393 813.4933,-332.4724"/>
</g>
<!-- 18 -->
<g id="node19" class="node">
<title>18</title>
<path fill="none" stroke="#56a9d8" stroke-width="2" d="M1277.18,-180C1277.18,-180 1231.18,-180 1231.18,-180 1225.18,-180 1219.18,-174 1219.18,-168 1219.18,-168 1219.18,-156 1219.18,-156 1219.18,-150 1225.18,-144 1231.18,-144 1231.18,-144 1277.18,-144 1277.18,-144 1283.18,-144 1289.18,-150 1289.18,-156 1289.18,-156 1289.18,-168 1289.18,-168 1289.18,-174 1283.18,-180 1277.18,-180"/>
<text text-anchor="middle" x="1254.18" y="-165" font-family="sans" font-size="10.00" fill="#000000">seqkit_stats</text>
<text text-anchor="middle" x="1254.18" y="-154" font-family="sans" font-size="10.00" fill="#000000">tool: derep</text>
</g>
<!-- 18&#45;&gt;1 -->
<g id="edge13" class="edge">
<title>18&#45;&gt;1</title>
<path fill="none" stroke="#c0c0c0" stroke-width="2" d="M1218.8277,-152.3481C1207.2126,-149.3955 1194.1988,-146.3188 1182.18,-144 1052.249,-118.9318 896.0271,-101.1317 825.7095,-93.7679"/>
<polygon fill="#c0c0c0" stroke="#c0c0c0" stroke-width="2" points="825.8824,-90.2671 815.5746,-92.7167 825.1602,-97.2298 825.8824,-90.2671"/>
</g>
<!-- 19&#45;&gt;18 -->
<g id="edge36" class="edge">
<title>19&#45;&gt;18</title>
<path fill="none" stroke="#c0c0c0" stroke-width="2" d="M1312.95,-359.9341C1307.429,-349.641 1300.8158,-336.3664 1296.18,-324 1279.1368,-278.5362 1266.4476,-223.3975 1259.6903,-190.5874"/>
<polygon fill="#c0c0c0" stroke="#c0c0c0" stroke-width="2" points="1263.0362,-189.4735 1257.6284,-180.3628 1256.1744,-190.8574 1263.0362,-189.4735"/>
</g>
<!-- 21 -->
<g id="node22" class="node">
<title>21</title>
<path fill="none" stroke="#59d856" stroke-width="2" d="M1373.18,-324C1373.18,-324 1317.18,-324 1317.18,-324 1311.18,-324 1305.18,-318 1305.18,-312 1305.18,-312 1305.18,-300 1305.18,-300 1305.18,-294 1311.18,-288 1317.18,-288 1317.18,-288 1373.18,-288 1373.18,-288 1379.18,-288 1385.18,-294 1385.18,-300 1385.18,-300 1385.18,-312 1385.18,-312 1385.18,-318 1379.18,-324 1373.18,-324"/>
<text text-anchor="middle" x="1345.18" y="-309" font-family="sans" font-size="10.00" fill="#000000">nonpareil_infer</text>
<text text-anchor="middle" x="1345.18" y="-298" font-family="sans" font-size="10.00" fill="#000000">tool: derep</text>
</g>
<!-- 19&#45;&gt;21 -->
<g id="edge39" class="edge">
<title>19&#45;&gt;21</title>
<path fill="none" stroke="#c0c0c0" stroke-width="2" d="M1328.7315,-359.8314C1331.1103,-352.0463 1333.9438,-342.7729 1336.5833,-334.1347"/>
<polygon fill="#c0c0c0" stroke="#c0c0c0" stroke-width="2" points="1339.9787,-334.9996 1339.5537,-324.4133 1333.2842,-332.954 1339.9787,-334.9996"/>
</g>
<!-- 29 -->
<g id="node30" class="node">
<title>29</title>
<path fill="none" stroke="#d6d856" stroke-width="2" d="M1546.18,-324C1546.18,-324 1486.18,-324 1486.18,-324 1480.18,-324 1474.18,-318 1474.18,-312 1474.18,-312 1474.18,-300 1474.18,-300 1474.18,-294 1480.18,-288 1486.18,-288 1486.18,-288 1546.18,-288 1546.18,-288 1552.18,-288 1558.18,-294 1558.18,-300 1558.18,-300 1558.18,-312 1558.18,-312 1558.18,-318 1552.18,-324 1546.18,-324"/>
<text text-anchor="middle" x="1516.18" y="-303.5" font-family="sans" font-size="10.00" fill="#000000">low_complexity</text>
</g>
<!-- 19&#45;&gt;29 -->
<g id="edge47" class="edge">
<title>19&#45;&gt;29</title>
<path fill="none" stroke="#c0c0c0" stroke-width="2" d="M1350.4228,-367.8369C1379.9918,-356.806 1427.8967,-338.9347 1464.621,-325.2344"/>
<polygon fill="#c0c0c0" stroke="#c0c0c0" stroke-width="2" points="1466.0314,-328.444 1474.1773,-321.6694 1463.5847,-321.8855 1466.0314,-328.444"/>
</g>
<!-- 20 -->
<g id="node21" class="node">
<title>20</title>
<path fill="none" stroke="#56d882" stroke-width="2" d="M1370.68,-252C1370.68,-252 1317.68,-252 1317.68,-252 1311.68,-252 1305.68,-246 1305.68,-240 1305.68,-240 1305.68,-228 1305.68,-228 1305.68,-222 1311.68,-216 1317.68,-216 1317.68,-216 1370.68,-216 1370.68,-216 1376.68,-216 1382.68,-222 1382.68,-228 1382.68,-228 1382.68,-240 1382.68,-240 1382.68,-246 1376.68,-252 1370.68,-252"/>
<text text-anchor="middle" x="1344.18" y="-231.5" font-family="sans" font-size="10.00" fill="#000000">nonpareil_plot</text>
</g>
<!-- 20&#45;&gt;1 -->
<g id="edge14" class="edge">
<title>20&#45;&gt;1</title>
<path fill="none" stroke="#c0c0c0" stroke-width="2" d="M1340.3222,-215.6994C1334.8413,-194.6352 1322.6239,-160.7911 1298.18,-144 1259.3436,-117.3225 936.0588,-97.843 825.2654,-91.8969"/>
<polygon fill="#c0c0c0" stroke="#c0c0c0" stroke-width="2" points="825.395,-88.399 815.2235,-91.364 825.0239,-95.3891 825.395,-88.399"/>
</g>
<!-- 21&#45;&gt;20 -->
<g id="edge38" class="edge">
<title>21&#45;&gt;20</title>
<path fill="none" stroke="#c0c0c0" stroke-width="2" d="M1344.9276,-287.8314C1344.8207,-280.131 1344.6935,-270.9743 1344.5747,-262.4166"/>
<polygon fill="#c0c0c0" stroke="#c0c0c0" stroke-width="2" points="1348.0744,-262.3637 1344.4357,-252.4133 1341.075,-262.4609 1348.0744,-262.3637"/>
</g>
<!-- 22 -->
<g id="node23" class="node">
<title>22</title>
<path fill="none" stroke="#56d882" stroke-width="2" d="M305.68,-180C305.68,-180 252.68,-180 252.68,-180 246.68,-180 240.68,-174 240.68,-168 240.68,-168 240.68,-156 240.68,-156 240.68,-150 246.68,-144 252.68,-144 252.68,-144 305.68,-144 305.68,-144 311.68,-144 317.68,-150 317.68,-156 317.68,-156 317.68,-168 317.68,-168 317.68,-174 311.68,-180 305.68,-180"/>
<text text-anchor="middle" x="279.18" y="-159.5" font-family="sans" font-size="10.00" fill="#000000">nonpareil_plot</text>
</g>
<!-- 22&#45;&gt;1 -->
<g id="edge15" class="edge">
<title>22&#45;&gt;1</title>
<path fill="none" stroke="#c0c0c0" stroke-width="2" d="M317.7002,-146.6392C320.8787,-145.6526 324.0661,-144.7544 327.18,-144 481.4514,-106.625 671.26,-94.7953 750.5738,-91.3274"/>
<polygon fill="#c0c0c0" stroke="#c0c0c0" stroke-width="2" points="751.1714,-94.8056 761.0168,-90.8918 750.8796,-87.8117 751.1714,-94.8056"/>
</g>
<!-- 23&#45;&gt;22 -->
<g id="edge40" class="edge">
<title>23&#45;&gt;22</title>
<path fill="none" stroke="#c0c0c0" stroke-width="2" d="M292.2802,-287.7623C289.7218,-263.201 285.1433,-219.2474 282.1335,-190.3541"/>
<polygon fill="#c0c0c0" stroke="#c0c0c0" stroke-width="2" points="285.5816,-189.6731 281.0643,-180.0896 278.6193,-190.3985 285.5816,-189.6731"/>
</g>
<!-- 24 -->
<g id="node25" class="node">
<title>24</title>
<path fill="none" stroke="#56d882" stroke-width="2" d="M666.68,-252C666.68,-252 613.68,-252 613.68,-252 607.68,-252 601.68,-246 601.68,-240 601.68,-240 601.68,-228 601.68,-228 601.68,-222 607.68,-216 613.68,-216 613.68,-216 666.68,-216 666.68,-216 672.68,-216 678.68,-222 678.68,-228 678.68,-228 678.68,-240 678.68,-240 678.68,-246 672.68,-252 666.68,-252"/>
<text text-anchor="middle" x="640.18" y="-231.5" font-family="sans" font-size="10.00" fill="#000000">nonpareil_plot</text>
</g>
<!-- 24&#45;&gt;1 -->
<g id="edge16" class="edge">
<title>24&#45;&gt;1</title>
<path fill="none" stroke="#c0c0c0" stroke-width="2" d="M650.2222,-215.8944C661.5642,-196.5383 681.4319,-165.7075 704.18,-144 718.3344,-130.4931 736.333,-118.4009 752.0361,-109.1009"/>
<polygon fill="#c0c0c0" stroke="#c0c0c0" stroke-width="2" points="754.0495,-111.9804 760.9701,-103.9582 750.5573,-105.9137 754.0495,-111.9804"/>
</g>
<!-- 25&#45;&gt;24 -->
<g id="edge42" class="edge">
<title>25&#45;&gt;24</title>
<path fill="none" stroke="#c0c0c0" stroke-width="2" d="M640.9276,-287.8314C640.8207,-280.131 640.6935,-270.9743 640.5747,-262.4166"/>
<polygon fill="#c0c0c0" stroke="#c0c0c0" stroke-width="2" points="644.0744,-262.3637 640.4357,-252.4133 637.075,-262.4609 644.0744,-262.3637"/>
</g>
<!-- 26 -->
<g id="node27" class="node">
<title>26</title>
<path fill="none" stroke="#56a9d8" stroke-width="2" d="M115.18,-180C115.18,-180 33.18,-180 33.18,-180 27.18,-180 21.18,-174 21.18,-168 21.18,-168 21.18,-156 21.18,-156 21.18,-150 27.18,-144 33.18,-144 33.18,-144 115.18,-144 115.18,-144 121.18,-144 127.18,-150 127.18,-156 127.18,-156 127.18,-168 127.18,-168 127.18,-174 121.18,-180 115.18,-180"/>
<text text-anchor="middle" x="74.18" y="-165" font-family="sans" font-size="10.00" fill="#000000">seqkit_stats</text>
<text text-anchor="middle" x="74.18" y="-154" font-family="sans" font-size="10.00" fill="#000000">tool: low_complexity</text>
</g>
<!-- 26&#45;&gt;1 -->
<g id="edge17" class="edge">
<title>26&#45;&gt;1</title>
<path fill="none" stroke="#c0c0c0" stroke-width="2" d="M127.4518,-145.8007C130.3911,-145.1365 133.3143,-144.5292 136.18,-144 367.071,-101.3658 650.2085,-92.3748 750.6647,-90.4931"/>
<polygon fill="#c0c0c0" stroke="#c0c0c0" stroke-width="2" points="750.9694,-93.9884 760.9068,-90.3145 750.8472,-86.9895 750.9694,-93.9884"/>
</g>
<!-- 27&#45;&gt;0 -->
<g id="edge2" class="edge">
<title>27&#45;&gt;0</title>
<path fill="none" stroke="#c0c0c0" stroke-width="2" d="M108.9584,-287.9519C57.406,-257.7005 -31.5969,-195.0554 12.18,-144 63.8905,-83.692 637.919,-33.3492 790.9024,-20.9349"/>
<polygon fill="#c0c0c0" stroke="#c0c0c0" stroke-width="2" points="791.4901,-24.3989 801.1766,-20.107 790.9278,-17.4216 791.4901,-24.3989"/>
</g>
<!-- 27&#45;&gt;26 -->
<g id="edge44" class="edge">
<title>27&#45;&gt;26</title>
<path fill="none" stroke="#c0c0c0" stroke-width="2" d="M129.2631,-287.5452C122.4661,-277.3536 114.2979,-264.2998 108.18,-252 98.122,-231.7787 89.2037,-207.8105 83.0271,-189.6948"/>
<polygon fill="#c0c0c0" stroke="#c0c0c0" stroke-width="2" points="86.2894,-188.4138 79.8037,-180.036 79.6494,-190.6297 86.2894,-188.4138"/>
</g>
<!-- 37 -->
<g id="node38" class="node">
<title>37</title>
<path fill="none" stroke="#59d856" stroke-width="2" d="M211.18,-252C211.18,-252 129.18,-252 129.18,-252 123.18,-252 117.18,-246 117.18,-240 117.18,-240 117.18,-228 117.18,-228 117.18,-222 123.18,-216 129.18,-216 129.18,-216 211.18,-216 211.18,-216 217.18,-216 223.18,-222 223.18,-228 223.18,-228 223.18,-240 223.18,-240 223.18,-246 217.18,-252 211.18,-252"/>
<text text-anchor="middle" x="170.18" y="-237" font-family="sans" font-size="10.00" fill="#000000">nonpareil_infer</text>
<text text-anchor="middle" x="170.18" y="-226" font-family="sans" font-size="10.00" fill="#000000">tool: low_complexity</text>
</g>
<!-- 27&#45;&gt;37 -->
<g id="edge55" class="edge">
<title>27&#45;&gt;37</title>
<path fill="none" stroke="#c0c0c0" stroke-width="2" d="M149.2456,-287.8314C152.306,-279.9617 155.9579,-270.5712 159.3482,-261.8533"/>
<polygon fill="#c0c0c0" stroke="#c0c0c0" stroke-width="2" points="162.6568,-263.0019 163.0193,-252.4133 156.1327,-260.4647 162.6568,-263.0019"/>
</g>
<!-- 28 -->
<g id="node29" class="node">
<title>28</title>
<path fill="none" stroke="#56a9d8" stroke-width="2" d="M1495.18,-252C1495.18,-252 1413.18,-252 1413.18,-252 1407.18,-252 1401.18,-246 1401.18,-240 1401.18,-240 1401.18,-228 1401.18,-228 1401.18,-222 1407.18,-216 1413.18,-216 1413.18,-216 1495.18,-216 1495.18,-216 1501.18,-216 1507.18,-222 1507.18,-228 1507.18,-228 1507.18,-240 1507.18,-240 1507.18,-246 1501.18,-252 1495.18,-252"/>
<text text-anchor="middle" x="1454.18" y="-237" font-family="sans" font-size="10.00" fill="#000000">seqkit_stats</text>
<text text-anchor="middle" x="1454.18" y="-226" font-family="sans" font-size="10.00" fill="#000000">tool: low_complexity</text>
</g>
<!-- 28&#45;&gt;1 -->
<g id="edge18" class="edge">
<title>28&#45;&gt;1</title>
<path fill="none" stroke="#c0c0c0" stroke-width="2" d="M1435.2021,-215.8092C1411.7033,-194.5147 1369.4589,-160.1141 1326.18,-144 1233.8994,-109.6411 931.5486,-95.3309 825.413,-91.2845"/>
<polygon fill="#c0c0c0" stroke="#c0c0c0" stroke-width="2" points="825.3119,-87.7784 815.1885,-90.9035 825.0512,-94.7735 825.3119,-87.7784"/>
</g>
<!-- 29&#45;&gt;0 -->
<g id="edge4" class="edge">
<title>29&#45;&gt;0</title>
<path fill="none" stroke="#c0c0c0" stroke-width="2" d="M1558.3894,-299.7224C1586.7679,-293.0683 1622.1638,-279.4961 1640.18,-252 1670.2738,-206.071 1627.8037,-171.333 1580.18,-144 1455.2629,-72.3055 999.357,-31.4547 865.4195,-20.8143"/>
<polygon fill="#c0c0c0" stroke="#c0c0c0" stroke-width="2" points="865.5027,-17.3101 855.2593,-20.0162 864.9545,-24.2886 865.5027,-17.3101"/>
</g>
<!-- 29&#45;&gt;28 -->
<g id="edge46" class="edge">
<title>29&#45;&gt;28</title>
<path fill="none" stroke="#c0c0c0" stroke-width="2" d="M1500.5348,-287.8314C1493.3209,-279.454 1484.623,-269.3531 1476.7195,-260.1749"/>
<polygon fill="#c0c0c0" stroke="#c0c0c0" stroke-width="2" points="1479.2133,-257.7071 1470.0359,-252.4133 1473.9089,-262.2748 1479.2133,-257.7071"/>
</g>
<!-- 35 -->
<g id="node36" class="node">
<title>35</title>
<path fill="none" stroke="#59d856" stroke-width="2" d="M1619.18,-252C1619.18,-252 1537.18,-252 1537.18,-252 1531.18,-252 1525.18,-246 1525.18,-240 1525.18,-240 1525.18,-228 1525.18,-228 1525.18,-222 1531.18,-216 1537.18,-216 1537.18,-216 1619.18,-216 1619.18,-216 1625.18,-216 1631.18,-222 1631.18,-228 1631.18,-228 1631.18,-240 1631.18,-240 1631.18,-246 1625.18,-252 1619.18,-252"/>
<text text-anchor="middle" x="1578.18" y="-237" font-family="sans" font-size="10.00" fill="#000000">nonpareil_infer</text>
<text text-anchor="middle" x="1578.18" y="-226" font-family="sans" font-size="10.00" fill="#000000">tool: low_complexity</text>
</g>
<!-- 29&#45;&gt;35 -->
<g id="edge53" class="edge">
<title>29&#45;&gt;35</title>
<path fill="none" stroke="#c0c0c0" stroke-width="2" d="M1531.8252,-287.8314C1539.039,-279.454 1547.737,-269.3531 1555.6405,-260.1749"/>
<polygon fill="#c0c0c0" stroke="#c0c0c0" stroke-width="2" points="1558.451,-262.2748 1562.3241,-252.4133 1553.1467,-257.7071 1558.451,-262.2748"/>
</g>
<!-- 30 -->
<g id="node31" class="node">
<title>30</title>
<path fill="none" stroke="#56a9d8" stroke-width="2" d="M991.18,-252C991.18,-252 909.18,-252 909.18,-252 903.18,-252 897.18,-246 897.18,-240 897.18,-240 897.18,-228 897.18,-228 897.18,-222 903.18,-216 909.18,-216 909.18,-216 991.18,-216 991.18,-216 997.18,-216 1003.18,-222 1003.18,-228 1003.18,-228 1003.18,-240 1003.18,-240 1003.18,-246 997.18,-252 991.18,-252"/>
<text text-anchor="middle" x="950.18" y="-237" font-family="sans" font-size="10.00" fill="#000000">seqkit_stats</text>
<text text-anchor="middle" x="950.18" y="-226" font-family="sans" font-size="10.00" fill="#000000">tool: low_complexity</text>
</g>
<!-- 30&#45;&gt;1 -->
<g id="edge19" class="edge">
<title>30&#45;&gt;1</title>
<path fill="none" stroke="#c0c0c0" stroke-width="2" d="M929.6626,-215.7623C900.9356,-190.2272 848.628,-143.7316 816.2944,-114.9906"/>
<polygon fill="#c0c0c0" stroke="#c0c0c0" stroke-width="2" points="818.3302,-112.1173 808.5308,-108.0896 813.6796,-117.3492 818.3302,-112.1173"/>
</g>
<!-- 31&#45;&gt;0 -->
<g id="edge3" class="edge">
<title>31&#45;&gt;0</title>
<path fill="none" stroke="#c0c0c0" stroke-width="2" d="M849.6071,-287.5068C849.8266,-277.08 850.0706,-263.814 850.18,-252 850.3281,-236.0007 851.0648,-231.9755 850.18,-216 846.8145,-155.2357 837.6821,-84.4617 832.3003,-46.1445"/>
<polygon fill="#c0c0c0" stroke="#c0c0c0" stroke-width="2" points="835.7638,-45.6402 830.8897,-36.2331 828.8337,-46.6265 835.7638,-45.6402"/>
</g>
<!-- 31&#45;&gt;30 -->
<g id="edge48" class="edge">
<title>31&#45;&gt;30</title>
<path fill="none" stroke="#c0c0c0" stroke-width="2" d="M874.6665,-287.8314C887.3458,-278.7927 902.8396,-267.7476 916.4855,-258.0198"/>
<polygon fill="#c0c0c0" stroke="#c0c0c0" stroke-width="2" points="918.5905,-260.8176 924.7016,-252.1628 914.5271,-255.1176 918.5905,-260.8176"/>
</g>
<!-- 33 -->
<g id="node34" class="node">
<title>33</title>
<path fill="none" stroke="#59d856" stroke-width="2" d="M829.18,-252C829.18,-252 747.18,-252 747.18,-252 741.18,-252 735.18,-246 735.18,-240 735.18,-240 735.18,-228 735.18,-228 735.18,-222 741.18,-216 747.18,-216 747.18,-216 829.18,-216 829.18,-216 835.18,-216 841.18,-222 841.18,-228 841.18,-228 841.18,-240 841.18,-240 841.18,-246 835.18,-252 829.18,-252"/>
<text text-anchor="middle" x="788.18" y="-237" font-family="sans" font-size="10.00" fill="#000000">nonpareil_infer</text>
<text text-anchor="middle" x="788.18" y="-226" font-family="sans" font-size="10.00" fill="#000000">tool: low_complexity</text>
</g>
<!-- 31&#45;&gt;33 -->
<g id="edge51" class="edge">
<title>31&#45;&gt;33</title>
<path fill="none" stroke="#c0c0c0" stroke-width="2" d="M833.7871,-287.8314C826.6896,-279.454 818.1319,-269.3531 810.356,-260.1749"/>
<polygon fill="#c0c0c0" stroke="#c0c0c0" stroke-width="2" points="812.9148,-257.7807 803.7801,-252.4133 807.5739,-262.3056 812.9148,-257.7807"/>
</g>
<!-- 32 -->
<g id="node33" class="node">
<title>32</title>
<path fill="none" stroke="#56d882" stroke-width="2" d="M814.68,-180C814.68,-180 761.68,-180 761.68,-180 755.68,-180 749.68,-174 749.68,-168 749.68,-168 749.68,-156 749.68,-156 749.68,-150 755.68,-144 761.68,-144 761.68,-144 814.68,-144 814.68,-144 820.68,-144 826.68,-150 826.68,-156 826.68,-156 826.68,-168 826.68,-168 826.68,-174 820.68,-180 814.68,-180"/>
<text text-anchor="middle" x="788.18" y="-159.5" font-family="sans" font-size="10.00" fill="#000000">nonpareil_plot</text>
</g>
<!-- 32&#45;&gt;1 -->
<g id="edge20" class="edge">
<title>32&#45;&gt;1</title>
<path fill="none" stroke="#c0c0c0" stroke-width="2" d="M788.18,-143.8314C788.18,-136.131 788.18,-126.9743 788.18,-118.4166"/>
<polygon fill="#c0c0c0" stroke="#c0c0c0" stroke-width="2" points="791.6801,-118.4132 788.18,-108.4133 784.6801,-118.4133 791.6801,-118.4132"/>
</g>
<!-- 33&#45;&gt;32 -->
<g id="edge50" class="edge">
<title>33&#45;&gt;32</title>
<path fill="none" stroke="#c0c0c0" stroke-width="2" d="M788.18,-215.8314C788.18,-208.131 788.18,-198.9743 788.18,-190.4166"/>
<polygon fill="#c0c0c0" stroke="#c0c0c0" stroke-width="2" points="791.6801,-190.4132 788.18,-180.4133 784.6801,-190.4133 791.6801,-190.4132"/>
</g>
<!-- 34 -->
<g id="node35" class="node">
<title>34</title>
<path fill="none" stroke="#56d882" stroke-width="2" d="M1558.68,-180C1558.68,-180 1505.68,-180 1505.68,-180 1499.68,-180 1493.68,-174 1493.68,-168 1493.68,-168 1493.68,-156 1493.68,-156 1493.68,-150 1499.68,-144 1505.68,-144 1505.68,-144 1558.68,-144 1558.68,-144 1564.68,-144 1570.68,-150 1570.68,-156 1570.68,-156 1570.68,-168 1570.68,-168 1570.68,-174 1564.68,-180 1558.68,-180"/>
<text text-anchor="middle" x="1532.18" y="-159.5" font-family="sans" font-size="10.00" fill="#000000">nonpareil_plot</text>
</g>
<!-- 34&#45;&gt;1 -->
<g id="edge21" class="edge">
<title>34&#45;&gt;1</title>
<path fill="none" stroke="#c0c0c0" stroke-width="2" d="M1493.3717,-154.134C1474.9017,-150.6165 1452.4675,-146.6704 1432.18,-144 1202.4987,-113.7679 924.3801,-97.175 825.3709,-91.8865"/>
<polygon fill="#c0c0c0" stroke="#c0c0c0" stroke-width="2" points="825.4431,-88.3856 815.2724,-91.3534 825.074,-95.3758 825.4431,-88.3856"/>
</g>
<!-- 35&#45;&gt;34 -->
<g id="edge52" class="edge">
<title>35&#45;&gt;34</title>
<path fill="none" stroke="#c0c0c0" stroke-width="2" d="M1566.5722,-215.8314C1561.3822,-207.7079 1555.1568,-197.9637 1549.4375,-189.0118"/>
<polygon fill="#c0c0c0" stroke="#c0c0c0" stroke-width="2" points="1552.2774,-186.9559 1543.944,-180.4133 1546.3785,-190.7246 1552.2774,-186.9559"/>
</g>
<!-- 36 -->
<g id="node37" class="node">
<title>36</title>
<path fill="none" stroke="#56d882" stroke-width="2" d="M210.68,-180C210.68,-180 157.68,-180 157.68,-180 151.68,-180 145.68,-174 145.68,-168 145.68,-168 145.68,-156 145.68,-156 145.68,-150 151.68,-144 157.68,-144 157.68,-144 210.68,-144 210.68,-144 216.68,-144 222.68,-150 222.68,-156 222.68,-156 222.68,-168 222.68,-168 222.68,-174 216.68,-180 210.68,-180"/>
<text text-anchor="middle" x="184.18" y="-159.5" font-family="sans" font-size="10.00" fill="#000000">nonpareil_plot</text>
</g>
<!-- 36&#45;&gt;1 -->
<g id="edge22" class="edge">
<title>36&#45;&gt;1</title>
<path fill="none" stroke="#c0c0c0" stroke-width="2" d="M222.9091,-146.245C225.6827,-145.4025 228.4583,-144.6407 231.18,-144 330.7103,-120.57 643.1332,-99.1624 751.067,-92.2915"/>
<polygon fill="#c0c0c0" stroke="#c0c0c0" stroke-width="2" points="751.3946,-95.7779 761.1538,-91.6539 750.9529,-88.7918 751.3946,-95.7779"/>
</g>
<!-- 37&#45;&gt;36 -->
<g id="edge54" class="edge">
<title>37&#45;&gt;36</title>
<path fill="none" stroke="#c0c0c0" stroke-width="2" d="M173.7128,-215.8314C175.2101,-208.131 176.9905,-198.9743 178.6545,-190.4166"/>
<polygon fill="#c0c0c0" stroke="#c0c0c0" stroke-width="2" points="182.1265,-190.8975 180.5996,-180.4133 175.2552,-189.5614 182.1265,-190.8975"/>
</g>
</g>
</svg>
