<?xml version="1.0" encoding="UTF-8" standalone="no"?>
<!DOCTYPE svg PUBLIC "-//W3C//DTD SVG 1.1//EN"
 "http://www.w3.org/Graphics/SVG/1.1/DTD/svg11.dtd">
<!-- Generated by graphviz version 2.40.1 (0)
 -->
<!-- Title: snakemake_dag Pages: 1 -->
<svg width="1784pt" height="492pt"
 viewBox="0.00 0.00 1783.50 492.00" xmlns="http://www.w3.org/2000/svg" xmlns:xlink="http://www.w3.org/1999/xlink">
<g id="graph0" class="graph" transform="scale(1 1) rotate(0) translate(4 488)">
<title>snakemake_dag</title>
<polygon fill="#ffffff" stroke="transparent" points="-4,4 -4,-488 1779.5,-488 1779.5,4 -4,4"/>
<!-- 0 -->
<g id="node1" class="node">
<title>0</title>
<path fill="none" stroke="#56d892" stroke-width="2" d="M1242,-36C1242,-36 1212,-36 1212,-36 1206,-36 1200,-30 1200,-24 1200,-24 1200,-12 1200,-12 1200,-6 1206,0 1212,0 1212,0 1242,0 1242,0 1248,0 1254,-6 1254,-12 1254,-12 1254,-24 1254,-24 1254,-30 1248,-36 1242,-36"/>
<text text-anchor="middle" x="1227" y="-15.5" font-family="sans" font-size="10.00" fill="#000000">all</text>
</g>
<!-- 1 -->
<g id="node2" class="node">
<title>1</title>
<path fill="none" stroke="#56d86b" stroke-width="2" d="M838,-108C838,-108 808,-108 808,-108 802,-108 796,-102 796,-96 796,-96 796,-84 796,-84 796,-78 802,-72 808,-72 808,-72 838,-72 838,-72 844,-72 850,-78 850,-84 850,-84 850,-96 850,-96 850,-102 844,-108 838,-108"/>
<text text-anchor="middle" x="823" y="-87.5" font-family="sans" font-size="10.00" fill="#000000">multiqc</text>
</g>
<!-- 1&#45;&gt;0 -->
<g id="edge1" class="edge">
<title>1&#45;&gt;0</title>
<path fill="none" stroke="#c0c0c0" stroke-width="2" d="M850.1349,-85.1641C920.5702,-72.6112 1109.3351,-38.97 1189.818,-24.6265"/>
<polygon fill="#c0c0c0" stroke="#c0c0c0" stroke-width="2" points="1190.7524,-28.0152 1199.9832,-22.8149 1189.5242,-21.1238 1190.7524,-28.0152"/>
</g>
<!-- 2 -->
<g id="node3" class="node">
<title>2</title>
<path fill="none" stroke="#68d856" stroke-width="2" d="M640,-180C640,-180 570,-180 570,-180 564,-180 558,-174 558,-168 558,-168 558,-156 558,-156 558,-150 564,-144 570,-144 570,-144 640,-144 640,-144 646,-144 652,-150 652,-156 652,-156 652,-168 652,-168 652,-174 646,-180 640,-180"/>
<text text-anchor="middle" x="605" y="-165" font-family="sans" font-size="10.00" fill="#000000">seqkit_stats</text>
<text text-anchor="middle" x="605" y="-154" font-family="sans" font-size="10.00" fill="#000000">tool: merge_lanes</text>
</g>
<!-- 2&#45;&gt;1 -->
<g id="edge5" class="edge">
<title>2&#45;&gt;1</title>
<path fill="none" stroke="#c0c0c0" stroke-width="2" d="M652.0344,-146.4657C692.1928,-133.2024 749.1549,-114.3892 786.0922,-102.1897"/>
<polygon fill="#c0c0c0" stroke="#c0c0c0" stroke-width="2" points="787.551,-105.394 795.9488,-98.9343 785.3556,-98.7471 787.551,-105.394"/>
</g>
<!-- 3 -->
<g id="node4" class="node">
<title>3</title>
<path fill="none" stroke="#b6d856" stroke-width="2" d="M553,-484C553,-484 449,-484 449,-484 443,-484 437,-478 437,-472 437,-472 437,-444 437,-444 437,-438 443,-432 449,-432 449,-432 553,-432 553,-432 559,-432 565,-438 565,-444 565,-444 565,-472 565,-472 565,-478 559,-484 553,-484"/>
<text text-anchor="middle" x="501" y="-472" font-family="sans" font-size="10.00" fill="#000000">merge_lanes</text>
<text text-anchor="middle" x="501" y="-461" font-family="sans" font-size="10.00" fill="#000000">library: lib2</text>
<text text-anchor="middle" x="501" y="-450" font-family="sans" font-size="10.00" fill="#000000">read_type_trim: collapsed</text>
<text text-anchor="middle" x="501" y="-439" font-family="sans" font-size="10.00" fill="#000000">sample: HD827sonic_2</text>
</g>
<!-- 3&#45;&gt;2 -->
<g id="edge23" class="edge">
<title>3&#45;&gt;2</title>
<path fill="none" stroke="#c0c0c0" stroke-width="2" d="M530.4535,-431.7125C540.2736,-421.4792 550.3855,-409.0714 557,-396 591.6697,-327.4865 601.298,-235.6713 603.9719,-190.1014"/>
<polygon fill="#c0c0c0" stroke="#c0c0c0" stroke-width="2" points="607.4695,-190.2364 604.4903,-180.0691 600.4789,-189.8751 607.4695,-190.2364"/>
</g>
<!-- 11 -->
<g id="node12" class="node">
<title>11</title>
<path fill="none" stroke="#56d8b9" stroke-width="2" d="M536,-396C536,-396 466,-396 466,-396 460,-396 454,-390 454,-384 454,-384 454,-372 454,-372 454,-366 460,-360 466,-360 466,-360 536,-360 536,-360 542,-360 548,-366 548,-372 548,-372 548,-384 548,-384 548,-390 542,-396 536,-396"/>
<text text-anchor="middle" x="501" y="-381" font-family="sans" font-size="10.00" fill="#000000">nonpareil_infer</text>
<text text-anchor="middle" x="501" y="-370" font-family="sans" font-size="10.00" fill="#000000">tool: merge_lanes</text>
</g>
<!-- 3&#45;&gt;11 -->
<g id="edge29" class="edge">
<title>3&#45;&gt;11</title>
<path fill="none" stroke="#c0c0c0" stroke-width="2" d="M501,-431.805C501,-423.6026 501,-414.5174 501,-406.1839"/>
<polygon fill="#c0c0c0" stroke="#c0c0c0" stroke-width="2" points="504.5001,-406.1532 501,-396.1532 497.5001,-406.1533 504.5001,-406.1532"/>
</g>
<!-- 19 -->
<g id="node20" class="node">
<title>19</title>
<path fill="none" stroke="#d85656" stroke-width="2" d="M270,-396C270,-396 240,-396 240,-396 234,-396 228,-390 228,-384 228,-384 228,-372 228,-372 228,-366 234,-360 240,-360 240,-360 270,-360 270,-360 276,-360 282,-366 282,-372 282,-372 282,-384 282,-384 282,-390 276,-396 270,-396"/>
<text text-anchor="middle" x="255" y="-375.5" font-family="sans" font-size="10.00" fill="#000000">seqkit</text>
</g>
<!-- 3&#45;&gt;19 -->
<g id="edge37" class="edge">
<title>3&#45;&gt;19</title>
<path fill="none" stroke="#c0c0c0" stroke-width="2" d="M436.6877,-437.0854C390.5574,-422.0837 330.0421,-402.4039 291.828,-389.9766"/>
<polygon fill="#c0c0c0" stroke="#c0c0c0" stroke-width="2" points="292.7361,-386.5915 282.1439,-386.8273 290.5712,-393.2484 292.7361,-386.5915"/>
</g>
<!-- 4 -->
<g id="node5" class="node">
<title>4</title>
<path fill="none" stroke="#68d856" stroke-width="2" d="M1210,-252C1210,-252 1140,-252 1140,-252 1134,-252 1128,-246 1128,-240 1128,-240 1128,-228 1128,-228 1128,-222 1134,-216 1140,-216 1140,-216 1210,-216 1210,-216 1216,-216 1222,-222 1222,-228 1222,-228 1222,-240 1222,-240 1222,-246 1216,-252 1210,-252"/>
<text text-anchor="middle" x="1175" y="-237" font-family="sans" font-size="10.00" fill="#000000">seqkit_stats</text>
<text text-anchor="middle" x="1175" y="-226" font-family="sans" font-size="10.00" fill="#000000">tool: merge_lanes</text>
</g>
<!-- 4&#45;&gt;1 -->
<g id="edge6" class="edge">
<title>4&#45;&gt;1</title>
<path fill="none" stroke="#c0c0c0" stroke-width="2" d="M1156.8325,-215.9186C1135.1577,-195.3881 1096.9381,-162.3685 1058,-144 992.5306,-113.1158 908.2843,-99.3162 860.4993,-93.6122"/>
<polygon fill="#c0c0c0" stroke="#c0c0c0" stroke-width="2" points="860.6384,-90.1055 850.3069,-92.4531 859.8474,-97.0607 860.6384,-90.1055"/>
</g>
<!-- 5 -->
<g id="node6" class="node">
<title>5</title>
<path fill="none" stroke="#b6d856" stroke-width="2" d="M1331,-484C1331,-484 1227,-484 1227,-484 1221,-484 1215,-478 1215,-472 1215,-472 1215,-444 1215,-444 1215,-438 1221,-432 1227,-432 1227,-432 1331,-432 1331,-432 1337,-432 1343,-438 1343,-444 1343,-444 1343,-472 1343,-472 1343,-478 1337,-484 1331,-484"/>
<text text-anchor="middle" x="1279" y="-472" font-family="sans" font-size="10.00" fill="#000000">merge_lanes</text>
<text text-anchor="middle" x="1279" y="-461" font-family="sans" font-size="10.00" fill="#000000">library: lib1</text>
<text text-anchor="middle" x="1279" y="-450" font-family="sans" font-size="10.00" fill="#000000">read_type_trim: collapsed</text>
<text text-anchor="middle" x="1279" y="-439" font-family="sans" font-size="10.00" fill="#000000">sample: HD827sonic_2</text>
</g>
<!-- 5&#45;&gt;4 -->
<g id="edge24" class="edge">
<title>5&#45;&gt;4</title>
<path fill="none" stroke="#c0c0c0" stroke-width="2" d="M1250.735,-431.9949C1240.8036,-421.6102 1230.3105,-409.0289 1223,-396 1198.6499,-352.603 1185.4938,-295.5839 1179.3887,-262.0527"/>
<polygon fill="#c0c0c0" stroke="#c0c0c0" stroke-width="2" points="1182.809,-261.2916 1177.649,-252.0383 1175.9123,-262.4898 1182.809,-261.2916"/>
</g>
<!-- 13 -->
<g id="node14" class="node">
<title>13</title>
<path fill="none" stroke="#56d8b9" stroke-width="2" d="M1314,-396C1314,-396 1244,-396 1244,-396 1238,-396 1232,-390 1232,-384 1232,-384 1232,-372 1232,-372 1232,-366 1238,-360 1244,-360 1244,-360 1314,-360 1314,-360 1320,-360 1326,-366 1326,-372 1326,-372 1326,-384 1326,-384 1326,-390 1320,-396 1314,-396"/>
<text text-anchor="middle" x="1279" y="-381" font-family="sans" font-size="10.00" fill="#000000">nonpareil_infer</text>
<text text-anchor="middle" x="1279" y="-370" font-family="sans" font-size="10.00" fill="#000000">tool: merge_lanes</text>
</g>
<!-- 5&#45;&gt;13 -->
<g id="edge31" class="edge">
<title>5&#45;&gt;13</title>
<path fill="none" stroke="#c0c0c0" stroke-width="2" d="M1279,-431.805C1279,-423.6026 1279,-414.5174 1279,-406.1839"/>
<polygon fill="#c0c0c0" stroke="#c0c0c0" stroke-width="2" points="1282.5001,-406.1532 1279,-396.1532 1275.5001,-406.1533 1282.5001,-406.1532"/>
</g>
<!-- 15 -->
<g id="node16" class="node">
<title>15</title>
<path fill="none" stroke="#d85656" stroke-width="2" d="M1573,-396C1573,-396 1543,-396 1543,-396 1537,-396 1531,-390 1531,-384 1531,-384 1531,-372 1531,-372 1531,-366 1537,-360 1543,-360 1543,-360 1573,-360 1573,-360 1579,-360 1585,-366 1585,-372 1585,-372 1585,-384 1585,-384 1585,-390 1579,-396 1573,-396"/>
<text text-anchor="middle" x="1558" y="-375.5" font-family="sans" font-size="10.00" fill="#000000">seqkit</text>
</g>
<!-- 5&#45;&gt;15 -->
<g id="edge33" class="edge">
<title>5&#45;&gt;15</title>
<path fill="none" stroke="#c0c0c0" stroke-width="2" d="M1343.0082,-439.6464C1398.1987,-423.8212 1475.9489,-401.5272 1521.2503,-388.5376"/>
<polygon fill="#c0c0c0" stroke="#c0c0c0" stroke-width="2" points="1522.3002,-391.8776 1530.9482,-385.7568 1520.3708,-385.1488 1522.3002,-391.8776"/>
</g>
<!-- 6 -->
<g id="node7" class="node">
<title>6</title>
<path fill="none" stroke="#68d856" stroke-width="2" d="M709,-396C709,-396 639,-396 639,-396 633,-396 627,-390 627,-384 627,-384 627,-372 627,-372 627,-366 633,-360 639,-360 639,-360 709,-360 709,-360 715,-360 721,-366 721,-372 721,-372 721,-384 721,-384 721,-390 715,-396 709,-396"/>
<text text-anchor="middle" x="674" y="-381" font-family="sans" font-size="10.00" fill="#000000">seqkit_stats</text>
<text text-anchor="middle" x="674" y="-370" font-family="sans" font-size="10.00" fill="#000000">tool: merge_lanes</text>
</g>
<!-- 6&#45;&gt;1 -->
<g id="edge7" class="edge">
<title>6&#45;&gt;1</title>
<path fill="none" stroke="#c0c0c0" stroke-width="2" d="M675.9961,-359.6925C681.3942,-317.5911 699.5872,-212.2752 752,-144 761.6542,-131.424 774.9414,-120.2706 787.4119,-111.4131"/>
<polygon fill="#c0c0c0" stroke="#c0c0c0" stroke-width="2" points="789.5657,-114.1809 795.8602,-105.6586 785.625,-108.3955 789.5657,-114.1809"/>
</g>
<!-- 7 -->
<g id="node8" class="node">
<title>7</title>
<path fill="none" stroke="#b6d856" stroke-width="2" d="M838,-484C838,-484 734,-484 734,-484 728,-484 722,-478 722,-472 722,-472 722,-444 722,-444 722,-438 728,-432 734,-432 734,-432 838,-432 838,-432 844,-432 850,-438 850,-444 850,-444 850,-472 850,-472 850,-478 844,-484 838,-484"/>
<text text-anchor="middle" x="786" y="-472" font-family="sans" font-size="10.00" fill="#000000">merge_lanes</text>
<text text-anchor="middle" x="786" y="-461" font-family="sans" font-size="10.00" fill="#000000">library: lib1</text>
<text text-anchor="middle" x="786" y="-450" font-family="sans" font-size="10.00" fill="#000000">read_type_trim: collapsed</text>
<text text-anchor="middle" x="786" y="-439" font-family="sans" font-size="10.00" fill="#000000">sample: HD827sonic_1</text>
</g>
<!-- 7&#45;&gt;6 -->
<g id="edge25" class="edge">
<title>7&#45;&gt;6</title>
<path fill="none" stroke="#c0c0c0" stroke-width="2" d="M749.327,-431.805C735.9297,-422.2355 720.8502,-411.4645 707.7223,-402.0874"/>
<polygon fill="#c0c0c0" stroke="#c0c0c0" stroke-width="2" points="709.5862,-399.1176 699.4145,-396.1532 705.5175,-404.8137 709.5862,-399.1176"/>
</g>
<!-- 9 -->
<g id="node10" class="node">
<title>9</title>
<path fill="none" stroke="#56d8b9" stroke-width="2" d="M821,-396C821,-396 751,-396 751,-396 745,-396 739,-390 739,-384 739,-384 739,-372 739,-372 739,-366 745,-360 751,-360 751,-360 821,-360 821,-360 827,-360 833,-366 833,-372 833,-372 833,-384 833,-384 833,-390 827,-396 821,-396"/>
<text text-anchor="middle" x="786" y="-381" font-family="sans" font-size="10.00" fill="#000000">nonpareil_infer</text>
<text text-anchor="middle" x="786" y="-370" font-family="sans" font-size="10.00" fill="#000000">tool: merge_lanes</text>
</g>
<!-- 7&#45;&gt;9 -->
<g id="edge27" class="edge">
<title>7&#45;&gt;9</title>
<path fill="none" stroke="#c0c0c0" stroke-width="2" d="M786,-431.805C786,-423.6026 786,-414.5174 786,-406.1839"/>
<polygon fill="#c0c0c0" stroke="#c0c0c0" stroke-width="2" points="789.5001,-406.1532 786,-396.1532 782.5001,-406.1533 789.5001,-406.1532"/>
</g>
<!-- 17 -->
<g id="node18" class="node">
<title>17</title>
<path fill="none" stroke="#d85656" stroke-width="2" d="M931,-396C931,-396 901,-396 901,-396 895,-396 889,-390 889,-384 889,-384 889,-372 889,-372 889,-366 895,-360 901,-360 901,-360 931,-360 931,-360 937,-360 943,-366 943,-372 943,-372 943,-384 943,-384 943,-390 937,-396 931,-396"/>
<text text-anchor="middle" x="916" y="-375.5" font-family="sans" font-size="10.00" fill="#000000">seqkit</text>
</g>
<!-- 7&#45;&gt;17 -->
<g id="edge35" class="edge">
<title>7&#45;&gt;17</title>
<path fill="none" stroke="#c0c0c0" stroke-width="2" d="M828.5669,-431.805C845.3114,-421.5007 864.3197,-409.8033 880.3261,-399.9531"/>
<polygon fill="#c0c0c0" stroke="#c0c0c0" stroke-width="2" points="882.1941,-402.9133 888.8763,-394.6915 878.5254,-396.9517 882.1941,-402.9133"/>
</g>
<!-- 8 -->
<g id="node9" class="node">
<title>8</title>
<path fill="none" stroke="#56d0d8" stroke-width="2" d="M767.5,-324C767.5,-324 714.5,-324 714.5,-324 708.5,-324 702.5,-318 702.5,-312 702.5,-312 702.5,-300 702.5,-300 702.5,-294 708.5,-288 714.5,-288 714.5,-288 767.5,-288 767.5,-288 773.5,-288 779.5,-294 779.5,-300 779.5,-300 779.5,-312 779.5,-312 779.5,-318 773.5,-324 767.5,-324"/>
<text text-anchor="middle" x="741" y="-303.5" font-family="sans" font-size="10.00" fill="#000000">nonpareil_plot</text>
</g>
<!-- 8&#45;&gt;1 -->
<g id="edge8" class="edge">
<title>8&#45;&gt;1</title>
<path fill="none" stroke="#c0c0c0" stroke-width="2" d="M740.8354,-287.8847C741.2689,-256.724 745.3577,-191.7296 770,-144 775.4999,-133.3473 783.8144,-123.4269 792.2377,-115.0705"/>
<polygon fill="#c0c0c0" stroke="#c0c0c0" stroke-width="2" points="794.7104,-117.5497 799.5999,-108.1506 789.9163,-112.4491 794.7104,-117.5497"/>
</g>
<!-- 9&#45;&gt;8 -->
<g id="edge26" class="edge">
<title>9&#45;&gt;8</title>
<path fill="none" stroke="#c0c0c0" stroke-width="2" d="M774.6446,-359.8314C769.5674,-351.7079 763.4773,-341.9637 757.8824,-333.0118"/>
<polygon fill="#c0c0c0" stroke="#c0c0c0" stroke-width="2" points="760.7763,-331.0383 752.5083,-324.4133 754.8403,-334.7483 760.7763,-331.0383"/>
</g>
<!-- 10 -->
<g id="node11" class="node">
<title>10</title>
<path fill="none" stroke="#56d0d8" stroke-width="2" d="M527.5,-180C527.5,-180 474.5,-180 474.5,-180 468.5,-180 462.5,-174 462.5,-168 462.5,-168 462.5,-156 462.5,-156 462.5,-150 468.5,-144 474.5,-144 474.5,-144 527.5,-144 527.5,-144 533.5,-144 539.5,-150 539.5,-156 539.5,-156 539.5,-168 539.5,-168 539.5,-174 533.5,-180 527.5,-180"/>
<text text-anchor="middle" x="501" y="-159.5" font-family="sans" font-size="10.00" fill="#000000">nonpareil_plot</text>
</g>
<!-- 10&#45;&gt;1 -->
<g id="edge9" class="edge">
<title>10&#45;&gt;1</title>
<path fill="none" stroke="#c0c0c0" stroke-width="2" d="M539.5906,-146.9069C542.7533,-145.8602 545.9179,-144.8752 549,-144 632.297,-120.3468 732.7258,-103.4148 785.8432,-95.3379"/>
<polygon fill="#c0c0c0" stroke="#c0c0c0" stroke-width="2" points="786.447,-98.7866 795.8168,-93.8412 785.4081,-91.8641 786.447,-98.7866"/>
</g>
<!-- 11&#45;&gt;10 -->
<g id="edge28" class="edge">
<title>11&#45;&gt;10</title>
<path fill="none" stroke="#c0c0c0" stroke-width="2" d="M501,-359.9555C501,-322.3938 501,-235.5541 501,-190.4103"/>
<polygon fill="#c0c0c0" stroke="#c0c0c0" stroke-width="2" points="504.5001,-190.145 501,-180.1451 497.5001,-190.1451 504.5001,-190.145"/>
</g>
<!-- 12 -->
<g id="node13" class="node">
<title>12</title>
<path fill="none" stroke="#56d0d8" stroke-width="2" d="M1305.5,-252C1305.5,-252 1252.5,-252 1252.5,-252 1246.5,-252 1240.5,-246 1240.5,-240 1240.5,-240 1240.5,-228 1240.5,-228 1240.5,-222 1246.5,-216 1252.5,-216 1252.5,-216 1305.5,-216 1305.5,-216 1311.5,-216 1317.5,-222 1317.5,-228 1317.5,-228 1317.5,-240 1317.5,-240 1317.5,-246 1311.5,-252 1305.5,-252"/>
<text text-anchor="middle" x="1279" y="-231.5" font-family="sans" font-size="10.00" fill="#000000">nonpareil_plot</text>
</g>
<!-- 12&#45;&gt;1 -->
<g id="edge10" class="edge">
<title>12&#45;&gt;1</title>
<path fill="none" stroke="#c0c0c0" stroke-width="2" d="M1249.3807,-215.922C1214.7503,-195.5525 1155.1334,-162.8356 1100,-144 1016.9786,-115.6368 914.5762,-100.5322 860.5234,-94.0151"/>
<polygon fill="#c0c0c0" stroke="#c0c0c0" stroke-width="2" points="860.7174,-90.5139 850.3776,-92.8247 859.9017,-97.4662 860.7174,-90.5139"/>
</g>
<!-- 13&#45;&gt;12 -->
<g id="edge30" class="edge">
<title>13&#45;&gt;12</title>
<path fill="none" stroke="#c0c0c0" stroke-width="2" d="M1279,-359.7623C1279,-335.201 1279,-291.2474 1279,-262.3541"/>
<polygon fill="#c0c0c0" stroke="#c0c0c0" stroke-width="2" points="1282.5001,-262.0896 1279,-252.0896 1275.5001,-262.0897 1282.5001,-262.0896"/>
</g>
<!-- 14 -->
<g id="node15" class="node">
<title>14</title>
<path fill="none" stroke="#68d856" stroke-width="2" d="M1580,-180C1580,-180 1512,-180 1512,-180 1506,-180 1500,-174 1500,-168 1500,-168 1500,-156 1500,-156 1500,-150 1506,-144 1512,-144 1512,-144 1580,-144 1580,-144 1586,-144 1592,-150 1592,-156 1592,-156 1592,-168 1592,-168 1592,-174 1586,-180 1580,-180"/>
<text text-anchor="middle" x="1546" y="-165" font-family="sans" font-size="10.00" fill="#000000">seqkit_stats</text>
<text text-anchor="middle" x="1546" y="-154" font-family="sans" font-size="10.00" fill="#000000">tool: derep/seqkit</text>
</g>
<!-- 14&#45;&gt;1 -->
<g id="edge11" class="edge">
<title>14&#45;&gt;1</title>
<path fill="none" stroke="#c0c0c0" stroke-width="2" d="M1499.9782,-151.039C1487.6953,-148.4154 1474.3917,-145.8437 1462,-144 1234.8921,-110.2101 958.991,-95.8168 860.3066,-91.4978"/>
<polygon fill="#c0c0c0" stroke="#c0c0c0" stroke-width="2" points="860.377,-87.9977 850.236,-91.0653 860.0766,-94.9912 860.377,-87.9977"/>
</g>
<!-- 15&#45;&gt;14 -->
<g id="edge32" class="edge">
<title>15&#45;&gt;14</title>
<path fill="none" stroke="#c0c0c0" stroke-width="2" d="M1563.9961,-359.7286C1573.0426,-329.4152 1587.8308,-267.0108 1575,-216 1572.6614,-206.7024 1568.377,-197.2609 1563.8062,-188.9283"/>
<polygon fill="#c0c0c0" stroke="#c0c0c0" stroke-width="2" points="1566.6857,-186.9192 1558.6122,-180.0585 1560.6451,-190.4564 1566.6857,-186.9192"/>
</g>
<!-- 23 -->
<g id="node24" class="node">
<title>23</title>
<path fill="none" stroke="#56d8b9" stroke-width="2" d="M1736,-324C1736,-324 1668,-324 1668,-324 1662,-324 1656,-318 1656,-312 1656,-312 1656,-300 1656,-300 1656,-294 1662,-288 1668,-288 1668,-288 1736,-288 1736,-288 1742,-288 1748,-294 1748,-300 1748,-300 1748,-312 1748,-312 1748,-318 1742,-324 1736,-324"/>
<text text-anchor="middle" x="1702" y="-309" font-family="sans" font-size="10.00" fill="#000000">nonpareil_infer</text>
<text text-anchor="middle" x="1702" y="-298" font-family="sans" font-size="10.00" fill="#000000">tool: derep/seqkit</text>
</g>
<!-- 15&#45;&gt;23 -->
<g id="edge41" class="edge">
<title>15&#45;&gt;23</title>
<path fill="none" stroke="#c0c0c0" stroke-width="2" d="M1585.0853,-364.4574C1605.224,-354.388 1633.1682,-340.4159 1656.6871,-328.6564"/>
<polygon fill="#c0c0c0" stroke="#c0c0c0" stroke-width="2" points="1658.4115,-331.7074 1665.7905,-324.1047 1655.281,-325.4464 1658.4115,-331.7074"/>
</g>
<!-- 31 -->
<g id="node32" class="node">
<title>31</title>
<path fill="none" stroke="#56a9d8" stroke-width="2" d="M1548,-324C1548,-324 1488,-324 1488,-324 1482,-324 1476,-318 1476,-312 1476,-312 1476,-300 1476,-300 1476,-294 1482,-288 1488,-288 1488,-288 1548,-288 1548,-288 1554,-288 1560,-294 1560,-300 1560,-300 1560,-312 1560,-312 1560,-318 1554,-324 1548,-324"/>
<text text-anchor="middle" x="1518" y="-303.5" font-family="sans" font-size="10.00" fill="#000000">low_complexity</text>
</g>
<!-- 15&#45;&gt;31 -->
<g id="edge49" class="edge">
<title>15&#45;&gt;31</title>
<path fill="none" stroke="#c0c0c0" stroke-width="2" d="M1547.9063,-359.8314C1543.4403,-351.7925 1538.0925,-342.1666 1533.1621,-333.2918"/>
<polygon fill="#c0c0c0" stroke="#c0c0c0" stroke-width="2" points="1536.1456,-331.4551 1528.2296,-324.4133 1530.0265,-334.8546 1536.1456,-331.4551"/>
</g>
<!-- 16 -->
<g id="node17" class="node">
<title>16</title>
<path fill="none" stroke="#68d856" stroke-width="2" d="M878,-324C878,-324 810,-324 810,-324 804,-324 798,-318 798,-312 798,-312 798,-300 798,-300 798,-294 804,-288 810,-288 810,-288 878,-288 878,-288 884,-288 890,-294 890,-300 890,-300 890,-312 890,-312 890,-318 884,-324 878,-324"/>
<text text-anchor="middle" x="844" y="-309" font-family="sans" font-size="10.00" fill="#000000">seqkit_stats</text>
<text text-anchor="middle" x="844" y="-298" font-family="sans" font-size="10.00" fill="#000000">tool: derep/seqkit</text>
</g>
<!-- 16&#45;&gt;1 -->
<g id="edge12" class="edge">
<title>16&#45;&gt;1</title>
<path fill="none" stroke="#c0c0c0" stroke-width="2" d="M809.0585,-287.7767C795.8493,-278.9077 782.2623,-266.9055 775,-252 753.0386,-206.9256 781.8034,-149.8209 803.3459,-116.8459"/>
<polygon fill="#c0c0c0" stroke="#c0c0c0" stroke-width="2" points="806.4798,-118.4596 809.1823,-108.2152 800.6812,-114.5383 806.4798,-118.4596"/>
</g>
<!-- 17&#45;&gt;16 -->
<g id="edge34" class="edge">
<title>17&#45;&gt;16</title>
<path fill="none" stroke="#c0c0c0" stroke-width="2" d="M897.8314,-359.8314C889.2848,-351.2848 878.9443,-340.9443 869.6198,-331.6198"/>
<polygon fill="#c0c0c0" stroke="#c0c0c0" stroke-width="2" points="871.9592,-329.0095 862.4133,-324.4133 867.0095,-333.9592 871.9592,-329.0095"/>
</g>
<!-- 25 -->
<g id="node26" class="node">
<title>25</title>
<path fill="none" stroke="#56d8b9" stroke-width="2" d="M988,-324C988,-324 920,-324 920,-324 914,-324 908,-318 908,-312 908,-312 908,-300 908,-300 908,-294 914,-288 920,-288 920,-288 988,-288 988,-288 994,-288 1000,-294 1000,-300 1000,-300 1000,-312 1000,-312 1000,-318 994,-324 988,-324"/>
<text text-anchor="middle" x="954" y="-309" font-family="sans" font-size="10.00" fill="#000000">nonpareil_infer</text>
<text text-anchor="middle" x="954" y="-298" font-family="sans" font-size="10.00" fill="#000000">tool: derep/seqkit</text>
</g>
<!-- 17&#45;&gt;25 -->
<g id="edge43" class="edge">
<title>17&#45;&gt;25</title>
<path fill="none" stroke="#c0c0c0" stroke-width="2" d="M925.589,-359.8314C929.8317,-351.7925 934.9121,-342.1666 939.596,-333.2918"/>
<polygon fill="#c0c0c0" stroke="#c0c0c0" stroke-width="2" points="942.7096,-334.8908 944.2819,-324.4133 936.5189,-331.6235 942.7096,-334.8908"/>
</g>
<!-- 27 -->
<g id="node28" class="node">
<title>27</title>
<path fill="none" stroke="#56a9d8" stroke-width="2" d="M1090,-324C1090,-324 1030,-324 1030,-324 1024,-324 1018,-318 1018,-312 1018,-312 1018,-300 1018,-300 1018,-294 1024,-288 1030,-288 1030,-288 1090,-288 1090,-288 1096,-288 1102,-294 1102,-300 1102,-300 1102,-312 1102,-312 1102,-318 1096,-324 1090,-324"/>
<text text-anchor="middle" x="1060" y="-303.5" font-family="sans" font-size="10.00" fill="#000000">low_complexity</text>
</g>
<!-- 17&#45;&gt;27 -->
<g id="edge45" class="edge">
<title>17&#45;&gt;27</title>
<path fill="none" stroke="#c0c0c0" stroke-width="2" d="M943.0853,-364.4574C963.224,-354.388 991.1682,-340.4159 1014.6871,-328.6564"/>
<polygon fill="#c0c0c0" stroke="#c0c0c0" stroke-width="2" points="1016.4115,-331.7074 1023.7905,-324.1047 1013.281,-325.4464 1016.4115,-331.7074"/>
</g>
<!-- 18 -->
<g id="node19" class="node">
<title>18</title>
<path fill="none" stroke="#68d856" stroke-width="2" d="M80,-180C80,-180 12,-180 12,-180 6,-180 0,-174 0,-168 0,-168 0,-156 0,-156 0,-150 6,-144 12,-144 12,-144 80,-144 80,-144 86,-144 92,-150 92,-156 92,-156 92,-168 92,-168 92,-174 86,-180 80,-180"/>
<text text-anchor="middle" x="46" y="-165" font-family="sans" font-size="10.00" fill="#000000">seqkit_stats</text>
<text text-anchor="middle" x="46" y="-154" font-family="sans" font-size="10.00" fill="#000000">tool: derep/seqkit</text>
</g>
<!-- 18&#45;&gt;1 -->
<g id="edge13" class="edge">
<title>18&#45;&gt;1</title>
<path fill="none" stroke="#c0c0c0" stroke-width="2" d="M92.1891,-151.9976C107.0741,-149.0598 123.6819,-146.0804 139,-144 384.3882,-110.6738 682.3077,-95.8631 785.6115,-91.4735"/>
<polygon fill="#c0c0c0" stroke="#c0c0c0" stroke-width="2" points="785.9917,-94.9608 795.8368,-91.0463 785.6994,-87.9669 785.9917,-94.9608"/>
</g>
<!-- 19&#45;&gt;18 -->
<g id="edge36" class="edge">
<title>19&#45;&gt;18</title>
<path fill="none" stroke="#c0c0c0" stroke-width="2" d="M227.7861,-360.6021C212.6543,-350.518 193.755,-337.2298 178,-324 143.3434,-294.8981 134.6911,-286.9975 106,-252 89.6023,-231.9981 73.4816,-207.4677 62.0862,-189.0712"/>
<polygon fill="#c0c0c0" stroke="#c0c0c0" stroke-width="2" points="64.9398,-187.0287 56.7365,-180.3237 58.968,-190.6809 64.9398,-187.0287"/>
</g>
<!-- 21 -->
<g id="node22" class="node">
<title>21</title>
<path fill="none" stroke="#56d8b9" stroke-width="2" d="M384,-324C384,-324 316,-324 316,-324 310,-324 304,-318 304,-312 304,-312 304,-300 304,-300 304,-294 310,-288 316,-288 316,-288 384,-288 384,-288 390,-288 396,-294 396,-300 396,-300 396,-312 396,-312 396,-318 390,-324 384,-324"/>
<text text-anchor="middle" x="350" y="-309" font-family="sans" font-size="10.00" fill="#000000">nonpareil_infer</text>
<text text-anchor="middle" x="350" y="-298" font-family="sans" font-size="10.00" fill="#000000">tool: derep/seqkit</text>
</g>
<!-- 19&#45;&gt;21 -->
<g id="edge39" class="edge">
<title>19&#45;&gt;21</title>
<path fill="none" stroke="#c0c0c0" stroke-width="2" d="M278.9725,-359.8314C290.7861,-350.8779 305.1972,-339.9558 317.9435,-330.2955"/>
<polygon fill="#c0c0c0" stroke="#c0c0c0" stroke-width="2" points="320.1795,-332.9925 326.0352,-324.1628 315.9514,-327.4137 320.1795,-332.9925"/>
</g>
<!-- 29 -->
<g id="node30" class="node">
<title>29</title>
<path fill="none" stroke="#56a9d8" stroke-width="2" d="M259,-324C259,-324 199,-324 199,-324 193,-324 187,-318 187,-312 187,-312 187,-300 187,-300 187,-294 193,-288 199,-288 199,-288 259,-288 259,-288 265,-288 271,-294 271,-300 271,-300 271,-312 271,-312 271,-318 265,-324 259,-324"/>
<text text-anchor="middle" x="229" y="-303.5" font-family="sans" font-size="10.00" fill="#000000">low_complexity</text>
</g>
<!-- 19&#45;&gt;29 -->
<g id="edge47" class="edge">
<title>19&#45;&gt;29</title>
<path fill="none" stroke="#c0c0c0" stroke-width="2" d="M248.4391,-359.8314C245.5973,-351.9617 242.2063,-342.5712 239.0581,-333.8533"/>
<polygon fill="#c0c0c0" stroke="#c0c0c0" stroke-width="2" points="242.3377,-332.63 235.6492,-324.4133 235.7538,-335.0076 242.3377,-332.63"/>
</g>
<!-- 20 -->
<g id="node21" class="node">
<title>20</title>
<path fill="none" stroke="#56d0d8" stroke-width="2" d="M432.5,-180C432.5,-180 379.5,-180 379.5,-180 373.5,-180 367.5,-174 367.5,-168 367.5,-168 367.5,-156 367.5,-156 367.5,-150 373.5,-144 379.5,-144 379.5,-144 432.5,-144 432.5,-144 438.5,-144 444.5,-150 444.5,-156 444.5,-156 444.5,-168 444.5,-168 444.5,-174 438.5,-180 432.5,-180"/>
<text text-anchor="middle" x="406" y="-159.5" font-family="sans" font-size="10.00" fill="#000000">nonpareil_plot</text>
</g>
<!-- 20&#45;&gt;1 -->
<g id="edge14" class="edge">
<title>20&#45;&gt;1</title>
<path fill="none" stroke="#c0c0c0" stroke-width="2" d="M444.5073,-146.478C447.3584,-145.5679 450.2101,-144.7283 453,-144 572.2446,-112.8733 718.1076,-98.2157 785.5329,-92.7187"/>
<polygon fill="#c0c0c0" stroke="#c0c0c0" stroke-width="2" points="785.9732,-96.1949 795.6646,-91.914 785.4189,-89.2168 785.9732,-96.1949"/>
</g>
<!-- 21&#45;&gt;20 -->
<g id="edge38" class="edge">
<title>21&#45;&gt;20</title>
<path fill="none" stroke="#c0c0c0" stroke-width="2" d="M357.0924,-287.7623C366.7282,-262.9846 384.0389,-218.4714 395.269,-189.5939"/>
<polygon fill="#c0c0c0" stroke="#c0c0c0" stroke-width="2" points="398.6026,-190.6783 398.9651,-180.0896 392.0786,-188.1411 398.6026,-190.6783"/>
</g>
<!-- 22 -->
<g id="node23" class="node">
<title>22</title>
<path fill="none" stroke="#56d0d8" stroke-width="2" d="M1763.5,-252C1763.5,-252 1710.5,-252 1710.5,-252 1704.5,-252 1698.5,-246 1698.5,-240 1698.5,-240 1698.5,-228 1698.5,-228 1698.5,-222 1704.5,-216 1710.5,-216 1710.5,-216 1763.5,-216 1763.5,-216 1769.5,-216 1775.5,-222 1775.5,-228 1775.5,-228 1775.5,-240 1775.5,-240 1775.5,-246 1769.5,-252 1763.5,-252"/>
<text text-anchor="middle" x="1737" y="-231.5" font-family="sans" font-size="10.00" fill="#000000">nonpareil_plot</text>
</g>
<!-- 22&#45;&gt;1 -->
<g id="edge15" class="edge">
<title>22&#45;&gt;1</title>
<path fill="none" stroke="#c0c0c0" stroke-width="2" d="M1717.1409,-215.9653C1692.1284,-194.4818 1646.8505,-159.5488 1601,-144 1530.4796,-120.0851 1006.6185,-97.3945 860.6555,-91.4849"/>
<polygon fill="#c0c0c0" stroke="#c0c0c0" stroke-width="2" points="860.553,-87.978 850.4204,-91.073 860.2715,-94.9724 860.553,-87.978"/>
</g>
<!-- 23&#45;&gt;22 -->
<g id="edge40" class="edge">
<title>23&#45;&gt;22</title>
<path fill="none" stroke="#c0c0c0" stroke-width="2" d="M1710.832,-287.8314C1714.6986,-279.8771 1719.3206,-270.369 1723.5968,-261.5723"/>
<polygon fill="#c0c0c0" stroke="#c0c0c0" stroke-width="2" points="1726.8249,-262.9371 1728.0491,-252.4133 1720.5293,-259.8768 1726.8249,-262.9371"/>
</g>
<!-- 24 -->
<g id="node25" class="node">
<title>24</title>
<path fill="none" stroke="#56d0d8" stroke-width="2" d="M849.5,-252C849.5,-252 796.5,-252 796.5,-252 790.5,-252 784.5,-246 784.5,-240 784.5,-240 784.5,-228 784.5,-228 784.5,-222 790.5,-216 796.5,-216 796.5,-216 849.5,-216 849.5,-216 855.5,-216 861.5,-222 861.5,-228 861.5,-228 861.5,-240 861.5,-240 861.5,-246 855.5,-252 849.5,-252"/>
<text text-anchor="middle" x="823" y="-231.5" font-family="sans" font-size="10.00" fill="#000000">nonpareil_plot</text>
</g>
<!-- 24&#45;&gt;1 -->
<g id="edge16" class="edge">
<title>24&#45;&gt;1</title>
<path fill="none" stroke="#c0c0c0" stroke-width="2" d="M823,-215.7623C823,-191.201 823,-147.2474 823,-118.3541"/>
<polygon fill="#c0c0c0" stroke="#c0c0c0" stroke-width="2" points="826.5001,-118.0896 823,-108.0896 819.5001,-118.0897 826.5001,-118.0896"/>
</g>
<!-- 25&#45;&gt;24 -->
<g id="edge42" class="edge">
<title>25&#45;&gt;24</title>
<path fill="none" stroke="#c0c0c0" stroke-width="2" d="M920.9432,-287.8314C904.0323,-278.5368 883.2615,-267.1208 865.2059,-257.1971"/>
<polygon fill="#c0c0c0" stroke="#c0c0c0" stroke-width="2" points="866.4957,-253.9122 856.0463,-252.1628 863.124,-260.0468 866.4957,-253.9122"/>
</g>
<!-- 26 -->
<g id="node27" class="node">
<title>26</title>
<path fill="none" stroke="#68d856" stroke-width="2" d="M974,-252C974,-252 892,-252 892,-252 886,-252 880,-246 880,-240 880,-240 880,-228 880,-228 880,-222 886,-216 892,-216 892,-216 974,-216 974,-216 980,-216 986,-222 986,-228 986,-228 986,-240 986,-240 986,-246 980,-252 974,-252"/>
<text text-anchor="middle" x="933" y="-237" font-family="sans" font-size="10.00" fill="#000000">seqkit_stats</text>
<text text-anchor="middle" x="933" y="-226" font-family="sans" font-size="10.00" fill="#000000">tool: low_complexity</text>
</g>
<!-- 26&#45;&gt;1 -->
<g id="edge17" class="edge">
<title>26&#45;&gt;1</title>
<path fill="none" stroke="#c0c0c0" stroke-width="2" d="M919.0684,-215.7623C899.8104,-190.5518 864.9454,-144.9103 842.9338,-116.0952"/>
<polygon fill="#c0c0c0" stroke="#c0c0c0" stroke-width="2" points="845.6703,-113.9117 836.8185,-108.0896 840.1075,-118.161 845.6703,-113.9117"/>
</g>
<!-- 27&#45;&gt;0 -->
<g id="edge3" class="edge">
<title>27&#45;&gt;0</title>
<path fill="none" stroke="#c0c0c0" stroke-width="2" d="M1102.3811,-304.1166C1218.9281,-298.584 1538.0622,-280.9268 1575,-252 1601.7862,-231.0231 1595.1344,-213.5131 1601,-180 1603.7585,-164.2396 1610.3346,-156.9949 1601,-144 1560.5717,-87.7189 1350.5323,-41.7127 1264.1574,-24.8821"/>
<polygon fill="#c0c0c0" stroke="#c0c0c0" stroke-width="2" points="1264.7381,-21.4297 1254.2567,-22.9755 1263.4144,-28.3034 1264.7381,-21.4297"/>
</g>
<!-- 27&#45;&gt;26 -->
<g id="edge44" class="edge">
<title>27&#45;&gt;26</title>
<path fill="none" stroke="#c0c0c0" stroke-width="2" d="M1027.9525,-287.8314C1011.558,-278.5368 991.4214,-267.1208 973.9171,-257.1971"/>
<polygon fill="#c0c0c0" stroke="#c0c0c0" stroke-width="2" points="975.4626,-254.05 965.0372,-252.1628 972.0103,-260.1395 975.4626,-254.05"/>
</g>
<!-- 37 -->
<g id="node38" class="node">
<title>37</title>
<path fill="none" stroke="#56d8b9" stroke-width="2" d="M1098,-252C1098,-252 1016,-252 1016,-252 1010,-252 1004,-246 1004,-240 1004,-240 1004,-228 1004,-228 1004,-222 1010,-216 1016,-216 1016,-216 1098,-216 1098,-216 1104,-216 1110,-222 1110,-228 1110,-228 1110,-240 1110,-240 1110,-246 1104,-252 1098,-252"/>
<text text-anchor="middle" x="1057" y="-237" font-family="sans" font-size="10.00" fill="#000000">nonpareil_infer</text>
<text text-anchor="middle" x="1057" y="-226" font-family="sans" font-size="10.00" fill="#000000">tool: low_complexity</text>
</g>
<!-- 27&#45;&gt;37 -->
<g id="edge55" class="edge">
<title>27&#45;&gt;37</title>
<path fill="none" stroke="#c0c0c0" stroke-width="2" d="M1059.243,-287.8314C1058.9221,-280.131 1058.5406,-270.9743 1058.184,-262.4166"/>
<polygon fill="#c0c0c0" stroke="#c0c0c0" stroke-width="2" points="1061.6806,-262.2589 1057.7672,-252.4133 1054.6867,-262.5503 1061.6806,-262.2589"/>
</g>
<!-- 28 -->
<g id="node29" class="node">
<title>28</title>
<path fill="none" stroke="#68d856" stroke-width="2" d="M242,-180C242,-180 160,-180 160,-180 154,-180 148,-174 148,-168 148,-168 148,-156 148,-156 148,-150 154,-144 160,-144 160,-144 242,-144 242,-144 248,-144 254,-150 254,-156 254,-156 254,-168 254,-168 254,-174 248,-180 242,-180"/>
<text text-anchor="middle" x="201" y="-165" font-family="sans" font-size="10.00" fill="#000000">seqkit_stats</text>
<text text-anchor="middle" x="201" y="-154" font-family="sans" font-size="10.00" fill="#000000">tool: low_complexity</text>
</g>
<!-- 28&#45;&gt;1 -->
<g id="edge18" class="edge">
<title>28&#45;&gt;1</title>
<path fill="none" stroke="#c0c0c0" stroke-width="2" d="M254.2806,-145.8475C257.2177,-145.1712 260.1379,-144.5485 263,-144 457.6983,-106.6883 695.6746,-94.597 785.9223,-91.1885"/>
<polygon fill="#c0c0c0" stroke="#c0c0c0" stroke-width="2" points="786.0696,-94.6855 795.9354,-90.8234 785.8145,-87.6902 786.0696,-94.6855"/>
</g>
<!-- 29&#45;&gt;0 -->
<g id="edge2" class="edge">
<title>29&#45;&gt;0</title>
<path fill="none" stroke="#c0c0c0" stroke-width="2" d="M205.4208,-287.849C166.8826,-256.0658 98.5506,-189.4041 139,-144 210.6196,-63.6075 1007.122,-26.8408 1189.8121,-19.4322"/>
<polygon fill="#c0c0c0" stroke="#c0c0c0" stroke-width="2" points="1190.1367,-22.9221 1199.9885,-19.0243 1189.8563,-15.9277 1190.1367,-22.9221"/>
</g>
<!-- 29&#45;&gt;28 -->
<g id="edge46" class="edge">
<title>29&#45;&gt;28</title>
<path fill="none" stroke="#c0c0c0" stroke-width="2" d="M225.4538,-287.7623C220.6569,-263.0928 212.0561,-218.8598 206.4392,-189.9731"/>
<polygon fill="#c0c0c0" stroke="#c0c0c0" stroke-width="2" points="209.8619,-189.2377 204.5174,-180.0896 202.9905,-190.5738 209.8619,-189.2377"/>
</g>
<!-- 35 -->
<g id="node36" class="node">
<title>35</title>
<path fill="none" stroke="#56d8b9" stroke-width="2" d="M338,-252C338,-252 256,-252 256,-252 250,-252 244,-246 244,-240 244,-240 244,-228 244,-228 244,-222 250,-216 256,-216 256,-216 338,-216 338,-216 344,-216 350,-222 350,-228 350,-228 350,-240 350,-240 350,-246 344,-252 338,-252"/>
<text text-anchor="middle" x="297" y="-237" font-family="sans" font-size="10.00" fill="#000000">nonpareil_infer</text>
<text text-anchor="middle" x="297" y="-226" font-family="sans" font-size="10.00" fill="#000000">tool: low_complexity</text>
</g>
<!-- 29&#45;&gt;35 -->
<g id="edge53" class="edge">
<title>29&#45;&gt;35</title>
<path fill="none" stroke="#c0c0c0" stroke-width="2" d="M246.1593,-287.8314C254.1511,-279.3694 263.8038,-269.1489 272.5416,-259.8971"/>
<polygon fill="#c0c0c0" stroke="#c0c0c0" stroke-width="2" points="275.288,-262.0866 279.6097,-252.4133 270.1989,-257.2802 275.288,-262.0866"/>
</g>
<!-- 30 -->
<g id="node31" class="node">
<title>30</title>
<path fill="none" stroke="#68d856" stroke-width="2" d="M1554,-252C1554,-252 1472,-252 1472,-252 1466,-252 1460,-246 1460,-240 1460,-240 1460,-228 1460,-228 1460,-222 1466,-216 1472,-216 1472,-216 1554,-216 1554,-216 1560,-216 1566,-222 1566,-228 1566,-228 1566,-240 1566,-240 1566,-246 1560,-252 1554,-252"/>
<text text-anchor="middle" x="1513" y="-237" font-family="sans" font-size="10.00" fill="#000000">seqkit_stats</text>
<text text-anchor="middle" x="1513" y="-226" font-family="sans" font-size="10.00" fill="#000000">tool: low_complexity</text>
</g>
<!-- 30&#45;&gt;1 -->
<g id="edge19" class="edge">
<title>30&#45;&gt;1</title>
<path fill="none" stroke="#c0c0c0" stroke-width="2" d="M1499.4082,-215.7374C1482.3405,-194.3724 1450.9063,-159.9022 1415,-144 1314.9003,-99.6678 974.126,-91.7276 860.3369,-90.3082"/>
<polygon fill="#c0c0c0" stroke="#c0c0c0" stroke-width="2" points="860.0888,-86.8052 850.0493,-90.1902 860.0085,-93.8047 860.0888,-86.8052"/>
</g>
<!-- 31&#45;&gt;0 -->
<g id="edge4" class="edge">
<title>31&#45;&gt;0</title>
<path fill="none" stroke="#c0c0c0" stroke-width="2" d="M1556.9541,-287.928C1572.1283,-279.0834 1588.388,-267.0585 1599,-252 1627.0317,-212.2228 1638.9768,-187.4168 1617,-144 1592.5912,-95.7787 1568.6053,-93.4569 1519,-72 1432.806,-34.7167 1321.4291,-23.1508 1264.3509,-19.5806"/>
<polygon fill="#c0c0c0" stroke="#c0c0c0" stroke-width="2" points="1264.5286,-16.0851 1254.3434,-19.0026 1264.1249,-23.0735 1264.5286,-16.0851"/>
</g>
<!-- 31&#45;&gt;30 -->
<g id="edge48" class="edge">
<title>31&#45;&gt;30</title>
<path fill="none" stroke="#c0c0c0" stroke-width="2" d="M1516.7383,-287.8314C1516.2035,-280.131 1515.5677,-270.9743 1514.9734,-262.4166"/>
<polygon fill="#c0c0c0" stroke="#c0c0c0" stroke-width="2" points="1518.4632,-262.1467 1514.2787,-252.4133 1511.48,-262.6317 1518.4632,-262.1467"/>
</g>
<!-- 33 -->
<g id="node34" class="node">
<title>33</title>
<path fill="none" stroke="#56d8b9" stroke-width="2" d="M1430,-252C1430,-252 1348,-252 1348,-252 1342,-252 1336,-246 1336,-240 1336,-240 1336,-228 1336,-228 1336,-222 1342,-216 1348,-216 1348,-216 1430,-216 1430,-216 1436,-216 1442,-222 1442,-228 1442,-228 1442,-240 1442,-240 1442,-246 1436,-252 1430,-252"/>
<text text-anchor="middle" x="1389" y="-237" font-family="sans" font-size="10.00" fill="#000000">nonpareil_infer</text>
<text text-anchor="middle" x="1389" y="-226" font-family="sans" font-size="10.00" fill="#000000">tool: low_complexity</text>
</g>
<!-- 31&#45;&gt;33 -->
<g id="edge51" class="edge">
<title>31&#45;&gt;33</title>
<path fill="none" stroke="#c0c0c0" stroke-width="2" d="M1485.4479,-287.8314C1468.7952,-278.5368 1448.3415,-267.1208 1430.5615,-257.1971"/>
<polygon fill="#c0c0c0" stroke="#c0c0c0" stroke-width="2" points="1431.9795,-253.9803 1421.5417,-252.1628 1428.5679,-260.0927 1431.9795,-253.9803"/>
</g>
<!-- 32 -->
<g id="node33" class="node">
<title>32</title>
<path fill="none" stroke="#56d0d8" stroke-width="2" d="M1394.5,-180C1394.5,-180 1341.5,-180 1341.5,-180 1335.5,-180 1329.5,-174 1329.5,-168 1329.5,-168 1329.5,-156 1329.5,-156 1329.5,-150 1335.5,-144 1341.5,-144 1341.5,-144 1394.5,-144 1394.5,-144 1400.5,-144 1406.5,-150 1406.5,-156 1406.5,-156 1406.5,-168 1406.5,-168 1406.5,-174 1400.5,-180 1394.5,-180"/>
<text text-anchor="middle" x="1368" y="-159.5" font-family="sans" font-size="10.00" fill="#000000">nonpareil_plot</text>
</g>
<!-- 32&#45;&gt;1 -->
<g id="edge20" class="edge">
<title>32&#45;&gt;1</title>
<path fill="none" stroke="#c0c0c0" stroke-width="2" d="M1329.3913,-155.9831C1305.8831,-152.3757 1275.2317,-147.7719 1248,-144 1104.9246,-124.1824 934.3501,-103.3569 860.3318,-94.4568"/>
<polygon fill="#c0c0c0" stroke="#c0c0c0" stroke-width="2" points="860.4723,-90.9487 850.1264,-93.2318 859.638,-97.8988 860.4723,-90.9487"/>
</g>
<!-- 33&#45;&gt;32 -->
<g id="edge50" class="edge">
<title>33&#45;&gt;32</title>
<path fill="none" stroke="#c0c0c0" stroke-width="2" d="M1383.7008,-215.8314C1381.4302,-208.0463 1378.7254,-198.7729 1376.206,-190.1347"/>
<polygon fill="#c0c0c0" stroke="#c0c0c0" stroke-width="2" points="1379.5306,-189.0332 1373.3705,-180.4133 1372.8106,-190.9933 1379.5306,-189.0332"/>
</g>
<!-- 34 -->
<g id="node35" class="node">
<title>34</title>
<path fill="none" stroke="#56d0d8" stroke-width="2" d="M337.5,-180C337.5,-180 284.5,-180 284.5,-180 278.5,-180 272.5,-174 272.5,-168 272.5,-168 272.5,-156 272.5,-156 272.5,-150 278.5,-144 284.5,-144 284.5,-144 337.5,-144 337.5,-144 343.5,-144 349.5,-150 349.5,-156 349.5,-156 349.5,-168 349.5,-168 349.5,-174 343.5,-180 337.5,-180"/>
<text text-anchor="middle" x="311" y="-159.5" font-family="sans" font-size="10.00" fill="#000000">nonpareil_plot</text>
</g>
<!-- 34&#45;&gt;1 -->
<g id="edge21" class="edge">
<title>34&#45;&gt;1</title>
<path fill="none" stroke="#c0c0c0" stroke-width="2" d="M349.7434,-146.3042C352.5136,-145.4476 355.2845,-144.6665 358,-144 513.9853,-105.7155 706.2538,-94.3593 785.8257,-91.1709"/>
<polygon fill="#c0c0c0" stroke="#c0c0c0" stroke-width="2" points="785.9891,-94.6673 795.8486,-90.7891 785.7226,-87.6724 785.9891,-94.6673"/>
</g>
<!-- 35&#45;&gt;34 -->
<g id="edge52" class="edge">
<title>35&#45;&gt;34</title>
<path fill="none" stroke="#c0c0c0" stroke-width="2" d="M300.5328,-215.8314C302.0301,-208.131 303.8105,-198.9743 305.4745,-190.4166"/>
<polygon fill="#c0c0c0" stroke="#c0c0c0" stroke-width="2" points="308.9465,-190.8975 307.4196,-180.4133 302.0752,-189.5614 308.9465,-190.8975"/>
</g>
<!-- 36 -->
<g id="node37" class="node">
<title>36</title>
<path fill="none" stroke="#56d0d8" stroke-width="2" d="M1037.5,-180C1037.5,-180 984.5,-180 984.5,-180 978.5,-180 972.5,-174 972.5,-168 972.5,-168 972.5,-156 972.5,-156 972.5,-150 978.5,-144 984.5,-144 984.5,-144 1037.5,-144 1037.5,-144 1043.5,-144 1049.5,-150 1049.5,-156 1049.5,-156 1049.5,-168 1049.5,-168 1049.5,-174 1043.5,-180 1037.5,-180"/>
<text text-anchor="middle" x="1011" y="-159.5" font-family="sans" font-size="10.00" fill="#000000">nonpareil_plot</text>
</g>
<!-- 36&#45;&gt;1 -->
<g id="edge22" class="edge">
<title>36&#45;&gt;1</title>
<path fill="none" stroke="#c0c0c0" stroke-width="2" d="M972.0463,-147.0816C939.0044,-134.4272 891.952,-116.4072 859.5993,-104.0167"/>
<polygon fill="#c0c0c0" stroke="#c0c0c0" stroke-width="2" points="860.6528,-100.6724 850.0625,-100.3643 858.1492,-107.2094 860.6528,-100.6724"/>
</g>
<!-- 37&#45;&gt;36 -->
<g id="edge54" class="edge">
<title>37&#45;&gt;36</title>
<path fill="none" stroke="#c0c0c0" stroke-width="2" d="M1045.3923,-215.8314C1040.2022,-207.7079 1033.9768,-197.9637 1028.2575,-189.0118"/>
<polygon fill="#c0c0c0" stroke="#c0c0c0" stroke-width="2" points="1031.0974,-186.9559 1022.764,-180.4133 1025.1985,-190.7246 1031.0974,-186.9559"/>
</g>
</g>
</svg>
