<?xml version="1.0" encoding="UTF-8" standalone="no"?>
<!DOCTYPE svg PUBLIC "-//W3C//DTD SVG 1.1//EN"
 "http://www.w3.org/Graphics/SVG/1.1/DTD/svg11.dtd">
<!-- Generated by graphviz version 2.40.1 (0)
 -->
<!-- Title: snakemake_dag Pages: 1 -->
<svg width="945pt" height="1522pt"
 viewBox="0.00 0.00 945.00 1522.00" xmlns="http://www.w3.org/2000/svg" xmlns:xlink="http://www.w3.org/1999/xlink">
<g id="graph0" class="graph" transform="scale(1 1) rotate(0) translate(4 1518)">
<title>snakemake_dag</title>
<polygon fill="#ffffff" stroke="transparent" points="-4,4 -4,-1518 941,-1518 941,4 -4,4"/>
<!-- 0 -->
<g id="node1" class="node">
<title>0</title>
<text text-anchor="start" x="325.5" y="-125.6" font-family="sans" font-weight="bold" font-size="18.00" fill="#000000">all</text>
<text text-anchor="start" x="140.5" y="-101.8" font-family="sans" font-size="10.00" fill="#000000"> </text>
<text text-anchor="start" x="144.5" y="-101.8" font-family="sans" font-weight="bold" font-size="14.00" fill="#000000">↪ input</text>
<text text-anchor="start" x="197.5" y="-101.8" font-family="sans" font-size="10.00" fill="#000000"> </text>
<text text-anchor="start" x="140.5" y="-82" font-family="monospace" font-size="10.00" fill="#000000">reports/multiqc.html</text>
<text text-anchor="start" x="140.5" y="-64" font-family="monospace" font-size="10.00" fill="#000000">results/reads/low_complexity/HD827sonic_1_lib1_collapsed.fastq.gz</text>
<text text-anchor="start" x="140.5" y="-46" font-family="monospace" font-size="10.00" fill="#000000">results/reads/low_complexity/HD827sonic_2_lib1_collapsed.fastq.gz</text>
<text text-anchor="start" x="140.5" y="-28" font-family="monospace" font-size="10.00" fill="#000000">results/reads/low_complexity/HD827sonic_2_lib2_collapsed.fastq.gz</text>
<text text-anchor="start" x="524.5" y="-10" font-family="sans" font-size="10.00" fill="#000000"> &#160;</text>
<polygon fill="#d95757" stroke="#d95757" points="134.5,-116 134.5,-116 538.5,-116 538.5,-116 134.5,-116"/>
<polygon fill="#d95757" stroke="#d95757" points="134.5,-22 134.5,-22 538.5,-22 538.5,-22 134.5,-22"/>
<polygon fill="none" stroke="#d95757" stroke-width="2" points="134,-1 134,-145 537,-145 537,-1 134,-1"/>
</g>
<!-- 1 -->
<g id="node2" class="node">
<title>1</title>
<text text-anchor="start" x="182.5" y="-599.6" font-family="sans" font-weight="bold" font-size="18.00" fill="#000000">multiqc</text>
<text text-anchor="start" x="7.5" y="-575.8" font-family="sans" font-size="10.00" fill="#000000"> </text>
<text text-anchor="start" x="11.5" y="-575.8" font-family="sans" font-weight="bold" font-size="14.00" fill="#000000">↪ input</text>
<text text-anchor="start" x="64.5" y="-575.8" font-family="sans" font-size="10.00" fill="#000000"> </text>
<text text-anchor="start" x="7.5" y="-556" font-family="monospace" font-size="10.00" fill="#000000">stats/reads/derep/HD827sonic_1_lib1_collapsed.tsv</text>
<text text-anchor="start" x="7.5" y="-538" font-family="monospace" font-size="10.00" fill="#000000">stats/reads/derep/HD827sonic_2_lib1_collapsed.tsv</text>
<text text-anchor="start" x="7.5" y="-520" font-family="monospace" font-size="10.00" fill="#000000">stats/reads/derep/HD827sonic_2_lib2_collapsed.tsv</text>
<text text-anchor="start" x="7.5" y="-502" font-family="monospace" font-size="10.00" fill="#000000">stats/reads/low_complexity/HD827sonic_1_lib1_collapsed.tsv</text>
<text text-anchor="start" x="7.5" y="-484" font-family="monospace" font-size="10.00" fill="#000000">stats/reads/low_complexity/HD827sonic_2_lib1_collapsed.tsv</text>
<text text-anchor="start" x="7.5" y="-466" font-family="monospace" font-size="10.00" fill="#000000">stats/reads/low_complexity/HD827sonic_2_lib2_collapsed.tsv</text>
<text text-anchor="start" x="7.5" y="-448" font-family="monospace" font-size="10.00" fill="#000000">stats/reads/merge_lanes/HD827sonic_1_lib1_collapsed.tsv</text>
<text text-anchor="start" x="7.5" y="-430" font-family="monospace" font-size="10.00" fill="#000000">stats/reads/merge_lanes/HD827sonic_2_lib1_collapsed.tsv</text>
<text text-anchor="start" x="7.5" y="-412" font-family="monospace" font-size="10.00" fill="#000000">stats/reads/merge_lanes/HD827sonic_2_lib2_collapsed.tsv</text>
<text text-anchor="start" x="7.5" y="-394" font-family="monospace" font-size="10.00" fill="#000000">stats/reads/nonpareil/derep/HD827sonic_1_lib1_collapsed.json</text>
<text text-anchor="start" x="7.5" y="-376" font-family="monospace" font-size="10.00" fill="#000000">stats/reads/nonpareil/derep/HD827sonic_2_lib1_collapsed.json</text>
<text text-anchor="start" x="7.5" y="-358" font-family="monospace" font-size="10.00" fill="#000000">stats/reads/nonpareil/derep/HD827sonic_2_lib2_collapsed.json</text>
<text text-anchor="start" x="7.5" y="-340" font-family="monospace" font-size="10.00" fill="#000000">stats/reads/nonpareil/low_complexity/HD827sonic_1_lib1_collapsed.json</text>
<text text-anchor="start" x="7.5" y="-322" font-family="monospace" font-size="10.00" fill="#000000">stats/reads/nonpareil/low_complexity/HD827sonic_2_lib1_collapsed.json</text>
<text text-anchor="start" x="7.5" y="-304" font-family="monospace" font-size="10.00" fill="#000000">stats/reads/nonpareil/low_complexity/HD827sonic_2_lib2_collapsed.json</text>
<text text-anchor="start" x="7.5" y="-286" font-family="monospace" font-size="10.00" fill="#000000">stats/reads/nonpareil/merge_lanes/HD827sonic_1_lib1_collapsed.json</text>
<text text-anchor="start" x="7.5" y="-268" font-family="monospace" font-size="10.00" fill="#000000">stats/reads/nonpareil/merge_lanes/HD827sonic_2_lib1_collapsed.json</text>
<text text-anchor="start" x="7.5" y="-250" font-family="monospace" font-size="10.00" fill="#000000">stats/reads/nonpareil/merge_lanes/HD827sonic_2_lib2_collapsed.json</text>
<text text-anchor="start" x="353.5" y="-229.8" font-family="sans" font-size="10.00" fill="#000000"> </text>
<text text-anchor="start" x="357.5" y="-229.8" font-family="sans" font-weight="bold" font-size="14.00" fill="#000000">output →</text>
<text text-anchor="start" x="418.5" y="-229.8" font-family="sans" font-size="10.00" fill="#000000"> </text>
<text text-anchor="start" x="7.5" y="-210" font-family="monospace" font-size="10.00" fill="#000000">reports/multiqc.html</text>
<text text-anchor="start" x="7.5" y="-192" font-family="monospace" font-size="10.00" fill="#000000">reports/multiqc_data.zip</text>
<polygon fill="#82d957" stroke="#82d957" points="1.5,-590 1.5,-590 429.5,-590 429.5,-590 1.5,-590"/>
<polygon fill="#82d957" stroke="#82d957" points="1.5,-244 1.5,-244 429.5,-244 429.5,-244 1.5,-244"/>
<polygon fill="none" stroke="#82d957" stroke-width="2" points="1,-183 1,-619 428,-619 428,-183 1,-183"/>
</g>
<!-- 1&#45;&gt;0 -->
<g id="edge2" class="edge">
<title>1&#45;&gt;0</title>
<path fill="none" stroke="#c0c0c0" stroke-width="2" d="M295.3768,-181.7637C298.6682,-172.8417 301.8684,-164.1666 304.9318,-155.8626"/>
<polygon fill="#c0c0c0" stroke="#c0c0c0" stroke-width="2" points="308.2849,-156.8855 308.4623,-146.2922 301.7175,-154.4628 308.2849,-156.8855"/>
</g>
<!-- 2 -->
<g id="node3" class="node">
<title>2</title>
<text text-anchor="start" x="138.5" y="-962.6" font-family="sans" font-weight="bold" font-size="18.00" fill="#000000">seqkit_stats</text>
<text text-anchor="start" x="15.5" y="-938.8" font-family="sans" font-size="10.00" fill="#000000"> </text>
<text text-anchor="start" x="19.5" y="-938.8" font-family="sans" font-weight="bold" font-size="14.00" fill="#000000">↪ input</text>
<text text-anchor="start" x="72.5" y="-938.8" font-family="sans" font-size="10.00" fill="#000000"> </text>
<text text-anchor="start" x="15.5" y="-919" font-family="monospace" font-size="10.00" fill="#000000">&lt;input function&gt;</text>
<text text-anchor="start" x="295.5" y="-898.8" font-family="sans" font-size="10.00" fill="#000000"> </text>
<text text-anchor="start" x="299.5" y="-898.8" font-family="sans" font-weight="bold" font-size="14.00" fill="#000000">output →</text>
<text text-anchor="start" x="360.5" y="-898.8" font-family="sans" font-size="10.00" fill="#000000"> </text>
<text text-anchor="start" x="15.5" y="-879" font-family="monospace" font-size="10.00" fill="#000000">stats/reads/{tool}/{sample}_{library}_{read_type_trim}.tsv</text>
<polygon fill="#57add9" stroke="#57add9" points="9.5,-953 9.5,-953 371.5,-953 371.5,-953 9.5,-953"/>
<polygon fill="#57add9" stroke="#57add9" points="9.5,-913 9.5,-913 371.5,-913 371.5,-913 9.5,-913"/>
<polygon fill="none" stroke="#57add9" stroke-width="2" points="9,-870 9,-982 370,-982 370,-870 9,-870"/>
</g>
<!-- 2&#45;&gt;1 -->
<g id="edge3" class="edge">
<title>2&#45;&gt;1</title>
<path fill="none" stroke="#c0c0c0" stroke-width="2" d="M192.223,-868.8164C194.9709,-811.1117 199.3946,-718.2143 203.5785,-630.3518"/>
<polygon fill="#c0c0c0" stroke="#c0c0c0" stroke-width="2" points="207.0813,-630.3732 204.061,-620.218 200.0893,-630.0402 207.0813,-630.3732"/>
</g>
<!-- 3 -->
<g id="node4" class="node">
<title>3</title>
<text text-anchor="start" x="403.5" y="-1493.6" font-family="sans" font-weight="bold" font-size="18.00" fill="#000000">merge_lanes</text>
<text text-anchor="start" x="256.5" y="-1469.8" font-family="sans" font-size="10.00" fill="#000000"> </text>
<text text-anchor="start" x="260.5" y="-1469.8" font-family="sans" font-weight="bold" font-size="14.00" fill="#000000">↪ input</text>
<text text-anchor="start" x="313.5" y="-1469.8" font-family="sans" font-size="10.00" fill="#000000"> </text>
<text text-anchor="start" x="256.5" y="-1450" font-family="monospace" font-size="10.00" fill="#000000">&lt;input function&gt;</text>
<text text-anchor="start" x="590.5" y="-1429.8" font-family="sans" font-size="10.00" fill="#000000"> </text>
<text text-anchor="start" x="594.5" y="-1429.8" font-family="sans" font-weight="bold" font-size="14.00" fill="#000000">output →</text>
<text text-anchor="start" x="655.5" y="-1429.8" font-family="sans" font-size="10.00" fill="#000000"> </text>
<text text-anchor="start" x="256.5" y="-1410" font-family="monospace" font-size="10.00" fill="#000000">temp/reads/merge_lanes/{sample}_{library}_{read_type_trim}.fastq.gz</text>
<polygon fill="#add957" stroke="#add957" points="250.5,-1484 250.5,-1484 666.5,-1484 666.5,-1484 250.5,-1484"/>
<polygon fill="#add957" stroke="#add957" points="250.5,-1444 250.5,-1444 666.5,-1444 666.5,-1444 250.5,-1444"/>
<polygon fill="none" stroke="#add957" stroke-width="2" points="250,-1401 250,-1513 665,-1513 665,-1401 250,-1401"/>
</g>
<!-- 3&#45;&gt;2 -->
<g id="edge5" class="edge">
<title>3&#45;&gt;2</title>
<path fill="none" stroke="#c0c0c0" stroke-width="2" d="M287.6416,-1399.8721C270.1576,-1389.661 253.6499,-1377.7794 239.5,-1364 135.3192,-1262.5474 146.4413,-1190.5282 162.5,-1046 164.422,-1028.702 167.857,-1010.255 171.6467,-993.144"/>
<polygon fill="#c0c0c0" stroke="#c0c0c0" stroke-width="2" points="175.0936,-993.771 173.9102,-983.2424 168.2696,-992.2109 175.0936,-993.771"/>
</g>
<!-- 5 -->
<g id="node6" class="node">
<title>5</title>
<text text-anchor="start" x="660.5" y="-989.6" font-family="sans" font-weight="bold" font-size="18.00" fill="#000000">nonpareil_infer</text>
<text text-anchor="start" x="521.5" y="-965.8" font-family="sans" font-size="10.00" fill="#000000"> </text>
<text text-anchor="start" x="525.5" y="-965.8" font-family="sans" font-weight="bold" font-size="14.00" fill="#000000">↪ input</text>
<text text-anchor="start" x="578.5" y="-965.8" font-family="sans" font-size="10.00" fill="#000000"> </text>
<text text-anchor="start" x="521.5" y="-946" font-family="monospace" font-size="10.00" fill="#000000">&lt;input function&gt;</text>
<text text-anchor="start" x="861.5" y="-925.8" font-family="sans" font-size="10.00" fill="#000000"> </text>
<text text-anchor="start" x="865.5" y="-925.8" font-family="sans" font-weight="bold" font-size="14.00" fill="#000000">output →</text>
<text text-anchor="start" x="926.5" y="-925.8" font-family="sans" font-size="10.00" fill="#000000"> </text>
<text text-anchor="start" x="521.5" y="-906" font-family="monospace" font-size="10.00" fill="#000000">stats/reads/nonpareil/{tool}/{sample}_{library}_{read_type_trim}.log</text>
<text text-anchor="start" x="521.5" y="-888" font-family="monospace" font-size="10.00" fill="#000000">stats/reads/nonpareil/{tool}/{sample}_{library}_{read_type_trim}.npa</text>
<text text-anchor="start" x="521.5" y="-870" font-family="monospace" font-size="10.00" fill="#000000">stats/reads/nonpareil/{tool}/{sample}_{library}_{read_type_trim}.npc</text>
<text text-anchor="start" x="521.5" y="-852" font-family="monospace" font-size="10.00" fill="#000000">stats/reads/nonpareil/{tool}/{sample}_{library}_{read_type_trim}.npo</text>
<polygon fill="#57d957" stroke="#57d957" points="515.5,-980 515.5,-980 937.5,-980 937.5,-980 515.5,-980"/>
<polygon fill="#57d957" stroke="#57d957" points="515.5,-940 515.5,-940 937.5,-940 937.5,-940 515.5,-940"/>
<polygon fill="none" stroke="#57d957" stroke-width="2" points="515,-843 515,-1009 936,-1009 936,-843 515,-843"/>
</g>
<!-- 3&#45;&gt;5 -->
<g id="edge9" class="edge">
<title>3&#45;&gt;5</title>
<path fill="none" stroke="#c0c0c0" stroke-width="2" d="M628.6546,-1399.8739C645.7479,-1389.683 661.8105,-1377.8055 675.5,-1364 763.9409,-1274.8097 759.5368,-1119.9689 744.9813,-1020.3052"/>
<polygon fill="#c0c0c0" stroke="#c0c0c0" stroke-width="2" points="748.4138,-1019.5965 743.4491,-1010.2369 741.4935,-1020.6497 748.4138,-1019.5965"/>
</g>
<!-- 6 -->
<g id="node7" class="node">
<title>6</title>
<text text-anchor="start" x="424.5" y="-1343.6" font-family="sans" font-weight="bold" font-size="18.00" fill="#000000">vsearch</text>
<text text-anchor="start" x="256.5" y="-1319.8" font-family="sans" font-size="10.00" fill="#000000"> </text>
<text text-anchor="start" x="260.5" y="-1319.8" font-family="sans" font-weight="bold" font-size="14.00" fill="#000000">↪ input</text>
<text text-anchor="start" x="313.5" y="-1319.8" font-family="sans" font-size="10.00" fill="#000000"> </text>
<text text-anchor="start" x="256.5" y="-1300" font-family="monospace" font-size="10.00" fill="#000000">temp/reads/merge_lanes/{sample}_{library}_{read_type_trim}.fastq.gz</text>
<text text-anchor="start" x="590.5" y="-1279.8" font-family="sans" font-size="10.00" fill="#000000"> </text>
<text text-anchor="start" x="594.5" y="-1279.8" font-family="sans" font-weight="bold" font-size="14.00" fill="#000000">output →</text>
<text text-anchor="start" x="655.5" y="-1279.8" font-family="sans" font-size="10.00" fill="#000000"> </text>
<text text-anchor="start" x="256.5" y="-1260" font-family="monospace" font-size="10.00" fill="#000000">stats/reads/derep/{sample}_{library}_{read_type_trim}.log</text>
<text text-anchor="start" x="256.5" y="-1242" font-family="monospace" font-size="10.00" fill="#000000">temp/reads/derep/{sample}_{library}_{read_type_trim}.fastq.gz</text>
<polygon fill="#5782d9" stroke="#5782d9" points="250.5,-1334 250.5,-1334 666.5,-1334 666.5,-1334 250.5,-1334"/>
<polygon fill="#5782d9" stroke="#5782d9" points="250.5,-1294 250.5,-1294 666.5,-1294 666.5,-1294 250.5,-1294"/>
<polygon fill="none" stroke="#5782d9" stroke-width="2" points="250,-1233 250,-1363 665,-1363 665,-1233 250,-1233"/>
</g>
<!-- 3&#45;&gt;6 -->
<g id="edge12" class="edge">
<title>3&#45;&gt;6</title>
<path fill="none" stroke="#c0c0c0" stroke-width="2" d="M457.5,-1399.5974C457.5,-1391.4394 457.5,-1382.9443 457.5,-1374.4945"/>
<polygon fill="#c0c0c0" stroke="#c0c0c0" stroke-width="2" points="461.0001,-1374.2358 457.5,-1364.2358 454.0001,-1374.2359 461.0001,-1374.2358"/>
</g>
<!-- 4 -->
<g id="node5" class="node">
<title>4</title>
<text text-anchor="start" x="648" y="-785.6" font-family="sans" font-weight="bold" font-size="18.00" fill="#000000">nonpareil_plot</text>
<text text-anchor="start" x="500.5" y="-761.8" font-family="sans" font-size="10.00" fill="#000000"> </text>
<text text-anchor="start" x="504.5" y="-761.8" font-family="sans" font-weight="bold" font-size="14.00" fill="#000000">↪ input</text>
<text text-anchor="start" x="557.5" y="-761.8" font-family="sans" font-size="10.00" fill="#000000"> </text>
<text text-anchor="start" x="500.5" y="-742" font-family="monospace" font-size="10.00" fill="#000000">stats/reads/nonpareil/{tool}/{sample}_{library}_{read_type_trim}.npo</text>
<text text-anchor="start" x="852.5" y="-721.8" font-family="sans" font-size="10.00" fill="#000000"> </text>
<text text-anchor="start" x="856.5" y="-721.8" font-family="sans" font-weight="bold" font-size="14.00" fill="#000000">output →</text>
<text text-anchor="start" x="917.5" y="-721.8" font-family="sans" font-size="10.00" fill="#000000"> </text>
<text text-anchor="start" x="500.5" y="-702" font-family="monospace" font-size="10.00" fill="#000000">reports/reads/nonpareil/{tool}/{sample}_{library}_{read_type_trim}.pdf</text>
<text text-anchor="start" x="500.5" y="-684" font-family="monospace" font-size="10.00" fill="#000000">stats/reads/nonpareil/{tool}/{sample}_{library}_{read_type_trim}.json</text>
<text text-anchor="start" x="500.5" y="-666" font-family="monospace" font-size="10.00" fill="#000000">stats/reads/nonpareil/{tool}/{sample}_{library}_{read_type_trim}.tsv</text>
<polygon fill="#57d982" stroke="#57d982" points="494.5,-776 494.5,-776 928.5,-776 928.5,-776 494.5,-776"/>
<polygon fill="#57d982" stroke="#57d982" points="494.5,-736 494.5,-736 928.5,-736 928.5,-736 494.5,-736"/>
<polygon fill="none" stroke="#57d982" stroke-width="2" points="494,-657 494,-805 927,-805 927,-657 494,-657"/>
</g>
<!-- 4&#45;&gt;1 -->
<g id="edge4" class="edge">
<title>4&#45;&gt;1</title>
<path fill="none" stroke="#c0c0c0" stroke-width="2" d="M597.6397,-655.9115C550.1912,-624.3429 493.2414,-586.453 437.937,-549.6577"/>
<polygon fill="#c0c0c0" stroke="#c0c0c0" stroke-width="2" points="439.6989,-546.6261 429.4345,-544.0007 435.8214,-552.454 439.6989,-546.6261"/>
</g>
<!-- 5&#45;&gt;4 -->
<g id="edge8" class="edge">
<title>5&#45;&gt;4</title>
<path fill="none" stroke="#c0c0c0" stroke-width="2" d="M719.0298,-841.8876C718.3815,-833.46 717.7228,-824.8965 717.0735,-816.4552"/>
<polygon fill="#c0c0c0" stroke="#c0c0c0" stroke-width="2" points="720.5442,-815.9389 716.2874,-806.2368 713.5648,-816.4758 720.5442,-815.9389"/>
</g>
<!-- 6&#45;&gt;2 -->
<g id="edge6" class="edge">
<title>6&#45;&gt;2</title>
<path fill="none" stroke="#c0c0c0" stroke-width="2" d="M248.8002,-1241.4557C230.1132,-1229.1666 213.4124,-1214.208 200.5,-1196 158.8764,-1137.3058 163.1801,-1052.0244 173.3193,-993.0828"/>
<polygon fill="#c0c0c0" stroke="#c0c0c0" stroke-width="2" points="176.7839,-993.5929 175.1299,-983.1279 169.8969,-992.3402 176.7839,-993.5929"/>
</g>
<!-- 6&#45;&gt;5 -->
<g id="edge10" class="edge">
<title>6&#45;&gt;5</title>
<path fill="none" stroke="#c0c0c0" stroke-width="2" d="M666.1998,-1241.4557C684.8868,-1229.1666 701.5876,-1214.208 714.5,-1196 750.0854,-1145.8204 752.102,-1076.208 745.6025,-1020.2357"/>
<polygon fill="#c0c0c0" stroke="#c0c0c0" stroke-width="2" points="749.074,-1019.7893 744.3451,-1010.3084 742.1295,-1020.6689 749.074,-1019.7893"/>
</g>
<!-- 7 -->
<g id="node8" class="node">
<title>7</title>
<text text-anchor="start" x="391" y="-1175.6" font-family="sans" font-weight="bold" font-size="18.00" fill="#000000">low_complexity</text>
<text text-anchor="start" x="217.5" y="-1151.8" font-family="sans" font-size="10.00" fill="#000000"> </text>
<text text-anchor="start" x="221.5" y="-1151.8" font-family="sans" font-weight="bold" font-size="14.00" fill="#000000">↪ input</text>
<text text-anchor="start" x="274.5" y="-1151.8" font-family="sans" font-size="10.00" fill="#000000"> </text>
<text text-anchor="start" x="217.5" y="-1132" font-family="monospace" font-size="10.00" fill="#000000">temp/reads/derep/{sample}_{library}_{read_type_trim}.fastq.gz</text>
<text text-anchor="start" x="629.5" y="-1111.8" font-family="sans" font-size="10.00" fill="#000000"> </text>
<text text-anchor="start" x="633.5" y="-1111.8" font-family="sans" font-weight="bold" font-size="14.00" fill="#000000">output →</text>
<text text-anchor="start" x="694.5" y="-1111.8" font-family="sans" font-size="10.00" fill="#000000"> </text>
<text text-anchor="start" x="217.5" y="-1092" font-family="monospace" font-size="10.00" fill="#000000">results/reads/low_complexity/{sample}_{library}_{read_type_trim}.fastq.gz</text>
<text text-anchor="start" x="217.5" y="-1074" font-family="monospace" font-size="10.00" fill="#000000">stats/reads/low_complexity/{sample}_{library}_{read_type_trim}.txt</text>
<text text-anchor="start" x="217.5" y="-1056" font-family="monospace" font-size="10.00" fill="#000000">temp/reads/low_complexity/{sample}_{library}_{read_type_trim}.discarded.fastq.gz</text>
<polygon fill="#d9d957" stroke="#d9d957" points="211.5,-1166 211.5,-1166 705.5,-1166 705.5,-1166 211.5,-1166"/>
<polygon fill="#d9d957" stroke="#d9d957" points="211.5,-1126 211.5,-1126 705.5,-1126 705.5,-1126 211.5,-1126"/>
<polygon fill="none" stroke="#d9d957" stroke-width="2" points="211,-1047 211,-1195 704,-1195 704,-1047 211,-1047"/>
</g>
<!-- 6&#45;&gt;7 -->
<g id="edge13" class="edge">
<title>6&#45;&gt;7</title>
<path fill="none" stroke="#c0c0c0" stroke-width="2" d="M457.5,-1231.84C457.5,-1223.4415 457.5,-1214.7559 457.5,-1206.1133"/>
<polygon fill="#c0c0c0" stroke="#c0c0c0" stroke-width="2" points="461.0001,-1206.0073 457.5,-1196.0073 454.0001,-1206.0073 461.0001,-1206.0073"/>
</g>
<!-- 7&#45;&gt;0 -->
<g id="edge1" class="edge">
<title>7&#45;&gt;0</title>
<path fill="none" stroke="#c0c0c0" stroke-width="2" d="M462.869,-1045.6724C475.6317,-851.357 502.1827,-337.5139 438.5,-182 434.5746,-172.4142 429.3816,-163.1752 423.4098,-154.4068"/>
<polygon fill="#c0c0c0" stroke="#c0c0c0" stroke-width="2" points="426.146,-152.2171 417.4616,-146.1482 420.466,-156.3082 426.146,-152.2171"/>
</g>
<!-- 7&#45;&gt;2 -->
<g id="edge7" class="edge">
<title>7&#45;&gt;2</title>
<path fill="none" stroke="#c0c0c0" stroke-width="2" d="M354.2676,-1045.8868C328.5667,-1027.1866 301.2696,-1007.3249 276.4414,-989.2596"/>
<polygon fill="#c0c0c0" stroke="#c0c0c0" stroke-width="2" points="278.2673,-986.2597 268.122,-983.2063 274.1488,-991.92 278.2673,-986.2597"/>
</g>
<!-- 7&#45;&gt;5 -->
<g id="edge11" class="edge">
<title>7&#45;&gt;5</title>
<path fill="none" stroke="#c0c0c0" stroke-width="2" d="M560.7324,-1045.8868C574.0425,-1036.2023 587.7807,-1026.2062 601.3824,-1016.3095"/>
<polygon fill="#c0c0c0" stroke="#c0c0c0" stroke-width="2" points="603.8018,-1018.8775 609.8286,-1010.1639 599.6833,-1013.2173 603.8018,-1018.8775"/>
</g>
</g>
</svg>
