<?xml version="1.0" encoding="UTF-8" standalone="no"?>
<!DOCTYPE svg PUBLIC "-//W3C//DTD SVG 1.1//EN"
 "http://www.w3.org/Graphics/SVG/1.1/DTD/svg11.dtd">
<!-- Generated by graphviz version 2.40.1 (0)
 -->
<!-- Title: snakemake_dag Pages: 1 -->
<svg width="975pt" height="1522pt"
 viewBox="0.00 0.00 975.00 1522.00" xmlns="http://www.w3.org/2000/svg" xmlns:xlink="http://www.w3.org/1999/xlink">
<g id="graph0" class="graph" transform="scale(1 1) rotate(0) translate(4 1518)">
<title>snakemake_dag</title>
<polygon fill="#ffffff" stroke="transparent" points="-4,4 -4,-1518 971,-1518 971,4 -4,4"/>
<!-- 0 -->
<g id="node1" class="node">
<title>0</title>
<text text-anchor="start" x="351.5" y="-125.6" font-family="sans" font-weight="bold" font-size="18.00" fill="#000000">all</text>
<text text-anchor="start" x="166.5" y="-101.8" font-family="sans" font-size="10.00" fill="#000000"> </text>
<text text-anchor="start" x="170.5" y="-101.8" font-family="sans" font-weight="bold" font-size="14.00" fill="#000000">↪ input</text>
<text text-anchor="start" x="223.5" y="-101.8" font-family="sans" font-size="10.00" fill="#000000"> </text>
<text text-anchor="start" x="166.5" y="-82" font-family="monospace" font-size="10.00" fill="#000000">reports/multiqc.html</text>
<text text-anchor="start" x="166.5" y="-64" font-family="monospace" font-size="10.00" fill="#000000">results/reads/low_complexity/HD827sonic_1_lib1_collapsed.fastq.gz</text>
<text text-anchor="start" x="166.5" y="-46" font-family="monospace" font-size="10.00" fill="#000000">results/reads/low_complexity/HD827sonic_2_lib1_collapsed.fastq.gz</text>
<text text-anchor="start" x="166.5" y="-28" font-family="monospace" font-size="10.00" fill="#000000">results/reads/low_complexity/HD827sonic_2_lib2_collapsed.fastq.gz</text>
<text text-anchor="start" x="550.5" y="-10" font-family="sans" font-size="10.00" fill="#000000"> &#160;</text>
<polygon fill="#d95757" stroke="#d95757" points="160.5,-116 160.5,-116 564.5,-116 564.5,-116 160.5,-116"/>
<polygon fill="#d95757" stroke="#d95757" points="160.5,-22 160.5,-22 564.5,-22 564.5,-22 160.5,-22"/>
<polygon fill="none" stroke="#d95757" stroke-width="2" points="160,-1 160,-145 563,-145 563,-1 160,-1"/>
</g>
<!-- 1 -->
<g id="node2" class="node">
<title>1</title>
<text text-anchor="start" x="203.5" y="-599.6" font-family="sans" font-weight="bold" font-size="18.00" fill="#000000">multiqc</text>
<text text-anchor="start" x="19.5" y="-575.8" font-family="sans" font-size="10.00" fill="#000000"> </text>
<text text-anchor="start" x="23.5" y="-575.8" font-family="sans" font-weight="bold" font-size="14.00" fill="#000000">↪ input</text>
<text text-anchor="start" x="76.5" y="-575.8" font-family="sans" font-size="10.00" fill="#000000"> </text>
<text text-anchor="start" x="19.5" y="-556" font-family="monospace" font-size="10.00" fill="#000000">stats/reads/fastqc/derep/HD827sonic_1_lib1_collapsed_fastqc.zip</text>
<text text-anchor="start" x="19.5" y="-538" font-family="monospace" font-size="10.00" fill="#000000">stats/reads/fastqc/derep/HD827sonic_2_lib1_collapsed_fastqc.zip</text>
<text text-anchor="start" x="19.5" y="-520" font-family="monospace" font-size="10.00" fill="#000000">stats/reads/fastqc/derep/HD827sonic_2_lib2_collapsed_fastqc.zip</text>
<text text-anchor="start" x="19.5" y="-502" font-family="monospace" font-size="10.00" fill="#000000">stats/reads/fastqc/low_complexity/HD827sonic_1_lib1_collapsed_fastqc.zip</text>
<text text-anchor="start" x="19.5" y="-484" font-family="monospace" font-size="10.00" fill="#000000">stats/reads/fastqc/low_complexity/HD827sonic_2_lib1_collapsed_fastqc.zip</text>
<text text-anchor="start" x="19.5" y="-466" font-family="monospace" font-size="10.00" fill="#000000">stats/reads/fastqc/low_complexity/HD827sonic_2_lib2_collapsed_fastqc.zip</text>
<text text-anchor="start" x="19.5" y="-448" font-family="monospace" font-size="10.00" fill="#000000">stats/reads/fastqc/merge_lanes/HD827sonic_1_lib1_collapsed_fastqc.zip</text>
<text text-anchor="start" x="19.5" y="-430" font-family="monospace" font-size="10.00" fill="#000000">stats/reads/fastqc/merge_lanes/HD827sonic_2_lib1_collapsed_fastqc.zip</text>
<text text-anchor="start" x="19.5" y="-412" font-family="monospace" font-size="10.00" fill="#000000">stats/reads/fastqc/merge_lanes/HD827sonic_2_lib2_collapsed_fastqc.zip</text>
<text text-anchor="start" x="19.5" y="-394" font-family="monospace" font-size="10.00" fill="#000000">stats/reads/nonpareil/derep/HD827sonic_1_lib1_collapsed.json</text>
<text text-anchor="start" x="19.5" y="-376" font-family="monospace" font-size="10.00" fill="#000000">stats/reads/nonpareil/derep/HD827sonic_2_lib1_collapsed.json</text>
<text text-anchor="start" x="19.5" y="-358" font-family="monospace" font-size="10.00" fill="#000000">stats/reads/nonpareil/derep/HD827sonic_2_lib2_collapsed.json</text>
<text text-anchor="start" x="19.5" y="-340" font-family="monospace" font-size="10.00" fill="#000000">stats/reads/nonpareil/low_complexity/HD827sonic_1_lib1_collapsed.json</text>
<text text-anchor="start" x="19.5" y="-322" font-family="monospace" font-size="10.00" fill="#000000">stats/reads/nonpareil/low_complexity/HD827sonic_2_lib1_collapsed.json</text>
<text text-anchor="start" x="19.5" y="-304" font-family="monospace" font-size="10.00" fill="#000000">stats/reads/nonpareil/low_complexity/HD827sonic_2_lib2_collapsed.json</text>
<text text-anchor="start" x="19.5" y="-286" font-family="monospace" font-size="10.00" fill="#000000">stats/reads/nonpareil/merge_lanes/HD827sonic_1_lib1_collapsed.json</text>
<text text-anchor="start" x="19.5" y="-268" font-family="monospace" font-size="10.00" fill="#000000">stats/reads/nonpareil/merge_lanes/HD827sonic_2_lib1_collapsed.json</text>
<text text-anchor="start" x="19.5" y="-250" font-family="monospace" font-size="10.00" fill="#000000">stats/reads/nonpareil/merge_lanes/HD827sonic_2_lib2_collapsed.json</text>
<text text-anchor="start" x="383.5" y="-229.8" font-family="sans" font-size="10.00" fill="#000000"> </text>
<text text-anchor="start" x="387.5" y="-229.8" font-family="sans" font-weight="bold" font-size="14.00" fill="#000000">output →</text>
<text text-anchor="start" x="448.5" y="-229.8" font-family="sans" font-size="10.00" fill="#000000"> </text>
<text text-anchor="start" x="19.5" y="-210" font-family="monospace" font-size="10.00" fill="#000000">reports/multiqc.html</text>
<text text-anchor="start" x="19.5" y="-192" font-family="monospace" font-size="10.00" fill="#000000">reports/multiqc_data.zip</text>
<polygon fill="#57d957" stroke="#57d957" points="13.5,-590 13.5,-590 459.5,-590 459.5,-590 13.5,-590"/>
<polygon fill="#57d957" stroke="#57d957" points="13.5,-244 13.5,-244 459.5,-244 459.5,-244 13.5,-244"/>
<polygon fill="none" stroke="#57d957" stroke-width="2" points="13,-183 13,-619 458,-619 458,-183 13,-183"/>
</g>
<!-- 1&#45;&gt;0 -->
<g id="edge2" class="edge">
<title>1&#45;&gt;0</title>
<path fill="none" stroke="#c0c0c0" stroke-width="2" d="M319.7188,-181.7637C323.1462,-172.8417 326.4787,-164.1666 329.6687,-155.8626"/>
<polygon fill="#c0c0c0" stroke="#c0c0c0" stroke-width="2" points="333.0263,-156.8822 333.3451,-146.2922 326.4918,-154.372 333.0263,-156.8822"/>
</g>
<!-- 2 -->
<g id="node3" class="node">
<title>2</title>
<text text-anchor="start" x="197.5" y="-971.6" font-family="sans" font-weight="bold" font-size="18.00" fill="#000000">fastqc</text>
<text text-anchor="start" x="7.5" y="-947.8" font-family="sans" font-size="10.00" fill="#000000"> </text>
<text text-anchor="start" x="11.5" y="-947.8" font-family="sans" font-weight="bold" font-size="14.00" fill="#000000">↪ input</text>
<text text-anchor="start" x="64.5" y="-947.8" font-family="sans" font-size="10.00" fill="#000000"> </text>
<text text-anchor="start" x="7.5" y="-928" font-family="monospace" font-size="10.00" fill="#000000">&lt;input function&gt;</text>
<text text-anchor="start" x="371.5" y="-907.8" font-family="sans" font-size="10.00" fill="#000000"> </text>
<text text-anchor="start" x="375.5" y="-907.8" font-family="sans" font-weight="bold" font-size="14.00" fill="#000000">output →</text>
<text text-anchor="start" x="436.5" y="-907.8" font-family="sans" font-size="10.00" fill="#000000"> </text>
<text text-anchor="start" x="7.5" y="-888" font-family="monospace" font-size="10.00" fill="#000000">stats/reads/fastqc/{tool}/{sample}_{library}_{read_type_trim}.html</text>
<text text-anchor="start" x="7.5" y="-870" font-family="monospace" font-size="10.00" fill="#000000">stats/reads/fastqc/{tool}/{sample}_{library}_{read_type_trim}_fastqc.zip</text>
<polygon fill="#d9ad57" stroke="#d9ad57" points="1.5,-962 1.5,-962 447.5,-962 447.5,-962 1.5,-962"/>
<polygon fill="#d9ad57" stroke="#d9ad57" points="1.5,-922 1.5,-922 447.5,-922 447.5,-922 1.5,-922"/>
<polygon fill="none" stroke="#d9ad57" stroke-width="2" points="1,-861 1,-991 446,-991 446,-861 1,-861"/>
</g>
<!-- 2&#45;&gt;1 -->
<g id="edge4" class="edge">
<title>2&#45;&gt;1</title>
<path fill="none" stroke="#c0c0c0" stroke-width="2" d="M225.0137,-859.7744C226.3412,-801.697 228.3518,-713.7332 230.2585,-630.3135"/>
<polygon fill="#c0c0c0" stroke="#c0c0c0" stroke-width="2" points="233.761,-630.2426 230.4905,-620.1652 226.7628,-630.0825 233.761,-630.2426"/>
</g>
<!-- 3 -->
<g id="node4" class="node">
<title>3</title>
<text text-anchor="start" x="433.5" y="-1493.6" font-family="sans" font-weight="bold" font-size="18.00" fill="#000000">merge_lanes</text>
<text text-anchor="start" x="286.5" y="-1469.8" font-family="sans" font-size="10.00" fill="#000000"> </text>
<text text-anchor="start" x="290.5" y="-1469.8" font-family="sans" font-weight="bold" font-size="14.00" fill="#000000">↪ input</text>
<text text-anchor="start" x="343.5" y="-1469.8" font-family="sans" font-size="10.00" fill="#000000"> </text>
<text text-anchor="start" x="286.5" y="-1450" font-family="monospace" font-size="10.00" fill="#000000">&lt;input function&gt;</text>
<text text-anchor="start" x="620.5" y="-1429.8" font-family="sans" font-size="10.00" fill="#000000"> </text>
<text text-anchor="start" x="624.5" y="-1429.8" font-family="sans" font-weight="bold" font-size="14.00" fill="#000000">output →</text>
<text text-anchor="start" x="685.5" y="-1429.8" font-family="sans" font-size="10.00" fill="#000000"> </text>
<text text-anchor="start" x="286.5" y="-1410" font-family="monospace" font-size="10.00" fill="#000000">temp/reads/merge_lanes/{sample}_{library}_{read_type_trim}.fastq.gz</text>
<polygon fill="#82d957" stroke="#82d957" points="280.5,-1484 280.5,-1484 696.5,-1484 696.5,-1484 280.5,-1484"/>
<polygon fill="#82d957" stroke="#82d957" points="280.5,-1444 280.5,-1444 696.5,-1444 696.5,-1444 280.5,-1444"/>
<polygon fill="none" stroke="#82d957" stroke-width="2" points="280,-1401 280,-1513 695,-1513 695,-1401 280,-1401"/>
</g>
<!-- 3&#45;&gt;2 -->
<g id="edge5" class="edge">
<title>3&#45;&gt;2</title>
<path fill="none" stroke="#c0c0c0" stroke-width="2" d="M317.2337,-1399.8502C299.8753,-1389.6501 283.5083,-1377.777 269.5,-1364 165.9691,-1262.1787 177.3241,-1190.1916 194.5,-1046 196.2096,-1031.6475 199.031,-1016.5295 202.2597,-1002.0451"/>
<polygon fill="#c0c0c0" stroke="#c0c0c0" stroke-width="2" points="205.7081,-1002.6674 204.5514,-992.1359 198.8881,-1001.0901 205.7081,-1002.6674"/>
</g>
<!-- 5 -->
<g id="node6" class="node">
<title>5</title>
<text text-anchor="start" x="690.5" y="-989.6" font-family="sans" font-weight="bold" font-size="18.00" fill="#000000">nonpareil_infer</text>
<text text-anchor="start" x="551.5" y="-965.8" font-family="sans" font-size="10.00" fill="#000000"> </text>
<text text-anchor="start" x="555.5" y="-965.8" font-family="sans" font-weight="bold" font-size="14.00" fill="#000000">↪ input</text>
<text text-anchor="start" x="608.5" y="-965.8" font-family="sans" font-size="10.00" fill="#000000"> </text>
<text text-anchor="start" x="551.5" y="-946" font-family="monospace" font-size="10.00" fill="#000000">&lt;input function&gt;</text>
<text text-anchor="start" x="891.5" y="-925.8" font-family="sans" font-size="10.00" fill="#000000"> </text>
<text text-anchor="start" x="895.5" y="-925.8" font-family="sans" font-weight="bold" font-size="14.00" fill="#000000">output →</text>
<text text-anchor="start" x="956.5" y="-925.8" font-family="sans" font-size="10.00" fill="#000000"> </text>
<text text-anchor="start" x="551.5" y="-906" font-family="monospace" font-size="10.00" fill="#000000">stats/reads/nonpareil/{tool}/{sample}_{library}_{read_type_trim}.log</text>
<text text-anchor="start" x="551.5" y="-888" font-family="monospace" font-size="10.00" fill="#000000">stats/reads/nonpareil/{tool}/{sample}_{library}_{read_type_trim}.npa</text>
<text text-anchor="start" x="551.5" y="-870" font-family="monospace" font-size="10.00" fill="#000000">stats/reads/nonpareil/{tool}/{sample}_{library}_{read_type_trim}.npc</text>
<text text-anchor="start" x="551.5" y="-852" font-family="monospace" font-size="10.00" fill="#000000">stats/reads/nonpareil/{tool}/{sample}_{library}_{read_type_trim}.npo</text>
<polygon fill="#57d982" stroke="#57d982" points="545.5,-980 545.5,-980 967.5,-980 967.5,-980 545.5,-980"/>
<polygon fill="#57d982" stroke="#57d982" points="545.5,-940 545.5,-940 967.5,-940 967.5,-940 545.5,-940"/>
<polygon fill="none" stroke="#57d982" stroke-width="2" points="545,-843 545,-1009 966,-1009 966,-843 545,-843"/>
</g>
<!-- 3&#45;&gt;5 -->
<g id="edge9" class="edge">
<title>3&#45;&gt;5</title>
<path fill="none" stroke="#c0c0c0" stroke-width="2" d="M658.6546,-1399.8739C675.7479,-1389.683 691.8105,-1377.8055 705.5,-1364 793.9409,-1274.8097 789.5368,-1119.9689 774.9813,-1020.3052"/>
<polygon fill="#c0c0c0" stroke="#c0c0c0" stroke-width="2" points="778.4138,-1019.5965 773.4491,-1010.2369 771.4935,-1020.6497 778.4138,-1019.5965"/>
</g>
<!-- 6 -->
<g id="node7" class="node">
<title>6</title>
<text text-anchor="start" x="454.5" y="-1343.6" font-family="sans" font-weight="bold" font-size="18.00" fill="#000000">vsearch</text>
<text text-anchor="start" x="286.5" y="-1319.8" font-family="sans" font-size="10.00" fill="#000000"> </text>
<text text-anchor="start" x="290.5" y="-1319.8" font-family="sans" font-weight="bold" font-size="14.00" fill="#000000">↪ input</text>
<text text-anchor="start" x="343.5" y="-1319.8" font-family="sans" font-size="10.00" fill="#000000"> </text>
<text text-anchor="start" x="286.5" y="-1300" font-family="monospace" font-size="10.00" fill="#000000">temp/reads/merge_lanes/{sample}_{library}_{read_type_trim}.fastq.gz</text>
<text text-anchor="start" x="620.5" y="-1279.8" font-family="sans" font-size="10.00" fill="#000000"> </text>
<text text-anchor="start" x="624.5" y="-1279.8" font-family="sans" font-weight="bold" font-size="14.00" fill="#000000">output →</text>
<text text-anchor="start" x="685.5" y="-1279.8" font-family="sans" font-size="10.00" fill="#000000"> </text>
<text text-anchor="start" x="286.5" y="-1260" font-family="monospace" font-size="10.00" fill="#000000">stats/reads/derep/{sample}_{library}_{read_type_trim}.log</text>
<text text-anchor="start" x="286.5" y="-1242" font-family="monospace" font-size="10.00" fill="#000000">temp/reads/derep/{sample}_{library}_{read_type_trim}.fastq.gz</text>
<polygon fill="#5782d9" stroke="#5782d9" points="280.5,-1334 280.5,-1334 696.5,-1334 696.5,-1334 280.5,-1334"/>
<polygon fill="#5782d9" stroke="#5782d9" points="280.5,-1294 280.5,-1294 696.5,-1294 696.5,-1294 280.5,-1294"/>
<polygon fill="none" stroke="#5782d9" stroke-width="2" points="280,-1233 280,-1363 695,-1363 695,-1233 280,-1233"/>
</g>
<!-- 3&#45;&gt;6 -->
<g id="edge12" class="edge">
<title>3&#45;&gt;6</title>
<path fill="none" stroke="#c0c0c0" stroke-width="2" d="M487.5,-1399.5974C487.5,-1391.4394 487.5,-1382.9443 487.5,-1374.4945"/>
<polygon fill="#c0c0c0" stroke="#c0c0c0" stroke-width="2" points="491.0001,-1374.2358 487.5,-1364.2358 484.0001,-1374.2359 491.0001,-1374.2358"/>
</g>
<!-- 4 -->
<g id="node5" class="node">
<title>4</title>
<text text-anchor="start" x="678" y="-785.6" font-family="sans" font-weight="bold" font-size="18.00" fill="#000000">nonpareil_plot</text>
<text text-anchor="start" x="530.5" y="-761.8" font-family="sans" font-size="10.00" fill="#000000"> </text>
<text text-anchor="start" x="534.5" y="-761.8" font-family="sans" font-weight="bold" font-size="14.00" fill="#000000">↪ input</text>
<text text-anchor="start" x="587.5" y="-761.8" font-family="sans" font-size="10.00" fill="#000000"> </text>
<text text-anchor="start" x="530.5" y="-742" font-family="monospace" font-size="10.00" fill="#000000">stats/reads/nonpareil/{tool}/{sample}_{library}_{read_type_trim}.npo</text>
<text text-anchor="start" x="882.5" y="-721.8" font-family="sans" font-size="10.00" fill="#000000"> </text>
<text text-anchor="start" x="886.5" y="-721.8" font-family="sans" font-weight="bold" font-size="14.00" fill="#000000">output →</text>
<text text-anchor="start" x="947.5" y="-721.8" font-family="sans" font-size="10.00" fill="#000000"> </text>
<text text-anchor="start" x="530.5" y="-702" font-family="monospace" font-size="10.00" fill="#000000">reports/reads/nonpareil/{tool}/{sample}_{library}_{read_type_trim}.pdf</text>
<text text-anchor="start" x="530.5" y="-684" font-family="monospace" font-size="10.00" fill="#000000">stats/reads/nonpareil/{tool}/{sample}_{library}_{read_type_trim}.json</text>
<text text-anchor="start" x="530.5" y="-666" font-family="monospace" font-size="10.00" fill="#000000">stats/reads/nonpareil/{tool}/{sample}_{library}_{read_type_trim}.tsv</text>
<polygon fill="#57d9ad" stroke="#57d9ad" points="524.5,-776 524.5,-776 958.5,-776 958.5,-776 524.5,-776"/>
<polygon fill="#57d9ad" stroke="#57d9ad" points="524.5,-736 524.5,-736 958.5,-736 958.5,-736 524.5,-736"/>
<polygon fill="none" stroke="#57d9ad" stroke-width="2" points="524,-657 524,-805 957,-805 957,-657 524,-657"/>
</g>
<!-- 4&#45;&gt;1 -->
<g id="edge3" class="edge">
<title>4&#45;&gt;1</title>
<path fill="none" stroke="#c0c0c0" stroke-width="2" d="M625.5919,-655.9115C578.5974,-625.2023 522.4487,-588.5111 467.593,-552.6648"/>
<polygon fill="#c0c0c0" stroke="#c0c0c0" stroke-width="2" points="469.4425,-549.6923 459.1567,-547.1519 465.6132,-555.5521 469.4425,-549.6923"/>
</g>
<!-- 5&#45;&gt;4 -->
<g id="edge8" class="edge">
<title>5&#45;&gt;4</title>
<path fill="none" stroke="#c0c0c0" stroke-width="2" d="M749.0298,-841.8876C748.3815,-833.46 747.7228,-824.8965 747.0735,-816.4552"/>
<polygon fill="#c0c0c0" stroke="#c0c0c0" stroke-width="2" points="750.5442,-815.9389 746.2874,-806.2368 743.5648,-816.4758 750.5442,-815.9389"/>
</g>
<!-- 6&#45;&gt;2 -->
<g id="edge6" class="edge">
<title>6&#45;&gt;2</title>
<path fill="none" stroke="#c0c0c0" stroke-width="2" d="M278.8296,-1241.8452C260.0709,-1229.4836 243.346,-1214.4014 230.5,-1196 191.4254,-1140.0271 194.5278,-1060.4013 204.474,-1002.1243"/>
<polygon fill="#c0c0c0" stroke="#c0c0c0" stroke-width="2" points="207.9273,-1002.6964 206.2621,-992.2332 201.0389,-1001.4511 207.9273,-1002.6964"/>
</g>
<!-- 6&#45;&gt;5 -->
<g id="edge10" class="edge">
<title>6&#45;&gt;5</title>
<path fill="none" stroke="#c0c0c0" stroke-width="2" d="M696.1998,-1241.4557C714.8868,-1229.1666 731.5876,-1214.208 744.5,-1196 780.0854,-1145.8204 782.102,-1076.208 775.6025,-1020.2357"/>
<polygon fill="#c0c0c0" stroke="#c0c0c0" stroke-width="2" points="779.074,-1019.7893 774.3451,-1010.3084 772.1295,-1020.6689 779.074,-1019.7893"/>
</g>
<!-- 7 -->
<g id="node8" class="node">
<title>7</title>
<text text-anchor="start" x="421" y="-1175.6" font-family="sans" font-weight="bold" font-size="18.00" fill="#000000">low_complexity</text>
<text text-anchor="start" x="247.5" y="-1151.8" font-family="sans" font-size="10.00" fill="#000000"> </text>
<text text-anchor="start" x="251.5" y="-1151.8" font-family="sans" font-weight="bold" font-size="14.00" fill="#000000">↪ input</text>
<text text-anchor="start" x="304.5" y="-1151.8" font-family="sans" font-size="10.00" fill="#000000"> </text>
<text text-anchor="start" x="247.5" y="-1132" font-family="monospace" font-size="10.00" fill="#000000">temp/reads/derep/{sample}_{library}_{read_type_trim}.fastq.gz</text>
<text text-anchor="start" x="659.5" y="-1111.8" font-family="sans" font-size="10.00" fill="#000000"> </text>
<text text-anchor="start" x="663.5" y="-1111.8" font-family="sans" font-weight="bold" font-size="14.00" fill="#000000">output →</text>
<text text-anchor="start" x="724.5" y="-1111.8" font-family="sans" font-size="10.00" fill="#000000"> </text>
<text text-anchor="start" x="247.5" y="-1092" font-family="monospace" font-size="10.00" fill="#000000">results/reads/low_complexity/{sample}_{library}_{read_type_trim}.fastq.gz</text>
<text text-anchor="start" x="247.5" y="-1074" font-family="monospace" font-size="10.00" fill="#000000">stats/reads/low_complexity/{sample}_{library}_{read_type_trim}.txt</text>
<text text-anchor="start" x="247.5" y="-1056" font-family="monospace" font-size="10.00" fill="#000000">temp/reads/low_complexity/{sample}_{library}_{read_type_trim}.discarded.fastq.gz</text>
<polygon fill="#add957" stroke="#add957" points="241.5,-1166 241.5,-1166 735.5,-1166 735.5,-1166 241.5,-1166"/>
<polygon fill="#add957" stroke="#add957" points="241.5,-1126 241.5,-1126 735.5,-1126 735.5,-1126 241.5,-1126"/>
<polygon fill="none" stroke="#add957" stroke-width="2" points="241,-1047 241,-1195 734,-1195 734,-1047 241,-1047"/>
</g>
<!-- 6&#45;&gt;7 -->
<g id="edge13" class="edge">
<title>6&#45;&gt;7</title>
<path fill="none" stroke="#c0c0c0" stroke-width="2" d="M487.5,-1231.84C487.5,-1223.4415 487.5,-1214.7559 487.5,-1206.1133"/>
<polygon fill="#c0c0c0" stroke="#c0c0c0" stroke-width="2" points="491.0001,-1206.0073 487.5,-1196.0073 484.0001,-1206.0073 491.0001,-1206.0073"/>
</g>
<!-- 7&#45;&gt;0 -->
<g id="edge1" class="edge">
<title>7&#45;&gt;0</title>
<path fill="none" stroke="#c0c0c0" stroke-width="2" d="M493.0133,-1045.956C506.174,-851.7419 533.6994,-336.9946 468.5,-182 464.4482,-172.3679 459.1085,-163.1184 452.9733,-154.362"/>
<polygon fill="#c0c0c0" stroke="#c0c0c0" stroke-width="2" points="455.6309,-152.0698 446.8635,-146.1214 450.0078,-156.2389 455.6309,-152.0698"/>
</g>
<!-- 7&#45;&gt;2 -->
<g id="edge7" class="edge">
<title>7&#45;&gt;2</title>
<path fill="none" stroke="#c0c0c0" stroke-width="2" d="M385.8083,-1045.8868C364.6501,-1030.2586 342.3936,-1013.8192 321.3763,-998.295"/>
<polygon fill="#c0c0c0" stroke="#c0c0c0" stroke-width="2" points="323.2008,-995.2914 313.0776,-992.1653 319.0418,-1000.922 323.2008,-995.2914"/>
</g>
<!-- 7&#45;&gt;5 -->
<g id="edge11" class="edge">
<title>7&#45;&gt;5</title>
<path fill="none" stroke="#c0c0c0" stroke-width="2" d="M590.7324,-1045.8868C604.0425,-1036.2023 617.7807,-1026.2062 631.3824,-1016.3095"/>
<polygon fill="#c0c0c0" stroke="#c0c0c0" stroke-width="2" points="633.8018,-1018.8775 639.8286,-1010.1639 629.6833,-1013.2173 633.8018,-1018.8775"/>
</g>
</g>
</svg>
