<?xml version="1.0" encoding="UTF-8" standalone="no"?>
<!DOCTYPE svg PUBLIC "-//W3C//DTD SVG 1.1//EN"
 "http://www.w3.org/Graphics/SVG/1.1/DTD/svg11.dtd">
<!-- Generated by graphviz version 2.40.1 (0)
 -->
<!-- Title: snakemake_dag Pages: 1 -->
<svg width="210pt" height="476pt"
 viewBox="0.00 0.00 210.00 476.00" xmlns="http://www.w3.org/2000/svg" xmlns:xlink="http://www.w3.org/1999/xlink">
<g id="graph0" class="graph" transform="scale(1 1) rotate(0) translate(4 472)">
<title>snakemake_dag</title>
<polygon fill="#ffffff" stroke="transparent" points="-4,4 -4,-472 206,-472 206,4 -4,4"/>
<!-- 0 -->
<g id="node1" class="node">
<title>0</title>
<path fill="none" stroke="#d85656" stroke-width="2" d="M80,-36C80,-36 50,-36 50,-36 44,-36 38,-30 38,-24 38,-24 38,-12 38,-12 38,-6 44,0 50,0 50,0 80,0 80,0 86,0 92,-6 92,-12 92,-12 92,-24 92,-24 92,-30 86,-36 80,-36"/>
<text text-anchor="middle" x="65" y="-15.5" font-family="sans" font-size="10.00" fill="#000000">all</text>
</g>
<!-- 1 -->
<g id="node2" class="node">
<title>1</title>
<path fill="none" stroke="#59d856" stroke-width="2" d="M53,-108C53,-108 23,-108 23,-108 17,-108 11,-102 11,-96 11,-96 11,-84 11,-84 11,-78 17,-72 23,-72 23,-72 53,-72 53,-72 59,-72 65,-78 65,-84 65,-84 65,-96 65,-96 65,-102 59,-108 53,-108"/>
<text text-anchor="middle" x="38" y="-87.5" font-family="sans" font-size="10.00" fill="#000000">multiqc</text>
</g>
<!-- 1&#45;&gt;0 -->
<g id="edge2" class="edge">
<title>1&#45;&gt;0</title>
<path fill="none" stroke="#c0c0c0" stroke-width="2" d="M44.8132,-71.8314C47.7644,-63.9617 51.2858,-54.5712 54.555,-45.8533"/>
<polygon fill="#c0c0c0" stroke="#c0c0c0" stroke-width="2" points="57.8609,-47.0055 58.095,-36.4133 51.3066,-44.5476 57.8609,-47.0055"/>
</g>
<!-- 2 -->
<g id="node3" class="node">
<title>2</title>
<path fill="none" stroke="#d8ac56" stroke-width="2" d="M42,-252C42,-252 12,-252 12,-252 6,-252 0,-246 0,-240 0,-240 0,-228 0,-228 0,-222 6,-216 12,-216 12,-216 42,-216 42,-216 48,-216 54,-222 54,-228 54,-228 54,-240 54,-240 54,-246 48,-252 42,-252"/>
<text text-anchor="middle" x="27" y="-231.5" font-family="sans" font-size="10.00" fill="#000000">fastqc</text>
</g>
<!-- 2&#45;&gt;1 -->
<g id="edge3" class="edge">
<title>2&#45;&gt;1</title>
<path fill="none" stroke="#c0c0c0" stroke-width="2" d="M28.3932,-215.7623C30.2694,-191.201 33.6269,-147.2474 35.8341,-118.3541"/>
<polygon fill="#c0c0c0" stroke="#c0c0c0" stroke-width="2" points="39.3462,-118.3272 36.6182,-108.0896 32.3666,-117.794 39.3462,-118.3272"/>
</g>
<!-- 3 -->
<g id="node4" class="node">
<title>3</title>
<path fill="none" stroke="#80d856" stroke-width="2" d="M117,-468C117,-468 69,-468 69,-468 63,-468 57,-462 57,-456 57,-456 57,-444 57,-444 57,-438 63,-432 69,-432 69,-432 117,-432 117,-432 123,-432 129,-438 129,-444 129,-444 129,-456 129,-456 129,-462 123,-468 117,-468"/>
<text text-anchor="middle" x="93" y="-447.5" font-family="sans" font-size="10.00" fill="#000000">merge_lanes</text>
</g>
<!-- 3&#45;&gt;2 -->
<g id="edge7" class="edge">
<title>3&#45;&gt;2</title>
<path fill="none" stroke="#c0c0c0" stroke-width="2" d="M79.0359,-431.6576C62.2599,-408.2108 35.3299,-365.6494 27,-324 22.9206,-303.6032 23.084,-280.082 24.1806,-262.2017"/>
<polygon fill="#c0c0c0" stroke="#c0c0c0" stroke-width="2" points="27.6779,-262.3672 24.9316,-252.1345 20.6973,-261.8464 27.6779,-262.3672"/>
</g>
<!-- 5 -->
<g id="node6" class="node">
<title>5</title>
<path fill="none" stroke="#56d882" stroke-width="2" d="M190,-252C190,-252 134,-252 134,-252 128,-252 122,-246 122,-240 122,-240 122,-228 122,-228 122,-222 128,-216 134,-216 134,-216 190,-216 190,-216 196,-216 202,-222 202,-228 202,-228 202,-240 202,-240 202,-246 196,-252 190,-252"/>
<text text-anchor="middle" x="162" y="-231.5" font-family="sans" font-size="10.00" fill="#000000">nonpareil_infer</text>
</g>
<!-- 3&#45;&gt;5 -->
<g id="edge11" class="edge">
<title>3&#45;&gt;5</title>
<path fill="none" stroke="#c0c0c0" stroke-width="2" d="M107.7873,-431.7988C125.5921,-408.4978 154.3126,-366.0867 164,-324 168.667,-303.7243 167.9393,-280.1983 166.1656,-262.2854"/>
<polygon fill="#c0c0c0" stroke="#c0c0c0" stroke-width="2" points="169.6245,-261.7278 164.9992,-252.1959 162.6708,-262.5317 169.6245,-261.7278"/>
</g>
<!-- 6 -->
<g id="node7" class="node">
<title>6</title>
<path fill="none" stroke="#5682d8" stroke-width="2" d="M108,-396C108,-396 78,-396 78,-396 72,-396 66,-390 66,-384 66,-384 66,-372 66,-372 66,-366 72,-360 78,-360 78,-360 108,-360 108,-360 114,-360 120,-366 120,-372 120,-372 120,-384 120,-384 120,-390 114,-396 108,-396"/>
<text text-anchor="middle" x="93" y="-375.5" font-family="sans" font-size="10.00" fill="#000000">vsearch</text>
</g>
<!-- 3&#45;&gt;6 -->
<g id="edge12" class="edge">
<title>3&#45;&gt;6</title>
<path fill="none" stroke="#c0c0c0" stroke-width="2" d="M93,-431.8314C93,-424.131 93,-414.9743 93,-406.4166"/>
<polygon fill="#c0c0c0" stroke="#c0c0c0" stroke-width="2" points="96.5001,-406.4132 93,-396.4133 89.5001,-406.4133 96.5001,-406.4132"/>
</g>
<!-- 4 -->
<g id="node5" class="node">
<title>4</title>
<path fill="none" stroke="#56d8a9" stroke-width="2" d="M187.5,-180C187.5,-180 134.5,-180 134.5,-180 128.5,-180 122.5,-174 122.5,-168 122.5,-168 122.5,-156 122.5,-156 122.5,-150 128.5,-144 134.5,-144 134.5,-144 187.5,-144 187.5,-144 193.5,-144 199.5,-150 199.5,-156 199.5,-156 199.5,-168 199.5,-168 199.5,-174 193.5,-180 187.5,-180"/>
<text text-anchor="middle" x="161" y="-159.5" font-family="sans" font-size="10.00" fill="#000000">nonpareil_plot</text>
</g>
<!-- 4&#45;&gt;1 -->
<g id="edge4" class="edge">
<title>4&#45;&gt;1</title>
<path fill="none" stroke="#c0c0c0" stroke-width="2" d="M129.9619,-143.8314C112.9929,-133.8983 91.8846,-121.5422 74.1724,-111.1741"/>
<polygon fill="#c0c0c0" stroke="#c0c0c0" stroke-width="2" points="75.6578,-107.9881 65.2595,-105.9568 72.1215,-114.0292 75.6578,-107.9881"/>
</g>
<!-- 5&#45;&gt;4 -->
<g id="edge8" class="edge">
<title>5&#45;&gt;4</title>
<path fill="none" stroke="#c0c0c0" stroke-width="2" d="M161.7477,-215.8314C161.6407,-208.131 161.5135,-198.9743 161.3947,-190.4166"/>
<polygon fill="#c0c0c0" stroke="#c0c0c0" stroke-width="2" points="164.8944,-190.3637 161.2557,-180.4133 157.8951,-190.4609 164.8944,-190.3637"/>
</g>
<!-- 6&#45;&gt;2 -->
<g id="edge6" class="edge">
<title>6&#45;&gt;2</title>
<path fill="none" stroke="#c0c0c0" stroke-width="2" d="M70.6799,-359.9651C60.3262,-350.3781 48.8262,-337.7435 42,-324 32.4576,-304.7877 28.8134,-280.7168 27.4975,-262.3039"/>
<polygon fill="#c0c0c0" stroke="#c0c0c0" stroke-width="2" points="30.9863,-261.9978 26.9648,-252.1959 23.996,-262.3663 30.9863,-261.9978"/>
</g>
<!-- 6&#45;&gt;5 -->
<g id="edge10" class="edge">
<title>6&#45;&gt;5</title>
<path fill="none" stroke="#c0c0c0" stroke-width="2" d="M115.1305,-359.869C125.4376,-350.2584 136.9531,-337.6316 144,-324 153.9093,-304.8311 158.3717,-280.7577 160.377,-262.3327"/>
<polygon fill="#c0c0c0" stroke="#c0c0c0" stroke-width="2" points="163.8768,-262.4926 161.2964,-252.2169 156.9056,-261.859 163.8768,-262.4926"/>
</g>
<!-- 7 -->
<g id="node8" class="node">
<title>7</title>
<path fill="none" stroke="#afd856" stroke-width="2" d="M123,-324C123,-324 63,-324 63,-324 57,-324 51,-318 51,-312 51,-312 51,-300 51,-300 51,-294 57,-288 63,-288 63,-288 123,-288 123,-288 129,-288 135,-294 135,-300 135,-300 135,-312 135,-312 135,-318 129,-324 123,-324"/>
<text text-anchor="middle" x="93" y="-303.5" font-family="sans" font-size="10.00" fill="#000000">low_complexity</text>
</g>
<!-- 6&#45;&gt;7 -->
<g id="edge13" class="edge">
<title>6&#45;&gt;7</title>
<path fill="none" stroke="#c0c0c0" stroke-width="2" d="M93,-359.8314C93,-352.131 93,-342.9743 93,-334.4166"/>
<polygon fill="#c0c0c0" stroke="#c0c0c0" stroke-width="2" points="96.5001,-334.4132 93,-324.4133 89.5001,-334.4133 96.5001,-334.4132"/>
</g>
<!-- 7&#45;&gt;0 -->
<g id="edge1" class="edge">
<title>7&#45;&gt;0</title>
<path fill="none" stroke="#c0c0c0" stroke-width="2" d="M92.0418,-287.742C89.8555,-248.2716 83.9081,-152.0917 74,-72 72.9662,-63.6435 71.5701,-54.6036 70.1862,-46.3541"/>
<polygon fill="#c0c0c0" stroke="#c0c0c0" stroke-width="2" points="73.6241,-45.694 68.468,-36.4384 66.7268,-46.8892 73.6241,-45.694"/>
</g>
<!-- 7&#45;&gt;2 -->
<g id="edge5" class="edge">
<title>7&#45;&gt;2</title>
<path fill="none" stroke="#c0c0c0" stroke-width="2" d="M76.3454,-287.8314C68.5886,-279.3694 59.2198,-269.1489 50.739,-259.8971"/>
<polygon fill="#c0c0c0" stroke="#c0c0c0" stroke-width="2" points="53.2162,-257.4198 43.8788,-252.4133 48.0561,-262.1499 53.2162,-257.4198"/>
</g>
<!-- 7&#45;&gt;5 -->
<g id="edge9" class="edge">
<title>7&#45;&gt;5</title>
<path fill="none" stroke="#c0c0c0" stroke-width="2" d="M110.4116,-287.8314C118.521,-279.3694 128.3156,-269.1489 137.182,-259.8971"/>
<polygon fill="#c0c0c0" stroke="#c0c0c0" stroke-width="2" points="139.9618,-262.0549 144.354,-252.4133 134.9079,-257.2115 139.9618,-262.0549"/>
</g>
</g>
</svg>
