<?xml version="1.0" encoding="UTF-8" standalone="no"?>
<!DOCTYPE svg PUBLIC "-//W3C//DTD SVG 1.1//EN"
 "http://www.w3.org/Graphics/SVG/1.1/DTD/svg11.dtd">
<!-- Generated by graphviz version 2.40.1 (0)
 -->
<!-- Title: snakemake_dag Pages: 1 -->
<svg width="1470pt" height="492pt"
 viewBox="0.00 0.00 1469.66 492.00" xmlns="http://www.w3.org/2000/svg" xmlns:xlink="http://www.w3.org/1999/xlink">
<g id="graph0" class="graph" transform="scale(1 1) rotate(0) translate(4 488)">
<title>snakemake_dag</title>
<polygon fill="#ffffff" stroke="transparent" points="-4,4 -4,-488 1465.6631,-488 1465.6631,4 -4,4"/>
<!-- 0 -->
<g id="node1" class="node">
<title>0</title>
<path fill="none" stroke="#d85656" stroke-width="2" d="M660,-36C660,-36 630,-36 630,-36 624,-36 618,-30 618,-24 618,-24 618,-12 618,-12 618,-6 624,0 630,0 630,0 660,0 660,0 666,0 672,-6 672,-12 672,-12 672,-24 672,-24 672,-30 666,-36 660,-36"/>
<text text-anchor="middle" x="645" y="-15.5" font-family="sans" font-size="10.00" fill="#000000">all</text>
</g>
<!-- 1 -->
<g id="node2" class="node">
<title>1</title>
<path fill="none" stroke="#59d856" stroke-width="2" d="M660,-108C660,-108 630,-108 630,-108 624,-108 618,-102 618,-96 618,-96 618,-84 618,-84 618,-78 624,-72 630,-72 630,-72 660,-72 660,-72 666,-72 672,-78 672,-84 672,-84 672,-96 672,-96 672,-102 666,-108 660,-108"/>
<text text-anchor="middle" x="645" y="-87.5" font-family="sans" font-size="10.00" fill="#000000">multiqc</text>
</g>
<!-- 1&#45;&gt;0 -->
<g id="edge1" class="edge">
<title>1&#45;&gt;0</title>
<path fill="none" stroke="#c0c0c0" stroke-width="2" d="M645,-71.8314C645,-64.131 645,-54.9743 645,-46.4166"/>
<polygon fill="#c0c0c0" stroke="#c0c0c0" stroke-width="2" points="648.5001,-46.4132 645,-36.4133 641.5001,-46.4133 648.5001,-46.4132"/>
</g>
<!-- 2 -->
<g id="node3" class="node">
<title>2</title>
<path fill="none" stroke="#d8ac56" stroke-width="2" d="M1094,-180C1094,-180 1024,-180 1024,-180 1018,-180 1012,-174 1012,-168 1012,-168 1012,-156 1012,-156 1012,-150 1018,-144 1024,-144 1024,-144 1094,-144 1094,-144 1100,-144 1106,-150 1106,-156 1106,-156 1106,-168 1106,-168 1106,-174 1100,-180 1094,-180"/>
<text text-anchor="middle" x="1059" y="-165" font-family="sans" font-size="10.00" fill="#000000">fastqc</text>
<text text-anchor="middle" x="1059" y="-154" font-family="sans" font-size="10.00" fill="#000000">tool: merge_lanes</text>
</g>
<!-- 2&#45;&gt;1 -->
<g id="edge6" class="edge">
<title>2&#45;&gt;1</title>
<path fill="none" stroke="#c0c0c0" stroke-width="2" d="M1011.6998,-152.7318C996.7721,-149.8634 980.2082,-146.7389 965,-144 862.7373,-125.5828 741.738,-105.6757 682.0728,-95.9839"/>
<polygon fill="#c0c0c0" stroke="#c0c0c0" stroke-width="2" points="682.4377,-92.4974 672.0063,-94.3512 681.3169,-99.4072 682.4377,-92.4974"/>
</g>
<!-- 3 -->
<g id="node4" class="node">
<title>3</title>
<path fill="none" stroke="#80d856" stroke-width="2" d="M1250,-484C1250,-484 1146,-484 1146,-484 1140,-484 1134,-478 1134,-472 1134,-472 1134,-444 1134,-444 1134,-438 1140,-432 1146,-432 1146,-432 1250,-432 1250,-432 1256,-432 1262,-438 1262,-444 1262,-444 1262,-472 1262,-472 1262,-478 1256,-484 1250,-484"/>
<text text-anchor="middle" x="1198" y="-472" font-family="sans" font-size="10.00" fill="#000000">merge_lanes</text>
<text text-anchor="middle" x="1198" y="-461" font-family="sans" font-size="10.00" fill="#000000">library: lib2</text>
<text text-anchor="middle" x="1198" y="-450" font-family="sans" font-size="10.00" fill="#000000">read_type_trim: collapsed</text>
<text text-anchor="middle" x="1198" y="-439" font-family="sans" font-size="10.00" fill="#000000">sample: HD827sonic_2</text>
</g>
<!-- 3&#45;&gt;2 -->
<g id="edge22" class="edge">
<title>3&#45;&gt;2</title>
<path fill="none" stroke="#c0c0c0" stroke-width="2" d="M1135.9309,-431.8715C1120.6942,-422.6555 1105.9261,-410.8017 1096,-396 1053.2828,-332.3008 1053.1656,-237.2425 1056.2526,-190.3083"/>
<polygon fill="#c0c0c0" stroke="#c0c0c0" stroke-width="2" points="1059.7488,-190.4897 1057.0137,-180.254 1052.7688,-189.9613 1059.7488,-190.4897"/>
</g>
<!-- 17 -->
<g id="node18" class="node">
<title>17</title>
<path fill="none" stroke="#56d882" stroke-width="2" d="M1187,-396C1187,-396 1117,-396 1117,-396 1111,-396 1105,-390 1105,-384 1105,-384 1105,-372 1105,-372 1105,-366 1111,-360 1117,-360 1117,-360 1187,-360 1187,-360 1193,-360 1199,-366 1199,-372 1199,-372 1199,-384 1199,-384 1199,-390 1193,-396 1187,-396"/>
<text text-anchor="middle" x="1152" y="-381" font-family="sans" font-size="10.00" fill="#000000">nonpareil_infer</text>
<text text-anchor="middle" x="1152" y="-370" font-family="sans" font-size="10.00" fill="#000000">tool: merge_lanes</text>
</g>
<!-- 3&#45;&gt;17 -->
<g id="edge33" class="edge">
<title>3&#45;&gt;17</title>
<path fill="none" stroke="#c0c0c0" stroke-width="2" d="M1182.9379,-431.805C1178.0119,-423.238 1172.5321,-413.7081 1167.5695,-405.0774"/>
<polygon fill="#c0c0c0" stroke="#c0c0c0" stroke-width="2" points="1170.457,-403.0776 1162.4381,-396.1532 1164.3887,-406.567 1170.457,-403.0776"/>
</g>
<!-- 28 -->
<g id="node29" class="node">
<title>28</title>
<path fill="none" stroke="#d88556" stroke-width="2" d="M1321.5,-324C1321.5,-324 1262.5,-324 1262.5,-324 1256.5,-324 1250.5,-318 1250.5,-312 1250.5,-312 1250.5,-300 1250.5,-300 1250.5,-294 1256.5,-288 1262.5,-288 1262.5,-288 1321.5,-288 1321.5,-288 1327.5,-288 1333.5,-294 1333.5,-300 1333.5,-300 1333.5,-312 1333.5,-312 1333.5,-318 1327.5,-324 1321.5,-324"/>
<text text-anchor="middle" x="1292" y="-303.5" font-family="sans" font-size="10.00" fill="#000000">extend_tadpole</text>
</g>
<!-- 3&#45;&gt;28 -->
<g id="edge47" class="edge">
<title>3&#45;&gt;28</title>
<path fill="none" stroke="#c0c0c0" stroke-width="2" d="M1245.6563,-431.7297C1258.8112,-422.1802 1271.728,-410.1837 1280,-396 1290.8207,-377.4461 1293.5222,-353.1463 1293.682,-334.4735"/>
<polygon fill="#c0c0c0" stroke="#c0c0c0" stroke-width="2" points="1297.1777,-334.1605 1293.5245,-324.2154 1290.1785,-334.268 1297.1777,-334.1605"/>
</g>
<!-- 29 -->
<g id="node30" class="node">
<title>29</title>
<path fill="none" stroke="#d6d856" stroke-width="2" d="M1259,-396C1259,-396 1229,-396 1229,-396 1223,-396 1217,-390 1217,-384 1217,-384 1217,-372 1217,-372 1217,-366 1223,-360 1229,-360 1229,-360 1259,-360 1259,-360 1265,-360 1271,-366 1271,-372 1271,-372 1271,-384 1271,-384 1271,-390 1265,-396 1259,-396"/>
<text text-anchor="middle" x="1244" y="-375.5" font-family="sans" font-size="10.00" fill="#000000">loglog</text>
</g>
<!-- 3&#45;&gt;29 -->
<g id="edge49" class="edge">
<title>3&#45;&gt;29</title>
<path fill="none" stroke="#c0c0c0" stroke-width="2" d="M1213.0621,-431.805C1217.9881,-423.238 1223.4679,-413.7081 1228.4305,-405.0774"/>
<polygon fill="#c0c0c0" stroke="#c0c0c0" stroke-width="2" points="1231.6113,-406.567 1233.5619,-396.1532 1225.543,-403.0776 1231.6113,-406.567"/>
</g>
<!-- 4 -->
<g id="node5" class="node">
<title>4</title>
<path fill="none" stroke="#d8ac56" stroke-width="2" d="M746,-324C746,-324 676,-324 676,-324 670,-324 664,-318 664,-312 664,-312 664,-300 664,-300 664,-294 670,-288 676,-288 676,-288 746,-288 746,-288 752,-288 758,-294 758,-300 758,-300 758,-312 758,-312 758,-318 752,-324 746,-324"/>
<text text-anchor="middle" x="711" y="-309" font-family="sans" font-size="10.00" fill="#000000">fastqc</text>
<text text-anchor="middle" x="711" y="-298" font-family="sans" font-size="10.00" fill="#000000">tool: merge_lanes</text>
</g>
<!-- 4&#45;&gt;1 -->
<g id="edge7" class="edge">
<title>4&#45;&gt;1</title>
<path fill="none" stroke="#c0c0c0" stroke-width="2" d="M704.6808,-287.5557C701.1568,-277.1442 696.7379,-263.8772 693,-252 678.2204,-205.0385 662.1886,-150.0224 652.8991,-117.6982"/>
<polygon fill="#c0c0c0" stroke="#c0c0c0" stroke-width="2" points="656.2505,-116.6878 650.13,-108.0396 649.5215,-118.617 656.2505,-116.6878"/>
</g>
<!-- 5 -->
<g id="node6" class="node">
<title>5</title>
<path fill="none" stroke="#80d856" stroke-width="2" d="M884,-484C884,-484 780,-484 780,-484 774,-484 768,-478 768,-472 768,-472 768,-444 768,-444 768,-438 774,-432 780,-432 780,-432 884,-432 884,-432 890,-432 896,-438 896,-444 896,-444 896,-472 896,-472 896,-478 890,-484 884,-484"/>
<text text-anchor="middle" x="832" y="-472" font-family="sans" font-size="10.00" fill="#000000">merge_lanes</text>
<text text-anchor="middle" x="832" y="-461" font-family="sans" font-size="10.00" fill="#000000">library: lib3</text>
<text text-anchor="middle" x="832" y="-450" font-family="sans" font-size="10.00" fill="#000000">read_type_trim: collapsed</text>
<text text-anchor="middle" x="832" y="-439" font-family="sans" font-size="10.00" fill="#000000">sample: HD827sonic_2</text>
</g>
<!-- 5&#45;&gt;4 -->
<g id="edge23" class="edge">
<title>5&#45;&gt;4</title>
<path fill="none" stroke="#c0c0c0" stroke-width="2" d="M770.9598,-431.8492C755.5404,-422.5847 740.4218,-410.7117 730,-396 717.2855,-378.0518 712.7525,-353.3644 711.2777,-334.385"/>
<polygon fill="#c0c0c0" stroke="#c0c0c0" stroke-width="2" points="714.764,-334.0337 710.7322,-324.236 707.7741,-334.4095 714.764,-334.0337"/>
</g>
<!-- 11 -->
<g id="node12" class="node">
<title>11</title>
<path fill="none" stroke="#56d882" stroke-width="2" d="M821,-396C821,-396 751,-396 751,-396 745,-396 739,-390 739,-384 739,-384 739,-372 739,-372 739,-366 745,-360 751,-360 751,-360 821,-360 821,-360 827,-360 833,-366 833,-372 833,-372 833,-384 833,-384 833,-390 827,-396 821,-396"/>
<text text-anchor="middle" x="786" y="-381" font-family="sans" font-size="10.00" fill="#000000">nonpareil_infer</text>
<text text-anchor="middle" x="786" y="-370" font-family="sans" font-size="10.00" fill="#000000">tool: merge_lanes</text>
</g>
<!-- 5&#45;&gt;11 -->
<g id="edge27" class="edge">
<title>5&#45;&gt;11</title>
<path fill="none" stroke="#c0c0c0" stroke-width="2" d="M816.9379,-431.805C812.0119,-423.238 806.5321,-413.7081 801.5695,-405.0774"/>
<polygon fill="#c0c0c0" stroke="#c0c0c0" stroke-width="2" points="804.457,-403.0776 796.4381,-396.1532 798.3887,-406.567 804.457,-403.0776"/>
</g>
<!-- 22 -->
<g id="node23" class="node">
<title>22</title>
<path fill="none" stroke="#d88556" stroke-width="2" d="M929.5,-324C929.5,-324 870.5,-324 870.5,-324 864.5,-324 858.5,-318 858.5,-312 858.5,-312 858.5,-300 858.5,-300 858.5,-294 864.5,-288 870.5,-288 870.5,-288 929.5,-288 929.5,-288 935.5,-288 941.5,-294 941.5,-300 941.5,-300 941.5,-312 941.5,-312 941.5,-318 935.5,-324 929.5,-324"/>
<text text-anchor="middle" x="900" y="-303.5" font-family="sans" font-size="10.00" fill="#000000">extend_tadpole</text>
</g>
<!-- 5&#45;&gt;22 -->
<g id="edge39" class="edge">
<title>5&#45;&gt;22</title>
<path fill="none" stroke="#c0c0c0" stroke-width="2" d="M881.6954,-431.741C894.5854,-422.3131 906.8445,-410.3808 914,-396 923.6731,-376.5592 918.9405,-352.0789 912.4736,-333.5592"/>
<polygon fill="#c0c0c0" stroke="#c0c0c0" stroke-width="2" points="915.7395,-332.3004 908.8923,-324.2154 909.2031,-334.8056 915.7395,-332.3004"/>
</g>
<!-- 23 -->
<g id="node24" class="node">
<title>23</title>
<path fill="none" stroke="#d6d856" stroke-width="2" d="M893,-396C893,-396 863,-396 863,-396 857,-396 851,-390 851,-384 851,-384 851,-372 851,-372 851,-366 857,-360 863,-360 863,-360 893,-360 893,-360 899,-360 905,-366 905,-372 905,-372 905,-384 905,-384 905,-390 899,-396 893,-396"/>
<text text-anchor="middle" x="878" y="-375.5" font-family="sans" font-size="10.00" fill="#000000">loglog</text>
</g>
<!-- 5&#45;&gt;23 -->
<g id="edge41" class="edge">
<title>5&#45;&gt;23</title>
<path fill="none" stroke="#c0c0c0" stroke-width="2" d="M847.0621,-431.805C851.9881,-423.238 857.4679,-413.7081 862.4305,-405.0774"/>
<polygon fill="#c0c0c0" stroke="#c0c0c0" stroke-width="2" points="865.6113,-406.567 867.5619,-396.1532 859.543,-403.0776 865.6113,-406.567"/>
</g>
<!-- 6 -->
<g id="node7" class="node">
<title>6</title>
<path fill="none" stroke="#d8ac56" stroke-width="2" d="M325,-324C325,-324 255,-324 255,-324 249,-324 243,-318 243,-312 243,-312 243,-300 243,-300 243,-294 249,-288 255,-288 255,-288 325,-288 325,-288 331,-288 337,-294 337,-300 337,-300 337,-312 337,-312 337,-318 331,-324 325,-324"/>
<text text-anchor="middle" x="290" y="-309" font-family="sans" font-size="10.00" fill="#000000">fastqc</text>
<text text-anchor="middle" x="290" y="-298" font-family="sans" font-size="10.00" fill="#000000">tool: merge_lanes</text>
</g>
<!-- 6&#45;&gt;1 -->
<g id="edge8" class="edge">
<title>6&#45;&gt;1</title>
<path fill="none" stroke="#c0c0c0" stroke-width="2" d="M297.061,-287.822C311.254,-253.8212 346.6094,-180.7289 401,-144 434.4105,-121.4386 547.8996,-103.1761 607.5948,-94.8607"/>
<polygon fill="#c0c0c0" stroke="#c0c0c0" stroke-width="2" points="608.304,-98.2963 617.7366,-93.4717 607.3541,-91.3611 608.304,-98.2963"/>
</g>
<!-- 7 -->
<g id="node8" class="node">
<title>7</title>
<path fill="none" stroke="#80d856" stroke-width="2" d="M221,-484C221,-484 117,-484 117,-484 111,-484 105,-478 105,-472 105,-472 105,-444 105,-444 105,-438 111,-432 117,-432 117,-432 221,-432 221,-432 227,-432 233,-438 233,-444 233,-444 233,-472 233,-472 233,-478 227,-484 221,-484"/>
<text text-anchor="middle" x="169" y="-472" font-family="sans" font-size="10.00" fill="#000000">merge_lanes</text>
<text text-anchor="middle" x="169" y="-461" font-family="sans" font-size="10.00" fill="#000000">library: lib1</text>
<text text-anchor="middle" x="169" y="-450" font-family="sans" font-size="10.00" fill="#000000">read_type_trim: collapsed</text>
<text text-anchor="middle" x="169" y="-439" font-family="sans" font-size="10.00" fill="#000000">sample: HD827sonic_2</text>
</g>
<!-- 7&#45;&gt;6 -->
<g id="edge24" class="edge">
<title>7&#45;&gt;6</title>
<path fill="none" stroke="#c0c0c0" stroke-width="2" d="M230.0402,-431.8492C245.4596,-422.5847 260.5782,-410.7117 271,-396 283.7145,-378.0518 288.2475,-353.3644 289.7223,-334.385"/>
<polygon fill="#c0c0c0" stroke="#c0c0c0" stroke-width="2" points="293.2259,-334.4095 290.2678,-324.236 286.236,-334.0337 293.2259,-334.4095"/>
</g>
<!-- 15 -->
<g id="node16" class="node">
<title>15</title>
<path fill="none" stroke="#56d882" stroke-width="2" d="M250,-396C250,-396 180,-396 180,-396 174,-396 168,-390 168,-384 168,-384 168,-372 168,-372 168,-366 174,-360 180,-360 180,-360 250,-360 250,-360 256,-360 262,-366 262,-372 262,-372 262,-384 262,-384 262,-390 256,-396 250,-396"/>
<text text-anchor="middle" x="215" y="-381" font-family="sans" font-size="10.00" fill="#000000">nonpareil_infer</text>
<text text-anchor="middle" x="215" y="-370" font-family="sans" font-size="10.00" fill="#000000">tool: merge_lanes</text>
</g>
<!-- 7&#45;&gt;15 -->
<g id="edge31" class="edge">
<title>7&#45;&gt;15</title>
<path fill="none" stroke="#c0c0c0" stroke-width="2" d="M184.0621,-431.805C188.9881,-423.238 194.4679,-413.7081 199.4305,-405.0774"/>
<polygon fill="#c0c0c0" stroke="#c0c0c0" stroke-width="2" points="202.6113,-406.567 204.5619,-396.1532 196.543,-403.0776 202.6113,-406.567"/>
</g>
<!-- 25 -->
<g id="node26" class="node">
<title>25</title>
<path fill="none" stroke="#d88556" stroke-width="2" d="M125.5,-324C125.5,-324 66.5,-324 66.5,-324 60.5,-324 54.5,-318 54.5,-312 54.5,-312 54.5,-300 54.5,-300 54.5,-294 60.5,-288 66.5,-288 66.5,-288 125.5,-288 125.5,-288 131.5,-288 137.5,-294 137.5,-300 137.5,-300 137.5,-312 137.5,-312 137.5,-318 131.5,-324 125.5,-324"/>
<text text-anchor="middle" x="96" y="-303.5" font-family="sans" font-size="10.00" fill="#000000">extend_tadpole</text>
</g>
<!-- 7&#45;&gt;25 -->
<g id="edge43" class="edge">
<title>7&#45;&gt;25</title>
<path fill="none" stroke="#c0c0c0" stroke-width="2" d="M119.3046,-431.741C106.4146,-422.3131 94.1555,-410.3808 87,-396 77.4384,-376.7834 80.6531,-352.4298 85.7266,-333.9033"/>
<polygon fill="#c0c0c0" stroke="#c0c0c0" stroke-width="2" points="89.0921,-334.8662 88.6671,-324.2799 82.3976,-332.8206 89.0921,-334.8662"/>
</g>
<!-- 26 -->
<g id="node27" class="node">
<title>26</title>
<path fill="none" stroke="#d6d856" stroke-width="2" d="M138,-396C138,-396 108,-396 108,-396 102,-396 96,-390 96,-384 96,-384 96,-372 96,-372 96,-366 102,-360 108,-360 108,-360 138,-360 138,-360 144,-360 150,-366 150,-372 150,-372 150,-384 150,-384 150,-390 144,-396 138,-396"/>
<text text-anchor="middle" x="123" y="-375.5" font-family="sans" font-size="10.00" fill="#000000">loglog</text>
</g>
<!-- 7&#45;&gt;26 -->
<g id="edge45" class="edge">
<title>7&#45;&gt;26</title>
<path fill="none" stroke="#c0c0c0" stroke-width="2" d="M153.9379,-431.805C149.0119,-423.238 143.5321,-413.7081 138.5695,-405.0774"/>
<polygon fill="#c0c0c0" stroke="#c0c0c0" stroke-width="2" points="141.457,-403.0776 133.4381,-396.1532 135.3887,-406.567 141.457,-403.0776"/>
</g>
<!-- 8 -->
<g id="node9" class="node">
<title>8</title>
<path fill="none" stroke="#d8ac56" stroke-width="2" d="M437,-324C437,-324 367,-324 367,-324 361,-324 355,-318 355,-312 355,-312 355,-300 355,-300 355,-294 361,-288 367,-288 367,-288 437,-288 437,-288 443,-288 449,-294 449,-300 449,-300 449,-312 449,-312 449,-318 443,-324 437,-324"/>
<text text-anchor="middle" x="402" y="-309" font-family="sans" font-size="10.00" fill="#000000">fastqc</text>
<text text-anchor="middle" x="402" y="-298" font-family="sans" font-size="10.00" fill="#000000">tool: merge_lanes</text>
</g>
<!-- 8&#45;&gt;1 -->
<g id="edge9" class="edge">
<title>8&#45;&gt;1</title>
<path fill="none" stroke="#c0c0c0" stroke-width="2" d="M392.7357,-287.8166C384.5764,-269.2023 375.3697,-239.7207 385,-216 401.7887,-174.6473 416.6785,-166.8771 455,-144 503.2474,-115.1973 567.5721,-101.1429 607.6266,-94.757"/>
<polygon fill="#c0c0c0" stroke="#c0c0c0" stroke-width="2" points="608.3911,-98.1813 617.7544,-93.2237 607.3432,-91.2601 608.3911,-98.1813"/>
</g>
<!-- 9 -->
<g id="node10" class="node">
<title>9</title>
<path fill="none" stroke="#80d856" stroke-width="2" d="M544,-484C544,-484 440,-484 440,-484 434,-484 428,-478 428,-472 428,-472 428,-444 428,-444 428,-438 434,-432 440,-432 440,-432 544,-432 544,-432 550,-432 556,-438 556,-444 556,-444 556,-472 556,-472 556,-478 550,-484 544,-484"/>
<text text-anchor="middle" x="492" y="-472" font-family="sans" font-size="10.00" fill="#000000">merge_lanes</text>
<text text-anchor="middle" x="492" y="-461" font-family="sans" font-size="10.00" fill="#000000">library: lib1</text>
<text text-anchor="middle" x="492" y="-450" font-family="sans" font-size="10.00" fill="#000000">read_type_trim: collapsed</text>
<text text-anchor="middle" x="492" y="-439" font-family="sans" font-size="10.00" fill="#000000">sample: HD827sonic_1</text>
</g>
<!-- 9&#45;&gt;8 -->
<g id="edge25" class="edge">
<title>9&#45;&gt;8</title>
<path fill="none" stroke="#c0c0c0" stroke-width="2" d="M459.4803,-431.9357C448.4949,-421.725 437.0009,-409.2744 429,-396 417.5428,-376.9913 410.6375,-352.7666 406.6819,-334.2393"/>
<polygon fill="#c0c0c0" stroke="#c0c0c0" stroke-width="2" points="410.098,-333.4712 404.7297,-324.3371 403.2302,-334.8253 410.098,-333.4712"/>
</g>
<!-- 13 -->
<g id="node14" class="node">
<title>13</title>
<path fill="none" stroke="#56d882" stroke-width="2" d="M640,-396C640,-396 570,-396 570,-396 564,-396 558,-390 558,-384 558,-384 558,-372 558,-372 558,-366 564,-360 570,-360 570,-360 640,-360 640,-360 646,-360 652,-366 652,-372 652,-372 652,-384 652,-384 652,-390 646,-396 640,-396"/>
<text text-anchor="middle" x="605" y="-381" font-family="sans" font-size="10.00" fill="#000000">nonpareil_infer</text>
<text text-anchor="middle" x="605" y="-370" font-family="sans" font-size="10.00" fill="#000000">tool: merge_lanes</text>
</g>
<!-- 9&#45;&gt;13 -->
<g id="edge29" class="edge">
<title>9&#45;&gt;13</title>
<path fill="none" stroke="#c0c0c0" stroke-width="2" d="M529.0004,-431.805C542.5174,-422.2355 557.7314,-411.4645 570.9766,-402.0874"/>
<polygon fill="#c0c0c0" stroke="#c0c0c0" stroke-width="2" points="573.2192,-404.788 579.3586,-396.1532 569.1745,-399.0749 573.2192,-404.788"/>
</g>
<!-- 19 -->
<g id="node20" class="node">
<title>19</title>
<path fill="none" stroke="#d88556" stroke-width="2" d="M538.5,-324C538.5,-324 479.5,-324 479.5,-324 473.5,-324 467.5,-318 467.5,-312 467.5,-312 467.5,-300 467.5,-300 467.5,-294 473.5,-288 479.5,-288 479.5,-288 538.5,-288 538.5,-288 544.5,-288 550.5,-294 550.5,-300 550.5,-300 550.5,-312 550.5,-312 550.5,-318 544.5,-324 538.5,-324"/>
<text text-anchor="middle" x="509" y="-303.5" font-family="sans" font-size="10.00" fill="#000000">extend_tadpole</text>
</g>
<!-- 9&#45;&gt;19 -->
<g id="edge35" class="edge">
<title>9&#45;&gt;19</title>
<path fill="none" stroke="#c0c0c0" stroke-width="2" d="M496.1326,-431.7963C497.7871,-420.7632 499.6231,-407.7754 501,-396 503.3989,-375.4849 505.4465,-352.264 506.8695,-334.548"/>
<polygon fill="#c0c0c0" stroke="#c0c0c0" stroke-width="2" points="510.3804,-334.5449 507.6724,-324.302 503.4018,-333.998 510.3804,-334.5449"/>
</g>
<!-- 20 -->
<g id="node21" class="node">
<title>20</title>
<path fill="none" stroke="#d6d856" stroke-width="2" d="M480,-396C480,-396 450,-396 450,-396 444,-396 438,-390 438,-384 438,-384 438,-372 438,-372 438,-366 444,-360 450,-360 450,-360 480,-360 480,-360 486,-360 492,-366 492,-372 492,-372 492,-384 492,-384 492,-390 486,-396 480,-396"/>
<text text-anchor="middle" x="465" y="-375.5" font-family="sans" font-size="10.00" fill="#000000">loglog</text>
</g>
<!-- 9&#45;&gt;20 -->
<g id="edge37" class="edge">
<title>9&#45;&gt;20</title>
<path fill="none" stroke="#c0c0c0" stroke-width="2" d="M483.1592,-431.805C480.3293,-423.4203 477.1882,-414.1132 474.3249,-405.6295"/>
<polygon fill="#c0c0c0" stroke="#c0c0c0" stroke-width="2" points="477.6408,-404.5089 471.1267,-396.1532 471.0083,-406.7474 477.6408,-404.5089"/>
</g>
<!-- 10 -->
<g id="node11" class="node">
<title>10</title>
<path fill="none" stroke="#56d8a9" stroke-width="2" d="M766.5,-252C766.5,-252 713.5,-252 713.5,-252 707.5,-252 701.5,-246 701.5,-240 701.5,-240 701.5,-228 701.5,-228 701.5,-222 707.5,-216 713.5,-216 713.5,-216 766.5,-216 766.5,-216 772.5,-216 778.5,-222 778.5,-228 778.5,-228 778.5,-240 778.5,-240 778.5,-246 772.5,-252 766.5,-252"/>
<text text-anchor="middle" x="740" y="-231.5" font-family="sans" font-size="10.00" fill="#000000">nonpareil_plot</text>
</g>
<!-- 10&#45;&gt;1 -->
<g id="edge10" class="edge">
<title>10&#45;&gt;1</title>
<path fill="none" stroke="#c0c0c0" stroke-width="2" d="M727.9682,-215.7623C711.4077,-190.66 681.4838,-145.3017 662.4609,-116.4671"/>
<polygon fill="#c0c0c0" stroke="#c0c0c0" stroke-width="2" points="665.3625,-114.5094 656.9341,-108.0896 659.5195,-118.3642 665.3625,-114.5094"/>
</g>
<!-- 11&#45;&gt;10 -->
<g id="edge26" class="edge">
<title>11&#45;&gt;10</title>
<path fill="none" stroke="#c0c0c0" stroke-width="2" d="M783.5409,-359.7005C780.7376,-341.2489 775.4209,-312.1235 767,-288 763.8878,-279.0844 759.622,-269.7559 755.4002,-261.4095"/>
<polygon fill="#c0c0c0" stroke="#c0c0c0" stroke-width="2" points="758.4601,-259.7083 750.716,-252.4778 752.2609,-262.9594 758.4601,-259.7083"/>
</g>
<!-- 12 -->
<g id="node13" class="node">
<title>12</title>
<path fill="none" stroke="#56d8a9" stroke-width="2" d="M633.5,-324C633.5,-324 580.5,-324 580.5,-324 574.5,-324 568.5,-318 568.5,-312 568.5,-312 568.5,-300 568.5,-300 568.5,-294 574.5,-288 580.5,-288 580.5,-288 633.5,-288 633.5,-288 639.5,-288 645.5,-294 645.5,-300 645.5,-300 645.5,-312 645.5,-312 645.5,-318 639.5,-324 633.5,-324"/>
<text text-anchor="middle" x="607" y="-303.5" font-family="sans" font-size="10.00" fill="#000000">nonpareil_plot</text>
</g>
<!-- 12&#45;&gt;1 -->
<g id="edge11" class="edge">
<title>12&#45;&gt;1</title>
<path fill="none" stroke="#c0c0c0" stroke-width="2" d="M610.1745,-287.9555C616.7965,-250.3144 632.1246,-163.1867 640.0522,-118.1246"/>
<polygon fill="#c0c0c0" stroke="#c0c0c0" stroke-width="2" points="643.5221,-118.6003 641.8078,-108.1451 636.628,-117.3874 643.5221,-118.6003"/>
</g>
<!-- 13&#45;&gt;12 -->
<g id="edge28" class="edge">
<title>13&#45;&gt;12</title>
<path fill="none" stroke="#c0c0c0" stroke-width="2" d="M605.5047,-359.8314C605.7186,-352.131 605.9729,-342.9743 606.2106,-334.4166"/>
<polygon fill="#c0c0c0" stroke="#c0c0c0" stroke-width="2" points="609.7094,-334.5066 606.4885,-324.4133 602.7121,-334.3122 609.7094,-334.5066"/>
</g>
<!-- 14 -->
<g id="node15" class="node">
<title>14</title>
<path fill="none" stroke="#56d8a9" stroke-width="2" d="M287.5,-252C287.5,-252 234.5,-252 234.5,-252 228.5,-252 222.5,-246 222.5,-240 222.5,-240 222.5,-228 222.5,-228 222.5,-222 228.5,-216 234.5,-216 234.5,-216 287.5,-216 287.5,-216 293.5,-216 299.5,-222 299.5,-228 299.5,-228 299.5,-240 299.5,-240 299.5,-246 293.5,-252 287.5,-252"/>
<text text-anchor="middle" x="261" y="-231.5" font-family="sans" font-size="10.00" fill="#000000">nonpareil_plot</text>
</g>
<!-- 14&#45;&gt;1 -->
<g id="edge12" class="edge">
<title>14&#45;&gt;1</title>
<path fill="none" stroke="#c0c0c0" stroke-width="2" d="M266.4407,-215.8783C273.7132,-194.9861 288.7104,-161.3072 314,-144 361.3258,-111.6121 531.8007,-97.0947 607.8842,-92.1225"/>
<polygon fill="#c0c0c0" stroke="#c0c0c0" stroke-width="2" points="608.2121,-95.6088 617.9708,-91.4834 607.7694,-88.6228 608.2121,-95.6088"/>
</g>
<!-- 15&#45;&gt;14 -->
<g id="edge30" class="edge">
<title>15&#45;&gt;14</title>
<path fill="none" stroke="#c0c0c0" stroke-width="2" d="M217.4591,-359.7005C220.2624,-341.2489 225.5791,-312.1235 234,-288 237.1122,-279.0844 241.378,-269.7559 245.5998,-261.4095"/>
<polygon fill="#c0c0c0" stroke="#c0c0c0" stroke-width="2" points="248.7391,-262.9594 250.284,-252.4778 242.5399,-259.7083 248.7391,-262.9594"/>
</g>
<!-- 16 -->
<g id="node17" class="node">
<title>16</title>
<path fill="none" stroke="#56d8a9" stroke-width="2" d="M1189.5,-180C1189.5,-180 1136.5,-180 1136.5,-180 1130.5,-180 1124.5,-174 1124.5,-168 1124.5,-168 1124.5,-156 1124.5,-156 1124.5,-150 1130.5,-144 1136.5,-144 1136.5,-144 1189.5,-144 1189.5,-144 1195.5,-144 1201.5,-150 1201.5,-156 1201.5,-156 1201.5,-168 1201.5,-168 1201.5,-174 1195.5,-180 1189.5,-180"/>
<text text-anchor="middle" x="1163" y="-159.5" font-family="sans" font-size="10.00" fill="#000000">nonpareil_plot</text>
</g>
<!-- 16&#45;&gt;1 -->
<g id="edge13" class="edge">
<title>16&#45;&gt;1</title>
<path fill="none" stroke="#c0c0c0" stroke-width="2" d="M1124.4817,-146.6316C1121.3027,-145.6467 1118.1148,-144.751 1115,-144 957.0114,-105.9095 762.4695,-94.441 682.2615,-91.1965"/>
<polygon fill="#c0c0c0" stroke="#c0c0c0" stroke-width="2" points="682.2903,-87.6952 672.163,-90.8076 682.0209,-94.69 682.2903,-87.6952"/>
</g>
<!-- 17&#45;&gt;16 -->
<g id="edge32" class="edge">
<title>17&#45;&gt;16</title>
<path fill="none" stroke="#c0c0c0" stroke-width="2" d="M1152.9189,-359.9555C1154.8318,-322.3938 1159.2542,-235.5541 1161.5532,-190.4103"/>
<polygon fill="#c0c0c0" stroke="#c0c0c0" stroke-width="2" points="1165.0627,-190.3102 1162.0759,-180.1451 1158.0718,-189.9541 1165.0627,-190.3102"/>
</g>
<!-- 18 -->
<g id="node19" class="node">
<title>18</title>
<path fill="none" stroke="#d8ac56" stroke-width="2" d="M484,-252C484,-252 406,-252 406,-252 400,-252 394,-246 394,-240 394,-240 394,-228 394,-228 394,-222 400,-216 406,-216 406,-216 484,-216 484,-216 490,-216 496,-222 496,-228 496,-228 496,-240 496,-240 496,-246 490,-252 484,-252"/>
<text text-anchor="middle" x="445" y="-237" font-family="sans" font-size="10.00" fill="#000000">fastqc</text>
<text text-anchor="middle" x="445" y="-226" font-family="sans" font-size="10.00" fill="#000000">tool: extend/tadpole</text>
</g>
<!-- 18&#45;&gt;1 -->
<g id="edge14" class="edge">
<title>18&#45;&gt;1</title>
<path fill="none" stroke="#c0c0c0" stroke-width="2" d="M448.0462,-215.9043C452.3723,-195.6738 462.2083,-163.2346 483,-144 517.5632,-112.0253 571.5935,-98.9404 607.6329,-93.6138"/>
<polygon fill="#c0c0c0" stroke="#c0c0c0" stroke-width="2" points="608.3001,-97.0556 617.7436,-92.2525 607.3659,-90.1182 608.3001,-97.0556"/>
</g>
<!-- 19&#45;&gt;18 -->
<g id="edge34" class="edge">
<title>19&#45;&gt;18</title>
<path fill="none" stroke="#c0c0c0" stroke-width="2" d="M492.8501,-287.8314C485.3283,-279.3694 476.2435,-269.1489 468.0196,-259.8971"/>
<polygon fill="#c0c0c0" stroke="#c0c0c0" stroke-width="2" points="470.627,-257.5621 461.3673,-252.4133 465.3951,-262.2127 470.627,-257.5621"/>
</g>
<!-- 33 -->
<g id="node34" class="node">
<title>33</title>
<path fill="none" stroke="#afd856" stroke-width="2" d="M586,-252C586,-252 526,-252 526,-252 520,-252 514,-246 514,-240 514,-240 514,-228 514,-228 514,-222 520,-216 526,-216 526,-216 586,-216 586,-216 592,-216 598,-222 598,-228 598,-228 598,-240 598,-240 598,-246 592,-252 586,-252"/>
<text text-anchor="middle" x="556" y="-231.5" font-family="sans" font-size="10.00" fill="#000000">low_complexity</text>
</g>
<!-- 19&#45;&gt;33 -->
<g id="edge53" class="edge">
<title>19&#45;&gt;33</title>
<path fill="none" stroke="#c0c0c0" stroke-width="2" d="M520.8601,-287.8314C526.1629,-279.7079 532.5237,-269.9637 538.3673,-261.0118"/>
<polygon fill="#c0c0c0" stroke="#c0c0c0" stroke-width="2" points="541.4448,-262.7003 543.9802,-252.4133 535.5831,-258.8739 541.4448,-262.7003"/>
</g>
<!-- 20&#45;&gt;19 -->
<g id="edge36" class="edge">
<title>20&#45;&gt;19</title>
<path fill="none" stroke="#c0c0c0" stroke-width="2" d="M476.1031,-359.8314C481.0674,-351.7079 487.0222,-341.9637 492.4928,-333.0118"/>
<polygon fill="#c0c0c0" stroke="#c0c0c0" stroke-width="2" points="495.5194,-334.7712 497.7474,-324.4133 489.5464,-331.121 495.5194,-334.7712"/>
</g>
<!-- 21 -->
<g id="node22" class="node">
<title>21</title>
<path fill="none" stroke="#d8ac56" stroke-width="2" d="M820,-180C820,-180 742,-180 742,-180 736,-180 730,-174 730,-168 730,-168 730,-156 730,-156 730,-150 736,-144 742,-144 742,-144 820,-144 820,-144 826,-144 832,-150 832,-156 832,-156 832,-168 832,-168 832,-174 826,-180 820,-180"/>
<text text-anchor="middle" x="781" y="-165" font-family="sans" font-size="10.00" fill="#000000">fastqc</text>
<text text-anchor="middle" x="781" y="-154" font-family="sans" font-size="10.00" fill="#000000">tool: extend/tadpole</text>
</g>
<!-- 21&#45;&gt;1 -->
<g id="edge15" class="edge">
<title>21&#45;&gt;1</title>
<path fill="none" stroke="#c0c0c0" stroke-width="2" d="M746.6815,-143.8314C726.6194,-133.2103 701.3245,-119.8188 680.9827,-109.0497"/>
<polygon fill="#c0c0c0" stroke="#c0c0c0" stroke-width="2" points="682.4972,-105.8912 672.0217,-104.3056 679.2219,-112.0778 682.4972,-105.8912"/>
</g>
<!-- 22&#45;&gt;21 -->
<g id="edge38" class="edge">
<title>22&#45;&gt;21</title>
<path fill="none" stroke="#c0c0c0" stroke-width="2" d="M883.2888,-287.7401C873.9353,-277.3863 862.1488,-264.1156 852,-252 834.4279,-231.0224 815.2495,-206.6155 801.2597,-188.5149"/>
<polygon fill="#c0c0c0" stroke="#c0c0c0" stroke-width="2" points="803.7136,-185.965 794.8385,-180.1785 798.1679,-190.2366 803.7136,-185.965"/>
</g>
<!-- 37 -->
<g id="node38" class="node">
<title>37</title>
<path fill="none" stroke="#afd856" stroke-width="2" d="M933,-252C933,-252 873,-252 873,-252 867,-252 861,-246 861,-240 861,-240 861,-228 861,-228 861,-222 867,-216 873,-216 873,-216 933,-216 933,-216 939,-216 945,-222 945,-228 945,-228 945,-240 945,-240 945,-246 939,-252 933,-252"/>
<text text-anchor="middle" x="903" y="-231.5" font-family="sans" font-size="10.00" fill="#000000">low_complexity</text>
</g>
<!-- 22&#45;&gt;37 -->
<g id="edge57" class="edge">
<title>22&#45;&gt;37</title>
<path fill="none" stroke="#c0c0c0" stroke-width="2" d="M900.757,-287.8314C901.0779,-280.131 901.4594,-270.9743 901.816,-262.4166"/>
<polygon fill="#c0c0c0" stroke="#c0c0c0" stroke-width="2" points="905.3133,-262.5503 902.2328,-252.4133 898.3194,-262.2589 905.3133,-262.5503"/>
</g>
<!-- 23&#45;&gt;22 -->
<g id="edge40" class="edge">
<title>23&#45;&gt;22</title>
<path fill="none" stroke="#c0c0c0" stroke-width="2" d="M883.5515,-359.8314C885.9303,-352.0463 888.7638,-342.7729 891.4033,-334.1347"/>
<polygon fill="#c0c0c0" stroke="#c0c0c0" stroke-width="2" points="894.7987,-334.9996 894.3737,-324.4133 888.1042,-332.954 894.7987,-334.9996"/>
</g>
<!-- 24 -->
<g id="node25" class="node">
<title>24</title>
<path fill="none" stroke="#d8ac56" stroke-width="2" d="M192,-252C192,-252 114,-252 114,-252 108,-252 102,-246 102,-240 102,-240 102,-228 102,-228 102,-222 108,-216 114,-216 114,-216 192,-216 192,-216 198,-216 204,-222 204,-228 204,-228 204,-240 204,-240 204,-246 198,-252 192,-252"/>
<text text-anchor="middle" x="153" y="-237" font-family="sans" font-size="10.00" fill="#000000">fastqc</text>
<text text-anchor="middle" x="153" y="-226" font-family="sans" font-size="10.00" fill="#000000">tool: extend/tadpole</text>
</g>
<!-- 24&#45;&gt;1 -->
<g id="edge16" class="edge">
<title>24&#45;&gt;1</title>
<path fill="none" stroke="#c0c0c0" stroke-width="2" d="M171.9859,-215.7631C195.0565,-194.7602 236.1165,-160.9749 278,-144 337.4773,-119.8946 526.7835,-100.5931 607.7201,-93.2259"/>
<polygon fill="#c0c0c0" stroke="#c0c0c0" stroke-width="2" points="608.2985,-96.6881 617.9448,-92.3064 607.6715,-89.7162 608.2985,-96.6881"/>
</g>
<!-- 25&#45;&gt;24 -->
<g id="edge42" class="edge">
<title>25&#45;&gt;24</title>
<path fill="none" stroke="#c0c0c0" stroke-width="2" d="M110.3835,-287.8314C116.9486,-279.5386 124.8507,-269.557 132.0578,-260.4533"/>
<polygon fill="#c0c0c0" stroke="#c0c0c0" stroke-width="2" points="134.9599,-262.4262 138.4228,-252.4133 129.4716,-258.0813 134.9599,-262.4262"/>
</g>
<!-- 31 -->
<g id="node32" class="node">
<title>31</title>
<path fill="none" stroke="#afd856" stroke-width="2" d="M72,-252C72,-252 12,-252 12,-252 6,-252 0,-246 0,-240 0,-240 0,-228 0,-228 0,-222 6,-216 12,-216 12,-216 72,-216 72,-216 78,-216 84,-222 84,-228 84,-228 84,-240 84,-240 84,-246 78,-252 72,-252"/>
<text text-anchor="middle" x="42" y="-231.5" font-family="sans" font-size="10.00" fill="#000000">low_complexity</text>
</g>
<!-- 25&#45;&gt;31 -->
<g id="edge51" class="edge">
<title>25&#45;&gt;31</title>
<path fill="none" stroke="#c0c0c0" stroke-width="2" d="M82.3735,-287.8314C76.154,-279.5386 68.6678,-269.557 61.84,-260.4533"/>
<polygon fill="#c0c0c0" stroke="#c0c0c0" stroke-width="2" points="64.61,-258.3133 55.81,-252.4133 59.01,-262.5133 64.61,-258.3133"/>
</g>
<!-- 26&#45;&gt;25 -->
<g id="edge44" class="edge">
<title>26&#45;&gt;25</title>
<path fill="none" stroke="#c0c0c0" stroke-width="2" d="M116.1868,-359.8314C113.2356,-351.9617 109.7142,-342.5712 106.445,-333.8533"/>
<polygon fill="#c0c0c0" stroke="#c0c0c0" stroke-width="2" points="109.6934,-332.5476 102.905,-324.4133 103.1391,-335.0055 109.6934,-332.5476"/>
</g>
<!-- 27 -->
<g id="node28" class="node">
<title>27</title>
<path fill="none" stroke="#d8ac56" stroke-width="2" d="M1310,-180C1310,-180 1232,-180 1232,-180 1226,-180 1220,-174 1220,-168 1220,-168 1220,-156 1220,-156 1220,-150 1226,-144 1232,-144 1232,-144 1310,-144 1310,-144 1316,-144 1322,-150 1322,-156 1322,-156 1322,-168 1322,-168 1322,-174 1316,-180 1310,-180"/>
<text text-anchor="middle" x="1271" y="-165" font-family="sans" font-size="10.00" fill="#000000">fastqc</text>
<text text-anchor="middle" x="1271" y="-154" font-family="sans" font-size="10.00" fill="#000000">tool: extend/tadpole</text>
</g>
<!-- 27&#45;&gt;1 -->
<g id="edge17" class="edge">
<title>27&#45;&gt;1</title>
<path fill="none" stroke="#c0c0c0" stroke-width="2" d="M1219.7791,-145.9124C1216.8229,-145.2093 1213.8817,-144.564 1211,-144 1014.1521,-105.4707 773.1895,-94.0844 682.173,-91.0267"/>
<polygon fill="#c0c0c0" stroke="#c0c0c0" stroke-width="2" points="682.1867,-87.5254 672.0792,-90.7015 681.9613,-94.5218 682.1867,-87.5254"/>
</g>
<!-- 28&#45;&gt;27 -->
<g id="edge46" class="edge">
<title>28&#45;&gt;27</title>
<path fill="none" stroke="#c0c0c0" stroke-width="2" d="M1289.3403,-287.7623C1285.7585,-263.201 1279.3486,-219.2474 1275.135,-190.3541"/>
<polygon fill="#c0c0c0" stroke="#c0c0c0" stroke-width="2" points="1278.5446,-189.4798 1273.6381,-180.0896 1271.6179,-190.4901 1278.5446,-189.4798"/>
</g>
<!-- 35 -->
<g id="node36" class="node">
<title>35</title>
<path fill="none" stroke="#afd856" stroke-width="2" d="M1423,-252C1423,-252 1363,-252 1363,-252 1357,-252 1351,-246 1351,-240 1351,-240 1351,-228 1351,-228 1351,-222 1357,-216 1363,-216 1363,-216 1423,-216 1423,-216 1429,-216 1435,-222 1435,-228 1435,-228 1435,-240 1435,-240 1435,-246 1429,-252 1423,-252"/>
<text text-anchor="middle" x="1393" y="-231.5" font-family="sans" font-size="10.00" fill="#000000">low_complexity</text>
</g>
<!-- 28&#45;&gt;35 -->
<g id="edge55" class="edge">
<title>28&#45;&gt;35</title>
<path fill="none" stroke="#c0c0c0" stroke-width="2" d="M1317.4866,-287.8314C1330.1659,-278.7927 1345.6596,-267.7476 1359.3055,-258.0198"/>
<polygon fill="#c0c0c0" stroke="#c0c0c0" stroke-width="2" points="1361.4105,-260.8176 1367.5216,-252.1628 1357.3471,-255.1176 1361.4105,-260.8176"/>
</g>
<!-- 29&#45;&gt;28 -->
<g id="edge48" class="edge">
<title>29&#45;&gt;28</title>
<path fill="none" stroke="#c0c0c0" stroke-width="2" d="M1256.1124,-359.8314C1261.5281,-351.7079 1268.0242,-341.9637 1273.9921,-333.0118"/>
<polygon fill="#c0c0c0" stroke="#c0c0c0" stroke-width="2" points="1277.0896,-334.6753 1279.7245,-324.4133 1271.2653,-330.7923 1277.0896,-334.6753"/>
</g>
<!-- 30 -->
<g id="node31" class="node">
<title>30</title>
<path fill="none" stroke="#d8ac56" stroke-width="2" d="M191,-180C191,-180 109,-180 109,-180 103,-180 97,-174 97,-168 97,-168 97,-156 97,-156 97,-150 103,-144 109,-144 109,-144 191,-144 191,-144 197,-144 203,-150 203,-156 203,-156 203,-168 203,-168 203,-174 197,-180 191,-180"/>
<text text-anchor="middle" x="150" y="-165" font-family="sans" font-size="10.00" fill="#000000">fastqc</text>
<text text-anchor="middle" x="150" y="-154" font-family="sans" font-size="10.00" fill="#000000">tool: low_complexity</text>
</g>
<!-- 30&#45;&gt;1 -->
<g id="edge18" class="edge">
<title>30&#45;&gt;1</title>
<path fill="none" stroke="#c0c0c0" stroke-width="2" d="M203.4039,-149.1097C211.9374,-147.2587 220.6911,-145.4824 229,-144 367.7206,-119.2505 534.3837,-101.0658 607.5101,-93.6602"/>
<polygon fill="#c0c0c0" stroke="#c0c0c0" stroke-width="2" points="608.0058,-97.1281 617.606,-92.6463 607.3063,-90.1632 608.0058,-97.1281"/>
</g>
<!-- 31&#45;&gt;0 -->
<g id="edge5" class="edge">
<title>31&#45;&gt;0</title>
<path fill="none" stroke="#c0c0c0" stroke-width="2" d="M46.3164,-215.8176C52.1831,-195.1922 64.718,-162.0836 88,-144 170.775,-79.7071 496.7559,-35.6675 607.7552,-22.2815"/>
<polygon fill="#c0c0c0" stroke="#c0c0c0" stroke-width="2" points="608.2955,-25.7419 617.8105,-21.0821 607.4664,-18.7912 608.2955,-25.7419"/>
</g>
<!-- 31&#45;&gt;30 -->
<g id="edge50" class="edge">
<title>31&#45;&gt;30</title>
<path fill="none" stroke="#c0c0c0" stroke-width="2" d="M69.253,-215.8314C82.9389,-206.7074 99.6915,-195.539 114.3827,-185.7449"/>
<polygon fill="#c0c0c0" stroke="#c0c0c0" stroke-width="2" points="116.3767,-188.6221 122.7558,-180.1628 112.4938,-182.7977 116.3767,-188.6221"/>
</g>
<!-- 32 -->
<g id="node33" class="node">
<title>32</title>
<path fill="none" stroke="#d8ac56" stroke-width="2" d="M586,-180C586,-180 504,-180 504,-180 498,-180 492,-174 492,-168 492,-168 492,-156 492,-156 492,-150 498,-144 504,-144 504,-144 586,-144 586,-144 592,-144 598,-150 598,-156 598,-156 598,-168 598,-168 598,-174 592,-180 586,-180"/>
<text text-anchor="middle" x="545" y="-165" font-family="sans" font-size="10.00" fill="#000000">fastqc</text>
<text text-anchor="middle" x="545" y="-154" font-family="sans" font-size="10.00" fill="#000000">tool: low_complexity</text>
</g>
<!-- 32&#45;&gt;1 -->
<g id="edge19" class="edge">
<title>32&#45;&gt;1</title>
<path fill="none" stroke="#c0c0c0" stroke-width="2" d="M570.2342,-143.8314C582.788,-134.7927 598.1283,-123.7476 611.6391,-114.0198"/>
<polygon fill="#c0c0c0" stroke="#c0c0c0" stroke-width="2" points="613.7036,-116.8463 619.7739,-108.1628 609.6134,-111.1655 613.7036,-116.8463"/>
</g>
<!-- 33&#45;&gt;0 -->
<g id="edge3" class="edge">
<title>33&#45;&gt;0</title>
<path fill="none" stroke="#c0c0c0" stroke-width="2" d="M518.6998,-215.9669C504.8542,-207.189 490.6642,-195.2027 483,-180 475.7973,-165.7129 475.9704,-158.373 483,-144 509.014,-90.8108 569.5172,-53.5823 608.772,-34.0058"/>
<polygon fill="#c0c0c0" stroke="#c0c0c0" stroke-width="2" points="610.3049,-37.1523 617.7746,-29.6387 607.2497,-30.8542 610.3049,-37.1523"/>
</g>
<!-- 33&#45;&gt;32 -->
<g id="edge52" class="edge">
<title>33&#45;&gt;32</title>
<path fill="none" stroke="#c0c0c0" stroke-width="2" d="M553.2242,-215.8314C552.0478,-208.131 550.6489,-198.9743 549.3414,-190.4166"/>
<polygon fill="#c0c0c0" stroke="#c0c0c0" stroke-width="2" points="552.7833,-189.7699 547.8131,-180.4133 545.8636,-190.8272 552.7833,-189.7699"/>
</g>
<!-- 34 -->
<g id="node35" class="node">
<title>34</title>
<path fill="none" stroke="#d8ac56" stroke-width="2" d="M1434,-180C1434,-180 1352,-180 1352,-180 1346,-180 1340,-174 1340,-168 1340,-168 1340,-156 1340,-156 1340,-150 1346,-144 1352,-144 1352,-144 1434,-144 1434,-144 1440,-144 1446,-150 1446,-156 1446,-156 1446,-168 1446,-168 1446,-174 1440,-180 1434,-180"/>
<text text-anchor="middle" x="1393" y="-165" font-family="sans" font-size="10.00" fill="#000000">fastqc</text>
<text text-anchor="middle" x="1393" y="-154" font-family="sans" font-size="10.00" fill="#000000">tool: low_complexity</text>
</g>
<!-- 34&#45;&gt;1 -->
<g id="edge20" class="edge">
<title>34&#45;&gt;1</title>
<path fill="none" stroke="#c0c0c0" stroke-width="2" d="M1339.7308,-145.7865C1336.7908,-145.126 1333.8668,-144.5233 1331,-144 1204.6714,-120.9396 806.7296,-98.528 682.4574,-91.9385"/>
<polygon fill="#c0c0c0" stroke="#c0c0c0" stroke-width="2" points="682.4727,-88.4345 672.3023,-91.403 682.1041,-95.4248 682.4727,-88.4345"/>
</g>
<!-- 35&#45;&gt;0 -->
<g id="edge2" class="edge">
<title>35&#45;&gt;0</title>
<path fill="none" stroke="#c0c0c0" stroke-width="2" d="M1420.0263,-215.9507C1444.8555,-197.1849 1474.9946,-167.3453 1455,-144 1403.7508,-84.1624 835.1231,-33.5692 682.508,-20.9981"/>
<polygon fill="#c0c0c0" stroke="#c0c0c0" stroke-width="2" points="682.5036,-17.4861 672.2515,-20.1591 681.9329,-24.4628 682.5036,-17.4861"/>
</g>
<!-- 35&#45;&gt;34 -->
<g id="edge54" class="edge">
<title>35&#45;&gt;34</title>
<path fill="none" stroke="#c0c0c0" stroke-width="2" d="M1393,-215.8314C1393,-208.131 1393,-198.9743 1393,-190.4166"/>
<polygon fill="#c0c0c0" stroke="#c0c0c0" stroke-width="2" points="1396.5001,-190.4132 1393,-180.4133 1389.5001,-190.4133 1396.5001,-190.4132"/>
</g>
<!-- 36 -->
<g id="node37" class="node">
<title>36</title>
<path fill="none" stroke="#d8ac56" stroke-width="2" d="M944,-180C944,-180 862,-180 862,-180 856,-180 850,-174 850,-168 850,-168 850,-156 850,-156 850,-150 856,-144 862,-144 862,-144 944,-144 944,-144 950,-144 956,-150 956,-156 956,-156 956,-168 956,-168 956,-174 950,-180 944,-180"/>
<text text-anchor="middle" x="903" y="-165" font-family="sans" font-size="10.00" fill="#000000">fastqc</text>
<text text-anchor="middle" x="903" y="-154" font-family="sans" font-size="10.00" fill="#000000">tool: low_complexity</text>
</g>
<!-- 36&#45;&gt;1 -->
<g id="edge21" class="edge">
<title>36&#45;&gt;1</title>
<path fill="none" stroke="#c0c0c0" stroke-width="2" d="M849.9139,-146.536C846.8994,-145.6741 843.912,-144.8238 841,-144 785.6998,-128.3555 721.4548,-110.7665 682.0149,-100.0355"/>
<polygon fill="#c0c0c0" stroke="#c0c0c0" stroke-width="2" points="682.8694,-96.6409 672.3015,-97.3949 681.033,-103.3957 682.8694,-96.6409"/>
</g>
<!-- 37&#45;&gt;0 -->
<g id="edge4" class="edge">
<title>37&#45;&gt;0</title>
<path fill="none" stroke="#c0c0c0" stroke-width="2" d="M933.4958,-215.7757C945.6822,-206.7056 958.3772,-194.5508 965,-180 971.6281,-165.4374 974.0058,-157.2248 965,-144 931.7517,-95.1756 758.7324,-46.5533 681.8668,-26.9883"/>
<polygon fill="#c0c0c0" stroke="#c0c0c0" stroke-width="2" points="682.6684,-23.581 672.1163,-24.5314 680.9579,-30.3688 682.6684,-23.581"/>
</g>
<!-- 37&#45;&gt;36 -->
<g id="edge56" class="edge">
<title>37&#45;&gt;36</title>
<path fill="none" stroke="#c0c0c0" stroke-width="2" d="M903,-215.8314C903,-208.131 903,-198.9743 903,-190.4166"/>
<polygon fill="#c0c0c0" stroke="#c0c0c0" stroke-width="2" points="906.5001,-190.4132 903,-180.4133 899.5001,-190.4133 906.5001,-190.4132"/>
</g>
</g>
</svg>
