<?xml version="1.0" encoding="UTF-8" standalone="no"?>
<!DOCTYPE svg PUBLIC "-//W3C//DTD SVG 1.1//EN"
 "http://www.w3.org/Graphics/SVG/1.1/DTD/svg11.dtd">
<!-- Generated by graphviz version 2.40.1 (0)
 -->
<!-- Title: snakemake_dag Pages: 1 -->
<svg width="1383pt" height="492pt"
 viewBox="0.00 0.00 1382.98 492.00" xmlns="http://www.w3.org/2000/svg" xmlns:xlink="http://www.w3.org/1999/xlink">
<g id="graph0" class="graph" transform="scale(1 1) rotate(0) translate(4 488)">
<title>snakemake_dag</title>
<polygon fill="#ffffff" stroke="transparent" points="-4,4 -4,-488 1378.98,-488 1378.98,4 -4,4"/>
<!-- 0 -->
<g id="node1" class="node">
<title>0</title>
<path fill="none" stroke="#d85656" stroke-width="2" d="M651.4145,-36C651.4145,-36 621.4145,-36 621.4145,-36 615.4145,-36 609.4145,-30 609.4145,-24 609.4145,-24 609.4145,-12 609.4145,-12 609.4145,-6 615.4145,0 621.4145,0 621.4145,0 651.4145,0 651.4145,0 657.4145,0 663.4145,-6 663.4145,-12 663.4145,-12 663.4145,-24 663.4145,-24 663.4145,-30 657.4145,-36 651.4145,-36"/>
<text text-anchor="middle" x="636.4145" y="-15.5" font-family="sans" font-size="10.00" fill="#000000">all</text>
</g>
<!-- 1 -->
<g id="node2" class="node">
<title>1</title>
<path fill="none" stroke="#59d856" stroke-width="2" d="M651.4145,-108C651.4145,-108 621.4145,-108 621.4145,-108 615.4145,-108 609.4145,-102 609.4145,-96 609.4145,-96 609.4145,-84 609.4145,-84 609.4145,-78 615.4145,-72 621.4145,-72 621.4145,-72 651.4145,-72 651.4145,-72 657.4145,-72 663.4145,-78 663.4145,-84 663.4145,-84 663.4145,-96 663.4145,-96 663.4145,-102 657.4145,-108 651.4145,-108"/>
<text text-anchor="middle" x="636.4145" y="-87.5" font-family="sans" font-size="10.00" fill="#000000">multiqc</text>
</g>
<!-- 1&#45;&gt;0 -->
<g id="edge1" class="edge">
<title>1&#45;&gt;0</title>
<path fill="none" stroke="#c0c0c0" stroke-width="2" d="M636.4145,-71.8314C636.4145,-64.131 636.4145,-54.9743 636.4145,-46.4166"/>
<polygon fill="#c0c0c0" stroke="#c0c0c0" stroke-width="2" points="639.9146,-46.4132 636.4145,-36.4133 632.9146,-46.4133 639.9146,-46.4132"/>
</g>
<!-- 2 -->
<g id="node3" class="node">
<title>2</title>
<path fill="none" stroke="#d8ac56" stroke-width="2" d="M1007.4145,-180C1007.4145,-180 937.4145,-180 937.4145,-180 931.4145,-180 925.4145,-174 925.4145,-168 925.4145,-168 925.4145,-156 925.4145,-156 925.4145,-150 931.4145,-144 937.4145,-144 937.4145,-144 1007.4145,-144 1007.4145,-144 1013.4145,-144 1019.4145,-150 1019.4145,-156 1019.4145,-156 1019.4145,-168 1019.4145,-168 1019.4145,-174 1013.4145,-180 1007.4145,-180"/>
<text text-anchor="middle" x="972.4145" y="-165" font-family="sans" font-size="10.00" fill="#000000">fastqc</text>
<text text-anchor="middle" x="972.4145" y="-154" font-family="sans" font-size="10.00" fill="#000000">tool: merge_lanes</text>
</g>
<!-- 2&#45;&gt;1 -->
<g id="edge6" class="edge">
<title>2&#45;&gt;1</title>
<path fill="none" stroke="#c0c0c0" stroke-width="2" d="M925.3414,-151.9129C857.9022,-137.4616 735.1576,-111.1592 673.6442,-97.9778"/>
<polygon fill="#c0c0c0" stroke="#c0c0c0" stroke-width="2" points="674.1171,-94.4997 663.6057,-95.8267 672.6503,-101.3444 674.1171,-94.4997"/>
</g>
<!-- 3 -->
<g id="node4" class="node">
<title>3</title>
<path fill="none" stroke="#80d856" stroke-width="2" d="M1183.4145,-484C1183.4145,-484 1079.4145,-484 1079.4145,-484 1073.4145,-484 1067.4145,-478 1067.4145,-472 1067.4145,-472 1067.4145,-444 1067.4145,-444 1067.4145,-438 1073.4145,-432 1079.4145,-432 1079.4145,-432 1183.4145,-432 1183.4145,-432 1189.4145,-432 1195.4145,-438 1195.4145,-444 1195.4145,-444 1195.4145,-472 1195.4145,-472 1195.4145,-478 1189.4145,-484 1183.4145,-484"/>
<text text-anchor="middle" x="1131.4145" y="-472" font-family="sans" font-size="10.00" fill="#000000">merge_lanes</text>
<text text-anchor="middle" x="1131.4145" y="-461" font-family="sans" font-size="10.00" fill="#000000">library: lib1</text>
<text text-anchor="middle" x="1131.4145" y="-450" font-family="sans" font-size="10.00" fill="#000000">read_type_trim: collapsed</text>
<text text-anchor="middle" x="1131.4145" y="-439" font-family="sans" font-size="10.00" fill="#000000">sample: HD827sonic_1</text>
</g>
<!-- 3&#45;&gt;2 -->
<g id="edge22" class="edge">
<title>3&#45;&gt;2</title>
<path fill="none" stroke="#c0c0c0" stroke-width="2" d="M1070.3743,-431.8492C1054.9549,-422.5847 1039.8363,-410.7117 1029.4145,-396 982.1509,-329.2813 1013.4746,-294.7311 991.4145,-216 989.0126,-207.4275 985.9652,-198.2426 983.0182,-189.9233"/>
<polygon fill="#c0c0c0" stroke="#c0c0c0" stroke-width="2" points="986.2279,-188.5081 979.5234,-180.3045 979.6487,-190.8986 986.2279,-188.5081"/>
</g>
<!-- 11 -->
<g id="node12" class="node">
<title>11</title>
<path fill="none" stroke="#56d882" stroke-width="2" d="M1120.4145,-396C1120.4145,-396 1050.4145,-396 1050.4145,-396 1044.4145,-396 1038.4145,-390 1038.4145,-384 1038.4145,-384 1038.4145,-372 1038.4145,-372 1038.4145,-366 1044.4145,-360 1050.4145,-360 1050.4145,-360 1120.4145,-360 1120.4145,-360 1126.4145,-360 1132.4145,-366 1132.4145,-372 1132.4145,-372 1132.4145,-384 1132.4145,-384 1132.4145,-390 1126.4145,-396 1120.4145,-396"/>
<text text-anchor="middle" x="1085.4145" y="-381" font-family="sans" font-size="10.00" fill="#000000">nonpareil_infer</text>
<text text-anchor="middle" x="1085.4145" y="-370" font-family="sans" font-size="10.00" fill="#000000">tool: merge_lanes</text>
</g>
<!-- 3&#45;&gt;11 -->
<g id="edge27" class="edge">
<title>3&#45;&gt;11</title>
<path fill="none" stroke="#c0c0c0" stroke-width="2" d="M1116.3524,-431.805C1111.4264,-423.238 1105.9467,-413.7081 1100.984,-405.0774"/>
<polygon fill="#c0c0c0" stroke="#c0c0c0" stroke-width="2" points="1103.8716,-403.0776 1095.8526,-396.1532 1097.8032,-406.567 1103.8716,-403.0776"/>
</g>
<!-- 28 -->
<g id="node29" class="node">
<title>28</title>
<path fill="none" stroke="#d88556" stroke-width="2" d="M1250.9145,-324C1250.9145,-324 1191.9145,-324 1191.9145,-324 1185.9145,-324 1179.9145,-318 1179.9145,-312 1179.9145,-312 1179.9145,-300 1179.9145,-300 1179.9145,-294 1185.9145,-288 1191.9145,-288 1191.9145,-288 1250.9145,-288 1250.9145,-288 1256.9145,-288 1262.9145,-294 1262.9145,-300 1262.9145,-300 1262.9145,-312 1262.9145,-312 1262.9145,-318 1256.9145,-324 1250.9145,-324"/>
<text text-anchor="middle" x="1221.4145" y="-303.5" font-family="sans" font-size="10.00" fill="#000000">extend_tadpole</text>
</g>
<!-- 3&#45;&gt;28 -->
<g id="edge47" class="edge">
<title>3&#45;&gt;28</title>
<path fill="none" stroke="#c0c0c0" stroke-width="2" d="M1179.4566,-431.949C1192.6271,-422.4084 1205.4558,-410.3618 1213.4145,-396 1223.7748,-377.3045 1225.3728,-353.0138 1224.601,-334.3805"/>
<polygon fill="#c0c0c0" stroke="#c0c0c0" stroke-width="2" points="1228.0765,-333.8942 1223.9211,-324.1483 1221.0919,-334.3584 1228.0765,-333.8942"/>
</g>
<!-- 29 -->
<g id="node30" class="node">
<title>29</title>
<path fill="none" stroke="#d6d856" stroke-width="2" d="M1192.4145,-396C1192.4145,-396 1162.4145,-396 1162.4145,-396 1156.4145,-396 1150.4145,-390 1150.4145,-384 1150.4145,-384 1150.4145,-372 1150.4145,-372 1150.4145,-366 1156.4145,-360 1162.4145,-360 1162.4145,-360 1192.4145,-360 1192.4145,-360 1198.4145,-360 1204.4145,-366 1204.4145,-372 1204.4145,-372 1204.4145,-384 1204.4145,-384 1204.4145,-390 1198.4145,-396 1192.4145,-396"/>
<text text-anchor="middle" x="1177.4145" y="-375.5" font-family="sans" font-size="10.00" fill="#000000">loglog</text>
</g>
<!-- 3&#45;&gt;29 -->
<g id="edge49" class="edge">
<title>3&#45;&gt;29</title>
<path fill="none" stroke="#c0c0c0" stroke-width="2" d="M1146.4766,-431.805C1151.4027,-423.238 1156.8824,-413.7081 1161.845,-405.0774"/>
<polygon fill="#c0c0c0" stroke="#c0c0c0" stroke-width="2" points="1165.0258,-406.567 1166.9764,-396.1532 1158.9575,-403.0776 1165.0258,-406.567"/>
</g>
<!-- 4 -->
<g id="node5" class="node">
<title>4</title>
<path fill="none" stroke="#d8ac56" stroke-width="2" d="M253.4145,-324C253.4145,-324 183.4145,-324 183.4145,-324 177.4145,-324 171.4145,-318 171.4145,-312 171.4145,-312 171.4145,-300 171.4145,-300 171.4145,-294 177.4145,-288 183.4145,-288 183.4145,-288 253.4145,-288 253.4145,-288 259.4145,-288 265.4145,-294 265.4145,-300 265.4145,-300 265.4145,-312 265.4145,-312 265.4145,-318 259.4145,-324 253.4145,-324"/>
<text text-anchor="middle" x="218.4145" y="-309" font-family="sans" font-size="10.00" fill="#000000">fastqc</text>
<text text-anchor="middle" x="218.4145" y="-298" font-family="sans" font-size="10.00" fill="#000000">tool: merge_lanes</text>
</g>
<!-- 4&#45;&gt;1 -->
<g id="edge7" class="edge">
<title>4&#45;&gt;1</title>
<path fill="none" stroke="#c0c0c0" stroke-width="2" d="M219.6523,-287.943C221.744,-268.6284 227.3593,-237.8329 242.4145,-216 273.5042,-170.9141 292.0324,-165.4698 342.4145,-144 429.606,-106.8442 542.0232,-95.2195 599.2972,-91.6083"/>
<polygon fill="#c0c0c0" stroke="#c0c0c0" stroke-width="2" points="599.5522,-95.0994 609.3313,-91.0229 599.1444,-88.1113 599.5522,-95.0994"/>
</g>
<!-- 5 -->
<g id="node6" class="node">
<title>5</title>
<path fill="none" stroke="#80d856" stroke-width="2" d="M243.4145,-484C243.4145,-484 139.4145,-484 139.4145,-484 133.4145,-484 127.4145,-478 127.4145,-472 127.4145,-472 127.4145,-444 127.4145,-444 127.4145,-438 133.4145,-432 139.4145,-432 139.4145,-432 243.4145,-432 243.4145,-432 249.4145,-432 255.4145,-438 255.4145,-444 255.4145,-444 255.4145,-472 255.4145,-472 255.4145,-478 249.4145,-484 243.4145,-484"/>
<text text-anchor="middle" x="191.4145" y="-472" font-family="sans" font-size="10.00" fill="#000000">merge_lanes</text>
<text text-anchor="middle" x="191.4145" y="-461" font-family="sans" font-size="10.00" fill="#000000">library: lib2</text>
<text text-anchor="middle" x="191.4145" y="-450" font-family="sans" font-size="10.00" fill="#000000">read_type_trim: collapsed</text>
<text text-anchor="middle" x="191.4145" y="-439" font-family="sans" font-size="10.00" fill="#000000">sample: HD827sonic_2</text>
</g>
<!-- 5&#45;&gt;4 -->
<g id="edge23" class="edge">
<title>5&#45;&gt;4</title>
<path fill="none" stroke="#c0c0c0" stroke-width="2" d="M196.056,-431.8703C200.8958,-404.6241 208.4551,-362.0678 213.4217,-334.1075"/>
<polygon fill="#c0c0c0" stroke="#c0c0c0" stroke-width="2" points="216.8843,-334.6265 215.1872,-324.1685 209.9922,-333.4022 216.8843,-334.6265"/>
</g>
<!-- 17 -->
<g id="node18" class="node">
<title>17</title>
<path fill="none" stroke="#56d882" stroke-width="2" d="M328.4145,-396C328.4145,-396 258.4145,-396 258.4145,-396 252.4145,-396 246.4145,-390 246.4145,-384 246.4145,-384 246.4145,-372 246.4145,-372 246.4145,-366 252.4145,-360 258.4145,-360 258.4145,-360 328.4145,-360 328.4145,-360 334.4145,-360 340.4145,-366 340.4145,-372 340.4145,-372 340.4145,-384 340.4145,-384 340.4145,-390 334.4145,-396 328.4145,-396"/>
<text text-anchor="middle" x="293.4145" y="-381" font-family="sans" font-size="10.00" fill="#000000">nonpareil_infer</text>
<text text-anchor="middle" x="293.4145" y="-370" font-family="sans" font-size="10.00" fill="#000000">tool: merge_lanes</text>
</g>
<!-- 5&#45;&gt;17 -->
<g id="edge33" class="edge">
<title>5&#45;&gt;17</title>
<path fill="none" stroke="#c0c0c0" stroke-width="2" d="M224.8131,-431.805C236.8981,-422.3266 250.4859,-411.6695 262.361,-402.3557"/>
<polygon fill="#c0c0c0" stroke="#c0c0c0" stroke-width="2" points="264.5606,-405.0787 270.2691,-396.1532 260.2406,-399.5707 264.5606,-405.0787"/>
</g>
<!-- 25 -->
<g id="node26" class="node">
<title>25</title>
<path fill="none" stroke="#d88556" stroke-width="2" d="M138.9145,-324C138.9145,-324 79.9145,-324 79.9145,-324 73.9145,-324 67.9145,-318 67.9145,-312 67.9145,-312 67.9145,-300 67.9145,-300 67.9145,-294 73.9145,-288 79.9145,-288 79.9145,-288 138.9145,-288 138.9145,-288 144.9145,-288 150.9145,-294 150.9145,-300 150.9145,-300 150.9145,-312 150.9145,-312 150.9145,-318 144.9145,-324 138.9145,-324"/>
<text text-anchor="middle" x="109.4145" y="-303.5" font-family="sans" font-size="10.00" fill="#000000">extend_tadpole</text>
</g>
<!-- 5&#45;&gt;25 -->
<g id="edge43" class="edge">
<title>5&#45;&gt;25</title>
<path fill="none" stroke="#c0c0c0" stroke-width="2" d="M157.0003,-431.8159C145.9808,-421.7636 134.7481,-409.4453 127.4145,-396 117.0818,-377.056 112.6439,-352.9695 110.7557,-334.4824"/>
<polygon fill="#c0c0c0" stroke="#c0c0c0" stroke-width="2" points="114.228,-334.0021 109.9133,-324.3257 107.2519,-334.5808 114.228,-334.0021"/>
</g>
<!-- 26 -->
<g id="node27" class="node">
<title>26</title>
<path fill="none" stroke="#d6d856" stroke-width="2" d="M178.4145,-396C178.4145,-396 148.4145,-396 148.4145,-396 142.4145,-396 136.4145,-390 136.4145,-384 136.4145,-384 136.4145,-372 136.4145,-372 136.4145,-366 142.4145,-360 148.4145,-360 148.4145,-360 178.4145,-360 178.4145,-360 184.4145,-360 190.4145,-366 190.4145,-372 190.4145,-372 190.4145,-384 190.4145,-384 190.4145,-390 184.4145,-396 178.4145,-396"/>
<text text-anchor="middle" x="163.4145" y="-375.5" font-family="sans" font-size="10.00" fill="#000000">loglog</text>
</g>
<!-- 5&#45;&gt;26 -->
<g id="edge45" class="edge">
<title>5&#45;&gt;26</title>
<path fill="none" stroke="#c0c0c0" stroke-width="2" d="M182.2463,-431.805C179.3116,-423.4203 176.0541,-414.1132 173.0848,-405.6295"/>
<polygon fill="#c0c0c0" stroke="#c0c0c0" stroke-width="2" points="176.3752,-404.4356 169.7682,-396.1532 169.7682,-406.7481 176.3752,-404.4356"/>
</g>
<!-- 6 -->
<g id="node7" class="node">
<title>6</title>
<path fill="none" stroke="#d8ac56" stroke-width="2" d="M797.4145,-324C797.4145,-324 727.4145,-324 727.4145,-324 721.4145,-324 715.4145,-318 715.4145,-312 715.4145,-312 715.4145,-300 715.4145,-300 715.4145,-294 721.4145,-288 727.4145,-288 727.4145,-288 797.4145,-288 797.4145,-288 803.4145,-288 809.4145,-294 809.4145,-300 809.4145,-300 809.4145,-312 809.4145,-312 809.4145,-318 803.4145,-324 797.4145,-324"/>
<text text-anchor="middle" x="762.4145" y="-309" font-family="sans" font-size="10.00" fill="#000000">fastqc</text>
<text text-anchor="middle" x="762.4145" y="-298" font-family="sans" font-size="10.00" fill="#000000">tool: merge_lanes</text>
</g>
<!-- 6&#45;&gt;1 -->
<g id="edge8" class="edge">
<title>6&#45;&gt;1</title>
<path fill="none" stroke="#c0c0c0" stroke-width="2" d="M757.9381,-287.7213C752.9497,-269.0311 743.91,-239.49 731.4145,-216 711.5324,-178.6238 681.0375,-140.4593 659.987,-116.0773"/>
<polygon fill="#c0c0c0" stroke="#c0c0c0" stroke-width="2" points="662.4558,-113.5834 653.2392,-108.358 657.1855,-118.1905 662.4558,-113.5834"/>
</g>
<!-- 7 -->
<g id="node8" class="node">
<title>7</title>
<path fill="none" stroke="#80d856" stroke-width="2" d="M842.4145,-484C842.4145,-484 738.4145,-484 738.4145,-484 732.4145,-484 726.4145,-478 726.4145,-472 726.4145,-472 726.4145,-444 726.4145,-444 726.4145,-438 732.4145,-432 738.4145,-432 738.4145,-432 842.4145,-432 842.4145,-432 848.4145,-432 854.4145,-438 854.4145,-444 854.4145,-444 854.4145,-472 854.4145,-472 854.4145,-478 848.4145,-484 842.4145,-484"/>
<text text-anchor="middle" x="790.4145" y="-472" font-family="sans" font-size="10.00" fill="#000000">merge_lanes</text>
<text text-anchor="middle" x="790.4145" y="-461" font-family="sans" font-size="10.00" fill="#000000">library: lib1</text>
<text text-anchor="middle" x="790.4145" y="-450" font-family="sans" font-size="10.00" fill="#000000">read_type_trim: collapsed</text>
<text text-anchor="middle" x="790.4145" y="-439" font-family="sans" font-size="10.00" fill="#000000">sample: HD827sonic_2</text>
</g>
<!-- 7&#45;&gt;6 -->
<g id="edge24" class="edge">
<title>7&#45;&gt;6</title>
<path fill="none" stroke="#c0c0c0" stroke-width="2" d="M785.6011,-431.8703C780.5821,-404.6241 772.7428,-362.0678 767.5922,-334.1075"/>
<polygon fill="#c0c0c0" stroke="#c0c0c0" stroke-width="2" points="771.0151,-333.3689 765.7613,-324.1685 764.131,-334.6371 771.0151,-333.3689"/>
</g>
<!-- 13 -->
<g id="node14" class="node">
<title>13</title>
<path fill="none" stroke="#56d882" stroke-width="2" d="M722.4145,-396C722.4145,-396 652.4145,-396 652.4145,-396 646.4145,-396 640.4145,-390 640.4145,-384 640.4145,-384 640.4145,-372 640.4145,-372 640.4145,-366 646.4145,-360 652.4145,-360 652.4145,-360 722.4145,-360 722.4145,-360 728.4145,-360 734.4145,-366 734.4145,-372 734.4145,-372 734.4145,-384 734.4145,-384 734.4145,-390 728.4145,-396 722.4145,-396"/>
<text text-anchor="middle" x="687.4145" y="-381" font-family="sans" font-size="10.00" fill="#000000">nonpareil_infer</text>
<text text-anchor="middle" x="687.4145" y="-370" font-family="sans" font-size="10.00" fill="#000000">tool: merge_lanes</text>
</g>
<!-- 7&#45;&gt;13 -->
<g id="edge29" class="edge">
<title>7&#45;&gt;13</title>
<path fill="none" stroke="#c0c0c0" stroke-width="2" d="M756.6885,-431.805C744.4851,-422.3266 730.764,-411.6695 718.7725,-402.3557"/>
<polygon fill="#c0c0c0" stroke="#c0c0c0" stroke-width="2" points="720.8314,-399.5232 710.7868,-396.1532 716.5375,-405.0516 720.8314,-399.5232"/>
</g>
<!-- 22 -->
<g id="node23" class="node">
<title>22</title>
<path fill="none" stroke="#d88556" stroke-width="2" d="M900.9145,-324C900.9145,-324 841.9145,-324 841.9145,-324 835.9145,-324 829.9145,-318 829.9145,-312 829.9145,-312 829.9145,-300 829.9145,-300 829.9145,-294 835.9145,-288 841.9145,-288 841.9145,-288 900.9145,-288 900.9145,-288 906.9145,-288 912.9145,-294 912.9145,-300 912.9145,-300 912.9145,-312 912.9145,-312 912.9145,-318 906.9145,-324 900.9145,-324"/>
<text text-anchor="middle" x="871.4145" y="-303.5" font-family="sans" font-size="10.00" fill="#000000">extend_tadpole</text>
</g>
<!-- 7&#45;&gt;22 -->
<g id="edge39" class="edge">
<title>7&#45;&gt;22</title>
<path fill="none" stroke="#c0c0c0" stroke-width="2" d="M824.2874,-431.7263C835.1344,-421.6662 846.1924,-409.3658 853.4145,-396 863.6726,-377.0155 868.1148,-352.9314 870.0237,-334.4554"/>
<polygon fill="#c0c0c0" stroke="#c0c0c0" stroke-width="2" points="873.5268,-334.5649 870.8796,-324.3061 866.5515,-333.9765 873.5268,-334.5649"/>
</g>
<!-- 23 -->
<g id="node24" class="node">
<title>23</title>
<path fill="none" stroke="#d6d856" stroke-width="2" d="M832.4145,-396C832.4145,-396 802.4145,-396 802.4145,-396 796.4145,-396 790.4145,-390 790.4145,-384 790.4145,-384 790.4145,-372 790.4145,-372 790.4145,-366 796.4145,-360 802.4145,-360 802.4145,-360 832.4145,-360 832.4145,-360 838.4145,-360 844.4145,-366 844.4145,-372 844.4145,-372 844.4145,-384 844.4145,-384 844.4145,-390 838.4145,-396 832.4145,-396"/>
<text text-anchor="middle" x="817.4145" y="-375.5" font-family="sans" font-size="10.00" fill="#000000">loglog</text>
</g>
<!-- 7&#45;&gt;23 -->
<g id="edge41" class="edge">
<title>7&#45;&gt;23</title>
<path fill="none" stroke="#c0c0c0" stroke-width="2" d="M799.2553,-431.805C802.0852,-423.4203 805.2263,-414.1132 808.0896,-405.6295"/>
<polygon fill="#c0c0c0" stroke="#c0c0c0" stroke-width="2" points="811.4062,-406.7474 811.2878,-396.1532 804.7737,-404.5089 811.4062,-406.7474"/>
</g>
<!-- 8 -->
<g id="node9" class="node">
<title>8</title>
<path fill="none" stroke="#d8ac56" stroke-width="2" d="M647.4145,-324C647.4145,-324 577.4145,-324 577.4145,-324 571.4145,-324 565.4145,-318 565.4145,-312 565.4145,-312 565.4145,-300 565.4145,-300 565.4145,-294 571.4145,-288 577.4145,-288 577.4145,-288 647.4145,-288 647.4145,-288 653.4145,-288 659.4145,-294 659.4145,-300 659.4145,-300 659.4145,-312 659.4145,-312 659.4145,-318 653.4145,-324 647.4145,-324"/>
<text text-anchor="middle" x="612.4145" y="-309" font-family="sans" font-size="10.00" fill="#000000">fastqc</text>
<text text-anchor="middle" x="612.4145" y="-298" font-family="sans" font-size="10.00" fill="#000000">tool: merge_lanes</text>
</g>
<!-- 8&#45;&gt;1 -->
<g id="edge9" class="edge">
<title>8&#45;&gt;1</title>
<path fill="none" stroke="#c0c0c0" stroke-width="2" d="M614.4195,-287.9555C618.6018,-250.3144 628.2827,-163.1867 633.2896,-118.1246"/>
<polygon fill="#c0c0c0" stroke="#c0c0c0" stroke-width="2" points="636.7726,-118.4704 634.3984,-108.1451 629.8154,-117.6974 636.7726,-118.4704"/>
</g>
<!-- 9 -->
<g id="node10" class="node">
<title>9</title>
<path fill="none" stroke="#80d856" stroke-width="2" d="M541.4145,-484C541.4145,-484 437.4145,-484 437.4145,-484 431.4145,-484 425.4145,-478 425.4145,-472 425.4145,-472 425.4145,-444 425.4145,-444 425.4145,-438 431.4145,-432 437.4145,-432 437.4145,-432 541.4145,-432 541.4145,-432 547.4145,-432 553.4145,-438 553.4145,-444 553.4145,-444 553.4145,-472 553.4145,-472 553.4145,-478 547.4145,-484 541.4145,-484"/>
<text text-anchor="middle" x="489.4145" y="-472" font-family="sans" font-size="10.00" fill="#000000">merge_lanes</text>
<text text-anchor="middle" x="489.4145" y="-461" font-family="sans" font-size="10.00" fill="#000000">library: lib3</text>
<text text-anchor="middle" x="489.4145" y="-450" font-family="sans" font-size="10.00" fill="#000000">read_type_trim: collapsed</text>
<text text-anchor="middle" x="489.4145" y="-439" font-family="sans" font-size="10.00" fill="#000000">sample: HD827sonic_2</text>
</g>
<!-- 9&#45;&gt;8 -->
<g id="edge25" class="edge">
<title>9&#45;&gt;8</title>
<path fill="none" stroke="#c0c0c0" stroke-width="2" d="M541.6727,-431.7344C556.5195,-422.185 571.5782,-410.1875 582.4145,-396 596.2483,-377.8881 603.8921,-353.0609 607.9958,-334.0697"/>
<polygon fill="#c0c0c0" stroke="#c0c0c0" stroke-width="2" points="611.4417,-334.6854 609.9283,-324.1992 604.5721,-333.3404 611.4417,-334.6854"/>
</g>
<!-- 15 -->
<g id="node16" class="node">
<title>15</title>
<path fill="none" stroke="#56d882" stroke-width="2" d="M561.4145,-396C561.4145,-396 491.4145,-396 491.4145,-396 485.4145,-396 479.4145,-390 479.4145,-384 479.4145,-384 479.4145,-372 479.4145,-372 479.4145,-366 485.4145,-360 491.4145,-360 491.4145,-360 561.4145,-360 561.4145,-360 567.4145,-360 573.4145,-366 573.4145,-372 573.4145,-372 573.4145,-384 573.4145,-384 573.4145,-390 567.4145,-396 561.4145,-396"/>
<text text-anchor="middle" x="526.4145" y="-381" font-family="sans" font-size="10.00" fill="#000000">nonpareil_infer</text>
<text text-anchor="middle" x="526.4145" y="-370" font-family="sans" font-size="10.00" fill="#000000">tool: merge_lanes</text>
</g>
<!-- 9&#45;&gt;15 -->
<g id="edge31" class="edge">
<title>9&#45;&gt;15</title>
<path fill="none" stroke="#c0c0c0" stroke-width="2" d="M501.5297,-431.805C505.4498,-423.3292 509.8058,-413.9107 513.7637,-405.3531"/>
<polygon fill="#c0c0c0" stroke="#c0c0c0" stroke-width="2" points="516.9975,-406.6988 518.0186,-396.1532 510.6441,-403.7603 516.9975,-406.6988"/>
</g>
<!-- 19 -->
<g id="node20" class="node">
<title>19</title>
<path fill="none" stroke="#d88556" stroke-width="2" d="M430.9145,-324C430.9145,-324 371.9145,-324 371.9145,-324 365.9145,-324 359.9145,-318 359.9145,-312 359.9145,-312 359.9145,-300 359.9145,-300 359.9145,-294 365.9145,-288 371.9145,-288 371.9145,-288 430.9145,-288 430.9145,-288 436.9145,-288 442.9145,-294 442.9145,-300 442.9145,-300 442.9145,-312 442.9145,-312 442.9145,-318 436.9145,-324 430.9145,-324"/>
<text text-anchor="middle" x="401.4145" y="-303.5" font-family="sans" font-size="10.00" fill="#000000">extend_tadpole</text>
</g>
<!-- 9&#45;&gt;19 -->
<g id="edge35" class="edge">
<title>9&#45;&gt;19</title>
<path fill="none" stroke="#c0c0c0" stroke-width="2" d="M474.2868,-431.8703C458.3042,-404.2641 433.2221,-360.9403 417.05,-333.0067"/>
<polygon fill="#c0c0c0" stroke="#c0c0c0" stroke-width="2" points="419.9725,-331.0691 411.9331,-324.1685 413.9145,-334.5764 419.9725,-331.0691"/>
</g>
<!-- 20 -->
<g id="node21" class="node">
<title>20</title>
<path fill="none" stroke="#d6d856" stroke-width="2" d="M411.4145,-396C411.4145,-396 381.4145,-396 381.4145,-396 375.4145,-396 369.4145,-390 369.4145,-384 369.4145,-384 369.4145,-372 369.4145,-372 369.4145,-366 375.4145,-360 381.4145,-360 381.4145,-360 411.4145,-360 411.4145,-360 417.4145,-360 423.4145,-366 423.4145,-372 423.4145,-372 423.4145,-384 423.4145,-384 423.4145,-390 417.4145,-396 411.4145,-396"/>
<text text-anchor="middle" x="396.4145" y="-375.5" font-family="sans" font-size="10.00" fill="#000000">loglog</text>
</g>
<!-- 9&#45;&gt;20 -->
<g id="edge37" class="edge">
<title>9&#45;&gt;20</title>
<path fill="none" stroke="#c0c0c0" stroke-width="2" d="M458.9628,-431.805C448.1561,-422.5089 436.0313,-412.079 425.3544,-402.8945"/>
<polygon fill="#c0c0c0" stroke="#c0c0c0" stroke-width="2" points="427.3812,-400.0212 417.5177,-396.1532 422.8163,-405.328 427.3812,-400.0212"/>
</g>
<!-- 10 -->
<g id="node11" class="node">
<title>10</title>
<path fill="none" stroke="#56d8a9" stroke-width="2" d="M1102.9145,-180C1102.9145,-180 1049.9145,-180 1049.9145,-180 1043.9145,-180 1037.9145,-174 1037.9145,-168 1037.9145,-168 1037.9145,-156 1037.9145,-156 1037.9145,-150 1043.9145,-144 1049.9145,-144 1049.9145,-144 1102.9145,-144 1102.9145,-144 1108.9145,-144 1114.9145,-150 1114.9145,-156 1114.9145,-156 1114.9145,-168 1114.9145,-168 1114.9145,-174 1108.9145,-180 1102.9145,-180"/>
<text text-anchor="middle" x="1076.4145" y="-159.5" font-family="sans" font-size="10.00" fill="#000000">nonpareil_plot</text>
</g>
<!-- 10&#45;&gt;1 -->
<g id="edge10" class="edge">
<title>10&#45;&gt;1</title>
<path fill="none" stroke="#c0c0c0" stroke-width="2" d="M1037.877,-146.7091C1034.7024,-145.7068 1031.5206,-144.786 1028.4145,-144 900.4529,-111.6214 743.7562,-97.427 673.5388,-92.36"/>
<polygon fill="#c0c0c0" stroke="#c0c0c0" stroke-width="2" points="673.6447,-88.8589 663.4242,-91.6506 673.1548,-95.8418 673.6447,-88.8589"/>
</g>
<!-- 11&#45;&gt;10 -->
<g id="edge26" class="edge">
<title>11&#45;&gt;10</title>
<path fill="none" stroke="#c0c0c0" stroke-width="2" d="M1084.6627,-359.9555C1083.0976,-322.3938 1079.4793,-235.5541 1077.5983,-190.4103"/>
<polygon fill="#c0c0c0" stroke="#c0c0c0" stroke-width="2" points="1081.0839,-189.9907 1077.1706,-180.1451 1074.09,-190.2821 1081.0839,-189.9907"/>
</g>
<!-- 12 -->
<g id="node13" class="node">
<title>12</title>
<path fill="none" stroke="#56d8a9" stroke-width="2" d="M709.9145,-252C709.9145,-252 656.9145,-252 656.9145,-252 650.9145,-252 644.9145,-246 644.9145,-240 644.9145,-240 644.9145,-228 644.9145,-228 644.9145,-222 650.9145,-216 656.9145,-216 656.9145,-216 709.9145,-216 709.9145,-216 715.9145,-216 721.9145,-222 721.9145,-228 721.9145,-228 721.9145,-240 721.9145,-240 721.9145,-246 715.9145,-252 709.9145,-252"/>
<text text-anchor="middle" x="683.4145" y="-231.5" font-family="sans" font-size="10.00" fill="#000000">nonpareil_plot</text>
</g>
<!-- 12&#45;&gt;1 -->
<g id="edge11" class="edge">
<title>12&#45;&gt;1</title>
<path fill="none" stroke="#c0c0c0" stroke-width="2" d="M677.4619,-215.7623C669.4101,-191.0928 654.9729,-146.8598 645.5446,-117.9731"/>
<polygon fill="#c0c0c0" stroke="#c0c0c0" stroke-width="2" points="648.7489,-116.5101 642.3188,-108.0896 642.0944,-118.6821 648.7489,-116.5101"/>
</g>
<!-- 13&#45;&gt;12 -->
<g id="edge28" class="edge">
<title>13&#45;&gt;12</title>
<path fill="none" stroke="#c0c0c0" stroke-width="2" d="M686.9079,-359.7623C686.2257,-335.201 685.0047,-291.2474 684.2021,-262.3541"/>
<polygon fill="#c0c0c0" stroke="#c0c0c0" stroke-width="2" points="687.6934,-261.9885 683.917,-252.0896 680.6961,-262.183 687.6934,-261.9885"/>
</g>
<!-- 14 -->
<g id="node15" class="node">
<title>14</title>
<path fill="none" stroke="#56d8a9" stroke-width="2" d="M534.9145,-324C534.9145,-324 481.9145,-324 481.9145,-324 475.9145,-324 469.9145,-318 469.9145,-312 469.9145,-312 469.9145,-300 469.9145,-300 469.9145,-294 475.9145,-288 481.9145,-288 481.9145,-288 534.9145,-288 534.9145,-288 540.9145,-288 546.9145,-294 546.9145,-300 546.9145,-300 546.9145,-312 546.9145,-312 546.9145,-318 540.9145,-324 534.9145,-324"/>
<text text-anchor="middle" x="508.4145" y="-303.5" font-family="sans" font-size="10.00" fill="#000000">nonpareil_plot</text>
</g>
<!-- 14&#45;&gt;1 -->
<g id="edge12" class="edge">
<title>14&#45;&gt;1</title>
<path fill="none" stroke="#c0c0c0" stroke-width="2" d="M528.4018,-287.7736C538.5287,-277.8545 550.528,-264.982 559.4145,-252 589.3038,-208.336 613.4388,-151.2636 626.29,-117.8199"/>
<polygon fill="#c0c0c0" stroke="#c0c0c0" stroke-width="2" points="629.649,-118.8321 629.9099,-108.2404 623.1009,-116.3576 629.649,-118.8321"/>
</g>
<!-- 15&#45;&gt;14 -->
<g id="edge30" class="edge">
<title>15&#45;&gt;14</title>
<path fill="none" stroke="#c0c0c0" stroke-width="2" d="M521.8724,-359.8314C519.9261,-352.0463 517.6078,-342.7729 515.4482,-334.1347"/>
<polygon fill="#c0c0c0" stroke="#c0c0c0" stroke-width="2" points="518.8388,-333.2658 513.0178,-324.4133 512.0478,-334.9636 518.8388,-333.2658"/>
</g>
<!-- 16 -->
<g id="node17" class="node">
<title>16</title>
<path fill="none" stroke="#56d8a9" stroke-width="2" d="M315.9145,-252C315.9145,-252 262.9145,-252 262.9145,-252 256.9145,-252 250.9145,-246 250.9145,-240 250.9145,-240 250.9145,-228 250.9145,-228 250.9145,-222 256.9145,-216 262.9145,-216 262.9145,-216 315.9145,-216 315.9145,-216 321.9145,-216 327.9145,-222 327.9145,-228 327.9145,-228 327.9145,-240 327.9145,-240 327.9145,-246 321.9145,-252 315.9145,-252"/>
<text text-anchor="middle" x="289.4145" y="-231.5" font-family="sans" font-size="10.00" fill="#000000">nonpareil_plot</text>
</g>
<!-- 16&#45;&gt;1 -->
<g id="edge13" class="edge">
<title>16&#45;&gt;1</title>
<path fill="none" stroke="#c0c0c0" stroke-width="2" d="M305.8916,-215.8402C325.6239,-195.2362 360.6452,-162.1475 397.4145,-144 463.8711,-111.2003 550.5631,-98.0344 599.1708,-92.9698"/>
<polygon fill="#c0c0c0" stroke="#c0c0c0" stroke-width="2" points="599.6227,-96.4423 609.2325,-91.9812 598.9381,-89.4759 599.6227,-96.4423"/>
</g>
<!-- 17&#45;&gt;16 -->
<g id="edge32" class="edge">
<title>17&#45;&gt;16</title>
<path fill="none" stroke="#c0c0c0" stroke-width="2" d="M292.9079,-359.7623C292.2257,-335.201 291.0047,-291.2474 290.2021,-262.3541"/>
<polygon fill="#c0c0c0" stroke="#c0c0c0" stroke-width="2" points="293.6934,-261.9885 289.917,-252.0896 286.6961,-262.183 293.6934,-261.9885"/>
</g>
<!-- 18 -->
<g id="node19" class="node">
<title>18</title>
<path fill="none" stroke="#d8ac56" stroke-width="2" d="M538.4145,-252C538.4145,-252 460.4145,-252 460.4145,-252 454.4145,-252 448.4145,-246 448.4145,-240 448.4145,-240 448.4145,-228 448.4145,-228 448.4145,-222 454.4145,-216 460.4145,-216 460.4145,-216 538.4145,-216 538.4145,-216 544.4145,-216 550.4145,-222 550.4145,-228 550.4145,-228 550.4145,-240 550.4145,-240 550.4145,-246 544.4145,-252 538.4145,-252"/>
<text text-anchor="middle" x="499.4145" y="-237" font-family="sans" font-size="10.00" fill="#000000">fastqc</text>
<text text-anchor="middle" x="499.4145" y="-226" font-family="sans" font-size="10.00" fill="#000000">tool: extend/tadpole</text>
</g>
<!-- 18&#45;&gt;1 -->
<g id="edge14" class="edge">
<title>18&#45;&gt;1</title>
<path fill="none" stroke="#c0c0c0" stroke-width="2" d="M510.2009,-215.8712C522.0684,-196.7722 542.4007,-166.4141 564.4145,-144 575.3562,-132.8593 588.7277,-122.1874 600.9643,-113.3161"/>
<polygon fill="#c0c0c0" stroke="#c0c0c0" stroke-width="2" points="603.0711,-116.113 609.2108,-107.4784 599.0266,-110.3996 603.0711,-116.113"/>
</g>
<!-- 19&#45;&gt;18 -->
<g id="edge34" class="edge">
<title>19&#45;&gt;18</title>
<path fill="none" stroke="#c0c0c0" stroke-width="2" d="M426.1441,-287.8314C438.3307,-278.8779 453.1969,-267.9558 466.3457,-258.2955"/>
<polygon fill="#c0c0c0" stroke="#c0c0c0" stroke-width="2" points="468.7063,-260.9042 474.6929,-252.1628 464.5618,-255.263 468.7063,-260.9042"/>
</g>
<!-- 33 -->
<g id="node34" class="node">
<title>33</title>
<path fill="none" stroke="#afd856" stroke-width="2" d="M418.4145,-252C418.4145,-252 358.4145,-252 358.4145,-252 352.4145,-252 346.4145,-246 346.4145,-240 346.4145,-240 346.4145,-228 346.4145,-228 346.4145,-222 352.4145,-216 358.4145,-216 358.4145,-216 418.4145,-216 418.4145,-216 424.4145,-216 430.4145,-222 430.4145,-228 430.4145,-228 430.4145,-240 430.4145,-240 430.4145,-246 424.4145,-252 418.4145,-252"/>
<text text-anchor="middle" x="388.4145" y="-231.5" font-family="sans" font-size="10.00" fill="#000000">low_complexity</text>
</g>
<!-- 19&#45;&gt;33 -->
<g id="edge53" class="edge">
<title>19&#45;&gt;33</title>
<path fill="none" stroke="#c0c0c0" stroke-width="2" d="M398.1341,-287.8314C396.7437,-280.131 395.0904,-270.9743 393.5453,-262.4166"/>
<polygon fill="#c0c0c0" stroke="#c0c0c0" stroke-width="2" points="396.9604,-261.6322 391.7391,-252.4133 390.0717,-262.8761 396.9604,-261.6322"/>
</g>
<!-- 20&#45;&gt;19 -->
<g id="edge36" class="edge">
<title>20&#45;&gt;19</title>
<path fill="none" stroke="#c0c0c0" stroke-width="2" d="M397.6762,-359.8314C398.211,-352.131 398.8469,-342.9743 399.4411,-334.4166"/>
<polygon fill="#c0c0c0" stroke="#c0c0c0" stroke-width="2" points="402.9345,-334.6317 400.1358,-324.4133 395.9514,-334.1467 402.9345,-334.6317"/>
</g>
<!-- 21 -->
<g id="node22" class="node">
<title>21</title>
<path fill="none" stroke="#d8ac56" stroke-width="2" d="M868.4145,-252C868.4145,-252 790.4145,-252 790.4145,-252 784.4145,-252 778.4145,-246 778.4145,-240 778.4145,-240 778.4145,-228 778.4145,-228 778.4145,-222 784.4145,-216 790.4145,-216 790.4145,-216 868.4145,-216 868.4145,-216 874.4145,-216 880.4145,-222 880.4145,-228 880.4145,-228 880.4145,-240 880.4145,-240 880.4145,-246 874.4145,-252 868.4145,-252"/>
<text text-anchor="middle" x="829.4145" y="-237" font-family="sans" font-size="10.00" fill="#000000">fastqc</text>
<text text-anchor="middle" x="829.4145" y="-226" font-family="sans" font-size="10.00" fill="#000000">tool: extend/tadpole</text>
</g>
<!-- 21&#45;&gt;1 -->
<g id="edge15" class="edge">
<title>21&#45;&gt;1</title>
<path fill="none" stroke="#c0c0c0" stroke-width="2" d="M803.386,-215.9627C788.7969,-205.6785 770.3788,-192.4033 754.4145,-180 734.7323,-164.708 731.0968,-159.292 711.4145,-144 698.3188,-133.8254 683.5719,-123.0641 670.6419,-113.8484"/>
<polygon fill="#c0c0c0" stroke="#c0c0c0" stroke-width="2" points="672.6256,-110.9644 662.4431,-108.0373 668.5777,-116.6754 672.6256,-110.9644"/>
</g>
<!-- 22&#45;&gt;21 -->
<g id="edge38" class="edge">
<title>22&#45;&gt;21</title>
<path fill="none" stroke="#c0c0c0" stroke-width="2" d="M860.8161,-287.8314C856.1268,-279.7925 850.5117,-270.1666 845.3347,-261.2918"/>
<polygon fill="#c0c0c0" stroke="#c0c0c0" stroke-width="2" points="848.2176,-259.2875 840.1556,-252.4133 842.1711,-262.8146 848.2176,-259.2875"/>
</g>
<!-- 37 -->
<g id="node38" class="node">
<title>37</title>
<path fill="none" stroke="#afd856" stroke-width="2" d="M970.4145,-252C970.4145,-252 910.4145,-252 910.4145,-252 904.4145,-252 898.4145,-246 898.4145,-240 898.4145,-240 898.4145,-228 898.4145,-228 898.4145,-222 904.4145,-216 910.4145,-216 910.4145,-216 970.4145,-216 970.4145,-216 976.4145,-216 982.4145,-222 982.4145,-228 982.4145,-228 982.4145,-240 982.4145,-240 982.4145,-246 976.4145,-252 970.4145,-252"/>
<text text-anchor="middle" x="940.4145" y="-231.5" font-family="sans" font-size="10.00" fill="#000000">low_complexity</text>
</g>
<!-- 22&#45;&gt;37 -->
<g id="edge57" class="edge">
<title>22&#45;&gt;37</title>
<path fill="none" stroke="#c0c0c0" stroke-width="2" d="M888.8261,-287.8314C896.9355,-279.3694 906.7302,-269.1489 915.5965,-259.8971"/>
<polygon fill="#c0c0c0" stroke="#c0c0c0" stroke-width="2" points="918.3764,-262.0549 922.7685,-252.4133 913.3224,-257.2115 918.3764,-262.0549"/>
</g>
<!-- 23&#45;&gt;22 -->
<g id="edge40" class="edge">
<title>23&#45;&gt;22</title>
<path fill="none" stroke="#c0c0c0" stroke-width="2" d="M831.041,-359.8314C837.2606,-351.5386 844.7468,-341.557 851.5745,-332.4533"/>
<polygon fill="#c0c0c0" stroke="#c0c0c0" stroke-width="2" points="854.4045,-334.5133 857.6046,-324.4133 848.8045,-330.3133 854.4045,-334.5133"/>
</g>
<!-- 24 -->
<g id="node25" class="node">
<title>24</title>
<path fill="none" stroke="#d8ac56" stroke-width="2" d="M229.4145,-180C229.4145,-180 151.4145,-180 151.4145,-180 145.4145,-180 139.4145,-174 139.4145,-168 139.4145,-168 139.4145,-156 139.4145,-156 139.4145,-150 145.4145,-144 151.4145,-144 151.4145,-144 229.4145,-144 229.4145,-144 235.4145,-144 241.4145,-150 241.4145,-156 241.4145,-156 241.4145,-168 241.4145,-168 241.4145,-174 235.4145,-180 229.4145,-180"/>
<text text-anchor="middle" x="190.4145" y="-165" font-family="sans" font-size="10.00" fill="#000000">fastqc</text>
<text text-anchor="middle" x="190.4145" y="-154" font-family="sans" font-size="10.00" fill="#000000">tool: extend/tadpole</text>
</g>
<!-- 24&#45;&gt;1 -->
<g id="edge16" class="edge">
<title>24&#45;&gt;1</title>
<path fill="none" stroke="#c0c0c0" stroke-width="2" d="M241.7118,-147.1344C246.3269,-145.9974 250.9439,-144.9317 255.4145,-144 379.8857,-118.0583 529.8602,-100.8431 598.6242,-93.717"/>
<polygon fill="#c0c0c0" stroke="#c0c0c0" stroke-width="2" points="599.3552,-97.1605 608.9467,-92.6601 598.6422,-90.1969 599.3552,-97.1605"/>
</g>
<!-- 25&#45;&gt;24 -->
<g id="edge42" class="edge">
<title>25&#45;&gt;24</title>
<path fill="none" stroke="#c0c0c0" stroke-width="2" d="M119.6732,-287.7623C133.7324,-262.7682 159.0876,-217.6924 175.3165,-188.8409"/>
<polygon fill="#c0c0c0" stroke="#c0c0c0" stroke-width="2" points="178.387,-190.5213 180.2391,-180.0896 172.2859,-187.0895 178.387,-190.5213"/>
</g>
<!-- 35 -->
<g id="node36" class="node">
<title>35</title>
<path fill="none" stroke="#afd856" stroke-width="2" d="M98.4145,-252C98.4145,-252 38.4145,-252 38.4145,-252 32.4145,-252 26.4145,-246 26.4145,-240 26.4145,-240 26.4145,-228 26.4145,-228 26.4145,-222 32.4145,-216 38.4145,-216 38.4145,-216 98.4145,-216 98.4145,-216 104.4145,-216 110.4145,-222 110.4145,-228 110.4145,-228 110.4145,-240 110.4145,-240 110.4145,-246 104.4145,-252 98.4145,-252"/>
<text text-anchor="middle" x="68.4145" y="-231.5" font-family="sans" font-size="10.00" fill="#000000">low_complexity</text>
</g>
<!-- 25&#45;&gt;35 -->
<g id="edge55" class="edge">
<title>25&#45;&gt;35</title>
<path fill="none" stroke="#c0c0c0" stroke-width="2" d="M99.0685,-287.8314C94.4908,-279.7925 89.0094,-270.1666 83.9557,-261.2918"/>
<polygon fill="#c0c0c0" stroke="#c0c0c0" stroke-width="2" points="86.8897,-259.3712 78.8999,-252.4133 80.8068,-262.8351 86.8897,-259.3712"/>
</g>
<!-- 26&#45;&gt;25 -->
<g id="edge44" class="edge">
<title>26&#45;&gt;25</title>
<path fill="none" stroke="#c0c0c0" stroke-width="2" d="M149.788,-359.8314C143.5685,-351.5386 136.0823,-341.557 129.2545,-332.4533"/>
<polygon fill="#c0c0c0" stroke="#c0c0c0" stroke-width="2" points="132.0245,-330.3133 123.2245,-324.4133 126.4245,-334.5133 132.0245,-330.3133"/>
</g>
<!-- 27 -->
<g id="node28" class="node">
<title>27</title>
<path fill="none" stroke="#d8ac56" stroke-width="2" d="M1223.4145,-180C1223.4145,-180 1145.4145,-180 1145.4145,-180 1139.4145,-180 1133.4145,-174 1133.4145,-168 1133.4145,-168 1133.4145,-156 1133.4145,-156 1133.4145,-150 1139.4145,-144 1145.4145,-144 1145.4145,-144 1223.4145,-144 1223.4145,-144 1229.4145,-144 1235.4145,-150 1235.4145,-156 1235.4145,-156 1235.4145,-168 1235.4145,-168 1235.4145,-174 1229.4145,-180 1223.4145,-180"/>
<text text-anchor="middle" x="1184.4145" y="-165" font-family="sans" font-size="10.00" fill="#000000">fastqc</text>
<text text-anchor="middle" x="1184.4145" y="-154" font-family="sans" font-size="10.00" fill="#000000">tool: extend/tadpole</text>
</g>
<!-- 27&#45;&gt;1 -->
<g id="edge17" class="edge">
<title>27&#45;&gt;1</title>
<path fill="none" stroke="#c0c0c0" stroke-width="2" d="M1133.1832,-145.9646C1130.2296,-145.2482 1127.2918,-144.5858 1124.4145,-144 958.3758,-110.1984 755.9501,-96.3311 673.7633,-91.821"/>
<polygon fill="#c0c0c0" stroke="#c0c0c0" stroke-width="2" points="673.8347,-88.3199 663.6621,-91.281 673.4609,-95.3099 673.8347,-88.3199"/>
</g>
<!-- 28&#45;&gt;27 -->
<g id="edge46" class="edge">
<title>28&#45;&gt;27</title>
<path fill="none" stroke="#c0c0c0" stroke-width="2" d="M1216.7284,-287.7623C1210.3898,-263.0928 1199.0243,-218.8598 1191.602,-189.9731"/>
<polygon fill="#c0c0c0" stroke="#c0c0c0" stroke-width="2" points="1194.9411,-188.904 1189.0625,-180.0896 1188.1613,-190.6461 1194.9411,-188.904"/>
</g>
<!-- 31 -->
<g id="node32" class="node">
<title>31</title>
<path fill="none" stroke="#afd856" stroke-width="2" d="M1336.4145,-252C1336.4145,-252 1276.4145,-252 1276.4145,-252 1270.4145,-252 1264.4145,-246 1264.4145,-240 1264.4145,-240 1264.4145,-228 1264.4145,-228 1264.4145,-222 1270.4145,-216 1276.4145,-216 1276.4145,-216 1336.4145,-216 1336.4145,-216 1342.4145,-216 1348.4145,-222 1348.4145,-228 1348.4145,-228 1348.4145,-240 1348.4145,-240 1348.4145,-246 1342.4145,-252 1336.4145,-252"/>
<text text-anchor="middle" x="1306.4145" y="-231.5" font-family="sans" font-size="10.00" fill="#000000">low_complexity</text>
</g>
<!-- 28&#45;&gt;31 -->
<g id="edge51" class="edge">
<title>28&#45;&gt;31</title>
<path fill="none" stroke="#c0c0c0" stroke-width="2" d="M1242.8636,-287.8314C1253.2323,-279.0485 1265.8374,-268.3712 1277.0791,-258.8489"/>
<polygon fill="#c0c0c0" stroke="#c0c0c0" stroke-width="2" points="1279.604,-261.297 1284.9723,-252.1628 1275.0796,-255.9556 1279.604,-261.297"/>
</g>
<!-- 29&#45;&gt;28 -->
<g id="edge48" class="edge">
<title>29&#45;&gt;28</title>
<path fill="none" stroke="#c0c0c0" stroke-width="2" d="M1188.5176,-359.8314C1193.4819,-351.7079 1199.4367,-341.9637 1204.9073,-333.0118"/>
<polygon fill="#c0c0c0" stroke="#c0c0c0" stroke-width="2" points="1207.9339,-334.7712 1210.162,-324.4133 1201.9609,-331.121 1207.9339,-334.7712"/>
</g>
<!-- 30 -->
<g id="node31" class="node">
<title>30</title>
<path fill="none" stroke="#d8ac56" stroke-width="2" d="M1347.4145,-180C1347.4145,-180 1265.4145,-180 1265.4145,-180 1259.4145,-180 1253.4145,-174 1253.4145,-168 1253.4145,-168 1253.4145,-156 1253.4145,-156 1253.4145,-150 1259.4145,-144 1265.4145,-144 1265.4145,-144 1347.4145,-144 1347.4145,-144 1353.4145,-144 1359.4145,-150 1359.4145,-156 1359.4145,-156 1359.4145,-168 1359.4145,-168 1359.4145,-174 1353.4145,-180 1347.4145,-180"/>
<text text-anchor="middle" x="1306.4145" y="-165" font-family="sans" font-size="10.00" fill="#000000">fastqc</text>
<text text-anchor="middle" x="1306.4145" y="-154" font-family="sans" font-size="10.00" fill="#000000">tool: low_complexity</text>
</g>
<!-- 30&#45;&gt;1 -->
<g id="edge18" class="edge">
<title>30&#45;&gt;1</title>
<path fill="none" stroke="#c0c0c0" stroke-width="2" d="M1253.1389,-145.8213C1250.2005,-145.1518 1247.2787,-144.5377 1244.4145,-144 1030.8382,-103.9055 769.3033,-93.3958 673.6818,-90.8008"/>
<polygon fill="#c0c0c0" stroke="#c0c0c0" stroke-width="2" points="673.7259,-87.3009 663.6388,-90.5412 673.545,-94.2985 673.7259,-87.3009"/>
</g>
<!-- 31&#45;&gt;0 -->
<g id="edge5" class="edge">
<title>31&#45;&gt;0</title>
<path fill="none" stroke="#c0c0c0" stroke-width="2" d="M1333.8236,-215.6679C1358.5008,-196.9352 1388.0978,-167.3609 1368.4145,-144 1322.7669,-89.8236 816.111,-35.8139 673.5426,-21.6048"/>
<polygon fill="#c0c0c0" stroke="#c0c0c0" stroke-width="2" points="673.8326,-18.1165 663.5362,-20.6134 673.1424,-25.0824 673.8326,-18.1165"/>
</g>
<!-- 31&#45;&gt;30 -->
<g id="edge50" class="edge">
<title>31&#45;&gt;30</title>
<path fill="none" stroke="#c0c0c0" stroke-width="2" d="M1306.4145,-215.8314C1306.4145,-208.131 1306.4145,-198.9743 1306.4145,-190.4166"/>
<polygon fill="#c0c0c0" stroke="#c0c0c0" stroke-width="2" points="1309.9146,-190.4132 1306.4145,-180.4133 1302.9146,-190.4133 1309.9146,-190.4132"/>
</g>
<!-- 32 -->
<g id="node33" class="node">
<title>32</title>
<path fill="none" stroke="#d8ac56" stroke-width="2" d="M500.4145,-180C500.4145,-180 418.4145,-180 418.4145,-180 412.4145,-180 406.4145,-174 406.4145,-168 406.4145,-168 406.4145,-156 406.4145,-156 406.4145,-150 412.4145,-144 418.4145,-144 418.4145,-144 500.4145,-144 500.4145,-144 506.4145,-144 512.4145,-150 512.4145,-156 512.4145,-156 512.4145,-168 512.4145,-168 512.4145,-174 506.4145,-180 500.4145,-180"/>
<text text-anchor="middle" x="459.4145" y="-165" font-family="sans" font-size="10.00" fill="#000000">fastqc</text>
<text text-anchor="middle" x="459.4145" y="-154" font-family="sans" font-size="10.00" fill="#000000">tool: low_complexity</text>
</g>
<!-- 32&#45;&gt;1 -->
<g id="edge19" class="edge">
<title>32&#45;&gt;1</title>
<path fill="none" stroke="#c0c0c0" stroke-width="2" d="M504.0791,-143.8314C533.7609,-131.7574 572.2437,-116.1034 600.0525,-104.7913"/>
<polygon fill="#c0c0c0" stroke="#c0c0c0" stroke-width="2" points="601.4675,-107.9943 609.4117,-100.9842 598.8299,-101.5102 601.4675,-107.9943"/>
</g>
<!-- 33&#45;&gt;0 -->
<g id="edge4" class="edge">
<title>33&#45;&gt;0</title>
<path fill="none" stroke="#c0c0c0" stroke-width="2" d="M385.4929,-215.7602C383.3821,-196.2893 383.03,-165.361 397.4145,-144 444.9188,-73.456 545.0223,-39.6333 599.3876,-25.9026"/>
<polygon fill="#c0c0c0" stroke="#c0c0c0" stroke-width="2" points="600.4117,-29.2557 609.3027,-23.4938 598.759,-22.4536 600.4117,-29.2557"/>
</g>
<!-- 33&#45;&gt;32 -->
<g id="edge52" class="edge">
<title>33&#45;&gt;32</title>
<path fill="none" stroke="#c0c0c0" stroke-width="2" d="M406.3308,-215.8314C414.7587,-207.2848 424.9555,-196.9443 434.1505,-187.6198"/>
<polygon fill="#c0c0c0" stroke="#c0c0c0" stroke-width="2" points="436.7276,-189.9912 441.257,-180.4133 431.7434,-185.0761 436.7276,-189.9912"/>
</g>
<!-- 34 -->
<g id="node35" class="node">
<title>34</title>
<path fill="none" stroke="#d8ac56" stroke-width="2" d="M109.4145,-180C109.4145,-180 27.4145,-180 27.4145,-180 21.4145,-180 15.4145,-174 15.4145,-168 15.4145,-168 15.4145,-156 15.4145,-156 15.4145,-150 21.4145,-144 27.4145,-144 27.4145,-144 109.4145,-144 109.4145,-144 115.4145,-144 121.4145,-150 121.4145,-156 121.4145,-156 121.4145,-168 121.4145,-168 121.4145,-174 115.4145,-180 109.4145,-180"/>
<text text-anchor="middle" x="68.4145" y="-165" font-family="sans" font-size="10.00" fill="#000000">fastqc</text>
<text text-anchor="middle" x="68.4145" y="-154" font-family="sans" font-size="10.00" fill="#000000">tool: low_complexity</text>
</g>
<!-- 34&#45;&gt;1 -->
<g id="edge20" class="edge">
<title>34&#45;&gt;1</title>
<path fill="none" stroke="#c0c0c0" stroke-width="2" d="M121.702,-145.8828C124.6373,-145.1974 127.5553,-144.5631 130.4145,-144 303.7323,-109.8696 514.9892,-96.1122 599.1906,-91.724"/>
<polygon fill="#c0c0c0" stroke="#c0c0c0" stroke-width="2" points="599.4747,-95.2142 609.2843,-91.2115 599.1197,-88.2232 599.4747,-95.2142"/>
</g>
<!-- 35&#45;&gt;0 -->
<g id="edge3" class="edge">
<title>35&#45;&gt;0</title>
<path fill="none" stroke="#c0c0c0" stroke-width="2" d="M41.1361,-215.7765C16.5631,-197.1304 -12.9524,-167.6238 6.4145,-144 82.4284,-51.278 475.0692,-25.4291 598.9343,-19.5263"/>
<polygon fill="#c0c0c0" stroke="#c0c0c0" stroke-width="2" points="599.2369,-23.0162 609.0653,-19.0599 598.9149,-16.0236 599.2369,-23.0162"/>
</g>
<!-- 35&#45;&gt;34 -->
<g id="edge54" class="edge">
<title>35&#45;&gt;34</title>
<path fill="none" stroke="#c0c0c0" stroke-width="2" d="M68.4145,-215.8314C68.4145,-208.131 68.4145,-198.9743 68.4145,-190.4166"/>
<polygon fill="#c0c0c0" stroke="#c0c0c0" stroke-width="2" points="71.9146,-190.4132 68.4145,-180.4133 64.9146,-190.4133 71.9146,-190.4132"/>
</g>
<!-- 36 -->
<g id="node37" class="node">
<title>36</title>
<path fill="none" stroke="#d8ac56" stroke-width="2" d="M857.4145,-180C857.4145,-180 775.4145,-180 775.4145,-180 769.4145,-180 763.4145,-174 763.4145,-168 763.4145,-168 763.4145,-156 763.4145,-156 763.4145,-150 769.4145,-144 775.4145,-144 775.4145,-144 857.4145,-144 857.4145,-144 863.4145,-144 869.4145,-150 869.4145,-156 869.4145,-156 869.4145,-168 869.4145,-168 869.4145,-174 863.4145,-180 857.4145,-180"/>
<text text-anchor="middle" x="816.4145" y="-165" font-family="sans" font-size="10.00" fill="#000000">fastqc</text>
<text text-anchor="middle" x="816.4145" y="-154" font-family="sans" font-size="10.00" fill="#000000">tool: low_complexity</text>
</g>
<!-- 36&#45;&gt;1 -->
<g id="edge21" class="edge">
<title>36&#45;&gt;1</title>
<path fill="none" stroke="#c0c0c0" stroke-width="2" d="M770.9929,-143.8314C740.7149,-131.7201 701.4313,-116.0067 673.1313,-104.6867"/>
<polygon fill="#c0c0c0" stroke="#c0c0c0" stroke-width="2" points="674.1968,-101.3433 663.6121,-100.879 671.597,-107.8427 674.1968,-101.3433"/>
</g>
<!-- 37&#45;&gt;0 -->
<g id="edge2" class="edge">
<title>37&#45;&gt;0</title>
<path fill="none" stroke="#c0c0c0" stroke-width="2" d="M931.3738,-215.8274C920.8476,-196.1273 901.8723,-164.7325 878.4145,-144 815.5269,-88.4187 723.7616,-49.4163 673.2201,-30.6695"/>
<polygon fill="#c0c0c0" stroke="#c0c0c0" stroke-width="2" points="674.2762,-27.3292 663.6822,-27.1914 671.8779,-33.9056 674.2762,-27.3292"/>
</g>
<!-- 37&#45;&gt;36 -->
<g id="edge56" class="edge">
<title>37&#45;&gt;36</title>
<path fill="none" stroke="#c0c0c0" stroke-width="2" d="M909.1241,-215.8314C893.1169,-206.5368 873.4559,-195.1208 856.3651,-185.1971"/>
<polygon fill="#c0c0c0" stroke="#c0c0c0" stroke-width="2" points="858.1003,-182.1575 847.6949,-180.1628 854.5854,-188.211 858.1003,-182.1575"/>
</g>
</g>
</svg>
