<?xml version="1.0" encoding="UTF-8" standalone="no"?>
<!DOCTYPE svg PUBLIC "-//W3C//DTD SVG 1.1//EN"
 "http://www.w3.org/Graphics/SVG/1.1/DTD/svg11.dtd">
<!-- Generated by graphviz version 2.40.1 (0)
 -->
<!-- Title: snakemake_dag Pages: 1 -->
<svg width="1123pt" height="492pt"
 viewBox="0.00 0.00 1123.00 492.00" xmlns="http://www.w3.org/2000/svg" xmlns:xlink="http://www.w3.org/1999/xlink">
<g id="graph0" class="graph" transform="scale(1 1) rotate(0) translate(4 488)">
<title>snakemake_dag</title>
<polygon fill="#ffffff" stroke="transparent" points="-4,4 -4,-488 1119,-488 1119,4 -4,4"/>
<!-- 0 -->
<g id="node1" class="node">
<title>0</title>
<path fill="none" stroke="#d85656" stroke-width="2" d="M405,-36C405,-36 375,-36 375,-36 369,-36 363,-30 363,-24 363,-24 363,-12 363,-12 363,-6 369,0 375,0 375,0 405,0 405,0 411,0 417,-6 417,-12 417,-12 417,-24 417,-24 417,-30 411,-36 405,-36"/>
<text text-anchor="middle" x="390" y="-15.5" font-family="sans" font-size="10.00" fill="#000000">all</text>
</g>
<!-- 1 -->
<g id="node2" class="node">
<title>1</title>
<path fill="none" stroke="#59d856" stroke-width="2" d="M526,-108C526,-108 496,-108 496,-108 490,-108 484,-102 484,-96 484,-96 484,-84 484,-84 484,-78 490,-72 496,-72 496,-72 526,-72 526,-72 532,-72 538,-78 538,-84 538,-84 538,-96 538,-96 538,-102 532,-108 526,-108"/>
<text text-anchor="middle" x="511" y="-87.5" font-family="sans" font-size="10.00" fill="#000000">multiqc</text>
</g>
<!-- 1&#45;&gt;0 -->
<g id="edge1" class="edge">
<title>1&#45;&gt;0</title>
<path fill="none" stroke="#c0c0c0" stroke-width="2" d="M483.8452,-73.8418C466.7198,-63.6515 444.4106,-50.3765 425.8407,-39.3267"/>
<polygon fill="#c0c0c0" stroke="#c0c0c0" stroke-width="2" points="427.4476,-36.2101 417.0641,-34.1043 423.868,-42.2257 427.4476,-36.2101"/>
</g>
<!-- 2 -->
<g id="node3" class="node">
<title>2</title>
<path fill="none" stroke="#d8ac56" stroke-width="2" d="M758,-180C758,-180 688,-180 688,-180 682,-180 676,-174 676,-168 676,-168 676,-156 676,-156 676,-150 682,-144 688,-144 688,-144 758,-144 758,-144 764,-144 770,-150 770,-156 770,-156 770,-168 770,-168 770,-174 764,-180 758,-180"/>
<text text-anchor="middle" x="723" y="-165" font-family="sans" font-size="10.00" fill="#000000">fastqc</text>
<text text-anchor="middle" x="723" y="-154" font-family="sans" font-size="10.00" fill="#000000">tool: merge_lanes</text>
</g>
<!-- 2&#45;&gt;1 -->
<g id="edge5" class="edge">
<title>2&#45;&gt;1</title>
<path fill="none" stroke="#c0c0c0" stroke-width="2" d="M675.9503,-146.0209C637.2588,-132.8803 583.2025,-114.5216 547.6667,-102.4528"/>
<polygon fill="#c0c0c0" stroke="#c0c0c0" stroke-width="2" points="548.7575,-99.127 538.1631,-99.2252 546.5063,-105.7552 548.7575,-99.127"/>
</g>
<!-- 3 -->
<g id="node4" class="node">
<title>3</title>
<path fill="none" stroke="#80d856" stroke-width="2" d="M636,-484C636,-484 532,-484 532,-484 526,-484 520,-478 520,-472 520,-472 520,-444 520,-444 520,-438 526,-432 532,-432 532,-432 636,-432 636,-432 642,-432 648,-438 648,-444 648,-444 648,-472 648,-472 648,-478 642,-484 636,-484"/>
<text text-anchor="middle" x="584" y="-472" font-family="sans" font-size="10.00" fill="#000000">merge_lanes</text>
<text text-anchor="middle" x="584" y="-461" font-family="sans" font-size="10.00" fill="#000000">library: lib1</text>
<text text-anchor="middle" x="584" y="-450" font-family="sans" font-size="10.00" fill="#000000">read_type_trim: collapsed</text>
<text text-anchor="middle" x="584" y="-439" font-family="sans" font-size="10.00" fill="#000000">sample: HD827sonic_1</text>
</g>
<!-- 3&#45;&gt;2 -->
<g id="edge17" class="edge">
<title>3&#45;&gt;2</title>
<path fill="none" stroke="#c0c0c0" stroke-width="2" d="M646.0691,-431.8715C661.3058,-422.6555 676.0739,-410.8017 686,-396 728.7172,-332.3008 728.8344,-237.2425 725.7474,-190.3083"/>
<polygon fill="#c0c0c0" stroke="#c0c0c0" stroke-width="2" points="729.2312,-189.9613 724.9863,-180.254 722.2512,-190.4897 729.2312,-189.9613"/>
</g>
<!-- 13 -->
<g id="node14" class="node">
<title>13</title>
<path fill="none" stroke="#56d882" stroke-width="2" d="M665,-396C665,-396 595,-396 595,-396 589,-396 583,-390 583,-384 583,-384 583,-372 583,-372 583,-366 589,-360 595,-360 595,-360 665,-360 665,-360 671,-360 677,-366 677,-372 677,-372 677,-384 677,-384 677,-390 671,-396 665,-396"/>
<text text-anchor="middle" x="630" y="-381" font-family="sans" font-size="10.00" fill="#000000">nonpareil_infer</text>
<text text-anchor="middle" x="630" y="-370" font-family="sans" font-size="10.00" fill="#000000">tool: merge_lanes</text>
</g>
<!-- 3&#45;&gt;13 -->
<g id="edge25" class="edge">
<title>3&#45;&gt;13</title>
<path fill="none" stroke="#c0c0c0" stroke-width="2" d="M599.0621,-431.805C603.9881,-423.238 609.4679,-413.7081 614.4305,-405.0774"/>
<polygon fill="#c0c0c0" stroke="#c0c0c0" stroke-width="2" points="617.6113,-406.567 619.5619,-396.1532 611.543,-403.0776 617.6113,-406.567"/>
</g>
<!-- 15 -->
<g id="node16" class="node">
<title>15</title>
<path fill="none" stroke="#d88556" stroke-width="2" d="M531.5,-324C531.5,-324 472.5,-324 472.5,-324 466.5,-324 460.5,-318 460.5,-312 460.5,-312 460.5,-300 460.5,-300 460.5,-294 466.5,-288 472.5,-288 472.5,-288 531.5,-288 531.5,-288 537.5,-288 543.5,-294 543.5,-300 543.5,-300 543.5,-312 543.5,-312 543.5,-318 537.5,-324 531.5,-324"/>
<text text-anchor="middle" x="502" y="-303.5" font-family="sans" font-size="10.00" fill="#000000">extend_tadpole</text>
</g>
<!-- 3&#45;&gt;15 -->
<g id="edge27" class="edge">
<title>3&#45;&gt;15</title>
<path fill="none" stroke="#c0c0c0" stroke-width="2" d="M534.3046,-431.741C521.4146,-422.3131 509.1555,-410.3808 502,-396 492.5299,-376.9673 493.1258,-352.7442 495.7632,-334.2235"/>
<polygon fill="#c0c0c0" stroke="#c0c0c0" stroke-width="2" points="499.2205,-334.7696 497.4391,-324.3256 492.3187,-333.601 499.2205,-334.7696"/>
</g>
<!-- 16 -->
<g id="node17" class="node">
<title>16</title>
<path fill="none" stroke="#d6d856" stroke-width="2" d="M553,-396C553,-396 523,-396 523,-396 517,-396 511,-390 511,-384 511,-384 511,-372 511,-372 511,-366 517,-360 523,-360 523,-360 553,-360 553,-360 559,-360 565,-366 565,-372 565,-372 565,-384 565,-384 565,-390 559,-396 553,-396"/>
<text text-anchor="middle" x="538" y="-375.5" font-family="sans" font-size="10.00" fill="#000000">loglog</text>
</g>
<!-- 3&#45;&gt;16 -->
<g id="edge29" class="edge">
<title>3&#45;&gt;16</title>
<path fill="none" stroke="#c0c0c0" stroke-width="2" d="M568.9379,-431.805C564.0119,-423.238 558.5321,-413.7081 553.5695,-405.0774"/>
<polygon fill="#c0c0c0" stroke="#c0c0c0" stroke-width="2" points="556.457,-403.0776 548.4381,-396.1532 550.3887,-406.567 556.457,-403.0776"/>
</g>
<!-- 4 -->
<g id="node5" class="node">
<title>4</title>
<path fill="none" stroke="#d8ac56" stroke-width="2" d="M820,-324C820,-324 750,-324 750,-324 744,-324 738,-318 738,-312 738,-312 738,-300 738,-300 738,-294 744,-288 750,-288 750,-288 820,-288 820,-288 826,-288 832,-294 832,-300 832,-300 832,-312 832,-312 832,-318 826,-324 820,-324"/>
<text text-anchor="middle" x="785" y="-309" font-family="sans" font-size="10.00" fill="#000000">fastqc</text>
<text text-anchor="middle" x="785" y="-298" font-family="sans" font-size="10.00" fill="#000000">tool: merge_lanes</text>
</g>
<!-- 4&#45;&gt;1 -->
<g id="edge6" class="edge">
<title>4&#45;&gt;1</title>
<path fill="none" stroke="#c0c0c0" stroke-width="2" d="M790.7693,-287.8935C800.0193,-254.9775 813.8147,-184.9585 779,-144 749.6029,-109.4151 614.5312,-96.366 548.102,-91.978"/>
<polygon fill="#c0c0c0" stroke="#c0c0c0" stroke-width="2" points="548.2567,-88.4809 538.0566,-91.3462 547.8172,-95.4671 548.2567,-88.4809"/>
</g>
<!-- 5 -->
<g id="node6" class="node">
<title>5</title>
<path fill="none" stroke="#80d856" stroke-width="2" d="M958,-484C958,-484 854,-484 854,-484 848,-484 842,-478 842,-472 842,-472 842,-444 842,-444 842,-438 848,-432 854,-432 854,-432 958,-432 958,-432 964,-432 970,-438 970,-444 970,-444 970,-472 970,-472 970,-478 964,-484 958,-484"/>
<text text-anchor="middle" x="906" y="-472" font-family="sans" font-size="10.00" fill="#000000">merge_lanes</text>
<text text-anchor="middle" x="906" y="-461" font-family="sans" font-size="10.00" fill="#000000">library: lib1</text>
<text text-anchor="middle" x="906" y="-450" font-family="sans" font-size="10.00" fill="#000000">read_type_trim: collapsed</text>
<text text-anchor="middle" x="906" y="-439" font-family="sans" font-size="10.00" fill="#000000">sample: HD827sonic_2</text>
</g>
<!-- 5&#45;&gt;4 -->
<g id="edge18" class="edge">
<title>5&#45;&gt;4</title>
<path fill="none" stroke="#c0c0c0" stroke-width="2" d="M844.9598,-431.8492C829.5404,-422.5847 814.4218,-410.7117 804,-396 791.2855,-378.0518 786.7525,-353.3644 785.2777,-334.385"/>
<polygon fill="#c0c0c0" stroke="#c0c0c0" stroke-width="2" points="788.764,-334.0337 784.7322,-324.236 781.7741,-334.4095 788.764,-334.0337"/>
</g>
<!-- 11 -->
<g id="node12" class="node">
<title>11</title>
<path fill="none" stroke="#56d882" stroke-width="2" d="M895,-396C895,-396 825,-396 825,-396 819,-396 813,-390 813,-384 813,-384 813,-372 813,-372 813,-366 819,-360 825,-360 825,-360 895,-360 895,-360 901,-360 907,-366 907,-372 907,-372 907,-384 907,-384 907,-390 901,-396 895,-396"/>
<text text-anchor="middle" x="860" y="-381" font-family="sans" font-size="10.00" fill="#000000">nonpareil_infer</text>
<text text-anchor="middle" x="860" y="-370" font-family="sans" font-size="10.00" fill="#000000">tool: merge_lanes</text>
</g>
<!-- 5&#45;&gt;11 -->
<g id="edge23" class="edge">
<title>5&#45;&gt;11</title>
<path fill="none" stroke="#c0c0c0" stroke-width="2" d="M890.9379,-431.805C886.0119,-423.238 880.5321,-413.7081 875.5695,-405.0774"/>
<polygon fill="#c0c0c0" stroke="#c0c0c0" stroke-width="2" points="878.457,-403.0776 870.4381,-396.1532 872.3887,-406.567 878.457,-403.0776"/>
</g>
<!-- 21 -->
<g id="node22" class="node">
<title>21</title>
<path fill="none" stroke="#d88556" stroke-width="2" d="M1013.5,-324C1013.5,-324 954.5,-324 954.5,-324 948.5,-324 942.5,-318 942.5,-312 942.5,-312 942.5,-300 942.5,-300 942.5,-294 948.5,-288 954.5,-288 954.5,-288 1013.5,-288 1013.5,-288 1019.5,-288 1025.5,-294 1025.5,-300 1025.5,-300 1025.5,-312 1025.5,-312 1025.5,-318 1019.5,-324 1013.5,-324"/>
<text text-anchor="middle" x="984" y="-303.5" font-family="sans" font-size="10.00" fill="#000000">extend_tadpole</text>
</g>
<!-- 5&#45;&gt;21 -->
<g id="edge35" class="edge">
<title>5&#45;&gt;21</title>
<path fill="none" stroke="#c0c0c0" stroke-width="2" d="M955.6954,-431.741C968.5854,-422.3131 980.8445,-410.3808 988,-396 997.4794,-376.9485 995.7531,-352.7266 992.0544,-334.2111"/>
<polygon fill="#c0c0c0" stroke="#c0c0c0" stroke-width="2" points="995.4324,-333.2822 989.7873,-324.3166 988.6092,-334.8457 995.4324,-333.2822"/>
</g>
<!-- 22 -->
<g id="node23" class="node">
<title>22</title>
<path fill="none" stroke="#d6d856" stroke-width="2" d="M967,-396C967,-396 937,-396 937,-396 931,-396 925,-390 925,-384 925,-384 925,-372 925,-372 925,-366 931,-360 937,-360 937,-360 967,-360 967,-360 973,-360 979,-366 979,-372 979,-372 979,-384 979,-384 979,-390 973,-396 967,-396"/>
<text text-anchor="middle" x="952" y="-375.5" font-family="sans" font-size="10.00" fill="#000000">loglog</text>
</g>
<!-- 5&#45;&gt;22 -->
<g id="edge37" class="edge">
<title>5&#45;&gt;22</title>
<path fill="none" stroke="#c0c0c0" stroke-width="2" d="M921.0621,-431.805C925.9881,-423.238 931.4679,-413.7081 936.4305,-405.0774"/>
<polygon fill="#c0c0c0" stroke="#c0c0c0" stroke-width="2" points="939.6113,-406.567 941.5619,-396.1532 933.543,-403.0776 939.6113,-406.567"/>
</g>
<!-- 6 -->
<g id="node7" class="node">
<title>6</title>
<path fill="none" stroke="#d8ac56" stroke-width="2" d="M253,-324C253,-324 183,-324 183,-324 177,-324 171,-318 171,-312 171,-312 171,-300 171,-300 171,-294 177,-288 183,-288 183,-288 253,-288 253,-288 259,-288 265,-294 265,-300 265,-300 265,-312 265,-312 265,-318 259,-324 253,-324"/>
<text text-anchor="middle" x="218" y="-309" font-family="sans" font-size="10.00" fill="#000000">fastqc</text>
<text text-anchor="middle" x="218" y="-298" font-family="sans" font-size="10.00" fill="#000000">tool: merge_lanes</text>
</g>
<!-- 6&#45;&gt;1 -->
<g id="edge7" class="edge">
<title>6&#45;&gt;1</title>
<path fill="none" stroke="#c0c0c0" stroke-width="2" d="M222.6855,-287.8009C232.328,-254.094 257.6559,-181.938 306,-144 331.9361,-123.6466 421.9724,-105.3338 473.6874,-96.1738"/>
<polygon fill="#c0c0c0" stroke="#c0c0c0" stroke-width="2" points="474.5455,-99.5772 483.7967,-94.4133 473.3445,-92.681 474.5455,-99.5772"/>
</g>
<!-- 7 -->
<g id="node8" class="node">
<title>7</title>
<path fill="none" stroke="#80d856" stroke-width="2" d="M244,-484C244,-484 140,-484 140,-484 134,-484 128,-478 128,-472 128,-472 128,-444 128,-444 128,-438 134,-432 140,-432 140,-432 244,-432 244,-432 250,-432 256,-438 256,-444 256,-444 256,-472 256,-472 256,-478 250,-484 244,-484"/>
<text text-anchor="middle" x="192" y="-472" font-family="sans" font-size="10.00" fill="#000000">merge_lanes</text>
<text text-anchor="middle" x="192" y="-461" font-family="sans" font-size="10.00" fill="#000000">library: lib2</text>
<text text-anchor="middle" x="192" y="-450" font-family="sans" font-size="10.00" fill="#000000">read_type_trim: collapsed</text>
<text text-anchor="middle" x="192" y="-439" font-family="sans" font-size="10.00" fill="#000000">sample: HD827sonic_2</text>
</g>
<!-- 7&#45;&gt;6 -->
<g id="edge19" class="edge">
<title>7&#45;&gt;6</title>
<path fill="none" stroke="#c0c0c0" stroke-width="2" d="M196.4696,-431.8703C201.1301,-404.6241 208.4094,-362.0678 213.1921,-334.1075"/>
<polygon fill="#c0c0c0" stroke="#c0c0c0" stroke-width="2" points="216.656,-334.6155 214.8922,-324.1685 209.7562,-333.4352 216.656,-334.6155"/>
</g>
<!-- 9 -->
<g id="node10" class="node">
<title>9</title>
<path fill="none" stroke="#56d882" stroke-width="2" d="M343,-396C343,-396 273,-396 273,-396 267,-396 261,-390 261,-384 261,-384 261,-372 261,-372 261,-366 267,-360 273,-360 273,-360 343,-360 343,-360 349,-360 355,-366 355,-372 355,-372 355,-384 355,-384 355,-390 349,-396 343,-396"/>
<text text-anchor="middle" x="308" y="-381" font-family="sans" font-size="10.00" fill="#000000">nonpareil_infer</text>
<text text-anchor="middle" x="308" y="-370" font-family="sans" font-size="10.00" fill="#000000">tool: merge_lanes</text>
</g>
<!-- 7&#45;&gt;9 -->
<g id="edge21" class="edge">
<title>7&#45;&gt;9</title>
<path fill="none" stroke="#c0c0c0" stroke-width="2" d="M229.9827,-431.805C243.8585,-422.2355 259.4765,-411.4645 273.0733,-402.0874"/>
<polygon fill="#c0c0c0" stroke="#c0c0c0" stroke-width="2" points="275.4327,-404.7119 281.6778,-396.1532 271.4586,-398.9494 275.4327,-404.7119"/>
</g>
<!-- 18 -->
<g id="node19" class="node">
<title>18</title>
<path fill="none" stroke="#d88556" stroke-width="2" d="M139.5,-324C139.5,-324 80.5,-324 80.5,-324 74.5,-324 68.5,-318 68.5,-312 68.5,-312 68.5,-300 68.5,-300 68.5,-294 74.5,-288 80.5,-288 80.5,-288 139.5,-288 139.5,-288 145.5,-288 151.5,-294 151.5,-300 151.5,-300 151.5,-312 151.5,-312 151.5,-318 145.5,-324 139.5,-324"/>
<text text-anchor="middle" x="110" y="-303.5" font-family="sans" font-size="10.00" fill="#000000">extend_tadpole</text>
</g>
<!-- 7&#45;&gt;18 -->
<g id="edge31" class="edge">
<title>7&#45;&gt;18</title>
<path fill="none" stroke="#c0c0c0" stroke-width="2" d="M157.5858,-431.8159C146.5663,-421.7636 135.3335,-409.4453 128,-396 117.6673,-377.056 113.2294,-352.9695 111.3412,-334.4824"/>
<polygon fill="#c0c0c0" stroke="#c0c0c0" stroke-width="2" points="114.8135,-334.0021 110.4988,-324.3257 107.8374,-334.5808 114.8135,-334.0021"/>
</g>
<!-- 19 -->
<g id="node20" class="node">
<title>19</title>
<path fill="none" stroke="#d6d856" stroke-width="2" d="M179,-396C179,-396 149,-396 149,-396 143,-396 137,-390 137,-384 137,-384 137,-372 137,-372 137,-366 143,-360 149,-360 149,-360 179,-360 179,-360 185,-360 191,-366 191,-372 191,-372 191,-384 191,-384 191,-390 185,-396 179,-396"/>
<text text-anchor="middle" x="164" y="-375.5" font-family="sans" font-size="10.00" fill="#000000">loglog</text>
</g>
<!-- 7&#45;&gt;19 -->
<g id="edge33" class="edge">
<title>7&#45;&gt;19</title>
<path fill="none" stroke="#c0c0c0" stroke-width="2" d="M182.8318,-431.805C179.8971,-423.4203 176.6396,-414.1132 173.6703,-405.6295"/>
<polygon fill="#c0c0c0" stroke="#c0c0c0" stroke-width="2" points="176.9607,-404.4356 170.3536,-396.1532 170.3537,-406.7481 176.9607,-404.4356"/>
</g>
<!-- 8 -->
<g id="node9" class="node">
<title>8</title>
<path fill="none" stroke="#56d8a9" stroke-width="2" d="M348.5,-324C348.5,-324 295.5,-324 295.5,-324 289.5,-324 283.5,-318 283.5,-312 283.5,-312 283.5,-300 283.5,-300 283.5,-294 289.5,-288 295.5,-288 295.5,-288 348.5,-288 348.5,-288 354.5,-288 360.5,-294 360.5,-300 360.5,-300 360.5,-312 360.5,-312 360.5,-318 354.5,-324 348.5,-324"/>
<text text-anchor="middle" x="322" y="-303.5" font-family="sans" font-size="10.00" fill="#000000">nonpareil_plot</text>
</g>
<!-- 8&#45;&gt;1 -->
<g id="edge8" class="edge">
<title>8&#45;&gt;1</title>
<path fill="none" stroke="#c0c0c0" stroke-width="2" d="M316.3758,-287.9401C307.4548,-255.4082 294.2155,-186.409 327,-144 344.9263,-120.8111 425.2406,-103.9748 473.6397,-95.7226"/>
<polygon fill="#c0c0c0" stroke="#c0c0c0" stroke-width="2" points="474.4492,-99.1362 483.7409,-94.0456 473.3027,-92.2307 474.4492,-99.1362"/>
</g>
<!-- 9&#45;&gt;8 -->
<g id="edge20" class="edge">
<title>9&#45;&gt;8</title>
<path fill="none" stroke="#c0c0c0" stroke-width="2" d="M311.5328,-359.8314C313.0301,-352.131 314.8105,-342.9743 316.4745,-334.4166"/>
<polygon fill="#c0c0c0" stroke="#c0c0c0" stroke-width="2" points="319.9465,-334.8975 318.4196,-324.4133 313.0752,-333.5614 319.9465,-334.8975"/>
</g>
<!-- 10 -->
<g id="node11" class="node">
<title>10</title>
<path fill="none" stroke="#56d8a9" stroke-width="2" d="M880.5,-252C880.5,-252 827.5,-252 827.5,-252 821.5,-252 815.5,-246 815.5,-240 815.5,-240 815.5,-228 815.5,-228 815.5,-222 821.5,-216 827.5,-216 827.5,-216 880.5,-216 880.5,-216 886.5,-216 892.5,-222 892.5,-228 892.5,-228 892.5,-240 892.5,-240 892.5,-246 886.5,-252 880.5,-252"/>
<text text-anchor="middle" x="854" y="-231.5" font-family="sans" font-size="10.00" fill="#000000">nonpareil_plot</text>
</g>
<!-- 10&#45;&gt;1 -->
<g id="edge9" class="edge">
<title>10&#45;&gt;1</title>
<path fill="none" stroke="#c0c0c0" stroke-width="2" d="M850.6617,-215.6693C845.8714,-194.9046 834.9579,-161.6652 812,-144 771.2775,-112.6655 620.055,-97.8438 548.7132,-92.4779"/>
<polygon fill="#c0c0c0" stroke="#c0c0c0" stroke-width="2" points="548.6114,-88.9613 538.3835,-91.7253 548.1027,-95.9428 548.6114,-88.9613"/>
</g>
<!-- 11&#45;&gt;10 -->
<g id="edge22" class="edge">
<title>11&#45;&gt;10</title>
<path fill="none" stroke="#c0c0c0" stroke-width="2" d="M859.2401,-359.7623C858.2167,-335.201 856.3853,-291.2474 855.1814,-262.3541"/>
<polygon fill="#c0c0c0" stroke="#c0c0c0" stroke-width="2" points="858.6671,-261.9352 854.7537,-252.0896 851.6732,-262.2267 858.6671,-261.9352"/>
</g>
<!-- 12 -->
<g id="node13" class="node">
<title>12</title>
<path fill="none" stroke="#56d8a9" stroke-width="2" d="M645.5,-180C645.5,-180 592.5,-180 592.5,-180 586.5,-180 580.5,-174 580.5,-168 580.5,-168 580.5,-156 580.5,-156 580.5,-150 586.5,-144 592.5,-144 592.5,-144 645.5,-144 645.5,-144 651.5,-144 657.5,-150 657.5,-156 657.5,-156 657.5,-168 657.5,-168 657.5,-174 651.5,-180 645.5,-180"/>
<text text-anchor="middle" x="619" y="-159.5" font-family="sans" font-size="10.00" fill="#000000">nonpareil_plot</text>
</g>
<!-- 12&#45;&gt;1 -->
<g id="edge10" class="edge">
<title>12&#45;&gt;1</title>
<path fill="none" stroke="#c0c0c0" stroke-width="2" d="M591.747,-143.8314C578.0611,-134.7074 561.3085,-123.539 546.6173,-113.7449"/>
<polygon fill="#c0c0c0" stroke="#c0c0c0" stroke-width="2" points="548.5062,-110.7977 538.2442,-108.1628 544.6233,-116.6221 548.5062,-110.7977"/>
</g>
<!-- 13&#45;&gt;12 -->
<g id="edge24" class="edge">
<title>13&#45;&gt;12</title>
<path fill="none" stroke="#c0c0c0" stroke-width="2" d="M629.0811,-359.9555C627.1682,-322.3938 622.7458,-235.5541 620.4468,-190.4103"/>
<polygon fill="#c0c0c0" stroke="#c0c0c0" stroke-width="2" points="623.9282,-189.9541 619.9241,-180.1451 616.9373,-190.3102 623.9282,-189.9541"/>
</g>
<!-- 14 -->
<g id="node15" class="node">
<title>14</title>
<path fill="none" stroke="#d8ac56" stroke-width="2" d="M550,-180C550,-180 472,-180 472,-180 466,-180 460,-174 460,-168 460,-168 460,-156 460,-156 460,-150 466,-144 472,-144 472,-144 550,-144 550,-144 556,-144 562,-150 562,-156 562,-156 562,-168 562,-168 562,-174 556,-180 550,-180"/>
<text text-anchor="middle" x="511" y="-165" font-family="sans" font-size="10.00" fill="#000000">fastqc</text>
<text text-anchor="middle" x="511" y="-154" font-family="sans" font-size="10.00" fill="#000000">tool: extend/tadpole</text>
</g>
<!-- 14&#45;&gt;1 -->
<g id="edge11" class="edge">
<title>14&#45;&gt;1</title>
<path fill="none" stroke="#c0c0c0" stroke-width="2" d="M511,-143.8314C511,-136.131 511,-126.9743 511,-118.4166"/>
<polygon fill="#c0c0c0" stroke="#c0c0c0" stroke-width="2" points="514.5001,-118.4132 511,-108.4133 507.5001,-118.4133 514.5001,-118.4132"/>
</g>
<!-- 15&#45;&gt;14 -->
<g id="edge26" class="edge">
<title>15&#45;&gt;14</title>
<path fill="none" stroke="#c0c0c0" stroke-width="2" d="M503.1399,-287.7623C504.6749,-263.201 507.422,-219.2474 509.2279,-190.3541"/>
<polygon fill="#c0c0c0" stroke="#c0c0c0" stroke-width="2" points="512.7387,-190.2885 509.8694,-180.0896 505.7523,-189.8518 512.7387,-190.2885"/>
</g>
<!-- 24 -->
<g id="node25" class="node">
<title>24</title>
<path fill="none" stroke="#afd856" stroke-width="2" d="M419,-252C419,-252 359,-252 359,-252 353,-252 347,-246 347,-240 347,-240 347,-228 347,-228 347,-222 353,-216 359,-216 359,-216 419,-216 419,-216 425,-216 431,-222 431,-228 431,-228 431,-240 431,-240 431,-246 425,-252 419,-252"/>
<text text-anchor="middle" x="389" y="-231.5" font-family="sans" font-size="10.00" fill="#000000">low_complexity</text>
</g>
<!-- 15&#45;&gt;24 -->
<g id="edge39" class="edge">
<title>15&#45;&gt;24</title>
<path fill="none" stroke="#c0c0c0" stroke-width="2" d="M473.4853,-287.8314C459.1658,-278.7074 441.6376,-267.539 426.2662,-257.7449"/>
<polygon fill="#c0c0c0" stroke="#c0c0c0" stroke-width="2" points="427.8199,-254.5847 417.5055,-252.1628 424.0583,-260.4882 427.8199,-254.5847"/>
</g>
<!-- 16&#45;&gt;15 -->
<g id="edge28" class="edge">
<title>16&#45;&gt;15</title>
<path fill="none" stroke="#c0c0c0" stroke-width="2" d="M528.9157,-359.8314C524.9385,-351.8771 520.1845,-342.369 515.7861,-333.5723"/>
<polygon fill="#c0c0c0" stroke="#c0c0c0" stroke-width="2" points="518.8093,-331.7923 511.2066,-324.4133 512.5483,-334.9228 518.8093,-331.7923"/>
</g>
<!-- 17 -->
<g id="node18" class="node">
<title>17</title>
<path fill="none" stroke="#d8ac56" stroke-width="2" d="M192,-252C192,-252 114,-252 114,-252 108,-252 102,-246 102,-240 102,-240 102,-228 102,-228 102,-222 108,-216 114,-216 114,-216 192,-216 192,-216 198,-216 204,-222 204,-228 204,-228 204,-240 204,-240 204,-246 198,-252 192,-252"/>
<text text-anchor="middle" x="153" y="-237" font-family="sans" font-size="10.00" fill="#000000">fastqc</text>
<text text-anchor="middle" x="153" y="-226" font-family="sans" font-size="10.00" fill="#000000">tool: extend/tadpole</text>
</g>
<!-- 17&#45;&gt;1 -->
<g id="edge12" class="edge">
<title>17&#45;&gt;1</title>
<path fill="none" stroke="#c0c0c0" stroke-width="2" d="M160.8795,-215.9127C170.9594,-195.0536 190.468,-161.4066 218,-144 260.1049,-117.3799 404.7164,-100.2483 473.749,-93.3965"/>
<polygon fill="#c0c0c0" stroke="#c0c0c0" stroke-width="2" points="474.1446,-96.8746 483.7586,-92.4226 473.4667,-89.9075 474.1446,-96.8746"/>
</g>
<!-- 18&#45;&gt;17 -->
<g id="edge30" class="edge">
<title>18&#45;&gt;17</title>
<path fill="none" stroke="#c0c0c0" stroke-width="2" d="M120.8507,-287.8314C125.7023,-279.7079 131.5217,-269.9637 136.868,-261.0118"/>
<polygon fill="#c0c0c0" stroke="#c0c0c0" stroke-width="2" points="139.8806,-262.7933 142.0032,-252.4133 133.8708,-259.2041 139.8806,-262.7933"/>
</g>
<!-- 28 -->
<g id="node29" class="node">
<title>28</title>
<path fill="none" stroke="#afd856" stroke-width="2" d="M72,-252C72,-252 12,-252 12,-252 6,-252 0,-246 0,-240 0,-240 0,-228 0,-228 0,-222 6,-216 12,-216 12,-216 72,-216 72,-216 78,-216 84,-222 84,-228 84,-228 84,-240 84,-240 84,-246 78,-252 72,-252"/>
<text text-anchor="middle" x="42" y="-231.5" font-family="sans" font-size="10.00" fill="#000000">low_complexity</text>
</g>
<!-- 18&#45;&gt;28 -->
<g id="edge43" class="edge">
<title>18&#45;&gt;28</title>
<path fill="none" stroke="#c0c0c0" stroke-width="2" d="M92.8407,-287.8314C84.8489,-279.3694 75.1962,-269.1489 66.4584,-259.8971"/>
<polygon fill="#c0c0c0" stroke="#c0c0c0" stroke-width="2" points="68.8011,-257.2802 59.3903,-252.4133 63.712,-262.0866 68.8011,-257.2802"/>
</g>
<!-- 19&#45;&gt;18 -->
<g id="edge32" class="edge">
<title>19&#45;&gt;18</title>
<path fill="none" stroke="#c0c0c0" stroke-width="2" d="M150.3735,-359.8314C144.154,-351.5386 136.6678,-341.557 129.84,-332.4533"/>
<polygon fill="#c0c0c0" stroke="#c0c0c0" stroke-width="2" points="132.61,-330.3133 123.81,-324.4133 127.01,-334.5133 132.61,-330.3133"/>
</g>
<!-- 20 -->
<g id="node21" class="node">
<title>20</title>
<path fill="none" stroke="#d8ac56" stroke-width="2" d="M1001,-252C1001,-252 923,-252 923,-252 917,-252 911,-246 911,-240 911,-240 911,-228 911,-228 911,-222 917,-216 923,-216 923,-216 1001,-216 1001,-216 1007,-216 1013,-222 1013,-228 1013,-228 1013,-240 1013,-240 1013,-246 1007,-252 1001,-252"/>
<text text-anchor="middle" x="962" y="-237" font-family="sans" font-size="10.00" fill="#000000">fastqc</text>
<text text-anchor="middle" x="962" y="-226" font-family="sans" font-size="10.00" fill="#000000">tool: extend/tadpole</text>
</g>
<!-- 20&#45;&gt;1 -->
<g id="edge13" class="edge">
<title>20&#45;&gt;1</title>
<path fill="none" stroke="#c0c0c0" stroke-width="2" d="M943.1424,-215.8862C920.2335,-195.0016 879.4802,-161.33 838,-144 786.1312,-122.3297 622.9482,-102.2816 548.5867,-94.0033"/>
<polygon fill="#c0c0c0" stroke="#c0c0c0" stroke-width="2" points="548.6068,-90.4844 538.2837,-92.8685 547.8404,-97.4423 548.6068,-90.4844"/>
</g>
<!-- 21&#45;&gt;20 -->
<g id="edge34" class="edge">
<title>21&#45;&gt;20</title>
<path fill="none" stroke="#c0c0c0" stroke-width="2" d="M978.4485,-287.8314C976.0697,-280.0463 973.2362,-270.7729 970.5967,-262.1347"/>
<polygon fill="#c0c0c0" stroke="#c0c0c0" stroke-width="2" points="973.8958,-260.954 967.6263,-252.4133 967.2013,-262.9996 973.8958,-260.954"/>
</g>
<!-- 26 -->
<g id="node27" class="node">
<title>26</title>
<path fill="none" stroke="#afd856" stroke-width="2" d="M1103,-252C1103,-252 1043,-252 1043,-252 1037,-252 1031,-246 1031,-240 1031,-240 1031,-228 1031,-228 1031,-222 1037,-216 1043,-216 1043,-216 1103,-216 1103,-216 1109,-216 1115,-222 1115,-228 1115,-228 1115,-240 1115,-240 1115,-246 1109,-252 1103,-252"/>
<text text-anchor="middle" x="1073" y="-231.5" font-family="sans" font-size="10.00" fill="#000000">low_complexity</text>
</g>
<!-- 21&#45;&gt;26 -->
<g id="edge41" class="edge">
<title>21&#45;&gt;26</title>
<path fill="none" stroke="#c0c0c0" stroke-width="2" d="M1006.4585,-287.8314C1017.4205,-278.9632 1030.7699,-268.1637 1042.6265,-258.5718"/>
<polygon fill="#c0c0c0" stroke="#c0c0c0" stroke-width="2" points="1044.9755,-261.1734 1050.5487,-252.1628 1040.5729,-255.7313 1044.9755,-261.1734"/>
</g>
<!-- 22&#45;&gt;21 -->
<g id="edge36" class="edge">
<title>22&#45;&gt;21</title>
<path fill="none" stroke="#c0c0c0" stroke-width="2" d="M960.075,-359.8314C963.6102,-351.8771 967.836,-342.369 971.7456,-333.5723"/>
<polygon fill="#c0c0c0" stroke="#c0c0c0" stroke-width="2" points="974.9532,-334.9729 975.8163,-324.4133 968.5565,-332.1299 974.9532,-334.9729"/>
</g>
<!-- 23 -->
<g id="node24" class="node">
<title>23</title>
<path fill="none" stroke="#d8ac56" stroke-width="2" d="M430,-180C430,-180 348,-180 348,-180 342,-180 336,-174 336,-168 336,-168 336,-156 336,-156 336,-150 342,-144 348,-144 348,-144 430,-144 430,-144 436,-144 442,-150 442,-156 442,-156 442,-168 442,-168 442,-174 436,-180 430,-180"/>
<text text-anchor="middle" x="389" y="-165" font-family="sans" font-size="10.00" fill="#000000">fastqc</text>
<text text-anchor="middle" x="389" y="-154" font-family="sans" font-size="10.00" fill="#000000">tool: low_complexity</text>
</g>
<!-- 23&#45;&gt;1 -->
<g id="edge14" class="edge">
<title>23&#45;&gt;1</title>
<path fill="none" stroke="#c0c0c0" stroke-width="2" d="M419.7858,-143.8314C436.6168,-133.8983 457.5535,-121.5422 475.1217,-111.1741"/>
<polygon fill="#c0c0c0" stroke="#c0c0c0" stroke-width="2" points="477.1289,-114.0536 483.9621,-105.9568 473.5711,-108.0251 477.1289,-114.0536"/>
</g>
<!-- 24&#45;&gt;0 -->
<g id="edge3" class="edge">
<title>24&#45;&gt;0</title>
<path fill="none" stroke="#c0c0c0" stroke-width="2" d="M358.5042,-215.7757C346.3178,-206.7056 333.6228,-194.5508 327,-180 320.3719,-165.4374 323.324,-159.572 327,-144 335.6198,-107.486 356.5308,-69.4891 371.9074,-44.8977"/>
<polygon fill="#c0c0c0" stroke="#c0c0c0" stroke-width="2" points="375.0557,-46.471 377.4925,-36.1602 369.1576,-42.7009 375.0557,-46.471"/>
</g>
<!-- 24&#45;&gt;23 -->
<g id="edge38" class="edge">
<title>24&#45;&gt;23</title>
<path fill="none" stroke="#c0c0c0" stroke-width="2" d="M389,-215.8314C389,-208.131 389,-198.9743 389,-190.4166"/>
<polygon fill="#c0c0c0" stroke="#c0c0c0" stroke-width="2" points="392.5001,-190.4132 389,-180.4133 385.5001,-190.4133 392.5001,-190.4132"/>
</g>
<!-- 25 -->
<g id="node26" class="node">
<title>25</title>
<path fill="none" stroke="#d8ac56" stroke-width="2" d="M1020,-180C1020,-180 938,-180 938,-180 932,-180 926,-174 926,-168 926,-168 926,-156 926,-156 926,-150 932,-144 938,-144 938,-144 1020,-144 1020,-144 1026,-144 1032,-150 1032,-156 1032,-156 1032,-168 1032,-168 1032,-174 1026,-180 1020,-180"/>
<text text-anchor="middle" x="979" y="-165" font-family="sans" font-size="10.00" fill="#000000">fastqc</text>
<text text-anchor="middle" x="979" y="-154" font-family="sans" font-size="10.00" fill="#000000">tool: low_complexity</text>
</g>
<!-- 25&#45;&gt;1 -->
<g id="edge15" class="edge">
<title>25&#45;&gt;1</title>
<path fill="none" stroke="#c0c0c0" stroke-width="2" d="M925.672,-147.9774C919.4,-146.5334 913.0731,-145.1696 907,-144 776.089,-118.7889 618.617,-101.0031 548.1962,-93.6982"/>
<polygon fill="#c0c0c0" stroke="#c0c0c0" stroke-width="2" points="548.36,-90.1967 538.0547,-92.6564 547.6447,-97.16 548.36,-90.1967"/>
</g>
<!-- 26&#45;&gt;0 -->
<g id="edge2" class="edge">
<title>26&#45;&gt;0</title>
<path fill="none" stroke="#c0c0c0" stroke-width="2" d="M1071.7444,-215.8461C1069.3044,-195.2474 1062.1246,-162.1639 1041,-144 947.0667,-63.2318 550.9336,-29.2119 427.1326,-20.424"/>
<polygon fill="#c0c0c0" stroke="#c0c0c0" stroke-width="2" points="427.2351,-16.9228 417.016,-19.7194 426.7487,-23.9059 427.2351,-16.9228"/>
</g>
<!-- 26&#45;&gt;25 -->
<g id="edge40" class="edge">
<title>26&#45;&gt;25</title>
<path fill="none" stroke="#c0c0c0" stroke-width="2" d="M1049.2798,-215.8314C1037.5906,-206.8779 1023.3312,-195.9558 1010.7191,-186.2955"/>
<polygon fill="#c0c0c0" stroke="#c0c0c0" stroke-width="2" points="1012.7797,-183.4651 1002.7126,-180.1628 1008.5231,-189.0222 1012.7797,-183.4651"/>
</g>
<!-- 27 -->
<g id="node28" class="node">
<title>27</title>
<path fill="none" stroke="#d8ac56" stroke-width="2" d="M154,-180C154,-180 72,-180 72,-180 66,-180 60,-174 60,-168 60,-168 60,-156 60,-156 60,-150 66,-144 72,-144 72,-144 154,-144 154,-144 160,-144 166,-150 166,-156 166,-156 166,-168 166,-168 166,-174 160,-180 154,-180"/>
<text text-anchor="middle" x="113" y="-165" font-family="sans" font-size="10.00" fill="#000000">fastqc</text>
<text text-anchor="middle" x="113" y="-154" font-family="sans" font-size="10.00" fill="#000000">tool: low_complexity</text>
</g>
<!-- 27&#45;&gt;1 -->
<g id="edge16" class="edge">
<title>27&#45;&gt;1</title>
<path fill="none" stroke="#c0c0c0" stroke-width="2" d="M166.2757,-147.168C170.9034,-146.0375 175.5257,-144.9634 180,-144 285.7318,-121.2331 412.2959,-103.0748 473.7929,-94.8237"/>
<polygon fill="#c0c0c0" stroke="#c0c0c0" stroke-width="2" points="474.3453,-98.2811 483.796,-93.4922 473.4216,-91.3423 474.3453,-98.2811"/>
</g>
<!-- 28&#45;&gt;0 -->
<g id="edge4" class="edge">
<title>28&#45;&gt;0</title>
<path fill="none" stroke="#c0c0c0" stroke-width="2" d="M38.6022,-215.7436C36.0067,-195.9701 35.1695,-164.5113 51,-144 89.1826,-94.5274 272.9585,-45.8084 352.8177,-26.5842"/>
<polygon fill="#c0c0c0" stroke="#c0c0c0" stroke-width="2" points="354.0071,-29.8989 362.9232,-24.1758 352.3842,-23.0896 354.0071,-29.8989"/>
</g>
<!-- 28&#45;&gt;27 -->
<g id="edge42" class="edge">
<title>28&#45;&gt;27</title>
<path fill="none" stroke="#c0c0c0" stroke-width="2" d="M59.9163,-215.8314C68.3442,-207.2848 78.541,-196.9443 87.736,-187.6198"/>
<polygon fill="#c0c0c0" stroke="#c0c0c0" stroke-width="2" points="90.3131,-189.9912 94.8425,-180.4133 85.3289,-185.0761 90.3131,-189.9912"/>
</g>
</g>
</svg>
