<?xml version="1.0" encoding="UTF-8" standalone="no"?>
<!DOCTYPE svg PUBLIC "-//W3C//DTD SVG 1.1//EN"
 "http://www.w3.org/Graphics/SVG/1.1/DTD/svg11.dtd">
<!-- Generated by graphviz version 2.40.1 (0)
 -->
<!-- Title: snakemake_dag Pages: 1 -->
<svg width="1076pt" height="492pt"
 viewBox="0.00 0.00 1076.00 492.00" xmlns="http://www.w3.org/2000/svg" xmlns:xlink="http://www.w3.org/1999/xlink">
<g id="graph0" class="graph" transform="scale(1 1) rotate(0) translate(4 488)">
<title>snakemake_dag</title>
<polygon fill="#ffffff" stroke="transparent" points="-4,4 -4,-488 1072,-488 1072,4 -4,4"/>
<!-- 0 -->
<g id="node1" class="node">
<title>0</title>
<path fill="none" stroke="#d85656" stroke-width="2" d="M405,-36C405,-36 375,-36 375,-36 369,-36 363,-30 363,-24 363,-24 363,-12 363,-12 363,-6 369,0 375,0 375,0 405,0 405,0 411,0 417,-6 417,-12 417,-12 417,-24 417,-24 417,-30 411,-36 405,-36"/>
<text text-anchor="middle" x="390" y="-15.5" font-family="sans" font-size="10.00" fill="#000000">all</text>
</g>
<!-- 1 -->
<g id="node2" class="node">
<title>1</title>
<path fill="none" stroke="#59d856" stroke-width="2" d="M526,-108C526,-108 496,-108 496,-108 490,-108 484,-102 484,-96 484,-96 484,-84 484,-84 484,-78 490,-72 496,-72 496,-72 526,-72 526,-72 532,-72 538,-78 538,-84 538,-84 538,-96 538,-96 538,-102 532,-108 526,-108"/>
<text text-anchor="middle" x="511" y="-87.5" font-family="sans" font-size="10.00" fill="#000000">multiqc</text>
</g>
<!-- 1&#45;&gt;0 -->
<g id="edge1" class="edge">
<title>1&#45;&gt;0</title>
<path fill="none" stroke="#c0c0c0" stroke-width="2" d="M483.8452,-73.8418C466.7198,-63.6515 444.4106,-50.3765 425.8407,-39.3267"/>
<polygon fill="#c0c0c0" stroke="#c0c0c0" stroke-width="2" points="427.4476,-36.2101 417.0641,-34.1043 423.868,-42.2257 427.4476,-36.2101"/>
</g>
<!-- 2 -->
<g id="node3" class="node">
<title>2</title>
<path fill="none" stroke="#d8ac56" stroke-width="2" d="M758,-180C758,-180 688,-180 688,-180 682,-180 676,-174 676,-168 676,-168 676,-156 676,-156 676,-150 682,-144 688,-144 688,-144 758,-144 758,-144 764,-144 770,-150 770,-156 770,-156 770,-168 770,-168 770,-174 764,-180 758,-180"/>
<text text-anchor="middle" x="723" y="-165" font-family="sans" font-size="10.00" fill="#000000">fastqc</text>
<text text-anchor="middle" x="723" y="-154" font-family="sans" font-size="10.00" fill="#000000">tool: merge_lanes</text>
</g>
<!-- 2&#45;&gt;1 -->
<g id="edge5" class="edge">
<title>2&#45;&gt;1</title>
<path fill="none" stroke="#c0c0c0" stroke-width="2" d="M675.9503,-146.0209C637.2588,-132.8803 583.2025,-114.5216 547.6667,-102.4528"/>
<polygon fill="#c0c0c0" stroke="#c0c0c0" stroke-width="2" points="548.7575,-99.127 538.1631,-99.2252 546.5063,-105.7552 548.7575,-99.127"/>
</g>
<!-- 3 -->
<g id="node4" class="node">
<title>3</title>
<path fill="none" stroke="#80d856" stroke-width="2" d="M631,-484C631,-484 527,-484 527,-484 521,-484 515,-478 515,-472 515,-472 515,-444 515,-444 515,-438 521,-432 527,-432 527,-432 631,-432 631,-432 637,-432 643,-438 643,-444 643,-444 643,-472 643,-472 643,-478 637,-484 631,-484"/>
<text text-anchor="middle" x="579" y="-472" font-family="sans" font-size="10.00" fill="#000000">merge_lanes</text>
<text text-anchor="middle" x="579" y="-461" font-family="sans" font-size="10.00" fill="#000000">library: lib2</text>
<text text-anchor="middle" x="579" y="-450" font-family="sans" font-size="10.00" fill="#000000">read_type_trim: collapsed</text>
<text text-anchor="middle" x="579" y="-439" font-family="sans" font-size="10.00" fill="#000000">sample: HD827sonic_2</text>
</g>
<!-- 3&#45;&gt;2 -->
<g id="edge17" class="edge">
<title>3&#45;&gt;2</title>
<path fill="none" stroke="#c0c0c0" stroke-width="2" d="M640.6006,-431.8945C655.9298,-422.6548 670.8621,-410.7833 681,-396 724.5289,-332.5257 726.9283,-237.3647 725.0209,-190.358"/>
<polygon fill="#c0c0c0" stroke="#c0c0c0" stroke-width="2" points="728.5124,-190.0991 724.5142,-180.2876 721.5213,-190.4509 728.5124,-190.0991"/>
</g>
<!-- 9 -->
<g id="node10" class="node">
<title>9</title>
<path fill="none" stroke="#56d882" stroke-width="2" d="M660,-396C660,-396 590,-396 590,-396 584,-396 578,-390 578,-384 578,-384 578,-372 578,-372 578,-366 584,-360 590,-360 590,-360 660,-360 660,-360 666,-360 672,-366 672,-372 672,-372 672,-384 672,-384 672,-390 666,-396 660,-396"/>
<text text-anchor="middle" x="625" y="-381" font-family="sans" font-size="10.00" fill="#000000">nonpareil_infer</text>
<text text-anchor="middle" x="625" y="-370" font-family="sans" font-size="10.00" fill="#000000">tool: merge_lanes</text>
</g>
<!-- 3&#45;&gt;9 -->
<g id="edge21" class="edge">
<title>3&#45;&gt;9</title>
<path fill="none" stroke="#c0c0c0" stroke-width="2" d="M594.0621,-431.805C598.9881,-423.238 604.4679,-413.7081 609.4305,-405.0774"/>
<polygon fill="#c0c0c0" stroke="#c0c0c0" stroke-width="2" points="612.6113,-406.567 614.5619,-396.1532 606.543,-403.0776 612.6113,-406.567"/>
</g>
<!-- 18 -->
<g id="node19" class="node">
<title>18</title>
<path fill="none" stroke="#d88556" stroke-width="2" d="M511.5,-324C511.5,-324 452.5,-324 452.5,-324 446.5,-324 440.5,-318 440.5,-312 440.5,-312 440.5,-300 440.5,-300 440.5,-294 446.5,-288 452.5,-288 452.5,-288 511.5,-288 511.5,-288 517.5,-288 523.5,-294 523.5,-300 523.5,-300 523.5,-312 523.5,-312 523.5,-318 517.5,-324 511.5,-324"/>
<text text-anchor="middle" x="482" y="-303.5" font-family="sans" font-size="10.00" fill="#000000">extend_tadpole</text>
</g>
<!-- 3&#45;&gt;18 -->
<g id="edge31" class="edge">
<title>3&#45;&gt;18</title>
<path fill="none" stroke="#c0c0c0" stroke-width="2" d="M532.0556,-431.8721C518.7663,-422.2647 505.5945,-410.1997 497,-396 485.7716,-377.4486 482.2626,-353.0021 481.4279,-334.27"/>
<polygon fill="#c0c0c0" stroke="#c0c0c0" stroke-width="2" points="484.9268,-334.1778 481.2072,-324.2574 477.9285,-334.3322 484.9268,-334.1778"/>
</g>
<!-- 19 -->
<g id="node20" class="node">
<title>19</title>
<path fill="none" stroke="#d6d856" stroke-width="2" d="M548,-396C548,-396 518,-396 518,-396 512,-396 506,-390 506,-384 506,-384 506,-372 506,-372 506,-366 512,-360 518,-360 518,-360 548,-360 548,-360 554,-360 560,-366 560,-372 560,-372 560,-384 560,-384 560,-390 554,-396 548,-396"/>
<text text-anchor="middle" x="533" y="-375.5" font-family="sans" font-size="10.00" fill="#000000">loglog</text>
</g>
<!-- 3&#45;&gt;19 -->
<g id="edge33" class="edge">
<title>3&#45;&gt;19</title>
<path fill="none" stroke="#c0c0c0" stroke-width="2" d="M563.9379,-431.805C559.0119,-423.238 553.5321,-413.7081 548.5695,-405.0774"/>
<polygon fill="#c0c0c0" stroke="#c0c0c0" stroke-width="2" points="551.457,-403.0776 543.4381,-396.1532 545.3887,-406.567 551.457,-403.0776"/>
</g>
<!-- 4 -->
<g id="node5" class="node">
<title>4</title>
<path fill="none" stroke="#d8ac56" stroke-width="2" d="M267,-324C267,-324 197,-324 197,-324 191,-324 185,-318 185,-312 185,-312 185,-300 185,-300 185,-294 191,-288 197,-288 197,-288 267,-288 267,-288 273,-288 279,-294 279,-300 279,-300 279,-312 279,-312 279,-318 273,-324 267,-324"/>
<text text-anchor="middle" x="232" y="-309" font-family="sans" font-size="10.00" fill="#000000">fastqc</text>
<text text-anchor="middle" x="232" y="-298" font-family="sans" font-size="10.00" fill="#000000">tool: merge_lanes</text>
</g>
<!-- 4&#45;&gt;1 -->
<g id="edge6" class="edge">
<title>4&#45;&gt;1</title>
<path fill="none" stroke="#c0c0c0" stroke-width="2" d="M234.4464,-287.7397C240.121,-253.2625 257.6054,-178.9172 306,-144 332.7362,-124.7096 422.4527,-105.9719 473.9036,-96.4612"/>
<polygon fill="#c0c0c0" stroke="#c0c0c0" stroke-width="2" points="474.7486,-99.8649 483.9596,-94.6297 473.4943,-92.9782 474.7486,-99.8649"/>
</g>
<!-- 5 -->
<g id="node6" class="node">
<title>5</title>
<path fill="none" stroke="#80d856" stroke-width="2" d="M263,-484C263,-484 159,-484 159,-484 153,-484 147,-478 147,-472 147,-472 147,-444 147,-444 147,-438 153,-432 159,-432 159,-432 263,-432 263,-432 269,-432 275,-438 275,-444 275,-444 275,-472 275,-472 275,-478 269,-484 263,-484"/>
<text text-anchor="middle" x="211" y="-472" font-family="sans" font-size="10.00" fill="#000000">merge_lanes</text>
<text text-anchor="middle" x="211" y="-461" font-family="sans" font-size="10.00" fill="#000000">library: lib1</text>
<text text-anchor="middle" x="211" y="-450" font-family="sans" font-size="10.00" fill="#000000">read_type_trim: collapsed</text>
<text text-anchor="middle" x="211" y="-439" font-family="sans" font-size="10.00" fill="#000000">sample: HD827sonic_2</text>
</g>
<!-- 5&#45;&gt;4 -->
<g id="edge18" class="edge">
<title>5&#45;&gt;4</title>
<path fill="none" stroke="#c0c0c0" stroke-width="2" d="M214.61,-431.8703C218.3743,-404.6241 224.2538,-362.0678 228.1167,-334.1075"/>
<polygon fill="#c0c0c0" stroke="#c0c0c0" stroke-width="2" points="231.5883,-334.5534 229.4899,-324.1685 224.6541,-333.5953 231.5883,-334.5534"/>
</g>
<!-- 11 -->
<g id="node12" class="node">
<title>11</title>
<path fill="none" stroke="#56d882" stroke-width="2" d="M342,-396C342,-396 272,-396 272,-396 266,-396 260,-390 260,-384 260,-384 260,-372 260,-372 260,-366 266,-360 272,-360 272,-360 342,-360 342,-360 348,-360 354,-366 354,-372 354,-372 354,-384 354,-384 354,-390 348,-396 342,-396"/>
<text text-anchor="middle" x="307" y="-381" font-family="sans" font-size="10.00" fill="#000000">nonpareil_infer</text>
<text text-anchor="middle" x="307" y="-370" font-family="sans" font-size="10.00" fill="#000000">tool: merge_lanes</text>
</g>
<!-- 5&#45;&gt;11 -->
<g id="edge23" class="edge">
<title>5&#45;&gt;11</title>
<path fill="none" stroke="#c0c0c0" stroke-width="2" d="M242.434,-431.805C253.6987,-422.4178 266.3508,-411.8743 277.4503,-402.6247"/>
<polygon fill="#c0c0c0" stroke="#c0c0c0" stroke-width="2" points="279.7745,-405.2439 285.2161,-396.1532 275.2932,-399.8663 279.7745,-405.2439"/>
</g>
<!-- 15 -->
<g id="node16" class="node">
<title>15</title>
<path fill="none" stroke="#d88556" stroke-width="2" d="M154.5,-324C154.5,-324 95.5,-324 95.5,-324 89.5,-324 83.5,-318 83.5,-312 83.5,-312 83.5,-300 83.5,-300 83.5,-294 89.5,-288 95.5,-288 95.5,-288 154.5,-288 154.5,-288 160.5,-288 166.5,-294 166.5,-300 166.5,-300 166.5,-312 166.5,-312 166.5,-318 160.5,-324 154.5,-324"/>
<text text-anchor="middle" x="125" y="-303.5" font-family="sans" font-size="10.00" fill="#000000">extend_tadpole</text>
</g>
<!-- 5&#45;&gt;15 -->
<g id="edge27" class="edge">
<title>5&#45;&gt;15</title>
<path fill="none" stroke="#c0c0c0" stroke-width="2" d="M199.4543,-431.6213C190.344,-411.5513 176.8932,-383.4783 163,-360 157.4831,-350.6769 150.8612,-340.8786 144.7018,-332.2263"/>
<polygon fill="#c0c0c0" stroke="#c0c0c0" stroke-width="2" points="147.4554,-330.0615 138.7546,-324.0161 141.7864,-334.1679 147.4554,-330.0615"/>
</g>
<!-- 16 -->
<g id="node17" class="node">
<title>16</title>
<path fill="none" stroke="#d6d856" stroke-width="2" d="M142,-396C142,-396 112,-396 112,-396 106,-396 100,-390 100,-384 100,-384 100,-372 100,-372 100,-366 106,-360 112,-360 112,-360 142,-360 142,-360 148,-360 154,-366 154,-372 154,-372 154,-384 154,-384 154,-390 148,-396 142,-396"/>
<text text-anchor="middle" x="127" y="-375.5" font-family="sans" font-size="10.00" fill="#000000">loglog</text>
</g>
<!-- 5&#45;&gt;16 -->
<g id="edge29" class="edge">
<title>5&#45;&gt;16</title>
<path fill="none" stroke="#c0c0c0" stroke-width="2" d="M183.4953,-431.805C173.8301,-422.6001 162.9975,-412.2834 153.4232,-403.165"/>
<polygon fill="#c0c0c0" stroke="#c0c0c0" stroke-width="2" points="155.7161,-400.5153 146.0609,-396.1532 150.8885,-405.5843 155.7161,-400.5153"/>
</g>
<!-- 6 -->
<g id="node7" class="node">
<title>6</title>
<path fill="none" stroke="#d8ac56" stroke-width="2" d="M831,-324C831,-324 761,-324 761,-324 755,-324 749,-318 749,-312 749,-312 749,-300 749,-300 749,-294 755,-288 761,-288 761,-288 831,-288 831,-288 837,-288 843,-294 843,-300 843,-300 843,-312 843,-312 843,-318 837,-324 831,-324"/>
<text text-anchor="middle" x="796" y="-309" font-family="sans" font-size="10.00" fill="#000000">fastqc</text>
<text text-anchor="middle" x="796" y="-298" font-family="sans" font-size="10.00" fill="#000000">tool: merge_lanes</text>
</g>
<!-- 6&#45;&gt;1 -->
<g id="edge7" class="edge">
<title>6&#45;&gt;1</title>
<path fill="none" stroke="#c0c0c0" stroke-width="2" d="M800.2472,-287.9588C806.8784,-254.8351 815.4465,-184.0553 779,-144 748.5278,-110.5106 614.616,-96.9452 548.3744,-92.2074"/>
<polygon fill="#c0c0c0" stroke="#c0c0c0" stroke-width="2" points="548.566,-88.7124 538.3502,-91.5211 548.0878,-95.696 548.566,-88.7124"/>
</g>
<!-- 7 -->
<g id="node8" class="node">
<title>7</title>
<path fill="none" stroke="#80d856" stroke-width="2" d="M981,-484C981,-484 877,-484 877,-484 871,-484 865,-478 865,-472 865,-472 865,-444 865,-444 865,-438 871,-432 877,-432 877,-432 981,-432 981,-432 987,-432 993,-438 993,-444 993,-444 993,-472 993,-472 993,-478 987,-484 981,-484"/>
<text text-anchor="middle" x="929" y="-472" font-family="sans" font-size="10.00" fill="#000000">merge_lanes</text>
<text text-anchor="middle" x="929" y="-461" font-family="sans" font-size="10.00" fill="#000000">library: lib1</text>
<text text-anchor="middle" x="929" y="-450" font-family="sans" font-size="10.00" fill="#000000">read_type_trim: collapsed</text>
<text text-anchor="middle" x="929" y="-439" font-family="sans" font-size="10.00" fill="#000000">sample: HD827sonic_1</text>
</g>
<!-- 7&#45;&gt;6 -->
<g id="edge19" class="edge">
<title>7&#45;&gt;6</title>
<path fill="none" stroke="#c0c0c0" stroke-width="2" d="M878.5339,-431.692C863.4201,-422.0086 847.758,-409.9452 836,-396 820.6778,-377.8276 810.2011,-352.8522 803.8257,-333.8209"/>
<polygon fill="#c0c0c0" stroke="#c0c0c0" stroke-width="2" points="807.1378,-332.6861 800.7814,-324.2098 800.4645,-334.7999 807.1378,-332.6861"/>
</g>
<!-- 13 -->
<g id="node14" class="node">
<title>13</title>
<path fill="none" stroke="#56d882" stroke-width="2" d="M927,-396C927,-396 857,-396 857,-396 851,-396 845,-390 845,-384 845,-384 845,-372 845,-372 845,-366 851,-360 857,-360 857,-360 927,-360 927,-360 933,-360 939,-366 939,-372 939,-372 939,-384 939,-384 939,-390 933,-396 927,-396"/>
<text text-anchor="middle" x="892" y="-381" font-family="sans" font-size="10.00" fill="#000000">nonpareil_infer</text>
<text text-anchor="middle" x="892" y="-370" font-family="sans" font-size="10.00" fill="#000000">tool: merge_lanes</text>
</g>
<!-- 7&#45;&gt;13 -->
<g id="edge25" class="edge">
<title>7&#45;&gt;13</title>
<path fill="none" stroke="#c0c0c0" stroke-width="2" d="M916.8848,-431.805C912.9647,-423.3292 908.6087,-413.9107 904.6508,-405.3531"/>
<polygon fill="#c0c0c0" stroke="#c0c0c0" stroke-width="2" points="907.7704,-403.7603 900.3959,-396.1532 901.417,-406.6988 907.7704,-403.7603"/>
</g>
<!-- 21 -->
<g id="node22" class="node">
<title>21</title>
<path fill="none" stroke="#d88556" stroke-width="2" d="M1035.5,-324C1035.5,-324 976.5,-324 976.5,-324 970.5,-324 964.5,-318 964.5,-312 964.5,-312 964.5,-300 964.5,-300 964.5,-294 970.5,-288 976.5,-288 976.5,-288 1035.5,-288 1035.5,-288 1041.5,-288 1047.5,-294 1047.5,-300 1047.5,-300 1047.5,-312 1047.5,-312 1047.5,-318 1041.5,-324 1035.5,-324"/>
<text text-anchor="middle" x="1006" y="-303.5" font-family="sans" font-size="10.00" fill="#000000">extend_tadpole</text>
</g>
<!-- 7&#45;&gt;21 -->
<g id="edge35" class="edge">
<title>7&#45;&gt;21</title>
<path fill="none" stroke="#c0c0c0" stroke-width="2" d="M942.2368,-431.8703C956.1607,-404.3841 977.9777,-361.3168 992.134,-333.3719"/>
<polygon fill="#c0c0c0" stroke="#c0c0c0" stroke-width="2" points="995.3994,-334.6708 996.7962,-324.1685 989.1549,-331.5075 995.3994,-334.6708"/>
</g>
<!-- 22 -->
<g id="node23" class="node">
<title>22</title>
<path fill="none" stroke="#d6d856" stroke-width="2" d="M1037,-396C1037,-396 1007,-396 1007,-396 1001,-396 995,-390 995,-384 995,-384 995,-372 995,-372 995,-366 1001,-360 1007,-360 1007,-360 1037,-360 1037,-360 1043,-360 1049,-366 1049,-372 1049,-372 1049,-384 1049,-384 1049,-390 1043,-396 1037,-396"/>
<text text-anchor="middle" x="1022" y="-375.5" font-family="sans" font-size="10.00" fill="#000000">loglog</text>
</g>
<!-- 7&#45;&gt;22 -->
<g id="edge37" class="edge">
<title>7&#45;&gt;22</title>
<path fill="none" stroke="#c0c0c0" stroke-width="2" d="M959.4517,-431.805C970.2584,-422.5089 982.3832,-412.079 993.0602,-402.8945"/>
<polygon fill="#c0c0c0" stroke="#c0c0c0" stroke-width="2" points="995.5983,-405.328 1000.8969,-396.1532 991.0333,-400.0212 995.5983,-405.328"/>
</g>
<!-- 8 -->
<g id="node9" class="node">
<title>8</title>
<path fill="none" stroke="#56d8a9" stroke-width="2" d="M645.5,-180C645.5,-180 592.5,-180 592.5,-180 586.5,-180 580.5,-174 580.5,-168 580.5,-168 580.5,-156 580.5,-156 580.5,-150 586.5,-144 592.5,-144 592.5,-144 645.5,-144 645.5,-144 651.5,-144 657.5,-150 657.5,-156 657.5,-156 657.5,-168 657.5,-168 657.5,-174 651.5,-180 645.5,-180"/>
<text text-anchor="middle" x="619" y="-159.5" font-family="sans" font-size="10.00" fill="#000000">nonpareil_plot</text>
</g>
<!-- 8&#45;&gt;1 -->
<g id="edge8" class="edge">
<title>8&#45;&gt;1</title>
<path fill="none" stroke="#c0c0c0" stroke-width="2" d="M591.747,-143.8314C578.0611,-134.7074 561.3085,-123.539 546.6173,-113.7449"/>
<polygon fill="#c0c0c0" stroke="#c0c0c0" stroke-width="2" points="548.5062,-110.7977 538.2442,-108.1628 544.6233,-116.6221 548.5062,-110.7977"/>
</g>
<!-- 9&#45;&gt;8 -->
<g id="edge20" class="edge">
<title>9&#45;&gt;8</title>
<path fill="none" stroke="#c0c0c0" stroke-width="2" d="M624.4988,-359.9555C623.4554,-322.3938 621.0432,-235.5541 619.7892,-190.4103"/>
<polygon fill="#c0c0c0" stroke="#c0c0c0" stroke-width="2" points="623.2804,-190.044 619.504,-180.1451 616.2831,-190.2384 623.2804,-190.044"/>
</g>
<!-- 10 -->
<g id="node11" class="node">
<title>10</title>
<path fill="none" stroke="#56d8a9" stroke-width="2" d="M333.5,-252C333.5,-252 280.5,-252 280.5,-252 274.5,-252 268.5,-246 268.5,-240 268.5,-240 268.5,-228 268.5,-228 268.5,-222 274.5,-216 280.5,-216 280.5,-216 333.5,-216 333.5,-216 339.5,-216 345.5,-222 345.5,-228 345.5,-228 345.5,-240 345.5,-240 345.5,-246 339.5,-252 333.5,-252"/>
<text text-anchor="middle" x="307" y="-231.5" font-family="sans" font-size="10.00" fill="#000000">nonpareil_plot</text>
</g>
<!-- 10&#45;&gt;1 -->
<g id="edge9" class="edge">
<title>10&#45;&gt;1</title>
<path fill="none" stroke="#c0c0c0" stroke-width="2" d="M305.9478,-215.6454C305.8287,-195.4864 308.8498,-163.4048 327,-144 346.9688,-122.6508 426.1286,-105.1807 473.8731,-96.3143"/>
<polygon fill="#c0c0c0" stroke="#c0c0c0" stroke-width="2" points="474.6265,-99.7348 483.8397,-94.5034 473.3751,-92.8476 474.6265,-99.7348"/>
</g>
<!-- 11&#45;&gt;10 -->
<g id="edge22" class="edge">
<title>11&#45;&gt;10</title>
<path fill="none" stroke="#c0c0c0" stroke-width="2" d="M307,-359.7623C307,-335.201 307,-291.2474 307,-262.3541"/>
<polygon fill="#c0c0c0" stroke="#c0c0c0" stroke-width="2" points="310.5001,-262.0896 307,-252.0896 303.5001,-262.0897 310.5001,-262.0896"/>
</g>
<!-- 12 -->
<g id="node13" class="node">
<title>12</title>
<path fill="none" stroke="#56d8a9" stroke-width="2" d="M926.5,-324C926.5,-324 873.5,-324 873.5,-324 867.5,-324 861.5,-318 861.5,-312 861.5,-312 861.5,-300 861.5,-300 861.5,-294 867.5,-288 873.5,-288 873.5,-288 926.5,-288 926.5,-288 932.5,-288 938.5,-294 938.5,-300 938.5,-300 938.5,-312 938.5,-312 938.5,-318 932.5,-324 926.5,-324"/>
<text text-anchor="middle" x="900" y="-303.5" font-family="sans" font-size="10.00" fill="#000000">nonpareil_plot</text>
</g>
<!-- 12&#45;&gt;1 -->
<g id="edge10" class="edge">
<title>12&#45;&gt;1</title>
<path fill="none" stroke="#c0c0c0" stroke-width="2" d="M883.0144,-287.8604C874.0508,-277.7612 863.2355,-264.695 855,-252 825.9007,-207.1436 844.5966,-176.3171 802,-144 762.5766,-114.0903 617.7437,-98.6192 548.4371,-92.7914"/>
<polygon fill="#c0c0c0" stroke="#c0c0c0" stroke-width="2" points="548.6372,-89.2962 538.3852,-91.9695 548.0667,-96.2729 548.6372,-89.2962"/>
</g>
<!-- 13&#45;&gt;12 -->
<g id="edge24" class="edge">
<title>13&#45;&gt;12</title>
<path fill="none" stroke="#c0c0c0" stroke-width="2" d="M894.0187,-359.8314C894.8743,-352.131 895.8917,-342.9743 896.8426,-334.4166"/>
<polygon fill="#c0c0c0" stroke="#c0c0c0" stroke-width="2" points="900.3283,-334.7386 897.9541,-324.4133 893.3711,-333.9656 900.3283,-334.7386"/>
</g>
<!-- 14 -->
<g id="node15" class="node">
<title>14</title>
<path fill="none" stroke="#d8ac56" stroke-width="2" d="M192,-252C192,-252 114,-252 114,-252 108,-252 102,-246 102,-240 102,-240 102,-228 102,-228 102,-222 108,-216 114,-216 114,-216 192,-216 192,-216 198,-216 204,-222 204,-228 204,-228 204,-240 204,-240 204,-246 198,-252 192,-252"/>
<text text-anchor="middle" x="153" y="-237" font-family="sans" font-size="10.00" fill="#000000">fastqc</text>
<text text-anchor="middle" x="153" y="-226" font-family="sans" font-size="10.00" fill="#000000">tool: extend/tadpole</text>
</g>
<!-- 14&#45;&gt;1 -->
<g id="edge11" class="edge">
<title>14&#45;&gt;1</title>
<path fill="none" stroke="#c0c0c0" stroke-width="2" d="M160.8795,-215.9127C170.9594,-195.0536 190.468,-161.4066 218,-144 260.1049,-117.3799 404.7164,-100.2483 473.749,-93.3965"/>
<polygon fill="#c0c0c0" stroke="#c0c0c0" stroke-width="2" points="474.1446,-96.8746 483.7586,-92.4226 473.4667,-89.9075 474.1446,-96.8746"/>
</g>
<!-- 15&#45;&gt;14 -->
<g id="edge26" class="edge">
<title>15&#45;&gt;14</title>
<path fill="none" stroke="#c0c0c0" stroke-width="2" d="M132.0656,-287.8314C135.126,-279.9617 138.7779,-270.5712 142.1682,-261.8533"/>
<polygon fill="#c0c0c0" stroke="#c0c0c0" stroke-width="2" points="145.4768,-263.0019 145.8393,-252.4133 138.9527,-260.4647 145.4768,-263.0019"/>
</g>
<!-- 26 -->
<g id="node27" class="node">
<title>26</title>
<path fill="none" stroke="#afd856" stroke-width="2" d="M72,-252C72,-252 12,-252 12,-252 6,-252 0,-246 0,-240 0,-240 0,-228 0,-228 0,-222 6,-216 12,-216 12,-216 72,-216 72,-216 78,-216 84,-222 84,-228 84,-228 84,-240 84,-240 84,-246 78,-252 72,-252"/>
<text text-anchor="middle" x="42" y="-231.5" font-family="sans" font-size="10.00" fill="#000000">low_complexity</text>
</g>
<!-- 15&#45;&gt;26 -->
<g id="edge41" class="edge">
<title>15&#45;&gt;26</title>
<path fill="none" stroke="#c0c0c0" stroke-width="2" d="M104.0556,-287.8314C93.9309,-279.0485 81.6223,-268.3712 70.6452,-258.8489"/>
<polygon fill="#c0c0c0" stroke="#c0c0c0" stroke-width="2" points="72.7851,-256.0718 62.9377,-252.1628 68.1981,-261.3595 72.7851,-256.0718"/>
</g>
<!-- 16&#45;&gt;15 -->
<g id="edge28" class="edge">
<title>16&#45;&gt;15</title>
<path fill="none" stroke="#c0c0c0" stroke-width="2" d="M126.4953,-359.8314C126.2814,-352.131 126.0271,-342.9743 125.7894,-334.4166"/>
<polygon fill="#c0c0c0" stroke="#c0c0c0" stroke-width="2" points="129.2879,-334.3122 125.5115,-324.4133 122.2906,-334.5066 129.2879,-334.3122"/>
</g>
<!-- 17 -->
<g id="node18" class="node">
<title>17</title>
<path fill="none" stroke="#d8ac56" stroke-width="2" d="M550,-180C550,-180 472,-180 472,-180 466,-180 460,-174 460,-168 460,-168 460,-156 460,-156 460,-150 466,-144 472,-144 472,-144 550,-144 550,-144 556,-144 562,-150 562,-156 562,-156 562,-168 562,-168 562,-174 556,-180 550,-180"/>
<text text-anchor="middle" x="511" y="-165" font-family="sans" font-size="10.00" fill="#000000">fastqc</text>
<text text-anchor="middle" x="511" y="-154" font-family="sans" font-size="10.00" fill="#000000">tool: extend/tadpole</text>
</g>
<!-- 17&#45;&gt;1 -->
<g id="edge12" class="edge">
<title>17&#45;&gt;1</title>
<path fill="none" stroke="#c0c0c0" stroke-width="2" d="M511,-143.8314C511,-136.131 511,-126.9743 511,-118.4166"/>
<polygon fill="#c0c0c0" stroke="#c0c0c0" stroke-width="2" points="514.5001,-118.4132 511,-108.4133 507.5001,-118.4133 514.5001,-118.4132"/>
</g>
<!-- 18&#45;&gt;17 -->
<g id="edge30" class="edge">
<title>18&#45;&gt;17</title>
<path fill="none" stroke="#c0c0c0" stroke-width="2" d="M485.6729,-287.7623C490.641,-263.0928 499.5491,-218.8598 505.3665,-189.9731"/>
<polygon fill="#c0c0c0" stroke="#c0c0c0" stroke-width="2" points="508.8137,-190.5838 507.357,-180.0896 501.9515,-189.2018 508.8137,-190.5838"/>
</g>
<!-- 24 -->
<g id="node25" class="node">
<title>24</title>
<path fill="none" stroke="#afd856" stroke-width="2" d="M436,-252C436,-252 376,-252 376,-252 370,-252 364,-246 364,-240 364,-240 364,-228 364,-228 364,-222 370,-216 376,-216 376,-216 436,-216 436,-216 442,-216 448,-222 448,-228 448,-228 448,-240 448,-240 448,-246 442,-252 436,-252"/>
<text text-anchor="middle" x="406" y="-231.5" font-family="sans" font-size="10.00" fill="#000000">low_complexity</text>
</g>
<!-- 18&#45;&gt;24 -->
<g id="edge39" class="edge">
<title>18&#45;&gt;24</title>
<path fill="none" stroke="#c0c0c0" stroke-width="2" d="M462.822,-287.8314C453.6412,-279.1337 442.4994,-268.5783 432.5224,-259.1265"/>
<polygon fill="#c0c0c0" stroke="#c0c0c0" stroke-width="2" points="434.8385,-256.4995 425.1719,-252.1628 430.0243,-261.5811 434.8385,-256.4995"/>
</g>
<!-- 19&#45;&gt;18 -->
<g id="edge32" class="edge">
<title>19&#45;&gt;18</title>
<path fill="none" stroke="#c0c0c0" stroke-width="2" d="M520.1305,-359.8314C514.3165,-351.6232 507.3304,-341.7606 500.9354,-332.7323"/>
<polygon fill="#c0c0c0" stroke="#c0c0c0" stroke-width="2" points="503.679,-330.5505 495.0427,-324.4133 497.9669,-334.5966 503.679,-330.5505"/>
</g>
<!-- 20 -->
<g id="node21" class="node">
<title>20</title>
<path fill="none" stroke="#d8ac56" stroke-width="2" d="M954,-252C954,-252 876,-252 876,-252 870,-252 864,-246 864,-240 864,-240 864,-228 864,-228 864,-222 870,-216 876,-216 876,-216 954,-216 954,-216 960,-216 966,-222 966,-228 966,-228 966,-240 966,-240 966,-246 960,-252 954,-252"/>
<text text-anchor="middle" x="915" y="-237" font-family="sans" font-size="10.00" fill="#000000">fastqc</text>
<text text-anchor="middle" x="915" y="-226" font-family="sans" font-size="10.00" fill="#000000">tool: extend/tadpole</text>
</g>
<!-- 20&#45;&gt;1 -->
<g id="edge13" class="edge">
<title>20&#45;&gt;1</title>
<path fill="none" stroke="#c0c0c0" stroke-width="2" d="M907.1931,-215.7964C897.1829,-194.8255 877.7413,-161.071 850,-144 799.9485,-113.2002 625.8123,-97.8068 548.4891,-92.3618"/>
<polygon fill="#c0c0c0" stroke="#c0c0c0" stroke-width="2" points="548.4601,-88.8517 538.244,-91.659 547.9809,-95.8353 548.4601,-88.8517"/>
</g>
<!-- 21&#45;&gt;20 -->
<g id="edge34" class="edge">
<title>21&#45;&gt;20</title>
<path fill="none" stroke="#c0c0c0" stroke-width="2" d="M983.0369,-287.8314C971.8285,-278.9632 958.1791,-268.1637 946.0561,-258.5718"/>
<polygon fill="#c0c0c0" stroke="#c0c0c0" stroke-width="2" points="947.9697,-255.6229 937.9558,-252.1628 943.6263,-261.1125 947.9697,-255.6229"/>
</g>
<!-- 28 -->
<g id="node29" class="node">
<title>28</title>
<path fill="none" stroke="#afd856" stroke-width="2" d="M1056,-252C1056,-252 996,-252 996,-252 990,-252 984,-246 984,-240 984,-240 984,-228 984,-228 984,-222 990,-216 996,-216 996,-216 1056,-216 1056,-216 1062,-216 1068,-222 1068,-228 1068,-228 1068,-240 1068,-240 1068,-246 1062,-252 1056,-252"/>
<text text-anchor="middle" x="1026" y="-231.5" font-family="sans" font-size="10.00" fill="#000000">low_complexity</text>
</g>
<!-- 21&#45;&gt;28 -->
<g id="edge43" class="edge">
<title>21&#45;&gt;28</title>
<path fill="none" stroke="#c0c0c0" stroke-width="2" d="M1011.0468,-287.8314C1013.2094,-280.0463 1015.7853,-270.7729 1018.1848,-262.1347"/>
<polygon fill="#c0c0c0" stroke="#c0c0c0" stroke-width="2" points="1021.581,-262.9852 1020.8852,-252.4133 1014.8364,-261.1117 1021.581,-262.9852"/>
</g>
<!-- 22&#45;&gt;21 -->
<g id="edge36" class="edge">
<title>22&#45;&gt;21</title>
<path fill="none" stroke="#c0c0c0" stroke-width="2" d="M1017.9625,-359.8314C1016.2513,-352.131 1014.2165,-342.9743 1012.3148,-334.4166"/>
<polygon fill="#c0c0c0" stroke="#c0c0c0" stroke-width="2" points="1015.6779,-333.4159 1010.0918,-324.4133 1008.8446,-334.9344 1015.6779,-333.4159"/>
</g>
<!-- 23 -->
<g id="node24" class="node">
<title>23</title>
<path fill="none" stroke="#d8ac56" stroke-width="2" d="M430,-180C430,-180 348,-180 348,-180 342,-180 336,-174 336,-168 336,-168 336,-156 336,-156 336,-150 342,-144 348,-144 348,-144 430,-144 430,-144 436,-144 442,-150 442,-156 442,-156 442,-168 442,-168 442,-174 436,-180 430,-180"/>
<text text-anchor="middle" x="389" y="-165" font-family="sans" font-size="10.00" fill="#000000">fastqc</text>
<text text-anchor="middle" x="389" y="-154" font-family="sans" font-size="10.00" fill="#000000">tool: low_complexity</text>
</g>
<!-- 23&#45;&gt;1 -->
<g id="edge14" class="edge">
<title>23&#45;&gt;1</title>
<path fill="none" stroke="#c0c0c0" stroke-width="2" d="M419.7858,-143.8314C436.6168,-133.8983 457.5535,-121.5422 475.1217,-111.1741"/>
<polygon fill="#c0c0c0" stroke="#c0c0c0" stroke-width="2" points="477.1289,-114.0536 483.9621,-105.9568 473.5711,-108.0251 477.1289,-114.0536"/>
</g>
<!-- 24&#45;&gt;0 -->
<g id="edge4" class="edge">
<title>24&#45;&gt;0</title>
<path fill="none" stroke="#c0c0c0" stroke-width="2" d="M364.466,-215.9032C349.8947,-207.2837 335.1417,-195.4273 327,-180 302.7192,-133.9919 339.7084,-76.4856 366.4596,-43.8302"/>
<polygon fill="#c0c0c0" stroke="#c0c0c0" stroke-width="2" points="369.2211,-45.9848 372.9966,-36.0855 363.8718,-41.4697 369.2211,-45.9848"/>
</g>
<!-- 24&#45;&gt;23 -->
<g id="edge38" class="edge">
<title>24&#45;&gt;23</title>
<path fill="none" stroke="#c0c0c0" stroke-width="2" d="M401.7102,-215.8314C399.892,-208.131 397.7301,-198.9743 395.7095,-190.4166"/>
<polygon fill="#c0c0c0" stroke="#c0c0c0" stroke-width="2" points="399.0519,-189.3414 393.3476,-180.4133 392.2392,-190.95 399.0519,-189.3414"/>
</g>
<!-- 25 -->
<g id="node26" class="node">
<title>25</title>
<path fill="none" stroke="#d8ac56" stroke-width="2" d="M154,-180C154,-180 72,-180 72,-180 66,-180 60,-174 60,-168 60,-168 60,-156 60,-156 60,-150 66,-144 72,-144 72,-144 154,-144 154,-144 160,-144 166,-150 166,-156 166,-156 166,-168 166,-168 166,-174 160,-180 154,-180"/>
<text text-anchor="middle" x="113" y="-165" font-family="sans" font-size="10.00" fill="#000000">fastqc</text>
<text text-anchor="middle" x="113" y="-154" font-family="sans" font-size="10.00" fill="#000000">tool: low_complexity</text>
</g>
<!-- 25&#45;&gt;1 -->
<g id="edge15" class="edge">
<title>25&#45;&gt;1</title>
<path fill="none" stroke="#c0c0c0" stroke-width="2" d="M166.2757,-147.168C170.9034,-146.0375 175.5257,-144.9634 180,-144 285.7318,-121.2331 412.2959,-103.0748 473.7929,-94.8237"/>
<polygon fill="#c0c0c0" stroke="#c0c0c0" stroke-width="2" points="474.3453,-98.2811 483.796,-93.4922 473.4216,-91.3423 474.3453,-98.2811"/>
</g>
<!-- 26&#45;&gt;0 -->
<g id="edge3" class="edge">
<title>26&#45;&gt;0</title>
<path fill="none" stroke="#c0c0c0" stroke-width="2" d="M38.6022,-215.7436C36.0067,-195.9701 35.1695,-164.5113 51,-144 89.1826,-94.5274 272.9585,-45.8084 352.8177,-26.5842"/>
<polygon fill="#c0c0c0" stroke="#c0c0c0" stroke-width="2" points="354.0071,-29.8989 362.9232,-24.1758 352.3842,-23.0896 354.0071,-29.8989"/>
</g>
<!-- 26&#45;&gt;25 -->
<g id="edge40" class="edge">
<title>26&#45;&gt;25</title>
<path fill="none" stroke="#c0c0c0" stroke-width="2" d="M59.9163,-215.8314C68.3442,-207.2848 78.541,-196.9443 87.736,-187.6198"/>
<polygon fill="#c0c0c0" stroke="#c0c0c0" stroke-width="2" points="90.3131,-189.9912 94.8425,-180.4133 85.3289,-185.0761 90.3131,-189.9912"/>
</g>
<!-- 27 -->
<g id="node28" class="node">
<title>27</title>
<path fill="none" stroke="#d8ac56" stroke-width="2" d="M996,-180C996,-180 914,-180 914,-180 908,-180 902,-174 902,-168 902,-168 902,-156 902,-156 902,-150 908,-144 914,-144 914,-144 996,-144 996,-144 1002,-144 1008,-150 1008,-156 1008,-156 1008,-168 1008,-168 1008,-174 1002,-180 996,-180"/>
<text text-anchor="middle" x="955" y="-165" font-family="sans" font-size="10.00" fill="#000000">fastqc</text>
<text text-anchor="middle" x="955" y="-154" font-family="sans" font-size="10.00" fill="#000000">tool: low_complexity</text>
</g>
<!-- 27&#45;&gt;1 -->
<g id="edge16" class="edge">
<title>27&#45;&gt;1</title>
<path fill="none" stroke="#c0c0c0" stroke-width="2" d="M901.7442,-147.0733C897.1122,-145.9633 892.4835,-144.9199 888,-144 764.7305,-118.7085 616.3817,-101.1767 548.3729,-93.8454"/>
<polygon fill="#c0c0c0" stroke="#c0c0c0" stroke-width="2" points="548.4786,-90.3369 538.1638,-92.7567 547.7363,-97.2974 548.4786,-90.3369"/>
</g>
<!-- 28&#45;&gt;0 -->
<g id="edge2" class="edge">
<title>28&#45;&gt;0</title>
<path fill="none" stroke="#c0c0c0" stroke-width="2" d="M1029.8769,-215.9769C1033.0719,-195.813 1034.6063,-163.4348 1017,-144 936.9616,-55.6494 550.0183,-26.8628 427.3721,-19.8789"/>
<polygon fill="#c0c0c0" stroke="#c0c0c0" stroke-width="2" points="427.5143,-16.3815 417.336,-19.3228 427.127,-23.3707 427.5143,-16.3815"/>
</g>
<!-- 28&#45;&gt;27 -->
<g id="edge42" class="edge">
<title>28&#45;&gt;27</title>
<path fill="none" stroke="#c0c0c0" stroke-width="2" d="M1008.0837,-215.8314C999.6558,-207.2848 989.459,-196.9443 980.264,-187.6198"/>
<polygon fill="#c0c0c0" stroke="#c0c0c0" stroke-width="2" points="982.6711,-185.0761 973.1575,-180.4133 977.6869,-189.9912 982.6711,-185.0761"/>
</g>
</g>
</svg>
