<?xml version="1.0" encoding="UTF-8" standalone="no"?>
<!DOCTYPE svg PUBLIC "-//W3C//DTD SVG 1.1//EN"
 "http://www.w3.org/Graphics/SVG/1.1/DTD/svg11.dtd">
<!-- Generated by graphviz version 2.40.1 (0)
 -->
<!-- Title: snakemake_dag Pages: 1 -->
<svg width="1112pt" height="1414pt"
 viewBox="0.00 0.00 1112.00 1414.00" xmlns="http://www.w3.org/2000/svg" xmlns:xlink="http://www.w3.org/1999/xlink">
<g id="graph0" class="graph" transform="scale(1 1) rotate(0) translate(4 1410)">
<title>snakemake_dag</title>
<polygon fill="#ffffff" stroke="transparent" points="-4,4 -4,-1410 1108,-1410 1108,4 -4,4"/>
<!-- 0 -->
<g id="node1" class="node">
<title>0</title>
<text text-anchor="start" x="790.5" y="-125.6" font-family="sans" font-weight="bold" font-size="18.00" fill="#000000">all</text>
<text text-anchor="start" x="605.5" y="-101.8" font-family="sans" font-size="10.00" fill="#000000"> </text>
<text text-anchor="start" x="609.5" y="-101.8" font-family="sans" font-weight="bold" font-size="14.00" fill="#000000">↪ input</text>
<text text-anchor="start" x="662.5" y="-101.8" font-family="sans" font-size="10.00" fill="#000000"> </text>
<text text-anchor="start" x="605.5" y="-82" font-family="monospace" font-size="10.00" fill="#000000">reports/multiqc.html</text>
<text text-anchor="start" x="605.5" y="-64" font-family="monospace" font-size="10.00" fill="#000000">results/reads/low_complexity/HD827sonic_1_lib1_collapsed.fastq.gz</text>
<text text-anchor="start" x="605.5" y="-46" font-family="monospace" font-size="10.00" fill="#000000">results/reads/low_complexity/HD827sonic_2_lib1_collapsed.fastq.gz</text>
<text text-anchor="start" x="605.5" y="-28" font-family="monospace" font-size="10.00" fill="#000000">results/reads/low_complexity/HD827sonic_2_lib2_collapsed.fastq.gz</text>
<text text-anchor="start" x="989.5" y="-10" font-family="sans" font-size="10.00" fill="#000000"> &#160;</text>
<polygon fill="#d95757" stroke="#d95757" points="599.5,-116 599.5,-116 1003.5,-116 1003.5,-116 599.5,-116"/>
<polygon fill="#d95757" stroke="#d95757" points="599.5,-22 599.5,-22 1003.5,-22 1003.5,-22 599.5,-22"/>
<polygon fill="none" stroke="#d95757" stroke-width="2" points="599,-1 599,-145 1002,-145 1002,-1 599,-1"/>
</g>
<!-- 1 -->
<g id="node2" class="node">
<title>1</title>
<text text-anchor="start" x="548.5" y="-491.6" font-family="sans" font-weight="bold" font-size="18.00" fill="#000000">multiqc</text>
<text text-anchor="start" x="364.5" y="-467.8" font-family="sans" font-size="10.00" fill="#000000"> </text>
<text text-anchor="start" x="368.5" y="-467.8" font-family="sans" font-weight="bold" font-size="14.00" fill="#000000">↪ input</text>
<text text-anchor="start" x="421.5" y="-467.8" font-family="sans" font-size="10.00" fill="#000000"> </text>
<text text-anchor="start" x="364.5" y="-448" font-family="monospace" font-size="10.00" fill="#000000">stats/reads/fastqc/extend/tadpole/HD827sonic_1_lib1_collapsed_fastqc.zip</text>
<text text-anchor="start" x="364.5" y="-430" font-family="monospace" font-size="10.00" fill="#000000">stats/reads/fastqc/extend/tadpole/HD827sonic_2_lib1_collapsed_fastqc.zip</text>
<text text-anchor="start" x="364.5" y="-412" font-family="monospace" font-size="10.00" fill="#000000">stats/reads/fastqc/extend/tadpole/HD827sonic_2_lib2_collapsed_fastqc.zip</text>
<text text-anchor="start" x="364.5" y="-394" font-family="monospace" font-size="10.00" fill="#000000">stats/reads/fastqc/low_complexity/HD827sonic_1_lib1_collapsed_fastqc.zip</text>
<text text-anchor="start" x="364.5" y="-376" font-family="monospace" font-size="10.00" fill="#000000">stats/reads/fastqc/low_complexity/HD827sonic_2_lib1_collapsed_fastqc.zip</text>
<text text-anchor="start" x="364.5" y="-358" font-family="monospace" font-size="10.00" fill="#000000">stats/reads/fastqc/low_complexity/HD827sonic_2_lib2_collapsed_fastqc.zip</text>
<text text-anchor="start" x="364.5" y="-340" font-family="monospace" font-size="10.00" fill="#000000">stats/reads/fastqc/merge_lanes/HD827sonic_1_lib1_collapsed_fastqc.zip</text>
<text text-anchor="start" x="364.5" y="-322" font-family="monospace" font-size="10.00" fill="#000000">stats/reads/fastqc/merge_lanes/HD827sonic_2_lib1_collapsed_fastqc.zip</text>
<text text-anchor="start" x="364.5" y="-304" font-family="monospace" font-size="10.00" fill="#000000">stats/reads/fastqc/merge_lanes/HD827sonic_2_lib2_collapsed_fastqc.zip</text>
<text text-anchor="start" x="364.5" y="-286" font-family="monospace" font-size="10.00" fill="#000000">stats/reads/nonpareil/merge_lanes/HD827sonic_1_lib1_collapsed.json</text>
<text text-anchor="start" x="364.5" y="-268" font-family="monospace" font-size="10.00" fill="#000000">stats/reads/nonpareil/merge_lanes/HD827sonic_2_lib1_collapsed.json</text>
<text text-anchor="start" x="364.5" y="-250" font-family="monospace" font-size="10.00" fill="#000000">stats/reads/nonpareil/merge_lanes/HD827sonic_2_lib2_collapsed.json</text>
<text text-anchor="start" x="728.5" y="-229.8" font-family="sans" font-size="10.00" fill="#000000"> </text>
<text text-anchor="start" x="732.5" y="-229.8" font-family="sans" font-weight="bold" font-size="14.00" fill="#000000">output →</text>
<text text-anchor="start" x="793.5" y="-229.8" font-family="sans" font-size="10.00" fill="#000000"> </text>
<text text-anchor="start" x="364.5" y="-210" font-family="monospace" font-size="10.00" fill="#000000">reports/multiqc.html</text>
<text text-anchor="start" x="364.5" y="-192" font-family="monospace" font-size="10.00" fill="#000000">reports/multiqc_data.zip</text>
<polygon fill="#57d957" stroke="#57d957" points="358.5,-482 358.5,-482 804.5,-482 804.5,-482 358.5,-482"/>
<polygon fill="#57d957" stroke="#57d957" points="358.5,-244 358.5,-244 804.5,-244 804.5,-244 358.5,-244"/>
<polygon fill="none" stroke="#57d957" stroke-width="2" points="358,-183 358,-511 803,-511 803,-183 358,-183"/>
</g>
<!-- 1&#45;&gt;0 -->
<g id="edge1" class="edge">
<title>1&#45;&gt;0</title>
<path fill="none" stroke="#c0c0c0" stroke-width="2" d="M713.2342,-181.6856C720.8073,-172.2537 728.23,-163.009 735.3502,-154.1411"/>
<polygon fill="#c0c0c0" stroke="#c0c0c0" stroke-width="2" points="738.2681,-156.0974 741.7998,-146.1085 732.8097,-151.7148 738.2681,-156.0974"/>
</g>
<!-- 2 -->
<g id="node3" class="node">
<title>2</title>
<text text-anchor="start" x="554.5" y="-659.6" font-family="sans" font-weight="bold" font-size="18.00" fill="#000000">fastqc</text>
<text text-anchor="start" x="175.5" y="-635.8" font-family="sans" font-size="10.00" fill="#000000"> </text>
<text text-anchor="start" x="179.5" y="-635.8" font-family="sans" font-weight="bold" font-size="14.00" fill="#000000">↪ input</text>
<text text-anchor="start" x="232.5" y="-635.8" font-family="sans" font-size="10.00" fill="#000000"> </text>
<text text-anchor="start" x="175.5" y="-616" font-family="monospace" font-size="10.00" fill="#000000">&lt;input function&gt;</text>
<text text-anchor="start" x="917.5" y="-595.8" font-family="sans" font-size="10.00" fill="#000000"> </text>
<text text-anchor="start" x="921.5" y="-595.8" font-family="sans" font-weight="bold" font-size="14.00" fill="#000000">output →</text>
<text text-anchor="start" x="982.5" y="-595.8" font-family="sans" font-size="10.00" fill="#000000"> </text>
<text text-anchor="start" x="175.5" y="-576" font-family="monospace" font-size="10.00" fill="#000000">stats/reads/fastqc/{tool,merge_lanes|extend/tadpole|derep|represent/grep|low_complexity}/{sample}_{library}_{read_type_trim}.html</text>
<text text-anchor="start" x="175.5" y="-558" font-family="monospace" font-size="10.00" fill="#000000">stats/reads/fastqc/{tool,merge_lanes|extend/tadpole|derep|represent/grep|low_complexity}/{sample}_{library}_{read_type_trim}_fastqc.zip</text>
<polygon fill="#d9ad57" stroke="#d9ad57" points="169.5,-650 169.5,-650 993.5,-650 993.5,-650 169.5,-650"/>
<polygon fill="#d9ad57" stroke="#d9ad57" points="169.5,-610 169.5,-610 993.5,-610 993.5,-610 169.5,-610"/>
<polygon fill="none" stroke="#d9ad57" stroke-width="2" points="169,-549 169,-679 992,-679 992,-549 169,-549"/>
</g>
<!-- 2&#45;&gt;1 -->
<g id="edge4" class="edge">
<title>2&#45;&gt;1</title>
<path fill="none" stroke="#c0c0c0" stroke-width="2" d="M580.5,-548C580.5,-539.8093 580.5,-531.1587 580.5,-522.2312"/>
<polygon fill="#c0c0c0" stroke="#c0c0c0" stroke-width="2" points="584.0001,-522.0439 580.5,-512.044 577.0001,-522.044 584.0001,-522.0439"/>
</g>
<!-- 3 -->
<g id="node4" class="node">
<title>3</title>
<text text-anchor="start" x="564.5" y="-1385.6" font-family="sans" font-weight="bold" font-size="18.00" fill="#000000">merge_lanes</text>
<text text-anchor="start" x="417.5" y="-1361.8" font-family="sans" font-size="10.00" fill="#000000"> </text>
<text text-anchor="start" x="421.5" y="-1361.8" font-family="sans" font-weight="bold" font-size="14.00" fill="#000000">↪ input</text>
<text text-anchor="start" x="474.5" y="-1361.8" font-family="sans" font-size="10.00" fill="#000000"> </text>
<text text-anchor="start" x="417.5" y="-1342" font-family="monospace" font-size="10.00" fill="#000000">&lt;input function&gt;</text>
<text text-anchor="start" x="751.5" y="-1321.8" font-family="sans" font-size="10.00" fill="#000000"> </text>
<text text-anchor="start" x="755.5" y="-1321.8" font-family="sans" font-weight="bold" font-size="14.00" fill="#000000">output →</text>
<text text-anchor="start" x="816.5" y="-1321.8" font-family="sans" font-size="10.00" fill="#000000"> </text>
<text text-anchor="start" x="417.5" y="-1302" font-family="monospace" font-size="10.00" fill="#000000">temp/reads/merge_lanes/{sample}_{library}_{read_type_trim}.fastq.gz</text>
<polygon fill="#82d957" stroke="#82d957" points="411.5,-1376 411.5,-1376 827.5,-1376 827.5,-1376 411.5,-1376"/>
<polygon fill="#82d957" stroke="#82d957" points="411.5,-1336 411.5,-1336 827.5,-1336 827.5,-1336 411.5,-1336"/>
<polygon fill="none" stroke="#82d957" stroke-width="2" points="411,-1293 411,-1405 826,-1405 826,-1293 411,-1293"/>
</g>
<!-- 3&#45;&gt;2 -->
<g id="edge6" class="edge">
<title>3&#45;&gt;2</title>
<path fill="none" stroke="#c0c0c0" stroke-width="2" d="M544.1336,-1291.9388C534.529,-1281.108 526.1016,-1269.0382 520.5,-1256 438.4577,-1065.0393 506.9761,-813.385 550.8208,-689.5148"/>
<polygon fill="#c0c0c0" stroke="#c0c0c0" stroke-width="2" points="554.117,-690.6916 554.1942,-680.097 547.527,-688.331 554.117,-690.6916"/>
</g>
<!-- 5 -->
<g id="node6" class="node">
<title>5</title>
<text text-anchor="start" x="194.5" y="-1235.6" font-family="sans" font-weight="bold" font-size="18.00" fill="#000000">nonpareil_infer</text>
<text text-anchor="start" x="55.5" y="-1211.8" font-family="sans" font-size="10.00" fill="#000000"> </text>
<text text-anchor="start" x="59.5" y="-1211.8" font-family="sans" font-weight="bold" font-size="14.00" fill="#000000">↪ input</text>
<text text-anchor="start" x="112.5" y="-1211.8" font-family="sans" font-size="10.00" fill="#000000"> </text>
<text text-anchor="start" x="55.5" y="-1192" font-family="monospace" font-size="10.00" fill="#000000">&lt;input function&gt;</text>
<text text-anchor="start" x="395.5" y="-1171.8" font-family="sans" font-size="10.00" fill="#000000"> </text>
<text text-anchor="start" x="399.5" y="-1171.8" font-family="sans" font-weight="bold" font-size="14.00" fill="#000000">output →</text>
<text text-anchor="start" x="460.5" y="-1171.8" font-family="sans" font-size="10.00" fill="#000000"> </text>
<text text-anchor="start" x="55.5" y="-1152" font-family="monospace" font-size="10.00" fill="#000000">stats/reads/nonpareil/{tool}/{sample}_{library}_{read_type_trim}.log</text>
<text text-anchor="start" x="55.5" y="-1134" font-family="monospace" font-size="10.00" fill="#000000">stats/reads/nonpareil/{tool}/{sample}_{library}_{read_type_trim}.npa</text>
<text text-anchor="start" x="55.5" y="-1116" font-family="monospace" font-size="10.00" fill="#000000">stats/reads/nonpareil/{tool}/{sample}_{library}_{read_type_trim}.npc</text>
<text text-anchor="start" x="55.5" y="-1098" font-family="monospace" font-size="10.00" fill="#000000">stats/reads/nonpareil/{tool}/{sample}_{library}_{read_type_trim}.npo</text>
<polygon fill="#57d982" stroke="#57d982" points="49.5,-1226 49.5,-1226 471.5,-1226 471.5,-1226 49.5,-1226"/>
<polygon fill="#57d982" stroke="#57d982" points="49.5,-1186 49.5,-1186 471.5,-1186 471.5,-1186 49.5,-1186"/>
<polygon fill="none" stroke="#57d982" stroke-width="2" points="49,-1089 49,-1255 470,-1255 470,-1089 49,-1089"/>
</g>
<!-- 3&#45;&gt;5 -->
<g id="edge9" class="edge">
<title>3&#45;&gt;5</title>
<path fill="none" stroke="#c0c0c0" stroke-width="2" d="M502.4388,-1291.7776C482.1835,-1281.791 460.6914,-1271.1946 439.1955,-1260.5964"/>
<polygon fill="#c0c0c0" stroke="#c0c0c0" stroke-width="2" points="440.5033,-1257.3389 429.9864,-1256.056 437.4078,-1263.6173 440.5033,-1257.3389"/>
</g>
<!-- 6 -->
<g id="node7" class="node">
<title>6</title>
<text text-anchor="start" x="754" y="-1031.6" font-family="sans" font-weight="bold" font-size="18.00" fill="#000000">extend_tadpole</text>
<text text-anchor="start" x="609.5" y="-1007.8" font-family="sans" font-size="10.00" fill="#000000"> </text>
<text text-anchor="start" x="613.5" y="-1007.8" font-family="sans" font-weight="bold" font-size="14.00" fill="#000000">↪ input</text>
<text text-anchor="start" x="666.5" y="-1007.8" font-family="sans" font-size="10.00" fill="#000000"> </text>
<text text-anchor="start" x="609.5" y="-988" font-family="monospace" font-size="10.00" fill="#000000">logs/reads/extend/loglog/{sample}_{library}_{read_type_trim}.log</text>
<text text-anchor="start" x="609.5" y="-970" font-family="monospace" font-size="10.00" fill="#000000">temp/reads/extend/loglog/{sample}_{library}_{read_type_trim}.flag</text>
<text text-anchor="start" x="609.5" y="-952" font-family="monospace" font-size="10.00" fill="#000000">temp/reads/merge_lanes/{sample}_{library}_{read_type_trim}.fastq.gz</text>
<text text-anchor="start" x="961.5" y="-931.8" font-family="sans" font-size="10.00" fill="#000000"> </text>
<text text-anchor="start" x="965.5" y="-931.8" font-family="sans" font-weight="bold" font-size="14.00" fill="#000000">output →</text>
<text text-anchor="start" x="1026.5" y="-931.8" font-family="sans" font-size="10.00" fill="#000000"> </text>
<text text-anchor="start" x="609.5" y="-912" font-family="monospace" font-size="10.00" fill="#000000">temp/reads/extend/tadpole/{sample}_{library}_{read_type_trim}.fastq.gz</text>
<polygon fill="#d98257" stroke="#d98257" points="603.5,-1022 603.5,-1022 1037.5,-1022 1037.5,-1022 603.5,-1022"/>
<polygon fill="#d98257" stroke="#d98257" points="603.5,-946 603.5,-946 1037.5,-946 1037.5,-946 603.5,-946"/>
<polygon fill="none" stroke="#d98257" stroke-width="2" points="603,-903 603,-1051 1036,-1051 1036,-903 603,-903"/>
</g>
<!-- 3&#45;&gt;6 -->
<g id="edge10" class="edge">
<title>3&#45;&gt;6</title>
<path fill="none" stroke="#c0c0c0" stroke-width="2" d="M827.2845,-1312.8153C885.5079,-1298.2482 937.7594,-1279.2996 955.5,-1256 1000.7328,-1196.5937 987.5151,-1155.4548 955.5,-1088 950.7977,-1078.0923 944.7302,-1068.7768 937.7742,-1060.0827"/>
<polygon fill="#c0c0c0" stroke="#c0c0c0" stroke-width="2" points="940.288,-1057.6355 931.1499,-1052.2739 934.9499,-1062.1638 940.288,-1057.6355"/>
</g>
<!-- 7 -->
<g id="node8" class="node">
<title>7</title>
<text text-anchor="start" x="710" y="-1208.6" font-family="sans" font-weight="bold" font-size="18.00" fill="#000000">loglog</text>
<text text-anchor="start" x="536.5" y="-1184.8" font-family="sans" font-size="10.00" fill="#000000"> </text>
<text text-anchor="start" x="540.5" y="-1184.8" font-family="sans" font-weight="bold" font-size="14.00" fill="#000000">↪ input</text>
<text text-anchor="start" x="593.5" y="-1184.8" font-family="sans" font-size="10.00" fill="#000000"> </text>
<text text-anchor="start" x="536.5" y="-1165" font-family="monospace" font-size="10.00" fill="#000000">temp/reads/merge_lanes/{sample}_{library}_{read_type_trim}.fastq.gz</text>
<text text-anchor="start" x="870.5" y="-1144.8" font-family="sans" font-size="10.00" fill="#000000"> </text>
<text text-anchor="start" x="874.5" y="-1144.8" font-family="sans" font-weight="bold" font-size="14.00" fill="#000000">output →</text>
<text text-anchor="start" x="935.5" y="-1144.8" font-family="sans" font-size="10.00" fill="#000000"> </text>
<text text-anchor="start" x="536.5" y="-1125" font-family="monospace" font-size="10.00" fill="#000000">temp/reads/extend/loglog/{sample}_{library}_{read_type_trim}.flag</text>
<polygon fill="#d9d957" stroke="#d9d957" points="530.5,-1199 530.5,-1199 946.5,-1199 946.5,-1199 530.5,-1199"/>
<polygon fill="#d9d957" stroke="#d9d957" points="530.5,-1159 530.5,-1159 946.5,-1159 946.5,-1159 530.5,-1159"/>
<polygon fill="none" stroke="#d9d957" stroke-width="2" points="530,-1116 530,-1228 945,-1228 945,-1116 530,-1116"/>
</g>
<!-- 3&#45;&gt;7 -->
<g id="edge12" class="edge">
<title>3&#45;&gt;7</title>
<path fill="none" stroke="#c0c0c0" stroke-width="2" d="M657.1359,-1291.5332C668.6837,-1274.3571 681.432,-1255.3953 693.3074,-1237.7319"/>
<polygon fill="#c0c0c0" stroke="#c0c0c0" stroke-width="2" points="696.3831,-1239.4301 699.058,-1229.1785 690.5739,-1235.5245 696.3831,-1239.4301"/>
</g>
<!-- 4 -->
<g id="node5" class="node">
<title>4</title>
<text text-anchor="start" x="155" y="-845.6" font-family="sans" font-weight="bold" font-size="18.00" fill="#000000">nonpareil_plot</text>
<text text-anchor="start" x="7.5" y="-821.8" font-family="sans" font-size="10.00" fill="#000000"> </text>
<text text-anchor="start" x="11.5" y="-821.8" font-family="sans" font-weight="bold" font-size="14.00" fill="#000000">↪ input</text>
<text text-anchor="start" x="64.5" y="-821.8" font-family="sans" font-size="10.00" fill="#000000"> </text>
<text text-anchor="start" x="7.5" y="-802" font-family="monospace" font-size="10.00" fill="#000000">stats/reads/nonpareil/{tool}/{sample}_{library}_{read_type_trim}.npo</text>
<text text-anchor="start" x="359.5" y="-781.8" font-family="sans" font-size="10.00" fill="#000000"> </text>
<text text-anchor="start" x="363.5" y="-781.8" font-family="sans" font-weight="bold" font-size="14.00" fill="#000000">output →</text>
<text text-anchor="start" x="424.5" y="-781.8" font-family="sans" font-size="10.00" fill="#000000"> </text>
<text text-anchor="start" x="7.5" y="-762" font-family="monospace" font-size="10.00" fill="#000000">reports/reads/nonpareil/{tool}/{sample}_{library}_{read_type_trim}.pdf</text>
<text text-anchor="start" x="7.5" y="-744" font-family="monospace" font-size="10.00" fill="#000000">stats/reads/nonpareil/{tool}/{sample}_{library}_{read_type_trim}.json</text>
<text text-anchor="start" x="7.5" y="-726" font-family="monospace" font-size="10.00" fill="#000000">stats/reads/nonpareil/{tool}/{sample}_{library}_{read_type_trim}.tsv</text>
<polygon fill="#57d9ad" stroke="#57d9ad" points="1.5,-836 1.5,-836 435.5,-836 435.5,-836 1.5,-836"/>
<polygon fill="#57d9ad" stroke="#57d9ad" points="1.5,-796 1.5,-796 435.5,-796 435.5,-796 1.5,-796"/>
<polygon fill="none" stroke="#57d9ad" stroke-width="2" points="1,-717 1,-865 434,-865 434,-717 1,-717"/>
</g>
<!-- 4&#45;&gt;1 -->
<g id="edge3" class="edge">
<title>4&#45;&gt;1</title>
<path fill="none" stroke="#c0c0c0" stroke-width="2" d="M171.0645,-715.9988C146.1605,-665.3142 126.5172,-598.659 158.5,-548 201.3949,-480.0569 274.2382,-434.6025 347.4462,-404.4047"/>
<polygon fill="#c0c0c0" stroke="#c0c0c0" stroke-width="2" points="348.8762,-407.6019 356.8392,-400.6132 346.256,-401.1108 348.8762,-407.6019"/>
</g>
<!-- 5&#45;&gt;4 -->
<g id="edge8" class="edge">
<title>5&#45;&gt;4</title>
<path fill="none" stroke="#c0c0c0" stroke-width="2" d="M250.2309,-1087.9163C243.3087,-1025.1218 233.8826,-939.6137 226.9235,-876.4847"/>
<polygon fill="#c0c0c0" stroke="#c0c0c0" stroke-width="2" points="230.3598,-875.7136 225.7851,-866.1574 223.402,-876.4807 230.3598,-875.7136"/>
</g>
<!-- 6&#45;&gt;2 -->
<g id="edge5" class="edge">
<title>6&#45;&gt;2</title>
<path fill="none" stroke="#c0c0c0" stroke-width="2" d="M633.1615,-901.883C620.6837,-891.362 609.5177,-879.4554 600.5,-866 566.1837,-814.7965 563.5012,-743.9266 568.0711,-690.381"/>
<polygon fill="#c0c0c0" stroke="#c0c0c0" stroke-width="2" points="571.5717,-690.5414 569.0386,-680.2539 564.6034,-689.8757 571.5717,-690.5414"/>
</g>
<!-- 8 -->
<g id="node9" class="node">
<title>8</title>
<text text-anchor="start" x="790" y="-845.6" font-family="sans" font-weight="bold" font-size="18.00" fill="#000000">low_complexity</text>
<text text-anchor="start" x="616.5" y="-821.8" font-family="sans" font-size="10.00" fill="#000000"> </text>
<text text-anchor="start" x="620.5" y="-821.8" font-family="sans" font-weight="bold" font-size="14.00" fill="#000000">↪ input</text>
<text text-anchor="start" x="673.5" y="-821.8" font-family="sans" font-size="10.00" fill="#000000"> </text>
<text text-anchor="start" x="616.5" y="-802" font-family="monospace" font-size="10.00" fill="#000000">temp/reads/extend/tadpole/{sample}_{library}_{read_type_trim}.fastq.gz</text>
<text text-anchor="start" x="1028.5" y="-781.8" font-family="sans" font-size="10.00" fill="#000000"> </text>
<text text-anchor="start" x="1032.5" y="-781.8" font-family="sans" font-weight="bold" font-size="14.00" fill="#000000">output →</text>
<text text-anchor="start" x="1093.5" y="-781.8" font-family="sans" font-size="10.00" fill="#000000"> </text>
<text text-anchor="start" x="616.5" y="-762" font-family="monospace" font-size="10.00" fill="#000000">results/reads/low_complexity/{sample}_{library}_{read_type_trim}.fastq.gz</text>
<text text-anchor="start" x="616.5" y="-744" font-family="monospace" font-size="10.00" fill="#000000">stats/reads/low_complexity/{sample}_{library}_{read_type_trim}.txt</text>
<text text-anchor="start" x="616.5" y="-726" font-family="monospace" font-size="10.00" fill="#000000">temp/reads/low_complexity/{sample}_{library}_{read_type_trim}.discarded.fastq.gz</text>
<polygon fill="#add957" stroke="#add957" points="610.5,-836 610.5,-836 1104.5,-836 1104.5,-836 610.5,-836"/>
<polygon fill="#add957" stroke="#add957" points="610.5,-796 610.5,-796 1104.5,-796 1104.5,-796 610.5,-796"/>
<polygon fill="none" stroke="#add957" stroke-width="2" points="610,-717 610,-865 1103,-865 1103,-717 610,-717"/>
</g>
<!-- 6&#45;&gt;8 -->
<g id="edge13" class="edge">
<title>6&#45;&gt;8</title>
<path fill="none" stroke="#c0c0c0" stroke-width="2" d="M834.4427,-901.8828C836.1293,-893.4042 837.8569,-884.7194 839.5665,-876.125"/>
<polygon fill="#c0c0c0" stroke="#c0c0c0" stroke-width="2" points="843.0433,-876.5859 841.5617,-866.0952 836.1779,-875.2202 843.0433,-876.5859"/>
</g>
<!-- 7&#45;&gt;6 -->
<g id="edge11" class="edge">
<title>7&#45;&gt;6</title>
<path fill="none" stroke="#c0c0c0" stroke-width="2" d="M761.5486,-1114.8111C768.5509,-1098.1595 776.3537,-1079.6039 783.9074,-1061.6409"/>
<polygon fill="#c0c0c0" stroke="#c0c0c0" stroke-width="2" points="787.1791,-1062.8896 787.8292,-1052.3147 780.7264,-1060.1761 787.1791,-1062.8896"/>
</g>
<!-- 8&#45;&gt;0 -->
<g id="edge2" class="edge">
<title>8&#45;&gt;0</title>
<path fill="none" stroke="#c0c0c0" stroke-width="2" d="M976.9154,-715.9535C987.1099,-705.112 995.9926,-693.1219 1002.5,-680 1028.5647,-627.4414 1014.2154,-605.485 1002.5,-548 972.9287,-402.9005 897.3671,-247.207 847.5098,-155.0544"/>
<polygon fill="#c0c0c0" stroke="#c0c0c0" stroke-width="2" points="850.4711,-153.1736 842.6173,-146.0625 844.3224,-156.5193 850.4711,-153.1736"/>
</g>
<!-- 8&#45;&gt;2 -->
<g id="edge7" class="edge">
<title>8&#45;&gt;2</title>
<path fill="none" stroke="#c0c0c0" stroke-width="2" d="M739.4512,-715.9361C723.8316,-705.9192 707.8453,-695.6671 692.3182,-685.7095"/>
<polygon fill="#c0c0c0" stroke="#c0c0c0" stroke-width="2" points="694.0516,-682.6633 683.7445,-680.2111 690.2728,-688.5557 694.0516,-682.6633"/>
</g>
</g>
</svg>
