<?xml version="1.0" encoding="UTF-8" standalone="no"?>
<!DOCTYPE svg PUBLIC "-//W3C//DTD SVG 1.1//EN"
 "http://www.w3.org/Graphics/SVG/1.1/DTD/svg11.dtd">
<!-- Generated by graphviz version 2.40.1 (0)
 -->
<!-- Title: snakemake_dag Pages: 1 -->
<svg width="975pt" height="1690pt"
 viewBox="0.00 0.00 975.00 1690.00" xmlns="http://www.w3.org/2000/svg" xmlns:xlink="http://www.w3.org/1999/xlink">
<g id="graph0" class="graph" transform="scale(1 1) rotate(0) translate(4 1686)">
<title>snakemake_dag</title>
<polygon fill="#ffffff" stroke="transparent" points="-4,4 -4,-1686 971,-1686 971,4 -4,4"/>
<!-- 0 -->
<g id="node1" class="node">
<title>0</title>
<text text-anchor="start" x="351.5" y="-125.6" font-family="sans" font-weight="bold" font-size="18.00" fill="#000000">all</text>
<text text-anchor="start" x="166.5" y="-101.8" font-family="sans" font-size="10.00" fill="#000000"> </text>
<text text-anchor="start" x="170.5" y="-101.8" font-family="sans" font-weight="bold" font-size="14.00" fill="#000000">↪ input</text>
<text text-anchor="start" x="223.5" y="-101.8" font-family="sans" font-size="10.00" fill="#000000"> </text>
<text text-anchor="start" x="166.5" y="-82" font-family="monospace" font-size="10.00" fill="#000000">reports/multiqc.html</text>
<text text-anchor="start" x="166.5" y="-64" font-family="monospace" font-size="10.00" fill="#000000">results/reads/low_complexity/HD827sonic_1_lib1_collapsed.fastq.gz</text>
<text text-anchor="start" x="166.5" y="-46" font-family="monospace" font-size="10.00" fill="#000000">results/reads/low_complexity/HD827sonic_2_lib1_collapsed.fastq.gz</text>
<text text-anchor="start" x="166.5" y="-28" font-family="monospace" font-size="10.00" fill="#000000">results/reads/low_complexity/HD827sonic_2_lib2_collapsed.fastq.gz</text>
<text text-anchor="start" x="550.5" y="-10" font-family="sans" font-size="10.00" fill="#000000"> &#160;</text>
<polygon fill="#d95757" stroke="#d95757" points="160.5,-116 160.5,-116 564.5,-116 564.5,-116 160.5,-116"/>
<polygon fill="#d95757" stroke="#d95757" points="160.5,-22 160.5,-22 564.5,-22 564.5,-22 160.5,-22"/>
<polygon fill="none" stroke="#d95757" stroke-width="2" points="160,-1 160,-145 563,-145 563,-1 160,-1"/>
</g>
<!-- 1 -->
<g id="node2" class="node">
<title>1</title>
<text text-anchor="start" x="203.5" y="-599.6" font-family="sans" font-weight="bold" font-size="18.00" fill="#000000">multiqc</text>
<text text-anchor="start" x="19.5" y="-575.8" font-family="sans" font-size="10.00" fill="#000000"> </text>
<text text-anchor="start" x="23.5" y="-575.8" font-family="sans" font-weight="bold" font-size="14.00" fill="#000000">↪ input</text>
<text text-anchor="start" x="76.5" y="-575.8" font-family="sans" font-size="10.00" fill="#000000"> </text>
<text text-anchor="start" x="19.5" y="-556" font-family="monospace" font-size="10.00" fill="#000000">stats/reads/fastqc/extend/tadpole/HD827sonic_1_lib1_collapsed_fastqc.zip</text>
<text text-anchor="start" x="19.5" y="-538" font-family="monospace" font-size="10.00" fill="#000000">stats/reads/fastqc/extend/tadpole/HD827sonic_2_lib1_collapsed_fastqc.zip</text>
<text text-anchor="start" x="19.5" y="-520" font-family="monospace" font-size="10.00" fill="#000000">stats/reads/fastqc/extend/tadpole/HD827sonic_2_lib2_collapsed_fastqc.zip</text>
<text text-anchor="start" x="19.5" y="-502" font-family="monospace" font-size="10.00" fill="#000000">stats/reads/fastqc/low_complexity/HD827sonic_1_lib1_collapsed_fastqc.zip</text>
<text text-anchor="start" x="19.5" y="-484" font-family="monospace" font-size="10.00" fill="#000000">stats/reads/fastqc/low_complexity/HD827sonic_2_lib1_collapsed_fastqc.zip</text>
<text text-anchor="start" x="19.5" y="-466" font-family="monospace" font-size="10.00" fill="#000000">stats/reads/fastqc/low_complexity/HD827sonic_2_lib2_collapsed_fastqc.zip</text>
<text text-anchor="start" x="19.5" y="-448" font-family="monospace" font-size="10.00" fill="#000000">stats/reads/fastqc/merge_lanes/HD827sonic_1_lib1_collapsed_fastqc.zip</text>
<text text-anchor="start" x="19.5" y="-430" font-family="monospace" font-size="10.00" fill="#000000">stats/reads/fastqc/merge_lanes/HD827sonic_2_lib1_collapsed_fastqc.zip</text>
<text text-anchor="start" x="19.5" y="-412" font-family="monospace" font-size="10.00" fill="#000000">stats/reads/fastqc/merge_lanes/HD827sonic_2_lib2_collapsed_fastqc.zip</text>
<text text-anchor="start" x="19.5" y="-394" font-family="monospace" font-size="10.00" fill="#000000">stats/reads/nonpareil/extend/tadpole/HD827sonic_1_lib1_collapsed.json</text>
<text text-anchor="start" x="19.5" y="-376" font-family="monospace" font-size="10.00" fill="#000000">stats/reads/nonpareil/extend/tadpole/HD827sonic_2_lib1_collapsed.json</text>
<text text-anchor="start" x="19.5" y="-358" font-family="monospace" font-size="10.00" fill="#000000">stats/reads/nonpareil/extend/tadpole/HD827sonic_2_lib2_collapsed.json</text>
<text text-anchor="start" x="19.5" y="-340" font-family="monospace" font-size="10.00" fill="#000000">stats/reads/nonpareil/low_complexity/HD827sonic_1_lib1_collapsed.json</text>
<text text-anchor="start" x="19.5" y="-322" font-family="monospace" font-size="10.00" fill="#000000">stats/reads/nonpareil/low_complexity/HD827sonic_2_lib1_collapsed.json</text>
<text text-anchor="start" x="19.5" y="-304" font-family="monospace" font-size="10.00" fill="#000000">stats/reads/nonpareil/low_complexity/HD827sonic_2_lib2_collapsed.json</text>
<text text-anchor="start" x="19.5" y="-286" font-family="monospace" font-size="10.00" fill="#000000">stats/reads/nonpareil/merge_lanes/HD827sonic_1_lib1_collapsed.json</text>
<text text-anchor="start" x="19.5" y="-268" font-family="monospace" font-size="10.00" fill="#000000">stats/reads/nonpareil/merge_lanes/HD827sonic_2_lib1_collapsed.json</text>
<text text-anchor="start" x="19.5" y="-250" font-family="monospace" font-size="10.00" fill="#000000">stats/reads/nonpareil/merge_lanes/HD827sonic_2_lib2_collapsed.json</text>
<text text-anchor="start" x="383.5" y="-229.8" font-family="sans" font-size="10.00" fill="#000000"> </text>
<text text-anchor="start" x="387.5" y="-229.8" font-family="sans" font-weight="bold" font-size="14.00" fill="#000000">output →</text>
<text text-anchor="start" x="448.5" y="-229.8" font-family="sans" font-size="10.00" fill="#000000"> </text>
<text text-anchor="start" x="19.5" y="-210" font-family="monospace" font-size="10.00" fill="#000000">reports/multiqc.html</text>
<text text-anchor="start" x="19.5" y="-192" font-family="monospace" font-size="10.00" fill="#000000">reports/multiqc_data.zip</text>
<polygon fill="#57d957" stroke="#57d957" points="13.5,-590 13.5,-590 459.5,-590 459.5,-590 13.5,-590"/>
<polygon fill="#57d957" stroke="#57d957" points="13.5,-244 13.5,-244 459.5,-244 459.5,-244 13.5,-244"/>
<polygon fill="none" stroke="#57d957" stroke-width="2" points="13,-183 13,-619 458,-619 458,-183 13,-183"/>
</g>
<!-- 1&#45;&gt;0 -->
<g id="edge1" class="edge">
<title>1&#45;&gt;0</title>
<path fill="none" stroke="#c0c0c0" stroke-width="2" d="M319.7188,-181.7637C323.1462,-172.8417 326.4787,-164.1666 329.6687,-155.8626"/>
<polygon fill="#c0c0c0" stroke="#c0c0c0" stroke-width="2" points="333.0263,-156.8822 333.3451,-146.2922 326.4918,-154.372 333.0263,-156.8822"/>
</g>
<!-- 2 -->
<g id="node3" class="node">
<title>2</title>
<text text-anchor="start" x="197.5" y="-971.6" font-family="sans" font-weight="bold" font-size="18.00" fill="#000000">fastqc</text>
<text text-anchor="start" x="7.5" y="-947.8" font-family="sans" font-size="10.00" fill="#000000"> </text>
<text text-anchor="start" x="11.5" y="-947.8" font-family="sans" font-weight="bold" font-size="14.00" fill="#000000">↪ input</text>
<text text-anchor="start" x="64.5" y="-947.8" font-family="sans" font-size="10.00" fill="#000000"> </text>
<text text-anchor="start" x="7.5" y="-928" font-family="monospace" font-size="10.00" fill="#000000">&lt;input function&gt;</text>
<text text-anchor="start" x="371.5" y="-907.8" font-family="sans" font-size="10.00" fill="#000000"> </text>
<text text-anchor="start" x="375.5" y="-907.8" font-family="sans" font-weight="bold" font-size="14.00" fill="#000000">output →</text>
<text text-anchor="start" x="436.5" y="-907.8" font-family="sans" font-size="10.00" fill="#000000"> </text>
<text text-anchor="start" x="7.5" y="-888" font-family="monospace" font-size="10.00" fill="#000000">stats/reads/fastqc/{tool}/{sample}_{library}_{read_type_trim}.html</text>
<text text-anchor="start" x="7.5" y="-870" font-family="monospace" font-size="10.00" fill="#000000">stats/reads/fastqc/{tool}/{sample}_{library}_{read_type_trim}_fastqc.zip</text>
<polygon fill="#d9ad57" stroke="#d9ad57" points="1.5,-962 1.5,-962 447.5,-962 447.5,-962 1.5,-962"/>
<polygon fill="#d9ad57" stroke="#d9ad57" points="1.5,-922 1.5,-922 447.5,-922 447.5,-922 1.5,-922"/>
<polygon fill="none" stroke="#d9ad57" stroke-width="2" points="1,-861 1,-991 446,-991 446,-861 1,-861"/>
</g>
<!-- 2&#45;&gt;1 -->
<g id="edge4" class="edge">
<title>2&#45;&gt;1</title>
<path fill="none" stroke="#c0c0c0" stroke-width="2" d="M225.0137,-859.7744C226.3412,-801.697 228.3518,-713.7332 230.2585,-630.3135"/>
<polygon fill="#c0c0c0" stroke="#c0c0c0" stroke-width="2" points="233.761,-630.2426 230.4905,-620.1652 226.7628,-630.0825 233.761,-630.2426"/>
</g>
<!-- 3 -->
<g id="node4" class="node">
<title>3</title>
<text text-anchor="start" x="352.5" y="-1661.6" font-family="sans" font-weight="bold" font-size="18.00" fill="#000000">merge_lanes</text>
<text text-anchor="start" x="205.5" y="-1637.8" font-family="sans" font-size="10.00" fill="#000000"> </text>
<text text-anchor="start" x="209.5" y="-1637.8" font-family="sans" font-weight="bold" font-size="14.00" fill="#000000">↪ input</text>
<text text-anchor="start" x="262.5" y="-1637.8" font-family="sans" font-size="10.00" fill="#000000"> </text>
<text text-anchor="start" x="205.5" y="-1618" font-family="monospace" font-size="10.00" fill="#000000">&lt;input function&gt;</text>
<text text-anchor="start" x="539.5" y="-1597.8" font-family="sans" font-size="10.00" fill="#000000"> </text>
<text text-anchor="start" x="543.5" y="-1597.8" font-family="sans" font-weight="bold" font-size="14.00" fill="#000000">output →</text>
<text text-anchor="start" x="604.5" y="-1597.8" font-family="sans" font-size="10.00" fill="#000000"> </text>
<text text-anchor="start" x="205.5" y="-1578" font-family="monospace" font-size="10.00" fill="#000000">temp/reads/merge_lanes/{sample}_{library}_{read_type_trim}.fastq.gz</text>
<polygon fill="#82d957" stroke="#82d957" points="199.5,-1652 199.5,-1652 615.5,-1652 615.5,-1652 199.5,-1652"/>
<polygon fill="#82d957" stroke="#82d957" points="199.5,-1612 199.5,-1612 615.5,-1612 615.5,-1612 199.5,-1612"/>
<polygon fill="none" stroke="#82d957" stroke-width="2" points="199,-1569 199,-1681 614,-1681 614,-1569 199,-1569"/>
</g>
<!-- 3&#45;&gt;2 -->
<g id="edge6" class="edge">
<title>3&#45;&gt;2</title>
<path fill="none" stroke="#c0c0c0" stroke-width="2" d="M319.3776,-1567.9608C307.3864,-1557.1616 296.2181,-1545.0958 287.5,-1532 201.7005,-1403.1171 216.1283,-1349.4497 195.5,-1196 186.6179,-1129.9277 187.8757,-1112.2293 195.5,-1046 197.1499,-1031.6678 199.8736,-1016.5593 202.9909,-1002.078"/>
<polygon fill="#c0c0c0" stroke="#c0c0c0" stroke-width="2" points="206.4398,-1002.6925 205.2035,-992.17 199.6081,-1001.1668 206.4398,-1002.6925"/>
</g>
<!-- 5 -->
<g id="node6" class="node">
<title>5</title>
<text text-anchor="start" x="690.5" y="-989.6" font-family="sans" font-weight="bold" font-size="18.00" fill="#000000">nonpareil_infer</text>
<text text-anchor="start" x="551.5" y="-965.8" font-family="sans" font-size="10.00" fill="#000000"> </text>
<text text-anchor="start" x="555.5" y="-965.8" font-family="sans" font-weight="bold" font-size="14.00" fill="#000000">↪ input</text>
<text text-anchor="start" x="608.5" y="-965.8" font-family="sans" font-size="10.00" fill="#000000"> </text>
<text text-anchor="start" x="551.5" y="-946" font-family="monospace" font-size="10.00" fill="#000000">&lt;input function&gt;</text>
<text text-anchor="start" x="891.5" y="-925.8" font-family="sans" font-size="10.00" fill="#000000"> </text>
<text text-anchor="start" x="895.5" y="-925.8" font-family="sans" font-weight="bold" font-size="14.00" fill="#000000">output →</text>
<text text-anchor="start" x="956.5" y="-925.8" font-family="sans" font-size="10.00" fill="#000000"> </text>
<text text-anchor="start" x="551.5" y="-906" font-family="monospace" font-size="10.00" fill="#000000">stats/reads/nonpareil/{tool}/{sample}_{library}_{read_type_trim}.log</text>
<text text-anchor="start" x="551.5" y="-888" font-family="monospace" font-size="10.00" fill="#000000">stats/reads/nonpareil/{tool}/{sample}_{library}_{read_type_trim}.npa</text>
<text text-anchor="start" x="551.5" y="-870" font-family="monospace" font-size="10.00" fill="#000000">stats/reads/nonpareil/{tool}/{sample}_{library}_{read_type_trim}.npc</text>
<text text-anchor="start" x="551.5" y="-852" font-family="monospace" font-size="10.00" fill="#000000">stats/reads/nonpareil/{tool}/{sample}_{library}_{read_type_trim}.npo</text>
<polygon fill="#57d982" stroke="#57d982" points="545.5,-980 545.5,-980 967.5,-980 967.5,-980 545.5,-980"/>
<polygon fill="#57d982" stroke="#57d982" points="545.5,-940 545.5,-940 967.5,-940 967.5,-940 545.5,-940"/>
<polygon fill="none" stroke="#57d982" stroke-width="2" points="545,-843 545,-1009 966,-1009 966,-843 545,-843"/>
</g>
<!-- 3&#45;&gt;5 -->
<g id="edge10" class="edge">
<title>3&#45;&gt;5</title>
<path fill="none" stroke="#c0c0c0" stroke-width="2" d="M615.4131,-1587.4945C673.0104,-1572.9093 724.8528,-1554.2846 743.5,-1532 863.7773,-1388.2613 822.4994,-1151.1944 786.2467,-1020.2416"/>
<polygon fill="#c0c0c0" stroke="#c0c0c0" stroke-width="2" points="789.5061,-1018.9033 783.4265,-1010.2264 782.7681,-1020.8007 789.5061,-1018.9033"/>
</g>
<!-- 6 -->
<g id="node7" class="node">
<title>6</title>
<text text-anchor="start" x="422" y="-1361.6" font-family="sans" font-weight="bold" font-size="18.00" fill="#000000">extend_tadpole</text>
<text text-anchor="start" x="277.5" y="-1337.8" font-family="sans" font-size="10.00" fill="#000000"> </text>
<text text-anchor="start" x="281.5" y="-1337.8" font-family="sans" font-weight="bold" font-size="14.00" fill="#000000">↪ input</text>
<text text-anchor="start" x="334.5" y="-1337.8" font-family="sans" font-size="10.00" fill="#000000"> </text>
<text text-anchor="start" x="277.5" y="-1318" font-family="monospace" font-size="10.00" fill="#000000">logs/reads/extend/loglog/{sample}_{library}_{read_type_trim}.log</text>
<text text-anchor="start" x="277.5" y="-1300" font-family="monospace" font-size="10.00" fill="#000000">temp/reads/extend/loglog/{sample}_{library}_{read_type_trim}.flag</text>
<text text-anchor="start" x="277.5" y="-1282" font-family="monospace" font-size="10.00" fill="#000000">temp/reads/merge_lanes/{sample}_{library}_{read_type_trim}.fastq.gz</text>
<text text-anchor="start" x="629.5" y="-1261.8" font-family="sans" font-size="10.00" fill="#000000"> </text>
<text text-anchor="start" x="633.5" y="-1261.8" font-family="sans" font-weight="bold" font-size="14.00" fill="#000000">output →</text>
<text text-anchor="start" x="694.5" y="-1261.8" font-family="sans" font-size="10.00" fill="#000000"> </text>
<text text-anchor="start" x="277.5" y="-1242" font-family="monospace" font-size="10.00" fill="#000000">temp/reads/extend/tadpole/{sample}_{library}_{read_type_trim}.fastq.gz</text>
<polygon fill="#d98257" stroke="#d98257" points="271.5,-1352 271.5,-1352 705.5,-1352 705.5,-1352 271.5,-1352"/>
<polygon fill="#d98257" stroke="#d98257" points="271.5,-1276 271.5,-1276 705.5,-1276 705.5,-1276 271.5,-1276"/>
<polygon fill="none" stroke="#d98257" stroke-width="2" points="271,-1233 271,-1381 704,-1381 704,-1233 271,-1233"/>
</g>
<!-- 3&#45;&gt;6 -->
<g id="edge13" class="edge">
<title>3&#45;&gt;6</title>
<path fill="none" stroke="#c0c0c0" stroke-width="2" d="M332.1336,-1567.9388C322.529,-1557.108 314.1016,-1545.0382 308.5,-1532 288.4998,-1485.4478 283.8604,-1462.2719 308.5,-1418 314.2654,-1407.6408 321.4416,-1398.1251 329.5788,-1389.4055"/>
<polygon fill="#c0c0c0" stroke="#c0c0c0" stroke-width="2" points="332.0925,-1391.8411 336.6301,-1382.2671 327.1125,-1386.9218 332.0925,-1391.8411"/>
</g>
<!-- 7 -->
<g id="node8" class="node">
<title>7</title>
<text text-anchor="start" x="498" y="-1511.6" font-family="sans" font-weight="bold" font-size="18.00" fill="#000000">loglog</text>
<text text-anchor="start" x="324.5" y="-1487.8" font-family="sans" font-size="10.00" fill="#000000"> </text>
<text text-anchor="start" x="328.5" y="-1487.8" font-family="sans" font-weight="bold" font-size="14.00" fill="#000000">↪ input</text>
<text text-anchor="start" x="381.5" y="-1487.8" font-family="sans" font-size="10.00" fill="#000000"> </text>
<text text-anchor="start" x="324.5" y="-1468" font-family="monospace" font-size="10.00" fill="#000000">temp/reads/merge_lanes/{sample}_{library}_{read_type_trim}.fastq.gz</text>
<text text-anchor="start" x="658.5" y="-1447.8" font-family="sans" font-size="10.00" fill="#000000"> </text>
<text text-anchor="start" x="662.5" y="-1447.8" font-family="sans" font-weight="bold" font-size="14.00" fill="#000000">output →</text>
<text text-anchor="start" x="723.5" y="-1447.8" font-family="sans" font-size="10.00" fill="#000000"> </text>
<text text-anchor="start" x="324.5" y="-1428" font-family="monospace" font-size="10.00" fill="#000000">temp/reads/extend/loglog/{sample}_{library}_{read_type_trim}.flag</text>
<polygon fill="#d9d957" stroke="#d9d957" points="318.5,-1502 318.5,-1502 734.5,-1502 734.5,-1502 318.5,-1502"/>
<polygon fill="#d9d957" stroke="#d9d957" points="318.5,-1462 318.5,-1462 734.5,-1462 734.5,-1462 318.5,-1462"/>
<polygon fill="none" stroke="#d9d957" stroke-width="2" points="318,-1419 318,-1531 733,-1531 733,-1419 318,-1419"/>
</g>
<!-- 3&#45;&gt;7 -->
<g id="edge14" class="edge">
<title>3&#45;&gt;7</title>
<path fill="none" stroke="#c0c0c0" stroke-width="2" d="M451.8283,-1567.8635C458.9404,-1558.8986 466.3394,-1549.5721 473.5858,-1540.438"/>
<polygon fill="#c0c0c0" stroke="#c0c0c0" stroke-width="2" points="476.4304,-1542.4839 479.9036,-1532.4745 470.9465,-1538.1333 476.4304,-1542.4839"/>
</g>
<!-- 4 -->
<g id="node5" class="node">
<title>4</title>
<text text-anchor="start" x="678" y="-785.6" font-family="sans" font-weight="bold" font-size="18.00" fill="#000000">nonpareil_plot</text>
<text text-anchor="start" x="530.5" y="-761.8" font-family="sans" font-size="10.00" fill="#000000"> </text>
<text text-anchor="start" x="534.5" y="-761.8" font-family="sans" font-weight="bold" font-size="14.00" fill="#000000">↪ input</text>
<text text-anchor="start" x="587.5" y="-761.8" font-family="sans" font-size="10.00" fill="#000000"> </text>
<text text-anchor="start" x="530.5" y="-742" font-family="monospace" font-size="10.00" fill="#000000">stats/reads/nonpareil/{tool}/{sample}_{library}_{read_type_trim}.npo</text>
<text text-anchor="start" x="882.5" y="-721.8" font-family="sans" font-size="10.00" fill="#000000"> </text>
<text text-anchor="start" x="886.5" y="-721.8" font-family="sans" font-weight="bold" font-size="14.00" fill="#000000">output →</text>
<text text-anchor="start" x="947.5" y="-721.8" font-family="sans" font-size="10.00" fill="#000000"> </text>
<text text-anchor="start" x="530.5" y="-702" font-family="monospace" font-size="10.00" fill="#000000">reports/reads/nonpareil/{tool}/{sample}_{library}_{read_type_trim}.pdf</text>
<text text-anchor="start" x="530.5" y="-684" font-family="monospace" font-size="10.00" fill="#000000">stats/reads/nonpareil/{tool}/{sample}_{library}_{read_type_trim}.json</text>
<text text-anchor="start" x="530.5" y="-666" font-family="monospace" font-size="10.00" fill="#000000">stats/reads/nonpareil/{tool}/{sample}_{library}_{read_type_trim}.tsv</text>
<polygon fill="#57d9ad" stroke="#57d9ad" points="524.5,-776 524.5,-776 958.5,-776 958.5,-776 524.5,-776"/>
<polygon fill="#57d9ad" stroke="#57d9ad" points="524.5,-736 524.5,-736 958.5,-736 958.5,-736 524.5,-736"/>
<polygon fill="none" stroke="#57d9ad" stroke-width="2" points="524,-657 524,-805 957,-805 957,-657 524,-657"/>
</g>
<!-- 4&#45;&gt;1 -->
<g id="edge3" class="edge">
<title>4&#45;&gt;1</title>
<path fill="none" stroke="#c0c0c0" stroke-width="2" d="M625.5919,-655.9115C578.5974,-625.2023 522.4487,-588.5111 467.593,-552.6648"/>
<polygon fill="#c0c0c0" stroke="#c0c0c0" stroke-width="2" points="469.4425,-549.6923 459.1567,-547.1519 465.6132,-555.5521 469.4425,-549.6923"/>
</g>
<!-- 5&#45;&gt;4 -->
<g id="edge8" class="edge">
<title>5&#45;&gt;4</title>
<path fill="none" stroke="#c0c0c0" stroke-width="2" d="M749.0298,-841.8876C748.3815,-833.46 747.7228,-824.8965 747.0735,-816.4552"/>
<polygon fill="#c0c0c0" stroke="#c0c0c0" stroke-width="2" points="750.5442,-815.9389 746.2874,-806.2368 743.5648,-816.4758 750.5442,-815.9389"/>
</g>
<!-- 6&#45;&gt;2 -->
<g id="edge5" class="edge">
<title>6&#45;&gt;2</title>
<path fill="none" stroke="#c0c0c0" stroke-width="2" d="M269.7497,-1237.0142C254.6341,-1225.3698 241.1846,-1211.8032 230.5,-1196 192.3282,-1139.5412 195.2435,-1060.1613 204.8962,-1002.0851"/>
<polygon fill="#c0c0c0" stroke="#c0c0c0" stroke-width="2" points="208.3445,-1002.6838 206.6324,-992.2282 201.4506,-1001.4694 208.3445,-1002.6838"/>
</g>
<!-- 6&#45;&gt;5 -->
<g id="edge9" class="edge">
<title>6&#45;&gt;5</title>
<path fill="none" stroke="#c0c0c0" stroke-width="2" d="M705.2891,-1236.6212C720.3406,-1225.063 733.7676,-1211.6236 744.5,-1196 779.197,-1145.4903 781.3505,-1076.2325 775.1371,-1020.5082"/>
<polygon fill="#c0c0c0" stroke="#c0c0c0" stroke-width="2" points="778.573,-1019.7698 773.8855,-1010.2683 771.6247,-1020.6191 778.573,-1019.7698"/>
</g>
<!-- 8 -->
<g id="node9" class="node">
<title>8</title>
<text text-anchor="start" x="421" y="-1175.6" font-family="sans" font-weight="bold" font-size="18.00" fill="#000000">low_complexity</text>
<text text-anchor="start" x="247.5" y="-1151.8" font-family="sans" font-size="10.00" fill="#000000"> </text>
<text text-anchor="start" x="251.5" y="-1151.8" font-family="sans" font-weight="bold" font-size="14.00" fill="#000000">↪ input</text>
<text text-anchor="start" x="304.5" y="-1151.8" font-family="sans" font-size="10.00" fill="#000000"> </text>
<text text-anchor="start" x="247.5" y="-1132" font-family="monospace" font-size="10.00" fill="#000000">temp/reads/extend/tadpole/{sample}_{library}_{read_type_trim}.fastq.gz</text>
<text text-anchor="start" x="659.5" y="-1111.8" font-family="sans" font-size="10.00" fill="#000000"> </text>
<text text-anchor="start" x="663.5" y="-1111.8" font-family="sans" font-weight="bold" font-size="14.00" fill="#000000">output →</text>
<text text-anchor="start" x="724.5" y="-1111.8" font-family="sans" font-size="10.00" fill="#000000"> </text>
<text text-anchor="start" x="247.5" y="-1092" font-family="monospace" font-size="10.00" fill="#000000">results/reads/low_complexity/{sample}_{library}_{read_type_trim}.fastq.gz</text>
<text text-anchor="start" x="247.5" y="-1074" font-family="monospace" font-size="10.00" fill="#000000">stats/reads/low_complexity/{sample}_{library}_{read_type_trim}.txt</text>
<text text-anchor="start" x="247.5" y="-1056" font-family="monospace" font-size="10.00" fill="#000000">temp/reads/low_complexity/{sample}_{library}_{read_type_trim}.discarded.fastq.gz</text>
<polygon fill="#add957" stroke="#add957" points="241.5,-1166 241.5,-1166 735.5,-1166 735.5,-1166 241.5,-1166"/>
<polygon fill="#add957" stroke="#add957" points="241.5,-1126 241.5,-1126 735.5,-1126 735.5,-1126 241.5,-1126"/>
<polygon fill="none" stroke="#add957" stroke-width="2" points="241,-1047 241,-1195 734,-1195 734,-1047 241,-1047"/>
</g>
<!-- 6&#45;&gt;8 -->
<g id="edge15" class="edge">
<title>6&#45;&gt;8</title>
<path fill="none" stroke="#c0c0c0" stroke-width="2" d="M487.5,-1231.8828C487.5,-1223.4042 487.5,-1214.7194 487.5,-1206.125"/>
<polygon fill="#c0c0c0" stroke="#c0c0c0" stroke-width="2" points="491.0001,-1206.0952 487.5,-1196.0952 484.0001,-1206.0952 491.0001,-1206.0952"/>
</g>
<!-- 7&#45;&gt;6 -->
<g id="edge12" class="edge">
<title>7&#45;&gt;6</title>
<path fill="none" stroke="#c0c0c0" stroke-width="2" d="M512.5288,-1417.6538C510.6543,-1409.3662 508.6923,-1400.6924 506.7271,-1392.0042"/>
<polygon fill="#c0c0c0" stroke="#c0c0c0" stroke-width="2" points="510.1315,-1391.1902 504.5115,-1382.2088 503.304,-1392.7346 510.1315,-1391.1902"/>
</g>
<!-- 8&#45;&gt;0 -->
<g id="edge2" class="edge">
<title>8&#45;&gt;0</title>
<path fill="none" stroke="#c0c0c0" stroke-width="2" d="M493.0133,-1045.956C506.174,-851.7419 533.6994,-336.9946 468.5,-182 464.4482,-172.3679 459.1085,-163.1184 452.9733,-154.362"/>
<polygon fill="#c0c0c0" stroke="#c0c0c0" stroke-width="2" points="455.6309,-152.0698 446.8635,-146.1214 450.0078,-156.2389 455.6309,-152.0698"/>
</g>
<!-- 8&#45;&gt;2 -->
<g id="edge7" class="edge">
<title>8&#45;&gt;2</title>
<path fill="none" stroke="#c0c0c0" stroke-width="2" d="M385.8083,-1045.8868C364.6501,-1030.2586 342.3936,-1013.8192 321.3763,-998.295"/>
<polygon fill="#c0c0c0" stroke="#c0c0c0" stroke-width="2" points="323.2008,-995.2914 313.0776,-992.1653 319.0418,-1000.922 323.2008,-995.2914"/>
</g>
<!-- 8&#45;&gt;5 -->
<g id="edge11" class="edge">
<title>8&#45;&gt;5</title>
<path fill="none" stroke="#c0c0c0" stroke-width="2" d="M590.7324,-1045.8868C604.0425,-1036.2023 617.7807,-1026.2062 631.3824,-1016.3095"/>
<polygon fill="#c0c0c0" stroke="#c0c0c0" stroke-width="2" points="633.8018,-1018.8775 639.8286,-1010.1639 629.6833,-1013.2173 633.8018,-1018.8775"/>
</g>
</g>
</svg>
