<?xml version="1.0" encoding="UTF-8" standalone="no"?>
<!DOCTYPE svg PUBLIC "-//W3C//DTD SVG 1.1//EN"
 "http://www.w3.org/Graphics/SVG/1.1/DTD/svg11.dtd">
<!-- Generated by graphviz version 2.40.1 (0)
 -->
<!-- Title: snakemake_dag Pages: 1 -->
<svg width="1112pt" height="1504pt"
 viewBox="0.00 0.00 1112.00 1504.00" xmlns="http://www.w3.org/2000/svg" xmlns:xlink="http://www.w3.org/1999/xlink">
<g id="graph0" class="graph" transform="scale(1 1) rotate(0) translate(4 1500)">
<title>snakemake_dag</title>
<polygon fill="#ffffff" stroke="transparent" points="-4,4 -4,-1500 1108,-1500 1108,4 -4,4"/>
<!-- 0 -->
<g id="node1" class="node">
<title>0</title>
<text text-anchor="start" x="790.5" y="-143.6" font-family="sans" font-weight="bold" font-size="18.00" fill="#000000">all</text>
<text text-anchor="start" x="605.5" y="-119.8" font-family="sans" font-size="10.00" fill="#000000"> </text>
<text text-anchor="start" x="609.5" y="-119.8" font-family="sans" font-weight="bold" font-size="14.00" fill="#000000">↪ input</text>
<text text-anchor="start" x="662.5" y="-119.8" font-family="sans" font-size="10.00" fill="#000000"> </text>
<text text-anchor="start" x="605.5" y="-100" font-family="monospace" font-size="10.00" fill="#000000">reports/multiqc.html</text>
<text text-anchor="start" x="605.5" y="-82" font-family="monospace" font-size="10.00" fill="#000000">results/reads/low_complexity/HD827sonic_1_lib1_collapsed.fastq.gz</text>
<text text-anchor="start" x="605.5" y="-64" font-family="monospace" font-size="10.00" fill="#000000">results/reads/low_complexity/HD827sonic_2_lib1_collapsed.fastq.gz</text>
<text text-anchor="start" x="605.5" y="-46" font-family="monospace" font-size="10.00" fill="#000000">results/reads/low_complexity/HD827sonic_2_lib2_collapsed.fastq.gz</text>
<text text-anchor="start" x="605.5" y="-28" font-family="monospace" font-size="10.00" fill="#000000">results/reads/low_complexity/HD827sonic_2_lib3_collapsed.fastq.gz</text>
<text text-anchor="start" x="989.5" y="-10" font-family="sans" font-size="10.00" fill="#000000"> &#160;</text>
<polygon fill="#d95757" stroke="#d95757" points="599.5,-134 599.5,-134 1003.5,-134 1003.5,-134 599.5,-134"/>
<polygon fill="#d95757" stroke="#d95757" points="599.5,-22 599.5,-22 1003.5,-22 1003.5,-22 599.5,-22"/>
<polygon fill="none" stroke="#d95757" stroke-width="2" points="599,-1 599,-163 1002,-163 1002,-1 599,-1"/>
</g>
<!-- 1 -->
<g id="node2" class="node">
<title>1</title>
<text text-anchor="start" x="548.5" y="-581.6" font-family="sans" font-weight="bold" font-size="18.00" fill="#000000">multiqc</text>
<text text-anchor="start" x="364.5" y="-557.8" font-family="sans" font-size="10.00" fill="#000000"> </text>
<text text-anchor="start" x="368.5" y="-557.8" font-family="sans" font-weight="bold" font-size="14.00" fill="#000000">↪ input</text>
<text text-anchor="start" x="421.5" y="-557.8" font-family="sans" font-size="10.00" fill="#000000"> </text>
<text text-anchor="start" x="364.5" y="-538" font-family="monospace" font-size="10.00" fill="#000000">stats/reads/fastqc/extend/tadpole/HD827sonic_1_lib1_collapsed_fastqc.zip</text>
<text text-anchor="start" x="364.5" y="-520" font-family="monospace" font-size="10.00" fill="#000000">stats/reads/fastqc/extend/tadpole/HD827sonic_2_lib1_collapsed_fastqc.zip</text>
<text text-anchor="start" x="364.5" y="-502" font-family="monospace" font-size="10.00" fill="#000000">stats/reads/fastqc/extend/tadpole/HD827sonic_2_lib2_collapsed_fastqc.zip</text>
<text text-anchor="start" x="364.5" y="-484" font-family="monospace" font-size="10.00" fill="#000000">stats/reads/fastqc/extend/tadpole/HD827sonic_2_lib3_collapsed_fastqc.zip</text>
<text text-anchor="start" x="364.5" y="-466" font-family="monospace" font-size="10.00" fill="#000000">stats/reads/fastqc/low_complexity/HD827sonic_1_lib1_collapsed_fastqc.zip</text>
<text text-anchor="start" x="364.5" y="-448" font-family="monospace" font-size="10.00" fill="#000000">stats/reads/fastqc/low_complexity/HD827sonic_2_lib1_collapsed_fastqc.zip</text>
<text text-anchor="start" x="364.5" y="-430" font-family="monospace" font-size="10.00" fill="#000000">stats/reads/fastqc/low_complexity/HD827sonic_2_lib2_collapsed_fastqc.zip</text>
<text text-anchor="start" x="364.5" y="-412" font-family="monospace" font-size="10.00" fill="#000000">stats/reads/fastqc/low_complexity/HD827sonic_2_lib3_collapsed_fastqc.zip</text>
<text text-anchor="start" x="364.5" y="-394" font-family="monospace" font-size="10.00" fill="#000000">stats/reads/fastqc/merge_lanes/HD827sonic_1_lib1_collapsed_fastqc.zip</text>
<text text-anchor="start" x="364.5" y="-376" font-family="monospace" font-size="10.00" fill="#000000">stats/reads/fastqc/merge_lanes/HD827sonic_2_lib1_collapsed_fastqc.zip</text>
<text text-anchor="start" x="364.5" y="-358" font-family="monospace" font-size="10.00" fill="#000000">stats/reads/fastqc/merge_lanes/HD827sonic_2_lib2_collapsed_fastqc.zip</text>
<text text-anchor="start" x="364.5" y="-340" font-family="monospace" font-size="10.00" fill="#000000">stats/reads/fastqc/merge_lanes/HD827sonic_2_lib3_collapsed_fastqc.zip</text>
<text text-anchor="start" x="364.5" y="-322" font-family="monospace" font-size="10.00" fill="#000000">stats/reads/nonpareil/merge_lanes/HD827sonic_1_lib1_collapsed.json</text>
<text text-anchor="start" x="364.5" y="-304" font-family="monospace" font-size="10.00" fill="#000000">stats/reads/nonpareil/merge_lanes/HD827sonic_2_lib1_collapsed.json</text>
<text text-anchor="start" x="364.5" y="-286" font-family="monospace" font-size="10.00" fill="#000000">stats/reads/nonpareil/merge_lanes/HD827sonic_2_lib2_collapsed.json</text>
<text text-anchor="start" x="364.5" y="-268" font-family="monospace" font-size="10.00" fill="#000000">stats/reads/nonpareil/merge_lanes/HD827sonic_2_lib3_collapsed.json</text>
<text text-anchor="start" x="728.5" y="-247.8" font-family="sans" font-size="10.00" fill="#000000"> </text>
<text text-anchor="start" x="732.5" y="-247.8" font-family="sans" font-weight="bold" font-size="14.00" fill="#000000">output →</text>
<text text-anchor="start" x="793.5" y="-247.8" font-family="sans" font-size="10.00" fill="#000000"> </text>
<text text-anchor="start" x="364.5" y="-228" font-family="monospace" font-size="10.00" fill="#000000">reports/multiqc.html</text>
<text text-anchor="start" x="364.5" y="-210" font-family="monospace" font-size="10.00" fill="#000000">reports/multiqc_data.zip</text>
<polygon fill="#57d957" stroke="#57d957" points="358.5,-572 358.5,-572 804.5,-572 804.5,-572 358.5,-572"/>
<polygon fill="#57d957" stroke="#57d957" points="358.5,-262 358.5,-262 804.5,-262 804.5,-262 358.5,-262"/>
<polygon fill="none" stroke="#57d957" stroke-width="2" points="358,-201 358,-601 803,-601 803,-201 358,-201"/>
</g>
<!-- 1&#45;&gt;0 -->
<g id="edge1" class="edge">
<title>1&#45;&gt;0</title>
<path fill="none" stroke="#c0c0c0" stroke-width="2" d="M719.2052,-199.8775C725.6424,-190.5435 731.9387,-181.4139 737.997,-172.6293"/>
<polygon fill="#c0c0c0" stroke="#c0c0c0" stroke-width="2" points="740.9333,-174.5365 743.7295,-164.3173 735.1708,-170.5623 740.9333,-174.5365"/>
</g>
<!-- 2 -->
<g id="node3" class="node">
<title>2</title>
<text text-anchor="start" x="554.5" y="-749.6" font-family="sans" font-weight="bold" font-size="18.00" fill="#000000">fastqc</text>
<text text-anchor="start" x="175.5" y="-725.8" font-family="sans" font-size="10.00" fill="#000000"> </text>
<text text-anchor="start" x="179.5" y="-725.8" font-family="sans" font-weight="bold" font-size="14.00" fill="#000000">↪ input</text>
<text text-anchor="start" x="232.5" y="-725.8" font-family="sans" font-size="10.00" fill="#000000"> </text>
<text text-anchor="start" x="175.5" y="-706" font-family="monospace" font-size="10.00" fill="#000000">&lt;input function&gt;</text>
<text text-anchor="start" x="917.5" y="-685.8" font-family="sans" font-size="10.00" fill="#000000"> </text>
<text text-anchor="start" x="921.5" y="-685.8" font-family="sans" font-weight="bold" font-size="14.00" fill="#000000">output →</text>
<text text-anchor="start" x="982.5" y="-685.8" font-family="sans" font-size="10.00" fill="#000000"> </text>
<text text-anchor="start" x="175.5" y="-666" font-family="monospace" font-size="10.00" fill="#000000">stats/reads/fastqc/{tool,merge_lanes|extend/tadpole|derep|represent/grep|low_complexity}/{sample}_{library}_{read_type_trim}.html</text>
<text text-anchor="start" x="175.5" y="-648" font-family="monospace" font-size="10.00" fill="#000000">stats/reads/fastqc/{tool,merge_lanes|extend/tadpole|derep|represent/grep|low_complexity}/{sample}_{library}_{read_type_trim}_fastqc.zip</text>
<polygon fill="#d9ad57" stroke="#d9ad57" points="169.5,-740 169.5,-740 993.5,-740 993.5,-740 169.5,-740"/>
<polygon fill="#d9ad57" stroke="#d9ad57" points="169.5,-700 169.5,-700 993.5,-700 993.5,-700 169.5,-700"/>
<polygon fill="none" stroke="#d9ad57" stroke-width="2" points="169,-639 169,-769 992,-769 992,-639 169,-639"/>
</g>
<!-- 2&#45;&gt;1 -->
<g id="edge4" class="edge">
<title>2&#45;&gt;1</title>
<path fill="none" stroke="#c0c0c0" stroke-width="2" d="M580.5,-637.8798C580.5,-629.7827 580.5,-621.2026 580.5,-612.2939"/>
<polygon fill="#c0c0c0" stroke="#c0c0c0" stroke-width="2" points="584.0001,-612.1042 580.5,-602.1043 577.0001,-612.1043 584.0001,-612.1042"/>
</g>
<!-- 3 -->
<g id="node4" class="node">
<title>3</title>
<text text-anchor="start" x="564.5" y="-1475.6" font-family="sans" font-weight="bold" font-size="18.00" fill="#000000">merge_lanes</text>
<text text-anchor="start" x="417.5" y="-1451.8" font-family="sans" font-size="10.00" fill="#000000"> </text>
<text text-anchor="start" x="421.5" y="-1451.8" font-family="sans" font-weight="bold" font-size="14.00" fill="#000000">↪ input</text>
<text text-anchor="start" x="474.5" y="-1451.8" font-family="sans" font-size="10.00" fill="#000000"> </text>
<text text-anchor="start" x="417.5" y="-1432" font-family="monospace" font-size="10.00" fill="#000000">&lt;input function&gt;</text>
<text text-anchor="start" x="751.5" y="-1411.8" font-family="sans" font-size="10.00" fill="#000000"> </text>
<text text-anchor="start" x="755.5" y="-1411.8" font-family="sans" font-weight="bold" font-size="14.00" fill="#000000">output →</text>
<text text-anchor="start" x="816.5" y="-1411.8" font-family="sans" font-size="10.00" fill="#000000"> </text>
<text text-anchor="start" x="417.5" y="-1392" font-family="monospace" font-size="10.00" fill="#000000">temp/reads/merge_lanes/{sample}_{library}_{read_type_trim}.fastq.gz</text>
<polygon fill="#82d957" stroke="#82d957" points="411.5,-1466 411.5,-1466 827.5,-1466 827.5,-1466 411.5,-1466"/>
<polygon fill="#82d957" stroke="#82d957" points="411.5,-1426 411.5,-1426 827.5,-1426 827.5,-1426 411.5,-1426"/>
<polygon fill="none" stroke="#82d957" stroke-width="2" points="411,-1383 411,-1495 826,-1495 826,-1383 411,-1383"/>
</g>
<!-- 3&#45;&gt;2 -->
<g id="edge7" class="edge">
<title>3&#45;&gt;2</title>
<path fill="none" stroke="#c0c0c0" stroke-width="2" d="M544.1336,-1381.9388C534.529,-1371.108 526.1016,-1359.0382 520.5,-1346 438.4577,-1155.0393 506.9761,-903.385 550.8208,-779.5148"/>
<polygon fill="#c0c0c0" stroke="#c0c0c0" stroke-width="2" points="554.117,-780.6916 554.1942,-770.097 547.527,-778.331 554.117,-780.6916"/>
</g>
<!-- 5 -->
<g id="node6" class="node">
<title>5</title>
<text text-anchor="start" x="194.5" y="-1325.6" font-family="sans" font-weight="bold" font-size="18.00" fill="#000000">nonpareil_infer</text>
<text text-anchor="start" x="55.5" y="-1301.8" font-family="sans" font-size="10.00" fill="#000000"> </text>
<text text-anchor="start" x="59.5" y="-1301.8" font-family="sans" font-weight="bold" font-size="14.00" fill="#000000">↪ input</text>
<text text-anchor="start" x="112.5" y="-1301.8" font-family="sans" font-size="10.00" fill="#000000"> </text>
<text text-anchor="start" x="55.5" y="-1282" font-family="monospace" font-size="10.00" fill="#000000">&lt;input function&gt;</text>
<text text-anchor="start" x="395.5" y="-1261.8" font-family="sans" font-size="10.00" fill="#000000"> </text>
<text text-anchor="start" x="399.5" y="-1261.8" font-family="sans" font-weight="bold" font-size="14.00" fill="#000000">output →</text>
<text text-anchor="start" x="460.5" y="-1261.8" font-family="sans" font-size="10.00" fill="#000000"> </text>
<text text-anchor="start" x="55.5" y="-1242" font-family="monospace" font-size="10.00" fill="#000000">stats/reads/nonpareil/{tool}/{sample}_{library}_{read_type_trim}.log</text>
<text text-anchor="start" x="55.5" y="-1224" font-family="monospace" font-size="10.00" fill="#000000">stats/reads/nonpareil/{tool}/{sample}_{library}_{read_type_trim}.npa</text>
<text text-anchor="start" x="55.5" y="-1206" font-family="monospace" font-size="10.00" fill="#000000">stats/reads/nonpareil/{tool}/{sample}_{library}_{read_type_trim}.npc</text>
<text text-anchor="start" x="55.5" y="-1188" font-family="monospace" font-size="10.00" fill="#000000">stats/reads/nonpareil/{tool}/{sample}_{library}_{read_type_trim}.npo</text>
<polygon fill="#57d982" stroke="#57d982" points="49.5,-1316 49.5,-1316 471.5,-1316 471.5,-1316 49.5,-1316"/>
<polygon fill="#57d982" stroke="#57d982" points="49.5,-1276 49.5,-1276 471.5,-1276 471.5,-1276 49.5,-1276"/>
<polygon fill="none" stroke="#57d982" stroke-width="2" points="49,-1179 49,-1345 470,-1345 470,-1179 49,-1179"/>
</g>
<!-- 3&#45;&gt;5 -->
<g id="edge9" class="edge">
<title>3&#45;&gt;5</title>
<path fill="none" stroke="#c0c0c0" stroke-width="2" d="M502.4388,-1381.7776C482.1835,-1371.791 460.6914,-1361.1946 439.1955,-1350.5964"/>
<polygon fill="#c0c0c0" stroke="#c0c0c0" stroke-width="2" points="440.5033,-1347.3389 429.9864,-1346.056 437.4078,-1353.6173 440.5033,-1347.3389"/>
</g>
<!-- 6 -->
<g id="node7" class="node">
<title>6</title>
<text text-anchor="start" x="754" y="-1121.6" font-family="sans" font-weight="bold" font-size="18.00" fill="#000000">extend_tadpole</text>
<text text-anchor="start" x="609.5" y="-1097.8" font-family="sans" font-size="10.00" fill="#000000"> </text>
<text text-anchor="start" x="613.5" y="-1097.8" font-family="sans" font-weight="bold" font-size="14.00" fill="#000000">↪ input</text>
<text text-anchor="start" x="666.5" y="-1097.8" font-family="sans" font-size="10.00" fill="#000000"> </text>
<text text-anchor="start" x="609.5" y="-1078" font-family="monospace" font-size="10.00" fill="#000000">logs/reads/extend/loglog/{sample}_{library}_{read_type_trim}.log</text>
<text text-anchor="start" x="609.5" y="-1060" font-family="monospace" font-size="10.00" fill="#000000">temp/reads/extend/loglog/{sample}_{library}_{read_type_trim}.flag</text>
<text text-anchor="start" x="609.5" y="-1042" font-family="monospace" font-size="10.00" fill="#000000">temp/reads/merge_lanes/{sample}_{library}_{read_type_trim}.fastq.gz</text>
<text text-anchor="start" x="961.5" y="-1021.8" font-family="sans" font-size="10.00" fill="#000000"> </text>
<text text-anchor="start" x="965.5" y="-1021.8" font-family="sans" font-weight="bold" font-size="14.00" fill="#000000">output →</text>
<text text-anchor="start" x="1026.5" y="-1021.8" font-family="sans" font-size="10.00" fill="#000000"> </text>
<text text-anchor="start" x="609.5" y="-1002" font-family="monospace" font-size="10.00" fill="#000000">temp/reads/extend/tadpole/{sample}_{library}_{read_type_trim}.fastq.gz</text>
<polygon fill="#d98257" stroke="#d98257" points="603.5,-1112 603.5,-1112 1037.5,-1112 1037.5,-1112 603.5,-1112"/>
<polygon fill="#d98257" stroke="#d98257" points="603.5,-1036 603.5,-1036 1037.5,-1036 1037.5,-1036 603.5,-1036"/>
<polygon fill="none" stroke="#d98257" stroke-width="2" points="603,-993 603,-1141 1036,-1141 1036,-993 603,-993"/>
</g>
<!-- 3&#45;&gt;6 -->
<g id="edge11" class="edge">
<title>3&#45;&gt;6</title>
<path fill="none" stroke="#c0c0c0" stroke-width="2" d="M827.2845,-1402.8153C885.5079,-1388.2482 937.7594,-1369.2996 955.5,-1346 1000.7328,-1286.5937 987.5151,-1245.4548 955.5,-1178 950.7977,-1168.0923 944.7302,-1158.7768 937.7742,-1150.0827"/>
<polygon fill="#c0c0c0" stroke="#c0c0c0" stroke-width="2" points="940.288,-1147.6355 931.1499,-1142.2739 934.9499,-1152.1638 940.288,-1147.6355"/>
</g>
<!-- 7 -->
<g id="node8" class="node">
<title>7</title>
<text text-anchor="start" x="710" y="-1298.6" font-family="sans" font-weight="bold" font-size="18.00" fill="#000000">loglog</text>
<text text-anchor="start" x="536.5" y="-1274.8" font-family="sans" font-size="10.00" fill="#000000"> </text>
<text text-anchor="start" x="540.5" y="-1274.8" font-family="sans" font-weight="bold" font-size="14.00" fill="#000000">↪ input</text>
<text text-anchor="start" x="593.5" y="-1274.8" font-family="sans" font-size="10.00" fill="#000000"> </text>
<text text-anchor="start" x="536.5" y="-1255" font-family="monospace" font-size="10.00" fill="#000000">temp/reads/merge_lanes/{sample}_{library}_{read_type_trim}.fastq.gz</text>
<text text-anchor="start" x="870.5" y="-1234.8" font-family="sans" font-size="10.00" fill="#000000"> </text>
<text text-anchor="start" x="874.5" y="-1234.8" font-family="sans" font-weight="bold" font-size="14.00" fill="#000000">output →</text>
<text text-anchor="start" x="935.5" y="-1234.8" font-family="sans" font-size="10.00" fill="#000000"> </text>
<text text-anchor="start" x="536.5" y="-1215" font-family="monospace" font-size="10.00" fill="#000000">temp/reads/extend/loglog/{sample}_{library}_{read_type_trim}.flag</text>
<polygon fill="#d9d957" stroke="#d9d957" points="530.5,-1289 530.5,-1289 946.5,-1289 946.5,-1289 530.5,-1289"/>
<polygon fill="#d9d957" stroke="#d9d957" points="530.5,-1249 530.5,-1249 946.5,-1249 946.5,-1249 530.5,-1249"/>
<polygon fill="none" stroke="#d9d957" stroke-width="2" points="530,-1206 530,-1318 945,-1318 945,-1206 530,-1206"/>
</g>
<!-- 3&#45;&gt;7 -->
<g id="edge12" class="edge">
<title>3&#45;&gt;7</title>
<path fill="none" stroke="#c0c0c0" stroke-width="2" d="M657.1359,-1381.5332C668.6837,-1364.3571 681.432,-1345.3953 693.3074,-1327.7319"/>
<polygon fill="#c0c0c0" stroke="#c0c0c0" stroke-width="2" points="696.3831,-1329.4301 699.058,-1319.1785 690.5739,-1325.5245 696.3831,-1329.4301"/>
</g>
<!-- 4 -->
<g id="node5" class="node">
<title>4</title>
<text text-anchor="start" x="155" y="-935.6" font-family="sans" font-weight="bold" font-size="18.00" fill="#000000">nonpareil_plot</text>
<text text-anchor="start" x="7.5" y="-911.8" font-family="sans" font-size="10.00" fill="#000000"> </text>
<text text-anchor="start" x="11.5" y="-911.8" font-family="sans" font-weight="bold" font-size="14.00" fill="#000000">↪ input</text>
<text text-anchor="start" x="64.5" y="-911.8" font-family="sans" font-size="10.00" fill="#000000"> </text>
<text text-anchor="start" x="7.5" y="-892" font-family="monospace" font-size="10.00" fill="#000000">stats/reads/nonpareil/{tool}/{sample}_{library}_{read_type_trim}.npo</text>
<text text-anchor="start" x="359.5" y="-871.8" font-family="sans" font-size="10.00" fill="#000000"> </text>
<text text-anchor="start" x="363.5" y="-871.8" font-family="sans" font-weight="bold" font-size="14.00" fill="#000000">output →</text>
<text text-anchor="start" x="424.5" y="-871.8" font-family="sans" font-size="10.00" fill="#000000"> </text>
<text text-anchor="start" x="7.5" y="-852" font-family="monospace" font-size="10.00" fill="#000000">reports/reads/nonpareil/{tool}/{sample}_{library}_{read_type_trim}.pdf</text>
<text text-anchor="start" x="7.5" y="-834" font-family="monospace" font-size="10.00" fill="#000000">stats/reads/nonpareil/{tool}/{sample}_{library}_{read_type_trim}.json</text>
<text text-anchor="start" x="7.5" y="-816" font-family="monospace" font-size="10.00" fill="#000000">stats/reads/nonpareil/{tool}/{sample}_{library}_{read_type_trim}.tsv</text>
<polygon fill="#57d9ad" stroke="#57d9ad" points="1.5,-926 1.5,-926 435.5,-926 435.5,-926 1.5,-926"/>
<polygon fill="#57d9ad" stroke="#57d9ad" points="1.5,-886 1.5,-886 435.5,-886 435.5,-886 1.5,-886"/>
<polygon fill="none" stroke="#57d9ad" stroke-width="2" points="1,-807 1,-955 434,-955 434,-807 1,-807"/>
</g>
<!-- 4&#45;&gt;1 -->
<g id="edge3" class="edge">
<title>4&#45;&gt;1</title>
<path fill="none" stroke="#c0c0c0" stroke-width="2" d="M171.7631,-805.8425C147.5355,-755.5552 128.4016,-689.4238 158.5,-638 200.8168,-565.7008 274.1765,-513.7696 347.9822,-477.3074"/>
<polygon fill="#c0c0c0" stroke="#c0c0c0" stroke-width="2" points="349.5161,-480.4535 356.9831,-472.9372 346.4586,-474.1565 349.5161,-480.4535"/>
</g>
<!-- 5&#45;&gt;4 -->
<g id="edge8" class="edge">
<title>5&#45;&gt;4</title>
<path fill="none" stroke="#c0c0c0" stroke-width="2" d="M250.2309,-1177.9163C243.3087,-1115.1218 233.8826,-1029.6137 226.9235,-966.4847"/>
<polygon fill="#c0c0c0" stroke="#c0c0c0" stroke-width="2" points="230.3598,-965.7136 225.7851,-956.1574 223.402,-966.4807 230.3598,-965.7136"/>
</g>
<!-- 6&#45;&gt;2 -->
<g id="edge5" class="edge">
<title>6&#45;&gt;2</title>
<path fill="none" stroke="#c0c0c0" stroke-width="2" d="M633.1615,-991.883C620.6837,-981.362 609.5177,-969.4554 600.5,-956 566.1837,-904.7965 563.5012,-833.9266 568.0711,-780.381"/>
<polygon fill="#c0c0c0" stroke="#c0c0c0" stroke-width="2" points="571.5717,-780.5414 569.0386,-770.2539 564.6034,-779.8757 571.5717,-780.5414"/>
</g>
<!-- 8 -->
<g id="node9" class="node">
<title>8</title>
<text text-anchor="start" x="790" y="-935.6" font-family="sans" font-weight="bold" font-size="18.00" fill="#000000">low_complexity</text>
<text text-anchor="start" x="616.5" y="-911.8" font-family="sans" font-size="10.00" fill="#000000"> </text>
<text text-anchor="start" x="620.5" y="-911.8" font-family="sans" font-weight="bold" font-size="14.00" fill="#000000">↪ input</text>
<text text-anchor="start" x="673.5" y="-911.8" font-family="sans" font-size="10.00" fill="#000000"> </text>
<text text-anchor="start" x="616.5" y="-892" font-family="monospace" font-size="10.00" fill="#000000">temp/reads/extend/tadpole/{sample}_{library}_{read_type_trim}.fastq.gz</text>
<text text-anchor="start" x="1028.5" y="-871.8" font-family="sans" font-size="10.00" fill="#000000"> </text>
<text text-anchor="start" x="1032.5" y="-871.8" font-family="sans" font-weight="bold" font-size="14.00" fill="#000000">output →</text>
<text text-anchor="start" x="1093.5" y="-871.8" font-family="sans" font-size="10.00" fill="#000000"> </text>
<text text-anchor="start" x="616.5" y="-852" font-family="monospace" font-size="10.00" fill="#000000">results/reads/low_complexity/{sample}_{library}_{read_type_trim}.fastq.gz</text>
<text text-anchor="start" x="616.5" y="-834" font-family="monospace" font-size="10.00" fill="#000000">stats/reads/low_complexity/{sample}_{library}_{read_type_trim}.txt</text>
<text text-anchor="start" x="616.5" y="-816" font-family="monospace" font-size="10.00" fill="#000000">temp/reads/low_complexity/{sample}_{library}_{read_type_trim}.discarded.fastq.gz</text>
<polygon fill="#add957" stroke="#add957" points="610.5,-926 610.5,-926 1104.5,-926 1104.5,-926 610.5,-926"/>
<polygon fill="#add957" stroke="#add957" points="610.5,-886 610.5,-886 1104.5,-886 1104.5,-886 610.5,-886"/>
<polygon fill="none" stroke="#add957" stroke-width="2" points="610,-807 610,-955 1103,-955 1103,-807 610,-807"/>
</g>
<!-- 6&#45;&gt;8 -->
<g id="edge13" class="edge">
<title>6&#45;&gt;8</title>
<path fill="none" stroke="#c0c0c0" stroke-width="2" d="M834.4427,-991.8828C836.1293,-983.4042 837.8569,-974.7194 839.5665,-966.125"/>
<polygon fill="#c0c0c0" stroke="#c0c0c0" stroke-width="2" points="843.0433,-966.5859 841.5617,-956.0952 836.1779,-965.2202 843.0433,-966.5859"/>
</g>
<!-- 7&#45;&gt;6 -->
<g id="edge10" class="edge">
<title>7&#45;&gt;6</title>
<path fill="none" stroke="#c0c0c0" stroke-width="2" d="M761.5486,-1204.8111C768.5509,-1188.1595 776.3537,-1169.6039 783.9074,-1151.6409"/>
<polygon fill="#c0c0c0" stroke="#c0c0c0" stroke-width="2" points="787.1791,-1152.8896 787.8292,-1142.3147 780.7264,-1150.1761 787.1791,-1152.8896"/>
</g>
<!-- 8&#45;&gt;0 -->
<g id="edge2" class="edge">
<title>8&#45;&gt;0</title>
<path fill="none" stroke="#c0c0c0" stroke-width="2" d="M976.9154,-805.9535C987.1099,-795.112 995.9926,-783.1219 1002.5,-770 1028.5647,-717.4414 1012.6705,-695.7784 1002.5,-638 972.5709,-467.9732 894.8489,-281.5042 845.0046,-173.4984"/>
<polygon fill="#c0c0c0" stroke="#c0c0c0" stroke-width="2" points="848.1014,-171.8567 840.7193,-164.257 841.7509,-174.8015 848.1014,-171.8567"/>
</g>
<!-- 8&#45;&gt;2 -->
<g id="edge6" class="edge">
<title>8&#45;&gt;2</title>
<path fill="none" stroke="#c0c0c0" stroke-width="2" d="M739.4512,-805.9361C723.8316,-795.9192 707.8453,-785.6671 692.3182,-775.7095"/>
<polygon fill="#c0c0c0" stroke="#c0c0c0" stroke-width="2" points="694.0516,-772.6633 683.7445,-770.2111 690.2728,-778.5557 694.0516,-772.6633"/>
</g>
</g>
</svg>
