<?xml version="1.0" encoding="UTF-8" standalone="no"?>
<!DOCTYPE svg PUBLIC "-//W3C//DTD SVG 1.1//EN"
 "http://www.w3.org/Graphics/SVG/1.1/DTD/svg11.dtd">
<!-- Generated by graphviz version 2.40.1 (0)
 -->
<!-- Title: snakemake_dag Pages: 1 -->
<svg width="210pt" height="548pt"
 viewBox="0.00 0.00 210.00 548.00" xmlns="http://www.w3.org/2000/svg" xmlns:xlink="http://www.w3.org/1999/xlink">
<g id="graph0" class="graph" transform="scale(1 1) rotate(0) translate(4 544)">
<title>snakemake_dag</title>
<polygon fill="#ffffff" stroke="transparent" points="-4,4 -4,-544 206,-544 206,4 -4,4"/>
<!-- 0 -->
<g id="node1" class="node">
<title>0</title>
<path fill="none" stroke="#d85656" stroke-width="2" d="M80,-36C80,-36 50,-36 50,-36 44,-36 38,-30 38,-24 38,-24 38,-12 38,-12 38,-6 44,0 50,0 50,0 80,0 80,0 86,0 92,-6 92,-12 92,-12 92,-24 92,-24 92,-30 86,-36 80,-36"/>
<text text-anchor="middle" x="65" y="-15.5" font-family="sans" font-size="10.00" fill="#000000">all</text>
</g>
<!-- 1 -->
<g id="node2" class="node">
<title>1</title>
<path fill="none" stroke="#59d856" stroke-width="2" d="M53,-108C53,-108 23,-108 23,-108 17,-108 11,-102 11,-96 11,-96 11,-84 11,-84 11,-78 17,-72 23,-72 23,-72 53,-72 53,-72 59,-72 65,-78 65,-84 65,-84 65,-96 65,-96 65,-102 59,-108 53,-108"/>
<text text-anchor="middle" x="38" y="-87.5" font-family="sans" font-size="10.00" fill="#000000">multiqc</text>
</g>
<!-- 1&#45;&gt;0 -->
<g id="edge1" class="edge">
<title>1&#45;&gt;0</title>
<path fill="none" stroke="#c0c0c0" stroke-width="2" d="M44.8132,-71.8314C47.7644,-63.9617 51.2858,-54.5712 54.555,-45.8533"/>
<polygon fill="#c0c0c0" stroke="#c0c0c0" stroke-width="2" points="57.8609,-47.0055 58.095,-36.4133 51.3066,-44.5476 57.8609,-47.0055"/>
</g>
<!-- 2 -->
<g id="node3" class="node">
<title>2</title>
<path fill="none" stroke="#d8ac56" stroke-width="2" d="M42,-252C42,-252 12,-252 12,-252 6,-252 0,-246 0,-240 0,-240 0,-228 0,-228 0,-222 6,-216 12,-216 12,-216 42,-216 42,-216 48,-216 54,-222 54,-228 54,-228 54,-240 54,-240 54,-246 48,-252 42,-252"/>
<text text-anchor="middle" x="27" y="-231.5" font-family="sans" font-size="10.00" fill="#000000">fastqc</text>
</g>
<!-- 2&#45;&gt;1 -->
<g id="edge4" class="edge">
<title>2&#45;&gt;1</title>
<path fill="none" stroke="#c0c0c0" stroke-width="2" d="M28.3932,-215.7623C30.2694,-191.201 33.6269,-147.2474 35.8341,-118.3541"/>
<polygon fill="#c0c0c0" stroke="#c0c0c0" stroke-width="2" points="39.3462,-118.3272 36.6182,-108.0896 32.3666,-117.794 39.3462,-118.3272"/>
</g>
<!-- 3 -->
<g id="node4" class="node">
<title>3</title>
<path fill="none" stroke="#80d856" stroke-width="2" d="M115,-540C115,-540 67,-540 67,-540 61,-540 55,-534 55,-528 55,-528 55,-516 55,-516 55,-510 61,-504 67,-504 67,-504 115,-504 115,-504 121,-504 127,-510 127,-516 127,-516 127,-528 127,-528 127,-534 121,-540 115,-540"/>
<text text-anchor="middle" x="91" y="-519.5" font-family="sans" font-size="10.00" fill="#000000">merge_lanes</text>
</g>
<!-- 3&#45;&gt;2 -->
<g id="edge7" class="edge">
<title>3&#45;&gt;2</title>
<path fill="none" stroke="#c0c0c0" stroke-width="2" d="M82.3333,-503.9994C66.5554,-469.8734 34.1108,-392.9967 27,-324 24.8809,-303.4381 24.952,-280.0932 25.5155,-262.3327"/>
<polygon fill="#c0c0c0" stroke="#c0c0c0" stroke-width="2" points="29.0132,-262.4559 25.903,-252.3279 22.0185,-262.1849 29.0132,-262.4559"/>
</g>
<!-- 5 -->
<g id="node6" class="node">
<title>5</title>
<path fill="none" stroke="#56d882" stroke-width="2" d="M190,-252C190,-252 134,-252 134,-252 128,-252 122,-246 122,-240 122,-240 122,-228 122,-228 122,-222 128,-216 134,-216 134,-216 190,-216 190,-216 196,-216 202,-222 202,-228 202,-228 202,-240 202,-240 202,-246 196,-252 190,-252"/>
<text text-anchor="middle" x="162" y="-231.5" font-family="sans" font-size="10.00" fill="#000000">nonpareil_infer</text>
</g>
<!-- 3&#45;&gt;5 -->
<g id="edge11" class="edge">
<title>3&#45;&gt;5</title>
<path fill="none" stroke="#c0c0c0" stroke-width="2" d="M122.0219,-503.7701C134.5166,-494.6989 147.6815,-482.5449 155,-468 188.8961,-400.635 177.3342,-307.9954 168.4031,-262.1074"/>
<polygon fill="#c0c0c0" stroke="#c0c0c0" stroke-width="2" points="171.8233,-261.3627 166.3866,-252.2691 164.9658,-262.7683 171.8233,-261.3627"/>
</g>
<!-- 6 -->
<g id="node7" class="node">
<title>6</title>
<path fill="none" stroke="#d88556" stroke-width="2" d="M122.5,-396C122.5,-396 63.5,-396 63.5,-396 57.5,-396 51.5,-390 51.5,-384 51.5,-384 51.5,-372 51.5,-372 51.5,-366 57.5,-360 63.5,-360 63.5,-360 122.5,-360 122.5,-360 128.5,-360 134.5,-366 134.5,-372 134.5,-372 134.5,-384 134.5,-384 134.5,-390 128.5,-396 122.5,-396"/>
<text text-anchor="middle" x="93" y="-375.5" font-family="sans" font-size="10.00" fill="#000000">extend_tadpole</text>
</g>
<!-- 3&#45;&gt;6 -->
<g id="edge13" class="edge">
<title>3&#45;&gt;6</title>
<path fill="none" stroke="#c0c0c0" stroke-width="2" d="M87.585,-503.5804C85.8291,-493.1767 83.8774,-479.9092 83,-468 81.8244,-452.0432 81.5372,-447.933 83,-432 83.7723,-423.5885 85.2077,-414.5317 86.7547,-406.2836"/>
<polygon fill="#c0c0c0" stroke="#c0c0c0" stroke-width="2" points="90.2067,-406.8697 88.7325,-396.3779 83.3422,-405.499 90.2067,-406.8697"/>
</g>
<!-- 7 -->
<g id="node8" class="node">
<title>7</title>
<path fill="none" stroke="#d6d856" stroke-width="2" d="M134,-468C134,-468 104,-468 104,-468 98,-468 92,-462 92,-456 92,-456 92,-444 92,-444 92,-438 98,-432 104,-432 104,-432 134,-432 134,-432 140,-432 146,-438 146,-444 146,-444 146,-456 146,-456 146,-462 140,-468 134,-468"/>
<text text-anchor="middle" x="119" y="-447.5" font-family="sans" font-size="10.00" fill="#000000">loglog</text>
</g>
<!-- 3&#45;&gt;7 -->
<g id="edge14" class="edge">
<title>3&#45;&gt;7</title>
<path fill="none" stroke="#c0c0c0" stroke-width="2" d="M98.0656,-503.8314C101.126,-495.9617 104.7779,-486.5712 108.1682,-477.8533"/>
<polygon fill="#c0c0c0" stroke="#c0c0c0" stroke-width="2" points="111.4768,-479.0019 111.8393,-468.4133 104.9527,-476.4647 111.4768,-479.0019"/>
</g>
<!-- 4 -->
<g id="node5" class="node">
<title>4</title>
<path fill="none" stroke="#56d8a9" stroke-width="2" d="M187.5,-180C187.5,-180 134.5,-180 134.5,-180 128.5,-180 122.5,-174 122.5,-168 122.5,-168 122.5,-156 122.5,-156 122.5,-150 128.5,-144 134.5,-144 134.5,-144 187.5,-144 187.5,-144 193.5,-144 199.5,-150 199.5,-156 199.5,-156 199.5,-168 199.5,-168 199.5,-174 193.5,-180 187.5,-180"/>
<text text-anchor="middle" x="161" y="-159.5" font-family="sans" font-size="10.00" fill="#000000">nonpareil_plot</text>
</g>
<!-- 4&#45;&gt;1 -->
<g id="edge3" class="edge">
<title>4&#45;&gt;1</title>
<path fill="none" stroke="#c0c0c0" stroke-width="2" d="M129.9619,-143.8314C112.9929,-133.8983 91.8846,-121.5422 74.1724,-111.1741"/>
<polygon fill="#c0c0c0" stroke="#c0c0c0" stroke-width="2" points="75.6578,-107.9881 65.2595,-105.9568 72.1215,-114.0292 75.6578,-107.9881"/>
</g>
<!-- 5&#45;&gt;4 -->
<g id="edge8" class="edge">
<title>5&#45;&gt;4</title>
<path fill="none" stroke="#c0c0c0" stroke-width="2" d="M161.7477,-215.8314C161.6407,-208.131 161.5135,-198.9743 161.3947,-190.4166"/>
<polygon fill="#c0c0c0" stroke="#c0c0c0" stroke-width="2" points="164.8944,-190.3637 161.2557,-180.4133 157.8951,-190.4609 164.8944,-190.3637"/>
</g>
<!-- 6&#45;&gt;2 -->
<g id="edge6" class="edge">
<title>6&#45;&gt;2</title>
<path fill="none" stroke="#c0c0c0" stroke-width="2" d="M70.6799,-359.9651C60.3262,-350.3781 48.8262,-337.7435 42,-324 32.4576,-304.7877 28.8134,-280.7168 27.4975,-262.3039"/>
<polygon fill="#c0c0c0" stroke="#c0c0c0" stroke-width="2" points="30.9863,-261.9978 26.9648,-252.1959 23.996,-262.3663 30.9863,-261.9978"/>
</g>
<!-- 6&#45;&gt;5 -->
<g id="edge10" class="edge">
<title>6&#45;&gt;5</title>
<path fill="none" stroke="#c0c0c0" stroke-width="2" d="M115.1305,-359.869C125.4376,-350.2584 136.9531,-337.6316 144,-324 153.9093,-304.8311 158.3717,-280.7577 160.377,-262.3327"/>
<polygon fill="#c0c0c0" stroke="#c0c0c0" stroke-width="2" points="163.8768,-262.4926 161.2964,-252.2169 156.9056,-261.859 163.8768,-262.4926"/>
</g>
<!-- 8 -->
<g id="node9" class="node">
<title>8</title>
<path fill="none" stroke="#afd856" stroke-width="2" d="M123,-324C123,-324 63,-324 63,-324 57,-324 51,-318 51,-312 51,-312 51,-300 51,-300 51,-294 57,-288 63,-288 63,-288 123,-288 123,-288 129,-288 135,-294 135,-300 135,-300 135,-312 135,-312 135,-318 129,-324 123,-324"/>
<text text-anchor="middle" x="93" y="-303.5" font-family="sans" font-size="10.00" fill="#000000">low_complexity</text>
</g>
<!-- 6&#45;&gt;8 -->
<g id="edge15" class="edge">
<title>6&#45;&gt;8</title>
<path fill="none" stroke="#c0c0c0" stroke-width="2" d="M93,-359.8314C93,-352.131 93,-342.9743 93,-334.4166"/>
<polygon fill="#c0c0c0" stroke="#c0c0c0" stroke-width="2" points="96.5001,-334.4132 93,-324.4133 89.5001,-334.4133 96.5001,-334.4132"/>
</g>
<!-- 7&#45;&gt;6 -->
<g id="edge12" class="edge">
<title>7&#45;&gt;6</title>
<path fill="none" stroke="#c0c0c0" stroke-width="2" d="M112.4391,-431.8314C109.5973,-423.9617 106.2063,-414.5712 103.0581,-405.8533"/>
<polygon fill="#c0c0c0" stroke="#c0c0c0" stroke-width="2" points="106.3377,-404.63 99.6492,-396.4133 99.7538,-407.0076 106.3377,-404.63"/>
</g>
<!-- 8&#45;&gt;0 -->
<g id="edge2" class="edge">
<title>8&#45;&gt;0</title>
<path fill="none" stroke="#c0c0c0" stroke-width="2" d="M92.0418,-287.742C89.8555,-248.2716 83.9081,-152.0917 74,-72 72.9662,-63.6435 71.5701,-54.6036 70.1862,-46.3541"/>
<polygon fill="#c0c0c0" stroke="#c0c0c0" stroke-width="2" points="73.6241,-45.694 68.468,-36.4384 66.7268,-46.8892 73.6241,-45.694"/>
</g>
<!-- 8&#45;&gt;2 -->
<g id="edge5" class="edge">
<title>8&#45;&gt;2</title>
<path fill="none" stroke="#c0c0c0" stroke-width="2" d="M76.3454,-287.8314C68.5886,-279.3694 59.2198,-269.1489 50.739,-259.8971"/>
<polygon fill="#c0c0c0" stroke="#c0c0c0" stroke-width="2" points="53.2162,-257.4198 43.8788,-252.4133 48.0561,-262.1499 53.2162,-257.4198"/>
</g>
<!-- 8&#45;&gt;5 -->
<g id="edge9" class="edge">
<title>8&#45;&gt;5</title>
<path fill="none" stroke="#c0c0c0" stroke-width="2" d="M110.4116,-287.8314C118.521,-279.3694 128.3156,-269.1489 137.182,-259.8971"/>
<polygon fill="#c0c0c0" stroke="#c0c0c0" stroke-width="2" points="139.9618,-262.0549 144.354,-252.4133 134.9079,-257.2115 139.9618,-262.0549"/>
</g>
</g>
</svg>
