<?xml version="1.0" encoding="UTF-8" standalone="no"?>
<!DOCTYPE svg PUBLIC "-//W3C//DTD SVG 1.1//EN"
 "http://www.w3.org/Graphics/SVG/1.1/DTD/svg11.dtd">
<!-- Generated by graphviz version 2.40.1 (0)
 -->
<!-- Title: snakemake_dag Pages: 1 -->
<svg width="266pt" height="476pt"
 viewBox="0.00 0.00 266.00 476.00" xmlns="http://www.w3.org/2000/svg" xmlns:xlink="http://www.w3.org/1999/xlink">
<g id="graph0" class="graph" transform="scale(1 1) rotate(0) translate(4 472)">
<title>snakemake_dag</title>
<polygon fill="#ffffff" stroke="transparent" points="-4,4 -4,-472 262,-472 262,4 -4,4"/>
<!-- 0 -->
<g id="node1" class="node">
<title>0</title>
<path fill="none" stroke="#d85656" stroke-width="2" d="M188,-36C188,-36 158,-36 158,-36 152,-36 146,-30 146,-24 146,-24 146,-12 146,-12 146,-6 152,0 158,0 158,0 188,0 188,0 194,0 200,-6 200,-12 200,-12 200,-24 200,-24 200,-30 194,-36 188,-36"/>
<text text-anchor="middle" x="173" y="-15.5" font-family="sans" font-size="10.00" fill="#000000">all</text>
</g>
<!-- 1 -->
<g id="node2" class="node">
<title>1</title>
<path fill="none" stroke="#59d856" stroke-width="2" d="M161,-108C161,-108 131,-108 131,-108 125,-108 119,-102 119,-96 119,-96 119,-84 119,-84 119,-78 125,-72 131,-72 131,-72 161,-72 161,-72 167,-72 173,-78 173,-84 173,-84 173,-96 173,-96 173,-102 167,-108 161,-108"/>
<text text-anchor="middle" x="146" y="-87.5" font-family="sans" font-size="10.00" fill="#000000">multiqc</text>
</g>
<!-- 1&#45;&gt;0 -->
<g id="edge2" class="edge">
<title>1&#45;&gt;0</title>
<path fill="none" stroke="#c0c0c0" stroke-width="2" d="M152.8132,-71.8314C155.7644,-63.9617 159.2858,-54.5712 162.555,-45.8533"/>
<polygon fill="#c0c0c0" stroke="#c0c0c0" stroke-width="2" points="165.8609,-47.0055 166.095,-36.4133 159.3066,-44.5476 165.8609,-47.0055"/>
</g>
<!-- 2 -->
<g id="node3" class="node">
<title>2</title>
<path fill="none" stroke="#d8ac56" stroke-width="2" d="M161,-180C161,-180 131,-180 131,-180 125,-180 119,-174 119,-168 119,-168 119,-156 119,-156 119,-150 125,-144 131,-144 131,-144 161,-144 161,-144 167,-144 173,-150 173,-156 173,-156 173,-168 173,-168 173,-174 167,-180 161,-180"/>
<text text-anchor="middle" x="146" y="-159.5" font-family="sans" font-size="10.00" fill="#000000">fastqc</text>
</g>
<!-- 2&#45;&gt;1 -->
<g id="edge4" class="edge">
<title>2&#45;&gt;1</title>
<path fill="none" stroke="#c0c0c0" stroke-width="2" d="M146,-143.8314C146,-136.131 146,-126.9743 146,-118.4166"/>
<polygon fill="#c0c0c0" stroke="#c0c0c0" stroke-width="2" points="149.5001,-118.4132 146,-108.4133 142.5001,-118.4133 149.5001,-118.4132"/>
</g>
<!-- 3 -->
<g id="node4" class="node">
<title>3</title>
<path fill="none" stroke="#80d856" stroke-width="2" d="M159,-468C159,-468 111,-468 111,-468 105,-468 99,-462 99,-456 99,-456 99,-444 99,-444 99,-438 105,-432 111,-432 111,-432 159,-432 159,-432 165,-432 171,-438 171,-444 171,-444 171,-456 171,-456 171,-462 165,-468 159,-468"/>
<text text-anchor="middle" x="135" y="-447.5" font-family="sans" font-size="10.00" fill="#000000">merge_lanes</text>
</g>
<!-- 3&#45;&gt;2 -->
<g id="edge6" class="edge">
<title>3&#45;&gt;2</title>
<path fill="none" stroke="#c0c0c0" stroke-width="2" d="M131.585,-431.5804C129.8291,-421.1767 127.8774,-407.9092 127,-396 121.5222,-321.6465 133.5728,-234.0804 140.8995,-190.1439"/>
<polygon fill="#c0c0c0" stroke="#c0c0c0" stroke-width="2" points="144.3646,-190.6449 142.603,-180.1975 137.465,-189.4631 144.3646,-190.6449"/>
</g>
<!-- 5 -->
<g id="node6" class="node">
<title>5</title>
<path fill="none" stroke="#56d882" stroke-width="2" d="M68,-396C68,-396 12,-396 12,-396 6,-396 0,-390 0,-384 0,-384 0,-372 0,-372 0,-366 6,-360 12,-360 12,-360 68,-360 68,-360 74,-360 80,-366 80,-372 80,-372 80,-384 80,-384 80,-390 74,-396 68,-396"/>
<text text-anchor="middle" x="40" y="-375.5" font-family="sans" font-size="10.00" fill="#000000">nonpareil_infer</text>
</g>
<!-- 3&#45;&gt;5 -->
<g id="edge9" class="edge">
<title>3&#45;&gt;5</title>
<path fill="none" stroke="#c0c0c0" stroke-width="2" d="M111.0275,-431.8314C99.2139,-422.8779 84.8028,-411.9558 72.0565,-402.2955"/>
<polygon fill="#c0c0c0" stroke="#c0c0c0" stroke-width="2" points="74.0486,-399.4137 63.9648,-396.1628 69.8205,-404.9925 74.0486,-399.4137"/>
</g>
<!-- 6 -->
<g id="node7" class="node">
<title>6</title>
<path fill="none" stroke="#d88556" stroke-width="2" d="M226.5,-324C226.5,-324 167.5,-324 167.5,-324 161.5,-324 155.5,-318 155.5,-312 155.5,-312 155.5,-300 155.5,-300 155.5,-294 161.5,-288 167.5,-288 167.5,-288 226.5,-288 226.5,-288 232.5,-288 238.5,-294 238.5,-300 238.5,-300 238.5,-312 238.5,-312 238.5,-318 232.5,-324 226.5,-324"/>
<text text-anchor="middle" x="197" y="-303.5" font-family="sans" font-size="10.00" fill="#000000">extend_tadpole</text>
</g>
<!-- 3&#45;&gt;6 -->
<g id="edge10" class="edge">
<title>3&#45;&gt;6</title>
<path fill="none" stroke="#c0c0c0" stroke-width="2" d="M166.4561,-431.9802C179.0312,-422.9479 192.1389,-410.7662 199,-396 207.9602,-376.7162 206.8315,-352.5089 203.8067,-334.0581"/>
<polygon fill="#c0c0c0" stroke="#c0c0c0" stroke-width="2" points="207.2389,-333.3713 201.9263,-324.2047 200.363,-334.6835 207.2389,-333.3713"/>
</g>
<!-- 7 -->
<g id="node8" class="node">
<title>7</title>
<path fill="none" stroke="#d6d856" stroke-width="2" d="M178,-396C178,-396 148,-396 148,-396 142,-396 136,-390 136,-384 136,-384 136,-372 136,-372 136,-366 142,-360 148,-360 148,-360 178,-360 178,-360 184,-360 190,-366 190,-372 190,-372 190,-384 190,-384 190,-390 184,-396 178,-396"/>
<text text-anchor="middle" x="163" y="-375.5" font-family="sans" font-size="10.00" fill="#000000">loglog</text>
</g>
<!-- 3&#45;&gt;7 -->
<g id="edge12" class="edge">
<title>3&#45;&gt;7</title>
<path fill="none" stroke="#c0c0c0" stroke-width="2" d="M142.0656,-431.8314C145.126,-423.9617 148.7779,-414.5712 152.1682,-405.8533"/>
<polygon fill="#c0c0c0" stroke="#c0c0c0" stroke-width="2" points="155.4768,-407.0019 155.8393,-396.4133 148.9527,-404.4647 155.4768,-407.0019"/>
</g>
<!-- 4 -->
<g id="node5" class="node">
<title>4</title>
<path fill="none" stroke="#56d8a9" stroke-width="2" d="M67.5,-252C67.5,-252 14.5,-252 14.5,-252 8.5,-252 2.5,-246 2.5,-240 2.5,-240 2.5,-228 2.5,-228 2.5,-222 8.5,-216 14.5,-216 14.5,-216 67.5,-216 67.5,-216 73.5,-216 79.5,-222 79.5,-228 79.5,-228 79.5,-240 79.5,-240 79.5,-246 73.5,-252 67.5,-252"/>
<text text-anchor="middle" x="41" y="-231.5" font-family="sans" font-size="10.00" fill="#000000">nonpareil_plot</text>
</g>
<!-- 4&#45;&gt;1 -->
<g id="edge3" class="edge">
<title>4&#45;&gt;1</title>
<path fill="none" stroke="#c0c0c0" stroke-width="2" d="M54.2983,-215.7623C72.6021,-190.66 105.6758,-145.3017 126.7011,-116.4671"/>
<polygon fill="#c0c0c0" stroke="#c0c0c0" stroke-width="2" points="129.7459,-118.2318 132.8097,-108.0896 124.0899,-114.1076 129.7459,-118.2318"/>
</g>
<!-- 5&#45;&gt;4 -->
<g id="edge8" class="edge">
<title>5&#45;&gt;4</title>
<path fill="none" stroke="#c0c0c0" stroke-width="2" d="M40.1267,-359.7623C40.2972,-335.201 40.6024,-291.2474 40.8031,-262.3541"/>
<polygon fill="#c0c0c0" stroke="#c0c0c0" stroke-width="2" points="44.3048,-262.1137 40.8744,-252.0896 37.3049,-262.065 44.3048,-262.1137"/>
</g>
<!-- 6&#45;&gt;2 -->
<g id="edge7" class="edge">
<title>6&#45;&gt;2</title>
<path fill="none" stroke="#c0c0c0" stroke-width="2" d="M184.1628,-287.7775C177.5665,-277.6539 169.9054,-264.591 165,-252 157.1978,-231.9736 152.3479,-208.1291 149.5025,-190.0161"/>
<polygon fill="#c0c0c0" stroke="#c0c0c0" stroke-width="2" points="152.9606,-189.4748 148.0516,-180.0859 146.0342,-190.4869 152.9606,-189.4748"/>
</g>
<!-- 8 -->
<g id="node9" class="node">
<title>8</title>
<path fill="none" stroke="#afd856" stroke-width="2" d="M246,-252C246,-252 186,-252 186,-252 180,-252 174,-246 174,-240 174,-240 174,-228 174,-228 174,-222 180,-216 186,-216 186,-216 246,-216 246,-216 252,-216 258,-222 258,-228 258,-228 258,-240 258,-240 258,-246 252,-252 246,-252"/>
<text text-anchor="middle" x="216" y="-231.5" font-family="sans" font-size="10.00" fill="#000000">low_complexity</text>
</g>
<!-- 6&#45;&gt;8 -->
<g id="edge13" class="edge">
<title>6&#45;&gt;8</title>
<path fill="none" stroke="#c0c0c0" stroke-width="2" d="M201.7945,-287.8314C203.8489,-280.0463 206.296,-270.7729 208.5756,-262.1347"/>
<polygon fill="#c0c0c0" stroke="#c0c0c0" stroke-width="2" points="211.9735,-262.9753 211.1409,-252.4133 205.2052,-261.1892 211.9735,-262.9753"/>
</g>
<!-- 7&#45;&gt;6 -->
<g id="edge11" class="edge">
<title>7&#45;&gt;6</title>
<path fill="none" stroke="#c0c0c0" stroke-width="2" d="M171.5796,-359.8314C175.3358,-351.8771 179.8257,-342.369 183.9798,-333.5723"/>
<polygon fill="#c0c0c0" stroke="#c0c0c0" stroke-width="2" points="187.1996,-334.9503 188.3048,-324.4133 180.8699,-331.9612 187.1996,-334.9503"/>
</g>
<!-- 8&#45;&gt;0 -->
<g id="edge1" class="edge">
<title>8&#45;&gt;0</title>
<path fill="none" stroke="#c0c0c0" stroke-width="2" d="M212.4078,-215.9555C204.9144,-178.3144 187.5696,-91.1867 178.5989,-46.1246"/>
<polygon fill="#c0c0c0" stroke="#c0c0c0" stroke-width="2" points="181.9974,-45.2692 176.6122,-36.1451 175.1321,-46.636 181.9974,-45.2692"/>
</g>
<!-- 8&#45;&gt;2 -->
<g id="edge5" class="edge">
<title>8&#45;&gt;2</title>
<path fill="none" stroke="#c0c0c0" stroke-width="2" d="M198.336,-215.8314C190.0268,-207.2848 179.9736,-196.9443 170.9082,-187.6198"/>
<polygon fill="#c0c0c0" stroke="#c0c0c0" stroke-width="2" points="173.3821,-185.1435 163.9018,-180.4133 168.3631,-190.023 173.3821,-185.1435"/>
</g>
</g>
</svg>
